<?xml version="1.0" encoding="UTF-8" standalone="no"?>
<svg
   xmlns:dc="http://purl.org/dc/elements/1.1/"
   xmlns:cc="http://creativecommons.org/ns#"
   xmlns:rdf="http://www.w3.org/1999/02/22-rdf-syntax-ns#"
   xmlns:svg="http://www.w3.org/2000/svg"
   xmlns="http://www.w3.org/2000/svg"
   xmlns:xlink="http://www.w3.org/1999/xlink"
   xmlns:sodipodi="http://sodipodi.sourceforge.net/DTD/sodipodi-0.dtd"
   xmlns:inkscape="http://www.inkscape.org/namespaces/inkscape"
   width="48"
   height="48"
   version="1.1"
   id="svg27"
   sodipodi:docname="applications-development.svg"
   inkscape:version="0.92.4 (5da689c313, 2019-01-14)">
  <metadata
     id="metadata31">
    <rdf:RDF>
      <cc:Work
         rdf:about="">
        <dc:format>image/svg+xml</dc:format>
        <dc:type
           rdf:resource="http://purl.org/dc/dcmitype/StillImage" />
        <dc:title></dc:title>
      </cc:Work>
    </rdf:RDF>
  </metadata>
  <sodipodi:namedview
     pagecolor="#ffffff"
     bordercolor="#666666"
     borderopacity="1"
     objecttolerance="10"
     gridtolerance="10"
     guidetolerance="10"
     inkscape:pageopacity="0"
     inkscape:pageshadow="2"
     inkscape:window-width="1112"
     inkscape:window-height="480"
     id="namedview29"
     showgrid="false"
     inkscape:zoom="4.9166667"
     inkscape:cx="2.1355932"
     inkscape:cy="24"
     inkscape:window-x="0"
     inkscape:window-y="25"
     inkscape:window-maximized="0"
     inkscape:current-layer="svg27" />
  <defs
     id="defs19">
    <linearGradient
       id="c">
      <stop
         offset="0"
         id="stop2" />
      <stop
         offset="1"
         stop-opacity="0"
         id="stop4" />
    </linearGradient>
    <linearGradient
       id="b">
      <stop
         offset="0"
         id="stop7" />
      <stop
         offset="1"
         stop-opacity="0"
         id="stop9" />
    </linearGradient>
    <linearGradient
       xlink:href="#a"
       id="d"
       x1="1.09"
       y1="1"
       x2="46.91"
       y2="47"
       gradientUnits="userSpaceOnUse" />
    <linearGradient
       id="a">
      <stop
         offset="0"
         stop-color="#37abc8"
         id="stop13" />
      <stop
         offset="1"
         stop-color="#162d50"
         id="stop15" />
    </linearGradient>
    <linearGradient
       xlink:href="#c"
       id="e"
       gradientUnits="userSpaceOnUse"
       x1="9.54"
       y1="34.15"
       x2="60.03"
       y2="34.15" />
  </defs>
  <rect
     width="45.830002"
     height="46"
     x="1.09"
     y="1"
     ry="5.0500002"
     id="rect21"
     style="fill:url(#d);fill-rule:evenodd" />
  <path
     d="m 20.06,47 h 21.8 a 5.06,5.06 0 0 0 5.05,-5.05 v -22.2 l -9.28,-9.29 -8.33,7.57 -5.52,3.57 -3.65,-1.16 -3.61,-1.56 -1.25,1.02 1.43,6.64 -2.85,-2.85 -0.45,4.59 -2.9,5.25 -0.44,3.47 z"
     id="path23"
     style="opacity:0.5;fill:url(#e)"
     inkscape:connector-curvature="0" />
  <path
     d="M 38.52,12.65 A 3.18,3.18 0 0 0 33.1,10.4 l -1.23,1.24 -0.18,-0.18 a 0.60811183,0.60811183 0 1 0 -0.86,0.86 l 0.18,0.18 -0.96,0.95 -0.18,-0.17 a 0.60458664,0.60458664 0 1 0 -0.85,0.86 l 0.17,0.17 -0.95,0.96 -0.18,-0.18 a 0.60811183,0.60811183 0 1 0 -0.86,0.86 l 0.18,0.18 -0.96,0.95 -0.17,-0.17 a 0.60811183,0.60811183 0 1 0 -0.86,0.86 l 0.17,0.17 -0.95,0.97 -0.18,-0.19 a 0.60811183,0.60811183 0 1 0 -0.86,0.86 l 0.18,0.18 -0.35,0.36 -0.8,-0.8 a 0.6,0.6 0 0 0 -0.69,-0.1 L 20.4,19.97 18,18.61 a 2.03,2.03 0 0 0 -3.09,1.75 c 0,3.3 0.69,6.5 2.02,9.53 a 0.6,0.6 0 0 1 -0.3,0.8 0.62,0.62 0 0 1 -0.8,-0.3 25.16,25.16 0 0 1 -1.85,-6.34 0.6,0.6 0 0 0 -1.04,-0.31 4.31,4.31 0 0 0 -0.5,5.1 l -2.7,5.39 a 2.52,2.52 0 0 0 1.44,3.49 l 2.34,0.78 0.18,0.02 a 0.6,0.6 0 0 0 0.43,-0.17 l 3.81,-3.81 0.18,0.18 a 0.6,0.6 0 0 0 0.85,0 l 9.08,-9.08 a 0.6,0.6 0 0 0 0,-0.85 l -0.17,-0.18 0.36,-0.37 0.17,0.2 a 0.6,0.6 0 0 0 0.86,0 0.6,0.6 0 0 0 0,-0.86 l -0.18,-0.18 0.96,-0.97 0.18,0.17 a 0.6,0.6 0 0 0 0.85,0 0.6,0.6 0 0 0 0,-0.84 l -0.17,-0.18 0.96,-0.97 0.17,0.18 a 0.6,0.6 0 0 0 0.86,0 0.6,0.6 0 0 0 0,-0.84 l -0.18,-0.2 0.96,-0.95 0.18,0.18 a 0.6,0.6 0 0 0 0.85,0 0.6,0.6 0 0 0 0,-0.86 l -0.17,-0.18 0.96,-0.96 0.17,0.18 a 0.6,0.6 0 0 0 0.86,0 0.6,0.6 0 0 0 0,-0.86 l -0.18,-0.17 1.24,-1.24 a 3.15,3.15 0 0 0 0.93,-2.24 z M 13.54,37.22 11.56,36.57 a 1.29,1.29 0 0 1 -0.75,-1.8 l 2.45,-4.92 3.82,3.83 z m 2.67,-15.16 c -0.03,-0.56 -0.09,-1.13 -0.09,-1.7 a 0.82,0.82 0 0 1 1.26,-0.7 l 1.7,0.97 z m 3.54,3.15 a 0.6,0.6 0 0 1 -0.42,-1.03 l 1.82,-1.81 A 0.60104076,0.60104076 0 1 1 22,23.22 l -1.82,1.82 a 0.6,0.6 0 0 1 -0.43,0.17 z M 23.81,25.04 22,26.85 a 0.6,0.6 0 0 1 -0.85,0 0.6,0.6 0 0 1 0,-0.85 l 1.82,-1.82 a 0.60108236,0.60108236 0 1 1 0.84,0.86 z"
     id="path25"
     inkscape:connector-curvature="0"
     style="fill:#e6e6e6" />
</svg>
