<svg xmlns="http://www.w3.org/2000/svg" width="24" height="24" version="1"><path d="M19.42 1a.35.35 0 0 0-.34.35l.03 2.01c-.77.8-2.01 2.08-3.48 3.47l-.05-.94h.06a.34.34 0 1 0-.05-.7l-.05.01-.03-.7.3-.07a.34.34 0 1 0-.18-.67l-.15.04-.11-2.13a.34.34 0 0 0-.34-.33h-2.41c-.2 0-.35.17-.34.37l.08 1.44c-.74.39-1.69.9-2.7 1.51a31.04 31.04 0 0 0-4.54 3.22.34.34 0 0 0-.16 0l-2.4.7a.34.34 0 0 0-.17.1c-.1.01-.2.07-.27.16-1.65 2.6-.12 4.59 1.44 5.46 2.84 1.67 5.87.57 6.9.25a.34.34 0 0 0 .2-.52l-.13-.18.01-.04.65-2.24c.78-.6 1.57-1.25 2.34-1.92l1.85 4.17.68 3.36-.42 5.45c-.01.2.15.37.35.37h2.13c.18 0 .33-.14.34-.32l.35-4.81v-.09l-.67-3.66 3.72-6.77c.02-.04.04-.1.04-.14l.02-.37.3.03h.03a.34.34 0 0 0 .03-.68l-.32-.03.04-.7.24-.04a.34.34 0 1 0-.08-.68l-.11.01.2-3.39A.34.34 0 0 0 21.9 1zm1.13.54a.67.67 0 0 1 .66.66.67.67 0 0 1-.66.67.67.67 0 0 1-.67-.67.67.67 0 0 1 .67-.66zM14 1.86a.69.69 0 0 1 .68.69.69.69 0 0 1-.68.68.69.69 0 0 1-.7-.68.69.69 0 0 1 .7-.7zM12.4 3.9l.05.7-.29.07a.34.34 0 1 0 .18.66l.15-.04v.14l-.24.02a.34.34 0 0 0 .03.68h.02l.24-.02.08 1.43.03.12.59 1.33c-.78.68-1.59 1.34-2.39 1.96l-2.3-.33a.34.34 0 0 0-.33.14c-.11.02-.21.1-.26.21-.33.9-1.35 2.37-3.8 3.15-.73-1.3.52-2.83 1.1-3.23.16-.1.2-.31.1-.46.03-.05.04-.1.04-.16V8.56c2.1-1.9 5.12-3.65 7-4.65zm6.72.43v.75l-.3.04a.34.34 0 0 0 .07.68l.25-.03v.11l-.24-.02a.34.34 0 0 0-.07.69l.32.02v.18l-2.09 4.06-1.24-3.23a99.35 99.35 0 0 0 3.3-3.25zm-15 4.5l-.46.53-.45-.27zm.6.38v.79l-.46-.28.45-.5zm4.16 2.15l1.2.17-.74.52zm1.4.87l-.25.86-.31-.47.56-.39z" fill="#e6e6e6"/></svg>