<?xml version="1.0" encoding="UTF-8" standalone="no"?>
<svg
   xmlns:dc="http://purl.org/dc/elements/1.1/"
   xmlns:cc="http://creativecommons.org/ns#"
   xmlns:rdf="http://www.w3.org/1999/02/22-rdf-syntax-ns#"
   xmlns:svg="http://www.w3.org/2000/svg"
   xmlns="http://www.w3.org/2000/svg"
   xmlns:xlink="http://www.w3.org/1999/xlink"
   xmlns:sodipodi="http://sodipodi.sourceforge.net/DTD/sodipodi-0.dtd"
   xmlns:inkscape="http://www.inkscape.org/namespaces/inkscape"
   width="48"
   height="48"
   version="1.1"
   id="svg22"
   sodipodi:docname="applications-java.svg"
   inkscape:version="0.92.4 (5da689c313, 2019-01-14)">
  <metadata
     id="metadata26">
    <rdf:RDF>
      <cc:Work
         rdf:about="">
        <dc:format>image/svg+xml</dc:format>
        <dc:type
           rdf:resource="http://purl.org/dc/dcmitype/StillImage" />
        <dc:title></dc:title>
      </cc:Work>
    </rdf:RDF>
  </metadata>
  <sodipodi:namedview
     pagecolor="#ffffff"
     bordercolor="#666666"
     borderopacity="1"
     objecttolerance="10"
     gridtolerance="10"
     guidetolerance="10"
     inkscape:pageopacity="0"
     inkscape:pageshadow="2"
     inkscape:window-width="1112"
     inkscape:window-height="480"
     id="namedview24"
     showgrid="false"
     inkscape:zoom="4.9166667"
     inkscape:cx="2.1355932"
     inkscape:cy="24"
     inkscape:window-x="0"
     inkscape:window-y="25"
     inkscape:window-maximized="0"
     inkscape:current-layer="svg22" />
  <defs
     id="defs14">
    <linearGradient
       id="b">
      <stop
         offset="0"
         id="stop2" />
      <stop
         offset="1"
         stop-opacity="0"
         id="stop4" />
    </linearGradient>
    <linearGradient
       xlink:href="#a"
       id="c"
       x1="1.09"
       y1="1"
       x2="46.91"
       y2="47"
       gradientUnits="userSpaceOnUse" />
    <linearGradient
       id="a">
      <stop
         offset="0"
         stop-color="#37abc8"
         id="stop8" />
      <stop
         offset="1"
         stop-color="#162d50"
         id="stop10" />
    </linearGradient>
    <linearGradient
       xlink:href="#b"
       id="d"
       gradientUnits="userSpaceOnUse"
       x1="11.46"
       y1="26.57"
       x2="55.6"
       y2="26.57" />
  </defs>
  <rect
     width="45.830002"
     height="46"
     x="1.09"
     y="1"
     ry="5.0500002"
     id="rect16"
     style="fill:url(#c);fill-rule:evenodd" />
  <path
     d="m 23.97,47 h 17.9 a 5.06,5.06 0 0 0 5.04,-5.05 V 29.05 L 36.88,19.01 31.6,18.87 l -1.46,-1.46 -0.58,0.4 -5.65,-5.66 -1.06,0.4 -7.5,-7.54 0.24,2.18 -1.4,1.98 -2.1,1.6 -0.63,2.15 2.09,3.18 1.4,1.31 0.66,4.12 2.35,2.35 -0.71,1.67 1.9,1.9 c 0.2,0.2 -1.38,0.97 -1.38,0.97 l 1.39,1.39 -0.43,0.53 1.2,1.2 -3.98,7.43 z"
     id="path18"
     style="opacity:0.5;fill:url(#d)"
     inkscape:connector-curvature="0" />
  <path
     d="m 15.34,5.02 c 0.76,3.34 -2.7,4.35 -3.96,6.42 -0.85,1.42 0.44,2.94 2.17,4.67 -0.7,-1.7 -2.99,-3.17 0,-5.75 3.68,-3.22 1.78,-5.32 1.78,-5.32 z m 2.26,4.14 c 0,0 -6.22,1.7 -3.25,5.53 0.88,1.1 -0.23,2.13 -0.23,2.13 0,0 2.23,-1.28 1.2,-2.88 -0.95,-1.5 -1.7,-2.22 2.3,-4.8 z m 4.55,2.99 0.34,2.33 h 1.08 l 0.34,-2.32 z m 0.88,3.28 c -1.76,0 -3.53,0.34 -5.18,1.03 H 28.2 a 13.47,13.47 0 0 0 -5.18,-1.05 z m -9.85,2 -0.51,0.5 2.94,3.6 -0.65,-4.1 z m 2.75,0 1.32,8.13 h 2.89 L 19.7,17.42 Z m 4.75,0 0.43,8.13 h 3.87 l 0.43,-8.14 z m 5.69,0 -0.43,8.13 h 2.93 l 1.27,-8.14 z m 4.75,0 -0.31,1.91 h 2.78 c 0.12,0 0.25,0.05 0.33,0.12 l 0.48,0.5 c 0.12,0.1 0.15,0.26 0.13,0.43 l -1.43,6.7 a 0.46,0.46 0 0 1 -0.47,0.4 h -0.96 v 1.42 h 2.97 l 2.25,-9.9 -1.58,-1.59 z m -13.35,9.09 v 1.91 h 10.55 v -1.91 z m 0.96,2.87 v 0.96 h 8.63 v -0.96 z m -1.5,1.92 -1.28,7.67 h 3.77 l 0.42,-7.67 z m 3.87,0 -0.42,7.67 h 4.73 l -0.43,-7.67 z m 4.84,0 0.43,7.67 h 3.77 l -1.27,-7.67 z"
     id="path20"
     inkscape:connector-curvature="0"
     style="clip-rule:evenodd;fill:#e6e6e6;fill-rule:evenodd" />
</svg>
