<?xml version="1.0" encoding="UTF-8" standalone="no"?>
<svg
   xmlns:dc="http://purl.org/dc/elements/1.1/"
   xmlns:cc="http://creativecommons.org/ns#"
   xmlns:rdf="http://www.w3.org/1999/02/22-rdf-syntax-ns#"
   xmlns:svg="http://www.w3.org/2000/svg"
   xmlns="http://www.w3.org/2000/svg"
   xmlns:xlink="http://www.w3.org/1999/xlink"
   xmlns:sodipodi="http://sodipodi.sourceforge.net/DTD/sodipodi-0.dtd"
   xmlns:inkscape="http://www.inkscape.org/namespaces/inkscape"
   width="48"
   height="48"
   version="1"
   id="svg33"
   sodipodi:docname="applications-other.svg"
   inkscape:version="0.92.4 (5da689c313, 2019-01-14)">
  <metadata
     id="metadata37">
    <rdf:RDF>
      <cc:Work
         rdf:about="">
        <dc:format>image/svg+xml</dc:format>
        <dc:type
           rdf:resource="http://purl.org/dc/dcmitype/StillImage" />
        <dc:title></dc:title>
      </cc:Work>
    </rdf:RDF>
  </metadata>
  <sodipodi:namedview
     pagecolor="#ffffff"
     bordercolor="#666666"
     borderopacity="1"
     objecttolerance="10"
     gridtolerance="10"
     guidetolerance="10"
     inkscape:pageopacity="0"
     inkscape:pageshadow="2"
     inkscape:window-width="1112"
     inkscape:window-height="480"
     id="namedview35"
     showgrid="false"
     inkscape:zoom="4.9166667"
     inkscape:cx="2.1355932"
     inkscape:cy="24"
     inkscape:window-x="0"
     inkscape:window-y="25"
     inkscape:window-maximized="0"
     inkscape:current-layer="svg33" />
  <defs
     id="defs19">
    <linearGradient
       id="c">
      <stop
         offset="0"
         id="stop2" />
      <stop
         offset="1"
         stop-opacity="0"
         id="stop4" />
    </linearGradient>
    <linearGradient
       id="a">
      <stop
         offset="0"
         stop-color="#2b1100"
         id="stop7" />
      <stop
         offset="1"
         stop-color="#f95"
         id="stop9" />
    </linearGradient>
    <linearGradient
       id="b">
      <stop
         offset="0"
         stop-color="#37abc8"
         id="stop12" />
      <stop
         offset="1"
         stop-color="#162d50"
         id="stop14" />
    </linearGradient>
    <linearGradient
       xlink:href="#b"
       id="d"
       x1="1.09"
       y1="1"
       x2="46.91"
       y2="47"
       gradientUnits="userSpaceOnUse" />
    <linearGradient
       xlink:href="#c"
       id="e"
       gradientUnits="userSpaceOnUse"
       x1="10.01"
       y1="31.33"
       x2="53.29"
       y2="31.33" />
  </defs>
  <rect
     width="45.830002"
     height="46"
     x="1.09"
     y="1"
     ry="5.0500002"
     id="rect21"
     style="fill:url(#d);fill-rule:evenodd" />
  <path
     d="m 19.16,47 h 22.7 a 5.06,5.06 0 0 0 5.05,-5.05 V 25.93 l -16.69,-16.7 0.2,1.5 -1.17,3.25 -0.97,5.08 2.26,2.27 -2.41,0.33 -12.33,-12.32 0.22,1.12 -0.36,2.85 -1.87,2.19 0.27,3.82 1.7,1.07 -4.5,3.07 -0.16,7.86 5.57,5.57 -5.74,1.9 z"
     id="path23"
     style="opacity:0.5;fill:url(#e)"
     inkscape:connector-curvature="0" />
  <g
     id="g31"
     style="fill:#e6e6e6">
    <path
       d="m 33.67,36.84 h -0.96 v -0.48 h -0.97 v 0.97 H 30.77 V 36.36 H 29.8 v 0.97 h -0.97 v -0.97 h -0.97 v 0.48 H 26.9 v -1.46 h -0.97 v 1.96 c 0,0.79 0.65,1.43 1.46,1.43 h 5.8 c 0.8,0 1.45,-0.64 1.45,-1.43 v -1.96 h -0.97 z m 1.46,-5.8 v -5.33 a 0.49,0.49 0 0 0 -0.98,0 v 1.94 a 1.46,1.46 0 0 1 -2.89,0 v -7.18 a 6.84,6.84 0 0 0 -7.74,6.85 v 0.4 c 0,2.13 0.37,4.25 1.07,6.12 a 0.9,0.9 0 0 0 0.85,0.58 h 2.42 v 0.96 h 4.85 v -0.96 h 2.42 c 0.37,0 0.71,-0.23 0.85,-0.58 0.16,-0.44 0.3,-0.9 0.44,-1.38 a 1.44,1.44 0 0 1 -1.3,-1.43 z m -8.2,0.25 A 1.62,1.62 0 0 1 24.48,29.9 v -2.08 c 0,-0.9 0.72,-1.63 1.63,-1.63 h 1.6 c 0.87,0 1.6,0.74 1.6,1.63 v 1.13 c 0,0.56 -0.3,1.09 -0.78,1.38 z m 5.29,1.48 a 1.17,1.17 0 0 1 -1.93,0.88 1.17,1.17 0 0 1 -1.94,-0.88 v -0.06 c 0,-0.25 0.08,-0.5 0.23,-0.7 L 30.28,29.75 32,32 c 0.15,0.2 0.23,0.45 0.23,0.7 z m 0,0"
       id="path25"
       inkscape:connector-curvature="0" />
    <path
       d="m 32.22,20.68 v 6.96 a 0.49,0.49 0 0 0 0.96,0 v -1.93 a 1.46,1.46 0 0 1 2.91,0 v 5.32 a 0.49,0.49 0 0 0 0.97,0 V 27.1 a 6.62,6.62 0 0 0 -4.84,-6.42 z m -21.28,1.17 v 9.18 a 0.49,0.49 0 0 0 0.97,0 V 25.7 a 1.46,1.46 0 0 1 2.9,0 v 1.94 a 0.49,0.49 0 0 0 0.96,0 V 20.4 h -3.39 c -0.79,0 -1.44,0.65 -1.44,1.46 z m 0,0"
       id="path27"
       inkscape:connector-curvature="0" />
    <path
       d="m 20.6,20.39 h -3.85 v 7.26 a 1.46,1.46 0 0 1 -2.9,0 v -1.93 a 0.49,0.49 0 0 0 -0.97,0 v 5.32 c 0,0.63 -0.4,1.17 -0.96,1.37 v 5.4 h -0.98 v 0.97 H 21.58 V 37.82 H 20.6 Z m -5.85,-0.64 c 0.1,0.05 0.22,-0.06 0.15,-0.16 a 2.58,2.58 0 0 1 -0.15,-2.56 c 0.86,-1.9 1.38,-2.9 1.38,-2.9 0,0 0.28,1.15 1.03,2.18 0.72,0.98 1.1,2.22 0.48,3.26 -0.06,0.1 0.04,0.22 0.14,0.17 a 3.2,3.2 0 0 0 1.78,-2.83 c 0.04,-0.5 -0.03,-1.17 -0.3,-2.04 a 4.01,4.01 0 0 0 -1.04,-1.84 0.1118034,0.1118034 0 0 0 -0.2,0.1 c 0.08,1.18 -0.37,1.48 -0.62,0.8 a 4.15,4.15 0 0 1 -0.16,-1.3 c 0,-0.96 -0.28,-1.94 -0.88,-2.74 a 3.09,3.09 0 0 0 -0.55,-0.55 0.1118034,0.1118034 0 0 0 -0.2,0.1 c 0.06,0.64 0,2.5 -1.6,4.7 -1.48,2.05 -0.91,3.62 -0.7,4.04 0.38,0.82 0.92,1.3 1.44,1.58 z m 14.43,-0.09 c 0.1,0.05 0.21,-0.06 0.15,-0.16 a 2.58,2.58 0 0 1 -0.15,-2.56 c 0.85,-1.9 1.38,-2.9 1.38,-2.9 a 7,7 0 0 0 1.02,2.18 c 0.73,1 1.13,2.24 0.49,3.27 -0.07,0.1 0.03,0.21 0.14,0.16 a 3.2,3.2 0 0 0 1.78,-2.82 c 0.02,-0.5 -0.03,-1.18 -0.3,-2.05 a 4.01,4.01 0 0 0 -1.05,-1.84 0.11,0.11 0 0 0 -0.18,0.1 c 0.07,1.18 -0.38,1.48 -0.63,0.8 a 4.15,4.15 0 0 1 -0.16,-1.3 c 0,-0.96 -0.28,-1.94 -0.88,-2.74 a 3.09,3.09 0 0 0 -0.57,-0.56 0.11,0.11 0 0 0 -0.17,0.1 c 0.05,0.65 0,2.5 -1.62,4.7 -1.47,2.05 -0.9,3.63 -0.7,4.05 0.39,0.82 0.92,1.3 1.45,1.57 z"
       id="path29"
       inkscape:connector-curvature="0" />
  </g>
</svg>
