<?xml version="1.0" encoding="UTF-8" standalone="no"?>
<svg
   xmlns:dc="http://purl.org/dc/elements/1.1/"
   xmlns:cc="http://creativecommons.org/ns#"
   xmlns:rdf="http://www.w3.org/1999/02/22-rdf-syntax-ns#"
   xmlns:svg="http://www.w3.org/2000/svg"
   xmlns="http://www.w3.org/2000/svg"
   xmlns:xlink="http://www.w3.org/1999/xlink"
   xmlns:sodipodi="http://sodipodi.sourceforge.net/DTD/sodipodi-0.dtd"
   xmlns:inkscape="http://www.inkscape.org/namespaces/inkscape"
   width="48"
   height="48"
   viewBox="0 0 12.7 12.7"
   version="1.1"
   id="svg39"
   sodipodi:docname="2048.svg"
   inkscape:version="0.92.4 (5da689c313, 2019-01-14)">
  <metadata
     id="metadata43">
    <rdf:RDF>
      <cc:Work
         rdf:about="">
        <dc:format>image/svg+xml</dc:format>
        <dc:type
           rdf:resource="http://purl.org/dc/dcmitype/StillImage" />
        <dc:title></dc:title>
      </cc:Work>
    </rdf:RDF>
  </metadata>
  <sodipodi:namedview
     pagecolor="#ffffff"
     bordercolor="#666666"
     borderopacity="1"
     objecttolerance="10"
     gridtolerance="10"
     guidetolerance="10"
     inkscape:pageopacity="0"
     inkscape:pageshadow="2"
     inkscape:window-width="1112"
     inkscape:window-height="480"
     id="namedview41"
     showgrid="false"
     inkscape:zoom="4.9166667"
     inkscape:cx="2.1355932"
     inkscape:cy="24"
     inkscape:window-x="0"
     inkscape:window-y="25"
     inkscape:window-maximized="0"
     inkscape:current-layer="svg39" />
  <defs
     id="defs25">
    <linearGradient
       id="d">
      <stop
         offset="0"
         stop-color="#e5ff80"
         id="stop2" />
      <stop
         offset=".52"
         stop-color="#d3bc5f"
         id="stop4" />
      <stop
         offset="1"
         stop-color="#a05a2c"
         id="stop6" />
    </linearGradient>
    <linearGradient
       id="c">
      <stop
         offset="0"
         stop-color="maroon"
         id="stop9" />
      <stop
         offset="1"
         stop-color="maroon"
         stop-opacity="0"
         id="stop11" />
    </linearGradient>
    <linearGradient
       id="b">
      <stop
         offset="0"
         stop-color="maroon"
         id="stop14" />
      <stop
         offset="1"
         stop-color="maroon"
         stop-opacity="0"
         id="stop16" />
    </linearGradient>
    <linearGradient
       gradientTransform="matrix(1.25 0 0 1.26667 -92.14 -151.08)"
       gradientUnits="userSpaceOnUse"
       x2="386.57"
       y2="540.75"
       x1="390.57"
       y1="535.36"
       id="a">
      <stop
         stop-color="#fdbc4b"
         id="stop19" />
      <stop
         stop-color="#dde341"
         offset="1"
         id="stop21" />
    </linearGradient>
    <linearGradient
       xlink:href="#d"
       id="e"
       x1="2.75"
       y1="12.37"
       x2="5.43"
       y2="-.11"
       gradientUnits="userSpaceOnUse" />
  </defs>
  <path
     d="M 6.35,0.1 C 4.81,0.1 3.57,0.39 2.66,0.97 A 3.67,3.67 0 0 0 1,4.22 c 0,1.91 1.54,4.47 2.01,5.2 0.54,0.85 1.13,1.61 1.65,2.16 0.68,0.7 1.21,1.03 1.69,1.03 0.48,0 1.01,-0.33 1.69,-1.03 A 15.2,15.2 0 0 0 9.69,9.43 c 0.47,-0.74 2,-3.3 2,-5.21 0,-1.42 -0.57,-2.54 -1.65,-3.25 A 6.75,6.75 0 0 0 6.35,0.09 Z"
     id="path27"
     style="fill:url(#e)"
     inkscape:connector-curvature="0" />
  <path
     d="M 6.35,0.1 C 4.81,0.1 3.57,0.39 2.66,0.97 A 3.67,3.67 0 0 0 1,4.22 c 0,1.91 1.54,4.47 2.01,5.2 0.54,0.85 1.13,1.61 1.65,2.16 0.68,0.7 1.21,1.03 1.69,1.03 0.48,0 1.01,-0.33 1.69,-1.03 A 15.2,15.2 0 0 0 9.69,9.43 c 0.47,-0.74 2,-3.3 2,-5.21 0,-1.42 -0.57,-2.54 -1.65,-3.25 A 6.75,6.75 0 0 0 6.35,0.09 Z m 0,0.03 C 6.91,0.15 7.44,0.2 7.9,0.31 a 5.82,5.82 0 0 1 1.6,0.66 3.65,3.65 0 0 1 1.24,1.36 c 0.14,0.27 0.25,0.57 0.32,0.88 A 4.61,4.61 0 0 1 10.92,5.74 C 10.77,6.26 10.56,6.78 10.34,7.26 9.9,8.23 9.39,9.06 9.16,9.43 A 15.2,15.2 0 0 1 7.51,11.58 4.9,4.9 0 0 1 6.59,12.36 0.96,0.96 0 0 1 6.35,12.46 0.96,0.96 0 0 1 6.11,12.36 4.76,4.76 0 0 1 5.19,11.58 14.41,14.41 0 0 1 3.54,9.43 19.2,19.2 0 0 1 2.36,7.26 C 2.14,6.78 1.93,6.26 1.78,5.74 A 4.6,4.6 0 0 1 1.64,3.22 3.73,3.73 0 0 1 2.48,1.58 3.65,3.65 0 0 1 3.93,0.58 6.83,6.83 0 0 1 6.35,0.13 Z"
     id="path29"
     inkscape:connector-curvature="0"
     style="opacity:0.35" />
  <g
     id="g33"
     style="opacity:0.75;fill:#24221c">
    <path
       d="M 2.8,4.2 H 2.3 C 2.3,3.82 2.4,3.56 2.65,3.4 2.78,3.3 2.96,3.26 3.18,3.26 3.44,3.26 3.65,3.34 3.81,3.48 3.97,3.61 4.07,3.82 4.07,4.08 4.07,4.3 4.02,4.46 3.89,4.61 3.81,4.72 3.68,4.83 3.52,4.93 L 3.2,5.17 C 3.12,5.22 3.02,5.3 2.99,5.38 H 4.1 V 5.91 H 2.25 C 2.25,5.73 2.28,5.54 2.33,5.43 2.41,5.25 2.59,5.06 2.86,4.88 L 3.28,4.56 C 3.44,4.4 3.52,4.27 3.52,4.11 3.52,4.01 3.49,3.93 3.44,3.85 3.36,3.77 3.28,3.71 3.18,3.71 3.02,3.71 2.91,3.77 2.86,3.9 2.8,3.95 2.8,4.06 2.8,4.2 Z m 1.57,0.39 c 0,-0.45 0.08,-0.77 0.23,-1 0.16,-0.25 0.37,-0.33 0.7,-0.33 0.3,0 0.55,0.11 0.68,0.32 0.16,0.21 0.24,0.56 0.24,1 0,0.46 -0.08,0.8 -0.24,1.01 C 5.82,5.8 5.61,5.91 5.29,5.91 4.97,5.91 4.74,5.81 4.6,5.59 a 1.76,1.76 0 0 1 -0.23,-1 z m 0.52,0 c 0,0.34 0.03,0.58 0.08,0.71 0.06,0.13 0.16,0.21 0.3,0.21 0.15,0 0.23,-0.08 0.29,-0.2 C 5.61,5.17 5.64,4.93 5.64,4.59 5.64,4.24 5.61,4.01 5.56,3.87 5.5,3.74 5.4,3.67 5.26,3.67 5.11,3.67 5.03,3.74 4.97,3.87 4.92,4.01 4.89,4.24 4.89,4.59 Z m 5.56,0.47 c 0,0.22 -0.05,0.4 -0.18,0.53 C 10.11,5.8 9.87,5.89 9.55,5.89 9.23,5.89 9,5.8 8.84,5.62 A 0.79,0.79 0 0 1 8.63,5.09 C 8.63,4.96 8.65,4.85 8.68,4.77 8.73,4.61 8.86,4.51 9.02,4.43 8.82,4.33 8.7,4.16 8.7,3.93 8.7,3.71 8.78,3.53 8.94,3.43 a 0.86,0.86 0 0 1 0.58,-0.2 c 0.27,0 0.48,0.09 0.64,0.22 0.13,0.13 0.21,0.3 0.21,0.48 a 0.7,0.7 0 0 1 -0.08,0.31 0.62,0.62 0 0 1 -0.24,0.22 c 0.14,0.05 0.24,0.13 0.3,0.23 0.05,0.08 0.1,0.22 0.1,0.37 z M 9.9,5.09 C 9.9,4.99 9.87,4.88 9.82,4.83 A 0.4,0.4 0 0 0 9.5,4.69 c -0.1,0 -0.19,0.03 -0.27,0.1 -0.08,0.09 -0.1,0.2 -0.1,0.33 0,0.13 0.02,0.24 0.1,0.29 0.08,0.08 0.16,0.1 0.3,0.1 0.13,0 0.2,-0.05 0.29,-0.13 A 0.6,0.6 0 0 0 9.9,5.09 Z M 9.52,4.29 C 9.63,4.29 9.71,4.27 9.76,4.22 9.82,4.16 9.84,4.09 9.84,3.98 9.84,3.88 9.82,3.82 9.76,3.74 A 0.3,0.3 0 0 0 9.56,3.66 C 9.45,3.66 9.34,3.69 9.29,3.74 9.23,3.79 9.21,3.87 9.21,3.98 c 0,0.08 0.02,0.16 0.08,0.21 0.05,0.08 0.13,0.1 0.23,0.1 z M 8.07,4.85 V 3.26 H 7.43 L 6.48,4.86 V 5.38 H 7.54 V 5.91 H 8.07 V 5.38 H 8.33 V 4.85 Z m -0.53,0 H 7.01 L 7.54,3.93 Z"
       id="path31"
       inkscape:connector-curvature="0" />
  </g>
  <g
     id="g37"
     style="fill:#ffffff">
    <path
       d="M 2.8,3.85 H 2.3 C 2.3,3.48 2.4,3.21 2.65,3.05 2.78,2.95 2.96,2.92 3.18,2.92 3.44,2.92 3.65,3 3.81,3.14 3.97,3.27 4.07,3.48 4.07,3.74 4.07,3.96 4.02,4.11 3.89,4.27 3.81,4.37 3.68,4.48 3.52,4.59 L 3.2,4.83 C 3.12,4.88 3.02,4.96 2.99,5.04 H 4.1 V 5.57 H 2.25 C 2.25,5.38 2.28,5.2 2.33,5.09 2.41,4.91 2.59,4.72 2.86,4.54 L 3.28,4.22 C 3.44,4.06 3.52,3.92 3.52,3.77 3.52,3.67 3.49,3.59 3.44,3.51 3.36,3.43 3.28,3.37 3.18,3.37 3.02,3.37 2.91,3.43 2.86,3.56 2.8,3.61 2.8,3.72 2.8,3.85 Z m 1.57,0.4 C 4.37,3.8 4.45,3.48 4.6,3.25 4.76,3 4.97,2.92 5.3,2.92 c 0.3,0 0.55,0.1 0.68,0.32 0.16,0.21 0.24,0.56 0.24,1 0,0.46 -0.08,0.8 -0.24,1.01 C 5.82,5.46 5.61,5.57 5.29,5.57 4.97,5.57 4.74,5.47 4.6,5.25 a 1.76,1.76 0 0 1 -0.23,-1 z m 0.52,0 c 0,0.34 0.03,0.58 0.08,0.71 0.06,0.13 0.16,0.21 0.3,0.21 0.15,0 0.23,-0.08 0.29,-0.2 C 5.61,4.83 5.64,4.59 5.64,4.25 5.64,3.9 5.61,3.66 5.56,3.53 5.5,3.4 5.4,3.33 5.26,3.33 5.11,3.33 5.03,3.4 4.97,3.53 4.92,3.66 4.89,3.9 4.89,4.25 Z m 5.56,0.47 c 0,0.21 -0.05,0.4 -0.18,0.53 -0.16,0.21 -0.4,0.3 -0.72,0.3 C 9.23,5.55 9,5.46 8.84,5.28 A 0.79,0.79 0 0 1 8.63,4.75 C 8.63,4.62 8.65,4.51 8.68,4.43 8.73,4.27 8.86,4.17 9.02,4.09 8.82,3.99 8.7,3.82 8.7,3.59 8.7,3.37 8.78,3.19 8.94,3.09 a 0.86,0.86 0 0 1 0.58,-0.2 c 0.27,0 0.48,0.09 0.64,0.22 0.13,0.13 0.21,0.29 0.21,0.48 A 0.7,0.7 0 0 1 10.29,3.9 0.62,0.62 0 0 1 10.05,4.11 c 0.14,0.06 0.24,0.14 0.3,0.24 0.05,0.08 0.1,0.21 0.1,0.37 z M 9.9,4.75 C 9.9,4.65 9.87,4.54 9.82,4.48 A 0.4,0.4 0 0 0 9.5,4.35 c -0.1,0 -0.19,0.03 -0.27,0.1 -0.08,0.09 -0.1,0.2 -0.1,0.33 0,0.13 0.02,0.23 0.1,0.29 0.08,0.08 0.16,0.1 0.3,0.1 0.13,0 0.2,-0.05 0.29,-0.13 A 0.6,0.6 0 0 0 9.9,4.74 Z M 9.52,3.95 C 9.63,3.95 9.71,3.93 9.76,3.88 9.82,3.82 9.84,3.74 9.84,3.64 9.84,3.54 9.82,3.48 9.76,3.4 A 0.3,0.3 0 0 0 9.56,3.32 C 9.45,3.32 9.34,3.35 9.29,3.4 9.23,3.45 9.21,3.53 9.21,3.64 c 0,0.08 0.02,0.16 0.08,0.21 0.05,0.08 0.13,0.1 0.23,0.1 z M 8.07,4.51 V 2.92 H 7.43 L 6.48,4.52 V 5.04 H 7.54 V 5.57 H 8.07 V 5.04 H 8.33 V 4.51 Z m -0.53,0 H 7.01 L 7.54,3.59 Z"
       id="path35"
       inkscape:connector-curvature="0" />
  </g>
</svg>
