<?xml version="1.0" encoding="UTF-8" standalone="no"?><svg xmlns:dc="http://purl.org/dc/elements/1.1/" xmlns:cc="http://creativecommons.org/ns#" xmlns:rdf="http://www.w3.org/1999/02/22-rdf-syntax-ns#" xmlns="http://www.w3.org/2000/svg" xmlns:xlink="http://www.w3.org/1999/xlink" width="48" height="48" viewBox="0 0 12.7 12.7"><metadata><rdf:RDF><cc:Work><dc:format>image/svg+xml</dc:format><dc:type rdf:resource="http://purl.org/dc/dcmitype/StillImage"/><dc:title/></cc:Work></rdf:RDF></metadata><defs><linearGradient id="c"><stop offset="0" stop-color="#3771c8"/><stop offset="1" stop-color="#afc6e9"/></linearGradient><linearGradient id="b"><stop offset="0"/><stop offset="1" stop-color="#fff" stop-opacity="0"/></linearGradient><linearGradient id="a"><stop offset="0" stop-color="#5f8dd3"/><stop offset="1" stop-color="#d7e3f4"/></linearGradient><linearGradient xlink:href="#c" id="d" x1="5.96" y1="-.23" x2="9.87" y2="11.9" gradientUnits="userSpaceOnUse"/></defs><path d="M6.35.1C4.81.1 3.57.38 2.66.96A3.67 3.67 0 0 0 1 4.22c0 1.91 1.54 4.47 2.01 5.2.54.85 1.13 1.61 1.65 2.16.68.7 1.21 1.03 1.69 1.03s1.01-.33 1.69-1.03a15.2 15.2 0 0 0 1.65-2.15c.47-.74 2-3.3 2-5.21 0-1.42-.57-2.54-1.65-3.25A6.75 6.75 0 0 0 6.35.1z" fill="url(#d)"/><path d="M7.42 12.13c.2-.15.4-.29.62-.52a15.2 15.2 0 0 0 1.65-2.15c.23-.37.73-1.2 1.18-2.17.22-.48.42-1 .57-1.52.13-.45.2-.89.22-1.3L8.23 1.03l-.12.6.05 1.5-.33 1.78-.77-.77L7 5.25l-.28.38-3.07-3.07.13 1 .8 2.18.38 1.97.34 2.3z" opacity=".73" fill="#162d50"/><path d="M6.35.1C4.81.1 3.57.38 2.66.96A3.67 3.67 0 0 0 1 4.22c0 1.91 1.54 4.47 2.01 5.2.54.85 1.13 1.61 1.65 2.16.68.7 1.21 1.03 1.69 1.03s1.01-.33 1.69-1.03a15.2 15.2 0 0 0 1.65-2.15c.47-.74 2-3.3 2-5.21 0-1.42-.57-2.54-1.65-3.25A6.75 6.75 0 0 0 6.35.1zm0 .03C6.91.15 7.44.2 7.9.31a5.82 5.82 0 0 1 1.6.66 3.65 3.65 0 0 1 1.24 1.36c.14.27.25.57.32.88a4.61 4.61 0 0 1-.14 2.53c-.15.52-.36 1.04-.58 1.52-.44.97-.95 1.8-1.18 2.17a15.2 15.2 0 0 1-1.65 2.15 4.9 4.9 0 0 1-.92.78.96.96 0 0 1-.24.1.96.96 0 0 1-.24-.1 4.76 4.76 0 0 1-.92-.78 14.41 14.41 0 0 1-1.65-2.15 19.2 19.2 0 0 1-1.18-2.17c-.22-.48-.43-1-.58-1.52a4.6 4.6 0 0 1-.14-2.52 3.73 3.73 0 0 1 .84-1.64 3.65 3.65 0 0 1 1.45-1A6.83 6.83 0 0 1 6.35.13z" opacity=".2"/><g fill="#e9c6af"><path d="M8.23 1.04c.11.14.16.81.2 2.4 0 .58 0 .81-.08 1.07-.06.17-.1.35-.1.4l-.06.17c-.07.1.02.4.12.4.07 0 .07.47-.01.51-.09.06-.21-.15-.18-.3.03-.1.02-.12-.08-.08-.06.01-.12 0-.12-.01a.9.9 0 0 0-.16-.24l-.17-.2.11.24c.06.13.11.27.11.32 0 .05.02.07.05.06.03-.02.12.07.2.2.13.24.45.58.7.78.08.06.17.16.19.22.04.14.02.54-.04.57-.04.03-.35.6-.36.66 0 .1-.1.17-.15.12a.24.24 0 0 0-.14-.06c-.06 0-.05.03.05.1.07.07.1.12.07.12-.04 0-.07.06-.09.14l-.01.14-.15-.11c-.2-.16-.24-.15-.07.03.08.09.14.22.14.3 0 .14-.02.15-.12.13-.1-.04-.11-.02-.09.05.02.05 0 .08-.04.08a.13.13 0 0 0-.1.07c-.02.05-.04.05-.1 0-.11-.11-.18-.08-.08.04.1.1.1.1-.03.08L7.5 9.4l.11.13c.12.14.12.14-.16.02-.05-.02-.09 0-.09.03s.03.06.05.06c.02 0 .1.03.15.07.1.08.08.08-.17.06a1.45 1.45 0 0 1-.89-.42c-.13-.14-.17-.24-.19-.46a.92.92 0 0 1 .02-.36c.03-.05.05-.02.05.1 0 .16.13.4.19.34a.64.64 0 0 0 .04-.23c0-.11.02-.2.04-.2s.02-.1.01-.2c-.03-.36.1-.68.35-.85.12-.08.24-.13.28-.12.03.01.14.15.24.3.1.15.23.28.27.3.05.02.04-.02-.03-.1-.21-.23-.22-.28-.04-.24.14.04.13.03-.08-.12-.27-.2-.3-.26-.08-.2l.15.04-.16-.17c-.1-.1-.14-.17-.11-.17.02 0 0-.05-.05-.1-.06-.07-.08-.12-.04-.15.08-.05-.27-.4-.45-.44-.08-.02-.15-.06-.15-.09 0-.02-.05-.05-.12-.05-.29 0-1.02-.53-1.19-.86-.14-.26-.04-.58.2-.68.07-.02.12-.06.1-.08-.06-.07-.35.15-.42.3-.14.36.08.74.72 1.22.41.3.45.37.45.78 0 .15.04.33.07.41.15.29.05.48-.23.42-.1-.03-.13-.03-.1.02.05.1-.06.07-.15-.03a4.28 4.28 0 0 1-.29-.76 8.92 8.92 0 0 0-.44-1.1c-.3-.59-.38-.96-.23-1.14.14-.19.49-.29.67-.2.08.03.14.1.14.14 0 .04.05.1.1.11.07.02.12.06.12.08 0 .06.2.12.44.14.16.02.14 0-.13-.1-.24-.08-.32-.13-.35-.23-.05-.2.02-.4.18-.56.12-.11.18-.14.36-.1.29.03.43.18.49.48.11.61.14.67.23.7.05 0 .1-.03.1-.07.01-.14.02-.17.06-.23.02-.03.05-.44.07-.9a5.7 5.7 0 0 1 .11-1.34 4.56 4.56 0 0 1 0-1.58c.1-.07.45-.05.5.02z"/><path d="M3.66 2.56c.09.08.18.28.31.67a12.82 12.82 0 0 0 .3.9c.05.2.3.85.47 1.2l.19.45c.02.06.11.15.21.19.18.08.34.34.48.79.06.2.06.22-.05.29-.16.11-.14.19.03.14.16-.04.24.04.24.24 0 .18.24.5.41.53.12.03.14.06.11.16-.04.14-.18.84-.23 1.13-.02.14 0 .23.06.3.1.11.1.11.06-.1 0-.1 0-.2.02-.2s.13.11.24.25c.11.13.25.25.32.28.13.04.09.13-.07.13-.05 0-.1.02-.1.06 0 .02-.05.05-.12.04-.1-.01-.12.01-.11.08.01.06-.02.1-.07.1-.04 0-.08.02-.08.06 0 .04.1.05.34.03.23-.01.39 0 .44.04.12.1.12.15 0 .13a.94.94 0 0 0-.26.03c-.28.06-.68.05-.76-.02a.6.6 0 0 0-.23-.08.37.37 0 0 1-.2-.07c-.06-.06-.03-.06.4-.08a1 1 0 0 0 .21-.02c0-.05-.22-.13-.43-.16-.2-.03-.24-.02-.2.05.06.17-.12.09-.35-.16a2.91 2.91 0 0 1-.55-1.05c0-.04-.03-.07-.05-.07-.03 0-.06-.07-.08-.16l-.09-.48a7.76 7.76 0 0 1-.08-.9c-.02-.32-.06-.6-.09-.62-.03-.04-.05-.12-.05-.19s-.04-.2-.08-.28c-.04-.08-.1-.28-.12-.44a.91.91 0 0 0-.08-.31c-.03-.02-.05-.08-.05-.14a.83.83 0 0 0-.08-.28c-.13-.3-.3-.88-.27-.93 0-.02 0-.11-.05-.2-.1-.2-.28-.94-.27-1.1.01-.13.15-.33.23-.33.02 0 .1.04.18.1zM6.58 6.32l.06.2c.13.4.23.6.32.68.08.05.15.1.18.1.07 0 .21-.2.23-.33l-.01-.03a.85.85 0 0 0-.46-.45c-.1-.03-.17-.07-.17-.1 0-.04-.07-.06-.15-.06z"/></g></svg>