<svg xmlns="http://www.w3.org/2000/svg" xmlns:xlink="http://www.w3.org/1999/xlink" width="48" height="48"><defs><linearGradient id="g"><stop offset="0" stop-color="#ff0"/><stop offset="1" stop-color="#f4e3d7"/></linearGradient><linearGradient id="f"><stop offset="0" stop-color="#1a1a1a"/><stop offset="1" stop-color="#666"/></linearGradient><linearGradient id="e"><stop offset="0" stop-color="#1a1a1a"/><stop offset="1" stop-color="#1a1a1a" stop-opacity="0"/></linearGradient><linearGradient id="d"><stop offset="0" stop-color="#1a1a1a"/><stop offset="1" stop-color="#1a1a1a" stop-opacity="0"/></linearGradient><linearGradient id="a"><stop offset="0"/><stop offset="1" stop-opacity="0"/></linearGradient><linearGradient id="b"><stop stop-color="#3daefd"/><stop offset="1" stop-color="#24a058"/></linearGradient><linearGradient id="c"><stop stop-color="#2c3e50"/><stop offset="1" stop-color="#0d352d"/></linearGradient><linearGradient xlink:href="#d" id="k" gradientUnits="userSpaceOnUse" x1="20.064" y1="20.85" x2="34.475" y2="20.85"/><linearGradient xlink:href="#e" id="i" gradientUnits="userSpaceOnUse" x1="18.7" y1="30.139" x2="47.165" y2="30.139"/><linearGradient xlink:href="#b" id="h" x1="6.383" y1="58.217" x2="27.136" y2="1.605" gradientUnits="userSpaceOnUse"/><linearGradient xlink:href="#f" id="l" x1="19.658" y1="33.248" x2="27.787" y2="33.248" gradientUnits="userSpaceOnUse"/><linearGradient xlink:href="#g" id="j" x1="15.137" y1="9.728" x2="36.199" y2="29.744" gradientUnits="userSpaceOnUse"/></defs><path d="M23.71.5C17.88.5 13.2 1.6 9.78 3.82 5.68 6.48 3.5 10.73 3.5 16.1c0 7.22 5.8 16.88 7.58 19.67a54.48 54.48 0 0 0 6.25 8.16c2.54 2.64 4.57 3.87 6.37 3.87 1.8 0 3.83-1.23 6.37-3.87 2-2.08 4.22-4.98 6.25-8.16 1.78-2.79 7.59-12.45 7.59-19.67 0-5.37-2.17-9.62-6.27-12.27C34.24 1.6 29.55.49 23.7.49z" fill="url(#h)"/><path d="M23.71.5C17.88.5 13.2 1.62 9.78 3.83c-4.1 2.66-6.27 6.9-6.27 12.27 0 7.23 5.8 16.89 7.58 19.68a54.48 54.48 0 0 0 6.25 8.15c2.54 2.65 4.57 3.88 6.37 3.88 1.8 0 3.83-1.23 6.37-3.88 2-2.07 4.22-4.97 6.25-8.15 1.78-2.8 7.59-12.45 7.59-19.68 0-5.37-2.17-9.61-6.27-12.27C34.24 1.62 29.55.5 23.7.5zm0 .14c2.12.09 4.12.28 5.88.7 1.16.27 2.25.62 3.26 1.04 1.01.41 1.95.9 2.8 1.45a12.92 12.92 0 0 1 4.67 5.12 14.1 14.1 0 0 1 1.2 3.34c.26 1.2.4 2.47.4 3.81 0 1.81-.37 3.77-.94 5.73a43.19 43.19 0 0 1-2.19 5.78 69.59 69.59 0 0 1-4.46 8.17 54.47 54.47 0 0 1-6.25 8.15 17.98 17.98 0 0 1-3.46 2.93c-.32.2-.62.3-.9.4-.3-.1-.6-.2-.92-.4a17.72 17.72 0 0 1-3.46-2.93 54.5 54.5 0 0 1-6.25-8.15 69.6 69.6 0 0 1-4.46-8.17 43.19 43.19 0 0 1-2.19-5.78 20.93 20.93 0 0 1-.93-5.73c0-1.34.13-2.61.4-3.8.27-1.2.67-2.32 1.2-3.35a12.92 12.92 0 0 1 4.67-5.12 17.1 17.1 0 0 1 2.8-1.45c1-.42 2.1-.77 3.26-1.04C19.59.92 21.6.73 23.7.64z" opacity=".2"/><path d="M29.596 44.313c.166-.165.294-.216.465-.393 2-2.08 4.22-4.98 6.25-8.16.89-1.395 2.787-4.508 4.462-8.174a44.501 44.501 0 0 0 1.983-5.217L30.486 10.1 19.332 28.493l2.08 2.08-1.43.848 2.122 2.121-1.471.805 1.955 1.955-1.496-.492z" opacity=".5" fill="url(#i)"/><path d="M23.722 7.274a9.511 9.511 0 0 0-9.512 9.511c-.02 2.849 2.501 5.339 3.659 8.05.515 1.207 1.462 3.657 1.462 3.657h8.782s.947-2.45 1.463-3.658c1.157-2.71 3.607-5.232 3.658-8.049a9.511 9.511 0 0 0-9.512-9.511z" fill="url(#j)"/><path d="M28.113 28.492s.947-2.45 1.463-3.658c.579-1.355 1.48-2.663 2.244-3.984.233-.404.406-.814.6-1.221l-7.965-7.967-.898 3.315-3.493 3.271 3.254 3.256-.326 1.867z" opacity=".5" fill="url(#k)"/><path d="M24.454 11.662v5.123h2.926l-4.388 6.586v-5.123h-2.928z" fill="#24221c"/><path d="M19.658 29.955l.324 1.465h7.48l.325-1.465h-8.129zm.65 2.928l.325 1.463H26.812l.325-1.463h-6.828zm6.186 2.662c-.025.06-.054.116-.084.172.03-.057.059-.112.084-.172zm-5.54.004zm.138.26c.253.426.633.732 1.168.732h2.926c.535 0 .912-.306 1.166-.732h-5.26z" fill="url(#l)"/></svg>