<svg xmlns="http://www.w3.org/2000/svg" xmlns:xlink="http://www.w3.org/1999/xlink" width="48" height="48"><defs><linearGradient id="c"><stop offset="0" stop-color="#6c5353"/><stop offset="1" stop-color="#1a1a1a"/></linearGradient><linearGradient id="b"><stop offset="0" stop-color="#aad400"/><stop offset=".65" stop-color="#ffd42a"/><stop offset="1" stop-color="#df5"/></linearGradient><linearGradient id="a"><stop offset="0"/><stop offset="1" stop-opacity="0"/></linearGradient><linearGradient xlink:href="#b" id="d" x1="5.42" y1="1.84" x2="30.37" y2="43.78" gradientUnits="userSpaceOnUse"/><linearGradient xlink:href="#c" id="e" x1="8.38" y1="35.99" x2="35.12" y2="4.08" gradientUnits="userSpaceOnUse"/></defs><path d="M23.99.34c-5.83 0-10.52 1.12-13.93 3.33-4.1 2.66-6.27 6.9-6.27 12.27 0 7.23 5.8 16.88 7.58 19.67a54.48 54.48 0 0 0 6.25 8.16c2.54 2.64 4.57 3.87 6.37 3.87 1.8 0 3.83-1.23 6.37-3.87 2-2.08 4.22-4.97 6.25-8.16 1.78-2.79 7.58-12.44 7.58-19.67 0-5.37-2.16-9.61-6.26-12.27C34.51 1.46 29.83.34 23.99.34z" fill="url(#d)"/><path d="M11.03 34.97l.35.65a54.48 54.48 0 0 0 3.12 4.47 54.48 54.48 0 0 0 3.13 3.69 17.94 17.94 0 0 0 3.46 2.93c.94.56 1.78.78 2.6.84l-3.16-21.28a7.02 7.02 0 0 0 2.1-7.1l5.34-5.33c.3-.02.6-.07.9-.16l2.2 2.2-.7.7c-.22.23-.34.52-.34.85v4.75c0 .64.53 1.19 1.18 1.19h4.75c1.61 0 1.61-2.38 0-2.38H32.4v-3.06l4.06-4.06h3.07v3.56c0 1.6 2.37 1.6 2.37 0v-4.75c0-.67-.53-1.19-1.19-1.19h-4.75c-.31 0-.61.12-.84.34l-.7.7-2.2-2.2a4.74 4.74 0 0 0-9.3-1.52l-5.32 5.32a7.11 7.11 0 0 0-6.57 12.14zM27.65 6.74a2.38 2.38 0 1 1 0 4.75 2.38 2.38 0 0 1 0-4.75zm-11.87 9.5a4.75 4.75 0 1 1 0 9.5 4.75 4.75 0 0 1 0-9.5zm0 2.38a2.37 2.37 0 1 0 0 4.75 2.37 2.37 0 0 0 0-4.75z" fill="url(#e)"/><path d="M3.92 14.74c-.02.4-.13.78-.13 1.2 0 7.24 5.81 16.9 7.6 19.68a54.47 54.47 0 0 0 6.24 8.16c2.54 2.64 4.57 3.87 6.37 3.87 1.8 0 3.83-1.23 6.37-3.87 2-2.08 4.22-4.97 6.25-8.16 1.78-2.79 7.58-12.44 7.58-19.67 0-.43-.1-.8-.13-1.21a21.6 21.6 0 0 1-.8 4.94 43.2 43.2 0 0 1-2.2 5.77 69.59 69.59 0 0 1-4.45 8.17 54.47 54.47 0 0 1-6.25 8.16 17.98 17.98 0 0 1-3.46 2.93c-1.05.64-2 .94-2.91.94-.9 0-1.86-.3-2.9-.94-1.06-.64-2.2-1.6-3.47-2.93-2-2.08-4.22-4.97-6.25-8.16-.89-1.4-2.78-4.5-4.46-8.17a43.2 43.2 0 0 1-2.19-5.77 21.6 21.6 0 0 1-.8-4.94z" opacity=".4"/></svg>