<?xml version="1.0" encoding="UTF-8" standalone="no"?>
<svg
   xmlns:dc="http://purl.org/dc/elements/1.1/"
   xmlns:cc="http://creativecommons.org/ns#"
   xmlns:rdf="http://www.w3.org/1999/02/22-rdf-syntax-ns#"
   xmlns:svg="http://www.w3.org/2000/svg"
   xmlns="http://www.w3.org/2000/svg"
   xmlns:sodipodi="http://sodipodi.sourceforge.net/DTD/sodipodi-0.dtd"
   xmlns:inkscape="http://www.inkscape.org/namespaces/inkscape"
   width="48"
   height="48"
   viewBox="0 0 12.7 12.7"
   version="1.1"
   id="svg19"
   sodipodi:docname="taxi.svg"
   inkscape:version="0.92.5 (2060ec1f9f, 2020-04-08)">
  <metadata
     id="metadata23">
    <rdf:RDF>
      <cc:Work
         rdf:about="">
        <dc:format>image/svg+xml</dc:format>
        <dc:type
           rdf:resource="http://purl.org/dc/dcmitype/StillImage" />
        <dc:title></dc:title>
      </cc:Work>
    </rdf:RDF>
  </metadata>
  <sodipodi:namedview
     pagecolor="#ffffff"
     bordercolor="#666666"
     borderopacity="1"
     objecttolerance="10"
     gridtolerance="10"
     guidetolerance="10"
     inkscape:pageopacity="0"
     inkscape:pageshadow="2"
     inkscape:window-width="1085"
     inkscape:window-height="480"
     id="namedview21"
     showgrid="false"
     inkscape:zoom="4.9166667"
     inkscape:cx="2.1355932"
     inkscape:cy="24"
     inkscape:window-x="0"
     inkscape:window-y="25"
     inkscape:window-maximized="0"
     inkscape:current-layer="svg19" />
  <defs
     id="defs11">
    <linearGradient
       id="a"
       x1="12.963"
       x2="2.382"
       y1="-1.09"
       y2="16.297"
       gradientUnits="userSpaceOnUse">
      <stop
         stop-color="#e6e6e6"
         offset="0"
         id="stop2" />
      <stop
         stop-color="#f9f9f9"
         offset=".362"
         id="stop4" />
      <stop
         stop-color="#e6e6e6"
         offset=".659"
         id="stop6" />
      <stop
         stop-color="#999"
         offset="1"
         id="stop8" />
    </linearGradient>
  </defs>
  <path
     d="M 6.35,0.1 C 4.81,0.1 3.57,0.38 2.66,0.96 A 3.67,3.67 0 0 0 1,4.22 c 0,1.91 1.54,4.47 2.01,5.2 0.54,0.85 1.13,1.61 1.65,2.16 0.68,0.7 1.21,1.03 1.69,1.03 0.48,0 1.01,-0.33 1.69,-1.03 A 15.2,15.2 0 0 0 9.69,9.43 c 0.47,-0.74 2,-3.3 2,-5.21 0,-1.42 -0.57,-2.54 -1.65,-3.25 A 6.75,6.75 0 0 0 6.35,0.1 Z"
     id="path13"
     style="fill:url(#a)"
     inkscape:connector-curvature="0" />
  <path
     d="M 7.195,0.116 C 7.191,0.126 7.172,0.138 7.17,0.146 7.014,0.724 7.597,1.043 7.602,1.498 7.607,1.961 7.147,2.188 7.195,2.612 7.231,2.923 7.461,3.039 7.79,3.089 8.22,3.155 8.912,2.959 9.057,2.691 9.153,2.516 9.113,2.171 9.219,2.002 9.337,1.813 9.588,1.679 9.839,1.552 c 0.175,-0.09 0.377,-0.2 0.49,-0.337 -0.1,-0.08 -0.18,-0.173 -0.289,-0.245 A 6.75,6.75 0 0 0 9.643,0.77 C 9.489,0.764 9.315,0.77 9.219,0.73 9.102,0.68 9,0.58 8.897,0.46 A 6.75,6.75 0 0 0 8.807,0.425 6.75,6.75 0 0 0 8.157,0.248 6.75,6.75 0 0 0 7.49,0.136 6.75,6.75 0 0 0 7.194,0.116 Z M 5.412,0.196 C 5.026,0.231 4.607,0.234 4.269,0.313 4.231,0.321 4.199,0.336 4.162,0.346 a 0.334,0.334 0 0 0 -0.077,0.22 c 0.003,0.105 0.105,0.243 0.18,0.338 0.08,0.1 0.244,0.171 0.27,0.282 C 4.589,1.411 4.425,1.638 4.427,1.824 4.431,2.237 4.643,2.499 5.129,2.516 5.331,2.522 5.538,2.469 5.617,2.339 5.655,2.276 5.621,2.164 5.689,2.073 5.849,1.86 6.316,1.973 6.339,1.683 6.356,1.449 6.081,1.443 6.086,1.275 6.092,1.087 6.435,1.078 6.518,0.956 6.594,0.846 6.588,0.626 6.536,0.514 6.404,0.232 6.051,0.303 5.726,0.284 5.619,0.277 5.516,0.234 5.412,0.196 Z M 3.097,0.737 C 2.949,0.81 2.793,0.875 2.66,0.96 A 3.67,3.67 0 0 0 2.363,1.176 3.67,3.67 0 0 0 2.089,1.42 3.67,3.67 0 0 0 1.841,1.69 3.67,3.67 0 0 0 1.621,1.983 3.67,3.67 0 0 0 1.432,2.298 3.67,3.67 0 0 0 1.275,2.629 3.67,3.67 0 0 0 1.151,2.974 3.67,3.67 0 0 0 1.083,3.251 C 1.533,3.221 1.727,2.991 2.208,2.956 2.647,2.924 3.232,3.074 3.448,2.612 3.511,2.475 3.56,2.152 3.421,1.949 3.331,1.816 2.797,1.7 2.774,1.498 2.747,1.261 3.157,1.148 3.151,0.888 3.15,0.825 3.122,0.782 3.097,0.738 Z M 4.585,3.975 C 4.417,3.973 4.223,3.975 4.032,3.985 3.651,4.004 3.282,4.051 3.152,4.15 2.976,4.282 2.866,4.64 2.936,4.892 3.062,5.346 3.728,5.518 3.906,5.767 4.128,6.076 4.062,6.638 4.5,6.774 4.908,6.9 5.448,6.554 5.578,6.244 5.628,6.127 5.604,5.964 5.659,5.819 5.802,5.449 6.202,5.385 6.522,5.051 6.672,4.896 6.842,4.588 6.631,4.414 6.546,4.345 6.225,4.388 6.011,4.362 5.614,4.314 5.405,4.025 4.984,3.99 A 6.108,6.108 0 0 0 4.584,3.975 Z M 8.84,4.398 A 0.394,0.394 0 0 0 8.518,4.531 C 8.481,4.571 8.491,4.718 8.438,4.768 8.244,4.95 7.803,4.875 7.708,5.193 7.628,5.465 7.859,5.585 7.87,5.829 7.88,6.041 7.606,6.226 7.951,6.333 8.215,6.416 8.528,6.169 8.814,6.121 9.054,6.081 9.306,6.152 9.381,6.015 9.421,5.943 9.33,5.873 9.355,5.749 9.399,5.526 9.661,5.557 9.677,5.405 9.703,5.151 9.309,5.082 9.272,5.007 9.241,4.942 9.309,4.793 9.3,4.742 9.27,4.576 9.058,4.409 8.84,4.398 Z m 1.96,0.676 c -0.082,0.01 -0.147,0.047 -0.176,0.129 -0.05,0.137 0.11,0.235 0.108,0.37 -0.003,0.283 -0.249,0.37 -0.162,0.664 0.07,0.235 0.33,0.259 0.55,0.357 0.112,-0.287 0.239,-0.566 0.324,-0.858 0.048,-0.167 0.043,-0.32 0.078,-0.485 C 11.29,5.176 11,5.052 10.801,5.074 Z M 1.426,5.611 A 0.211,0.211 0 0 0 1.3,5.66 C 1.285,5.672 1.276,5.737 1.263,5.775 c 0.06,0.2 0.15,0.39 0.223,0.587 C 1.733,6.47 2.079,6.557 2.217,6.692 2.339,6.812 2.221,6.895 2.46,6.959 2.796,7.047 2.722,6.735 2.784,6.374 2.817,6.174 2.921,6.126 2.891,6.004 2.833,5.771 2.196,5.791 1.866,5.712 1.752,5.684 1.569,5.6 1.426,5.611 Z m 6.75,1.14 a 0.833,0.833 0 0 0 -0.133,0 C 7.749,6.776 7.331,6.928 7.341,7.248 7.345,7.353 7.445,7.49 7.521,7.585 7.601,7.685 7.764,7.757 7.791,7.868 7.844,8.093 7.681,8.321 7.683,8.506 7.687,8.919 7.9,9.18 8.386,9.196 8.588,9.204 8.795,9.149 8.873,9.019 8.911,8.957 8.877,8.844 8.945,8.753 9.104,8.54 9.572,8.653 9.594,8.363 9.612,8.13 9.336,8.123 9.341,7.956 9.347,7.768 9.691,7.76 9.775,7.638 9.85,7.528 9.844,7.307 9.792,7.195 9.66,6.913 9.306,6.984 8.98,6.965 8.716,6.949 8.477,6.775 8.176,6.751 Z M 5.108,8.189 c -0.21,0.01 -0.419,0.06 -0.514,0.157 -0.357,0.363 0.222,0.887 0.227,1.187 0.008,0.413 -0.503,0.65 -0.364,1.166 0.036,0.136 0.254,0.312 0.455,0.358 0.771,0.178 0.802,-0.846 1.551,-0.919 C 6.707,10.115 7.205,10.233 7.216,9.915 7.222,9.714 6.895,9.603 6.713,9.511 6.533,9.419 6.304,9.323 6.189,9.153 6.106,9.029 6.132,8.693 6.052,8.547 5.992,8.436 5.672,8.272 5.551,8.234 A 1.078,1.078 0 0 0 5.315,8.192 1.666,1.666 0 0 0 5.108,8.189 Z"
     id="path15"
     inkscape:connector-curvature="0" />
  <path
     d="M 1.04,3.9 C 1.04,4 1,4.1 1,4.22 c 0,1.91 1.54,4.47 2.01,5.2 0.54,0.85 1.13,1.61 1.65,2.16 0.68,0.7 1.21,1.03 1.69,1.03 0.48,0 1.01,-0.33 1.69,-1.03 A 15.2,15.2 0 0 0 9.69,9.43 c 0.47,-0.74 2,-3.3 2,-5.21 0,-0.11 -0.02,-0.21 -0.03,-0.32 A 5.5,5.5 0 0 1 11.45,5.2 C 11.3,5.73 11.09,6.25 10.87,6.73 10.43,7.7 9.92,8.53 9.69,8.9 A 15.2,15.2 0 0 1 8.04,11.05 4.9,4.9 0 0 1 7.12,11.83 C 6.84,12 6.59,12.08 6.35,12.08 6.11,12.08 5.85,12 5.58,11.83 A 4.76,4.76 0 0 1 4.66,11.05 14.41,14.41 0 0 1 3.01,8.9 19.2,19.2 0 0 1 1.83,6.73 C 1.61,6.25 1.4,5.73 1.25,5.21 A 5.66,5.66 0 0 1 1.04,3.9 Z"
     id="path17"
     inkscape:connector-curvature="0"
     style="opacity:0.5" />
</svg>
