<?xml version="1.0" encoding="UTF-8" standalone="no"?>
<svg
   xmlns:dc="http://purl.org/dc/elements/1.1/"
   xmlns:cc="http://creativecommons.org/ns#"
   xmlns:rdf="http://www.w3.org/1999/02/22-rdf-syntax-ns#"
   xmlns:svg="http://www.w3.org/2000/svg"
   xmlns="http://www.w3.org/2000/svg"
   xmlns:xlink="http://www.w3.org/1999/xlink"
   xmlns:sodipodi="http://sodipodi.sourceforge.net/DTD/sodipodi-0.dtd"
   xmlns:inkscape="http://www.inkscape.org/namespaces/inkscape"
   viewBox="0 0 48 48"
   version="1.1"
   id="svg95"
   sodipodi:docname="carla.svg"
   inkscape:version="0.92.5 (2060ec1f9f, 2020-04-08)">
  <metadata
     id="metadata99">
    <rdf:RDF>
      <cc:Work
         rdf:about="">
        <dc:format>image/svg+xml</dc:format>
        <dc:type
           rdf:resource="http://purl.org/dc/dcmitype/StillImage" />
        <dc:title></dc:title>
      </cc:Work>
    </rdf:RDF>
  </metadata>
  <sodipodi:namedview
     pagecolor="#ffffff"
     bordercolor="#666666"
     borderopacity="1"
     objecttolerance="10"
     gridtolerance="10"
     guidetolerance="10"
     inkscape:pageopacity="0"
     inkscape:pageshadow="2"
     inkscape:window-width="1085"
     inkscape:window-height="480"
     id="namedview97"
     showgrid="false"
     inkscape:zoom="4.9166667"
     inkscape:cx="2.1355932"
     inkscape:cy="24"
     inkscape:window-x="0"
     inkscape:window-y="25"
     inkscape:window-maximized="0"
     inkscape:current-layer="svg95" />
  <defs
     id="defs55">
    <linearGradient
       gradientUnits="userSpaceOnUse"
       y2="24"
       y1="7.91"
       x2="44.2"
       x1="4.17"
       id="b">
      <stop
         offset="0"
         stop-color="#4a0"
         id="stop2" />
      <stop
         offset="1"
         stop-color="#9f5"
         id="stop4" />
    </linearGradient>
    <linearGradient
       id="a">
      <stop
         offset="0"
         stop-color="#2ca089"
         id="stop7" />
      <stop
         offset="1"
         stop-color="#5fd"
         id="stop9" />
    </linearGradient>
    <linearGradient
       gradientUnits="userSpaceOnUse"
       y2="24"
       y1="7.91"
       x2="44.2"
       x1="4.17"
       id="c">
      <stop
         offset="0"
         stop-color="#a80"
         id="stop12" />
      <stop
         offset="1"
         stop-color="#fd5"
         id="stop14" />
    </linearGradient>
    <linearGradient
       id="d"
       x1="16.37"
       x2="46"
       y1="16.5"
       y2="31.93"
       gradientUnits="userSpaceOnUse">
      <stop
         offset="0"
         id="stop17" />
      <stop
         stop-opacity="0"
         offset="1"
         id="stop19" />
    </linearGradient>
    <linearGradient
       id="h"
       x1="110.76"
       x2="106.72"
       y1="32.56"
       y2="24.22"
       gradientTransform="matrix(1.6848,0,0,1.6848,-158.34,-29.09)"
       gradientUnits="userSpaceOnUse">
      <stop
         stop-color="#ddd"
         offset="0"
         id="stop22" />
      <stop
         stop-color="#fbfbfb"
         offset="1"
         id="stop24" />
    </linearGradient>
    <linearGradient
       id="e"
       x1="6.677"
       x2="43.086"
       y1="47.461"
       y2="6.917"
       gradientUnits="userSpaceOnUse">
      <stop
         stop-color="#2b0000"
         offset="0"
         id="stop27" />
      <stop
         stop-color="#ff2a2a"
         offset=".423"
         id="stop29" />
      <stop
         stop-color="#f55"
         offset="1"
         id="stop31" />
    </linearGradient>
    <linearGradient
       xlink:href="#a"
       id="m"
       x1="11.75"
       y1="24.25"
       x2="11.75"
       y2="11.609"
       gradientUnits="userSpaceOnUse"
       gradientTransform="matrix(1,0,0,1.05876,0,-1.425)" />
    <linearGradient
       xlink:href="#b"
       id="n"
       gradientUnits="userSpaceOnUse"
       x1="21.75"
       y1="24.25"
       x2="21.75"
       y2="11.609"
       gradientTransform="matrix(1,0,0,0.62543,0,9.083)" />
    <linearGradient
       xlink:href="#c"
       id="o"
       x1="31.75"
       y1="24.25"
       x2="31.75"
       y2="11.609"
       gradientUnits="userSpaceOnUse"
       gradientTransform="matrix(1,0,0,0.77966,0,5.343)" />
    <linearGradient
       xlink:href="#d"
       id="f"
       x1="7.008"
       y1="2.503"
       x2="45.128"
       y2="29.335"
       gradientUnits="userSpaceOnUse" />
    <filter
       id="i"
       x="-.11"
       y="-.1"
       width="1.21"
       height="1.2">
      <feGaussianBlur
         stdDeviation=".1"
         id="feGaussianBlur38" />
    </filter>
    <filter
       id="j"
       x="-.11"
       y="-.1"
       width="1.21"
       height="1.2">
      <feGaussianBlur
         stdDeviation=".1"
         id="feGaussianBlur41" />
    </filter>
    <filter
       id="k"
       x="-.09"
       y="-.17"
       width="1.18"
       height="1.35">
      <feGaussianBlur
         stdDeviation=".1"
         id="feGaussianBlur44" />
    </filter>
    <filter
       id="l"
       x="-.09"
       y="-.17"
       width="1.18"
       height="1.35">
      <feGaussianBlur
         stdDeviation=".1"
         id="feGaussianBlur47" />
    </filter>
    <radialGradient
       id="g"
       cx="108.34"
       cy="25.49"
       r="4.17"
       gradientTransform="matrix(3.6241,0,0,3.6203,-368.3,-81.05)"
       gradientUnits="userSpaceOnUse">
      <stop
         stop-color="#979797"
         offset="0"
         id="stop50" />
      <stop
         stop-color="#454545"
         offset="1"
         id="stop52" />
    </radialGradient>
  </defs>
  <path
     d="m 24,0.35 c -5.83,0 -10.52,1.12 -13.93,3.33 -4.1,2.66 -6.27,6.9 -6.27,12.27 0,7.23 5.8,16.88 7.58,19.67 a 54.47,54.47 0 0 0 6.25,8.16 c 2.54,2.64 4.57,3.87 6.37,3.87 1.8,0 3.83,-1.23 6.37,-3.87 2,-2.08 4.22,-4.97 6.25,-8.16 C 38.4,32.83 44.2,23.18 44.2,15.95 44.2,10.58 42.04,6.33 37.94,3.68 34.52,1.47 29.84,0.35 24,0.35 Z"
     id="path57"
     style="fill:url(#e)"
     inkscape:connector-curvature="0" />
  <path
     d="m 27.975,45.805 c 0.768,-0.584 1.515,-1.112 2.394,-2.026 2,-2.08 4.22,-4.97 6.25,-8.16 0.89,-1.395 2.787,-4.505 4.46,-8.17 0.835,-1.832 1.615,-3.802 2.187,-5.767 0.571,-1.965 0.933,-3.925 0.933,-5.733 0,-0.689 -0.134,-1.304 -0.205,-1.955 L 37,7 32.328,12.328 27,7 22.826,12.826 17,7 11,25 22.152,36.152 20.275,38.105 Z"
     id="path59"
     style="opacity:0.4;fill:url(#f)"
     inkscape:connector-curvature="0" />
  <g
     transform="matrix(0.52611,0,0,0.52611,11.437,24.243)"
     id="g79">
    <ellipse
       cx="23.879999"
       cy="18.549999"
       rx="10.55"
       ry="10.54"
       id="ellipse61"
       style="fill:url(#g)" />
    <circle
       cx="23.889999"
       cy="18.74"
       r="7.0300002"
       id="circle63"
       style="fill:url(#h)" />
    <g
       id="g73"
       style="fill:#a6a6a6;fill-rule:evenodd">
      <path
         transform="matrix(2.6345,0,0,2.6345,-265.9,-60.3)"
         d="M 111.25,27.66 110,30 l 2.28,-1.38 c -0.25,-0.4 -0.6,-0.74 -1.03,-0.96 z"
         id="path65"
         inkscape:connector-curvature="0"
         style="opacity:0.4;filter:url(#i)" />
      <path
         transform="matrix(2.6345,0,0,2.6345,-265.9,-60.3)"
         d="m 108.74,32.34 1.25,-2.34 -2.28,1.37 c 0.25,0.41 0.6,0.74 1.03,0.97 z"
         id="path67"
         inkscape:connector-curvature="0"
         style="opacity:0.4;filter:url(#j)" />
      <path
         transform="matrix(2.6345,0,0,2.6345,-265.9,-60.3)"
         d="m 112.65,29.91 -2.65,0.1 2.33,1.28 c 0.23,-0.42 0.33,-0.9 0.32,-1.38 z"
         id="path69"
         inkscape:connector-curvature="0"
         style="opacity:0.4;filter:url(#k)" />
      <path
         transform="matrix(2.6345,0,0,2.6345,-265.9,-60.3)"
         d="m 107.34,30.08 2.65,-0.09 -2.33,-1.28 c -0.23,0.42 -0.33,0.9 -0.32,1.37 z"
         id="path71"
         inkscape:connector-curvature="0"
         style="opacity:0.4;filter:url(#l)" />
    </g>
    <circle
       r="2.082"
       cy="14.957"
       cx="21.256001"
       id="circle75"
       style="fill:#323232" />
    <path
       d="m 23.88,8 a 10.55,10.54 0 0 0 -0.24,0.02 c -0.12,0.1 -0.3,0.13 -0.3,0.3 v 3.26 c 0,0.08 0.1,0.08 0.14,0.15 a 7.03,7.03 0 0 1 0.4,-0.02 7.03,7.03 0 0 1 0.39,0.02 c 0.03,-0.07 0.15,-0.06 0.15,-0.15 V 8.32 c 0,-0.17 -0.19,-0.2 -0.3,-0.3 A 10.55,10.54 0 0 0 23.88,8.01 Z m -3.7,0.68 a 10.55,10.54 0 0 0 -0.13,0.04 10.55,10.54 0 0 0 -0.53,0.24 c -0.03,0.1 -0.16,0.17 -0.12,0.28 l 1.25,3.02 c 0.05,0.11 0.19,0.06 0.28,0.12 a 7.03,7.03 0 0 1 0.41,-0.19 7.03,7.03 0 0 1 0.2,-0.06 c 0.02,-0.11 0.15,-0.17 0.1,-0.29 l -1.24,-3 C 20.36,8.74 20.25,8.74 20.18,8.68 Z m 7.38,0 c -0.07,0.06 -0.17,0.06 -0.21,0.15 l -1.25,3.01 c -0.04,0.11 0.1,0.17 0.11,0.28 a 7.03,7.03 0 0 1 0.41,0.15 7.03,7.03 0 0 1 0.21,0.1 c 0.1,-0.06 0.23,0 0.27,-0.11 L 28.35,9.24 C 28.39,9.14 28.25,9.07 28.23,8.96 A 10.55,10.54 0 0 0 27.99,8.84 10.55,10.54 0 0 0 27.56,8.69 Z M 16.73,10.8 a 10.55,10.54 0 0 0 -0.2,0.19 10.55,10.54 0 0 0 -0.4,0.41 c 0.03,0.09 -0.06,0.17 0,0.24 l 2.31,2.3 c 0.1,0.1 0.2,0 0.32,0 a 7.03,7.03 0 0 1 0.23,-0.24 7.03,7.03 0 0 1 0.22,-0.19 c -0.02,-0.12 0.09,-0.24 0,-0.33 L 16.9,10.88 C 16.85,10.83 16.79,10.83 16.73,10.8 Z m 14.29,0 c -0.06,0.03 -0.12,0.03 -0.17,0.07 l -2.3,2.31 c -0.1,0.08 0.01,0.2 0,0.3 a 7.03,7.03 0 0 1 0.38,0.37 7.03,7.03 0 0 1 0.09,0.1 c 0.1,-0.02 0.2,0.08 0.29,0 l 2.3,-2.31 c 0.07,-0.07 -0.02,-0.16 0,-0.24 a 10.55,10.54 0 0 0 -0.16,-0.2 10.55,10.54 0 0 0 -0.43,-0.4 z m -16.7,3.3 a 10.55,10.54 0 0 0 -0.17,0.35 10.55,10.54 0 0 0 -0.16,0.44 c 0.06,0.08 0,0.21 0.1,0.25 l 3.02,1.25 c 0.07,0.03 0.11,-0.08 0.2,-0.08 a 7.03,7.03 0 0 1 0.1,-0.3 7.03,7.03 0 0 1 0.2,-0.4 c -0.06,-0.07 0,-0.19 -0.09,-0.22 l -3.01,-1.25 a 0.55,0.55 0 0 0 -0.2,-0.04 z m 19.11,0 a 0.53,0.53 0 0 0 -0.19,0.04 l -3.01,1.25 c -0.07,0.03 -0.03,0.13 -0.07,0.18 a 7.03,7.03 0 0 1 0.28,0.62 7.03,7.03 0 0 1 0.04,0.13 c 0.06,0 0.1,0.1 0.16,0.07 l 3.02,-1.25 c 0.1,-0.04 0.05,-0.17 0.1,-0.26 A 10.55,10.54 0 0 0 33.71,14.73 10.55,10.54 0 0 0 33.43,14.1 Z m -19.85,3.97 c -0.14,0 -0.15,0.17 -0.25,0.25 a 10.55,10.54 0 0 0 0,0.23 10.55,10.54 0 0 0 0,0.35 c 0.1,0.09 0.11,0.25 0.25,0.25 h 3.26 c 0.02,0 0.02,-0.02 0.03,-0.02 a 7.03,7.03 0 0 1 -0.01,-0.39 7.03,7.03 0 0 1 0.03,-0.62 c -0.03,0 -0.02,-0.05 -0.05,-0.05 z m 17.33,0 c -0.02,0 -0.02,0.03 -0.03,0.03 a 7.03,7.03 0 0 1 0.02,0.14 7.03,7.03 0 0 1 0.01,0.5 7.03,7.03 0 0 1 -0.02,0.4 l 0.02,0.01 h 3.26 c 0.13,0 0.15,-0.16 0.24,-0.24 a 10.55,10.54 0 0 0 0.02,-0.36 10.55,10.54 0 0 0 0,-0.22 c -0.1,-0.1 -0.12,-0.26 -0.26,-0.26 z m -13.73,2.75 c -0.02,0.01 -0.05,0 -0.07,0.02 l -3.02,1.25 c -0.08,0.03 -0.03,0.14 -0.08,0.2 a 10.55,10.54 0 0 0 0.03,0.08 10.55,10.54 0 0 0 0.28,0.64 c 0.08,0 0.11,0.1 0.19,0.08 l 3.01,-1.25 c 0.03,-0.01 0,-0.06 0.03,-0.07 a 7.03,7.03 0 0 1 -0.22,-0.48 7.03,7.03 0 0 1 -0.15,-0.47 z m 13.41,0 a 7.03,7.03 0 0 1 -0.23,0.66 7.03,7.03 0 0 1 -0.15,0.31 c 0.01,0 0,0.04 0.02,0.05 l 3.01,1.25 c 0.07,0.03 0.11,-0.08 0.18,-0.08 a 10.55,10.54 0 0 0 0.18,-0.35 10.55,10.54 0 0 0 0.13,-0.38 c -0.05,-0.06 0,-0.16 -0.07,-0.2 l -3.02,-1.24 -0.05,-0.01 z m -12.08,2.44 c -0.02,0.01 -0.05,0 -0.07,0.02 l -2.3,2.3 c -0.04,0.04 0.02,0.09 0,0.13 a 10.55,10.54 0 0 0 0.16,0.19 10.55,10.54 0 0 0 0.5,0.45 c 0.03,-0.02 0.07,0.03 0.1,0 l 2.3,-2.3 c 0.03,-0.02 0,-0.05 0,-0.07 a 7.03,7.03 0 0 1 -0.36,-0.34 7.03,7.03 0 0 1 -0.33,-0.38 z m 10.75,0 a 7.03,7.03 0 0 1 -0.48,0.52 7.03,7.03 0 0 1 -0.24,0.21 v 0.06 l 2.3,2.3 c 0.04,0.03 0.08,-0.02 0.12,0 a 10.55,10.54 0 0 0 0.27,-0.24 10.55,10.54 0 0 0 0.38,-0.4 c -0.02,-0.04 0.04,-0.09 0,-0.12 l -2.3,-2.3 z m -8.61,1.71 -1.25,3.01 c -0.02,0.05 0.06,0.08 0.06,0.13 a 10.55,10.54 0 0 0 0.3,0.15 10.55,10.54 0 0 0 0.51,0.19 c 0.03,-0.04 0.1,0 0.13,-0.05 l 1.24,-3 a 7.03,7.03 0 0 1 -0.5,-0.19 7.03,7.03 0 0 1 -0.5,-0.24 z m 6.46,0.02 a 7.03,7.03 0 0 1 -0.04,0.02 7.03,7.03 0 0 1 -0.64,0.28 7.03,7.03 0 0 1 -0.32,0.11 l 1.24,3 c 0.02,0.05 0.1,0.01 0.13,0.05 a 10.55,10.54 0 0 0 0.22,-0.07 10.55,10.54 0 0 0 0.6,-0.27 c -0.01,-0.05 0.07,-0.08 0.05,-0.13 z m -3.78,0.75 v 3.17 c 0,0.1 0.13,0.09 0.17,0.17 a 10.55,10.54 0 0 0 0.38,0.01 10.55,10.54 0 0 0 0.36,0 C 24.28,29 24.42,29 24.42,28.91 v -3.16 a 7.03,7.03 0 0 1 -0.04,0 7.03,7.03 0 0 1 -0.5,0.02 7.03,7.03 0 0 1 -0.55,-0.03 z"
       id="path77"
       inkscape:connector-curvature="0"
       style="fill:#333333" />
  </g>
  <path
     d="m 11,7 v 18 h 6 V 7 h -0.375 z"
     id="path81"
     inkscape:connector-curvature="0"
     style="color:#000000;fill:#313a40" />
  <rect
     ry="0"
     rx="0"
     height="13.384"
     width="4.5"
     y="10.866"
     x="11.75"
     id="rect83"
     style="color:#000000;fill:url(#m)" />
  <path
     d="m 21,7 v 18 h 6 V 7 h -0.375 z"
     id="path85"
     inkscape:connector-curvature="0"
     style="color:#000000;fill:#313a40" />
  <rect
     x="21.75"
     y="16.344"
     width="4.5"
     height="7.9060001"
     rx="0"
     ry="0"
     id="rect87"
     style="color:#000000;fill:url(#n)" />
  <path
     d="m 31,7 v 18 h 6 V 7 h -0.375 z"
     id="path89"
     inkscape:connector-curvature="0"
     style="color:#000000;fill:#313a40" />
  <rect
     ry="0"
     rx="0"
     height="9.8559999"
     width="4.5"
     y="14.394"
     x="31.75"
     id="rect91"
     style="color:#000000;fill:url(#o)" />
  <path
     d="m 24,0.35 c -5.83,0 -10.52,1.12 -13.93,3.33 -4.1,2.66 -6.27,6.9 -6.27,12.27 0,7.23 5.8,16.88 7.58,19.67 a 54.47,54.47 0 0 0 6.25,8.16 c 2.54,2.64 4.57,3.87 6.37,3.87 1.8,0 3.83,-1.23 6.37,-3.87 2,-2.08 4.22,-4.97 6.25,-8.16 C 38.4,32.83 44.2,23.18 44.2,15.95 44.2,10.58 42.04,6.33 37.94,3.68 34.52,1.47 29.84,0.35 24,0.35 Z m 0,0.14 c 2.11,0.09 4.12,0.27 5.88,0.7 1.16,0.27 2.25,0.62 3.26,1.03 1.01,0.41 1.94,0.9 2.8,1.46 A 12.92,12.92 0 0 1 40.6,8.8 c 0.53,1.03 0.92,2.15 1.2,3.34 0.28,1.19 0.4,2.47 0.4,3.8 0,1.82 -0.37,3.77 -0.94,5.74 a 43.18,43.18 0 0 1 -2.2,5.77 69.59,69.59 0 0 1 -4.45,8.17 54.46,54.46 0 0 1 -6.25,8.16 17.98,17.98 0 0 1 -3.46,2.93 c -0.32,0.2 -0.62,0.3 -0.91,0.39 -0.3,-0.08 -0.59,-0.2 -0.9,-0.4 -1.06,-0.63 -2.2,-1.6 -3.47,-2.92 -2,-2.08 -4.22,-4.97 -6.25,-8.16 A 69.6,69.6 0 0 1 8.91,27.45 43.18,43.18 0 0 1 6.72,21.68 20.92,20.92 0 0 1 5.79,15.95 c 0,-1.34 0.13,-2.61 0.4,-3.8 0.27,-1.2 0.67,-2.32 1.2,-3.35 a 12.92,12.92 0 0 1 4.67,-5.12 17.1,17.1 0 0 1 2.8,-1.46 c 1,-0.41 2.1,-0.76 3.26,-1.04 C 19.88,0.76 21.89,0.58 24,0.5 Z"
     id="path93"
     inkscape:connector-curvature="0"
     style="opacity:0.2" />
</svg>
