<svg xmlns="http://www.w3.org/2000/svg" xmlns:xlink="http://www.w3.org/1999/xlink" width="48" height="48"><defs><linearGradient id="n"><stop offset="0"/><stop offset="1" stop-opacity=".081"/></linearGradient><linearGradient id="i"><stop offset="0"/><stop offset="1" stop-opacity="0"/></linearGradient><linearGradient id="a"><stop offset="0" stop-color="#e26400"/><stop offset="1" stop-color="#ffb900"/></linearGradient><linearGradient id="b"><stop offset="0" stop-color="#9b4400"/><stop offset="1" stop-color="#e56300"/></linearGradient><linearGradient id="c"><stop offset="0" stop-color="#f48200" stop-opacity="0"/><stop offset=".59" stop-color="#f48200" stop-opacity=".73"/><stop offset=".82" stop-color="#cc5f00"/><stop offset="1" stop-color="#a43d00"/></linearGradient><linearGradient id="d"><stop offset="0" stop-color="#a1abb2"/><stop offset=".08" stop-color="#eaeced"/><stop offset="1" stop-color="#c6ccd0"/></linearGradient><linearGradient id="e"><stop offset="0" stop-color="#a1abb2"/><stop offset=".15" stop-color="#eaeced"/><stop offset="1" stop-color="#c6ccd0"/></linearGradient><linearGradient id="f"><stop offset="0" stop-color="#ffb900"/><stop offset="1" stop-color="#ffd76b"/></linearGradient><linearGradient id="g"><stop offset="0" stop-color="#f68000"/><stop offset="1" stop-color="#fd9800"/></linearGradient><linearGradient xlink:href="#h" id="o" x1="23.669" y1="56.322" x2="20.031" y2="-4.317" gradientUnits="userSpaceOnUse"/><linearGradient id="j"><stop offset="0" stop-color="#fff"/><stop offset="1" stop-color="#fff" stop-opacity="0"/></linearGradient><linearGradient id="k"><stop offset="0" stop-color="#045"/><stop offset="1" stop-color="#ccc"/></linearGradient><radialGradient id="h" cx="25.265" cy="12.352" r="18.785" gradientTransform="matrix(1.8856 0 0 1.6521 -22.862 -8.378)" gradientUnits="userSpaceOnUse"><stop stop-color="#ffe680" offset="0"/><stop offset=".371" stop-color="#fec757"/><stop stop-color="#a02c89" offset="1"/></radialGradient><linearGradient id="l" x1="400.57" x2="392.9" y1="537.6" y2="546.58" gradientTransform="matrix(1.25 0 0 1.26667 -92.14 -151.08)" gradientUnits="userSpaceOnUse"><stop stop-color="#ffc35a" offset="0" stop-opacity=".999"/><stop stop-color="#f98a14" offset="1"/></linearGradient><radialGradient id="m" cx="25.265" cy="12.352" r="18.785" gradientTransform="matrix(1.8856 0 0 1.6521 -22.862 -8.378)" gradientUnits="userSpaceOnUse"><stop stop-color="#ffe680" offset="0"/><stop offset=".371" stop-color="#fec757"/><stop stop-color="#fdaf41" offset="1"/></radialGradient><linearGradient xlink:href="#n" id="p" gradientUnits="userSpaceOnUse" x1="-13.344" y1="-8.753" x2="46.121" y2="26.356"/></defs><path d="M24 .35c-5.83 0-10.52 1.12-13.93 3.33-4.1 2.66-6.27 6.9-6.27 12.27 0 7.23 5.8 16.88 7.58 19.67a54.48 54.48 0 0 0 6.25 8.16c2.54 2.64 4.57 3.87 6.37 3.87 1.8 0 3.83-1.23 6.37-3.87 2-2.08 4.22-4.97 6.25-8.16 1.78-2.79 7.58-12.44 7.58-19.67 0-5.37-2.16-9.61-6.26-12.27C34.52 1.47 29.84.35 24 .35z" fill="url(#o)"/><path d="M27.385 46.3a17.997 17.997 0 0 0 2.984-2.52c2-2.08 4.22-4.97 6.25-8.16.89-1.396 2.787-4.506 4.46-8.17.835-1.833 1.615-3.803 2.187-5.768.087-.302.065-.58.142-.881L28.826 6.219l-1.199-.875L25.49 4.34 23.238 4l-2.46.55-1.733 1.36-.988 2.268-.227 2.69-.584 1.732-.71 1.068.226 2.592.842.986-.713 1.361-1.344.858-1.117.082-2.834-2.834-.162 1.812.712 2.366 1.167 1.23-1.686.324-.744.422-.842.711-1.102 2.268 4.762 4.761.291 2.3z" opacity=".302" fill="url(#p)"/><g fill="#241f1c"><path d="M22.766 3.715c-.367.096-.713.206-.84.274a1.704 1.704 0 0 1-.359.116c-.277.055-.798.25-1.13.425-.572.301-.846.51-1.29.99-.388.418-.44.49-.634.88-.565 1.127-.672 1.428-.798 2.243a6.959 6.959 0 0 1-.151.72c-.092.3-.144.605-.192 1.146-.017.199-.048.483-.068.634l-.055.41c-.038.316-.09.467-.168.497a.322.322 0 0 0-.188.267c0 .08-.199.723-.298.97-.038.092-.079.13-.147.147-.055.01-.168.085-.254.168l-.157.15v.254c0 .14-.017.39-.041.561-.048.374-.048.363.003.96.062.664.1.735.678 1.307.449.449.455.456.455.61 0 .301-.304.942-.537 1.133-.267.22-.623.401-1.072.555-.462.158-.462.158-.993.168-.52.01-.538.01-.822-.092a12.551 12.551 0 0 0-.452-.155c-.277-.082-.637-.29-.788-.458-.16-.182-.294-.446-.52-1-.127-.322-.165-.456-.185-.702-.024-.295-.028-.305-.113-.315-.11-.014-.281.17-.459.49-.253.451-.432 1.557-.329 2.037.062.28.27.818.394 1.01.062.092.161.26.223.366.219.387.753.99 1.181 1.322.055.041.093.082.082.093a.876.876 0 0 1-.202.037c-.315.031-1.126.24-1.452.374a1.934 1.934 0 0 0-.41.219c-.055.051-.158.13-.223.175-.213.14-.695.595-.785.736a5.56 5.56 0 0 1-.178.257 1.304 1.304 0 0 0-.147.274 1.267 1.267 0 0 1-.089.188c-.072.089-.315.794-.4 1.15-.08.353-.086.415-.045.51.051.124.178.19.27.138.069-.034.206-.189.363-.411.292-.408.929-.88 1.353-1.004.281-.082 1.086-.212 1.483-.243.216-.017.791.059 1.154.148.065.017.212.04.325.054.113.01.291.041.394.069.274.065.668.147.932.192.133.02.232.054.232.078s-.061.103-.14.175a2.584 2.584 0 0 0-.284.36c-.082.123-.233.342-.34.493-.427.589-.78 1.51-1 2.602-.167.843-.19 1.103-.153 1.723.061.972.212 1.798.442 2.455.089.25.157.329.277.329.157 0 .205-.181.24-.873.051-1.082.356-2.024.883-2.73.408-.55 1.545-1.681 1.84-1.832.057-.03.17-.102.256-.164.26-.185 1.181-.634 1.305-.634.034 0 .188-.068.346-.147a8.07 8.07 0 0 1 .67-.298 6.63 6.63 0 0 0 .788-.383c.22-.134.47-.264.555-.291.147-.048.49-.291.88-.62l.175-.147.113.232c.058.127.137.27.168.319.034.048.205.37.383.719.291.565.336.681.428 1.079.233.996.302 1.575.267 2.322-.013.321-.03.763-.037.979-.014.35-.028.435-.154.805-.08.23-.202.565-.278.753-.198.504-.133.582.247.305.507-.367.948-.904 1.41-1.723.357-.63.436-.787.566-1.113.065-.17.198-.493.29-.719.21-.493.244-.62.354-1.215.137-.75.222-1.463.222-1.86 0-.202.007-.366.017-.366.01 0 .093.051.182.113.23.157.832.527.914.558.038.014.195.103.353.192.154.092.346.188.421.215.075.028.178.08.23.113.05.038.13.08.178.093.048.014.222.085.387.157.164.076.441.182.61.237.17.058.574.233.896.39.326.158.658.312.743.35.086.034.216.109.292.17.075.059.222.151.325.203.305.15 1.113 1.01 1.534 1.63.209.304.25.397.346.767.212.828.25 1.034.277 1.575.031.654.082.884.199.9.171.025.284-.18.452-.831.16-.624.25-1.226.305-2.072.027-.439-.024-.956-.148-1.507a6.004 6.004 0 0 1-.071-.36c-.059-.366-.408-1.387-.617-1.784a8.565 8.565 0 0 0-.904-1.335 2.204 2.204 0 0 1-.209-.264c0-.007.103-.034.233-.058.202-.035.36-.065 1.017-.202.096-.02.356-.069.582-.106.226-.042.531-.096.678-.124.305-.058.548-.044 1.274.062.603.089.89.171 1.216.35.267.146.726.554.907.807.237.333.36.418.473.336.093-.069.116-.53.041-.815-.062-.25-.27-.798-.35-.918a1.302 1.302 0 0 1-.092-.205c-.113-.319-.517-.788-1.01-1.165-.404-.315-.5-.376-.64-.431a20.461 20.461 0 0 0-.288-.106 8.086 8.086 0 0 0-1.147-.274c-.39-.041-.384-.035-.164-.213.441-.352.907-.883 1.14-1.294.062-.113.157-.267.212-.342a3.56 3.56 0 0 0 .254-.566l.16-.428v-.462c.004-.428-.006-.496-.123-.938-.14-.528-.28-.815-.503-1.031-.199-.192-.25-.15-.28.23-.028.315-.145.657-.415 1.225-.288.603-.463.73-1.524 1.083-.213.068-.326.082-.754.089-.5.01-.506.01-.931-.124a5.999 5.999 0 0 1-.548-.191c-.603-.302-.825-.5-1.01-.901-.15-.329-.257-.658-.257-.801 0-.14-.051-.25-.12-.25-.027 0-.051-.007-.051-.018 0-.01.11-.167.243-.349.137-.181.305-.442.38-.575.13-.247.13-.25.168-.815.048-.764-.007-1.09-.302-1.777-.102-.25-.297-.439-.441-.439-.093 0-.22-.11-.22-.188a.053.053 0 0 0-.05-.052c-.028 0-.11-.054-.186-.12-.123-.109-.14-.154-.24-.547a2.676 2.676 0 0 1-.106-.781c0-.346-.072-1.041-.137-1.308a1.79 1.79 0 0 1-.034-.326c-.003-.191-.027-.325-.185-1.044-.051-.226-.13-.596-.178-.822-.16-.788-.24-1.03-.462-1.418-.226-.394-.247-.42-.658-.876-.438-.487-.664-.689-1.013-.904-.617-.38-1.059-.565-1.695-.71a3.243 3.243 0 0 1-.555-.167 1.63 1.63 0 0 0-.415-.12c-.246-.041-1.76-.079-1.876-.048zm1.811.702c.394.069.476.09.689.185.054.024.181.051.28.062.14.01.257.061.572.243.22.127.408.222.425.212.014-.007.092.031.175.086.082.055.164.1.181.1.052 0 .48.287.678.455.103.085.243.205.312.263.27.226.73 1.02.952 1.654.123.35.12.336.061.312-.034-.01-.078.079-.15.301-.079.247-.11.302-.13.25a51.55 51.55 0 0 0-.439-1.089c-.085-.205-.16-.315-.16-.24 0 .024.013.048.027.059.061.037.315 1.068.315 1.274 0 .065.03.26.065.435.079.376.103.712.11 1.445l.003.548-.154.024a.662.662 0 0 0-.236.075c-.048.03-.161.079-.257.106a1.766 1.766 0 0 0-.408.216c-.13.089-.322.198-.424.243a2.36 2.36 0 0 0-.566.325c-.147.113-.143.103.093-.205.171-.223.267-.421.267-.555 0-.062-.01-.11-.02-.11-.066 0-.268.226-.5.559-.346.486-.353.578-.042.49a5.61 5.61 0 0 1 .425-.103 1.93 1.93 0 0 0 .356-.107c.065-.034.113-.04.137-.02.024.02.062.02.09.003a.22.22 0 0 1 .136-.013c.065.013.161-.035.394-.189.199-.137.319-.195.34-.174.047.048.163.04.239-.017.075-.059.137-.069.106-.021-.034.058.092.147.192.134.075-.014.102 0 .12.054.013.041.071.161.137.267l.113.196-.08.147c-.064.123-.092.147-.167.137-.075-.007-.103.014-.158.123-.089.175-.345.384-.472.384-.113 0-.202.054-.421.257-.175.16-.606.414-.644.376a.474.474 0 0 1-.058-.144c-.041-.147-.13-.219-.196-.154-.03.031-.024.069.035.175a.562.562 0 0 1 .075.199c0 .071-.216.205-.312.188a.425.425 0 0 0-.185.044c-.071.028-.13.052-.133.052 0 0 .003-.185.01-.411.01-.452-.007-.582-.082-.582-.062 0-.072.051-.123.582-.02.236-.052.459-.065.5-.017.04-.1.103-.196.144-.15.065-.181.065-.352.027a3.162 3.162 0 0 1-.435-.15 2.616 2.616 0 0 0-.373-.13c-.137-.025-.271-.172-.34-.37-.05-.141-.078-.103.39-.521.316-.278.429-.548.295-.699-.058-.065-.02-.198.189-.63.188-.397.301-.736.25-.767-.02-.014-.045-.072-.052-.127-.006-.072-.03-.106-.082-.113-.058-.006-.079.017-.113.137a9.98 9.98 0 0 1-.366.809c-.308.623-.322.667-.27.726.085.095.05.212-.086.287-.076.041-.192.168-.315.35-.185.277-.192.29-.144.383.024.051.048.13.048.178 0 .065.027.096.099.127.069.024.13.092.185.202a.964.964 0 0 0 .157.233c.042.037.072.099.072.137 0 .051.048.096.154.154.182.096.463.383.463.476 0 .034.037.1.082.14.15.144.257.449.14.4-.085-.03-.058.07.048.182.09.093.161.127.254.11.017-.003.075.027.133.068.082.059.11.066.13.028.018-.024.014-.072-.003-.103-.051-.103-.038-.14.034-.1.038.018.11.035.161.035.12 0 .384-.127.435-.209.024-.038.058-.065.082-.065s.045-.03.045-.068c0-.09-.055-.086-.329.017-.356.133-.404.123-.668-.151-.202-.209-.308-.39-.257-.438.01-.01.107.065.216.168.394.37.456.39.805.27.226-.079.363-.062.377.045.02.137.143.106.301-.072.253-.288.445-.58.445-.678 0-.158.082-.076.106.106.02.15.014.185-.092.339-.192.284-.065.24.226-.079.315-.346.421-.517.435-.709.01-.092.03-.202.048-.24a.758.758 0 0 0 .04-.222c.008-.144 0-.154-.085-.165-.079-.01-.096-.027-.096-.102 0-.171.09-.367.175-.377.079-.014.127-.051.185-.157.02-.035.051-.062.068-.059.048.01.024.11-.04.185-.052.052-.049.086.023.377.079.322.113 1.003.055 1.178-.041.127.03.089.134-.065l.096-.147-.08-.446c-.14-.784-.153-.904-.109-.948.048-.048.165.044.199.157.051.172.335.726.394.767.03.021.078.096.099.165.034.103.075.14.23.209.102.048.287.099.414.113.277.034.328.089.301.308-.058.466-.058.466-.014.4l.086-.12c.02-.033-.007.158-.062.422l-.099.48-.387.366c-.209.202-.41.366-.442.366-.034.004-.061.028-.061.058 0 .076-.172.288-.233.288a3.31 3.31 0 0 1-.439-.154c-.208-.086-.438-.154-.503-.154-.195 0-.64.096-.78.168-.073.037-.261.092-.419.12-.452.078-1.04.404-1.106.61-.01.037-.085.174-.167.297-.237.366-.432 1.02-.428 1.438l.003.158.096-.209c.055-.113.123-.291.157-.394.035-.103.093-.23.13-.28.038-.055.113-.192.168-.309.172-.36.302-.537.442-.61.075-.037.134-.058.134-.044 0 .01-.117.257-.257.545-.264.54-.36.821-.36 1.054 0 .117.01.13.079.12.055-.007.079-.037.086-.103.02-.164.51-1.106.729-1.397.188-.246.455-.48.555-.48.013 0-.024.066-.09.145-.318.393-.674 1.075-.674 1.294 0 .09.058.09.086-.003.013-.038.102-.172.198-.298.096-.127.26-.346.37-.487.178-.236.373-.448.373-.404 0 .007-.061.158-.137.333a2.724 2.724 0 0 0-.25 1.219c0 .349.01.404.144.787.08.226.172.507.206.624.085.28.537 1.174.75 1.49.188.277 1.363 1.533 1.435 1.533.006 0 .13.096.277.216.27.223.394.305.572.4.63.333 1.11.617 1.181.703.045.055.172.188.281.29.325.31.623.754.805 1.217.185.462.298.866.404 1.431.103.558.11.829.027.921-.03.034-.068.062-.082.062-.013 0-.072-.082-.127-.182-.085-.15-.106-.23-.123-.527-.027-.428-.103-.907-.178-1.13-.055-.168-.133-.277-.171-.243-.01.013.003.301.034.644.031.342.055.643.055.667 0 .045-.37-.13-.414-.198a.88.88 0 0 1-.045-.243 3.486 3.486 0 0 0-.075-.394c-.137-.483-.576-1.38-.665-1.363-.082.014-.054.178.12.657.199.552.305.908.278.935-.041.038-.21-.16-.25-.294a2.89 2.89 0 0 0-.25-.456 8.798 8.798 0 0 1-.312-.527 3.515 3.515 0 0 0-.178-.305 6.055 6.055 0 0 1-.212-.36c-.137-.26-.23-.328-.25-.181-.017.113.089.445.195.623.051.086.12.223.154.305.03.082.12.25.192.373.075.124.137.24.137.254 0 .034-.254-.103-.33-.178a3.617 3.617 0 0 1-.211-.281c-.09-.127-.278-.38-.418-.565-.236-.305-.363-.504-.63-.98-.124-.215-.175-.195-.172.072.004.257.161.606.521 1.137.134.199.236.363.233.37-.028.028-.28-.116-.35-.198a3.786 3.786 0 0 0-.308-.278c-.404-.329-.695-.798-.904-1.466-.16-.513-.222-.534-.219-.071 0 .493.192 1.023.528 1.465.075.1.136.185.136.192 0 .007-.03.007-.071-.003-.042-.01-.09-.066-.107-.117-.017-.055-.048-.1-.065-.1-.078 0-.448-.427-.62-.718-.273-.466-.386-.774-.469-1.288-.096-.589-.099-.596-.157-.596-.12 0-.168.312-.117.798.045.445.168.86.36 1.202.086.147.147.277.14.284-.02.02-.558-.558-.667-.719-.295-.431-.64-1.342-.778-2.061-.089-.476-.188-.439-.192.072-.003.37.137 1.126.274 1.486.042.103.072.195.072.202 0 .03-.301-.332-.448-.541-.278-.4-.411-.795-.476-1.425l-.055-.558c-.014-.113-.034-.178-.065-.178-.065 0-.086.113-.11.616-.02.531.031.884.195 1.278.117.28.069.25-.184-.11-.226-.322-.322-.51-.38-.736-.072-.281-.165-1.175-.144-1.394.017-.199-.01-.28-.069-.195-.068.11-.116.308-.137.568-.01.154-.034.278-.051.274-.02-.007-.065-.096-.103-.198-.055-.154-.062-.24-.048-.463.01-.15.038-.328.055-.393a3.76 3.76 0 0 0 .082-.353c.055-.274.014-.308-.116-.093-.165.267-.158.267-.182.083-.017-.13 0-.244.079-.521.055-.192.092-.373.082-.4-.03-.076-.137-.008-.222.147-.038.068-.059.095-.045.058.051-.158.15-.654.15-.76 0-.144-.088-.189-.17-.086-.055.065-.059.034-.083-.616-.017-.497-.013-.7.017-.733.052-.065.086-.035.137.116.041.137.154.28.22.28.071 0 .29.131.356.21.048.058.078.072.102.044.028-.024.02-.082-.027-.205-.038-.093-.13-.37-.212-.613a32.454 32.454 0 0 0-.411-1.161c-.15-.394-.27-.76-.27-.815 0-.051-.018-.096-.038-.096-.018 0-.052-.044-.069-.1-.041-.116-.113-.153-.195-.109a.118.118 0 0 1-.117 0c-.05-.027-.089.028-.263.394-.34.709-1.024 2.644-.96 2.709.025.024.063.003.114-.058.041-.055.092-.096.113-.096.02 0 .055-.02.079-.048.02-.028.078-.055.13-.062.068-.007.096-.038.116-.123.017-.058.045-.11.062-.11s.058-.048.085-.106c.055-.1.059-.103.103-.041a.26.26 0 0 1 .052.14c0 .041.024.113.05.154.09.137.134.668.124 1.415-.003.181-.013.212-.072.23-.082.02-.089.116-.013.198.048.055.048.089 0 .397-.031.185-.065.435-.083.558l-.024.223-.075-.13c-.041-.069-.092-.127-.11-.127-.02 0-.027.192-.013.51l.017.507-.116.288c-.226.555-.429.757-.34.339.055-.26.045-.445-.037-.617l-.072-.154-.045.326c-.072.5-.445 1.558-.667 1.887a.902.902 0 0 1-.124.154 2.662 2.662 0 0 1 .065-.35c.093-.42.11-1.232.031-1.328-.075-.09-.123-.01-.185.322-.089.462-.322 1.191-.472 1.49-.11.215-.202.331-.439.554a4.834 4.834 0 0 1-.304.284.315.315 0 0 1 .03-.079c.024-.04.086-.222.14-.4.165-.541.172-1.404.011-1.404-.072 0-.079.027-.137.407-.1.675-.199.96-.51 1.486-.188.322-.343.5-.596.702-.171.134-.178.12-.045-.071.151-.223.26-.46.36-.778a1.48 1.48 0 0 0 .082-.6c-.007-.174-.024-.307-.044-.307-.017 0-.103.209-.189.462-.219.647-.37.894-.852 1.363-.353.346-.541.486-.651.486-.02 0 .075-.164.212-.37.411-.606.627-1.191.487-1.308-.055-.044-.055-.044-.394.541a5.478 5.478 0 0 1-.302.463 13.34 13.34 0 0 0-.26.332 9.597 9.597 0 0 0-.274.37 1.452 1.452 0 0 1-.325.335c-.202.137-.223.103-.079-.126.171-.268.514-1.004.548-1.168.024-.124.02-.178-.01-.223-.041-.055-.055-.044-.137.093-.048.085-.15.253-.226.376a6.555 6.555 0 0 0-.223.394 4.856 4.856 0 0 1-.253.428c-.213.326-.343.565-.343.634 0 .051-.195.257-.243.257-.03 0 .1-.439.305-1.02.096-.271.164-.515.154-.542-.038-.103-.113-.038-.264.243-.298.552-.49 1.096-.551 1.579-.02.157-.048.202-.243.41l-.223.237.02-.325c.011-.178.035-.442.052-.582.079-.665.045-.88-.096-.559-.106.25-.178.696-.202 1.25l-.02.507-.113.086c-.093.068-.13.082-.182.055-.106-.059-.106-.33.004-.928.123-.685.24-1.093.441-1.552.192-.435.411-.746.833-1.188.318-.332.393-.38 1.335-.884.22-.116.723-.49 1.014-.75.4-.356 1.212-1.243 1.38-1.503a7.73 7.73 0 0 0 .811-1.743c.213-.647.278-.973.21-1.058-.028-.034-.031-.093-.004-.216.041-.185-.007-.472-.116-.736-.069-.158-.62-.778-.733-.819-.1-.037-.062-.102.096-.167.154-.065.575.048.62.167.02.045.085.168.15.274.065.107.202.398.308.648.144.352.185.493.185.62-.003.088.014.222.038.294.024.068.034.178.024.24-.01.061-.01.123 0 .133.04.041.113-.061.113-.164 0-.178.048-.21.113-.072.061.13.096.147.154.075.027-.03.027-.085.007-.164a8.886 8.886 0 0 1-.086-.408 4.041 4.041 0 0 0-.38-1.048 1.453 1.453 0 0 1-.116-.232c0-.01.044 0 .102.03.055.028.182.072.281.1l.182.044.116.278c.065.154.123.274.127.27.027-.027-.069-.945-.106-1-.024-.037-.144-.123-.267-.188l-.223-.12-.134.072c-.212.12-.301.127-.5.044a2.418 2.418 0 0 1-.332-.184c-.147-.103-.318-.151-.599-.168a.732.732 0 0 1-.137-.02 1.774 1.774 0 0 0-.325-.018c-.247.003-.322.02-.493.103l-.206.096-.089-.107c-.051-.061-.106-.11-.123-.11s-.137-.071-.267-.153a1.587 1.587 0 0 0-.267-.154c-.076 0-.01.075.16.188.103.072.189.14.189.158 0 .054-.065.034-.127-.038-.034-.038-.082-.069-.113-.069-.027 0-.13-.061-.223-.14-.191-.158-.438-.592-.599-1.058a8.376 8.376 0 0 0-.147-.384c-.055-.123-.055-.133.003-.191a.466.466 0 0 1 .216-.09c.195-.03.305-.102.305-.205 0-.116.157-.64.28-.942.169-.397.37-.575.37-.318 0 .051-.068.298-.154.548a4.06 4.06 0 0 0-.154.52c0 .045.035.082.086.103.048.017.086.048.086.068 0 .021.017.028.034.018.02-.01.034-.062.034-.11s.038-.274.082-.503a4.91 4.91 0 0 0 .093-.586c.003-.116.03-.195.075-.247.041-.044.058-.102.048-.147-.014-.051 0-.068.048-.068.044 0 .065.024.065.082 0 .092.055.144.14.13.11-.017.103.096-.013.212-.182.178-.247.435-.247.946.004.469.038.595.202.684.048.024.09.059.09.076 0 .013.016.027.033.027.059 0 .038-.113-.054-.288-.09-.164-.09-.167-.048-.513.072-.617.178-.952.277-.89.017.01.031-.025.031-.08 0-.085.003-.088.055-.037.03.03.058.116.061.188.004.117-.006.13-.089.14-.12.014-.226.261-.233.542-.003.11-.01.294-.01.407-.007.182 0 .206.062.216.044.007.12.093.205.233.199.329.285.421.51.568.23.148.305.14.172-.017-.134-.164-.531-.883-.552-1-.034-.185-.027-.267.014-.28.024-.01.058.024.079.075.058.15.565.839.808 1.096.233.246.322.26.188.03-.089-.15-.092-.178-.006-.102.037.034.085.055.102.051.02-.007-.072-.1-.205-.202-.267-.205-.408-.356-.408-.431 0-.083.08-.055.322.123.13.096.278.181.326.192.048.01.253.075.458.144l.367.126.137-.079a.575.575 0 0 1 .195-.075c.045 0 .03.02-.048.075a.503.503 0 0 0-.15.175.682.682 0 0 1-.165.195c-.106.09-.113.103-.048.103a.486.486 0 0 0 .161-.034c.1-.038.113-.007.051.11-.058.109.018.16.113.075.045-.038.117-.09.165-.113.11-.052.462-.394.733-.699.11-.127.246-.253.308-.277a1.24 1.24 0 0 0 .603-.576c.078-.147.154-.267.17-.267.035 0 .018-.068-.04-.195-.028-.055-.024-.127.02-.277.096-.343.12-.305-.452-.695l-.246-.172.02-.133a.314.314 0 0 0-.048-.247 5.208 5.208 0 0 1-.246-.524c-.23-.537-.428-.873-.514-.873-.041 0-.068.024-.068.055 0 .044-.01.048-.052.014-.113-.096-.106-.004.02.215.076.127.21.397.295.6.185.42.22.654.13.825a.371.371 0 0 0-.034.253c.048.284.093.346.363.483.346.182.38.216.353.343a1.06 1.06 0 0 1-.086.229c-.051.103-.085.127-.195.147-.075.01-.236.069-.363.127a2.52 2.52 0 0 1-.421.15c-.182.042-.213.042-.363-.023-.09-.041-.178-.096-.192-.127-.017-.03-.051-.264-.072-.517-.051-.528-.079-.644-.15-.586-.062.052-.09.343-.059.689.014.16.024.294.02.3a.475.475 0 0 1-.146-.047c-.08-.03-.161-.048-.185-.038-.024.007-.103-.017-.175-.058-.123-.065-.13-.079-.113-.188a.425.425 0 0 1 .075-.178c.076-.082.038-.175-.061-.161-.062.007-.086.044-.117.16-.02.086-.051.158-.072.165-.048.017-.65-.353-.688-.418-.048-.085-.257-.222-.342-.222-.055 0-.182-.086-.36-.24-.15-.134-.288-.24-.308-.24-.017 0-.038.031-.048.065a.121.121 0 0 1-.093.08c-.054.006-.072.033-.072.105l.004.096-.058-.075c-.065-.086-.134-.456-.134-.716 0-.133.014-.178.062-.195.03-.014.137-.075.236-.137.291-.185.586-.161.914.082.158.117.23.15.305.137.051-.007.103 0 .113.017.01.014.055.028.1.028.054 0 .116.04.178.12.089.109.095.112.154.061.061-.055.075-.048.232.12.165.175.309.233.309.127 0-.028.017-.052.034-.052.02 0 .034.02.034.048 0 .058.192.226.257.226.024 0 .062-.024.086-.051.034-.041.024-.065-.055-.137a.524.524 0 0 0-.165-.106c-.04-.01-.116-.079-.174-.15-.055-.076-.12-.128-.144-.12-.086.027-.404-.097-.538-.21a.624.624 0 0 0-.167-.116c-.018 0-.179-.096-.357-.212-.274-.179-.349-.21-.458-.202-.182.01-.26-.042-.305-.196-.048-.181-.041-.575.013-.685.076-.15.1-.345.045-.37-.038-.013-.027-.12.065-.592.134-.692.209-.969.404-1.486.171-.449.25-.73.216-.767-.041-.038-.182.123-.291.325-.117.223-.302.777-.435 1.319-.075.304-.11.387-.192.462-.055.051-.223.301-.373.555l-.274.459v-.155c0-.126.017-.17.106-.256.236-.226.568-.812.603-1.062.02-.154.02-.158-.055-.12-.079.045-.212.24-.432.63-.068.127-.13.23-.137.223a2.6 2.6 0 0 1 .014-.25c.017-.209.028-.24.09-.24.081 0 .468-.623.544-.877.061-.202.034-.448-.045-.434-.03.006-.055.027-.055.044 0 .02-.044.103-.092.188a5.269 5.269 0 0 0-.216.425c-.068.147-.13.26-.14.253-.045-.044.394-1.438.524-1.667.328-.569.948-1.35 1.287-1.62.309-.243.778-.538.925-.579.079-.02.322-.1.538-.171.55-.182 1.044-.257 2.02-.305.53-.024.53-.024 1.075.072zm4.47 4.003c.047.226.047.26-.011.353a1.551 1.551 0 0 0-.11.308c-.03.127-.065.223-.078.213a1.177 1.177 0 0 1-.072-.22c-.055-.188-.052-.198.024-.349.04-.082.096-.222.116-.315.024-.089.055-.16.069-.16.013 0 .04.078.061.17zm.55 4.274a.32.32 0 0 1-.047.165c-.045.058-.041.071.013.133.14.154.411.582.411.654 0 .154-.181.12-.318-.061a3.865 3.865 0 0 1-.23-.377l-.14-.264.055-.164c.075-.22.11-.257.192-.213.04.021.065.069.065.127zm-11.965.562c-.05.12-.164.352-.253.524-.168.318-.247.38-.329.246-.03-.048-.003-.126.144-.41.1-.192.236-.425.301-.518.113-.15.127-.16.179-.113.047.052.044.076-.042.27zm.004 5c.044.04.079.092.079.116 0 .02.024.062.058.086a.79.79 0 0 1 .181.414v.096l-.16-.103c-.179-.113-.336-.13-.442-.051-.065.051-.065.051 0 .102a.262.262 0 0 0 .126.052c.069 0 .254.222.39.466.093.167.097.181.052.335-.024.086-.051.158-.065.158-.01 0-.079-.086-.154-.185-.161-.226-.445-.432-.596-.432-.062 0-.11.017-.11.041 0 .02.093.134.203.25.226.233.277.363.277.682 0 .168-.017.23-.106.37-.058.089-.12.157-.134.147-.017-.01-.04-.106-.051-.216-.028-.25-.158-.52-.312-.654-.226-.199-.28-.12-.126.178.082.15.095.22.095.452 0 .346-.072.538-.274.736l-.154.151v-.212c0-.14-.03-.308-.089-.486-.078-.233-.113-.288-.26-.411-.096-.083-.188-.134-.216-.124-.055.02-.055.017.08.302.18.38.109.873-.158 1.082-.117.092-.316.164-.316.113 0-.01.024-.096.052-.189.092-.308.055-.664-.096-.897-.079-.12-.212-.212-.253-.171-.014.01.003.137.037.274.093.363.045.555-.212.87-.134.164-.267.246-.4.246-.049 0-.086-.006-.086-.013 0-.007.037-.1.085-.206.144-.329.1-.774-.092-.89-.09-.055-.106-.01-.11.301-.003.264-.014.302-.106.435a1.065 1.065 0 0 1-.22.226l-.112.075-.175-.068c-.277-.11-.284-.123-.147-.353.26-.435.192-.568-.123-.246-.12.123-.237.226-.257.226-.02 0-.123-.079-.23-.175-.16-.147-.185-.181-.15-.233.058-.096.01-.174-.103-.174-.13 0-.185-.066-.336-.394l-.29-.64c-.25-.542-.213-.754.081-.483.247.226.466.356.798.476.562.202 1.148.256 1.935.188.387-.034.517-.093 1.26-.565.49-.308.826-.6 1.144-.99.072-.089.147-.16.171-.16.021 0 .072.033.117.075zm13.133.167c.41.507.414.51 1.1.96.725.472.89.547 1.304.581.78.065 1.168.031 1.784-.16.397-.12.558-.206.884-.473.229-.185.318-.189.287-.01-.017.113-.53 1.273-.627 1.417a.163.163 0 0 1-.147.079c-.123 0-.202.082-.14.15.055.07.014.13-.185.295-.103.086-.182.127-.216.113-.065-.024-.377-.335-.394-.394-.02-.058-.096 0-.096.072 0 .093.096.312.2.446l.085.116-.093.075a.744.744 0 0 1-.226.117c-.113.034-.147.03-.25-.031a.806.806 0 0 1-.216-.216c-.085-.123-.102-.185-.116-.452-.014-.25-.027-.308-.072-.318-.092-.017-.192.191-.212.438-.017.195-.007.253.079.459.058.13.095.243.092.25a.514.514 0 0 1-.137-.014c-.1-.014-.168-.061-.305-.212a1.849 1.849 0 0 1-.236-.329c-.079-.168-.082-.435-.014-.633.065-.182.065-.24.004-.24-.082 0-.21.127-.291.287-.107.22-.113.624-.007.86l.072.164-.127-.02c-.22-.038-.428-.291-.483-.6a1.04 1.04 0 0 1 .117-.68c.15-.265.078-.333-.148-.141a1.544 1.544 0 0 0-.167.164c-.086.106-.189.51-.192.74v.236l-.178-.192c-.206-.219-.26-.37-.26-.698 0-.189.02-.274.102-.452.058-.117.103-.233.103-.25 0-.08-.134-.024-.264.11-.181.191-.243.318-.28.592-.021.126-.042.236-.049.246-.03.031-.229-.28-.232-.363-.014-.5.037-.65.308-.9.096-.09.174-.178.174-.199 0-.017-.058-.034-.126-.034-.158 0-.456.215-.63.459-.062.089-.124.147-.137.133a.692.692 0 0 1-.062-.164c-.034-.127-.027-.147.1-.36.18-.298.277-.397.403-.428.137-.027.172-.082.093-.144-.103-.072-.295-.054-.435.041-.158.107-.164.107-.164 0a.59.59 0 0 1 .147-.356.146.146 0 0 0 .058-.099c0-.03.041-.096.09-.15.109-.114.16-.097.328.112zm-11.342.27c.038.021.086.07.106.107.027.058.024.079-.024.116-.058.042-.055.052.062.182.078.086.13.185.144.267.04.26.05.514.027.627l-.024.116-.062-.092c-.068-.103-.318-.295-.39-.295-.072 0-.055.072.072.281.065.106.144.277.178.38.058.188.058.192-.024.38-.09.21-.116.23-.154.113a1.165 1.165 0 0 0-.14-.24c-.086-.116-.144-.16-.203-.16-.102 0-.106.065-.017.263.11.237.154.62.11.908-.048.318-.1.507-.14.507-.021 0-.035-.062-.035-.14 0-.217-.137-.641-.243-.754-.192-.206-.253-.093-.147.27.089.302.051.77-.086 1.124-.058.154-.137.304-.174.339-.069.061-.069.058-.069-.161 0-.12-.017-.309-.041-.418-.041-.216-.264-.613-.35-.63-.068-.014-.068.04-.003.352.082.387.048.911-.072 1.172-.051.106-.373.346-.41.308-.014-.01.006-.1.037-.199.117-.346.014-1.024-.15-1.024-.07 0-.073.02-.073.326 0 .27-.017.373-.099.61-.137.396-.181.472-.353.592-.174.126-.527.212-.486.12.11-.257.288-.788.288-.857 0-.15-.069-.346-.12-.346a.145.145 0 0 0-.055.007l-.02.165c-.024.181-.315.78-.483.99l-.12.147-.295-.024c-.493-.038-.476-.01-.24-.367.206-.311.254-.476.162-.568-.045-.045-.13.007-.13.079 0 .02-.035.068-.072.106a1.75 1.75 0 0 0-.206.26 1.21 1.21 0 0 1-.257.277c-.126.09-.164.09-.537-.01l-.165-.044.103-.107c.11-.113.175-.25.15-.321-.03-.08-.133-.042-.266.099-.202.209-.305.243-.535.185a1.48 1.48 0 0 0-.277-.052c-.079 0-.096-.013-.096-.085 0-.12-.072-.137-.209-.055-.168.103-.613.089-.613-.017 0-.13-.236-.123-.383.01-.045.041-.165.062-.432.075a2.42 2.42 0 0 0-.407.048c-.072.045-.086-.044-.028-.212.052-.16.1-.216.487-.555.253-.226.825-.335 1.958-.373.973-.034 1.004-.038 1.98-.277.798-.199 1.034-.274 1.483-.487.582-.27 1.37-.945 1.725-1.476.257-.383.562-1.044.672-1.452.037-.15.065-.167.17-.11zm9.452.271c.099.336.349.898.537 1.216.343.572 1.164 1.305 1.791 1.603.493.236.72.308 1.61.524.832.202 1.246.257 1.9.257.726 0 1.493.113 1.76.256.206.113.538.418.613.565.096.189.103.363.018.322a2.802 2.802 0 0 0-.405-.048c-.273-.017-.366-.037-.445-.096-.147-.106-.27-.126-.339-.058-.03.031-.055.076-.055.1 0 .03-.068.051-.191.065-.165.017-.22.007-.38-.072-.158-.079-.189-.086-.22-.041a.145.145 0 0 0-.017.106c.01.044-.044.068-.257.113-.318.068-.414.04-.657-.182-.082-.078-.178-.14-.209-.14-.103 0-.062.154.086.322.078.089.137.164.13.171-.024.014-.5.123-.552.123-.082 0-.28-.191-.482-.465l-.247-.34-.051-.068-.055.069a.218.218 0 0 0-.034.16c.02.1.26.507.373.634.038.045.062.086.051.096-.007.01-.178.027-.373.038l-.356.024-.123-.137c-.155-.172-.473-.798-.497-.987a2.12 2.12 0 0 0-.034-.185c-.028-.082-.106.024-.15.199-.039.158-.032.182.13.613.092.25.157.452.14.452-.151 0-.384-.096-.524-.22-.137-.119-.178-.187-.281-.465-.1-.274-.12-.377-.13-.65-.01-.377-.031-.442-.124-.36-.143.13-.198.657-.106.983.08.27.055.287-.164.126-.216-.154-.284-.335-.301-.8-.014-.254 0-.463.034-.645.055-.284.03-.346-.082-.243-.192.171-.353.733-.315 1.082.01.072.003.13-.014.13-.055 0-.178-.226-.27-.496a1.522 1.522 0 0 1-.09-.6c0-.195.024-.393.055-.496.072-.226.069-.291-.01-.291-.13 0-.264.212-.34.534a6.476 6.476 0 0 0-.085.39l-.01.086-.041-.096c-.14-.332-.134-.983.01-1.322.106-.253.106-.277.004-.277-.096 0-.268.182-.35.37l-.055.127-.082-.172a.95.95 0 0 1-.079-.243c-.003-.126.09-.38.196-.537.054-.086.113-.189.126-.23.024-.072.018-.075-.072-.055a.766.766 0 0 0-.253.178.95.95 0 0 1-.181.151c-.038 0-.028-.49.013-.685a.74.74 0 0 1 .137-.29c.113-.131.124-.179.041-.196-.051-.01-.037-.038.065-.144.072-.068.144-.12.161-.106.02.01.069.127.107.253zm-4.5 4.942c.096.1.191.223.212.274.02.055.055.096.072.096.065 0 .65.907.61.945-.01.01-.038-.014-.059-.055a1.578 1.578 0 0 0-.16-.209c-.103-.113-.144-.133-.254-.133-.075 0-.134.01-.134.02s.038.065.086.124c.147.174.363.571.47.863l.098.277-.089-.096c-.085-.092-.222-.127-.222-.058 0 .02.03.13.072.25.082.243.154 1.027.106 1.154l-.03.082-.039-.072c-.065-.12-.14-.181-.198-.157-.045.017-.052.051-.034.16.01.08.034.24.05.36.045.295.015.551-.068.551-.048 0-.065.042-.082.23-.03.363-.085.695-.14.897-.062.216-.315.733-.421.86l-.072.085.02-.308c.01-.171.024-.325.031-.35.02-.057-.075-1.297-.12-1.56-.04-.254.028-.672.158-.997.044-.113.082-.24.082-.285 0-.126-.117-.095-.253.066l-.124.147.02-.12c.011-.065.073-.274.138-.462.102-.302.11-.346.065-.39-.045-.045-.069-.032-.206.109-.085.089-.154.14-.154.116 0-.116.113-.397.254-.644.181-.308.198-.407.075-.407-.12 0-.377.27-.517.544-.127.24-.127.192 0-.219.041-.133.154-.36.25-.51.185-.28.22-.397.12-.397-.09.003-.367.215-.476.366a5.013 5.013 0 0 1-.12.161c-.017.017-.004-.068.024-.188.058-.243.195-.51.394-.764.147-.181.157-.22.085-.246-.15-.059-.561.28-.719.592a.442.442 0 0 1-.068.113c-.024 0 .048-.312.096-.4.137-.264.42-.497.688-.562.243-.059.301-.041.483.147z"/><path d="M22.81 8.28c-.174.113-.198.14-.253.312-.03.092-.041.102-.045.04-.003-.04-.013-.075-.027-.075-.075.004-.24.35-.274.572-.014.096-.007.113.055.113h.1c.013 0 .037-.048.05-.11.048-.184.305-.578.435-.674a1.74 1.74 0 0 1 .268-.154c.078-.038.143-.079.143-.096 0-.014-.065-.027-.147-.027a.553.553 0 0 0-.305.099zM24.286 8.263a.315.315 0 0 0 .13.072c.199.048.73.575.83.822.098.253.246.085.17-.196-.075-.29-.702-.746-1.024-.746-.12 0-.137.007-.106.048zM23.516 8.985c-.14.059-.257.22-.367.497-.12.308-.16.565-.16 1.02 0 .744.263 1.483.595 1.675.065.038.274.034.439-.01.089-.024.284-.463.42-.939.107-.363.124-.462.11-.667a2.5 2.5 0 0 0-.431-1.278c-.195-.298-.384-.393-.606-.298zM26.2 11.252c-.147.158-.68.942-.743 1.1-.058.137-.006.219.093.157.147-.092.863-1.202.863-1.339 0-.082-.086-.048-.212.082zM21.55 11.804c0 .072.14.431.25.64.041.075.069.165.062.199-.01.085.099.116.154.04.082-.109.051-.256-.106-.544a4.285 4.285 0 0 0-.202-.339c-.062-.075-.158-.075-.158.004zM21.002 11.872c0 .072.195.404.325.558.048.059.086.134.086.172 0 .044.024.065.082.065.048 0 .093-.014.106-.035.035-.054-.075-.263-.29-.547-.203-.268-.309-.34-.309-.213zM24.067 14.52c-.014.017.014.106.058.195.572 1.116.863 1.667.918 1.729.038.038.069.086.069.103 0 .048.178.263.202.246.03-.017-.137-.561-.274-.89a12.624 12.624 0 0 1-.23-.634c-.11-.328-.147-.4-.222-.438a.39.39 0 0 1-.148-.15c-.034-.07-.065-.093-.078-.066-.018.028-.052.01-.107-.048-.085-.092-.154-.11-.188-.048zM23.18 14.855c-.085.15-.178.288-.202.301-.062.038-.27.404-.366.644-.09.223-.363.726-.432.798-.055.051-.096.178-.068.206.013.01.037.003.058-.018.02-.02.062-.03.086-.02.068.027.147-.069.308-.377.078-.154.16-.28.185-.28.051 0 .14-.12.116-.162-.01-.013.09-.208.22-.431.263-.445.417-.74.417-.795 0-.048-.086-.137-.13-.137-.02 0-.106.124-.192.271zM22.3 15.328c-.068.123-.243.328-.466.544-.191.192-.352.37-.352.397 0 .028-.062.1-.137.161-.076.058-.137.13-.137.158 0 .027.058.065.126.082.11.03.151.024.336-.065.188-.09.226-.127.373-.367.093-.147.21-.328.264-.407.1-.144.28-.527.26-.551-.007-.007-.04.02-.075.058-.055.061-.154.096-.154.055 0-.01.03-.072.072-.137.04-.069.054-.124.034-.124-.02 0-.086.09-.144.196zM27.851 15.334c-.209.113-.305.278-.16.278.023 0 .057.034.075.075.027.062.058.075.133.069.123-.014.373-.189.432-.302.051-.092.02-.15-.042-.089a.163.163 0 0 1-.106.041c-.048 0-.058-.017-.04-.068.016-.058.006-.069-.076-.069a.664.664 0 0 0-.216.065zM25.3 15.715a.778.778 0 0 0 .079.267c.04.065.044.085.01.11-.038.02-.034.057.01.194.058.175.14.237.473.367.137.055.37.02.37-.055 0-.02-.062-.096-.137-.164-.076-.069-.137-.148-.137-.175 0-.027-.154-.202-.346-.39l-.346-.343zM22.437 16.92c-.144.28-.243.623-.253.873-.004.137-.007.25 0 .25.072 0 .455-1.157.41-1.233-.04-.065-.085-.034-.157.11zM22.588 18.642c-.23.26-.281.36-.285.548 0 .08-.017.158-.04.182-.08.079 0 .079.14 0 .15-.086.448-.47.448-.579 0-.034.028-.103.059-.16.03-.056.048-.124.034-.155-.041-.113-.154-.058-.356.164z"/></g><path d="M24 .35c-5.83 0-10.52 1.12-13.93 3.33-4.1 2.66-6.27 6.9-6.27 12.27 0 7.23 5.8 16.88 7.58 19.67a54.48 54.48 0 0 0 6.25 8.16c2.54 2.64 4.57 3.87 6.37 3.87 1.8 0 3.83-1.23 6.37-3.87 2-2.08 4.22-4.97 6.25-8.16 1.78-2.79 7.58-12.44 7.58-19.67 0-5.37-2.16-9.61-6.26-12.27C34.52 1.47 29.84.35 24 .35zm0 .14c2.11.09 4.12.27 5.88.7 1.16.27 2.25.62 3.26 1.03 1.01.42 1.94.9 2.8 1.46A12.92 12.92 0 0 1 40.6 8.8c.53 1.03.92 2.15 1.2 3.34.26 1.2.4 2.47.4 3.8 0 1.82-.37 3.77-.94 5.74a43.19 43.19 0 0 1-2.2 5.77 69.59 69.59 0 0 1-4.45 8.17 54.47 54.47 0 0 1-6.25 8.16 17.98 17.98 0 0 1-3.46 2.93c-.32.2-.62.3-.91.39-.3-.08-.6-.2-.9-.4-1.06-.63-2.2-1.6-3.47-2.92-2-2.08-4.22-4.97-6.25-8.16a69.6 69.6 0 0 1-4.46-8.17 43.19 43.19 0 0 1-2.19-5.77 20.93 20.93 0 0 1-.93-5.73c0-1.34.13-2.61.4-3.8s.67-2.32 1.2-3.35a12.92 12.92 0 0 1 4.67-5.12c.85-.56 1.78-1.04 2.8-1.46 1.02-.42 2.1-.76 3.26-1.04C19.88.76 21.89.58 24 .5z" opacity=".25"/></svg>