<?xml version="1.0" encoding="UTF-8" standalone="no"?>
<svg
   xmlns:dc="http://purl.org/dc/elements/1.1/"
   xmlns:cc="http://creativecommons.org/ns#"
   xmlns:rdf="http://www.w3.org/1999/02/22-rdf-syntax-ns#"
   xmlns:svg="http://www.w3.org/2000/svg"
   xmlns="http://www.w3.org/2000/svg"
   xmlns:xlink="http://www.w3.org/1999/xlink"
   xmlns:sodipodi="http://sodipodi.sourceforge.net/DTD/sodipodi-0.dtd"
   xmlns:inkscape="http://www.inkscape.org/namespaces/inkscape"
   viewBox="0 0 48 48"
   version="1.1"
   id="svg26"
   sodipodi:docname="debian-logo.svg"
   inkscape:version="0.92.4 (5da689c313, 2019-01-14)">
  <metadata
     id="metadata30">
    <rdf:RDF>
      <cc:Work
         rdf:about="">
        <dc:format>image/svg+xml</dc:format>
        <dc:type
           rdf:resource="http://purl.org/dc/dcmitype/StillImage" />
        <dc:title></dc:title>
      </cc:Work>
    </rdf:RDF>
  </metadata>
  <sodipodi:namedview
     pagecolor="#ffffff"
     bordercolor="#666666"
     borderopacity="1"
     objecttolerance="10"
     gridtolerance="10"
     guidetolerance="10"
     inkscape:pageopacity="0"
     inkscape:pageshadow="2"
     inkscape:window-width="1112"
     inkscape:window-height="480"
     id="namedview28"
     showgrid="false"
     inkscape:zoom="4.9166667"
     inkscape:cx="2.1355932"
     inkscape:cy="24"
     inkscape:window-x="0"
     inkscape:window-y="25"
     inkscape:window-maximized="0"
     inkscape:current-layer="svg26" />
  <defs
     id="defs16">
    <linearGradient
       id="b">
      <stop
         offset="0"
         stop-color="#cd87de"
         id="stop2" />
      <stop
         offset=".57"
         stop-color="#fac"
         id="stop4" />
      <stop
         offset="1"
         stop-color="#672178"
         id="stop6" />
    </linearGradient>
    <linearGradient
       id="a">
      <stop
         offset="0"
         stop-opacity=".54"
         id="stop9" />
      <stop
         offset="1"
         stop-opacity="0"
         id="stop11" />
    </linearGradient>
    <linearGradient
       xlink:href="#a"
       id="d"
       gradientUnits="userSpaceOnUse"
       x1="-.18"
       y1="6.88"
       x2="51.17"
       y2="26.6" />
    <linearGradient
       xlink:href="#b"
       id="c"
       x1="17.69"
       y1="-6.28"
       x2="42.57"
       y2="61.71"
       gradientUnits="userSpaceOnUse" />
  </defs>
  <path
     d="M 23.71,0.5 C 17.88,0.5 13.2,1.6 9.78,3.82 5.68,6.48 3.5,10.73 3.5,16.1 c 0,7.22 5.8,16.88 7.58,19.67 a 54.47,54.47 0 0 0 6.25,8.16 c 2.54,2.64 4.57,3.87 6.37,3.87 1.8,0 3.83,-1.23 6.37,-3.87 2,-2.08 4.22,-4.98 6.25,-8.16 C 38.1,32.98 43.91,23.32 43.91,16.1 43.91,10.73 41.74,6.48 37.64,3.83 34.23,1.6 29.55,0.49 23.7,0.49 Z"
     id="path18"
     style="fill:url(#c)"
     inkscape:connector-curvature="0" />
  <path
     d="M 23.71,0.5 C 17.88,0.5 13.2,1.6 9.78,3.82 5.68,6.48 3.5,10.73 3.5,16.1 c 0,7.22 5.8,16.88 7.58,19.67 a 54.47,54.47 0 0 0 6.25,8.16 c 2.54,2.64 4.57,3.87 6.37,3.87 1.8,0 3.83,-1.23 6.37,-3.87 2,-2.08 4.22,-4.98 6.25,-8.16 C 38.1,32.98 43.91,23.32 43.91,16.1 43.91,10.73 41.74,6.48 37.64,3.83 34.23,1.6 29.55,0.49 23.7,0.49 Z m 0,0.14 c 2.12,0.08 4.12,0.27 5.88,0.69 1.16,0.28 2.25,0.63 3.26,1.04 1.01,0.42 1.95,0.9 2.8,1.46 a 12.92,12.92 0 0 1 4.67,5.12 c 0.53,1.03 0.93,2.14 1.2,3.34 0.26,1.2 0.4,2.47 0.4,3.8 0,1.81 -0.37,3.77 -0.94,5.74 a 43.18,43.18 0 0 1 -2.19,5.77 69.59,69.59 0 0 1 -4.46,8.17 54.47,54.47 0 0 1 -6.25,8.16 17.98,17.98 0 0 1 -3.46,2.93 c -0.32,0.2 -0.62,0.3 -0.9,0.39 -0.3,-0.09 -0.6,-0.2 -0.92,-0.4 a 17.62,17.62 0 0 1 -3.46,-2.92 c -2,-2.08 -4.21,-4.98 -6.25,-8.16 A 69.6,69.6 0 0 1 8.63,27.6 43.2,43.2 0 0 1 6.44,21.83 20.93,20.93 0 0 1 5.51,16.1 c 0,-1.34 0.13,-2.62 0.4,-3.81 0.27,-1.2 0.67,-2.31 1.2,-3.34 a 13.06,13.06 0 0 1 4.67,-5.12 17.1,17.1 0 0 1 2.8,-1.46 c 1,-0.41 2.1,-0.76 3.26,-1.04 1.75,-0.42 3.76,-0.6 5.87,-0.7 z"
     id="path20"
     inkscape:connector-curvature="0"
     style="opacity:0.25;fill:#1a1a1a" />
  <path
     d="m 27.7,45.9 c 0.76,-0.57 1.5,-1.08 2.36,-1.98 2,-2.08 4.22,-4.98 6.25,-8.16 0.9,-1.4 2.79,-4.5 4.46,-8.17 0.84,-1.84 1.62,-3.8 2.2,-5.77 0.46,-1.6 0.65,-3.16 0.76,-4.68 L 34.35,7.76 30.4,6.14 l -7.83,0.2 -6.96,3.83 -2.67,3.66 -1.34,4.1 0.18,5.27 1.07,5.53 3.3,5.62 z"
     id="path22"
     style="opacity:0.54000005;fill:url(#d)"
     inkscape:connector-curvature="0" />
  <path
     d="m 26.28,4.21 c -0.31,0.06 -0.7,0.03 -1.05,0.08 z m -1.05,0.08 -0.54,0.03 0.23,0.04 c 0.1,-0.04 0.2,-0.06 0.31,-0.07 z m -1.3,0.15 c -0.86,0.04 -2.07,0.53 -1.7,0.11 -1.4,0.6 -3.92,1.51 -5.36,2.83 V 7.08 C 16.19,7.84 14,9.43 13.85,10.41 l -0.2,0.07 c -0.33,0.57 -0.52,1.21 -0.82,1.78 -0.42,0.76 -0.65,0.3 -0.57,0.42 -0.87,1.77 -1.29,3.25 -1.66,4.46 0.26,0.37 0,2.38 0.1,3.96 a 17.76,17.76 0 0 0 12.03,17.31 c 0.98,0.34 2.38,0.3 3.59,0.38 -1.44,-0.41 -1.59,-0.22 -3.03,-0.75 -0.98,-0.46 -1.2,-0.99 -1.89,-1.6 l 0.27,0.5 c -1.4,-0.49 -0.8,-0.6 -1.93,-0.98 l 0.3,-0.38 c -0.45,0 -1.2,-0.76 -1.4,-1.13 h -0.49 c -0.6,-0.76 -0.9,-1.25 -0.9,-1.67 l -0.15,0.27 c -0.2,-0.3 -2.2,-2.72 -1.14,-2.16 -0.19,-0.19 -0.45,-0.3 -0.75,-0.79 l 0.22,-0.26 c -0.49,-0.65 -0.9,-1.48 -0.87,-1.74 0.27,0.37 0.46,0.41 0.6,0.49 -1.24,-3.14 -1.32,-0.15 -2.26,-3.18 h 0.19 l -0.38,-0.75 0.12,-0.87 c -0.91,-1.06 -0.27,-4.46 -0.16,-6.35 0.12,-0.76 0.76,-1.59 1.29,-2.84 l -0.3,-0.07 c 0.56,-1.02 3.4,-4.16 4.65,-3.97 0.64,-0.76 -0.12,0 -0.23,-0.19 1.36,-1.44 1.78,-1.02 2.72,-1.28 0.98,-0.57 -0.87,0.26 -0.38,-0.23 1.7,-0.42 1.21,-0.98 3.48,-1.21 0.1,0.07 -0.03,0.13 -0.21,0.18 1.57,-0.44 4.22,-0.23 6.03,0.57 2.34,1.14 4.99,4.35 5.06,7.41 h 0.12 c -0.04,1.25 0.19,2.65 -0.23,3.93 l 0.3,-0.6 c 0,0.9 -0.26,1.36 -0.56,2.15 l -0.5,0.27 c -0.37,0.75 0.04,0.49 -0.22,1.13 -0.65,0.57 -1.93,1.74 -2.34,1.9 -0.3,-0.05 0.18,-0.39 0.26,-0.54 -0.83,0.57 -0.68,0.87 -1.97,1.25 l -0.03,-0.11 c -3.22,1.5 -7.64,-1.48 -7.56,-5.52 -0.08,0.26 -0.12,0.19 -0.2,0.3 a 5.12,5.12 0 0 1 2.88,-5.06 4.83,4.83 0 0 1 5.37,0.71 c -0.72,-0.98 -2.2,-2 -3.9,-1.89 -1.7,0 -3.28,1.1 -3.81,2.27 -0.87,0.53 -0.99,2.12 -1.36,2.38 -0.5,3.78 0.94,5.37 3.44,7.26 0.19,0.15 0.22,0.23 0.22,0.3 2.91,1.1 5.94,0.83 8.47,-1.2 0.64,-0.5 1.36,-1.37 1.55,-1.37 -0.3,0.46 0.07,0.23 -0.2,0.6 0.65,-1.01 -0.26,-0.37 0.69,-1.77 l 0.38,0.5 c -0.15,-0.88 1.02,-1.9 0.9,-3.3 0.27,-0.37 0.3,0.46 0,1.4 0.42,-1.06 0.12,-1.2 0.23,-2.08 l 0.34,0.91 c -0.26,-1.02 0.27,-1.74 0.38,-2.3 -0.11,-0.08 -0.38,0.45 -0.45,-0.76 0,-0.53 0.15,-0.3 0.19,-0.42 a 2.52,2.52 0 0 1 -0.53,-1.24 c 0.11,-0.2 0.34,0.49 0.49,0.49 -0.12,-0.6 -0.3,-1.06 -0.3,-1.55 -0.46,-0.99 -0.16,0.15 -0.53,-0.42 -0.53,-1.59 0.37,-0.38 0.45,-1.1 0.76,1.14 1.2,2.84 1.4,3.56 -0.15,-0.87 -0.38,-1.7 -0.68,-2.53 0.23,0.1 -0.38,-1.78 0.3,-0.53 -0.76,-2.65 -3.1,-5.14 -5.3,-6.31 0.27,0.22 0.61,0.53 0.5,0.6 -1.1,-0.68 -0.9,-0.72 -1.06,-0.98 -0.87,-0.38 -0.94,0 -1.51,0 -1.66,-0.91 -2,-0.8 -3.52,-1.36 l 0.04,0.34 c -1.1,-0.38 -1.28,0.15 -2.45,0 C 24.39,5.04 24.84,4.92 25.22,4.85 24.16,5 24.2,4.66 23.14,4.89 Z m 1.3,0.41 h 0.18 V 4.81 Z m 0.18,-0.04 c 0.38,-0.07 0.42,-0.15 -0.6,-0.19 0.3,0.08 0.68,0.12 0.6,0.2 z M 23.67,7.84 C 23.47,7.9 23.24,7.95 23.14,8.03 23.3,7.95 23.48,7.89 23.67,7.84 Z m -12.36,3.78 c 0.12,0.8 -0.6,1.13 0.2,0.57 0.37,-0.95 -0.2,-0.23 -0.2,-0.57 z m -0.6,2.6 c -0.53,0.65 -0.23,0.76 -0.3,1.22 0.18,-0.57 0.22,-0.91 0.3,-1.21 z m 20.4,3.82 c -0.07,0 -0.14,0.2 -0.22,0.38 0.11,0.08 0.19,0.76 0.3,0.3 0.04,-0.49 0,-0.68 -0.07,-0.68 z m 6.28,1.74 -0.11,0.23 a 10.2,10.2 0 0 1 -0.86,2.92 c 0.5,-0.99 0.83,-2.07 0.97,-3.15 z m -6.65,0.38 c -0.08,0.38 -0.27,0.76 -0.5,1.06 -1.05,0.68 -0.07,-0.38 0,-0.8 -1.13,1.44 -0.14,0.87 -0.18,1.29 0.38,-0.5 0.6,-0.98 0.68,-1.51 z m -2.34,2.23 c -0.46,0.11 -0.95,0.11 -1.4,0.07 -0.57,0 0.11,0.3 0.83,0.38 z m -7.22,0.07 c 0.11,0.46 0.38,0.87 0.64,1.29 l -0.19,-0.53 c -0.23,-0.23 -0.34,-0.5 -0.45,-0.76 z m -0.46,0.76 -0.07,0.42 c 0.38,0.53 0.68,1.1 1.13,1.5 -0.3,-0.71 -0.56,-0.97 -1.06,-1.88 z m 0.72,0.64 c 0.02,0 0.04,0.03 0.06,0.04 l -0.02,-0.04 z m 0.06,0.04 c 1.34,2.36 5.4,4.12 7.54,3.25 a 9.9,9.9 0 0 1 -3.4,-0.38 c -0.38,-0.22 -0.98,-0.68 -0.98,-0.83 v 0.23 a 6.88,6.88 0 0 1 -2.23,-1.7 c 0.34,0.49 0.67,0.94 1.13,1.32 -0.72,-0.25 -1.7,-1.71 -2.06,-1.9 z"
     id="path24"
     inkscape:connector-curvature="0"
     style="fill:#550044" />
</svg>
