<?xml version="1.0" encoding="UTF-8" standalone="no"?>
<svg
   xmlns:dc="http://purl.org/dc/elements/1.1/"
   xmlns:cc="http://creativecommons.org/ns#"
   xmlns:rdf="http://www.w3.org/1999/02/22-rdf-syntax-ns#"
   xmlns:svg="http://www.w3.org/2000/svg"
   xmlns="http://www.w3.org/2000/svg"
   xmlns:xlink="http://www.w3.org/1999/xlink"
   xmlns:sodipodi="http://sodipodi.sourceforge.net/DTD/sodipodi-0.dtd"
   xmlns:inkscape="http://www.inkscape.org/namespaces/inkscape"
   viewBox="0 0 48 48"
   version="1.1"
   id="svg24"
   sodipodi:docname="distributor-logo-linux-mint.svg"
   inkscape:version="0.92.4 (5da689c313, 2019-01-14)">
  <metadata
     id="metadata28">
    <rdf:RDF>
      <cc:Work
         rdf:about="">
        <dc:format>image/svg+xml</dc:format>
        <dc:type
           rdf:resource="http://purl.org/dc/dcmitype/StillImage" />
        <dc:title></dc:title>
      </cc:Work>
    </rdf:RDF>
  </metadata>
  <sodipodi:namedview
     pagecolor="#ffffff"
     bordercolor="#666666"
     borderopacity="1"
     objecttolerance="10"
     gridtolerance="10"
     guidetolerance="10"
     inkscape:pageopacity="0"
     inkscape:pageshadow="2"
     inkscape:window-width="1112"
     inkscape:window-height="480"
     id="namedview26"
     showgrid="false"
     inkscape:zoom="4.9166667"
     inkscape:cx="2.1355932"
     inkscape:cy="24"
     inkscape:window-x="0"
     inkscape:window-y="25"
     inkscape:window-maximized="0"
     inkscape:current-layer="svg24" />
  <defs
     id="defs14">
    <linearGradient
       id="b">
      <stop
         offset="0"
         stop-color="#c6e9af"
         id="stop2" />
      <stop
         offset="1"
         stop-color="#dbe3db"
         id="stop4" />
    </linearGradient>
    <linearGradient
       xlink:href="#a"
       id="d"
       gradientUnits="userSpaceOnUse"
       x1="-1.25"
       y1="5.59"
       x2="50.9"
       y2="34.05" />
    <linearGradient
       id="a">
      <stop
         offset="0"
         id="stop8" />
      <stop
         offset="1"
         stop-opacity="0"
         id="stop10" />
    </linearGradient>
    <linearGradient
       xlink:href="#b"
       id="c"
       x1="1.44"
       y1="7.72"
       x2="43.9"
       y2="24.14"
       gradientUnits="userSpaceOnUse" />
  </defs>
  <path
     d="m 23.7,0.49 c -5.83,0 -10.51,1.1 -13.93,3.32 -4.1,2.66 -6.28,6.91 -6.28,12.28 0,7.22 5.8,16.88 7.58,19.67 a 54.47,54.47 0 0 0 6.25,8.16 c 2.54,2.64 4.57,3.87 6.37,3.87 1.8,0 3.83,-1.23 6.37,-3.87 2,-2.08 4.22,-4.98 6.25,-8.16 C 38.09,32.97 43.9,23.31 43.9,16.09 43.9,10.72 41.73,6.47 37.63,3.82 34.22,1.59 29.54,0.48 23.69,0.48 Z"
     id="path16"
     style="fill:url(#c)"
     inkscape:connector-curvature="0" />
  <path
     d="m 28.29,45.42 c 0.58,-0.5 1.12,-0.82 1.77,-1.5 2,-2.08 4.22,-4.98 6.25,-8.16 0.89,-1.4 2.79,-4.5 4.46,-8.17 0.8,-1.73 1.5,-3.6 2.07,-5.45 l -8.5,-8.49 -2.85,-0.36 -4.19,1.61 -3.57,-2.05 -2.28,1.39 -6.57,-6.58 -1.68,1.8 0.27,21.14 z"
     id="path18"
     style="opacity:0.3800001;fill:url(#d)"
     inkscape:connector-curvature="0" />
  <path
     d="M 23.71,0.5 C 17.88,0.5 13.2,1.6 9.78,3.82 5.68,6.48 3.5,10.73 3.5,16.1 c 0,7.22 5.8,16.88 7.58,19.67 a 54.47,54.47 0 0 0 6.25,8.16 c 2.54,2.64 4.57,3.87 6.37,3.87 1.8,0 3.83,-1.23 6.37,-3.87 2,-2.08 4.22,-4.98 6.25,-8.16 C 38.1,32.98 43.91,23.32 43.91,16.1 43.91,10.73 41.74,6.48 37.64,3.83 34.23,1.6 29.55,0.49 23.7,0.49 Z m 0,0.14 c 2.12,0.08 4.12,0.27 5.88,0.69 1.16,0.28 2.25,0.63 3.26,1.04 1.01,0.42 1.95,0.9 2.8,1.46 a 12.92,12.92 0 0 1 4.67,5.12 c 0.53,1.03 0.93,2.14 1.2,3.34 0.26,1.2 0.4,2.47 0.4,3.8 0,1.81 -0.37,3.77 -0.94,5.74 a 43.18,43.18 0 0 1 -2.19,5.77 69.59,69.59 0 0 1 -4.46,8.17 54.47,54.47 0 0 1 -6.25,8.16 17.98,17.98 0 0 1 -3.46,2.93 c -0.32,0.2 -0.62,0.3 -0.9,0.39 -0.3,-0.09 -0.6,-0.2 -0.92,-0.4 a 17.62,17.62 0 0 1 -3.46,-2.92 c -2,-2.08 -4.21,-4.98 -6.25,-8.16 A 69.6,69.6 0 0 1 8.63,27.6 43.2,43.2 0 0 1 6.44,21.83 20.93,20.93 0 0 1 5.51,16.1 c 0,-1.34 0.13,-2.62 0.4,-3.81 0.27,-1.2 0.67,-2.31 1.2,-3.34 a 13.06,13.06 0 0 1 4.67,-5.12 17.1,17.1 0 0 1 2.8,-1.46 c 1,-0.41 2.1,-0.76 3.26,-1.04 1.75,-0.42 3.76,-0.6 5.87,-0.7 z"
     id="path20"
     inkscape:connector-curvature="0"
     style="opacity:0.25;fill:#1a1a1a" />
  <path
     d="m 12.09,7.66 h 2.79 v 19.28 a 2.8,2.8 0 0 0 2.78,2.8 h 12.38 a 2.79,2.79 0 0 0 2.78,-2.8 v -10.3 a 2.1,2.1 0 0 0 -2.06,-2.07 c -1.17,0 -2.12,1 -2.12,2.06 v 8.3 h -2.78 v -8.35 c 0,-1.12 -0.9,-2.06 -2.01,-2.06 -1.12,0 -2.06,1 -2.06,2.06 v 8.3 H 19 v -8.3 c 0,-2.62 2.17,-4.8 4.85,-4.8 1.34,0 2.56,0.56 3.45,1.51 a 4.63,4.63 0 0 1 3.46,-1.5 c 2.62,0 4.8,2.22 4.8,4.79 v 10.36 a 5.54,5.54 0 0 1 -5.52,5.58 H 17.6 a 5.52,5.52 0 0 1 -5.52,-5.58 z"
     id="path22"
     inkscape:connector-curvature="0"
     style="fill:#217821" />
</svg>
