<?xml version="1.0" encoding="UTF-8" standalone="no"?>
<svg
   xmlns:dc="http://purl.org/dc/elements/1.1/"
   xmlns:cc="http://creativecommons.org/ns#"
   xmlns:rdf="http://www.w3.org/1999/02/22-rdf-syntax-ns#"
   xmlns:svg="http://www.w3.org/2000/svg"
   xmlns="http://www.w3.org/2000/svg"
   xmlns:xlink="http://www.w3.org/1999/xlink"
   xmlns:sodipodi="http://sodipodi.sourceforge.net/DTD/sodipodi-0.dtd"
   xmlns:inkscape="http://www.inkscape.org/namespaces/inkscape"
   width="48"
   height="48"
   version="1"
   id="svg46"
   sodipodi:docname="dotpeek.svg"
   inkscape:version="0.92.4 (5da689c313, 2019-01-14)">
  <metadata
     id="metadata50">
    <rdf:RDF>
      <cc:Work
         rdf:about="">
        <dc:format>image/svg+xml</dc:format>
        <dc:type
           rdf:resource="http://purl.org/dc/dcmitype/StillImage" />
        <dc:title></dc:title>
      </cc:Work>
    </rdf:RDF>
  </metadata>
  <sodipodi:namedview
     pagecolor="#ffffff"
     bordercolor="#666666"
     borderopacity="1"
     objecttolerance="10"
     gridtolerance="10"
     guidetolerance="10"
     inkscape:pageopacity="0"
     inkscape:pageshadow="2"
     inkscape:window-width="1112"
     inkscape:window-height="480"
     id="namedview48"
     showgrid="false"
     inkscape:zoom="4.9166667"
     inkscape:cx="2.1355932"
     inkscape:cy="24"
     inkscape:window-x="0"
     inkscape:window-y="25"
     inkscape:window-maximized="0"
     inkscape:current-layer="svg46" />
  <defs
     id="defs20">
    <linearGradient
       id="b">
      <stop
         offset="0"
         stop-color="#14ddb1"
         id="stop2" />
      <stop
         offset="1"
         stop-color="#fff"
         id="stop4" />
    </linearGradient>
    <linearGradient
       xlink:href="#a"
       id="e"
       gradientUnits="userSpaceOnUse"
       x1="2.76"
       y1="4.02"
       x2="53.62"
       y2="43.36" />
    <linearGradient
       id="a">
      <stop
         offset="0"
         stop-color="#040000"
         id="stop8" />
      <stop
         offset="1"
         stop-opacity="0"
         id="stop10" />
    </linearGradient>
    <linearGradient
       xlink:href="#b"
       id="d"
       x1="3.8"
       y1="24"
       x2="44.21"
       y2="24"
       gradientUnits="userSpaceOnUse" />
    <linearGradient
       xlink:href="#c"
       id="f"
       x1="12"
       y1="8"
       x2="12"
       y2="32"
       gradientUnits="userSpaceOnUse"
       gradientTransform="matrix(1,0,0,-1,0,40)" />
    <linearGradient
       id="c">
      <stop
         offset="0"
         stop-color="#333"
         id="stop15" />
      <stop
         offset="1"
         stop-color="gray"
         id="stop17" />
    </linearGradient>
  </defs>
  <path
     d="m 24,0.35 c -5.83,0 -10.52,1.12 -13.93,3.33 -4.1,2.65 -6.27,6.9 -6.27,12.27 0,7.23 5.8,16.89 7.58,19.67 a 54.47,54.47 0 0 0 6.25,8.16 c 2.54,2.64 4.57,3.87 6.37,3.87 1.8,0 3.83,-1.23 6.37,-3.87 2,-2.08 4.22,-4.97 6.25,-8.16 1.78,-2.78 7.59,-12.44 7.59,-19.67 0,-5.37 -2.17,-9.61 -6.27,-12.27 C 34.52,1.47 29.84,0.35 24,0.35 Z"
     id="path22"
     style="fill:url(#d)"
     inkscape:connector-curvature="0" />
  <path
     d="m 8.71,4.66 c -0.4,0.35 -0.8,0.71 -1.15,1.1 -0.78,0.86 -1.48,1.7 -2,2.73 a 12.5,12.5 0 0 0 -1.23,3.12 18.2,18.2 0 0 0 -0.53,3.9 c 0,1.8 0.28,3.84 0.85,5.8 a 42,42 0 0 0 2.1,5.72 47.66,47.66 0 0 0 3.37,6.51 L 24,19.9 Z"
     id="path24"
     inkscape:connector-curvature="0"
     style="fill:#cf4f8c" />
  <path
     d="m 37.88,33.58 a 56.18,56.18 0 0 0 5.39,-11.9 21,21 0 0 0 0.93,-5.73 c 0,-1.34 -0.13,-2.62 -0.4,-3.81 A 14.09,14.09 0 0 0 42.6,8.8 12.9,12.9 0 0 0 39.3,4.68 L 24,19.9 Z"
     id="path26"
     inkscape:connector-curvature="0"
     style="fill:#6655e4" />
  <path
     d="m 3.92,14.74 c -0.02,0.4 -0.12,0.78 -0.12,1.2 0,7.24 5.8,16.9 7.58,19.68 a 54.47,54.47 0 0 0 6.25,8.16 c 2.54,2.64 4.57,3.87 6.37,3.87 1.8,0 3.83,-1.23 6.37,-3.87 2,-2.08 4.22,-4.97 6.25,-8.16 1.78,-2.78 7.59,-12.44 7.59,-19.67 0,-0.43 -0.1,-0.8 -0.14,-1.21 -0.08,1.59 -0.3,3.24 -0.8,4.94 a 43.17,43.17 0 0 1 -2.19,5.77 69.67,69.67 0 0 1 -4.46,8.17 54.47,54.47 0 0 1 -6.25,8.16 18,18 0 0 1 -3.46,2.93 c -1.05,0.64 -2,0.94 -2.9,0.94 -0.91,0 -1.87,-0.3 -2.92,-0.94 a 18,18 0 0 1 -3.46,-2.93 c -2,-2.08 -4.21,-4.97 -6.25,-8.16 A 69.4,69.4 0 0 1 6.92,25.45 43.04,43.04 0 0 1 4.73,19.68 c -0.5,-1.7 -0.72,-3.35 -0.8,-4.94 z"
     id="path28"
     inkscape:connector-curvature="0"
     style="opacity:0.5" />
  <path
     d="m 26.76,46.76 c 0.05,-0.03 0.1,-0.02 0.15,-0.05 1.05,-0.64 2.2,-1.6 3.46,-2.93 2,-2.08 4.22,-4.97 6.25,-8.16 a 69.4,69.4 0 0 0 4.46,-8.17 c 0.84,-1.83 1.62,-3.8 2.19,-5.77 0.55,-1.89 0.87,-3.76 0.9,-5.51 L 36,8 12,32 Z"
     id="path30"
     style="opacity:0.5;fill:url(#e)"
     inkscape:connector-curvature="0" />
  <path
     d="M 12,32 V 8 h 24 v 24 z"
     id="path32"
     style="fill:url(#f)"
     inkscape:connector-curvature="0" />
  <rect
     width="7.8899999"
     height="1.53"
     x="15.44"
     y="23.84"
     rx="0"
     ry="0"
     id="rect34"
     style="fill:#1a1a1a" />
  <rect
     width="7.8899999"
     height="1.53"
     x="14.68"
     y="23.08"
     rx="0"
     ry="0"
     id="rect36"
     style="fill:#ffffff" />
  <path
     d="M 12,8 H 36 V 8.93 H 12 Z"
     id="path38"
     inkscape:connector-curvature="0"
     style="fill:#cccccc" />
  <path
     d="M 12,31.07 H 36 V 32 H 12 Z"
     id="path40"
     inkscape:connector-curvature="0"
     style="fill:#1a1a1a" />
  <path
     style="font-weight:400;font-size:12.03999996px;line-height:1.25;font-family:squealer;-inkscape-font-specification:squealer;letter-spacing:0;word-spacing:0;fill:#1a1a1a"
     d="m 15.479,11.543 -1.252,1.252 0.685,0.662 v 6.248 l -0.674,0.662 1.24,1.252 h 2.096 l 1.83,-1.83 v -6.393 l -1.855,-1.853 z m 5.574,0 -1.254,1.252 0.687,0.662 v 6.104 l -0.627,0.638 1.397,1.42 1.422,-1.42 -0.627,-0.638 V 17.756 L 24.93,14.889 V 13.3 l -1.784,-1.758 z m 0.914,1.143 1.564,1.54 -1.564,1.544 z m -5.488,0.277 1.359,1.373 v 4.539 l -1.36,1.373 z"
     font-weight="400"
     font-size="12.04"
     letter-spacing="0"
     word-spacing="0"
     id="path42"
     inkscape:connector-curvature="0" />
  <path
     style="font-weight:400;font-size:12.03999996px;line-height:1.25;font-family:squealer;-inkscape-font-specification:squealer;letter-spacing:0;word-spacing:0;fill:#ffffff"
     d="m 15.19,10.713 -1.254,1.252 0.687,0.662 v 6.248 l -0.674,0.662 1.24,1.252 h 2.094 l 1.83,-1.83 V 12.566 L 17.26,10.713 Z m 5.572,0 -1.252,1.252 0.685,0.662 v 6.103 l -0.625,0.64 1.397,1.42 1.42,-1.42 -0.625,-0.64 v -1.804 l 2.877,-2.865 v -1.59 l -1.782,-1.758 z m 0.916,1.142 1.564,1.541 -1.564,1.543 z m -5.49,0.278 1.36,1.373 v 4.539 l -1.36,1.373 z"
     font-weight="400"
     font-size="12.04"
     letter-spacing="0"
     word-spacing="0"
     id="path44"
     inkscape:connector-curvature="0" />
</svg>
