<svg xmlns="http://www.w3.org/2000/svg" xmlns:xlink="http://www.w3.org/1999/xlink" width="48" height="48"><defs><linearGradient id="e"><stop offset="0"/><stop offset="1" stop-opacity="0"/></linearGradient><linearGradient id="d"><stop offset="0" stop-color="#d5f6ff"/><stop offset="1" stop-color="#214478"/></linearGradient><linearGradient id="a"><stop offset="0" stop-color="#afc6e9"/><stop offset="1" stop-color="#afe9c6" stop-opacity=".06"/></linearGradient><linearGradient id="c"><stop offset="0" stop-color="#afc6e9"/><stop offset="1" stop-color="#214478"/></linearGradient><linearGradient xlink:href="#a" id="g" x1="4.3" y1="-.15" x2="4.3" y2="15.84" gradientUnits="userSpaceOnUse" gradientTransform="translate(1.22 .52) scale(.94874)"/><linearGradient xlink:href="#c" id="b" gradientUnits="userSpaceOnUse" gradientTransform="translate(60)" x1="24.86" y1=".43" x2="8.39" y2="43.59"/><radialGradient xlink:href="#d" id="f" cx="49.08" cy="24.33" fx="49.08" fy="24.33" r="20.2" gradientTransform="matrix(1 0 0 1.16394 -20 -3.91)" gradientUnits="userSpaceOnUse"/><linearGradient xlink:href="#e" id="h" gradientUnits="userSpaceOnUse" x1="15.54" y1="20.59" x2="47.93" y2="33.11"/></defs><path d="M24 .35c-5.83 0-10.52.95-13.93 2.84C5.97 5.45 3.8 9.07 3.8 13.64c0 6.17 5.8 14.4 7.58 16.77a48.13 48.13 0 0 0 6.25 6.96c2.54 2.25 4.57 3.3 6.37 3.3.27 0 .58.08.86.03v6.67c1.6-.31 3.35-1.34 5.5-3.6 2-2.07 4.23-4.96 6.26-8.15 1.78-2.8 7.58-12.44 7.58-19.67 0-5.37-2.16-9.61-6.26-12.27C34.7 1.59 30.26.56 24.86.44V.43c-.31 0-.54-.08-.86-.08z" fill="url(#f)"/><path d="M42.31 10.75c-.2-.64-.37-1.3-.67-1.88A12.25 12.25 0 0 0 37.21 4c-.76-.5-1.6-.93-2.5-1.3a20.4 20.4 0 0 0-2.93-.94c-2.08-.5-4.41-.78-6.97-.83V.92c-.3 0-.52-.07-.82-.07-2.77 0-5.26.23-7.47.68-2.2.45-4.13 1.12-5.75 2.01C9.8 4.08 8.94 4.7 8.2 5.4a10.33 10.33 0 0 0-2.9 4.77 18.6 9.78 0 0 0 18.56 9.22 18.6 9.78 0 0 0 18.45-8.63z" opacity=".6" fill="url(#g)"/><path d="M31.94 41.73a53.76 53.76 0 0 0 4.68-6.11 69.6 69.6 0 0 0 4.46-8.17c.42-.94.74-1.96 1.12-2.95L24.5 6.8l-1.45 18.21 4.17 5.04-3.72 3.25z" fill="url(#h)" opacity=".5"/><path d="M22.45 6.05a3.31 3.31 0 0 1 .53 0 2.19 2.19 0 0 1 1.99 2.39c0 5.5.53 10.87.66 16.24l-2.58.33c-1.2-5.5-1.6-11.07-2.72-16.7v-.4c0-.93 1-1.8 2.12-1.86zm2.39 23h.6c.66 0 1.38.4 1.78 1 .93 1.26.33 3.18-1 3.7-1.45.67-3.37-.39-3.5-1.98a2.52 2.52 0 0 1 .72-2.05c.4-.47.87-.67 1.4-.67z" stroke-width=".57" fill="#fff"/></svg>