<?xml version="1.0" encoding="UTF-8" standalone="no"?>
<svg
   xmlns:dc="http://purl.org/dc/elements/1.1/"
   xmlns:cc="http://creativecommons.org/ns#"
   xmlns:rdf="http://www.w3.org/1999/02/22-rdf-syntax-ns#"
   xmlns:svg="http://www.w3.org/2000/svg"
   xmlns="http://www.w3.org/2000/svg"
   xmlns:xlink="http://www.w3.org/1999/xlink"
   xmlns:sodipodi="http://sodipodi.sourceforge.net/DTD/sodipodi-0.dtd"
   xmlns:inkscape="http://www.inkscape.org/namespaces/inkscape"
   width="48"
   height="48"
   viewBox="0 0 12.7 12.7"
   version="1.1"
   id="svg30"
   sodipodi:docname="filezilla.svg"
   inkscape:version="0.92.4 (5da689c313, 2019-01-14)">
  <metadata
     id="metadata34">
    <rdf:RDF>
      <cc:Work
         rdf:about="">
        <dc:format>image/svg+xml</dc:format>
        <dc:type
           rdf:resource="http://purl.org/dc/dcmitype/StillImage" />
        <dc:title></dc:title>
      </cc:Work>
    </rdf:RDF>
  </metadata>
  <sodipodi:namedview
     pagecolor="#ffffff"
     bordercolor="#666666"
     borderopacity="1"
     objecttolerance="10"
     gridtolerance="10"
     guidetolerance="10"
     inkscape:pageopacity="0"
     inkscape:pageshadow="2"
     inkscape:window-width="1112"
     inkscape:window-height="480"
     id="namedview32"
     showgrid="false"
     inkscape:zoom="4.9166667"
     inkscape:cx="2.1355932"
     inkscape:cy="24"
     inkscape:window-x="0"
     inkscape:window-y="25"
     inkscape:window-maximized="0"
     inkscape:current-layer="svg30" />
  <defs
     id="defs22">
    <linearGradient
       id="c">
      <stop
         offset="0"
         stop-color="#e6e6e6"
         id="stop2" />
      <stop
         offset="1"
         stop-color="#fff"
         id="stop4" />
    </linearGradient>
    <linearGradient
       id="b">
      <stop
         offset="0"
         stop-color="#f55"
         id="stop7" />
      <stop
         offset=".44"
         stop-color="#ff2a2a"
         id="stop9" />
      <stop
         offset="1"
         stop-color="#782121"
         id="stop11" />
    </linearGradient>
    <linearGradient
       id="a">
      <stop
         offset="0"
         id="stop14" />
      <stop
         offset="1"
         stop-opacity="0"
         id="stop16" />
    </linearGradient>
    <linearGradient
       xlink:href="#a"
       id="e"
       gradientUnits="userSpaceOnUse"
       x1="2.6"
       y1="286.42"
       x2="11.77"
       y2="294.86"
       gradientTransform="translate(0,-284.3)" />
    <linearGradient
       xlink:href="#b"
       id="d"
       x1="8.93"
       y1="294.46"
       x2=".79"
       y2="284.65"
       gradientUnits="userSpaceOnUse"
       gradientTransform="translate(0,-284.3)" />
    <linearGradient
       xlink:href="#c"
       id="f"
       x1="6.45"
       y1="284.5"
       x2="6.41"
       y2="293.12"
       gradientUnits="userSpaceOnUse"
       gradientTransform="translate(0,-284.3)" />
  </defs>
  <path
     d="M 5.67,0.16 A 7.9,7.9 0 0 0 3.79,0.46 0.68,0.67 0 0 1 3.82,0.49 0.68,0.67 0 0 1 3.87,0.54 0.68,0.67 0 0 1 3.91,0.59 0.68,0.67 0 0 1 3.95,0.65 0.68,0.67 0 0 1 3.98,0.71 0.68,0.67 0 0 1 4,0.77 a 0.68,0.67 0 0 1 0.02,0.07 0.68,0.67 0 0 1 0,0.07 0.68,0.67 0 0 1 0.01,0.06 0.68,0.67 0 0 1 0,0.05 0.68,0.67 0 0 1 0,0.07 A 0.68,0.67 0 0 1 4.01,1.15 0.68,0.67 0 0 1 3.99,1.22 0.68,0.67 0 0 1 3.96,1.28 0.68,0.67 0 0 1 3.92,1.34 0.68,0.67 0 0 1 3.88,1.39 0.68,0.67 0 0 1 3.84,1.44 0.68,0.67 0 0 1 3.79,1.49 0.68,0.67 0 0 1 3.73,1.53 0.68,0.67 0 0 1 3.68,1.56 0.68,0.67 0 0 1 3.61,1.59 0.68,0.67 0 0 1 3.55,1.61 0.68,0.67 0 0 1 3.48,1.63 0.68,0.67 0 0 1 3.42,1.64 a 0.68,0.67 0 0 1 -0.07,0 0.68,0.67 0 0 1 -0.05,0 0.68,0.67 0 0 1 -0.07,0 A 0.68,0.67 0 0 1 3.16,1.62 0.68,0.67 0 0 1 3.1,1.6 0.68,0.67 0 0 1 3.04,1.57 0.68,0.67 0 0 1 2.98,1.54 0.68,0.67 0 0 1 2.92,1.5 0.68,0.67 0 0 1 2.87,1.46 0.68,0.67 0 0 1 2.82,1.41 0.68,0.67 0 0 1 2.78,1.35 0.68,0.67 0 0 1 2.75,1.3 0.68,0.67 0 0 1 2.72,1.23 0.68,0.67 0 0 1 2.69,1.17 0.68,0.67 0 0 1 2.68,1.11 0.68,0.67 0 0 1 2.67,1.04 0.68,0.67 0 0 1 2.67,0.97 C 2.13,1.32 1.73,1.77 1.45,2.3 a 0.68,0.67 0 0 1 0.05,0 0.68,0.67 0 0 1 0.07,0.02 0.68,0.67 0 0 1 0.06,0.02 0.68,0.67 0 0 1 0.07,0.03 0.68,0.67 0 0 1 0.05,0.03 0.68,0.67 0 0 1 0.06,0.04 0.68,0.67 0 0 1 0.05,0.04 0.68,0.67 0 0 1 0.05,0.05 0.68,0.67 0 0 1 0.04,0.06 0.68,0.67 0 0 1 0.04,0.05 0.68,0.67 0 0 1 0.02,0.06 0.68,0.67 0 0 1 0.03,0.07 0.68,0.67 0 0 1 0.02,0.06 0.68,0.67 0 0 1 0,0.07 0.68,0.67 0 0 1 0,0.07 0.68,0.67 0 0 1 0,0.04 0.68,0.67 0 0 1 0,0.07 A 0.68,0.67 0 0 1 2.04,3.15 0.68,0.67 0 0 1 2.02,3.21 0.68,0.67 0 0 1 1.99,3.27 0.68,0.67 0 0 1 1.96,3.33 0.68,0.67 0 0 1 1.92,3.38 0.68,0.67 0 0 1 1.88,3.43 0.68,0.67 0 0 1 1.83,3.48 0.68,0.67 0 0 1 1.77,3.52 0.68,0.67 0 0 1 1.71,3.55 0.68,0.67 0 0 1 1.65,3.58 0.68,0.67 0 0 1 1.59,3.61 0.68,0.67 0 0 1 1.52,3.62 0.68,0.67 0 0 1 1.45,3.63 a 0.68,0.67 0 0 1 -0.07,0 0.68,0.67 0 0 1 -0.04,0 0.68,0.67 0 0 1 -0.07,0 A 0.68,0.67 0 0 1 1.2,3.61 0.68,0.67 0 0 1 1.14,3.59 0.68,0.67 0 0 1 1.07,3.56 C 1.04,3.78 1,3.99 1,4.22 1,4.59 1.1,5 1.2,5.41 A 0.68,0.67 0 0 1 1.27,5.37 0.68,0.67 0 0 1 1.33,5.34 0.68,0.67 0 0 1 1.39,5.31 0.68,0.67 0 0 1 1.46,5.3 0.68,0.67 0 0 1 1.53,5.29 a 0.68,0.67 0 0 1 0.06,0 0.68,0.67 0 0 1 0.05,0 0.68,0.67 0 0 1 0.07,0 0.68,0.67 0 0 1 0.07,0.02 0.68,0.67 0 0 1 0.06,0.02 0.68,0.67 0 0 1 0.06,0.03 0.68,0.67 0 0 1 0.06,0.03 0.68,0.67 0 0 1 0.06,0.04 0.68,0.67 0 0 1 0.05,0.04 0.68,0.67 0 0 1 0.05,0.05 0.68,0.67 0 0 1 0.04,0.06 0.68,0.67 0 0 1 0.03,0.05 0.68,0.67 0 0 1 0.03,0.07 0.68,0.67 0 0 1 0.03,0.06 0.68,0.67 0 0 1 0.01,0.06 0.68,0.67 0 0 1 0.01,0.07 0.68,0.67 0 0 1 0,0.07 0.68,0.67 0 0 1 0,0.04 0.68,0.67 0 0 1 0,0.07 A 0.68,0.67 0 0 1 2.25,6.14 0.68,0.67 0 0 1 2.23,6.2 0.68,0.67 0 0 1 2.2,6.26 0.68,0.67 0 0 1 2.17,6.32 0.68,0.67 0 0 1 2.13,6.37 0.68,0.67 0 0 1 2.08,6.42 0.68,0.67 0 0 1 2.03,6.47 0.68,0.67 0 0 1 1.98,6.51 0.68,0.67 0 0 1 1.92,6.55 0.68,0.67 0 0 1 1.86,6.58 0.68,0.67 0 0 1 1.8,6.6 0.68,0.67 0 0 1 1.73,6.61 0.68,0.67 0 0 1 1.66,6.63 0.68,0.67 0 0 1 1.59,6.63 C 1.82,7.2 2,7.56 2.25,8.03 A 0.68,0.67 0 0 1 2.27,8.01 0.68,0.67 0 0 1 2.32,7.96 0.68,0.67 0 0 1 2.37,7.92 0.68,0.67 0 0 1 2.43,7.88 0.68,0.67 0 0 1 2.49,7.86 0.68,0.67 0 0 1 2.56,7.83 0.68,0.67 0 0 1 2.62,7.82 0.68,0.67 0 0 1 2.69,7.81 a 0.68,0.67 0 0 1 0.07,0 0.68,0.67 0 0 1 0.05,0 0.68,0.67 0 0 1 0.06,0 0.68,0.67 0 0 1 0.07,0.02 0.68,0.67 0 0 1 0.07,0.02 0.68,0.67 0 0 1 0.06,0.02 0.68,0.67 0 0 1 0.06,0.04 0.68,0.67 0 0 1 0.05,0.04 0.68,0.67 0 0 1 0.05,0.04 0.68,0.67 0 0 1 0.05,0.05 0.68,0.67 0 0 1 0.04,0.05 0.68,0.67 0 0 1 0.04,0.06 0.68,0.67 0 0 1 0.03,0.06 0.68,0.67 0 0 1 0.02,0.07 0.68,0.67 0 0 1 0.02,0.06 0.68,0.67 0 0 1 0,0.07 0.68,0.67 0 0 1 0.01,0.06 0.68,0.67 0 0 1 0,0.05 0.68,0.67 0 0 1 0,0.07 A 0.68,0.67 0 0 1 3.42,8.65 0.68,0.67 0 0 1 3.4,8.72 0.68,0.67 0 0 1 3.37,8.78 0.68,0.67 0 0 1 3.33,8.84 0.68,0.67 0 0 1 3.29,8.89 0.68,0.67 0 0 1 3.25,8.94 0.68,0.67 0 0 1 3.2,8.99 0.68,0.67 0 0 1 3.14,9.03 0.68,0.67 0 0 1 3.09,9.06 0.68,0.67 0 0 1 3.02,9.09 0.68,0.67 0 0 1 2.96,9.12 0.68,0.67 0 0 1 2.89,9.13 a 0.68,0.67 0 0 1 -0.03,0 l 0.15,0.3 c 0.2,0.32 0.42,0.53 0.64,0.83 a 0.68,0.67 0 0 1 0.05,-0.05 0.68,0.67 0 0 1 0.05,-0.04 0.68,0.67 0 0 1 0.06,-0.04 0.68,0.67 0 0 1 0.06,-0.03 0.68,0.67 0 0 1 0.07,-0.02 0.68,0.67 0 0 1 0.07,-0.02 0.68,0.67 0 0 1 0.06,0 0.68,0.67 0 0 1 0.07,-0.01 0.68,0.67 0 0 1 0.05,0 0.68,0.67 0 0 1 0.07,0.01 0.68,0.67 0 0 1 0.06,0.01 0.68,0.67 0 0 1 0.07,0.03 0.68,0.67 0 0 1 0.06,0.02 0.68,0.67 0 0 1 0.06,0.04 0.68,0.67 0 0 1 0.06,0.04 0.68,0.67 0 0 1 0.05,0.04 0.68,0.67 0 0 1 0.05,0.05 0.68,0.67 0 0 1 0.04,0.05 0.68,0.67 0 0 1 0.03,0.06 0.68,0.67 0 0 1 0.03,0.06 0.68,0.67 0 0 1 0.03,0.06 0.68,0.67 0 0 1 0.01,0.07 0.68,0.67 0 0 1 0.01,0.06 0.68,0.67 0 0 1 0,0.07 0.68,0.67 0 0 1 0,0.05 0.68,0.67 0 0 1 0,0.07 0.68,0.67 0 0 1 -0.02,0.06 0.68,0.67 0 0 1 -0.02,0.07 0.68,0.67 0 0 1 -0.03,0.06 0.68,0.67 0 0 1 -0.03,0.06 0.68,0.67 0 0 1 -0.04,0.05 0.68,0.67 0 0 1 -0.05,0.05 0.68,0.67 0 0 1 -0.05,0.05 0.68,0.67 0 0 1 -0.05,0.04 0.68,0.67 0 0 1 -0.06,0.03 0.68,0.67 0 0 1 -0.01,0 l 0.2,0.27 c 0.38,0.4 0.71,0.64 1.02,0.8 a 0.68,0.67 0 0 1 -0.01,-0.05 0.68,0.67 0 0 1 0,-0.07 0.68,0.67 0 0 1 0,-0.04 0.68,0.67 0 0 1 0,-0.07 0.68,0.67 0 0 1 0.02,-0.07 0.68,0.67 0 0 1 0.02,-0.06 0.68,0.67 0 0 1 0.03,-0.06 0.68,0.67 0 0 1 0.03,-0.06 0.68,0.67 0 0 1 0.04,-0.05 0.68,0.67 0 0 1 0.05,-0.05 0.68,0.67 0 0 1 0.05,-0.05 0.68,0.67 0 0 1 0.05,-0.04 0.68,0.67 0 0 1 0.06,-0.04 0.68,0.67 0 0 1 0.06,-0.03 0.68,0.67 0 0 1 0.07,-0.02 0.68,0.67 0 0 1 0.06,-0.02 0.68,0.67 0 0 1 0.07,0 0.68,0.67 0 0 1 0.07,0 0.68,0.67 0 0 1 0.05,0 0.68,0.67 0 0 1 0.07,0 0.68,0.67 0 0 1 0.06,0.02 0.68,0.67 0 0 1 0.07,0.02 0.68,0.67 0 0 1 0.06,0.02 0.68,0.67 0 0 1 0.06,0.04 0.68,0.67 0 0 1 0.06,0.04 0.68,0.67 0 0 1 0.05,0.04 0.68,0.67 0 0 1 0.04,0.05 0.68,0.67 0 0 1 0.05,0.05 0.68,0.67 0 0 1 0.03,0.06 0.68,0.67 0 0 1 0.03,0.06 0.68,0.67 0 0 1 0.02,0.06 0.68,0.67 0 0 1 0.02,0.07 0.68,0.67 0 0 1 0.01,0.07 0.68,0.67 0 0 1 0,0.06 0.68,0.67 0 0 1 0,0.05 0.68,0.67 0 0 1 0,0.07 0.68,0.67 0 0 1 0,0.01 c 0.3,-0.17 0.63,-0.41 1,-0.8 0.07,-0.08 0.14,-0.2 0.21,-0.27 A 0.68,0.67 0 0 1 8.19,11.29 0.68,0.67 0 0 1 8.13,11.25 0.68,0.67 0 0 1 8.08,11.2 0.68,0.67 0 0 1 8.04,11.15 0.68,0.67 0 0 1 7.99,11.1 0.68,0.67 0 0 1 7.96,11.04 0.68,0.67 0 0 1 7.93,10.98 0.68,0.67 0 0 1 7.9,10.92 0.68,0.67 0 0 1 7.89,10.86 0.68,0.67 0 0 1 7.88,10.79 a 0.68,0.67 0 0 1 0,-0.07 0.68,0.67 0 0 1 0,-0.05 0.68,0.67 0 0 1 0,-0.06 0.68,0.67 0 0 1 0.02,-0.07 0.68,0.67 0 0 1 0.02,-0.06 0.68,0.67 0 0 1 0.03,-0.06 0.68,0.67 0 0 1 0.03,-0.06 0.68,0.67 0 0 1 0.04,-0.06 0.68,0.67 0 0 1 0.05,-0.05 0.68,0.67 0 0 1 0.05,-0.04 0.68,0.67 0 0 1 0.05,-0.04 0.68,0.67 0 0 1 0.06,-0.04 0.68,0.67 0 0 1 0.06,-0.03 0.68,0.67 0 0 1 0.07,-0.02 0.68,0.67 0 0 1 0.06,-0.02 0.68,0.67 0 0 1 0.07,0 0.68,0.67 0 0 1 0.07,0 0.68,0.67 0 0 1 0.05,0 0.68,0.67 0 0 1 0.07,0 0.68,0.67 0 0 1 0.06,0.02 0.68,0.67 0 0 1 0.07,0.02 0.68,0.67 0 0 1 0.06,0.02 0.68,0.67 0 0 1 0.06,0.04 0.68,0.67 0 0 1 0.05,0.04 0.68,0.67 0 0 1 0.06,0.04 0.68,0.67 0 0 1 0.01,0.02 C 9.27,9.96 9.48,9.75 9.69,9.42 L 9.84,9.14 A 0.68,0.67 0 0 1 9.83,9.14 0.68,0.67 0 0 1 9.76,9.12 0.68,0.67 0 0 1 9.69,9.1 0.68,0.67 0 0 1 9.63,9.07 0.68,0.67 0 0 1 9.57,9.04 0.68,0.67 0 0 1 9.52,9 0.68,0.67 0 0 1 9.47,8.96 0.68,0.67 0 0 1 9.42,8.91 0.68,0.67 0 0 1 9.38,8.85 0.68,0.67 0 0 1 9.34,8.8 0.68,0.67 0 0 1 9.31,8.74 0.68,0.67 0 0 1 9.29,8.67 0.68,0.67 0 0 1 9.27,8.61 0.68,0.67 0 0 1 9.27,8.54 0.68,0.67 0 0 1 9.26,8.47 0.68,0.67 0 0 1 9.26,8.43 0.68,0.67 0 0 1 9.26,8.36 0.68,0.67 0 0 1 9.28,8.3 0.68,0.67 0 0 1 9.3,8.23 0.68,0.67 0 0 1 9.33,8.17 0.68,0.67 0 0 1 9.37,8.11 0.68,0.67 0 0 1 9.41,8.06 0.68,0.67 0 0 1 9.45,8.01 0.68,0.67 0 0 1 9.5,7.96 0.68,0.67 0 0 1 9.56,7.92 0.68,0.67 0 0 1 9.61,7.88 0.68,0.67 0 0 1 9.68,7.86 0.68,0.67 0 0 1 9.74,7.83 0.68,0.67 0 0 1 9.81,7.82 0.68,0.67 0 0 1 9.87,7.81 a 0.68,0.67 0 0 1 0.07,0 0.68,0.67 0 0 1 0.05,0 0.68,0.67 0 0 1 0.07,0 0.68,0.67 0 0 1 0.07,0.02 0.68,0.67 0 0 1 0.06,0.02 0.68,0.67 0 0 1 0.06,0.03 0.68,0.67 0 0 1 0.06,0.03 0.68,0.67 0 0 1 0.06,0.04 0.68,0.67 0 0 1 0.05,0.04 0.68,0.67 0 0 1 0.03,0.04 C 10.7,7.56 10.88,7.2 11.11,6.63 a 0.68,0.67 0 0 1 -0.05,0 A 0.68,0.67 0 0 1 10.99,6.62 0.68,0.67 0 0 1 10.92,6.6 0.68,0.67 0 0 1 10.86,6.58 0.68,0.67 0 0 1 10.8,6.56 0.68,0.67 0 0 1 10.74,6.52 0.68,0.67 0 0 1 10.68,6.48 0.68,0.67 0 0 1 10.63,6.44 0.68,0.67 0 0 1 10.58,6.39 0.68,0.67 0 0 1 10.54,6.34 0.68,0.67 0 0 1 10.51,6.28 0.68,0.67 0 0 1 10.48,6.22 0.68,0.67 0 0 1 10.45,6.15 0.68,0.67 0 0 1 10.44,6.09 0.68,0.67 0 0 1 10.43,6.02 a 0.68,0.67 0 0 1 0,-0.06 0.68,0.67 0 0 1 0,-0.05 0.68,0.67 0 0 1 0,-0.07 0.68,0.67 0 0 1 0.02,-0.06 0.68,0.67 0 0 1 0.02,-0.07 0.68,0.67 0 0 1 0.03,-0.06 0.68,0.67 0 0 1 0.03,-0.06 0.68,0.67 0 0 1 0.04,-0.05 0.68,0.67 0 0 1 0.05,-0.05 0.68,0.67 0 0 1 0.05,-0.05 0.68,0.67 0 0 1 0.05,-0.04 0.68,0.67 0 0 1 0.06,-0.03 0.68,0.67 0 0 1 0.06,-0.03 0.68,0.67 0 0 1 0.06,-0.03 0.68,0.67 0 0 1 0.07,-0.01 0.68,0.67 0 0 1 0.07,-0.01 0.68,0.67 0 0 1 0.07,0 0.68,0.67 0 0 1 0.04,0 0.68,0.67 0 0 1 0.07,0 0.68,0.67 0 0 1 0.07,0.02 0.68,0.67 0 0 1 0.06,0.02 0.68,0.67 0 0 1 0.07,0.03 0.68,0.67 0 0 1 0.06,0.03 0.68,0.67 0 0 1 0.02,0.02 c 0.1,-0.4 0.2,-0.82 0.2,-1.19 0,-0.23 -0.04,-0.44 -0.07,-0.66 a 0.68,0.67 0 0 1 -0.05,0.02 0.68,0.67 0 0 1 -0.06,0.03 0.68,0.67 0 0 1 -0.07,0.01 0.68,0.67 0 0 1 -0.07,0.01 0.68,0.67 0 0 1 -0.06,0 0.68,0.67 0 0 1 -0.05,0 0.68,0.67 0 0 1 -0.07,0 A 0.68,0.67 0 0 1 11.13,3.61 0.68,0.67 0 0 1 11.07,3.59 0.68,0.67 0 0 1 11.01,3.56 0.68,0.67 0 0 1 10.95,3.53 0.68,0.67 0 0 1 10.89,3.49 0.68,0.67 0 0 1 10.84,3.45 0.68,0.67 0 0 1 10.79,3.4 0.68,0.67 0 0 1 10.75,3.34 0.68,0.67 0 0 1 10.71,3.29 0.68,0.67 0 0 1 10.69,3.23 0.68,0.67 0 0 1 10.66,3.16 0.68,0.67 0 0 1 10.64,3.1 a 0.68,0.67 0 0 1 0,-0.07 0.68,0.67 0 0 1 0,-0.06 0.68,0.67 0 0 1 0,-0.05 0.68,0.67 0 0 1 0,-0.07 A 0.68,0.67 0 0 1 10.66,2.79 0.68,0.67 0 0 1 10.68,2.72 0.68,0.67 0 0 1 10.71,2.66 0.68,0.67 0 0 1 10.74,2.6 0.68,0.67 0 0 1 10.78,2.55 0.68,0.67 0 0 1 10.83,2.5 0.68,0.67 0 0 1 10.88,2.45 0.68,0.67 0 0 1 10.93,2.41 0.68,0.67 0 0 1 10.99,2.38 0.68,0.67 0 0 1 11.05,2.35 0.68,0.67 0 0 1 11.11,2.32 0.68,0.67 0 0 1 11.18,2.31 0.68,0.67 0 0 1 11.25,2.3 3.5,3.5 0 0 0 10.04,0.97 0.68,0.67 0 0 1 10.04,1.02 0.68,0.67 0 0 1 10.03,1.09 0.68,0.67 0 0 1 10.01,1.15 0.68,0.67 0 0 1 9.99,1.22 0.68,0.67 0 0 1 9.96,1.28 0.68,0.67 0 0 1 9.93,1.34 0.68,0.67 0 0 1 9.89,1.39 0.68,0.67 0 0 1 9.84,1.44 0.68,0.67 0 0 1 9.79,1.49 0.68,0.67 0 0 1 9.74,1.53 0.68,0.67 0 0 1 9.68,1.56 0.68,0.67 0 0 1 9.62,1.59 0.68,0.67 0 0 1 9.55,1.61 0.68,0.67 0 0 1 9.49,1.63 0.68,0.67 0 0 1 9.42,1.64 a 0.68,0.67 0 0 1 -0.07,0 0.68,0.67 0 0 1 -0.05,0 0.68,0.67 0 0 1 -0.06,0 A 0.68,0.67 0 0 1 9.17,1.62 0.68,0.67 0 0 1 9.1,1.6 0.68,0.67 0 0 1 9.04,1.57 0.68,0.67 0 0 1 8.98,1.54 0.68,0.67 0 0 1 8.93,1.5 0.68,0.67 0 0 1 8.88,1.46 0.68,0.67 0 0 1 8.83,1.41 0.68,0.67 0 0 1 8.79,1.35 0.68,0.67 0 0 1 8.75,1.3 0.68,0.67 0 0 1 8.72,1.23 0.68,0.67 0 0 1 8.7,1.17 0.68,0.67 0 0 1 8.68,1.11 0.68,0.67 0 0 1 8.68,1.04 0.68,0.67 0 0 1 8.67,0.97 0.68,0.67 0 0 1 8.67,0.93 0.68,0.67 0 0 1 8.67,0.86 0.68,0.67 0 0 1 8.69,0.79 0.68,0.67 0 0 1 8.72,0.73 0.68,0.67 0 0 1 8.74,0.67 0.68,0.67 0 0 1 8.78,0.61 0.68,0.67 0 0 1 8.82,0.56 0.68,0.67 0 0 1 8.86,0.51 0.68,0.67 0 0 1 8.91,0.46 7.9,7.9 0 0 0 7.03,0.16 a 0.68,0.67 0 0 1 0,0.07 0.68,0.67 0 0 1 0,0.05 0.68,0.67 0 0 1 0,0.07 A 0.68,0.67 0 0 1 7.01,0.41 0.68,0.67 0 0 1 6.99,0.48 0.68,0.67 0 0 1 6.96,0.54 0.68,0.67 0 0 1 6.93,0.6 0.68,0.67 0 0 1 6.89,0.65 0.68,0.67 0 0 1 6.84,0.7 0.68,0.67 0 0 1 6.79,0.75 0.68,0.67 0 0 1 6.74,0.79 0.68,0.67 0 0 1 6.68,0.82 0.68,0.67 0 0 1 6.62,0.85 0.68,0.67 0 0 1 6.55,0.88 0.68,0.67 0 0 1 6.49,0.89 0.68,0.67 0 0 1 6.42,0.9 0.68,0.67 0 0 1 6.35,0.9 0.68,0.67 0 0 1 6.3,0.9 0.68,0.67 0 0 1 6.23,0.9 0.68,0.67 0 0 1 6.17,0.88 0.68,0.67 0 0 1 6.1,0.86 0.68,0.67 0 0 1 6.04,0.83 0.68,0.67 0 0 1 5.98,0.8 0.68,0.67 0 0 1 5.92,0.76 0.68,0.67 0 0 1 5.87,0.72 0.68,0.67 0 0 1 5.83,0.67 0.68,0.67 0 0 1 5.79,0.61 0.68,0.67 0 0 1 5.75,0.56 0.68,0.67 0 0 1 5.72,0.5 0.68,0.67 0 0 1 5.7,0.43 0.68,0.67 0 0 1 5.68,0.37 0.68,0.67 0 0 1 5.67,0.3 a 0.68,0.67 0 0 1 0,-0.07 0.68,0.67 0 0 1 0,-0.04 0.68,0.67 0 0 1 0,-0.03 z"
     id="path24"
     style="fill:url(#d)"
     inkscape:connector-curvature="0" />
  <path
     d="m 8.73,1.59 -3.95,0.68 -1.6,4.87 4.63,4.64 0.23,-0.2 C 8.1,11.52 8.17,11.39 8.24,11.32 A 0.68,0.67 0 0 1 8.19,11.29 0.68,0.67 0 0 1 8.13,11.25 0.68,0.67 0 0 1 8.08,11.2 0.68,0.67 0 0 1 8.04,11.15 0.68,0.67 0 0 1 7.99,11.1 0.68,0.67 0 0 1 7.96,11.04 0.68,0.67 0 0 1 7.93,10.98 0.68,0.67 0 0 1 7.9,10.92 0.68,0.67 0 0 1 7.89,10.86 0.68,0.67 0 0 1 7.88,10.79 a 0.68,0.67 0 0 1 0,-0.07 0.68,0.67 0 0 1 0,-0.05 0.68,0.67 0 0 1 0,-0.06 0.68,0.67 0 0 1 0.02,-0.07 0.68,0.67 0 0 1 0.02,-0.06 0.68,0.67 0 0 1 0.03,-0.06 0.68,0.67 0 0 1 0.03,-0.06 0.68,0.67 0 0 1 0.04,-0.06 0.68,0.67 0 0 1 0.05,-0.05 0.68,0.67 0 0 1 0.05,-0.04 0.68,0.67 0 0 1 0.05,-0.04 0.68,0.67 0 0 1 0.06,-0.04 0.68,0.67 0 0 1 0.06,-0.03 0.68,0.67 0 0 1 0.07,-0.02 0.68,0.67 0 0 1 0.06,-0.02 0.68,0.67 0 0 1 0.07,0 0.68,0.67 0 0 1 0.07,0 0.68,0.67 0 0 1 0.05,0 0.68,0.67 0 0 1 0.07,0 0.68,0.67 0 0 1 0.06,0.02 0.68,0.67 0 0 1 0.07,0.02 0.68,0.67 0 0 1 0.06,0.02 0.68,0.67 0 0 1 0.06,0.04 0.68,0.67 0 0 1 0.05,0.04 0.68,0.67 0 0 1 0.06,0.04 0.68,0.67 0 0 1 0.01,0.02 C 9.27,9.96 9.48,9.75 9.69,9.43 l 0.15,-0.3 a 0.68,0.67 0 0 1 -0.01,0 0.68,0.67 0 0 1 -0.07,0 A 0.68,0.67 0 0 1 9.7,9.1 0.68,0.67 0 0 1 9.63,9.07 0.68,0.67 0 0 1 9.57,9.04 0.68,0.67 0 0 1 9.52,9 0.68,0.67 0 0 1 9.47,8.96 0.68,0.67 0 0 1 9.42,8.91 0.68,0.67 0 0 1 9.38,8.85 0.68,0.67 0 0 1 9.34,8.8 0.68,0.67 0 0 1 9.31,8.74 0.68,0.67 0 0 1 9.29,8.67 0.68,0.67 0 0 1 9.27,8.61 0.68,0.67 0 0 1 9.27,8.54 0.68,0.67 0 0 1 9.26,8.48 0.68,0.67 0 0 1 9.26,8.43 0.68,0.67 0 0 1 9.26,8.36 0.68,0.67 0 0 1 9.28,8.3 0.68,0.67 0 0 1 9.3,8.23 0.68,0.67 0 0 1 9.33,8.17 0.68,0.67 0 0 1 9.37,8.11 0.68,0.67 0 0 1 9.41,8.06 0.68,0.67 0 0 1 9.45,8.01 0.68,0.67 0 0 1 9.5,7.96 0.68,0.67 0 0 1 9.56,7.92 0.68,0.67 0 0 1 9.61,7.89 0.68,0.67 0 0 1 9.68,7.86 0.68,0.67 0 0 1 9.74,7.83 0.68,0.67 0 0 1 9.81,7.82 0.68,0.67 0 0 1 9.87,7.81 a 0.68,0.67 0 0 1 0.07,0 0.68,0.67 0 0 1 0.05,0 0.68,0.67 0 0 1 0.07,0 0.68,0.67 0 0 1 0.07,0.02 0.68,0.67 0 0 1 0.06,0.02 0.68,0.67 0 0 1 0.06,0.03 0.68,0.67 0 0 1 0.06,0.03 0.68,0.67 0 0 1 0.06,0.04 0.68,0.67 0 0 1 0.05,0.04 0.68,0.67 0 0 1 0.03,0.04 c 0.16,-0.3 0.26,-0.42 0.42,-0.77 0.1,-0.2 0.16,-0.42 0.24,-0.63 a 0.68,0.67 0 0 1 -0.05,0 A 0.68,0.67 0 0 1 10.99,6.62 0.68,0.67 0 0 1 10.92,6.6 0.68,0.67 0 0 1 10.86,6.58 0.68,0.67 0 0 1 10.8,6.56 0.68,0.67 0 0 1 10.74,6.52 0.68,0.67 0 0 1 10.68,6.48 0.68,0.67 0 0 1 10.63,6.44 0.68,0.67 0 0 1 10.58,6.39 0.68,0.67 0 0 1 10.54,6.34 0.68,0.67 0 0 1 10.51,6.28 0.68,0.67 0 0 1 10.48,6.22 0.68,0.67 0 0 1 10.45,6.15 0.68,0.67 0 0 1 10.44,6.09 0.68,0.67 0 0 1 10.43,6.02 a 0.68,0.67 0 0 1 0,-0.06 0.68,0.67 0 0 1 0,-0.05 0.68,0.67 0 0 1 0,-0.07 0.68,0.67 0 0 1 0.02,-0.06 0.68,0.67 0 0 1 0.02,-0.07 0.68,0.67 0 0 1 0.03,-0.06 0.68,0.67 0 0 1 0.03,-0.06 0.68,0.67 0 0 1 0.04,-0.05 0.68,0.67 0 0 1 0.05,-0.05 0.68,0.67 0 0 1 0.05,-0.05 0.68,0.67 0 0 1 0.05,-0.04 0.68,0.67 0 0 1 0.06,-0.03 0.68,0.67 0 0 1 0.06,-0.03 0.68,0.67 0 0 1 0.06,-0.03 0.68,0.67 0 0 1 0.07,-0.01 0.68,0.67 0 0 1 0.07,-0.01 0.68,0.67 0 0 1 0.07,0 0.68,0.67 0 0 1 0.04,0 0.68,0.67 0 0 1 0.07,0 0.68,0.67 0 0 1 0.07,0.02 0.68,0.67 0 0 1 0.06,0.02 0.68,0.67 0 0 1 0.07,0.03 0.68,0.67 0 0 1 0.06,0.03 0.68,0.67 0 0 1 0.02,0.02 c 0.07,-0.32 0.14,-0.64 0.16,-0.95 z"
     id="path26"
     style="opacity:0.75;fill:url(#e)"
     inkscape:connector-curvature="0" />
  <path
     d="M 8.73,1.59 H 4.37 l -1.2,5.55 h 1.2 L 4.88,4.76 h 2.93 l -2.65,2.38 0.8,0.8 C 7.14,7.14 8.33,8.57 9.53,7.38 L 9.29,6.43 8.93,6.71 C 8.39,7.01 7.95,6.67 7.32,6.57 l 1.8,-1.8 0.4,-1.2 H 5.17 l 0.2,-0.8 h 2.97 z"
     id="path28"
     style="fill:url(#f)"
     inkscape:connector-curvature="0" />
</svg>
