<?xml version="1.0" encoding="UTF-8" standalone="no"?><svg xmlns:dc="http://purl.org/dc/elements/1.1/" xmlns:cc="http://creativecommons.org/ns#" xmlns:rdf="http://www.w3.org/1999/02/22-rdf-syntax-ns#" xmlns="http://www.w3.org/2000/svg" xmlns:xlink="http://www.w3.org/1999/xlink" width="48" height="48" viewBox="0 0 12.7 12.7"><metadata><rdf:RDF><cc:Work><dc:format>image/svg+xml</dc:format><dc:type rdf:resource="http://purl.org/dc/dcmitype/StillImage"/><dc:title/></cc:Work></rdf:RDF></metadata><defs><linearGradient id="a"><stop offset="0" stop-color="#e9c6af"/><stop offset="1" stop-color="#c87137"/></linearGradient><radialGradient xlink:href="#a" id="b" cx="6.33" cy="5.04" fx="6.33" fy="5.04" r="5.35" gradientTransform="matrix(1 0 0 1.17063 0 -1.08)" gradientUnits="userSpaceOnUse"/></defs><path d="M6.35.1C4.81.1 3.57.38 2.66.96A3.67 3.67 0 0 0 1 4.22c0 1.91 1.54 4.47 2.01 5.2.54.85 1.13 1.61 1.65 2.16.68.7 1.21 1.03 1.69 1.03s1.01-.33 1.69-1.03a15.2 15.2 0 0 0 1.65-2.15c.47-.74 2-3.3 2-5.21 0-1.42-.57-2.54-1.65-3.25A6.75 6.75 0 0 0 6.35.1z" fill="url(#b)"/><path d="M6.27.5a6.64 6.17 0 0 0-5 2.13 3.67 3.67 0 0 0-.12.34 3.67 3.67 0 0 0-.09.36 3.67 3.67 0 0 0-.05.36 3.67 3.67 0 0 0-.01.36c.07-.1.14-.16.25-.32a6.1 6.1 0 0 1 3.27-2.32 6.42 5.97 0 0 1 3.5 0 6.28 5.84 0 0 1 3.6 2.86c.02.03.04.03.05.06l.02-.11c0-.36-.04-.7-.1-1-.04-.17-.12-.32-.17-.48A6.66 6.2 0 0 0 6.27.5zm.03 1.35a6.09 6.17 0 0 0-5.2 2.99c.04.27.06.54.14.82.1-.09.23-.24.46-.58a5.63 5.63 0 0 1 3-2.33 5.88 5.97 0 0 1 3.2 0 5.76 5.84 0 0 1 3.31 2.86c.07.14.12.21.18.27l.05-.14c.09-.3.1-.56.14-.84A6.1 6.2 0 0 0 6.3 1.85zm.08 1.44v.02a4.77 4.84 0 0 0-4.6 3.58 7.16 7.26 0 0 0-.03.18l.08.2c.18.4.31.57.5.9.01-1.5.62-2.76 1.8-3.54a4.04 4.1 0 0 1 5.18.72c.77.9 1.2 2.42.9 3.12.23-.4.41-.67.66-1.2l.02-.07a4.72 4.72 0 0 0-4.5-3.91zM6.33 4.8c-.5 0-1 .1-1.4.25-.64.33-1.24.97-1.55 1.64-.26.5-.26.58-.26 1.44a5 5.06 0 0 0 .24 1.74c.44.64.9 1.27 1.3 1.7.34.35.64.6.92.78.1.06.17.05.26.08-.06-.06-.08-.11-.17-.18a5.34 5.34 0 0 1-1.36-1.77c-.58-1.2-.75-2.65-.34-3.48A2.64 2.67 0 0 1 5.19 5.7a2.74 2.78 0 0 1 2.23 0A2.64 2.67 0 0 1 8.84 7.7c.1.6.26.78.5.62.13-.06.13-.2.13-.62a3.17 3.17 0 0 0-1.83-2.65 3.2 3.2 0 0 0-1.3-.25zm-.06 1.43a1.62 1.65 0 0 0-.76.22 1.83 1.85 0 0 0-.97 1.3 4.67 4.73 0 0 0 2.64 4.55c.17-.11.37-.3.57-.48A3.94 4 0 0 1 5.2 8.14c0-.6.2-.94.73-1.15.36-.14.36-.14.73 0 .47.2.69.54.75 1.1.1 1.04.81 1.72 1.8 1.72a1.74 1.77 0 0 0 .19-.01c.1-.14.19-.23.28-.37.1-.15.3-.58.46-.85-.26.42-.78.67-1.2.55-.35-.08-.76-.5-.8-.82-.18-1.13-.45-1.58-1.1-1.9a1.62 1.65 0 0 0-.78-.17zm.06 1.45a.4.41 0 0 0-.19.06c-.14.09-.16.15-.14.58a3.25 3.3 0 0 0 2.35 2.84c.15-.17.3-.4.46-.6a2.6 2.6 0 0 1-2.16-2.32c-.04-.35-.16-.55-.32-.56z" fill="#a05a2c"/><path d="M6.35.1C4.81.1 3.57.38 2.66.96A3.67 3.67 0 0 0 1 4.22c0 1.91 1.54 4.47 2.01 5.2.54.85 1.13 1.61 1.65 2.16.68.7 1.21 1.03 1.69 1.03s1.01-.33 1.69-1.03a15.2 15.2 0 0 0 1.65-2.15c.47-.74 2-3.3 2-5.21 0-1.42-.57-2.54-1.65-3.25A6.75 6.75 0 0 0 6.35.1zm0 .03C6.91.15 7.44.2 7.9.31a5.82 5.82 0 0 1 1.6.66 3.65 3.65 0 0 1 1.24 1.36c.14.27.25.57.32.88a4.61 4.61 0 0 1-.14 2.53c-.15.52-.36 1.04-.58 1.52-.44.97-.95 1.8-1.18 2.17a15.2 15.2 0 0 1-1.65 2.15 4.9 4.9 0 0 1-.92.78.96.96 0 0 1-.24.1.96.96 0 0 1-.24-.1 4.76 4.76 0 0 1-.92-.78 14.41 14.41 0 0 1-1.65-2.15 19.2 19.2 0 0 1-1.18-2.17c-.22-.48-.43-1-.58-1.52a4.6 4.6 0 0 1-.14-2.52 3.73 3.73 0 0 1 .84-1.64 3.65 3.65 0 0 1 1.45-1A6.83 6.83 0 0 1 6.35.13z" opacity=".2"/></svg>