<?xml version="1.0" encoding="UTF-8" standalone="no"?>
<svg
   xmlns:dc="http://purl.org/dc/elements/1.1/"
   xmlns:cc="http://creativecommons.org/ns#"
   xmlns:rdf="http://www.w3.org/1999/02/22-rdf-syntax-ns#"
   xmlns:svg="http://www.w3.org/2000/svg"
   xmlns="http://www.w3.org/2000/svg"
   xmlns:xlink="http://www.w3.org/1999/xlink"
   xmlns:sodipodi="http://sodipodi.sourceforge.net/DTD/sodipodi-0.dtd"
   xmlns:inkscape="http://www.inkscape.org/namespaces/inkscape"
   width="48"
   height="48"
   version="1"
   id="svg108"
   sodipodi:docname="fwupd.svg"
   inkscape:version="0.92.4 (5da689c313, 2019-01-14)">
  <metadata
     id="metadata112">
    <rdf:RDF>
      <cc:Work
         rdf:about="">
        <dc:format>image/svg+xml</dc:format>
        <dc:type
           rdf:resource="http://purl.org/dc/dcmitype/StillImage" />
        <dc:title></dc:title>
      </cc:Work>
    </rdf:RDF>
  </metadata>
  <sodipodi:namedview
     pagecolor="#ffffff"
     bordercolor="#666666"
     borderopacity="1"
     objecttolerance="10"
     gridtolerance="10"
     guidetolerance="10"
     inkscape:pageopacity="0"
     inkscape:pageshadow="2"
     inkscape:window-width="1112"
     inkscape:window-height="480"
     id="namedview110"
     showgrid="false"
     inkscape:zoom="4.9166667"
     inkscape:cx="2.1355932"
     inkscape:cy="24"
     inkscape:window-x="0"
     inkscape:window-y="25"
     inkscape:window-maximized="0"
     inkscape:current-layer="svg108" />
  <defs
     id="defs31">
    <linearGradient
       id="e">
      <stop
         offset="0"
         stop-color="#1a1a1a"
         id="stop2" />
      <stop
         offset="1"
         stop-color="#4d4d4d"
         id="stop4" />
    </linearGradient>
    <linearGradient
       id="d">
      <stop
         offset="0"
         stop-color="#2d5016"
         id="stop7" />
      <stop
         offset="1"
         stop-color="#8dd35f"
         id="stop9" />
    </linearGradient>
    <linearGradient
       id="a">
      <stop
         offset="0"
         stop-color="#2086e7"
         id="stop12" />
      <stop
         stop-color="#00aad4"
         offset=".3"
         id="stop14" />
      <stop
         offset="1"
         stop-color="#afe"
         id="stop16" />
    </linearGradient>
    <linearGradient
       id="b">
      <stop
         offset="0"
         stop-color="#0ff"
         id="stop19" />
      <stop
         offset="1"
         stop-color="teal"
         id="stop21" />
    </linearGradient>
    <linearGradient
       id="c">
      <stop
         offset="0"
         id="stop24" />
      <stop
         offset="1"
         stop-color="#1a1a1a"
         id="stop26" />
    </linearGradient>
    <linearGradient
       xlink:href="#d"
       id="f"
       x1="4.258"
       y1="4.633"
       x2="44.205"
       y2="24"
       gradientUnits="userSpaceOnUse" />
    <linearGradient
       xlink:href="#e"
       id="h"
       x1="19.438"
       y1="5.49"
       x2="35.632"
       y2="34.441"
       gradientUnits="userSpaceOnUse" />
  </defs>
  <path
     d="m 24.005,0.355 c -5.83,0 -10.51,1.1 -13.93,3.32 -4.1,2.66 -6.28,6.91 -6.28,12.28 0,7.22 5.8,16.88 7.58,19.67 a 54.48,54.48 0 0 0 6.25,8.16 c 2.54,2.64 4.57,3.87 6.37,3.87 1.8,0 3.83,-1.23 6.37,-3.87 2,-2.08 4.22,-4.98 6.25,-8.16 1.78,-2.79 7.59,-12.45 7.59,-19.67 0,-5.37 -2.17,-9.62 -6.27,-12.27 -3.4,-2.23 -8.09,-3.34 -13.94,-3.34 z"
     id="path33"
     style="fill:url(#f)"
     inkscape:connector-curvature="0" />
  <path
     d="m 19.938,0.584 c -0.113,0.059 -0.177,0.148 -0.27,0.217 -0.068,0.05 -0.18,0.072 -0.2,0.158 H 18.594 V 0.912 c -0.103,0.016 -0.22,0.019 -0.32,0.035 v 0.324 h 1.234 a 0.692,0.692 0 0 0 0.664,0.532 c 0.281,0 0.523,-0.18 0.625,-0.422 h 2.851 v 4.101 h 3.72 l 1.015,0.985 H 40.988 C 40.908,6.369 40.858,6.25 40.773,6.154 H 40.209 V 5.598 C 40.114,5.502 39.994,5.427 39.896,5.334 V 6.146 H 28.523 L 27.508,5.17 H 23.96 V 1.06 H 20.835 C 20.824,0.872 20.643,0.8 20.487,0.713 20.43,0.68 20.417,0.613 20.358,0.584 h -0.422 z m 5.68,0 v 0.125 h -1.071 v 2.984 h 2.148 l 0.735,0.743 h 1.054 l 0.907,0.875 h 6.459 l 1.054,-1.055 h 1.711 C 38.483,4.158 38.381,4.037 38.245,3.943 H 36.77 L 35.717,4.99 h -6.17 L 28.633,4.115 H 27.578 L 26.906,3.451 V 0.717 H 25.93 V 0.584 H 25.617 Z M 20.172,0.818 A 0.28,0.28 0 0 1 20.453,1.1 0.28,0.28 0 0 1 20.172,1.38 0.281,0.281 0 0 1 19.891,1.1 0.28,0.28 0 0 1 20.171,0.818 Z m 8.351,0.594 a 0.68,0.68 0 0 0 -0.664,0.703 0.68,0.68 0 0 0 0.985,0.625 l 1.539,1.555 h 3.789 l 0.844,-0.89 h 2.209 v 0.109 h 0.392 C 37.371,3.36 37.085,3.242 36.827,3.1 H 34.914 L 34.031,3.975 H 30.523 L 29.086,2.545 A 0.687,0.687 0 0 0 29.226,2.123 0.703,0.703 0 0 0 28.523,1.42 Z m -10.875,0.39 v 2.173 h 0.594 V 5.482 H 17.93 v 1.336 h 1.508 V 5.49 H 18.555 V 3.967 h 0.914 V 1.803 h -1.82 z m 3.579,0 v 2.173 h 0.664 V 4.92 H 20.797 A 0.648,0.648 0 0 0 20.172,4.436 0.703,0.703 0 0 0 19.469,5.139 c 0,0.375 0.32,0.664 0.703,0.664 0.336,0 0.61,-0.242 0.664,-0.563 h 1.055 v 0.242 h -0.914 v 1.336 h 1.476 V 5.49 H 22.211 V 3.967 h 0.836 V 1.803 h -1.82 z m 7.296,0.032 a 0.28,0.28 0 0 1 0.282,0.281 0.28,0.28 0 0 1 -0.282,0.281 0.281,0.281 0 0 1 -0.28,-0.28 0.28,0.28 0 0 1 0.28,-0.282 z M 13.43,2.029 c -0.18,0.068 -0.39,0.108 -0.565,0.18 -0.224,0.092 -0.404,0.223 -0.62,0.322 v 1.162 h 0.562 V 4.045 L 11.36,5.482 A 0.687,0.687 0 0 0 10.946,5.311 0.703,0.703 0 0 0 10.243,6.014 c 0,0.382 0.313,0.703 0.703,0.703 0.375,0 0.664,-0.32 0.664,-0.703 A 0.664,0.664 0 0 0 11.532,5.732 L 13.116,4.186 V 3.693 h 0.313 V 2.03 Z m -1.858,0.852 c -0.387,0.198 -0.795,0.378 -1.156,0.6 v 0.212 h 0.211 V 4.084 L 9.822,4.889 A 0.687,0.687 0 0 0 9.33,4.436 V 4.283 C 9.038,4.503 8.774,4.743 8.504,4.98 A 0.687,0.687 0 0 0 8.486,5.13 c 0,0.391 0.32,0.673 0.703,0.673 0.235,0 0.438,-0.11 0.563,-0.282 v 0.625 c -0.04,0.04 -0.14,0.11 -0.211,0.18 A 0.61,0.61 0 0 0 9.189,6.225 0.703,0.703 0 0 0 8.486,6.928 c 0,0.375 0.32,0.664 0.703,0.664 A 0.65,0.65 0 0 0 9.854,6.928 0.68,0.68 0 0 0 9.784,6.576 l 0.28,-0.281 V 5.1 L 10.947,4.225 V 3.693 h 0.625 z m 25.653,1.726 v 0.914 h 2.07 V 5.21 h 0.453 C 39.627,5.098 39.493,4.997 39.368,4.89 H 39.295 V 4.83 C 39.208,4.755 39.123,4.68 39.033,4.608 h -1.808 z m -12.71,2.07 v 0.142 h 2.383 V 6.679 H 24.516 Z M 6.675,6.927 C 6.599,7.029 6.535,7.137 6.461,7.24 h 0.76 l 1.086,1.125 h 2.836 l 0.882,-0.883 h 0.586 L 12.921,7.17 H 11.893 L 11.049,8.045 H 8.455 L 7.361,6.928 H 6.676 Z M 5.98,7.937 C 5.797,8.232 5.547,8.479 5.388,8.79 5.184,9.188 5.092,9.655 4.927,10.077 H 6.48 v -2.14 z m 0.5,1.195 c 0,0.375 0.32,0.703 0.703,0.703 A 0.703,0.703 0 0 0 7.886,9.132 0.68,0.68 0 0 0 7.183,8.46 C 6.8,8.46 6.48,8.75 6.48,9.132 Z M 7.183,8.851 c 0.156,0 0.28,0.117 0.28,0.28 A 0.274,0.274 0 0 1 7.183,9.405 0.281,0.281 0 0 1 6.901,9.132 0.28,0.28 0 0 1 7.183,8.851 Z m 32.285,0.664 a 0.687,0.687 0 0 0 -0.602,0.703 c 0,0.383 0.29,0.662 0.672,0.662 a 0.703,0.703 0 0 0 0.664,-0.451 h 2.98 c -0.037,-0.104 -0.071,-0.21 -0.11,-0.313 H 40.233 A 0.719,0.719 0 0 0 39.53,9.515 Z m 0.07,0.39 c 0.156,0 0.313,0.157 0.313,0.313 0,0.156 -0.157,0.281 -0.313,0.281 a 0.281,0.281 0 0 1 -0.281,-0.281 c 0,-0.156 0.125,-0.313 0.281,-0.313 z m -29.129,0.766 v 2.107 h 1.156 V 11.41 h 0.375 v -0.351 h -0.375 v -0.39 h -1.156 z m 25.637,0.459 v 0.344 h 7.51 c -0.033,-0.12 -0.088,-0.226 -0.123,-0.344 z m 0,1.047 v 0.312 h 7.783 C 43.809,12.39 43.818,12.275 43.796,12.177 Z M 4.089,13.099 c -0.017,0.1 -0.019,0.21 -0.033,0.312 H 11.94 V 13.099 H 4.088 Z m 31.957,0.132 v 0.313 H 43.94 C 43.927,13.441 43.925,13.333 43.91,13.231 Z M 6.175,14.224 v 0.945 H 3.867 C 3.862,15.29 3.833,15.399 3.83,15.521 h 2.656 v -0.985 h 5.47 V 14.224 H 6.173 Z m 29.879,0.14 v 0.313 h 8.008 C 44.054,14.571 44.038,14.47 44.028,14.364 Z m 0.75,0.985 -0.75,0.843 v 0.47 l 0.89,-1 h 6.282 l 0.873,0.886 c 0.005,-0.122 0.06,-0.26 0.062,-0.381 l -0.826,-0.81 h -6.531 z m 4.351,2.523 v 1.477 h -4.453 l -0.648,0.656 v 0.445 l 0.781,-0.781 h 4.32 v 1.539 h 0.953 V 17.872 Z M 4.151,18.185 c 0.015,0.103 0.035,0.208 0.051,0.312 h 0.106 v 0.649 c 0.093,0.505 0.115,0.987 0.244,1.5 h 0.459 v 0.242 H 7.995 V 19.95 H 5.018 v 0.383 H 4.666 V 18.185 H 4.15 Z m 6.864,3.058 a 0.279,0.279 0 0 0 -0.278,0.278 c 0,0.156 0.118,0.28 0.282,0.28 a 0.274,0.274 0 0 0 0.273,-0.28 0.274,0.274 0 0 0 -0.277,-0.278 z m 0.941,0.715 -1.328,1.32 h -5.3 c 0.037,0.106 0.082,0.207 0.12,0.313 h 5.327 l 1.18,-1.172 v -0.461 z m -6.945,0.094 v 0.312 h -0.03 c 0.068,0.213 0.167,0.413 0.239,0.625 H 8.003 V 22.052 H 5.01 Z m 5.969,2.695 v 0.008 a 0.726,0.726 0 0 0 -0.665,0.484 H 6.072 c 0.043,0.107 0.078,0.215 0.121,0.32 h 4.082 c 0.047,0.337 0.36,0.594 0.704,0.594 0.382,0 0.664,-0.312 0.664,-0.703 0,-0.375 -0.282,-0.703 -0.664,-0.703 z m 0,0.422 a 0.28,0.28 0 0 1 0.28,0.281 0.28,0.28 0 0 1 -0.28,0.281 0.281,0.281 0 0 1 -0.282,-0.28 0.28,0.28 0 0 1 0.282,-0.282 z m -4.655,0.734 c 0.132,0.314 0.226,0.646 0.362,0.953 h 1.308 v -0.21 h 3.953 V 26.333 H 7.994 v -0.43 h -1.67 z m 29.729,0.047 v 1.29 c 0.336,-0.048 0.61,-0.313 0.61,-0.665 0,-0.344 -0.274,-0.586 -0.61,-0.625 z m 1.312,0.172 v 0.984 h 2.914 v -0.984 z m 0,3.227 v 0.312 h -1.39 l -0.313,0.313 h 0.086 a 0.68,0.68 0 0 0 -0.453,0.64 c 0,0.383 0.289,0.703 0.664,0.703 a 0.703,0.703 0 0 0 0.703,-0.703 0.68,0.68 0 0 0 -0.453,-0.633 h 1.156 v 1.157 h 1.686 c 0.355,-0.641 0.602,-1.057 0.976,-1.79 h -2.662 z m -29.303,0.21 c 0.072,0.14 0.117,0.209 0.188,0.344 h 4.033 L 11.956,29.591 V 29.56 H 8.062 Z m 4.456,0.602 c -0.18,0.117 -0.414,0.188 -0.414,0.414 0,0.383 0.312,0.703 0.703,0.703 0.242,0 0.427,-0.156 0.545,-0.351 H 13.29 Z m 16.255,0.766 v 0.21 h 2.946 v -0.21 z M 9.138,31.528 c 0.06,0.108 0.11,0.208 0.17,0.313 h 10.826 l 1.164,1.156 h 3.68 l 0.742,0.74 h 11.91 c 0.05,-0.081 0.12,-0.227 0.172,-0.312 H 25.867 l -0.742,-0.74 h -3.68 L 20.281,31.528 H 9.137 Z m 24.16,0.102 -1.094,1.125 H 31.72 v -0.461 h -2.953 v 0.982 h 2.945 v -0.209 h 0.625 l 1.094,-1.093 h 5.164 c 0.065,-0.114 0.12,-0.227 0.187,-0.344 z M 9.69,32.544 c 0.057,0.097 0.118,0.22 0.172,0.312 h 9.326 l 0.461,0.46 a 0.655,0.655 0 0 0 -0.14,0.382 c 0,0.383 0.312,0.703 0.703,0.703 0.375,0 0.664,-0.32 0.664,-0.703 a 0.648,0.648 0 0 0 -0.672,-0.662 0.656,0.656 0 0 0 -0.312,0.07 l -0.563,-0.562 z m 4.061,1.365 a 0.703,0.703 0 0 0 -0.703,0.703 c 0,0.172 0.07,0.336 0.18,0.453 l -0.53,0.532 h -1.342 c 0.003,0.003 0.008,0.016 0.01,0.02 a 54.48,54.48 0 0 0 0.205,0.292 h 1.276 l 0.63,-0.664 a 0.842,0.842 0 0 0 0.282,0.031 0.645,0.645 0 0 0 0.664,-0.664 c 0,-0.382 -0.281,-0.703 -0.664,-0.703 z m 15.016,0.203 0.007,0.008 v 0.422 h -2.14 v 5.016 h -1.828 v 1.265 h -5.86 v 1.196 h -1.093 v 1.398 h 1.406 v -2.281 h 5.86 v -1.25 h 1.827 v -5 h 1.828 v 0.21 H 31.72 V 34.112 Z M 18.384,34.12 a 0.703,0.703 0 0 0 -0.703,0.703 c 0,0.383 0.32,0.664 0.703,0.664 0.11,0 0.187,-0.023 0.281,-0.07 l 1.43,1.438 h 4.945 c 0.07,0.312 0.336,0.562 0.672,0.562 a 0.703,0.703 0 0 0 0.703,-0.703 0.703,0.703 0 0 0 -0.703,-0.703 0.703,0.703 0 0 0 -0.672,0.531 h -4.79 l -1.297,-1.328 a 0.651,0.651 0 0 0 0.102,-0.39 c 0,-0.384 -0.282,-0.704 -0.664,-0.704 h -0.008 z m 14.953,0.313 -1.164,1.164 h -4.594 v 5.226 h -1.86 v 1.196 h -0.421 v 1.398 h 1.094 V 42.01 h -0.36 v -0.875 h 1.86 v -5.227 h 4.422 l 1.156,-1.156 h 3.607 c 0.043,-0.068 0.13,-0.247 0.176,-0.32 h -3.916 z m -16.852,2.18 a 0.28,0.28 0 0 0 -0.28,0.28 c 0,0.157 0.124,0.313 0.28,0.313 0.157,0 0.282,-0.156 0.282,-0.312 a 0.28,0.28 0 0 0 -0.282,-0.282 z m 6.493,1.468 c -0.313,0 -0.579,0.242 -0.665,0.531 h -4.218 l -1.68,1.828 v 1.579 h -0.291 a 54.48,54.48 0 0 0 0.963,1.134 V 42.01 h -0.352 v -1.422 l 1.508,-1.656 h 4.031 c 0.063,0.32 0.368,0.562 0.704,0.562 0.39,0 0.671,-0.312 0.671,-0.703 0,-0.375 -0.289,-0.703 -0.671,-0.703 V 38.08 Z m 5.796,2.36 v 0.976 h 2.946 v -0.312 h 0.683 c 0.09,-0.11 0.18,-0.24 0.27,-0.352 H 31.712 V 40.44 h -2.938 z"
     id="path35"
     inkscape:connector-curvature="0"
     style="fill:#bcd35f" />
  <g
     transform="matrix(0.68258,0,0,0.68258,2.157,-1.012)"
     id="g100"
     style="fill:#e3dedb">
    <rect
       style="color:#000000;overflow:visible;stroke-width:2;marker:none"
       width="2"
       height="4"
       x="17"
       y="8"
       rx="1"
       ry="1"
       overflow="visible"
       id="g" />
    <use
       xlink:href="#g"
       transform="translate(4)"
       width="64"
       height="64"
       id="use38"
       x="0"
       y="0" />
    <use
       xlink:href="#g"
       transform="rotate(90,32,29)"
       width="64"
       height="64"
       id="use40"
       x="0"
       y="0" />
    <use
       xlink:href="#g"
       transform="matrix(0,1,1,0,3,-3)"
       width="64"
       height="64"
       id="use42"
       x="0"
       y="0" />
    <use
       height="64"
       width="64"
       transform="translate(0,38)"
       xlink:href="#g"
       id="use44"
       x="0"
       y="0" />
    <use
       height="64"
       width="64"
       transform="translate(16)"
       xlink:href="#g"
       id="use46"
       x="0"
       y="0" />
    <use
       height="64"
       width="64"
       transform="rotate(90,26,35)"
       xlink:href="#g"
       id="use48"
       x="0"
       y="0" />
    <use
       height="64"
       width="64"
       transform="matrix(0,1,1,0,3,9)"
       xlink:href="#g"
       id="use50"
       x="0"
       y="0" />
    <use
       xlink:href="#g"
       transform="translate(12,38)"
       width="64"
       height="64"
       id="use52"
       x="0"
       y="0" />
    <use
       xlink:href="#g"
       transform="translate(8)"
       width="64"
       height="64"
       id="use54"
       x="0"
       y="0" />
    <use
       xlink:href="#g"
       transform="rotate(90,30,31)"
       width="64"
       height="64"
       id="use56"
       x="0"
       y="0" />
    <use
       xlink:href="#g"
       transform="matrix(0,1,1,0,3,1)"
       width="64"
       height="64"
       id="use58"
       x="0"
       y="0" />
    <use
       height="64"
       width="64"
       transform="translate(4,38)"
       xlink:href="#g"
       id="use60"
       x="0"
       y="0" />
    <use
       height="64"
       width="64"
       transform="translate(20)"
       xlink:href="#g"
       id="use62"
       x="0"
       y="0" />
    <use
       height="64"
       width="64"
       transform="rotate(90,24,37)"
       xlink:href="#g"
       id="use64"
       x="0"
       y="0" />
    <use
       height="64"
       width="64"
       transform="matrix(0,1,1,0,3,13)"
       xlink:href="#g"
       id="use66"
       x="0"
       y="0" />
    <use
       xlink:href="#g"
       transform="translate(16,38)"
       width="64"
       height="64"
       id="use68"
       x="0"
       y="0" />
    <use
       height="64"
       width="64"
       transform="translate(12)"
       xlink:href="#g"
       id="use70"
       x="0"
       y="0" />
    <use
       height="64"
       width="64"
       transform="rotate(90,28,33)"
       xlink:href="#g"
       id="use72"
       x="0"
       y="0" />
    <use
       height="64"
       width="64"
       transform="matrix(0,1,1,0,3,5)"
       xlink:href="#g"
       id="use74"
       x="0"
       y="0" />
    <use
       xlink:href="#g"
       transform="translate(8,38)"
       width="64"
       height="64"
       id="use76"
       x="0"
       y="0" />
    <use
       height="64"
       width="64"
       transform="translate(24)"
       xlink:href="#g"
       id="use78"
       x="0"
       y="0" />
    <use
       height="64"
       width="64"
       transform="rotate(90,22,39)"
       xlink:href="#g"
       id="use80"
       x="0"
       y="0" />
    <use
       height="64"
       width="64"
       transform="matrix(0,1,1,0,3,17)"
       xlink:href="#g"
       id="use82"
       x="0"
       y="0" />
    <use
       xlink:href="#g"
       transform="translate(20,38)"
       width="64"
       height="64"
       id="use84"
       x="0"
       y="0" />
    <use
       xlink:href="#g"
       transform="translate(28)"
       width="64"
       height="64"
       id="use86"
       x="0"
       y="0" />
    <use
       height="64"
       width="64"
       transform="rotate(90,20,41)"
       xlink:href="#g"
       id="use88"
       x="0"
       y="0" />
    <use
       height="64"
       width="64"
       transform="matrix(0,1,1,0,3,21)"
       xlink:href="#g"
       id="use90"
       x="0"
       y="0" />
    <use
       xlink:href="#g"
       transform="translate(24,38)"
       width="64"
       height="64"
       id="use92"
       x="0"
       y="0" />
    <use
       xlink:href="#g"
       transform="rotate(90,18,43)"
       width="64"
       height="64"
       id="use94"
       x="0"
       y="0" />
    <use
       xlink:href="#g"
       transform="matrix(0,1,1,0,3,25)"
       width="64"
       height="64"
       id="use96"
       x="0"
       y="0" />
    <use
       height="64"
       width="64"
       transform="translate(28,38)"
       xlink:href="#g"
       id="use98"
       x="0"
       y="0" />
  </g>
  <path
     style="color:#000000;overflow:visible;fill:url(#h);marker:none"
     d="m 13.083,6.497 -1.37,1.37 v 21.828 l 1.37,1.37 h 21.828 l 1.37,-1.37 V 7.875 l -1.37,-1.37 z"
     overflow="visible"
     id="path102"
     inkscape:connector-curvature="0" />
  <path
     d="m 3.92,14.74 c -0.02,0.4 -0.12,0.78 -0.12,1.2 0,7.24 5.8,16.9 7.58,19.68 a 54.47,54.47 0 0 0 6.25,8.16 c 2.54,2.64 4.57,3.87 6.37,3.87 1.8,0 3.83,-1.23 6.37,-3.87 2,-2.08 4.22,-4.97 6.25,-8.16 1.78,-2.78 7.59,-12.44 7.59,-19.67 0,-0.43 -0.1,-0.8 -0.14,-1.21 -0.08,1.59 -0.3,3.24 -0.8,4.94 a 43.17,43.17 0 0 1 -2.19,5.77 69.67,69.67 0 0 1 -4.46,8.17 54.47,54.47 0 0 1 -6.25,8.16 18,18 0 0 1 -3.46,2.93 c -1.05,0.64 -2,0.94 -2.9,0.94 -0.91,0 -1.87,-0.3 -2.92,-0.94 a 18,18 0 0 1 -3.46,-2.93 c -2,-2.08 -4.21,-4.97 -6.25,-8.16 A 69.4,69.4 0 0 1 6.92,25.45 43.04,43.04 0 0 1 4.73,19.68 c -0.5,-1.7 -0.72,-3.35 -0.8,-4.94 z"
     id="path104"
     inkscape:connector-curvature="0"
     style="opacity:0.5" />
  <path
     d="m 18.866,11.959 a 0.409,0.409 0 0 0 -0.41,0.412 c 0,0.229 0.181,0.412 0.41,0.412 h 10.408 a 0.41,0.41 0 0 0 0.413,-0.412 0.41,0.41 0 0 0 -0.413,-0.412 z m 0,3.814 a 0.409,0.409 0 0 0 -0.41,0.413 c 0,0.228 0.181,0.412 0.41,0.412 h 10.408 a 0.41,0.41 0 0 0 0.413,-0.412 0.41,0.41 0 0 0 -0.413,-0.413 z m -0.14,3.793 a 0.41,0.41 0 0 0 -0.413,0.413 0.41,0.41 0 0 0 0.413,0.412 h 10.406 a 0.41,0.41 0 0 0 0.412,-0.412 0.41,0.41 0 0 0 -0.412,-0.413 z m 0,3.651 a 0.41,0.41 0 0 0 -0.413,0.412 0.41,0.41 0 0 0 0.413,0.412 h 10.406 a 0.41,0.41 0 0 0 0.412,-0.412 0.41,0.41 0 0 0 -0.412,-0.412 z"
     id="path106"
     inkscape:connector-curvature="0"
     style="fill:#f2f2f2" />
</svg>
