<svg xmlns="http://www.w3.org/2000/svg" xmlns:xlink="http://www.w3.org/1999/xlink" viewBox="0 0 48 48"><defs><linearGradient id="b"><stop stop-color="#fff" offset="0"/><stop stop-color="#fff" stop-opacity=".45" offset=".25"/><stop stop-color="#fff" stop-opacity=".7" offset=".45"/><stop stop-color="#fff" stop-opacity=".94" offset=".5"/><stop stop-color="#fff" stop-opacity="0" offset="1"/></linearGradient><radialGradient id="e" cx="11.03" cy="8" r="156.98" gradientTransform="rotate(-13.49 150.2 21.54) scale(.76106)" gradientUnits="userSpaceOnUse" xlink:href="#a"/><radialGradient id="a" cx="11.03" cy="8" r="156.98" gradientUnits="userSpaceOnUse"><stop stop-color="#ffce05" offset=".08"/><stop stop-color="#f9d940" offset=".19"/><stop stop-color="#FDE446" offset=".35"/><stop stop-color="#FFEB55" offset=".43"/><stop stop-color="#FFEB55" offset=".69"/><stop stop-color="#FEE951" offset=".73"/><stop stop-color="#FDE446" offset=".76"/><stop stop-color="#FADB34" offset=".8"/><stop stop-color="#F7CF1A" offset=".83"/><stop stop-color="#F3C300" offset=".86"/><stop stop-color="#FBD400" offset=".92"/><stop stop-color="#fd0" offset=".97"/></radialGradient><linearGradient id="f" x1="-19.34" x2="152.21" y1="-36.23" y2="93.2" gradientTransform="translate(-8.62 35.28) scale(.76106)" gradientUnits="userSpaceOnUse" xlink:href="#b"/><linearGradient id="c" x1="3.89" x2="44.2" y1="2.54" y2="24" gradientUnits="userSpaceOnUse"><stop stop-color="#89a02c" offset="0"/><stop stop-color="#cdde87" offset=".25"/><stop stop-color="#abc837" offset=".45"/><stop stop-color="#bcd35f" offset=".5"/><stop stop-color="#89a02c" offset=".75"/><stop stop-color="#dde9af" offset="1"/></linearGradient><linearGradient id="d" x1="11.32" x2="45.85" y1="10.71" y2="41.11" gradientUnits="userSpaceOnUse"><stop offset="0"/><stop stop-opacity="0" offset="1"/></linearGradient></defs><path fill="url(#c)" d="M24 .35c-5.83 0-10.52 1.12-13.93 3.33-4.1 2.66-6.27 6.9-6.27 12.27 0 7.23 5.8 16.88 7.58 19.67a54.47 54.47 0 0 0 6.25 8.16c2.54 2.64 4.57 3.87 6.37 3.87 1.8 0 3.83-1.23 6.37-3.87 2-2.08 4.22-4.97 6.25-8.16 1.78-2.79 7.58-12.44 7.58-19.67 0-5.37-2.16-9.62-6.26-12.27C34.52 1.47 29.84.35 24 .35z"/><path opacity=".5" fill="url(#d)" d="M26.82 46.88c.03-.02.06 0 .09-.03 1.05-.63 2.19-1.6 3.46-2.93 2-2.07 4.22-4.97 6.25-8.15.89-1.4 2.78-4.5 4.46-8.17.83-1.84 1.62-3.81 2.19-5.78.2-.68.18-1.3.32-1.98L33.56 9.81l-3.12 3.9-4.45-4.45L8.06 21.14l8.69 8.7-1.98 4.98z"/><path opacity=".15" fill="#323232" d="M11.78 5.98a.53.53 0 0 0-.62.4l-3.24 14.6c-.06.3.11.58.39.64l14.08 3.13c.28.06.55-.13.62-.41l3.24-14.6a.53.53 0 0 0-.4-.64z"/><path opacity=".2" fill="#323232" d="M11.75 6.1a.4.4 0 0 0-.46.31l-3.24 14.6a.4.4 0 0 0 .29.48l14.08 3.13c.2.04.41-.1.46-.31l3.24-14.6a.4.4 0 0 0-.29-.48z"/><path opacity=".25" fill="#323232" d="M11.72 6.24a.26.26 0 0 0-.3.2l-3.25 14.6c-.03.15.06.29.2.32l14.08 3.13c.14.03.27-.07.3-.2L26 9.67a.26.26 0 0 0-.19-.32z"/><path opacity=".3" fill="#323232" d="M11.7 6.37a.13.13 0 0 0-.16.1L8.3 21.07c-.02.07.03.14.1.16l14.08 3.13c.07.01.13-.04.15-.1l3.24-14.61a.13.13 0 0 0-.1-.16z"/><path fill="url(#e)" d="M107.43 82.57l2.93 18.73-19.15 7.73-64.5 15.48L6.17 38.94l85.77-20.88z" transform="matrix(.15177 .07563 -.07549 .15803 13.4 -.55)"/><path opacity=".87" fill="url(#f)" transform="matrix(.1652 .03667 -.03799 .17132 13.4 -.55)" d="M-3.26 39.28h88.19v13.89H-3.26z"/><g><path opacity=".15" fill="#323232" d="M20.07 15.37a.53.53 0 0 0-.27.69l5.82 13.78c.12.27.42.4.68.29l13.3-5.6a.53.53 0 0 0 .26-.7l-5.82-13.78a.53.53 0 0 0-.68-.3z"/><path opacity=".2" fill="#323232" d="M20.12 15.49a.4.4 0 0 0-.2.52l5.82 13.78c.09.2.32.3.51.22l13.3-5.61a.4.4 0 0 0 .2-.52L33.91 10.1a.4.4 0 0 0-.5-.22z"/><path opacity=".25" fill="#323232" d="M20.17 15.61a.26.26 0 0 0-.13.35l5.82 13.78c.06.13.21.2.34.14l13.29-5.6c.13-.06.2-.22.13-.35l-5.81-13.78a.26.26 0 0 0-.35-.15z"/><path opacity=".3" fill="#323232" d="M20.23 15.74c-.07.02-.1.1-.07.17l5.82 13.78c.03.07.1.1.17.07l13.29-5.6c.06-.04.1-.11.06-.18L33.7 10.2a.13.13 0 0 0-.17-.07z"/><path fill="url(#e)" d="M107.43 82.57l2.93 18.73-19.15 7.73-64.5 15.48L6.17 38.94l85.77-20.88z" transform="matrix(.16753 -.02625 .03 .17254 17.61 9.1)"/><path opacity=".87" fill="url(#f)" transform="matrix(.1559 -.06579 .06826 .16165 17.61 9.1)" d="M-3.26 39.28h88.19v13.89H-3.26z"/></g><g><path opacity=".15" fill="#323232" d="M15.23 16.64c-.33 0-.6.27-.6.62l-.05 17.42c0 .34.26.62.6.62l16.8.05c.33 0 .6-.27.6-.62l.05-17.42a.61.61 0 0 0-.6-.62z"/><path opacity=".2" fill="#323232" d="M15.23 16.8c-.25 0-.46.2-.46.46l-.04 17.42c0 .26.2.47.45.47l16.8.05c.25 0 .45-.2.45-.47l.05-17.42c0-.26-.2-.47-.45-.47z"/><path opacity=".25" fill="#323232" d="M15.23 16.95a.3.3 0 0 0-.3.3l-.05 17.43c0 .17.13.31.3.31l16.8.05a.3.3 0 0 0 .3-.3l.05-17.43a.3.3 0 0 0-.3-.31z"/><path opacity=".3" fill="#323232" d="M15.22 17.1a.15.15 0 0 0-.15.16l-.04 17.42c0 .09.06.16.15.16l16.8.05c.08 0 .15-.07.15-.16l.05-17.42a.15.15 0 0 0-.15-.16z"/><path fill="url(#e)" d="M107.43 82.57l2.93 18.73-19.15 7.73-64.5 15.48L6.17 38.94l85.77-20.88z" transform="matrix(.19155 .04826 -.04654 .19863 15.45 8.8)"/><path opacity=".87" fill="url(#f)" transform="matrix(.19712 .00058 -.00056 .2044 15.45 8.8)" d="M-3.26 39.28h88.19v13.89H-3.26z"/></g><path opacity=".25" d="M24 .35c-5.83 0-10.52 1.12-13.93 3.33-4.1 2.66-6.27 6.9-6.27 12.27 0 7.23 5.8 16.88 7.58 19.67a54.47 54.47 0 0 0 6.25 8.16c2.54 2.64 4.57 3.87 6.37 3.87 1.8 0 3.83-1.23 6.37-3.87 2-2.08 4.22-4.97 6.25-8.16 1.78-2.79 7.58-12.44 7.58-19.67 0-5.37-2.16-9.62-6.26-12.27C34.52 1.47 29.84.35 24 .35zm0 .14c2.11.09 4.12.27 5.88.7 1.16.27 2.25.62 3.26 1.03 1.01.42 1.94.9 2.8 1.46A12.92 12.92 0 0 1 40.6 8.8c.53 1.03.92 2.15 1.2 3.34s.4 2.47.4 3.8c0 1.82-.37 3.77-.94 5.74a43.18 43.18 0 0 1-2.2 5.77 69.59 69.59 0 0 1-4.45 8.17 54.46 54.46 0 0 1-6.25 8.16 17.98 17.98 0 0 1-3.46 2.93c-.32.2-.62.3-.91.39-.3-.08-.59-.2-.9-.4-1.06-.63-2.2-1.6-3.47-2.92-2-2.08-4.22-4.97-6.25-8.16a69.6 69.6 0 0 1-4.46-8.17 43.2 43.2 0 0 1-2.19-5.77 20.93 20.93 0 0 1-.93-5.73c0-1.34.13-2.61.4-3.8s.67-2.32 1.2-3.35a13.06 13.06 0 0 1 4.67-5.12c.85-.56 1.78-1.04 2.8-1.46s2.1-.76 3.26-1.04C19.88.76 21.89.58 24 .5z"/></svg>