<svg xmlns="http://www.w3.org/2000/svg" xmlns:xlink="http://www.w3.org/1999/xlink" width="48" height="48" viewBox="0 0 12.7 12.7"><defs><linearGradient id="a"><stop offset="0" stop-color="#020000"/><stop offset="1" stop-color="#ccc"/></linearGradient><linearGradient id="x"><stop offset="0" stop-color="#7c6f91"/><stop offset=".21" stop-color="#c4b7c8"/><stop offset=".42" stop-color="#8a6f91"/><stop offset=".809" stop-color="#c4b7c8"/><stop offset="1" stop-color="#e2dbe3"/></linearGradient><linearGradient xlink:href="#a" id="y" x1="6.338" y1="-1.689" x2="6.24" y2="13.41" gradientUnits="userSpaceOnUse"/><radialGradient cx="62.85" cy="-17.08" r="89.64" id="b" gradientUnits="userSpaceOnUse"><stop offset="0" stop-color="#fff"/><stop offset=".46" stop-color="#fff"/><stop offset=".52" stop-color="#f5f5f6"/><stop offset=".63" stop-color="#dbdbde"/><stop offset=".76" stop-color="#b0b0b6"/><stop offset=".88" stop-color="#888892"/></radialGradient><linearGradient x1="62.85" y1="22.36" x2="62.85" y2="70.5" id="c" gradientUnits="userSpaceOnUse"><stop offset=".04" stop-color="#888"/><stop offset="1" stop-color="#323232"/></linearGradient><linearGradient x1="62.85" y1="45.6" x2="62.85" y2="2.88" id="d" gradientUnits="userSpaceOnUse"><stop offset="0" stop-color="#fff"/><stop offset=".11" stop-color="#f9f9f9"/><stop offset=".25" stop-color="#e9e9e9"/><stop offset=".41" stop-color="#cecece"/><stop offset=".59" stop-color="#a8a8a8"/><stop offset=".77" stop-color="#787878"/><stop offset=".96" stop-color="#3e3e3e"/><stop offset="1" stop-color="#323232"/></linearGradient><linearGradient x1="113.62" y1="87.81" x2="113.62" y2="82.26" id="e" gradientUnits="userSpaceOnUse"><stop offset="0" stop-color="#eeeeec"/><stop offset=".24" stop-color="#ececea"/><stop offset=".38" stop-color="#e3e3e3"/><stop offset=".44" stop-color="#ddd"/><stop offset="1" stop-color="#888"/></linearGradient><radialGradient cx="113.93" cy="88.52" r="5.78" id="f" gradientUnits="userSpaceOnUse"><stop offset="0" stop-color="#888"/><stop offset=".1" stop-color="#828282"/><stop offset="1" stop-color="#555"/></radialGradient><radialGradient cx="112.79" cy="83.79" r="4.04" fx="113.27" fy="84.34" id="g" gradientUnits="userSpaceOnUse"><stop offset="0" stop-color="#fff"/><stop offset=".1" stop-color="#fdfdfd"/><stop offset=".16" stop-color="#f6f6f4"/><stop offset=".2" stop-color="#eeeeec"/><stop offset=".33" stop-color="#ececea"/><stop offset=".41" stop-color="#e3e3e3"/><stop offset=".44" stop-color="#ddd"/><stop offset=".86" stop-color="#888"/></radialGradient><linearGradient x1="62.85" y1="118.87" x2="62.85" y2="88.93" id="h" gradientUnits="userSpaceOnUse"><stop offset="0" stop-color="#fff"/><stop offset=".4" stop-color="#fdfdfd"/><stop offset=".54" stop-color="#f6f6f7"/><stop offset=".64" stop-color="#ebebec"/><stop offset=".72" stop-color="#dadadd"/><stop offset=".79" stop-color="#c4c4c9"/><stop offset=".85" stop-color="#a9a9b0"/><stop offset=".91" stop-color="#8a8a93"/><stop offset=".91" stop-color="#888892"/><stop offset="1" stop-color="#55555f"/></linearGradient><linearGradient x1="62.85" y1="77.38" x2="62.85" y2="82.63" id="i" gradientUnits="userSpaceOnUse"><stop offset="0" stop-color="#888"/><stop offset=".02" stop-color="#919191"/><stop offset=".1" stop-color="#adadad"/><stop offset=".19" stop-color="#c2c2c2"/><stop offset=".28" stop-color="#d1d1d1"/><stop offset=".4" stop-color="#dadada"/><stop offset=".56" stop-color="#ddd"/></linearGradient><linearGradient x1="22.18" y1="95.41" x2="22.18" y2="80.88" id="j" gradientUnits="userSpaceOnUse"><stop offset="0" stop-color="#555"/><stop offset="1" stop-color="#bbb"/></linearGradient><linearGradient x1="103.52" y1="95.41" x2="103.52" y2="80.88" id="k" gradientUnits="userSpaceOnUse"><stop offset="0" stop-color="#555"/><stop offset="1" stop-color="#bbb"/></linearGradient><linearGradient x1="62.85" y1="95.41" x2="62.85" y2="79.48" id="l" gradientUnits="userSpaceOnUse"><stop offset="0" stop-color="#323232"/><stop offset=".29" stop-color="#292929"/><stop offset=".77" stop-color="#0f0f0f"/><stop offset="1"/></linearGradient><linearGradient x1="21.88" y1="81.05" x2="103.82" y2="81.05" id="m" gradientUnits="userSpaceOnUse"><stop offset="0" stop-color="#fff"/><stop offset=".19" stop-color="#f6f6f6"/><stop offset=".5" stop-color="#ddd"/><stop offset="1" stop-color="#fff"/></linearGradient><linearGradient x1="3.04" y1="71.51" x2="122.66" y2="71.51" id="n" gradientUnits="userSpaceOnUse"><stop offset="0" stop-color="#323232"/><stop offset=".5" stop-color="#bbb"/><stop offset="1" stop-color="#555"/></linearGradient><radialGradient cx="62.5" cy="74.4" r="13.66" id="o" gradientUnits="userSpaceOnUse"><stop offset="0" stop-color="#888"/><stop offset=".44" stop-color="#323232"/><stop offset=".66" stop-color="#303030"/><stop offset=".79" stop-color="#272727"/><stop offset=".89" stop-color="#191919"/><stop offset=".98" stop-color="#060606"/><stop offset="1"/></radialGradient><linearGradient x1="26.43" y1="71.25" x2="26.43" y2="39.39" id="p" gradientUnits="userSpaceOnUse"><stop offset=".01" stop-color="#555"/><stop offset=".12" stop-color="#888"/><stop offset=".22" stop-color="#8c8c8c"/><stop offset=".33" stop-color="#999"/><stop offset=".45" stop-color="#afafaf"/><stop offset=".5" stop-color="#bbb"/><stop offset=".56" stop-color="#a7a7a7"/><stop offset=".69" stop-color="#848484"/><stop offset=".81" stop-color="#6a6a6a"/><stop offset=".91" stop-color="#5a5a5a"/><stop offset="1" stop-color="#555"/></linearGradient><linearGradient x1="99.26" y1="71.25" x2="99.26" y2="39.39" id="q" gradientUnits="userSpaceOnUse"><stop offset=".01" stop-color="#555"/><stop offset=".12" stop-color="#888"/><stop offset=".22" stop-color="#8c8c8c"/><stop offset=".33" stop-color="#999"/><stop offset=".45" stop-color="#afafaf"/><stop offset=".5" stop-color="#bbb"/><stop offset=".56" stop-color="#a7a7a7"/><stop offset=".69" stop-color="#848484"/><stop offset=".81" stop-color="#6a6a6a"/><stop offset=".91" stop-color="#5a5a5a"/><stop offset="1" stop-color="#555"/></linearGradient><linearGradient x1="62.81" y1="71.25" x2="62.81" y2="51.68" id="r" gradientUnits="userSpaceOnUse"><stop offset="0" stop-color="#323232"/><stop offset=".44" stop-color="#555"/><stop offset=".59" stop-color="#555"/><stop offset=".78" stop-color="#555"/><stop offset=".82" stop-color="#585858"/><stop offset=".84" stop-color="#616161"/><stop offset=".87" stop-color="#717171"/><stop offset=".89" stop-color="#878787"/><stop offset=".89" stop-color="#888"/><stop offset=".96" stop-color="#eee"/></linearGradient><radialGradient cx="62.85" cy="71.6" r="67.11" id="s" gradientUnits="userSpaceOnUse"><stop offset="0" stop-color="#eee"/><stop offset=".24" stop-color="#b3b3b3"/><stop offset=".63" stop-color="#999"/><stop offset=".84" stop-color="#999"/><stop offset=".97" stop-color="#666"/></radialGradient><linearGradient x1="3.76" y1="95.41" x2="3.76" y2="51.64" id="t" gradientUnits="userSpaceOnUse"><stop offset="0" stop-color="#888"/><stop offset="1" stop-color="#bbb"/></linearGradient><linearGradient x1="121.94" y1="95.41" x2="121.94" y2="51.64" id="u" gradientUnits="userSpaceOnUse"><stop offset="0" stop-color="#888"/><stop offset="1" stop-color="#bbb"/></linearGradient><linearGradient x1="62.85" y1="95.41" x2="62.85" y2="51.64" id="v" gradientUnits="userSpaceOnUse"><stop offset="0" stop-color="#d8d8d8"/><stop offset=".04" stop-color="#8d8d8d"/><stop offset=".07" stop-color="#bbb"/><stop offset=".44" stop-color="#ddd"/><stop offset=".59" stop-color="#ddd"/><stop offset=".78" stop-color="#eee"/><stop offset=".93" stop-color="#eee"/><stop offset=".95" stop-color="#eee"/><stop offset=".98" stop-color="#fff"/><stop offset="1" stop-color="#eee"/></linearGradient><linearGradient id="w"><stop offset="0" stop-color="#fff"/><stop offset="1" stop-color="#fff" stop-opacity=".05"/></linearGradient></defs><path d="M6.35.1C4.81.1 3.57.38 2.66.96A3.67 3.67 0 0 0 1 4.22c0 1.91 1.54 4.47 2.01 5.2.54.85 1.13 1.61 1.65 2.16.68.7 1.21 1.03 1.69 1.03s1.01-.33 1.69-1.03a15.2 15.2 0 0 0 1.65-2.15c.47-.74 2-3.3 2-5.21 0-1.42-.57-2.54-1.65-3.25A6.75 6.75 0 0 0 6.35.1z" fill="url(#y)"/><path d="M6.35.1C4.81.1 3.57.38 2.66.96A3.67 3.67 0 0 0 1 4.22c0 1.91 1.54 4.47 2.01 5.2.54.85 1.13 1.61 1.65 2.16.68.7 1.21 1.03 1.69 1.03s1.01-.33 1.69-1.03a15.2 15.2 0 0 0 1.65-2.15c.47-.74 2-3.3 2-5.21 0-1.42-.57-2.54-1.65-3.25A6.75 6.75 0 0 0 6.35.1zm0 .03C6.91.15 7.44.2 7.9.31a5.82 5.82 0 0 1 1.6.66 3.65 3.65 0 0 1 1.24 1.36c.14.27.25.57.32.88a4.61 4.61 0 0 1-.14 2.53c-.15.52-.36 1.04-.58 1.52-.44.97-.95 1.8-1.18 2.17a15.2 15.2 0 0 1-1.65 2.15 4.9 4.9 0 0 1-.92.78.96.96 0 0 1-.24.1.96.96 0 0 1-.24-.1 4.76 4.76 0 0 1-.92-.78 14.41 14.41 0 0 1-1.65-2.15 19.2 19.2 0 0 1-1.18-2.17c-.22-.48-.43-1-.58-1.52a4.6 4.6 0 0 1-.14-2.52 3.73 3.73 0 0 1 .84-1.64 3.65 3.65 0 0 1 1.45-1A6.83 6.83 0 0 1 6.35.13z" opacity=".2"/><path d="M4.09 1.925a.797.797 0 0 0-.788.788.797.797 0 0 0 .445.72v3.325a.797.797 0 0 0-.445.72.797.797 0 0 0 .788.788.797.797 0 0 0 .72-.454h3.325a.797.797 0 0 0 .72.454.797.797 0 0 0 .788-.788.797.797 0 0 0-.454-.72V3.433a.797.797 0 0 0 .454-.72.797.797 0 0 0-.788-.788.797.797 0 0 0-.72.445H4.81a.797.797 0 0 0-.72-.445zm.797.9h3.171a.797.797 0 0 0 .146.35l-.506.515-.111.103a.454.454 0 0 0-.215-.06.454.454 0 0 0-.394.231H5.95a.454.454 0 0 0-.395-.231.454.454 0 0 0-.213.06l-.112-.112-.506-.505a.797.797 0 0 0 .146-.343zm3.505.522l.009.009a.797.797 0 0 0 .343.146V6.68a.797.797 0 0 0-.343.146l-.343-.343-.171-.163-.103-.111a.454.454 0 0 0 .06-.215.454.454 0 0 0-.231-.394V4.573a.454.454 0 0 0 .23-.395.454.454 0 0 0-.06-.214l.104-.111zm-3.83.009l.514.514.103.103a.454.454 0 0 0-.06.214.454.454 0 0 0 .23.394V5.61a.454.454 0 0 0-.23.394.454.454 0 0 0 .06.214l-.112.112-.505.505a.797.797 0 0 0-.343-.146V3.51a.797.797 0 0 0 .343-.146zm1.456.831h.917a.454.454 0 0 0 .455.454v.909a.454.454 0 0 0-.455.454h-.917a.454.454 0 0 0-.454-.454V4.64a.454.454 0 0 0 .454-.454zm-.051 2.04h1.028a.454.454 0 0 0 .395.231.454.454 0 0 0 .214-.06l.111.112.506.505a.797.797 0 0 0-.146.343H4.887a.797.797 0 0 0-.146-.343l.506-.514.111-.103a.454.454 0 0 0 .215.06.454.454 0 0 0 .394-.231z" opacity=".5"/><path d="M3.967 1.802a.797.797 0 0 0-.788.788.797.797 0 0 0 .446.72v3.325a.797.797 0 0 0-.446.72.797.797 0 0 0 .788.789.797.797 0 0 0 .72-.455h3.325a.797.797 0 0 0 .72.455.797.797 0 0 0 .789-.788.797.797 0 0 0-.454-.72V3.31a.797.797 0 0 0 .454-.72.797.797 0 0 0-.788-.788.797.797 0 0 0-.72.446H4.687a.797.797 0 0 0-.72-.446zm.798.9h3.17a.797.797 0 0 0 .146.351l-.506.514-.11.104a.454.454 0 0 0-.215-.06.454.454 0 0 0-.394.23H5.827a.454.454 0 0 0-.394-.23.454.454 0 0 0-.214.06l-.112-.112-.505-.506a.797.797 0 0 0 .145-.343zm3.505.523l.008.008a.797.797 0 0 0 .343.146v3.18a.797.797 0 0 0-.343.145l-.343-.343-.17-.163-.104-.11a.454.454 0 0 0 .06-.215.454.454 0 0 0-.231-.394V4.45a.454.454 0 0 0 .231-.394.454.454 0 0 0-.06-.214l.103-.112zm-3.83.008l.513.515.103.102a.454.454 0 0 0-.06.215.454.454 0 0 0 .231.394v1.028a.454.454 0 0 0-.23.394.454.454 0 0 0 .059.215l-.112.111-.505.505a.797.797 0 0 0-.343-.145v-3.18a.797.797 0 0 0 .343-.145zm1.456.832h.917a.454.454 0 0 0 .454.454v.908a.454.454 0 0 0-.454.454h-.917a.454.454 0 0 0-.454-.454V4.52a.454.454 0 0 0 .454-.454zm-.052 2.039h1.029a.454.454 0 0 0 .394.232.454.454 0 0 0 .214-.06l.112.111.505.506a.797.797 0 0 0-.145.343H4.765a.797.797 0 0 0-.146-.343l.506-.514.11-.104a.454.454 0 0 0 .215.06.454.454 0 0 0 .394-.231z" fill="#f9f9f9"/></svg>