<?xml version="1.0" encoding="UTF-8" standalone="no"?>
<svg
   xmlns:dc="http://purl.org/dc/elements/1.1/"
   xmlns:cc="http://creativecommons.org/ns#"
   xmlns:rdf="http://www.w3.org/1999/02/22-rdf-syntax-ns#"
   xmlns:svg="http://www.w3.org/2000/svg"
   xmlns="http://www.w3.org/2000/svg"
   xmlns:xlink="http://www.w3.org/1999/xlink"
   xmlns:sodipodi="http://sodipodi.sourceforge.net/DTD/sodipodi-0.dtd"
   xmlns:inkscape="http://www.inkscape.org/namespaces/inkscape"
   viewBox="0 0 48 48"
   version="1.1"
   id="svg23"
   sodipodi:docname="khangman.svg"
   inkscape:version="0.92.4 (5da689c313, 2019-01-14)">
  <metadata
     id="metadata27">
    <rdf:RDF>
      <cc:Work
         rdf:about="">
        <dc:format>image/svg+xml</dc:format>
        <dc:type
           rdf:resource="http://purl.org/dc/dcmitype/StillImage" />
        <dc:title></dc:title>
      </cc:Work>
    </rdf:RDF>
  </metadata>
  <sodipodi:namedview
     pagecolor="#ffffff"
     bordercolor="#666666"
     borderopacity="1"
     objecttolerance="10"
     gridtolerance="10"
     guidetolerance="10"
     inkscape:pageopacity="0"
     inkscape:pageshadow="2"
     inkscape:window-width="1112"
     inkscape:window-height="480"
     id="namedview25"
     showgrid="false"
     inkscape:zoom="4.9166667"
     inkscape:cx="2.1355932"
     inkscape:cy="24"
     inkscape:window-x="0"
     inkscape:window-y="25"
     inkscape:window-maximized="0"
     inkscape:current-layer="svg23" />
  <defs
     id="defs13">
    <linearGradient
       id="b">
      <stop
         offset="0"
         stop-color="teal"
         id="stop2" />
      <stop
         offset="1"
         stop-color="#d5f"
         id="stop4" />
    </linearGradient>
    <linearGradient
       id="a">
      <stop
         stop-color="#fff"
         stop-opacity=".33"
         offset="0"
         id="stop7" />
      <stop
         stop-color="#fff"
         stop-opacity=".6"
         offset="1"
         id="stop9" />
    </linearGradient>
    <linearGradient
       xlink:href="#b"
       id="c"
       x1="-11.139"
       y1="-3.782"
       x2="46.297"
       y2="33.435"
       gradientUnits="userSpaceOnUse" />
  </defs>
  <path
     d="m 24,0.35 c -5.83,0 -10.52,1.12 -13.93,3.33 -4.1,2.66 -6.27,6.9 -6.27,12.27 0,7.23 5.8,16.88 7.58,19.67 a 54.47,54.47 0 0 0 6.25,8.16 c 2.54,2.64 4.57,3.87 6.37,3.87 1.8,0 3.83,-1.23 6.37,-3.87 2,-2.08 4.22,-4.97 6.25,-8.16 C 38.4,32.83 44.2,23.18 44.2,15.95 44.2,10.58 42.04,6.33 37.94,3.68 34.52,1.47 29.84,0.35 24,0.35 Z"
     id="path15"
     style="fill:url(#c)"
     inkscape:connector-curvature="0" />
  <path
     d="m 3.93,14.74 c -0.03,0.4 -0.13,0.78 -0.13,1.2 0,7.24 5.8,16.9 7.58,19.68 a 54.47,54.47 0 0 0 6.25,8.16 c 2.54,2.64 4.57,3.87 6.37,3.87 1.8,0 3.83,-1.23 6.37,-3.87 2,-2.08 4.22,-4.97 6.25,-8.16 1.78,-2.79 7.58,-12.44 7.58,-19.67 0,-0.43 -0.1,-0.8 -0.13,-1.21 a 21.6,21.6 0 0 1 -0.8,4.94 43.2,43.2 0 0 1 -2.2,5.77 69.59,69.59 0 0 1 -4.45,8.17 54.46,54.46 0 0 1 -6.25,8.16 17.98,17.98 0 0 1 -3.46,2.93 c -1.05,0.64 -2,0.94 -2.91,0.94 -0.9,0 -1.86,-0.3 -2.9,-0.94 -1.06,-0.64 -2.2,-1.6 -3.47,-2.93 -2,-2.08 -4.22,-4.97 -6.25,-8.16 -0.89,-1.4 -2.78,-4.5 -4.46,-8.17 A 43.2,43.2 0 0 1 4.73,19.68 21.6,21.6 0 0 1 3.93,14.74 Z"
     id="path17"
     inkscape:connector-curvature="0"
     style="opacity:0.2;fill:#1c1f24" />
  <path
     d="M 24.248,0.375 V 4.934 L 24.18,4.973 a 18.442,18.442 0 0 1 0.068,-0.006 v 1.64 l 1.297,0.649 1.299,0.65 V 0.652 C 25.951,0.586 25.204,0.381 24.248,0.375 Z m -1.334,6.709 -0.34,0.035 a 1.366,1.366 0 0 0 -0.924,0.922 1.537,1.537 0 0 0 0,0.684 1.366,1.366 0 0 0 0.342,0.58 l 0.137,0.136 2.834,1.434 2.973,1.469 c 0.58,0.205 1.263,-0.103 1.537,-0.684 A 1.298,1.298 0 0 0 29.164,10.123 169.84,169.84 0 0 0 23.256,7.154 1.366,1.366 0 0 0 22.914,7.084 Z m -0.102,3.758 -0.341,0.068 a 1.195,1.195 0 0 0 -0.514,0.342 1.195,1.195 0 0 0 -0.34,0.58 1.264,1.264 0 0 0 0.069,0.889 c 0.102,0.205 0.239,0.34 0.41,0.476 l 5.84,2.938 a 1.708,1.708 0 0 0 0.683,0 1.571,1.571 0 0 0 0.512,-0.274 c 0.17,-0.102 0.34,-0.34 0.408,-0.511 a 1.366,1.366 0 0 0 -0.102,-1.127 1.503,1.503 0 0 0 -0.544,-0.512 936.591,936.591 0 0 1 -5.706,-2.8 1.469,1.469 0 0 0 -0.375,-0.036 z m -0.273,3.69 a 1.332,1.332 0 0 0 -0.41,2.388 20.389,20.389 0 0 0 1.877,0.924 l -0.34,0.681 c -0.342,0.581 -0.751,1.094 -2.322,3.006 -2.05,2.46 -2.732,3.415 -3.45,4.576 a 9.972,9.972 0 0 0 -1.331,3.28 7.445,7.445 0 0 0 5.021,8.605 c 1.708,0.65 3.858,0.82 5.873,0.547 a 8.88,8.88 0 0 0 5.022,-2.254 c 1.263,-1.23 1.98,-2.8 2.15,-4.713 v -1.4 c -0.103,-1.366 -0.58,-2.733 -1.469,-4.201 a 27.868,27.868 0 0 0 -2.664,-3.584 l -1.64,-2.051 -0.477,-0.58 h 0.101 a 1.298,1.298 0 0 0 0.616,-0.342 1.298,1.298 0 0 0 0,-1.844 L 28.926,17.365 26.193,15.998 23.324,14.6 a 1.673,1.673 0 0 0 -0.375,-0.069 h -0.41 z m 3.004,5.94 v 0.034 l 0.24,0.273 c 0.342,0.478 0.752,0.992 1.81,2.221 l 1.366,1.674 c 1.844,2.288 2.835,4.099 3.074,5.601 v 1.366 c -0.17,1.332 -0.649,2.22 -1.537,2.937 a 6.83,6.83 0 0 1 -3.107,1.297 c -1.845,0.342 -3.757,0.17 -5.328,-0.479 a 5.464,5.464 0 0 1 -1.811,-1.195 3.415,3.415 0 0 1 -0.717,-0.99 c -0.341,-0.683 -0.476,-1.367 -0.476,-2.29 0,-0.511 -0.002,-0.681 0.134,-1.16 0.342,-1.229 1.128,-2.63 2.426,-4.406 l 1.639,-1.978 1.195,-1.436 1.026,-1.4 0.066,-0.068 z"
     id="path19"
     inkscape:connector-curvature="0"
     style="fill:#3e3748" />
  <path
     d="m 24,0.35 c -0.649,0 -1.132,0.157 -1.752,0.185 V 2.934 L 22.18,2.973 a 18.442,18.442 0 0 1 0.068,-0.006 v 1.64 l 1.297,0.649 1.299,0.65 V 0.44 C 24.538,0.433 24.313,0.35 24,0.35 Z m -3.086,4.734 -0.34,0.035 a 1.366,1.366 0 0 0 -0.924,0.922 1.537,1.537 0 0 0 0,0.684 1.366,1.366 0 0 0 0.342,0.58 l 0.137,0.136 2.834,1.434 2.973,1.469 c 0.58,0.205 1.263,-0.103 1.537,-0.684 A 1.298,1.298 0 0 0 27.164,8.123 169.84,169.84 0 0 0 21.256,5.154 1.366,1.366 0 0 0 20.914,5.084 Z M 20.812,8.842 20.471,8.91 a 1.195,1.195 0 0 0 -0.514,0.342 1.195,1.195 0 0 0 -0.34,0.58 1.264,1.264 0 0 0 0.069,0.889 c 0.102,0.205 0.239,0.34 0.41,0.476 l 5.84,2.938 a 1.708,1.708 0 0 0 0.683,0 1.571,1.571 0 0 0 0.512,-0.274 c 0.17,-0.102 0.34,-0.34 0.408,-0.511 a 1.366,1.366 0 0 0 -0.102,-1.127 1.503,1.503 0 0 0 -0.544,-0.512 936.591,936.591 0 0 1 -5.706,-2.8 1.469,1.469 0 0 0 -0.375,-0.036 z m -0.273,3.69 a 1.332,1.332 0 0 0 -0.41,2.388 20.389,20.389 0 0 0 1.877,0.924 l -0.34,0.681 c -0.342,0.581 -0.751,1.094 -2.322,3.006 -2.05,2.46 -2.732,3.415 -3.45,4.576 a 9.972,9.972 0 0 0 -1.331,3.28 7.445,7.445 0 0 0 5.021,8.605 c 1.708,0.65 3.858,0.82 5.873,0.547 a 8.88,8.88 0 0 0 5.022,-2.254 c 1.263,-1.23 1.98,-2.8 2.15,-4.713 v -1.4 c -0.103,-1.366 -0.58,-2.733 -1.469,-4.201 a 27.868,27.868 0 0 0 -2.664,-3.584 l -1.64,-2.051 -0.477,-0.58 h 0.101 a 1.298,1.298 0 0 0 0.616,-0.342 1.298,1.298 0 0 0 0,-1.844 L 26.926,15.365 24.193,13.998 21.324,12.6 a 1.673,1.673 0 0 0 -0.375,-0.069 z m 3.004,5.94 v 0.034 l 0.24,0.273 c 0.342,0.478 0.752,0.992 1.81,2.221 l 1.366,1.674 c 1.844,2.288 2.835,4.099 3.074,5.601 v 1.366 c -0.17,1.332 -0.649,2.22 -1.537,2.937 a 6.83,6.83 0 0 1 -3.107,1.297 c -1.845,0.342 -3.757,0.17 -5.328,-0.479 a 5.464,5.464 0 0 1 -1.811,-1.195 3.415,3.415 0 0 1 -0.717,-0.99 c -0.341,-0.683 -0.476,-1.367 -0.476,-2.29 0,-0.511 -0.002,-0.681 0.134,-1.16 0.342,-1.229 1.128,-2.63 2.426,-4.406 l 1.639,-1.978 1.195,-1.436 1.026,-1.4 z"
     id="path21"
     inkscape:connector-curvature="0"
     style="fill:#e3d7f4" />
</svg>
