<svg xmlns="http://www.w3.org/2000/svg" xmlns:xlink="http://www.w3.org/1999/xlink" viewBox="0 0 48 48"><defs><linearGradient id="b"><stop offset="0" stop-color="teal"/><stop offset="1" stop-color="#d5f"/></linearGradient><linearGradient id="a"><stop stop-color="#fff" stop-opacity=".33" offset="0"/><stop stop-color="#fff" stop-opacity=".6" offset="1"/></linearGradient><linearGradient xlink:href="#b" id="c" x1="-11.139" y1="-3.782" x2="46.297" y2="33.435" gradientUnits="userSpaceOnUse"/></defs><path fill="url(#c)" d="M24 .35c-5.83 0-10.52 1.12-13.93 3.33-4.1 2.66-6.27 6.9-6.27 12.27 0 7.23 5.8 16.88 7.58 19.67a54.47 54.47 0 0 0 6.25 8.16c2.54 2.64 4.57 3.87 6.37 3.87 1.8 0 3.83-1.23 6.37-3.87 2-2.08 4.22-4.97 6.25-8.16 1.78-2.79 7.58-12.44 7.58-19.67 0-5.37-2.16-9.62-6.26-12.27C34.52 1.47 29.84.35 24 .35z"/><path opacity=".2" fill="#1c1f24" d="M3.93 14.74c-.03.4-.13.78-.13 1.2 0 7.24 5.8 16.9 7.58 19.68a54.47 54.47 0 0 0 6.25 8.16c2.54 2.64 4.57 3.87 6.37 3.87 1.8 0 3.83-1.23 6.37-3.87 2-2.08 4.22-4.97 6.25-8.16 1.78-2.79 7.58-12.44 7.58-19.67 0-.43-.1-.8-.13-1.21a21.6 21.6 0 0 1-.8 4.94 43.2 43.2 0 0 1-2.2 5.77 69.59 69.59 0 0 1-4.45 8.17 54.46 54.46 0 0 1-6.25 8.16 17.98 17.98 0 0 1-3.46 2.93c-1.05.64-2 .94-2.91.94-.9 0-1.86-.3-2.9-.94-1.06-.64-2.2-1.6-3.47-2.93-2-2.08-4.22-4.97-6.25-8.16-.89-1.4-2.78-4.5-4.46-8.17a43.2 43.2 0 0 1-2.19-5.77 21.6 21.6 0 0 1-.8-4.94z"/><path d="M24.248.375v4.559l-.068.039a18.442 18.442 0 0 1 .068-.006v1.64l1.297.649 1.299.65V.652c-.893-.066-1.64-.271-2.596-.277zm-1.334 6.709l-.34.035a1.366 1.366 0 0 0-.924.922 1.537 1.537 0 0 0 0 .684 1.366 1.366 0 0 0 .342.58l.137.136 2.834 1.434 2.973 1.469c.58.205 1.263-.103 1.537-.684a1.298 1.298 0 0 0-.309-1.537 169.84 169.84 0 0 0-5.908-2.969 1.366 1.366 0 0 0-.342-.07zm-.102 3.758l-.341.068a1.195 1.195 0 0 0-.514.342 1.195 1.195 0 0 0-.34.58 1.264 1.264 0 0 0 .069.889c.102.205.239.34.41.476l5.84 2.938a1.708 1.708 0 0 0 .683 0 1.571 1.571 0 0 0 .512-.274c.17-.102.34-.34.408-.511a1.366 1.366 0 0 0-.102-1.127 1.503 1.503 0 0 0-.544-.512 936.591 936.591 0 0 1-5.706-2.8 1.469 1.469 0 0 0-.375-.036v-.033zm-.273 3.69a1.332 1.332 0 0 0-.41 2.388 20.389 20.389 0 0 0 1.877.924l-.34.681c-.342.581-.751 1.094-2.322 3.006-2.05 2.46-2.732 3.415-3.45 4.576a9.972 9.972 0 0 0-1.331 3.28 7.445 7.445 0 0 0 5.021 8.605c1.708.65 3.858.82 5.873.547a8.88 8.88 0 0 0 5.022-2.254c1.263-1.23 1.98-2.8 2.15-4.713v-1.4c-.103-1.366-.58-2.733-1.469-4.201a27.868 27.868 0 0 0-2.664-3.584l-1.64-2.051-.477-.58h.101a1.298 1.298 0 0 0 .616-.342 1.298 1.298 0 0 0 0-1.844l-.17-.205-2.733-1.367-2.869-1.398a1.673 1.673 0 0 0-.375-.069h-.41zm3.004 5.94v.034l.24.273c.342.478.752.992 1.81 2.221l1.366 1.674c1.844 2.288 2.835 4.099 3.074 5.601v1.366c-.17 1.332-.649 2.22-1.537 2.937a6.83 6.83 0 0 1-3.107 1.297c-1.845.342-3.757.17-5.328-.479a5.464 5.464 0 0 1-1.811-1.195 3.415 3.415 0 0 1-.717-.99c-.341-.683-.476-1.367-.476-2.29 0-.511-.002-.681.134-1.16.342-1.229 1.128-2.63 2.426-4.406l1.639-1.978 1.195-1.436 1.026-1.4.066-.068z" fill="#3e3748"/><path d="M24 .35c-.649 0-1.132.157-1.752.185v2.399l-.068.039a18.442 18.442 0 0 1 .068-.006v1.64l1.297.649 1.299.65V.44C24.538.433 24.313.35 24 .35zm-3.086 4.734l-.34.035a1.366 1.366 0 0 0-.924.922 1.537 1.537 0 0 0 0 .684 1.366 1.366 0 0 0 .342.58l.137.136 2.834 1.434 2.973 1.469c.58.205 1.263-.103 1.537-.684a1.298 1.298 0 0 0-.309-1.537 169.84 169.84 0 0 0-5.908-2.969 1.366 1.366 0 0 0-.342-.07zm-.102 3.758l-.341.068a1.195 1.195 0 0 0-.514.342 1.195 1.195 0 0 0-.34.58 1.264 1.264 0 0 0 .069.889c.102.205.239.34.41.476l5.84 2.938a1.708 1.708 0 0 0 .683 0 1.571 1.571 0 0 0 .512-.274c.17-.102.34-.34.408-.511a1.366 1.366 0 0 0-.102-1.127 1.503 1.503 0 0 0-.544-.512 936.591 936.591 0 0 1-5.706-2.8 1.469 1.469 0 0 0-.375-.036zm-.273 3.69a1.332 1.332 0 0 0-.41 2.388 20.389 20.389 0 0 0 1.877.924l-.34.681c-.342.581-.751 1.094-2.322 3.006-2.05 2.46-2.732 3.415-3.45 4.576a9.972 9.972 0 0 0-1.331 3.28 7.445 7.445 0 0 0 5.021 8.605c1.708.65 3.858.82 5.873.547a8.88 8.88 0 0 0 5.022-2.254c1.263-1.23 1.98-2.8 2.15-4.713v-1.4c-.103-1.366-.58-2.733-1.469-4.201a27.868 27.868 0 0 0-2.664-3.584l-1.64-2.051-.477-.58h.101a1.298 1.298 0 0 0 .616-.342 1.298 1.298 0 0 0 0-1.844l-.17-.205-2.733-1.367-2.869-1.398a1.673 1.673 0 0 0-.375-.069zm3.004 5.94v.034l.24.273c.342.478.752.992 1.81 2.221l1.366 1.674c1.844 2.288 2.835 4.099 3.074 5.601v1.366c-.17 1.332-.649 2.22-1.537 2.937a6.83 6.83 0 0 1-3.107 1.297c-1.845.342-3.757.17-5.328-.479a5.464 5.464 0 0 1-1.811-1.195 3.415 3.415 0 0 1-.717-.99c-.341-.683-.476-1.367-.476-2.29 0-.511-.002-.681.134-1.16.342-1.229 1.128-2.63 2.426-4.406l1.639-1.978 1.195-1.436 1.026-1.4z" fill="#e3d7f4"/></svg>