<?xml version="1.0" encoding="UTF-8" standalone="no"?>
<svg
   xmlns:dc="http://purl.org/dc/elements/1.1/"
   xmlns:cc="http://creativecommons.org/ns#"
   xmlns:rdf="http://www.w3.org/1999/02/22-rdf-syntax-ns#"
   xmlns:svg="http://www.w3.org/2000/svg"
   xmlns="http://www.w3.org/2000/svg"
   xmlns:xlink="http://www.w3.org/1999/xlink"
   xmlns:sodipodi="http://sodipodi.sourceforge.net/DTD/sodipodi-0.dtd"
   xmlns:inkscape="http://www.inkscape.org/namespaces/inkscape"
   width="48"
   height="48"
   version="1.1"
   id="svg27"
   sodipodi:docname="kronometer.svg"
   inkscape:version="0.92.4 (5da689c313, 2019-01-14)">
  <metadata
     id="metadata31">
    <rdf:RDF>
      <cc:Work
         rdf:about="">
        <dc:format>image/svg+xml</dc:format>
        <dc:type
           rdf:resource="http://purl.org/dc/dcmitype/StillImage" />
        <dc:title></dc:title>
      </cc:Work>
    </rdf:RDF>
  </metadata>
  <sodipodi:namedview
     pagecolor="#ffffff"
     bordercolor="#666666"
     borderopacity="1"
     objecttolerance="10"
     gridtolerance="10"
     guidetolerance="10"
     inkscape:pageopacity="0"
     inkscape:pageshadow="2"
     inkscape:window-width="1112"
     inkscape:window-height="480"
     id="namedview29"
     showgrid="false"
     inkscape:zoom="4.9166667"
     inkscape:cx="2.1355932"
     inkscape:cy="24"
     inkscape:window-x="0"
     inkscape:window-y="25"
     inkscape:window-maximized="0"
     inkscape:current-layer="svg27" />
  <defs
     id="defs19">
    <linearGradient
       id="a">
      <stop
         offset="0"
         id="stop2" />
      <stop
         offset="1"
         stop-opacity="0"
         id="stop4" />
    </linearGradient>
    <linearGradient
       id="b">
      <stop
         stop-color="#3daefd"
         id="stop7" />
      <stop
         offset="1"
         stop-color="#24a058"
         id="stop9" />
    </linearGradient>
    <linearGradient
       xlink:href="#b"
       id="e"
       y1="12.42"
       x1="9.268"
       y2="38.819"
       x2="35.667"
       gradientUnits="userSpaceOnUse"
       gradientTransform="translate(-1,-4)" />
    <linearGradient
       id="c">
      <stop
         stop-color="#2c3e50"
         id="stop13" />
      <stop
         offset="1"
         stop-color="#0d352d"
         id="stop15" />
    </linearGradient>
    <linearGradient
       xlink:href="#c"
       id="d"
       x1="17.863"
       y1="46.014"
       x2="17.593"
       y2="2.091"
       gradientUnits="userSpaceOnUse" />
  </defs>
  <path
     d="M 23.71,0.5 C 17.88,0.5 13.2,1.6 9.78,3.82 5.68,6.48 3.5,10.73 3.5,16.1 c 0,7.22 5.8,16.88 7.58,19.67 a 54.48,54.48 0 0 0 6.25,8.16 c 2.54,2.64 4.57,3.87 6.37,3.87 1.8,0 3.83,-1.23 6.37,-3.87 2,-2.08 4.22,-4.98 6.25,-8.16 C 38.1,32.98 43.91,23.32 43.91,16.1 43.91,10.73 41.74,6.48 37.64,3.83 34.24,1.6 29.55,0.49 23.7,0.49 Z"
     id="path21"
     style="fill:url(#d)"
     inkscape:connector-curvature="0" />
  <path
     d="m 23.71,0.35 c -5.83,0 -10.51,1.12 -13.93,3.33 -4.1,2.66 -6.27,6.9 -6.27,12.27 0,7.23 5.8,16.89 7.58,19.68 a 54.48,54.48 0 0 0 6.25,8.15 c 2.54,2.65 4.57,3.88 6.37,3.88 1.8,0 3.83,-1.23 6.37,-3.88 2,-2.07 4.22,-4.97 6.25,-8.15 1.78,-2.8 7.59,-12.45 7.59,-19.68 0,-5.37 -2.17,-9.61 -6.27,-12.27 C 34.24,1.47 29.55,0.35 23.7,0.35 Z m 0,0.14 c 2.12,0.09 4.12,0.28 5.88,0.7 1.16,0.27 2.25,0.62 3.26,1.04 1.01,0.41 1.95,0.9 2.8,1.45 a 12.92,12.92 0 0 1 4.67,5.12 14.1,14.1 0 0 1 1.2,3.34 c 0.26,1.2 0.4,2.47 0.4,3.81 0,1.81 -0.37,3.77 -0.94,5.73 a 43.19,43.19 0 0 1 -2.19,5.78 69.59,69.59 0 0 1 -4.46,8.17 54.47,54.47 0 0 1 -6.25,8.15 17.98,17.98 0 0 1 -3.46,2.93 c -0.32,0.2 -0.62,0.3 -0.9,0.4 -0.3,-0.1 -0.6,-0.2 -0.92,-0.4 A 17.72,17.72 0 0 1 19.34,43.78 54.5,54.5 0 0 1 13.09,35.63 69.6,69.6 0 0 1 8.63,27.46 43.19,43.19 0 0 1 6.44,21.68 20.93,20.93 0 0 1 5.51,15.95 c 0,-1.34 0.13,-2.61 0.4,-3.8 0.27,-1.2 0.67,-2.32 1.2,-3.35 a 12.92,12.92 0 0 1 4.67,-5.12 17.1,17.1 0 0 1 2.8,-1.45 c 1,-0.42 2.1,-0.77 3.26,-1.04 1.75,-0.42 3.76,-0.61 5.86,-0.7 z"
     id="path23"
     inkscape:connector-curvature="0"
     style="opacity:0.2" />
  <path
     d="M 23,4 C 22.492,4 21.994,4.038 21.5,4.09 V 7.105 C 21.993,7.045 22.49,7 23,7 c 0.509,0 1.007,0.036 1.5,0.092 V 4.074 A 16.302,16.302 0 0 0 23,4 Z m 2.67,0.238 -0.781,2.912 c 1.01,0.147 1.982,0.403 2.902,0.766 L 28.571,5.01 A 15.906,15.906 0 0 0 25.67,4.238 Z m 3.994,1.219 -1.504,2.604 c 0.93,0.4 1.793,0.914 2.594,1.51 l 1.51,-2.618 a 15.9,15.9 0 0 0 -2.6,-1.496 z m -8.81,0.727 a 14,14 0 0 0 -2.903,0.775 l 0.258,0.959 A 13,13 0 0 1 21.113,7.15 Z m -3.51,1.021 A 14,14 0 0 0 14.75,8.71 l 0.502,0.87 a 13,13 0 0 1 2.598,-1.5 z m 15.869,0.461 -2.14,2.14 a 12.987,12.987 0 0 1 2.12,2.122 l 2.141,-2.14 A 16.004,16.004 0 0 0 33.213,7.666 Z M 14.227,9.106 A 14,14 0 0 0 12.1,11.22 l 0.718,0.718 a 13,13 0 0 1 2.112,-2.13 z m 21.82,1.63 -2.617,1.51 c 0.595,0.8 1.11,1.664 1.51,2.592 l 2.603,-1.502 a 15.9,15.9 0 0 0 -1.496,-2.6 z M 11.709,11.75 a 14,14 0 0 0 -1.498,2.598 l 0.86,0.498 a 13,13 0 0 1 1.51,-2.594 z m 26.281,2.68 -2.906,0.779 c 0.363,0.92 0.62,1.892 0.766,2.902 l 2.912,-0.78 A 15.906,15.906 0 0 0 37.99,14.43 Z M 9.943,14.95 a 14,14 0 0 0 -0.767,2.9 l 0.978,0.261 a 13,13 0 0 1 0.772,-2.9 z M 18.5,16 a 0.5,0.5 0 1 0 0,1 h 1 a 0.5,0.5 0 1 0 0,-1 z m 8,0 a 0.5,0.5 0 1 0 0,1 h 1 a 0.5,0.5 0 1 0 0,-1 z m 5,0 a 0.5,0.5 0 1 0 0,1 h 1 a 0.5,0.5 0 1 0 0,-1 z m -16,1 C 15.223,17 15,17.223 15,17.5 v 1 a 0.5,0.5 0 1 0 1,0 v -1 C 16,17.223 15.777,17 15.5,17 Z m 5,0 C 20.223,17 20,17.223 20,17.5 v 1 a 0.5,0.5 0 1 0 1,0 v -1 C 21,17.223 20.777,17 20.5,17 Z m 2.5,0 a 1,1 0 0 0 -1,1 1,1 0 0 0 1,1 1,1 0 0 0 1,-1 1,1 0 0 0 -1,-1 z m 5.5,0 C 28.223,17 28,17.223 28,17.5 v 1 a 0.5,0.5 0 1 0 1,0 v -1 C 29,17.223 28.777,17 28.5,17 Z m 5,0 C 33.223,17 33,17.223 33,17.5 v 1 a 0.5,0.5 0 1 0 1,0 v -1 C 34,17.223 33.777,17 33.5,17 Z M 9.098,18.5 A 14,14 0 0 0 9,20 c 0.002,0.501 0.03,1.002 0.086,1.5 h 1.018 A 13,13 0 0 1 10,20 12.99,12.99 0 0 1 10.096,18.5 Z m 26.81,0 C 35.964,18.993 36,19.491 36,20 c 0,0.509 -0.036,1.007 -0.092,1.5 h 3.018 C 38.971,21.006 39,20.507 39,20 39,19.494 38.971,18.994 38.926,18.5 Z M 18.5,19 a 0.5,0.5 0 1 0 0,1 h 1 a 0.5,0.5 0 1 0 0,-1 z m 8,0 a 0.5,0.5 0 1 0 0,1 h 1 a 0.5,0.5 0 1 0 0,-1 z m -11,1 C 15.223,20 15,20.223 15,20.5 v 1 a 0.5,0.5 0 1 0 1,0 v -1 C 16,20.223 15.777,20 15.5,20 Z m 5,0 C 20.223,20 20,20.223 20,20.5 v 1 a 0.5,0.5 0 1 0 1,0 v -1 C 21,20.223 20.777,20 20.5,20 Z m 2.5,0 a 1,1 0 0 0 -1,1 1,1 0 0 0 1,1 1,1 0 0 0 1,-1 1,1 0 0 0 -1,-1 z m 5.5,0 C 28.223,20 28,20.223 28,20.5 v 1 a 0.5,0.5 0 1 0 1,0 v -1 C 29,20.223 28.777,20 28.5,20 Z m 5,0 C 33.223,20 33,20.223 33,20.5 v 1 a 0.5,0.5 0 1 0 1,0 v -1 C 34,20.223 33.777,20 33.5,20 Z m -23.35,1.889 -0.966,0.26 a 14,14 0 0 0 0.775,2.9 l 0.959,-0.258 A 13,13 0 0 1 10.15,21.889 Z m 25.7,0 a 12.947,12.947 0 0 1 -0.766,2.902 l 2.906,0.78 c 0.344,-0.93 0.604,-1.898 0.772,-2.901 z M 18.5,22 a 0.5,0.5 0 1 0 0,1 h 1 a 0.5,0.5 0 1 0 0,-1 z m 8,0 a 0.5,0.5 0 1 0 0,1 h 1 a 0.5,0.5 0 1 0 0,-1 z m -15.42,3.15 -0.875,0.506 a 14,14 0 0 0 1.504,2.594 l 0.87,-0.502 A 13,13 0 0 1 11.08,25.15 Z m 23.86,0.01 c -0.4,0.93 -0.915,1.793 -1.51,2.594 l 2.617,1.51 a 15.9,15.9 0 0 0 1.496,-2.6 z m -22.131,2.91 -0.704,0.703 a 14,14 0 0 0 2.116,2.127 l 0.718,-0.718 a 13,13 0 0 1 -2.13,-2.112 z m 20.384,0.002 a 12.987,12.987 0 0 1 -2.12,2.121 l 2.14,2.141 c 0.772,-0.64 1.482,-1.35 2.121,-2.121 z m -17.945,2.356 -1.508,2.61 a 15.999,15.999 0 0 0 2.592,1.51 l 1.512,-2.616 a 12.984,12.984 0 0 1 -2.596,-1.504 z m 15.506,0.002 c -0.8,0.595 -1.664,1.11 -2.592,1.51 l 1.502,2.603 a 15.9,15.9 0 0 0 2.6,-1.496 z m -12.544,1.648 -0.783,2.918 c 0.928,0.345 1.896,0.61 2.898,0.778 l 0.783,-2.92 A 12.898,12.898 0 0 1 18.21,32.078 Z m 9.58,0.006 c -0.92,0.363 -1.894,0.62 -2.904,0.766 l 0.781,2.912 a 15.906,15.906 0 0 0 2.902,-0.772 z m -6.291,0.82 v 3.022 c 0.494,0.046 0.994,0.074 1.5,0.074 0.507,0 1.006,-0.029 1.5,-0.074 V 32.908 C 24.006,32.964 23.508,33 22.999,33 c -0.509,0 -1.007,-0.04 -1.5,-0.096 z"
     id="path25"
     style="fill:url(#e)"
     inkscape:connector-curvature="0" />
</svg>
