<svg xmlns="http://www.w3.org/2000/svg" xmlns:xlink="http://www.w3.org/1999/xlink" viewBox="0 0 48 48"><defs><linearGradient id="b"><stop offset="0" stop-color="#672178"/><stop offset=".39" stop-color="#ab37c8"/><stop offset=".86" stop-color="#cd87de"/><stop offset="1" stop-color="#ddafe9"/></linearGradient><linearGradient id="h" x1="24" x2="23.71" y1="5.11" y2="46.09" gradientUnits="userSpaceOnUse"><stop offset="0"/><stop stop-opacity="0" offset="1"/></linearGradient><radialGradient id="g" cx="24" cy="17.05" r="9.23" gradientTransform="matrix(2.414 .0178 -.01578 2.1406 -33.65 -20.29)" gradientUnits="userSpaceOnUse"><stop stop-color="#fff" offset="0"/><stop stop-color="#d8d8d8" offset=".41"/><stop offset="1"/></radialGradient><linearGradient xlink:href="#a" id="d" gradientUnits="userSpaceOnUse" x1="8.83" y1="6.6" x2="46.88" y2="43.63" gradientTransform="translate(-.01 -.01)"/><linearGradient id="a"><stop offset="0"/><stop offset="1" stop-opacity="0"/></linearGradient><radialGradient id="e" cx="24" cy="17.05" r="9.23" gradientTransform="matrix(2.414 .0178 -.01578 2.1406 -33.65 -20.29)" gradientUnits="userSpaceOnUse"><stop stop-color="#fff" offset="0"/><stop stop-color="#d8d8d8" offset=".41"/><stop offset="1"/></radialGradient><linearGradient id="f" x1="24" x2="23.71" y1="5.11" y2="46.09" gradientUnits="userSpaceOnUse"><stop offset="0"/><stop stop-opacity="0" offset="1"/></linearGradient><linearGradient xlink:href="#b" id="c" x1="23.39" y1="-2.03" x2="23.72" y2="47.25" gradientUnits="userSpaceOnUse"/></defs><path fill="url(#c)" d="M23.71.5C17.88.5 13.2 1.6 9.78 3.82 5.68 6.48 3.5 10.73 3.5 16.1c0 7.22 5.8 16.88 7.58 19.67a54.47 54.47 0 0 0 6.25 8.16c2.54 2.64 4.57 3.87 6.37 3.87 1.8 0 3.83-1.23 6.37-3.87 2-2.08 4.22-4.98 6.25-8.16 1.78-2.79 7.59-12.45 7.59-19.67 0-5.37-2.17-9.62-6.27-12.27C34.23 1.6 29.55.49 23.7.49z"/><path opacity=".2" d="M23.71.5C17.88.5 13.2 1.6 9.78 3.82 5.68 6.48 3.5 10.73 3.5 16.1c0 7.22 5.8 16.88 7.58 19.67a54.47 54.47 0 0 0 6.25 8.16c2.54 2.64 4.57 3.87 6.37 3.87 1.8 0 3.83-1.23 6.37-3.87 2-2.08 4.22-4.98 6.25-8.16 1.78-2.79 7.59-12.45 7.59-19.67 0-5.37-2.17-9.62-6.27-12.27C34.23 1.6 29.55.49 23.7.49zm0 .14c2.12.08 4.12.27 5.88.69 1.16.28 2.25.63 3.26 1.04 1.01.42 1.95.9 2.8 1.46a12.92 12.92 0 0 1 4.67 5.12c.53 1.03.93 2.14 1.2 3.34.26 1.2.4 2.47.4 3.8 0 1.81-.37 3.77-.94 5.74a43.19 43.19 0 0 1-2.19 5.77 69.59 69.59 0 0 1-4.46 8.17 54.47 54.47 0 0 1-6.25 8.16 17.98 17.98 0 0 1-3.46 2.93c-.32.2-.62.3-.9.39-.3-.09-.6-.2-.92-.4a17.62 17.62 0 0 1-3.46-2.92c-2-2.08-4.21-4.98-6.25-8.16a69.6 69.6 0 0 1-4.46-8.17 43.2 43.2 0 0 1-2.19-5.77 20.93 20.93 0 0 1-.93-5.73c0-1.34.13-2.62.4-3.81.27-1.2.67-2.31 1.2-3.34a13.06 13.06 0 0 1 4.67-5.12c.85-.56 1.78-1.04 2.8-1.46s2.1-.76 3.26-1.04c1.75-.42 3.76-.6 5.87-.7z"/><path d="M28.41 45.18c.55-.47 1.05-.77 1.66-1.4 2-2.08 4.22-4.98 6.25-8.16.89-1.4 2.79-4.5 4.46-8.17.24-.53.4-1.11.63-1.66L21.76 6.15l-3.57 12.04-8.03 4.1 12.09 12.1-3.8.84z" opacity=".51" fill="url(#d)"/><path d="M17.56 4.56a6.37 6.37 0 0 1 6.37 6.38v9.94H11.18v-9.94a6.38 6.38 0 0 1 6.38-6.38z" fill="#f9f9f9"/><path d="M24 5.11c5.1 0 9.23 4.13 9.23 9.23v14.4H14.77v-14.4c0-5.1 4.14-9.23 9.23-9.23z" opacity=".5" fill="url(#e)" transform="translate(.98 1.04) scale(.69052)"/><path d="M24.94 22.37H10.17a.18.18 0 0 1-.18-.18v-1.14c0-.1.08-.18.18-.18h14.77c.1 0 .18.08.18.18v1.14c0 .1-.08.18-.18.18z" opacity=".76" fill="#686d6d"/><path d="M24.94 22.37H22.3v-1.49h2.65c.1 0 .18.08.18.18v1.13c0 .1-.08.18-.18.18z" opacity=".8" fill="#555656"/><path d="M19.12 10.96h-.92v1.38c0 .1-.08.18-.17.18h-.94a.18.18 0 0 1-.18-.18v-1.38h-.92a.18.18 0 0 1-.18-.18v-.93c0-.1.07-.18.18-.18h.92V7.22c0-.1.08-.18.18-.18h.94c.1 0 .17.09.17.18v2.45h.92c.1 0 .18.07.18.18v.93c0 .1-.07.18-.18.18z" opacity=".7" fill="#686d6d"/><path d="M21.51 14.94H13.6a.27.27 0 1 1 0-.54h7.91a.27.27 0 1 1 0 .54zm0 1.56H13.6a.27.27 0 1 1 0-.54h7.91a.27.27 0 1 1 0 .54zm0 1.56H13.6a.27.27 0 1 1 0-.54h7.91a.27.27 0 1 1 0 .54z" opacity=".68" fill="#686d6d"/><path d="M24 5.11a9.23 9.23 0 0 0-9.23 9.23v14.4h1.94V15.56c0-1.17.2-2.28.57-3.3a8.6 8.6 0 0 1 1.55-2.67 7.3 7.3 0 0 1 2.3-1.81 6.34 6.34 0 0 1 5.64 0 7.3 7.3 0 0 1 2.3 1.8 8.53 8.53 0 0 1 1.55 2.69 9.8 9.8 0 0 1 .57 3.29v13.18h2.03v-14.4c0-5.1-4.12-9.23-9.22-9.23z" opacity=".2" fill="url(#f)" transform="translate(.98 1.04) scale(.69052)"/><path d="M10.03 22.41h2.66v-1.48h-2.66a.18.18 0 0 0-.18.18v1.13c0 .1.08.17.18.17z" opacity=".8" fill="#555656"/><path d="M17.56 12.52h.47c.1 0 .17-.08.17-.18v-1.38h.92c.1 0 .18-.08.18-.18v-.93a.18.18 0 0 0-.18-.18h-.92V7.22a.18.18 0 0 0-.17-.18h-.47z" opacity=".46" fill="#333"/><path d="M17.52 5.95c-2.76 0-5 2.36-5 5.3v8.25h10v-8.26c0-2.93-2.23-5.3-5-5.3zm0 .57a4.72 4.72 0 0 1 4.58 4.85v7.55h-9.15v-7.55c0-2.68 2.04-4.85 4.57-4.85z" fill="#f9f9f9"/><path d="M25.96 17.61A6.37 6.37 0 0 1 32.33 24v9.94H19.6V24a6.38 6.38 0 0 1 6.37-6.38z" fill="#f9f9f9"/><path d="M24 5.11c5.1 0 9.23 4.13 9.23 9.23v14.4H14.77v-14.4c0-5.1 4.14-9.23 9.23-9.23z" opacity=".5" fill="url(#g)" transform="translate(9.39 14.08) scale(.69052)"/><path d="M33.35 35.42H18.57a.18.18 0 0 1-.18-.18V34.1c0-.1.08-.18.18-.18h14.78c.1 0 .18.08.18.18v1.14c0 .1-.09.18-.18.18z" opacity=".76" fill="#686d6d"/><path d="M33.35 35.42h-2.66v-1.49h2.66c.1 0 .18.08.18.18v1.13c0 .1-.09.18-.18.18z" opacity=".8" fill="#555656"/><path d="M27.53 24h-.92v1.39c0 .1-.08.18-.18.18h-.94a.18.18 0 0 1-.18-.18V24h-.92a.18.18 0 0 1-.18-.18v-.93c0-.1.08-.18.18-.18h.92v-2.45c0-.1.08-.18.18-.18h.94c.1 0 .18.09.18.18v2.45h.92c.1 0 .18.07.18.18v.93c0 .1-.08.18-.18.18z" opacity=".7" fill="#686d6d"/><path d="M29.92 27.99H22a.27.27 0 1 1 0-.54h7.92a.27.27 0 1 1 0 .54zm0 1.56H22a.27.27 0 1 1 0-.54h7.92a.27.27 0 1 1 0 .54zm0 1.56H22a.27.27 0 1 1 0-.54h7.92a.27.27 0 1 1 0 .54z" opacity=".68" fill="#686d6d"/><path d="M24 5.11a9.23 9.23 0 0 0-9.23 9.23v14.4h1.94V15.56c0-1.17.2-2.28.57-3.3a8.6 8.6 0 0 1 1.55-2.67 7.3 7.3 0 0 1 2.3-1.81 6.34 6.34 0 0 1 5.64 0 7.3 7.3 0 0 1 2.3 1.8 8.53 8.53 0 0 1 1.55 2.69 9.8 9.8 0 0 1 .57 3.29v13.18h2.03v-14.4c0-5.1-4.12-9.23-9.22-9.23z" opacity=".2" fill="url(#h)" transform="translate(9.39 14.08) scale(.69052)"/><path d="M18.43 35.46h2.67v-1.48h-2.67a.18.18 0 0 0-.18.18v1.13c0 .1.08.17.18.17z" opacity=".8" fill="#555656"/><path d="M25.96 25.57h.47c.1 0 .18-.08.18-.18V24h.92c.1 0 .18-.09.18-.18v-.93a.18.18 0 0 0-.18-.18h-.92v-2.45a.18.18 0 0 0-.18-.18h-.47z" opacity=".46" fill="#333"/><path d="M25.92 19c-2.76 0-5 2.36-5 5.3v8.25h10.01v-8.26c0-2.93-2.24-5.3-5-5.3zm0 .57a4.72 4.72 0 0 1 4.58 4.85v7.55h-9.15v-7.55c0-2.68 2.05-4.85 4.57-4.85z" fill="#f9f9f9"/></svg>