<svg xmlns="http://www.w3.org/2000/svg" xmlns:xlink="http://www.w3.org/1999/xlink" width="48" height="48" viewBox="0 0 12.7 12.7"><defs><linearGradient id="b"><stop offset="0" stop-color="#b7bec8"/><stop offset="1" stop-color="#535d6c"/></linearGradient><linearGradient id="d"><stop offset="0" stop-color="#fff"/><stop offset="1" stop-color="#535d6c"/></linearGradient><linearGradient id="a"><stop offset="0"/><stop offset="1" stop-opacity=".19"/></linearGradient><linearGradient xlink:href="#a" id="f" gradientUnits="userSpaceOnUse" x1="1.38" y1="2.92" x2="15.55" y2="9.88"/><radialGradient xlink:href="#b" id="e" cx="9.68" cy="2.68" fx="9.68" fy="2.68" r="5.35" gradientTransform="matrix(.06616 1.06853 -1.16839 .07235 12.17 -8.48)" gradientUnits="userSpaceOnUse"/><radialGradient xlink:href="#d" id="c" gradientUnits="userSpaceOnUse" gradientTransform="matrix(.06616 1.06853 -1.16839 .07235 -3.7 -8.48)" cx="9.68" cy="2.68" fx="9.68" fy="2.68" r="5.35"/></defs><path d="M6.35.1C4.81.1 3.57.38 2.66.96A3.67 3.67 0 0 0 1 4.22c0 1.91 1.54 4.47 2.01 5.2.54.85 1.13 1.61 1.65 2.16.68.7 1.21 1.03 1.69 1.03s1.01-.33 1.69-1.03a15.2 15.2 0 0 0 1.65-2.15c.47-.74 2-3.3 2-5.21 0-1.42-.57-2.54-1.65-3.25A6.75 6.75 0 0 0 6.35.1z" fill="url(#e)"/><path d="M7.35 12.16c.22-.16.44-.32.69-.58a15.2 15.2 0 0 0 1.65-2.15 21 21 0 0 0 1.18-2.17c.22-.48.42-1 .57-1.52.15-.52.25-1.04.25-1.52 0-.2-.04-.38-.06-.57L9.88 1.78H3v5.9z" opacity=".5" fill="url(#f)"/><path d="M1.04 3.9c0 .1-.04.2-.04.32 0 1.91 1.54 4.47 2.01 5.2.54.85 1.13 1.61 1.65 2.16.68.7 1.21 1.03 1.69 1.03s1.01-.33 1.69-1.03a15.2 15.2 0 0 0 1.65-2.15c.47-.74 2-3.3 2-5.21 0-.11-.02-.21-.03-.32a5.5 5.5 0 0 1-.21 1.3c-.15.53-.36 1.05-.58 1.53-.44.97-.95 1.8-1.18 2.17a15.2 15.2 0 0 1-1.65 2.15 4.9 4.9 0 0 1-.92.78c-.28.17-.53.25-.77.25s-.5-.08-.77-.25a4.76 4.76 0 0 1-.92-.78A14.41 14.41 0 0 1 3.01 8.9a19.2 19.2 0 0 1-1.18-2.17c-.22-.48-.43-1-.58-1.52a5.66 5.66 0 0 1-.21-1.31z" opacity=".5"/><path d="M3 1.78v5.9h6.88v-5.9zm.33.21h6.23c.06 0 .1.05.1.1v3.88a.1.1 0 0 1-.1.1H3.33a.1.1 0 0 1-.11-.1V2.1c0-.06.05-.1.1-.1zm-.11 4.4h6.45v1.08H3.22z" opacity=".6" fill="#fff"/><path d="M3.54 2.1v.1h-.1v.11h.1v.11h.12v-.1h.1V2.2h-.1v-.1zm2.8 0v.1H6v.11h.33v.11h.11v-.1h.32V2.2h-.32v-.1zm2.79 0v.1h-.1v.11h.1v.11h.12v-.1h.1V2.2h-.1v-.1zm-5.27.1v.11h.33v-.1zm.43 0v.11h.33v-.1zm.43 0v.11h.33v-.1zm.43 0v.11h.33v-.1zm.43 0v.11h.33v-.1zm1.3 0v.11h.32v-.1zm.42 0v.11h.33v-.1zm.43 0v.11h.33v-.1zm.43 0v.11h.33v-.1zm.43 0v.11h.33v-.1zm-5.05.33v.32h.12v-.32zm2.8 0v.32h.11v-.32zm2.79 0v.32h.12v-.32zm-5.59.43v.32h.12v-.32zm2.8 0v.32h.11v-.32zm2.79 0v.32h.12v-.32zm-5.7.43v.1h.11v.22h.12V3.5h.1v-.11h-.22zm.43 0v.1h.33v-.1zm.43 0v.1h.33v-.1zm.43 0v.1h.33v-.1zm.43 0v.1h.33v-.1zm.43 0v.1h.33v-.1zm.43 0v.1h.33v.22h.11V3.5h.32v-.11H6zm.86 0v.1h.33v-.1zm.43 0v.1h.33v-.1zm.43 0v.1h.33v-.1zm.43 0v.1h.33v-.1zm.43 0v.1h.33v-.1zm.43 0v.1h.11v.22h.12V3.5h.1v-.11h-.22zm-5.48.43v.32h.12v-.32zm2.8 0v.32h.11v-.32zm2.79 0v.32h.12v-.32zm-5.59.43v.32h.12v-.32zm2.8 0v.32h.11v-.32zm2.79 0v.32h.12v-.32zm-5.59.43V5h.12v-.32zm2.8 0V5h.11v-.32zm2.79 0V5h.12v-.32zm-5.59.43v.32h.12v-.32zm2.8 0v.32h.11v-.32zm2.79 0v.32h.12v-.32zm-5.59.43v.1h-.1v.11h.1v.11h.12v-.1h.1v-.11h-.1v-.11zm2.8 0v.1H6v.11h.33v.11h.11v-.1h.32v-.11h-.32v-.11zm2.79 0v.1h-.1v.11h.1v.11h.12v-.1h.1v-.11h-.1v-.11zm-5.27.1v.11h.33v-.1zm.43 0v.11h.33v-.1zm.43 0v.11h.33v-.1zm.43 0v.11h.33v-.1zm.43 0v.11h.33v-.1zm1.3 0v.11h.32v-.1zm.42 0v.11h.33v-.1zm.43 0v.11h.33v-.1zm.43 0v.11h.33v-.1zm.43 0v.11h.33v-.1z" fill="#f09e6f"/><path d="M6.01 2.2L4.87 4.9l-.68-1.28-.65.24.12.39.31-.16.8 1.66h.2l1.31-3.11h2.64v.21h.32v-.64H6zm.39 1.2l1.04 1.15v.02l-1.08 1.2h.54l.83-.9h.01l.92.9h.58L8.05 4.53v-.02l1.1-1.13h-.53l-.87.82h-.02l-.77-.82zm.9 3.1c-.07 0-.13.02-.15.04-.03.02-.04.07-.04.13v.11c0 .05 0 .08-.02.1-.02.02-.05.03-.1.03h-.02v.06H7c.04 0 .07.01.08.03.02.02.03.05.03.1v.1c0 .07.01.12.04.14.02.02.08.03.15.03h.03V7.3H7.3c-.04 0-.07 0-.08-.02-.02-.01-.02-.04-.02-.09v-.11a.2.2 0 0 0-.02-.1c-.02-.03-.04-.04-.08-.05.04 0 .06-.02.07-.05a.2.2 0 0 0 .03-.1v-.11l.01-.09.09-.02h.03v-.07zm.75 0v.07h.03c.05 0 .07 0 .09.02.01.01.02.04.02.09v.11c0 .05 0 .08.02.1.01.03.04.04.07.05-.04 0-.06.02-.07.04a.2.2 0 0 0-.02.1v.12c0 .05-.01.07-.02.09-.02.01-.04.02-.09.02h-.03v.06h.03c.08 0 .13 0 .15-.03.03-.02.04-.07.04-.14v-.1c0-.05 0-.08.03-.1.01-.02.04-.03.09-.03h.02V6.9h-.02c-.05 0-.08-.01-.1-.03l-.02-.1v-.1c0-.07-.01-.12-.04-.14-.02-.02-.07-.04-.15-.04zm-1.59.1v.15h-.13v.06h.13v.28c0 .06.02.1.04.13.03.03.07.04.14.04h.1v-.07h-.1c-.03 0-.06 0-.07-.02l-.02-.08V6.8h.19v-.06h-.2v-.15zm-1.64.12a.22.22 0 0 0-.14.04.14.14 0 0 0-.05.11c0 .04 0 .07.03.1a.2.2 0 0 0 .1.04l.04.01c.08.02.12.04.12.08 0 .03-.01.05-.03.07a.15.15 0 0 1-.1.02l-.07-.01a.5.5 0 0 1-.1-.04v.09a.7.7 0 0 0 .18.03c.06 0 .11-.01.15-.04A.14.14 0 0 0 5 7.1a.13.13 0 0 0-.03-.1.16.16 0 0 0-.1-.04h-.03a.29.29 0 0 1-.1-.04.055.055 0 0 1-.03-.05c0-.03.01-.05.03-.06a.16.16 0 0 1 .09-.02l.07.01c.03 0 .05.02.08.03v-.08a.4.4 0 0 0-.16-.03zm.54 0a.17.17 0 0 0-.15.07.33.33 0 0 0-.05.2c0 .09.02.15.05.2.04.05.09.07.15.07.03 0 .06 0 .08-.02a.15.15 0 0 0 .06-.06v.27h.08v-.72H5.5v.07a.14.14 0 0 0-.06-.06.16.16 0 0 0-.08-.02zm.72.01a.17.17 0 0 0-.17.11v-.1h-.08v.52h.08V7c0-.06.01-.1.04-.14.03-.04.07-.05.12-.05a.2.2 0 0 1 .06 0 .2.2 0 0 1 .06.04v-.09a.19.19 0 0 0-.11-.03zm1.37 0l.18.25-.2.27h.1l.15-.2.15.2h.1l-.2-.27.18-.25h-.1l-.13.19-.14-.19zm-2.08.06a.1.1 0 0 1 .1.05c.02.04.03.09.03.15 0 .07-.01.12-.03.15a.1.1 0 0 1-.1.05.1.1 0 0 1-.09-.05.29.29 0 0 1-.03-.15c0-.06.01-.11.03-.15a.1.1 0 0 1 .1-.05z" fill="#fff"/></svg>