<?xml version="1.0" encoding="UTF-8" standalone="no"?>
<svg
   xmlns:dc="http://purl.org/dc/elements/1.1/"
   xmlns:cc="http://creativecommons.org/ns#"
   xmlns:rdf="http://www.w3.org/1999/02/22-rdf-syntax-ns#"
   xmlns:svg="http://www.w3.org/2000/svg"
   xmlns="http://www.w3.org/2000/svg"
   xmlns:xlink="http://www.w3.org/1999/xlink"
   xmlns:sodipodi="http://sodipodi.sourceforge.net/DTD/sodipodi-0.dtd"
   xmlns:inkscape="http://www.inkscape.org/namespaces/inkscape"
   width="48"
   height="48"
   viewBox="0 0 12.7 12.7"
   version="1.1"
   id="svg30"
   sodipodi:docname="menu-editor.svg"
   inkscape:version="0.92.4 (5da689c313, 2019-01-14)">
  <metadata
     id="metadata34">
    <rdf:RDF>
      <cc:Work
         rdf:about="">
        <dc:format>image/svg+xml</dc:format>
        <dc:type
           rdf:resource="http://purl.org/dc/dcmitype/StillImage" />
        <dc:title></dc:title>
      </cc:Work>
    </rdf:RDF>
  </metadata>
  <sodipodi:namedview
     pagecolor="#ffffff"
     bordercolor="#666666"
     borderopacity="1"
     objecttolerance="10"
     gridtolerance="10"
     guidetolerance="10"
     inkscape:pageopacity="0"
     inkscape:pageshadow="2"
     inkscape:window-width="1112"
     inkscape:window-height="480"
     id="namedview32"
     showgrid="false"
     inkscape:zoom="4.9166667"
     inkscape:cx="2.1355932"
     inkscape:cy="24"
     inkscape:window-x="0"
     inkscape:window-y="25"
     inkscape:window-maximized="0"
     inkscape:current-layer="svg30" />
  <defs
     id="defs8">
    <linearGradient
       id="a">
      <stop
         offset="0"
         stop-color="#d5fff6"
         id="stop2" />
      <stop
         offset="1"
         stop-color="teal"
         id="stop4" />
    </linearGradient>
    <radialGradient
       xlink:href="#a"
       id="b"
       cx="6.343"
       cy="6.336"
       fx="6.343"
       fy="6.336"
       r="5.347"
       gradientTransform="matrix(1,0,0,1.17153,0,-1.087)"
       gradientUnits="userSpaceOnUse" />
  </defs>
  <path
     d="m 54.45,57.21 a 1.265,1.265 0 1 0 0,2.53 h 2.92 v 4.55 h 2.62 v -4.55 h 2.68 a 1.265,1.265 0 1 0 0,-2.53 z m 2.92,7.08 H 53.6 c -0.5,0 -0.98,0.4 -1.08,0.9 l -1.57,8.48 c -0.09,0.5 0.25,0.9 0.75,0.9 h 4.59 v 0.03 h 4.54 v -0.03 h 4.6 c 0.5,0 0.83,-0.4 0.74,-0.9 L 64.6,65.18 c -0.1,-0.5 -0.57,-0.9 -1.08,-0.9 H 60.03 V 68 h 2.54 L 58.59,71.27 54.77,68 h 2.6 z"
     id="path10"
     inkscape:connector-curvature="0"
     style="fill:#1a1a1a" />
  <path
     d="M 6.35,0.09 C 4.81,0.09 3.57,0.38 2.66,0.96 A 3.67,3.67 0 0 0 1,4.21 c 0,1.91 1.54,4.47 2.01,5.2 0.54,0.85 1.13,1.61 1.65,2.16 0.68,0.7 1.21,1.03 1.69,1.03 0.48,0 1.01,-0.33 1.69,-1.03 0.52,-0.55 1.11,-1.31 1.65,-2.15 0.47,-0.74 2,-3.3 2,-5.21 0,-1.42 -0.57,-2.54 -1.65,-3.25 A 6.75,6.75 0 0 0 6.35,0.08 Z"
     id="path12"
     style="fill:url(#b)"
     inkscape:connector-curvature="0" />
  <path
     d="M 6.82,0.063 A 6.75,6.75 0 0 0 6.35,0.07 V 0.08 C 5.58,0.08 4.885,0.153 4.269,0.298 A 5.896,5.896 0 0 0 3.404,0.569 C 3.362,0.587 3.328,0.611 3.287,0.629 L 3.289,9.819 9.413,9.816 V 0.636 A 6.743,6.743 0 0 0 8.158,0.221 6.75,6.75 0 0 0 6.82,0.062 Z"
     id="path14"
     inkscape:connector-curvature="0"
     style="fill:#dbe3de" />
  <path
     d="M 6.35,0.1 C 4.81,0.1 3.57,0.39 2.66,0.97 A 3.67,3.67 0 0 0 1,4.22 c 0,1.91 1.54,4.47 2.01,5.2 0.54,0.85 1.13,1.61 1.65,2.16 0.68,0.7 1.21,1.03 1.69,1.03 0.48,0 1.01,-0.33 1.69,-1.03 0.52,-0.55 1.11,-1.31 1.65,-2.15 0.47,-0.74 2,-3.3 2,-5.21 0,-1.42 -0.57,-2.54 -1.65,-3.25 A 6.75,6.75 0 0 0 6.35,0.09 Z m 0,0.03 C 6.91,0.15 7.44,0.2 7.9,0.31 a 5.82,5.82 0 0 1 1.6,0.66 3.65,3.65 0 0 1 1.24,1.36 c 0.14,0.27 0.25,0.57 0.32,0.88 A 4.61,4.61 0 0 1 10.92,5.74 C 10.77,6.26 10.56,6.78 10.34,7.26 9.9,8.23 9.39,9.06 9.16,9.43 8.62,10.27 8.03,11.03 7.51,11.58 7.17,11.93 6.87,12.19 6.59,12.36 A 0.96,0.96 0 0 1 6.35,12.46 0.96,0.96 0 0 1 6.11,12.36 4.76,4.76 0 0 1 5.19,11.58 14.41,14.41 0 0 1 3.54,9.43 C 3.31,9.06 2.8,8.23 2.36,7.26 2.14,6.78 1.93,6.26 1.78,5.74 A 4.6,4.6 0 0 1 1.64,3.22 3.73,3.73 0 0 1 2.48,1.58 3.65,3.65 0 0 1 3.93,0.58 C 4.2,0.48 4.49,0.38 4.8,0.31 5.26,0.21 5.8,0.15 6.35,0.13 Z"
     id="path16"
     inkscape:connector-curvature="0"
     style="opacity:0.2" />
  <path
     d="M 3.282,2.54 H 9.418 V 4.436 H 3.282 Z"
     id="path18"
     inkscape:connector-curvature="0"
     style="fill:#6f917c" />
  <path
     style="font-weight:400;font-size:0.58700001px;line-height:3;font-family:sans-serif;-inkscape-font-specification:sans-serif;letter-spacing:0;word-spacing:0;fill:#333333"
     d="M 5.904,1.569 V 1.743 A 0.109,0.109 0 0 0 5.862,1.7 0.122,0.122 0 0 0 5.802,1.686 0.116,0.116 0 0 0 5.706,1.733 0.192,0.192 0 0 0 5.67,1.855 c 0,0.05 0.012,0.09 0.036,0.122 A 0.116,0.116 0 0 0 5.801,2.023 0.124,0.124 0 0 0 5.861,2.01 0.111,0.111 0 0 0 5.904,1.967 V 2.015 H 5.957 V 1.569 Z m 1.447,0 V 1.636 H 7.405 V 1.569 Z M 5.324,1.587 V 2.015 H 5.599 V 1.966 H 5.382 V 1.811 H 5.585 V 1.763 H 5.382 V 1.636 H 5.594 V 1.587 Z M 7.12,1.603 V 1.694 H 7.082 v 0.04 H 7.12 v 0.175 c 0,0.04 0.008,0.068 0.024,0.083 0.015,0.015 0.043,0.023 0.084,0.023 H 7.282 V 1.97 H 7.228 C 7.206,1.97 7.191,1.966 7.184,1.959 7.177,1.951 7.174,1.935 7.174,1.909 V 1.734 H 7.282 V 1.693 H 7.173 V 1.602 Z M 6.576,1.686 c -0.05,0 -0.09,0.015 -0.118,0.045 A 0.171,0.171 0 0 0 6.415,1.855 c 0,0.051 0.015,0.092 0.043,0.123 A 0.15,0.15 0 0 0 6.573,2.023 0.233,0.233 0 0 0 6.669,2.003 V 1.953 A 0.21,0.21 0 0 1 6.624,1.973 0.171,0.171 0 0 1 6.579,1.979 0.101,0.101 0 0 1 6.499,1.946 0.135,0.135 0 0 1 6.471,1.855 c 0,-0.04 0.009,-0.07 0.028,-0.091 a 0.1,0.1 0 0 1 0.08,-0.033 0.198,0.198 0 0 1 0.09,0.024 V 1.706 A 0.21,0.21 0 0 0 6.576,1.686 Z m 0.298,0 A 0.338,0.338 0 0 0 6.765,1.708 v 0.05 A 0.213,0.213 0 0 1 6.868,1.731 c 0.03,0 0.052,0.006 0.067,0.02 A 0.069,0.069 0 0 1 6.96,1.807 V 1.812 H 6.886 c -0.048,0 -0.084,0.01 -0.109,0.028 -0.024,0.018 -0.036,0.045 -0.036,0.081 0,0.031 0.01,0.056 0.03,0.075 A 0.11,0.11 0 0 0 6.849,2.023 0.145,0.145 0 0 0 6.915,2.01 0.116,0.116 0 0 0 6.96,1.966 V 2.015 H 7.012 V 1.832 C 7.012,1.783 7.001,1.746 6.978,1.722 6.955,1.698 6.92,1.686 6.874,1.686 Z m 0.765,0 A 0.136,0.136 0 0 0 7.531,1.731 0.181,0.181 0 0 0 7.491,1.855 c 0,0.052 0.014,0.094 0.04,0.124 0.026,0.03 0.062,0.044 0.108,0.044 A 0.136,0.136 0 0 0 7.747,1.979 0.183,0.183 0 0 0 7.787,1.855 0.18,0.18 0 0 0 7.747,1.731 0.136,0.136 0 0 0 7.639,1.686 Z m 0.389,0 A 0.119,0.119 0 0 0 7.969,1.701 0.13,0.13 0 0 0 7.925,1.744 V 1.694 H 7.87 v 0.32 H 7.924 V 1.834 C 7.924,1.802 7.931,1.778 7.948,1.76 A 0.087,0.087 0 0 1 8.016,1.732 c 0.023,0 0.04,0.008 0.053,0.023 0.012,0.015 0.017,0.038 0.017,0.068 V 2.015 H 8.139 V 1.82 C 8.139,1.776 8.129,1.743 8.111,1.72 8.091,1.697 8.064,1.685 8.027,1.685 Z M 6.06,1.694 v 0.194 c 0,0.044 0.01,0.078 0.029,0.101 0.019,0.023 0.047,0.034 0.084,0.034 A 0.117,0.117 0 0 0 6.231,2.009 0.13,0.13 0 0 0 6.276,1.966 V 2.015 H 6.329 V 1.694 H 6.276 V 1.876 A 0.106,0.106 0 0 1 6.251,1.95 0.087,0.087 0 0 1 6.184,1.978 C 6.16,1.978 6.142,1.97 6.13,1.955 6.119,1.94 6.113,1.917 6.113,1.886 V 1.694 Z m 1.291,0 v 0.32 H 7.405 V 1.694 Z M 5.814,1.73 c 0.028,0 0.05,0.012 0.066,0.034 a 0.151,0.151 0 0 1 0.024,0.09 c 0,0.04 -0.008,0.07 -0.024,0.092 A 0.077,0.077 0 0 1 5.814,1.979 0.078,0.078 0 0 1 5.748,1.946 0.155,0.155 0 0 1 5.724,1.855 c 0,-0.04 0.008,-0.07 0.024,-0.091 A 0.078,0.078 0 0 1 5.814,1.73 Z m 1.825,0.001 c 0.028,0 0.05,0.011 0.066,0.034 A 0.147,0.147 0 0 1 7.73,1.855 0.149,0.149 0 0 1 7.705,1.945 0.079,0.079 0 0 1 7.639,1.979 0.08,0.08 0 0 1 7.572,1.946 0.151,0.151 0 0 1 7.547,1.855 c 0,-0.039 0.008,-0.069 0.025,-0.09 A 0.08,0.08 0 0 1 7.639,1.731 Z M 6.907,1.854 H 6.96 V 1.866 C 6.96,1.9 6.95,1.927 6.933,1.948 A 0.088,0.088 0 0 1 6.863,1.979 0.073,0.073 0 0 1 6.813,1.963 0.057,0.057 0 0 1 6.793,1.918 c 0,-0.023 0.01,-0.04 0.026,-0.05 A 0.188,0.188 0 0 1 6.907,1.854 Z M 5.324,3.348 V 3.776 H 5.382 V 3.348 Z M 5.866,3.364 V 3.455 H 5.828 v 0.04 H 5.866 V 3.67 c 0,0.04 0.008,0.068 0.024,0.083 0.015,0.015 0.043,0.023 0.084,0.023 H 6.028 V 3.732 H 5.974 C 5.952,3.732 5.937,3.728 5.93,3.721 5.923,3.713 5.919,3.696 5.919,3.671 V 3.496 h 0.11 V 3.456 H 5.919 V 3.364 Z m 1.557,0 V 3.455 H 7.385 v 0.04 H 7.423 V 3.67 c 0,0.04 0.008,0.068 0.024,0.083 0.015,0.015 0.043,0.023 0.084,0.023 H 7.585 V 3.732 H 7.53 C 7.508,3.732 7.493,3.728 7.486,3.721 7.479,3.713 7.475,3.696 7.475,3.671 V 3.496 H 7.584 V 3.456 H 7.475 V 3.364 Z M 5.649,3.447 A 0.12,0.12 0 0 0 5.589,3.462 0.128,0.128 0 0 0 5.545,3.505 V 3.455 H 5.493 V 3.776 H 5.545 V 3.595 C 5.545,3.563 5.554,3.538 5.57,3.52 A 0.086,0.086 0 0 1 5.637,3.493 c 0.024,0 0.042,0.007 0.054,0.023 0.011,0.015 0.018,0.037 0.018,0.068 V 3.776 H 5.761 V 3.582 C 5.761,3.538 5.751,3.504 5.733,3.482 5.714,3.459 5.686,3.447 5.649,3.447 Z m 0.583,0 A 0.148,0.148 0 0 0 6.117,3.494 0.178,0.178 0 0 0 6.075,3.619 c 0,0.05 0.015,0.091 0.045,0.12 0.03,0.03 0.07,0.045 0.121,0.045 A 0.291,0.291 0 0 0 6.36,3.759 V 3.709 A 0.261,0.261 0 0 1 6.244,3.739 0.113,0.113 0 0 1 6.162,3.711 0.123,0.123 0 0 1 6.129,3.628 H 6.372 V 3.602 A 0.162,0.162 0 0 0 6.334,3.489 0.13,0.13 0 0 0 6.232,3.447 Z m 0.386,0 A 0.135,0.135 0 0 0 6.553,3.462 0.106,0.106 0 0 0 6.51,3.505 V 3.455 H 6.456 V 3.776 H 6.51 V 3.607 A 0.13,0.13 0 0 1 6.533,3.523 C 6.55,3.503 6.573,3.494 6.603,3.494 a 0.093,0.093 0 0 1 0.042,0.01 V 3.45 A 0.177,0.177 0 0 0 6.63,3.448 H 6.618 Z m 0.227,0 A 0.12,0.12 0 0 0 6.785,3.462 0.128,0.128 0 0 0 6.741,3.505 V 3.455 H 6.688 V 3.776 H 6.741 V 3.595 C 6.741,3.563 6.75,3.538 6.766,3.52 A 0.086,0.086 0 0 1 6.833,3.493 c 0.024,0 0.042,0.007 0.053,0.023 0.012,0.015 0.018,0.037 0.018,0.068 V 3.776 H 6.957 V 3.582 C 6.957,3.538 6.947,3.504 6.929,3.482 6.909,3.459 6.882,3.447 6.845,3.447 Z m 0.352,0 A 0.15,0.15 0 0 0 7.082,3.494 0.178,0.178 0 0 0 7.04,3.619 c 0,0.05 0.015,0.091 0.045,0.12 0.03,0.03 0.07,0.045 0.121,0.045 A 0.291,0.291 0 0 0 7.326,3.759 V 3.709 A 0.261,0.261 0 0 1 7.209,3.739 0.113,0.113 0 0 1 7.128,3.711 0.123,0.123 0 0 1 7.095,3.628 H 7.338 V 3.602 A 0.162,0.162 0 0 0 7.3,3.49 0.13,0.13 0 0 0 7.197,3.448 Z M 6.233,3.492 A 0.08,0.08 0 0 1 6.295,3.518 0.1,0.1 0 0 1 6.32,3.587 H 6.13 A 0.104,0.104 0 0 1 6.16,3.517 0.1,0.1 0 0 1 6.232,3.492 Z m 0.965,0 A 0.08,0.08 0 0 1 7.261,3.518 0.1,0.1 0 0 1 7.285,3.587 H 7.097 A 0.104,0.104 0 0 1 7.127,3.517 0.1,0.1 0 0 1 7.198,3.492 Z M 5.455,5.102 A 0.17,0.17 0 0 0 5.345,5.134 0.11,0.11 0 0 0 5.305,5.224 0.1,0.1 0 0 0 5.334,5.3 0.19,0.19 0 0 0 5.428,5.34 l 0.035,0.007 a 0.13,0.13 0 0 1 0.063,0.027 c 0.013,0.012 0.02,0.028 0.02,0.05 A 0.064,0.064 0 0 1 5.519,5.479 0.129,0.129 0 0 1 5.442,5.499 0.235,0.235 0 0 1 5.375,5.488 0.334,0.334 0 0 1 5.307,5.458 v 0.06 a 0.486,0.486 0 0 0 0.07,0.02 0.328,0.328 0 0 0 0.065,0.007 c 0.054,0 0.094,-0.01 0.122,-0.032 C 5.592,5.492 5.606,5.46 5.606,5.419 A 0.113,0.113 0 0 0 5.575,5.336 0.176,0.176 0 0 0 5.48,5.292 L 5.445,5.285 A 0.15,0.15 0 0 1 5.38,5.262 C 5.369,5.252 5.363,5.238 5.363,5.219 A 0.06,0.06 0 0 1 5.388,5.167 0.126,0.126 0 0 1 5.462,5.149 0.22,0.22 0 0 1 5.518,5.156 C 5.538,5.161 5.558,5.169 5.58,5.18 V 5.123 A 0.44,0.44 0 0 0 5.455,5.101 Z M 6.346,5.125 V 5.216 H 6.308 v 0.041 h 0.038 v 0.174 c 0,0.04 0.008,0.068 0.024,0.083 0.015,0.015 0.043,0.023 0.084,0.023 H 6.508 V 5.493 H 6.454 C 6.432,5.493 6.417,5.489 6.41,5.482 6.403,5.474 6.4,5.457 6.4,5.432 V 5.257 H 6.508 V 5.217 H 6.4 V 5.125 Z M 6.143,5.208 c -0.04,0 -0.07,0.008 -0.09,0.025 A 0.084,0.084 0 0 0 6.02,5.303 c 0,0.025 0.007,0.044 0.022,0.058 a 0.143,0.143 0 0 0 0.07,0.032 l 0.019,0.005 a 0.178,0.178 0 0 1 0.063,0.021 c 0.01,0.008 0.015,0.019 0.015,0.033 A 0.04,0.04 0 0 1 6.189,5.489 0.108,0.108 0 0 1 6.131,5.501 0.218,0.218 0 0 1 6.076,5.494 0.293,0.293 0 0 1 6.018,5.471 V 5.525 A 0.437,0.437 0 0 0 6.13,5.545 0.16,0.16 0 0 0 6.228,5.519 0.083,0.083 0 0 0 6.263,5.449 0.078,0.078 0 0 0 6.239,5.387 0.169,0.169 0 0 0 6.159,5.353 L 6.142,5.349 A 0.168,0.168 0 0 1 6.085,5.329 0.035,0.035 0 0 1 6.071,5.3 0.04,0.04 0 0 1 6.091,5.264 0.115,0.115 0 0 1 6.149,5.252 0.217,0.217 0 0 1 6.246,5.275 V 5.225 A 0.234,0.234 0 0 0 6.199,5.213 0.338,0.338 0 0 0 6.143,5.208 Z m 0.57,0 A 0.148,0.148 0 0 0 6.598,5.254 0.178,0.178 0 0 0 6.555,5.38 C 6.555,5.43 6.57,5.47 6.6,5.5 6.63,5.53 6.67,5.545 6.722,5.545 A 0.291,0.291 0 0 0 6.84,5.521 V 5.471 A 0.257,0.257 0 0 1 6.725,5.501 0.114,0.114 0 0 1 6.642,5.472 0.121,0.121 0 0 1 6.61,5.389 H 6.852 V 5.363 A 0.162,0.162 0 0 0 6.815,5.25 0.13,0.13 0 0 0 6.712,5.208 Z m 0.38,0 A 0.121,0.121 0 0 0 7.033,5.222 0.118,0.118 0 0 0 6.99,5.266 V 5.216 H 6.937 V 5.537 H 6.99 V 5.356 C 6.99,5.325 6.998,5.3 7.014,5.282 A 0.08,0.08 0 0 1 7.078,5.254 c 0.023,0 0.04,0.008 0.05,0.023 0.011,0.014 0.017,0.037 0.017,0.068 V 5.537 H 7.198 V 5.356 A 0.11,0.11 0 0 1 7.222,5.281 0.081,0.081 0 0 1 7.286,5.254 c 0.023,0 0.04,0.008 0.05,0.023 0.011,0.015 0.017,0.037 0.017,0.068 V 5.537 H 7.406 V 5.343 A 0.16,0.16 0 0 0 7.378,5.243 0.092,0.092 0 0 0 7.301,5.208 0.12,0.12 0 0 0 7.236,5.225 0.14,0.14 0 0 0 7.189,5.278 0.103,0.103 0 0 0 7.153,5.226 0.098,0.098 0 0 0 7.093,5.208 Z M 5.656,5.216 5.786,5.532 5.776,5.556 A 0.135,0.135 0 0 1 5.75,5.605 0.051,0.051 0 0 1 5.716,5.615 H 5.685 V 5.659 H 5.727 A 0.087,0.087 0 0 0 5.784,5.642 0.192,0.192 0 0 0 5.828,5.567 l 0.14,-0.35 H 5.913 l -0.101,0.25 -0.1,-0.25 z M 6.713,5.253 A 0.08,0.08 0 0 1 6.775,5.279 0.1,0.1 0 0 1 6.8,5.348 H 6.61 a 0.106,0.106 0 0 1 0.031,-0.07 0.1,0.1 0 0 1 0.07,-0.025 z m -0.731,1.6 V 6.92 H 6.034 V 6.853 Z m 0.162,0 V 7.299 H 6.197 V 6.853 Z m 0.163,0 V 6.92 H 6.36 V 6.853 Z m 0.393,0 V 6.92 H 6.753 V 6.853 Z M 5.317,6.871 v 0.267 c 0,0.056 0.014,0.098 0.041,0.127 0.028,0.028 0.069,0.043 0.123,0.043 0.054,0 0.095,-0.015 0.122,-0.043 C 5.631,7.236 5.645,7.194 5.645,7.138 V 6.871 H 5.586 v 0.26 C 5.586,7.177 5.578,7.21 5.561,7.23 5.545,7.25 5.518,7.26 5.481,7.26 5.444,7.26 5.417,7.25 5.401,7.23 5.384,7.21 5.375,7.177 5.375,7.13 V 6.87 Z m 0.434,0.016 v 0.09 h -0.04 v 0.042 h 0.04 v 0.174 c 0,0.04 0.007,0.068 0.023,0.084 0.015,0.015 0.043,0.022 0.084,0.022 H 5.912 V 7.255 H 5.858 C 5.836,7.255 5.821,7.251 5.814,7.243 5.807,7.236 5.804,7.22 5.804,7.193 V 7.02 H 5.912 V 6.979 H 5.803 V 6.888 Z m 0.718,0 v 0.09 H 6.431 v 0.042 h 0.038 v 0.174 c 0,0.04 0.008,0.068 0.024,0.084 0.015,0.015 0.043,0.022 0.084,0.022 H 6.631 V 7.255 H 6.577 C 6.555,7.255 6.54,7.251 6.533,7.243 6.526,7.236 6.523,7.22 6.523,7.193 V 7.02 H 6.631 V 6.979 H 6.522 V 6.888 Z M 6.998,6.97 A 0.15,0.15 0 0 0 6.883,7.017 0.178,0.178 0 0 0 6.84,7.142 c 0,0.05 0.016,0.09 0.045,0.12 0.03,0.03 0.07,0.046 0.122,0.046 A 0.291,0.291 0 0 0 7.126,7.283 V 7.233 A 0.231,0.231 0 0 1 7.01,7.263 0.113,0.113 0 0 1 6.928,7.234 0.123,0.123 0 0 1 6.895,7.151 H 7.138 V 7.125 A 0.162,0.162 0 0 0 7.1,7.012 0.13,0.13 0 0 0 6.998,6.97 Z m 0.329,0 c -0.04,0 -0.07,0.008 -0.092,0.025 a 0.083,0.083 0 0 0 -0.032,0.07 0.08,0.08 0 0 0 0.022,0.059 0.143,0.143 0 0 0 0.07,0.031 l 0.02,0.004 A 0.172,0.172 0 0 1 7.377,7.181 0.04,0.04 0 0 1 7.392,7.215 0.04,0.04 0 0 1 7.372,7.251 0.108,0.108 0 0 1 7.315,7.263 0.222,0.222 0 0 1 7.201,7.233 V 7.287 A 0.43,0.43 0 0 0 7.314,7.307 0.16,0.16 0 0 0 7.411,7.281 0.083,0.083 0 0 0 7.447,7.211 0.079,0.079 0 0 0 7.422,7.149 0.169,0.169 0 0 0 7.342,7.115 L 7.325,7.111 A 0.168,0.168 0 0 1 7.268,7.091 0.034,0.034 0 0 1 7.254,7.063 0.04,0.04 0 0 1 7.274,7.026 0.115,0.115 0 0 1 7.333,7.015 0.212,0.212 0 0 1 7.429,7.037 V 6.987 A 0.33,0.33 0 0 0 7.327,6.969 Z M 5.982,6.978 v 0.32 h 0.052 v -0.32 z m 0.325,0 v 0.32 H 6.36 v -0.32 z m 0.393,0 v 0.32 H 6.753 V 6.978 Z M 7,7.015 A 0.08,0.08 0 0 1 7.062,7.041 C 7.078,7.058 7.086,7.081 7.086,7.11 H 6.898 A 0.106,0.106 0 0 1 6.928,7.04 0.1,0.1 0 0 1 7,7.015 Z M 6.2,8.614 V 9.06 H 6.252 V 8.614 Z m 0.393,0 V 8.681 H 6.646 V 8.614 Z m 1.307,0 V 8.788 A 0.109,0.109 0 0 0 7.858,8.745 0.122,0.122 0 0 0 7.798,8.731 0.116,0.116 0 0 0 7.702,8.778 0.192,0.192 0 0 0 7.666,8.9 c 0,0.05 0.012,0.09 0.036,0.122 A 0.116,0.116 0 0 0 7.797,9.068 0.124,0.124 0 0 0 7.858,9.055 0.111,0.111 0 0 0 7.9,9.012 V 9.06 H 7.953 V 8.614 Z m 0.162,0 V 8.681 H 8.114 V 8.614 Z M 5.322,8.632 V 9.06 H 5.379 V 8.684 l 0.11,0.294 H 5.547 L 5.657,8.684 V 9.06 H 5.714 V 8.632 H 5.628 L 5.518,8.923 5.409,8.632 Z m 1.04,0.016 V 8.739 H 6.323 v 0.04 h 0.038 v 0.175 c 0,0.04 0.008,0.068 0.024,0.083 C 6.4,9.052 6.428,9.06 6.469,9.06 H 6.523 V 9.016 H 6.47 C 6.448,9.016 6.434,9.012 6.426,9.005 6.419,8.997 6.416,8.981 6.416,8.955 V 8.78 H 6.524 V 8.739 H 6.416 V 8.649 Z M 6.91,8.731 A 0.12,0.12 0 0 0 6.85,8.745 0.12,0.12 0 0 0 6.807,8.789 V 8.739 H 6.754 v 0.32 h 0.053 v -0.18 c 0,-0.032 0.008,-0.056 0.024,-0.074 A 0.08,0.08 0 0 1 6.895,8.777 c 0.022,0 0.04,0.008 0.05,0.022 0.011,0.015 0.016,0.038 0.016,0.07 v 0.19 H 7.015 V 8.879 A 0.11,0.11 0 0 1 7.038,8.804 0.081,0.081 0 0 1 7.103,8.777 c 0.022,0 0.04,0.008 0.05,0.022 0.011,0.015 0.016,0.038 0.016,0.07 v 0.19 H 7.222 V 8.866 A 0.16,0.16 0 0 0 7.195,8.766 0.091,0.091 0 0 0 7.118,8.731 0.123,0.123 0 0 0 7.053,8.748 0.137,0.137 0 0 0 7.006,8.8 0.104,0.104 0 0 0 6.969,8.749 0.098,0.098 0 0 0 6.909,8.731 Z m 0.552,0 A 0.148,0.148 0 0 0 7.347,8.778 0.178,0.178 0 0 0 7.305,8.903 c 0,0.05 0.015,0.09 0.044,0.12 0.03,0.03 0.071,0.045 0.122,0.045 A 0.291,0.291 0 0 0 7.591,9.044 V 8.994 A 0.261,0.261 0 0 1 7.475,9.024 0.114,0.114 0 0 1 7.392,8.995 0.123,0.123 0 0 1 7.36,8.912 H 7.602 V 8.886 A 0.162,0.162 0 0 0 7.564,8.773 0.13,0.13 0 0 0 7.462,8.731 Z m 0.875,0 A 0.338,0.338 0 0 0 8.228,8.753 v 0.05 A 0.213,0.213 0 0 1 8.331,8.776 c 0.03,0 0.052,0.006 0.067,0.02 A 0.069,0.069 0 0 1 8.423,8.852 V 8.857 H 8.35 c -0.048,0 -0.084,0.01 -0.109,0.028 -0.024,0.018 -0.036,0.045 -0.036,0.081 0,0.031 0.01,0.056 0.03,0.075 A 0.11,0.11 0 0 0 8.313,9.068 0.145,0.145 0 0 0 8.379,9.055 0.116,0.116 0 0 0 8.424,9.011 V 9.06 H 8.476 V 8.877 C 8.476,8.828 8.465,8.791 8.442,8.767 8.419,8.743 8.384,8.731 8.338,8.731 Z M 5.821,8.739 v 0.194 c 0,0.044 0.01,0.078 0.03,0.101 0.018,0.023 0.046,0.034 0.083,0.034 A 0.12,0.12 0 0 0 5.993,9.054 0.13,0.13 0 0 0 6.038,9.011 V 9.06 H 6.091 V 8.739 H 6.038 V 8.921 A 0.106,0.106 0 0 1 6.013,8.995 0.086,0.086 0 0 1 5.945,9.023 C 5.922,9.023 5.904,9.015 5.892,9 5.88,8.985 5.875,8.962 5.875,8.931 V 8.74 Z m 0.772,0 v 0.32 h 0.053 v -0.32 z m 1.469,0 v 0.32 H 8.114 V 8.739 Z M 7.81,8.775 c 0.028,0 0.05,0.012 0.066,0.034 A 0.151,0.151 0 0 1 7.9,8.899 c 0,0.04 -0.008,0.07 -0.024,0.092 A 0.077,0.077 0 0 1 7.81,9.024 0.078,0.078 0 0 1 7.744,8.991 0.155,0.155 0 0 1 7.72,8.9 C 7.72,8.86 7.728,8.83 7.744,8.809 A 0.078,0.078 0 0 1 7.81,8.775 Z M 7.463,8.776 A 0.08,0.08 0 0 1 7.525,8.802 0.1,0.1 0 0 1 7.549,8.871 H 7.362 a 0.105,0.105 0 0 1 0.03,-0.07 0.1,0.1 0 0 1 0.07,-0.025 z M 8.37,8.899 h 0.053 v 0.012 c 0,0.034 -0.01,0.061 -0.027,0.082 A 0.088,0.088 0 0 1 8.326,9.024 0.073,0.073 0 0 1 8.276,9.008 0.057,0.057 0 0 1 8.256,8.963 c 0,-0.023 0.01,-0.04 0.026,-0.05 A 0.188,0.188 0 0 1 8.37,8.9 Z"
     font-weight="400"
     font-size=".587"
     letter-spacing="0"
     word-spacing="0"
     id="path20"
     inkscape:connector-curvature="0" />
  <g
     id="g26"
     style="fill:#333333;stroke-width:5.42500019">
    <path
       d="M 4.924,5.414 C 4.896,5.399 4.89,5.368 4.911,5.344 L 5.026,5.216 C 5.048,5.192 5.039,5.174 5.006,5.176 L 4.931,5.179 C 4.899,5.18 4.878,5.156 4.885,5.125 L 4.92,4.957 C 4.927,4.925 4.91,4.914 4.883,4.931 L 4.819,4.972 C 4.791,4.99 4.761,4.979 4.752,4.948 L 4.698,4.785 C 4.688,4.755 4.668,4.753 4.653,4.781 L 4.618,4.849 C 4.604,4.878 4.572,4.883 4.548,4.862 L 4.42,4.747 C 4.396,4.727 4.378,4.735 4.38,4.767 L 4.384,4.843 C 4.385,4.875 4.36,4.896 4.329,4.889 L 4.161,4.854 C 4.13,4.847 4.118,4.864 4.135,4.891 L 4.177,4.955 C 4.194,4.982 4.183,5.012 4.153,5.022 L 3.99,5.076 C 3.959,5.086 3.957,5.105 3.986,5.12 L 4.054,5.155 C 4.082,5.17 4.088,5.201 4.066,5.225 L 3.952,5.353 C 3.931,5.377 3.939,5.395 3.972,5.393 L 4.047,5.39 C 4.079,5.389 4.1,5.413 4.093,5.444 L 4.058,5.613 c -0.006,0.03 0.01,0.042 0.037,0.025 L 4.159,5.597 C 4.186,5.579 4.216,5.59 4.226,5.621 L 4.28,5.784 c 0.01,0.03 0.03,0.032 0.045,0.004 L 4.359,5.72 C 4.374,5.692 4.406,5.686 4.429,5.707 L 4.557,5.822 C 4.582,5.842 4.6,5.835 4.598,5.802 L 4.595,5.726 C 4.593,5.695 4.618,5.674 4.649,5.68 L 4.817,5.716 C 4.849,5.722 4.86,5.706 4.843,5.678 L 4.802,5.615 C 4.784,5.588 4.795,5.557 4.826,5.547 L 4.989,5.494 c 0.03,-0.01 0.032,-0.03 0.003,-0.045 z m -0.44,0.158 a 0.285,0.285 0 1 1 0,-0.57 0.285,0.285 0 0 1 0,0.57 z"
       id="path22"
       inkscape:connector-curvature="0" />
    <path
       d="m 4.483,5.061 a 0.227,0.227 0 1 0 0,0.454 0.227,0.227 0 0 0 0,-0.454 z m 0,0.292 a 0.066,0.066 0 1 1 0,-0.131 0.065,0.065 0 0 1 0,0.13 z"
       id="path24"
       inkscape:connector-curvature="0" />
  </g>
  <path
     d="M 4.766,1.249 A 0.017,0.017 0 0 0 4.75,1.266 L 4.751,1.362 C 4.714,1.401 4.655,1.462 4.584,1.529 L 4.581,1.484 H 4.584 A 0.01702939,0.01702939 0 1 0 4.582,1.45 H 4.58 L 4.578,1.417 4.592,1.414 A 0.017,0.017 0 1 0 4.584,1.381 L 4.577,1.383 4.571,1.281 A 0.016,0.016 0 0 0 4.555,1.265 H 4.439 A 0.017,0.017 0 0 0 4.423,1.283 l 0.003,0.07 A 2.533,2.533 0 0 0 4.296,1.425 1.493,1.493 0 0 0 4.078,1.58 0.016,0.016 0 0 0 4.07,1.58 L 3.955,1.613 A 0.016,0.016 0 0 0 3.947,1.618 0.02,0.02 0 0 0 3.934,1.626 C 3.854,1.751 3.928,1.846 4.003,1.889 4.14,1.969 4.285,1.916 4.335,1.901 A 0.016,0.016 0 0 0 4.345,1.876 L 4.338,1.866 V 1.865 L 4.37,1.757 C 4.408,1.728 4.446,1.697 4.483,1.665 l 0.089,0.2 0.032,0.162 -0.02,0.262 c 0,0.01 0.007,0.018 0.017,0.018 H 4.703 A 0.016,0.016 0 0 0 4.72,2.292 L 4.737,2.06 V 2.056 L 4.704,1.88 4.884,1.554 A 0.018,0.018 0 0 0 4.885,1.547 L 4.886,1.53 4.901,1.531 H 4.902 A 0.017,0.017 0 0 0 4.904,1.498 L 4.888,1.497 4.89,1.463 4.902,1.461 A 0.01612452,0.01612452 0 1 0 4.898,1.429 H 4.893 L 4.903,1.266 A 0.016,0.016 0 0 0 4.885,1.249 Z M 4.82,1.275 A 0.032,0.032 0 0 1 4.852,1.306 0.032,0.032 0 0 1 4.82,1.339 0.032,0.032 0 0 1 4.788,1.306 0.032,0.032 0 0 1 4.82,1.275 Z M 4.505,1.29 A 0.033,0.033 0 0 1 4.538,1.323 0.033,0.033 0 0 1 4.505,1.356 0.033,0.033 0 0 1 4.472,1.323 0.033,0.033 0 0 1 4.505,1.29 Z M 4.428,1.388 4.431,1.422 4.417,1.425 A 0.017,0.017 0 1 0 4.426,1.457 L 4.433,1.455 V 1.462 H 4.42 A 0.01702939,0.01702939 0 0 0 4.422,1.496 L 4.434,1.495 4.438,1.563 4.44,1.569 4.468,1.633 A 2.612,2.612 0 0 1 4.353,1.727 L 4.243,1.712 A 0.016,0.016 0 0 0 4.226,1.718 0.018,0.018 0 0 0 4.214,1.728 C 4.198,1.772 4.149,1.842 4.031,1.88 3.996,1.817 4.056,1.744 4.084,1.725 A 0.016,0.016 0 0 0 4.089,1.702 0.014,0.014 0 0 0 4.091,1.695 V 1.612 C 4.191,1.521 4.337,1.437 4.427,1.389 Z m 0.324,0.02 V 1.445 L 4.737,1.447 A 0.017,0.017 0 0 0 4.741,1.48 L 4.753,1.478 V 1.483 H 4.74 A 0.017,0.017 0 0 0 4.737,1.516 h 0.015 v 0.01 L 4.652,1.721 4.592,1.565 A 4.78,4.78 0 0 0 4.751,1.409 Z M 4.03,1.625 4.008,1.651 3.986,1.638 Z M 4.059,1.644 V 1.682 L 4.037,1.668 4.058,1.644 Z M 4.259,1.747 4.317,1.755 4.281,1.78 Z M 4.326,1.789 4.314,1.83 4.299,1.808 Z M 5,8.242 A 0.347,0.347 0 0 0 4.808,8.184 H 4.734 L 4.731,8.163 a 0.04,0.04 0 1 0 -0.08,0 l 0.08,0.707 a 0.04,0.04 0 0 0 0.02,0.035 V 8.953 A 0.101,0.101 0 0 0 4.738,9.147 0.12,0.12 0 0 1 4.701,9.191 0.1,0.1 0 0 0 4.611,9.133 0.1,0.1 0 0 0 4.519,9.191 0.121,0.121 0 0 1 4.482,9.147 0.1,0.1 0 0 0 4.469,8.953 V 8.908 a 0.101,0.101 0 0 0 0,-0.197 V 8.666 A 0.1,0.1 0 0 0 4.458,8.467 0.162,0.162 0 0 0 4.388,8.387 V 8.385 a 0.101,0.101 0 0 0 -0.202,0 v 0.002 a 0.169,0.169 0 0 0 -0.069,0.08 0.10017984,0.10017984 0 0 0 -0.012,0.2 V 8.711 A 0.1,0.1 0 1 0 4.075,8.897 0.06,0.06 0 0 0 4.065,8.931 V 8.983 H 4.063 L 4.043,8.947 4.007,8.968 4.028,9.004 A 0.177,0.177 0 0 0 3.997,9.036 L 3.961,9.015 3.941,9.05 3.977,9.07 A 0.147,0.147 0 0 0 3.965,9.113 H 3.924 v 0.04 H 3.965 A 0.163,0.163 0 0 0 3.977,9.195 L 3.94,9.215 3.961,9.251 3.997,9.231 c 0.01,0.01 0.02,0.021 0.032,0.03 l -0.022,0.037 0.035,0.02 0.02,-0.037 c 0.014,0.006 0.029,0.01 0.043,0.012 v 0.042 h 0.04 V 9.293 A 0.166,0.166 0 0 0 4.188,9.282 L 4.209,9.318 4.244,9.298 4.224,9.261 A 0.177,0.177 0 0 0 4.254,9.23 L 4.291,9.251 4.311,9.216 4.274,9.196 A 0.15,0.15 0 0 0 4.286,9.153 H 4.327 V 9.113 H 4.286 A 0.16,0.16 0 0 0 4.275,9.07 L 4.311,9.05 4.291,9.014 4.254,9.035 A 0.162,0.162 0 0 0 4.223,9.004 L 4.243,8.968 4.209,8.948 4.189,8.984 H 4.186 V 8.93 A 0.06,0.06 0 0 0 4.176,8.896 0.1,0.1 0 0 0 4.146,8.71 V 8.665 a 0.1,0.1 0 1 0 0.013,-0.194 0.118,0.118 0 0 1 0.038,-0.043 0.1,0.1 0 0 0 0.181,0 0.11,0.11 0 0 1 0.037,0.043 0.101,0.101 0 0 0 0.014,0.194 V 8.71 a 0.101,0.101 0 0 0 0,0.197 v 0.045 a 0.10015114,0.10015114 0 0 0 0.011,0.2 0.161,0.161 0 0 0 0.07,0.079 v 0.002 a 0.101,0.101 0 0 0 0.201,0 V 9.231 A 0.164,0.164 0 0 0 4.781,9.151 0.1,0.1 0 0 0 4.792,8.952 V 8.904 A 0.04,0.04 0 0 0 4.812,8.869 L 4.752,8.344 a 0.499,0.499 0 0 1 0.37,0.165 L 5.156,8.546 V 8.531 A 0.347,0.347 0 0 0 5,8.242 Z m -0.975,0.87 h 0.04 v 0.041 h -0.04 z m 0.12,0.122 h -0.04 v -0.04 h 0.04 z m 0,-0.08 H 4.105 V 9.113 h 0.04 z m 0,-0.082 h -0.04 v -0.04 h 0.04 z m 0.082,0.081 h -0.04 v -0.04 h 0.04 z M 4.146,8.931 v 0.041 a 0.162,0.162 0 0 0 -0.04,0 V 8.931 a 0.02,0.02 0 0 1 0.04,0 z M 4.186,8.809 A 0.06,0.06 0 0 1 4.146,8.866 V 8.83 H 4.106 V 8.866 A 0.06,0.06 0 0 1 4.066,8.809 c 0,-0.025 0.016,-0.048 0.04,-0.057 v 0.037 h 0.04 V 8.753 a 0.06,0.06 0 0 1 0.04,0.057 z m 0,-0.242 A 0.061,0.061 0 0 1 4.146,8.624 V 8.588 H 4.106 V 8.624 A 0.06,0.06 0 0 1 4.066,8.567 c 0,-0.026 0.017,-0.048 0.04,-0.057 v 0.037 h 0.04 V 8.527 L 4.148,8.511 A 0.06,0.06 0 0 1 4.187,8.568 Z M 4.287,8.447 A 0.06,0.06 0 0 1 4.232,8.411 0.128,0.128 0 0 1 4.267,8.406 V 8.366 A 0.16,0.16 0 0 0 4.229,8.37 0.062,0.062 0 0 1 4.287,8.325 c 0.028,0 0.052,0.02 0.059,0.045 A 0.16,0.16 0 0 0 4.307,8.365 v 0.04 c 0.012,0 0.024,0.003 0.035,0.006 A 0.061,0.061 0 0 1 4.287,8.446 Z m 0.101,0.12 A 0.06,0.06 0 0 1 4.428,8.511 V 8.547 H 4.469 V 8.51 a 0.06,0.06 0 0 1 0.04,0.057 0.062,0.062 0 0 1 -0.04,0.057 V 8.588 H 4.429 V 8.624 A 0.06,0.06 0 0 1 4.388,8.567 Z m 0,0.242 c 0,-0.025 0.017,-0.048 0.04,-0.057 V 8.789 H 4.469 V 8.753 a 0.06,0.06 0 0 1 0,0.114 V 8.83 H 4.429 V 8.866 A 0.06,0.06 0 0 1 4.388,8.809 Z m 0,0.243 A 0.06,0.06 0 0 1 4.428,8.995 V 9.031 H 4.469 V 8.995 A 0.06,0.06 0 1 1 4.47,9.109 V 9.072 H 4.428 V 9.109 A 0.06,0.06 0 0 1 4.388,9.052 Z M 4.61,9.294 A 0.06,0.06 0 0 1 4.552,9.249 0.152,0.152 0 0 0 4.59,9.254 v -0.04 a 0.113,0.113 0 0 1 -0.035,-0.006 0.06,0.06 0 0 1 0.11,0 0.11,0.11 0 0 1 -0.035,0.005 v 0.04 A 0.155,0.155 0 0 0 4.669,9.249 0.06,0.06 0 0 1 4.61,9.294 Z M 4.833,9.052 A 0.06,0.06 0 0 1 4.791,9.109 L 4.792,9.093 V 9.072 h -0.04 v 0.02 L 4.751,9.108 A 0.06,0.06 0 0 1 4.711,9.052 0.06,0.06 0 0 1 4.751,8.995 V 9.031 H 4.792 V 8.995 a 0.06,0.06 0 0 1 0.04,0.057 z M 4.954,6.492 4.908,6.501 4.935,6.417 A 0.036,0.036 0 0 0 4.931,6.389 0.028,0.028 0 0 0 4.911,6.374 0.19,0.19 0 0 0 4.725,6.483 L 4.693,6.543 3.969,6.686 C 3.869,6.706 3.807,6.818 3.83,6.936 3.834,6.953 3.848,6.965 3.862,6.962 L 4.484,6.839 C 4.498,6.837 4.507,6.821 4.504,6.805 4.504,6.804 4.509,6.787 4.571,6.762 4.458,6.958 4.299,7.203 4.141,7.358 A 0.148,0.148 0 0 0 4.1,7.47 C 4.101,7.513 4.12,7.555 4.15,7.584 A 0.12,0.12 0 0 0 4.254,7.617 0.105,0.105 0 0 0 4.31,7.586 C 4.447,7.447 4.692,7.102 4.842,6.699 A 8.65,8.65 0 0 1 4.989,6.674 H 4.99 A 0.073,0.073 0 0 0 5.04,6.637 0.102,0.102 0 0 0 5.05,6.568 C 5.039,6.518 4.997,6.484 4.955,6.492 Z M 4.302,7.417 C 4.287,7.419 4.273,7.407 4.27,7.391 4.267,7.374 4.275,7.358 4.29,7.355 4.304,7.352 4.319,7.364 4.322,7.381 4.325,7.398 4.316,7.414 4.302,7.417 Z M 4.598,7.007 C 4.584,7.01 4.569,6.999 4.566,6.982 4.563,6.966 4.571,6.949 4.586,6.947 4.6,6.944 4.615,6.955 4.618,6.972 4.621,6.989 4.613,7.005 4.598,7.008 Z m 0.02,-0.325 c -0.077,0.02 -0.151,0.05 -0.165,0.1 L 3.878,6.895 C 3.877,6.823 3.918,6.76 3.981,6.748 L 4.655,6.615 Z M 4.79,6.62 C 4.776,6.623 4.761,6.611 4.758,6.594 4.755,6.578 4.764,6.562 4.778,6.559 4.792,6.556 4.806,6.567 4.809,6.584 4.813,6.601 4.804,6.617 4.789,6.62 Z M 4.994,6.6 A 0.024,0.024 0 0 1 4.978,6.613 L 4.984,6.644 4.977,6.614 4.909,6.624 4.865,6.632 4.885,6.569 4.965,6.553 C 4.98,6.551 4.994,6.562 4.997,6.578 A 0.037,0.037 0 0 1 4.994,6.601 Z M 4.792,2.708 A 0.022,0.022 0 0 0 4.775,2.716 L 4.596,2.95 A 0.287,0.287 0 0 0 4.569,2.99 L 4.499,3.115 A 0.147,0.147 0 0 0 4.483,3.165 L 4.477,3.256 A 0.11,0.122 49.73 0 0 4.464,3.259 L 4.447,3.034 c 0,-0.01 0.002,-0.024 0.006,-0.033 L 4.563,2.748 A 0.02219234,0.02219234 0 0 0 4.522,2.731 l -0.11,0.253 a 0.14,0.14 0 0 0 -0.01,0.052 l 0.02,0.241 A 0.11,0.122 49.73 0 0 4.409,3.287 0.11,0.122 49.73 0 0 4.407,3.289 L 4.236,3.194 A 0.092,0.092 0 0 0 4.181,3.18 L 4.066,3.194 A 0.091,0.091 0 0 0 4.016,3.22 l -0.09,0.1 A 0.023,0.023 0 1 0 3.959,3.35 L 4.049,3.248 A 0.046,0.046 0 0 1 4.071,3.236 L 4.185,3.223 c 0.007,0 0.02,0.002 0.028,0.006 L 4.37,3.319 4.2,3.316 A 0.15,0.15 0 0 0 4.15,3.324 L 3.946,3.399 A 0.122,0.122 0 0 0 3.904,3.431 L 3.776,3.59 A 0.02241093,0.02241093 0 1 0 3.811,3.618 L 3.938,3.458 A 0.074,0.074 0 0 1 3.962,3.439 L 4.165,3.365 A 0.09,0.09 0 0 1 4.198,3.359 l 0.167,0.003 a 0.11,0.122 49.73 0 0 0,0.027 0.097,0.097 0 0 0 -0.003,0 H 4.36 A 0.231,0.231 0 0 0 4.184,3.448 H 4.182 C 4.104,3.515 4.087,3.608 4.134,3.663 4.181,3.719 4.275,3.718 4.354,3.651 A 0.233,0.233 0 0 0 4.442,3.486 V 3.483 A 0.11,0.122 49.73 0 0 4.468,3.486 L 4.444,3.652 a 0.084,0.084 0 0 1 -0.011,0.03 l -0.105,0.19 a 0.1,0.1 0 0 1 -0.024,0.02 l -0.177,0.1 a 0.022,0.022 0 0 0 0.02,0.037 L 4.325,3.931 A 0.151,0.151 0 0 0 4.365,3.895 L 4.471,3.705 A 0.142,0.142 0 0 0 4.487,3.658 L 4.513,3.49 4.574,3.66 c 0.004,0.007 0.005,0.02 0.002,0.027 l -0.03,0.11 A 0.046,0.046 0 0 1 4.53,3.819 L 4.415,3.889 A 0.02205108,0.02205108 0 0 0 4.439,3.926 L 4.552,3.856 A 0.083,0.083 0 0 0 4.587,3.81 L 4.619,3.698 A 0.093,0.093 0 0 0 4.615,3.642 L 4.548,3.458 a 0.11,0.122 49.73 0 0 0.004,-0.003 0.11,0.122 49.73 0 0 0.01,-0.01 l 0.234,0.057 a 0.158,0.158 0 0 0 0.054,0 V 3.501 L 5.117,3.436 A 0.02207374,0.02207374 0 1 0 5.107,3.393 L 4.84,3.458 a 0.091,0.091 0 0 1 -0.034,0 L 4.588,3.405 A 0.11,0.122 49.73 0 0 4.592,3.395 L 4.683,3.401 A 0.167,0.167 0 0 0 4.735,3.395 L 4.871,3.347 C 4.883,3.341 4.904,3.333 4.914,3.327 l 0.26,-0.14 C 5.185,3.181 5.189,3.169 5.184,3.157 A 0.022,0.022 0 0 0 5.153,3.148 L 4.893,3.288 4.856,3.304 4.72,3.353 A 0.077,0.077 0 0 1 4.687,3.358 L 4.637,3.353 4.732,3.273 C 4.76,3.249 4.762,3.22 4.758,3.206 a 0.02207374,0.02207374 0 0 0 -0.043,0.01 c 0,10e-4 0.002,0.012 -0.012,0.024 L 4.656,3.28 A 0.066,0.066 0 0 0 4.598,3.212 L 4.646,3.172 C 4.659,3.162 4.67,3.163 4.672,3.164 A 0.022,0.022 0 0 0 4.688,3.124 C 4.675,3.117 4.646,3.114 4.617,3.138 L 4.523,3.218 4.526,3.168 A 0.16,0.16 0 0 1 4.536,3.137 L 4.606,3.01 C 4.613,3 4.622,2.984 4.629,2.976 L 4.809,2.742 A 0.022,0.022 0 0 0 4.791,2.707 Z M 8.62,9.2 V 8.554 L 9.138,8.877 Z M 8.624,7.487 V 6.84 L 9.141,7.163 Z M 8.63,5.728 V 5.083 L 9.147,5.406 Z M 8.62,3.926 V 3.28 L 9.138,3.603 Z M 8.633,2.186 V 1.541 L 9.15,1.863 Z"
     id="path28"
     inkscape:connector-curvature="0"
     style="fill:#333333" />
</svg>
