<?xml version="1.0" encoding="UTF-8" standalone="no"?>
<svg
   xmlns:dc="http://purl.org/dc/elements/1.1/"
   xmlns:cc="http://creativecommons.org/ns#"
   xmlns:rdf="http://www.w3.org/1999/02/22-rdf-syntax-ns#"
   xmlns:svg="http://www.w3.org/2000/svg"
   xmlns="http://www.w3.org/2000/svg"
   xmlns:xlink="http://www.w3.org/1999/xlink"
   xmlns:sodipodi="http://sodipodi.sourceforge.net/DTD/sodipodi-0.dtd"
   xmlns:inkscape="http://www.inkscape.org/namespaces/inkscape"
   width="48"
   height="48"
   version="1.1"
   id="svg58"
   sodipodi:docname="miro.svg"
   inkscape:version="0.92.4 (5da689c313, 2019-01-14)">
  <metadata
     id="metadata62">
    <rdf:RDF>
      <cc:Work
         rdf:about="">
        <dc:format>image/svg+xml</dc:format>
        <dc:type
           rdf:resource="http://purl.org/dc/dcmitype/StillImage" />
        <dc:title></dc:title>
      </cc:Work>
    </rdf:RDF>
  </metadata>
  <sodipodi:namedview
     pagecolor="#ffffff"
     bordercolor="#666666"
     borderopacity="1"
     objecttolerance="10"
     gridtolerance="10"
     guidetolerance="10"
     inkscape:pageopacity="0"
     inkscape:pageshadow="2"
     inkscape:window-width="1112"
     inkscape:window-height="480"
     id="namedview60"
     showgrid="false"
     inkscape:zoom="4.9166667"
     inkscape:cx="2.1355932"
     inkscape:cy="24"
     inkscape:window-x="0"
     inkscape:window-y="25"
     inkscape:window-maximized="0"
     inkscape:current-layer="svg58" />
  <defs
     id="defs36">
    <linearGradient
       id="e">
      <stop
         offset="0"
         stop-color="#ff2a2a"
         id="stop2" />
      <stop
         offset=".78"
         stop-color="#ff7575"
         id="stop4" />
      <stop
         offset="1"
         stop-color="#ff2a2a"
         id="stop6" />
    </linearGradient>
    <linearGradient
       id="c">
      <stop
         offset="0"
         stop-color="#feffff"
         id="stop9" />
      <stop
         offset="1"
         stop-color="#fff"
         stop-opacity="0"
         id="stop11" />
    </linearGradient>
    <linearGradient
       id="a">
      <stop
         offset="0"
         stop-color="#fff"
         id="stop14" />
      <stop
         offset="1"
         stop-color="#d0d0d0"
         id="stop16" />
    </linearGradient>
    <linearGradient
       id="b">
      <stop
         offset="0"
         stop-color="#040000"
         id="stop19" />
      <stop
         offset="1"
         stop-opacity="0"
         id="stop21" />
    </linearGradient>
    <linearGradient
       xlink:href="#b"
       id="h"
       gradientUnits="userSpaceOnUse"
       x1="19.7"
       y1="8.37"
       x2="37.57"
       y2="26.34" />
    <linearGradient
       xlink:href="#b"
       id="g"
       gradientUnits="userSpaceOnUse"
       x1="13.07"
       y1="6.05"
       x2="55.3"
       y2="29.23" />
    <linearGradient
       xlink:href="#b"
       id="i"
       x1="9.65"
       y1="33.19"
       x2="9.72"
       y2="22.96"
       gradientUnits="userSpaceOnUse" />
    <linearGradient
       xlink:href="#c"
       id="j"
       x1="9.84"
       y1="2.14"
       x2="18.92"
       y2="17.2"
       gradientUnits="userSpaceOnUse" />
    <radialGradient
       xlink:href="#b"
       id="k"
       cx="23.34"
       cy="42.12"
       fx="23.34"
       fy="42.12"
       r="13.41"
       gradientTransform="matrix(1.86917,-0.99668,0.455,0.85331,-38.82,22.6)"
       gradientUnits="userSpaceOnUse" />
    <radialGradient
       xlink:href="#d"
       id="l"
       cx="18.85"
       cy="8.98"
       fx="18.85"
       fy="8.98"
       r="13.4"
       gradientTransform="matrix(0.09144,1.08483,-1.17793,0.09929,27.2,-17.77)"
       gradientUnits="userSpaceOnUse" />
    <linearGradient
       id="d">
      <stop
         offset="0"
         stop-color="#fff"
         id="stop30" />
      <stop
         offset="1"
         stop-color="#fff"
         stop-opacity="0"
         id="stop32" />
    </linearGradient>
    <linearGradient
       xlink:href="#e"
       id="f"
       x1="69.71"
       y1="53.51"
       x2="2.52"
       y2="5.79"
       gradientUnits="userSpaceOnUse" />
  </defs>
  <path
     d="m 24,0.35 a 34.02,34.02 0 0 0 -7.86,0.83 22,22 0 0 0 -6.05,2.5 13.83,13.83 0 0 0 -4.68,5.12 13.38,13.38 0 0 0 -1.21,3.33 17.39,17.39 0 0 0 0.53,9.52 42.41,42.41 0 0 0 2.19,5.78 68,68 0 0 0 4.46,8.17 55.85,55.85 0 0 0 6.23,8.16 20.05,20.05 0 0 0 3.48,2.95 c 1.06,0.68 2,0.95 2.91,0.95 0.9,0 1.9,-0.3 2.91,-0.95 1.06,-0.64 2.2,-1.62 3.48,-2.95 a 54.43,54.43 0 0 0 6.23,-8.16 c 0.87,-1.4 2.8,-4.5 4.46,-8.17 a 40.6,40.6 0 0 0 2.2,-5.78 17.42,17.42 0 0 0 0.53,-9.52 A 14.1,14.1 0 0 0 40.63,5.97 13.8,13.8 0 0 0 35.15,2.19 25.82,25.82 0 0 0 31.86,1.17 34.02,34.02 0 0 0 24,0.35 Z"
     id="path38"
     style="fill:url(#f)"
     inkscape:connector-curvature="0" />
  <path
     d="m 30.95,43.03 a 54.52,54.52 0 0 0 5.67,-7.4 c 0.89,-1.4 2.78,-4.51 4.46,-8.18 a 43.2,43.2 0 0 0 2.19,-5.77 c 0.37,-1.26 0.44,-2.46 0.6,-3.67 L 36.42,10.28 32,21.88 24.86,28.98 11.24,23.21 Z"
     id="path40"
     style="opacity:0.5;fill:url(#g)"
     inkscape:connector-curvature="0" />
  <path
     d="m 28.73,6.68 c 3,0 5.95,1.12 7.7,4.06 0,0 1.03,13.77 -7.3,17.64 0,0 -8.6,4.63 -19.48,-6.65 0,0 5.14,-9.6 12.5,-13.42 a 14.62,14.62 0 0 1 6.58,-1.63 z"
     id="path42"
     inkscape:connector-curvature="0"
     style="fill:#c83737" />
  <path
     d="m 25.4,29.12 c 0.76,-0.07 1.7,-0.06 2.22,-0.2 A 9.77,9.77 0 0 0 31.84,26.5 11.8,11.8 0 0 0 33.79,24 c 0.53,-0.92 0.96,-1.9 1.31,-2.9 0.25,-0.71 0.41,-1.44 0.58,-2.16 l -4.51,-4.51 -5.57,-0.28 -5.75,0.47 -0.56,5.2 -1,2.06 z"
     id="path44"
     style="opacity:0.62999998;fill:url(#h)"
     inkscape:connector-curvature="0" />
  <path
     d="m 18.3,13.53 v 8.34 h 2.97 c 0.01,-1.6 -0.05,-3.2 0,-4.8 0,-0.86 0.13,-1.62 1.13,-1.62 1.15,0 1.25,0.57 1.25,1.67 v 4.75 h 2.98 c 0.01,-1.57 -0.03,-3.15 0,-4.73 0,-0.75 -0.06,-1.7 1.19,-1.7 1.13,0 1.2,0.75 1.2,1.72 v 4.71 h 2.97 c 0,-1.76 0.02,-3.52 -0.01,-5.27 -0.05,-1.07 -0.45,-2.24 -1.54,-2.78 -0.62,-0.2 -0.8,-0.28 -1.58,-0.28 H 18.3 Z"
     id="path46"
     inkscape:connector-curvature="0"
     style="fill:#f2f2f2" />
  <path
     d="m 24,0.35 c -5.83,0 -10.52,1.12 -13.93,3.33 -4.1,2.66 -6.27,6.9 -6.27,12.27 0,7.23 5.8,16.88 7.58,19.67 a 54.48,54.48 0 0 0 6.25,8.16 c 2.54,2.64 4.57,3.87 6.37,3.87 1.8,0 3.83,-1.23 6.37,-3.87 2,-2.08 4.22,-4.97 6.25,-8.16 C 38.4,32.83 44.2,23.18 44.2,15.95 44.2,10.58 42.04,6.34 37.94,3.68 34.52,1.47 29.84,0.35 24,0.35 Z m 0,0.14 c 2.11,0.09 4.12,0.27 5.88,0.7 1.16,0.27 2.25,0.62 3.26,1.03 1.01,0.42 1.94,0.9 2.8,1.46 A 12.92,12.92 0 0 1 40.6,8.8 c 0.53,1.03 0.92,2.15 1.2,3.34 0.26,1.2 0.4,2.47 0.4,3.8 0,1.82 -0.37,3.77 -0.94,5.74 a 43.19,43.19 0 0 1 -2.2,5.77 69.59,69.59 0 0 1 -4.45,8.17 54.47,54.47 0 0 1 -6.25,8.16 17.98,17.98 0 0 1 -3.46,2.93 c -0.32,0.2 -0.62,0.3 -0.91,0.39 -0.3,-0.08 -0.6,-0.2 -0.9,-0.4 -1.06,-0.63 -2.2,-1.6 -3.47,-2.92 -2,-2.08 -4.22,-4.97 -6.25,-8.16 A 69.6,69.6 0 0 1 8.91,27.45 43.19,43.19 0 0 1 6.72,21.68 20.93,20.93 0 0 1 5.79,15.95 c 0,-1.34 0.13,-2.61 0.4,-3.8 0.27,-1.2 0.67,-2.32 1.2,-3.35 a 12.92,12.92 0 0 1 4.67,-5.12 17.1,17.1 0 0 1 2.8,-1.46 c 1,-0.41 2.1,-0.76 3.26,-1.04 C 19.88,0.76 21.89,0.58 24,0.5 Z"
     id="path48"
     inkscape:connector-curvature="0"
     style="opacity:0.2" />
  <path
     d="m 12.15,17.95 c -1.18,1.76 -2.5,3.78 -2.5,3.78 10.87,11.28 19.49,6.65 19.49,6.65 8.32,-3.88 7.28,-17.64 7.28,-17.64 -0.1,-0.16 -0.23,-0.26 -0.33,-0.4 -0.08,0.63 -0.06,1.1 -0.19,1.77 -0.2,0.98 -0.45,2 -0.8,2.99 -0.35,1 -0.78,1.97 -1.31,2.89 a 11.8,11.8 0 0 1 -1.95,2.52 9.77,9.77 0 0 1 -2.7,1.87 c 0,0 -0.54,0.29 -1.52,0.55 -0.98,0.25 -2.4,0.48 -4.15,0.35 a 15.2,15.2 0 0 1 -2.87,-0.5 18.22,18.22 0 0 1 -3.32,-1.25 23.58,23.58 0 0 1 -3.67,-2.28 c -0.47,-0.35 -0.98,-0.89 -1.46,-1.3 z"
     id="path50"
     style="fill:url(#i)"
     inkscape:connector-curvature="0" />
  <path
     d="m 28.73,6.68 c -2.34,0 -4.71,0.65 -6.59,1.63 -7.34,3.82 -12.49,13.42 -12.49,13.42 0.86,0.89 1.67,1.52 2.5,2.22 0.47,-0.7 0.36,-0.68 1,-1.5 1.1,-1.44 2.42,-3 3.94,-4.43 a 22.71,22.71 0 0 1 5.05,-3.71 14.68,14.68 0 0 1 6.59,-1.63 c 0.75,0 1.5,0.07 2.23,0.22 0.72,0.16 1.43,0.39 2.1,0.71 a 7.8,7.8 0 0 1 1.85,1.26 c 0.44,0.4 0.82,0.93 1.18,1.46 0.38,-3.03 0.33,-5.59 0.33,-5.59 C 34.68,7.8 31.74,6.69 28.73,6.68 Z"
     id="path52"
     style="fill:url(#j)"
     inkscape:connector-curvature="0" />
  <path
     d="m 10.49,20.47 c -0.14,0.25 -0.84,1.26 -0.84,1.26 10.87,11.28 19.49,6.65 19.49,6.65 7.9,-3.68 7.37,-15.9 7.29,-17.18 a 29.72,29.72 0 0 1 -0.53,4.9 c -0.2,0.99 -0.45,2 -0.8,3 -0.35,1 -0.78,1.97 -1.31,2.89 -0.54,0.92 -1.18,1.77 -1.95,2.52 a 9.77,9.77 0 0 1 -2.7,1.87 c 0,0 -0.54,0.29 -1.52,0.55 -0.98,0.25 -2.4,0.48 -4.15,0.35 a 15.2,15.2 0 0 1 -2.87,-0.5 18.24,18.24 0 0 1 -3.32,-1.25 23.56,23.56 0 0 1 -3.67,-2.28 c -1,-0.75 -2.06,-1.75 -3.12,-2.78 z"
     id="path54"
     style="opacity:0.8;fill:url(#k)"
     inkscape:connector-curvature="0" />
  <path
     d="m 28.73,6.68 c -2.34,0 -4.71,0.65 -6.59,1.63 -7.34,3.82 -12.49,13.42 -12.49,13.42 0.29,0.3 0.55,0.47 0.84,0.74 0.45,-0.79 0.97,-1.83 2.65,-4.02 1.1,-1.44 2.43,-3 3.95,-4.43 a 22.71,22.71 0 0 1 5.05,-3.71 14.68,14.68 0 0 1 6.59,-1.63 c 0.75,0 1.5,0.07 2.23,0.22 0.72,0.16 1.43,0.39 2.1,0.71 a 7.8,7.8 0 0 1 3.36,3.13 l 0.01,0.46 c 0.04,-1.46 0,-2.46 0,-2.46 -1.75,-2.94 -4.7,-4.05 -7.7,-4.06 z"
     id="path56"
     style="opacity:0.63999999;fill:url(#l)"
     inkscape:connector-curvature="0" />
</svg>
