<?xml version="1.0" encoding="UTF-8" standalone="no"?>
<svg
   xmlns:dc="http://purl.org/dc/elements/1.1/"
   xmlns:cc="http://creativecommons.org/ns#"
   xmlns:rdf="http://www.w3.org/1999/02/22-rdf-syntax-ns#"
   xmlns:svg="http://www.w3.org/2000/svg"
   xmlns="http://www.w3.org/2000/svg"
   xmlns:xlink="http://www.w3.org/1999/xlink"
   xmlns:sodipodi="http://sodipodi.sourceforge.net/DTD/sodipodi-0.dtd"
   xmlns:inkscape="http://www.inkscape.org/namespaces/inkscape"
   width="48"
   height="48"
   version="1.1"
   id="svg82"
   sodipodi:docname="mkvtoolnix-gui.svg"
   inkscape:version="0.92.4 (5da689c313, 2019-01-14)">
  <metadata
     id="metadata86">
    <rdf:RDF>
      <cc:Work
         rdf:about="">
        <dc:format>image/svg+xml</dc:format>
        <dc:type
           rdf:resource="http://purl.org/dc/dcmitype/StillImage" />
        <dc:title></dc:title>
      </cc:Work>
    </rdf:RDF>
  </metadata>
  <sodipodi:namedview
     pagecolor="#ffffff"
     bordercolor="#666666"
     borderopacity="1"
     objecttolerance="10"
     gridtolerance="10"
     guidetolerance="10"
     inkscape:pageopacity="0"
     inkscape:pageshadow="2"
     inkscape:window-width="1112"
     inkscape:window-height="480"
     id="namedview84"
     showgrid="false"
     inkscape:zoom="4.9166667"
     inkscape:cx="2.1355932"
     inkscape:cy="24"
     inkscape:window-x="0"
     inkscape:window-y="25"
     inkscape:window-maximized="0"
     inkscape:current-layer="svg82" />
  <defs
     id="defs58">
    <linearGradient
       id="h">
      <stop
         offset="0"
         stop-color="#2ca089"
         id="stop2" />
      <stop
         offset="1"
         stop-color="#d7f4ee"
         id="stop4" />
    </linearGradient>
    <linearGradient
       id="g">
      <stop
         offset="0"
         stop-color="#1a1a1a"
         id="stop7" />
      <stop
         offset=".506"
         stop-color="#666"
         id="stop9" />
      <stop
         offset="1"
         stop-color="#1a1a1a"
         id="stop11" />
    </linearGradient>
    <radialGradient
       xlink:href="#a"
       id="r"
       cx="249.272"
       cy="149.261"
       fx="249.272"
       fy="149.261"
       r="12.061"
       gradientTransform="matrix(0.32228,0,0,0.32824,-61.604,-19.998)"
       gradientUnits="userSpaceOnUse" />
    <linearGradient
       id="a">
      <stop
         offset="0"
         stop-color="#fff"
         id="stop15" />
      <stop
         offset="1"
         stop-color="#fff"
         stop-opacity=".034"
         id="stop17" />
    </linearGradient>
    <radialGradient
       xlink:href="#b"
       id="n"
       cx="294.267"
       cy="90.506"
       fx="294.267"
       fy="90.506"
       r="18.286"
       gradientTransform="matrix(0.32228,0,0,0.32496,-61.604,-19.344)"
       gradientUnits="userSpaceOnUse" />
    <linearGradient
       id="b">
      <stop
         offset="0"
         stop-color="#de8787"
         id="stop21" />
      <stop
         offset="1"
         stop-color="#ff2a2a"
         id="stop23" />
    </linearGradient>
    <linearGradient
       xlink:href="#c"
       id="q"
       x1="235.006"
       y1="164.304"
       x2="259.227"
       y2="139.624"
       gradientUnits="userSpaceOnUse"
       gradientTransform="matrix(0.32228,0,0,0.32228,-61.604,-19.091)" />
    <linearGradient
       id="c">
      <stop
         offset="0"
         stop-color="#d4aa00"
         id="stop27" />
      <stop
         offset="1"
         stop-color="#ffe680"
         id="stop29" />
    </linearGradient>
    <radialGradient
       xlink:href="#d"
       id="m"
       cx="274.751"
       cy="137.813"
       fx="274.751"
       fy="137.813"
       r="23.787"
       gradientUnits="userSpaceOnUse"
       gradientTransform="matrix(0.1175,-0.72537,0.6791,0.11,-99.817,209.54)" />
    <linearGradient
       id="d">
      <stop
         offset="0"
         stop-color="#fff"
         id="stop33" />
      <stop
         offset="1"
         stop-color="#4d4d4d"
         id="stop35" />
    </linearGradient>
    <linearGradient
       xlink:href="#e"
       id="l"
       x1="274.887"
       y1="147.621"
       x2="279.833"
       y2="93.517"
       gradientUnits="userSpaceOnUse"
       gradientTransform="matrix(0.32228,0,0,0.32228,-61.604,-19.091)" />
    <linearGradient
       id="e">
      <stop
         offset="0"
         stop-color="#214478"
         id="stop39" />
      <stop
         offset=".417"
         stop-color="#3771c8"
         id="stop41" />
      <stop
         offset="1"
         stop-color="#afc6e9"
         id="stop43" />
    </linearGradient>
    <linearGradient
       id="f">
      <stop
         offset="0"
         stop-color="#1a1a1a"
         id="stop46" />
      <stop
         offset=".506"
         stop-color="#b3b3b3"
         id="stop48" />
      <stop
         offset="1"
         stop-color="#1a1a1a"
         id="stop50" />
    </linearGradient>
    <linearGradient
       xlink:href="#f"
       id="j"
       gradientUnits="userSpaceOnUse"
       gradientTransform="matrix(0.32228,0,0,0.32228,-61.604,-19.091)"
       x1="175.296"
       y1="154.18"
       x2="343.059"
       y2="103.807" />
    <linearGradient
       xlink:href="#f"
       id="p"
       gradientUnits="userSpaceOnUse"
       gradientTransform="matrix(0.32228,0,0,0.32228,-61.604,-19.091)"
       x1="175.296"
       y1="154.18"
       x2="343.059"
       y2="103.807" />
    <linearGradient
       xlink:href="#g"
       id="o"
       gradientUnits="userSpaceOnUse"
       gradientTransform="matrix(0.32228,0,0,0.32228,-61.604,-19.091)"
       x1="229.47"
       y1="75.261"
       x2="287.182"
       y2="175.075" />
    <linearGradient
       xlink:href="#f"
       id="k"
       gradientUnits="userSpaceOnUse"
       gradientTransform="matrix(0.32228,0,0,0.32228,-61.604,-19.091)"
       x1="229.47"
       y1="75.261"
       x2="287.182"
       y2="175.075" />
    <linearGradient
       xlink:href="#h"
       id="i"
       x1="19.377"
       y1="-2.216"
       x2="31.155"
       y2="50.976"
       gradientUnits="userSpaceOnUse" />
  </defs>
  <path
     d="m 24,0.35 c -5.83,0 -10.52,1.12 -13.93,3.33 -4.1,2.66 -6.27,6.9 -6.27,12.27 0,7.23 5.8,16.88 7.58,19.67 a 54.48,54.48 0 0 0 6.25,8.16 c 2.54,2.64 4.57,3.87 6.37,3.87 1.8,0 3.83,-1.23 6.37,-3.87 2,-2.08 4.22,-4.97 6.25,-8.16 C 38.4,32.83 44.2,23.18 44.2,15.95 44.2,10.58 42.04,6.34 37.94,3.68 34.52,1.47 29.84,0.35 24,0.35 Z"
     id="path60"
     style="fill:url(#i)"
     inkscape:connector-curvature="0" />
  <path
     d="m 4.71,21.54 c 0.015,0.048 0.01,0.093 0.024,0.142 0.074,0.252 0.202,0.488 0.282,0.74 a 7.28,22.903 74.313 0 1 15.298,-6.574 7.28,22.903 74.313 0 1 14.641,-2.3 7.28,22.903 74.313 0 1 9.15,2.981 c 0.008,-0.186 0.094,-0.397 0.094,-0.58 0,-0.567 -0.122,-1.068 -0.17,-1.61 a 7.684,25.021 75.024 0 0 -7.976,-1.25 7.684,25.021 75.024 0 0 -16.04,2.42 7.684,25.021 75.024 0 0 -15.302,6.03 z"
     id="path62"
     style="fill:url(#j)"
     inkscape:connector-curvature="0" />
  <path
     d="m 23.1,0.445 c -0.59,0.014 -1.064,0.137 -1.63,0.174 a 23.043,12.816 70.215 0 1 13.444,16.695 23.043,12.816 70.215 0 1 1.799,18.133 c 0.165,-0.26 0.572,-1.09 0.793,-1.45 A 24.347,13.355 70.818 0 0 35.23,17.154 24.347,13.355 70.818 0 0 23.1,0.445 Z"
     id="path64"
     style="fill:url(#k)"
     inkscape:connector-curvature="0" />
  <path
     d="m 24,0.35 c -5.83,0 -10.52,1.12 -13.93,3.33 -4.1,2.66 -6.27,6.9 -6.27,12.27 0,7.23 5.8,16.88 7.58,19.67 a 54.47,54.47 0 0 0 6.25,8.16 c 2.54,2.64 4.57,3.87 6.37,3.87 1.8,0 3.83,-1.23 6.37,-3.87 2,-2.08 4.22,-4.97 6.25,-8.16 C 38.4,32.83 44.2,23.18 44.2,15.95 44.2,10.58 42.04,6.34 37.94,3.68 34.52,1.47 29.84,0.35 24,0.35 Z m 0,0.14 c 2.11,0.09 4.12,0.27 5.88,0.7 a 22,22 0 0 1 3.26,1.03 c 1.01,0.42 1.94,0.9 2.8,1.46 A 12.92,12.92 0 0 1 40.6,8.8 c 0.53,1.03 0.92,2.15 1.2,3.34 0.26,1.2 0.4,2.47 0.4,3.8 0,1.82 -0.37,3.77 -0.94,5.74 a 43.19,43.19 0 0 1 -2.2,5.77 69.59,69.59 0 0 1 -4.45,8.17 54.47,54.47 0 0 1 -6.25,8.16 17.98,17.98 0 0 1 -3.46,2.93 c -0.32,0.2 -0.62,0.3 -0.91,0.39 -0.3,-0.08 -0.6,-0.2 -0.9,-0.4 -1.06,-0.63 -2.2,-1.6 -3.47,-2.92 -2,-2.08 -4.22,-4.97 -6.25,-8.16 A 69.6,69.6 0 0 1 8.91,27.45 43.18,43.18 0 0 1 6.72,21.68 20.93,20.93 0 0 1 5.79,15.95 c 0,-1.34 0.13,-2.61 0.4,-3.81 0.27,-1.2 0.67,-2.31 1.2,-3.34 a 12.92,12.92 0 0 1 4.67,-5.12 17.1,17.1 0 0 1 2.8,-1.46 c 1,-0.41 2.1,-0.76 3.26,-1.04 C 19.88,0.76 21.89,0.58 24,0.5 Z"
     id="path66"
     inkscape:connector-curvature="0"
     style="opacity:0.2" />
  <ellipse
     ry="11.692"
     rx="11.846"
     cy="22.622"
     cx="24.854"
     id="ellipse68"
     style="fill:url(#l)" />
  <circle
     r="7.6659999"
     cy="24.652"
     cx="23.049999"
     id="circle70"
     style="fill:url(#m)" />
  <ellipse
     ry="5.9419999"
     rx="5.8930001"
     cy="11.374"
     cx="31.714001"
     id="ellipse72"
     style="fill:url(#n)" />
  <path
     d="m 28.467,45.389 c 0.627,-0.517 1.204,-0.884 1.902,-1.61 0.035,-0.036 0.074,-0.105 0.11,-0.142 A 23.043,12.816 70.215 0 1 10.969,26.467 23.043,12.816 70.215 0 1 11.611,2.879 c -0.518,0.263 -1.07,0.496 -1.54,0.8 C 9.924,3.775 9.825,3.907 9.684,4.006 a 24.347,13.355 70.818 0 0 0.642,22.84 24.347,13.355 70.818 0 0 18.14,18.543 z"
     id="path74"
     style="fill:url(#o)"
     inkscape:connector-curvature="0" />
  <path
     d="m 9.54,32.244 c 0.085,0.149 0.17,0.324 0.253,0.465 a 7.684,25.021 75.024 0 0 14.193,-2.354 7.684,25.021 75.024 0 0 19.291,-8.748 c 0.235,-0.815 0.238,-1.576 0.389,-2.378 a 7.28,22.903 74.313 0 1 -19.727,10.724 7.28,22.903 74.313 0 1 -14.4,2.291 z"
     id="path76"
     style="fill:url(#p)"
     inkscape:connector-curvature="0" />
  <ellipse
     ry="3.9590001"
     rx="3.8870001"
     cy="30.013"
     cx="18.054001"
     id="ellipse78"
     style="fill:url(#q)" />
  <ellipse
     ry="3.9590001"
     rx="3.8870001"
     cy="30.013"
     cx="18.054001"
     id="ellipse80"
     style="opacity:0.37000002;fill:url(#r)" />
</svg>
