<?xml version="1.0" encoding="UTF-8" standalone="no"?>
<svg
   xmlns:dc="http://purl.org/dc/elements/1.1/"
   xmlns:cc="http://creativecommons.org/ns#"
   xmlns:rdf="http://www.w3.org/1999/02/22-rdf-syntax-ns#"
   xmlns:svg="http://www.w3.org/2000/svg"
   xmlns="http://www.w3.org/2000/svg"
   xmlns:xlink="http://www.w3.org/1999/xlink"
   xmlns:sodipodi="http://sodipodi.sourceforge.net/DTD/sodipodi-0.dtd"
   xmlns:inkscape="http://www.inkscape.org/namespaces/inkscape"
   viewBox="0 0 48 48"
   version="1.1"
   id="svg33"
   sodipodi:docname="org.kde.mcwsremote.svg"
   inkscape:version="0.92.4 (5da689c313, 2019-01-14)">
  <metadata
     id="metadata37">
    <rdf:RDF>
      <cc:Work
         rdf:about="">
        <dc:format>image/svg+xml</dc:format>
        <dc:type
           rdf:resource="http://purl.org/dc/dcmitype/StillImage" />
        <dc:title></dc:title>
      </cc:Work>
    </rdf:RDF>
  </metadata>
  <sodipodi:namedview
     pagecolor="#ffffff"
     bordercolor="#666666"
     borderopacity="1"
     objecttolerance="10"
     gridtolerance="10"
     guidetolerance="10"
     inkscape:pageopacity="0"
     inkscape:pageshadow="2"
     inkscape:window-width="1112"
     inkscape:window-height="480"
     id="namedview35"
     showgrid="false"
     inkscape:zoom="4.9166667"
     inkscape:cx="2.1355932"
     inkscape:cy="24"
     inkscape:window-x="0"
     inkscape:window-y="25"
     inkscape:window-maximized="0"
     inkscape:current-layer="svg33" />
  <defs
     id="defs15">
    <linearGradient
       id="b">
      <stop
         offset="0"
         stop-color="#ececec"
         id="stop2" />
      <stop
         offset="1"
         stop-color="#ccc"
         id="stop4" />
    </linearGradient>
    <linearGradient
       id="a">
      <stop
         offset="0"
         stop-color="#ccc"
         id="stop7" />
      <stop
         offset=".52"
         stop-color="#fff"
         id="stop9" />
      <stop
         offset="1"
         stop-color="#b3b3b3"
         id="stop11" />
    </linearGradient>
    <linearGradient
       xlink:href="#b"
       id="c"
       x1="23.7"
       y1=".49"
       x2="23.709"
       y2="47.682"
       gradientUnits="userSpaceOnUse" />
  </defs>
  <path
     d="M 23.71,0.5 C 17.88,0.5 13.2,1.6 9.78,3.82 5.68,6.48 3.5,10.73 3.5,16.1 c 0,7.22 5.8,16.88 7.58,19.67 a 54.47,54.47 0 0 0 6.25,8.16 c 2.54,2.64 4.57,3.87 6.37,3.87 1.8,0 3.83,-1.23 6.37,-3.87 2,-2.08 4.22,-4.98 6.25,-8.16 C 38.1,32.98 43.91,23.32 43.91,16.1 43.91,10.73 41.74,6.48 37.64,3.83 34.23,1.6 29.55,0.49 23.7,0.49 Z"
     id="path17"
     style="fill:url(#c)"
     inkscape:connector-curvature="0" />
  <path
     d="M 23.71,0.5 C 17.88,0.5 13.2,1.6 9.78,3.82 5.68,6.48 3.5,10.73 3.5,16.1 c 0,7.22 5.8,16.88 7.58,19.67 a 54.47,54.47 0 0 0 6.25,8.16 c 2.54,2.64 4.57,3.87 6.37,3.87 1.8,0 3.83,-1.23 6.37,-3.87 2,-2.08 4.22,-4.98 6.25,-8.16 C 38.1,32.98 43.91,23.32 43.91,16.1 43.91,10.73 41.74,6.48 37.64,3.83 34.23,1.6 29.55,0.49 23.7,0.49 Z m 0,1 c 5.59,0 10.08,1.07 13.35,3.19 3.93,2.54 6,6.6 6,11.75 0,6.92 -5.56,16.17 -7.26,18.84 a 52.19,52.19 0 0 1 -5.99,7.81 c -2.43,2.53 -4.37,3.71 -6.1,3.71 -1.73,0 -3.67,-1.18 -6.1,-3.7 A 52.19,52.19 0 0 1 11.63,35.28 C 9.93,32.61 4.36,23.36 4.36,16.44 c 0,-5.15 2.08,-9.2 6,-11.75 3.28,-2.12 7.77,-3.2 13.35,-3.2 z"
     id="path19"
     inkscape:connector-curvature="0"
     style="opacity:0.3" />
  <path
     d="m 20.912,11.047 v -3.06 h -0.953 l -0.615,1.999 -0.662,-2 h -0.953 v 3.061 h 0.523 v -2.43 l 0.723,2.215 h 0.646 l 0.66,-2.215 v 2.43 h 0.631 m 3.015,0 v -0.43 H 22.235 V 9.6 h 1.308 V 9.185 h -1.339 v -0.8 H 23.85 V 8.001 h -2.26 v 3.06 h 2.337 m 0.969,0 v -2.26 l 1.461,2.245 h 0.615 v -3.06 h -0.507 v 2.245 L 25.004,7.985 h -0.63 v 3.061 h 0.522 m 5.383,-1.184 v -1.86 h -0.646 v 1.984 c 0,0.215 0,0.446 -0.169,0.615 a 0.851,0.851 0 0 1 -0.492,0.154 0.738,0.738 0 0 1 -0.508,-0.154 c -0.169,-0.17 -0.169,-0.4 -0.169,-0.615 v -2 h -0.63 v 1.877 c 0,0.384 0,0.769 0.322,1.015 0.262,0.2 0.616,0.277 0.985,0.277 0.354,0 0.707,-0.077 0.969,-0.277 0.338,-0.262 0.338,-0.63 0.338,-1.015"
     font-weight="400"
     font-size="20"
     id="path21"
     inkscape:connector-curvature="0"
     style="font-weight:400;font-size:20px;font-family:'Aurulent Sans'" />
  <path
     d="m 37.846,18.091 v 3.815 H 36.923 V 18.09 Z m -0.923,1.907 -2.86,1.908 v -1.6 l -2.338,1.584 v -3.814 l 2.338,1.584 v -1.584 z"
     id="path23"
     inkscape:connector-curvature="0"
     style="fill-rule:evenodd" />
  <path
     d="m 10.223,18.091 v 3.815 h 0.923 V 18.09 Z m 0.923,1.907 2.86,1.908 v -1.6 l 2.339,1.584 v -3.814 l -2.338,1.584 v -1.584 z"
     id="path25"
     inkscape:connector-curvature="0"
     style="fill:#1a1a1a;fill-rule:evenodd" />
  <g
     id="g31"
     style="stroke-width:0.89999998">
    <path
       d="m 20.697,28.919 v 4.414 l 3.307,-2.215 z"
       id="path27"
       inkscape:connector-curvature="0"
       style="fill-rule:evenodd" />
    <path
       d="m 26.203,28.919 h 1.108 v 4.414 h -1.108 z m -1.645,0 h 1.092 v 4.414 h -1.092 z"
       id="path29"
       inkscape:connector-curvature="0" />
  </g>
</svg>
