<?xml version="1.0" encoding="UTF-8" standalone="no"?>
<svg
   xmlns:dc="http://purl.org/dc/elements/1.1/"
   xmlns:cc="http://creativecommons.org/ns#"
   xmlns:rdf="http://www.w3.org/1999/02/22-rdf-syntax-ns#"
   xmlns:svg="http://www.w3.org/2000/svg"
   xmlns="http://www.w3.org/2000/svg"
   xmlns:sodipodi="http://sodipodi.sourceforge.net/DTD/sodipodi-0.dtd"
   xmlns:inkscape="http://www.inkscape.org/namespaces/inkscape"
   width="48"
   height="48"
   version="1.1"
   id="svg45"
   sodipodi:docname="playonlinux.svg"
   inkscape:version="0.92.4 (5da689c313, 2019-01-14)">
  <sodipodi:namedview
     pagecolor="#ffffff"
     bordercolor="#666666"
     borderopacity="1"
     objecttolerance="10"
     gridtolerance="10"
     guidetolerance="10"
     inkscape:pageopacity="0"
     inkscape:pageshadow="2"
     inkscape:window-width="1112"
     inkscape:window-height="480"
     id="namedview47"
     showgrid="false"
     inkscape:zoom="4.9166667"
     inkscape:cx="2.1355932"
     inkscape:cy="24"
     inkscape:window-x="0"
     inkscape:window-y="25"
     inkscape:window-maximized="0"
     inkscape:current-layer="svg45" />
  <metadata
     id="metadata2">
    <rdf:RDF>
      <cc:Work>
        <dc:format>image/svg+xml</dc:format>
        <dc:type
           rdf:resource="http://purl.org/dc/dcmitype/StillImage" />
        <dc:title></dc:title>
      </cc:Work>
    </rdf:RDF>
  </metadata>
  <defs
     id="defs21">
    <linearGradient
       id="a">
      <stop
         offset="0"
         id="stop4" />
      <stop
         offset="1"
         stop-opacity="0"
         id="stop6" />
    </linearGradient>
    <linearGradient
       id="b">
      <stop
         offset="0"
         stop-color="#c83737"
         id="stop9" />
      <stop
         offset="1"
         stop-color="#c83737"
         stop-opacity=".03"
         id="stop11" />
    </linearGradient>
    <linearGradient
       id="c">
      <stop
         offset="0"
         stop-color="#2086e7"
         id="stop14" />
      <stop
         stop-color="#89c2ee"
         offset=".58"
         id="stop16" />
      <stop
         offset="1"
         stop-color="#2086e7"
         id="stop18" />
    </linearGradient>
  </defs>
  <path
     d="m 24,0.35 c -5.83,0 -10.52,1.12 -13.93,3.33 -4.1,2.65 -6.27,6.9 -6.27,12.27 0,7.23 5.8,16.89 7.58,19.67 a 54.47,54.47 0 0 0 6.25,8.16 c 2.54,2.64 4.57,3.87 6.37,3.87 1.8,0 3.83,-1.23 6.37,-3.87 2,-2.08 4.22,-4.97 6.25,-8.16 1.78,-2.78 7.59,-12.44 7.59,-19.67 0,-5.37 -2.18,-9.61 -6.28,-12.27 C 34.53,1.47 29.84,0.35 24,0.35 Z"
     id="path23"
     inkscape:connector-curvature="0"
     style="fill:#5f8dd3" />
  <path
     d="M 39.3,4.68 C 38.87,4.33 38.42,3.99 37.94,3.68 A 17.1,17.1 0 0 0 35.14,2.22 22,22 0 0 0 31.88,1.18 33.86,33.86 0 0 0 24,0.35 c -2.92,0 -5.54,0.28 -7.87,0.83 A 22.02,22.02 0 0 0 12.86,2.22 17.15,17.15 0 0 0 8.7,4.66 L 24,19.9 Z"
     id="path25"
     inkscape:connector-curvature="0"
     style="fill:#de8787" />
  <path
     d="M 8.7,4.66 C 8.3,5.01 7.9,5.37 7.56,5.76 6.78,6.62 6.08,7.46 5.56,8.49 a 12.5,12.5 0 0 0 -1.23,3.12 18.2,18.2 0 0 0 -0.54,3.9 c 0,1.8 0.28,3.84 0.85,5.8 a 42,42 0 0 0 2.1,5.72 47.66,47.66 0 0 0 3.37,6.51 L 24,19.9 Z"
     id="path27"
     inkscape:connector-curvature="0"
     style="fill:#87deaa" />
  <path
     d="m 37.88,33.58 a 56.18,56.18 0 0 0 5.38,-11.9 21,21 0 0 0 0.94,-5.73 c 0,-1.34 -0.14,-2.62 -0.4,-3.81 A 14.09,14.09 0 0 0 42.6,8.8 12.9,12.9 0 0 0 39.3,4.68 L 24,19.9 Z"
     id="path29"
     inkscape:connector-curvature="0"
     style="fill:#d3bc5f" />
  <path
     d="m 19.9,9.18 -2.73,0.04 -3.59,1.3 -1.8,3 0.08,2.92 0.8,0.33 0.37,-0.17 -0.03,-1.63 -0.03,-1 0.63,-1.03 1.15,-1.37 0.9,-0.7 2.35,-0.43 0.71,0.07 0.48,0.08 0.6,0.22 0.63,0.38 0.7,0.62 0.44,0.64 0.34,0.07 0.05,1.1 0.21,1.07 h -0.13 l -0.06,0.92 -0.22,0.66 -0.24,0.37 -0.47,0.58 -0.39,0.33 -0.48,0.36 -0.48,0.2 -0.55,0.27 a 2.6,2.6 0 0 1 -1.16,0.32 l -0.01,0.01 H 17.1 l -0.85,-0.03 -0.32,-0.04 -0.62,-0.17 -0.85,-0.38 -0.71,-0.3 -2.61,-0.8 0.56,0.94 1.6,2.18 2.3,1.1 1.28,0.43 1.04,-0.03 1.73,-0.17 1.85,-0.84 1.51,-1.35 h 0.01 v 0.04 l 1.69,-0.84 0.88,-0.29 0.11,0.03 -0.4,0.53 -0.1,0.11 -0.1,0.2 -0.41,0.63 -0.29,0.43 -0.1,0.41 0.08,0.6 0.12,0.83 c -0.79,-0.3 -5.16,0.92 -4.82,6.04 l 0.07,0.55 0.24,0.94 0.18,0.42 0.26,0.47 0.3,0.4 1.09,0.82 1.03,1.31 -0.02,0.93 6.8,0.8 1.36,0.04 1.7,-0.77 2.42,-2.36 0.85,-2.46 -0.05,-1.88 c -0.84,-2.65 -1.2,-4.85 -1.12,-6.62 -0.85,-0.65 -1.52,-1.23 -2.17,-1.72 l -0.05,-0.57 0.41,-0.78 -0.07,-0.78 -0.24,-0.6 c -0.09,-0.03 -0.13,-0.2 -0.18,-0.34 l -1.64,-2.22 -0.46,-0.51 -0.18,-0.11 -0.77,-0.4 -0.73,0.38 -0.02,-0.03 -1.55,0.16 -0.07,-0.47 -0.47,-1.16 -0.46,-0.76 -0.23,-0.57 A 3.62,3.62 0 0 0 23.96,9.32 L 23.43,9.33 H 22.87 L 22.69,9.31 22.31,9.34 21.95,9.41 21.5,9.62 21.48,9.65 21.05,9.6 20.58,9.33 20.15,9.25 Z m 8.01,5 c 0,0 0.97,0.12 1.07,0.12 0.02,0 0.07,-0.04 0.1,-0.06 l 0.29,0.78 0.87,0.62 0.75,1.16 -0.18,1 a 6.83,6.83 0 0 0 -2.52,-0.44 c -0.45,0 -0.94,0.02 -1.5,0.08 l -0.03,0.03 -0.28,0.02 0.13,-0.75 0.75,-2.3 z m -0.75,8.69 0.76,0.1 0.66,0.12 0.92,0.29 0.87,0.34 0.86,0.46 0.28,0.17 1.26,0.82 0.3,0.22 0.44,1.6 0.02,0.46 -0.07,0.44 -0.23,0.64 -0.11,0.25 -0.15,0.26 -0.12,0.3 c -2.16,3.74 -6.03,1.45 -9.25,1.45 l -0.47,-0.23 -0.06,-0.17 -0.55,-0.76 -0.88,-1.56 0.17,-1.4 0.35,-1.07 0.97,-1.4 1.82,-0.93 z"
     id="path31"
     inkscape:connector-curvature="0"
     style="fill:#dbdee3" />
  <g
     id="g41"
     style="fill:#1a1a1a">
    <path
       d="m 15.14,9.14 a 10,10 0 0 0 -1.8,0.93 7.1,7.1 0 0 0 -2,2.25 c -0.15,0.28 -0.3,0.44 -0.5,0.57 l -0.13,0.32 -0.28,0.9 c -0.27,0.85 0.42,2.04 0.38,2.5 l 0.18,0.73 c 0.22,1 0.65,1.75 1.47,2.53 0.22,0.22 0.55,0.5 0.74,0.62 0.77,0.5 2.07,1.03 3.08,1.24 0.58,0.11 1.86,0.15 2.5,0.06 a 7.36,7.36 0 0 0 4.12,-1.95 c 0.61,-0.56 0.96,-0.8 1.48,-1.05 a 3.5,3.5 0 0 1 1,-0.32 c 0,0 -0.02,0.08 -0.07,0.16 a 0.7,0.7 0 0 0 -0.1,0.2 c 0,0.1 0.2,-0.1 0.51,-0.5 0.32,-0.4 0.7,-0.74 0.94,-0.82 0.15,-0.04 0.16,-0.06 0.12,-0.13 -0.07,-0.1 0.03,-0.47 0.3,-1.14 0.15,-0.39 0.24,-0.68 0.27,-0.89 0.02,-0.17 0.07,-0.4 0.12,-0.5 0.07,-0.15 0.11,-0.19 0.32,-0.27 0.43,-0.16 0.4,-0.16 0.68,0.14 0.28,0.32 0.58,0.55 1.4,1.08 0.52,0.34 0.6,0.4 0.73,0.63 0.32,0.51 0.3,0.46 0.24,0.68 -0.03,0.1 -0.1,0.31 -0.18,0.46 -0.07,0.14 -0.12,0.28 -0.1,0.3 0.01,0.05 0.57,0.28 0.66,0.28 0.02,0 0.01,-0.04 -0.02,-0.1 -0.06,-0.1 -0.03,-0.28 0.05,-0.28 0.02,0 0.14,0.1 0.26,0.24 0.24,0.25 0.33,0.27 0.17,0.05 A 0.68,0.68 0 0 0 31.2,17.73 c -0.18,-0.03 -0.25,-0.12 -0.12,-0.16 0.37,-0.1 0.72,-0.42 0.84,-0.73 l 0.2,-0.44 c 0.06,-0.14 0.12,-0.28 0.12,-0.33 0,-0.07 -0.68,-1.34 -0.77,-1.43 -0.03,-0.02 -0.03,0 0,0.1 0.01,0.11 0,0.12 -0.1,0.12 -0.08,0 -0.16,0 -0.2,0.02 -0.05,0.01 -0.07,-0.04 -0.09,-0.24 -0.06,-0.53 -0.08,-0.6 -0.14,-0.6 -0.04,0.03 -0.05,0 -0.03,-0.14 0.03,-0.23 -0.02,-0.37 -0.13,-0.43 l -0.09,-0.05 0.1,0.15 c 0.2,0.3 0.07,0.33 -0.22,0.02 A 4.17,4.17 0 0 0 30,13.15 c -0.23,-0.16 -0.37,-0.27 -0.4,-0.36 -0.06,-0.15 -0.03,-0.2 0.06,-0.1 l 0.27,0.2 c 0.11,0.07 0.3,0.21 0.41,0.32 0.17,0.14 0.22,0.17 0.23,0.12 0.05,-0.25 -0.86,-0.92 -1.33,-1 -0.26,-0.03 -0.38,0 -0.57,0.18 -0.1,0.08 -0.23,0.18 -0.3,0.21 a 3.3,3.3 0 0 1 -1.02,0.13 c -0.02,-0.02 -0.1,-0.22 -0.17,-0.44 a 4.72,4.72 0 0 0 -0.37,-0.77 c -0.12,-0.2 -0.32,-0.58 -0.44,-0.83 -0.34,-0.73 -0.55,-0.93 -0.5,-0.48 0.03,0.24 0.2,0.58 0.42,0.85 0.15,0.17 0.17,0.21 0.12,0.27 -0.04,0.05 -0.04,0.08 0,0.11 l 0.05,0.15 c 0,0.08 0,0.08 0.04,-0.02 0.06,-0.1 0.1,-0.12 0.14,-0.02 0.02,0.06 0.23,2.3 0.24,2.5 0,0.03 -0.1,0.22 -0.22,0.41 -0.12,0.2 -0.25,0.45 -0.3,0.56 -0.13,0.35 -0.08,0.52 0.06,0.21 0.1,-0.2 0.3,-0.45 0.27,-0.33 0,0.05 -0.03,0.13 -0.05,0.17 -0.03,0.07 -0.02,0.08 0.08,0.05 0.14,-0.03 0.15,0.05 0.04,0.23 -0.1,0.16 -0.17,0.16 -0.23,0 -0.02,-0.06 -0.05,-0.08 -0.07,-0.06 0,0.03 0.01,0.1 0.05,0.18 0.07,0.12 0.06,0.14 -0.06,0.45 -0.05,0.11 -0.16,0.5 -0.24,0.84 a 6,6 0 0 1 -0.2,0.76 c -0.09,0.16 -0.5,0.35 -0.86,0.4 -0.24,0.04 -0.22,-0.02 0.05,-0.1 a 0.71,0.71 0 0 0 0.41,-0.32 l 0.1,-0.12 -0.2,0.03 -0.19,0.03 0.13,-0.07 c 0.24,-0.13 0.3,-0.3 0.18,-0.53 -0.05,-0.1 -0.05,-0.12 0.03,-0.23 0.08,-0.12 0.08,-0.12 0,-0.1 a 6.61,6.61 0 0 0 -2.04,0.61 c -0.4,0.21 -0.52,0.3 -0.64,0.5 -0.14,0.22 -0.9,0.97 -1.3,1.27 a 8.51,8.51 0 0 1 -2.66,1.27 c -0.04,0 0,-0.12 0.08,-0.2 0.05,-0.06 0.08,-0.1 0.06,-0.13 0,-0.02 -0.23,0 -0.47,0.05 -0.24,0.04 -0.64,0.1 -0.9,0.1 -0.24,0.02 -0.45,0.05 -0.47,0.07 -0.04,0.03 -0.04,0.04 -0.05,0.15 0,0.04 -0.22,0.05 -0.78,0.03 -0.55,-0.02 -0.74,0 -0.65,0.02 0.07,0.02 0.5,0.04 0.96,0.05 0.75,0 0.85,0 0.92,-0.07 a 3.53,3.53 0 0 1 1.12,-0.22 c 0.1,0.05 0.03,0.16 -0.1,0.22 -0.5,0.2 -2.5,0.24 -3.33,0.06 -0.63,-0.13 -1.82,-0.58 -1.69,-0.63 0.03,0 0.18,0.03 0.34,0.1 0.46,0.18 0.35,0.08 -0.23,-0.2 a 7.2,7.2 0 0 1 -0.82,-0.49 8.96,8.96 0 0 1 -1.3,-1.26 c -0.05,-0.08 0.1,0.04 0.35,0.3 0.4,0.4 0.56,0.52 0.5,0.37 -0.02,-0.04 0,-0.07 0.02,-0.07 0.04,0 0.06,0.06 0.04,0.1 l 0.04,0.1 a 5.84,5.84 0 0 0 2.02,1.12 l 0.23,0.02 -0.08,-0.16 c -0.1,-0.17 -0.2,-0.24 -0.33,-0.24 -0.06,0 -0.1,-0.04 -0.13,-0.1 a 0.33,0.33 0 0 0 -0.13,-0.16 c -0.06,-0.03 -0.07,-0.06 -0.05,-0.1 0.07,-0.07 0.1,-0.5 0.06,-0.67 -0.04,-0.16 -0.04,-0.17 0.03,-0.1 0.05,0.04 0.1,0.12 0.1,0.18 0.02,0.05 0.05,0.1 0.08,0.1 0.06,0 0.05,-0.23 -0.03,-0.33 -0.06,-0.09 -0.06,-0.1 0,-0.1 a 8.23,8.23 0 0 0 1.02,0.37 l 0.47,0.16 1,0.01 c 0.58,0.02 1.04,0 1.1,-0.02 0.08,-0.03 -0.13,-0.04 -0.67,-0.03 a 5.05,5.05 0 0 1 -2.6,-0.54 2.67,2.67 0 0 1 -1.45,-1.7 c -0.13,-0.38 -0.13,-0.4 -0.1,-0.84 0.04,-0.62 0.17,-1.46 0.28,-1.8 0.2,-0.6 0.56,-1.19 1.2,-1.82 0.4,-0.42 0.8,-0.7 1.31,-0.9 0.8,-0.36 1.51,-0.48 2.51,-0.45 0.5,0.02 0.7,0.04 0.9,0.1 0.57,0.22 1.04,0.52 1.5,1 0.4,0.4 0.56,0.63 0.77,1.04 l 0.17,0.33 v 1 c 0,0.77 -0.03,1.1 -0.08,1.37 -0.09,0.43 -0.09,0.52 -0.03,0.43 0.05,-0.09 0.1,-0.03 0.06,0.08 0,0.06 -0.05,0.08 -0.09,0.07 -0.05,-0.02 -0.06,0 -0.04,0.08 0.02,0.07 0.01,0.11 -0.03,0.13 -0.04,0.01 -0.07,0.07 -0.1,0.14 -0.04,0.2 -0.35,0.64 -0.6,0.87 -0.34,0.3 -0.76,0.57 -1.37,0.86 -0.6,0.3 -0.63,0.36 -0.05,0.11 a 4.62,4.62 0 0 0 2.63,-2.62 l 0.2,-0.46 -0.02,-1.37 C 22.3,12.51 22.3,12.42 22.22,12.2 a 3.3,3.3 0 0 1 -0.15,-0.42 5.49,5.49 0 0 0 -0.26,-0.7 c -0.12,-0.29 -0.23,-0.6 -0.24,-0.72 0,-0.15 -0.04,-0.2 -0.08,-0.18 -0.04,0.02 -0.06,0 -0.06,-0.13 0,-0.13 0.02,-0.16 0.1,-0.2 0.07,-0.02 0.11,-0.05 0.11,-0.08 0,-0.03 0,-0.03 -0.04,-0.02 h -0.04 c 0,-0.03 0.1,-0.1 0.2,-0.18 0.15,-0.1 0.28,-0.15 0.53,-0.19 0.18,-0.02 0.36,-0.03 0.4,-0.02 0.07,0.03 0.07,0.04 0,0.1 -0.1,0.12 -0.08,0.23 0.08,0.44 l 0.2,0.32 0.03,0.12 V 10.2 c 0,-0.1 0.03,-0.13 0.08,-0.13 a 0.2,0.2 0 0 0 0.13,-0.05 c 0.03,-0.04 0.06,-0.04 0.12,0 0.03,0.03 0.07,0.05 0.08,0.04 0.06,-0.07 0.36,-0.59 0.36,-0.62 0,-0.03 0.07,-0.07 0.14,-0.1 0.12,-0.03 0.1,-0.03 -0.17,-0.03 -0.17,0 -0.3,0 -0.3,0.02 0,0.02 0.02,0.07 0.06,0.12 0.07,0.1 0.08,0.2 0,0.34 C 23.43,9.96 23.32,9.92 23.2,9.69 23.12,9.52 23.1,9.45 23.13,9.42 23.21,9.33 23.18,9.32 22.96,9.29 22.54,9.26 21.96,9.33 21.73,9.45 21.45,9.59 21.33,9.59 20.89,9.4 20.69,9.32 20.39,9.2 20.22,9.15 l -0.3,-0.1 -2.2,-0.37 c -2.15,0 -2.36,0.38 -2.58,0.46 z m 5.5,0.3 0.1,0.07 -0.1,0.03 -0.1,0.03 0.1,0.1 0.1,0.1 h -0.1 c -0.1,0 -0.13,0.04 -0.05,0.12 0.04,0.04 0.04,0.06 0,0.1 -0.04,0.01 -0.02,0.07 0.08,0.23 0.2,0.28 0.45,0.54 0.5,0.51 0.05,-0.03 0.12,0.18 0.07,0.22 0,0.01 -0.07,-0.02 -0.13,-0.07 -0.18,-0.17 -0.12,-0.03 0.15,0.37 a 2.08,2.08 0 0 1 0.35,0.72 c 0.02,0.02 0.03,0.11 0.03,0.2 l -0.02,0.13 -0.1,-0.22 a 3.42,3.42 0 0 0 -0.87,-0.86 5.9,5.9 0 0 0 -1.92,-0.82 5.96,5.96 0 0 0 -1.94,-0.16 1.3,1.3 0 0 1 -0.36,0.13 4.8,4.8 0 0 0 -1.3,0.51 c -0.53,0.28 -0.88,0.55 -1.25,0.98 -0.63,0.72 -1.13,1.7 -1.13,2.24 a 2,2 0 0 1 -0.09,0.44 c -0.12,0.42 -0.1,1.1 0.07,1.58 0.1,0.3 0.12,0.48 0.02,0.33 A 6.4,6.4 0 0 1 12.33,14.7 c 0,-0.26 0.1,-0.95 0.17,-1.12 a 0.27,0.27 0 0 1 0.13,-0.15 c 0.07,-0.02 0.11,-0.1 0.15,-0.26 0.07,-0.28 0.5,-1.16 0.73,-1.5 0.24,-0.36 0.82,-0.9 1.2,-1.13 0.41,-0.25 0.81,-0.4 1.53,-0.57 0.6,-0.13 0.66,-0.14 1.45,-0.13 a 8,8 0 0 1 1.07,0.05 7.73,7.73 0 0 1 1.8,0.86 c 0.15,0.17 0.27,0.2 0.31,0.1 0,-0.04 0,-0.05 -0.05,-0.03 -0.09,0.03 -0.43,-0.3 -0.4,-0.4 0.03,-0.05 0.01,-0.06 -0.07,-0.04 -0.13,0.04 -0.13,0 -0.02,-0.14 0.11,-0.15 0.1,-0.19 -0.04,-0.15 -0.13,0.02 -0.13,0.02 -0.09,-0.12 0.02,-0.07 0.04,-0.22 0.04,-0.33 0,-0.1 0.02,-0.22 0.05,-0.24 0.08,-0.08 0.23,-0.07 0.34,0.03 z m 9.97,4.48 c 0.21,0.24 0.17,0.38 -0.16,0.47 -0.26,0.08 -0.52,0.3 -0.52,0.43 0,0.13 -0.04,0.22 -0.1,0.22 -0.03,0 -0.1,-0.05 -0.18,-0.12 -0.12,-0.13 -0.12,-0.13 -0.03,-0.22 l 0.14,-0.2 c 0.11,-0.2 0.57,-0.73 0.64,-0.73 0.05,0 0.13,0.07 0.2,0.15 z m 0.11,1.62 c 0.04,0.05 0.13,0.2 0.2,0.35 0.07,0.15 0.23,0.43 0.36,0.62 0.13,0.2 0.22,0.4 0.22,0.44 -0.02,0.06 -0.04,0.05 -0.16,-0.08 A 5.56,5.56 0 0 1 30.56,15.5 c 0.04,-0.05 0.1,-0.03 0.16,0.04 z m -7.1,2.9 a 10.09,10.09 0 0 0 -1.1,0.9 c -0.33,0.3 -0.75,0.65 -0.96,0.8 a 8.3,8.3 0 0 1 -2.67,1.18 c -0.53,0.12 -2.4,0.14 -2.19,0.02 0.03,-0.02 0.35,-0.04 0.7,-0.05 a 7.59,7.59 0 0 0 4.97,-2.2 c 0.67,-0.6 0.8,-0.68 1.07,-0.68 0.13,0 0.2,0.01 0.17,0.03 z"
       id="path33"
       inkscape:connector-curvature="0" />
    <path
       d="m 23.77,10.08 c 0,0.03 -0.12,0.11 -0.26,0.18 -0.4,0.2 -0.38,0.37 0.03,0.42 0.64,0.1 0.7,0.08 0.8,-0.03 0.11,-0.1 0.15,-0.33 0.07,-0.45 -0.03,-0.06 -0.39,-0.18 -0.54,-0.18 -0.05,0 -0.1,0.03 -0.1,0.06 z m 8.84,6.23 c 0.07,0.3 0.14,0.62 0.14,0.7 0,0.25 -0.14,0.5 -0.35,0.6 -0.2,0.1 -0.37,0.42 -0.37,0.7 0,0.16 0.01,0.2 0.11,0.24 0.07,0.03 0.15,0.1 0.18,0.13 0.03,0.04 0.1,0.07 0.16,0.07 0.05,0 0.12,0.03 0.15,0.1 0.06,0.06 0.07,0.05 0.06,-0.2 0,-0.24 0.02,-0.3 0.17,-0.56 0.23,-0.4 0.3,-0.58 0.26,-0.9 a 2.48,2.48 0 0 0 -0.44,-1.08 0.71,0.71 0 0 1 -0.14,-0.26 c 0,-0.05 -0.02,-0.08 -0.04,-0.08 -0.02,0 0.02,0.24 0.1,0.54 z M 23.4,16 c 0,0.05 -0.05,0.15 -0.1,0.23 -0.07,0.08 -0.1,0.16 -0.1,0.2 0,0.04 -0.05,0.08 -0.09,0.11 -0.06,0.04 -0.06,0.05 0.03,0.16 0.13,0.12 0.4,0.27 0.55,0.27 0.11,0 0.18,-0.12 0.08,-0.18 a 0.3,0.3 0 0 1 -0.09,-0.14 0.18,0.18 0 0 0 -0.12,-0.12 c -0.1,-0.03 -0.08,-0.16 0.06,-0.22 0.28,-0.1 0.52,0.17 0.43,0.47 -0.04,0.13 -0.04,0.14 0.03,0.1 0.17,-0.09 0.16,-0.44 0,-0.65 -0.07,-0.09 -0.13,-0.1 -0.26,-0.1 -0.2,0 -0.34,-0.07 -0.34,-0.16 0,-0.03 0,-0.06 -0.04,-0.06 -0.02,0 -0.04,0.04 -0.04,0.1 z m 5.72,1.65 c -0.17,0.1 -0.32,0.28 -0.32,0.4 0,0.2 0.26,0.4 0.47,0.4 0.13,0 0.15,-0.1 0.05,-0.2 -0.05,-0.05 -0.08,-0.12 -0.07,-0.15 0.02,-0.03 0,-0.07 -0.07,-0.08 -0.13,-0.03 -0.05,-0.1 0.12,-0.1 0.1,0 0.14,-0.04 0.14,-0.08 0,-0.03 0.04,-0.06 0.08,-0.06 0.05,0 0.12,-0.04 0.16,-0.07 0.06,-0.07 0.06,-0.08 0,-0.1 a 0.75,0.75 0 0 0 -0.56,0.04 z m -2.32,1.01 a 0.95,0.95 0 0 0 -0.22,0.17 c -0.15,0.14 -0.16,0.18 -0.16,0.4 0,0.12 -0.02,0.3 -0.05,0.36 -0.06,0.17 0,0.24 0.16,0.24 0.1,0 0.2,-0.07 0.46,-0.32 0.27,-0.26 0.32,-0.34 0.32,-0.45 0,-0.2 -0.32,-0.46 -0.5,-0.4 z"
       id="path35"
       inkscape:connector-curvature="0" />
    <path
       d="m 25.1,19.03 c -0.05,0.03 -0.25,0.3 -0.43,0.57 -0.4,0.61 -0.45,0.78 -0.42,1.45 0.03,0.47 0.11,0.76 0.26,0.88 0.06,0.05 0.07,0.05 0.07,-0.07 0,-0.08 0.02,-0.14 0.06,-0.14 0.1,0 0.23,0.13 0.26,0.23 0,0.06 0.06,0.14 0.11,0.16 0.05,0.03 0.48,0.07 0.95,0.1 1.2,0.1 2.17,0.2 2.3,0.24 0.16,0.06 0.18,0.05 0.2,-0.05 0.02,-0.1 0.1,-0.08 0.1,0.03 -0.03,0.14 0.04,0.13 0.08,0 0.03,-0.14 0.1,-0.14 0.5,0 1.24,0.4 2.33,0.97 2.68,1.38 l 0.7,0.75 c 0.3,0.3 0.53,0.57 0.52,0.58 0,0.01 -0.15,-0.06 -0.3,-0.17 l -0.5,-0.28 -0.34,-0.2 A 32.54,32.54 0 0 1 30.74,23.83 20.1,20.1 0 0 0 28.5,23 9.67,9.67 0 0 0 27.24,22.7 c 0,0 -0.04,-0.05 -0.06,-0.12 -0.04,-0.09 -0.05,-0.1 -0.07,-0.04 0,0.06 -0.07,0.08 -0.37,0.08 -0.23,0 -0.4,0.02 -0.47,0.06 A 0.7,0.7 0 0 1 26,22.75 c -0.55,0 -1.83,0.5 -2.55,1.02 a 5.9,5.9 0 0 0 -1.62,1.85 c -0.2,0.38 -0.4,1.2 -0.4,1.6 0,0.74 0.38,1.7 0.88,2.22 0.1,0.12 0.2,0.2 0.22,0.2 0.01,-0.02 -0.05,-0.19 -0.15,-0.38 a 5.7,5.7 0 0 1 -0.29,-0.72 c -0.1,-0.32 -0.1,-0.45 -0.1,-0.95 a 3,3 0 0 1 0.31,-1.5 7.16,7.16 0 0 1 1.78,-2.06 5.22,5.22 0 0 1 2.4,-0.9 8.64,8.64 0 0 1 2.06,0.01 c 0.87,0.2 2.13,0.72 2.87,1.2 a 4.69,4.69 0 0 1 1.54,1.5 c 0.2,0.4 0.43,1.04 0.5,1.32 0.07,0.25 0.07,0.27 -0.03,0.66 -0.13,0.48 -0.26,0.85 -0.44,1.22 a 0.87,0.87 0 0 0 -0.12,0.3 c 0.04,0.02 0.47,-0.92 0.6,-1.32 a 6.2,6.2 0 0 0 0.1,-2.08 3.84,3.84 0 0 0 -0.72,-1.65 1.3,1.3 0 0 1 -0.2,-0.34 0.06,0.06 0 0 0 -0.07,-0.06 c -0.09,0 -0.18,-0.12 -0.12,-0.16 0.05,-0.03 -0.14,-0.24 -0.36,-0.39 l 0.1,0.1 c 0.23,0.23 0.14,0.24 -0.19,0.02 -0.33,-0.23 -0.55,-0.44 -0.57,-0.56 a 0.13,0.13 0 0 0 -0.07,-0.1 c -0.03,0 -0.04,0 -0.02,0.05 0.01,0.04 0.01,0.07 0,0.07 l -0.67,-0.29 -1.46,-0.57 c -0.8,-0.3 -0.87,-0.32 -0.82,-0.36 0.02,-0.02 0.44,0.06 0.65,0.13 0.08,0.03 0.08,0.03 0,-0.03 a 2.7,2.7 0 0 0 -0.92,-0.23 c -0.1,0.01 -0.1,0.01 0.01,0.02 0.13,0 0.17,0.1 0.03,0.1 -0.14,0 -0.5,-0.1 -0.5,-0.14 0,0 0.04,-0.04 0.1,-0.06 0.06,-0.03 0.02,-0.04 -0.2,-0.06 l -1.94,-0.22 c -0.56,-0.05 -0.85,-0.13 -1,-0.29 a 0.7,0.7 0 0 1 -0.2,-0.59 c 0.03,-0.15 0.27,-0.6 0.32,-0.6 a 0.3,0.3 0 0 1 0.14,0.08 c 0.16,0.12 0.4,0.14 0.6,0.06 l 0.16,-0.06 -0.14,-0.09 c -0.15,-0.1 -0.16,-0.15 -0.07,-0.28 0.06,-0.1 0.06,-0.1 -0.02,-0.1 -0.1,0 -0.12,-0.1 -0.02,-0.17 0.1,-0.08 0.27,0 0.36,0.14 0.1,0.15 0.11,0.1 0.03,-0.07 -0.05,-0.13 -0.3,-0.28 -0.47,-0.28 a 0.39,0.39 0 0 0 -0.2,0.07 z m 9.67,1.63 a 5.7,5.7 0 0 0 -0.1,1.05 c 0,0.18 -0.04,0.63 -0.08,1 l -0.07,0.65 0.35,0.68 a 5,5 0 0 1 0.7,2.34 c 0.01,0.43 0.41,1.27 0.41,0.46 0.01,-0.32 0.12,-1.6 -0.4,-1.86 l -0.2,-0.49 a 4.25,4.25 0 0 1 -0.25,-0.72 c -0.02,-0.15 0,-0.55 0.03,-1.07 0.1,-1.28 0.05,-1.63 -0.26,-2 l -0.1,-0.14 z m -1.32,1.22 c -0.25,0.12 -0.28,0.18 -0.27,0.44 0.02,0.22 0.02,0.24 0.2,0.34 0.22,0.16 0.3,0.17 0.4,0.1 l 0.1,-0.1 -0.14,-0.12 c -0.12,-0.1 -0.14,-0.17 -0.14,-0.3 0,-0.16 0.06,-0.27 0.18,-0.3 0.07,-0.04 0,-0.13 -0.1,-0.13 a 0.59,0.59 0 0 0 -0.23,0.07 z"
       id="path37"
       inkscape:connector-curvature="0" />
    <path
       d="m 19.71,28.23 c 0.02,0.52 0.22,1.27 0.48,1.8 0.38,0.8 0.63,1.12 1.63,2.14 0.57,0.6 0.77,0.87 0.87,1.23 0.04,0.14 0.1,0.33 0.15,0.41 0.23,0.45 0.93,0.78 2,0.95 1.1,0.17 1.74,0.2 4,0.2 l 2.2,-0.03 0.41,-0.16 0.94,-0.4 a 6.69,6.69 0 0 0 2.98,-2.96 l 0.22,-0.43 0.38,-1.92 c 0,-0.85 -0.38,-1.17 -0.39,-1.16 l -0.04,0.6 a 5.53,5.53 0 0 1 -1.05,3.22 6.72,6.72 0 0 1 -2.95,2.46 c -0.6,0.23 -1.05,0.24 -0.5,0 0.28,-0.12 1.2,-0.7 1.64,-1.03 a 8.18,8.18 0 0 0 2.3,-2.8 c 0.21,-0.44 0.43,-1.24 0.47,-1.68 l 0.03,-0.29 -0.17,0.5 A 7.14,7.14 0 0 1 29.14,33.8 H 28.9 l 0.34,-0.1 c 0.43,-0.14 0.36,-0.18 -0.32,-0.19 -0.94,0 -1.9,-0.09 -2.65,-0.2 -0.4,-0.08 -0.92,-0.16 -1.16,-0.18 -0.58,-0.06 -0.82,-0.12 -0.87,-0.22 -0.04,-0.07 -0.02,-0.1 0.13,-0.19 0.1,-0.06 0.2,-0.16 0.21,-0.2 0.02,-0.07 0.06,-0.1 0.1,-0.1 0.08,0 0.13,-0.2 0.07,-0.35 l -0.08,-0.14 a 0.75,0.75 0 0 0 -0.1,0.2 c -0.17,0.33 -0.4,0.21 -0.66,-0.3 -0.12,-0.28 -0.09,-0.36 0.14,-0.36 0.18,0 0.28,-0.1 0.15,-0.17 -0.14,-0.08 -0.35,-0.05 -0.53,0.06 -0.2,0.11 -0.3,0.25 -0.34,0.43 -0.03,0.2 0.2,0.55 0.45,0.7 0.16,0.11 0.2,0.16 0.2,0.25 0,0.13 -0.1,0.26 -0.23,0.26 -0.14,0 -0.46,-0.17 -0.6,-0.3 -0.2,-0.19 -0.3,-0.53 -0.3,-0.86 0,-0.48 0.2,-0.76 0.75,-1.05 0.1,-0.06 0.1,-0.06 -0.13,-0.17 a 4.28,4.28 0 0 1 -0.4,-0.23 0.58,0.58 0 0 0 -0.39,-0.1 c -0.17,0 -0.23,-0.03 -0.3,-0.12 -0.05,-0.06 -0.12,-0.1 -0.14,-0.1 -0.07,0 -0.1,0.12 -0.05,0.2 0.03,0.05 0.05,0.12 0.05,0.15 0,0.13 -0.08,0.06 -0.2,-0.16 -0.1,-0.2 -0.14,-0.22 -0.26,-0.22 -0.1,0 -0.15,-0.03 -0.19,-0.1 -0.04,-0.08 -0.1,-0.12 -0.2,-0.12 -0.29,-0.03 -0.34,-0.05 -0.43,-0.24 a 0.48,0.48 0 0 0 -0.23,-0.25 c -0.13,-0.05 -0.13,-0.06 -0.17,-0.47 -0.03,-0.42 -0.08,-0.5 -0.14,-0.3 a 6.06,6.06 0 0 0 0.03,1.54 0.16,0.16 0 0 1 -0.08,-0.08 l -0.14,-0.3 a 5.8,5.8 0 0 1 -0.5,-1.6 c -0.04,-0.23 -0.04,-0.23 -0.02,0.11 z"
       id="path39"
       inkscape:connector-curvature="0" />
  </g>
  <path
     d="m 24,0.35 c -5.83,0 -10.52,1.12 -13.93,3.33 -4.1,2.66 -6.27,6.9 -6.27,12.27 0,7.23 5.8,16.88 7.58,19.67 a 54.48,54.48 0 0 0 6.25,8.16 c 2.54,2.64 4.57,3.87 6.37,3.87 1.8,0 3.83,-1.23 6.37,-3.87 2,-2.08 4.22,-4.97 6.25,-8.16 C 38.4,32.83 44.2,23.18 44.2,15.95 44.2,10.58 42.04,6.34 37.94,3.68 34.52,1.47 29.84,0.35 24,0.35 Z m 0,0.14 c 2.11,0.09 4.12,0.27 5.88,0.7 1.16,0.27 2.25,0.62 3.26,1.03 1.01,0.42 1.94,0.9 2.8,1.46 A 12.92,12.92 0 0 1 40.6,8.8 c 0.53,1.03 0.92,2.15 1.2,3.34 0.26,1.2 0.4,2.47 0.4,3.8 0,1.82 -0.37,3.77 -0.94,5.74 a 43.19,43.19 0 0 1 -2.2,5.77 69.59,69.59 0 0 1 -4.45,8.17 54.47,54.47 0 0 1 -6.25,8.16 17.98,17.98 0 0 1 -3.46,2.93 c -0.32,0.2 -0.62,0.3 -0.91,0.39 -0.3,-0.08 -0.6,-0.2 -0.9,-0.4 -1.06,-0.63 -2.2,-1.6 -3.47,-2.92 -2,-2.08 -4.22,-4.97 -6.25,-8.16 A 69.6,69.6 0 0 1 8.91,27.45 43.19,43.19 0 0 1 6.72,21.68 20.93,20.93 0 0 1 5.79,15.95 c 0,-1.34 0.13,-2.61 0.4,-3.8 0.27,-1.2 0.67,-2.32 1.2,-3.35 a 12.92,12.92 0 0 1 4.67,-5.12 17.1,17.1 0 0 1 2.8,-1.46 c 1,-0.41 2.1,-0.76 3.26,-1.04 C 19.88,0.76 21.89,0.58 24,0.5 Z"
     id="path43"
     inkscape:connector-curvature="0"
     style="opacity:0.2" />
</svg>
