<?xml version="1.0" encoding="UTF-8" standalone="no"?>
<svg
   xmlns:dc="http://purl.org/dc/elements/1.1/"
   xmlns:cc="http://creativecommons.org/ns#"
   xmlns:rdf="http://www.w3.org/1999/02/22-rdf-syntax-ns#"
   xmlns:svg="http://www.w3.org/2000/svg"
   xmlns="http://www.w3.org/2000/svg"
   xmlns:xlink="http://www.w3.org/1999/xlink"
   xmlns:sodipodi="http://sodipodi.sourceforge.net/DTD/sodipodi-0.dtd"
   xmlns:inkscape="http://www.inkscape.org/namespaces/inkscape"
   width="48"
   height="48"
   viewBox="0 0 12.7 12.7"
   version="1.1"
   id="svg30"
   sodipodi:docname="pragha.svg"
   inkscape:version="0.92.4 (5da689c313, 2019-01-14)">
  <metadata
     id="metadata34">
    <rdf:RDF>
      <cc:Work
         rdf:about="">
        <dc:format>image/svg+xml</dc:format>
        <dc:type
           rdf:resource="http://purl.org/dc/dcmitype/StillImage" />
        <dc:title></dc:title>
      </cc:Work>
    </rdf:RDF>
  </metadata>
  <sodipodi:namedview
     pagecolor="#ffffff"
     bordercolor="#666666"
     borderopacity="1"
     objecttolerance="10"
     gridtolerance="10"
     guidetolerance="10"
     inkscape:pageopacity="0"
     inkscape:pageshadow="2"
     inkscape:window-width="1112"
     inkscape:window-height="480"
     id="namedview32"
     showgrid="false"
     inkscape:zoom="4.9166667"
     inkscape:cx="2.1355932"
     inkscape:cy="24"
     inkscape:window-x="0"
     inkscape:window-y="25"
     inkscape:window-maximized="0"
     inkscape:current-layer="svg30" />
  <defs
     id="defs20">
    <linearGradient
       id="c">
      <stop
         offset="0"
         stop-color="#3c6eb4"
         id="stop2" />
      <stop
         offset=".53"
         stop-color="#afdde9"
         id="stop4" />
      <stop
         offset="1"
         stop-color="#045"
         id="stop6" />
    </linearGradient>
    <linearGradient
       id="b">
      <stop
         offset="0"
         stop-color="#040000"
         id="stop9" />
      <stop
         offset="1"
         stop-color="#000005"
         stop-opacity="0"
         id="stop11" />
    </linearGradient>
    <linearGradient
       id="a">
      <stop
         offset="0"
         stop-color="#1a1a1a"
         id="stop14" />
      <stop
         offset="1"
         stop-color="#1a1a1a"
         stop-opacity="0"
         id="stop16" />
    </linearGradient>
    <linearGradient
       xlink:href="#c"
       id="d"
       x1=".07"
       y1=".43"
       x2="6.36"
       y2="13.3"
       gradientUnits="userSpaceOnUse" />
  </defs>
  <path
     d="M 6.35,0.1 C 4.81,0.1 3.57,0.38 2.66,0.96 A 3.67,3.67 0 0 0 1,4.22 c 0,1.91 1.54,4.47 2.01,5.2 0.54,0.85 1.13,1.61 1.65,2.16 0.68,0.7 1.21,1.03 1.69,1.03 0.48,0 1.01,-0.33 1.69,-1.03 A 15.2,15.2 0 0 0 9.69,9.43 c 0.47,-0.74 2,-3.3 2,-5.21 0,-1.42 -0.57,-2.54 -1.65,-3.25 A 6.75,6.75 0 0 0 6.35,0.1 Z"
     id="path22"
     style="fill:url(#d)"
     inkscape:connector-curvature="0" />
  <path
     d="M 9.4,0.66 8.17,2.26 7.71,2.72 7.7,2.69 7.5,2.46 6.66,3.06 4.81,4.46 3.78,5.54 c 0,0 1.1,-0.1 1.15,-0.08 0.06,0.02 0.92,0.55 0.92,0.55 l 0.68,0.5 c 0,0 -0.55,0.53 -0.6,0.55 C 5.89,7.09 6.1,8.29 6.1,8.29 L 6.85,9.88 8.01,6.3 8.66,4.25 8.89,3.52 8.65,3.37 8.85,3.26 9,2.6 10.12,1.05 C 10.09,1.02 10.07,0.99 10.03,0.97 a 6.75,6.75 0 0 0 -0.6,-0.3 6.75,6.75 0 0 0 -0.01,0 z M 7.74,2.78 7.96,2.93 7.82,2.86 7.76,2.82 Z"
     id="path24"
     inkscape:connector-curvature="0"
     style="fill:#ececec" />
  <path
     d="M 6.35,0.1 C 4.81,0.1 3.57,0.38 2.66,0.96 A 3.67,3.67 0 0 0 1,4.22 c 0,1.91 1.54,4.47 2.01,5.2 0.54,0.85 1.13,1.61 1.65,2.16 0.68,0.7 1.21,1.03 1.69,1.03 0.48,0 1.01,-0.33 1.69,-1.03 A 15.2,15.2 0 0 0 9.69,9.43 c 0.47,-0.74 2,-3.3 2,-5.21 0,-1.42 -0.57,-2.54 -1.65,-3.25 A 6.75,6.75 0 0 0 6.35,0.1 Z m 0,0.03 C 6.91,0.15 7.44,0.2 7.9,0.31 a 5.82,5.82 0 0 1 1.6,0.66 3.65,3.65 0 0 1 1.24,1.36 c 0.14,0.27 0.25,0.57 0.32,0.88 A 4.61,4.61 0 0 1 10.92,5.74 C 10.77,6.26 10.56,6.78 10.34,7.26 9.9,8.23 9.39,9.06 9.16,9.43 A 15.2,15.2 0 0 1 7.51,11.58 4.9,4.9 0 0 1 6.59,12.36 0.96,0.96 0 0 1 6.35,12.46 0.96,0.96 0 0 1 6.11,12.36 4.76,4.76 0 0 1 5.19,11.58 14.41,14.41 0 0 1 3.54,9.43 19.2,19.2 0 0 1 2.36,7.26 C 2.14,6.78 1.93,6.26 1.78,5.74 A 4.6,4.6 0 0 1 1.64,3.22 3.73,3.73 0 0 1 2.48,1.58 3.65,3.65 0 0 1 3.93,0.58 6.83,6.83 0 0 1 6.35,0.13 Z"
     id="path26"
     inkscape:connector-curvature="0"
     style="opacity:0.2" />
  <path
     style="font-weight:400;font-size:19.76000023px;line-height:1.25;font-family:'Electric Guitar Icons';-inkscape-font-specification:'Electric Guitar Icons';letter-spacing:0;word-spacing:0"
     d="M 9.38,0.65 9.35,0.67 9.23,0.84 9.21,0.88 c 0.02,0.01 0.04,0 0.06,-0.01 L 9.41,0.67 Z M 9.45,0.71 9.42,0.72 9.36,0.8 C 9.45,0.82 9.5,0.83 9.51,0.82 L 9.52,0.8 V 0.74 L 9.46,0.71 H 9.44 Z M 9.59,0.74 V 0.8 L 9.64,0.83 H 9.69 V 0.87 L 9.86,1 H 9.9 V 1.04 L 9.57,0.8 H 9.52 L 9.4,0.97 C 9.38,0.99 9.38,1.01 9.4,1.03 L 9.45,1.06 9.49,1.07 9.5,1.1 9.54,1.13 H 9.59 L 9.62,1.19 H 9.63 L 9.72,1.25 9.7,1.28 9.6,1.21 C 9.59,1.19 9.54,1.23 9.47,1.33 L 9.45,1.31 C 9.52,1.21 9.55,1.16 9.53,1.15 L 9.39,1.05 H 9.34 L 9.22,1.2 C 9.2,1.23 9.2,1.25 9.22,1.26 L 9.27,1.3 H 9.32 V 1.34 L 9.38,1.38 H 9.43 L 9.42,1.42 9.22,1.27 9.16,1.28 9.06,1.42 c -0.02,0.02 -0.01,0.04 0,0.05 l 0.06,0.04 0.03,0.01 c 0,0.01 0,0.02 0.02,0.03 L 9.46,1.76 9.49,1.78 9.51,1.8 9.59,1.82 9.65,1.69 9.81,1.49 10.12,1.05 C 10.09,1.02 10.07,0.99 10.03,0.97 A 6.75,6.75 0 0 0 9.82,0.87 L 9.8,0.9 9.78,0.89 9.8,0.85 A 6.75,6.75 0 0 0 9.58,0.75 Z M 9.34,0.84 9.27,0.92 9.34,0.97 c 0.02,0.02 0.04,0.02 0.05,0 L 9.42,0.94 V 0.89 L 9.39,0.9 9.37,0.85 9.34,0.83 Z M 9.2,0.9 c 0,0 -0.02,0 -0.02,0.02 L 9.06,1.07 9.04,1.12 C 9.06,1.13 9.08,1.12 9.1,1.1 L 9.24,0.92 H 9.23 C 9.2,0.9 9.2,0.9 9.19,0.9 Z M 9.75,0.94 9.77,0.96 9.67,1.08 9.66,1.06 Z M 9.25,0.96 A 0.05,0.05 0 0 0 9.22,0.98 L 9.12,1.11 C 9.1,1.14 9.1,1.16 9.12,1.17 L 9.17,1.21 C 9.19,1.23 9.21,1.22 9.23,1.19 L 9.34,1.04 C 9.36,1.02 9.36,1.01 9.34,0.99 L 9.29,0.96 H 9.24 Z M 9.93,1.03 10.02,1.1 9.92,1.04 H 9.93 Z M 9.83,1.11 9.87,1.13 C 9.89,1.14 9.9,1.16 9.88,1.18 V 1.19 L 9.83,1.22 9.79,1.16 Z m 0.2,0 0.04,0.03 -0.04,-0.02 z m -1,0.02 C 9.02,1.13 9.01,1.13 9,1.15 L 8.9,1.29 8.89,1.32 c 0.02,0.02 0.04,0.02 0.05,0 L 9.04,1.18 9.06,1.14 H 9.03 Z M 9.09,1.18 9.06,1.19 8.96,1.33 v 0.05 l 0.06,0.04 c 0.02,0.02 0.04,0.01 0.05,0 L 9.17,1.27 V 1.22 L 9.12,1.18 Z M 9.82,1.31 9.85,1.33 C 9.83,1.35 9.82,1.35 9.8,1.33 Z M 8.86,1.35 8.84,1.37 8.75,1.49 8.74,1.52 c 0.02,0.02 0.04,0.02 0.05,0 L 8.89,1.4 V 1.36 Z M 8.92,1.39 8.9,1.41 8.81,1.53 v 0.05 l 0.06,0.04 0.04,0.01 v 0.02 l 0.08,0.06 0.03,0.01 c 0,0 0,0.02 0.02,0.03 L 9.1,1.79 9.14,1.8 v 0.02 l 0.08,0.06 0.03,0.01 c 0,0.01 0,0.02 0.02,0.03 l 0.14,0.1 c 0.02,0.02 0.03,0.02 0.05,0 L 9.57,1.87 9.07,1.49 9.02,1.5 9,1.44 8.95,1.4 H 8.92 Z M 9.39,1.42 9.41,1.44 9.3,1.58 9.28,1.57 Z M 9.54,1.45 9.57,1.48 9.54,1.51 9.52,1.48 Z M 9.57,1.51 9.61,1.54 V 1.55 L 9.56,1.52 Z M 9.65,1.55 H 9.68 L 9.65,1.59 9.62,1.56 Z m -0.93,0 c -0.01,0 -0.02,0 -0.03,0.02 L 8.6,1.69 8.59,1.72 c 0.02,0.02 0.04,0.02 0.05,0 L 8.74,1.6 V 1.56 Z M 8.78,1.59 8.75,1.61 8.66,1.73 V 1.78 L 8.68,1.79 8.76,1.83 8.79,1.87 8.86,1.91 8.92,1.97 8.95,1.99 8.99,2 v 0.02 l 0.27,0.2 c 0.02,0.02 0.03,0.01 0.05,0 L 9.4,2.09 V 2.04 L 8.91,1.68 H 8.88 c 0,-0.01 0,-0.02 -0.02,-0.03 L 8.8,1.6 H 8.78 Z M 8.55,1.74 8.52,1.75 8.44,1.86 v 0.05 c 0.03,0.02 0.05,0.01 0.06,0 L 8.58,1.79 C 8.6,1.77 8.6,1.76 8.58,1.74 Z M 8.63,1.79 8.6,1.81 8.52,1.91 V 1.97 H 8.54 C 8.56,2 8.59,2.01 8.62,2.01 c 0,0.02 0.02,0.05 0.05,0.07 L 8.7,2.1 h 0.04 v 0.04 l 0.08,0.05 h 0.04 v 0.04 l 0.26,0.18 c 0.02,0.02 0.03,0.01 0.05,0 L 9.25,2.29 V 2.24 L 8.65,1.8 H 8.63 Z M 8.43,1.91 C 8.29,2.11 8.05,2.21 7.73,2.24 A 579.8,579.8 0 0 1 2.23,6.12 L 2.24,6.14 C 1.97,6.32 1.77,6.46 1.59,6.6 c 0.08,0.22 0.15,0.45 0.25,0.66 0.06,0 0.07,0.02 0.15,0 C 1.95,7.34 1.94,7.39 1.96,7.4 2.08,7.4 2.14,7.39 2.16,7.36 V 7.3 L 2.07,7.24 2.09,7.22 C 3.85,6.79 4.79,6.58 4.89,6.57 5.16,6.43 5.4,6.44 5.61,6.59 L 5.63,6.61 C 5.69,6.66 5.75,6.73 5.81,6.82 L 6.04,10 c 0,0.5 0.06,0.8 0.2,0.9 l 0.02,0.02 c 0.2,0.1 0.33,0.08 0.42,-0.04 L 6.74,10.8 C 6.85,10.5 7.62,7.98 9.04,3.23 8.99,2.84 9.02,2.58 9.13,2.44 L 8.51,1.98 C 8.49,1.97 8.47,1.98 8.45,2 L 8.38,2.09 V 2.13 L 9,2.6 V 2.61 L 8.37,2.15 C 8.35,2.14 8.33,2.15 8.31,2.17 L 8.25,2.26 c -0.02,0.02 -0.01,0.04 0,0.05 h 0.01 c 0.03,0.03 0.06,0.04 0.09,0.04 0,0.02 0.02,0.04 0.04,0.06 L 8.42,2.44 H 8.47 V 2.47 L 8.5,2.5 8.58,2.52 8.59,2.56 8.87,2.77 V 2.78 L 8.36,2.4 C 8.34,2.39 8.32,2.4 8.3,2.42 L 8.24,2.49 c -0.01,0.02 0,0.04 0.01,0.05 L 8.31,2.59 H 8.35 V 2.61 L 8.76,2.92 8.75,2.94 8.25,2.57 C 8.22,2.55 8.2,2.55 8.19,2.57 L 8.14,2.63 8.13,2.67 8.66,3.07 8.64,3.08 8.24,2.78 8.2,2.76 V 2.75 L 8.13,2.7 H 8.1 L 8.06,2.77 c -0.02,0.02 0,0.05 0.04,0.08 L 8.09,2.87 C 8.04,2.83 7.99,2.85 7.95,2.91 L 7.93,2.89 C 7.98,2.83 7.99,2.79 7.97,2.78 L 8.04,2.75 8.08,2.69 C 8.1,2.67 8.09,2.66 8.08,2.64 L 8,2.6 C 7.98,2.59 7.96,2.6 7.94,2.63 H 7.93 C 7.95,2.59 7.95,2.56 7.91,2.53 L 7.93,2.52 7.99,2.55 8.02,2.49 8.03,2.5 8,2.55 C 8.05,2.58 8.11,2.63 8.12,2.61 L 8.17,2.55 C 8.18,2.53 8.17,2.52 8.16,2.5 L 8.1,2.46 H 8.05 C 8.06,2.44 8.05,2.42 8.02,2.4 L 8.03,2.38 C 8.07,2.41 8.1,2.41 8.12,2.39 L 8.17,2.32 C 8.19,2.3 8.18,2.27 8.16,2.25 c 0.03,0.01 0.05,0.01 0.07,0 L 8.29,2.15 C 8.31,2.13 8.31,2.1 8.29,2.08 H 8.35 L 8.42,1.98 C 8.44,1.96 8.44,1.94 8.42,1.92 Z M 8.57,2.05 8.59,2.06 8.54,2.12 8.52,2.11 Z M 8.51,2.13 8.53,2.14 8.5,2.17 8.48,2.16 Z M 8.44,2.22 8.46,2.23 8.38,2.33 H 8.36 Z m -0.2,0.1 A 0.06,0.06 0 0 0 8.21,2.34 L 8.16,2.41 c -0.02,0.02 -0.02,0.03 0,0.05 l 0.03,0.02 c 0.02,0.02 0.04,0.01 0.06,0 L 8.3,2.4 V 2.34 L 8.27,2.32 Z M 8.58,2.36 8.64,2.41 8.59,2.47 8.53,2.42 Z M 7.48,2.59 7.7,2.75 7.77,2.82 7.81,2.8 7.86,2.74 C 7.87,2.72 7.86,2.7 7.83,2.68 L 7.85,2.66 7.96,2.75 7.95,2.77 C 7.91,2.74 7.88,2.73 7.87,2.75 L 7.82,2.81 c -0.01,0.02 0,0.04 0.01,0.05 l 0.1,0.07 A 0.2,0.2 0 0 0 7.97,2.97 L 8.06,3.02 V 3.04 L 8.11,3.05 8.1,3.06 8.17,3.1 A 0.23,0.23 0 0 0 8.29,3.19 L 8.34,3.24 8.37,3.26 8.42,3.29 H 8.4 l 0.1,0.07 0.28,0.2 C 8.74,3.76 8.1,5.74 6.86,9.54 L 6.82,9.57 A 20.6,20.6 0 0 1 6.31,8.22 C 6.09,7.75 6.04,7.52 6.06,7.4 6.09,7.41 6.11,7.42 6.12,7.4 L 6.1,7.34 C 6.07,7.32 6.06,7.33 6.05,7.34 L 6.03,7.29 6.86,6.19 C 6.96,6.06 6.94,5.95 6.81,5.85 L 6.69,5.76 6.59,5.72 C 6.61,5.71 6.59,5.69 6.56,5.66 A 0.13,0.13 0 0 0 6.49,5.64 C 6.49,5.62 6.47,5.6 6.44,5.58 L 6.38,5.53 H 6.34 V 5.49 L 6.29,5.46 A 0.15,0.15 0 0 0 6.21,5.43 C 6.21,5.41 6.19,5.39 6.16,5.37 L 6.13,5.34 6.07,5.36 5.95,5.53 6.05,5.57 6.07,5.62 H 6.1 l 0.17,0.12 0.1,0.1 0.05,0.01 c 0.03,0.02 0.05,0.05 0.06,0.08 0.02,0 0.04,0 0.07,0.02 L 6.61,6 6.54,6.02 6.47,6.12 6.45,6.17 6.53,6.2 6.56,6.17 C 6.52,6.15 6.51,6.12 6.53,6.11 L 6.54,6.08 6.62,6.03 6.63,6.09 6.67,6.04 6.7,6.06 C 6.72,6.1 6.73,6.13 6.71,6.15 h 0.05 c 0.02,0.02 0.02,0.03 0,0.05 L 6.73,6.25 A 0.22,0.22 0 0 1 6.63,6.32 L 5.39,5.44 V 5.34 L 5.42,5.3 5.5,5.24 V 5.26 A 0.24,0.24 0 0 0 5.44,5.31 L 5.45,5.42 5.46,5.43 V 5.4 C 5.56,5.37 5.63,5.35 5.64,5.36 L 5.66,5.38 A 0.2,0.2 0 0 0 5.63,5.43 C 5.58,5.46 5.55,5.47 5.55,5.46 5.53,5.48 5.53,5.5 5.55,5.52 5.57,5.53 5.59,5.52 5.61,5.51 L 5.69,5.4 V 5.34 L 5.81,5.43 5.93,5.27 5.94,5.23 A 0.36,0.36 0 0 0 5.79,5.16 C 5.74,5.12 5.25,5.18 4.35,5.33 L 4.3,5.3 A 85.87,85.87 0 0 1 7.4,2.65 L 7.37,2.68 7.43,2.72 7.46,2.69 7.45,2.64 H 7.4 L 7.47,2.59 Z M 8.34,2.67 8.4,2.72 8.36,2.78 8.3,2.73 Z M 7.39,2.8 7,3.3 C 6.99,3.33 7,3.35 7.01,3.36 L 7.06,3.4 7.11,3.37 7.13,3.31 A 0.12,0.12 0 0 0 7.06,3.29 L 7.09,3.25 7.38,2.87 7.41,2.91 7.42,2.92 c 0.02,0.02 0.04,0.01 0.05,0 L 7.48,2.88 A 0.15,0.15 0 0 0 7.4,2.84 L 7.38,2.8 Z M 8.12,2.86 8.55,3.19 8.54,3.2 A 0.23,0.23 0 0 0 8.47,3.17 L 8.46,3.15 8.43,3.12 A 0.23,0.23 0 0 0 8.36,3.09 0.24,0.24 0 0 0 8.31,3.03 L 8.28,3.01 8.23,3 8.22,2.97 8.15,2.92 8.1,2.9 8.11,2.86 Z M 7.51,2.94 H 7.49 L 7.17,3.37 C 7.16,3.39 7.19,3.43 7.25,3.49 7.27,3.5 7.29,3.5 7.31,3.48 L 7.33,3.45 A 0.22,0.22 0 0 0 7.37,3.34 H 7.42 L 7.5,3.22 A 0.22,0.22 0 0 0 7.54,3.11 c 0.02,0.01 0.04,0 0.06,-0.02 L 7.64,3.03 V 3 C 7.58,2.96 7.53,2.95 7.51,2.95 Z m 0.16,0.1 C 7.65,3.04 7.64,3.05 7.64,3.06 L 7.61,3.09 A 0.13,0.13 0 0 0 7.59,3.16 0.13,0.13 0 0 0 7.52,3.21 L 7.44,3.31 7.4,3.41 c -0.01,0 -0.03,0 -0.05,0.03 L 7.32,3.49 C 7.3,3.51 7.3,3.52 7.32,3.54 L 7.36,3.55 7.37,3.58 C 7.39,3.59 7.41,3.59 7.43,3.57 L 7.45,3.54 A 0.33,0.33 0 0 0 7.5,3.45 L 7.57,3.37 7.62,3.31 7.68,3.21 A 0.32,0.32 0 0 0 7.75,3.14 L 7.77,3.11 A 0.13,0.13 0 0 1 7.72,3.05 H 7.67 Z M 7.8,3.12 7.78,3.14 7.74,3.2 c -0.02,0.02 -0.02,0.04 0,0.06 A 0.22,0.22 0 0 0 7.64,3.33 L 7.59,3.38 7.54,3.48 A 0.33,0.33 0 0 0 7.47,3.55 L 7.43,3.6 7.49,3.67 h 0.04 l 0.03,0.05 0.1,0.06 0.02,0.03 0.04,0.01 A 0.2,0.2 0 0 1 7.76,3.87 L 7.79,3.85 c 0.04,0.06 0.07,0.1 0.1,0.1 l 0.03,0.02 v 0.01 c 0.1,0.07 0.17,0.1 0.18,0.08 L 8.41,3.64 C 8.43,3.61 8.4,3.56 8.31,3.49 H 8.27 L 8.24,3.43 8.14,3.39 8.07,3.31 A 0.34,0.34 0 0 1 8,3.28 V 3.26 H 7.96 L 7.94,3.21 H 7.89 C 7.89,3.18 7.87,3.16 7.84,3.14 V 3.13 Z M 7.81,3.3 h 0.03 c 0.02,0.02 0.02,0.04 0,0.06 0,0.02 -0.02,0.02 -0.04,0 C 7.78,3.35 7.77,3.33 7.79,3.31 Z M 6.96,3.4 6.93,3.42 6.56,3.92 A 0.4,0.4 0 0 1 6.64,4.04 L 6.68,4.05 6.69,4.08 H 6.73 L 6.74,4.11 6.75,4.12 6.77,4.09 6.63,3.99 6.67,3.97 6.69,3.95 V 3.9 L 6.63,3.89 6.92,3.5 6.93,3.46 6.97,3.52 C 6.99,3.54 7,3.53 7.02,3.52 7.03,3.49 7.03,3.47 7.02,3.45 H 6.96 L 6.99,3.41 H 6.96 Z M 6.47,3.49 6.45,3.51 6.43,3.53 c -0.01,0.02 0,0.03 0.01,0.05 H 6.49 L 6.51,3.55 6.5,3.5 Z m 0.6,0.04 c -0.01,0 -0.02,0 -0.03,0.02 L 6.73,3.96 v 0.08 l 0.05,0.04 c 0.02,0.01 0.04,0 0.07,-0.03 L 6.88,4.08 C 6.85,4.11 6.85,4.13 6.87,4.15 L 6.92,4.18 C 6.94,4.2 6.97,4.18 7,4.14 L 7.02,4.15 C 6.99,4.2 6.98,4.23 7,4.25 L 7.08,4.28 7.14,4.35 7.18,4.38 H 7.22 V 4.42 L 7.57,4.67 7.65,4.66 7.97,4.24 c 0,-0.02 0,-0.04 -0.02,-0.06 L 7.6,3.92 H 7.56 L 7.55,3.88 7.37,3.75 C 7.35,3.73 7.33,3.73 7.32,3.75 L 7.3,3.77 A 0.21,0.21 0 0 0 7.26,3.85 L 7.18,3.95 H 7.17 L 7.07,4.12 7,4.09 7.13,3.94 V 3.93 L 7.2,3.83 7.26,3.76 7.28,3.74 V 3.69 L 7.22,3.65 H 7.17 L 7.15,3.69 C 7.13,3.71 7.12,3.74 7.12,3.76 A 0.15,0.15 0 0 0 7.05,3.82 L 7,3.89 6.97,3.86 7.04,3.81 7.06,3.79 V 3.72 L 7.12,3.7 7.16,3.65 V 3.6 L 7.07,3.54 7.04,3.53 Z M 8.69,3.57 H 8.66 c -0.01,0.03 0,0.05 0.02,0.07 h 0.01 c 0.02,0.02 0.04,0.02 0.05,0 V 3.59 L 8.72,3.58 A 0.05,0.05 0 0 0 8.69,3.57 Z M 8.49,3.63 8.46,3.64 8.45,3.68 8.53,3.73 8.56,3.7 A 0.12,0.12 0 0 1 8.52,3.64 L 8.48,3.63 Z M 7.36,3.9 H 7.39 C 7.41,3.92 7.42,3.93 7.4,3.95 7.38,3.98 7.36,3.99 7.34,3.97 7.32,3.96 7.32,3.94 7.34,3.91 Z M 6.96,3.91 6.98,3.94 A 0.12,0.12 0 0 0 6.96,4 H 6.88 L 6.9,3.96 A 0.2,0.2 0 0 0 6.95,3.91 Z M 7.53,3.94 7.54,3.95 A 0.12,0.12 0 0 0 7.52,4.05 C 7.5,4.07 7.48,4.08 7.46,4.06 L 7.45,4.02 C 7.47,4.02 7.5,3.99 7.53,3.94 Z M 6.5,4 6.1,4.52 c 0,0.04 0.02,0.08 0.07,0.12 L 6.23,4.68 6.27,4.69 6.28,4.72 H 6.29 L 6.31,4.7 6.2,4.6 A 0.13,0.13 0 0 0 6.22,4.53 0.12,0.12 0 0 0 6.16,4.52 L 6.15,4.51 6.18,4.49 6.48,4.08 6.51,4.13 C 6.53,4.14 6.55,4.14 6.56,4.12 6.58,4.1 6.57,4.08 6.56,4.07 L 6.51,4.05 6.53,4.02 Z M 7.25,4.03 7.28,4.05 7.26,4.07 7.23,4.05 Z m -0.4,0 L 6.89,4.06 6.85,4.04 Z M 7.61,4.08 7.64,4.11 C 7.66,4.12 7.66,4.14 7.65,4.16 7.63,4.19 7.61,4.19 7.59,4.18 7.58,4.17 7.58,4.15 7.59,4.11 Z m 0.53,0 L 8.11,4.1 8.1,4.18 v 0.01 c 0.03,-0.03 0.05,-0.03 0.09,0 L 8.2,4.17 8.16,4.09 H 8.14 Z M 7.17,4.13 7.2,4.15 C 7.22,4.17 7.23,4.18 7.21,4.2 7.2,4.22 7.18,4.23 7.16,4.21 7.14,4.2 7.14,4.18 7.16,4.16 Z M 6.65,4.15 c -0.05,0 -0.07,0 -0.08,0.02 l -0.3,0.4 V 4.65 L 6.32,4.69 C 6.34,4.7 6.36,4.7 6.37,4.68 L 6.41,4.63 A 0.24,0.24 0 0 0 6.45,4.56 0.23,0.23 0 0 0 6.5,4.51 l 0.08,-0.1 0.05,-0.1 c 0.01,0 0.02,0 0.04,-0.03 L 6.7,4.24 V 4.19 Z M 6.88,4.19 6.86,4.22 6.88,4.23 6.9,4.2 Z M 8.03,4.24 C 8.01,4.24 8,4.24 7.99,4.26 V 4.3 L 8.08,4.34 8.1,4.31 A 0.12,0.12 0 0 1 8.06,4.25 Z m -1.28,0 c -0.01,0 -0.02,0 -0.03,0.02 L 6.69,4.31 6.68,4.38 H 6.67 L 6.6,4.42 6.51,4.54 V 4.61 H 6.5 L 6.43,4.65 6.39,4.69 c -0.01,0.02 0,0.04 0.01,0.06 l 0.15,0.1 c 0.03,0.03 0.05,0.04 0.08,0.03 0,0.03 0.02,0.06 0.05,0.08 l 0.43,0.32 c 0.05,0 0.08,0 0.09,-0.02 L 7.5,4.86 C 7.5,4.82 7.5,4.79 7.48,4.78 L 7.14,4.52 H 7.1 V 4.49 L 7,4.4 H 6.96 V 4.36 L 6.89,4.32 H 6.85 V 4.3 L 6.77,4.24 6.75,4.23 Z M 6.99,4.27 6.98,4.29 7.01,4.31 7.02,4.29 7,4.26 Z M 7.09,4.35 7.07,4.38 H 7.09 L 7.11,4.41 7.13,4.42 7.15,4.39 Z M 5.45,4.36 5.42,4.37 c -0.01,0.02 0,0.04 0.01,0.06 L 5.45,4.44 H 5.5 C 5.52,4.41 5.52,4.4 5.5,4.38 L 5.48,4.37 Z M 6.8,4.4 6.82,4.41 A 0.2,0.2 0 0 0 6.8,4.47 L 6.74,4.52 6.72,4.51 A 0.21,0.21 0 0 0 6.75,4.45 Z M 7.21,4.44 7.19,4.47 7.22,4.49 7.24,4.46 Z m -0.3,0.07 0.02,0.01 c 0.02,0.02 0.02,0.03 0,0.05 0,0.02 -0.03,0.03 -0.05,0.01 L 6.85,4.56 6.88,4.53 6.9,4.51 Z M 7.35,4.54 7.33,4.57 7.36,4.59 7.38,4.56 Z m -0.67,0 0.03,0.03 C 6.69,4.59 6.67,4.59 6.65,4.57 L 6.68,4.55 Z M 7.02,4.6 7.05,4.61 c 0.02,0.01 0.02,0.03 0,0.05 L 7.03,4.69 7,4.66 V 4.6 L 7.02,4.58 Z M 6.61,4.64 6.65,4.67 6.6,4.73 6.56,4.7 Z m 0.18,0 0.03,0.02 V 4.67 L 6.79,4.65 Z M 7.55,4.69 7.53,4.71 7.61,4.78 7.63,4.75 Z m -0.58,0 H 6.98 L 6.96,4.73 H 6.95 Z m 0.7,0 c 0,0.05 -0.01,0.08 -0.03,0.1 h 0.01 c 0.03,-0.03 0.06,-0.03 0.09,0 L 7.76,4.77 A 0.2,0.2 0 0 1 7.71,4.72 0.2,0.2 0 0 0 7.67,4.7 Z M 6.42,4.78 6.4,4.81 6.43,4.83 6.45,4.8 Z M 5.93,4.8 A 0.32,0.32 0 0 0 5.84,4.85 c -0.03,0.04 -0.03,0.1 0,0.2 L 5.9,5.09 C 5.96,5.09 6,5.1 6.03,5.12 L 6.04,5.1 5.85,4.96 A 0.12,0.12 0 0 0 5.87,4.89 c 0.02,-0.02 0.05,-0.02 0.08,0 L 5.97,4.86 5.94,4.84 5.96,4.82 5.99,4.84 6,4.8 a 0.1,0.1 0 0 0 -0.08,0 z m 1.64,0.04 c 0,0 -0.02,0 -0.02,0.02 L 7.53,4.89 7.63,4.93 7.65,4.9 A 0.2,0.2 0 0 1 7.61,4.86 Z M 6.51,4.84 6.49,4.88 6.52,4.9 6.54,4.87 6.51,4.85 Z M 6.07,4.86 C 6.06,4.88 6.04,4.88 6.02,4.86 L 6,4.88 6.13,4.98 6.15,4.95 A 0.17,0.17 0 0 1 6.09,4.86 L 6.07,4.85 Z M 5.93,4.89 5.9,4.94 V 4.95 L 5.93,4.92 5.96,4.94 5.94,4.97 5.97,5 5.98,4.98 V 4.9 L 5.93,4.88 Z M 7,4.92 7.03,4.93 c 0.02,0.02 0.02,0.04 0,0.06 C 7.02,5.01 7,5.01 6.98,4.99 L 6.95,4.97 6.97,4.94 Z M 6.65,4.93 6.63,4.96 6.67,4.99 6.69,4.96 Z M 6.2,4.98 6.18,5.01 6.2,5.03 H 6.23 V 5.06 L 6.26,5.07 6.28,5.04 Z m 2.03,0.04 c 0,0 -0.02,0 -0.02,0.02 -0.02,0.02 -0.02,0.04 0,0.05 0.02,0.02 0.04,0.01 0.06,0 L 8.26,5.03 H 8.23 Z M 6.78,5.03 6.76,5.06 6.81,5.1 6.83,5.07 Z M 6.91,5.13 6.89,5.16 6.93,5.19 6.95,5.16 Z M 4.53,5.16 4.5,5.17 4.49,5.19 c -0.02,0.02 -0.01,0.04 0,0.05 L 4.5,5.25 c 0.02,0.02 0.04,0.01 0.06,0 V 5.16 Z M 5.98,5.26 5.84,5.44 5.94,5.52 6.07,5.35 6.08,5.3 5.98,5.25 Z m 0.61,0 L 6.57,5.29 6.68,5.37 6.7,5.34 6.6,5.26 Z M 6.36,5.29 6.33,5.33 6.42,5.39 6.45,5.35 6.35,5.29 Z m 0.88,0 c -0.01,0 -0.02,0 -0.03,0.02 V 5.34 L 7.14,5.3 7.12,5.33 7.24,5.42 7.26,5.37 H 7.31 A 0.12,0.12 0 0 1 7.28,5.31 Z M 6.92,5.46 A 0.1,0.1 0 0 0 6.88,5.48 L 6.92,5.53 A 0.2,0.2 0 0 1 6.97,5.48 L 6.94,5.46 Z M 7.05,5.53 7.03,5.56 7.06,5.63 7.07,5.62 7.06,5.53 Z M 7.06,5.63 7,5.72 H 7.05 L 7.07,5.68 V 5.63 Z M 6.7,5.53 6.68,5.56 6.76,5.62 6.86,5.74 H 6.91 L 6.88,5.71 6.9,5.69 6.93,5.71 6.95,5.68 6.73,5.56 Z M 6.95,5.68 C 6.97,5.7 6.98,5.69 7,5.68 L 7.02,5.64 V 5.6 H 7 L 6.95,5.7 Z M 6.91,5.73 6.94,5.75 6.95,5.73 6.93,5.71 Z M 6.91,5.56 6.89,5.57 6.88,5.58 V 5.64 L 6.92,5.66 6.94,5.63 H 6.9 L 6.92,5.6 6.95,5.62 6.97,5.59 6.94,5.57 Z M 7.04,5.96 7,6 7.03,6.02 c 0.02,0.02 0.03,0.02 0.05,0 C 7.09,6 7.09,5.98 7.07,5.96 L 7.04,5.94 Z M 6.64,6.14 6.58,6.24 H 6.7 L 6.72,6.21 6.69,6.19 C 6.67,6.22 6.65,6.23 6.63,6.22 6.65,6.18 6.65,6.16 6.63,6.14 Z m 1.13,0.3 H 7.74 L 7.73,6.47 c -0.02,0.02 -0.01,0.03 0,0.05 0.03,0.02 0.05,0.02 0.07,0 L 7.81,6.5 C 7.82,6.49 7.81,6.47 7.79,6.44 Z M 7.27,6.57 C 7.22,6.57 7.17,6.6 7.14,6.65 L 7.13,6.67 C 7.07,6.75 7.07,6.84 7.15,6.95 7.29,7.02 7.39,7.02 7.45,6.93 L 7.49,6.88 C 7.55,6.8 7.54,6.72 7.46,6.62 A 0.3,0.3 0 0 0 7.28,6.57 Z M 7.32,6.64 H 7.36 L 7.39,6.67 C 7.45,6.71 7.47,6.77 7.44,6.85 7.4,6.91 7.34,6.93 7.25,6.92 L 7.24,6.91 C 7.18,6.87 7.15,6.81 7.16,6.74 L 7.22,6.66 A 0.74,0.74 0 0 1 7.32,6.64 Z M 7.09,7.25 C 7.04,7.25 6.99,7.29 6.94,7.34 6.87,7.46 6.88,7.56 6.97,7.62 L 7.01,7.65 C 7.09,7.71 7.18,7.7 7.28,7.62 7.36,7.49 7.35,7.38 7.25,7.31 L 7.23,7.29 A 0.19,0.19 0 0 0 7.09,7.25 Z m 0,0.07 c 0.03,0 0.06,0 0.1,0.03 l 0.05,0.04 c 0.02,0.07 0.02,0.12 0,0.13 V 7.54 C 7.18,7.61 7.11,7.63 7.02,7.58 6.97,7.49 6.95,7.44 6.97,7.41 L 7,7.38 C 7.02,7.34 7.05,7.32 7.09,7.32 Z M 6.35,7.38 6.37,7.63 6.43,7.67 6.51,7.72 6.53,7.78 c 0.05,0.03 0.08,0.03 0.1,0 L 6.66,7.75 c 0,-0.01 0,-0.05 -0.05,-0.1 0.02,-0.1 0.01,-0.15 0,-0.16 L 6.52,7.43 c -0.04,0 -0.06,0 -0.07,0.02 C 6.42,7.43 6.41,7.41 6.4,7.39 Z M 7.31,7.85 7.29,7.86 7.27,7.88 c -0.01,0.02 0,0.04 0.01,0.05 0.02,0.02 0.04,0.02 0.05,0 L 7.35,7.91 V 7.85 H 7.3 Z M 6.86,8 A 0.32,0.32 0 0 0 6.73,8.06 c -0.02,0.1 0,0.17 0.06,0.22 L 6.82,8.3 c 0.08,0 0.13,0 0.14,-0.02 L 6.99,8.24 C 7.04,8.17 7.04,8.1 6.97,8.02 A 0.13,0.13 0 0 0 6.87,8 Z M 6.87,8.04 6.94,8.05 C 6.98,8.08 7,8.13 6.98,8.19 L 6.96,8.22 C 6.91,8.28 6.86,8.29 6.81,8.25 6.74,8.19 6.72,8.14 6.77,8.08 A 0.36,0.36 0 0 1 6.87,8.04 Z M 6.86,8.08 6.83,8.09 6.81,8.12 V 8.18 L 6.85,8.2 H 6.93 L 6.92,8.1 6.89,8.09 Z M 6.82,9.3 A 0.05,0.05 0 0 0 6.79,9.32 c -0.02,0.02 -0.01,0.04 0,0.05 h 0.02 c 0.02,0.02 0.03,0.02 0.05,0 V 9.3 Z"
     font-weight="400"
     font-size="19.76"
     letter-spacing="0"
     word-spacing="0"
     id="path28"
     inkscape:connector-curvature="0" />
</svg>
