<?xml version="1.0" encoding="UTF-8" standalone="no"?>
<svg
   xmlns:dc="http://purl.org/dc/elements/1.1/"
   xmlns:cc="http://creativecommons.org/ns#"
   xmlns:rdf="http://www.w3.org/1999/02/22-rdf-syntax-ns#"
   xmlns:svg="http://www.w3.org/2000/svg"
   xmlns="http://www.w3.org/2000/svg"
   xmlns:xlink="http://www.w3.org/1999/xlink"
   xmlns:sodipodi="http://sodipodi.sourceforge.net/DTD/sodipodi-0.dtd"
   xmlns:inkscape="http://www.inkscape.org/namespaces/inkscape"
   width="48"
   height="48"
   version="1.1"
   id="svg43"
   sodipodi:docname="preferences-desktop-font.svg"
   inkscape:version="0.92.4 (5da689c313, 2019-01-14)">
  <metadata
     id="metadata47">
    <rdf:RDF>
      <cc:Work
         rdf:about="">
        <dc:format>image/svg+xml</dc:format>
        <dc:type
           rdf:resource="http://purl.org/dc/dcmitype/StillImage" />
        <dc:title></dc:title>
      </cc:Work>
    </rdf:RDF>
  </metadata>
  <sodipodi:namedview
     pagecolor="#ffffff"
     bordercolor="#666666"
     borderopacity="1"
     objecttolerance="10"
     gridtolerance="10"
     guidetolerance="10"
     inkscape:pageopacity="0"
     inkscape:pageshadow="2"
     inkscape:window-width="1112"
     inkscape:window-height="480"
     id="namedview45"
     showgrid="false"
     inkscape:zoom="4.9166667"
     inkscape:cx="2.1355932"
     inkscape:cy="24"
     inkscape:window-x="0"
     inkscape:window-y="25"
     inkscape:window-maximized="0"
     inkscape:current-layer="svg43" />
  <defs
     id="defs23">
    <linearGradient
       id="b">
      <stop
         offset="0"
         stop-color="#b7bec8"
         id="stop2" />
      <stop
         offset="1"
         stop-color="#939dac"
         id="stop4" />
    </linearGradient>
    <linearGradient
       id="c">
      <stop
         offset="0"
         stop-color="#373e48"
         stop-opacity=".84"
         id="stop7" />
      <stop
         offset="1"
         stop-opacity="0"
         id="stop9" />
    </linearGradient>
    <linearGradient
       id="a">
      <stop
         offset="0"
         id="stop12" />
      <stop
         offset="1"
         stop-opacity="0"
         id="stop14" />
    </linearGradient>
    <linearGradient
       xlink:href="#a"
       id="e"
       x1="11.41"
       y1="7.73"
       x2="41.44"
       y2="39.26"
       gradientUnits="userSpaceOnUse"
       gradientTransform="translate(0.01,-0.02)" />
    <radialGradient
       xlink:href="#b"
       id="d"
       cx="9.68"
       cy="2.68"
       fx="9.68"
       fy="2.68"
       r="5.35"
       gradientTransform="matrix(0.25006,4.03852,-4.41595,0.27343,46.02,-32.07)"
       gradientUnits="userSpaceOnUse" />
    <linearGradient
       xlink:href="#c"
       id="f"
       gradientUnits="userSpaceOnUse"
       x1="21.69"
       y1="6.1"
       x2="21.6"
       y2="18.28" />
    <linearGradient
       xlink:href="#c"
       id="g"
       gradientUnits="userSpaceOnUse"
       x1="21.69"
       y1="6.1"
       x2="21.6"
       y2="18.28" />
    <linearGradient
       xlink:href="#c"
       id="h"
       gradientUnits="userSpaceOnUse"
       x1="21.69"
       y1="6.1"
       x2="21.6"
       y2="18.28" />
    <linearGradient
       xlink:href="#c"
       id="i"
       gradientUnits="userSpaceOnUse"
       x1="21.69"
       y1="6.1"
       x2="21.6"
       y2="18.28" />
  </defs>
  <path
     d="m -59.66,28.94 h 0.37 l -0.35,-0.61 a 11.58,14.38 0 0 1 -0.02,0.6 z"
     id="path25"
     inkscape:connector-curvature="0"
     style="fill:#483737" />
  <path
     d="m 24.03,0.38 c -5.82,0 -10.5,1.06 -13.95,3.25 A 13.87,13.87 0 0 0 3.81,15.95 c 0,7.22 5.82,16.9 7.6,19.65 a 55.85,55.85 0 0 0 6.23,8.17 c 2.57,2.64 4.57,3.89 6.39,3.89 1.81,0 3.82,-1.25 6.39,-3.9 a 57.44,57.44 0 0 0 6.23,-8.12 c 1.78,-2.8 7.56,-12.47 7.56,-19.7 0,-5.36 -2.15,-9.6 -6.24,-12.27 A 25.51,25.51 0 0 0 24.03,0.37 Z"
     id="path27"
     style="fill:url(#d)"
     inkscape:connector-curvature="0" />
  <path
     d="m 24,0.34 c -5.82,0 -10.5,1.14 -13.94,3.33 A 13.87,13.87 0 0 0 3.78,15.95 c 0,7.22 5.82,16.9 7.6,19.65 a 55.85,55.85 0 0 0 6.24,8.17 c 2.57,2.64 4.57,3.9 6.38,3.9 1.82,0 3.82,-1.26 6.39,-3.9 a 55.85,55.85 0 0 0 6.24,-8.17 c 1.77,-2.75 7.56,-12.43 7.56,-19.65 0,-5.37 -2.16,-9.64 -6.24,-12.28 A 25.51,25.51 0 0 0 24,0.37 Z m 0,0.15 c 2.12,0.08 4.12,0.27 5.86,0.64 a 22,22 0 0 1 6.05,2.5 13.8,13.8 0 0 1 4.68,5.14 c 0.53,1.02 0.95,2.12 1.21,3.33 a 17.42,17.42 0 0 1 -0.53,9.52 42.41,42.41 0 0 1 -2.19,5.78 68,68 0 0 1 -4.46,8.17 55.85,55.85 0 0 1 -6.23,8.16 20.05,20.05 0 0 1 -3.48,2.95 3.63,3.63 0 0 1 -0.9,0.38 A 3.63,3.63 0 0 1 23.1,46.68 18,18 0 0 1 19.62,43.73 54.46,54.46 0 0 1 13.38,35.57 69.54,69.54 0 0 1 8.92,27.4 40.6,40.6 0 0 1 6.73,21.62 17.39,17.39 0 0 1 6.2,12.1 14.1,14.1 0 0 1 9.38,5.93 13.8,13.8 0 0 1 14.86,2.16 26.3,26.3 0 0 1 18.14,1.13 C 19.88,0.72 21.92,0.53 24,0.45 Z"
     id="path29"
     inkscape:connector-curvature="0"
     style="opacity:0.2" />
  <path
     d="m 27.22,46.43 c 0.98,-0.63 2,-1.47 3.16,-2.67 2,-2.08 4.22,-4.97 6.25,-8.16 0.89,-1.4 2.79,-4.5 4.46,-8.17 a 45.89,45.89 0 0 0 1.78,-4.68 L 36.15,16.04 26.8,8.02 24.86,6.08 23.29,7.66 21.7,6.08 l -7.4,9.96 3.1,5.65 -5.42,9.5 z"
     id="path31"
     style="opacity:0.7;fill:url(#e)"
     inkscape:connector-curvature="0" />
  <path
     d="m 21.7,6.08 -9.96,9.96 5.66,5.65 -5.42,9.5 h 2.09 l 4.66,-8.17 1.16,1.16 v 7.01 h 1.81 z m 1.34,0 v 25.11 h 1.82 V 6.08 Z m 3.15,0 V 31.19 H 28 v -7 l 1.16,-1.17 4.66,8.17 h 2.1 l -5.43,-9.5 5.66,-5.65 z m -6.3,4.38 v 11.16 l -5.58,-5.58 z m 8.11,0 5.59,5.58 -5.59,5.58 z"
     id="path33"
     inkscape:connector-curvature="0"
     style="fill:#ffffff" />
  <g
     transform="translate(0.01,-0.02)"
     id="g41"
     style="opacity:0.6;fill:url(#f)">
    <path
       d="M 24.84,15.68 V 6.1 h -1.81 v 9.58 a 11.58,14.38 0 0 1 0.15,-0.02 11.58,14.38 0 0 1 0.82,-0.04 11.58,14.38 0 0 1 0.84,0.06 z"
       id="path35"
       style="fill:url(#g)"
       inkscape:connector-curvature="0" />
    <path
       d="M 32.26,19.93 36.14,16.06 26.18,6.1 v 9.79 a 11.58,14.38 0 0 1 0.12,0.02 11.58,14.38 0 0 1 1.12,0.36 11.58,14.38 0 0 1 0.57,0.26 v -6.05 l 5.58,5.58 -2.54,2.54 a 11.58,14.38 0 0 1 0.43,0.4 11.58,14.38 0 0 1 0.8,0.93 z"
       id="path37"
       style="fill:url(#h)"
       inkscape:connector-curvature="0" />
    <path
       d="m 21.69,6.1 -9.96,9.96 3.96,3.94 a 11.58,14.38 0 0 1 0.24,-0.32 11.58,14.38 0 0 1 0.87,-0.95 11.58,14.38 0 0 1 0.1,-0.08 l -2.6,-2.6 5.58,-5.58 v 6.1 a 11.58,14.38 0 0 1 1.02,-0.43 11.58,14.38 0 0 1 0.79,-0.22 z"
       id="path39"
       style="fill:url(#i)"
       inkscape:connector-curvature="0" />
  </g>
</svg>
