<?xml version="1.0" encoding="UTF-8" standalone="no"?>
<svg
   xmlns:dc="http://purl.org/dc/elements/1.1/"
   xmlns:cc="http://creativecommons.org/ns#"
   xmlns:rdf="http://www.w3.org/1999/02/22-rdf-syntax-ns#"
   xmlns:svg="http://www.w3.org/2000/svg"
   xmlns="http://www.w3.org/2000/svg"
   xmlns:xlink="http://www.w3.org/1999/xlink"
   xmlns:sodipodi="http://sodipodi.sourceforge.net/DTD/sodipodi-0.dtd"
   xmlns:inkscape="http://www.inkscape.org/namespaces/inkscape"
   width="48"
   height="48"
   version="1"
   id="svg34"
   sodipodi:docname="preferences-desktop-emoticons.svg"
   inkscape:version="0.92.4 (5da689c313, 2019-01-14)">
  <metadata
     id="metadata38">
    <rdf:RDF>
      <cc:Work
         rdf:about="">
        <dc:format>image/svg+xml</dc:format>
        <dc:type
           rdf:resource="http://purl.org/dc/dcmitype/StillImage" />
        <dc:title></dc:title>
      </cc:Work>
    </rdf:RDF>
  </metadata>
  <sodipodi:namedview
     pagecolor="#ffffff"
     bordercolor="#666666"
     borderopacity="1"
     objecttolerance="10"
     gridtolerance="10"
     guidetolerance="10"
     inkscape:pageopacity="0"
     inkscape:pageshadow="2"
     inkscape:window-width="1112"
     inkscape:window-height="480"
     id="namedview36"
     showgrid="false"
     inkscape:zoom="4.9166667"
     inkscape:cx="2.1355932"
     inkscape:cy="24"
     inkscape:window-x="0"
     inkscape:window-y="25"
     inkscape:window-maximized="0"
     inkscape:current-layer="svg34" />
  <defs
     id="defs26">
    <linearGradient
       id="c">
      <stop
         offset="0"
         stop-color="#f60"
         id="stop2" />
      <stop
         offset=".51"
         stop-color="#ffd42a"
         id="stop4" />
      <stop
         offset="1"
         stop-color="#ffe680"
         id="stop6" />
    </linearGradient>
    <linearGradient
       id="b">
      <stop
         offset="0"
         stop-color="#ff2a2a"
         id="stop9" />
      <stop
         offset=".22"
         stop-color="#ff7f2a"
         id="stop11" />
      <stop
         offset=".48"
         stop-color="#abc837"
         id="stop13" />
      <stop
         offset=".68"
         stop-color="#5fbcd3"
         id="stop15" />
      <stop
         offset="1"
         stop-color="#ab37c8"
         id="stop17" />
    </linearGradient>
    <linearGradient
       id="a">
      <stop
         offset="0"
         id="stop20" />
      <stop
         offset="1"
         stop-opacity="0"
         id="stop22" />
    </linearGradient>
    <linearGradient
       xlink:href="#c"
       id="d"
       x1="4.24"
       y1="1"
       x2="32.68"
       y2="45.82"
       gradientUnits="userSpaceOnUse" />
  </defs>
  <path
     d="m 24,0.44 c -5.8,0 -10.48,1.12 -13.87,3.32 -4.09,2.64 -6.25,6.87 -6.25,12.22 0,7.2 5.78,16.82 7.55,19.6 a 54.25,54.25 0 0 0 6.23,8.12 c 2.53,2.63 4.55,3.86 6.34,3.86 1.8,0 3.81,-1.23 6.34,-3.86 2,-2.07 4.2,-4.95 6.23,-8.13 1.77,-2.77 7.56,-12.39 7.56,-19.59 0,-5.35 -2.16,-9.57 -6.25,-12.22 C 34.48,1.56 29.82,0.44 24,0.44 Z"
     id="path28"
     style="fill:url(#d)"
     inkscape:connector-curvature="0" />
  <path
     d="m 3.92,14.74 c -0.02,0.4 -0.12,0.78 -0.12,1.2 0,7.24 5.8,16.9 7.58,19.68 a 54.47,54.47 0 0 0 6.25,8.16 c 2.54,2.64 4.57,3.87 6.37,3.87 1.8,0 3.83,-1.23 6.37,-3.87 2,-2.08 4.22,-4.97 6.25,-8.16 1.78,-2.78 7.59,-12.44 7.59,-19.67 0,-0.43 -0.1,-0.8 -0.14,-1.21 -0.08,1.59 -0.3,3.24 -0.8,4.94 a 43.17,43.17 0 0 1 -2.19,5.77 69.67,69.67 0 0 1 -4.46,8.17 54.47,54.47 0 0 1 -6.25,8.16 18,18 0 0 1 -3.46,2.93 c -1.05,0.64 -2,0.94 -2.9,0.94 -0.91,0 -1.87,-0.3 -2.92,-0.94 a 18,18 0 0 1 -3.46,-2.93 c -2,-2.08 -4.21,-4.97 -6.25,-8.16 A 69.4,69.4 0 0 1 6.92,25.45 43.04,43.04 0 0 1 4.73,19.68 c -0.5,-1.7 -0.72,-3.35 -0.8,-4.94 z"
     id="path30"
     inkscape:connector-curvature="0"
     style="opacity:0.5" />
  <path
     d="m 11.26,6.75 -0.28,1 c -0.02,0.06 -0.46,1.64 -0.41,3.49 0.08,2.6 1.1,4.44 2.97,5.34 0.89,0.43 1.87,0.65 2.9,0.65 1.02,0 1.99,-0.21 2.84,-0.5 a 7.28,7.28 0 0 1 -4.29,1.36 v 1.55 c 2.39,0 4.6,-0.91 6.4,-2.64 1.34,-1.3 1.98,-2.6 2,-2.65 z m 25.48,0 -12.12,7.6 c 0,0 0.75,1.42 2.02,2.65 a 9.1,9.1 0 0 0 6.4,2.64 v -1.55 a 7.28,7.28 0 0 1 -4.26,-1.35 c 0.84,0.28 1.79,0.49 2.79,0.49 1.03,0 2,-0.22 2.9,-0.65 1.86,-0.9 2.89,-2.75 2.96,-5.34 0.05,-1.85 -0.39,-3.43 -0.4,-3.5 z m -24.84,2.17 8.58,5.37 a 8.99,8.99 0 0 1 -4.28,1.28 5.2,5.2 0 0 1 -2.29,-0.5 C 12.56,14.41 11.83,13.04 11.77,11 11.74,10.21 11.82,9.48 11.9,8.92 Z m 24.18,0 c 0.09,0.56 0.16,1.3 0.13,2.07 -0.07,2.05 -0.79,3.42 -2.14,4.07 -0.7,0.34 -1.48,0.5 -2.3,0.5 A 9,9 0 0 1 27.51,14.29 Z M 10.26,19.49 c 0,0.37 0.01,0.75 0.04,1.12 H 9.46 v 1.21 h 1 c 0.15,0.93 0.4,1.84 0.76,2.73 l -1.06,0.41 0.45,1.13 1.1,-0.44 c 0.57,1.14 1.3,2.19 2.16,3.13 l -0.97,0.91 0.82,0.89 1,-0.95 c 0.93,0.85 1.95,1.56 3.07,2.13 l -0.63,1.32 1.1,0.52 0.63,-1.34 c 1.44,0.58 2.95,0.9 4.5,0.97 v 1.3 h 1.22 v -1.3 c 1.55,-0.07 3.07,-0.39 4.5,-0.97 l 0.64,1.34 1.1,-0.51 -0.63,-1.33 a 13.72,13.72 0 0 0 3.06,-2.12 l 1,0.94 0.83,-0.88 -0.98,-0.92 c 0.87,-0.94 1.6,-1.99 2.16,-3.13 l 1.1,0.44 0.45,-1.12 -1.05,-0.42 c 0.35,-0.88 0.6,-1.79 0.76,-2.72 v -0.01 h 0.99 v -1.2 H 37.7 c 0.03,-0.38 0.04,-0.76 0.04,-1.13 h -1.2 c 0,0.37 -0.02,0.75 -0.06,1.12 h -1.7 v 1.21 h 1.54 a 12.6,12.6 0 0 1 -0.66,2.28 l -1.33,-0.52 -0.44,1.12 1.27,0.5 c -0.5,1 -1.15,1.92 -1.91,2.75 l -0.9,-0.83 -0.82,0.88 0.86,0.8 c -0.82,0.74 -1.73,1.37 -2.7,1.86 l -0.46,-0.99 -1.1,0.52 0.47,0.97 c -1.27,0.5 -2.61,0.8 -4,0.86 v -1.27 h -1.2 v 1.27 a 12.58,12.58 0 0 1 -4,-0.86 l 0.46,-0.97 -1.09,-0.52 -0.47,1 c -0.96,-0.5 -1.87,-1.13 -2.7,-1.87 l 0.87,-0.8 -0.83,-0.88 -0.89,0.83 c -0.76,-0.83 -1.4,-1.76 -1.91,-2.74 l 1.27,-0.5 -0.44,-1.13 -1.33,0.52 a 12.5,12.5 0 0 1 -0.66,-2.28 h 1.55 v -1.2 h -1.71 a 13.9,13.9 0 0 1 -0.05,-1.13 z m 11.52,0.03 -0.5,2.96 1.53,0.26 0.5,-2.96 z m 4.47,0 -1.53,0.26 0.5,2.96 1.53,-0.26 z"
     id="path32"
     inkscape:connector-curvature="0"
     style="fill:#1a1a1a" />
</svg>
