<?xml version="1.0" encoding="UTF-8" standalone="no"?>
<svg
   xmlns:dc="http://purl.org/dc/elements/1.1/"
   xmlns:cc="http://creativecommons.org/ns#"
   xmlns:rdf="http://www.w3.org/1999/02/22-rdf-syntax-ns#"
   xmlns:svg="http://www.w3.org/2000/svg"
   xmlns="http://www.w3.org/2000/svg"
   xmlns:xlink="http://www.w3.org/1999/xlink"
   xmlns:sodipodi="http://sodipodi.sourceforge.net/DTD/sodipodi-0.dtd"
   xmlns:inkscape="http://www.inkscape.org/namespaces/inkscape"
   width="48"
   height="48"
   version="1"
   id="svg54"
   sodipodi:docname="resharpercpp.svg"
   inkscape:version="0.92.4 (5da689c313, 2019-01-14)">
  <sodipodi:namedview
     pagecolor="#ffffff"
     bordercolor="#666666"
     borderopacity="1"
     objecttolerance="10"
     gridtolerance="10"
     guidetolerance="10"
     inkscape:pageopacity="0"
     inkscape:pageshadow="2"
     inkscape:window-width="1112"
     inkscape:window-height="480"
     id="namedview56"
     showgrid="false"
     inkscape:zoom="4.9166667"
     inkscape:cx="2.1355932"
     inkscape:cy="24"
     inkscape:window-x="0"
     inkscape:window-y="25"
     inkscape:window-maximized="0"
     inkscape:current-layer="svg54" />
  <metadata
     id="metadata2">
    <rdf:RDF>
      <cc:Work>
        <dc:format>image/svg+xml</dc:format>
        <dc:type
           rdf:resource="http://purl.org/dc/dcmitype/StillImage" />
        <dc:title></dc:title>
      </cc:Work>
    </rdf:RDF>
  </metadata>
  <defs
     id="defs28">
    <linearGradient
       id="d">
      <stop
         offset="0"
         stop-color="#c72566"
         id="stop4" />
      <stop
         offset="1"
         stop-color="#fff"
         id="stop6" />
    </linearGradient>
    <linearGradient
       id="c">
      <stop
         offset="0"
         stop-color="#cf4f8c"
         id="stop9" />
      <stop
         offset="1"
         stop-color="#fff"
         id="stop11" />
    </linearGradient>
    <linearGradient
       xlink:href="#a"
       id="g"
       gradientUnits="userSpaceOnUse"
       x1="2.76"
       y1="4.02"
       x2="53.62"
       y2="43.36" />
    <linearGradient
       id="a">
      <stop
         offset="0"
         stop-color="#040000"
         id="stop15" />
      <stop
         offset="1"
         stop-opacity="0"
         id="stop17" />
    </linearGradient>
    <linearGradient
       xlink:href="#b"
       id="h"
       x1="12"
       y1="8"
       x2="12"
       y2="32"
       gradientUnits="userSpaceOnUse"
       gradientTransform="matrix(1,0,0,-1,0,40)" />
    <linearGradient
       id="b">
      <stop
         offset="0"
         stop-color="#333"
         id="stop21" />
      <stop
         offset="1"
         stop-color="gray"
         id="stop23" />
    </linearGradient>
    <linearGradient
       xlink:href="#c"
       id="f"
       x1="8.71"
       y1="10.13"
       x2="39.3"
       y2="10.13"
       gradientUnits="userSpaceOnUse" />
    <linearGradient
       xlink:href="#d"
       id="e"
       x1="3.8"
       y1="24"
       x2="44.21"
       y2="24"
       gradientUnits="userSpaceOnUse" />
  </defs>
  <path
     d="m 24,0.35 c -5.83,0 -10.52,1.12 -13.93,3.33 -4.1,2.65 -6.27,6.9 -6.27,12.27 0,7.23 5.8,16.89 7.58,19.67 a 54.47,54.47 0 0 0 6.25,8.16 c 2.54,2.64 4.57,3.87 6.37,3.87 1.8,0 3.83,-1.23 6.37,-3.87 2,-2.08 4.22,-4.97 6.25,-8.16 1.78,-2.78 7.59,-12.44 7.59,-19.67 0,-5.37 -2.17,-9.61 -6.27,-12.27 C 34.52,1.47 29.84,0.35 24,0.35 Z"
     id="path30"
     style="fill:url(#e)"
     inkscape:connector-curvature="0" />
  <path
     d="M 39.3,4.68 C 38.87,4.33 38.42,3.99 37.94,3.68 A 17.1,17.1 0 0 0 35.14,2.22 22,22 0 0 0 31.88,1.18 C 29.55,0.62 26.92,0.35 24,0.35 c -2.92,0 -5.54,0.28 -7.87,0.83 A 22.02,22.02 0 0 0 12.86,2.22 17.15,17.15 0 0 0 8.71,4.66 L 24,19.9 Z"
     id="path32"
     style="fill:url(#f)"
     inkscape:connector-curvature="0" />
  <path
     d="m 8.71,4.66 c -0.4,0.35 -0.8,0.71 -1.15,1.1 -0.78,0.86 -1.48,1.7 -2,2.73 a 12.5,12.5 0 0 0 -1.23,3.12 18.2,18.2 0 0 0 -0.53,3.9 c 0,1.8 0.28,3.84 0.85,5.8 a 42,42 0 0 0 2.1,5.72 47.66,47.66 0 0 0 3.37,6.51 L 24,19.9 Z m 29.17,28.92 a 56.18,56.18 0 0 0 5.39,-11.9 21,21 0 0 0 0.93,-5.73 c 0,-1.34 -0.13,-2.62 -0.4,-3.81 A 14.09,14.09 0 0 0 42.6,8.8 12.9,12.9 0 0 0 39.3,4.68 L 24,19.9 Z"
     id="path34"
     inkscape:connector-curvature="0"
     style="fill:#ff8c2a" />
  <path
     d="m 3.92,14.74 c -0.02,0.4 -0.12,0.78 -0.12,1.2 0,7.24 5.8,16.9 7.58,19.68 a 54.47,54.47 0 0 0 6.25,8.16 c 2.54,2.64 4.57,3.87 6.37,3.87 1.8,0 3.83,-1.23 6.37,-3.87 2,-2.08 4.22,-4.97 6.25,-8.16 1.78,-2.78 7.59,-12.44 7.59,-19.67 0,-0.43 -0.1,-0.8 -0.14,-1.21 -0.08,1.59 -0.3,3.24 -0.8,4.94 a 43.17,43.17 0 0 1 -2.19,5.77 69.67,69.67 0 0 1 -4.46,8.17 54.47,54.47 0 0 1 -6.25,8.16 18,18 0 0 1 -3.46,2.93 c -1.05,0.64 -2,0.94 -2.9,0.94 -0.91,0 -1.87,-0.3 -2.92,-0.94 a 18,18 0 0 1 -3.46,-2.93 c -2,-2.08 -4.21,-4.97 -6.25,-8.16 A 69.4,69.4 0 0 1 6.92,25.45 43.04,43.04 0 0 1 4.73,19.68 c -0.5,-1.7 -0.72,-3.35 -0.8,-4.94 z"
     id="path36"
     inkscape:connector-curvature="0"
     style="opacity:0.5" />
  <path
     d="m 26.76,46.76 c 0.05,-0.03 0.1,-0.02 0.15,-0.05 1.05,-0.64 2.2,-1.6 3.46,-2.93 2,-2.08 4.22,-4.97 6.25,-8.16 a 69.4,69.4 0 0 0 4.46,-8.17 c 0.84,-1.83 1.62,-3.8 2.19,-5.77 0.55,-1.89 0.87,-3.76 0.9,-5.51 L 36,8 12,32 Z"
     id="path38"
     style="opacity:0.5;fill:url(#g)"
     inkscape:connector-curvature="0" />
  <path
     d="M 12,32 V 8 h 24 v 24 z"
     id="path40"
     style="fill:url(#h)"
     inkscape:connector-curvature="0" />
  <rect
     width="7.8899999"
     height="1.53"
     x="15.44"
     y="23.84"
     rx="0"
     ry="0"
     id="rect42"
     style="fill:#1a1a1a" />
  <rect
     width="7.8899999"
     height="1.53"
     x="14.68"
     y="23.08"
     rx="0"
     ry="0"
     id="rect44"
     style="fill:#ffffff" />
  <path
     d="M 12,8 H 36 V 8.93 H 12 Z"
     id="path46"
     inkscape:connector-curvature="0"
     style="fill:#cccccc" />
  <path
     d="M 12,31.07 H 36 V 32 H 12 Z"
     id="path48"
     inkscape:connector-curvature="0"
     style="fill:#1a1a1a" />
  <path
     style="font-weight:400;font-size:12.03999996px;line-height:1.25;font-family:squealer;-inkscape-font-specification:squealer;letter-spacing:0;word-spacing:0;fill:#1a1a1a"
     d="m 15.48,11.51 -1.25,1.25 0.69,0.66 v 6.14 l -0.63,0.64 1.4,1.42 1.42,-1.42 -0.63,-0.64 v -3.04 l 1.36,1.38 v 1.66 l -0.61,0.64 1.4,1.42 1.43,-1.42 -0.64,-0.64 v -2.43 l -1.16,-1.18 1.1,-1.1 v -1.57 l -1.78,-1.77 z m 0.92,1.13 1.56,1.55 -1.56,1.54 z m 7.6,3.79 v 1.85 H 22.2 V 19.9 H 24 v 1.77 h 1.84 V 19.9 h 1.77 v -1.62 h -1.77 v -1.85 z m 3.88,-5.14 v 1.85 H 26.1 v 1.63 h 1.8 v 1.77 h 1.83 V 14.77 H 31.5 V 13.14 H 29.73 V 11.3 Z"
     font-weight="400"
     font-size="12.04"
     letter-spacing="0"
     word-spacing="0"
     id="path50"
     inkscape:connector-curvature="0" />
  <path
     style="font-weight:400;font-size:12.03999996px;line-height:1.25;font-family:squealer;-inkscape-font-specification:squealer;letter-spacing:0;word-spacing:0;fill:#ffffff"
     d="m 15.19,10.68 -1.25,1.25 0.68,0.66 v 6.14 l -0.62,0.64 1.4,1.42 1.41,-1.42 -0.62,-0.64 v -3.04 l 1.36,1.38 v 1.66 l -0.62,0.64 1.41,1.42 1.42,-1.42 -0.64,-0.64 V 16.3 l -1.15,-1.18 1.1,-1.1 v -1.57 l -1.79,-1.77 z m 0.91,1.13 1.57,1.55 -1.57,1.54 z m 7.6,3.78 v 1.86 h -1.79 v 1.62 h 1.8 v 1.77 h 1.83 v -1.77 h 1.77 v -1.62 h -1.77 v -1.86 z m 3.89,-5.13 v 1.85 h -1.8 v 1.63 h 1.8 v 1.77 h 1.84 V 13.94 H 31.2 V 12.3 h -1.77 v -1.85 z"
     font-weight="400"
     font-size="12.04"
     letter-spacing="0"
     word-spacing="0"
     id="path52"
     inkscape:connector-curvature="0" />
</svg>
