<?xml version="1.0" encoding="UTF-8" standalone="no"?>
<svg
   xmlns:dc="http://purl.org/dc/elements/1.1/"
   xmlns:cc="http://creativecommons.org/ns#"
   xmlns:rdf="http://www.w3.org/1999/02/22-rdf-syntax-ns#"
   xmlns:svg="http://www.w3.org/2000/svg"
   xmlns="http://www.w3.org/2000/svg"
   xmlns:xlink="http://www.w3.org/1999/xlink"
   xmlns:sodipodi="http://sodipodi.sourceforge.net/DTD/sodipodi-0.dtd"
   xmlns:inkscape="http://www.inkscape.org/namespaces/inkscape"
   width="48"
   height="48"
   viewBox="0 0 12.7 12.7"
   version="1.1"
   id="svg40"
   sodipodi:docname="scim-setup.svg"
   inkscape:version="0.92.4 (5da689c313, 2019-01-14)">
  <metadata
     id="metadata44">
    <rdf:RDF>
      <cc:Work
         rdf:about="">
        <dc:format>image/svg+xml</dc:format>
        <dc:type
           rdf:resource="http://purl.org/dc/dcmitype/StillImage" />
        <dc:title></dc:title>
      </cc:Work>
    </rdf:RDF>
  </metadata>
  <sodipodi:namedview
     pagecolor="#ffffff"
     bordercolor="#666666"
     borderopacity="1"
     objecttolerance="10"
     gridtolerance="10"
     guidetolerance="10"
     inkscape:pageopacity="0"
     inkscape:pageshadow="2"
     inkscape:window-width="1112"
     inkscape:window-height="480"
     id="namedview42"
     showgrid="false"
     inkscape:zoom="4.9166667"
     inkscape:cx="2.1355932"
     inkscape:cy="24"
     inkscape:window-x="0"
     inkscape:window-y="25"
     inkscape:window-maximized="0"
     inkscape:current-layer="svg40" />
  <defs
     id="defs22">
    <linearGradient
       id="c">
      <stop
         offset="0"
         stop-color="#cdde87"
         id="stop2" />
      <stop
         offset=".54"
         stop-color="#d3bc5f"
         id="stop4" />
      <stop
         offset="1"
         stop-color="#decd87"
         id="stop6" />
    </linearGradient>
    <linearGradient
       id="b">
      <stop
         offset="0"
         stop-color="#babdb6"
         id="stop9" />
      <stop
         offset="1"
         stop-color="#eeeeec"
         id="stop11" />
    </linearGradient>
    <linearGradient
       id="a">
      <stop
         offset="0"
         stop-opacity=".98"
         id="stop14" />
      <stop
         offset="1"
         stop-opacity="0"
         id="stop16" />
    </linearGradient>
    <linearGradient
       gradientTransform="translate(-0.09,-284.52)"
       xlink:href="#a"
       id="f"
       gradientUnits="userSpaceOnUse"
       x1="3.04"
       y1="286.09"
       x2="12.04"
       y2="293.99" />
    <linearGradient
       xlink:href="#b"
       id="e"
       gradientUnits="userSpaceOnUse"
       gradientTransform="matrix(0.31498,0,0,0.31498,-5.08,-5.84)"
       x1="35.75"
       y1="18.12"
       x2="35.75"
       y2="43.19" />
    <linearGradient
       xlink:href="#c"
       id="d"
       x1=".42"
       y1="290.98"
       x2="11.7"
       y2="290.65"
       gradientUnits="userSpaceOnUse"
       gradientTransform="translate(0,-284.3)" />
  </defs>
  <path
     d="m 54.45,57.21 a 1.265,1.265 0 1 0 0,2.53 h 2.92 v 4.55 h 2.62 v -4.55 h 2.68 a 1.265,1.265 0 1 0 0,-2.53 z m 2.92,7.08 H 53.6 c -0.5,0 -0.98,0.4 -1.08,0.9 l -1.57,8.48 c -0.09,0.5 0.25,0.9 0.75,0.9 h 4.59 v 0.03 h 4.54 v -0.03 h 4.6 c 0.5,0 0.83,-0.4 0.74,-0.9 L 64.6,65.18 c -0.1,-0.5 -0.57,-0.9 -1.08,-0.9 H 60.03 V 68 h 2.54 L 58.59,71.27 54.77,68 h 2.6 z"
     id="path24"
     inkscape:connector-curvature="0"
     style="fill:#1a1a1a" />
  <path
     d="M 6.35,0.1 C 4.81,0.1 3.57,0.39 2.66,0.97 A 3.67,3.67 0 0 0 1,4.22 c 0,1.91 1.54,4.47 2.01,5.2 0.54,0.85 1.13,1.61 1.65,2.16 0.68,0.7 1.21,1.03 1.69,1.03 0.48,0 1.01,-0.33 1.69,-1.03 0.52,-0.55 1.11,-1.31 1.65,-2.15 0.47,-0.74 2,-3.3 2,-5.21 0,-1.42 -0.57,-2.54 -1.65,-3.25 A 6.75,6.75 0 0 0 6.35,0.09 Z"
     id="path26"
     style="fill:url(#d)"
     inkscape:connector-curvature="0" />
  <rect
     overflow="visible"
     style="overflow:visible;opacity:0.75;fill:#1a1a1a;fill-rule:evenodd;marker:none"
     width="6.6100001"
     height="6.6100001"
     x="3.28"
     y="1.89"
     rx="0.64999998"
     ry="0.64999998"
     id="rect28" />
  <rect
     overflow="visible"
     style="overflow:visible;fill:url(#e);fill-rule:evenodd;marker:none"
     width="6.6100001"
     height="6.6100001"
     x="2.95"
     y="1.5599999"
     rx="0.64999998"
     ry="0.64999998"
     id="rect30" />
  <path
     d="M 4.55,8.18 H 8.92 A 0.65,0.65 0 0 0 9.57,7.53 V 3.16 L 8.5,2.09 8.25,2.57 7.75,2.34 H 7.05 L 6.62,2.95 5.74,2.07 5.09,2.32 H 4.49 L 4.19,2.67 4.02,3.31 5.19,4.51 4.32,4.41 3.82,4.58 4.59,5.36 3.94,5.48 4.79,6.33 4.74,7.4 3.92,7.55 Z"
     id="path32"
     style="opacity:0.3;fill:url(#f)"
     inkscape:connector-curvature="0" />
  <path
     style="font-weight:700;font-size:4.36000013px;font-family:'Courier 10 Pitch';-inkscape-font-specification:'Courier 10 Pitch Bold';fill:#204a87"
     d="m 4.852,2.056 c -0.58,0 -0.98,0.34 -0.98,0.824 0,0.432 0.252,0.593 0.731,0.72 C 5.083,3.726 5.327,3.726 5.327,4 5.327,4.2 5.17,4.31 4.913,4.31 4.625,4.31 4.433,4.205 4.32,3.983 4.242,3.83 4.22,3.708 4.054,3.708 c -0.179,0 -0.24,0.07 -0.24,0.253 v 0.022 l 0.013,0.501 c 0.005,0.18 0.07,0.231 0.245,0.231 0.096,0 0.152,-0.022 0.2,-0.104 0.222,0.082 0.423,0.104 0.64,0.104 0.664,0 1.03,-0.292 1.03,-0.815 C 5.942,3.468 5.693,3.233 5.166,3.124 4.726,3.032 4.481,3.011 4.481,2.788 c 0,-0.174 0.162,-0.314 0.428,-0.314 0.205,0 0.357,0.096 0.444,0.266 0.052,0.105 0.07,0.2 0.245,0.2 0.165,0 0.217,-0.065 0.217,-0.226 V 2.692 L 5.807,2.282 C 5.803,2.099 5.767,2.056 5.628,2.056 5.51,2.056 5.458,2.069 5.41,2.174 A 1.38,1.38 0 0 0 4.852,2.056 Z m 2.71,0 c -0.728,0 -1.234,0.584 -1.234,1.33 0,0.785 0.497,1.334 1.247,1.334 0.588,0 1.073,-0.297 1.073,-0.523 0,-0.14 -0.088,-0.245 -0.197,-0.245 -0.192,0 -0.431,0.297 -0.832,0.297 -0.436,0 -0.68,-0.3 -0.68,-0.863 0,-0.567 0.243,-0.864 0.675,-0.864 0.314,0 0.445,0.131 0.515,0.38 0.039,0.135 0.087,0.2 0.218,0.2 0.179,0 0.222,-0.065 0.222,-0.248 L 8.565,2.3 C 8.565,2.117 8.508,2.06 8.373,2.06 8.277,2.06 8.224,2.1 8.173,2.195 A 1.495,1.495 0 0 0 7.562,2.055 Z"
     font-weight="700"
     font-size="4.36"
     id="path34"
     inkscape:connector-curvature="0" />
  <path
     style="font-weight:700;font-size:4.36000013px;font-family:'Courier 10 Pitch';-inkscape-font-specification:'Courier 10 Pitch Bold'"
     d="m 6.382,5.085 c -0.183,0 -0.27,0.062 -0.27,0.236 0,0.153 0.082,0.235 0.235,0.235 H 6.382 L 6.322,7.143 H 6.286 c -0.153,0 -0.231,0.08 -0.231,0.232 0,0.179 0.087,0.235 0.266,0.235 h 0.48 c 0.178,0 0.265,-0.056 0.265,-0.235 0,-0.153 -0.078,-0.232 -0.23,-0.232 H 6.8 L 6.83,5.844 7.14,6.812 c 0.048,0.148 0.13,0.205 0.27,0.205 0.14,0 0.222,-0.057 0.27,-0.205 l 0.314,-0.968 0.03,1.3 H 7.99 c -0.153,0 -0.231,0.078 -0.231,0.23 0,0.18 0.087,0.236 0.265,0.236 h 0.48 C 8.684,7.61 8.77,7.554 8.77,7.375 8.77,7.222 8.692,7.143 8.539,7.143 H 8.504 L 8.443,5.556 h 0.035 c 0.153,0 0.235,-0.082 0.235,-0.235 0,-0.174 -0.087,-0.236 -0.27,-0.236 H 8.112 c -0.149,0 -0.231,0.066 -0.288,0.227 L 7.42,6.52 7,5.312 C 6.943,5.151 6.86,5.085 6.712,5.085 Z M 4.16,5.09 c -0.179,0 -0.27,0.052 -0.27,0.231 0,0.179 0.091,0.235 0.27,0.235 H 4.518 V 7.143 H 4.16 c -0.179,0 -0.27,0.053 -0.27,0.232 0,0.179 0.091,0.235 0.27,0.235 H 5.424 C 5.608,7.61 5.691,7.54 5.691,7.375 5.691,7.196 5.603,7.143 5.424,7.143 H 5.067 V 5.556 h 0.357 c 0.18,0 0.27,-0.056 0.27,-0.235 0,-0.183 -0.09,-0.23 -0.27,-0.23 z"
     font-weight="700"
     font-size="4.36"
     id="path36"
     inkscape:connector-curvature="0" />
  <path
     d="M 6.35,0.1 C 4.81,0.1 3.57,0.39 2.66,0.97 A 3.67,3.67 0 0 0 1,4.22 c 0,1.91 1.54,4.47 2.01,5.2 0.54,0.85 1.13,1.61 1.65,2.16 0.68,0.7 1.21,1.03 1.69,1.03 0.48,0 1.01,-0.33 1.69,-1.03 0.52,-0.55 1.11,-1.31 1.65,-2.15 0.47,-0.74 2,-3.3 2,-5.21 0,-1.42 -0.57,-2.54 -1.65,-3.25 A 6.75,6.75 0 0 0 6.35,0.09 Z m 0,0.03 C 6.91,0.15 7.44,0.2 7.9,0.31 a 5.82,5.82 0 0 1 1.6,0.66 3.65,3.65 0 0 1 1.24,1.36 c 0.14,0.27 0.25,0.57 0.32,0.88 A 4.61,4.61 0 0 1 10.92,5.74 C 10.77,6.26 10.56,6.78 10.34,7.26 9.9,8.23 9.39,9.06 9.16,9.43 8.62,10.27 8.03,11.03 7.51,11.58 7.17,11.93 6.87,12.19 6.59,12.36 A 0.96,0.96 0 0 1 6.35,12.46 0.96,0.96 0 0 1 6.11,12.36 4.76,4.76 0 0 1 5.19,11.58 14.41,14.41 0 0 1 3.54,9.43 C 3.31,9.06 2.8,8.23 2.36,7.26 2.14,6.78 1.93,6.26 1.78,5.74 A 4.6,4.6 0 0 1 1.64,3.22 3.73,3.73 0 0 1 2.48,1.58 3.65,3.65 0 0 1 3.93,0.58 C 4.2,0.48 4.49,0.38 4.8,0.31 5.26,0.21 5.8,0.15 6.35,0.13 Z"
     id="path38"
     inkscape:connector-curvature="0"
     style="opacity:0.4" />
</svg>
