<?xml version="1.0" encoding="UTF-8" standalone="no"?>
<svg
   xmlns:dc="http://purl.org/dc/elements/1.1/"
   xmlns:cc="http://creativecommons.org/ns#"
   xmlns:rdf="http://www.w3.org/1999/02/22-rdf-syntax-ns#"
   xmlns:svg="http://www.w3.org/2000/svg"
   xmlns="http://www.w3.org/2000/svg"
   xmlns:xlink="http://www.w3.org/1999/xlink"
   xmlns:sodipodi="http://sodipodi.sourceforge.net/DTD/sodipodi-0.dtd"
   xmlns:inkscape="http://www.inkscape.org/namespaces/inkscape"
   width="48"
   height="48"
   version="1"
   id="svg85"
   sodipodi:docname="sgt-launcher.svg"
   inkscape:version="0.92.4 (5da689c313, 2019-01-14)">
  <metadata
     id="metadata89">
    <rdf:RDF>
      <cc:Work
         rdf:about="">
        <dc:format>image/svg+xml</dc:format>
        <dc:type
           rdf:resource="http://purl.org/dc/dcmitype/StillImage" />
        <dc:title></dc:title>
      </cc:Work>
    </rdf:RDF>
  </metadata>
  <sodipodi:namedview
     pagecolor="#ffffff"
     bordercolor="#666666"
     borderopacity="1"
     objecttolerance="10"
     gridtolerance="10"
     guidetolerance="10"
     inkscape:pageopacity="0"
     inkscape:pageshadow="2"
     inkscape:window-width="1112"
     inkscape:window-height="480"
     id="namedview87"
     showgrid="false"
     inkscape:zoom="4.9166667"
     inkscape:cx="2.1355932"
     inkscape:cy="24"
     inkscape:window-x="0"
     inkscape:window-y="25"
     inkscape:window-maximized="0"
     inkscape:current-layer="svg85" />
  <defs
     id="defs53">
    <linearGradient
       id="i">
      <stop
         offset="0"
         stop-color="#999"
         id="stop2" />
      <stop
         offset="1"
         stop-color="#1a1a1a"
         id="stop4" />
    </linearGradient>
    <linearGradient
       id="h">
      <stop
         offset="0"
         stop-color="#1a1a1a"
         id="stop7" />
      <stop
         offset="1"
         stop-color="#999"
         id="stop9" />
    </linearGradient>
    <linearGradient
       id="g">
      <stop
         offset="0"
         stop-color="gray"
         id="stop12" />
      <stop
         offset="1"
         stop-color="#fff"
         id="stop14" />
    </linearGradient>
    <linearGradient
       id="f">
      <stop
         offset="0"
         stop-color="#fff"
         id="stop17" />
      <stop
         offset="1"
         stop-color="gray"
         id="stop19" />
    </linearGradient>
    <linearGradient
       id="e">
      <stop
         offset="0"
         stop-color="#ff8c2a"
         id="stop22" />
      <stop
         offset="1"
         stop-color="#fff"
         id="stop24" />
    </linearGradient>
    <linearGradient
       id="d">
      <stop
         offset="0"
         stop-color="#2086e7"
         id="stop27" />
      <stop
         offset="1"
         stop-color="#fff"
         id="stop29" />
    </linearGradient>
    <linearGradient
       id="c">
      <stop
         offset="0"
         stop-color="#333"
         id="stop32" />
      <stop
         offset="1"
         stop-color="gray"
         id="stop34" />
    </linearGradient>
    <linearGradient
       id="b">
      <stop
         stop-color="#fff"
         offset="0"
         id="stop37" />
      <stop
         offset=".35"
         stop-color="#f2f2f2"
         id="stop39" />
      <stop
         stop-opacity="0"
         offset="1"
         stop-color="#ccc"
         id="stop41" />
    </linearGradient>
    <linearGradient
       id="a">
      <stop
         offset="0"
         stop-color="#040000"
         id="stop44" />
      <stop
         offset="1"
         stop-opacity="0"
         id="stop46" />
    </linearGradient>
    <linearGradient
       xlink:href="#f"
       id="j"
       x1="24"
       y1="19.9"
       x2="23.639"
       y2="47.444"
       gradientUnits="userSpaceOnUse" />
    <linearGradient
       xlink:href="#g"
       id="k"
       x1="24"
       y1=".35"
       x2="24"
       y2="19.9"
       gradientUnits="userSpaceOnUse" />
    <linearGradient
       xlink:href="#h"
       id="l"
       x1="3.8"
       y1="19.1"
       x2="24"
       y2="19.1"
       gradientUnits="userSpaceOnUse" />
    <linearGradient
       xlink:href="#i"
       id="m"
       x1="24"
       y1="19.13"
       x2="44.2"
       y2="19.13"
       gradientUnits="userSpaceOnUse" />
  </defs>
  <path
     d="m 24.393,2.709 c -5.83,0 -6.248,1.589 -9.658,3.799 -4.1,2.65 -4.68,27.002 -4.68,27.002 0,0 -0.455,-0.67 1.325,2.11 a 54.47,54.47 0 0 0 6.25,8.16 c 2.54,2.64 4.57,3.87 6.37,3.87 1.8,0 3.83,-1.23 6.37,-3.87 2,-2.08 4.22,-4.97 6.25,-8.16 1.78,-2.78 1.26,-2.04 1.26,-2.04 0,0 0.229,-24.095 -3.871,-26.755 -3.42,-2.21 -3.776,-4.116 -9.616,-4.116 z"
     id="path55"
     style="fill:url(#j)"
     inkscape:connector-curvature="0" />
  <path
     d="M 39.3,4.68 C 38.87,4.33 38.42,3.99 37.94,3.68 A 17.1,17.1 0 0 0 35.14,2.22 22,22 0 0 0 31.88,1.18 33.86,33.86 0 0 0 24,0.35 c -2.92,0 -5.54,0.28 -7.87,0.83 A 22.02,22.02 0 0 0 12.86,2.22 17.15,17.15 0 0 0 8.71,4.66 L 24,19.9 Z"
     id="path57"
     style="fill:url(#k)"
     inkscape:connector-curvature="0" />
  <path
     d="m 8.71,4.66 c -0.4,0.35 -0.8,0.71 -1.15,1.1 -0.78,0.86 -1.48,1.7 -2,2.73 a 12.5,12.5 0 0 0 -1.23,3.12 18.2,18.2 0 0 0 -0.53,3.9 c 0,1.8 0.28,3.84 0.85,5.8 a 42,42 0 0 0 2.1,5.72 47.66,47.66 0 0 0 3.37,6.51 L 24,19.9 Z"
     id="path59"
     style="fill:url(#l)"
     inkscape:connector-curvature="0" />
  <path
     d="m 37.88,33.58 a 56.18,56.18 0 0 0 5.39,-11.9 21,21 0 0 0 0.93,-5.73 c 0,-1.34 -0.13,-2.62 -0.4,-3.81 A 14.09,14.09 0 0 0 42.6,8.8 12.9,12.9 0 0 0 39.3,4.68 L 24,19.9 Z"
     id="path61"
     style="fill:url(#m)"
     inkscape:connector-curvature="0" />
  <path
     d="m 3.92,14.74 c -0.02,0.4 -0.12,0.78 -0.12,1.2 0,7.24 5.8,16.9 7.58,19.68 a 54.47,54.47 0 0 0 6.25,8.16 c 2.54,2.64 4.57,3.87 6.37,3.87 1.8,0 3.83,-1.23 6.37,-3.87 2,-2.08 4.22,-4.97 6.25,-8.16 1.78,-2.78 7.59,-12.44 7.59,-19.67 0,-0.43 -0.1,-0.8 -0.14,-1.21 -0.08,1.59 -0.3,3.24 -0.8,4.94 a 43.17,43.17 0 0 1 -2.19,5.77 69.67,69.67 0 0 1 -4.46,8.17 54.47,54.47 0 0 1 -6.25,8.16 18,18 0 0 1 -3.46,2.93 c -1.05,0.64 -2,0.94 -2.9,0.94 -0.91,0 -1.87,-0.3 -2.92,-0.94 a 18,18 0 0 1 -3.46,-2.93 c -2,-2.08 -4.21,-4.97 -6.25,-8.16 A 69.4,69.4 0 0 1 6.92,25.45 43.04,43.04 0 0 1 4.73,19.68 c -0.5,-1.7 -0.72,-3.35 -0.8,-4.94 z"
     id="path63"
     inkscape:connector-curvature="0"
     style="opacity:0.5" />
  <path
     d="m 16.638,20.362 a 4.638,4.638 0 1 1 -9.276,0 4.638,4.638 0 0 1 9.276,0 z"
     id="path65"
     inkscape:connector-curvature="0"
     style="opacity:0.3" />
  <path
     d="m 16.638,19.638 a 4.638,4.638 0 1 1 -9.276,0 4.638,4.638 0 0 1 9.276,0 z"
     id="path67"
     inkscape:connector-curvature="0"
     style="fill:#cccccc" />
  <path
     d="m 22.377,28.014 v 4.87 h -4.87 v 3.246 h 4.87 V 41 h 3.246 v -4.87 h 4.87 v -3.246 h -4.87 v -4.87 z"
     id="path69"
     inkscape:connector-curvature="0"
     style="opacity:0.3" />
  <path
     d="m 22.377,27 v 4.87 h -4.87 v 3.246 h 4.87 v 4.87 h 3.246 v -4.87 h 4.87 V 31.87 h -4.87 V 27 Z"
     id="path71"
     inkscape:connector-curvature="0"
     style="fill:#272a34" />
  <path
     d="m 35.02,14.144 4.705,9.412 h -9.412 z"
     id="path73"
     inkscape:connector-curvature="0"
     style="opacity:0.5" />
  <path
     d="m 35.02,13.556 4.705,9.412 h -9.412 z"
     id="path75"
     inkscape:connector-curvature="0"
     style="fill:#f8de66" />
  <path
     d="m 23.958,5.355 h 2.635 v 10.54 h -2.635 z"
     id="path77"
     inkscape:connector-curvature="0"
     style="opacity:0.3" />
  <path
     d="m 23.958,4.531 h 2.635 v 10.541 h -2.635 z"
     id="path79"
     inkscape:connector-curvature="0"
     style="fill:#272a34" />
  <path
     d="m 14.735,7.331 11.858,4.612 V 2.719 Z"
     id="path81"
     inkscape:connector-curvature="0"
     style="opacity:0.3" />
  <path
     d="m 14.735,6.508 11.858,4.611 V 1.896 Z"
     id="path83"
     inkscape:connector-curvature="0"
     style="fill:#fd4747" />
</svg>
