<?xml version="1.0" encoding="UTF-8" standalone="no"?>
<svg
   xmlns:dc="http://purl.org/dc/elements/1.1/"
   xmlns:cc="http://creativecommons.org/ns#"
   xmlns:rdf="http://www.w3.org/1999/02/22-rdf-syntax-ns#"
   xmlns:svg="http://www.w3.org/2000/svg"
   xmlns="http://www.w3.org/2000/svg"
   xmlns:xlink="http://www.w3.org/1999/xlink"
   xmlns:sodipodi="http://sodipodi.sourceforge.net/DTD/sodipodi-0.dtd"
   xmlns:inkscape="http://www.inkscape.org/namespaces/inkscape"
   width="48"
   height="48"
   viewBox="0 0 12.7 12.7"
   version="1.1"
   id="svg42"
   sodipodi:docname="sublime-text.svg"
   inkscape:version="0.92.4 (5da689c313, 2019-01-14)">
  <metadata
     id="metadata46">
    <rdf:RDF>
      <cc:Work
         rdf:about="">
        <dc:format>image/svg+xml</dc:format>
        <dc:type
           rdf:resource="http://purl.org/dc/dcmitype/StillImage" />
        <dc:title></dc:title>
      </cc:Work>
    </rdf:RDF>
  </metadata>
  <sodipodi:namedview
     pagecolor="#ffffff"
     bordercolor="#666666"
     borderopacity="1"
     objecttolerance="10"
     gridtolerance="10"
     guidetolerance="10"
     inkscape:pageopacity="0"
     inkscape:pageshadow="2"
     inkscape:window-width="1112"
     inkscape:window-height="480"
     id="namedview44"
     showgrid="false"
     inkscape:zoom="4.9166667"
     inkscape:cx="2.1355932"
     inkscape:cy="24"
     inkscape:window-x="0"
     inkscape:window-y="25"
     inkscape:window-maximized="0"
     inkscape:current-layer="svg42" />
  <defs
     id="defs30">
    <linearGradient
       id="e">
      <stop
         offset="0"
         stop-color="#3b3b3b"
         id="stop2" />
      <stop
         offset="1"
         stop-color="#b3b3b3"
         id="stop4" />
    </linearGradient>
    <linearGradient
       id="a">
      <stop
         offset="0"
         stop-color="#000003"
         id="stop7" />
      <stop
         offset="1"
         stop-color="#00000a"
         stop-opacity="0"
         id="stop9" />
    </linearGradient>
    <linearGradient
       id="b">
      <stop
         offset="0"
         stop-color="#000004"
         id="stop12" />
      <stop
         offset="1"
         stop-opacity="0"
         id="stop14" />
    </linearGradient>
    <linearGradient
       id="d"
       x1="43.5"
       x2="20.5"
       y1="41.13"
       y2="48.31"
       gradientUnits="userSpaceOnUse"
       gradientTransform="matrix(1.15996 0 0 1.15996 -73.12 -17.72)">
      <stop
         stop-color="#d45500"
         offset="0"
         id="stop17" />
      <stop
         stop-color="#f95"
         offset="1"
         id="stop19" />
    </linearGradient>
    <linearGradient
       id="c"
       x1="43.5"
       x2="20.5"
       y1="41.13"
       y2="48.31"
       gradientUnits="userSpaceOnUse"
       gradientTransform="matrix(-1.15996 0 0 -1.15996 121.12 57.68)">
      <stop
         stop-color="#d45500"
         offset="0"
         id="stop22" />
      <stop
         stop-color="#f95"
         offset="1"
         id="stop24" />
    </linearGradient>
    <linearGradient
       xlink:href="#c"
       id="h"
       gradientUnits="userSpaceOnUse"
       gradientTransform="matrix(-0.3069,0,0,-0.3069,16.17,15.26)"
       x1="43.5"
       y1="41.13"
       x2="20.5"
       y2="48.31" />
    <linearGradient
       xlink:href="#d"
       id="g"
       gradientUnits="userSpaceOnUse"
       gradientTransform="matrix(0.3069,0,0,0.3069,-3.47,-4.69)"
       x1="43.5"
       y1="41.13"
       x2="20.5"
       y2="48.31" />
    <linearGradient
       xlink:href="#e"
       id="f"
       x1="1.26"
       y1="1.23"
       x2="10.32"
       y2="11.47"
       gradientUnits="userSpaceOnUse" />
  </defs>
  <path
     d="m 6.82,0.1 a 6.75,6.75 0 0 0 -0.47,0 C 5.58,0.1 4.89,0.18 4.27,0.32 A 6.03,6.03 0 0 0 2.66,0.97 3.67,3.67 0 0 0 2.36,1.19 3.67,3.67 0 0 0 2.09,1.43 3.67,3.67 0 0 0 1.84,1.7 3.67,3.67 0 0 0 1.62,2 3.67,3.67 0 0 0 1.43,2.3 3.67,3.67 0 0 0 1.27,2.64 3.67,3.67 0 0 0 1.15,2.98 3.67,3.67 0 0 0 1.06,3.34 3.67,3.67 0 0 0 1.01,3.7 3.67,3.67 0 0 0 1,4.07 3.67,3.67 0 0 0 1,4.22 c 0,0.48 0.1,1 0.25,1.52 0.15,0.52 0.36,1.04 0.58,1.52 a 18.1,18.1 0 0 0 2.83,4.32 c 0.34,0.35 0.64,0.6 0.92,0.78 0.28,0.17 0.53,0.25 0.77,0.25 0.24,0 0.5,-0.08 0.77,-0.25 C 7.4,12.19 7.7,11.93 8.04,11.58 A 15.2,15.2 0 0 0 9.69,9.43 c 0.23,-0.37 0.73,-1.2 1.18,-2.17 0.22,-0.48 0.42,-1 0.57,-1.52 A 4.63,4.63 0 0 0 11.58,3.22 3.74,3.74 0 0 0 10.75,1.58 C 10.55,1.35 10.31,1.15 10.04,0.97 A 6.75,6.75 0 0 0 9.44,0.67 6.75,6.75 0 0 0 8.8,0.43 6.75,6.75 0 0 0 8.15,0.25 6.75,6.75 0 0 0 7.48,0.14 6.75,6.75 0 0 0 6.81,0.09 Z"
     id="path32"
     style="color:#000000;fill:url(#f)"
     inkscape:connector-curvature="0" />
  <path
     d="m 2.82,9.07 c 0.05,0.08 0.15,0.3 0.19,0.35 0.13,0.21 0.27,0.34 0.4,0.53 L 9.88,7.93 V 5.3 L 2.82,7.5 Z"
     id="path34"
     style="fill:url(#g)"
     inkscape:connector-curvature="0" />
  <path
     d="M 9.88,0.89 A 6.75,6.75 0 0 0 9.44,0.67 6.75,6.75 0 0 0 9.3,0.6 L 2.82,2.64 v 2.65 l 7.06,-2.2 z"
     id="path36"
     style="fill:url(#h)"
     inkscape:connector-curvature="0" />
  <path
     d="M 2.82,2.64 9.88,5.29 V 7.93 L 2.82,5.3 Z"
     id="path38"
     inkscape:connector-curvature="0"
     style="fill:#ff9955" />
  <path
     d="M 1.04,3.9 C 1.04,4 1,4.1 1,4.22 c 0,1.91 1.54,4.47 2.01,5.2 0.54,0.85 1.13,1.61 1.65,2.16 0.68,0.7 1.21,1.03 1.69,1.03 0.48,0 1.01,-0.33 1.69,-1.03 A 15.2,15.2 0 0 0 9.69,9.43 c 0.47,-0.74 2,-3.3 2,-5.21 0,-0.11 -0.02,-0.21 -0.03,-0.32 A 5.5,5.5 0 0 1 11.45,5.2 C 11.3,5.73 11.09,6.25 10.87,6.73 10.43,7.7 9.92,8.53 9.69,8.9 A 15.2,15.2 0 0 1 8.04,11.05 4.9,4.9 0 0 1 7.12,11.83 C 6.84,12 6.59,12.08 6.35,12.08 6.11,12.08 5.85,12 5.58,11.83 A 4.76,4.76 0 0 1 4.66,11.05 14.41,14.41 0 0 1 3.01,8.9 19.2,19.2 0 0 1 1.83,6.73 C 1.61,6.25 1.4,5.73 1.25,5.21 A 5.66,5.66 0 0 1 1.04,3.9 Z"
     id="path40"
     inkscape:connector-curvature="0"
     style="opacity:0.5" />
</svg>
