<svg xmlns="http://www.w3.org/2000/svg" xmlns:xlink="http://www.w3.org/1999/xlink" viewBox="0 0 48 48"><defs><linearGradient id="g"><stop offset="0" stop-color="#1a1a1a"/><stop offset="1" stop-color="#666"/></linearGradient><linearGradient id="f"><stop offset="0" stop-color="#1a1a1a"/><stop offset="1" stop-color="#4d4d4d"/></linearGradient><linearGradient id="e"><stop offset="0" stop-color="#adadad"/><stop offset="1" stop-color="#536c67"/></linearGradient><linearGradient id="d"><stop offset="0" stop-color="#b380ff"/><stop offset=".33" stop-color="#37abc8"/><stop offset=".69" stop-color="#5f8dd3"/><stop offset="1" stop-color="#caf"/></linearGradient><linearGradient id="c"><stop offset="0"/><stop offset="1" stop-opacity="0"/></linearGradient><linearGradient id="b"><stop offset="0" stop-color="#939dac"/><stop offset=".24" stop-color="#dbdee3"/><stop offset=".5" stop-color="#b7bec8"/><stop offset=".79" stop-color="#dbdee3"/><stop offset="1" stop-color="#939dac"/></linearGradient><linearGradient id="a"><stop offset="0"/><stop offset="1" stop-opacity="0"/></linearGradient><linearGradient xlink:href="#c" id="i" x1="1.82" y1="11.78" x2="47.82" y2="34.26" gradientUnits="userSpaceOnUse"/><linearGradient xlink:href="#d" id="h" x1=".92" y1="16.04" x2="42.53" y2="3.23" gradientUnits="userSpaceOnUse"/><linearGradient xlink:href="#e" id="j" x1="21.1" y1="15.69" x2="23.85" y2="14.1" gradientUnits="userSpaceOnUse"/><linearGradient xlink:href="#f" id="l" x1="3.61" y1="23.07" x2="3.75" y2="19.63" gradientUnits="userSpaceOnUse"/><linearGradient xlink:href="#g" id="k" x1="10.18" y1="25.23" x2="10.29" y2="23.1" gradientUnits="userSpaceOnUse"/></defs><path d="M23.71.5C17.88.5 13.2 1.6 9.78 3.82 5.68 6.48 3.5 10.73 3.5 16.1c0 7.22 5.8 16.88 7.58 19.67a54.47 54.47 0 0 0 6.25 8.16c2.54 2.64 4.57 3.87 6.37 3.87 1.8 0 3.83-1.23 6.37-3.87 2-2.08 4.22-4.98 6.25-8.16 1.78-2.79 7.59-12.45 7.59-19.67 0-5.37-2.17-9.62-6.27-12.27C34.23 1.6 29.55.49 23.7.49z" fill="url(#h)"/><path d="M26.3 47c.06-.04.12-.02.19-.06 1.05-.64 2.2-1.6 3.46-2.92 2-2.08 4.22-4.98 6.25-8.16.9-1.4 2.79-4.51 4.46-8.18a43.2 43.2 0 0 0 2.2-5.77c.2-.7.18-1.34.33-2.03l-12.4-12.4-14.33 8.18-4.5 2.67 10.62 10.63-.54.7-1.14-1.15-1.28 2.43-2.42-2.43.02 1.4-1.18-1.18-1.8-.05-.9.56-.1 1.53 2.33 2.33-.66.41-2.04.07L26.29 47z" fill="url(#i)" opacity=".5"/><path d="M3.64 14.88c-.03.42-.13.79-.13 1.22 0 7.22 5.8 16.88 7.58 19.67a54.47 54.47 0 0 0 6.25 8.16c2.54 2.64 4.57 3.87 6.37 3.87 1.8 0 3.83-1.23 6.37-3.87 2-2.08 4.22-4.98 6.25-8.16 1.78-2.79 7.59-12.45 7.59-19.67 0-.43-.1-.8-.13-1.22a21.6 21.6 0 0 1-.81 4.95 43.18 43.18 0 0 1-2.19 5.77 69.59 69.59 0 0 1-4.46 8.17 54.46 54.46 0 0 1-6.25 8.16 18.08 18.08 0 0 1-3.46 2.93c-1.05.64-2 .94-2.9.94-.91 0-1.87-.3-2.92-.94a18.08 18.08 0 0 1-3.46-2.93c-2-2.08-4.21-4.98-6.25-8.16a69.6 69.6 0 0 1-4.46-8.17 43.2 43.2 0 0 1-2.19-5.77 21.6 21.6 0 0 1-.8-4.95z" opacity=".4"/><path d="M26.98.83c-1.12-.1-2.07-.35-3.3-.35l.02.01c-2.92 0-5.54.28-7.87.83-1.16.27-2.25.62-3.26 1.04a17 17 0 0 0-2.8 1.45A13.85 13.85 0 0 0 7.06 6.1c-.46.5-.79 1.1-1.16 1.66l6.05 10.57 1.4.59 3.88-3.17 2.66-1.4L30.61 8.4l.19-.92L26.98.83z" opacity=".5" fill="#fff"/><path d="M21.27 11.34a1.59 1.59 0 0 0-1.44 2.08l2.69-1.55a1.59 1.59 0 0 0-1.25-.53zm2.58 2.76l-2.75 1.59 10.37 17.88a1.59 1.59 0 1 0 2.74-1.59z" fill="url(#j)"/><rect width="12.44" height="1.56" x="5.83" y="23.33" rx=".89" ry=".78" transform="rotate(-30)" fill="url(#k)"/><g style="line-height:1.25" font-size="10.9" letter-spacing="0" word-spacing="0" fill="#fff"><path d="M16.16 32.35q0 .7-.5 1.09-.5.39-1.36.39-.44 0-.81-.07-.38-.06-.62-.18v-.63q.26.11.65.2.4.1.8.1.59 0 .89-.22.3-.23.3-.62 0-.26-.11-.43-.11-.18-.38-.33-.27-.14-.74-.32-.68-.24-1.01-.6-.34-.35-.34-.96 0-.4.21-.7.22-.31.59-.47.37-.16.87-.16.42 0 .78.08.36.08.66.21l-.2.57q-.28-.12-.6-.2-.32-.08-.66-.08-.49 0-.73.21-.25.2-.25.55 0 .27.1.44.12.18.36.32.25.14.68.3.46.17.77.37.33.19.49.46.16.27.16.68zM20.9 28.51l-1.87 5.24h-.66l-1.86-5.24h.68l1.18 3.36q.12.33.2.61l.13.54q.05-.26.13-.54.08-.29.2-.62l1.17-3.35zM23.8 30.99h1.8v2.57q-.42.14-.85.2-.43.07-.98.07-.81 0-1.37-.33-.55-.33-.85-.93-.28-.6-.28-1.44 0-.81.31-1.42.32-.6.93-.94.6-.33 1.46-.33.44 0 .83.08.4.08.73.23l-.25.57q-.27-.12-.63-.2-.34-.1-.71-.1-.94 0-1.47.57-.51.57-.51 1.54 0 .63.2 1.11.2.48.63.75.43.26 1.13.26.35 0 .59-.03l.44-.09v-1.56H23.8z"/></g><rect width="21.77" height="3.11" x="1.17" y="20.22" rx="1.56" ry="1.56" transform="rotate(-30)" fill="url(#l)"/></svg>