<?xml version="1.0" encoding="UTF-8" standalone="no"?>
<svg
   xmlns:dc="http://purl.org/dc/elements/1.1/"
   xmlns:cc="http://creativecommons.org/ns#"
   xmlns:rdf="http://www.w3.org/1999/02/22-rdf-syntax-ns#"
   xmlns:svg="http://www.w3.org/2000/svg"
   xmlns="http://www.w3.org/2000/svg"
   xmlns:sodipodi="http://sodipodi.sourceforge.net/DTD/sodipodi-0.dtd"
   xmlns:inkscape="http://www.inkscape.org/namespaces/inkscape"
   viewBox="0 0 48 48"
   version="1.1"
   id="svg38"
   sodipodi:docname="system-help.svg"
   inkscape:version="0.92.4 (5da689c313, 2019-01-14)">
  <metadata
     id="metadata42">
    <rdf:RDF>
      <cc:Work
         rdf:about="">
        <dc:format>image/svg+xml</dc:format>
        <dc:type
           rdf:resource="http://purl.org/dc/dcmitype/StillImage" />
        <dc:title></dc:title>
      </cc:Work>
    </rdf:RDF>
  </metadata>
  <sodipodi:namedview
     pagecolor="#ffffff"
     bordercolor="#666666"
     borderopacity="1"
     objecttolerance="10"
     gridtolerance="10"
     guidetolerance="10"
     inkscape:pageopacity="0"
     inkscape:pageshadow="2"
     inkscape:window-width="1112"
     inkscape:window-height="480"
     id="namedview40"
     showgrid="false"
     inkscape:zoom="4.9166667"
     inkscape:cx="2.1355932"
     inkscape:cy="24"
     inkscape:window-x="0"
     inkscape:window-y="25"
     inkscape:window-maximized="0"
     inkscape:current-layer="svg38" />
  <defs
     id="defs18">
    <linearGradient
       id="b"
       x1="10.96"
       x2="36.11"
       y1="10.08"
       y2="32.38"
       gradientUnits="userSpaceOnUse">
      <stop
         stop-opacity=".5"
         offset="0"
         id="stop2" />
      <stop
         stop-opacity="0"
         offset="1"
         id="stop4" />
    </linearGradient>
    <linearGradient
       id="a"
       x1="12.64"
       x2="36.11"
       y1="7.29"
       y2="32.42"
       gradientUnits="userSpaceOnUse">
      <stop
         stop-color="#004aff"
         offset="0"
         id="stop7" />
      <stop
         stop-color="#08f"
         offset=".34"
         id="stop9" />
      <stop
         stop-color="#006eff"
         stop-opacity=".99"
         offset=".62"
         id="stop11" />
      <stop
         stop-color="#007bff"
         offset=".89"
         id="stop13" />
      <stop
         stop-color="#06f"
         offset="1"
         id="stop15" />
    </linearGradient>
  </defs>
  <path
     d="m 24,0.35 c -5.83,0 -10.52,1.12 -13.93,3.33 -4.1,2.66 -6.27,6.9 -6.27,12.27 0,7.23 5.8,16.88 7.58,19.67 a 54.47,54.47 0 0 0 6.25,8.16 c 2.54,2.64 4.57,3.87 6.37,3.87 1.8,0 3.83,-1.23 6.37,-3.87 2,-2.08 4.22,-4.97 6.25,-8.16 C 38.4,32.83 44.2,23.18 44.2,15.95 44.2,10.58 42.04,6.33 37.94,3.68 34.52,1.47 29.84,0.35 24,0.35 Z"
     id="path20"
     inkscape:connector-curvature="0"
     style="fill:#939dac" />
  <path
     d="M 24,6.76 A 14.27,14.27 0 1 0 23.98,35.29 14.27,14.27 0 0 0 24,6.76 Z"
     id="path22"
     inkscape:connector-curvature="0"
     style="opacity:0.5" />
  <path
     d="M 24,5.73 A 14.27,14.27 0 1 0 23.98,34.26 14.27,14.27 0 0 0 24,5.73 Z"
     id="path24"
     style="fill:url(#a)"
     inkscape:connector-curvature="0" />
  <path
     d="m 10.86,25.59 a 14.22,14.22 0 0 0 13.14,8.68 14.35,14.35 0 0 0 7.98,-2.43 14.32,14.32 0 0 0 5.17,-17.4 c -0.36,-0.85 -0.8,-1.66 -1.31,-2.42 -0.4,-0.6 -0.88,-1.12 -1.36,-1.65 l -0.03,-0.02 c -4.92,2 -8,4.37 -10.45,9.6 -2.07,5.5 -6.48,8.15 -13.14,5.64 z"
     id="path26"
     style="opacity:0.51000001;fill:url(#b)"
     inkscape:connector-curvature="0" />
  <path
     d="m 24,9.24 a 6.6,6.6 0 0 1 1.65,12.97 v 2.68 a 1.65,1.65 0 1 1 -3.3,0 v -4.12 c 0,-0.9 0.74,-1.64 1.65,-1.64 a 3.3,3.3 0 1 0 -3.3,-3.3 1.65,1.65 0 1 1 -3.3,0 6.6,6.6 0 0 1 6.6,-6.59 z"
     id="path28"
     inkscape:connector-curvature="0"
     style="opacity:0.5" />
  <path
     d="m 24,8.37 a 6.6,6.6 0 0 1 1.65,12.97 v 2.68 a 1.65,1.65 0 1 1 -3.3,0 V 19.9 c 0,-0.9 0.74,-1.64 1.65,-1.64 a 3.3,3.3 0 1 0 -3.3,-3.3 1.65,1.65 0 1 1 -3.3,0 6.6,6.6 0 0 1 6.6,-6.59 z"
     id="path30"
     inkscape:connector-curvature="0"
     style="fill:#f9f9f9" />
  <path
     d="M 24,28.76 A 2.06,2.06 0 0 1 26.06,30.82 2.06,2.06 0 0 1 24,32.88 2.06,2.06 0 0 1 21.94,30.82 2.06,2.06 0 0 1 24,28.76 Z"
     id="path32"
     inkscape:connector-curvature="0"
     style="opacity:0.5" />
  <path
     d="M 24,27.89 A 2.06,2.06 0 0 1 26.06,29.95 2.06,2.06 0 0 1 24,32 2.06,2.06 0 0 1 21.94,29.94 2.06,2.06 0 0 1 24,27.89 Z"
     id="path34"
     inkscape:connector-curvature="0"
     style="fill:#f9f9f9" />
  <path
     d="m 3.92,14.74 c -0.02,0.41 -0.12,0.78 -0.12,1.2 0,7.24 5.8,16.9 7.58,19.68 a 54.47,54.47 0 0 0 6.25,8.16 c 2.54,2.64 4.57,3.87 6.37,3.87 1.8,0 3.83,-1.23 6.37,-3.87 2,-2.08 4.22,-4.97 6.25,-8.16 1.78,-2.79 7.58,-12.44 7.58,-19.67 0,-0.43 -0.1,-0.8 -0.13,-1.21 a 21.6,21.6 0 0 1 -0.8,4.94 43.2,43.2 0 0 1 -2.2,5.77 69.59,69.59 0 0 1 -4.45,8.17 54.46,54.46 0 0 1 -6.25,8.16 17.98,17.98 0 0 1 -3.46,2.93 c -1.05,0.64 -2,0.94 -2.91,0.94 -0.9,0 -1.86,-0.3 -2.9,-0.94 -1.06,-0.64 -2.2,-1.6 -3.47,-2.93 -2,-2.08 -4.22,-4.97 -6.25,-8.16 -0.89,-1.4 -2.78,-4.5 -4.46,-8.17 A 43.2,43.2 0 0 1 4.73,19.68 c -0.5,-1.7 -0.72,-3.35 -0.8,-4.94 z"
     id="path36"
     inkscape:connector-curvature="0"
     style="opacity:0.2" />
</svg>
