<svg xmlns="http://www.w3.org/2000/svg" viewBox="0 0 48 48"><defs><linearGradient id="r" x1="176.76" x2="150.41" y1="103.06" y2="21.95" gradientTransform="translate(8.24 3.93) scale(.12536)" gradientUnits="userSpaceOnUse"><stop stop-color="#14B2DA" offset="0"/><stop stop-color="#297CCC" offset=".4"/><stop stop-color="#256FC5" offset=".51"/><stop stop-color="#2164BF" offset=".65"/><stop stop-color="#2061BD" offset=".82"/><stop stop-color="#2061BD" offset=".98"/></linearGradient><linearGradient id="q" x1="206.21" x2="169.43" y1="130.14" y2="47.53" gradientTransform="translate(8.24 3.93) scale(.12536)" gradientUnits="userSpaceOnUse"><stop stop-color="#409EC3" offset="0"/><stop stop-color="#2061BD" offset=".62"/></linearGradient><linearGradient id="p" x1="48.74" x2="43.2" y1="14.37" y2="11.3" gradientTransform="scale(.12537) rotate(2 -2489.79 2631.06)" gradientUnits="userSpaceOnUse"><stop stop-color="#F9C21B" offset="0"/><stop stop-color="#F3BA1B" offset=".15"/><stop stop-color="#E3A41B" offset=".38"/><stop stop-color="#C9801C" offset=".66"/><stop stop-color="#A44E1C" offset=".99"/><stop stop-color="#A34C1C" offset="1"/></linearGradient><linearGradient id="o" x1="80.78" x2="90.64" y1="38.02" y2="77.54" gradientTransform="translate(8.24 3.93) scale(.12536)" gradientUnits="userSpaceOnUse"><stop stop-color="#1398D1" stop-opacity="0" offset=".01"/><stop stop-color="#1187C2" stop-opacity=".62" offset=".25"/><stop stop-color="#3F6499" stop-opacity=".71" offset=".64"/><stop stop-color="#2F4282" stop-opacity=".5" offset="1"/></linearGradient><mask id="m" x="162.68" y="18.36" width="14.93" height="6.63" maskUnits="userSpaceOnUse"><g class="st13" filter="url(#a)"><radialGradient id="b" cx="154.38" cy="68" r="51.97" gradientUnits="userSpaceOnUse"><stop stop-color="#fff" offset=".87"/><stop offset="1"/></radialGradient><path class="st14" fill="url(#b)" d="M91.3-7.22h100.02v93.34H91.3z"/></g></mask><filter id="a" x="162.68" y="18.36" width="14.93" height="6.63" filterUnits="userSpaceOnUse"><feColorMatrix values="1 0 0 0 0 0 1 0 0 0 0 0 1 0 0 0 0 0 1 0"/></filter><linearGradient id="n" x1="176.21" x2="164.24" y1="23.09" y2="20.55" gradientUnits="userSpaceOnUse"><stop stop-color="#3092B9" offset="0"/><stop stop-color="#258DB6" offset=".22"/><stop stop-color="#1685B1" offset=".66"/><stop stop-color="#1082AF" offset="1"/></linearGradient><linearGradient id="l" x1="48.27" x2="54.24" y1="92.03" y2="95.47" gradientTransform="translate(8.24 3.93) scale(.12536)" gradientUnits="userSpaceOnUse"><stop stop-color="#B0DCD6" offset="0"/><stop stop-color="#53ACE0" offset="1"/></linearGradient><linearGradient id="k" x1="96.75" x2="206.32" y1="278.65" y2="32.54" gradientTransform="translate(8.24 3.93) scale(.12536)" gradientUnits="userSpaceOnUse"><stop stop-color="#29ABE2" offset="0"/><stop stop-color="#385AA6" offset=".77"/><stop stop-color="#414293" offset=".86"/><stop stop-color="#4E1D75" offset="1"/></linearGradient><linearGradient id="j" x1="19.68" x2="217.84" y1="337.41" y2="43.63" gradientTransform="translate(8.24 3.93) scale(.12536)" gradientUnits="userSpaceOnUse"><stop stop-color="#3156A8" offset=".38"/><stop stop-color="#4E1D75" offset="1"/></linearGradient><linearGradient id="i" x1="66.17" x2="167.26" y1="23.21" y2="111.08" gradientTransform="translate(8.24 3.93) scale(.12536)" gradientUnits="userSpaceOnUse"><stop stop-color="#48A8E0" offset=".02"/><stop stop-color="#2061BD" offset=".39"/><stop stop-color="#2B51AC" offset=".5"/><stop stop-color="#442C84" offset=".79"/><stop stop-color="#4E1D75" offset=".94"/></linearGradient><linearGradient id="h" x1="44.54" x2="191.52" y1="57.9" y2="57.9" gradientUnits="userSpaceOnUse"><stop stop-color="#2061BD" offset="0"/><stop stop-color="#2B51AC" offset=".18"/><stop stop-color="#442C84" offset=".68"/><stop stop-color="#4E1D75" offset=".94"/></linearGradient><radialGradient id="g" cx="59.07" cy="113.92" r="85.25" gradientTransform="matrix(.12536 0 0 .18178 8.24 -2.5)" gradientUnits="userSpaceOnUse"><stop stop-color="#14CDDA" offset=".17"/><stop stop-color="#2061BD" offset=".55"/><stop stop-color="#2658AC" offset=".65"/><stop stop-color="#373F81" offset=".86"/><stop stop-color="#432D62" offset="1"/></radialGradient><linearGradient id="f" x1="10.24" x2="57.7" y1="95.31" y2="95.31" gradientTransform="translate(8.24 3.93) scale(.12536)" gradientUnits="userSpaceOnUse"><stop stop-color="#3156A8" offset="0"/><stop stop-color="#3351A4" offset=".25"/><stop stop-color="#3B4397" offset=".54"/><stop stop-color="#472C82" offset=".85"/><stop stop-color="#4E1D75" offset="1"/></linearGradient><linearGradient id="e" x1="199.53" x2="39.68" y1="201.91" y2="42.05" gradientTransform="translate(8.24 3.93) scale(.12536)" gradientUnits="userSpaceOnUse"><stop stop-color="#130036" offset="0"/><stop stop-color="#18023B" offset=".23"/><stop stop-color="#26094A" offset=".51"/><stop stop-color="#3D1563" offset=".82"/><stop stop-color="#4E1D75" offset="1"/></linearGradient><linearGradient id="d" x1="12.33" x2="49.3" y1="4.16" y2="46.13" gradientUnits="userSpaceOnUse"><stop offset="0"/><stop stop-opacity="0" offset="1"/></linearGradient><linearGradient id="c" x1="8.4" x2="44.76" y1="36.01" y2="3.44" gradientUnits="userSpaceOnUse"><stop stop-color="#5fbcd3" offset="0"/><stop stop-color="#2c89a0" offset="1"/></linearGradient></defs><path fill="url(#c)" d="M23.71.5C17.88.5 13.2 1.6 9.78 3.82 5.68 6.48 3.5 10.73 3.5 16.1c0 7.22 5.8 16.88 7.58 19.67a54.47 54.47 0 0 0 6.25 8.16c2.54 2.64 4.57 3.87 6.37 3.87 1.8 0 3.83-1.23 6.37-3.87 2-2.08 4.22-4.98 6.25-8.16 1.78-2.79 7.59-12.45 7.59-19.67 0-5.37-2.17-9.62-6.27-12.27C34.23 1.6 29.55.49 23.7.49z"/><path opacity=".4" fill="url(#d)" d="M28.56 45.22c.51-.45.96-.71 1.52-1.3 2-2.07 4.22-4.97 6.25-8.15.89-1.4 2.79-4.5 4.46-8.17a43.2 43.2 0 0 0 2.2-5.77c.32-1.14.37-2.2.53-3.31l-8.8-8.8-3.85 4.38-9.32-10.16-1.5 1.41-4.8 4.25-3.02 11.77-.46 7.05z"/><path fill="url(#e)" d="M31.92 8.38a12.78 12.78 0 0 0-5.43-1.7 14.48 14.48 0 0 0-3.61.03H22.4l.04-.05s-.05 0-.16.05c-.34 0-.68.02-1.01.04.46-.5.84-.77.84-.77s-.45.06-1.28.81c-.39.04-.77.08-1.16.14.87-1.17 1.78-1.66 1.78-1.66s-1.1-.23-2.82 1.5l-.41.45c-5.02 1.21-8.61 4.46-8.61 8.26 0 .75-.23 1.57.02 2.4-.1 1.3.11 4.88.11 4.88s1.36 7.35 6.58 8.63c.09.02-1.09-1.83-1.6-4.07a6.08 6.08 0 0 0 3.56 1.99c.17.01-.77-1.09-1.6-2.41l11.88 4c6.2-2.67 5.48-2.43 6.82-3.88 2.93-3.17 3.35-4.98 2.6-10.3-.5-3.6-3.15-7.16-6.07-8.34z" class="st1"/><path fill="#fbfbfb" class="st2" d="M33.55 15.92l-22.47-4.18-1.77 10.08.98 3.04 19.62 6.53z"/><path fill="#999" d="M11.14 12.08c.1.21.07.26 0 .26a.35.35 0 0 1-.09-.02l-.08-.02c-.05 0-.02.08.28.47.44.55 6.82 10.2 7.17 10.2 2.98-1.07 15.62-5.4 15.62-5.4l-1.3-1.9-21.6-3.59" class="st3"/><path fill="#f8f8f8" d="M11.32 11.85s.1.49.54 1.03c.44.56 6.33 9.48 6.63 9.4 3.86-1.03 17.86-6.48 17.86-6.48z" class="st4"/><path fill="#999" class="st3" d="M10.57 24.96l.06.43 18.8 6.25-.22-.48z"/><path fill="url(#f)" d="M15.47 11.43s-6.78 1.99-3.67 8.9c0 0-1.43-1.3-2.28-2.97-.04-.08 1.42-5.25 1.42-5.25z" class="st5"/><path fill="url(#g)" d="M11.8 20.33c-.59 0-1.54-.5-1.85-1.08-.38 6.4 2.23 10.14 6.38 12.14-1.35-.16-8.1-3.71-8.1-12.27 0-7.28 5.78-13.78 14.82-14.08.05.4-4.48 1.43-4.63 1.91a9.13 9.13 0 0 1-1.18 2.22c-.59.88.83 1.64-.21 1.88-1.57.36-3.65.16-5.19 2.16-2.3 3-.77 6.44-.04 7.12z" class="st6"/><path fill="url(#h)" d="M137.05 10.7c-46.68-3.58-70.7 15.1-86.13 36.82-5.62 7.9-5 15.16-3.07 23.93.83 3.75 1.67 5.54.66 9.36-.56 2.1-.46 4.07-1.16 5.31-.96 1.72-2.18 3.6-2.59 6.68-1.02 7.7 1.7 10.15 3.41 12.74 2.43-2.4 7.17-8.08 15.71-11.47s14.17-8.47 24.88-13.94c14.63-7.46 31.78 3.86 64.3-6.8 10-3.27 33-37.34 38.46-38.64-15.2-16.82-41.07-22.96-54.47-24z" class="st7" transform="translate(8.24 3.93) scale(.12536)"/><path fill="#3f6499" d="M21.55 3.94s-1.04.5-1.5 1.41A9.22 9.22 0 0 1 22 4.5s-.28.13-.62.86c.6-.2.82-.31.98-.32 0 0-.05.08-.09.8-.93-.3-2.72.06-3.67.65-.32-1.72 2.95-2.55 2.95-2.55z" class="st8"/><path fill="url(#i)" d="M25.71 5.02c-1.8-.24-3.3-.2-4.57.05.4-.38.87-.57.87-.57-.6.05-1.35.45-2 .86a9 9 0 0 0-.92.35c.18-.23.38-.49.59-.68a5.77 5.77 0 0 1 1.88-1.1c-.96-.06-4.17.76-6.1 4.67-.32.39-.62.78-.9 1.18-.72 1.02-.64 1.96-.4 3.1.11.48.13 1.26.03 1.76-.02.1-.3.36-.37 1.05-.08.74.19 1.1.45 1.4.92-1.34 1.84-1.61 1.84-1.61 1.3-.53 1.83-1.1 3.22-1.8 1.9-.97 8.51 2.18 12.72.8 1.3-.42-.5-5.94.21-6.1a11.28 11.28 0 0 0-6.55-3.36z" class="st9"/><path fill="url(#j)" d="M38.85 16.88C37.8 11.46 32.82 6.53 28.8 6.26c-1.78-.12-1.23.79-2.35 1.14-4.8 1.5-4.87 2.37-4.87 2.37 10.18.48 10.34 10.54 7.61 13.09.77-.18 1.6-1.12 2.36-2.6-.09.62-.17 1.38-.28 2.23-.35 2.58.1 7.97-7.32 11.58 0 0 4.06-.33 6.07-2.6-.81 1.89-3.06 2.9-3.06 2.9 1.65-.24 6-1.52 8.76-4.98 3.13-3.91 4.07-7.58 3.13-12.5z" class="st10"/><path fill="url(#k)" d="M28.92 26.78s3.31-.93 4.38-2.72c-.13 2.09-2.02 4.23-2.02 4.23s2.76-.56 3.94-2.5c-.15 1.75-2.28 4.12-2.28 4.12 2.17-.4 7.64-3.84 5.9-13.03-1.01-5.42-6.02-10.35-10.04-10.62-1.78-.12-1.23.79-2.34 1.14-4.8 1.5-4.88 2.37-4.88 2.37 10.18.48 12.9 5.81 7.61 12.94.77-.18 1.08-.6 1.65-1.29 0 0 .26 2.73-1.92 5.36z" class="st11"/><path fill="url(#l)" d="M15.84 14.66s-.6.41-1.02.3c-.51-.12-.6-.6-.6-.6 0 .1-.02.19-.04.28-.02.1-.3.36-.37 1.05-.07.74.2 1.17.47 1.47.92-1.35 1.82-1.68 1.82-1.68-.35-.13-.26-.82-.26-.82z" class="st12"/><g mask="url(#m)" transform="translate(8.24 3.93) scale(.12536)" class="st15"><g opacity=".6" class="st16"><g opacity=".2" class="st17"><path fill="url(#n)" d="M163.51 18.43c1.1-.28 5.62.2 8.58 1.54 2.97 1.33 8.08 3.68 3.99 4.7s-6.44-.61-8.48-2.35-6.85-3.17-4.09-3.89z" class="st18"/></g></g></g><path fill="url(#o)" d="M15.9 14.58s3.24-5.35 6.17-6.8c.27-.13-4.06 1.16-5.8 3.09-1.04 1.14-.5 3.38-.38 3.7z" class="st19"/><path opacity=".1" fill="#f2f2f2" d="M15.9 14.58c.84-.53 2.28-.82 2.74-1.76 1.79-3.62 3.43-5.03 3.43-5.03-2.93 1.44-6.18 6.79-6.18 6.79z" class="st20"/><path fill="#2f4282" d="M16.2 13.6s-.58-.9.26-1.71c.44-.44 1.12-.2 1.2-.12.32.33.12 1.02-.18 1.42-.17.22-.66.56-1.28.41z" class="st21"/><path fill="url(#p)" d="M16.54 13.54s-.4-.62.17-1.18c.31-.3.78-.13.83-.08.23.23.08.7-.12.98a.89.89 0 0 1-.89.29z" class="st22"/><path d="M17.34 12.88c0 .25-.22.44-.47.44a.45.45 0 0 1-.43-.47c0-.25.21-.44.47-.43.24 0 .44.22.43.46z"/><circle fill="#fff" r=".14" cy="12.74" cx="16.6" class="st24"/><path fill="url(#q)" d="M36.88 12.08C34.66 8.7 32.9 7.84 32.9 7.84s.08 2.47 1.32 3.65c.14.14-1.48-1.05-1.48-1.05s-.35 1.13.45 2.44c-.23-.3-.39-.42-.39-.42s-1.49.69-1.93 1.64c-.23-.43-.4-.68-.4-.68s-1.03 2.06-.9 4.45c.21 3.89-.73 5.32-.73 5.32s2.52-.97 3.72-4.07c.5 1.32-.01 2.7-.01 2.7s2.03-1.51 2.47-4.28c.48.78.34 2.34.34 2.34s1.3-1.8 1.33-3.77c.6.42.65 2.06.65 2.06s1.93-2.46-.46-6.09z" class="st23"/><path fill="url(#r)" d="M34.73 9.72a6.6 6.6 0 0 0-2.51-2.33c-2.25-1.4-3.69-1.59-3.69-1.59s-2.07.39-1.72.96l.13.11c-1.82-.83-2.85 1.1-2.85 1.1-1.04-.07-2.3.44-2.67 1.81-.04.14.46.06.72.12a14.6 14.6 0 0 1 3.6 1.4 7.34 7.34 0 0 1 2.94 3.2c.64 1.25.9 3.43.9 3.43s1.65-2.28 1.26-3.45c.66.4.79 1.86.79 1.86s1.1-1.73.78-3.24c.85.52.88 1.58.88 1.58s.87-1.21.48-3.2c.86.7 1.03 1.58 1.03 1.58s.7-1.88-.08-3.34z" class="st25"/><path opacity=".2" fill="#1c1f24" d="M3.64 14.88c-.03.42-.13.79-.13 1.22 0 7.22 5.8 16.88 7.58 19.67a54.47 54.47 0 0 0 6.25 8.16c2.54 2.64 4.57 3.87 6.37 3.87 1.8 0 3.83-1.23 6.37-3.87 2-2.08 4.22-4.97 6.25-8.16 1.78-2.79 7.59-12.45 7.59-19.67 0-.43-.1-.8-.13-1.21a21.6 21.6 0 0 1-.8 4.94 43.2 43.2 0 0 1-2.2 5.77 69.59 69.59 0 0 1-4.46 8.17 54.46 54.46 0 0 1-6.25 8.16 17.98 17.98 0 0 1-3.46 2.93c-1.05.64-2 .94-2.9.94-.91 0-1.87-.3-2.92-.94-1.05-.64-2.19-1.61-3.46-2.93-2-2.08-4.21-4.98-6.25-8.16-.89-1.4-2.78-4.5-4.46-8.17a43.19 43.19 0 0 1-2.19-5.77 21.6 21.6 0 0 1-.8-4.94z"/></svg>