<svg xmlns="http://www.w3.org/2000/svg" xmlns:xlink="http://www.w3.org/1999/xlink" viewBox="0 0 48 48"><defs><linearGradient id="b"><stop offset="0"/><stop offset="1" stop-opacity="0"/></linearGradient><linearGradient id="a"><stop offset="0" stop-color="#d40000"/><stop offset="1" stop-color="#faa"/></linearGradient><linearGradient id="c" x1="17.234" x2="24.003" y1="-2.484" y2="50.352" gradientUnits="userSpaceOnUse" xlink:href="#a"><stop stop-color="#f4d7d7" offset="0"/><stop offset=".044" stop-color="#c83737"/><stop stop-color="#f55" offset="1"/></linearGradient><linearGradient xlink:href="#b" id="d" x1="-5.811" y1="10.407" x2="52.424" y2="30.979" gradientUnits="userSpaceOnUse"/></defs><path fill="url(#c)" d="M24 .35c-5.83 0-10.52 1.12-13.93 3.33-4.1 2.66-6.27 6.9-6.27 12.27 0 7.23 5.8 16.88 7.58 19.67a54.47 54.47 0 0 0 6.25 8.16c2.54 2.64 4.57 3.87 6.37 3.87 1.8 0 3.83-1.23 6.37-3.87 2-2.08 4.22-4.97 6.25-8.16 1.78-2.79 7.58-12.44 7.58-19.67 0-5.37-2.16-9.62-6.26-12.27C34.52 1.47 29.84.35 24 .35z"/><path d="M4.357 11.707c-.039.152-.12.279-.154.434a17.405 17.405 0 0 0-.402 3.808c0 1.808.362 3.768.933 5.733.572 1.965 1.352 3.935 2.188 5.767 1.672 3.665 3.569 6.775 4.459 8.17a54.47 54.47 0 0 0 3.115 4.467 54.47 54.47 0 0 0 3.135 3.693c1.27 1.32 2.41 2.289 3.46 2.926 1.05.638 2.009.945 2.909.945.9 0 1.858-.307 2.908-.945 1.05-.637 2.191-1.606 3.461-2.926 2-2.08 4.22-4.97 6.25-8.16.89-1.395 2.787-4.505 4.46-8.17.835-1.832 1.615-3.802 2.187-5.767.571-1.965.933-3.925.933-5.733 0-.734-.138-1.392-.219-2.084l-6.173-6.174-19.83 7.227h-7.692z" fill="url(#d)" opacity=".5"/><path d="M34.959 6.328a2.646 1.777 0 0 0-1.178.238l-20.865 7.846-8.559-2.705c-.039.152-.12.279-.154.434-.234 1.045-.322 2.174-.351 3.334l8.044 2.54a2.646 1.777 0 0 0 2.418-.056l22.05-8.293a2.646 1.777 0 0 0-1.14-3.338 2.646 1.777 0 0 0-.265 0zm0 7.502a2.646 1.777 0 0 0-1.178.238l-20.865 7.846-8.586-2.713c.157.836.157 1.63.404 2.48.178.61.467 1.183.68 1.79l6.482 2.049a2.646 1.777 0 0 0 2.418-.057l22.05-8.293a2.646 1.777 0 0 0-1.14-3.34 2.646 1.777 0 0 0-.265 0zm0 7.504a2.646 1.777 0 0 0-1.178.238l-20.865 7.846-5.945-1.879c.974 2.121 1.715 3.233 2.59 4.744l2.335.738a2.646 1.777 0 0 0 2.418-.056l22.05-8.291a2.646 1.777 0 0 0-1.14-3.34 2.646 1.777 0 0 0-.265 0z" fill="#fff" fill-rule="evenodd"/><path opacity=".5" d="M3.92 14.74c-.02.4-.13.78-.13 1.2 0 7.24 5.81 16.9 7.6 19.68a54.47 54.47 0 0 0 6.24 8.16c2.54 2.64 4.56 3.87 6.37 3.87 1.8 0 3.83-1.23 6.37-3.87 2-2.08 4.22-4.97 6.25-8.16 1.78-2.79 7.58-12.44 7.58-19.67 0-.43-.1-.8-.13-1.21a21.6 21.6 0 0 1-.8 4.94 43.2 43.2 0 0 1-2.2 5.77 69.59 69.59 0 0 1-4.45 8.17 54.46 54.46 0 0 1-6.25 8.16 17.98 17.98 0 0 1-3.46 2.93c-1.05.64-2 .94-2.91.94-.9 0-1.86-.3-2.9-.94-1.06-.64-2.2-1.6-3.47-2.93-2-2.08-4.22-4.97-6.25-8.16a69.6 69.6 0 0 1-4.46-8.17 43.19 43.19 0 0 1-2.19-5.77 21.6 21.6 0 0 1-.8-4.94z"/></svg>