<?xml version="1.0" encoding="UTF-8" standalone="no"?>
<svg
   xmlns:dc="http://purl.org/dc/elements/1.1/"
   xmlns:cc="http://creativecommons.org/ns#"
   xmlns:rdf="http://www.w3.org/1999/02/22-rdf-syntax-ns#"
   xmlns:svg="http://www.w3.org/2000/svg"
   xmlns="http://www.w3.org/2000/svg"
   xmlns:sodipodi="http://sodipodi.sourceforge.net/DTD/sodipodi-0.dtd"
   xmlns:inkscape="http://www.inkscape.org/namespaces/inkscape"
   width="48"
   height="48"
   version="1.1"
   id="svg33"
   sodipodi:docname="tor.svg"
   inkscape:version="0.92.4 (5da689c313, 2019-01-14)">
  <metadata
     id="metadata37">
    <rdf:RDF>
      <cc:Work
         rdf:about="">
        <dc:format>image/svg+xml</dc:format>
        <dc:type
           rdf:resource="http://purl.org/dc/dcmitype/StillImage" />
        <dc:title></dc:title>
      </cc:Work>
    </rdf:RDF>
  </metadata>
  <sodipodi:namedview
     pagecolor="#ffffff"
     bordercolor="#666666"
     borderopacity="1"
     objecttolerance="10"
     gridtolerance="10"
     guidetolerance="10"
     inkscape:pageopacity="0"
     inkscape:pageshadow="2"
     inkscape:window-width="1136"
     inkscape:window-height="480"
     id="namedview35"
     showgrid="false"
     inkscape:zoom="4.9166667"
     inkscape:cx="24"
     inkscape:cy="24"
     inkscape:window-x="0"
     inkscape:window-y="25"
     inkscape:window-maximized="0"
     inkscape:current-layer="svg33" />
  <defs
     id="defs17">
    <radialGradient
       id="c-3"
       cx="17.458"
       cy="16.905"
       r="20.2"
       gradientTransform="matrix(1.2701,0.83264,-0.64187,0.97911,5.8649,-15.971)"
       gradientUnits="userSpaceOnUse">
      <stop
         stop-color="#e9afdd"
         offset="0"
         id="stop2" />
      <stop
         stop-color="#800080"
         offset="1"
         id="stop4" />
    </radialGradient>
    <linearGradient
       id="linearGradient919"
       x1="21.116"
       x2="45.481"
       y1="27.067"
       y2="27.067"
       gradientUnits="userSpaceOnUse">
      <stop
         offset="0"
         id="stop7" />
      <stop
         stop-opacity="0"
         offset="1"
         id="stop9" />
    </linearGradient>
    <linearGradient
       id="linearGradient937"
       x1="10.339"
       x2="10.227"
       y1="33.785"
       y2="5.8712"
       gradientUnits="userSpaceOnUse">
      <stop
         stop-color="#441650"
         offset="0"
         id="stop12" />
      <stop
         stop-color="#ab37c8"
         offset="1"
         id="stop14" />
    </linearGradient>
  </defs>
  <path
     d="m 24.005,0.35 c -5.83,0 -10.51,1.1 -13.93,3.32 -4.1,2.66 -6.28,6.91 -6.28,12.28 0,7.22 5.8,16.88 7.58,19.67 a 54.48,54.48 0 0 0 6.25,8.16 c 2.54,2.64 4.57,3.87 6.37,3.87 1.8,0 3.83,-1.23 6.37,-3.87 2,-2.08 4.22,-4.98 6.25,-8.16 1.78,-2.79 7.59,-12.45 7.59,-19.67 0,-5.37 -2.17,-9.62 -6.27,-12.27 -3.4,-2.23 -8.09,-3.34 -13.94,-3.34 z"
     id="path19"
     style="fill:url(#c-3)"
     inkscape:connector-curvature="0" />
  <path
     d="m 23.995,0.35 c -5.83,0 -10.51,1.12 -13.93,3.33 -4.1,2.66 -6.27,6.9 -6.27,12.27 0,7.23 5.8,16.89 7.58,19.68 a 54.48,54.48 0 0 0 6.25,8.15 c 2.54,2.65 4.57,3.88 6.37,3.88 1.8,0 3.83,-1.23 6.37,-3.88 2,-2.07 4.22,-4.97 6.25,-8.15 1.78,-2.8 7.59,-12.45 7.59,-19.68 0,-5.37 -2.17,-9.61 -6.27,-12.27 -3.41,-2.21 -8.1,-3.33 -13.95,-3.33 z m 0,0.14 c 2.12,0.09 4.12,0.28 5.88,0.7 1.16,0.27 2.25,0.62 3.26,1.04 1.01,0.41 1.95,0.9 2.8,1.45 a 12.92,12.92 0 0 1 4.67,5.12 14.1,14.1 0 0 1 1.2,3.34 c 0.26,1.2 0.4,2.47 0.4,3.81 0,1.81 -0.37,3.77 -0.94,5.73 a 43.19,43.19 0 0 1 -2.19,5.78 69.59,69.59 0 0 1 -4.46,8.17 54.47,54.47 0 0 1 -6.25,8.15 17.98,17.98 0 0 1 -3.46,2.93 c -0.32,0.2 -0.62,0.3 -0.9,0.4 -0.3,-0.1 -0.6,-0.2 -0.92,-0.4 a 17.72,17.72 0 0 1 -3.46,-2.93 54.5,54.5 0 0 1 -6.25,-8.15 69.6,69.6 0 0 1 -4.46,-8.17 43.19,43.19 0 0 1 -2.19,-5.78 20.93,20.93 0 0 1 -0.93,-5.73 c 0,-1.34 0.13,-2.61 0.4,-3.8 0.27,-1.2 0.67,-2.32 1.2,-3.35 a 12.92,12.92 0 0 1 4.67,-5.12 17.1,17.1 0 0 1 2.8,-1.45 c 1,-0.42 2.1,-0.77 3.26,-1.04 1.75,-0.42 3.76,-0.61 5.86,-0.7 z"
     id="path21"
     inkscape:connector-curvature="0"
     style="opacity:0.2" />
  <path
     d="m 31.867,41.82 c 1.582,-1.8561 3.2056,-3.7849 4.748,-6.2012 0.89,-1.395 2.7879,-4.5076 4.4629,-8.1738 0.8375,-1.8331 1.6189,-3.803 2.1914,-5.7676 0.09175,-0.31483 0.07003,-0.6041 0.15039,-0.91797 l -9.5312,-9.5332 -7.6641,-3.0488 -2.2305,-2.2305 -2.8789,10.328 2.8789,17.672 7.873,7.873 z"
     id="path23"
     style="opacity:0.5;fill:url(#linearGradient919)"
     inkscape:connector-curvature="0" />
  <circle
     cx="24"
     cy="20"
     r="11.853"
     id="circle25"
     style="fill:none;stroke:#ffffff;stroke-width:2.29410005;stroke-linecap:round;stroke-linejoin:round" />
  <circle
     cx="24"
     cy="20"
     r="7.2646999"
     id="circle27"
     style="fill:none;stroke:#ffffff;stroke-width:2.29410005;stroke-linecap:round;stroke-linejoin:round" />
  <circle
     cx="24"
     cy="20"
     r="3.8234999"
     id="circle29"
     style="fill:#ffffff;stroke-width:0.76471001" />
  <path
     d="m 24.03,33.983 c -8.1389,0 -14,-5.8611 -14,-14 0,-8.1389 5.8611,-14 14,-14 z"
     id="path31"
     style="fill:url(#linearGradient937);stroke-width:0.73684001"
     inkscape:connector-curvature="0" />
</svg>
