<?xml version="1.0" encoding="UTF-8" standalone="no"?>
<svg
   xmlns:dc="http://purl.org/dc/elements/1.1/"
   xmlns:cc="http://creativecommons.org/ns#"
   xmlns:rdf="http://www.w3.org/1999/02/22-rdf-syntax-ns#"
   xmlns:svg="http://www.w3.org/2000/svg"
   xmlns="http://www.w3.org/2000/svg"
   xmlns:xlink="http://www.w3.org/1999/xlink"
   xmlns:sodipodi="http://sodipodi.sourceforge.net/DTD/sodipodi-0.dtd"
   xmlns:inkscape="http://www.inkscape.org/namespaces/inkscape"
   width="48"
   height="48"
   version="1.1"
   id="svg36"
   sodipodi:docname="utilities-x-terminal.svg"
   inkscape:version="0.92.3 (2405546, 2018-03-11)">
  <sodipodi:namedview
     pagecolor="#ffffff"
     bordercolor="#666666"
     borderopacity="1"
     objecttolerance="10"
     gridtolerance="10"
     guidetolerance="10"
     inkscape:pageopacity="0"
     inkscape:pageshadow="2"
     inkscape:window-width="1366"
     inkscape:window-height="719"
     id="namedview38"
     showgrid="false"
     inkscape:zoom="2.765625"
     inkscape:cx="24"
     inkscape:cy="24"
     inkscape:window-x="0"
     inkscape:window-y="25"
     inkscape:window-maximized="1"
     inkscape:current-layer="svg36"
     showguides="true"
     inkscape:guide-bbox="true" />
  <metadata
     id="metadata2">
    <rdf:RDF>
      <cc:Work>
        <dc:format>image/svg+xml</dc:format>
        <dc:type
           rdf:resource="http://purl.org/dc/dcmitype/StillImage" />
        <dc:title></dc:title>
      </cc:Work>
    </rdf:RDF>
  </metadata>
  <defs
     id="defs22">
    <linearGradient
       inkscape:collect="always"
       id="linearGradient874">
      <stop
         style="stop-color:#1f241c;stop-opacity:1"
         offset="0"
         id="stop870" />
      <stop
         id="stop880"
         offset="0.68392855"
         style="stop-color:#217821;stop-opacity:1" />
      <stop
         id="stop878"
         offset="0.93035716"
         style="stop-color:#2ca02c;stop-opacity:1" />
      <stop
         style="stop-color:#3771c8;stop-opacity:1"
         offset="1"
         id="stop872" />
    </linearGradient>
    <linearGradient
       id="b">
      <stop
         offset="0"
         id="stop4" />
      <stop
         offset=".68"
         stop-color="#333"
         id="stop6"
         style="stop-color:#008080;stop-opacity:1" />
      <stop
         offset=".92"
         stop-color="#4d4d4d"
         id="stop8" />
      <stop
         offset="1"
         stop-color="#4d4d4d"
         id="stop10" />
    </linearGradient>
    <linearGradient
       id="a">
      <stop
         offset="0"
         id="stop13" />
      <stop
         offset="1"
         stop-opacity="0"
         id="stop15" />
    </linearGradient>
    <linearGradient
       xlink:href="#a"
       id="d"
       x1="22.34"
       y1="14.43"
       x2="22.77"
       y2="41.36"
       gradientUnits="userSpaceOnUse" />
    <linearGradient
       xlink:href="#a"
       id="e"
       x1="22.34"
       y1="14.43"
       x2="35.11"
       y2="22.68"
       gradientUnits="userSpaceOnUse" />
    <linearGradient
       xlink:href="#a"
       id="f"
       x1="10.64"
       y1="8.13"
       x2="25.1"
       y2="20.64"
       gradientUnits="userSpaceOnUse" />
    <linearGradient
       xlink:href="#b"
       id="c"
       gradientUnits="userSpaceOnUse"
       x1="23.71"
       y1="47.8"
       x2="23.7"
       y2="-2.97" />
    <linearGradient
       inkscape:collect="always"
       xlink:href="#linearGradient874"
       id="linearGradient876"
       x1="23.709999"
       y1="47.728813"
       x2="23.709999"
       y2="-2.8926549"
       gradientUnits="userSpaceOnUse" />
  </defs>
  <path
     d="M23.71.5C17.88.5 13.2 1.6 9.78 3.82 5.68 6.48 3.5 10.73 3.5 16.1c0 7.22 5.8 16.88 7.58 19.67a54.48 54.48 0 0 0 6.25 8.16c2.54 2.64 4.57 3.87 6.37 3.87 1.8 0 3.83-1.23 6.37-3.87 2-2.08 4.22-4.98 6.25-8.16 1.78-2.79 7.59-12.45 7.59-19.67 0-5.37-2.17-9.62-6.27-12.27C34.24 1.6 29.55.49 23.7.49z"
     fill="url(#c)"
     id="path24"
     style="fill:url(#linearGradient876);fill-opacity:1" />
  <path
     fill="url(#d)"
     opacity=".42"
     d="M14.1 39.7c1.1 1.44 2.2 3.15 3.24 4.23a17.98 17.98 0 0 0 3.46 2.93 5.6 5.6 0 0 0 2.91.94c.9 0 1.86-.3 2.91-.94 1.05-.64 2.2-1.61 3.46-2.93.64-.66 1.32-1.79 1.99-2.6l.56-21.48H22.56l-.22-5.42-8.53 5.8z"
     id="path26" />
  <path
     fill="#f9f9f9"
     d="M14.57 7.96a.9.9 0 0 1 .58.2l6.86 5.43a.9.9 0 0 1 0 1.4l-6.86 5.44a.9.9 0 1 1-1.11-1.41L20 14.29l-5.96-4.72a.9.9 0 0 1 .53-1.61zm8.88 10.88h8.29a.9.9 0 1 1 0 1.8h-8.29a.9.9 0 1 1 0-1.8z"
     id="path28" />
  <path
     d="M22.3 47.56a19.78 19.78 0 0 1-3.23-2.8 56.77 56.77 0 0 1-6.5-8.5c-1.86-2.9-7.92-12.97-7.92-20.5 0-5.44 2.14-9.76 6.17-12.54-.35.2-.7.39-1.04.6-4.1 2.66-6.27 6.9-6.27 12.28 0 7.22 5.8 16.88 7.58 19.67a54.48 54.48 0 0 0 6.25 8.16c1.9 1.98 3.52 3.16 4.96 3.63zm2.78-.03c1-.66 2.06-1.58 3.24-2.8a56.77 56.77 0 0 0 6.5-8.5c1.86-2.9 7.91-12.98 7.91-20.5 0-5.44-2.13-9.77-6.17-12.55.36.2.72.4 1.05.61 4.1 2.66 6.27 6.9 6.27 12.27 0 7.23-5.8 16.89-7.59 19.67a54.48 54.48 0 0 1-6.24 8.16c-1.9 1.98-3.52 3.17-4.97 3.64z"
     opacity=".2"
     fill="#f9f9f9"
     id="path30" />
  <path
     fill="url(#e)"
     opacity=".4"
     d="M23.45 18.84h8.29a.9.9 0 1 1 0 1.8h-8.29a.9.9 0 1 1 0-1.8z"
     id="path32" />
  <path
     fill="url(#f)"
     opacity=".4"
     d="M14.57 7.96a.9.9 0 0 1 .58.2l6.86 5.43a.9.9 0 0 1 0 1.4l-6.86 5.44a.9.9 0 1 1-1.11-1.41L20 14.29l-5.96-4.72a.9.9 0 0 1 .53-1.61z"
     id="path34" />
</svg>
