<?xml version="1.0" encoding="UTF-8" standalone="no"?>
<svg
   xmlns:dc="http://purl.org/dc/elements/1.1/"
   xmlns:cc="http://creativecommons.org/ns#"
   xmlns:rdf="http://www.w3.org/1999/02/22-rdf-syntax-ns#"
   xmlns:svg="http://www.w3.org/2000/svg"
   xmlns="http://www.w3.org/2000/svg"
   xmlns:xlink="http://www.w3.org/1999/xlink"
   xmlns:sodipodi="http://sodipodi.sourceforge.net/DTD/sodipodi-0.dtd"
   xmlns:inkscape="http://www.inkscape.org/namespaces/inkscape"
   width="48"
   height="48"
   viewBox="0 0 12.7 12.7"
   version="1.1"
   id="svg29"
   sodipodi:docname="vim.svg"
   inkscape:version="0.92.4 (5da689c313, 2019-01-14)">
  <sodipodi:namedview
     pagecolor="#ffffff"
     bordercolor="#666666"
     borderopacity="1"
     objecttolerance="10"
     gridtolerance="10"
     guidetolerance="10"
     inkscape:pageopacity="0"
     inkscape:pageshadow="2"
     inkscape:window-width="1112"
     inkscape:window-height="480"
     id="namedview31"
     showgrid="false"
     inkscape:zoom="4.9166667"
     inkscape:cx="2.1355932"
     inkscape:cy="24"
     inkscape:window-x="0"
     inkscape:window-y="25"
     inkscape:window-maximized="0"
     inkscape:current-layer="svg29" />
  <metadata
     id="metadata2">
    <rdf:RDF>
      <cc:Work>
        <dc:format>image/svg+xml</dc:format>
        <dc:type
           rdf:resource="http://purl.org/dc/dcmitype/StillImage" />
        <dc:title></dc:title>
      </cc:Work>
    </rdf:RDF>
  </metadata>
  <defs
     id="defs13">
    <linearGradient
       id="a">
      <stop
         offset="0"
         stop-color="#447821"
         id="stop4" />
      <stop
         offset="1"
         stop-color="#c6e9af"
         id="stop6" />
    </linearGradient>
    <clipPath
       id="c">
      <path
         d="M.7.57h280.88v280.88H.7zm0 0"
         id="path9" />
    </clipPath>
    <linearGradient
       xlink:href="#a"
       id="b"
       x1="1.81"
       y1="1.36"
       x2="11.69"
       y2="6.35"
       gradientUnits="userSpaceOnUse" />
  </defs>
  <path
     d="M 6.35,0.1 C 4.81,0.1 3.57,0.38 2.66,0.96 A 3.67,3.67 0 0 0 1,4.22 c 0,1.91 1.54,4.47 2.01,5.2 0.54,0.85 1.13,1.61 1.65,2.16 0.68,0.7 1.21,1.03 1.69,1.03 0.48,0 1.01,-0.33 1.69,-1.03 A 15.2,15.2 0 0 0 9.69,9.43 c 0.47,-0.74 2,-3.3 2,-5.21 0,-1.42 -0.57,-2.54 -1.65,-3.25 A 6.75,6.75 0 0 0 6.35,0.1 Z"
     id="path15"
     style="fill:url(#b)"
     inkscape:connector-curvature="0" />
  <g
     clip-path="url(#c)"
     transform="matrix(0.03438,0,0,0.03438,1.5,0.44)"
     id="g21"
     style="fill:#3e4837">
    <path
       d="M 281.47,139.57 139.7,0.68 0.82,142.38 139.7,281.34 281.47,139.57"
       id="path17"
       inkscape:connector-curvature="0"
       style="fill-rule:evenodd" />
    <path
       stroke-miterlimit="10"
       d="M 281.47,139.57 139.7,0.68 0.82,142.38 139.7,281.34 Z m 0,0"
       id="path19"
       inkscape:connector-curvature="0"
       style="stroke:#211e1e;stroke-width:0.22;stroke-miterlimit:10" />
  </g>
  <path
     d="m 6.62,0.1 a 6.75,6.75 0 0 0 -0.27,0 c -0.1,0 -0.17,0.02 -0.26,0.03 v 0.3 H 6.62 Z M 7.14,0.11 V 0.43 H 7.67 V 0.17 A 6.75,6.75 0 0 0 7.5,0.14 6.75,6.75 0 0 0 7.14,0.1 Z M 3.17,0.16 V 0.18 H 3.18 V 0.16 Z m 6.35,0 V 0.18 H 9.53 V 0.16 Z m 1.06,0 v 0.02 h 0.01 V 0.16 Z M 5.56,0.18 C 5.38,0.2 5.2,0.21 5.03,0.24 v 0.2 H 5.56 V 0.17 Z M 8.2,0.26 V 0.43 H 8.73 V 0.4 A 6.75,6.75 0 0 0 8.2,0.26 Z M 4.5,0.29 C 4.43,0.3 4.34,0.29 4.27,0.31 l -0.3,0.1 V 0.43 H 4.5 V 0.3 Z M 2.9,0.96 V 1.49 H 3.43 V 0.96 Z m 1.06,0 V 1.49 H 4.49 V 0.96 Z m 1.06,0 V 1.49 H 5.55 V 0.96 Z m 1.06,0 V 1.49 H 6.61 V 0.96 Z m 1.05,0 V 1.49 H 7.66 V 0.96 Z m 1.06,0 V 1.49 H 8.72 V 0.96 H 8.2 Z m 1.06,0 V 1.49 H 9.78 V 0.96 Z M 2.37,1.16 A 3.67,3.67 0 0 0 2.35,1.18 3.67,3.67 0 0 0 2.08,1.42 3.67,3.67 0 0 0 2.01,1.49 h 0.36 z m 7.94,0.05 v 0.28 h 0.33 C 10.54,1.39 10.42,1.3 10.31,1.21 Z M 1.84,2.02 V 2.55 H 2.37 V 2.02 Z m 1.06,0 V 2.55 H 3.43 V 2.02 Z m 2.12,0 V 2.55 H 5.55 V 2.02 Z m 1.06,0 V 2.55 H 6.61 V 2.02 Z m 1.05,0 V 2.55 H 7.66 V 2.02 Z m 3.18,0 v 0.53 h 0.53 V 2.02 Z M 1.11,3.08 A 3.67,3.67 0 0 0 1.05,3.33 3.67,3.67 0 0 0 1.01,3.61 h 0.3 V 3.08 Z m 0.73,0 V 3.61 H 2.37 V 3.08 Z m 1.06,0 V 3.61 H 3.43 V 3.08 Z m 2.12,0 V 3.61 H 5.55 V 3.08 Z m 1.06,0 V 3.61 H 6.61 V 3.08 Z m 1.05,0 V 3.61 H 7.66 V 3.08 Z m 2.12,0 V 3.61 H 9.78 V 3.08 Z m 1.06,0 v 0.53 h 0.53 V 3.08 Z m 1.06,0 v 0.53 h 0.25 C 11.6,3.48 11.6,3.34 11.57,3.21 11.57,3.16 11.54,3.13 11.53,3.08 Z M 1,4.14 a 3.67,3.67 0 0 0 0,0.08 c 0,0.14 0.06,0.3 0.07,0.45 H 1.32 V 4.14 Z m 0.85,0 V 4.67 H 2.38 V 4.14 Z m 1.06,0 V 4.67 H 3.44 V 4.14 Z m 2.12,0 V 4.67 H 5.56 V 4.14 Z m 1.06,0 V 4.67 H 6.62 V 4.14 Z m 2.11,0 V 4.67 H 8.73 V 4.14 Z m 1.06,0 V 4.67 H 9.79 V 4.14 Z m 1.06,0 v 0.53 h 0.53 V 4.14 Z m 1.06,0 v 0.53 h 0.24 C 11.63,4.52 11.69,4.36 11.69,4.22 V 4.14 Z m -0.02,1.04 v 0.53 h 0.09 C 11.5,5.53 11.5,5.36 11.53,5.18 Z M 1.16,5.2 C 1.2,5.37 1.19,5.54 1.25,5.72 H 1.32 V 5.2 Z m 0.7,0 V 5.72 H 2.38 V 5.2 H 1.85 Z m 1.05,0 V 5.72 H 3.44 V 5.2 Z m 2.12,0 V 5.72 H 5.56 V 5.2 Z m 2.11,0 V 5.72 H 7.67 V 5.2 Z m 1.06,0 V 5.72 H 8.73 V 5.2 Z m 1.06,0 V 5.72 H 9.79 V 5.2 Z m 1.06,0 v 0.52 h 0.53 V 5.2 Z M 1.85,6.25 V 6.78 H 2.38 V 6.25 Z m 1.06,0 V 6.78 H 3.44 V 6.25 Z m 3.18,0 V 6.78 H 6.61 V 6.25 H 6.1 Z m 1.05,0 V 6.78 H 7.67 V 6.25 Z m 1.06,0 V 6.78 H 8.73 V 6.25 Z m 1.06,0 V 6.78 H 9.79 V 6.25 Z m 1.06,0 v 0.53 h 0.53 V 6.25 Z M 10.3,7.3 v 0.52 h 0.26 c 0.1,-0.2 0.17,-0.27 0.27,-0.5 V 7.3 Z M 1.86,7.31 c 0.1,0.24 0.17,0.32 0.29,0.53 H 2.38 V 7.31 Z m 1.05,0 V 7.84 H 3.44 V 7.31 Z m 2.12,0 V 7.84 H 5.56 V 7.31 Z m 1.06,0 V 7.84 H 6.61 V 7.31 H 6.1 Z m 1.05,0 V 7.84 H 7.67 V 7.31 Z m 1.06,0 V 7.84 H 8.73 V 7.31 Z m 1.06,0 V 7.84 H 9.79 V 7.31 Z M 2.91,8.37 V 8.9 H 3.44 V 8.37 H 2.9 Z m 1.06,0 V 8.9 H 4.5 V 8.37 Z m 1.06,0 V 8.9 H 5.56 V 8.37 Z m 1.05,0 V 8.9 H 6.61 V 8.37 Z m 1.06,0 V 8.9 H 7.67 V 8.37 Z m 1.06,0 V 8.9 H 8.73 V 8.37 Z m 1.06,0 V 8.9 H 9.79 V 8.37 Z M 3.02,9.43 c 0.13,0.2 0.26,0.33 0.4,0.53 H 3.44 V 9.43 Z m 0.95,0 V 9.96 H 4.5 V 9.43 Z m 1.06,0 V 9.96 H 5.56 V 9.43 Z m 1.05,0 V 9.96 H 6.61 V 9.43 Z m 1.06,0 V 9.96 H 7.67 V 9.43 Z m 1.06,0 V 9.96 H 8.73 V 9.43 Z m 1.06,0 V 9.96 H 9.29 C 9.42,9.76 9.56,9.64 9.69,9.43 Z m -5.3,1.06 v 0.18 l 0.27,0.35 H 4.5 V 10.49 H 3.97 Z m 1.07,0 v 0.53 h 0.53 v -0.53 z m 1.05,0 v 0.53 h 0.53 v -0.53 z m 1.06,0 v 0.53 h 0.53 v -0.53 z m 1.06,0 v 0.53 h 0.27 c 0.09,-0.1 0.17,-0.23 0.26,-0.34 v -0.2 H 8.2 Z m 1.32,0.25 v 0.02 h 0.01 v -0.02 z m -4.5,0.8 v 0.35 l 0.22,0.18 H 5.56 V 11.55 H 5.03 Z m 1.06,0 v 0.53 H 6.61 V 11.55 H 6.08 Z m 1.06,0 v 0.53 H 7.46 L 7.67,11.89 V 11.55 H 7.14 Z m 1.32,0.26 v 0.02 H 8.47 V 11.8 Z M 7.4,12.86 v 0.02 h 0.02 v -0.02 z"
     id="path23"
     inkscape:connector-curvature="0"
     style="color:#000000;fill:#6bed46" />
  <path
     d="M 4.91,5.56 V 1.9 H 5.46 L 5.56,1.8 V 1.41 L 5.46,1.31 H 2.63 l -0.1,0.1 v 0.4 l 0.1,0.09 h 0.48 v 6.75 l 0.13,0.1 H 3.79 L 10.55,1.71 V 1.43 L 10.45,1.32 H 7.6499997 l -0.1,0.1 V 1.8 l 0.1,0.1 h 0.48 v 0.39 l -3.22,3.27"
     id="path25"
     inkscape:connector-curvature="0"
     style="fill:#d1d1d1;fill-rule:evenodd" />
  <path
     d="M 6.35,0.1 C 4.81,0.1 3.57,0.38 2.66,0.96 A 3.67,3.67 0 0 0 1,4.22 c 0,1.91 1.54,4.47 2.01,5.2 0.54,0.85 1.13,1.61 1.65,2.16 0.68,0.7 1.21,1.03 1.69,1.03 0.48,0 1.01,-0.33 1.69,-1.03 A 15.2,15.2 0 0 0 9.69,9.43 c 0.47,-0.74 2,-3.3 2,-5.21 0,-1.42 -0.57,-2.54 -1.65,-3.25 A 6.75,6.75 0 0 0 6.35,0.1 Z m 0,0.03 C 6.91,0.15 7.44,0.2 7.9,0.31 a 5.82,5.82 0 0 1 1.6,0.66 3.65,3.65 0 0 1 1.24,1.36 c 0.14,0.27 0.25,0.57 0.32,0.88 A 4.61,4.61 0 0 1 10.92,5.74 C 10.77,6.26 10.56,6.78 10.34,7.26 9.9,8.23 9.39,9.06 9.16,9.43 A 15.2,15.2 0 0 1 7.51,11.58 4.9,4.9 0 0 1 6.59,12.36 0.96,0.96 0 0 1 6.35,12.46 0.96,0.96 0 0 1 6.11,12.36 4.76,4.76 0 0 1 5.19,11.58 14.41,14.41 0 0 1 3.54,9.43 19.2,19.2 0 0 1 2.36,7.26 C 2.14,6.78 1.93,6.26 1.78,5.74 A 4.6,4.6 0 0 1 1.64,3.22 3.73,3.73 0 0 1 2.48,1.58 3.65,3.65 0 0 1 3.93,0.58 6.83,6.83 0 0 1 6.35,0.13 Z"
     id="path27"
     inkscape:connector-curvature="0"
     style="opacity:0.2" />
</svg>
