<?xml version="1.0" encoding="UTF-8" standalone="no"?>
<svg
   xmlns:dc="http://purl.org/dc/elements/1.1/"
   xmlns:cc="http://creativecommons.org/ns#"
   xmlns:rdf="http://www.w3.org/1999/02/22-rdf-syntax-ns#"
   xmlns:svg="http://www.w3.org/2000/svg"
   xmlns="http://www.w3.org/2000/svg"
   xmlns:xlink="http://www.w3.org/1999/xlink"
   xmlns:sodipodi="http://sodipodi.sourceforge.net/DTD/sodipodi-0.dtd"
   xmlns:inkscape="http://www.inkscape.org/namespaces/inkscape"
   width="48"
   height="48"
   version="1.1"
   id="svg43"
   sodipodi:docname="virtualbox.svg"
   inkscape:version="0.92.4 (5da689c313, 2019-01-14)">
  <sodipodi:namedview
     pagecolor="#ffffff"
     bordercolor="#666666"
     borderopacity="1"
     objecttolerance="10"
     gridtolerance="10"
     guidetolerance="10"
     inkscape:pageopacity="0"
     inkscape:pageshadow="2"
     inkscape:window-width="1112"
     inkscape:window-height="480"
     id="namedview45"
     showgrid="false"
     inkscape:zoom="4.9166667"
     inkscape:cx="2.1355932"
     inkscape:cy="24"
     inkscape:window-x="0"
     inkscape:window-y="25"
     inkscape:window-maximized="0"
     inkscape:current-layer="svg43" />
  <metadata
     id="metadata2">
    <rdf:RDF>
      <cc:Work>
        <dc:format>image/svg+xml</dc:format>
        <dc:type
           rdf:resource="http://purl.org/dc/dcmitype/StillImage" />
        <dc:title></dc:title>
      </cc:Work>
    </rdf:RDF>
  </metadata>
  <defs
     id="defs29">
    <linearGradient
       id="d">
      <stop
         offset="0"
         stop-color="#2c89a0"
         id="stop4" />
      <stop
         offset="1"
         stop-color="#afdde9"
         id="stop6" />
    </linearGradient>
    <linearGradient
       id="c">
      <stop
         offset="0"
         stop-color="#1a1a1a"
         id="stop9" />
      <stop
         offset="1"
         stop-color="#333"
         id="stop11" />
    </linearGradient>
    <linearGradient
       id="b">
      <stop
         offset="0"
         stop-color="#fff"
         id="stop14" />
      <stop
         offset="1"
         stop-color="#fff"
         stop-opacity="0"
         id="stop16" />
    </linearGradient>
    <linearGradient
       id="a">
      <stop
         offset="0"
         id="stop19" />
      <stop
         offset="1"
         stop-opacity="0"
         id="stop21" />
    </linearGradient>
    <linearGradient
       xlink:href="#b"
       id="h"
       x1="19.37"
       y1="5.53"
       x2="19.37"
       y2="7.89"
       gradientUnits="userSpaceOnUse" />
    <linearGradient
       xlink:href="#a"
       id="i"
       x1="19.37"
       y1="31.51"
       x2="19.37"
       y2="26.37"
       gradientUnits="userSpaceOnUse" />
    <linearGradient
       xlink:href="#c"
       id="g"
       x1="19.37"
       y1="6.84"
       x2="19.37"
       y2="29.39"
       gradientUnits="userSpaceOnUse" />
    <linearGradient
       xlink:href="#d"
       id="e"
       x1="20.68"
       y1="-1.41"
       x2="28.41"
       y2="38.88"
       gradientUnits="userSpaceOnUse" />
    <linearGradient
       xlink:href="#a"
       id="f"
       gradientUnits="userSpaceOnUse"
       x1="-4.89"
       y1="-10.87"
       x2="53.48"
       y2="35.12" />
  </defs>
  <path
     d="m 24,0.35 c -5.83,0 -10.52,1.12 -13.93,3.33 -4.1,2.66 -6.27,6.9 -6.27,12.27 0,7.23 5.8,16.88 7.58,19.67 a 54.48,54.48 0 0 0 6.25,8.16 c 2.54,2.64 4.57,3.87 6.37,3.87 1.8,0 3.83,-1.23 6.37,-3.87 2,-2.08 4.22,-4.97 6.25,-8.16 C 38.4,32.83 44.2,23.18 44.2,15.95 44.2,10.58 42.04,6.34 37.94,3.68 34.52,1.47 29.84,0.35 24,0.35 Z"
     id="path31"
     style="fill:url(#e)"
     inkscape:connector-curvature="0" />
  <path
     d="m 29.26,44.71 c 0.38,-0.35 0.7,-0.5 1.1,-0.93 2,-2.08 4.23,-4.97 6.26,-8.16 0.89,-1.4 2.79,-4.5 4.46,-8.17 0.83,-1.83 1.61,-3.8 2.19,-5.77 0.51,-1.77 0.77,-3.5 0.84,-5.16 l -8.95,-8.94 -2.22,1.4 -6.54,-1.27 -5.71,0.27 -8.54,6.15 0.02,1.61 0.71,12.66 z"
     id="path33"
     style="opacity:0.55;fill:url(#f)"
     inkscape:connector-curvature="0" />
  <path
     d="m 24,0.35 c -5.83,0 -10.52,1.12 -13.93,3.33 -4.1,2.66 -6.27,6.9 -6.27,12.27 0,7.23 5.8,16.88 7.58,19.67 a 54.48,54.48 0 0 0 6.25,8.16 c 2.54,2.64 4.57,3.87 6.37,3.87 1.8,0 3.83,-1.23 6.37,-3.87 2,-2.08 4.22,-4.97 6.25,-8.16 C 38.4,32.83 44.2,23.18 44.2,15.95 44.2,10.58 42.04,6.34 37.94,3.68 34.52,1.47 29.84,0.35 24,0.35 Z m 0,0.14 c 2.11,0.09 4.12,0.27 5.88,0.7 1.16,0.27 2.25,0.62 3.26,1.03 1.01,0.42 1.94,0.9 2.8,1.46 A 12.92,12.92 0 0 1 40.6,8.8 c 0.53,1.03 0.92,2.15 1.2,3.34 0.26,1.2 0.4,2.47 0.4,3.8 0,1.82 -0.37,3.77 -0.94,5.74 a 43.19,43.19 0 0 1 -2.2,5.77 69.59,69.59 0 0 1 -4.45,8.17 54.47,54.47 0 0 1 -6.25,8.16 17.98,17.98 0 0 1 -3.46,2.93 c -0.32,0.2 -0.62,0.3 -0.91,0.39 -0.3,-0.08 -0.6,-0.2 -0.9,-0.4 -1.06,-0.63 -2.2,-1.6 -3.47,-2.92 -2,-2.08 -4.22,-4.97 -6.25,-8.16 A 69.6,69.6 0 0 1 8.91,27.45 43.19,43.19 0 0 1 6.72,21.68 20.93,20.93 0 0 1 5.79,15.95 c 0,-1.34 0.13,-2.61 0.4,-3.8 0.27,-1.2 0.67,-2.32 1.2,-3.35 a 12.92,12.92 0 0 1 4.67,-5.12 17.1,17.1 0 0 1 2.8,-1.46 c 1,-0.41 2.1,-0.76 3.26,-1.04 C 19.88,0.76 21.89,0.58 24,0.5 Z"
     id="path35"
     inkscape:connector-curvature="0"
     style="opacity:0.2" />
  <path
     d="m 14.46,6.93 a 2.3,2.3 0 0 0 -2.3,2.3 v 4.9 h 4.7 l 2.43,8 4,-13.6 2.39,8.8 3.2,-8 4.02,11.22 h 2.95 V 9.23 A 2.3,2.3 0 0 0 33.53,6.94 Z m 8.85,7.2 -4.01,13.6 -4.01,-11.99 h -3.12 v 11.04 c 0,1.27 1.02,2.29 2.29,2.29 h 19.08 a 2.3,2.3 0 0 0 2.3,-2.3 V 22.13 H 31.3 l -2.41,-8 -3.21,8 -2.38,-8 z"
     id="path37"
     style="fill:url(#g)"
     inkscape:connector-curvature="0" />
  <path
     d="m 14.46,6.93 a 2.3,2.3 0 0 0 -2.3,2.3 v 0.2 a 2.3,2.3 0 0 1 0,-0.03 2.3,2.3 0 0 1 0.07,-0.22 2.3,2.3 0 0 1 0.1,-0.2 2.3,2.3 0 0 1 0.12,-0.2 2.3,2.3 0 0 1 0.13,-0.2 A 2.3,2.3 0 0 1 12.73,8.41 2.3,2.3 0 0 1 12.9,8.26 2.3,2.3 0 0 1 13.08,8.12 2.3,2.3 0 0 1 13.28,8 2.3,2.3 0 0 1 13.48,7.9 2.3,2.3 0 0 1 13.7,7.83 2.3,2.3 0 0 1 13.92,7.77 2.3,2.3 0 0 1 14.15,7.74 2.3,2.3 0 0 1 14.38,7.73 h 19.07 a 2.3,2.3 0 0 1 0.18,0.01 2.3,2.3 0 0 1 0.23,0.03 2.3,2.3 0 0 1 0.23,0.05 2.3,2.3 0 0 1 0.21,0.07 2.3,2.3 0 0 1 0.21,0.1 2.3,2.3 0 0 1 0.2,0.11 2.3,2.3 0 0 1 0.19,0.13 2.3,2.3 0 0 1 0.17,0.15 2.3,2.3 0 0 1 0.16,0.17 2.3,2.3 0 0 1 0.14,0.19 2.3,2.3 0 0 1 0.11,0.2 2.3,2.3 0 0 1 0.1,0.2 2.3,2.3 0 0 1 0.08,0.21 2.3,2.3 0 0 1 0.06,0.23 2.3,2.3 0 0 1 0.03,0.22 2.3,2.3 0 0 1 0.02,0.23 v 10.52 h 0.08 V 9.23 A 2.3,2.3 0 0 0 33.53,6.94 Z"
     id="path39"
     style="fill:url(#h)"
     inkscape:connector-curvature="0" />
  <path
     d="m 35.84,26.09 a 2.3,2.3 0 0 1 0,0.13 2.3,2.3 0 0 1 -0.03,0.23 2.3,2.3 0 0 1 -0.05,0.22 2.3,2.3 0 0 1 -0.07,0.22 2.3,2.3 0 0 1 -0.1,0.21 2.3,2.3 0 0 1 -0.12,0.2 2.3,2.3 0 0 1 -0.13,0.18 2.3,2.3 0 0 1 -0.15,0.18 2.3,2.3 0 0 1 -0.17,0.15 2.3,2.3 0 0 1 -0.18,0.14 2.3,2.3 0 0 1 -0.2,0.12 2.3,2.3 0 0 1 -0.2,0.1 2.3,2.3 0 0 1 -0.22,0.07 2.3,2.3 0 0 1 -0.22,0.06 2.3,2.3 0 0 1 -0.23,0.03 2.3,2.3 0 0 1 -0.23,0.01 H 14.46 a 2.29,2.29 0 0 1 -2.3,-2.29 v 0.73 c 0,1.27 1.03,2.29 2.3,2.29 h 19.08 a 2.3,2.3 0 0 0 2.3,-2.3 z"
     id="path41"
     style="fill:url(#i)"
     inkscape:connector-curvature="0" />
</svg>
