<svg xmlns="http://www.w3.org/2000/svg" xmlns:xlink="http://www.w3.org/1999/xlink" viewBox="0 0 48 48"><defs><linearGradient id="b"><stop offset="0"/><stop offset="1" stop-opacity="0"/></linearGradient><linearGradient id="a"><stop offset="0" stop-color="#d40000"/><stop offset="1" stop-color="#faa"/></linearGradient><linearGradient id="c" x1="25.759" x2="24.003" y1="-3.226" y2="50.352" gradientUnits="userSpaceOnUse"><stop stop-color="#374837" offset="0"/><stop stop-color="#bcd35f" offset="1"/></linearGradient><linearGradient xlink:href="#b" id="d" x1="-5.737" y1="-10.756" x2="51.174" y2="28.348" gradientUnits="userSpaceOnUse"/></defs><path fill="url(#c)" d="M24 .35c-5.83 0-10.52 1.12-13.93 3.33-4.1 2.66-6.27 6.9-6.27 12.27 0 7.23 5.8 16.88 7.58 19.67a54.47 54.47 0 0 0 6.25 8.16c2.54 2.64 4.57 3.87 6.37 3.87 1.8 0 3.83-1.23 6.37-3.87 2-2.08 4.22-4.97 6.25-8.16 1.78-2.79 7.58-12.44 7.58-19.67 0-5.37-2.16-9.62-6.26-12.27C34.52 1.47 29.84.35 24 .35z"/><path d="M29.488 44.523c.307-.29.558-.408.881-.744 2-2.08 4.22-4.97 6.25-8.16.89-1.395 2.787-4.505 4.46-8.17.835-1.832 1.615-3.802 2.187-5.767.571-1.965.933-3.925.933-5.733 0-.42-.098-.786-.125-1.193l-7.183-7.184-15.254.444-9.87.324-.824 18.562 6.409-.238 6.232.024v5.257l-5.793.881z" opacity=".5" fill="url(#d)"/><path d="M12.75 6.886c-1.247 0-2.25.977-2.25 2.192v16.444c0 1.215 1.003 2.192 2.25 2.192h10.093V30.8h-4.306c-.606 0-1.094.516-1.094 1.157s.488 1.157 1.094 1.157h10.926c.606 0 1.094-.516 1.094-1.157 0-.64-.488-1.157-1.094-1.157h-4.306v-3.086h10.094c1.246 0 2.249-.977 2.249-2.192V9.078c0-1.215-1.003-2.192-2.25-2.192zm.064 2.314h22.372v16.2H12.814zm9.257 1.543v3.086h3.858v-3.086zm-3.085 4.628v3.086h3.857v-3.086zm6.171 0v3.086h3.857v-3.086zM15.9 20v3.086h3.857V20zm6.171 0v3.086h3.858V20zm6.172 0v3.086H32.1V20z" fill="#fff"/><path opacity=".5" d="M3.92 14.74c-.02.4-.13.78-.13 1.2 0 7.24 5.81 16.9 7.6 19.68a54.47 54.47 0 0 0 6.24 8.16c2.54 2.64 4.56 3.87 6.37 3.87 1.8 0 3.83-1.23 6.37-3.87 2-2.08 4.22-4.97 6.25-8.16 1.78-2.79 7.58-12.44 7.58-19.67 0-.43-.1-.8-.13-1.21a21.6 21.6 0 0 1-.8 4.94 43.2 43.2 0 0 1-2.2 5.77 69.59 69.59 0 0 1-4.45 8.17 54.46 54.46 0 0 1-6.25 8.16 17.98 17.98 0 0 1-3.46 2.93c-1.05.64-2 .94-2.91.94-.9 0-1.86-.3-2.9-.94-1.06-.64-2.2-1.6-3.47-2.93-2-2.08-4.22-4.97-6.25-8.16a69.6 69.6 0 0 1-4.46-8.17 43.19 43.19 0 0 1-2.19-5.77 21.6 21.6 0 0 1-.8-4.94z"/></svg>