<svg xmlns="http://www.w3.org/2000/svg" xmlns:xlink="http://www.w3.org/1999/xlink" viewBox="0 0 48 48"><defs><linearGradient id="m"><stop offset="0"/><stop offset="1" stop-opacity="0"/></linearGradient><linearGradient id="f"><stop offset="0" stop-color="#4d4d4d"/><stop offset="1" stop-color="#333"/></linearGradient><linearGradient id="b"><stop offset="0" stop-color="#939dac"/><stop offset=".24" stop-color="#dbdee3"/><stop offset=".5" stop-color="#b7bec8"/><stop offset=".79" stop-color="#dbdee3"/><stop offset="1" stop-color="#939dac"/></linearGradient><linearGradient id="a"><stop offset="0"/><stop offset="1" stop-opacity="0"/></linearGradient><linearGradient id="c"><stop offset="0" stop-color="#b3b3b3"/><stop offset="1" stop-color="#666"/></linearGradient><linearGradient id="d"><stop offset="0" stop-color="#fff" stop-opacity=".43"/><stop offset="1" stop-color="#fff" stop-opacity="0"/></linearGradient><linearGradient id="e"><stop offset="0" stop-color="#501616"/><stop stop-color="#00f" offset=".46"/><stop offset="1" stop-color="#ff0"/></linearGradient><linearGradient id="g"><stop stop-color="#4d4d4d" offset="0"/><stop stop-color="#ccc" offset="1"/></linearGradient><linearGradient gradientTransform="translate(-.01)" xlink:href="#h" id="q" x1="3.8" y1="12.17" x2="25.2" y2="12.17" gradientUnits="userSpaceOnUse"/><linearGradient id="h"><stop offset="0" stop-color="#eb572a"/><stop offset="1" stop-color="#ffd5d5"/></linearGradient><linearGradient gradientTransform="translate(-.01)" xlink:href="#i" id="p" x1="24" y1="12.17" x2="44.2" y2="12.17" gradientUnits="userSpaceOnUse"/><linearGradient id="i"><stop offset="0" stop-color="#e3f4d7"/><stop offset="1" stop-color="#79a61c"/></linearGradient><linearGradient gradientTransform="translate(-.01)" xlink:href="#j" id="o" x1="5.16" y1="35.23" x2="24" y2="35.23" gradientUnits="userSpaceOnUse"/><linearGradient id="j"><stop offset="0" stop-color="#459ee9"/><stop offset="1" stop-color="#d7eef4"/></linearGradient><linearGradient gradientTransform="translate(-.01)" xlink:href="#k" id="n" x1="22.8" y1="35.83" x2="42.39" y2="35.83" gradientUnits="userSpaceOnUse"/><linearGradient id="k"><stop offset="0" stop-color="#f4eed7"/><stop offset="1" stop-color="#ffba08"/></linearGradient><linearGradient id="l"><stop offset="0"/><stop offset="1" stop-opacity=".01"/></linearGradient><linearGradient xlink:href="#m" id="r" x1="10.29" y1="11.86" x2="47.84" y2="38.49" gradientUnits="userSpaceOnUse"/></defs><path d="M23.99.35c-5.83 0-10.52 1.12-13.93 3.33-4.1 2.66-6.27 6.9-6.27 12.27 0 7.23 5.8 16.88 7.58 19.67a54.48 54.48 0 0 0 6.25 8.16c2.54 2.64 4.57 3.87 6.37 3.87 1.8 0 3.83-1.23 6.37-3.87 2-2.08 4.22-4.97 6.25-8.16 1.78-2.79 7.58-12.44 7.58-19.67 0-5.37-2.16-9.61-6.26-12.27C34.51 1.47 29.83.35 23.99.35z" fill="#b3b3b3"/><path d="M22.8 47.26c.38.1.82.39 1.19.39.9 0 1.86-.3 2.9-.94 1.06-.64 2.2-1.61 3.47-2.93 2-2.08 4.22-4.97 6.25-8.16.89-1.4 2.79-4.5 4.46-8.17.5-1.1.88-2.29 1.3-3.45H22.8z" fill="url(#n)"/><path d="M5.15 22.8a45.88 45.88 0 0 0 1.76 4.65 69.54 69.54 0 0 0 4.46 8.17 54.48 54.48 0 0 0 3.12 4.47 54.48 54.48 0 0 0 3.13 3.69 17.94 17.94 0 0 0 3.46 2.93c1.05.63 2.01.94 2.91.94V22.8z" fill="url(#o)"/><path d="M42.38 24c.28-.78.65-1.53.88-2.32.57-1.96.93-3.92.93-5.73 0-1.34-.13-2.62-.4-3.8-.27-1.2-.67-2.32-1.2-3.35a12.9 12.9 0 0 0-4.66-5.12 17.19 17.19 0 0 0-2.8-1.45c-1.01-.42-2.1-.77-3.26-1.04a34 34 0 0 0-7.88-.84V24z" fill="url(#p)"/><path d="M25.19.48c-.43-.02-.76-.13-1.2-.13a34 34 0 0 0-7.87.84 22 22 0 0 0-3.26 1.04c-1.02.41-1.95.9-2.8 1.45A12.92 12.92 0 0 0 5.39 8.8a14.07 14.07 0 0 0-1.2 3.34 17.4 17.4 0 0 0-.4 3.8c0 1.82.36 3.78.93 5.74.23.8.6 1.54.88 2.32H25.2z" fill="url(#q)"/><path d="M30.15 43.96c.08-.08.13-.1.2-.18 2-2.08 4.23-4.97 6.26-8.16.89-1.4 2.79-4.5 4.46-8.17.42-.93.73-1.94 1.1-2.92l-7.21-7.23-2.56.14L23.95 9l-1.56 11.19L17.19 31l12.96 12.95z" fill="url(#r)" opacity=".52"/><path d="M3.91 14.74c-.02.4-.12.78-.12 1.2 0 7.24 5.8 16.9 7.58 19.68a54.47 54.47 0 0 0 6.25 8.16c2.54 2.64 4.57 3.87 6.37 3.87 1.8 0 3.83-1.23 6.37-3.87 2-2.08 4.22-4.97 6.25-8.16 1.78-2.79 7.58-12.44 7.58-19.67 0-.43-.1-.8-.12-1.21a21.6 21.6 0 0 1-.8 4.94 43.2 43.2 0 0 1-2.2 5.77 69.59 69.59 0 0 1-4.46 8.17 54.47 54.47 0 0 1-6.25 8.16 17.98 17.98 0 0 1-3.46 2.93c-1.05.64-2 .94-2.9.94-.91 0-1.87-.3-2.92-.94-1.05-.64-2.2-1.6-3.46-2.93-2-2.08-4.21-4.97-6.25-8.16a69.6 69.6 0 0 1-4.46-8.17 43.2 43.2 0 0 1-2.19-5.77 21.6 21.6 0 0 1-.8-4.94z" opacity=".5"/><path d="M23.95 9l3.42 7.26 7.58 1.04-5.5 5.71 1.35 8-6.85-3.85-6.75 3.85 1.35-8-5.5-5.6 7.58-1.15z" fill="#333"/></svg>