<?xml version="1.0" encoding="UTF-8" standalone="no"?>
<svg
   xmlns:dc="http://purl.org/dc/elements/1.1/"
   xmlns:cc="http://creativecommons.org/ns#"
   xmlns:rdf="http://www.w3.org/1999/02/22-rdf-syntax-ns#"
   xmlns:svg="http://www.w3.org/2000/svg"
   xmlns="http://www.w3.org/2000/svg"
   xmlns:xlink="http://www.w3.org/1999/xlink"
   xmlns:sodipodi="http://sodipodi.sourceforge.net/DTD/sodipodi-0.dtd"
   xmlns:inkscape="http://www.inkscape.org/namespaces/inkscape"
   viewBox="0 0 48 48"
   version="1.1"
   id="svg32"
   sodipodi:docname="wire.svg"
   inkscape:version="0.92.4 (5da689c313, 2019-01-14)">
  <sodipodi:namedview
     pagecolor="#ffffff"
     bordercolor="#666666"
     borderopacity="1"
     objecttolerance="10"
     gridtolerance="10"
     guidetolerance="10"
     inkscape:pageopacity="0"
     inkscape:pageshadow="2"
     inkscape:window-width="1112"
     inkscape:window-height="480"
     id="namedview34"
     showgrid="false"
     inkscape:zoom="4.9166667"
     inkscape:cx="2.1355932"
     inkscape:cy="24"
     inkscape:window-x="0"
     inkscape:window-y="25"
     inkscape:window-maximized="0"
     inkscape:current-layer="svg32" />
  <metadata
     id="metadata2">
    <rdf:RDF>
      <cc:Work>
        <dc:format>image/svg+xml</dc:format>
        <dc:type
           rdf:resource="http://purl.org/dc/dcmitype/StillImage" />
        <dc:title></dc:title>
      </cc:Work>
    </rdf:RDF>
  </metadata>
  <defs
     id="defs22">
    <linearGradient
       id="b">
      <stop
         offset="0"
         stop-color="#939dac"
         id="stop4" />
      <stop
         offset=".24"
         stop-color="#dbdee3"
         id="stop6" />
      <stop
         offset=".5"
         stop-color="#b7bec8"
         id="stop8" />
      <stop
         offset=".79"
         stop-color="#dbdee3"
         id="stop10" />
      <stop
         offset="1"
         stop-color="#939dac"
         id="stop12" />
    </linearGradient>
    <linearGradient
       id="a">
      <stop
         offset="0"
         id="stop15" />
      <stop
         offset="1"
         stop-opacity="0"
         id="stop17" />
    </linearGradient>
    <linearGradient
       xlink:href="#a"
       id="d"
       gradientUnits="userSpaceOnUse"
       x1="8.65"
       y1="26.92"
       x2="43.92"
       y2="26.92" />
    <linearGradient
       xlink:href="#b"
       id="c"
       x1="3.5"
       y1="24.14"
       x2="43.91"
       y2="24.14"
       gradientUnits="userSpaceOnUse" />
  </defs>
  <path
     d="M 23.71,0.5 C 17.88,0.5 13.2,1.6 9.78,3.82 5.68,6.48 3.5,10.73 3.5,16.1 c 0,7.22 5.8,16.88 7.58,19.67 a 54.47,54.47 0 0 0 6.25,8.16 c 2.54,2.64 4.57,3.87 6.37,3.87 1.8,0 3.83,-1.23 6.37,-3.87 2,-2.08 4.22,-4.98 6.25,-8.16 C 38.1,32.98 43.91,23.32 43.91,16.1 43.91,10.73 41.74,6.48 37.64,3.83 34.23,1.6 29.55,0.49 23.7,0.49 Z"
     id="path24"
     style="fill:url(#c)"
     inkscape:connector-curvature="0" />
  <path
     d="m 3.64,14.88 c -0.03,0.42 -0.13,0.79 -0.13,1.22 0,7.22 5.8,16.88 7.58,19.67 a 54.47,54.47 0 0 0 6.25,8.16 c 2.54,2.64 4.57,3.87 6.37,3.87 1.8,0 3.83,-1.23 6.37,-3.87 2,-2.08 4.22,-4.98 6.25,-8.16 1.78,-2.79 7.59,-12.45 7.59,-19.67 0,-0.43 -0.1,-0.8 -0.13,-1.22 a 21.6,21.6 0 0 1 -0.81,4.95 43.18,43.18 0 0 1 -2.19,5.77 69.59,69.59 0 0 1 -4.46,8.17 54.46,54.46 0 0 1 -6.25,8.16 18.08,18.08 0 0 1 -3.46,2.93 c -1.05,0.64 -2,0.94 -2.9,0.94 -0.91,0 -1.87,-0.3 -2.92,-0.94 a 18.08,18.08 0 0 1 -3.46,-2.93 c -2,-2.08 -4.21,-4.98 -6.25,-8.16 A 69.6,69.6 0 0 1 6.63,25.6 43.2,43.2 0 0 1 4.44,19.83 21.6,21.6 0 0 1 3.64,14.88 Z"
     id="path26"
     inkscape:connector-curvature="0"
     style="opacity:0.4" />
  <path
     d="m 26.63,46.85 c 1.04,-0.64 2.18,-1.6 3.45,-2.92 2,-2.08 4.22,-4.98 6.25,-8.16 0.89,-1.4 2.79,-4.5 4.46,-8.17 0.84,-1.84 1.62,-3.8 2.2,-5.77 0.57,-1.97 0.93,-3.93 0.93,-5.73 0,-1.34 -0.13,-2.62 -0.4,-3.81 -0.18,-0.81 -0.51,-1.54 -0.81,-2.28 L 39.68,7 39,8.78 38.42,20.06 26.87,8.5 24.44,8.04 21.6,8.14 20.73,11.41 20.39,17.77 9.66,7.04 8.7,8.46 8.65,19.49 l 0.23,6.31 1.19,4.49 z"
     id="path28"
     style="opacity:0.49000005;fill:url(#d)"
     inkscape:connector-curvature="0" />
  <path
     d="m 8.73,7 v 17.65 c 0,0 0,7.35 9,7.35 9,0 9,-7.35 9,-7.35 V 11.4 c 0,0 0,-3.41 -3,-3.41 -3,0 -3,3.41 -3,3.41 v 13.24 c 0,0 0,7.35 9,7.35 9,0 9,-7.35 9,-7.35 V 7"
     id="path30"
     inkscape:connector-curvature="0"
     style="fill:none;stroke:#313131;stroke-width:2" />
</svg>
