<?xml version="1.0" encoding="UTF-8" standalone="no"?>
<svg
   xmlns:dc="http://purl.org/dc/elements/1.1/"
   xmlns:cc="http://creativecommons.org/ns#"
   xmlns:rdf="http://www.w3.org/1999/02/22-rdf-syntax-ns#"
   xmlns:svg="http://www.w3.org/2000/svg"
   xmlns="http://www.w3.org/2000/svg"
   xmlns:xlink="http://www.w3.org/1999/xlink"
   xmlns:sodipodi="http://sodipodi.sourceforge.net/DTD/sodipodi-0.dtd"
   xmlns:inkscape="http://www.inkscape.org/namespaces/inkscape"
   width="48"
   height="48"
   version="1.1"
   id="svg306"
   sodipodi:docname="xfburn.svg"
   inkscape:version="0.92.4 (5da689c313, 2019-01-14)">
  <metadata
     id="metadata310">
    <rdf:RDF>
      <cc:Work
         rdf:about="">
        <dc:format>image/svg+xml</dc:format>
        <dc:type
           rdf:resource="http://purl.org/dc/dcmitype/StillImage" />
        <dc:title></dc:title>
      </cc:Work>
    </rdf:RDF>
  </metadata>
  <sodipodi:namedview
     pagecolor="#ffffff"
     bordercolor="#666666"
     borderopacity="1"
     objecttolerance="10"
     gridtolerance="10"
     guidetolerance="10"
     inkscape:pageopacity="0"
     inkscape:pageshadow="2"
     inkscape:window-width="1112"
     inkscape:window-height="480"
     id="namedview308"
     showgrid="false"
     inkscape:zoom="4.9166667"
     inkscape:cx="2.1355932"
     inkscape:cy="24"
     inkscape:window-x="0"
     inkscape:window-y="25"
     inkscape:window-maximized="0"
     inkscape:current-layer="svg306" />
  <defs
     id="defs236">
    <linearGradient
       id="j">
      <stop
         offset="0"
         stop-color="#a40"
         id="stop2" />
      <stop
         offset=".5"
         stop-color="#c83737"
         id="stop4" />
      <stop
         offset="1"
         stop-color="#f60"
         id="stop6" />
    </linearGradient>
    <linearGradient
       id="x">
      <stop
         offset="0"
         stop-color="#d45500"
         id="stop9" />
      <stop
         offset=".31"
         stop-color="#d45500"
         id="stop11" />
      <stop
         offset=".71"
         stop-color="#fc0"
         id="stop13" />
      <stop
         offset="1"
         stop-color="#960000"
         id="stop15" />
    </linearGradient>
    <linearGradient
       id="m">
      <stop
         offset="0"
         stop-color="#760000"
         id="stop18" />
      <stop
         offset=".15"
         stop-color="#890000"
         id="stop20" />
      <stop
         offset=".31"
         stop-color="#6d0000"
         id="stop22" />
      <stop
         offset=".48"
         stop-color="#7b0000"
         id="stop24" />
      <stop
         offset=".84"
         stop-color="#ffbc1b"
         id="stop26" />
      <stop
         offset="1"
         stop-color="#960000"
         id="stop28" />
    </linearGradient>
    <linearGradient
       id="n">
      <stop
         offset="0"
         stop-color="#760000"
         id="stop31" />
      <stop
         offset=".15"
         stop-color="#ffd42a"
         id="stop33" />
      <stop
         offset=".25"
         stop-color="#d4aa00"
         id="stop35" />
      <stop
         offset=".44"
         stop-color="#ffd42a"
         id="stop37" />
      <stop
         offset=".84"
         stop-color="#ed6c00"
         id="stop39" />
      <stop
         offset="1"
         stop-color="#960000"
         id="stop41" />
    </linearGradient>
    <linearGradient
       id="k">
      <stop
         offset="0"
         stop-color="#a40"
         id="stop44" />
      <stop
         offset=".58"
         stop-color="#ffd42a"
         id="stop46" />
      <stop
         offset="1"
         stop-color="#d45500"
         id="stop48" />
    </linearGradient>
    <linearGradient
       id="h">
      <stop
         offset="0"
         id="stop51" />
      <stop
         offset="1"
         stop-opacity="0"
         id="stop53" />
    </linearGradient>
    <linearGradient
       id="g">
      <stop
         offset="0"
         stop-color="#f60"
         id="stop56" />
      <stop
         offset="1"
         stop-color="#f60"
         stop-opacity="0"
         id="stop58" />
    </linearGradient>
    <radialGradient
       cx="26.14"
       cy="38.81"
       r="21.33"
       fx="26.14"
       fy="38.81"
       id="F"
       xlink:href="#a"
       gradientUnits="userSpaceOnUse"
       gradientTransform="matrix(0.58915,-0.95129,0.5132,0.31784,-12.35,32.06)" />
    <linearGradient
       x1="12.27"
       y1="32.42"
       x2="35.39"
       y2="14.2"
       id="a"
       gradientUnits="userSpaceOnUse">
      <stop
         offset="0"
         stop-color="#b307ff"
         stop-opacity=".82"
         id="stop62" />
      <stop
         offset="1"
         stop-color="#f0ff8b"
         stop-opacity=".64"
         id="stop64" />
      <stop
         offset="1"
         stop-color="#fff"
         stop-opacity="0"
         id="stop66" />
    </linearGradient>
    <radialGradient
       cx="37.75"
       cy="27.57"
       r="21.33"
       fx="37.75"
       fy="27.57"
       id="E"
       xlink:href="#b"
       gradientUnits="userSpaceOnUse"
       gradientTransform="matrix(0.64977,0.73348,-0.59881,0.53045,18.63,-15.33)" />
    <linearGradient
       x1="12.27"
       y1="32.42"
       x2="35.39"
       y2="14.2"
       id="b"
       gradientUnits="userSpaceOnUse">
      <stop
         offset="0"
         stop-color="#fff307"
         id="stop70" />
      <stop
         offset=".5"
         stop-color="#166eff"
         id="stop72" />
      <stop
         offset="1"
         stop-color="#fff"
         stop-opacity="0"
         id="stop74" />
    </linearGradient>
    <linearGradient
       x1="28.7"
       y1="31.49"
       x2="17.74"
       y2="18.37"
       id="D"
       xlink:href="#c"
       gradientUnits="userSpaceOnUse"
       gradientTransform="matrix(0.76563,0,0,0.76563,4.4,0.46)" />
    <linearGradient
       id="c">
      <stop
         offset="0"
         stop-color="#fff"
         id="stop78" />
      <stop
         offset="1"
         stop-color="#fff"
         stop-opacity="0"
         id="stop80" />
    </linearGradient>
    <linearGradient
       x1="21.13"
       y1="14.63"
       x2="29"
       y2="28"
       id="C"
       xlink:href="#d"
       gradientUnits="userSpaceOnUse"
       gradientTransform="matrix(0.95703,0,0,0.95703,0,-1.6)" />
    <linearGradient
       id="d">
      <stop
         offset="0"
         stop-color="#fff"
         stop-opacity=".33"
         id="stop84" />
      <stop
         offset="1"
         stop-color="#fff"
         stop-opacity=".6"
         id="stop86" />
    </linearGradient>
    <linearGradient
       x1="12.27"
       y1="32.42"
       x2="35.39"
       y2="14.2"
       id="A"
       xlink:href="#e"
       gradientUnits="userSpaceOnUse"
       gradientTransform="matrix(0.91146,0,0,0.91146,1.09,-1.53)" />
    <linearGradient
       x1="12.27"
       y1="32.42"
       x2="35.39"
       y2="14.2"
       id="e"
       gradientUnits="userSpaceOnUse">
      <stop
         offset="0"
         stop-color="#fbfbfb"
         id="stop90" />
      <stop
         offset=".5"
         stop-color="#988484"
         id="stop92" />
      <stop
         offset="1"
         stop-color="#e4e4e4"
         id="stop94" />
    </linearGradient>
    <linearGradient
       x1="15"
       y1="11.19"
       x2="32.51"
       y2="34.31"
       id="z"
       xlink:href="#f"
       gradientUnits="userSpaceOnUse"
       gradientTransform="matrix(0.91146,0,0,0.91146,1.09,-1.53)" />
    <linearGradient
       x1="15"
       y1="11.19"
       x2="32.51"
       y2="34.31"
       id="f"
       gradientUnits="userSpaceOnUse">
      <stop
         offset="0"
         stop-color="#ebebeb"
         id="stop98" />
      <stop
         offset=".5"
         stop-color="#fff"
         id="stop100" />
      <stop
         offset="1"
         stop-color="#ebebeb"
         id="stop102" />
    </linearGradient>
    <linearGradient
       xlink:href="#d"
       id="B"
       gradientUnits="userSpaceOnUse"
       gradientTransform="matrix(0.95703,0,0,0.95703,0,-1.6)"
       x1="21.13"
       y1="14.63"
       x2="29"
       y2="28" />
    <linearGradient
       xlink:href="#h"
       id="y"
       gradientUnits="userSpaceOnUse"
       x1="13.36"
       y1="5.88"
       x2="48.28"
       y2="36.56" />
    <clipPath
       id="G">
      <path
         d="M240.74-84.44c-68.43 0-123.88 55.45-123.88 123.88 0 68.43 55.46 123.94 123.88 123.94 68.43 0 123.88-55.51 123.88-123.94S309.17-84.44 240.74-84.44zm0 73.98a49.94 49.94 0 0 1 0 99.86 49.94 49.94 0 0 1 0-99.86z"
         opacity=".7"
         fill="#2b0000"
         id="path107" />
    </clipPath>
    <filter
       id="H">
      <feGaussianBlur
         stdDeviation="2.86"
         id="feGaussianBlur110" />
    </filter>
    <linearGradient
       id="p">
      <stop
         offset="0"
         id="stop113" />
      <stop
         offset="1"
         stop-color="#e50000"
         stop-opacity="0"
         id="stop115" />
    </linearGradient>
    <radialGradient
       xlink:href="#i"
       id="J"
       gradientUnits="userSpaceOnUse"
       gradientTransform="matrix(1,0,0,0.25968,0,89.16)"
       cx="96.78"
       cy="120.43"
       fx="96.9"
       fy="125.24"
       r="12.82" />
    <linearGradient
       id="i">
      <stop
         offset="0"
         stop-color="#2b0000"
         id="stop119" />
      <stop
         offset="1"
         stop-color="#2b0000"
         stop-opacity="0"
         id="stop121" />
    </linearGradient>
    <filter
       id="K"
       x="-.1"
       width="1.19"
       y="-.37"
       height="1.73">
      <feGaussianBlur
         stdDeviation="1.02"
         id="feGaussianBlur124" />
    </filter>
    <linearGradient
       id="q">
      <stop
         offset="0"
         stop-color="#760000"
         id="stop127" />
      <stop
         offset=".15"
         stop-color="#890000"
         id="stop129" />
      <stop
         offset=".31"
         stop-color="#6d0000"
         id="stop131" />
      <stop
         offset=".48"
         stop-color="#3e0000"
         id="stop133" />
      <stop
         offset=".84"
         stop-color="#ff1b1b"
         id="stop135" />
      <stop
         offset="1"
         stop-color="#960000"
         id="stop137" />
    </linearGradient>
    <linearGradient
       xlink:href="#j"
       id="ab"
       gradientUnits="userSpaceOnUse"
       gradientTransform="matrix(0.60096,0,0,0.60096,-76.6,-27.02)"
       x1="238.96"
       y1="81.9"
       x2="247.92"
       y2="88.76" />
    <linearGradient
       id="r">
      <stop
         offset="0"
         stop-color="#780000"
         id="stop141" />
      <stop
         offset=".5"
         stop-color="#b20000"
         id="stop143" />
      <stop
         offset="1"
         stop-color="#7b0000"
         id="stop145" />
    </linearGradient>
    <linearGradient
       id="s">
      <stop
         offset="0"
         stop-color="#460000"
         id="stop148" />
      <stop
         offset="1"
         stop-color="#460000"
         stop-opacity="0"
         id="stop150" />
    </linearGradient>
    <filter
       id="O">
      <feGaussianBlur
         stdDeviation=".5"
         id="feGaussianBlur153" />
    </filter>
    <linearGradient
       id="t">
      <stop
         offset="0"
         stop-color="#760000"
         id="stop156" />
      <stop
         offset=".15"
         stop-color="#a90000"
         id="stop158" />
      <stop
         offset=".25"
         stop-color="#6d0000"
         id="stop160" />
      <stop
         offset=".5"
         stop-color="#3e0000"
         id="stop162" />
      <stop
         offset=".84"
         stop-color="#ed0000"
         id="stop164" />
      <stop
         offset="1"
         stop-color="#960000"
         id="stop166" />
    </linearGradient>
    <linearGradient
       id="u">
      <stop
         offset="0"
         stop-color="#780000"
         id="stop169" />
      <stop
         offset=".58"
         stop-color="#db0000"
         id="stop171" />
      <stop
         offset="1"
         stop-color="#7b0000"
         id="stop173" />
    </linearGradient>
    <radialGradient
       xlink:href="#l"
       id="R"
       gradientUnits="userSpaceOnUse"
       gradientTransform="matrix(1.92943,0,0,3.48895,-178.02,-242.44)"
       cx="254.28"
       cy="93.91"
       fx="254.28"
       fy="93.91"
       r="21.88" />
    <linearGradient
       id="l">
      <stop
         offset="0"
         stop-color="#760000"
         id="stop177" />
      <stop
         offset=".15"
         stop-color="#a90000"
         id="stop179" />
      <stop
         offset=".31"
         stop-color="#6d0000"
         id="stop181" />
      <stop
         offset=".48"
         stop-color="#3e0000"
         id="stop183" />
      <stop
         offset=".71"
         stop-color="#ed0000"
         id="stop185" />
      <stop
         offset="1"
         stop-color="#960000"
         id="stop187" />
    </linearGradient>
    <linearGradient
       xlink:href="#m"
       id="ae"
       gradientUnits="userSpaceOnUse"
       gradientTransform="matrix(0.2497,0,0,0.2497,8.12,3.62)"
       x1="271.31"
       y1="58.6"
       x2="251.03"
       y2="58.6" />
    <linearGradient
       xlink:href="#n"
       id="af"
       gradientUnits="userSpaceOnUse"
       gradientTransform="matrix(0.2497,0,0,0.2497,8.12,3.62)"
       x1="234.78"
       y1="69.97"
       x2="268.09"
       y2="89.2" />
    <linearGradient
       id="v">
      <stop
         offset="0"
         stop-color="#760000"
         id="stop192" />
      <stop
         offset=".15"
         stop-color="#a90000"
         id="stop194" />
      <stop
         offset=".25"
         stop-color="#6d0000"
         id="stop196" />
      <stop
         offset=".44"
         stop-color="#3e0000"
         id="stop198" />
      <stop
         offset=".84"
         stop-color="#ed0000"
         id="stop200" />
      <stop
         offset="1"
         stop-color="#960000"
         id="stop202" />
    </linearGradient>
    <linearGradient
       id="w">
      <stop
         offset="0"
         stop-color="#400000"
         id="stop205" />
      <stop
         offset="1"
         stop-color="#400000"
         stop-opacity="0"
         id="stop207" />
    </linearGradient>
    <clipPath
       id="W">
      <path
         d="M82.42 91.95c-13.1 37.07 17.17 24.86 15.95 20.93-5.32 1.67-8-4.49-8-7.82 0-3.78 4.84-11.82 10.5-16.53 2.63-2.2-8.8-1.92-7.52-6.55-2.19 2.37-8.14-13-4.74-19.68-6.26 10.55.68 18.7-6.19 29.65z"
         fill="url(#linearGradient5056)"
         id="path210" />
    </clipPath>
    <filter
       id="X">
      <feGaussianBlur
         stdDeviation=".71"
         id="feGaussianBlur213" />
    </filter>
    <radialGradient
       xlink:href="#o"
       id="aa"
       gradientUnits="userSpaceOnUse"
       gradientTransform="matrix(1.32494,0,0,1.32494,-14.34,-13.81)"
       cx="239.25"
       cy="96"
       fx="241.88"
       fy="114.8"
       r="27.23" />
    <linearGradient
       id="o">
      <stop
         offset="0"
         stop-color="#ea0000"
         id="stop217" />
      <stop
         offset="1"
         stop-color="#ea0000"
         stop-opacity="0"
         id="stop219" />
    </linearGradient>
    <linearGradient
       xlink:href="#p"
       id="I"
       gradientUnits="userSpaceOnUse"
       gradientTransform="matrix(1.92943,0,0,1.92943,-178.02,-101.37)"
       x1="272.37"
       y1="76.58"
       x2="250.72"
       y2="112.01" />
    <linearGradient
       xlink:href="#q"
       id="L"
       gradientUnits="userSpaceOnUse"
       gradientTransform="matrix(4.64371,0,0,4.64371,-832.6,-338.15)"
       x1="238.96"
       y1="81.9"
       x2="244.73"
       y2="78.93" />
    <linearGradient
       xlink:href="#r"
       id="M"
       gradientUnits="userSpaceOnUse"
       gradientTransform="matrix(4.64371,0,0,4.64371,-832.6,-338.15)"
       x1="238.96"
       y1="81.9"
       x2="243.29"
       y2="81.9" />
    <linearGradient
       xlink:href="#s"
       id="N"
       gradientUnits="userSpaceOnUse"
       x1="313.76"
       y1="129.66"
       x2="313.76"
       y2="113.75" />
    <linearGradient
       xlink:href="#t"
       id="P"
       gradientUnits="userSpaceOnUse"
       gradientTransform="matrix(1.92943,0,0,1.92943,-178.02,-101.37)"
       x1="251.95"
       y1="68.44"
       x2="254.26"
       y2="43.22" />
    <linearGradient
       xlink:href="#u"
       id="Q"
       gradientUnits="userSpaceOnUse"
       gradientTransform="matrix(1.92943,0,0,1.92943,-178.02,-101.37)"
       x1="229.15"
       y1="107.7"
       x2="273.24"
       y2="79.29" />
    <linearGradient
       xlink:href="#q"
       id="S"
       gradientUnits="userSpaceOnUse"
       gradientTransform="matrix(1.92943,0,0,1.92943,-178.02,-101.37)"
       x1="271.31"
       y1="58.6"
       x2="251.03"
       y2="58.6" />
    <linearGradient
       xlink:href="#v"
       id="T"
       gradientUnits="userSpaceOnUse"
       gradientTransform="matrix(1.92943,0,0,1.92943,-178.02,-101.37)"
       x1="234.78"
       y1="69.97"
       x2="268.09"
       y2="89.2" />
    <linearGradient
       xlink:href="#w"
       id="U"
       gradientUnits="userSpaceOnUse"
       gradientTransform="matrix(1.92943,0,0,1.92943,-178.02,-101.37)"
       x1="246.4"
       y1="129.91"
       x2="246.4"
       y2="114.07" />
    <linearGradient
       xlink:href="#u"
       id="V"
       gradientUnits="userSpaceOnUse"
       gradientTransform="matrix(1.92943,0,0,1.92943,-178.02,-101.37)"
       x1="229.15"
       y1="107.7"
       x2="273.24"
       y2="79.29" />
    <linearGradient
       xlink:href="#v"
       id="Y"
       gradientUnits="userSpaceOnUse"
       gradientTransform="matrix(1.92943,0,0,1.92943,-178.02,-101.37)"
       x1="234.78"
       y1="69.97"
       x2="268.09"
       y2="89.2" />
    <linearGradient
       xlink:href="#w"
       id="Z"
       gradientUnits="userSpaceOnUse"
       gradientTransform="matrix(1.92943,0,0,1.92943,-178.02,-101.37)"
       x1="246.4"
       y1="129.91"
       x2="246.4"
       y2="114.07" />
    <linearGradient
       xlink:href="#x"
       id="ac"
       x1="26.58"
       y1="33.6"
       x2="37.07"
       y2="31.73"
       gradientUnits="userSpaceOnUse"
       gradientTransform="translate(40)" />
    <linearGradient
       xlink:href="#k"
       id="ad"
       gradientUnits="userSpaceOnUse"
       gradientTransform="matrix(0.2497,0,0,0.2497,8.12,3.62)"
       x1="229.15"
       y1="107.7"
       x2="273.24"
       y2="79.29" />
  </defs>
  <path
     d="m 24,0.35 c -5.83,0 -10.52,1.12 -13.93,3.33 -4.1,2.66 -6.27,6.9 -6.27,12.27 0,7.23 5.8,16.88 7.58,19.67 a 54.48,54.48 0 0 0 6.25,8.16 c 2.54,2.64 4.57,3.87 6.37,3.87 1.8,0 3.83,-1.23 6.37,-3.87 2,-2.08 4.22,-4.97 6.25,-8.16 C 38.4,32.83 44.2,23.18 44.2,15.95 44.2,10.58 42.04,6.34 37.94,3.68 34.52,1.47 29.84,0.35 24,0.35 Z"
     id="path238"
     inkscape:connector-curvature="0"
     style="fill:#939dac" />
  <path
     d="m 31.75,41.98 a 54.55,54.55 0 0 0 4.87,-6.36 c 0.89,-1.4 2.78,-4.5 4.46,-8.17 a 43.2,43.2 0 0 0 2.19,-5.77 21,21 0 0 0 0.93,-5.73 c 0,-0.56 -0.12,-1.05 -0.16,-1.58 l -13.92,-9.2 -7.16,3.02 -7.34,9.22 -1.88,15.25 z"
     id="path240"
     style="opacity:0.5;fill:url(#y)"
     inkscape:connector-curvature="0" />
  <path
     d="m 3.93,14.74 c -0.03,0.4 -0.13,0.78 -0.13,1.2 0,7.24 5.8,16.9 7.58,19.68 a 54.48,54.48 0 0 0 6.25,8.16 c 2.54,2.64 4.57,3.87 6.37,3.87 1.8,0 3.83,-1.23 6.37,-3.87 2,-2.08 4.22,-4.97 6.25,-8.16 1.78,-2.79 7.58,-12.44 7.58,-19.67 0,-0.43 -0.1,-0.8 -0.13,-1.21 a 21.6,21.6 0 0 1 -0.8,4.94 43.2,43.2 0 0 1 -2.2,5.77 69.59,69.59 0 0 1 -4.45,8.17 54.47,54.47 0 0 1 -6.25,8.16 17.98,17.98 0 0 1 -3.46,2.93 c -1.05,0.64 -2,0.94 -2.91,0.94 -0.9,0 -1.86,-0.3 -2.9,-0.94 -1.06,-0.64 -2.2,-1.6 -3.47,-2.93 -2,-2.08 -4.22,-4.97 -6.25,-8.16 -0.89,-1.4 -2.78,-4.5 -4.46,-8.17 A 43.2,43.2 0 0 1 4.73,19.68 21.6,21.6 0 0 1 3.93,14.74 Z"
     id="path242"
     inkscape:connector-curvature="0"
     style="opacity:0.2;fill:#1c1f24" />
  <path
     d="M 22.96,3.58 A 15.9,15.9 0 0 0 7.01,19.53 c 0,8.84 7.11,15.95 15.95,15.95 A 15.9,15.9 0 0 0 38.92,19.53 C 38.92,10.69 31.81,3.58 22.96,3.58 Z m 0,19.78 c -2.1,0 -3.82,-1.73 -3.82,-3.83 0,-2.1 1.73,-3.83 3.82,-3.83 2.1,0 3.83,1.73 3.83,3.83 0,2.1 -1.73,3.83 -3.83,3.83 z"
     id="path244"
     style="fill:url(#z)"
     inkscape:connector-curvature="0" />
  <path
     d="M 22.96,3.58 A 15.9,15.9 0 0 0 7.01,19.53 c 0,8.84 7.11,15.95 15.95,15.95 A 15.9,15.9 0 0 0 38.92,19.53 C 38.92,10.69 31.81,3.58 22.96,3.58 Z m 0,19.78 c -2.1,0 -3.82,-1.73 -3.82,-3.83 0,-2.1 1.73,-3.83 3.82,-3.83 2.1,0 3.83,1.73 3.83,3.83 0,2.1 -1.73,3.83 -3.83,3.83 z"
     id="path246"
     style="fill:url(#A)"
     inkscape:connector-curvature="0" />
  <path
     d="m 22.96,11.8 a 7.74,7.74 0 1 0 0.01,15.47 7.74,7.74 0 0 0 0,-15.48 z m 0,11.95 a 4.25,4.25 0 0 1 -4.21,-4.22 c 0,-2.31 1.9,-4.22 4.21,-4.22 2.32,0 4.22,1.9 4.22,4.22 0,2.31 -1.9,4.22 -4.22,4.22 z"
     id="path248"
     inkscape:connector-curvature="0"
     style="opacity:0.11000001" />
  <path
     d="m 27.23,4.73 -2.75,10.71 a 3.4,3.4 0 0 1 2.02,1.5 l 9.48,-5.78 A 14.46,14.46 0 0 0 27.23,4.73 Z"
     id="path250"
     style="fill:url(#B)"
     inkscape:connector-curvature="0" />
  <path
     d="M 17.58,33.9 21.2,23.45 a 3.4,3.4 0 0 1 -1.89,-1.67 l -9.93,4.99 a 14.46,14.46 0 0 0 8.2,7.13 z"
     id="path252"
     style="fill:url(#C)"
     inkscape:connector-curvature="0" />
  <path
     style="overflow:visible;opacity:0.67000002;fill:none;stroke:url(#D);stroke-width:0.70999998;marker:none"
     d="m 27.67,19.54 a 4.67,4.67 0 1 1 -9.34,0 4.67,4.67 0 1 1 9.34,0 z"
     overflow="visible"
     id="path254"
     inkscape:connector-curvature="0" />
  <path
     d="M 22.96,3.58 A 15.9,15.9 0 0 0 7.01,19.53 c 0,8.84 7.11,15.95 15.95,15.95 A 15.9,15.9 0 0 0 38.92,19.53 C 38.92,10.69 31.81,3.58 22.96,3.58 Z m 0,19.78 c -2.1,0 -3.82,-1.73 -3.82,-3.83 0,-2.1 1.73,-3.83 3.82,-3.83 2.1,0 3.83,1.73 3.83,3.83 0,2.1 -1.73,3.83 -3.83,3.83 z"
     id="path256"
     style="opacity:0.11000001;fill:url(#E)"
     inkscape:connector-curvature="0" />
  <path
     d="M 22.96,3.58 A 15.9,15.9 0 0 0 7.01,19.53 c 0,8.84 7.11,15.95 15.95,15.95 A 15.9,15.9 0 0 0 38.92,19.53 C 38.92,10.69 31.81,3.58 22.96,3.58 Z m 0,19.78 c -2.1,0 -3.82,-1.73 -3.82,-3.83 0,-2.1 1.73,-3.83 3.82,-3.83 2.1,0 3.83,1.73 3.83,3.83 0,2.1 -1.73,3.83 -3.83,3.83 z"
     id="path258"
     style="opacity:0.1;fill:url(#F)"
     inkscape:connector-curvature="0" />
  <g
     id="g304">
    <g
       clip-path="url(#G)"
       transform="matrix(0.12941,0,0,0.12941,-10.17,14.88)"
       overflow="visible"
       id="g292"
       style="overflow:visible;opacity:0.31000001;filter:url(#H)">
      <path
         d="m 346.3,42.57 c 8.2,15.25 -29.56,71.63 -68.8,97.42 l 25.15,9.46 c 35.12,-25.47 23.8,-59.82 42.51,-75.48 0.47,-25.96 1.49,-18.65 1.13,-31.4 z"
         id="path260"
         style="fill:url(#I)"
         inkscape:connector-curvature="0" />
      <ellipse
         ry="3.3299999"
         rx="12.82"
         cy="120.43"
         cx="96.779999"
         transform="matrix(2.84889,0,0,2.84889,26.75,-196.55)"
         id="ellipse262"
         style="fill:url(#J);filter:url(#K)" />
      <path
         d="m 272.9,81.93 c 10.33,-2.56 17.28,-5.76 19.12,-12.96 15.3,-25.69 -7.87,-47.25 -0.02,-62.62 -10.65,18.2 -2.5,49.12 -19.1,75.58 z"
         id="path264"
         style="fill:url(#L)"
         inkscape:connector-curvature="0" />
      <path
         d="m 277.07,77.97 c -31.65,89.54 41.47,60.04 38.51,50.56 -12.84,4.02 -19.4,-6.34 -19.27,-17.7 0.14,-12.3 12.63,-29.98 25.3,-41.13 6.21,-5.48 -21.26,-4.63 -18.14,-15.82 C 298.17,59.6 283.8,22.46 292,6.35 c -15.1,25.49 1.66,45.16 -14.93,71.62 z"
         id="path266"
         style="fill:url(#M)"
         inkscape:connector-curvature="0" />
      <path
         transform="matrix(1.92943,0,0,1.92943,-295.43,-100.75)"
         d="m 326.55,27.23 c -9.75,10.93 -12.32,22.02 -11.3,26.93 2.93,13.93 -1.16,22.36 -8.78,29.3 -8.05,6.58 -16.14,13.3 -16.47,23.79 -0.02,0.72 0,1.42 0.03,2.13 l 0.03,0.4 c 0.04,0.66 0.1,1.32 0.19,1.97 v 0.1 c 0.1,0.7 0.2,1.38 0.34,2.06 l 0.1,0.3 a 23.9,23.9 0 0 0 2.47,6.35 c 0.03,0.07 0.08,0.12 0.12,0.19 l 0.03,0.06 0.07,0.13 c 0.16,0.26 0.32,0.52 0.5,0.78 0.2,0.32 0.42,0.6 0.65,0.9 l 0.53,0.7 0.03,0.02 0.13,0.16 0.56,0.66 0.1,0.09 0.25,0.28 a 18.22,18.22 0 0 0 2.46,2.13 c 0.02,0.01 0.05,0.01 0.07,0.03 l 0.22,0.19 0.06,0.03 c 0.27,0.18 0.53,0.36 0.81,0.53 0.22,0.13 0.46,0.25 0.69,0.37 l 0.06,0.07 c 0.09,0.04 0.2,0.07 0.28,0.12 l 0.38,0.19 0.09,0.06 c 0.3,0.15 0.62,0.28 0.94,0.4 0.38,0.16 0.76,0.31 1.15,0.44 l 0.41,0.13 c 0.49,0.15 1,0.27 1.5,0.37 l 0.1,0.04 0.12,0.03 0.37,0.06 1.04,0.16 H 307 l 0.16,0.03 0.46,0.03 c 0.3,0.02 0.58,0.05 0.88,0.06 h 1.37 c 0.67,-0.02 1.3,-0.07 1.94,-0.12 l 1.31,-0.16 0.54,-0.06 c 0.46,-0.07 0.92,-0.16 1.37,-0.25 l 0.38,-0.07 0.4,-0.09 c 0.44,-0.1 0.86,-0.23 1.28,-0.34 0.36,-0.1 0.72,-0.2 1.07,-0.32 l 0.43,-0.15 c 0.04,-0.02 0.09,-0.02 0.13,-0.03 l 0.22,-0.1 c 0.41,-0.15 0.82,-0.3 1.22,-0.47 l 0.28,-0.12 0.56,-0.25 0.47,-0.22 0.25,-0.12 0.22,-0.13 a 23.5,23.5 0 0 0 2.5,-1.5 l 0.34,-0.25 a 23.12,23.12 0 0 0 3.25,-2.81 l 0.13,-0.16 0.25,-0.25 c 0.52,-0.56 1,-1.17 1.46,-1.78 l 0.1,-0.1 c 0.26,-0.34 0.5,-0.7 0.75,-1.06 l 0.6,-0.93 c 0.05,-0.1 0.12,-0.19 0.18,-0.28 0.04,-0.07 0.09,-0.13 0.12,-0.2 0.03,-0.03 0.04,-0.08 0.07,-0.12 l 0.56,-0.97 0.22,-0.4 0.34,-0.72 0.1,-0.19 0.25,-0.53 0.37,-0.81 0.16,-0.35 0.12,-0.3 0.28,-0.76 0.16,-0.44 0.12,-0.34 0.22,-0.66 0.32,-0.93 0.15,-0.53 c 0.1,-0.35 0.2,-0.72 0.28,-1.07 l 0.13,-0.47 0.19,-0.78 0.09,-0.4 0.06,-0.35 c 0.1,-0.44 0.2,-0.89 0.28,-1.34 0.02,-0.07 0.02,-0.15 0.03,-0.22 0.1,-0.5 0.18,-1 0.25,-1.5 v -0.1 c 0.21,-1.45 0.36,-2.93 0.44,-4.43 0.01,-0.16 0.03,-0.31 0.03,-0.47 v -0.31 -0.6 a 61.6,61.6 0 0 0 0,-4.84 c -0.02,-0.61 -0.05,-1.23 -0.09,-1.84 -0.06,-0.55 -0.14,-1.1 -0.22,-1.66 -0.01,-0.1 -0.05,-0.2 -0.06,-0.31 l -0.22,-1.38 -0.1,-0.43 -0.02,-0.2 a 68.97,68.97 0 0 0 -1.35,-5.71 l -0.12,-0.47 -0.04,-0.1 c -0.07,-0.26 -0.17,-0.54 -0.25,-0.8 l -0.06,-0.26 -0.22,-0.75 -0.15,-0.46 c -0.11,-0.35 -0.2,-0.7 -0.32,-1.04 l -0.4,-1.21 c -0.2,-0.62 -0.41,-1.24 -0.63,-1.85 l -0.09,-0.31 c -0.2,-0.58 -0.44,-1.15 -0.66,-1.72 a 125.05,125.05 0 0 0 -2.75,-6.75 l -0.4,-0.97 c -0.13,-0.29 -0.28,-0.56 -0.4,-0.84 v -0.03 l -0.92,-1.94 -0.3,-0.63 c -0.12,-0.22 -0.21,-0.44 -0.32,-0.65 l -0.66,-1.28 c -0.4,-0.81 -0.8,-1.57 -1.18,-2.28 -0.34,-0.62 -0.63,-1.19 -0.94,-1.72 l -0.16,-0.25 A 48.6,48.6 0 0 0 322,52.06 c -0.05,-0.07 -0.1,-0.18 -0.16,-0.25 l -0.28,-0.43 a 66.75,66.75 0 0 1 -1.31,-10.97 z"
         id="path268"
         style="fill:url(#N);filter:url(#O)"
         inkscape:connector-curvature="0" />
      <path
         d="m 296.62,84.58 c 6.15,-22.54 23.78,-39.43 23.39,-63.34 -0.2,-12.13 -3.8,-49.07 14.61,-69.2 -15.66,22.98 -4.95,59.44 4.92,73.6 z"
         id="path270"
         style="fill:url(#P)"
         inkscape:connector-curvature="0" />
      <path
         d="m 346.3,42.57 c 8.2,15.25 -29.56,71.63 -68.8,97.42 l 25.15,9.46 c 35.12,-25.47 52.11,-76.2 49.3,-87.76 -0.81,-2.93 -2.68,-11 -5.66,-19.12 z"
         id="path272"
         style="fill:url(#Q)"
         inkscape:connector-curvature="0" />
      <path
         d="m 354.8,82.16 c 0,28.1 -29.9,50.9 -66.8,50.9 -6.1,0 -12,-0.65 -17.6,-1.82 6.48,11.3 17.79,18.71 32.25,18.21 37.5,-1.29 52.37,-32.41 52.16,-67.29 z"
         id="path274"
         style="fill:url(#R)"
         inkscape:connector-curvature="0" />
      <path
         d="m 308.96,54.78 c 16.18,-13.57 13.35,-17.8 7.95,-37.9 -2.63,-9.79 -1.7,-43.99 17.71,-64.85 -9.65,12.67 -13.95,38.9 -9.91,44.96 a 129.1,129.1 0 0 1 2.56,3.99 l 5.65,24.73 -23.96,29.07"
         id="path276"
         style="fill:url(#S)"
         inkscape:connector-curvature="0" />
      <path
         d="m 325.32,-26.56 c -5.32,19.96 -0.56,24.92 0.44,27.75 17.85,50.24 -60.03,59.04 -61.46,104.37 -0.53,16.93 6.87,31.83 19.72,39.13 -8.7,-5.28 -13.72,-27.97 -0.12,-43.96 13.6,-15.98 67.84,-40.66 55.35,-76.5 -7,-15.86 -19.26,-30.71 -13.93,-50.79 z"
         id="path278"
         style="fill:url(#T)"
         inkscape:connector-curvature="0" />
      <path
         d="m 354.8,82.16 c 0,28.1 -29.9,50.9 -66.8,50.9 -6.1,0 -12,-0.65 -17.6,-1.82 6.48,11.3 17.79,18.71 32.25,18.21 37.5,-1.29 52.37,-32.41 52.16,-67.29 z"
         id="path280"
         style="fill:url(#U)"
         inkscape:connector-curvature="0" />
      <path
         d="m 346.3,42.57 c 8.2,15.25 -29.56,71.63 -68.8,97.42 l 25.15,9.46 c 35.12,-25.47 52.11,-76.2 49.3,-87.76 -0.81,-2.93 -2.68,-11 -5.66,-19.12 z"
         id="path282"
         style="fill:url(#V)"
         inkscape:connector-curvature="0" />
      <path
         clip-path="url(#W)"
         transform="matrix(2.41538,0,0,2.41538,77.98,-144.13)"
         d="m 81.56,114.81 c -3,-14.86 22.82,-23.45 19.53,-26.5 l -0.97,-0.62 -20.32,13.56 z"
         id="path284"
         inkscape:connector-curvature="0"
         style="opacity:0.7;filter:url(#X)" />
      <path
         d="M 325.32,-26.56 C 320,-6.6 322.72,2 323.73,4.81 c 17.85,50.25 -58,55.42 -59.43,100.75 -0.53,16.93 6.87,31.83 19.72,39.13 -8.7,-5.28 -13.72,-27.97 -0.12,-43.96 13.6,-15.98 67.84,-40.66 55.35,-76.5 -7,-15.86 -19.26,-30.71 -13.93,-50.79 z"
         id="path286"
         style="fill:url(#Y)"
         inkscape:connector-curvature="0" />
      <path
         d="m 354.8,82.16 c 0,28.1 -29.9,50.9 -66.8,50.9 -6.1,0 -12,-0.65 -17.6,-1.82 6.48,11.3 17.79,18.71 32.25,18.21 37.5,-1.29 52.37,-32.41 52.16,-67.29 z"
         id="path288"
         style="fill:url(#Z)"
         inkscape:connector-curvature="0" />
      <path
         d="m 302.61,77.33 c -19.92,0 -36,16.16 -36,36.08 a 36.02,36.02 0 0 0 36,36.08 c 1.55,-0.06 3.06,-0.23 4.53,-0.38 a 35.98,35.98 0 0 0 31.48,-33.82 c -3.59,3.18 -5.84,5.05 -10.34,7.47 4.5,-6.56 7.95,-12.3 11.03,-17.96 -1.84,-6.8 -5.29,-11.8 -10.38,-16.38 -7.7,12.25 -19.25,23.64 -29.8,34.35 a 26.92,26.92 0 0 1 -2.86,-11.93 c 0.1,-9.35 7.35,-21.82 16.38,-32.15 a 36.5,36.5 0 0 0 -10.04,-1.36 z"
         id="path290"
         style="fill:url(#aa)"
         inkscape:connector-curvature="0" />
    </g>
    <path
       d="m 67.01,26.83 c -4.1,11.59 5.37,7.77 4.99,6.54 -1.67,0.52 -2.51,-0.82 -2.5,-2.29 0.02,-1.6 1.64,-3.88 3.28,-5.32 0.8,-0.71 -2.75,-0.6 -2.35,-2.05 -0.69,0.74 -2.55,-4.07 -1.48,-6.15 -1.96,3.3 0.21,5.84 -1.94,9.27 z"
       transform="translate(-40)"
       id="path294"
       style="fill:url(#ab)"
       inkscape:connector-curvature="0" />
    <path
       d="m 77.07,27.37 c 0,3.64 -4.83,7.6 -9.6,7.6 -0.79,0 -0.6,-1.1 -1.32,-1.25 a 4.52,4.52 0 0 0 4.17,2.36 c 4.86,-0.17 6.78,-4.2 6.75,-8.7 z"
       transform="translate(-40)"
       id="path296"
       style="fill:url(#ac)"
       inkscape:connector-curvature="0" />
    <path
       d="m 75.97,22.25 c 1.62,4.19 -3.76,9.5 -8.9,12.6 0.34,0.35 1.81,1.52 3.25,1.23 4.57,-3.24 7.2,-8.5 6.38,-11.36 -0.1,-0.38 -0.34,-1.42 -0.73,-2.47 z"
       transform="translate(-40)"
       id="path298"
       style="fill:url(#ad)"
       inkscape:connector-curvature="0" />
    <path
       d="m 71.14,23.83 c 2.1,-1.76 1.73,-2.3 1.03,-4.9 -0.34,-1.27 -0.22,-5.7 2.3,-8.4 -1.26,1.64 -1.81,5.03 -1.3,5.82 0.13,0.17 0.24,0.35 0.34,0.51 l 0.73,3.2 -3.1,3.77"
       transform="translate(-40)"
       id="path300"
       style="fill:url(#ae)"
       inkscape:connector-curvature="0" />
    <path
       d="m 73.26,13.3 c -0.7,2.58 -0.34,3.7 -0.2,4.06 2.3,6.5 -7.51,7.17 -7.7,13.04 -0.07,2.19 0.89,4.12 2.55,5.06 -1.12,-0.68 -1.77,-3.62 -0.01,-5.69 1.76,-2.06 8.78,-5.26 7.16,-9.9 -0.9,-2.05 -2.5,-3.97 -1.8,-6.57 z"
       transform="translate(-40)"
       id="path302"
       style="fill:url(#af)"
       inkscape:connector-curvature="0" />
  </g>
</svg>
