<svg xmlns="http://www.w3.org/2000/svg" xmlns:xlink="http://www.w3.org/1999/xlink" width="48" height="48"><defs><linearGradient id="b"><stop offset="0" stop-color="#fff"/><stop offset=".656" stop-color="#ccc"/><stop offset="1" stop-color="#4d4d4d"/></linearGradient><linearGradient id="a"><stop offset="0"/><stop offset="1" stop-opacity="0"/></linearGradient><radialGradient xlink:href="#b" id="c" cx="23.705" cy="24.145" fx="23.705" fy="24.145" r="20.205" gradientTransform="matrix(1.38151 .01033 -.01212 1.6201 -8.751 -15.217)" gradientUnits="userSpaceOnUse"/></defs><path d="M23.71.5C17.88.5 13.2 1.6 9.78 3.82 5.68 6.48 3.5 10.73 3.5 16.1c0 7.22 5.8 16.88 7.58 19.67a54.48 54.48 0 0 0 6.25 8.16c2.54 2.64 4.57 3.87 6.37 3.87 1.8 0 3.83-1.23 6.37-3.87 2-2.08 4.22-4.98 6.25-8.16 1.78-2.79 7.59-12.45 7.59-19.67 0-5.37-2.17-9.62-6.27-12.27C34.24 1.6 29.55.49 23.7.49z" fill="url(#c)"/><path d="M24 9.215A10.778 10.778 0 0 1 34.785 20 10.778 10.778 0 0 1 24 30.785 10.778 10.778 0 0 1 13.215 20 10.778 10.778 0 0 1 24 9.215z" fill="#37abc8"/><path d="M24 14.607c2.966 0 5.392 2.427 5.392 5.393 0 2.966-2.426 5.392-5.392 5.392A5.39 5.39 0 0 1 18.608 20 5.39 5.39 0 0 1 24 14.607z" fill="#374845"/><path d="M24.899 24.494c-2.966 0-5.393-2.427-5.393-5.393a5.34 5.34 0 0 1 1.169-3.325A5.367 5.367 0 0 0 18.608 20c0 2.966 2.426 5.392 5.392 5.392a5.368 5.368 0 0 0 4.224-2.067c-.899.75-2.067 1.169-3.325 1.169z" fill="#1c2422"/><path d="M25.498 28.987a10.778 10.778 0 0 1-10.785-10.785c0-2.187.659-4.254 1.797-5.961-2.037 1.977-3.295 4.703-3.295 7.759A10.778 10.778 0 0 0 24 30.785c3.745 0 7.07-1.917 8.988-4.823-1.948 1.857-4.584 3.025-7.49 3.025z" fill="#2c89a0"/><path d="M21.861.543c-.266.012-.493.063-.754.08-.365.783-.74 1.977-.853 4.031-.013.228.108.428.267.446.16.018.3-.152.313-.38.026-.465.067-.87.115-1.247l.012.007c.1.075.244.206.4.426.312.44.676 1.245.79 2.678a.29.29 0 0 0 .578-.045c-.12-1.512-.51-2.426-.893-2.967-.375-.53-.731-.69-.787-.71.162-.914.374-1.557.572-1.956.094-.188.162-.257.24-.363zm9.034 5.275c-1.496.008-2.876.848-2.9.858a.325.325 0 0 0 .334.557l.009-.008c.13-.08 1.387-.765 2.557-.758.44 0 .86.092 1.222.324 1.175.75 2.18 1.81 3.149 2.961l-1.711.385a.324.324 0 1 0 .14.633l2.034-.454c.176.216.353.429.529.647.396.481 1.067.842 1.863 1.17 2.14.868 4.914 1.327 5.525 1.426-.03-.223-.033-.459-.072-.676a34.228 34.228 0 0 1-3.347-.733c-.76-.21-1.515-.46-2.137-.736-.622-.272-1.11-.584-1.328-.86-.212-.261-.427-.522-.64-.783a.262.262 0 0 0-.01-.013c-1.088-1.324-2.229-2.605-3.645-3.514-.492-.315-1.044-.426-1.572-.426zM8.68 7.746a.288.288 0 0 0-.278.21 10.622 10.622 0 0 1-4.584 6.089l-.134.084c-.025.243-.064.478-.079.726l.518-.322a11.199 11.199 0 0 0 3.602-3.627 5.718 5.718 0 0 0 3.914.864l1.976-.282a.288.288 0 1 0-.082-.57l-1.974.281a5.149 5.149 0 0 1-3.555-.795c.36-.66.657-1.354.88-2.082h2.675a.288.288 0 1 0 0-.576h-2.88zm2.832 14.356v.002l-2.2.21-.17.059-3.431 2.15c-.064.04-.14-.027-.209-.003.097.254.187.505.289.757.11-.04.232-.027.334-.091l3.354-2.102 2.107-.203a.392.392 0 0 0-.074-.78zm27.074 1.212a1.757 1.757 0 0 0-1.258.768l-2.207 3.283-1.84 1.047a.39.39 0 1 0 .383.68l1.922-1.09.133-.123 2.258-3.361a.975.975 0 0 1 .982-.416l2.887.523c.096-.25.19-.493.281-.744l-3.03-.549a1.754 1.754 0 0 0-.511-.018zM15.447 30.06a.396.396 0 0 0-.154.025c-.06.021-.56.236-1.074.965-.51.72-1.026 1.936-1.194 3.928a9.356 9.356 0 0 0-.718 1.685c-.095.298-.078.304-.135.537a54.48 54.48 0 0 0 .59.844c.096-.462.329-1.471.779-2.39.233-.479.52-.918.84-1.22.324-.303.658-.467 1.053-.468 1.215-.002 2.43-.198 3.382-.62.476-.211.89-.48 1.198-.831.307-.349.5-.794.498-1.284a.39.39 0 1 0-.782 0c-.001.291-.099.53-.304.768-.306.354-.876.666-1.588.871-.711.208-1.559.315-2.404.315-.567-.002-1.05.23-1.45.564.223-1.104.566-1.813.873-2.248.211-.297.403-.472.538-.572l.152-.1.027-.014.004-.002.002-.001a.39.39 0 0 0-.133-.752zm13.967 1.105a.392.392 0 0 0-.21.691c.222.186.345.415.398.725.079.46-.044 1.097-.338 1.777-.292.68-.748 1.404-1.285 2.057-.462.558-.556 1.254-.461 1.908.142.989.67 1.964 1.154 2.715.485.75.936 1.266.943 1.276l.074.064.95.648c.155-.169.317-.443.474-.62l-.94-.641c-.015-.018-.03-.04-.091-.114-.277-.34-.964-1.235-1.404-2.205-.221-.483-.377-.984-.407-1.424-.027-.443.06-.806.31-1.11.771-.94 1.39-2.002 1.671-3.005.139-.502.196-.992.121-1.453a1.925 1.925 0 0 0-.674-1.201.388.388 0 0 0-.285-.088z" fill="#c83737"/><path d="M23.71.35C17.88.35 13.2 1.47 9.78 3.68c-4.1 2.66-6.27 6.9-6.27 12.27 0 7.23 5.8 16.89 7.58 19.68a54.48 54.48 0 0 0 6.25 8.15c2.54 2.65 4.57 3.88 6.37 3.88 1.8 0 3.83-1.23 6.37-3.88 2-2.07 4.22-4.97 6.25-8.15 1.78-2.8 7.59-12.45 7.59-19.68 0-5.37-2.17-9.61-6.27-12.27C34.24 1.47 29.55.35 23.7.35zm0 .14c2.12.09 4.12.28 5.88.7 1.16.27 2.25.62 3.26 1.04 1.01.41 1.95.9 2.8 1.45a12.92 12.92 0 0 1 4.67 5.12 14.1 14.1 0 0 1 1.2 3.34c.26 1.2.4 2.47.4 3.81 0 1.81-.37 3.77-.94 5.73a43.19 43.19 0 0 1-2.19 5.78 69.59 69.59 0 0 1-4.46 8.17 54.47 54.47 0 0 1-6.25 8.15 17.98 17.98 0 0 1-3.46 2.93c-.32.2-.62.3-.9.4-.3-.1-.6-.2-.92-.4a17.72 17.72 0 0 1-3.46-2.93 54.5 54.5 0 0 1-6.25-8.15 69.6 69.6 0 0 1-4.46-8.17 43.19 43.19 0 0 1-2.19-5.78 20.93 20.93 0 0 1-.93-5.73c0-1.34.13-2.61.4-3.8.27-1.2.67-2.32 1.2-3.35a12.92 12.92 0 0 1 4.67-5.12 17.1 17.1 0 0 1 2.8-1.45c1-.42 2.1-.77 3.26-1.04C19.59.77 21.6.58 23.7.49z" opacity=".2"/><path d="M27.596 13.408c-.957 0-1.783.572-2.166 1.387l-.022-.008c-.15.3-.209.66-.209 1.02a2.403 2.403 0 0 0 2.397 2.396c.145 0 .288-.017.43-.043.041-.008.081-.02.122-.03.083-.018.158-.046.237-.073.136-.049.265-.11.388-.18.044-.025.1-.037.141-.064l-.004-.01a2.396 2.396 0 0 0 1.082-1.996 2.405 2.405 0 0 0-2.396-2.399z" fill="#fff" opacity=".5"/></svg>