<?xml version="1.0" encoding="UTF-8" standalone="no"?>
<svg
   xmlns:dc="http://purl.org/dc/elements/1.1/"
   xmlns:cc="http://creativecommons.org/ns#"
   xmlns:rdf="http://www.w3.org/1999/02/22-rdf-syntax-ns#"
   xmlns:svg="http://www.w3.org/2000/svg"
   xmlns="http://www.w3.org/2000/svg"
   xmlns:sodipodi="http://sodipodi.sourceforge.net/DTD/sodipodi-0.dtd"
   xmlns:inkscape="http://www.inkscape.org/namespaces/inkscape"
   height="24"
   width="24"
   version="1.1"
   id="svg4"
   sodipodi:docname="dialog-error-symbolic.svg"
   inkscape:version="0.92.4 (5da689c313, 2019-01-14)">
  <metadata
     id="metadata10">
    <rdf:RDF>
      <cc:Work
         rdf:about="">
        <dc:format>image/svg+xml</dc:format>
        <dc:type
           rdf:resource="http://purl.org/dc/dcmitype/StillImage" />
        <dc:title></dc:title>
      </cc:Work>
    </rdf:RDF>
  </metadata>
  <defs
     id="defs8" />
  <sodipodi:namedview
     pagecolor="#ffffff"
     bordercolor="#666666"
     borderopacity="1"
     objecttolerance="10"
     gridtolerance="10"
     guidetolerance="10"
     inkscape:pageopacity="0"
     inkscape:pageshadow="2"
     inkscape:window-width="1112"
     inkscape:window-height="480"
     id="namedview6"
     showgrid="false"
     inkscape:zoom="9.8333333"
     inkscape:cx="1.0677966"
     inkscape:cy="12"
     inkscape:window-x="0"
     inkscape:window-y="25"
     inkscape:window-maximized="0"
     inkscape:current-layer="svg4" />
  <path
     d="M 15.96,1.92 12,3.72 7.67,2.07 6.11,6.28 l -4.2,1.76 1.83,4.17 -1.67,4.12 4.16,1.59 1.8,4.16 4.24,-1.84 4.06,1.69 1.65,-4.18 4.1,-1.8 -1.82,-4.16 1.67,-4.12 -4.16,-1.59 -1.8,-4.17 z M 7.91,6.88 A 0.9,0.9 0 0 1 8.54,7.14 L 12,10.65 15.46,7.14 a 0.88,0.88 0 0 1 1.26,0 c 0.34,0.35 0.34,0.92 0,1.27 l -3.46,3.51 3.46,3.5 c 0.34,0.36 0.34,0.93 0,1.28 A 0.88,0.88 0 0 1 16.09,16.96 0.87,0.87 0 0 1 15.46,16.7 L 12,13.2 8.54,16.7 a 0.85,0.85 0 0 1 -0.63,0.26 0.87,0.87 0 0 1 -0.62,-0.26 0.9,0.9 0 0 1 0,-1.27 L 10.75,11.93 7.29,8.4 a 0.9,0.9 0 0 1 0,-1.27 0.9,0.9 0 0 1 0.62,-0.26 z"
     id="path2"
     inkscape:connector-curvature="0"
     style="fill:#808080" />
</svg>
