<?xml version="1.0" encoding="UTF-8" standalone="no"?>
<svg
   xmlns:dc="http://purl.org/dc/elements/1.1/"
   xmlns:cc="http://creativecommons.org/ns#"
   xmlns:rdf="http://www.w3.org/1999/02/22-rdf-syntax-ns#"
   xmlns:svg="http://www.w3.org/2000/svg"
   xmlns="http://www.w3.org/2000/svg"
   xmlns:sodipodi="http://sodipodi.sourceforge.net/DTD/sodipodi-0.dtd"
   xmlns:inkscape="http://www.inkscape.org/namespaces/inkscape"
   width="24"
   height="24"
   version="1.1"
   id="svg4"
   sodipodi:docname="dialog-info-symbolic.svg"
   inkscape:version="0.92.4 (5da689c313, 2019-01-14)">
  <metadata
     id="metadata10">
    <rdf:RDF>
      <cc:Work
         rdf:about="">
        <dc:format>image/svg+xml</dc:format>
        <dc:type
           rdf:resource="http://purl.org/dc/dcmitype/StillImage" />
        <dc:title></dc:title>
      </cc:Work>
    </rdf:RDF>
  </metadata>
  <defs
     id="defs8" />
  <sodipodi:namedview
     pagecolor="#ffffff"
     bordercolor="#666666"
     borderopacity="1"
     objecttolerance="10"
     gridtolerance="10"
     guidetolerance="10"
     inkscape:pageopacity="0"
     inkscape:pageshadow="2"
     inkscape:window-width="1112"
     inkscape:window-height="480"
     id="namedview6"
     showgrid="false"
     inkscape:zoom="9.8333333"
     inkscape:cx="1.0677966"
     inkscape:cy="12"
     inkscape:window-x="0"
     inkscape:window-y="25"
     inkscape:window-maximized="0"
     inkscape:current-layer="svg4" />
  <path
     d="M 12,1.64 A 10.41,10.36 0 0 0 1.6,12 10.41,10.36 0 0 0 12,22.36 10.41,10.36 0 0 0 22.4,12.01 10.41,10.36 0 0 0 12,1.64 Z m 1.2,3.52 C 13.71,5.14 14.16,5.55 14.23,6.05 14.45,7 13.45,7.95 12.52,7.57 11.38,7.03 12.01,5.09 13.21,5.16 Z m -0.51,4.27 c 0.58,0.05 0.88,0.84 0.57,1.52 -0.44,1.95 -1.11,3.84 -1.49,5.8 0.18,0.78 1.14,-0.16 1.58,-0.36 0.33,-0.39 0.41,0.03 0.53,0.34 -0.88,0.61 -1.74,1.3 -2.76,1.71 -0.95,0.65 -1.86,-0.25 -1.46,-1.25 0.39,-1.82 0.89,-3.62 1.3,-5.42 0.12,-0.99 -1.16,0.01 -1.54,0.25 -0.31,0.38 -0.45,0.1 -0.58,-0.25 1.03,-0.75 2.01,-1.6 3.19,-2.1 0.25,-0.2 0.47,-0.26 0.66,-0.24 z"
     id="path2"
     inkscape:connector-curvature="0"
     style="fill:#808080;paint-order:markers fill stroke" />
</svg>
