<?xml version="1.0" encoding="UTF-8" standalone="no"?>
<svg
   xmlns:dc="http://purl.org/dc/elements/1.1/"
   xmlns:cc="http://creativecommons.org/ns#"
   xmlns:rdf="http://www.w3.org/1999/02/22-rdf-syntax-ns#"
   xmlns:svg="http://www.w3.org/2000/svg"
   xmlns="http://www.w3.org/2000/svg"
   xmlns:sodipodi="http://sodipodi.sourceforge.net/DTD/sodipodi-0.dtd"
   xmlns:inkscape="http://www.inkscape.org/namespaces/inkscape"
   version="1.1"
   viewBox="0 0 24 24"
   id="svg6"
   sodipodi:docname="application-x-ipynb+json.svg"
   inkscape:version="0.92.4 (5da689c313, 2019-01-14)">
  <metadata
     id="metadata12">
    <rdf:RDF>
      <cc:Work
         rdf:about="">
        <dc:format>image/svg+xml</dc:format>
        <dc:type
           rdf:resource="http://purl.org/dc/dcmitype/StillImage" />
        <dc:title></dc:title>
      </cc:Work>
    </rdf:RDF>
  </metadata>
  <defs
     id="defs10" />
  <sodipodi:namedview
     pagecolor="#ffffff"
     bordercolor="#666666"
     borderopacity="1"
     objecttolerance="10"
     gridtolerance="10"
     guidetolerance="10"
     inkscape:pageopacity="0"
     inkscape:pageshadow="2"
     inkscape:window-width="1136"
     inkscape:window-height="480"
     id="namedview8"
     showgrid="false"
     inkscape:zoom="9.8333333"
     inkscape:cx="1.0677966"
     inkscape:cy="12"
     inkscape:window-x="0"
     inkscape:window-y="25"
     inkscape:window-maximized="0"
     inkscape:current-layer="svg6" />
  <path
     d="m 1.5,3.3262 v 17.348 H 6.0645 V 18.848 H 3.3262 V 5.153 H 6.0645 V 3.3268 H 1.5 Z m 13.695,0 v 1.8262 h 2.7402 v 13.695 H 15.195 v 1.8262 h 4.5664 V 3.3256 H 15.195 Z m 6.3926,3.6523 A 0.91304,0.91304 0 0 0 20.67354,7.89061 0.91304,0.91304 0 0 0 21.5876,8.80467 0.91304,0.91304 0 0 0 22.49971,7.89061 0.91304,0.91304 0 0 0 21.5876,6.9785 Z m 0,9.1309 a 0.91304,0.91304 0 0 0 -0.91406,0.91211 0.91304,0.91304 0 0 0 0.91406,0.91406 0.91304,0.91304 0 0 0 0.91211,-0.91406 0.91304,0.91304 0 0 0 -0.91211,-0.91211 z"
     style="text-indent:0;text-decoration:none;text-decoration-line:none;text-transform:none;fill:#e6e6e6;stroke-width:0.91303998"
     id="path2"
     inkscape:connector-curvature="0" />
  <path
     d="m 6.9783,6.9783 4.5652,9.1304 m 3.6522,-9.1304 c 0,0 -3.6522,12.783 -6.3913,12.783 H 7.89136"
     id="path4"
     inkscape:connector-curvature="0"
     style="fill:none;stroke:#e6e6e6;stroke-width:1.82609999" />
</svg>
