<?xml version="1.0" encoding="UTF-8" standalone="no"?>
<svg
   xmlns:dc="http://purl.org/dc/elements/1.1/"
   xmlns:cc="http://creativecommons.org/ns#"
   xmlns:rdf="http://www.w3.org/1999/02/22-rdf-syntax-ns#"
   xmlns:svg="http://www.w3.org/2000/svg"
   xmlns="http://www.w3.org/2000/svg"
   xmlns:sodipodi="http://sodipodi.sourceforge.net/DTD/sodipodi-0.dtd"
   xmlns:inkscape="http://www.inkscape.org/namespaces/inkscape"
   width="24"
   height="24"
   version="1"
   id="svg11"
   sodipodi:docname="text-x-changelog.svg"
   inkscape:version="0.92.4 (5da689c313, 2019-01-14)">
  <metadata
     id="metadata15">
    <rdf:RDF>
      <cc:Work
         rdf:about="">
        <dc:format>image/svg+xml</dc:format>
        <dc:type
           rdf:resource="http://purl.org/dc/dcmitype/StillImage" />
        <dc:title></dc:title>
      </cc:Work>
    </rdf:RDF>
  </metadata>
  <sodipodi:namedview
     pagecolor="#ffffff"
     bordercolor="#666666"
     borderopacity="1"
     objecttolerance="10"
     gridtolerance="10"
     guidetolerance="10"
     inkscape:pageopacity="0"
     inkscape:pageshadow="2"
     inkscape:window-width="1112"
     inkscape:window-height="480"
     id="namedview13"
     showgrid="false"
     inkscape:zoom="9.8333333"
     inkscape:cx="1.0677966"
     inkscape:cy="12"
     inkscape:window-x="0"
     inkscape:window-y="25"
     inkscape:window-maximized="0"
     inkscape:current-layer="svg11" />
  <defs
     id="defs7">
    <linearGradient
       id="a">
      <stop
         offset="0"
         stop-color="#1f241c"
         id="stop2" />
      <stop
         offset="1"
         stop-color="#1f241c"
         stop-opacity="0"
         id="stop4" />
    </linearGradient>
  </defs>
  <path
     d="M 4.366,1.19 A 2.367,2.505 0 0 0 2,3.694 2.367,2.505 0 0 0 4.366,6.2 2.367,2.505 0 0 0 6.734,3.694 2.367,2.505 0 0 0 4.366,1.19 Z m 6.05,1.192 c -0.621,0 -1.122,0.498 -1.122,1.119 v 0.39 c 0,0.62 0.5,1.118 1.122,1.118 h 10.116 c 0.62,0 1.122,-0.498 1.122,-1.119 V 3.5 c 0,-0.62 -0.501,-1.118 -1.122,-1.118 z M 9.902,9.494 A 2.367,2.505 0 0 0 7.537,12 2.367,2.505 0 0 0 9.902,14.506 2.367,2.505 0 0 0 12.27,12 2.367,2.505 0 0 0 9.902,9.494 Z m 6.242,1.192 c -0.62,0 -1.119,0.498 -1.119,1.12 v 0.389 c 0,0.62 0.498,1.119 1.12,1.119 h 4.733 c 0.62,0 1.122,-0.498 1.122,-1.12 v -0.389 c 0,-0.62 -0.501,-1.119 -1.122,-1.119 z M 4.366,17.8 A 2.367,2.505 0 0 0 2,20.305 2.367,2.505 0 0 0 4.366,22.811 2.367,2.505 0 0 0 6.734,20.305 2.367,2.505 0 0 0 4.366,17.799 Z m 6.05,1.192 c -0.621,0 -1.122,0.498 -1.122,1.119 v 0.39 c 0,0.62 0.5,1.118 1.122,1.118 h 10.116 c 0.62,0 1.122,-0.498 1.122,-1.119 v -0.39 c 0,-0.62 -0.501,-1.118 -1.122,-1.118 z"
     id="path9"
     inkscape:connector-curvature="0"
     style="fill:#e6e6e6" />
</svg>
