<svg xmlns="http://www.w3.org/2000/svg" viewBox="0 0 24 24"><defs><linearGradient id="a"><stop offset="0"/><stop offset="1" stop-opacity="0"/></linearGradient></defs><path d="M19.941 1.387a2.635 2.635 0 0 0-2.634 2.635 2.635 2.635 0 0 0 2.634 2.635 2.635 2.635 0 0 0 2.709-2.635 2.635 2.635 0 0 0-2.709-2.635zm-9.69 3.57a8.828 8.828 0 0 0-8.901 8.829 8.828 8.828 0 0 0 8.902 8.827 8.828 8.828 0 0 0 8.84-8.827 8.828 8.828 0 0 0-8.84-8.84zm3.571 2.623a2.635 2.635 0 0 1 2.635 2.635 2.635 2.635 0 0 1-2.709 2.635 2.635 2.635 0 0 1-2.634-2.635 2.635 2.635 0 0 1 2.634-2.635z" fill="#e6e6e6"/></svg>
