<svg xmlns="http://www.w3.org/2000/svg" width="24" height="24"><defs><linearGradient id="b"><stop offset="0"/><stop offset="1" stop-opacity="0"/></linearGradient><linearGradient id="a"><stop offset="0"/><stop offset="1" stop-opacity="0"/></linearGradient></defs><path d="M11.86 1.71c-2.9.03-6.8 1.1-6.75 4.5.08 3.56 4.03 2.28 4.34 3.74l.18-.16c.26-.3.52-.52.8-.83l1.36-1.4c1.5-1.64 1.55-1.74 5.2-4.47a9.82 9.82 0 0 0-4.53-1.38zm8.45 0a62.77 62.77 0 0 0-9.1 8.08l-.44.42-.26.34a62.57 62.57 0 0 0-5.01 6.44 1.46 1.46 0 0 0-1.56.13c-1.04.68-.78 3.14-2.94 3.14.21.84 2.4.81 3.87.45 1.38-.34 1.82-1.56 1.56-2.6l-.23-.42a66.83 66.83 0 0 0 6-5.56l1.17-1.27a74.31 74.31 0 0 0 6.94-9.15zM9.22 4.48h.02c.76 0 1.4.62 1.4 1.39a1.4 1.4 0 1 1-1.42-1.4zm10.02.22v.03a38.45 38.45 0 0 1-4.62 6.31c-.89.88-1.61 1.8-2.24 2.44a118.27 118.27 0 0 1-4.34 4.21c.08 2.03 1.12 3.8 4.47 4.42 5.36 1.04 11.02-2.5 10.45-9.7a12.97 12.97 0 0 0-3.72-7.71z" fill="#1a1a1a"/></svg>