<?xml version="1.0" encoding="UTF-8" standalone="no"?>
<svg
   xmlns:dc="http://purl.org/dc/elements/1.1/"
   xmlns:cc="http://creativecommons.org/ns#"
   xmlns:rdf="http://www.w3.org/1999/02/22-rdf-syntax-ns#"
   xmlns:svg="http://www.w3.org/2000/svg"
   xmlns="http://www.w3.org/2000/svg"
   xmlns:sodipodi="http://sodipodi.sourceforge.net/DTD/sodipodi-0.dtd"
   xmlns:inkscape="http://www.inkscape.org/namespaces/inkscape"
   viewBox="0 0 24 24"
   version="1.1"
   id="svg4"
   sodipodi:docname="add-folder-to-archive.svg"
   inkscape:version="0.92.3 (2405546, 2018-03-11)"
   width="24"
   height="24"
   style="fill:#000000">
  <metadata
     id="metadata10">
    <rdf:RDF>
      <cc:Work
         rdf:about="">
        <dc:format>image/svg+xml</dc:format>
        <dc:type
           rdf:resource="http://purl.org/dc/dcmitype/StillImage" />
        <dc:title></dc:title>
      </cc:Work>
    </rdf:RDF>
  </metadata>
  <defs
     id="defs8" />
  <sodipodi:namedview
     pagecolor="#ffffff"
     bordercolor="#666666"
     borderopacity="1"
     objecttolerance="10"
     gridtolerance="10"
     guidetolerance="10"
     inkscape:pageopacity="0"
     inkscape:pageshadow="2"
     inkscape:window-width="1366"
     inkscape:window-height="690"
     id="namedview6"
     showgrid="false"
     inkscape:zoom="19.666667"
     inkscape:cx="3.9742232"
     inkscape:cy="11.391604"
     inkscape:window-x="0"
     inkscape:window-y="28"
     inkscape:window-maximized="1"
     inkscape:current-layer="svg4"
     showguides="true"
     inkscape:guide-bbox="true" />
  <path
     d="m 6.0005005,3.0508474 c -0.465,0 -0.8805,0.215 -1.1555,0.545 l -1.385,1.6795 c -0.29,0.35 -0.46,0.7905 -0.46,1.2755 V 19.050848 c 0,1.105 0.895,2 2,2 H 19 c 1.105,0 2,-0.895 2,-2 V 6.5508474 c 0,-0.485 -0.17,-0.9255 -0.455,-1.2755 l -1.385,-1.6795 c -0.28,-0.33 -0.695,-0.545 -1.16,-0.545 H 6.0000005 m -0.0595,1 H 17.9405 l 0.9345,1 H 5.1250005 l 0.8155,-1 m 2.0595,5 H 11 l 1,1.0000006 h 4 c 0.5525,0 1,0.4475 1,1 v 5 c 0,0.5525 -0.4475,1 -1,1 H 8.0000005 c -0.5525,0 -1,-0.4475 -1,-1 l 0.005,-6 c 0,-0.5525006 0.4425,-1.0000006 0.995,-1.0000006"
     id="path2"
     style="fill:#1a1a1a;stroke-width:0.5"
     inkscape:connector-curvature="0" />
</svg>
