<?xml version="1.0" encoding="UTF-8" standalone="no"?>
<svg
   xmlns:dc="http://purl.org/dc/elements/1.1/"
   xmlns:cc="http://creativecommons.org/ns#"
   xmlns:rdf="http://www.w3.org/1999/02/22-rdf-syntax-ns#"
   xmlns:svg="http://www.w3.org/2000/svg"
   xmlns="http://www.w3.org/2000/svg"
   xmlns:sodipodi="http://sodipodi.sourceforge.net/DTD/sodipodi-0.dtd"
   xmlns:inkscape="http://www.inkscape.org/namespaces/inkscape"
   fill="#000000"
   viewBox="0 0 48 48"
   version="1.1"
   id="svg4"
   sodipodi:docname="color-select.svg"
   inkscape:version="0.92.3 (2405546, 2018-03-11)">
  <metadata
     id="metadata10">
    <rdf:RDF>
      <cc:Work
         rdf:about="">
        <dc:format>image/svg+xml</dc:format>
        <dc:type
           rdf:resource="http://purl.org/dc/dcmitype/StillImage" />
      </cc:Work>
    </rdf:RDF>
  </metadata>
  <defs
     id="defs8" />
  <sodipodi:namedview
     pagecolor="#ffffff"
     bordercolor="#666666"
     borderopacity="1"
     objecttolerance="10"
     gridtolerance="10"
     guidetolerance="10"
     inkscape:pageopacity="0"
     inkscape:pageshadow="2"
     inkscape:window-width="640"
     inkscape:window-height="480"
     id="namedview6"
     showgrid="false"
     inkscape:zoom="4.9166667"
     inkscape:cx="24"
     inkscape:cy="24"
     inkscape:window-x="0"
     inkscape:window-y="28"
     inkscape:window-maximized="0"
     inkscape:current-layer="svg4" />
  <path
     d="m0 43.5c0-2.483 2.02-4.5 4.5-4.5 1.965 0 3-1.733 3-3 1.83 1.38 3 3.742 3 6 0 3.315-2.685 6-6 6-2.483 0-4.5-2.02-4.5-4.5m47.41-38.24l-4.67-4.67c-.78-.78-2.05-.78-2.83 0l-6.25 6.25-3.83-3.84-2.83 2.83 2.84 2.84-17.84 17.83v9.5h9.5l17.84-17.84 2.83 2.84 2.83-2.83-3.84-3.84 6.25-6.25c.79-.78.79-2.04 0-2.82m-27.57 26.74l-3.84-3.84 16.13-16.13 3.84 3.84-16.13 16.13"
     id="path2"
     style="fill:#1a1a1a" />
</svg>
