<svg xmlns="http://www.w3.org/2000/svg" width="24" height="24" version="1">
  <path fill="#333" d="M11.963443 1.0760001c-3.4048674 0-7.9944034 3.3130535-8.0712884 6.1044925-.08362 3.0360194-.296954 8.5296544-.458007 12.7470704H1.3540687v2.760742H22.700748v-2.760742H20.46149c-.152588-4.912466-.322673-10.5740074-.450195-12.7470704-.17076-2.9099005-4.642982-6.1044925-8.047852-6.1044925zm0 1.577149c2.560248 0 6.486387 2.9278585 6.478516 5.4560545-.02408 1.721977.06421 5.6753534.0459 11.8183594H5.3989906l.0088-.01074c-.03899-6.608467.10254-11.8701174.102539-11.8701174 0-2.4439055 3.892879-5.3935445 6.4531244-5.3935545zM7.5611006 6.5310786v1.0546875H16.37067V6.5310786zm0 2.5751955v1.0546879H16.37067V9.1062741zm0 2.9179689v1.054688H16.37067v-1.054688z"/>
</svg>
