<?xml version="1.0" encoding="UTF-8" standalone="no"?>
<svg
   xmlns:dc="http://purl.org/dc/elements/1.1/"
   xmlns:cc="http://creativecommons.org/ns#"
   xmlns:rdf="http://www.w3.org/1999/02/22-rdf-syntax-ns#"
   xmlns:svg="http://www.w3.org/2000/svg"
   xmlns="http://www.w3.org/2000/svg"
   xmlns:sodipodi="http://sodipodi.sourceforge.net/DTD/sodipodi-0.dtd"
   xmlns:inkscape="http://www.inkscape.org/namespaces/inkscape"
   viewBox="0 0 24 24"
   version="1.1"
   id="svg4"
   sodipodi:docname="document-save-as.svg"
   inkscape:version="0.92.3 (2405546, 2018-03-11)"
   width="24"
   height="24"
   style="fill:#000000">
  <metadata
     id="metadata10">
    <rdf:RDF>
      <cc:Work
         rdf:about="">
        <dc:format>image/svg+xml</dc:format>
        <dc:type
           rdf:resource="http://purl.org/dc/dcmitype/StillImage" />
        <dc:title></dc:title>
      </cc:Work>
    </rdf:RDF>
  </metadata>
  <defs
     id="defs8" />
  <sodipodi:namedview
     pagecolor="#ffffff"
     bordercolor="#666666"
     borderopacity="1"
     objecttolerance="10"
     gridtolerance="10"
     guidetolerance="10"
     inkscape:pageopacity="0"
     inkscape:pageshadow="2"
     inkscape:window-width="1366"
     inkscape:window-height="690"
     id="namedview6"
     showgrid="false"
     inkscape:zoom="20.625"
     inkscape:cx="12"
     inkscape:cy="12"
     inkscape:window-x="0"
     inkscape:window-y="28"
     inkscape:window-maximized="1"
     inkscape:current-layer="svg4"
     showguides="true"
     inkscape:guide-bbox="true" />
  <path
     style="fill:#1a1a1a;stroke-width:0.5"
     d="m 5.0242422,0.58641098 c -1.1049999,0 -2,0.89499992 -2,2.00000002 V 16.58641 c 0,1.105001 0.8950001,2 2,2 H 19.024242 c 1.105,0 2,-0.894999 2,-2 V 4.586411 l -4,-4.00000002 z m 0,2.00000002 h 9.9999998 v 4 H 5.0242422 Z m 6.9999998,7.999999 c 1.654999,0 3,1.345001 3,3 0,1.655 -1.345001,3 -3,3 -1.655,0 -2.9999998,-1.345 -2.9999998,-3 0,-1.654999 1.3449998,-3 2.9999998,-3 z m -6.1503904,8.775391 c -1.145182,0 -2.0742187,0.929037 -2.0742187,2.074219 0,1.145181 0.9290367,2.072266 2.0742187,2.072266 1.145182,0 2.0722656,-0.927085 2.0722656,-2.072266 0,-1.145182 -0.9270836,-2.074219 -2.0722656,-2.074219 z m 6.2167974,0 c -1.145183,0 -2.072266,0.929037 -2.072266,2.074219 0,1.145181 0.927084,2.072266 2.072266,2.072266 1.145182,0 2.074218,-0.927085 2.074218,-2.072266 0,-1.145182 -0.929036,-2.074219 -2.074218,-2.074219 z m 6.21875,0 c -1.145182,0 -2.072266,0.929037 -2.072266,2.074219 0,1.145181 0.927083,2.072266 2.072266,2.072266 1.145181,0 2.072265,-0.927085 2.072265,-2.072266 0,-1.145182 -0.927083,-2.074219 -2.072265,-2.074219 z"
     id="path2"
     inkscape:connector-curvature="0" />
</svg>
