<svg xmlns="http://www.w3.org/2000/svg" width="24" height="24">
  <path fill="#333" d="M16.324388 14.647861h-.862728l-.298429-.298425c1.063486-1.231694 1.703748-2.832352 1.703748-4.5849363 0-3.8958372-3.157903-7.0537437-7.0537432-7.0537437-3.8958373 0-7.053744 3.1579065-7.053744 7.0537437 0 3.8958403 3.1579067 7.0537433 7.053744 7.0537433 1.7525842 0 3.3532422-.640262 4.5849362-1.698321l.298425.298426v.857304l5.425959 5.415104 1.616936-1.616936zm-6.5111522 0c-2.6967003 0-4.8833609-2.186656-4.8833609-4.8833613 0-2.6966993 2.1866606-4.8833608 4.8833609-4.8833608 2.6967052 0 4.8833612 2.1866615 4.8833612 4.8833608 0 2.6967053-2.186656 4.8833613-4.8833612 4.8833613z"/>
</svg>
