<?xml version="1.0" encoding="UTF-8" standalone="no"?>
<svg
   xmlns:dc="http://purl.org/dc/elements/1.1/"
   xmlns:cc="http://creativecommons.org/ns#"
   xmlns:rdf="http://www.w3.org/1999/02/22-rdf-syntax-ns#"
   xmlns:svg="http://www.w3.org/2000/svg"
   xmlns="http://www.w3.org/2000/svg"
   xmlns:sodipodi="http://sodipodi.sourceforge.net/DTD/sodipodi-0.dtd"
   xmlns:inkscape="http://www.inkscape.org/namespaces/inkscape"
   viewBox="0 0 24 24"
   version="1.1"
   id="svg4"
   sodipodi:docname="edit-find.svg"
   inkscape:version="0.92.3 (2405546, 2018-03-11)"
   width="24"
   height="24"
   style="fill:#000000">
  <metadata
     id="metadata10">
    <rdf:RDF>
      <cc:Work
         rdf:about="">
        <dc:format>image/svg+xml</dc:format>
        <dc:type
           rdf:resource="http://purl.org/dc/dcmitype/StillImage" />
        <dc:title></dc:title>
      </cc:Work>
    </rdf:RDF>
  </metadata>
  <defs
     id="defs8" />
  <sodipodi:namedview
     pagecolor="#ffffff"
     bordercolor="#666666"
     borderopacity="1"
     objecttolerance="10"
     gridtolerance="10"
     guidetolerance="10"
     inkscape:pageopacity="0"
     inkscape:pageshadow="2"
     inkscape:window-width="1366"
     inkscape:window-height="717"
     id="namedview6"
     showgrid="false"
     inkscape:zoom="15.909903"
     inkscape:cx="3.3111111"
     inkscape:cy="12"
     inkscape:window-x="0"
     inkscape:window-y="25"
     inkscape:window-maximized="1"
     inkscape:current-layer="svg4"
     showguides="true"
     inkscape:guide-bbox="true" />
  <path
     inkscape:connector-curvature="0"
     d="M 16.324388,14.647861 H 15.46166 l -0.298429,-0.298425 c 1.063486,-1.231694 1.703748,-2.832352 1.703748,-4.5849363 0,-3.8958372 -3.157903,-7.0537437 -7.0537432,-7.0537437 -3.8958373,0 -7.053744,3.1579065 -7.053744,7.0537437 0,3.8958403 3.1579067,7.0537433 7.053744,7.0537433 1.7525842,0 3.3532422,-0.640262 4.5849362,-1.698321 l 0.298425,0.298426 v 0.857304 l 5.425959,5.415104 1.616936,-1.616936 z m -6.5111522,0 c -2.6967003,0 -4.8833609,-2.186656 -4.8833609,-4.8833613 0,-2.6966993 2.1866606,-4.8833608 4.8833609,-4.8833608 2.6967052,0 4.8833612,2.1866615 4.8833612,4.8833608 0,2.6967053 -2.186656,4.8833613 -4.8833612,4.8833613 z"
     id="path2-3"
     style="fill:#333333;stroke-width:0.54259586" />
</svg>
