<svg xmlns="http://www.w3.org/2000/svg" width="24" height="24">
  <path fill="#333" d="M13.733001 2.6344196c-.559865 0-1.157156.105077-1.757243.2899184-.591183-.1775439-1.181178-.2810521-1.737737-.2810521-2.9358239 0-6.8926349 2.8568484-6.9589282 5.2637473-.0720493 2.6157598-.2565766 7.3465908-.395424 10.9823218h-.3280421v2.380522H21.412735v-2.380522h-.35198c-.131575-4.23591-.278369-9.1173636-.388332-10.9911881-.147236-2.5090417-4.003597-5.2637473-6.939422-5.2637473zm0 1.3600454c2.207556 0 5.593256 2.5243831 5.58647 4.7043023-.02077 1.4847397.05568 4.8939627.03989 10.1905877H8.0720558l.00799-.0098c-.033619-5.698106.088664-10.2349173.088664-10.2349173 0-2.1072407 3.3567492-4.6502117 5.5643052-4.6502199zm-4.137765.078904C8.023831 5.1189758 6.8105052 6.5753953 6.7740729 7.8981632c-.0721037 2.6179498-.2565548 7.3546928-.3954239 10.9911878H4.585942c-.033619-5.698106.087774-10.2349173.087774-10.2349173 0-1.9116537 2.7605541-4.1760419 4.92152-4.5810647z"/>
</svg>
