<svg xmlns="http://www.w3.org/2000/svg" width="24" height="24">
  <path fill="#333" d="M13.732422 2.6347656c-.559865 0-1.155772.1042211-1.75586.2890625-.591183-.1775439-1.181722-.28125-1.738281-.28125-2.9358236 0-6.8926908 2.856773-6.9589841 5.2636719-.0720493 2.61576-.257637 7.346691-.3964844 10.982422h-.328125v2.380859H21.412109v-2.380859h-.351562c-.131575-4.23591-.278709-9.11641-.388672-10.9902345-.147236-2.5090417-4.003628-5.2636719-6.939453-5.2636719zM9.5957031 4.0742188c-1.571405 1.0456068-2.7858333 2.5014508-2.8222656 3.8242187-.0721037 2.6179495-.2556622 7.3537395-.3945313 10.9902345H4.5859375c-.033619-5.698106.0878906-10.2343751.0878906-10.2343751 0-1.9116537 2.7609091-4.1750553 4.921875-4.5800781z"/>
</svg>
