<svg xmlns="http://www.w3.org/2000/svg" width="24" height="24">
  <path fill="#333" d="M7.7871094.34179688c-1.105 0-2 .89500032-2 2.00000002v3.2871093h-3.59375c-1.105 0-2.00000002.895-2.00000002 2V21.628906c0 1.105.89500002 2 2.00000002 2H16.193359c1.105 0 2-.895 2-2v-3.287109h3.59375c1.105 0 2-.895 2-2V4.3417969l-4-4.00000002H7.7871094zm0 2.00000002h9.9999996v4H14.90625l-.712891-.7128907H7.7871094V2.3417969zm-5.59375 5.2871093h9.9999996v3.9999998H2.1933594V7.6289062zm7 7.9999998c1.6549996 0 2.9999996 1.345 2.9999996 3s-1.345 3-2.9999996 3c-1.655 0-3-1.345-3-3s1.345-3 3-3z"/>
</svg>
