<?xml version="1.0" encoding="UTF-8" standalone="no"?>
<svg
   xmlns:dc="http://purl.org/dc/elements/1.1/"
   xmlns:cc="http://creativecommons.org/ns#"
   xmlns:rdf="http://www.w3.org/1999/02/22-rdf-syntax-ns#"
   xmlns:svg="http://www.w3.org/2000/svg"
   xmlns="http://www.w3.org/2000/svg"
   xmlns:sodipodi="http://sodipodi.sourceforge.net/DTD/sodipodi-0.dtd"
   xmlns:inkscape="http://www.inkscape.org/namespaces/inkscape"
   viewBox="0 0 24 24"
   version="1.1"
   id="svg4"
   sodipodi:docname="go-home.svg"
   inkscape:version="0.92.3 (2405546, 2018-03-11)"
   width="24"
   height="24"
   style="fill:#000000">
  <metadata
     id="metadata10">
    <rdf:RDF>
      <cc:Work
         rdf:about="">
        <dc:format>image/svg+xml</dc:format>
        <dc:type
           rdf:resource="http://purl.org/dc/dcmitype/StillImage" />
        <dc:title></dc:title>
      </cc:Work>
    </rdf:RDF>
  </metadata>
  <defs
     id="defs8" />
  <sodipodi:namedview
     pagecolor="#ffffff"
     bordercolor="#666666"
     borderopacity="1"
     objecttolerance="10"
     gridtolerance="10"
     guidetolerance="10"
     inkscape:pageopacity="0"
     inkscape:pageshadow="2"
     inkscape:window-width="1366"
     inkscape:window-height="690"
     id="namedview6"
     showgrid="false"
     inkscape:zoom="20.625"
     inkscape:cx="12"
     inkscape:cy="12"
     inkscape:window-x="0"
     inkscape:window-y="28"
     inkscape:window-maximized="1"
     inkscape:current-layer="svg4"
     showguides="true"
     inkscape:guide-bbox="true" />
  <path
     style="fill:#1a1a1a;stroke:none;stroke-width:0.32012281;stroke-miterlimit:4;stroke-dasharray:none;stroke-opacity:1"
     d="M 6.4023438 0.75976562 C 5.5748787 0.75976562 4.9023438 1.4323616 4.9023438 2.2597656 C 4.9022818 2.2597656 4.9003906 13.341797 4.9003906 13.341797 C 5.2994786 12.982416 5.8265978 12.761719 6.4023438 12.761719 L 7.9023438 12.761719 L 7.9023438 2.2597656 C 7.9023438 1.4323006 7.2298098 0.75976562 6.4023438 0.75976562 z M 17.654297 3.0097656 C 16.826831 3.0097656 16.154297 3.6823606 16.154297 4.5097656 L 16.154297 15.013672 C 16.154297 16.254442 15.143112 17.263672 13.902344 17.263672 C 13.191975 17.263672 12.447426 16.889933 12.017578 16.242188 C 11.591468 16.860702 10.859038 17.263672 10.058594 17.263672 L 8.2773438 17.263672 C 8.0702948 17.263672 7.9023438 17.095721 7.9023438 16.888672 C 7.9023438 16.681621 8.0702948 16.513672 8.2773438 16.513672 L 10.154297 16.513672 C 11.004988 16.513672 11.683614 15.804275 11.646484 14.945312 C 11.622464 14.421712 11.329925 13.969725 10.902344 13.720703 L 10.902344 14.261719 C 10.902344 14.46877 10.734395 14.638672 10.527344 14.638672 L 8.8398438 14.638672 C 8.7362897 14.638672 8.6523438 14.552715 8.6523438 14.449219 C 8.6523438 14.345665 8.7363478 14.261719 8.8398438 14.261719 L 10.339844 14.261719 C 10.443399 14.261719 10.527344 14.177715 10.527344 14.074219 L 10.527344 13.566406 C 10.406938 13.535276 10.282493 13.511719 10.152344 13.511719 L 8.6523438 13.511719 L 7.9023438 13.511719 L 6.4023438 13.511719 C 5.5771457 13.511719 4.9023438 14.188474 4.9023438 15.013672 L 4.9023438 16.513672 C 4.9023438 20.236348 7.9296666 23.263672 11.652344 23.263672 L 12.402344 23.263672 C 16.125018 23.263672 19.154297 20.236348 19.154297 16.513672 L 19.154297 4.5097656 C 19.154297 3.6822986 18.4817 3.0097656 17.654297 3.0097656 z M 10.152344 7.1367188 C 9.3271457 7.1367188 8.6523438 7.8115211 8.6523438 8.6367188 L 8.6523438 12.761719 L 10.152344 12.761719 C 10.729622 12.761719 11.253992 12.980838 11.652344 13.337891 L 11.652344 8.6367188 C 11.652344 7.8115211 10.977544 7.1367188 10.152344 7.1367188 z M 13.904297 7.1367188 C 13.079099 7.1367188 12.402344 7.8115211 12.402344 8.6367188 L 12.402344 15.013672 C 12.402344 15.913504 13.163108 16.513672 13.904297 16.513672 C 14.732865 16.513672 15.404297 15.842241 15.404297 15.013672 L 15.404297 8.6367188 C 15.404297 7.8115211 14.729495 7.1367188 13.904297 7.1367188 z "
     id="path820" />
</svg>
