<?xml version="1.0" encoding="UTF-8" standalone="no"?>
<svg
   xmlns:dc="http://purl.org/dc/elements/1.1/"
   xmlns:cc="http://creativecommons.org/ns#"
   xmlns:rdf="http://www.w3.org/1999/02/22-rdf-syntax-ns#"
   xmlns:svg="http://www.w3.org/2000/svg"
   xmlns="http://www.w3.org/2000/svg"
   xmlns:sodipodi="http://sodipodi.sourceforge.net/DTD/sodipodi-0.dtd"
   xmlns:inkscape="http://www.inkscape.org/namespaces/inkscape"
   fill="#000000"
   viewBox="0 0 48 48"
   version="1.1"
   id="svg4"
   sodipodi:docname="help-contents.svg"
   inkscape:version="0.92.3 (2405546, 2018-03-11)">
  <metadata
     id="metadata10">
    <rdf:RDF>
      <cc:Work
         rdf:about="">
        <dc:format>image/svg+xml</dc:format>
        <dc:type
           rdf:resource="http://purl.org/dc/dcmitype/StillImage" />
      </cc:Work>
    </rdf:RDF>
  </metadata>
  <defs
     id="defs8" />
  <sodipodi:namedview
     pagecolor="#ffffff"
     bordercolor="#666666"
     borderopacity="1"
     objecttolerance="10"
     gridtolerance="10"
     guidetolerance="10"
     inkscape:pageopacity="0"
     inkscape:pageshadow="2"
     inkscape:window-width="863"
     inkscape:window-height="480"
     id="namedview6"
     showgrid="false"
     inkscape:zoom="4.9166667"
     inkscape:cx="24"
     inkscape:cy="24"
     inkscape:window-x="0"
     inkscape:window-y="28"
     inkscape:window-maximized="0"
     inkscape:current-layer="svg4" />
  <circle
     id="circle2"
     r="2.1913121"
     cy="34.828373"
     cx="23.864407"
     style="stroke-width:0.08765248;fill:#1a1a1a" />
  <path
     id="path4"
     d="m 23.864407,1.6519105 c -12.401424,0 -22.4390351,10.0359465 -22.4390351,22.4390345 0,12.401424 10.0359461,22.439035 22.4390351,22.439035 12.401423,0 22.439035,-10.035946 22.439035,-22.439035 0,-12.401423 -10.035946,-22.4390345 -22.439035,-22.4390345 z m 0,41.3719705 c -10.46369,0 -18.9329359,-8.467843 -18.9329359,-18.932936 0,-10.46369 8.4678429,-18.9329353 18.9329359,-18.9329353 10.46369,0 18.932935,8.4678433 18.932935,18.9329353 0,10.46369 -8.467843,18.932936 -18.932935,18.932936 z"
     inkscape:connector-curvature="0"
     style="stroke-width:0.08765248;stroke:none;fill:#1a1a1a" />
  <path
     id="path6"
     d="m 23.864407,12.915254 c -3.866526,0 -7.012199,3.145672 -7.012199,7.012199 0,0.968209 0.784841,1.753049 1.75305,1.753049 0.968209,0 1.75305,-0.78484 1.75305,-1.753049 0,-1.933264 1.572836,-3.5061 3.506099,-3.5061 1.933263,0 3.506099,1.572836 3.506099,3.5061 0,1.933263 -1.572836,3.506099 -3.506099,3.506099 -0.96821,0 -1.75305,0.78484 -1.75305,1.753049 v 4.382624 c 0,0.96821 0.78484,1.75305 1.75305,1.75305 0.968209,0 1.753049,-0.78484 1.753049,-1.75305 v -2.851422 c 3.021031,-0.78037 5.259149,-3.528889 5.259149,-6.79035 0,-3.866527 -3.145672,-7.012199 -7.012198,-7.012199 z"
     inkscape:connector-curvature="0"
     style="stroke-width:0.08765248;fill:#1a1a1a" />
</svg>
