<?xml version="1.0" encoding="UTF-8" standalone="no"?>
<!-- Created with Inkscape (http://www.inkscape.org/) -->

<svg
   xmlns:dc="http://purl.org/dc/elements/1.1/"
   xmlns:cc="http://creativecommons.org/ns#"
   xmlns:rdf="http://www.w3.org/1999/02/22-rdf-syntax-ns#"
   xmlns:svg="http://www.w3.org/2000/svg"
   xmlns="http://www.w3.org/2000/svg"
   xmlns:sodipodi="http://sodipodi.sourceforge.net/DTD/sodipodi-0.dtd"
   xmlns:inkscape="http://www.inkscape.org/namespaces/inkscape"
   version="1.1"
   id="svg2"
   width="24"
   height="24"
   viewBox="0 0 24 24"
   sodipodi:docname="insert-object.svg"
   inkscape:version="0.92.3 (2405546, 2018-03-11)">
  <metadata
     id="metadata8">
    <rdf:RDF>
      <cc:Work
         rdf:about="">
        <dc:format>image/svg+xml</dc:format>
        <dc:type
           rdf:resource="http://purl.org/dc/dcmitype/StillImage" />
        <dc:title></dc:title>
      </cc:Work>
    </rdf:RDF>
  </metadata>
  <defs
     id="defs6" />
  <sodipodi:namedview
     pagecolor="#ffffff"
     bordercolor="#666666"
     borderopacity="1"
     objecttolerance="10"
     gridtolerance="10"
     guidetolerance="10"
     inkscape:pageopacity="0"
     inkscape:pageshadow="2"
     inkscape:window-width="1366"
     inkscape:window-height="690"
     id="namedview4"
     showgrid="false"
     showguides="true"
     inkscape:guide-bbox="true"
     inkscape:zoom="20.625"
     inkscape:cx="12"
     inkscape:cy="12"
     inkscape:window-x="0"
     inkscape:window-y="28"
     inkscape:window-maximized="1"
     inkscape:current-layer="svg2" />
  <g
     id="g847"
     transform="matrix(0.5,0,0,0.5,0.027516,0.23750337)">
    <g
       id="g829">
      <path
         style="opacity:1;fill:#1a1a1a;fill-opacity:1;stroke:none;stroke-width:0.0886056;stroke-linecap:round;stroke-linejoin:round;stroke-miterlimit:4;stroke-dasharray:none;stroke-opacity:1;paint-order:markers fill stroke"
         d="m 8.8984375,10.923828 v 13.728516 l 14.9980465,10.386718 15,-10.386718 V 10.923828 l -15,10.386719 z"
         id="path825"
         inkscape:connector-curvature="0" />
      <path
         style="opacity:1;fill:#1a1a1a;fill-opacity:1;stroke:none;stroke-width:0.0886056;stroke-linecap:round;stroke-linejoin:round;stroke-miterlimit:4;stroke-dasharray:none;stroke-opacity:1;paint-order:markers fill stroke"
         d="m 18.763672,36.208984 c -0.40439,0 -0.809276,0.15498 -1.119141,0.464844 l -0.710937,0.710938 c -0.619729,0.619728 -0.619729,1.618552 0,2.238281 l 5.177734,5.175781 c 0.003,0.003 0.0048,0.0067 0.0078,0.0098 l 0.71289,0.710937 c 0.619729,0.619729 1.6166,0.619729 2.236328,0 l 0.720703,-0.720703 5.177735,-5.175781 c 0.619729,-0.619729 0.619729,-1.618553 0,-2.238281 l -0.710938,-0.710938 c -0.619728,-0.619729 -1.618552,-0.619729 -2.238281,0 l -4.068359,4.06836 -4.066407,-4.06836 c -0.309864,-0.309864 -0.71475,-0.464844 -1.11914,-0.464844 z"
         id="rect817"
         inkscape:connector-curvature="0" />
    </g>
    <path
       sodipodi:nodetypes="ccc"
       inkscape:connector-curvature="0"
       id="path874"
       d="M 38.118102,11.897007 23.408457,3.0044163 9.717442,12.017811"
       style="fill:none;stroke:#1a1a1a;stroke-width:2.5261457;stroke-linecap:butt;stroke-linejoin:miter;stroke-miterlimit:4;stroke-dasharray:none;stroke-opacity:1" />
  </g>
</svg>
