<?xml version="1.0" encoding="UTF-8" standalone="no"?>
<svg
   xmlns:dc="http://purl.org/dc/elements/1.1/"
   xmlns:cc="http://creativecommons.org/ns#"
   xmlns:rdf="http://www.w3.org/1999/02/22-rdf-syntax-ns#"
   xmlns:svg="http://www.w3.org/2000/svg"
   xmlns="http://www.w3.org/2000/svg"
   xmlns:sodipodi="http://sodipodi.sourceforge.net/DTD/sodipodi-0.dtd"
   xmlns:inkscape="http://www.inkscape.org/namespaces/inkscape"
   fill="#000000"
   viewBox="0 0 48 48"
   version="1.1"
   id="svg4"
   sodipodi:docname="list-add.svg"
   inkscape:version="0.92.3 (2405546, 2018-03-11)">
  <metadata
     id="metadata10">
    <rdf:RDF>
      <cc:Work
         rdf:about="">
        <dc:format>image/svg+xml</dc:format>
        <dc:type
           rdf:resource="http://purl.org/dc/dcmitype/StillImage" />
      </cc:Work>
    </rdf:RDF>
  </metadata>
  <defs
     id="defs8" />
  <sodipodi:namedview
     pagecolor="#ffffff"
     bordercolor="#666666"
     borderopacity="1"
     objecttolerance="10"
     gridtolerance="10"
     guidetolerance="10"
     inkscape:pageopacity="0"
     inkscape:pageshadow="2"
     inkscape:window-width="1366"
     inkscape:window-height="690"
     id="namedview6"
     showgrid="false"
     inkscape:zoom="13.906433"
     inkscape:cx="2.5423729"
     inkscape:cy="25.519199"
     inkscape:window-x="0"
     inkscape:window-y="28"
     inkscape:window-maximized="1"
     inkscape:current-layer="svg4" />
  <path
     inkscape:connector-curvature="0"
     style="fill:#1a1a1a;stroke-width:0.07060438"
     d="m 24.76236,11.489868 c 0,0.05649 0,0.169461 0,0.225934 l 0.790771,26.886153 c 0,0.903736 -0.734285,1.638023 -1.638022,1.638023 -0.903736,0 -1.638023,-0.734287 -1.638023,-1.638023 l 0.790771,-26.886153 c 0,-0.05649 0,-0.169444 0,-0.225934 -0.564836,-0.338899 -0.96022,-1.0167 -0.96022,-1.7509873 0,-1.1296706 0.790771,-2.6547231 1.807472,-2.6547231 1.016706,0 1.807471,1.5250525 1.807471,2.6547231 0,0.7907703 -0.395382,1.4120883 -0.96022,1.7509873 z"
     id="path2-3" />
  <path
     inkscape:connector-curvature="0"
     style="fill:#1a1a1a;stroke-width:0.07060438"
     d="m 36.261769,24.757681 c -0.05649,0 -0.169461,0 -0.225934,0 L 9.1496827,25.548452 c -0.903736,0 -1.638023,-0.734285 -1.638023,-1.638022 0,-0.903736 0.734287,-1.638023 1.638023,-1.638023 l 26.8861523,0.790771 c 0.05649,0 0.169444,0 0.225934,0 0.338899,-0.564836 1.0167,-0.96022 1.750987,-0.96022 1.129671,0 2.654724,0.790771 2.654724,1.807472 0,1.016706 -1.525053,1.807471 -2.654724,1.807471 -0.79077,0 -1.412088,-0.395382 -1.750987,-0.96022 z"
     id="path2-3-6" />
</svg>
