<?xml version="1.0" encoding="UTF-8" standalone="no"?>
<svg
   xmlns:dc="http://purl.org/dc/elements/1.1/"
   xmlns:cc="http://creativecommons.org/ns#"
   xmlns:rdf="http://www.w3.org/1999/02/22-rdf-syntax-ns#"
   xmlns:svg="http://www.w3.org/2000/svg"
   xmlns="http://www.w3.org/2000/svg"
   xmlns:sodipodi="http://sodipodi.sourceforge.net/DTD/sodipodi-0.dtd"
   xmlns:inkscape="http://www.inkscape.org/namespaces/inkscape"
   fill="#000000"
   viewBox="0 0 48 48"
   version="1.1"
   id="svg4"
   sodipodi:docname="object-rotate-right.svg"
   inkscape:version="0.92.3 (2405546, 2018-03-11)">
  <metadata
     id="metadata10">
    <rdf:RDF>
      <cc:Work
         rdf:about="">
        <dc:format>image/svg+xml</dc:format>
        <dc:type
           rdf:resource="http://purl.org/dc/dcmitype/StillImage" />
      </cc:Work>
    </rdf:RDF>
  </metadata>
  <defs
     id="defs8" />
  <sodipodi:namedview
     pagecolor="#ffffff"
     bordercolor="#666666"
     borderopacity="1"
     objecttolerance="10"
     gridtolerance="10"
     guidetolerance="10"
     inkscape:pageopacity="0"
     inkscape:pageshadow="2"
     inkscape:window-width="640"
     inkscape:window-height="480"
     id="namedview6"
     showgrid="false"
     inkscape:zoom="4.9166667"
     inkscape:cx="24"
     inkscape:cy="24"
     inkscape:window-x="0"
     inkscape:window-y="28"
     inkscape:window-maximized="0"
     inkscape:current-layer="svg4" />
  <path
     d="M31.1 11.1L22 2v6.14C14.11 9.12 8 15.84 8 24s6.11 14.88 14 15.86v-4.04c-5.67-.95-10-5.88-10-11.82s4.33-10.87 10-11.82V20l9.1-8.9zM39.86 22c-.34-2.78-1.45-5.46-3.25-7.78l-2.83 2.83c1.07 1.51 1.75 3.2 2.04 4.95h4.04zM26 35.81v4.05c2.78-.34 5.48-1.42 7.8-3.22l-2.87-2.87c-1.5 1.06-3.18 1.74-4.93 2.04zm7.78-4.86l2.83 2.83c1.8-2.32 2.91-5 3.25-7.78h-4.04c-.29 1.75-.97 3.44-2.04 4.95z"
     id="path2"
     style="fill:#1a1a1a" />
</svg>
