<?xml version="1.0" encoding="UTF-8" standalone="no"?>
<svg
   xmlns:dc="http://purl.org/dc/elements/1.1/"
   xmlns:cc="http://creativecommons.org/ns#"
   xmlns:rdf="http://www.w3.org/1999/02/22-rdf-syntax-ns#"
   xmlns:svg="http://www.w3.org/2000/svg"
   xmlns="http://www.w3.org/2000/svg"
   xmlns:sodipodi="http://sodipodi.sourceforge.net/DTD/sodipodi-0.dtd"
   xmlns:inkscape="http://www.inkscape.org/namespaces/inkscape"
   viewBox="0 0 24 24"
   version="1.1"
   id="svg4"
   sodipodi:docname="package-supported.svg"
   inkscape:version="0.92.3 (2405546, 2018-03-11)"
   width="24"
   height="24"
   style="fill:#000000">
  <metadata
     id="metadata10">
    <rdf:RDF>
      <cc:Work
         rdf:about="">
        <dc:format>image/svg+xml</dc:format>
        <dc:type
           rdf:resource="http://purl.org/dc/dcmitype/StillImage" />
        <dc:title></dc:title>
      </cc:Work>
    </rdf:RDF>
  </metadata>
  <defs
     id="defs8" />
  <sodipodi:namedview
     pagecolor="#ffffff"
     bordercolor="#666666"
     borderopacity="1"
     objecttolerance="10"
     gridtolerance="10"
     guidetolerance="10"
     inkscape:pageopacity="0"
     inkscape:pageshadow="2"
     inkscape:window-width="1366"
     inkscape:window-height="690"
     id="namedview6"
     showgrid="false"
     inkscape:zoom="20.625"
     inkscape:cx="12"
     inkscape:cy="12"
     inkscape:window-x="0"
     inkscape:window-y="28"
     inkscape:window-maximized="1"
     inkscape:current-layer="svg4"
     showguides="true"
     inkscape:guide-bbox="true" />
  <path
     style="fill:#c83737;stroke-width:0.03440726"
     d="m 12.012615,4.4070548 c -1.392152,0 -2.6990111,0.3735795 -3.8251951,1.025391 l 3.8251951,2.77832 3.824218,-2.77832 C 14.710649,4.7805994 13.404768,4.4070548 12.012615,4.4070548 Z M 6.8856629,6.3806879 c -1.554211,1.4027495 -2.533204,3.4320089 -2.533204,5.6855471 0,0.544701 0.0584,1.076026 0.166992,1.588867 l 3.826173,-2.780274 z m 10.2529281,0 -1.459961,4.4941401 3.827149,2.780274 c 0.108624,-0.512806 0.166015,-1.044166 0.166015,-1.588867 0,-2.2535041 -0.979026,-4.2827286 -2.533203,-5.6855471 z M 8.2655449,6.9090083 9.3231629,10.164867 11.035076,8.9207268 Z m 7.4941401,0 -2.770508,2.0117185 1.711914,1.2441402 z m -3.74707,2.7216795 -2.3164061,1.6826172 0.8847651,2.722656 h 2.862305 l 0.884765,-2.722656 z m -3.2939451,2.3935542 -2.769531,2.011719 h 3.423828 z m 6.5869131,0 -0.654296,2.011719 h 3.423828 z M 5.0174979,15.185375 c 1.092225,2.440026 3.424361,4.208063 6.1904291,4.498047 L 9.7460139,15.185375 Z m 5.9365231,0 1.058594,3.25586 1.057617,-3.25586 z m 3.324219,0 -1.461914,4.498047 c 2.766137,-0.289984 5.09824,-2.058021 6.190429,-4.498047 z"
     id="path837"
     inkscape:connector-curvature="0" />
</svg>
