<svg xmlns="http://www.w3.org/2000/svg" width="24" height="24">
  <g fill="#333">
    <path d="M14.2673911 1.2241777l-.2479487 1.70321322c-.08837025-.0466978-.18043839-.0933956-.27108426-.1364429L10.78658005.36508048h-.96472431l.69724313 1.76669378c-.15957846.00592611-.31915692.01403304-.47603307.0308158L6.77350895 1.5437613l-.8504688.45559981 1.3283034 1.10301617c-.17546045.10472633-.34589555.21580545-.51092604.3350389L3.57696184 4.52910163l-.5123009.81737736 1.69733451.29692213c-.13193905.23258821-.25387482.47105513-.35860114.71947792L2.27862088 8.91295797l-.0154079.96472431 1.60939095-.62560824c.0063528.22438647.02266147.44654472.0498742.66505247l-.55677048 3.2962955.4719559.84141369 1.07532935-1.35011151c.11245398.1800117.2325882.3540973.3604501.52230418l.18043838 1.1918605h9.87390526l2.78897253-1.04811662.49006611-.83098373-1.70231245-.24979765c.08614203-.16185409.16593126-.32731125.2394151-.49684559l2.14975793-2.53832152.02313556-.96425023-1.61299403.61200188c-.00365048-.1799643-.01000328-.35950191-.02721272-.53586313l.64964456-3.2623033-.4470188-.85454596-1.1138728 1.31744676c-.1464462-.2511251-.30825287-.49096688-.4841874-.72033128L15.099323 1.71386454zm-3.48081105 8.7895208c-.53263933 0-.96472431-.43203757-.96472431-.96472431s.43203757-.96472432.96472431-.96472432.96477173.43203758.96477173.96472432c-.00004741.53268674-.43208499.96472431-.96477173.96472431zM.74404123 23.48584673h19.9473073v-8.16030948H.74404123zM22.33473168 9.4052997l-1.26757257-.59659397-1.56586955 2.8333947zM19.82542442 13.07470348l3.60502245.18996758-.5584772-1.28482941z"/>
  </g>
</svg>
