<?xml version="1.0" encoding="UTF-8" standalone="no"?>
<svg
   xmlns:dc="http://purl.org/dc/elements/1.1/"
   xmlns:cc="http://creativecommons.org/ns#"
   xmlns:rdf="http://www.w3.org/1999/02/22-rdf-syntax-ns#"
   xmlns:svg="http://www.w3.org/2000/svg"
   xmlns="http://www.w3.org/2000/svg"
   xmlns:sodipodi="http://sodipodi.sourceforge.net/DTD/sodipodi-0.dtd"
   xmlns:inkscape="http://www.inkscape.org/namespaces/inkscape"
   viewBox="0 0 48 48"
   fill="#000000"
   version="1.1"
   id="svg6"
   sodipodi:docname="tag-new.svg"
   inkscape:version="0.92.3 (2405546, 2018-03-11)">
  <metadata
     id="metadata12">
    <rdf:RDF>
      <cc:Work
         rdf:about="">
        <dc:format>image/svg+xml</dc:format>
        <dc:type
           rdf:resource="http://purl.org/dc/dcmitype/StillImage" />
      </cc:Work>
    </rdf:RDF>
  </metadata>
  <defs
     id="defs10" />
  <sodipodi:namedview
     pagecolor="#ffffff"
     bordercolor="#666666"
     borderopacity="1"
     objecttolerance="10"
     gridtolerance="10"
     guidetolerance="10"
     inkscape:pageopacity="0"
     inkscape:pageshadow="2"
     inkscape:window-width="640"
     inkscape:window-height="480"
     id="namedview8"
     showgrid="false"
     showguides="true"
     inkscape:guide-bbox="true"
     inkscape:zoom="4.9166667"
     inkscape:cx="24"
     inkscape:cy="25.113402"
     inkscape:window-x="0"
     inkscape:window-y="28"
     inkscape:window-maximized="0"
     inkscape:current-layer="svg6" />
  <path
     d="m37 1v6h-6v4h6v6h4v-6h6v-4h-6v-6h-4"
     id="path2"
     style="fill:#1a1a1a" />
  <path
     d="m5 7c-2.21 0-4 1.79-4 4v14c0 1.11.45 2.11 1.18 2.83l18 18c.72.72 1.72 1.17 2.82 1.17 1.11 0 2.11-.45 2.83-1.17l14-14c.72-.73 1.17-1.73 1.17-2.83 0-1.11-.45-2.11-1.18-2.84l-17.99-17.99c-.72-.72-1.72-1.17-2.83-1.17h-14m3 4c1.66 0 3 1.34 3 3 0 1.66-1.34 3-3 3-1.66 0-3-1.34-3-3 0-1.66 1.34-3 3-3z"
     id="path4"
     style="fill:#1a1a1a" />
</svg>
