<svg xmlns="http://www.w3.org/2000/svg" width="24" height="24"><path d="M18.66 1.84C16.98.75 14.67.2 11.8.2S6.62.75 4.94 1.84c-2.02 1.31-3.09 3.4-3.09 6.04 0 3.56 2.86 8.32 3.74 9.69 1 1.57 2.09 3 3.07 4.02 1.25 1.3 2.25 1.9 3.14 1.9.89 0 1.89-.6 3.14-1.9A26.82 26.82 0 0 0 18 17.57c.88-1.37 3.74-6.13 3.74-9.69 0-2.64-1.07-4.73-3.09-6.04z" fill="#483737"/><path d="M14.55 4.18a2 2 0 0 0-1.63 1 2 2 0 0 0-.2 1.54l-2.64 1.52a2 2 0 0 0-1.43-.6 2 2 0 0 0-2 2 2 2 0 0 0 2 2 2 2 0 0 0 1.42-.6l2.65 1.53a2 2 0 0 0 .2 1.54 2 2 0 0 0 2.73.73 2 2 0 0 0 .73-2.73 2 2 0 0 0-2.73-.73 2 2 0 0 0-.43.33l-2.65-1.53a2 2 0 0 0 .08-.54 2 2 0 0 0-.07-.53l2.64-1.53a2 2 0 0 0 .43.33 2 2 0 0 0 2.73-.73 2 2 0 0 0-.73-2.73 2 2 0 0 0-1.1-.27z" fill="#fff"/></svg>