<svg xmlns="http://www.w3.org/2000/svg" width="24" height="24"><path d="M18.66 1.84C16.98.75 14.67.2 11.8.2S6.62.75 4.94 1.84c-2.02 1.31-3.09 3.4-3.09 6.04 0 3.56 2.86 8.32 3.74 9.69 1 1.57 2.09 3 3.07 4.02 1.25 1.3 2.25 1.9 3.14 1.9.89 0 1.89-.6 3.14-1.9A26.82 26.82 0 0 0 18 17.57c.88-1.37 3.74-6.13 3.74-9.69 0-2.64-1.07-4.73-3.09-6.04z" fill="#483737"/><path d="M11.76 4.4c-.6 0-1.2.08-1.78.23-2.72.69-4.74 3.13-4.7 5.77H3.8l2.3 3 2.18-3H6.84c0-1.1.43-2.13 1.22-2.96a5.15 5.15 0 0 1 6.18-.94c.65.8 2.1-.08 1.34-.9a6.53 6.53 0 0 0-3.82-1.2zm5.75 3l-2.2 3h1.44c0 1.11-.43 2.14-1.22 2.97a5.15 5.15 0 0 1-6.19.94c-.65-.8-2.09.08-1.33.9a6.86 6.86 0 0 0 5.6.96c2.71-.68 4.73-3.12 4.7-5.77h1.48z" fill="#fff"/></svg>