<svg xmlns="http://www.w3.org/2000/svg" width="24" height="24" version="1"><defs><linearGradient id="a"><stop offset="0"/><stop offset="1" stop-opacity="0"/></linearGradient></defs><g fill="#1a1a1a"><path d="M20.693 14.622c-.563-.292-.678-.917-.255-1.39l2.273-2.537c.423-.473.251-.836-.383-.807l-1.507.07c-.634.028-1.046-.456-.916-1.077l.7-3.333c.13-.62-.2-.849-.734-.506l-1.273.816c-.535.342-1.133.129-1.33-.475l-1.06-3.235c-.197-.604-.598-.636-.89-.072l-.693 1.339c-.291.564-.917.679-1.39.255L10.697 1.4c-.473-.424-.836-.251-.807.383l.069 1.505c.029.634-.456 1.046-1.077.916l-3.335-.7c-.621-.13-.849.2-.506.735l.816 1.271c.343.535.13 1.133-.474 1.33L2.145 7.898c-.604.197-.636.597-.072.889l1.34.693c.564.292.68.917.255 1.39l-2.272 2.537c-.424.473-.251.836.383.807l1.506-.07c.635-.029 1.047.456.916 1.077l-.7 3.332c-.13.621.2.85.735.507l1.273-.816c.534-.343 1.133-.13 1.33.474l1.06 3.236c.197.603.597.636.889.072l.693-1.34c.292-.563.918-.678 1.391-.255l2.538 2.272c.473.423.836.25.807-.383l-.07-1.505c-.028-.634.456-1.047 1.078-.916l3.334.7c.621.13.85-.201.506-.735l-.815-1.272c-.343-.534-.13-1.133.473-1.33l3.239-1.058c.603-.198.636-.598.072-.89zm-8.75 3.125A5.649 5.649 0 0 1 6.3 12.105c0-3.11 2.531-5.64 5.643-5.64a5.649 5.649 0 0 1 5.644 5.64 5.649 5.649 0 0 1-5.644 5.642z"/><path d="M11.943 7.618a4.494 4.494 0 0 0-4.49 4.488 4.494 4.494 0 0 0 4.49 4.487 4.494 4.494 0 0 0 4.49-4.487 4.494 4.494 0 0 0-4.49-4.488zm0 5.781a1.294 1.294 0 1 1 0-2.588 1.294 1.294 0 0 1 0 2.588z"/></g></svg>