<?xml version="1.0" encoding="UTF-8" standalone="no"?><svg xmlns:dc="http://purl.org/dc/elements/1.1/" xmlns:cc="http://creativecommons.org/ns#" xmlns:rdf="http://www.w3.org/1999/02/22-rdf-syntax-ns#" xmlns="http://www.w3.org/2000/svg" xmlns:xlink="http://www.w3.org/1999/xlink" viewBox="0 0 48 48"><metadata><rdf:RDF><cc:Work><dc:format>image/svg+xml</dc:format><dc:type rdf:resource="http://purl.org/dc/dcmitype/StillImage"/><dc:title/></cc:Work></rdf:RDF></metadata><defs><linearGradient id="a"><stop offset="0"/><stop offset="1" stop-opacity="0"/></linearGradient><linearGradient xlink:href="#a" id="b" x1="13.71" y1="8.9" x2="41.26" y2="33.3" gradientUnits="userSpaceOnUse"/></defs><path d="M40.89 17.42l-7.83 30.55H14.94L7.11 17.42 13.01.03H35z" fill="#c83737"/><path d="M18.28 43.82l-3.34 4.15h18.12l-3.34-4.15z" fill="#d35f5f"/><path d="M29.72 43.82l3.34 4.15 7.83-30.55-4.44.16zm-22.6-26.4l7.82 30.55 3.34-4.15-6.73-26.24zM13.01.03l3.08 4.15h15.8l3.1-4.15z" fill="#a02c2c"/><path d="M7.11 17.42L13.01.03l3.09 4.15-4.55 13.4zm29.34.16L31.9 4.18 34.99.03l5.9 17.39z" fill="#782121"/><path d="M30.45 11.19l-.5.74-.05 2.22-2.9.48 8.12 8.12 1.33-5.17-.2-.59zm-6.2 1.88l-4.56.63-2.81 2.9-.54 4.93 15.2 15.2 3.36-13.18z" fill="url(#b)" opacity=".52"/><path style="line-height:normal;text-indent:0;text-align:start;text-decoration-line:none;text-transform:none;marker:none" d="M29.37 11.19v2.37H27v1.07h2.37V17h1.08v-2.37h2.42v-1.07h-2.42v-2.37h-1.08zm-8.24 1.29c-1.77 0-3.55.48-4.8 1.83a5.98 5.98 0 0 0 0 7.22c2 2.15 5.34 2.15 7.93 1.18v-2.69a4.47 4.47 0 0 1-3.72.8c-2.05-.48-2.42-3.12-1.56-4.73 1.13-1.78 3.77-1.46 5.28-.32v-2.7a10.02 10.02 0 0 0-3.13-.59zm8.24 6.46v2.43H27v1.07h2.37v2.37h1.08V22.5h2.42v-1.08h-2.42v-2.37l-1.08-.1z" fill="#faa"/></svg>