<svg xmlns="http://www.w3.org/2000/svg" xmlns:xlink="http://www.w3.org/1999/xlink" width="48" height="48" version="1"><defs><linearGradient id="a"><stop offset="0"/><stop offset="1" stop-opacity="0"/></linearGradient><radialGradient xlink:href="#b" id="e" cx="27.1" cy="20.3" fx="27.1" fy="20.3" r="13.9" gradientTransform="matrix(.69144 0 0 .69146 7.95 7.85)" gradientUnits="userSpaceOnUse"/><linearGradient id="b" y2="3.08" gradientUnits="userSpaceOnUse" x2="18.38" gradientTransform="translate(-46.48 -.82) scale(.95844)" y1="44.98" x1="18.38"><stop offset="0" stop-color="#409fc2"/><stop offset="1" stop-color="#1f566a"/></linearGradient><linearGradient id="c"><stop offset="0" stop-color="#00000d"/><stop offset="1" stop-opacity=".02"/></linearGradient><linearGradient xlink:href="#c" id="d" gradientUnits="userSpaceOnUse" gradientTransform="matrix(.69144 0 0 .69144 7.95 7.85)" x1="14.41" y1="8.74" x2="44" y2="32.7"/></defs><path d="M40.89 17.42l-7.83 30.55H14.94L7.11 17.42 13.01.03H35z" fill="#8a6f91"/><path d="M18.28 43.82l-3.34 4.15h18.12l-3.34-4.15z" fill="#a793ac"/><path d="M34.09 43.95l5.51-21.52-8.97-8.84-.78 1.06-3-2.92-1.01 3.64-2.23-2.22-.15.9.6 3.56-.87 2.5-6.07-4.15-2.44-.06 4.72 4.7-2.8.9 2.67 2.68-2.68 2.27z" opacity=".65" fill="url(#d)"/><path d="M29.72 43.82l3.34 4.15 7.83-30.55-4.44.16zm-22.6-26.4l7.82 30.55 3.34-4.15-6.73-26.24zM13.01.03l3.08 4.15h15.8L34.99.03z" fill="#67536c" stroke-width=".12"/><path d="M7.11 17.42L13.01.03l3.09 4.15-4.55 13.4zm29.34.16L31.9 4.18 34.99.03l5.9 17.39z" fill="#453748"/><path d="M26.32 11.55c.08 0 .17 0 .28.03 1.61.41-.35 2.9-.41 3.89-.07 1 .25.92.65 1.04.54.16 1.08-.12 1.56-.7.67-.82 1.34-3.13 2.3-2.2.95.95-1.4 1.48-1.6 2.42-.08.37.54.06.63.51.05.36-.42.31-.45.79 0 .08.09.74.6.72 1.07-.05 2.95-1.19 3.05.12.09 1.2-2.83.2-3.17.32-.34.13.1.35.21.87.07.34-.57.8-.57 1.12 0 .32 4.37-.25 3.97 1.38-.4 1.62-3.23-.82-3.64-.4-.4.4-.55-.07-.73.23-.2.3.2.5.43 1.22.23.71 4.9 1.3 3.76 3.4-1.13 2.12-3.54-2.96-5.6-2.34-.58.18-.8.78-1.08 1.16-.3.37 1.31 1.75.57 2.36-.46.4-.5-1.74-1.3-1.96-.8-.22-1.76.25-2.17.66-.4.4.47 4.5-1.8 4.58-2.27.1.54-3.64.78-4.93.24-1.28-.14-1.61-.43-1.8-.3-.19-.73-.69-1.66-.43-.95.27-3.32 4.1-4.37 2.34-1.05-1.76 1.8-2.2 3.61-2.63.37-.1.45-1.04.45-1.2 0-.16.08-.49-.04-.68-.16-.27-.13-.58-.8-.47-.68.1-3.37 1.43-2.98-.26.39-1.69 1.98-.08 2.92-.37s1.15-.97 1.34-1.27c.2-.3-1.54-1.03-1.43-1.14.12-.1-6.4-1.31-4.77-3.75 1.61-2.45 4.9 2.28 5.36 2.9.45.6 3.15 1.47 3.58-.7.14-.72-1.79-2.76-.56-3.23 1.66-.65 1.28 2.62 1.46 2.98.16.36.69.7 1.28-.55.54-1.16-.44-4.01.77-4.03z" fill="url(#e)"/></svg>