<svg xmlns="http://www.w3.org/2000/svg" xmlns:xlink="http://www.w3.org/1999/xlink" width="48" height="48" version="1"><defs><linearGradient id="g"><stop stop-color="#a05a2c" offset="0"/><stop stop-color="#432009" offset="1"/></linearGradient><linearGradient id="f"><stop stop-color="#ffb380" offset="0"/><stop stop-color="#c87137" offset=".82"/><stop stop-color="#c87137" offset="1"/></linearGradient><linearGradient id="h"><stop offset="0"/><stop offset="1" stop-opacity="0"/></linearGradient><linearGradient id="a"><stop offset="0"/><stop offset="1" stop-opacity="0"/></linearGradient><linearGradient id="b"><stop offset="0" stop-color="#a3a3a3"/><stop offset="1" stop-color="#bababa"/></linearGradient><linearGradient id="c"><stop offset="0" stop-color="#ffb380"/><stop offset=".36" stop-color="#c87137"/><stop offset=".67" stop-color="#c87137"/><stop offset="1" stop-color="#666"/></linearGradient><linearGradient id="d"><stop offset="0" stop-color="#a05a2c"/><stop offset=".36" stop-color="#ff7f2a"/><stop offset=".67" stop-color="#432009"/><stop offset="1"/></linearGradient><linearGradient id="e"><stop offset="0" stop-color="#1c2422"/><stop offset="1" stop-color="#1c2422" stop-opacity="0"/></linearGradient><linearGradient gradientTransform="matrix(.75128 0 0 .75128 5.54 4.94)" xlink:href="#g" id="k" x1="24.57" y1="20.2" x2="37.26" y2="41.82" gradientUnits="userSpaceOnUse"/><linearGradient xlink:href="#h" id="j" gradientUnits="userSpaceOnUse" x1="6.82" y1="4.64" x2="46.65" y2="36.96"/><radialGradient id="i" cx="22.9" cy="45.87" r="7.91" gradientTransform="matrix(.75875 0 0 .32584 -.8 19.48)" gradientUnits="userSpaceOnUse"><stop offset="0"/><stop offset="1" stop-opacity="0"/></radialGradient></defs><path d="M33.06 47.97H14.94L7.11 17.42 13.01.03H35l5.9 17.39z" fill="#d3bc5f"/><path d="M34.04 44.14L40 20.87l-8.42-8.41-14.29 6.82-1.3 6.8z" opacity=".55" fill="url(#j)"/><path d="M32.4 13.54c1.8 3.05.63 7.9-2.98 11.51-4.07 4.08-9.7 5.04-12.57 2.18l-.05-.06c.42-1.5 1.91-4.57 7.27-6.46 2.64-.92 4.5-2.21 5.82-3.53a11.69 11.69 0 0 0 2.5-3.64z" fill="url(#k)"/><path d="M15.99 26.08c-1.8-3.05-.64-7.9 2.97-11.51 4.07-4.07 9.7-5.04 12.57-2.17l.05.06c-.42 1.5-1.91 4.56-7.27 6.45-2.65.92-4.5 2.22-5.82 3.53a11.69 11.69 0 0 0-2.5 3.64z" fill="#c87137"/><path d="M18.28 43.82l-3.34 4.15h18.12l-3.34-4.15z" fill="#decd87"/><path d="M29.72 43.82l3.34 4.15 7.83-30.55-4.44.16zm-22.6-26.4l7.82 30.55 3.34-4.15-6.73-26.24zM13.01.03l3.08 4.15h15.8L34.99.03z" fill="#c8ab37" stroke-width=".12"/><path d="M7.11 17.42L13.01.03l3.09 4.15-4.55 13.4zm29.34.16L31.9 4.18 34.99.03l5.9 17.39z" fill="#a0892c"/></svg>