<svg xmlns="http://www.w3.org/2000/svg" xmlns:xlink="http://www.w3.org/1999/xlink" width="48" height="48" version="1"><defs><linearGradient id="d"><stop offset="0" stop-color="#0e0000"/><stop offset="1" stop-opacity="0"/></linearGradient><linearGradient id="a"><stop offset="0"/><stop offset="1" stop-opacity="0"/></linearGradient><radialGradient id="c" cx="17.06" cy="41.06" r="5.74" fx="14.11" fy="38.98" gradientTransform="matrix(.66333 0 -.10859 .6358 22 3.5)" gradientUnits="userSpaceOnUse"><stop offset="0" stop-color="#fff"/><stop offset="1" stop-color="#999"/></radialGradient><linearGradient id="b"><stop offset="0" stop-color="#a3a3a3"/><stop offset="1" stop-color="#bababa"/></linearGradient><linearGradient xlink:href="#c" id="f" x1="18.1" y1="21.71" x2="28.95" y2="22" gradientUnits="userSpaceOnUse"/><linearGradient xlink:href="#d" id="e" gradientUnits="userSpaceOnUse" x1="12.11" y1="10.35" x2="52.35" y2="42.02"/></defs><path d="M40.89 17.42l-7.83 30.55H14.94L7.11 17.42 13.01.03H35z" fill="#2c5aa0"/><path d="M33.04 47.97h.02l6.97-27.22L28.3 9.05l-3.38 3.9 1.58 4.41-1.34.9-3.47 1.35-3.17 2.88 4.14 4.32-2.37 8.34z" fill="url(#e)" opacity=".55"/><path d="M18.28 43.82l-3.34 4.15h18.12l-3.34-4.15z" fill="#3771c8"/><path d="M29.72 43.82l3.34 4.15 7.83-30.55-4.44.16zm-22.6-26.4l7.82 30.55 3.34-4.15-6.73-26.24zM13.01.03l3.08 4.15h15.8L34.99.03z" fill="#214478" stroke-width=".12"/><path d="M7.11 17.42L13.01.03l3.09 4.15-4.55 13.4zm29.34.16L31.9 4.18 34.99.03l5.9 17.39z" fill="#162d50"/><path d="M26.85 8.5c-2.4-.12-3.66 3.75-1.38 4.81 1.85.76 3.87-1.14 3.42-3.04a2.06 2.06 0 0 0-2.04-1.77zm-1.03 8.53c-.4-.03-.84.1-1.33.48-2.36 1.03-4.33 2.7-6.39 4.2.26.7.55 1.27 1.17.5.77-.46 3.34-2.46 3.08-.5-.82 3.63-1.82 7.22-2.59 10.85-.8 2 1.02 3.8 2.92 2.5 2.02-.83 3.75-2.19 5.53-3.43-.24-.6-.4-1.45-1.07-.67-.88.4-2.8 2.28-3.16.73.74-3.93 2.1-7.71 2.98-11.6.6-1.35.02-2.96-1.14-3.06z" fill="url(#f)"/></svg>