<?xml version="1.0" encoding="UTF-8" standalone="no"?><svg xmlns:dc="http://purl.org/dc/elements/1.1/" xmlns:cc="http://creativecommons.org/ns#" xmlns:rdf="http://www.w3.org/1999/02/22-rdf-syntax-ns#" xmlns="http://www.w3.org/2000/svg" xmlns:xlink="http://www.w3.org/1999/xlink" viewBox="0 0 48 48"><metadata><rdf:RDF><cc:Work><dc:format>image/svg+xml</dc:format><dc:type rdf:resource="http://purl.org/dc/dcmitype/StillImage"/><dc:title/></cc:Work></rdf:RDF></metadata><defs><linearGradient id="a"><stop offset="0"/><stop offset="1" stop-opacity="0"/></linearGradient><linearGradient xlink:href="#a" id="b" x1="12.59" y1="9.13" x2="41" y2="29.53" gradientUnits="userSpaceOnUse"/></defs><path d="M40.89 17.42l-7.83 30.55H14.94L7.11 17.42 13.01.03H35z" fill="#c83737"/><path d="M18.28 43.82l-3.34 4.15h18.12l-3.34-4.15z" fill="#d35f5f"/><path d="M29.72 43.82l3.34 4.15 7.83-30.55-4.44.16zm-22.6-26.4l7.82 30.55 3.34-4.15-6.73-26.24zM13.01.03l3.08 4.15h15.8l3.1-4.15z" fill="#a02c2c"/><path d="M7.11 17.42L13.01.03l3.09 4.15-4.55 13.4zm29.34.16L31.9 4.18 34.99.03l5.9 17.39z" fill="#782121"/><path d="M17.06 22.14l.72-6.99 3.63-1.45 3.22-.54 3.18 3.18L28.93 14l1.46 1.46L31.5 14l4.67 4.67-4.6 17.98z" fill="url(#b)" opacity=".61"/><path style="line-height:normal;text-indent:0;text-align:start;text-decoration-line:none;text-transform:none;marker:none" d="M21.9 12.62a9.34 9.34 0 0 0-.93 0 9.34 9.34 0 0 0-.14 0c-.45 0-.9.1-1.29.2a4.9 4.9 0 0 0-3.95 3.95c-.3 2.03.2 4.45 2.02 5.64 2.08 1.28 4.8 1.18 7.02.44v-2.07c.15-1-.4-.35-.99-.1-1.38.59-3.4.59-4.25-.9-.69-1.28-.64-3.06.45-4.15 1.33-1.13 3.46-.74 4.8.2v-2.67a9.34 9.34 0 0 0-2.75-.54zM27.74 14l-.5 2.03h-1.78v1.14h1.49l-.35 1.48h-1.78v1.14h1.48l-.49 2.07h1.19l.5-2.07h1.42l-.5 2.07h1.15l.5-2.07h1.82v-1.14h-1.48l.34-1.48h1.73v-1.14h-1.48l.5-2.03h-1.14l-.5 2.03h-1.43l.5-2.03zm.4 3.17h1.43l-.4 1.48H27.8z" fill="#e9afaf"/></svg>