<?xml version="1.0" encoding="UTF-8" standalone="no"?>
<svg
   xmlns:dc="http://purl.org/dc/elements/1.1/"
   xmlns:cc="http://creativecommons.org/ns#"
   xmlns:rdf="http://www.w3.org/1999/02/22-rdf-syntax-ns#"
   xmlns:svg="http://www.w3.org/2000/svg"
   xmlns="http://www.w3.org/2000/svg"
   xmlns:sodipodi="http://sodipodi.sourceforge.net/DTD/sodipodi-0.dtd"
   xmlns:inkscape="http://www.inkscape.org/namespaces/inkscape"
   width="24"
   height="24"
   version="1.1"
   id="svg6"
   sodipodi:docname="emblem-multimedia.svg"
   inkscape:version="0.92.4 (5da689c313, 2019-01-14)">
  <metadata
     id="metadata12">
    <rdf:RDF>
      <cc:Work
         rdf:about="">
        <dc:format>image/svg+xml</dc:format>
        <dc:type
           rdf:resource="http://purl.org/dc/dcmitype/StillImage" />
        <dc:title></dc:title>
      </cc:Work>
    </rdf:RDF>
  </metadata>
  <defs
     id="defs10" />
  <sodipodi:namedview
     pagecolor="#ffffff"
     bordercolor="#666666"
     borderopacity="1"
     objecttolerance="10"
     gridtolerance="10"
     guidetolerance="10"
     inkscape:pageopacity="0"
     inkscape:pageshadow="2"
     inkscape:window-width="1112"
     inkscape:window-height="480"
     id="namedview8"
     showgrid="false"
     inkscape:zoom="9.8333333"
     inkscape:cx="1.0677966"
     inkscape:cy="12"
     inkscape:window-x="0"
     inkscape:window-y="25"
     inkscape:window-maximized="0"
     inkscape:current-layer="svg6" />
  <path
     d="M 18.66,1.84 C 16.98,0.75 14.67,0.2 11.8,0.2 8.93,0.2 6.62,0.75 4.94,1.84 2.92,3.15 1.85,5.24 1.85,7.88 c 0,3.56 2.86,8.32 3.74,9.69 1,1.57 2.09,3 3.07,4.02 1.25,1.3 2.25,1.9 3.14,1.9 0.89,0 1.89,-0.6 3.14,-1.9 A 26.82,26.82 0 0 0 18,17.57 c 0.88,-1.37 3.74,-6.13 3.74,-9.69 0,-2.64 -1.07,-4.73 -3.09,-6.04 z"
     id="path2"
     inkscape:connector-curvature="0"
     style="fill:#483737" />
  <path
     d="M 15.88,3.6 C 13.87,3.91 11.85,4.2 9.85,4.53 9.3,4.8 9.49,5.5 9.45,5.98 v 6.36 c -1.4,-0.3 -3.01,0.78 -3.03,2.27 -0.06,0.95 0.86,1.74 1.79,1.65 a 2.37,2.37 0 0 0 2.15,-2.57 v -6.7 l 5.17,-0.73 v 5.23 c -1.35,-0.39 -3.04,0.5 -3.26,1.91 -0.19,0.84 0.4,1.68 1.2,1.91 1.49,0.5 3.17,-0.95 3,-2.49 V 4.15 C 16.43,3.87 16.19,3.58 15.88,3.59 Z"
     id="path4"
     inkscape:connector-curvature="0"
     style="fill:#ffffff" />
</svg>
