<?xml version="1.0" encoding="UTF-8" standalone="no"?><svg xmlns:dc="http://purl.org/dc/elements/1.1/" xmlns:cc="http://creativecommons.org/ns#" xmlns:rdf="http://www.w3.org/1999/02/22-rdf-syntax-ns#" xmlns="http://www.w3.org/2000/svg" width="48" height="48"><metadata><rdf:RDF><cc:Work><dc:format>image/svg+xml</dc:format><dc:type rdf:resource="http://purl.org/dc/dcmitype/StillImage"/><dc:title/></cc:Work></rdf:RDF></metadata><defs><linearGradient id="a"><stop offset="0" stop-color="#c5f7e8"/><stop offset="1" stop-color="#c5f7e8" stop-opacity="0"/></linearGradient></defs><rect ry="0" y="13.43" x="35.66" height="4.9" width=".57" opacity=".43" fill="#999" paint-order="markers fill stroke"/><path d="M24 .35c-5.83 0-10.52 1.12-13.93 3.33-4.1 2.66-6.27 6.9-6.27 12.27 0 7.23 5.8 16.88 7.58 19.67a54.48 54.48 0 0 0 6.25 8.16c2.54 2.64 4.57 3.87 6.37 3.87 1.8 0 3.83-1.23 6.37-3.87 2-2.08 4.22-4.97 6.25-8.16 1.78-2.79 7.58-12.44 7.58-19.67 0-5.37-2.16-9.61-6.26-12.27C34.52 1.47 29.84.35 24 .35z" fill="#006680"/><path d="M24.244 16.992c-.563-.014-.919.135-1.385.371-1.07 1.071-1.804 2.131-2.623 3.785 1.79-.957 6.114-1.89 4.65-4.082a4.695 4.695 0 0 0-.642-.074z" fill="#c5f7e8"/><path d="M32.556 41.25a55.304 55.304 0 0 0 4.063-5.63c.89-1.396 2.787-4.506 4.46-8.17.835-1.833 1.615-3.803 2.187-5.768.571-1.965.933-3.925.933-5.733 0-1.342-.134-2.614-.4-3.808a14.08 14.08 0 0 0-1.192-3.342 12.892 12.892 0 0 0-1.959-2.834A13.82 13.82 0 0 0 37.94 3.68a17.19 17.19 0 0 0-2.798-1.453 22.05 22.05 0 0 0-3.264-1.041C29.549.629 26.92.35 24 .35c-2.915 0-5.546.28-7.873.836a22 22 0 0 0-3.262 1.04c-1.01.416-1.942.901-2.795 1.454a13.847 13.847 0 0 0-2.709 2.285 12.919 12.919 0 0 0-1.963 2.834 14.073 14.073 0 0 0-1.195 3.342 17.405 17.405 0 0 0-.402 3.808c0 1.808.362 3.768.933 5.733.572 1.965 1.352 3.935 2.188 5.767.736 1.613 1.08 2.297 1.797 3.596 1.979-1.142 2.95-2.995 2.511-3.068-.272-1.105-2.263-2.84-2.794-5.641.818-.277 3.066-.246 3.488-.445.483-.229 1.98-2.057 2.449-2.104.469-.047 1.428-.244 2.178-.619s3.746-3.434 4.402-3.809c.656-.374 2.583-.343 3.192-.296.609.046 1.187-.206 1.609-.768.422-.562 4.856-3.727 5.418-4.008.562-.281 2.071-2.078 2.844-2.078.234 0 .652.81 1.261 1.607.61.797.477 1.542.149 2.104-1.424 1.276-2.218 3.804-2.621 5.812 1.455-.683 3.434.226 4.972-.988.328.14.297 1.508.297 1.93 0 .421-.291.847-1.46 1.262-1.254.444-4.224 2.33-5.442 4.205-1.218 1.874-1.54 8.953-1.633 9.797-.094.843-.127 1.824-.174 2.574-.144 1.055 1.155 2.401 1.733 3.34z" fill="#5fd3bc"/><path d="M3.92 14.74c-.02.4-.12.78-.12 1.2 0 7.24 5.8 16.9 7.58 19.68a54.47 54.47 0 0 0 6.25 8.16c2.54 2.64 4.57 3.87 6.37 3.87 1.8 0 3.83-1.23 6.37-3.87 2-2.08 4.22-4.97 6.25-8.16 1.78-2.79 7.58-12.44 7.58-19.67 0-.43-.1-.8-.12-1.21a21.6 21.6 0 0 1-.8 4.94 43.2 43.2 0 0 1-2.2 5.77 69.59 69.59 0 0 1-4.46 8.17 54.47 54.47 0 0 1-6.25 8.16 17.98 17.98 0 0 1-3.46 2.93c-1.05.64-2 .94-2.9.94-.91 0-1.87-.3-2.92-.94-1.05-.64-2.2-1.6-3.46-2.93-2-2.08-4.21-4.97-6.25-8.16a69.6 69.6 0 0 1-4.46-8.17 43.2 43.2 0 0 1-2.19-5.77 21.6 21.6 0 0 1-.8-4.94z" opacity=".5"/></svg>