<svg xmlns="http://www.w3.org/2000/svg" xmlns:xlink="http://www.w3.org/1999/xlink" width="48" height="48" viewBox="0 0 12.7 12.7"><defs><linearGradient id="b"><stop offset="0" stop-color="#2c89a0"/><stop offset="1" stop-color="#87cdde"/></linearGradient><linearGradient id="a"><stop offset="0" stop-color="#f60"/><stop offset="1" stop-color="#fca"/></linearGradient><linearGradient xlink:href="#a" id="c" gradientUnits="userSpaceOnUse" x1="10.32" y1="292.56" x2="2.43" y2="285.31"/><linearGradient xlink:href="#b" id="d" x1="8.5" y1="290.67" x2="6.26" y2="288.33" gradientUnits="userSpaceOnUse"/></defs><path d="M6.35.1C4.81.1 3.57.38 2.66.96A3.67 3.67 0 0 0 1 4.22c0 1.91 1.54 4.47 2.01 5.2.54.85 1.13 1.61 1.65 2.16.68.7 1.21 1.03 1.69 1.03s1.01-.33 1.69-1.03c.52-.55 1.11-1.31 1.65-2.15.47-.74 2-3.3 2-5.21 0-1.42-.57-2.54-1.65-3.25A6.75 6.75 0 0 0 6.35.1z" fill="#8a6f91"/><path d="M6.13 1.12a.58.58 0 0 0-.33 1.06l.66.5H3.24a.58.58 0 1 0 0 1.17H4.7L2.31 5.6a.58.58 0 1 0 .69.95l1.22-.9a3.11 3.12 0 0 0-.01.16 3.11 3.12 0 0 0 3.11 3.12 3.11 3.12 0 0 0 3.12-3.12 3.11 3.12 0 0 0-1.36-2.57.58.58 0 0 0-.04-.03L6.51 1.25a.58.58 0 0 0-.38-.13zm1.2 2.73A1.95 1.95 0 0 1 9.28 5.8a1.95 1.95 0 0 1-1.95 1.95A1.95 1.95 0 0 1 5.38 5.8a1.95 1.95 0 0 1 1.95-1.95zm0 .98a.97.97 0 0 0-.97.97.97.97 0 0 0 .97.97.97.97 0 0 0 .97-.97.97.97 0 0 0-.97-.97z" opacity=".75" fill="#1a1a1a"/><path d="M6.37 285.37a.55.55 0 0 0-.31.98l.62.48H3.66a.55.55 0 1 0 0 1.1h1.37l-2.24 1.63a.55.55 0 1 0 .64.88l1.15-.83a2.92 2.92 0 0 0-.01.14 2.92 2.92 0 0 0 2.92 2.92 2.92 2.92 0 0 0 2.91-2.92 2.92 2.92 0 0 0-1.27-2.4.55.55 0 0 0-.03-.04l-2.37-1.82a.55.55 0 0 0-.36-.12zm1.12 2.55a1.83 1.83 0 0 1 1.83 1.83 1.83 1.83 0 0 1-1.83 1.83 1.83 1.83 0 0 1-1.82-1.83 1.83 1.83 0 0 1 1.82-1.83z" fill="url(#c)" transform="translate(0 -284.3)"/><path d="M7.5 288.84a.91.91 0 0 0-.92.91.91.91 0 0 0 .91.91.91.91 0 0 0 .92-.91.91.91 0 0 0-.92-.91z" fill="url(#d)" transform="translate(0 -284.3)"/><path d="M6.35.1C4.81.1 3.57.38 2.66.96A3.67 3.67 0 0 0 1 4.22c0 1.91 1.54 4.47 2.01 5.2.54.85 1.13 1.61 1.65 2.16.68.7 1.21 1.03 1.69 1.03s1.01-.33 1.69-1.03c.52-.55 1.11-1.31 1.65-2.15.47-.74 2-3.3 2-5.21 0-1.42-.57-2.54-1.65-3.25A6.75 6.75 0 0 0 6.35.1zm0 .03C6.91.15 7.44.2 7.9.31a5.82 5.82 0 0 1 1.6.66 3.65 3.65 0 0 1 1.24 1.36c.14.27.25.57.32.88a4.61 4.61 0 0 1-.14 2.53c-.15.52-.36 1.04-.58 1.52-.44.97-.95 1.8-1.18 2.17-.54.84-1.13 1.6-1.65 2.15-.34.35-.64.61-.92.78a.96.96 0 0 1-.24.1.96.96 0 0 1-.24-.1 4.76 4.76 0 0 1-.92-.78 14.41 14.41 0 0 1-1.65-2.15c-.23-.37-.74-1.2-1.18-2.17-.22-.48-.43-1-.58-1.52a4.6 4.6 0 0 1-.14-2.52 3.73 3.73 0 0 1 .84-1.64 3.65 3.65 0 0 1 1.45-1c.27-.1.56-.2.87-.27.46-.1 1-.16 1.55-.18z" opacity=".2"/></svg>