<?xml version="1.0" encoding="UTF-8" standalone="no"?><svg xmlns:dc="http://purl.org/dc/elements/1.1/" xmlns:cc="http://creativecommons.org/ns#" xmlns:rdf="http://www.w3.org/1999/02/22-rdf-syntax-ns#" xmlns="http://www.w3.org/2000/svg" xmlns:xlink="http://www.w3.org/1999/xlink" width="48" height="48"><metadata><rdf:RDF><cc:Work><dc:format>image/svg+xml</dc:format><dc:type rdf:resource="http://purl.org/dc/dcmitype/StillImage"/><dc:title/></cc:Work></rdf:RDF></metadata><defs><linearGradient id="c"><stop offset="0"/><stop offset="1" stop-opacity="0"/></linearGradient><linearGradient id="b"><stop offset="0" stop-color="#010000"/><stop offset="1" stop-color="#fff" stop-opacity=".01"/></linearGradient><linearGradient gradientTransform="translate(-11.26 -9.12) scale(1.47246)" xlink:href="#a" id="f" x1="23.68" y1="12.15" x2="23.65" y2="26.74" gradientUnits="userSpaceOnUse"/><linearGradient id="a"><stop offset="0" stop-color="#999"/><stop offset="1" stop-color="#fff"/></linearGradient><linearGradient xlink:href="#b" id="e" gradientUnits="userSpaceOnUse" x1="13.78" y1="10.63" x2="52.87" y2="46.04"/><linearGradient xlink:href="#c" id="d" gradientUnits="userSpaceOnUse" x1="12.71" y1="8.47" x2="49.88" y2="45.84"/></defs><path fill="#c83737" d="M24 .35c-5.83 0-10.52 1.12-13.93 3.33-4.1 2.66-6.27 6.9-6.27 12.27 0 7.23 5.8 16.88 7.58 19.67a54.48 54.48 0 0 0 6.25 8.16c2.54 2.64 4.57 3.87 6.37 3.87 1.8 0 3.83-1.23 6.37-3.87 2-2.08 4.22-4.97 6.25-8.16 1.78-2.79 7.58-12.44 7.58-19.67 0-5.37-2.16-9.61-6.26-12.27C34.52 1.47 29.84.35 24 .35z"/><path opacity=".7" fill="url(#d)" d="M27.85 45.92c.8-.6 1.6-1.18 2.52-2.14 2-2.08 4.22-4.97 6.25-8.16.89-1.4 2.78-4.5 4.46-8.17a43.2 43.2 0 0 0 2.19-5.77c.38-1.3.46-2.53.61-3.77l-9.1-9.1-21.8 22.25z"/><path fill="#c8b7b7" d="M24 4.42a15.58 15.58 0 1 0 0 31.16 15.58 15.58 0 0 0 0-31.16z"/><path fill="url(#e)" d="M18.82 34.63c.67.24 1.33.5 2.04.64a15.66 15.66 0 0 0 16.06-6.56 15.54 15.54 0 0 0 2.35-11.85c-.15-.7-.4-1.37-.64-2.04l-5.6-5.6L14.5 22.5l-.75 7.06z"/><path d="M16 8.94c-.4 0-.78.33-.83.73l-1.45 11.87c-.05.4-.1 1.06-.1 1.47v5.93c0 .4.34.74.75.74h19.26c.4 0 .74-.34.74-.74V23c0-.4-.03-1.07-.07-1.48L33.13 9.67a.84.84 0 0 0-.81-.73zm-.15 14.81h16.3c.4 0 .74.34.74.74v2.97c0 .4-.33.74-.74.74h-16.3a.74.74 0 0 1-.74-.74v-2.97c0-.4.33-.74.74-.74z" fill="url(#f)"/><path fill="#333" d="M17.48 25.23H30.8c.42 0 .74.34.74.74 0 .42-.32.74-.74.74H17.48a.74.74 0 0 1 0-1.48z"/><path opacity=".2" d="M36.89 3.07c4.03 2.78 6.17 7.1 6.17 12.54 0 7.53-6.05 17.6-7.9 20.5a56.77 56.77 0 0 1-6.52 8.5 19.88 19.88 0 0 1-3.23 2.8c1.45-.47 3.06-1.65 4.96-3.63 2-2.08 4.22-4.97 6.25-8.16 1.78-2.79 7.58-12.44 7.58-19.67 0-5.37-2.16-9.61-6.27-12.27-.33-.22-.68-.41-1.04-.61zm-25.74.04c-.36.2-.71.39-1.05.6C6 6.37 3.83 10.61 3.83 16c0 7.22 5.8 16.88 7.59 19.67a54.48 54.48 0 0 0 6.25 8.16c1.9 1.98 3.51 3.16 4.96 3.63-1-.66-2.06-1.57-3.23-2.8a56.77 56.77 0 0 1-6.51-8.5c-1.86-2.9-7.91-12.97-7.91-20.5 0-5.44 2.13-9.76 6.17-12.54z"/><path d="M24 10.98a1.62 1.22 0 0 0-1.63 1.22 1.62 1.22 0 0 0 .02.15l-.01.08.41 5.29a1.1 1.1 0 0 0 1.03 1l.04.01H24.15a1.1 1.1 0 0 0 1.09-1.01l.38-5.5a.91.91 0 0 0-.43-.84 1.62 1.22 0 0 0-1.2-.4zm0 8.11a.98.96 0 0 0-.99.96.98.96 0 0 0 .98.97.98.96 0 0 0 .99-.97.98.96 0 0 0-.99-.96z" fill="#c83737"/></svg>