<svg xmlns="http://www.w3.org/2000/svg" width="24" height="24" version="1"><defs><linearGradient id="a"><stop offset="0"/><stop offset="1" stop-opacity="0"/></linearGradient></defs><path d="M1.58 12.826h1.753c.37 4.205 3.738 7.554 7.924 7.924v1.752c0 .428.35.798.799.798.428 0 .798-.35.798-.798V20.75c4.205-.37 7.554-3.738 7.924-7.924h1.752c.429 0 .798-.35.798-.799a.802.802 0 0 0-.798-.798h-1.752c-.37-4.205-3.738-7.554-7.924-7.924V1.553a.802.802 0 0 0-.798-.798.802.802 0 0 0-.799.798v1.752c-4.205.37-7.554 3.738-7.924 7.924H1.581a.79.79 0 0 0-.798.798c0 .448.37.799.798.799zm6.562-1.597H4.93c.37-3.33 3.017-5.977 6.327-6.327v3.212c0 .428.35.798.799.798.428 0 .798-.35.798-.798V4.902c3.33.37 5.977 3.017 6.327 6.327H15.97a.802.802 0 0 0-.798.798c0 .429.35.799.798.799h3.212c-.37 3.329-3.017 5.977-6.327 6.327v-3.212a.802.802 0 0 0-.798-.798.802.802 0 0 0-.799.798v3.212c-3.329-.37-5.977-3.017-6.327-6.327h3.212c.429 0 .798-.35.798-.799a.815.815 0 0 0-.798-.798z" fill="#1a1a1a"/></svg>