<svg xmlns="http://www.w3.org/2000/svg" width="24" height="24" version="1"><defs><linearGradient id="b"><stop offset="0" stop-color="#262626"/><stop offset="1" stop-color="#828282"/></linearGradient><linearGradient id="c"><stop offset="0" stop-color="#f3f7fa"/><stop offset="1" stop-color="#fdfeff"/></linearGradient><linearGradient id="d"><stop offset="0"/><stop offset="1" stop-opacity="0"/></linearGradient><linearGradient id="a"><stop offset="0" stop-color="#f6b2ee"/><stop offset=".262" stop-color="#d979cd"/><stop offset=".661" stop-color="#753da6"/><stop offset="1" stop-color="#0f1027"/></linearGradient></defs><path d="M19.134 16.745c0 .535-.395.97-.88.97h-1.467v-.647h1.467c.162 0 .293-.145.293-.323v-5.529c0-.178-.131-.323-.293-.323h-1.467v-.647h1.467c.485 0 .88.435.88.97zm.68.285c0 .565-.504 1.025-1.125 1.025h-1.877v-.683h1.877c.207 0 .375-.153.375-.342v-5.837c0-.189-.168-.342-.375-.342h-1.877v-.682h1.877c.62 0 1.126.459 1.126 1.024zm.597.42c0 .655-.605 1.187-1.35 1.187h-2.25v-.791h2.25c.25 0 .45-.177.45-.396v-6.766c0-.219-.2-.396-.45-.396h-2.25v-.792h2.25c.745 0 1.35.533 1.35 1.188zM15.645 5.806a.45.45 0 0 0-.654.401v3.8a.45.45 0 0 1-.9 0v-1.82c0-.355 0-.89-.327-1.365-.381-.553-1.089-.833-2.102-.833-.283 0-.558.116-.754.32a1.785 1.785 0 0 1-1.294.548c-.474 0-.922-.184-1.261-.517a1.232 1.232 0 0 0-.87-.351.904.904 0 0 0-.807.504 2.23 2.23 0 0 1-1.992 1.264.45.45 0 0 0-.446.45v3.578a.486.486 0 0 1-.473.47c-.256 0-.472-.205-.472-.45V6.408c0-1.737 1.42-3.143 3.168-3.143.135 0 .272.008.408.026a.45.45 0 0 0 .45-.226 3.158 3.158 0 0 1 2.745-1.62 3.16 3.16 0 0 1 2.348 1.064.45.45 0 0 0 .576.08c.206-.13.447-.199.698-.199.573 0 1.085.363 1.274.903a.45.45 0 0 0 .675.225c.307-.206.681-.275 1.054-.195.486.104.902.514 1.01.998.257 1.137-.909 2.069-2.054 1.486zm-4.703 3.75a.45.45 0 0 0-.45.45V18.6a.45.45 0 1 0 .9 0v-8.594a.45.45 0 0 0-.45-.45zm-3.6 0a.45.45 0 0 0-.45.45V18.6a.45.45 0 1 0 .9 0v-8.594a.45.45 0 0 0-.45-.45zm9.494 11.325h-1.373a.45.45 0 0 0-.45.45c0 .249.202.446.45.446h1.295a1.356 1.356 0 0 1-1.272.904H6.487a1.352 1.352 0 0 1-1.272-.9h6.65a.45.45 0 1 0 0-.9H5.137V8.621A3.124 3.124 0 0 0 7.483 6.89c.094 0 .177.032.24.093.507.5 1.18.775 1.891.775.739 0 1.428-.293 1.941-.824a.149.149 0 0 1 .107-.044c.7 0 1.158.15 1.362.444.168.243.167.581.167.853v1.82c0 .587.377 1.087.9 1.273v7.32a.45.45 0 1 0 .9 0v-7.32c.524-.186.9-.686.9-1.273v-3.17c.315.063.637.063.945 0z" fill="#1a1a1a"/></svg>