<svg xmlns="http://www.w3.org/2000/svg" width="24" height="24" version="1"><path d="M15.9 4.9a.5.5 0 1 1-.99 0 .5.5 0 0 1 .99 0zm4.24 9.72s-.97 1.1-.97 1.63a.97.97 0 0 0 1.94 0c0-.53-.97-1.63-.97-1.63zm-1.2-3.02c0-.06 0-.14.03-.21l-.14.18a19.73 19.73 0 0 1-3.56 3.04 16.59 16.59 0 0 1-5.23 3.11l-.24.08-1.99-1.43-5.54 4.96a1.23 1.23 0 0 1-1.74-.1c-.46-.51-.41-1.3.1-1.75l5.13-4.58-.19-.14-.08-.08-.3-.34c-.08-.22 0-.42.22-.6a27.86 27.86 0 0 0 8.7-11.7l.2-.55 7.9 4.74-.26.42c-.05.1-.43.73-1.07 1.65-.13.33-.28.66-.3.94l-.03.05c.35.46.8 1.12.8 1.52 0 .66-.54 1.2-1.2 1.2-.12.27-.33.45-.57.45-.36 0-.64-.38-.64-.86zm1.58-4.67l.07.03.25-.39-6.02-3.62a29.05 29.05 0 0 1-8.37 11.23l3.5 2.52.57-.22a4.6 4.6 0 0 1-1.63-2.11c-.24-.83.41-1.18 1.1-1.3-.01-.42.13-.8.63-.96.3-.1 1.68.44 1.7.35.12-.34.43-.5.77-.43.7.12.57.38.39-.24-.06-.21-.14-.45-.14-.68 0-.5.2-.93.67-1.13.4-.18.78-.03.87-.64.04-.26.1-.57.29-.78.45-.47.8-.39 1.42-.38 1.07 0 1.26-.77 2.12-1.17.5-.23 1.3-.3 1.81-.08zm1.86 9.33s-1.45 1.64-1.45 2.44a1.45 1.45 0 0 0 2.9 0c0-.8-1.45-2.44-1.45-2.44z" fill="#e6e6e6"/></svg>