<?xml version="1.0" encoding="UTF-8" standalone="no"?>
<svg
   xmlns:dc="http://purl.org/dc/elements/1.1/"
   xmlns:cc="http://creativecommons.org/ns#"
   xmlns:rdf="http://www.w3.org/1999/02/22-rdf-syntax-ns#"
   xmlns:svg="http://www.w3.org/2000/svg"
   xmlns="http://www.w3.org/2000/svg"
   xmlns:sodipodi="http://sodipodi.sourceforge.net/DTD/sodipodi-0.dtd"
   xmlns:inkscape="http://www.inkscape.org/namespaces/inkscape"
   width="24"
   height="24"
   version="1"
   id="svg8"
   sodipodi:docname="document-open-recent-symbolic.svg"
   inkscape:version="0.92.4 (5da689c313, 2019-01-14)">
  <metadata
     id="metadata14">
    <rdf:RDF>
      <cc:Work
         rdf:about="">
        <dc:format>image/svg+xml</dc:format>
        <dc:type
           rdf:resource="http://purl.org/dc/dcmitype/StillImage" />
        <dc:title></dc:title>
      </cc:Work>
    </rdf:RDF>
  </metadata>
  <defs
     id="defs12" />
  <sodipodi:namedview
     pagecolor="#ffffff"
     bordercolor="#666666"
     borderopacity="1"
     objecttolerance="10"
     gridtolerance="10"
     guidetolerance="10"
     inkscape:pageopacity="0"
     inkscape:pageshadow="2"
     inkscape:window-width="1112"
     inkscape:window-height="480"
     id="namedview10"
     showgrid="false"
     inkscape:zoom="9.8333333"
     inkscape:cx="1.0677966"
     inkscape:cy="12"
     inkscape:window-x="0"
     inkscape:window-y="25"
     inkscape:window-maximized="0"
     inkscape:current-layer="svg8" />
  <g
     id="g6"
     style="fill:#808080">
    <path
       d="m 5.305,2.389 a 0.642,0.642 0 1 0 0,1.284 H 6.44 v 2.03 c 0,2.034 1.116,3.904 3.143,5.266 C 9.839,11.141 10,11.513 10,11.938 10,12.362 9.84,12.732 9.583,12.905 7.556,14.267 6.44,16.138 6.44,18.173 V 20.2 H 5.305 a 0.643,0.643 0 0 0 0,1.285 h 13.183 a 0.643,0.643 0 0 0 0,-1.285 h -1.136 v -2.028 c 0,-2.035 -1.118,-3.907 -3.145,-5.268 -0.256,-0.173 -0.415,-0.543 -0.415,-0.967 0,-0.425 0.16,-0.795 0.415,-0.968 2.027,-1.362 3.144,-3.233 3.145,-5.268 v -2.03 h 1.136 a 0.643,0.643 0 0 0 0,-1.283 z m 2.422,1.284 h 8.34 v 2.03 c 0,2.149 -1.615,3.554 -2.577,4.2 -0.616,0.414 -0.983,1.175 -0.983,2.035 0,0.86 0.367,1.62 0.983,2.034 0.962,0.646 2.576,2.051 2.576,4.2 v 2.029 h -0.213 c -0.528,-1.986 -3.224,-4.144 -3.56,-4.407 a 0.642,0.642 0 0 0 -0.792,0 C 11.164,16.057 8.468,18.215 7.94,20.201 H 7.727 v -2.028 c 0,-2.15 1.612,-3.555 2.574,-4.2 0.616,-0.415 0.983,-1.176 0.983,-2.035 0,-0.86 -0.367,-1.621 -0.983,-2.035 C 9.339,9.257 7.727,7.852 7.727,5.703 Z"
       id="path2"
       inkscape:connector-curvature="0" />
    <path
       d="m 11.896,14.671 a 0.645,0.645 0 0 0 0.454,-1.097 0.648,0.648 0 0 0 -0.454,-0.188 0.647,0.647 0 0 0 -0.454,0.188 0.648,0.648 0 0 0 -0.189,0.455 0.647,0.647 0 0 0 0.643,0.642 z m 0,-3.408 a 0.643,0.643 0 0 0 0.643,-0.642 V 9.485 a 0.643,0.643 0 0 0 -1.285,0 v 1.136 c 0,0.355 0.287,0.642 0.642,0.642 z"
       id="path4"
       inkscape:connector-curvature="0" />
  </g>
</svg>
