<?xml version="1.0" encoding="UTF-8" standalone="no"?>
<svg
   xmlns:dc="http://purl.org/dc/elements/1.1/"
   xmlns:cc="http://creativecommons.org/ns#"
   xmlns:rdf="http://www.w3.org/1999/02/22-rdf-syntax-ns#"
   xmlns:svg="http://www.w3.org/2000/svg"
   xmlns="http://www.w3.org/2000/svg"
   xmlns:sodipodi="http://sodipodi.sourceforge.net/DTD/sodipodi-0.dtd"
   xmlns:inkscape="http://www.inkscape.org/namespaces/inkscape"
   width="24"
   height="24"
   version="1.1"
   id="svg4"
   sodipodi:docname="folder-copy-symbolic.svg"
   inkscape:version="0.92.4 (5da689c313, 2019-01-14)">
  <metadata
     id="metadata10">
    <rdf:RDF>
      <cc:Work
         rdf:about="">
        <dc:format>image/svg+xml</dc:format>
        <dc:type
           rdf:resource="http://purl.org/dc/dcmitype/StillImage" />
        <dc:title></dc:title>
      </cc:Work>
    </rdf:RDF>
  </metadata>
  <defs
     id="defs8" />
  <sodipodi:namedview
     pagecolor="#ffffff"
     bordercolor="#666666"
     borderopacity="1"
     objecttolerance="10"
     gridtolerance="10"
     guidetolerance="10"
     inkscape:pageopacity="0"
     inkscape:pageshadow="2"
     inkscape:window-width="1112"
     inkscape:window-height="480"
     id="namedview6"
     showgrid="false"
     inkscape:zoom="9.8333333"
     inkscape:cx="1.0677966"
     inkscape:cy="12"
     inkscape:window-x="0"
     inkscape:window-y="25"
     inkscape:window-maximized="0"
     inkscape:current-layer="svg4" />
  <path
     d="m 13.733,2.634 c -0.56,0 -1.157,0.105 -1.757,0.29 A 6.113,6.113 0 0 0 10.238,2.644 C 7.302,2.644 3.345,5.5 3.279,7.907 3.207,10.523 3.023,15.254 2.884,18.889 H 2.556 v 2.38 h 18.857 v -2.38 H 21.061 C 20.929,14.653 20.782,9.772 20.672,7.899 20.525,5.389 16.669,2.634 13.733,2.634 Z m 0,1.36 c 2.208,0 5.593,2.525 5.586,4.705 -0.02,1.485 0.056,4.894 0.04,10.19 H 8.072 L 8.08,18.879 C 8.046,13.181 8.169,8.645 8.169,8.645 c 0,-2.108 3.356,-4.65 5.564,-4.65 z M 9.595,4.074 C 8.024,5.119 6.811,6.575 6.775,7.898 6.702,10.516 6.518,15.253 6.379,18.889 H 4.586 C 4.552,13.191 4.674,8.654 4.674,8.654 c 0,-1.911 2.76,-4.176 4.921,-4.58 z"
     id="path2"
     inkscape:connector-curvature="0"
     style="fill:#808080" />
</svg>
