<?xml version="1.0" encoding="UTF-8" standalone="no"?>
<!-- Generator: Adobe Illustrator 18.0.0, SVG Export Plug-In . SVG Version: 6.00 Build 0)  -->

<svg
   xmlns:dc="http://purl.org/dc/elements/1.1/"
   xmlns:cc="http://creativecommons.org/ns#"
   xmlns:rdf="http://www.w3.org/1999/02/22-rdf-syntax-ns#"
   xmlns:svg="http://www.w3.org/2000/svg"
   xmlns="http://www.w3.org/2000/svg"
   xmlns:sodipodi="http://sodipodi.sourceforge.net/DTD/sodipodi-0.dtd"
   xmlns:inkscape="http://www.inkscape.org/namespaces/inkscape"
   version="1.1"
   id="Capa_1"
   x="0px"
   y="0px"
   viewBox="0 0 48 48"
   xml:space="preserve"
   sodipodi:docname="drive-removable-media-usb.svg"
   inkscape:version="0.92.3 (2405546, 2018-03-11)"
   width="48"
   height="48"><metadata
   id="metadata53"><rdf:RDF><cc:Work
       rdf:about=""><dc:format>image/svg+xml</dc:format><dc:type
         rdf:resource="http://purl.org/dc/dcmitype/StillImage" /><dc:title></dc:title></cc:Work></rdf:RDF></metadata><defs
   id="defs51">
	
	
	
	
	
	
	
</defs><sodipodi:namedview
   pagecolor="#ffffff"
   bordercolor="#666666"
   borderopacity="1"
   objecttolerance="10"
   gridtolerance="10"
   guidetolerance="10"
   inkscape:pageopacity="0"
   inkscape:pageshadow="2"
   inkscape:window-width="1366"
   inkscape:window-height="690"
   id="namedview49"
   showgrid="false"
   inkscape:zoom="8.1137472"
   inkscape:cx="-4.832806"
   inkscape:cy="33.94008"
   inkscape:window-x="0"
   inkscape:window-y="28"
   inkscape:window-maximized="1"
   inkscape:current-layer="Capa_1" />
<path
   style="fill:#a02c2c;stroke:none;stroke-width:0.33796275;stroke-linecap:butt;stroke-linejoin:miter;stroke-miterlimit:4;stroke-dasharray:none;stroke-opacity:1"
   d="M 24.865234 3.515625 C 19.149856 3.5343685 13.460275 4.8562259 9.90625 8.4550781 C 6.8876854 10.879592 6.0129089 14.104453 5.1269531 17.65625 C 4.6012822 19.970156 0.45190209 21.075567 3.609375 24.617188 C 4.1247531 25.03582 3.5884992 26.031947 0.42382812 28.474609 C 5.55592 37.037748 1.6392933 34.54134 0.67578125 35.654297 C 0.93183162 38.726908 2.3007094 38.79741 0.984375 41.695312 C 0.79026886 43.535815 -1.0904086 46.501014 1.8945312 47.283203 C 2.389348 47.896882 14.639599 47.147441 15.232422 45.162109 C 15.86729 40.139117 21.554173 37.367896 24.416016 39.433594 C 27.889115 40.718097 39.592285 39.041242 43.53125 32.324219 C 46.581565 26.317067 51.019054 17.694112 43.777344 9.5351562 C 42.072423 7.0699495 33.781225 3.4863849 24.865234 3.515625 z M 29.050781 6.5976562 L 33.279297 12.236328 L 30.460938 12.236328 L 30.460938 23.513672 L 34.689453 23.513672 L 34.689453 20.695312 L 33.279297 20.695312 L 33.279297 15.056641 L 38.919922 15.056641 L 38.919922 20.695312 L 37.509766 20.695312 L 37.509766 23.513672 C 37.509766 25.071501 36.247282 26.333984 34.689453 26.333984 L 30.460938 26.333984 L 30.460938 30.634766 C 31.461895 31.149343 32.152344 32.177433 32.152344 33.382812 C 32.152344 35.09572 30.763688 36.484375 29.050781 36.484375 C 27.337874 36.484375 25.949219 35.09572 25.949219 33.382812 C 25.949219 32.177433 26.639667 31.149343 27.640625 30.634766 L 27.640625 26.333984 L 23.412109 26.333984 C 21.85428 26.333984 20.591797 25.071501 20.591797 23.513672 L 20.591797 20.595703 C 19.597888 20.081126 18.900391 19.07333 18.900391 17.875 C 18.900391 16.162093 20.289046 14.773438 22.001953 14.773438 C 23.71486 14.773438 25.103516 16.162093 25.103516 17.875 C 25.103516 19.07333 24.406019 20.081126 23.412109 20.595703 L 23.412109 23.513672 L 27.640625 23.513672 L 27.640625 12.236328 L 24.820312 12.236328 L 29.050781 6.5976562 z M 11.505859 22.837891 C 12.797617 22.932929 14.967429 23.769277 15.564453 25.105469 C 16.700046 29.404221 14.604068 30.117726 12.970703 30.865234 C 7.2768915 31.636418 7.0405969 29.612292 6.1933594 28.804688 C 5.2866932 27.033618 5.0141151 24.968334 6.4804688 24.341797 C 8.4532039 23.867593 10.51881 23.075213 10.597656 22.998047 C 10.742254 22.85653 11.075273 22.806211 11.505859 22.837891 z "
   id="path867" />
<g
   id="g18"
   transform="translate(0,-417.383)">
</g>
<g
   id="g20"
   transform="translate(0,-417.383)">
</g>
<g
   id="g22"
   transform="translate(0,-417.383)">
</g>
<g
   id="g24"
   transform="translate(0,-417.383)">
</g>
<g
   id="g26"
   transform="translate(0,-417.383)">
</g>
<g
   id="g28"
   transform="translate(0,-417.383)">
</g>
<g
   id="g30"
   transform="translate(0,-417.383)">
</g>
<g
   id="g32"
   transform="translate(0,-417.383)">
</g>
<g
   id="g34"
   transform="translate(0,-417.383)">
</g>
<g
   id="g36"
   transform="translate(0,-417.383)">
</g>
<g
   id="g38"
   transform="translate(0,-417.383)">
</g>
<g
   id="g40"
   transform="translate(0,-417.383)">
</g>
<g
   id="g42"
   transform="translate(0,-417.383)">
</g>
<g
   id="g44"
   transform="translate(0,-417.383)">
</g>
<g
   id="g46"
   transform="translate(0,-417.383)">
</g>
</svg>