<svg xmlns="http://www.w3.org/2000/svg" xmlns:xlink="http://www.w3.org/1999/xlink" width="48" height="48" version="1"><defs><linearGradient id="c"><stop offset="0" stop-color="#784421"/><stop offset="1" stop-color="#a05a2c"/></linearGradient><linearGradient id="a"><stop offset="0"/><stop offset="1" stop-opacity="0"/></linearGradient><linearGradient id="b"><stop offset="0" stop-color="#71171c"/><stop offset="1" stop-color="#ec7422"/></linearGradient><linearGradient id="d" x1="24.24" x2="24.24" y1="42.24" y2="1.6" gradientTransform="matrix(.96866 0 0 .92219 4.71 -4.37)" gradientUnits="userSpaceOnUse" xlink:href="#c"/></defs><path d="M33.06 47.97H14.94L7.11 17.42 13.01.03H35l5.9 17.39z" fill="#c87137"/><path d="M18.28 43.82l-3.34 4.15h18.12l-3.34-4.15z" fill="#d38d5f"/><path d="M29.72 43.82l3.34 4.15 7.83-30.55-4.44.16zm-22.6-26.4l7.82 30.55 3.34-4.15-6.73-26.24zM13.01.03l3.08 4.15h15.8L34.99.03z" fill="#a05a2c" stroke-width=".12"/><path d="M7.11 17.42L13.01.03l3.09 4.15-4.55 13.4zm29.34.16L31.9 4.18 34.99.03l5.9 17.39z" fill="#784421"/><path d="M21.63 17.87c1.4 0 3.02.06 4.05-1.02.78-.96.79-2.35.36-3.46-.55-1.26-2.14-1.52-3.42-1.49h-1v5.97zm9.22-3.19c.03 2.01-.78 4.15-2.6 5.3-1.9 1.26-4.26 1.43-6.5 1.38-.27.03-.05.53-.12.76v6.38h-4.48V8.41c2.32.02 4.64-.03 6.96.04 2.22.13 4.65.87 5.86 2.78.65 1.03.88 2.26.88 3.45z" opacity=".4" fill="#fff"/><path d="M21.63 16.95c1.4.01 3.02.06 4.05-1 .78-.97.79-2.36.36-3.47-.55-1.26-2.14-1.52-3.42-1.49h-1v5.96zm9.22-3.18c.03 2.01-.78 4.15-2.6 5.3-1.9 1.25-4.26 1.43-6.5 1.37-.27.03-.05.54-.12.76v6.39h-4.48V7.5c2.32.02 4.64-.04 6.96.04 2.22.13 4.65.86 5.86 2.78.65 1.03.88 2.26.88 3.45z" fill="url(#d)"/></svg>