<?xml version="1.0" encoding="UTF-8" standalone="no"?>
<svg
   xmlns:dc="http://purl.org/dc/elements/1.1/"
   xmlns:cc="http://creativecommons.org/ns#"
   xmlns:rdf="http://www.w3.org/1999/02/22-rdf-syntax-ns#"
   xmlns:svg="http://www.w3.org/2000/svg"
   xmlns="http://www.w3.org/2000/svg"
   xmlns:sodipodi="http://sodipodi.sourceforge.net/DTD/sodipodi-0.dtd"
   xmlns:inkscape="http://www.inkscape.org/namespaces/inkscape"
   version="1.1"
   viewBox="0 0 48 48"
   id="svg33"
   sodipodi:docname="audio-x-generic.svg"
   inkscape:version="0.92.3 (2405546, 2018-03-11)">
  <sodipodi:namedview
     pagecolor="#ffffff"
     bordercolor="#666666"
     borderopacity="1"
     objecttolerance="10"
     gridtolerance="10"
     guidetolerance="10"
     inkscape:pageopacity="0"
     inkscape:pageshadow="2"
     inkscape:window-width="883"
     inkscape:window-height="480"
     id="namedview35"
     showgrid="false"
     inkscape:zoom="4.9166667"
     inkscape:cx="4.1694915"
     inkscape:cy="24"
     inkscape:window-x="0"
     inkscape:window-y="25"
     inkscape:window-maximized="0"
     inkscape:current-layer="svg33" />
  <metadata
     id="metadata2">
    <rdf:RDF>
      <cc:Work
         rdf:about="">
        <dc:format>image/svg+xml</dc:format>
        <dc:type
           rdf:resource="http://purl.org/dc/dcmitype/StillImage" />
        <dc:title></dc:title>
      </cc:Work>
    </rdf:RDF>
  </metadata>
  <defs
     id="defs9">
    <linearGradient
       id="a"
       x1="2.3733"
       x2="49.694"
       y1="19.135"
       y2="27.204"
       gradientTransform="matrix(.79834 0 0 .77683 -1.2953 -.58658)"
       gradientUnits="userSpaceOnUse">
      <stop
         stop-color="#030000"
         offset="0"
         id="stop4" />
      <stop
         stop-opacity="0"
         offset="1"
         id="stop6" />
    </linearGradient>
  </defs>
  <polygon
     transform="matrix(.096224 0 0 .09363 -.57346 .031189)"
     points="369.54 0 430.85 185.71 349.48 512 161.26 512 79.883 185.71 141.19 0"
     fill="#a7ac93"
     id="polygon11" />
  <path
     d="m18.279 43.817-3.3353 4.1525h18.113l-3.3353-4.1525z"
     fill="#c4c8b7"
     stroke-width=".09492"
     id="path13" />
  <g
     transform="matrix(.79834 0 0 .77683 -1.2953 -.58658)"
     fill="#8a916f"
     stroke-width=".12053"
     id="g21">
    <path
       d="m38.85 57.162 4.1777 5.3457 9.8086-39.328-5.5625 0.20703z"
       id="path15" />
    <path
       d="m10.533 23.18 9.8066 39.328 4.1777-5.3457-8.4238-33.775z"
       id="path17" />
    <path
       d="m17.922 0.79492 3.8652 5.3457h19.793l3.8652-5.3457z"
       id="path19" />
  </g>
  <g
     transform="matrix(.096224 0 0 .09363 -.57346 .031189)"
     fill="#676c53"
     id="g27">
    <polygon
       points="79.883 185.71 141.19 0 173.26 44.353 126.02 187.43"
       id="polygon23" />
    <polygon
       points="384.71 187.43 337.47 44.353 369.54 0 430.85 185.71"
       id="polygon25" />
  </g>
  <path
     d="m25.982 47.971h7.0723l7.2871-28.436-14.966-14.886-1.1685 3.29-0.09375 4.5566-0.57031 14.24-3.2754-3.4655-0.33203 2.7995 1.5195 2.5645-1.0449 4.5566-0.0957 9.1133z"
     fill="url(#a)"
     opacity=".45"
     id="path29" />
  <path
     d="m25.375 4.6494-3.2787 5.0717s0.90046 0.21195 0.9935 1.1372l-0.13642 14.856c-0.25752 0.41836-0.60285 0.72518-1.0634 0.72216-1.0924-0.01007-1.4792-1.9991-1.6016-2.9526-0.03506-0.27447-0.12822-0.28753-0.22516-0.02784l-0.89141 2.3721c-0.0969 0.25894-0.04962 0.65236 0.09794 0.88726 0.45545 0.72337 1.3175 2.2181 1.309 3.1436-0.0097 1.0411-2.5549 4.7386-3.4277 5.9779-0.15986 0.22532-0.13491 0.57038 0.04217 0.7825 1.457 1.7477 2.5151 4.4346 2.904 5.5144 0.09285 0.25919 0.23145 0.25787 0.32931-2.02e-4 1.2792-3.3884 3.4595-4.4788 4.2113-4.4717 0.65336 0.0063 2.7595 4.1248 3.45 5.5106 0.12321 0.24714 0.28862 0.23614 0.37068-0.02782l1.5076-4.8847c0.08189-0.2641 0.02712-0.66829-0.11837-0.9041-0.69638-1.1288-2.5182-4.2023-2.507-5.4372 0.0098-1.0681 0.77724-2.131 1.2375-2.6719 0.17936-0.21034 0.281-0.58552 0.20856-0.85127l-0.49995-1.8467c-0.07162-0.26612-0.15491-0.25813-0.21488 0.01195-0.18118 0.81916-0.708 2.3722-2.0961 2.3594-0.60469-0.0054-1.0601-0.57325-1.4014-1.3391l0.15507-16.769c0.02792-0.27594 0.13709-0.92269 0.58365-1.1067 0 0-0.19846-2.6207 0.63211-3.406 1e-6 -4e-7 -0.33753-0.90031-0.57024-1.6508zm-3.0112 25.18c0.06059-0.02329 0.12963-0.03249 0.19766-0.03407l0.35565 5e-3 1.6347 0.01426 0.13541 7.96e-4c0.27643 0.0021 0.50015 0.22754 0.4978 0.5043l-0.0078 0.79914c-0.0027 0.27655-0.22866 0.49782-0.50494 0.49636l-2.1296-0.02024c-0.27615-0.0023-0.49664-0.22834-0.49403-0.50414l0.0062-0.79852c0.0017-0.20772 0.1295-0.38121 0.3094-0.45751zm-0.03106 3.2094c0.0606-0.0233 0.12941-0.02882 0.19678-0.03188l2.1289 0.01869c0.27692 0.0031 0.49914 0.2302 0.49694 0.50654l-0.0085 0.79759c-0.0029 0.27594-0.22918 0.49619-0.50574 0.49457l-2.1266-0.01786c-0.27692-0.0031-0.49861-0.22901-0.49694-0.50654l0.0085-0.79759c0.0022-0.20679 0.12952-0.38121 0.3094-0.45751z"
     fill="#1a1a1a"
     stroke-width=".81662"
     id="path31" />
</svg>
