<?xml version="1.0" encoding="UTF-8" standalone="no"?>
<svg
   xmlns:dc="http://purl.org/dc/elements/1.1/"
   xmlns:cc="http://creativecommons.org/ns#"
   xmlns:rdf="http://www.w3.org/1999/02/22-rdf-syntax-ns#"
   xmlns:svg="http://www.w3.org/2000/svg"
   xmlns="http://www.w3.org/2000/svg"
   xmlns:sodipodi="http://sodipodi.sourceforge.net/DTD/sodipodi-0.dtd"
   xmlns:inkscape="http://www.inkscape.org/namespaces/inkscape"
   version="1.1"
   viewBox="0 0 48 48"
   id="svg56"
   sodipodi:docname="image-x-generic.svg"
   inkscape:version="0.92.3 (2405546, 2018-03-11)">
  <sodipodi:namedview
     pagecolor="#ffffff"
     bordercolor="#666666"
     borderopacity="1"
     objecttolerance="10"
     gridtolerance="10"
     guidetolerance="10"
     inkscape:pageopacity="0"
     inkscape:pageshadow="2"
     inkscape:window-width="1366"
     inkscape:window-height="714"
     id="namedview58"
     showgrid="false"
     inkscape:zoom="4.9166667"
     inkscape:cx="4.1694915"
     inkscape:cy="24"
     inkscape:window-x="0"
     inkscape:window-y="25"
     inkscape:window-maximized="1"
     inkscape:current-layer="svg56" />
  <metadata
     id="metadata2">
    <rdf:RDF>
      <cc:Work
         rdf:about="">
        <dc:format>image/svg+xml</dc:format>
        <dc:type
           rdf:resource="http://purl.org/dc/dcmitype/StillImage" />
        <dc:title></dc:title>
      </cc:Work>
    </rdf:RDF>
  </metadata>
  <defs
     id="defs16">
    <linearGradient
       id="c"
       x1="16.108"
       x2="32.571"
       y1="21.001"
       y2="21.001"
       gradientTransform="matrix(.80106 0 0 .80106 4.7745 5.3271)"
       gradientUnits="userSpaceOnUse">
      <stop
         stop-color="#ececec"
         offset="0"
         id="stop4" />
      <stop
         stop-color="#fff"
         offset=".51367"
         id="stop6" />
      <stop
         stop-color="#e6e6e6"
         offset="1"
         id="stop8" />
    </linearGradient>
    <linearGradient
       id="d"
       x1="9.2198"
       x2="49.806"
       y1="12.95"
       y2="38.709"
       gradientUnits="userSpaceOnUse">
      <stop
         offset="0"
         id="stop11" />
      <stop
         stop-opacity="0"
         offset="1"
         id="stop13" />
    </linearGradient>
  </defs>
  <polygon
     transform="matrix(.096227 0 0 .093628 -.57347 .031184)"
     points="430.85 185.71 349.48 512 161.26 512 79.883 185.71 141.19 0 369.54 0"
     fill="#9dac93"
     id="polygon18" />
  <path
     d="m18.278 43.817-3.3353 4.1525h18.113l-3.3353-4.1525z"
     fill="#bec8b7"
     stroke-width=".094919"
     id="path20" />
  <g
     transform="matrix(.79835 0 0 .77679 -1.2952 -.58659)"
     fill="#7c916f"
     stroke-width=".12053"
     id="g28">
    <path
       d="m38.85 57.162 4.1777 5.3457 9.8086-39.328-5.5625 0.20703z"
       id="path22" />
    <path
       d="m10.533 23.18 9.8066 39.328 4.1777-5.3457-8.4238-33.775z"
       id="path24" />
    <path
       d="m17.922 0.79492 3.8652 5.3457h19.793l3.8652-5.3457z"
       id="path26" />
  </g>
  <g
     transform="matrix(.096227 0 0 .093628 -.57347 .031184)"
     fill="#5d6c53"
     id="g34">
    <polygon
       points="79.883 185.71 141.19 0 173.26 44.353 126.02 187.43"
       id="polygon30" />
    <polygon
       points="384.71 187.43 337.47 44.353 369.54 0 430.85 185.71"
       id="polygon32" />
  </g>
  <path
     d="m24.272 18.028c0.32353 0 0.6484 0.01847 0.96977 0.05598 2.422 0.23896 4.6228 1.8577 5.6243 4.0668-0.3649 0.80745-0.906 1.5299-1.5378 2.1486-0.4015 0.37614-0.93431 0.74985-1.3781 1.0389-1.3965 0.78612-3.0576 1.0607-4.6463 0.88086-2.4219-0.23912-4.6246-1.8593-5.626-4.0684 0.3649-0.80753 0.90601-1.5283 1.5378-2.147 0.4015-0.37614 0.9343-0.74985 1.3781-1.0389 1.1134-0.63102 2.3999-0.92274 3.6782-0.93519z"
     fill="#ff2a2a"
     stroke-width=".077894"
     id="path36" />
  <path
     d="m24.272 19.678c-1.0612-0.01252-2.0551 0.72844-2.3594 1.742-0.47642 1.3768 0.5402 3.0026 1.9889 3.1727 1.4344 0.27201 2.8859-0.9854 2.8434-2.4417 0.02498-1.3177-1.1484-2.5023-2.473-2.473z"
     fill="#ff2a2a"
     stroke-width=".077894"
     id="path38" />
  <path
     d="m24.272 21.326v0.0017a0.82426 0.82443 0 0 1 0.82488 0.82323 0.82426 0.82443 0 0 1 -0.82488 0.82488 0.82426 0.82443 0 0 1 -0.82323 -0.82488 0.82426 0.82443 0 0 1 0.82323 -0.82488z"
     fill="#ff2a2a"
     stroke-width=".077894"
     id="path40" />
  <path
     d="m30.859 47.969h2.1973l6.7852-26.471-9.7109-9.7109-7.6992 11.404-0.85547 15.494z"
     fill="url(#d)"
     opacity=".45"
     id="path42" />
  <path
     d="m24.214 6.8438c-0.2084 0.00344-0.39343 0.10546-0.55486 0.33917-0.6457 0.93483-0.91312 3.9631-1.6926 5.0991-0.77945 1.136-2.0692 0.37906-3.316 0.28978s-2.4499 0.49033-2.7842 1.3369c-0.33431 0.84659 0.20011 1.9584 0 2.9603-0.20011 1.002-1.1353 1.8933-1.4028 2.6063-0.26745 0.71303 0.13287 1.2472 0.40009 2.2935s0.40109 2.6052 1.0916 4.2759c0.69052 1.6706 1.9363 3.4506 2.827 5.5436 0.89071 2.093 1.4252 4.4975 2.1157 5.9898 0.69051 1.4923 1.5373 2.0713 1.849 0.71292 0.31167-1.3584 0.08862-4.6537 0.31118-5.5667 0.22256-0.91294 0.8902 0.55619 1.4472 0.91214 0.55704 0.35596 1.003-0.40079 1.3814-1.113 0.37834-0.71221 0.68973-1.3805 1.0455-1.0916 0.35578 0.28891 0.75732 1.5362 1.4703 0.91214 0.71296-0.6241 1.7368-3.1166 2.7167-4.6974 0.97983-1.5807 1.9153-2.2497 2.2935-3.0509 0.37818-0.80123 0.19973-1.7357-0.15641-2.6706-0.35614-0.93481-0.88996-1.8712-1.3353-2.7842-0.44531-0.91293-0.80184-1.8034-0.84628-2.8945-0.04443-1.0911 0.22228-2.3834-0.51205-3.6963s-2.472-2.6501-3.8527-3.8972c-1.0355-0.9353-1.8708-1.8197-2.496-1.8095z"
     fill="#1f241c"
     id="path44" />
  <path
     d="m24.272 18.884c0.32353 0 0.6484 0.01847 0.96977 0.05597 2.422 0.23895 4.6228 1.8577 5.6243 4.0668-0.3649 0.80745-0.906 1.5299-1.5378 2.1486-0.4015 0.37614-0.93431 0.74985-1.3781 1.0389-1.3965 0.78611-3.0576 1.0607-4.6463 0.88085-2.4219-0.23912-4.6246-1.8593-5.626-4.0684 0.3649-0.80753 0.90601-1.5283 1.5378-2.147 0.4015-0.37614 0.9343-0.74985 1.3781-1.0389 1.1134-0.63102 2.3999-0.92274 3.6782-0.93519z"
     opacity=".44"
     id="path46" />
  <path
     d="m24.272 18.028c0.32353 0 0.6484 0.01847 0.96977 0.05598 2.422 0.23896 4.6228 1.8577 5.6243 4.0668-0.3649 0.80745-0.906 1.5299-1.5378 2.1486-0.4015 0.37614-0.93431 0.74985-1.3781 1.0389-1.3965 0.78612-3.0576 1.0607-4.6463 0.88085-2.4219-0.23912-4.6246-1.8593-5.626-4.0684 0.3649-0.80753 0.90601-1.5283 1.5378-2.147 0.4015-0.37614 0.9343-0.74985 1.3781-1.0389 1.1134-0.63102 2.3999-0.92274 3.6782-0.93519z"
     fill="url(#c)"
     id="path48" />
  <path
     d="m24.272 19.678c-1.0612-0.01252-2.0551 0.72844-2.3594 1.742-0.47642 1.3768 0.5402 3.0026 1.9889 3.1727 1.4344 0.27201 2.8859-0.9854 2.8434-2.4417 0.02498-1.3177-1.1484-2.5023-2.473-2.473z"
     fill="#1a1a1a"
     id="path50" />
  <path
     d="m24.272 21.326v0.0017a0.82426 0.82443 0 0 1 0.82488 0.82323 0.82426 0.82443 0 0 1 -0.82488 0.82488 0.82426 0.82443 0 0 1 -0.82323 -0.82488 0.82426 0.82443 0 0 1 0.82323 -0.82488z"
     fill="#fff"
     id="path52" />
  <path
     d="m24.272 18.027v0.0016c-1.2783 0.01246-2.5649 0.30459-3.6783 0.93562-0.44379 0.28907-0.97689 0.66273-1.3784 1.0389-0.63179 0.61864-1.1731 1.339-1.538 2.1466 0.3649 0.80753 0.90619 1.5279 1.538 2.1466 0.4015 0.37614 0.9346 0.74981 1.3784 1.0389 1.1134 0.63102 2.4 0.92317 3.6783 0.93562v0.0016c0.32353 1e-6 0.64867-0.01882 0.97004-0.05631 2.422-0.23896 4.6232-1.8573 5.6246-4.0663-1.0015-2.209-3.2026-3.8274-5.6246-4.0663-0.32136-0.03749-0.64651-0.05631-0.97004-0.05631zm0 0.85582c0.32353 0 0.64867 0.01882 0.97004 0.05631 0.6055 0.05973 1.196 0.20568 1.7586 0.42556 0.56257 0.21988 1.0974 0.51299 1.5865 0.86834 0.48907 0.35535 0.93237 0.773 1.3174 1.2391 0.17303 0.2095 0.31394 0.44142 0.44903 0.67746-0.1351 0.23604-0.276 0.46796-0.44903 0.67746-0.385 0.46614-0.8283 0.8838-1.3174 1.2391-0.48907 0.35535-1.0239 0.64846-1.5865 0.86834-0.56257 0.21988-1.1531 0.36583-1.7586 0.42556-0.32136 0.03749-0.64651 0.05631-0.97004 0.05631v-0.0016c-0.63913-0.0062-1.2804-0.08132-1.901-0.23469-0.62059-0.15336-1.2206-0.38542-1.7774-0.70093-0.44379-0.28907-0.97689-0.66274-1.3784-1.0389-0.3869-0.37883-0.69209-0.827-0.97316-1.2907 0.28107-0.46373 0.58626-0.9119 0.97316-1.2908 0.4015-0.37614 0.9346-0.74981 1.3784-1.0389 0.5567-0.31551 1.1568-0.54757 1.7774-0.70093 0.62059-0.15336 1.2618-0.22846 1.901-0.23469z"
     fill="#666"
     opacity=".24"
     id="path54" />
</svg>
