<?xml version="1.0" encoding="UTF-8" standalone="no"?>
<!-- Created with Inkscape (http://www.inkscape.org/) -->

<svg
   xmlns:dc="http://purl.org/dc/elements/1.1/"
   xmlns:cc="http://creativecommons.org/ns#"
   xmlns:rdf="http://www.w3.org/1999/02/22-rdf-syntax-ns#"
   xmlns:svg="http://www.w3.org/2000/svg"
   xmlns="http://www.w3.org/2000/svg"
   xmlns:xlink="http://www.w3.org/1999/xlink"
   xmlns:sodipodi="http://sodipodi.sourceforge.net/DTD/sodipodi-0.dtd"
   xmlns:inkscape="http://www.inkscape.org/namespaces/inkscape"
   id="svg2677"
   width="48"
   height="48"
   version="1.0"
   sodipodi:docname="text-x-generic-template.svg"
   inkscape:version="0.92.3 (2405546, 2018-03-11)">
  <metadata
     id="metadata71">
    <rdf:RDF>
      <cc:Work
         rdf:about="">
        <dc:format>image/svg+xml</dc:format>
        <dc:type
           rdf:resource="http://purl.org/dc/dcmitype/StillImage" />
        <dc:title />
      </cc:Work>
    </rdf:RDF>
  </metadata>
  <sodipodi:namedview
     pagecolor="#ffffff"
     bordercolor="#666666"
     borderopacity="1"
     objecttolerance="10"
     gridtolerance="10"
     guidetolerance="10"
     inkscape:pageopacity="0"
     inkscape:pageshadow="2"
     inkscape:window-width="1366"
     inkscape:window-height="690"
     id="namedview69"
     showgrid="false"
     inkscape:zoom="6.9532167"
     inkscape:cx="15.012068"
     inkscape:cy="27.64975"
     inkscape:window-x="0"
     inkscape:window-y="28"
     inkscape:window-maximized="1"
     inkscape:current-layer="svg2677"
     showguides="true"
     inkscape:guide-bbox="true">
    <sodipodi:guide
       position="24,24"
       orientation="1,0"
       id="guide1968"
       inkscape:locked="false" />
  </sodipodi:namedview>
  <defs
     id="defs2679">
    <linearGradient
       id="linearGradient2642"
       x1="302.86"
       x2="302.86"
       y1="366.65"
       y2="609.51"
       gradientTransform="matrix(.067325 0 0 .0147 -.34114 37.04)"
       gradientUnits="userSpaceOnUse">
      <stop
         id="stop5050"
         style="stop-opacity:0"
         offset="0" />
      <stop
         id="stop5056"
         offset=".5" />
      <stop
         id="stop5052"
         style="stop-opacity:0"
         offset="1" />
    </linearGradient>
    <radialGradient
       id="radialGradient2639"
       cx="605.71"
       cy="486.65"
       r="117.14"
       gradientTransform="matrix(-.02304 0 0 .0147 21.623 37.04)"
       gradientUnits="userSpaceOnUse"
       xlink:href="#linearGradient5060" />
    <linearGradient
       id="linearGradient5060">
      <stop
         id="stop5062"
         offset="0" />
      <stop
         id="stop5064"
         style="stop-opacity:0"
         offset="1" />
    </linearGradient>
    <radialGradient
       id="radialGradient2636"
       cx="605.71"
       cy="486.65"
       r="117.14"
       gradientTransform="matrix(.02304 0 0 .0147 26.361 37.04)"
       gradientUnits="userSpaceOnUse"
       xlink:href="#linearGradient5060" />
    <linearGradient
       id="linearGradient2633"
       x1="-51.786"
       x2="-51.786"
       y1="50.786"
       y2="2.9062"
       gradientTransform="matrix(.8075 0 0 .89483 59.41 -2.9806)"
       gradientUnits="userSpaceOnUse">
      <stop
         id="stop3106"
         style="stop-color:#aaa"
         offset="0" />
      <stop
         id="stop3108"
         style="stop-color:#c8c8c8"
         offset="1" />
    </linearGradient>
    <linearGradient
       id="linearGradient2631"
       x1="25.132"
       x2="25.132"
       y1=".98521"
       y2="47.013"
       gradientTransform="matrix(1 0 0 .95617 -1.0065e-7 -1.9149)"
       gradientUnits="userSpaceOnUse">
      <stop
         id="stop3602"
         style="stop-color:#f4f4f4"
         offset="0" />
      <stop
         id="stop3604"
         style="stop-color:#dbdbdb"
         offset="1" />
    </linearGradient>
    <radialGradient
       id="radialGradient2628"
       cx="102"
       cy="112.3"
       r="139.56"
       gradientTransform="matrix(.3617 0 0 -.39078 .85106 47.517)"
       gradientUnits="userSpaceOnUse">
      <stop
         id="stop41"
         style="stop-color:#b7b8b9"
         offset="0" />
      <stop
         id="stop47"
         style="stop-color:#ececec"
         offset=".18851" />
      <stop
         id="stop49"
         style="stop-color:#fafafa;stop-opacity:0"
         offset=".25718" />
      <stop
         id="stop51"
         style="stop-color:#fff;stop-opacity:0"
         offset=".30111" />
      <stop
         id="stop53"
         style="stop-color:#fafafa;stop-opacity:0"
         offset=".5313" />
      <stop
         id="stop55"
         style="stop-color:#ebecec;stop-opacity:0"
         offset=".8449" />
      <stop
         id="stop57"
         style="stop-color:#e1e2e3;stop-opacity:0"
         offset="1" />
    </radialGradient>
    <linearGradient
       id="linearGradient2625"
       x1="24"
       x2="24"
       y1="2"
       y2="46.017"
       gradientTransform="matrix(1 0 0 .97778 0 -.96667)"
       gradientUnits="userSpaceOnUse">
      <stop
         id="stop3213"
         style="stop-color:#fff"
         offset="0" />
      <stop
         id="stop3215"
         style="stop-color:#fff;stop-opacity:0"
         offset="1" />
    </linearGradient>
    <filter
       id="filter3212"
       x="-.14846"
       y="-.16434"
       width="1.2969"
       height="1.3287"
       color-interpolation-filters="sRGB">
      <feGaussianBlur
         id="feGaussianBlur3214"
         stdDeviation="0.77391625" />
    </filter>
    <linearGradient
       id="linearGradient2621"
       x1="32.892"
       x2="36.358"
       y1="8.059"
       y2="5.4565"
       gradientTransform="matrix(.9977 0 0 1.0407 .1638 -1.1058)"
       gradientUnits="userSpaceOnUse">
      <stop
         id="stop8591"
         style="stop-color:#fefefe"
         offset="0" />
      <stop
         id="stop8593"
         style="stop-color:#cbcbcb"
         offset="1" />
    </linearGradient>
    <radialGradient
       id="radialGradient2675"
       cx="22.902"
       cy="45.867"
       r="7.9059"
       gradientTransform="matrix(.69765 0 0 .29961 12.507 18.89)"
       gradientUnits="userSpaceOnUse">
      <stop
         id="stop3197"
         offset="0" />
      <stop
         id="stop3199"
         style="stop-opacity:0"
         offset="1" />
    </radialGradient>
    <radialGradient
       id="radialGradient2672"
       cx="22.902"
       cy="45.867"
       r="7.9059"
       gradientTransform="matrix(.75875 0 0 .32584 -.80598 19.479)"
       gradientUnits="userSpaceOnUse">
      <stop
         id="stop3203"
         offset="0" />
      <stop
         id="stop3205"
         style="stop-opacity:0"
         offset="1" />
    </radialGradient>
    <radialGradient
       id="radialGradient2668"
       cx="17.059"
       cy="41.059"
       r="5.7385"
       fx="14.638"
       fy="38.175"
       gradientTransform="matrix(.66498 0 -.10886 .63739 9.9382 5.2626)"
       gradientUnits="userSpaceOnUse">
      <stop
         id="stop3877"
         style="stop-color:#aaa"
         offset="0" />
      <stop
         id="stop3879"
         style="stop-color:#4d4d4d"
         offset="1" />
    </radialGradient>
    <radialGradient
       id="radialGradient2665"
       cx="17.059"
       cy="41.059"
       r="5.7385"
       fx="14.109"
       fy="38.981"
       gradientTransform="matrix(.66333 0 -.10859 .6358 21.997 3.4975)"
       gradientUnits="userSpaceOnUse">
      <stop
         id="stop3871"
         style="stop-color:#aaa"
         offset="0" />
      <stop
         id="stop3873"
         style="stop-color:#4d4d4d"
         offset="1" />
    </radialGradient>
    <linearGradient
       id="linearGradient2662"
       x1="28.739"
       x2="25.4"
       y1="144.12"
       y2="119.86"
       gradientTransform="matrix(.22147 0 0 .22311 14.032 -16.079)"
       gradientUnits="userSpaceOnUse">
      <stop
         id="stop3239"
         style="stop-color:#fff"
         offset="0" />
      <stop
         id="stop3241"
         style="stop-color:#fff;stop-opacity:.37931"
         offset="1" />
    </linearGradient>
    <linearGradient
       id="linearGradient2659"
       x1="28.739"
       x2="26.257"
       y1="144.12"
       y2="125.39"
       gradientTransform="matrix(.44563 0 0 .22311 20.716 -17.657)"
       gradientUnits="userSpaceOnUse">
      <stop
         id="stop3245"
         style="stop-color:#fff"
         offset="0" />
      <stop
         id="stop3247"
         style="stop-color:#fff;stop-opacity:.37931"
         offset="1" />
    </linearGradient>
    <linearGradient
       id="linearGradient2444-734-39"
       x1="28.534"
       x2="16.886999"
       y1="24.24"
       y2="13.664"
       gradientTransform="matrix(1.0502,0,0,0.99322,-1.7066442,-3.0606452)"
       gradientUnits="userSpaceOnUse">
      <stop
         id="stop3388"
         style="stop-color:#dbd2a2"
         offset="0" />
      <stop
         id="stop3390"
         style="stop-color:#fff;stop-opacity:0"
         offset="1" />
    </linearGradient>
    <linearGradient
       id="linearGradient6119"
       x1="22.104"
       x2="22.104"
       y1="40.124001"
       y2="10.035"
       gradientTransform="matrix(0.66556,0,0,1.4408,4.5203,-11.849)"
       gradientUnits="userSpaceOnUse"
       xlink:href="#linearGradient5031" />
    <linearGradient
       id="linearGradient5031">
      <stop
         id="stop5033"
         style="stop-color:#a3a3a3"
         offset="0" />
      <stop
         id="stop5035"
         style="stop-color:#bababa"
         offset="1" />
    </linearGradient>
    <linearGradient
       id="linearGradient6090"
       x1="22.104"
       x2="22.104"
       y1="40.124001"
       y2="10.035"
       gradientTransform="matrix(1.0228,0,0,1.4408,-0.69869,-6.5277)"
       gradientUnits="userSpaceOnUse"
       xlink:href="#linearGradient5031" />
    <linearGradient
       id="linearGradient5988"
       x1="22.104"
       x2="22.104"
       y1="40.124001"
       y2="10.035"
       gradientTransform="matrix(0.33421,0,0,1.4207,9.679,-1.238)"
       gradientUnits="userSpaceOnUse"
       xlink:href="#linearGradient5031" />
    <linearGradient
       id="linearGradient5984"
       x1="22.104"
       x2="22.104"
       y1="40.124001"
       y2="10.035"
       gradientTransform="matrix(0.48763,0,0,1.4407,7.7773,0.40824)"
       gradientUnits="userSpaceOnUse"
       xlink:href="#linearGradient5031" />
    <linearGradient
       id="linearGradient5980"
       x1="22.104"
       x2="22.104"
       y1="40.124001"
       y2="10.035"
       gradientTransform="matrix(0.3695,0,0,1.4205,9.0116,2.7803)"
       gradientUnits="userSpaceOnUse"
       xlink:href="#linearGradient5031" />
    <linearGradient
       id="linearGradient6073"
       x1="22.104"
       x2="22.104"
       y1="40.124001"
       y2="10.035"
       gradientTransform="matrix(0.38146,0,0,1.4009,8.4789,5.2584)"
       gradientUnits="userSpaceOnUse"
       xlink:href="#linearGradient5031" />
    <linearGradient
       id="linearGradient6143"
       x1="22.104"
       x2="22.104"
       y1="40.124001"
       y2="10.035"
       gradientTransform="matrix(0.40636,0,0,1.4408,8.3144,-5.594)"
       gradientUnits="userSpaceOnUse"
       xlink:href="#linearGradient5031" />
    <linearGradient
       id="linearGradient6065"
       x1="22.104"
       x2="22.104"
       y1="40.124001"
       y2="10.035"
       gradientTransform="matrix(1.7828,0,0,1.4408,-37.939,-28.441)"
       gradientUnits="userSpaceOnUse"
       xlink:href="#linearGradient5031" />
    <linearGradient
       id="linearGradient3104">
      <stop
         id="stop3106-6"
         style="stop-color:#aaa"
         offset="0" />
      <stop
         id="stop3108-7"
         style="stop-color:#c8c8c8"
         offset="1" />
    </linearGradient>
    <linearGradient
       id="linearGradient3805"
       x1="83.239998"
       x2="83.239998"
       y1="42.457001"
       y2="57.610001"
       gradientTransform="matrix(0.30548729,0,0,0.32192102,4.6386185,-1.6064246)"
       gradientUnits="userSpaceOnUse">
      <stop
         id="stop3127"
         style="stop-color:#fff"
         offset="0" />
      <stop
         id="stop3129"
         style="stop-color:#e1e1e1"
         offset="1" />
    </linearGradient>
    <linearGradient
       id="linearGradient3843"
       x1="25.497999"
       x2="25.497999"
       y1="44.638"
       y2="0.27636999"
       gradientUnits="userSpaceOnUse"
       xlink:href="#linearGradient3104"
       gradientTransform="matrix(0.75626898,0,0,0.75626898,5.7300659,2.0183726)" />
  </defs>
  <path
     style="fill:#483737;fill-opacity:1;stroke:none;stroke-width:1.09278476px;stroke-linecap:butt;stroke-linejoin:miter;stroke-opacity:1"
     d="M 14.972656 0.24414062 L 6.3242188 14.355469 L 14.544922 47.671875 L 32.884766 47.671875 L 41.105469 14.355469 L 32.457031 0.24414062 L 14.972656 0.24414062 z M 19.773438 13.257812 C 20.334273 13.258481 20.89132 13.344136 21.416016 13.552734 C 22.515081 14.091096 22.744088 15.05713 22.830078 16.160156 L 22.830078 19.806641 L 21.65625 19.806641 C 21.63314 19.537342 21.701701 18.963854 21.619141 18.888672 C 21.159089 19.55961 20.357603 19.924011 19.558594 19.958984 C 17.416246 20.062346 16.477694 18.76719 17.103516 16.800781 C 18.304882 15.55444 20.02517 15.770068 21.625 15.769531 C 21.55621 13.689275 18.925787 14.162128 17.525391 14.574219 C 17.154113 14.823038 17.36786 14.215577 17.3125 14.001953 C 17.184007 13.532912 17.81132 13.608125 18.107422 13.470703 C 18.646717 13.340531 19.212602 13.257144 19.773438 13.257812 z M 24.509766 14.267578 L 25.851562 14.267578 L 24.509766 14.267578 z M 26.857422 14.267578 L 28.201172 14.267578 L 26.857422 14.267578 z M 29.207031 14.267578 L 30.550781 14.267578 L 29.207031 14.267578 z M 24.509766 15.609375 L 25.851562 15.609375 L 24.509766 15.609375 z M 26.857422 15.609375 L 28.201172 15.609375 L 26.857422 15.609375 z M 29.207031 15.609375 L 29.208984 15.609375 L 29.207031 15.609375 z M 20.634766 16.580078 C 19.877935 16.594475 19.142867 16.696343 18.412109 16.943359 C 17.751462 17.383583 17.830216 18.540601 18.550781 18.882812 C 20.193102 19.479992 21.258224 18.631379 21.646484 17.058594 C 21.657184 16.826819 21.744525 16.487421 21.400391 16.59375 C 21.142675 16.581297 20.887042 16.575279 20.634766 16.580078 z M 24.509766 16.951172 L 26.523438 16.951172 L 24.509766 16.951172 z M 27.529297 16.951172 L 28.537109 16.951172 L 27.529297 16.951172 z M 29.542969 16.951172 L 30.214844 16.951172 L 29.542969 16.951172 z M 24.509766 18.294922 L 25.851562 18.294922 L 24.509766 18.294922 z M 26.857422 18.294922 L 28.201172 18.294922 L 26.857422 18.294922 z M 29.207031 18.294922 L 30.550781 18.294922 L 29.207031 18.294922 z M 24.509766 19.636719 L 26.523438 19.636719 L 24.509766 19.636719 z M 27.529297 19.636719 L 28.537109 19.636719 L 27.529297 19.636719 z M 29.542969 19.636719 L 29.544922 19.636719 L 29.542969 19.636719 z M 16.789062 21.986328 L 18.363281 21.986328 L 18.363281 22.658203 L 16.789062 22.658203 L 16.789062 21.986328 z M 18.578125 21.986328 L 20.064453 21.986328 L 20.064453 22.658203 L 18.578125 22.658203 L 18.578125 21.986328 z M 20.279297 21.986328 L 21.585938 21.986328 L 21.585938 22.658203 L 20.279297 22.658203 L 20.279297 21.986328 z M 21.800781 21.986328 L 22.375 21.986328 L 22.375 22.658203 L 21.800781 22.658203 L 21.800781 21.986328 z M 22.589844 21.986328 L 23.876953 21.986328 L 23.876953 22.658203 L 22.589844 22.658203 L 22.589844 21.986328 z M 24.089844 21.986328 L 27.421875 21.986328 L 27.421875 22.658203 L 24.089844 22.658203 L 24.089844 21.986328 z M 27.634766 21.986328 L 30.166016 21.986328 L 30.166016 22.658203 L 27.634766 22.658203 L 27.634766 21.986328 z M 30.380859 21.986328 L 31.154297 21.986328 L 31.154297 22.658203 L 30.380859 22.658203 L 30.380859 21.986328 z M 16.789062 23.328125 L 19.425781 23.328125 L 19.425781 24 L 16.789062 24 L 16.789062 23.328125 z M 19.632812 23.328125 L 22.458984 23.328125 L 22.458984 24 L 19.632812 24 L 19.632812 23.328125 z M 22.664062 23.328125 L 23.792969 23.328125 L 23.792969 24 L 22.664062 24 L 22.664062 23.328125 z M 24 23.328125 L 26.658203 23.328125 L 26.658203 24 L 24 24 L 24 23.328125 z M 26.865234 23.328125 L 28.683594 23.328125 L 28.683594 24 L 26.865234 24 L 26.865234 23.328125 z M 28.890625 23.328125 L 29.599609 23.328125 L 29.599609 24 L 28.890625 24 L 28.890625 23.328125 z M 29.806641 23.328125 L 30.478516 23.328125 L 30.478516 24 L 29.806641 24 L 29.806641 23.328125 z M 16.789062 24.671875 L 19.666016 24.671875 L 19.666016 25.341797 L 16.789062 25.341797 L 16.789062 24.671875 z M 19.890625 24.671875 L 22.972656 24.671875 L 22.972656 25.341797 L 19.890625 25.341797 L 19.890625 24.671875 z M 23.199219 24.671875 L 24.429688 24.671875 L 24.429688 25.341797 L 23.199219 25.341797 L 23.199219 24.671875 z M 24.654297 24.671875 L 27.554688 24.671875 L 27.554688 25.341797 L 24.654297 25.341797 L 24.654297 24.671875 z M 27.779297 24.671875 L 29.765625 24.671875 L 29.765625 25.341797 L 27.779297 25.341797 L 27.779297 24.671875 z M 29.990234 24.671875 L 30.763672 24.671875 L 30.763672 25.341797 L 29.990234 25.341797 L 29.990234 24.671875 z M 16.789062 26.013672 L 19.267578 26.013672 L 19.267578 26.685547 L 16.789062 26.685547 L 16.789062 26.013672 z M 19.451172 26.013672 L 20.644531 26.013672 L 20.644531 26.685547 L 19.451172 26.685547 L 19.451172 26.013672 z M 20.894531 26.013672 L 21.455078 26.013672 L 21.455078 26.685547 L 20.894531 26.685547 L 20.894531 26.013672 z M 21.595703 26.013672 L 22.673828 26.013672 L 22.673828 26.685547 L 21.595703 26.685547 L 21.595703 26.013672 z M 22.857422 26.013672 L 23.9375 26.013672 L 23.9375 26.685547 L 22.857422 26.685547 L 22.857422 26.013672 z M 24.279297 26.013672 L 26.013672 26.013672 L 26.013672 26.685547 L 24.279297 26.685547 L 24.279297 26.013672 z M 26.21875 26.013672 L 28.494141 26.013672 L 28.494141 26.685547 L 26.21875 26.685547 L 26.21875 26.013672 z M 28.814453 26.013672 L 30.34375 26.013672 L 30.34375 26.685547 L 28.814453 26.685547 L 28.814453 26.013672 z M 30.527344 26.013672 L 30.884766 26.013672 L 30.884766 26.685547 L 30.527344 26.685547 L 30.527344 26.013672 z M 16.789062 28.699219 L 18.84375 28.699219 L 18.84375 29.371094 L 16.789062 29.371094 L 16.789062 28.699219 z M 19.0625 28.699219 L 22.474609 28.699219 L 22.474609 29.371094 L 19.0625 29.371094 L 19.0625 28.699219 z M 22.693359 28.699219 L 24.341797 28.699219 L 24.341797 29.371094 L 22.693359 29.371094 L 22.693359 28.699219 z M 24.560547 28.699219 L 26.09375 28.699219 L 26.09375 29.371094 L 24.560547 29.371094 L 24.560547 28.699219 z M 26.3125 28.699219 L 27.621094 28.699219 L 27.621094 29.371094 L 26.3125 29.371094 L 26.3125 28.699219 z M 27.839844 28.699219 L 29.939453 28.699219 L 29.939453 29.371094 L 27.839844 29.371094 L 27.839844 28.699219 z M 16.789062 30.041016 L 19.267578 30.041016 L 19.267578 30.712891 L 16.789062 30.712891 L 16.789062 30.041016 z M 19.451172 30.041016 L 20.644531 30.041016 L 20.644531 30.712891 L 19.451172 30.712891 L 19.451172 30.041016 z M 20.894531 30.041016 L 21.455078 30.041016 L 21.455078 30.712891 L 20.894531 30.712891 L 20.894531 30.041016 z M 21.595703 30.041016 L 22.673828 30.041016 L 22.673828 30.712891 L 21.595703 30.712891 L 21.595703 30.041016 z M 22.857422 30.041016 L 23.9375 30.041016 L 23.9375 30.712891 L 22.857422 30.712891 L 22.857422 30.041016 z M 24.279297 30.041016 L 26.013672 30.041016 L 26.013672 30.712891 L 24.279297 30.712891 L 24.279297 30.041016 z M 26.21875 30.041016 L 28.494141 30.041016 L 28.494141 30.712891 L 26.21875 30.712891 L 26.21875 30.041016 z M 28.814453 30.041016 L 30.34375 30.041016 L 30.34375 30.712891 L 28.814453 30.712891 L 28.814453 30.041016 z M 30.527344 30.041016 L 30.884766 30.041016 L 30.884766 30.712891 L 30.527344 30.712891 L 30.527344 30.041016 z M 16.789062 31.382812 L 19.386719 31.382812 L 19.386719 32.054688 L 16.789062 32.054688 L 16.789062 31.382812 z M 19.599609 31.382812 L 20.417969 31.382812 L 20.417969 32.054688 L 19.599609 32.054688 L 19.599609 31.382812 z M 20.632812 31.382812 L 22.5 31.382812 L 22.5 32.054688 L 20.632812 32.054688 L 20.632812 31.382812 z M 22.714844 31.382812 L 23.988281 31.382812 L 23.988281 32.054688 L 22.714844 32.054688 L 22.714844 31.382812 z M 24.203125 31.382812 L 25.476562 31.382812 L 25.476562 32.054688 L 24.203125 32.054688 L 24.203125 31.382812 z M 25.691406 31.382812 L 27.535156 31.382812 L 27.535156 32.054688 L 25.691406 32.054688 L 25.691406 31.382812 z M 27.75 31.382812 L 28.134766 31.382812 L 28.134766 32.054688 L 27.75 32.054688 L 27.75 31.382812 z M 28.347656 31.382812 L 30.740234 31.382812 L 30.740234 32.054688 L 28.347656 32.054688 L 28.347656 31.382812 z M 16.789062 32.724609 L 19.337891 32.724609 L 19.337891 33.396484 L 16.789062 33.396484 L 16.789062 32.724609 z M 19.572266 32.724609 L 20.753906 32.724609 L 20.753906 33.396484 L 19.572266 33.396484 L 19.572266 32.724609 z M 20.990234 32.724609 L 22.626953 32.724609 L 22.626953 33.396484 L 20.990234 33.396484 L 20.990234 32.724609 z M 22.861328 32.724609 L 24.361328 32.724609 L 24.361328 33.396484 L 22.861328 33.396484 L 22.861328 32.724609 z M 24.597656 32.724609 L 25.892578 32.724609 L 25.892578 33.396484 L 24.597656 33.396484 L 24.597656 32.724609 z M 26.126953 32.724609 L 26.648438 32.724609 L 26.648438 33.396484 L 26.126953 33.396484 L 26.126953 32.724609 z M 26.882812 32.724609 L 28.201172 32.724609 L 28.201172 33.396484 L 26.882812 33.396484 L 26.882812 32.724609 z "
     id="path897" />
</svg>
