<?xml version="1.0" encoding="UTF-8" standalone="no"?>
<svg
   xmlns:dc="http://purl.org/dc/elements/1.1/"
   xmlns:cc="http://creativecommons.org/ns#"
   xmlns:rdf="http://www.w3.org/1999/02/22-rdf-syntax-ns#"
   xmlns:svg="http://www.w3.org/2000/svg"
   xmlns="http://www.w3.org/2000/svg"
   xmlns:sodipodi="http://sodipodi.sourceforge.net/DTD/sodipodi-0.dtd"
   xmlns:inkscape="http://www.inkscape.org/namespaces/inkscape"
   version="1.1"
   viewBox="0 0 48 48"
   id="svg58"
   sodipodi:docname="result.svg"
   inkscape:version="0.92.3 (2405546, 2018-03-11)">
  <defs
     id="defs62" />
  <sodipodi:namedview
     pagecolor="#ffffff"
     bordercolor="#666666"
     borderopacity="1"
     objecttolerance="10"
     gridtolerance="10"
     guidetolerance="10"
     inkscape:pageopacity="0"
     inkscape:pageshadow="2"
     inkscape:window-width="1366"
     inkscape:window-height="714"
     id="namedview60"
     showgrid="false"
     inkscape:zoom="4.9166667"
     inkscape:cx="4.1694915"
     inkscape:cy="24"
     inkscape:window-x="0"
     inkscape:window-y="25"
     inkscape:window-maximized="1"
     inkscape:current-layer="svg58" />
  <metadata
     id="metadata2">
    <rdf:RDF>
      <cc:Work
         rdf:about="">
        <dc:format>image/svg+xml</dc:format>
        <dc:type
           rdf:resource="http://purl.org/dc/dcmitype/StillImage" />
        <dc:title></dc:title>
      </cc:Work>
    </rdf:RDF>
  </metadata>
  <g
     id="g904">
    <polygon
       id="polygon4"
       fill="#93ac9d"
       points="430.85 185.71 349.48 512 161.26 512 79.883 185.71 141.19 0 369.54 0"
       transform="matrix(.096227 0 0 .093628 -.57347 .031184)" />
    <path
       id="path6"
       stroke-width=".094919"
       fill="#b7c8be"
       d="m18.278 43.817-3.3353 4.1525h18.113l-3.3353-4.1525z" />
    <g
       id="g14"
       stroke-width=".12053"
       fill="#6f917c"
       transform="matrix(.79835 0 0 .77679 -1.2952 -.58659)">
      <path
         id="path8"
         d="m38.85 57.162 4.1777 5.3457 9.8086-39.328-5.5625 0.20703z" />
      <path
         id="path10"
         d="m10.533 23.18 9.8066 39.328 4.1777-5.3457-8.4238-33.775z" />
      <path
         id="path12"
         d="m17.922 0.79492 3.8652 5.3457h19.793l3.8652-5.3457z" />
    </g>
    <g
       style="fill:#536c5d"
       id="g20"
       transform="matrix(0.096227,0,0,0.093628,-0.57347,0.031184)">
      <polygon
         id="polygon16"
         points="79.883,185.71 141.19,0 173.26,44.353 126.02,187.43 " />
      <polygon
         id="polygon18"
         points="384.71,187.43 337.47,44.353 369.54,0 430.85,185.71 " />
    </g>
    <g
       id="g38"
       fill="#dbe3de"
       transform="translate(.1901 -.23442)">
      <rect
         id="rect22"
         height="1.3371"
         width="15.101"
         y="9.3314"
         x="16.45" />
      <rect
         id="rect24"
         height="1.3371"
         width="19.093"
         y="13.331"
         x="14.454" />
      <rect
         id="rect26"
         height="1.3371"
         width="21.659"
         y="17.331"
         x="13.17" />
      <rect
         id="rect28"
         height="1.3371"
         width="19.663"
         y="21.331"
         x="14.168" />
      <rect
         id="rect30"
         height="1.3371"
         width="17.287"
         y="25.331"
         x="15.357" />
      <rect
         id="rect32"
         height="1.3371"
         width="15.766"
         y="29.331"
         x="16.117" />
      <rect
         id="rect34"
         height="1.3371"
         width="13.675"
         y="33.331"
         x="17.162" />
      <rect
         id="rect36"
         height="1.3371"
         width="11.774"
         y="37.331"
         x="18.113" />
    </g>
    <g
       style="fill:#1c241f"
       id="g56"
       transform="translate(-0.1901,-0.71608)">
      <rect
         id="rect40"
         height="1.3371"
         width="15.101"
         y="9.3313999"
         x="16.450001" />
      <rect
         id="rect42"
         height="1.3371"
         width="19.093"
         y="13.331"
         x="14.454" />
      <rect
         id="rect44"
         height="1.3371"
         width="21.659"
         y="17.330999"
         x="13.17" />
      <rect
         id="rect46"
         height="1.3371"
         width="19.663"
         y="21.330999"
         x="14.168" />
      <rect
         id="rect48"
         height="1.3371"
         width="17.287001"
         y="25.330999"
         x="15.357" />
      <rect
         id="rect50"
         height="1.3371"
         width="15.766"
         y="29.330999"
         x="16.117001" />
      <rect
         id="rect52"
         height="1.3371"
         width="13.675"
         y="33.331001"
         x="17.162001" />
      <rect
         id="rect54"
         height="1.3371"
         width="11.774"
         y="37.331001"
         x="18.113001" />
    </g>
  </g>
</svg>
