<svg xmlns="http://www.w3.org/2000/svg" viewBox="0 0 48 48"><path fill="#93ac9d" d="M14.94 47.97L7.11 17.42 13.01.03H35l5.9 17.39-7.83 30.55z"/><path fill="#bec8b7" d="M18.35 2.86h11.3v42.28h-11.3z"/><path fill="#1f241c" d="M18.35 2.86l-.01 14.18v1.2l-.01 12.72v1.47l-.01 12.71h.55v-.4h1.42v.4h1.13v-5.26h5.1v5.26h1v-.4h1.42v.4h.7l.02-14.5.01-14.18.01-13.6h-.7v.74h-1.43v-.74h-1.02V6.7h-5.1V2.86h-1.1v.74H18.9v-.74zM18.91 5h1.42v1.42H18.9zm8.64 0h1.42v1.42h-1.42zm-8.64 2.84h1.41v1.42H18.9zm8.64 0h1.42v1.42h-1.42zm-6.12.03h5.1v6.83h-5.1zm-2.53 2.8h1.42v1.43H18.9zm8.65 0l1.41.01v1.42h-1.41zm-8.65 2.85h1.42v1.41H18.9zm8.64 0h1.42v1.42h-1.42zm-6.11 2.35h5.1v1.16h-.02v5.67h-5.08zm-2.53.48h1.42v1.42H18.9v-.74zm8.64 0h1.42v1.42h-1.42zM18.9 19.2h1.41v1.42H18.9zm8.64 0h1.42v1.42h-1.42zm-8.65 2.84h1.42v1.42H18.9zm8.65 0h1.42v1.42h-1.42zm-6.11 1.84h5.08v6.83h-5.08zm-2.54 1h1.42v1.41h-1.42zm8.65 0h1.41v1.41h-1.41zm-8.65 2.83h1.42v1.42h-1.42zm8.64 0h1.42v1.42h-1.42zm-8.64 2.84h1.41v1.42H18.9v-1.01zm8.64 0h1.42v1.42h-1.41v-1.01zm-6.11 1.33h5.1v6.83h-5.1zm-2.53 1.5h1.41v1.42h-1.42zm8.64 0h1.42v1.43h-1.42zm-8.65 2.84h1.42v1.42h-1.42zm8.65 0h1.42v1.42h-1.42zm-8.65 2.84h1.42v1.42h-1.42zm8.65 0h1.41v1.42h-1.41zm-8.65 2.84h1.42v1.42h-1.42zm8.64 0h1.42v1.42h-1.42z"/><path fill="#6f917c" d="M29.72 43.82l3.34 4.15 7.83-30.55-4.44.16zm-22.6-26.4l7.82 30.55 3.34-4.15-6.73-26.24zM13.01.03l3.08 4.15h15.8L34.99.03z"/><path fill="#b7c8be" d="M18.28 43.82l-3.34 4.15h18.12l-3.34-4.15z"/><path fill="#536c5d" d="M7.11 17.42L13.01.03l3.09 4.15-4.55 13.4zm29.34.16L31.9 4.18 34.99.03l5.9 17.39z"/></svg>