<svg xmlns="http://www.w3.org/2000/svg" viewBox="0 0 48 48"><path fill="#6f6f91" d="M34.99.03l5.9 17.39-7.84 30.55h-18.1L7.1 17.42 13.01.03z"/><path d="M18.28 43.82l-3.34 4.15h18.12l-3.34-4.15z" fill="#9393ac"/><path d="M29.72 43.82l3.34 4.15 7.83-30.55-4.44.16zm-22.6-26.4l7.82 30.55 3.34-4.15-6.73-26.24zM13.01.03l3.08 4.15h15.8L34.99.03z" fill="#53536c" stroke-width=".12"/><path d="M7.11 17.42L13.01.03l3.09 4.15-4.55 13.4zm29.33.16L31.9 4.18 34.99.03l5.9 17.39z" fill="#373748"/><path d="M32.59 10.72l.01 15.11h-4.26l-.02-15.1zm-6.24 3.9l.02 11.2H22.1l-.02-11.2zm-10.29 3.96h4.27l.01 7.26h-4.27z" fill="#dbdbe3"/><path d="M31.92 10.16l.02 15.1h-4.27l-.02-15.1zm-6.23 3.9l.01 11.19h-4.27l-.01-11.2zM15.39 18h4.27l.02 7.26H15.4z" fill="#1c1c24"/></svg>