<svg xmlns="http://www.w3.org/2000/svg" xmlns:xlink="http://www.w3.org/1999/xlink" width="48" height="48"><defs><linearGradient id="b"><stop offset="0"/><stop offset="1" stop-opacity="0"/></linearGradient><linearGradient id="a"><stop offset="0" stop-color="#fff"/><stop offset=".67" stop-color="#999"/><stop offset="1" stop-color="#fff"/></linearGradient><linearGradient xlink:href="#a" id="d" x1="8.26" y1="18" x2="23.24" y2="18" gradientUnits="userSpaceOnUse"/><linearGradient gradientTransform="matrix(-1 0 0 1 47.69 0)" xlink:href="#a" id="e" x1="8.26" y1="18" x2="23.24" y2="18" gradientUnits="userSpaceOnUse"/><linearGradient xlink:href="#b" id="c" x1="7.11" y1="7.27" x2="43.91" y2="44.54" gradientUnits="userSpaceOnUse"/></defs><path d="M24 .35c-5.83 0-10.52 1.12-13.93 3.33-4.1 2.66-6.27 6.9-6.27 12.27 0 7.23 5.8 16.88 7.58 19.67a54.48 54.48 0 0 0 6.25 8.16c2.54 2.64 4.57 3.87 6.37 3.87 1.8 0 3.83-1.23 6.37-3.87 2-2.08 4.22-4.97 6.25-8.16 1.78-2.79 7.58-12.44 7.58-19.67 0-5.37-2.16-9.61-6.26-12.27C34.52 1.47 29.84.35 24 .35z" fill="#338000"/><path d="M27.13 46.52c1-.64 2.05-1.5 3.24-2.74 2-2.08 4.22-4.97 6.25-8.16.89-1.4 2.78-4.5 4.46-8.17a43.2 43.2 0 0 0 2.19-5.77c.57-1.97.93-3.92.93-5.73 0-1.22-.14-2.36-.36-3.45l-4.78-4.78-13.37 3.95-4.23-4.23-12.4 20.34-1.01-.34z" fill="url(#c)"/><path d="M16.08 5.12c2.43-.01 4.92 1.03 6.94 4.27l.22 21.48c-1.85-4.6-7.21-7.38-13.6-3.46l-.57.37c-.62.33-.8-.32-.8-.91l.07-17.44c.02-1.28.1-1.55 1.15-2.2 1.8-1.02 4.16-2.1 6.6-2.1z" fill="url(#d)"/><path d="M31.6 5.12c-2.42-.01-4.9 1.03-6.93 4.27l-.22 21.48c1.85-4.6 7.21-7.38 13.6-3.46l.57.37c.62.33.8-.32.8-.91l-.07-17.44c-.02-1.28-.1-1.55-1.15-2.2-1.8-1.02-4.16-2.1-6.6-2.1z" fill="url(#e)"/><path d="M3.92 14.74c-.02.4-.13.78-.13 1.2 0 7.24 5.81 16.9 7.6 19.68a54.47 54.47 0 0 0 6.24 8.16c2.54 2.64 4.57 3.87 6.37 3.87 1.8 0 3.83-1.23 6.37-3.87 2-2.08 4.22-4.97 6.25-8.16 1.78-2.79 7.58-12.44 7.58-19.67 0-.43-.1-.8-.13-1.21a21.6 21.6 0 0 1-.8 4.94 43.2 43.2 0 0 1-2.2 5.77 69.59 69.59 0 0 1-4.45 8.17 54.47 54.47 0 0 1-6.25 8.16 17.98 17.98 0 0 1-3.46 2.93c-1.05.64-2 .94-2.91.94-.9 0-1.86-.3-2.9-.94-1.06-.64-2.2-1.6-3.47-2.93-2-2.08-4.22-4.97-6.25-8.16a69.6 69.6 0 0 1-4.46-8.17 43.2 43.2 0 0 1-2.19-5.77 21.6 21.6 0 0 1-.8-4.94z" opacity=".5"/></svg>