<svg xmlns="http://www.w3.org/2000/svg" width="48" height="48" viewBox="0 0 12.7 12.7"><path d="M6.35.1C4.81.1 3.57.38 2.66.96A3.67 3.67 0 0 0 1 4.22c0 1.91 1.54 4.47 2.01 5.2.54.85 1.13 1.61 1.65 2.16.68.7 1.21 1.03 1.7 1.03.47 0 1-.33 1.68-1.03.52-.55 1.11-1.31 1.65-2.15.47-.74 2-3.3 2-5.21 0-1.42-.57-2.54-1.65-3.25A6.75 6.75 0 0 0 6.35.1z" fill="#6f7c91"/><path d="M1.04 3.9c0 .1-.04.2-.04.32 0 1.91 1.54 4.47 2.01 5.2.54.85 1.13 1.61 1.65 2.16.68.7 1.21 1.03 1.69 1.03s1.01-.33 1.69-1.03c.52-.55 1.11-1.31 1.65-2.15.47-.74 2-3.3 2-5.21 0-.11-.02-.21-.03-.32-.02.42-.08.86-.21 1.3-.15.53-.36 1.05-.58 1.53-.44.97-.95 1.8-1.18 2.17-.54.84-1.13 1.6-1.65 2.15-.34.35-.64.61-.92.78-.28.17-.53.25-.77.25s-.5-.08-.77-.25a4.76 4.76 0 0 1-.92-.78A14.41 14.41 0 0 1 3.01 8.9c-.23-.37-.74-1.2-1.18-2.17-.22-.48-.43-1-.58-1.52-.13-.45-.19-.89-.21-1.31z" opacity=".5"/><path d="M8.61 1.56c-1.25 0-1.3 1.47-1.34 2.43H5.8c0-.56-.17-2 .52-2 .3 0 .3.56.77.56.21 0 .32-.16.27-.34-.1-.36-.66-.53-.97-.53-1.22 0-1.27 1.35-1.3 2.3h-.86l-.05.23h.9l-.07 3.66c.01.33.03 1.36-.32 1.36-.04 0-.11-.05-.13-.12-.04-.13.05-.22.02-.35-.04-.14-.25-.23-.39-.23-.27 0-.35.18-.3.39.08.26.39.57.85.57.89 0 1.02-1.2 1.02-1.89l.05-3.4h1.45L7.2 7.88c.01.33.03 1.36-.32 1.36-.04 0-.12-.05-.13-.12-.04-.13.05-.22.02-.35-.04-.14-.25-.23-.4-.23-.26 0-.34.18-.28.39.07.26.38.57.84.57.89 0 1.02-1.2 1.02-1.89L8 4.2h.83l.05-.22h-.88c0-.56-.14-2.1.54-2.1.3 0 .3.56.78.56.21 0 .31-.17.26-.34-.1-.37-.65-.54-.96-.54z" fill="#333"/><path d="M8.22 1.33c-1.25 0-1.3 1.46-1.34 2.42H5.42c0-.56-.16-2 .52-2 .3 0 .3.57.77.57.22 0 .32-.16.27-.34-.1-.37-.65-.54-.96-.54-1.23 0-1.28 1.35-1.31 2.31h-.86l-.05.22h.9l-.06 3.66c0 .34.03 1.36-.32 1.36-.05 0-.12-.05-.14-.11v-.01c-.03-.12.06-.21.02-.34-.04-.15-.25-.24-.39-.24-.27 0-.35.19-.3.4.08.26.4.57.85.57.89 0 1.02-1.21 1.03-1.9l.04-3.39h1.46L6.8 7.63C6.82 7.97 6.84 9 6.5 9c-.05 0-.12-.05-.14-.11v-.01c-.04-.12.05-.21.02-.34-.04-.15-.25-.24-.39-.24-.27 0-.35.19-.3.4.08.26.39.57.85.57.89 0 1.02-1.21 1.02-1.9l.04-3.4h.83l.05-.21H7.6c0-.56-.14-2.1.54-2.1.3 0 .3.55.78.55.21 0 .31-.16.27-.34-.1-.36-.66-.54-.97-.54z" fill="#ffb380"/></svg>