<?xml version="1.0" encoding="UTF-8" standalone="no"?><svg xmlns:dc="http://purl.org/dc/elements/1.1/" xmlns:cc="http://creativecommons.org/ns#" xmlns:rdf="http://www.w3.org/1999/02/22-rdf-syntax-ns#" xmlns="http://www.w3.org/2000/svg" xmlns:xlink="http://www.w3.org/1999/xlink" width="48" height="48"><metadata><rdf:RDF><cc:Work><dc:format>image/svg+xml</dc:format><dc:type rdf:resource="http://purl.org/dc/dcmitype/StillImage"/><dc:title/></cc:Work></rdf:RDF></metadata><defs><linearGradient id="g"><stop offset="0" stop-color="#502d16"/><stop offset="1" stop-color="#c87137"/></linearGradient><linearGradient id="f"><stop offset="0" stop-color="#1a1a1a"/><stop offset="1" stop-color="#333"/></linearGradient><linearGradient id="e"><stop offset="0"/><stop offset="1" stop-opacity="0"/></linearGradient><linearGradient id="d"><stop offset="0"/><stop offset="1" stop-opacity=".02"/></linearGradient><linearGradient id="b"><stop offset="0" stop-color="#dbe2e3"/><stop offset="1" stop-color="#374548"/></linearGradient><linearGradient id="a"><stop offset="0" stop-color="#aef"/><stop offset="1" stop-color="#fff" stop-opacity=".01"/></linearGradient><linearGradient id="c"><stop offset="0" stop-color="#1a1a1a"/><stop offset="1" stop-color="#4d4d4d"/></linearGradient><linearGradient xlink:href="#e" id="h" gradientUnits="userSpaceOnUse" x1="7.84" y1="4.44" x2="46.08" y2="33.15"/><linearGradient xlink:href="#f" id="j" x1="9.91" y1="17" x2="28.42" y2="17" gradientUnits="userSpaceOnUse"/><linearGradient xlink:href="#g" id="i" x1="20.79" y1="15.69" x2="41.17" y2="15.69" gradientUnits="userSpaceOnUse"/></defs><path d="M24 .35c-5.83 0-10.5 1.1-13.93 3.32C5.97 6.34 3.8 10.6 3.8 15.96c0 7.21 5.8 16.87 7.58 19.66a54.47 54.47 0 0 0 6.26 8.17c2.54 2.63 4.57 3.86 6.37 3.86 1.8 0 3.83-1.23 6.37-3.87 2-2.08 4.22-4.98 6.25-8.16 1.78-2.78 7.59-12.44 7.59-19.66 0-5.38-2.18-9.63-6.28-12.28C34.54 1.45 29.86.34 24 .34z" fill="#bcd35f"/><path d="M29.35 44.65c.35-.33.65-.48 1.03-.87 2-2.08 4.22-4.98 6.25-8.16.9-1.4 2.79-4.5 4.46-8.16.84-1.84 1.62-3.8 2.2-5.77.01-.06 0-.1.02-.16L31.21 9.42l-.48 2.36-2.37-2.37-1.09.2-1.65-1.65-2.56-2.56.03 6.17-3.04 5.08-6.11-6.1.08 2.79-1.09 3.31-1.68 2.18-.72 2.13V24l2.65 4.43z" opacity=".54" fill="url(#h)"/><path d="M41.17 21.96H20.8L31.2 9.42l9.97 12.54" fill="url(#i)"/><path d="M25.1 28.6c-.94 0-1.78-.2-1.98-1.11a38.98 38.98 0 0 1-.24-4.4s.08-2.02-.44-2.27c-1.45 1.04-1.42 1.55-2.96 3.68.38.49.22 2.74.22 2.74s.08-.02.24-.02c.23 0 .6.04 1.06.24.75.33.37 1.12-.54 1.12h-7.24l-.04-.15c-.1 0-.2-.03-.3-.1a7.1 7.1 0 0 1-2.81-4.54 7.93 7.93 0 0 1 1.34-6.2c2.73-3.91 2.04-5.8 1.62-6.44a.55.55 0 1 1 .9-.6c.69 1.01 1.38 3.36-1.62 7.66a6.86 6.86 0 0 0 .56 8.72 13.12 13.12 0 0 1 1.01-7.8c1.29-3 5.73-3.38 6.91-5.03.35-.49.61-1.2.8-1.97l.18-.84c.27-1.55.31-3.03.31-3.03s.25-2.71.9-2.85h.08c.6 0 .8 1.66.8 1.66h.09c.4 0 2.07.08 2.7 1.33.3.57 1.52.77 1.71 1.01.2.25-.19.47-.38.96-.2.74-.38.93-1.29.99-.57.03-1.03.35-1.2.96-.08.26-.1.58-.07.96l.06.41c.3 1.54.39 4.53-.96 5.02l-.13 5.18s.3 3.3 1.26 3.38c.96.08.96 1.26-.14 1.31l-.41.02" fill="url(#j)"/><path d="M24 .36c-5.83 0-10.52 1.12-13.93 3.33-4.1 2.66-6.27 6.9-6.27 12.27 0 7.23 5.8 16.88 7.58 19.67a54.48 54.48 0 0 0 6.25 8.16c2.54 2.64 4.57 3.87 6.37 3.87 1.8 0 3.83-1.23 6.37-3.87 2-2.08 4.22-4.97 6.25-8.16 1.78-2.79 7.58-12.44 7.58-19.67 0-5.37-2.16-9.61-6.26-12.27C34.52 1.48 29.84.36 24 .36zm0 .14c2.11.09 4.12.27 5.88.7 1.16.27 2.25.62 3.26 1.03 1.01.42 1.94.9 2.8 1.46a12.92 12.92 0 0 1 4.66 5.12c.53 1.03.92 2.15 1.2 3.34.26 1.2.4 2.47.4 3.8 0 1.82-.37 3.77-.94 5.74a43.19 43.19 0 0 1-2.2 5.77 69.59 69.59 0 0 1-4.45 8.17 54.47 54.47 0 0 1-6.25 8.16 17.98 17.98 0 0 1-3.46 2.93c-.32.2-.62.3-.91.39-.3-.08-.6-.2-.9-.4-1.06-.63-2.2-1.6-3.47-2.92-2-2.08-4.22-4.97-6.25-8.16a69.6 69.6 0 0 1-4.46-8.17 43.19 43.19 0 0 1-2.19-5.77 20.93 20.93 0 0 1-.93-5.73c0-1.34.13-2.61.4-3.8.27-1.2.67-2.32 1.2-3.35a12.92 12.92 0 0 1 4.67-5.12 17.1 17.1 0 0 1 2.8-1.46c1-.41 2.1-.76 3.26-1.04C19.88.77 21.89.59 24 .51z" opacity=".2"/></svg>