<svg xmlns="http://www.w3.org/2000/svg" xmlns:xlink="http://www.w3.org/1999/xlink" viewBox="0 0 48 48"><defs><linearGradient gradientTransform="translate(.29 -.14)" xlink:href="#a" id="f" x1="26.27" y1="21.39" x2="35.37" y2="30.45" gradientUnits="userSpaceOnUse"/><linearGradient id="a"><stop offset="0"/><stop offset="1" stop-opacity="0"/></linearGradient><linearGradient gradientTransform="translate(.29 -.14)" xlink:href="#a" id="e" x1="14.36" y1="22.11" x2="23.06" y2="30.45" gradientUnits="userSpaceOnUse"/><linearGradient gradientTransform="translate(.29 -.14)" xlink:href="#a" id="d" x1="26.39" y1="8.97" x2="35.37" y2="18.13" gradientUnits="userSpaceOnUse"/><linearGradient gradientTransform="translate(.29 -.14)" xlink:href="#a" id="c" x1="14.14" y1="9.41" x2="23.06" y2="18.13" gradientUnits="userSpaceOnUse"/><linearGradient gradientTransform="translate(.29 -.14)" xlink:href="#a" id="b" gradientUnits="userSpaceOnUse" x1="11.57" y1="6.64" x2="47.57" y2="42.81"/></defs><path d="M24 .35c-5.83 0-10.51 1.1-13.93 3.32-4.1 2.67-6.28 6.92-6.28 12.29 0 7.21 5.8 16.87 7.58 19.66a54.48 54.48 0 0 0 6.25 8.17c2.54 2.63 4.57 3.86 6.37 3.86 1.8 0 3.83-1.23 6.37-3.87 2-2.08 4.22-4.98 6.25-8.16 1.78-2.78 7.59-12.44 7.59-19.66 0-5.38-2.17-9.63-6.27-12.28C34.53 1.45 29.84.34 23.99.34z" fill="#5d6c53"/><path style="text-indent:0;text-transform:none" d="M4.16 12.48a17.4 17.4 0 0 0-.36 3.47c0 .65.25 1.37.33 2.06l6.47 13.56 7.43-15.76 7.57 7.75 9.01-16.23 8.71 3.47c-.22-.68-.4-1.39-.71-2-.09-.17-.22-.3-.31-.46l-8.47-3.62-8.78 14.83-7.7-7.92-6.64 14.2z" color="#000" fill="#f9f9f9"/><path d="M16.73 1.2c-.14.03-.34.01-.48.05-.35.08-.65.21-.98.3V40.6c.5.62.98 1.37 1.46 1.91zm14.54-.03v41.66c.48-.53.97-1.3 1.46-1.9V1.47c-.25-.07-.47-.17-.73-.23-.22-.06-.51-.03-.73-.08z" opacity=".6" fill="#fff"/><path d="M27.65 46.09c.85-.62 1.72-1.27 2.72-2.3 2-2.08 4.22-4.98 6.25-8.16.89-1.4 2.79-4.5 4.46-8.18.84-1.83 1.62-3.8 2.19-5.77.57-1.97.94-3.93.94-5.73 0-.36-.1-.68-.11-1.03L35.66 6.5l-8.2 4.92-4.1-4.92L11.86 18l5.74 5.4-5.74 6.9z" opacity=".85" fill="url(#b)"/><path d="M11.86 6.5h11.5V18h-11.5zm12.31 0h11.5V18h-11.5zM11.86 18.8h11.5v11.5h-11.5zm12.31 0h11.5v11.5h-11.5z" fill="#6f918a"/><path d="M14.43 12.71l3.43-.56.33-2.97 5.13 5.13.03 3.67h-3.71z" fill="url(#c)"/><path d="M17.6 8.96a.82.82 0 0 0-.82.81v1.65h-1.64a.82.82 0 1 0 0 1.65h1.64v1.64a.82.82 0 1 0 1.64 0v-1.65h1.65a.82.82 0 1 0 0-1.65h-1.65V9.78a.82.82 0 0 0-.82-.82z" fill="#fff"/><path d="M26.68 12.62l6.39-.9 2.56 2.55.03 3.72-3.64-.03z" fill="url(#d)"/><path d="M27.45 11.41a.82.82 0 1 0 0 1.65h4.93a.82.82 0 1 0 0-1.65z" fill="#fff"/><path d="M20.39 22.1l-5.46 5.1 3.11 3.1h5.31l.05-5.18z" fill="url(#e)"/><path d="M15.55 21.68a.82.82 0 0 0-.58 1.4l1.47 1.47-1.47 1.47a.82.82 0 0 0 1.16 1.16l1.47-1.47 1.48 1.47a.82.82 0 0 0 1.16 0 .82.82 0 0 0 0-1.16l-1.48-1.47 1.48-1.47a.82.82 0 1 0-1.16-1.16L17.6 23.4l-1.47-1.47a.82.82 0 0 0-.58-.24z" fill="#fff"/><path d="M26.74 26.25l1.63-.8-1.4-1.4L33 22.73l2.68 2.68-.02 4.9-4.89-.02z" fill="url(#f)"/><path d="M27.45 22.5a.82.82 0 1 0 0 1.64h4.93a.82.82 0 1 0 0-1.64zm0 2.45a.82.82 0 1 0 0 1.65h4.93a.82.82 0 1 0 0-1.64z" fill="#fff"/><path d="M24 .35c-5.83 0-10.51 1.1-13.93 3.32-4.1 2.67-6.28 6.92-6.28 12.29 0 7.21 5.8 16.87 7.58 19.66a54.48 54.48 0 0 0 6.25 8.17c2.54 2.63 4.57 3.86 6.37 3.86 1.8 0 3.83-1.23 6.37-3.87 2-2.08 4.22-4.98 6.25-8.16 1.78-2.78 7.59-12.44 7.59-19.66 0-5.38-2.17-9.63-6.27-12.28C34.53 1.45 29.84.34 23.99.34zm0 .15c2.12.07 4.12.27 5.88.68 1.16.29 2.25.64 3.26 1.05 1.01.42 1.95.9 2.8 1.46a12.92 12.92 0 0 1 4.67 5.12c.53 1.02.93 2.13 1.2 3.33.26 1.2.4 2.47.4 3.8 0 1.82-.37 3.78-.94 5.75a43.19 43.19 0 0 1-2.19 5.77 69.59 69.59 0 0 1-4.46 8.17 54.47 54.47 0 0 1-6.25 8.15 17.98 17.98 0 0 1-3.46 2.93c-.32.2-.62.3-.9.4-.3-.1-.6-.2-.92-.4a17.62 17.62 0 0 1-3.46-2.93c-2-2.08-4.21-4.98-6.25-8.16a69.6 69.6 0 0 1-4.46-8.16 43.19 43.19 0 0 1-2.19-5.78 20.93 20.93 0 0 1-.93-5.72c0-1.35.13-2.63.4-3.82.27-1.2.67-2.3 1.2-3.34a12.92 12.92 0 0 1 4.67-5.12 17.1 17.1 0 0 1 2.8-1.46c1-.4 2.1-.76 3.26-1.04 1.75-.42 3.76-.6 5.87-.7z" opacity=".2"/><path d="M3.93 14.74c-.03.41-.13.78-.13 1.2 0 7.24 5.8 16.9 7.58 19.68a54.47 54.47 0 0 0 6.25 8.16c2.54 2.64 4.57 3.87 6.37 3.87 1.8 0 3.83-1.23 6.37-3.87 2-2.08 4.22-4.97 6.25-8.16 1.78-2.79 7.59-12.44 7.59-19.67 0-.43-.1-.8-.13-1.21a21.6 21.6 0 0 1-.8 4.94 43.2 43.2 0 0 1-2.2 5.77 69.59 69.59 0 0 1-4.46 8.17 54.46 54.46 0 0 1-6.25 8.16 17.98 17.98 0 0 1-3.46 2.93c-1.05.64-2 .94-2.9.94-.91 0-1.87-.3-2.92-.94a17.72 17.72 0 0 1-3.46-2.93c-2-2.08-4.22-4.97-6.25-8.16-.89-1.4-2.78-4.5-4.46-8.17a43.19 43.19 0 0 1-2.19-5.77c-.5-1.7-.72-3.35-.8-4.94z" opacity=".2"/></svg>