<svg xmlns="http://www.w3.org/2000/svg" xmlns:xlink="http://www.w3.org/1999/xlink" viewBox="0 0 48 48"><defs><linearGradient id="a"><stop stop-color="#666" offset="0"/><stop stop-color="#fff" offset="1"/></linearGradient><linearGradient gradientTransform="translate(23 -16.95)" xlink:href="#b" id="e" x1="11.66" y1="4.34" x2="41.68" y2="33.54" gradientUnits="userSpaceOnUse"/><linearGradient id="b"><stop offset="0"/><stop offset="1" stop-opacity="0"/></linearGradient><linearGradient xlink:href="#c" id="d" x1="24.62" y1="12.59" x2="24.51" y2="28.5" gradientUnits="userSpaceOnUse" gradientTransform="matrix(1.12791 0 0 1.1351 17.5 -20.79)"/><linearGradient id="c"><stop offset="0" stop-color="#999"/><stop offset="1" stop-color="#fff"/></linearGradient></defs><path d="M24 .35c-5.83 0-10.52 1.12-13.93 3.33-4.1 2.66-6.27 6.9-6.27 12.27 0 7.23 5.8 16.88 7.58 19.67a54.48 54.48 0 0 0 6.25 8.16c2.54 2.64 4.57 3.87 6.37 3.87 1.8 0 3.83-1.23 6.37-3.87 2-2.08 4.22-4.97 6.25-8.16 1.78-2.79 7.58-12.44 7.58-19.67 0-5.37-2.16-9.61-6.26-12.27C34.52 1.47 29.84.35 24 .35z" fill="#ff7f2a"/><path d="M33.92-5.4H60v16.62H33.9z" opacity=".88" fill="url(#d)" transform="translate(-23 16.95)"/><path d="M10.44 7.28v21.44h27.12V7.28zm1.08 4.88h24.96v15.7H11.52z" fill="#1a1a1a"/><path d="M50.74 29.07a18.1 18.1 0 0 0 2.64-2.24c2-2.08 4.22-4.97 6.25-8.16.89-1.4 2.78-4.5 4.46-8.17a43.2 43.2 0 0 0 2.19-5.77A21 21 0 0 0 67.2-1c0-.8-.14-1.52-.24-2.27l-6.4-6.4-.56 20.9-26.55.54z" fill="url(#e)" transform="translate(-23 16.95)"/><path d="M24 .35c-5.83 0-10.52 1.12-13.93 3.33-4.1 2.66-6.27 6.9-6.27 12.27 0 7.23 5.8 16.88 7.58 19.67a54.48 54.48 0 0 0 6.25 8.16c2.54 2.64 4.57 3.87 6.37 3.87 1.8 0 3.83-1.23 6.37-3.87 2-2.08 4.22-4.97 6.25-8.16 1.78-2.79 7.58-12.44 7.58-19.67 0-5.37-2.16-9.61-6.26-12.27C34.52 1.47 29.84.35 24 .35zm0 .14c2.11.09 4.12.27 5.88.7 1.16.27 2.25.62 3.26 1.03 1.01.42 1.94.9 2.8 1.46A12.92 12.92 0 0 1 40.6 8.8c.53 1.03.92 2.15 1.2 3.34.26 1.2.4 2.47.4 3.8 0 1.82-.37 3.77-.94 5.74a43.19 43.19 0 0 1-2.2 5.77 69.59 69.59 0 0 1-4.45 8.17 54.47 54.47 0 0 1-6.25 8.16 17.98 17.98 0 0 1-3.46 2.93c-.32.2-.62.3-.91.39-.3-.08-.6-.2-.9-.4-1.06-.63-2.2-1.6-3.47-2.92-2-2.08-4.22-4.97-6.25-8.16a69.6 69.6 0 0 1-4.46-8.17 43.19 43.19 0 0 1-2.19-5.77 20.93 20.93 0 0 1-.93-5.73c0-1.34.13-2.61.4-3.8.27-1.2.67-2.32 1.2-3.35a12.92 12.92 0 0 1 4.67-5.12 17.1 17.1 0 0 1 2.8-1.46c1-.41 2.1-.76 3.26-1.04C19.88.76 21.89.58 24 .5z" opacity=".2"/><path d="M23.86 13.28a1.96 1.96 0 0 0-.25.02 2.96 2.96 0 0 0-2.34 3.87c.02.08.02.1-.08.25a1.5 1.5 0 0 0 .18 1.91c.11.12.45.32.62.37.05.02.06.06.06.36 0 .43.04.55.2.62.16.07 3.43.07 3.6 0 .15-.07.2-.2.2-.6 0-.29 0-.33.06-.35.36-.13.74-.46.9-.8.26-.52.2-1.16-.14-1.6l-.1-.13.06-.2a2.88 2.88 0 0 0-.74-2.87 3.1 3.1 0 0 0-1.35-.77 3.77 3.77 0 0 0-.88-.08zm1.54 4.12c.18 0 .41.04.54.1.19.1.35.27.46.46.06.11.07.19.07.4 0 .24-.01.3-.08.44-.1.18-.28.35-.47.45-.11.07-.19.08-.4.08-.23 0-.3-.01-.42-.08a1.15 1.15 0 0 1-.46-.45c-.08-.14-.09-.2-.09-.43 0-.22.01-.3.08-.4a1.1 1.1 0 0 1 .62-.55.56.56 0 0 1 .15-.02zm-2.83.07a.8.8 0 0 1 .58 1.46.8.8 0 0 1-1.12-.18.82.82 0 0 1 .38-1.25.63.63 0 0 1 .17-.03zm6.5 1.76a.39.39 0 0 0-.32.11.77.77 0 0 0-.19.45c0 .1-.06.22-.18.33-.04.04-.69.37-1.42.73a609.6 609.6 0 0 0-2.14 1.04l-.82.4-.8-.4-2.16-1.04a17.83 17.83 0 0 1-1.42-.73c-.13-.11-.18-.23-.18-.36 0-.13-.1-.34-.2-.44a.45.45 0 0 0-.5-.02c-.23.14-.3.3-.27.66.02.25.01.28-.04.35a.63.63 0 0 1-.19.15c-.42.21-.5.74-.16.97.15.1.37.08.6-.04.25-.12.39-.11.82.08l3.08 1.5c0 .01-.76.4-1.69.84-1.92.92-1.9.92-2.2.75-.24-.12-.46-.13-.6-.03-.35.22-.26.7.16.96.1.06.19.15.2.18l.01.32c0 .17.01.3.05.37.12.3.4.44.64.32.16-.08.23-.22.3-.6.04-.22.13-.27 2.4-1.37L24 23.67l.9.44a50.04 50.04 0 0 1 3.49 1.73c.12.1.17.23.17.37 0 .38.4.64.7.44a.62.62 0 0 0 .18-.21c.08-.13.08-.18.08-.45 0-.31 0-.32.1-.4l.2-.14c.17-.1.3-.34.3-.54 0-.4-.38-.57-.8-.35-.31.17-.3.17-2.21-.75a51.83 51.83 0 0 1-1.7-.83c0-.02 2.26-1.12 3.1-1.5.43-.2.55-.22.85-.08.24.12.41.13.56.02.34-.22.26-.75-.16-.96-.2-.11-.23-.15-.22-.49 0-.3-.04-.45-.15-.57a.5.5 0 0 0-.32-.17zm-5.45.21a.24.24 0 0 1 .16.06c.08.08.08.29 0 .38l-.05.06-.1-.08a.9.9 0 0 1-.18-.21c-.06-.11-.06-.11 0-.16a.27.27 0 0 1 .17-.05zm.89 0c.06 0 .12.01.17.05.06.05.06.05 0 .16a.9.9 0 0 1-.18.2l-.1.1-.06-.07c-.08-.1-.07-.3 0-.38a.24.24 0 0 1 .17-.06z" fill="#1a1a1a"/></svg>