<svg xmlns="http://www.w3.org/2000/svg" xmlns:xlink="http://www.w3.org/1999/xlink" width="48" height="48" viewBox="0 0 12.7 12.7"><defs><linearGradient id="c"><stop offset="0"/><stop offset="1" stop-opacity="0"/></linearGradient><linearGradient id="d"><stop offset="0" stop-opacity=".02"/><stop offset="1" stop-opacity=".98"/></linearGradient><linearGradient id="b"><stop offset="0"/><stop offset="1" stop-opacity="0"/></linearGradient><clipPath id="a"/><linearGradient xlink:href="#b" id="g" x1="3.18" y1="288.14" x2="11.36" y2="296.21" gradientUnits="userSpaceOnUse"/><linearGradient xlink:href="#c" id="e" x1="3.8" y1="285.67" x2="13.4" y2="295.04" gradientUnits="userSpaceOnUse"/><linearGradient xlink:href="#d" id="f" gradientUnits="userSpaceOnUse" x1=".22" y1="293.14" x2="9.52" y2="286.82"/></defs><path d="M6.35.1C4.81.1 3.57.38 2.66.96A3.67 3.67 0 0 0 1 4.22c0 1.91 1.54 4.47 2.01 5.2.54.85 1.13 1.61 1.65 2.16.68.7 1.21 1.03 1.69 1.03s1.01-.33 1.69-1.03c.52-.55 1.11-1.31 1.65-2.15.47-.74 2-3.3 2-5.21 0-1.42-.57-2.54-1.65-3.25A6.75 6.75 0 0 0 6.35.1z" fill="#003380"/><path d="M8.36 295.46a14.43 14.43 0 0 0 2.5-3.9c.23-.48.44-1 .59-1.52.14-.5.23-1 .24-1.45l-3.22-2.66h-4.2v4.05z" opacity=".5" fill="url(#e)" transform="translate(0 -284.3)"/><path d="M1.15 289.41c.04.21.04.41.1.63.15.52.36 1.04.58 1.52.44.97.95 1.8 1.18 2.17.19.28.38.47.57.73l5.94-3.59v-4.05H5.33z" opacity=".5" fill="url(#f)" transform="translate(0 -284.3)"/><path d="M7.64 296.22c.13-.12.25-.19.4-.34a14.41 14.41 0 0 0 2.52-3.76l-3.2-3.98-3.76.41-.42 3.65z" opacity=".5" fill="url(#g)" transform="translate(0 -284.3)"/><path d="M4.28 1.63v4.05h4.19V1.63zm.42.4h3.34v3.24H4.7z" fill="#f2f2f2"/><path d="M5.33 2.52v4.05h4.2V2.52zm.43.4H9.1v3.24H5.76z" fill="#f2f2f2"/><path d="M3.18 3.84V7.9h4.19V3.84zm.42.41h3.34V7.5H3.6z" fill="#f9f9f9"/><path d="M1.04 3.9c0 .1-.04.2-.04.32 0 1.91 1.54 4.47 2.01 5.2.54.85 1.13 1.61 1.65 2.16.68.7 1.21 1.03 1.69 1.03s1.01-.33 1.69-1.03c.52-.55 1.11-1.31 1.65-2.15.47-.74 2-3.3 2-5.21 0-.11-.02-.21-.03-.32-.02.42-.08.86-.21 1.3-.15.53-.36 1.05-.58 1.53-.44.97-.95 1.8-1.18 2.17-.54.84-1.13 1.6-1.65 2.15-.34.35-.64.61-.92.78-.28.17-.53.25-.77.25s-.5-.08-.77-.25a4.76 4.76 0 0 1-.92-.78A14.41 14.41 0 0 1 3.01 8.9c-.23-.37-.74-1.2-1.18-2.17-.22-.48-.43-1-.58-1.52-.13-.45-.19-.89-.21-1.31z" opacity=".5"/></svg>