<svg xmlns="http://www.w3.org/2000/svg" xmlns:xlink="http://www.w3.org/1999/xlink" width="48" height="48" viewBox="0 0 12.7 12.7"><defs><linearGradient id="a"><stop offset="0"/><stop offset="1" stop-opacity="0"/></linearGradient><linearGradient xlink:href="#a" id="b" gradientUnits="userSpaceOnUse" x1="3.3" y1="290.03" x2="11.7" y2="293.38"/></defs><path d="M6.35.1C4.81.1 3.57.38 2.66.96A3.67 3.67 0 0 0 1 4.22c0 1.91 1.54 4.47 2.01 5.2.54.85 1.13 1.61 1.65 2.16.68.7 1.21 1.03 1.69 1.03s1.01-.33 1.69-1.03c.52-.55 1.11-1.31 1.65-2.15.47-.74 2-3.3 2-5.21 0-1.42-.57-2.54-1.65-3.25A6.75 6.75 0 0 0 6.35.1z" fill="#2c5aa0"/><path d="M6.98 296.7c.05-.02.09-.01.14-.04.28-.17.58-.43.92-.78.52-.55 1.11-1.31 1.65-2.15.23-.37.74-1.2 1.18-2.17.22-.48.43-1 .58-1.52.05-.2.05-.36.09-.55l-3.52-3.5-.5 1.95-2.69 2.88 1.47 1.47.05 1.53-1.84.42z" fill="url(#b)" opacity=".6" transform="translate(0 -284.3)"/><g transform="matrix(.16064 0 0 .16064 1.85 1.32)" fill="#fff"><ellipse cx="28" cy="53" rx="11" ry="2.5"/><path d="M28 56c-3.98 0-11.5-.63-11.5-3s7.52-3 11.5-3c3.98 0 11.5.63 11.5 3s-7.52 3-11.5 3zm0-5c-6.8 0-10.5 1.32-10.5 2 0 .68 3.7 2 10.5 2s10.5-1.32 10.5-2c0-.68-3.7-2-10.5-2z"/></g><path d="M6.35 9.76a.16.16 0 0 1-.16-.16V7a.16.16 0 1 1 .32 0v2.6c0 .08-.07.16-.16.16z" fill="#bbd7ea"/><g fill="#fff"><path d="M8.4 4.64l-.44-2.9v.02c0 .18-.72.29-1.61.29-.89 0-1.6-.11-1.6-.29l-.01-.01-.44 2.9a2.07 2.07 0 1 0 4.1 0z"/><path d="M6.35 7.1a2.15 2.15 0 0 1-2.13-2.47l.44-2.9a.08.08 0 0 1 .12-.05.1.1 0 0 1 .05.08c.03.06.46.2 1.52.2 1.04 0 1.47-.13 1.52-.2a.08.08 0 0 1 .07-.1c.02 0 .04 0 .06.02.02.01.04.03.04.05l.44 2.9a2.15 2.15 0 0 1-2.13 2.48zM4.79 1.94l-.4 2.73a1.99 1.99 0 1 0 3.93 0L7.9 1.93c-.33.17-1.16.2-1.56.2-.4 0-1.23-.03-1.56-.2z"/></g><g fill="#fff" opacity=".74"><path d="M7.96 1.76c0 .18-.72.29-1.61.29-.89 0-1.6-.11-1.6-.29s.71-.36 1.6-.36c.89 0 1.6.18 1.6.36z"/><path d="M6.35 2.13c-.5 0-1.69-.04-1.69-.37 0-.32 1.04-.44 1.69-.44.65 0 1.69.12 1.69.44 0 .33-1.18.37-1.69.37zm0-.65c-.92 0-1.5.19-1.53.28.03.06.46.2 1.53.2 1.05 0 1.48-.13 1.52-.2-.04-.1-.6-.28-1.52-.28zm1.53.28z"/></g><path d="M8.11 4.63c0-.02-.01-.05-.03-.07a3.7 3.7 0 0 0-1.9-.33h-.18l-.07.01h-.1l-.06.01-.1.01h-.06a2.03 2.03 0 0 0-.23.04l-.06.01-.07.01-.07.02a1.71 1.71 0 0 0-.12.02l-.04.02-.06.01-.05.02a1.38 1.38 0 0 0-.08.03l-.05.02h-.03l-.04.03-.02.01a.43.43 0 0 0-.04.03h-.01a.26.26 0 0 0-.03.03.1.1 0 0 0-.03.07v.01l-.02.12a1.8 1.8 0 1 0 3.58 0z" fill="#701c11"/><path d="M8.11 4.63c0 .2-.79.33-1.76.33-.98 0-1.77-.13-1.77-.33s.79-.4 1.77-.4c.97 0 1.76.2 1.76.4z" fill="#2b0000"/><path d="M1.04 3.9c0 .1-.04.2-.04.32 0 1.91 1.54 4.47 2.01 5.2.54.85 1.13 1.61 1.65 2.16.68.7 1.21 1.03 1.69 1.03s1.01-.33 1.69-1.03c.52-.55 1.11-1.31 1.65-2.15.47-.74 2-3.3 2-5.21 0-.11-.02-.21-.03-.32-.02.42-.08.86-.21 1.3-.15.53-.36 1.05-.58 1.53-.44.97-.95 1.8-1.18 2.17-.54.84-1.13 1.6-1.65 2.15-.34.35-.64.61-.92.78-.28.17-.53.25-.77.25s-.5-.08-.77-.25a4.76 4.76 0 0 1-.92-.78A14.41 14.41 0 0 1 3.01 8.9c-.23-.37-.74-1.2-1.18-2.17-.22-.48-.43-1-.58-1.52-.13-.45-.19-.89-.21-1.31z" opacity=".4"/></svg>