<svg xmlns="http://www.w3.org/2000/svg" width="48" height="48" viewBox="0 0 12.7 12.7"><defs><linearGradient id="a"><stop offset="0"/><stop offset="1" stop-opacity="0"/></linearGradient></defs><path d="M9.26.01l1.56 4.6-2.07 8.08h-4.8L1.88 4.61 3.44.01z" fill="#0a8"/><path d="M4.84 11.59l-.89 1.1h4.8l-.89-1.1z" fill="#00d4aa"/><path d="M6.12 2.64l-1.15 3.9-.68-2.3H2.9v.46h.92l1.14 3.44 1.15-3.9.69 2.3.92-2.3.68 2.3H9.8v-.46h-.92L7.73 2.87l-.92 2.3z" fill="#165044"/><path d="M7.86 11.59l.89 1.1 2.07-8.09-1.18.05zM1.88 4.6l2.07 8.09.89-1.1-1.78-6.94zM3.44 0l.82 1.1h4.18L9.26 0z" fill="#008066"/><path d="M1.88 4.61L3.44.01l.82 1.1-1.2 3.54zm7.76.04l-1.2-3.54.82-1.1 1.56 4.6z" fill="#054"/></svg>