<?xml version="1.0" encoding="UTF-8" standalone="no"?>
<!-- Generator: Adobe Illustrator 19.0.0, SVG Export Plug-In . SVG Version: 6.00 Build 0)  -->

<svg
   xmlns:dc="http://purl.org/dc/elements/1.1/"
   xmlns:cc="http://creativecommons.org/ns#"
   xmlns:rdf="http://www.w3.org/1999/02/22-rdf-syntax-ns#"
   xmlns:svg="http://www.w3.org/2000/svg"
   xmlns="http://www.w3.org/2000/svg"
   xmlns:sodipodi="http://sodipodi.sourceforge.net/DTD/sodipodi-0.dtd"
   xmlns:inkscape="http://www.inkscape.org/namespaces/inkscape"
   version="1.1"
   id="Capa_1"
   x="0px"
   y="0px"
   viewBox="0 0 48 48"
   xml:space="preserve"
   sodipodi:docname="audacious.svg"
   width="48"
   height="48"
   inkscape:version="0.92.3 (2405546, 2018-03-11)"><metadata
   id="metadata41"><rdf:RDF><cc:Work
       rdf:about=""><dc:format>image/svg+xml</dc:format><dc:type
         rdf:resource="http://purl.org/dc/dcmitype/StillImage" /><dc:title></dc:title></cc:Work></rdf:RDF></metadata><defs
   id="defs39" /><sodipodi:namedview
   pagecolor="#ffffff"
   bordercolor="#666666"
   borderopacity="1"
   objecttolerance="10"
   gridtolerance="10"
   guidetolerance="10"
   inkscape:pageopacity="0"
   inkscape:pageshadow="2"
   inkscape:window-width="1366"
   inkscape:window-height="690"
   id="namedview37"
   showgrid="false"
   showguides="true"
   inkscape:guide-bbox="true"
   inkscape:zoom="5.1131187"
   inkscape:cx="13.091149"
   inkscape:cy="29.393079"
   inkscape:window-x="0"
   inkscape:window-y="28"
   inkscape:window-maximized="1"
   inkscape:current-layer="Capa_1" />
<path
   style="fill:#0088aa;stroke-width:0.0924025"
   d="m 23.712891,0.49414062 c -5.833461,0 -10.522199,1.12037758 -13.9355472,3.33203128 -4.1011931,2.6574037 -6.2695313,6.9015131 -6.2695313,12.2714841 0,7.226706 5.8062658,16.88549 7.5859375,19.673828 2.031747,3.183081 4.250107,6.079782 6.246094,8.15625 2.542362,2.644283 4.56815,3.875 6.373047,3.875 1.804991,0 3.829009,-1.230625 6.371093,-3.875 1.995894,-2.076376 4.214348,-4.973077 6.246094,-8.15625 C 38.10975,32.983238 43.916016,23.324362 43.916016,16.097656 43.916108,10.727777 41.749814,6.4836678 37.648438,3.8261719 34.235274,1.6145182 29.546261,0.49414062 23.712891,0.49414062 Z M 23.634766,4.4667969 A 14.470919,14.470919 0 0 1 38.105469,18.9375 14.470919,14.470919 0 0 1 23.634766,33.408203 14.470919,14.470919 0 0 1 9.1640625,18.9375 14.470919,14.470919 0 0 1 23.634766,4.4667969 Z m -1.357422,5.2617187 c -2.438184,0 -4.515702,0.8683074 -6.230469,2.6054684 -1.714766,1.737162 -2.572266,3.841871 -2.572266,6.3125 0,2.457762 0.8575,4.555808 2.572266,6.292969 1.714767,1.737162 3.792285,2.605469 6.230469,2.605469 0.696623,0 1.700803,-0.412785 3.013672,-1.236328 0.321518,-0.205886 0.663682,-0.28194 1.02539,-0.230469 0.375106,0.0386 0.696912,0.199325 0.964844,0.482422 0.629641,0.656261 1.118485,0.984375 1.466797,0.984375 h 2.410156 c 0.321519,0 0.604565,-0.116035 0.845703,-0.347656 0.227742,-0.193018 0.339844,-0.449787 0.339844,-0.771485 V 12.333984 c 0,-0.566186 -0.205799,-1.061688 -0.621094,-1.486328 -0.428691,-0.373167 -0.931758,-0.558593 -1.507812,-0.558594 h -1.546875 c -0.589451,1e-6 -1.078295,0.185427 -1.466797,0.558594 -0.442088,0.42464 -0.664063,0.920142 -0.664063,1.486328 -0.777003,-1.737161 -2.196687,-2.6054684 -4.259765,-2.6054684 z m 0.447265,3.1601564 c 0.612895,-0.02895 1.227506,0.06973 1.84375,0.294922 1.07173,0.398904 1.727611,0.959087 1.96875,1.679687 v 6.523438 c 0,1.428332 -0.635524,2.354657 -1.908203,2.779297 -0.62964,0.193018 -1.252896,0.251035 -1.86914,0.173828 -1.044936,0.02573 -1.937015,-0.42979 -2.673828,-1.369141 -0.736814,-0.939354 -1.103516,-2.079711 -1.103516,-3.417969 v -1.273437 c 0,-1.569879 0.15895,-2.708284 0.480469,-3.416016 0.361708,-0.746336 0.838283,-1.248502 1.427734,-1.505859 0.609546,-0.283093 1.22109,-0.439797 1.833984,-0.46875 z"
   id="path2"
   inkscape:connector-curvature="0" />

<g
   id="g6"
   transform="translate(0,-464)">
</g>
<g
   id="g8"
   transform="translate(0,-464)">
</g>
<g
   id="g10"
   transform="translate(0,-464)">
</g>
<g
   id="g12"
   transform="translate(0,-464)">
</g>
<g
   id="g14"
   transform="translate(0,-464)">
</g>
<g
   id="g16"
   transform="translate(0,-464)">
</g>
<g
   id="g18"
   transform="translate(0,-464)">
</g>
<g
   id="g20"
   transform="translate(0,-464)">
</g>
<g
   id="g22"
   transform="translate(0,-464)">
</g>
<g
   id="g24"
   transform="translate(0,-464)">
</g>
<g
   id="g26"
   transform="translate(0,-464)">
</g>
<g
   id="g28"
   transform="translate(0,-464)">
</g>
<g
   id="g30"
   transform="translate(0,-464)">
</g>
<g
   id="g32"
   transform="translate(0,-464)">
</g>
<g
   id="g34"
   transform="translate(0,-464)">
</g>
</svg>