<?xml version="1.0" encoding="UTF-8" standalone="no"?>
<!-- Generator: Adobe Illustrator 19.0.0, SVG Export Plug-In . SVG Version: 6.00 Build 0)  -->

<svg
   xmlns:dc="http://purl.org/dc/elements/1.1/"
   xmlns:cc="http://creativecommons.org/ns#"
   xmlns:rdf="http://www.w3.org/1999/02/22-rdf-syntax-ns#"
   xmlns:svg="http://www.w3.org/2000/svg"
   xmlns="http://www.w3.org/2000/svg"
   xmlns:sodipodi="http://sodipodi.sourceforge.net/DTD/sodipodi-0.dtd"
   xmlns:inkscape="http://www.inkscape.org/namespaces/inkscape"
   version="1.1"
   id="Capa_1"
   x="0px"
   y="0px"
   viewBox="0 0 48 48"
   xml:space="preserve"
   sodipodi:docname="baobab.svg"
   width="48"
   height="48"
   inkscape:version="0.92.3 (2405546, 2018-03-11)"><metadata
   id="metadata41"><rdf:RDF><cc:Work
       rdf:about=""><dc:format>image/svg+xml</dc:format><dc:type
         rdf:resource="http://purl.org/dc/dcmitype/StillImage" /><dc:title /></cc:Work></rdf:RDF></metadata><defs
   id="defs39" /><sodipodi:namedview
   pagecolor="#ffffff"
   bordercolor="#666666"
   borderopacity="1"
   objecttolerance="10"
   gridtolerance="10"
   guidetolerance="10"
   inkscape:pageopacity="0"
   inkscape:pageshadow="2"
   inkscape:window-width="1366"
   inkscape:window-height="690"
   id="namedview37"
   showgrid="false"
   showguides="true"
   inkscape:guide-bbox="true"
   inkscape:zoom="5.0729167"
   inkscape:cx="-26.828169"
   inkscape:cy="31.794747"
   inkscape:window-x="0"
   inkscape:window-y="28"
   inkscape:window-maximized="1"
   inkscape:current-layer="Capa_1" />
<path
   style="fill:#3e8213;stroke-width:0.0924025"
   d="M 23.712891 0.49414062 C 17.87943 0.49414062 13.190692 1.6145182 9.7773438 3.8261719 C 5.6761507 6.4835756 3.5078125 10.727685 3.5078125 16.097656 C 3.5078125 23.324362 9.3140783 32.983146 11.09375 35.771484 C 13.125497 38.954565 15.343857 41.851266 17.339844 43.927734 C 19.882206 46.572017 21.907994 47.802734 23.712891 47.802734 C 25.517882 47.802734 27.5419 46.572109 30.083984 43.927734 C 32.079878 41.851358 34.298332 38.954657 36.330078 35.771484 C 38.10975 32.983238 43.916016 23.324362 43.916016 16.097656 C 43.916108 10.727777 41.749814 6.4836678 37.648438 3.8261719 C 34.235274 1.6145182 29.546261 0.49414062 23.712891 0.49414062 z M 24.853516 13.349609 C 28.28968 13.349609 31.109375 16.169303 31.109375 19.605469 C 31.109375 23.041634 28.28968 25.861328 24.853516 25.861328 C 21.41735 25.861328 18.597656 23.041634 18.597656 19.605469 C 18.597656 16.169303 21.41735 13.349609 24.853516 13.349609 z M 24.853516 16.478516 C 23.107647 16.478516 21.726562 17.859601 21.726562 19.605469 C 21.726563 21.351336 23.107647 22.734375 24.853516 22.734375 C 26.599382 22.734375 27.982422 21.351336 27.982422 19.605469 C 27.982422 17.859601 26.599382 16.478516 24.853516 16.478516 z "
   id="path2" />

<g
   id="g6"
   transform="translate(0,-464)">
</g>
<g
   id="g8"
   transform="translate(0,-464)">
</g>
<g
   id="g10"
   transform="translate(0,-464)">
</g>
<g
   id="g12"
   transform="translate(0,-464)">
</g>
<g
   id="g14"
   transform="translate(0,-464)">
</g>
<g
   id="g16"
   transform="translate(0,-464)">
</g>
<g
   id="g18"
   transform="translate(0,-464)">
</g>
<g
   id="g20"
   transform="translate(0,-464)">
</g>
<g
   id="g22"
   transform="translate(0,-464)">
</g>
<g
   id="g24"
   transform="translate(0,-464)">
</g>
<g
   id="g26"
   transform="translate(0,-464)">
</g>
<g
   id="g28"
   transform="translate(0,-464)">
</g>
<g
   id="g30"
   transform="translate(0,-464)">
</g>
<g
   id="g32"
   transform="translate(0,-464)">
</g>
<g
   id="g34"
   transform="translate(0,-464)">
</g>
<path
   style="color:#000000;font-style:normal;font-variant:normal;font-weight:normal;font-stretch:normal;font-size:medium;line-height:normal;font-family:sans-serif;font-variant-ligatures:normal;font-variant-position:normal;font-variant-caps:normal;font-variant-numeric:normal;font-variant-alternates:normal;font-feature-settings:normal;text-indent:0;text-align:start;text-decoration:none;text-decoration-line:none;text-decoration-style:solid;text-decoration-color:#000000;letter-spacing:normal;word-spacing:normal;text-transform:none;writing-mode:lr-tb;direction:ltr;text-orientation:mixed;dominant-baseline:auto;baseline-shift:baseline;text-anchor:start;white-space:normal;shape-padding:0;clip-rule:nonzero;display:inline;overflow:visible;visibility:visible;opacity:1;isolation:auto;mix-blend-mode:normal;color-interpolation:sRGB;color-interpolation-filters:linearRGB;solid-color:#000000;solid-opacity:1;vector-effect:none;fill:#ffffff;fill-opacity:0.62694301;fill-rule:nonzero;stroke:none;stroke-width:3.12763286;stroke-linecap:butt;stroke-linejoin:miter;stroke-miterlimit:4;stroke-dasharray:none;stroke-dashoffset:0;stroke-opacity:1;color-rendering:auto;image-rendering:auto;shape-rendering:auto;text-rendering:auto;enable-background:accumulate"
   d="m 24.655305,10.418396 c -5.055633,0 -9.187422,4.131789 -9.187422,9.187421 0,5.055633 4.131789,9.187422 9.187422,9.187422 5.055634,0 9.187421,-4.131789 9.187421,-9.187422 h -3.127633 c 0,3.365333 -2.694454,6.059789 -6.059788,6.059789 -3.365333,0 -6.059789,-2.694456 -6.059789,-6.059789 0,-3.365333 2.694456,-6.059788 6.059789,-6.059788 1.649247,0 3.125241,0.650261 4.218029,1.710424 l 2.177736,-2.244932 c -1.652396,-1.603062 -3.918156,-2.593125 -6.395765,-2.593125 z"
   id="circle866"
   inkscape:connector-curvature="0" /><path
   style="fill:none;stroke:#f9f9f9;stroke-width:3.12763286;stroke-miterlimit:4;stroke-dasharray:none;stroke-opacity:1;opacity:0.6"
   d="m 24.654903,32.829098 c -7.303174,0 -13.223567,-5.920393 -13.223567,-13.223567 M 24.654903,6.3819621 c 3.065702,0 5.88774,1.0432469 8.130469,2.7940942"
   id="circle874"
   inkscape:connector-curvature="0"
   sodipodi:nodetypes="cccc" /><path
   inkscape:connector-curvature="0"
   style="color:#000000;font-style:normal;font-variant:normal;font-weight:normal;font-stretch:normal;font-size:medium;line-height:normal;font-family:sans-serif;font-variant-ligatures:normal;font-variant-position:normal;font-variant-caps:normal;font-variant-numeric:normal;font-variant-alternates:normal;font-feature-settings:normal;text-indent:0;text-align:start;text-decoration:none;text-decoration-line:none;text-decoration-style:solid;text-decoration-color:#000000;letter-spacing:normal;word-spacing:normal;text-transform:none;writing-mode:lr-tb;direction:ltr;text-orientation:mixed;dominant-baseline:auto;baseline-shift:baseline;text-anchor:start;white-space:normal;shape-padding:0;clip-rule:nonzero;display:inline;overflow:visible;visibility:visible;opacity:1;isolation:auto;mix-blend-mode:normal;color-interpolation:sRGB;color-interpolation-filters:linearRGB;solid-color:#000000;solid-opacity:1;vector-effect:none;fill:#ffffff;fill-opacity:0.37305699;fill-rule:nonzero;stroke:none;stroke-width:3.12763286;stroke-linecap:butt;stroke-linejoin:miter;stroke-miterlimit:4;stroke-dasharray:none;stroke-dashoffset:0;stroke-opacity:1;color-rendering:auto;image-rendering:auto;shape-rendering:auto;text-rendering:auto;enable-background:accumulate"
   d="m 24.795804,7.7886181 c -6.507573,0 -11.817197,5.3096239 -11.817197,11.8171989 0,6.507575 5.309622,11.817198 11.817197,11.817198 v -2.635886 c -0.04716,7.22e-4 -0.09317,0.0061 -0.140493,0.0061 -5.055632,0 -9.187421,-4.131789 -9.187421,-9.187422 0,-5.055632 4.131789,-9.187421 9.187421,-9.187421 2.237784,0 4.298556,0.812734 5.894856,2.150247 L 32.278916,10.45809 C 30.242947,8.7912856 27.626143,7.7886181 24.795804,7.7886181 Z m 9.046922,11.8171989 c 0,3.222294 -1.682501,6.064984 -4.208865,7.706071 l 1.447752,2.29991 c 3.323299,-2.091034 5.53139,-5.801249 5.53139,-10.005981 z"
   id="circle869" /></svg>