<?xml version="1.0" encoding="UTF-8" standalone="no"?>
<!-- Generator: Adobe Illustrator 19.0.0, SVG Export Plug-In . SVG Version: 6.00 Build 0)  -->

<svg
   xmlns:dc="http://purl.org/dc/elements/1.1/"
   xmlns:cc="http://creativecommons.org/ns#"
   xmlns:rdf="http://www.w3.org/1999/02/22-rdf-syntax-ns#"
   xmlns:svg="http://www.w3.org/2000/svg"
   xmlns="http://www.w3.org/2000/svg"
   xmlns:sodipodi="http://sodipodi.sourceforge.net/DTD/sodipodi-0.dtd"
   xmlns:inkscape="http://www.inkscape.org/namespaces/inkscape"
   version="1.1"
   id="Capa_1"
   x="0px"
   y="0px"
   viewBox="0 0 48 48"
   xml:space="preserve"
   sodipodi:docname="chromium-browser.svg"
   width="48"
   height="48"
   inkscape:version="0.92.3 (2405546, 2018-03-11)"><metadata
   id="metadata41"><rdf:RDF><cc:Work
       rdf:about=""><dc:format>image/svg+xml</dc:format><dc:type
         rdf:resource="http://purl.org/dc/dcmitype/StillImage" /><dc:title></dc:title></cc:Work></rdf:RDF></metadata><defs
   id="defs39" /><sodipodi:namedview
   pagecolor="#ffffff"
   bordercolor="#666666"
   borderopacity="1"
   objecttolerance="10"
   gridtolerance="10"
   guidetolerance="10"
   inkscape:pageopacity="0"
   inkscape:pageshadow="2"
   inkscape:window-width="1366"
   inkscape:window-height="690"
   id="namedview37"
   showgrid="false"
   showguides="true"
   inkscape:guide-bbox="true"
   inkscape:zoom="1.7972298"
   inkscape:cx="17.412307"
   inkscape:cy="24.305257"
   inkscape:window-x="0"
   inkscape:window-y="28"
   inkscape:window-maximized="1"
   inkscape:current-layer="Capa_1" />
<path
   style="fill:#2c5aa0;stroke-width:0.0924025"
   d="M 23.712891 0.49414062 C 17.87943 0.49414062 13.190692 1.6145182 9.7773438 3.8261719 C 5.6761507 6.4835756 3.5078125 10.727685 3.5078125 16.097656 C 3.5078125 23.324362 9.3140783 32.983146 11.09375 35.771484 C 13.125497 38.954565 15.343857 41.851266 17.339844 43.927734 C 19.882206 46.572017 21.907994 47.802734 23.712891 47.802734 C 25.517882 47.802734 27.5419 46.572109 30.083984 43.927734 C 32.079878 41.851358 34.298332 38.954657 36.330078 35.771484 C 38.10975 32.983238 43.916016 23.324362 43.916016 16.097656 C 43.916108 10.727777 41.749814 6.4836678 37.648438 3.8261719 C 34.235274 1.6145182 29.546261 0.49414062 23.712891 0.49414062 z M 24.003906 3.7324219 C 29.764896 3.7324219 34.755196 7.0750694 37.1875 11.951172 C 35.980135 11.627812 34.711992 11.455078 33.404297 11.455078 C 27.225018 11.455078 21.933131 15.303323 19.732422 20.761719 C 16.996258 19.935259 14.46847 18.298768 12.527344 15.888672 C 11.700584 14.86217 11.031672 13.7557 10.515625 12.603516 C 12.815857 7.3753937 17.989028 3.7324219 24.003906 3.7324219 z M 11.849609 12.134766 C 11.813389 12.198286 11.775566 12.262047 11.740234 12.326172 C 11.775484 12.262192 11.813457 12.198165 11.849609 12.134766 z M 34.039062 12.371094 C 35.34316 12.371094 36.608124 12.543602 37.8125 12.865234 C 38.777307 14.795723 39.338598 16.956803 39.392578 19.230469 C 39.394778 19.315853 39.395844 19.400948 39.396484 19.486328 C 39.399274 19.889622 39.387142 20.295832 39.357422 20.705078 C 39.357162 20.708498 39.357683 20.711344 39.357422 20.714844 C 39.351012 20.802268 39.343738 20.889273 39.335938 20.976562 C 39.203045 22.446393 38.862356 23.849231 38.347656 25.15625 C 38.324046 25.216336 38.301734 25.276128 38.277344 25.335938 C 38.146693 25.655477 38.004763 25.969889 37.853516 26.277344 C 37.823756 26.337998 37.794282 26.398684 37.763672 26.458984 C 37.716562 26.551568 37.668071 26.642965 37.619141 26.734375 C 37.579086 26.809341 37.539427 26.884614 37.498047 26.958984 C 36.417044 28.89771 34.92387 30.557311 33.148438 31.828125 C 33.082221 31.875579 33.015969 31.92256 32.949219 31.96875 C 32.121341 32.541079 31.234219 33.030117 30.300781 33.423828 C 30.707688 32.227617 30.970436 30.958036 31.066406 29.636719 C 31.475145 24.009156 28.755146 18.88099 24.398438 16.001953 C 26.984883 13.740264 30.354463 12.371094 34.039062 12.371094 z M 9.7871094 14.181641 C 10.303157 15.333826 10.972068 16.440296 11.798828 17.466797 C 15.811459 22.448867 22.335904 24.130369 28.009766 22.167969 C 29.280683 24.579409 29.915779 27.370982 29.703125 30.298828 C 29.607155 31.620145 29.344407 32.889725 28.9375 34.085938 C 23.068682 36.559004 16.060579 34.973813 11.835938 29.728516 C 8.1936815 25.206304 7.5959921 19.173736 9.7871094 14.181641 z M 9.5742188 15.527344 C 9.5581927 15.602814 9.5422447 15.678017 9.5273438 15.753906 C 9.5422268 15.678456 9.5581837 15.602578 9.5742188 15.527344 z M 9.4804688 16.003906 C 9.4689217 16.068416 9.4599488 16.132464 9.4492188 16.197266 C 9.4600047 16.132526 9.4688377 16.068505 9.4804688 16.003906 z M 10.208984 16.443359 C 10.192954 16.518829 10.176999 16.594032 10.162109 16.669922 C 10.176989 16.594472 10.192954 16.518589 10.208984 16.443359 z M 10.115234 16.919922 C 10.103684 16.984439 10.094704 17.048481 10.083984 17.113281 C 10.094784 17.048545 10.103604 16.984522 10.115234 16.919922 z M 38.757812 18.314453 C 38.759912 18.399843 38.761019 18.484936 38.761719 18.570312 C 38.761133 18.484832 38.759913 18.399633 38.757812 18.314453 z M 38.722656 19.798828 C 38.716256 19.886248 38.709092 19.975211 38.701172 20.0625 C 38.709072 19.97546 38.716246 19.886342 38.722656 19.798828 z M 38.029297 19.892578 C 38.031297 19.977758 38.032503 20.062953 38.033203 20.148438 C 38.032562 20.063057 38.031497 19.977963 38.029297 19.892578 z M 37.994141 21.376953 C 37.987741 21.464463 37.978573 21.553581 37.970703 21.640625 C 37.978503 21.553335 37.987731 21.464377 37.994141 21.376953 z M 37.712891 24.240234 C 37.689271 24.300324 37.666978 24.360107 37.642578 24.419922 C 37.667048 24.360072 37.689161 24.300495 37.712891 24.240234 z M 37.21875 25.361328 C 37.18899 25.421978 37.159516 25.482668 37.128906 25.542969 C 37.159386 25.483059 37.18903 25.421721 37.21875 25.361328 z M 36.490234 26.939453 C 36.460534 26.999843 36.430871 27.061186 36.400391 27.121094 C 36.431001 27.060794 36.460464 27.000106 36.490234 26.939453 z M 36.255859 27.396484 C 36.215559 27.471764 36.174336 27.546631 36.132812 27.621094 C 36.174183 27.546724 36.215805 27.47145 36.255859 27.396484 z M 32.513672 30.912109 C 32.447452 30.959569 32.379255 31.00654 32.3125 31.052734 C 32.37901 31.006744 32.447921 30.959173 32.513672 30.912109 z M 31.783203 32.490234 C 31.717453 32.537294 31.650503 32.584875 31.583984 32.630859 C 31.650734 32.584669 31.716985 32.537688 31.783203 32.490234 z M 30.943359 33.050781 C 30.808581 33.133971 30.67265 33.216051 30.535156 33.294922 C 30.672164 33.216262 30.808192 33.134302 30.943359 33.050781 z "
   id="path2" />

<g
   id="g6"
   transform="translate(0,-464)">
</g>
<g
   id="g8"
   transform="translate(0,-464)">
</g>
<g
   id="g10"
   transform="translate(0,-464)">
</g>
<g
   id="g12"
   transform="translate(0,-464)">
</g>
<g
   id="g14"
   transform="translate(0,-464)">
</g>
<g
   id="g16"
   transform="translate(0,-464)">
</g>
<g
   id="g18"
   transform="translate(0,-464)">
</g>
<g
   id="g20"
   transform="translate(0,-464)">
</g>
<g
   id="g22"
   transform="translate(0,-464)">
</g>
<g
   id="g24"
   transform="translate(0,-464)">
</g>
<g
   id="g26"
   transform="translate(0,-464)">
</g>
<g
   id="g28"
   transform="translate(0,-464)">
</g>
<g
   id="g30"
   transform="translate(0,-464)">
</g>
<g
   id="g32"
   transform="translate(0,-464)">
</g>
<g
   id="g34"
   transform="translate(0,-464)">
</g>
</svg>