<?xml version="1.0" encoding="UTF-8" standalone="no"?>
<!-- Generator: Adobe Illustrator 19.0.0, SVG Export Plug-In . SVG Version: 6.00 Build 0)  -->

<svg
   xmlns:dc="http://purl.org/dc/elements/1.1/"
   xmlns:cc="http://creativecommons.org/ns#"
   xmlns:rdf="http://www.w3.org/1999/02/22-rdf-syntax-ns#"
   xmlns:svg="http://www.w3.org/2000/svg"
   xmlns="http://www.w3.org/2000/svg"
   xmlns:sodipodi="http://sodipodi.sourceforge.net/DTD/sodipodi-0.dtd"
   xmlns:inkscape="http://www.inkscape.org/namespaces/inkscape"
   version="1.1"
   id="Capa_1"
   x="0px"
   y="0px"
   viewBox="0 0 48 48"
   xml:space="preserve"
   sodipodi:docname="firefox.svg"
   width="48"
   height="48"
   inkscape:version="0.92.3 (2405546, 2018-03-11)"><metadata
   id="metadata41"><rdf:RDF><cc:Work
       rdf:about=""><dc:format>image/svg+xml</dc:format><dc:type
         rdf:resource="http://purl.org/dc/dcmitype/StillImage" /><dc:title></dc:title></cc:Work></rdf:RDF></metadata><defs
   id="defs39" /><sodipodi:namedview
   pagecolor="#ffffff"
   bordercolor="#666666"
   borderopacity="1"
   objecttolerance="10"
   gridtolerance="10"
   guidetolerance="10"
   inkscape:pageopacity="0"
   inkscape:pageshadow="2"
   inkscape:window-width="1366"
   inkscape:window-height="690"
   id="namedview37"
   showgrid="false"
   showguides="true"
   inkscape:guide-bbox="true"
   inkscape:zoom="5.1131187"
   inkscape:cx="-5.3110208"
   inkscape:cy="21.337275"
   inkscape:window-x="0"
   inkscape:window-y="28"
   inkscape:window-maximized="1"
   inkscape:current-layer="Capa_1" />
<path
   style="fill:#aa4400;stroke-width:0.0924025"
   d="M 23.712891 0.49414062 C 17.87943 0.49414062 13.190692 1.6145182 9.7773438 3.8261719 C 5.6761507 6.4835756 3.5078125 10.727685 3.5078125 16.097656 C 3.5078125 23.324362 9.3140783 32.983146 11.09375 35.771484 C 13.125497 38.954565 15.343857 41.851266 17.339844 43.927734 C 19.882206 46.572017 21.907994 47.802734 23.712891 47.802734 C 25.517882 47.802734 27.5419 46.572109 30.083984 43.927734 C 32.079878 41.851358 34.298332 38.954657 36.330078 35.771484 C 38.10975 32.983238 43.916016 23.324362 43.916016 16.097656 C 43.916108 10.727777 41.749814 6.4836678 37.648438 3.8261719 C 34.235274 1.6145182 29.546261 0.49414062 23.712891 0.49414062 z M 28.621094 4.0214844 L 28.662109 4.234375 C 29.401435 5.971744 30.805368 7.5314494 31.9375 9.0996094 C 32.094303 8.6698064 32.236821 7.2930021 32.529297 6.9394531 C 32.538007 6.9314031 32.543481 6.9257812 32.550781 6.9257812 C 32.566381 6.9257812 32.610224 7.0235191 32.646484 7.1425781 C 32.878992 7.6826591 33.166311 8.2265313 33.498047 8.7226562 C 33.505317 8.7248562 33.503906 8.7263156 33.503906 8.7285156 C 35.754802 12.291916 38.029297 14.901674 38.029297 19.978516 C 38.029297 27.989552 31.534474 34.482422 23.523438 34.482422 C 15.512401 34.482422 9.0175781 27.989552 9.0175781 19.978516 C 9.0175781 17.113984 9.8540226 14.446323 11.287109 12.197266 C 11.288409 12.172616 11.296809 12.15925 11.296875 12.125 C 11.297238 11.887063 11.370997 11.213406 11.435547 10.867188 C 11.604315 9.9965447 12.283521 7.4436321 13.275391 6.9238281 C 13.699453 7.8466821 13.833218 9.4749446 14.378906 10.396484 C 14.54151 10.321511 14.731665 10.262946 14.939453 10.263672 C 14.958303 10.260372 14.978467 10.256806 14.998047 10.253906 L 15 10.253906 C 15.043656 10.247816 15.088849 10.242681 15.136719 10.238281 C 15.140359 10.237572 15.141137 10.236698 15.148438 10.236328 C 15.195073 10.231788 15.242929 10.227509 15.292969 10.224609 C 15.298779 10.2238 15.303247 10.223011 15.310547 10.222656 C 15.355727 10.220456 15.402079 10.22025 15.449219 10.21875 C 15.460099 10.217941 15.471542 10.21708 15.482422 10.216797 C 15.538558 10.215221 15.593594 10.214721 15.652344 10.214844 C 15.706593 10.214844 15.762519 10.215297 15.818359 10.216797 C 16.004462 10.221287 16.198502 10.2323 16.390625 10.25 C 16.566283 10.26625 16.739295 10.290076 16.90625 10.316406 C 16.92511 10.319506 16.944031 10.321319 16.962891 10.324219 C 16.989151 10.328569 17.014906 10.331537 17.041016 10.335938 C 17.065826 10.340397 17.090574 10.347162 17.115234 10.351562 C 17.136984 10.355713 17.158658 10.358881 17.179688 10.363281 C 17.209418 10.369311 17.238568 10.376312 17.267578 10.382812 C 17.283538 10.386253 17.300446 10.388978 17.316406 10.392578 C 17.361087 10.402868 17.405196 10.412728 17.447266 10.423828 C 18.077737 10.589609 18.01277 10.594437 18.220703 10.388672 C 18.869813 9.7792261 20.89633 8.7351591 21.986328 9.3300781 C 21.301027 9.9599691 19.386974 11.148077 19.927734 12.398438 C 20.236406 12.942769 20.635198 13.211602 21.220703 13.263672 C 22.77204 13.401566 23.414466 13.545185 23.509766 13.775391 C 23.585701 13.958563 23.461209 14.465707 23.273438 14.740234 C 23.15036 14.920063 22.848208 15.214721 22.691406 15.306641 C 22.619243 15.348917 22.249827 15.523386 21.871094 15.693359 C 21.296177 15.952207 19.896484 16.352104 19.896484 17.039062 C 20.035151 17.589413 20.900267 18.190599 20.501953 18.582031 C 20.085648 18.297655 18.749321 17.856399 18.091797 17.886719 C 16.998536 19.344331 18.14072 21.337435 20.386719 21.875 C 20.92675 22.025927 21.411499 21.986156 22.287109 21.720703 C 23.164242 21.45482 23.575994 21.431366 24.0625 21.431641 C 24.540231 21.431932 24.757573 21.473175 25.15625 21.632812 C 25.63224 21.823391 26.199522 22.288808 26.361328 22.623047 C 26.489482 22.887789 26.426864 22.944821 26.205078 23.083984 C 26.100495 23.149624 26.040738 23.151113 25.5625 23.095703 C 25.237944 23.058098 24.650939 23.173326 23.464844 23.806641 C 22.668783 24.229023 22.015244 24.375959 21.332031 24.380859 C 20.592695 24.386097 19.818315 24.442792 18.783203 24.285156 C 19.172745 26.504914 22.061964 27.238569 24.210938 27.230469 C 27.605711 27.212161 30.025308 24.527296 30.755859 21.111328 C 30.785599 20.898318 30.804688 20.540956 30.804688 20.193359 C 30.804687 19.04019 30.601078 18.112682 30.119141 17.070312 C 29.768621 16.312703 28.828131 15.274141 27.962891 14.332031 C 27.216451 13.368976 26.706741 12.229308 26.484375 11.021484 C 26.400245 10.565533 26.40963 9.4082058 26.5 8.8867188 C 26.590149 8.3666617 26.751412 7.7406459 26.904297 7.3261719 C 27.305367 6.2458709 27.686264 5.2398414 28.357422 4.3496094 C 28.387802 4.3107074 28.417526 4.2732481 28.447266 4.2363281 L 28.621094 4.0214844 z "
   id="path2" />

<g
   id="g6"
   transform="translate(0,-464)">
</g>
<g
   id="g8"
   transform="translate(0,-464)">
</g>
<g
   id="g10"
   transform="translate(0,-464)">
</g>
<g
   id="g12"
   transform="translate(0,-464)">
</g>
<g
   id="g14"
   transform="translate(0,-464)">
</g>
<g
   id="g16"
   transform="translate(0,-464)">
</g>
<g
   id="g18"
   transform="translate(0,-464)">
</g>
<g
   id="g20"
   transform="translate(0,-464)">
</g>
<g
   id="g22"
   transform="translate(0,-464)">
</g>
<g
   id="g24"
   transform="translate(0,-464)">
</g>
<g
   id="g26"
   transform="translate(0,-464)">
</g>
<g
   id="g28"
   transform="translate(0,-464)">
</g>
<g
   id="g30"
   transform="translate(0,-464)">
</g>
<g
   id="g32"
   transform="translate(0,-464)">
</g>
<g
   id="g34"
   transform="translate(0,-464)">
</g>
</svg>