<?xml version="1.0" encoding="UTF-8" standalone="no"?>
<!-- Generator: Adobe Illustrator 19.0.0, SVG Export Plug-In . SVG Version: 6.00 Build 0)  -->

<svg
   xmlns:dc="http://purl.org/dc/elements/1.1/"
   xmlns:cc="http://creativecommons.org/ns#"
   xmlns:rdf="http://www.w3.org/1999/02/22-rdf-syntax-ns#"
   xmlns:svg="http://www.w3.org/2000/svg"
   xmlns="http://www.w3.org/2000/svg"
   xmlns:xlink="http://www.w3.org/1999/xlink"
   xmlns:sodipodi="http://sodipodi.sourceforge.net/DTD/sodipodi-0.dtd"
   xmlns:inkscape="http://www.inkscape.org/namespaces/inkscape"
   version="1.1"
   id="Capa_1"
   x="0px"
   y="0px"
   viewBox="0 0 48 48"
   xml:space="preserve"
   sodipodi:docname="glipper.svg"
   width="48"
   height="48"
   inkscape:version="0.92.3 (2405546, 2018-03-11)"><metadata
   id="metadata41"><rdf:RDF><cc:Work
       rdf:about=""><dc:format>image/svg+xml</dc:format><dc:type
         rdf:resource="http://purl.org/dc/dcmitype/StillImage" /><dc:title /></cc:Work></rdf:RDF></metadata><defs
   id="defs39"><linearGradient
     x1="-83.756935"
     y1="-7.8379993"
     x2="-92.222527"
     y2="27.521217"
     id="linearGradient5588"
     xlink:href="#linearGradient3202"
     gradientUnits="userSpaceOnUse"
     gradientTransform="matrix(0.5857566,-0.140767,0.1402401,0.5879573,74.307775,0.1578927)" /><linearGradient
     id="linearGradient3202"><stop
       id="stop3204"
       style="stop-color:white;stop-opacity:1"
       offset="0" /><stop
       id="stop3206"
       style="stop-color:#d3eefc;stop-opacity:1"
       offset="1" /></linearGradient></defs><sodipodi:namedview
   pagecolor="#ffffff"
   bordercolor="#666666"
   borderopacity="1"
   objecttolerance="10"
   gridtolerance="10"
   guidetolerance="10"
   inkscape:pageopacity="0"
   inkscape:pageshadow="2"
   inkscape:window-width="1366"
   inkscape:window-height="690"
   id="namedview37"
   showgrid="false"
   showguides="true"
   inkscape:guide-bbox="true"
   inkscape:zoom="3.5870937"
   inkscape:cx="14.418074"
   inkscape:cy="45.907927"
   inkscape:window-x="0"
   inkscape:window-y="28"
   inkscape:window-maximized="1"
   inkscape:current-layer="Capa_1" />
<path
   style="fill:#a05a2c;stroke-width:0.0924025"
   d="M 23.712891 0.49414062 C 17.87943 0.49414062 13.190692 1.6145182 9.7773438 3.8261719 C 5.6761507 6.4835756 3.5078125 10.727685 3.5078125 16.097656 C 3.5078125 23.324362 9.3140783 32.983146 11.09375 35.771484 C 13.125497 38.954565 15.343857 41.851266 17.339844 43.927734 C 19.882206 46.572017 21.907994 47.802734 23.712891 47.802734 C 25.517882 47.802734 27.5419 46.572109 30.083984 43.927734 C 32.079878 41.851358 34.298332 38.954657 36.330078 35.771484 C 38.10975 32.983238 43.916016 23.324362 43.916016 16.097656 C 43.916108 10.727777 41.749814 6.4836678 37.648438 3.8261719 C 34.235274 1.6145182 29.546261 0.49414062 23.712891 0.49414062 z M 23.730469 6.0625 C 25.265353 6.0625 26.560745 7.0516746 27.042969 8.4160156 L 31.964844 8.4160156 C 33.264497 8.4160156 34.316406 9.4679251 34.316406 10.767578 L 34.316406 29.585938 C 34.316406 30.885591 33.264497 31.9375 31.964844 31.9375 L 15.498047 31.9375 C 14.198395 31.9375 13.146484 30.88559 13.146484 29.585938 L 13.146484 10.767578 C 13.146484 9.4679251 14.198395 8.4160156 15.498047 8.4160156 L 20.419922 8.4160156 C 20.902146 7.0516746 22.195585 6.0625 23.730469 6.0625 z M 23.730469 8.4160156 C 23.083583 8.4160156 22.554688 8.9390309 22.554688 9.5917969 C 22.554688 10.244564 23.083583 10.767578 23.730469 10.767578 C 24.377355 10.767578 24.908203 10.244564 24.908203 9.5917969 C 24.908203 8.9390309 24.377355 8.4160156 23.730469 8.4160156 z M 15.498047 10.767578 L 15.498047 29.585938 L 31.964844 29.585938 L 31.964844 10.767578 L 29.611328 10.767578 L 29.611328 14.296875 L 17.849609 14.296875 L 17.849609 10.767578 L 15.498047 10.767578 z M 24.263672 16.324219 C 24.908952 16.324219 25.524301 16.384599 26.113281 16.505859 C 26.706592 16.62712 27.266996 16.806731 27.791016 17.044922 L 27.791016 19.052734 C 27.249673 18.745252 26.708887 18.514857 26.171875 18.363281 C 25.639194 18.211705 25.105371 18.136719 24.568359 18.136719 C 23.57229 18.136719 22.803061 18.415944 22.261719 18.974609 C 21.724707 19.528944 21.457031 20.322375 21.457031 21.357422 C 21.457031 22.383807 21.71664 23.177663 22.236328 23.736328 C 22.756017 24.294993 23.494079 24.574219 24.451172 24.574219 C 24.711016 24.574219 24.951007 24.559612 25.171875 24.529297 C 25.397073 24.494651 25.59783 24.442339 25.775391 24.373047 L 25.775391 22.488281 L 24.25 22.488281 L 24.25 20.8125 L 28.146484 20.8125 L 28.146484 25.476562 C 27.522858 25.779714 26.876343 26.006627 26.205078 26.158203 C 25.533814 26.309779 24.841525 26.386719 24.126953 26.386719 C 22.511588 26.386719 21.23121 25.93595 20.287109 25.035156 C 19.343008 24.130032 18.871094 22.903496 18.871094 21.357422 C 18.871094 19.794025 19.351076 18.564432 20.3125 17.667969 C 21.273924 16.771506 22.592007 16.324219 24.263672 16.324219 z "
   id="path2" />

<g
   id="g6"
   transform="translate(0,-464)">
</g>
<g
   id="g8"
   transform="translate(0,-464)">
</g>
<g
   id="g10"
   transform="translate(0,-464)">
</g>
<g
   id="g12"
   transform="translate(0,-464)">
</g>
<g
   id="g14"
   transform="translate(0,-464)">
</g>
<g
   id="g16"
   transform="translate(0,-464)">
</g>
<g
   id="g18"
   transform="translate(0,-464)">
</g>
<g
   id="g20"
   transform="translate(0,-464)">
</g>
<g
   id="g22"
   transform="translate(0,-464)">
</g>
<g
   id="g24"
   transform="translate(0,-464)">
</g>
<g
   id="g26"
   transform="translate(0,-464)">
</g>
<g
   id="g28"
   transform="translate(0,-464)">
</g>
<g
   id="g30"
   transform="translate(0,-464)">
</g>
<g
   id="g32"
   transform="translate(0,-464)">
</g>
<g
   id="g34"
   transform="translate(0,-464)">
</g>

</svg>