<?xml version="1.0" encoding="UTF-8" standalone="no"?>
<!-- Generator: Adobe Illustrator 19.0.0, SVG Export Plug-In . SVG Version: 6.00 Build 0)  -->

<svg
   xmlns:dc="http://purl.org/dc/elements/1.1/"
   xmlns:cc="http://creativecommons.org/ns#"
   xmlns:rdf="http://www.w3.org/1999/02/22-rdf-syntax-ns#"
   xmlns:svg="http://www.w3.org/2000/svg"
   xmlns="http://www.w3.org/2000/svg"
   xmlns:xlink="http://www.w3.org/1999/xlink"
   xmlns:sodipodi="http://sodipodi.sourceforge.net/DTD/sodipodi-0.dtd"
   xmlns:inkscape="http://www.inkscape.org/namespaces/inkscape"
   version="1.1"
   id="Capa_1"
   x="0px"
   y="0px"
   viewBox="0 0 48 48"
   xml:space="preserve"
   sodipodi:docname="gnome-palm.svg"
   width="48"
   height="48"
   inkscape:version="0.92.3 (2405546, 2018-03-11)"><metadata
   id="metadata41"><rdf:RDF><cc:Work
       rdf:about=""><dc:format>image/svg+xml</dc:format><dc:type
         rdf:resource="http://purl.org/dc/dcmitype/StillImage" /><dc:title /></cc:Work></rdf:RDF></metadata><defs
   id="defs39"><linearGradient
     x1="-83.756935"
     y1="-7.8379993"
     x2="-92.222527"
     y2="27.521217"
     id="linearGradient5588"
     xlink:href="#linearGradient3202"
     gradientUnits="userSpaceOnUse"
     gradientTransform="matrix(0.5857566,-0.140767,0.1402401,0.5879573,74.307775,0.1578927)" /><linearGradient
     id="linearGradient3202"><stop
       id="stop3204"
       style="stop-color:white;stop-opacity:1"
       offset="0" /><stop
       id="stop3206"
       style="stop-color:#d3eefc;stop-opacity:1"
       offset="1" /></linearGradient></defs><sodipodi:namedview
   pagecolor="#ffffff"
   bordercolor="#666666"
   borderopacity="1"
   objecttolerance="10"
   gridtolerance="10"
   guidetolerance="10"
   inkscape:pageopacity="0"
   inkscape:pageshadow="2"
   inkscape:window-width="1366"
   inkscape:window-height="690"
   id="namedview37"
   showgrid="false"
   showguides="true"
   inkscape:guide-bbox="true"
   inkscape:zoom="5.0729165"
   inkscape:cx="-13.549118"
   inkscape:cy="23.605749"
   inkscape:window-x="0"
   inkscape:window-y="28"
   inkscape:window-maximized="1"
   inkscape:current-layer="Capa_1" />
<path
   style="fill:#220b28;stroke-width:0.0924025"
   d="M 23.712891 0.49414062 C 17.87943 0.49414062 13.190692 1.6145182 9.7773438 3.8261719 C 5.6761507 6.4835756 3.5078125 10.727685 3.5078125 16.097656 C 3.5078125 23.324362 9.3140783 32.983146 11.09375 35.771484 C 13.125497 38.954565 15.343857 41.851266 17.339844 43.927734 C 19.882206 46.572017 21.907994 47.802734 23.712891 47.802734 C 25.517882 47.802734 27.5419 46.572109 30.083984 43.927734 C 32.079878 41.851358 34.298332 38.954657 36.330078 35.771484 C 38.10975 32.983238 43.916016 23.324362 43.916016 16.097656 C 43.916108 10.727777 41.749814 6.4836678 37.648438 3.8261719 C 34.235274 1.6145182 29.546261 0.49414062 23.712891 0.49414062 z M 14.867188 6.6328125 L 32.054688 6.6328125 C 32.555819 6.6328125 32.958984 7.062054 32.958984 7.59375 L 32.958984 30.53125 C 32.958984 31.062946 32.555819 31.490234 32.054688 31.490234 C 32.054688 31.490234 27.757633 32.847656 23.460938 32.847656 C 19.164243 32.847656 14.867188 31.490234 14.867188 31.490234 C 14.366056 31.490234 13.962891 31.062946 13.962891 30.53125 L 13.962891 7.59375 C 13.962891 7.062054 14.366057 6.6328125 14.867188 6.6328125 z M 16.863281 8.5976562 C 16.344871 8.5976562 15.927734 9.0167461 15.927734 9.5351562 L 15.927734 26.003906 C 15.927734 26.522316 16.344871 26.939453 16.863281 26.939453 L 30.058594 26.939453 C 30.577004 26.939453 30.994141 26.522316 30.994141 26.003906 L 30.994141 9.5351562 C 30.994141 9.0167461 30.577004 8.5976562 30.058594 8.5976562 L 16.863281 8.5976562 z M 17.238281 28.25 A 1.3100635 1.3100635 0 0 0 15.927734 29.558594 A 1.3100635 1.3100635 0 0 0 17.238281 30.869141 A 1.3100635 1.3100635 0 0 0 18.548828 29.558594 A 1.3100635 1.3100635 0 0 0 17.238281 28.25 z M 21.167969 28.25 A 1.3100635 1.3100635 0 0 0 19.859375 29.558594 A 1.3100635 1.3100635 0 0 0 21.167969 30.869141 A 1.3100635 1.3100635 0 0 0 22.478516 29.558594 A 1.3100635 1.3100635 0 0 0 21.167969 28.25 z M 25.753906 28.25 A 1.3100635 1.3100635 0 0 0 24.443359 29.558594 A 1.3100635 1.3100635 0 0 0 25.753906 30.869141 A 1.3100635 1.3100635 0 0 0 27.064453 29.558594 A 1.3100635 1.3100635 0 0 0 25.753906 28.25 z M 29.683594 28.25 A 1.3100635 1.3100635 0 0 0 28.373047 29.558594 A 1.3100635 1.3100635 0 0 0 29.683594 30.869141 A 1.3100635 1.3100635 0 0 0 30.994141 29.558594 A 1.3100635 1.3100635 0 0 0 29.683594 28.25 z "
   id="path2" />

<g
   id="g6"
   transform="translate(0,-464)">
</g>
<g
   id="g8"
   transform="translate(0,-464)">
</g>
<g
   id="g10"
   transform="translate(0,-464)">
</g>
<g
   id="g12"
   transform="translate(0,-464)">
</g>
<g
   id="g14"
   transform="translate(0,-464)">
</g>
<g
   id="g16"
   transform="translate(0,-464)">
</g>
<g
   id="g18"
   transform="translate(0,-464)">
</g>
<g
   id="g20"
   transform="translate(0,-464)">
</g>
<g
   id="g22"
   transform="translate(0,-464)">
</g>
<g
   id="g24"
   transform="translate(0,-464)">
</g>
<g
   id="g26"
   transform="translate(0,-464)">
</g>
<g
   id="g28"
   transform="translate(0,-464)">
</g>
<g
   id="g30"
   transform="translate(0,-464)">
</g>
<g
   id="g32"
   transform="translate(0,-464)">
</g>
<g
   id="g34"
   transform="translate(0,-464)">
</g>
</svg>