<?xml version="1.0" encoding="UTF-8" standalone="no"?>
<!-- Generator: Adobe Illustrator 19.0.0, SVG Export Plug-In . SVG Version: 6.00 Build 0)  -->

<svg
   xmlns:dc="http://purl.org/dc/elements/1.1/"
   xmlns:cc="http://creativecommons.org/ns#"
   xmlns:rdf="http://www.w3.org/1999/02/22-rdf-syntax-ns#"
   xmlns:svg="http://www.w3.org/2000/svg"
   xmlns="http://www.w3.org/2000/svg"
   xmlns:xlink="http://www.w3.org/1999/xlink"
   xmlns:sodipodi="http://sodipodi.sourceforge.net/DTD/sodipodi-0.dtd"
   xmlns:inkscape="http://www.inkscape.org/namespaces/inkscape"
   version="1.1"
   id="Capa_1"
   x="0px"
   y="0px"
   viewBox="0 0 48 48"
   xml:space="preserve"
   sodipodi:docname="gnome-do.svg"
   width="48"
   height="48"
   inkscape:version="0.92.3 (2405546, 2018-03-11)"><metadata
   id="metadata41"><rdf:RDF><cc:Work
       rdf:about=""><dc:format>image/svg+xml</dc:format><dc:type
         rdf:resource="http://purl.org/dc/dcmitype/StillImage" /><dc:title /></cc:Work></rdf:RDF></metadata><defs
   id="defs39"><linearGradient
     x1="-83.756935"
     y1="-7.8379993"
     x2="-92.222527"
     y2="27.521217"
     id="linearGradient5588"
     xlink:href="#linearGradient3202"
     gradientUnits="userSpaceOnUse"
     gradientTransform="matrix(0.5857566,-0.140767,0.1402401,0.5879573,74.307775,0.1578927)" /><linearGradient
     id="linearGradient3202"><stop
       id="stop3204"
       style="stop-color:white;stop-opacity:1"
       offset="0" /><stop
       id="stop3206"
       style="stop-color:#d3eefc;stop-opacity:1"
       offset="1" /></linearGradient><clipPath
     clipPathUnits="userSpaceOnUse"
     id="clipPath3983"><path
       d="m 184.57422,701.48438 a 2.2362916,2.2362916 0 0 0 -1.91602,0.92187 c 0,0 -3.3369,4.7843 -4.0332,11.1875 -5.02253,-4.03579 -10.76562,-5.08203 -10.76562,-5.08203 a 2.2362916,2.2362916 0 0 0 -2.56641,2.56445 c 0,0 1.04033,5.74739 5.08008,10.76758 -6.41248,0.69558 -11.21289,4.03125 -11.21289,4.03125 a 2.2362916,2.2362916 0 0 0 0.006,3.63086 c 0,0 4.79953,3.30549 11.20507,3.99609 -4.03825,5.01968 -5.07812,10.76563 -5.07812,10.76563 a 2.2362916,2.2362916 0 0 0 2.56641,2.56445 c 0,0 5.74309,-1.04624 10.76562,-5.08203 0.69532,6.40824 4.0293,11.21484 4.0293,11.21484 a 2.2362916,2.2362916 0 0 0 3.63281,-0.008 c 0,0 3.31369,-4.81511 3.99805,-11.22851 5.02892,4.05475 10.79296,5.10351 10.79296,5.10351 a 2.2362916,2.2362916 0 0 0 2.56446,-2.57422 c 0,0 -1.06513,-5.74008 -5.10547,-10.75586 6.40959,-0.69012 11.22851,-3.99218 11.22851,-3.99218 a 2.2362916,2.2362916 0 0 0 0.008,-3.63868 c 0,0 -4.82176,-3.33225 -11.23828,-4.02734 4.04183,-5.01629 5.10742,-10.75781 5.10742,-10.75781 a 2.2362916,2.2362916 0 0 0 -2.56446,-2.57422 c 0,0 -5.76404,1.04876 -10.79296,5.10351 -0.68533,-6.40839 -4.00196,-11.20312 -4.00196,-11.20312 a 2.2362916,2.2362916 0 0 0 -1.70898,-0.92773 z"
       id="path3985"
       style="color:#000000;display:inline;overflow:visible;visibility:visible;fill:#eeeeec;fill-opacity:1;fill-rule:evenodd;stroke:none;stroke-width:0.30022803;marker:none;enable-background:new"
       inkscape:original="M 184.46875 703.71875 C 184.46875 703.71875 180.59375 709.06256 180.59375 715.6875 C 180.59375 716.89696 180.75838 718.0867 180.96875 719.1875 C 180.33528 718.25414 179.58087 717.32975 178.71875 716.46875 C 174.02816 711.78421 167.5 710.71875 167.5 710.71875 C 167.5 710.71875 168.55941 717.25296 173.25 721.9375 C 174.11212 722.7985 175.03419 723.55485 175.96875 724.1875 C 174.85826 723.9742 173.69012 723.8125 172.46875 723.8125 C 165.83526 723.8125 160.46875 727.6875 160.46875 727.6875 C 160.46875 727.6875 165.83526 731.53125 172.46875 731.53125 C 173.69012 731.53125 174.85826 731.4008 175.96875 731.1875 C 175.03456 731.81999 174.11178 732.54558 173.25 733.40625 C 168.55941 738.09078 167.5 744.625 167.5 744.625 C 167.5 744.625 174.02816 743.55954 178.71875 738.875 C 179.58087 738.014 180.33528 737.08961 180.96875 736.15625 C 180.75518 737.2653 180.59375 738.43646 180.59375 739.65625 C 180.59375 746.28119 184.46875 751.65625 184.46875 751.65625 C 184.46875 751.65625 188.3125 746.28119 188.3125 739.65625 C 188.3125 738.43646 188.18232 737.2653 187.96875 736.15625 C 188.60222 737.08961 189.35663 738.014 190.21875 738.875 C 194.90934 743.55954 201.4375 744.625 201.4375 744.625 C 201.4375 744.625 200.34684 738.09078 195.65625 733.40625 C 194.79906 732.55017 193.89785 731.849 192.96875 731.21875 C 194.06956 731.42831 195.22825 731.53125 196.4375 731.53125 C 203.07099 731.53125 208.46875 727.6875 208.46875 727.6875 C 208.46875 727.6875 203.07099 723.8125 196.4375 723.8125 C 195.22647 723.8125 194.07098 723.9774 192.96875 724.1875 C 193.90331 723.55485 194.79413 722.7985 195.65625 721.9375 C 200.34684 717.25296 201.4375 710.71875 201.4375 710.71875 C 201.4375 710.71875 194.90934 711.78421 190.21875 716.46875 C 189.35663 717.32975 188.60222 718.25414 187.96875 719.1875 C 188.17912 718.0867 188.3125 716.89696 188.3125 715.6875 C 188.3125 709.06256 184.46875 703.71875 184.46875 703.71875 z "
       inkscape:radius="2.236068"
       sodipodi:type="inkscape:offset" /></clipPath><clipPath
     clipPathUnits="userSpaceOnUse"
     id="clipPath4169"><path
       inkscape:connector-curvature="0"
       sodipodi:nodetypes="csssc"
       id="path4171"
       d="m 471.43078,685.92888 c 0,22.09674 -12.84202,40.00973 -12.84202,40.00973 0,0 -12.84203,-17.91299 -12.84203,-40.00973 0,-22.09678 12.84203,-40.00974 12.84203,-40.00974 0,0 12.84202,17.91296 12.84202,40.00974 z"
       style="color:#000000;display:inline;overflow:visible;visibility:visible;fill:#edd400;fill-opacity:1;fill-rule:evenodd;stroke:none;stroke-width:12;marker:none;enable-background:new" /></clipPath><clipPath
     clipPathUnits="userSpaceOnUse"
     id="clipPath4145"><path
       inkscape:connector-curvature="0"
       style="color:#000000;display:inline;overflow:visible;visibility:visible;fill:#3465a4;fill-opacity:1;fill-rule:evenodd;stroke:none;stroke-width:12;marker:none;enable-background:new"
       d="m 401.43078,865.80173 c 0,22.09677 -12.84202,40.00973 -12.84202,40.00973 0,0 -12.84203,-17.91296 -12.84203,-40.00973 0,-22.09675 12.84203,-40.00974 12.84203,-40.00974 0,0 12.84202,17.91299 12.84202,40.00974 z"
       id="path4147"
       sodipodi:nodetypes="csssc" /></clipPath><clipPath
     clipPathUnits="userSpaceOnUse"
     id="clipPath4181"><path
       inkscape:connector-curvature="0"
       sodipodi:nodetypes="csssc"
       id="path4183"
       d="m 348.71074,698.72614 c -22.06442,0 -39.95118,-12.86084 -39.95118,-12.86084 0,0 17.88676,-12.86084 39.95118,-12.86084 22.06446,0 39.95119,12.86084 39.95119,12.86084 0,0 -17.88673,12.86084 -39.95119,12.86084 z"
       style="color:#000000;display:inline;overflow:visible;visibility:visible;fill:#ef2929;fill-opacity:1;fill-rule:evenodd;stroke:none;stroke-width:12;marker:none;enable-background:new" /></clipPath><clipPath
     clipPathUnits="userSpaceOnUse"
     id="clipPath4197"><path
       inkscape:connector-curvature="0"
       style="color:#000000;display:inline;overflow:visible;visibility:visible;fill:#75507b;fill-opacity:1;fill-rule:evenodd;stroke:none;stroke-width:12;marker:none;enable-background:new"
       d="m 299.47143,763.19859 c -15.60192,15.62478 -37.33043,19.19718 -37.33043,19.19718 0,0 3.56716,-21.76037 19.16908,-37.38511 15.60192,-15.62479 37.33043,-19.19719 37.33043,-19.19719 0,0 -3.56717,21.76037 -19.16908,37.38512 z"
       id="path4199"
       sodipodi:nodetypes="csssc" /></clipPath><clipPath
     clipPathUnits="userSpaceOnUse"
     id="clipPath4133"><path
       inkscape:connector-curvature="0"
       style="color:#000000;display:inline;overflow:visible;visibility:visible;fill:#65c808;fill-opacity:1;fill-rule:evenodd;stroke:none;stroke-width:12;marker:none;enable-background:new"
       d="m 538.46677,738.72614 c -22.06443,0 -39.95119,-12.86084 -39.95119,-12.86084 0,0 17.88676,-12.86084 39.95119,-12.86084 22.06442,0 39.95119,12.86084 39.95119,12.86084 0,0 -17.88677,12.86084 -39.95119,12.86084 z"
       id="path4135"
       sodipodi:nodetypes="csssc" /></clipPath><clipPath
     clipPathUnits="userSpaceOnUse"
     id="clipPath4071"><path
       inkscape:connector-curvature="0"
       sodipodi:nodetypes="csssc"
       id="path4073"
       d="m 515.86743,706.71995 c -15.60192,15.62478 -37.33043,19.19718 -37.33043,19.19718 0,0 3.56717,-21.76037 19.16909,-37.38511 15.60192,-15.62478 37.33043,-19.19719 37.33043,-19.19719 0,0 -3.56717,21.76034 -19.16909,37.38512 z"
       style="color:#000000;display:inline;overflow:visible;visibility:visible;fill:#afea2c;fill-opacity:1;fill-rule:evenodd;stroke:none;stroke-width:12;marker:none;enable-background:new" /></clipPath><clipPath
     clipPathUnits="userSpaceOnUse"
     id="clipPath4083"><path
       inkscape:connector-curvature="0"
       sodipodi:nodetypes="csssc"
       id="path4085"
       d="m 515.86743,745.01066 c 15.60192,15.62474 19.16909,37.38511 19.16909,37.38511 0,0 -21.72851,-3.5724 -37.33043,-19.19718 -15.60192,-15.62475 -19.16909,-37.38512 -19.16909,-37.38512 0,0 21.72851,3.5724 37.33043,19.19719 z"
       style="color:#000000;display:inline;overflow:visible;visibility:visible;fill:#729fcf;fill-opacity:1;fill-rule:evenodd;stroke:none;stroke-width:12;marker:none;enable-background:new" /></clipPath><clipPath
     clipPathUnits="userSpaceOnUse"
     id="clipPath4157"><path
       inkscape:connector-curvature="0"
       style="color:#000000;display:inline;overflow:visible;visibility:visible;fill:#f57900;fill-opacity:1;fill-rule:evenodd;stroke:none;stroke-width:12;marker:none;enable-background:new"
       d="m 269.47143,688.53202 c 15.60191,15.62474 19.16908,37.38511 19.16908,37.38511 0,0 -21.72851,-3.5724 -37.33043,-19.19718 -15.60192,-15.62478 -19.16908,-37.38512 -19.16908,-37.38512 0,0 21.72851,3.57241 37.33043,19.19719 z"
       id="path4159"
       sodipodi:nodetypes="csssc" /></clipPath></defs><sodipodi:namedview
   pagecolor="#ffffff"
   bordercolor="#666666"
   borderopacity="1"
   objecttolerance="10"
   gridtolerance="10"
   guidetolerance="10"
   inkscape:pageopacity="0"
   inkscape:pageshadow="2"
   inkscape:window-width="1366"
   inkscape:window-height="690"
   id="namedview37"
   showgrid="false"
   showguides="true"
   inkscape:guide-bbox="true"
   inkscape:zoom="5.0729166"
   inkscape:cx="2.49079"
   inkscape:cy="19.197981"
   inkscape:window-x="0"
   inkscape:window-y="28"
   inkscape:window-maximized="1"
   inkscape:current-layer="Capa_1" />
<path
   style="fill:#660080;stroke-width:0.0924025"
   d="M 23.712891 0.49414062 C 17.87943 0.49414062 13.190692 1.6145182 9.7773438 3.8261719 C 5.6761507 6.4835756 3.5078125 10.727685 3.5078125 16.097656 C 3.5078125 23.324362 9.314078 32.983146 11.09375 35.771484 C 13.125497 38.954565 15.343857 41.851266 17.339844 43.927734 C 19.882206 46.572017 21.907994 47.802734 23.712891 47.802734 C 25.517882 47.802734 27.5419 46.572109 30.083984 43.927734 C 32.079878 41.851358 34.298332 38.954657 36.330078 35.771484 C 38.10975 32.983238 43.916016 23.324362 43.916016 16.097656 C 43.916116 10.727777 41.749811 6.4836678 37.648438 3.8261719 C 34.235274 1.6145182 29.546261 0.49414062 23.712891 0.49414062 z M 21.089844 4.921875 C 21.272273 4.9194692 21.496288 5.0240435 21.742188 5.2441406 L 25.259766 8.3925781 C 25.915497 8.9795038 26.782882 8.82067 27.1875 8.0390625 L 28.148438 6.1816406 C 28.553056 5.4000331 29.109084 5.4448116 29.382812 6.28125 L 30.849609 10.767578 C 31.123337 11.604016 31.954456 11.898745 32.695312 11.423828 L 34.458984 10.292969 C 35.199948 9.8179454 35.657483 10.134801 35.476562 10.996094 L 34.507812 15.615234 C 34.326891 16.476527 34.898235 17.147742 35.777344 17.107422 L 37.865234 17.011719 C 38.744343 16.971396 38.98373 17.475341 38.396484 18.130859 L 35.246094 21.646484 C 34.658955 22.302001 34.817894 23.168075 35.599609 23.572266 L 37.457031 24.533203 C 38.238849 24.937394 38.193967 25.492217 37.357422 25.765625 L 32.869141 27.234375 C 32.032703 27.507783 31.737547 28.33748 32.212891 29.078125 L 33.34375 30.839844 C 33.819094 31.580488 33.501919 32.03813 32.640625 31.857422 L 28.019531 30.888672 C 27.158237 30.707965 26.485071 31.279095 26.525391 32.158203 L 26.621094 34.244141 C 26.661417 35.12325 26.159637 35.362316 25.503906 34.775391 L 21.984375 31.626953 C 21.328644 31.040027 20.46126 31.198861 20.056641 31.980469 L 19.095703 33.837891 C 18.691085 34.619499 18.137009 34.574719 17.863281 33.738281 L 16.394531 29.251953 C 16.120909 28.415515 15.291639 28.118726 14.550781 28.59375 L 12.787109 29.724609 C 12.046251 30.199633 11.586763 29.88473 11.767578 29.023438 L 12.738281 24.404297 C 12.919202 23.543003 12.347858 22.871789 11.46875 22.912109 L 9.3789062 23.007812 C 8.4996912 23.048137 8.2623636 22.54419 8.8496094 21.888672 L 12 18.373047 C 12.587139 17.717529 12.428198 16.849504 11.646484 16.445312 L 9.7871094 15.484375 C 9.0052888 15.080184 9.0501736 14.525361 9.8867188 14.251953 L 14.376953 12.785156 C 15.213498 12.511641 15.508547 11.68205 15.033203 10.941406 L 13.902344 9.1796875 C 13.427 8.4390432 13.742222 7.9794489 14.603516 8.1601562 L 19.226562 9.1308594 C 20.087856 9.3114601 20.75918 8.7404365 20.71875 7.8613281 L 20.623047 5.7753906 C 20.597778 5.2259478 20.785795 4.9258847 21.089844 4.921875 z M 23.470703 12.265625 C 19.156661 12.265625 15.646484 15.774135 15.646484 20.085938 C 15.646484 24.39806 19.156768 27.90625 23.470703 27.90625 C 27.784426 27.90625 31.292969 24.39806 31.292969 20.085938 C 31.292969 15.774348 27.784426 12.265838 23.470703 12.265625 z M 23.470703 13.865234 C 26.902544 13.865447 29.693359 16.65623 29.693359 20.085938 C 29.693359 23.516072 26.902544 26.306641 23.470703 26.306641 C 20.03865 26.306641 17.246094 23.516071 17.246094 20.085938 C 17.246094 16.656017 20.03865 13.865234 23.470703 13.865234 z M 23.470703 18.292969 C 22.479906 18.292969 21.675781 19.0961 21.675781 20.085938 C 21.675781 21.076949 22.479906 21.878906 23.470703 21.878906 C 24.461714 21.878906 25.263672 21.076842 25.263672 20.085938 C 25.263672 19.095995 24.461714 18.292969 23.470703 18.292969 z "
   id="path2" />

<g
   id="g6"
   transform="translate(0,-464)">
</g>
<g
   id="g8"
   transform="translate(0,-464)">
</g>
<g
   id="g10"
   transform="translate(0,-464)">
</g>
<g
   id="g12"
   transform="translate(0,-464)">
</g>
<g
   id="g14"
   transform="translate(0,-464)">
</g>
<g
   id="g16"
   transform="translate(0,-464)">
</g>
<g
   id="g18"
   transform="translate(0,-464)">
</g>
<g
   id="g20"
   transform="translate(0,-464)">
</g>
<g
   id="g22"
   transform="translate(0,-464)">
</g>
<g
   id="g24"
   transform="translate(0,-464)">
</g>
<g
   id="g26"
   transform="translate(0,-464)">
</g>
<g
   id="g28"
   transform="translate(0,-464)">
</g>
<g
   id="g30"
   transform="translate(0,-464)">
</g>
<g
   id="g32"
   transform="translate(0,-464)">
</g>
<g
   id="g34"
   transform="translate(0,-464)">
</g>
</svg>