<?xml version="1.0" encoding="UTF-8" standalone="no"?>
<!-- Generator: Adobe Illustrator 19.0.0, SVG Export Plug-In . SVG Version: 6.00 Build 0)  -->

<svg
   xmlns:dc="http://purl.org/dc/elements/1.1/"
   xmlns:cc="http://creativecommons.org/ns#"
   xmlns:rdf="http://www.w3.org/1999/02/22-rdf-syntax-ns#"
   xmlns:svg="http://www.w3.org/2000/svg"
   xmlns="http://www.w3.org/2000/svg"
   xmlns:sodipodi="http://sodipodi.sourceforge.net/DTD/sodipodi-0.dtd"
   xmlns:inkscape="http://www.inkscape.org/namespaces/inkscape"
   version="1.1"
   id="Capa_1"
   x="0px"
   y="0px"
   viewBox="0 0 48 48"
   xml:space="preserve"
   sodipodi:docname="h2-icon.svg"
   width="48"
   height="48"
   inkscape:version="0.92.3 (2405546, 2018-03-11)"><metadata
   id="metadata41"><rdf:RDF><cc:Work
       rdf:about=""><dc:format>image/svg+xml</dc:format><dc:type
         rdf:resource="http://purl.org/dc/dcmitype/StillImage" /><dc:title /></cc:Work></rdf:RDF></metadata><defs
   id="defs39" /><sodipodi:namedview
   pagecolor="#ffffff"
   bordercolor="#666666"
   borderopacity="1"
   objecttolerance="10"
   gridtolerance="10"
   guidetolerance="10"
   inkscape:pageopacity="0"
   inkscape:pageshadow="2"
   inkscape:window-width="1366"
   inkscape:window-height="690"
   id="namedview37"
   showgrid="false"
   showguides="true"
   inkscape:guide-bbox="true"
   inkscape:zoom="3.5870937"
   inkscape:cx="-37.882761"
   inkscape:cy="23.442446"
   inkscape:window-x="0"
   inkscape:window-y="28"
   inkscape:window-maximized="1"
   inkscape:current-layer="Capa_1" />
<path
   style="fill:#7137c8;stroke-width:0.0924025"
   d="M 23.712891 0.49414062 C 17.87943 0.49414062 13.190692 1.6145182 9.7773438 3.8261719 C 5.6761507 6.4835756 3.5078125 10.727685 3.5078125 16.097656 C 3.5078125 23.324362 9.3140783 32.983146 11.09375 35.771484 C 13.125497 38.954565 15.343857 41.851266 17.339844 43.927734 C 19.882206 46.572017 21.907994 47.802734 23.712891 47.802734 C 25.517882 47.802734 27.5419 46.572109 30.083984 43.927734 C 32.079878 41.851358 34.298332 38.954657 36.330078 35.771484 C 38.10975 32.983238 43.916016 23.324362 43.916016 16.097656 C 43.916108 10.727777 41.749814 6.4836678 37.648438 3.8261719 C 34.235274 1.6145182 29.546261 0.49414062 23.712891 0.49414062 z M 19.195312 5.734375 C 20.225652 5.734375 21.403634 5.8487638 22.636719 6.0898438 C 24.772789 6.5068352 26.60472 7.2136381 27.730469 7.9726562 C 27.821619 8.034417 27.912362 8.0960164 27.994141 8.1582031 C 28.650509 8.6578262 28.991545 9.1720225 28.900391 9.6367188 C 28.890601 9.6844239 28.875742 9.7302416 28.857422 9.7753906 C 28.67001 10.245199 28.022779 10.580271 27.074219 10.761719 C 26.536688 10.86437 25.905068 10.917969 25.203125 10.917969 C 24.172359 10.917969 22.994804 10.803154 21.761719 10.5625 C 21.398821 10.491795 21.048383 10.410689 20.705078 10.324219 L 20.550781 10.513672 L 20.394531 10.705078 L 20.09375 11.076172 L 20.09375 19.291016 L 20.09375 20.40625 L 20.09375 22.929688 L 20.09375 24.044922 L 20.09375 24.394531 L 20.263672 24.615234 L 20.753906 25.248047 L 22.804688 27.900391 L 23.234375 28.457031 L 23.4375 28.71875 C 23.58743 28.912551 23.551223 29.189062 23.357422 29.339844 C 23.276495 29.402874 23.180917 29.433594 23.085938 29.433594 C 22.953045 29.433594 22.821695 29.373491 22.734375 29.259766 L 20.09375 25.845703 L 20.09375 28.207031 C 20.09375 28.451944 19.895304 28.650391 19.650391 28.650391 C 19.405904 28.650391 19.205725 28.452796 19.203125 28.207031 L 19.203125 25.765625 L 17.851562 27.380859 C 17.833242 27.44262 17.804243 27.503577 17.757812 27.554688 C 17.721184 27.594718 17.676429 27.620681 17.630859 27.644531 L 16.265625 29.273438 C 16.177883 29.377791 16.05271 29.431641 15.925781 29.431641 C 15.82526 29.431641 15.723255 29.399078 15.640625 29.330078 C 15.452363 29.172056 15.428767 28.890963 15.585938 28.703125 L 16.787109 27.269531 L 15.693359 26.271484 C 15.641395 26.587528 15.368062 26.830078 15.037109 26.830078 C 14.669526 26.830078 14.373047 26.531645 14.373047 26.164062 L 14.373047 25.861328 L 11.777344 27.029297 C 11.554153 27.129392 11.291927 27.031785 11.191406 26.808594 C 11.136496 26.687202 11.144623 26.555806 11.195312 26.443359 C 11.218312 26.393521 11.251406 26.348634 11.291016 26.308594 C 11.318276 26.280904 11.350266 26.262207 11.384766 26.242188 C 11.395416 26.235798 11.402563 26.226203 11.414062 26.220703 L 11.488281 26.1875 L 14.373047 24.886719 L 14.373047 21.251953 L 11.175781 19.525391 C 10.960256 19.409962 10.879814 19.139777 10.996094 18.923828 C 11.014414 18.890178 11.040846 18.866254 11.066406 18.839844 C 10.746528 18.64732 10.564453 18.42965 10.564453 18.199219 C 10.564453 18.163441 10.572231 18.126727 10.582031 18.091797 C 10.578631 18.066237 10.566406 18.043988 10.566406 18.017578 L 10.566406 12.759766 C 10.566406 12.754606 10.564453 12.751194 10.564453 12.746094 C 10.564453 12.688593 10.579413 12.630019 10.601562 12.574219 C 10.616473 12.536307 10.633503 12.499521 10.658203 12.462891 C 10.659503 12.460291 10.660409 12.459131 10.662109 12.457031 C 10.690224 12.415719 10.724062 12.373594 10.763672 12.333984 C 11.339963 11.751304 13.108796 11.328125 15.203125 11.328125 C 16.913258 11.328125 18.402864 11.610425 19.207031 12.03125 L 19.207031 10.919922 C 19.207031 10.818123 19.242321 10.719425 19.306641 10.640625 L 19.470703 10.4375 L 19.625 10.246094 L 19.771484 10.068359 C 17.109383 9.25184 15.302543 8.018954 15.498047 7.0175781 C 15.659051 6.1942435 17.132929 5.734375 19.195312 5.734375 z M 31.546875 7.3164062 C 33.567942 7.3164062 35.275332 7.7264009 35.832031 8.2890625 C 35.869081 8.326971 35.902858 8.3642589 35.929688 8.4042969 C 35.930988 8.4064269 35.931894 8.4099794 35.933594 8.4121094 C 35.956174 8.4474622 35.973801 8.4833262 35.988281 8.5195312 C 36.009151 8.5736252 36.023438 8.6277958 36.023438 8.6835938 C 36.023438 8.6878537 36.021484 8.6921556 36.021484 8.6972656 L 36.021484 13.771484 C 36.021484 13.797464 36.009259 13.81905 36.005859 13.84375 C 36.013549 13.877827 36.023438 13.912766 36.023438 13.947266 C 36.023437 14.413666 35.259112 14.824797 34.09375 15.072266 C 33.579645 14.719591 33.02046 14.456425 32.429688 14.298828 C 32.014826 14.188084 31.586227 14.126953 31.144531 14.126953 C 31.010787 14.126953 30.879661 14.139741 30.748047 14.150391 L 30.748047 14.126953 L 27.214844 14.126953 L 27.115234 14.126953 C 27.089684 14.068174 27.072266 14.008176 27.072266 13.947266 C 27.072266 13.912765 27.079391 13.880203 27.087891 13.845703 C 27.084061 13.820993 27.074219 13.797464 27.074219 13.771484 L 27.074219 11.212891 C 28.302619 10.990978 29.079399 10.527139 29.294922 9.8652344 C 29.310682 9.8183819 29.326138 9.7720653 29.335938 9.7226562 C 29.412607 9.330369 29.321749 8.7847552 28.677734 8.1582031 C 28.548675 8.0329779 28.395513 7.9030987 28.21875 7.7714844 C 29.038251 7.4920703 30.223065 7.3164062 31.546875 7.3164062 z M 25.875 14.568359 L 27.564453 14.568359 L 29.103516 14.568359 C 28.870103 14.671009 28.645138 14.790333 28.425781 14.925781 C 26.426011 16.165255 25.046875 18.717935 25.046875 21.667969 C 25.046875 24.941288 26.74383 27.725313 29.103516 28.767578 L 25.875 28.767578 C 22.757999 28.767578 20.222656 25.581896 20.222656 21.667969 C 20.222656 17.753189 22.757999 14.568359 25.875 14.568359 z M 31.144531 14.568359 C 31.961903 14.568359 32.735557 14.791982 33.4375 15.185547 C 35.413417 16.292981 36.796875 18.77927 36.796875 21.667969 C 36.796875 25.582322 34.261106 28.767578 31.144531 28.767578 C 31.010787 28.767578 30.879661 28.753258 30.748047 28.742188 C 30.673934 28.735798 30.598651 28.732456 30.525391 28.722656 C 30.45 28.712436 30.378377 28.694598 30.304688 28.679688 C 27.585512 28.167711 25.492188 25.223684 25.492188 21.667969 C 25.492187 18.685138 26.965076 16.129585 29.044922 15.080078 C 29.443598 14.879036 29.866826 14.73888 30.304688 14.65625 C 30.3788 14.6422 30.450001 14.623501 30.525391 14.613281 C 30.598652 14.603511 30.673937 14.60055 30.748047 14.59375 C 30.879661 14.58225 31.011213 14.568359 31.144531 14.568359 z M 19.205078 18.912109 C 19.169726 18.931279 19.134033 18.948477 19.095703 18.966797 C 19.181742 19.174654 19.106617 19.418304 18.904297 19.527344 L 15.705078 21.251953 L 15.705078 24.6875 L 16.787109 24.78125 C 17.031597 24.802973 17.212706 25.017658 17.191406 25.261719 C 17.171387 25.493002 16.975497 25.666016 16.748047 25.666016 C 16.735697 25.666016 16.723717 25.665363 16.710938 25.664062 L 16.308594 25.630859 L 17.359375 26.589844 L 19.205078 24.384766 L 19.205078 18.912109 z M 12.845703 19.417969 L 14.375 20.244141 L 14.375 19.845703 C 14.375 19.757534 14.391878 19.673223 14.423828 19.595703 C 13.855204 19.56674 13.323603 19.504439 12.845703 19.417969 z M 17.099609 19.492188 C 16.652802 19.553099 16.170677 19.594895 15.662109 19.609375 C 15.690219 19.683062 15.707031 19.762223 15.707031 19.845703 L 15.707031 20.244141 L 17.099609 19.492188 z "
   id="path2" />

<g
   id="g6"
   transform="translate(0,-464)">
</g>
<g
   id="g8"
   transform="translate(0,-464)">
</g>
<g
   id="g10"
   transform="translate(0,-464)">
</g>
<g
   id="g12"
   transform="translate(0,-464)">
</g>
<g
   id="g14"
   transform="translate(0,-464)">
</g>
<g
   id="g16"
   transform="translate(0,-464)">
</g>
<g
   id="g18"
   transform="translate(0,-464)">
</g>
<g
   id="g20"
   transform="translate(0,-464)">
</g>
<g
   id="g22"
   transform="translate(0,-464)">
</g>
<g
   id="g24"
   transform="translate(0,-464)">
</g>
<g
   id="g26"
   transform="translate(0,-464)">
</g>
<g
   id="g28"
   transform="translate(0,-464)">
</g>
<g
   id="g30"
   transform="translate(0,-464)">
</g>
<g
   id="g32"
   transform="translate(0,-464)">
</g>
<g
   id="g34"
   transform="translate(0,-464)">
</g>
</svg>