<?xml version="1.0" encoding="UTF-8" standalone="no"?>
<!-- Generator: Adobe Illustrator 19.0.0, SVG Export Plug-In . SVG Version: 6.00 Build 0)  -->

<svg
   xmlns:dc="http://purl.org/dc/elements/1.1/"
   xmlns:cc="http://creativecommons.org/ns#"
   xmlns:rdf="http://www.w3.org/1999/02/22-rdf-syntax-ns#"
   xmlns:svg="http://www.w3.org/2000/svg"
   xmlns="http://www.w3.org/2000/svg"
   xmlns:xlink="http://www.w3.org/1999/xlink"
   xmlns:sodipodi="http://sodipodi.sourceforge.net/DTD/sodipodi-0.dtd"
   xmlns:inkscape="http://www.inkscape.org/namespaces/inkscape"
   version="1.1"
   id="Capa_1"
   x="0px"
   y="0px"
   viewBox="0 0 48 48"
   xml:space="preserve"
   sodipodi:docname="jokosher.svg"
   width="48"
   height="48"
   inkscape:version="0.92.3 (2405546, 2018-03-11)"><metadata
   id="metadata41"><rdf:RDF><cc:Work
       rdf:about=""><dc:format>image/svg+xml</dc:format><dc:type
         rdf:resource="http://purl.org/dc/dcmitype/StillImage" /><dc:title /></cc:Work></rdf:RDF></metadata><defs
   id="defs39"><inkscape:path-effect
     effect="bspline"
     id="path-effect1134"
     is_visible="true"
     weight="33.333333"
     steps="2"
     helper_size="0"
     apply_no_weight="true"
     apply_with_weight="true"
     only_selected="false" /><radialGradient
     cx="124.4508"
     cy="398.832"
     r="478.00418"
     fx="124.4508"
     fy="398.832"
     id="radialGradient2888"
     xlink:href="#linearGradient2252"
     gradientUnits="userSpaceOnUse"
     gradientTransform="matrix(0.04209369,0,0,0.03932749,-27.040176,3.1238902)" /><linearGradient
     id="linearGradient2252"><stop
       id="stop2254"
       style="stop-color:#ffffff;stop-opacity:1"
       offset="0" /><stop
       id="stop2256"
       style="stop-color:#d0d0d0;stop-opacity:1"
       offset="1" /></linearGradient></defs><sodipodi:namedview
   pagecolor="#ffffff"
   bordercolor="#666666"
   borderopacity="1"
   objecttolerance="10"
   gridtolerance="10"
   guidetolerance="10"
   inkscape:pageopacity="0"
   inkscape:pageshadow="2"
   inkscape:window-width="1366"
   inkscape:window-height="690"
   id="namedview37"
   showgrid="false"
   showguides="true"
   inkscape:guide-bbox="true"
   inkscape:zoom="5.0833335"
   inkscape:cx="-0.70384777"
   inkscape:cy="22.656703"
   inkscape:window-x="0"
   inkscape:window-y="28"
   inkscape:window-maximized="1"
   inkscape:current-layer="Capa_1" />
<path
   style="opacity:0.5010002;fill:#d45500;fill-opacity:1;fill-rule:evenodd;stroke:none;stroke-width:0.71757883px;stroke-linecap:butt;stroke-linejoin:miter;stroke-opacity:1"
   d="m 13.366778,8.6902032 -0.103599,2.0625018 c 2.341378,3.844285 5.337218,8.790138 8.498799,14.059441 L 16.856957,9.514308 C 15.791034,9.2959071 14.41299,8.9517563 13.366778,8.6902032 Z m 8.3952,16.1219428 6.386241,-14.8850393 c -1.194491,0.1708323 -2.516973,0.3322923 -3.860884,0.3642343 -0.713338,4.159761 -1.57875,9.199323 -2.525357,14.520805 z m 0,0 12.383965,-3.982294 v -3.520931 c -3.562903,2.166523 -7.844809,4.779732 -12.383965,7.503225 z m 0,0 10.95131,4.686481 c 0.47368,-0.799911 0.850598,-1.655682 1.092703,-2.573923 -3.619701,-0.624313 -7.745218,-1.34787 -12.044013,-2.112558 z m 0,0 3.132415,9.737196 c 0.829623,-0.09367 1.645,-0.284139 2.403946,-0.558493 -1.708272,-2.818177 -3.590642,-5.935838 -5.536361,-9.178703 z m 0,0 -3.545213,8.255977 c 0.610987,0.374426 1.256167,0.702184 1.942583,0.947008 0.499961,-2.879361 1.031358,-5.991498 1.60263,-9.202985 z m 0,0 -8.013153,2.573922 c 0.198075,0.627905 0.442499,1.226817 0.75275,1.796889 2.290133,-1.385485 4.738089,-2.857422 7.260403,-4.370811 z m 0,0 -8.498799,-3.642343 v 2.136842 c 2.683035,0.466653 5.543974,0.979885 8.498799,1.505501 z"
   id="path4642"
   sodipodi:nodetypes="ccccccccccccccccccccccccccccccccc"
   inkscape:connector-curvature="0" /><path
   style="fill:#aa4400;stroke-width:0.0924025"
   d="m 23.712891,0.49414062 c -5.833461,0 -10.522199,1.12037758 -13.935547,3.33203128 -4.101193,2.6574037 -6.269532,6.9015131 -6.269532,12.2714841 0,7.226706 5.806266,16.88549 7.585938,19.673828 2.031747,3.183081 4.250107,6.079782 6.246094,8.15625 2.542362,2.644283 4.56815,3.875 6.373047,3.875 1.804991,0 3.829009,-1.230625 6.371093,-3.875 1.995894,-2.076376 4.214348,-4.973077 6.246094,-8.15625 C 38.10975,32.983238 43.916016,23.324362 43.916016,16.097656 43.916108,10.727777 41.749814,6.4836678 37.648438,3.8261719 34.235274,1.6145182 29.546261,0.49414062 23.712891,0.49414062 Z M 33.773438,7.6464844 c 0.786442,0 1.412109,0.3806473 1.412109,1.1640625 V 24.400391 c 0,6.258436 -5.142813,11.33789 -11.480469,11.33789 -6.337656,-10e-7 -11.482422,-5.079454 -11.482422,-11.33789 V 8.8105469 c 0,-0.7834152 0.627622,-1.0996094 1.414063,-1.0996094 0,0 4.991126,1.4941406 10.02539,1.4941406 5.034264,0 10.111329,-1.5585937 10.111329,-1.5585937 z m -2.609376,4.0078126 -4.083984,0.859375 v 12.636719 c -3e-6,0.812492 -0.219738,1.42891 -0.658203,1.847656 -0.431397,0.418745 -1.071275,0.628905 -1.919922,0.628906 h -0.636719 v 2.726563 h 0.828125 c 2.17112,-4e-6 3.789538,-0.430481 4.857422,-1.292969 1.074948,-0.862493 1.613274,-2.166424 1.613281,-3.910156 z"
   id="path2"
   inkscape:connector-curvature="0" />

<g
   id="g6"
   transform="translate(0,-464)">
</g>
<g
   id="g8"
   transform="translate(0,-464)">
</g>
<g
   id="g10"
   transform="translate(0,-464)">
</g>
<g
   id="g12"
   transform="translate(0,-464)">
</g>
<g
   id="g14"
   transform="translate(0,-464)">
</g>
<g
   id="g16"
   transform="translate(0,-464)">
</g>
<g
   id="g18"
   transform="translate(0,-464)">
</g>
<g
   id="g20"
   transform="translate(0,-464)">
</g>
<g
   id="g22"
   transform="translate(0,-464)">
</g>
<g
   id="g24"
   transform="translate(0,-464)">
</g>
<g
   id="g26"
   transform="translate(0,-464)">
</g>
<g
   id="g28"
   transform="translate(0,-464)">
</g>
<g
   id="g30"
   transform="translate(0,-464)">
</g>
<g
   id="g32"
   transform="translate(0,-464)">
</g>
<g
   id="g34"
   transform="translate(0,-464)">
</g>
</svg>