<?xml version="1.0" encoding="UTF-8" standalone="no"?>
<!-- Generator: Adobe Illustrator 19.0.0, SVG Export Plug-In . SVG Version: 6.00 Build 0)  -->

<svg
   xmlns:dc="http://purl.org/dc/elements/1.1/"
   xmlns:cc="http://creativecommons.org/ns#"
   xmlns:rdf="http://www.w3.org/1999/02/22-rdf-syntax-ns#"
   xmlns:svg="http://www.w3.org/2000/svg"
   xmlns="http://www.w3.org/2000/svg"
   xmlns:xlink="http://www.w3.org/1999/xlink"
   xmlns:sodipodi="http://sodipodi.sourceforge.net/DTD/sodipodi-0.dtd"
   xmlns:inkscape="http://www.inkscape.org/namespaces/inkscape"
   version="1.1"
   id="Capa_1"
   x="0px"
   y="0px"
   viewBox="0 0 48 48"
   xml:space="preserve"
   sodipodi:docname="ooo-impress.svg"
   width="48"
   height="48"
   inkscape:version="0.92.3 (2405546, 2018-03-11)"><metadata
   id="metadata41"><rdf:RDF><cc:Work
       rdf:about=""><dc:format>image/svg+xml</dc:format><dc:type
         rdf:resource="http://purl.org/dc/dcmitype/StillImage" /><dc:title /></cc:Work></rdf:RDF></metadata><defs
   id="defs39"><linearGradient
     x1="-83.756935"
     y1="-7.8379993"
     x2="-92.222527"
     y2="27.521217"
     id="linearGradient5588"
     xlink:href="#linearGradient3202"
     gradientUnits="userSpaceOnUse"
     gradientTransform="matrix(0.5857566,-0.140767,0.1402401,0.5879573,74.307775,0.1578927)" /><linearGradient
     id="linearGradient3202"><stop
       id="stop3204"
       style="stop-color:white;stop-opacity:1"
       offset="0" /><stop
       id="stop3206"
       style="stop-color:#d3eefc;stop-opacity:1"
       offset="1" /></linearGradient><clipPath
     clipPathUnits="userSpaceOnUse"
     id="clipPath3983"><path
       d="m 184.57422,701.48438 a 2.2362916,2.2362916 0 0 0 -1.91602,0.92187 c 0,0 -3.3369,4.7843 -4.0332,11.1875 -5.02253,-4.03579 -10.76562,-5.08203 -10.76562,-5.08203 a 2.2362916,2.2362916 0 0 0 -2.56641,2.56445 c 0,0 1.04033,5.74739 5.08008,10.76758 -6.41248,0.69558 -11.21289,4.03125 -11.21289,4.03125 a 2.2362916,2.2362916 0 0 0 0.006,3.63086 c 0,0 4.79953,3.30549 11.20507,3.99609 -4.03825,5.01968 -5.07812,10.76563 -5.07812,10.76563 a 2.2362916,2.2362916 0 0 0 2.56641,2.56445 c 0,0 5.74309,-1.04624 10.76562,-5.08203 0.69532,6.40824 4.0293,11.21484 4.0293,11.21484 a 2.2362916,2.2362916 0 0 0 3.63281,-0.008 c 0,0 3.31369,-4.81511 3.99805,-11.22851 5.02892,4.05475 10.79296,5.10351 10.79296,5.10351 a 2.2362916,2.2362916 0 0 0 2.56446,-2.57422 c 0,0 -1.06513,-5.74008 -5.10547,-10.75586 6.40959,-0.69012 11.22851,-3.99218 11.22851,-3.99218 a 2.2362916,2.2362916 0 0 0 0.008,-3.63868 c 0,0 -4.82176,-3.33225 -11.23828,-4.02734 4.04183,-5.01629 5.10742,-10.75781 5.10742,-10.75781 a 2.2362916,2.2362916 0 0 0 -2.56446,-2.57422 c 0,0 -5.76404,1.04876 -10.79296,5.10351 -0.68533,-6.40839 -4.00196,-11.20312 -4.00196,-11.20312 a 2.2362916,2.2362916 0 0 0 -1.70898,-0.92773 z"
       id="path3985"
       style="color:#000000;display:inline;overflow:visible;visibility:visible;fill:#eeeeec;fill-opacity:1;fill-rule:evenodd;stroke:none;stroke-width:0.30022803;marker:none;enable-background:new"
       inkscape:original="M 184.46875 703.71875 C 184.46875 703.71875 180.59375 709.06256 180.59375 715.6875 C 180.59375 716.89696 180.75838 718.0867 180.96875 719.1875 C 180.33528 718.25414 179.58087 717.32975 178.71875 716.46875 C 174.02816 711.78421 167.5 710.71875 167.5 710.71875 C 167.5 710.71875 168.55941 717.25296 173.25 721.9375 C 174.11212 722.7985 175.03419 723.55485 175.96875 724.1875 C 174.85826 723.9742 173.69012 723.8125 172.46875 723.8125 C 165.83526 723.8125 160.46875 727.6875 160.46875 727.6875 C 160.46875 727.6875 165.83526 731.53125 172.46875 731.53125 C 173.69012 731.53125 174.85826 731.4008 175.96875 731.1875 C 175.03456 731.81999 174.11178 732.54558 173.25 733.40625 C 168.55941 738.09078 167.5 744.625 167.5 744.625 C 167.5 744.625 174.02816 743.55954 178.71875 738.875 C 179.58087 738.014 180.33528 737.08961 180.96875 736.15625 C 180.75518 737.2653 180.59375 738.43646 180.59375 739.65625 C 180.59375 746.28119 184.46875 751.65625 184.46875 751.65625 C 184.46875 751.65625 188.3125 746.28119 188.3125 739.65625 C 188.3125 738.43646 188.18232 737.2653 187.96875 736.15625 C 188.60222 737.08961 189.35663 738.014 190.21875 738.875 C 194.90934 743.55954 201.4375 744.625 201.4375 744.625 C 201.4375 744.625 200.34684 738.09078 195.65625 733.40625 C 194.79906 732.55017 193.89785 731.849 192.96875 731.21875 C 194.06956 731.42831 195.22825 731.53125 196.4375 731.53125 C 203.07099 731.53125 208.46875 727.6875 208.46875 727.6875 C 208.46875 727.6875 203.07099 723.8125 196.4375 723.8125 C 195.22647 723.8125 194.07098 723.9774 192.96875 724.1875 C 193.90331 723.55485 194.79413 722.7985 195.65625 721.9375 C 200.34684 717.25296 201.4375 710.71875 201.4375 710.71875 C 201.4375 710.71875 194.90934 711.78421 190.21875 716.46875 C 189.35663 717.32975 188.60222 718.25414 187.96875 719.1875 C 188.17912 718.0867 188.3125 716.89696 188.3125 715.6875 C 188.3125 709.06256 184.46875 703.71875 184.46875 703.71875 z "
       inkscape:radius="2.236068"
       sodipodi:type="inkscape:offset" /></clipPath><clipPath
     clipPathUnits="userSpaceOnUse"
     id="clipPath4169"><path
       inkscape:connector-curvature="0"
       sodipodi:nodetypes="csssc"
       id="path4171"
       d="m 471.43078,685.92888 c 0,22.09674 -12.84202,40.00973 -12.84202,40.00973 0,0 -12.84203,-17.91299 -12.84203,-40.00973 0,-22.09678 12.84203,-40.00974 12.84203,-40.00974 0,0 12.84202,17.91296 12.84202,40.00974 z"
       style="color:#000000;display:inline;overflow:visible;visibility:visible;fill:#edd400;fill-opacity:1;fill-rule:evenodd;stroke:none;stroke-width:12;marker:none;enable-background:new" /></clipPath><clipPath
     clipPathUnits="userSpaceOnUse"
     id="clipPath4145"><path
       inkscape:connector-curvature="0"
       style="color:#000000;display:inline;overflow:visible;visibility:visible;fill:#3465a4;fill-opacity:1;fill-rule:evenodd;stroke:none;stroke-width:12;marker:none;enable-background:new"
       d="m 401.43078,865.80173 c 0,22.09677 -12.84202,40.00973 -12.84202,40.00973 0,0 -12.84203,-17.91296 -12.84203,-40.00973 0,-22.09675 12.84203,-40.00974 12.84203,-40.00974 0,0 12.84202,17.91299 12.84202,40.00974 z"
       id="path4147"
       sodipodi:nodetypes="csssc" /></clipPath><clipPath
     clipPathUnits="userSpaceOnUse"
     id="clipPath4181"><path
       inkscape:connector-curvature="0"
       sodipodi:nodetypes="csssc"
       id="path4183"
       d="m 348.71074,698.72614 c -22.06442,0 -39.95118,-12.86084 -39.95118,-12.86084 0,0 17.88676,-12.86084 39.95118,-12.86084 22.06446,0 39.95119,12.86084 39.95119,12.86084 0,0 -17.88673,12.86084 -39.95119,12.86084 z"
       style="color:#000000;display:inline;overflow:visible;visibility:visible;fill:#ef2929;fill-opacity:1;fill-rule:evenodd;stroke:none;stroke-width:12;marker:none;enable-background:new" /></clipPath><clipPath
     clipPathUnits="userSpaceOnUse"
     id="clipPath4197"><path
       inkscape:connector-curvature="0"
       style="color:#000000;display:inline;overflow:visible;visibility:visible;fill:#75507b;fill-opacity:1;fill-rule:evenodd;stroke:none;stroke-width:12;marker:none;enable-background:new"
       d="m 299.47143,763.19859 c -15.60192,15.62478 -37.33043,19.19718 -37.33043,19.19718 0,0 3.56716,-21.76037 19.16908,-37.38511 15.60192,-15.62479 37.33043,-19.19719 37.33043,-19.19719 0,0 -3.56717,21.76037 -19.16908,37.38512 z"
       id="path4199"
       sodipodi:nodetypes="csssc" /></clipPath><clipPath
     clipPathUnits="userSpaceOnUse"
     id="clipPath4133"><path
       inkscape:connector-curvature="0"
       style="color:#000000;display:inline;overflow:visible;visibility:visible;fill:#65c808;fill-opacity:1;fill-rule:evenodd;stroke:none;stroke-width:12;marker:none;enable-background:new"
       d="m 538.46677,738.72614 c -22.06443,0 -39.95119,-12.86084 -39.95119,-12.86084 0,0 17.88676,-12.86084 39.95119,-12.86084 22.06442,0 39.95119,12.86084 39.95119,12.86084 0,0 -17.88677,12.86084 -39.95119,12.86084 z"
       id="path4135"
       sodipodi:nodetypes="csssc" /></clipPath><clipPath
     clipPathUnits="userSpaceOnUse"
     id="clipPath4071"><path
       inkscape:connector-curvature="0"
       sodipodi:nodetypes="csssc"
       id="path4073"
       d="m 515.86743,706.71995 c -15.60192,15.62478 -37.33043,19.19718 -37.33043,19.19718 0,0 3.56717,-21.76037 19.16909,-37.38511 15.60192,-15.62478 37.33043,-19.19719 37.33043,-19.19719 0,0 -3.56717,21.76034 -19.16909,37.38512 z"
       style="color:#000000;display:inline;overflow:visible;visibility:visible;fill:#afea2c;fill-opacity:1;fill-rule:evenodd;stroke:none;stroke-width:12;marker:none;enable-background:new" /></clipPath><clipPath
     clipPathUnits="userSpaceOnUse"
     id="clipPath4083"><path
       inkscape:connector-curvature="0"
       sodipodi:nodetypes="csssc"
       id="path4085"
       d="m 515.86743,745.01066 c 15.60192,15.62474 19.16909,37.38511 19.16909,37.38511 0,0 -21.72851,-3.5724 -37.33043,-19.19718 -15.60192,-15.62475 -19.16909,-37.38512 -19.16909,-37.38512 0,0 21.72851,3.5724 37.33043,19.19719 z"
       style="color:#000000;display:inline;overflow:visible;visibility:visible;fill:#729fcf;fill-opacity:1;fill-rule:evenodd;stroke:none;stroke-width:12;marker:none;enable-background:new" /></clipPath><clipPath
     clipPathUnits="userSpaceOnUse"
     id="clipPath4157"><path
       inkscape:connector-curvature="0"
       style="color:#000000;display:inline;overflow:visible;visibility:visible;fill:#f57900;fill-opacity:1;fill-rule:evenodd;stroke:none;stroke-width:12;marker:none;enable-background:new"
       d="m 269.47143,688.53202 c 15.60191,15.62474 19.16908,37.38511 19.16908,37.38511 0,0 -21.72851,-3.5724 -37.33043,-19.19718 -15.60192,-15.62478 -19.16908,-37.38512 -19.16908,-37.38512 0,0 21.72851,3.57241 37.33043,19.19719 z"
       id="path4159"
       sodipodi:nodetypes="csssc" /></clipPath></defs><sodipodi:namedview
   pagecolor="#ffffff"
   bordercolor="#666666"
   borderopacity="1"
   objecttolerance="10"
   gridtolerance="10"
   guidetolerance="10"
   inkscape:pageopacity="0"
   inkscape:pageshadow="2"
   inkscape:window-width="1366"
   inkscape:window-height="690"
   id="namedview37"
   showgrid="false"
   showguides="true"
   inkscape:guide-bbox="true"
   inkscape:zoom="5.0729166"
   inkscape:cx="29.460667"
   inkscape:cy="26.13524"
   inkscape:window-x="0"
   inkscape:window-y="28"
   inkscape:window-maximized="1"
   inkscape:current-layer="Capa_1" />
<path
   style="fill:#89a02c;stroke-width:0.0924025;fill-opacity:1"
   d="M 23.712891 0.49414062 C 17.87943 0.49414062 13.190692 1.6145182 9.7773438 3.8261719 C 5.6761507 6.4835756 3.5078125 10.727685 3.5078125 16.097656 C 3.5078125 23.324362 9.314078 32.983146 11.09375 35.771484 C 13.125497 38.954565 15.343857 41.851266 17.339844 43.927734 C 19.882206 46.572017 21.907994 47.802734 23.712891 47.802734 C 25.517882 47.802734 27.5419 46.572109 30.083984 43.927734 C 32.079878 41.851358 34.298332 38.954657 36.330078 35.771484 C 38.10975 32.983238 43.916016 23.324362 43.916016 16.097656 C 43.916116 10.727777 41.749811 6.4836678 37.648438 3.8261719 C 34.235274 1.6145182 29.546261 0.49414062 23.712891 0.49414062 z M 7.5898438 9.265625 L 26.710938 9.265625 C 26.929352 9.265625 27.105469 9.4397883 27.105469 9.6582031 C 27.105469 9.8766179 26.929352 10.052734 26.710938 10.052734 L 7.5898438 10.052734 C 7.371429 10.052734 7.1953125 9.8766179 7.1953125 9.6582031 C 7.1953125 9.4397883 7.371429 9.265625 7.5898438 9.265625 z M 30.162109 10.386719 C 35.823595 10.386719 38.654297 13.217439 38.654297 18.878906 L 30.162109 18.878906 L 30.162109 10.386719 z M 27.279297 12.917969 L 27.330078 21.710938 L 36.152344 21.710938 A 8.8213558 8.7926083 0 0 1 27.347656 30.501953 A 8.8213558 8.7926083 0 0 1 18.509766 21.744141 A 8.8213558 8.7926083 0 0 1 27.279297 12.917969 z M 7.5898438 13.265625 L 20.304688 13.265625 C 20.523102 13.265625 20.697266 13.439788 20.697266 13.658203 C 20.697266 13.876618 20.523102 14.052734 20.304688 14.052734 L 7.5898438 14.052734 C 7.371429 14.052734 7.1953125 13.876618 7.1953125 13.658203 C 7.1953125 13.439788 7.371429 13.265625 7.5898438 13.265625 z M 7.5898438 17.265625 L 17.150391 17.265625 C 17.368805 17.265625 17.544922 17.439788 17.544922 17.658203 C 17.544922 17.876618 17.368805 18.052734 17.150391 18.052734 L 7.5898438 18.052734 C 7.371429 18.052734 7.1953125 17.876618 7.1953125 17.658203 C 7.1953125 17.439788 7.371429 17.265625 7.5898438 17.265625 z M 7.5898438 21.265625 L 16.65625 21.265625 C 16.874665 21.265625 17.050781 21.439788 17.050781 21.658203 C 17.050781 21.876618 16.874665 22.052734 16.65625 22.052734 L 7.5898438 22.052734 C 7.371429 22.052734 7.1953125 21.876618 7.1953125 21.658203 C 7.1953125 21.439788 7.371429 21.265625 7.5898438 21.265625 z "
   id="path2" />

<g
   id="g6"
   transform="translate(0,-464)">
</g>
<g
   id="g8"
   transform="translate(0,-464)">
</g>
<g
   id="g10"
   transform="translate(0,-464)">
</g>
<g
   id="g12"
   transform="translate(0,-464)">
</g>
<g
   id="g14"
   transform="translate(0,-464)">
</g>
<g
   id="g16"
   transform="translate(0,-464)">
</g>
<g
   id="g18"
   transform="translate(0,-464)">
</g>
<g
   id="g20"
   transform="translate(0,-464)">
</g>
<g
   id="g22"
   transform="translate(0,-464)">
</g>
<g
   id="g24"
   transform="translate(0,-464)">
</g>
<g
   id="g26"
   transform="translate(0,-464)">
</g>
<g
   id="g28"
   transform="translate(0,-464)">
</g>
<g
   id="g30"
   transform="translate(0,-464)">
</g>
<g
   id="g32"
   transform="translate(0,-464)">
</g>
<g
   id="g34"
   transform="translate(0,-464)">
</g>


</svg>