<?xml version="1.0" encoding="UTF-8" standalone="no"?>
<!-- Generator: Adobe Illustrator 19.0.0, SVG Export Plug-In . SVG Version: 6.00 Build 0)  -->

<svg
   xmlns:dc="http://purl.org/dc/elements/1.1/"
   xmlns:cc="http://creativecommons.org/ns#"
   xmlns:rdf="http://www.w3.org/1999/02/22-rdf-syntax-ns#"
   xmlns:svg="http://www.w3.org/2000/svg"
   xmlns="http://www.w3.org/2000/svg"
   xmlns:sodipodi="http://sodipodi.sourceforge.net/DTD/sodipodi-0.dtd"
   xmlns:inkscape="http://www.inkscape.org/namespaces/inkscape"
   version="1.1"
   id="Capa_1"
   x="0px"
   y="0px"
   viewBox="0 0 48 48"
   xml:space="preserve"
   sodipodi:docname="pitivi.svg"
   width="48"
   height="48"
   inkscape:version="0.92.3 (2405546, 2018-03-11)"><metadata
   id="metadata41"><rdf:RDF><cc:Work
       rdf:about=""><dc:format>image/svg+xml</dc:format><dc:type
         rdf:resource="http://purl.org/dc/dcmitype/StillImage" /><dc:title /></cc:Work></rdf:RDF></metadata><defs
   id="defs39" /><sodipodi:namedview
   pagecolor="#ffffff"
   bordercolor="#666666"
   borderopacity="1"
   objecttolerance="10"
   gridtolerance="10"
   guidetolerance="10"
   inkscape:pageopacity="0"
   inkscape:pageshadow="2"
   inkscape:window-width="1366"
   inkscape:window-height="690"
   id="namedview37"
   showgrid="false"
   showguides="true"
   inkscape:guide-bbox="true"
   inkscape:zoom="7.5277407"
   inkscape:cx="-4.7262465"
   inkscape:cy="22.80503"
   inkscape:window-x="0"
   inkscape:window-y="28"
   inkscape:window-maximized="1"
   inkscape:current-layer="Capa_1" />
<path
   style="fill:#165044;stroke-width:0.0924025"
   d="M 23.712891 0.49414062 C 17.87943 0.49414062 13.190692 1.6145182 9.7773438 3.8261719 C 5.6761507 6.4835756 3.5078125 10.727685 3.5078125 16.097656 C 3.5078125 23.324362 9.3140783 32.983146 11.09375 35.771484 C 13.125497 38.954565 15.343857 41.851266 17.339844 43.927734 C 19.882206 46.572017 21.907994 47.802734 23.712891 47.802734 C 25.517882 47.802734 27.5419 46.572109 30.083984 43.927734 C 32.079878 41.851358 34.298332 38.954657 36.330078 35.771484 C 38.10975 32.983238 43.916016 23.324362 43.916016 16.097656 C 43.916108 10.727777 41.749814 6.4836678 37.648438 3.8261719 C 34.235274 1.6145182 29.546261 0.49414062 23.712891 0.49414062 z M 32.710938 6.0527344 C 33.03423 6.0779974 33.326334 6.2921384 33.435547 6.6191406 L 34.4375 9.6210938 L 15.355469 15.992188 C 15.568488 16.310401 15.710434 16.679817 15.757812 17.078125 L 35.619141 17.078125 L 35.619141 31.300781 C 35.619141 31.760475 35.246333 32.132812 34.787109 32.132812 L 12.902344 32.132812 C 12.442933 32.132812 12.070312 31.760568 12.070312 31.300781 L 12.070312 19.548828 C 11.309233 19.121942 10.792969 18.305972 10.792969 17.373047 C 10.792969 16.652673 11.101457 16.004103 11.591797 15.548828 L 11.099609 14.078125 C 10.953992 13.642121 11.189278 13.17082 11.625 13.025391 L 32.382812 6.09375 C 32.491743 6.057393 32.603173 6.0443134 32.710938 6.0527344 z M 30.447266 7.7207031 L 27.919922 8.5625 L 27.3125 11.021484 L 29.837891 10.177734 L 30.447266 7.7207031 z M 24.205078 9.8046875 L 21.677734 10.648438 L 21.070312 13.105469 L 23.595703 12.261719 L 24.205078 9.8046875 z M 17.962891 11.888672 L 15.435547 12.732422 L 14.828125 15.189453 L 17.355469 14.345703 L 17.962891 11.888672 z M 13.283203 16.105469 C 12.583604 16.105469 12.015625 16.673259 12.015625 17.373047 C 12.015625 18.072834 12.583604 18.642578 13.283203 18.642578 C 13.98299 18.642578 14.552734 18.072834 14.552734 17.373047 C 14.552734 16.673259 13.98299 16.105469 13.283203 16.105469 z M 16.609375 17.75 L 15.253906 19.888672 L 17.917969 19.888672 L 19.273438 17.75 L 16.609375 17.75 z M 23.189453 17.75 L 21.835938 19.888672 L 24.498047 19.888672 L 25.853516 17.75 L 23.189453 17.75 z M 29.769531 17.75 L 28.416016 19.888672 L 31.080078 19.888672 L 32.433594 17.75 L 29.769531 17.75 z M 22.535156 22.443359 L 22.535156 28.083984 L 27.027344 25.263672 L 22.535156 22.443359 z "
   id="path2" />

<g
   id="g6"
   transform="translate(0,-464)">
</g>
<g
   id="g8"
   transform="translate(0,-464)">
</g>
<g
   id="g10"
   transform="translate(0,-464)">
</g>
<g
   id="g12"
   transform="translate(0,-464)">
</g>
<g
   id="g14"
   transform="translate(0,-464)">
</g>
<g
   id="g16"
   transform="translate(0,-464)">
</g>
<g
   id="g18"
   transform="translate(0,-464)">
</g>
<g
   id="g20"
   transform="translate(0,-464)">
</g>
<g
   id="g22"
   transform="translate(0,-464)">
</g>
<g
   id="g24"
   transform="translate(0,-464)">
</g>
<g
   id="g26"
   transform="translate(0,-464)">
</g>
<g
   id="g28"
   transform="translate(0,-464)">
</g>
<g
   id="g30"
   transform="translate(0,-464)">
</g>
<g
   id="g32"
   transform="translate(0,-464)">
</g>
<g
   id="g34"
   transform="translate(0,-464)">
</g>
</svg>