<?xml version="1.0" encoding="UTF-8" standalone="no"?>
<!-- Generator: Adobe Illustrator 19.0.0, SVG Export Plug-In . SVG Version: 6.00 Build 0)  -->

<svg
   xmlns:dc="http://purl.org/dc/elements/1.1/"
   xmlns:cc="http://creativecommons.org/ns#"
   xmlns:rdf="http://www.w3.org/1999/02/22-rdf-syntax-ns#"
   xmlns:svg="http://www.w3.org/2000/svg"
   xmlns="http://www.w3.org/2000/svg"
   xmlns:sodipodi="http://sodipodi.sourceforge.net/DTD/sodipodi-0.dtd"
   xmlns:inkscape="http://www.inkscape.org/namespaces/inkscape"
   version="1.1"
   id="Capa_1"
   x="0px"
   y="0px"
   viewBox="0 0 48 48"
   xml:space="preserve"
   sodipodi:docname="preferences-desktop-peripherals.svg"
   width="48"
   height="48"
   inkscape:version="0.92.3 (2405546, 2018-03-11)"><metadata
   id="metadata41"><rdf:RDF><cc:Work
       rdf:about=""><dc:format>image/svg+xml</dc:format><dc:type
         rdf:resource="http://purl.org/dc/dcmitype/StillImage" /><dc:title /></cc:Work></rdf:RDF></metadata><defs
   id="defs39" /><sodipodi:namedview
   pagecolor="#ffffff"
   bordercolor="#666666"
   borderopacity="1"
   objecttolerance="10"
   gridtolerance="10"
   guidetolerance="10"
   inkscape:pageopacity="0"
   inkscape:pageshadow="2"
   inkscape:window-width="1366"
   inkscape:window-height="690"
   id="namedview37"
   showgrid="false"
   showguides="true"
   inkscape:guide-bbox="true"
   inkscape:zoom="7.1741873"
   inkscape:cx="9.7833923"
   inkscape:cy="22.884892"
   inkscape:window-x="0"
   inkscape:window-y="28"
   inkscape:window-maximized="1"
   inkscape:current-layer="Capa_1" />
<path
   style="fill:#782144;stroke-width:0.0924025"
   d="M 23.712891 0.49414062 C 17.87943 0.49414062 13.190692 1.6145182 9.7773438 3.8261719 C 5.6761507 6.4835756 3.5078125 10.727685 3.5078125 16.097656 C 3.5078125 23.324362 9.3140783 32.983146 11.09375 35.771484 C 13.125497 38.954565 15.343857 41.851266 17.339844 43.927734 C 19.882206 46.572017 21.907994 47.802734 23.712891 47.802734 C 25.517882 47.802734 27.5419 46.572109 30.083984 43.927734 C 32.079878 41.851358 34.298332 38.954657 36.330078 35.771484 C 38.10975 32.983238 43.916016 23.324362 43.916016 16.097656 C 43.916108 10.727777 41.749814 6.4836678 37.648438 3.8261719 C 34.235274 1.6145182 29.546261 0.49414062 23.712891 0.49414062 z M 35.171875 5.6757812 L 35.443359 5.7304688 L 35.169922 5.6796875 L 35.171875 5.6757812 z M 11.113281 5.7421875 C 11.173837 6.0602756 11.925985 6.6442596 12.126953 6.8671875 C 13.112494 7.9611979 13.985906 9.0617808 14.876953 10.207031 C 15.352088 10.921731 15.848208 11.709931 16.423828 12.507812 C 18.395575 15.240842 20.522016 17.863923 22.841797 20.298828 C 22.34337 20.810563 21.840353 21.307272 21.335938 21.789062 C 18.294136 18.560269 15.628135 14.957101 13.199219 11.287109 C 13.07744 11.103443 12.958252 10.92244 12.841797 10.746094 C 12.146395 9.8270982 11.862648 8.4226279 11.53125 7.3359375 C 11.227802 6.3410802 11.114581 5.7481775 11.113281 5.7421875 z M 35.498047 5.7421875 C 35.497382 5.7481766 35.384191 6.3404148 35.080078 7.3359375 C 34.748015 8.4226279 34.464933 9.8270981 33.769531 10.746094 C 33.652411 10.921774 33.533887 11.103443 33.412109 11.287109 C 30.860749 15.140767 28.049859 18.924195 24.816406 22.273438 C 24.323303 22.783842 23.818377 23.280377 23.306641 23.771484 C 21.824005 25.184248 20.256898 26.506099 18.585938 27.697266 C 18.798883 28.014023 18.971393 28.336511 19.089844 28.640625 C 19.204303 28.935422 19.279099 29.203995 19.318359 29.404297 C 19.359569 29.603269 19.365234 29.734375 19.365234 29.734375 C 19.365234 29.734375 19.235415 29.726807 19.037109 29.685547 C 18.836806 29.646285 18.569565 29.573442 18.273438 29.458984 C 18.023226 29.361827 17.761524 29.215814 17.5 29.050781 C 17.352268 28.957617 17.202998 28.863706 17.058594 28.753906 C 16.854299 28.598189 16.655034 28.434332 16.470703 28.25 C 16.18988 27.967847 15.949144 27.654025 15.742188 27.335938 C 15.719568 27.302002 15.691212 27.269645 15.669922 27.234375 C 15.503557 26.967527 15.360869 26.700183 15.261719 26.445312 C 15.146595 26.149849 15.072463 25.882609 15.033203 25.681641 C 14.991923 25.483335 14.984375 25.353516 14.984375 25.353516 C 14.984375 25.353516 15.114194 25.361084 15.3125 25.402344 C 15.512803 25.442271 15.78071 25.51507 16.076172 25.630859 C 16.416886 25.763285 16.782696 25.969826 17.136719 26.220703 C 17.245854 26.140848 17.358993 26.066225 17.466797 25.984375 C 18.986034 24.831139 20.418802 23.583056 21.792969 22.273438 C 22.306036 21.784327 22.812207 21.286375 23.306641 20.779297 C 25.808758 18.210636 28.084657 15.421845 30.1875 12.507812 C 30.762454 11.709931 31.257287 10.921731 31.732422 10.207031 C 32.623469 9.0611153 33.496881 7.9611979 34.482422 6.8671875 C 34.682725 6.6442596 35.437487 6.0609411 35.498047 5.7421875 z M 25.292969 22.726562 C 26.522067 23.871149 27.800309 24.96423 29.144531 25.984375 C 29.252334 26.066892 29.365474 26.13823 29.474609 26.21875 C 29.827966 25.967873 30.191159 25.761997 30.533203 25.628906 C 30.829332 25.513782 31.095908 25.440321 31.296875 25.400391 C 31.494516 25.359811 31.625 25.351562 31.625 25.351562 C 31.625 25.351562 31.617432 25.481382 31.576172 25.679688 C 31.535579 25.879991 31.46278 26.148562 31.347656 26.443359 C 31.248503 26.698229 31.105817 26.96624 30.939453 27.232422 C 30.917493 27.267022 30.891101 27.300044 30.869141 27.333984 C 30.662849 27.652737 30.422778 27.965894 30.140625 28.248047 C 29.955628 28.433044 29.755076 28.598854 29.550781 28.753906 C 29.405711 28.863706 29.259059 28.954998 29.111328 29.048828 C 28.849803 29.213861 28.587437 29.359871 28.337891 29.457031 C 28.042429 29.57149 27.773234 29.644334 27.572266 29.683594 C 27.373294 29.724804 27.244141 29.732422 27.244141 29.732422 C 27.244141 29.732422 27.251709 29.603268 27.292969 29.404297 C 27.332897 29.20466 27.405073 28.936753 27.519531 28.640625 C 27.637317 28.335846 27.811823 28.012112 28.023438 27.693359 C 26.532816 26.63129 25.122101 25.467016 23.783203 24.224609 C 24.299597 23.732172 24.804524 23.232975 25.292969 22.726562 z M 15.076172 28.056641 C 15.289118 28.370736 15.535946 28.679622 15.830078 28.953125 C 16.022394 29.132132 16.232323 29.291099 16.447266 29.4375 C 16.600321 29.541311 16.75768 29.627051 16.914062 29.712891 C 15.480004 30.922025 14.727479 31.507033 13.152344 32.625 C 12.92742 32.775392 12.6664 32.847656 12.408203 32.847656 C 11.993623 32.847656 11.584817 32.662357 11.335938 32.320312 C 10.932004 31.763991 11.094925 31.013367 11.671875 30.636719 C 13.091294 29.643858 13.773208 29.126695 15.076172 28.056641 z M 31.535156 28.056641 C 32.83812 29.12603 33.518081 29.643858 34.9375 30.636719 C 35.516447 31.013368 35.679366 31.765321 35.273438 32.320312 C 34.868839 32.876634 34.043298 33.014958 33.457031 32.625 C 31.881896 31.506368 31.130659 30.922691 29.697266 29.712891 C 29.854314 29.627047 30.00972 29.541312 30.162109 29.4375 C 30.377717 29.290435 30.585649 29.132133 30.779297 28.953125 C 31.073429 28.679623 31.32221 28.370737 31.535156 28.056641 z "
   id="path2" />

<g
   id="g6"
   transform="translate(0,-464)">
</g>
<g
   id="g8"
   transform="translate(0,-464)">
</g>
<g
   id="g10"
   transform="translate(0,-464)">
</g>
<g
   id="g12"
   transform="translate(0,-464)">
</g>
<g
   id="g14"
   transform="translate(0,-464)">
</g>
<g
   id="g16"
   transform="translate(0,-464)">
</g>
<g
   id="g18"
   transform="translate(0,-464)">
</g>
<g
   id="g20"
   transform="translate(0,-464)">
</g>
<g
   id="g22"
   transform="translate(0,-464)">
</g>
<g
   id="g24"
   transform="translate(0,-464)">
</g>
<g
   id="g26"
   transform="translate(0,-464)">
</g>
<g
   id="g28"
   transform="translate(0,-464)">
</g>
<g
   id="g30"
   transform="translate(0,-464)">
</g>
<g
   id="g32"
   transform="translate(0,-464)">
</g>
<g
   id="g34"
   transform="translate(0,-464)">
</g>
</svg>