<?xml version="1.0" encoding="UTF-8" standalone="no"?>
<!-- Generator: Adobe Illustrator 19.0.0, SVG Export Plug-In . SVG Version: 6.00 Build 0)  -->

<svg
   xmlns:dc="http://purl.org/dc/elements/1.1/"
   xmlns:cc="http://creativecommons.org/ns#"
   xmlns:rdf="http://www.w3.org/1999/02/22-rdf-syntax-ns#"
   xmlns:svg="http://www.w3.org/2000/svg"
   xmlns="http://www.w3.org/2000/svg"
   xmlns:xlink="http://www.w3.org/1999/xlink"
   xmlns:sodipodi="http://sodipodi.sourceforge.net/DTD/sodipodi-0.dtd"
   xmlns:inkscape="http://www.inkscape.org/namespaces/inkscape"
   version="1.1"
   id="Capa_1"
   x="0px"
   y="0px"
   viewBox="0 0 48 48"
   xml:space="preserve"
   sodipodi:docname="preferences-desktop-screensaver.svg"
   width="48"
   height="48"
   inkscape:version="0.92.3 (2405546, 2018-03-11)"><metadata
   id="metadata41"><rdf:RDF><cc:Work
       rdf:about=""><dc:format>image/svg+xml</dc:format><dc:type
         rdf:resource="http://purl.org/dc/dcmitype/StillImage" /><dc:title /></cc:Work></rdf:RDF></metadata><defs
   id="defs39"><linearGradient
     x1="-83.756935"
     y1="-7.8379993"
     x2="-92.222527"
     y2="27.521217"
     id="linearGradient5588"
     xlink:href="#linearGradient3202"
     gradientUnits="userSpaceOnUse"
     gradientTransform="matrix(0.5857566,-0.140767,0.1402401,0.5879573,74.307775,0.1578927)" /><linearGradient
     id="linearGradient3202"><stop
       id="stop3204"
       style="stop-color:white;stop-opacity:1"
       offset="0" /><stop
       id="stop3206"
       style="stop-color:#d3eefc;stop-opacity:1"
       offset="1" /></linearGradient><linearGradient
     id="linearGradient6112"
     x1="12.938"
     x2="15.25"
     y1="8.4375"
     y2="19.812"
     gradientTransform="matrix(0.47002296,0,0,0.62340018,12.754482,8.1975381)"
     gradientUnits="userSpaceOnUse"><stop
       id="stop6594"
       style="stop-color:#fff;stop-opacity:.27451"
       offset="0" /><stop
       id="stop6596"
       style="stop-color:#fff;stop-opacity:0"
       offset="1" /></linearGradient><radialGradient
     id="radialGradient6101"
     cx="24.5"
     cy="12.5"
     r="2.5"
     gradientTransform="matrix(0.61217898,0,0,0.62677693,2.0233227,11.324046)"
     gradientUnits="userSpaceOnUse"
     xlink:href="#linearGradient14414" /><linearGradient
     id="linearGradient14414"><stop
       id="stop14422"
       style="stop-color:#fff"
       offset="0" /><stop
       id="stop14418"
       style="stop-color:#fff;stop-opacity:0"
       offset="1" /></linearGradient><radialGradient
     id="radialGradient6103"
     cx="24.5"
     cy="12.5"
     r="2.5"
     gradientTransform="matrix(0.61217898,0,0,0.62677693,3.5818232,5.0900441)"
     gradientUnits="userSpaceOnUse"
     xlink:href="#linearGradient14414" /><radialGradient
     id="radialGradient6105"
     cx="24.5"
     cy="12.5"
     r="2.5"
     gradientTransform="matrix(0.61217898,0,0,0.62677693,6.698928,8.7265452)"
     gradientUnits="userSpaceOnUse"
     xlink:href="#linearGradient14414" /><radialGradient
     id="radialGradient6107"
     cx="24.5"
     cy="12.5"
     r="2.5"
     gradientTransform="matrix(0.61217898,0,0,0.62677693,10.854929,6.3710276)"
     gradientUnits="userSpaceOnUse"
     xlink:href="#linearGradient14414" /></defs><sodipodi:namedview
   pagecolor="#ffffff"
   bordercolor="#666666"
   borderopacity="1"
   objecttolerance="10"
   gridtolerance="10"
   guidetolerance="10"
   inkscape:pageopacity="0"
   inkscape:pageshadow="2"
   inkscape:window-width="1366"
   inkscape:window-height="690"
   id="namedview37"
   showgrid="false"
   showguides="true"
   inkscape:guide-bbox="true"
   inkscape:zoom="5.0729165"
   inkscape:cx="25.106893"
   inkscape:cy="27.81776"
   inkscape:window-x="0"
   inkscape:window-y="28"
   inkscape:window-maximized="1"
   inkscape:current-layer="Capa_1" />
<path
   style="fill:#803300;stroke-width:0.0924025"
   d="m 23.712891,0.49414062 c -5.833461,0 -10.522199,1.12037758 -13.935547,3.33203128 -4.101193,2.6574037 -6.269531,6.9015131 -6.269531,12.2714841 0,7.226706 5.806265,16.88549 7.585937,19.673828 2.031747,3.183081 4.250107,6.079782 6.246094,8.15625 2.542362,2.644283 4.56815,3.875 6.373047,3.875 1.804991,0 3.829009,-1.230625 6.371093,-3.875 1.995894,-2.076376 4.214348,-4.973077 6.246094,-8.15625 C 38.10975,32.983238 43.916016,23.324362 43.916016,16.097656 43.916108,10.727777 41.749814,6.4836678 37.648438,3.8261719 34.235274,1.6145182 29.546261,0.49414062 23.712891,0.49414062 Z M 13.470703,8.4765625 h 21.255859 c 0.42663,0 0.769532,0.3448545 0.769532,0.7714844 V 26.261719 c 0,0.42663 -0.342902,0.769531 -0.769532,0.769531 h -4.001953 v 3.179688 H 18.001953 V 27.03125 h -4.53125 c -0.42663,0 -0.769531,-0.342901 -0.769531,-0.769531 V 9.2480469 c 0,-0.4266299 0.342901,-0.7714844 0.769531,-0.7714844 z m 1.480469,1.5917965 c -0.365683,0 -0.660156,0.294474 -0.660156,0.660157 V 24.25 c 0,0.365683 0.294473,0.660156 0.660156,0.660156 h 18.294922 c 0.365682,0 0.660156,-0.294473 0.660156,-0.660156 V 10.728516 c 0,-0.365683 -0.294474,-0.660157 -0.660156,-0.660157 z m 3.632812,1.039063 0.25586,1.558594 1.558594,0.277343 -1.558594,0.242188 -0.234375,1.558594 -0.285157,-1.558594 -1.558593,-0.300781 1.558593,-0.21875 z m 7.271485,1.28125 0.257812,1.558594 1.558594,0.277343 -1.558594,0.242188 -0.234375,1.556641 -0.285156,-1.556641 -1.558594,-0.300781 1.558594,-0.21875 z M 30.75,13.933594 c 1.424417,0.727196 2.40625,2.225372 2.40625,3.953125 0,2.440508 -1.949114,4.417969 -4.353516,4.417969 -1.803289,-10e-7 -3.356046,-1.106702 -4.017578,-2.69336 0.587607,0.300001 1.245058,0.466797 1.947266,0.466797 2.404455,0 4.353516,-1.979362 4.353516,-4.419922 0,-0.610153 -0.115426,-1.195706 -0.335938,-1.724609 z m -9.048828,0.810547 0.255859,1.55664 1.558594,0.279297 -1.558594,0.240234 -0.234375,1.558594 L 21.4375,16.820312 19.878906,16.521484 21.4375,16.300781 Z m -4.675781,2.595703 0.255859,1.558594 1.558594,0.277343 -1.558594,0.242188 -0.232422,1.558593 -0.287109,-1.558593 -1.558594,-0.298828 1.558594,-0.220703 z m -2.876953,12.888672 h 19.652343 v 1.601562 H 14.148438 Z"
   id="path2"
   inkscape:connector-curvature="0" />

<g
   id="g6"
   transform="translate(0,-464)">
</g>
<g
   id="g8"
   transform="translate(0,-464)">
</g>
<g
   id="g10"
   transform="translate(0,-464)">
</g>
<g
   id="g12"
   transform="translate(0,-464)">
</g>
<g
   id="g14"
   transform="translate(0,-464)">
</g>
<g
   id="g16"
   transform="translate(0,-464)">
</g>
<g
   id="g18"
   transform="translate(0,-464)">
</g>
<g
   id="g20"
   transform="translate(0,-464)">
</g>
<g
   id="g22"
   transform="translate(0,-464)">
</g>
<g
   id="g24"
   transform="translate(0,-464)">
</g>
<g
   id="g26"
   transform="translate(0,-464)">
</g>
<g
   id="g28"
   transform="translate(0,-464)">
</g>
<g
   id="g30"
   transform="translate(0,-464)">
</g>
<g
   id="g32"
   transform="translate(0,-464)">
</g>
<g
   id="g34"
   transform="translate(0,-464)">
</g>
<path
   inkscape:connector-curvature="0"
   style="fill:url(#linearGradient6112);stroke-width:0.51950014"
   d="M 14.164561,10.067739 H 33.905567 V 15.05494 L 14.164561,19.418742 Z"
   id="rect6588" /></svg>