<?xml version="1.0" encoding="UTF-8" standalone="no"?>
<!-- Generator: Adobe Illustrator 19.0.0, SVG Export Plug-In . SVG Version: 6.00 Build 0)  -->

<svg
   xmlns:dc="http://purl.org/dc/elements/1.1/"
   xmlns:cc="http://creativecommons.org/ns#"
   xmlns:rdf="http://www.w3.org/1999/02/22-rdf-syntax-ns#"
   xmlns:svg="http://www.w3.org/2000/svg"
   xmlns="http://www.w3.org/2000/svg"
   xmlns:xlink="http://www.w3.org/1999/xlink"
   xmlns:sodipodi="http://sodipodi.sourceforge.net/DTD/sodipodi-0.dtd"
   xmlns:inkscape="http://www.inkscape.org/namespaces/inkscape"
   version="1.1"
   id="Capa_1"
   x="0px"
   y="0px"
   viewBox="0 0 48 48"
   xml:space="preserve"
   sodipodi:docname="preferences-system-services.svg"
   width="48"
   height="48"
   inkscape:version="0.92.3 (2405546, 2018-03-11)"><metadata
   id="metadata41"><rdf:RDF><cc:Work
       rdf:about=""><dc:format>image/svg+xml</dc:format><dc:type
         rdf:resource="http://purl.org/dc/dcmitype/StillImage" /><dc:title /></cc:Work></rdf:RDF></metadata><defs
   id="defs39"><linearGradient
     x1="-83.756935"
     y1="-7.8379993"
     x2="-92.222527"
     y2="27.521217"
     id="linearGradient5588"
     xlink:href="#linearGradient3202"
     gradientUnits="userSpaceOnUse"
     gradientTransform="matrix(0.5857566,-0.140767,0.1402401,0.5879573,74.307775,0.1578927)" /><linearGradient
     id="linearGradient3202"><stop
       id="stop3204"
       style="stop-color:white;stop-opacity:1"
       offset="0" /><stop
       id="stop3206"
       style="stop-color:#d3eefc;stop-opacity:1"
       offset="1" /></linearGradient><clipPath
     clipPathUnits="userSpaceOnUse"
     id="clipPath3983"><path
       d="m 184.57422,701.48438 a 2.2362916,2.2362916 0 0 0 -1.91602,0.92187 c 0,0 -3.3369,4.7843 -4.0332,11.1875 -5.02253,-4.03579 -10.76562,-5.08203 -10.76562,-5.08203 a 2.2362916,2.2362916 0 0 0 -2.56641,2.56445 c 0,0 1.04033,5.74739 5.08008,10.76758 -6.41248,0.69558 -11.21289,4.03125 -11.21289,4.03125 a 2.2362916,2.2362916 0 0 0 0.006,3.63086 c 0,0 4.79953,3.30549 11.20507,3.99609 -4.03825,5.01968 -5.07812,10.76563 -5.07812,10.76563 a 2.2362916,2.2362916 0 0 0 2.56641,2.56445 c 0,0 5.74309,-1.04624 10.76562,-5.08203 0.69532,6.40824 4.0293,11.21484 4.0293,11.21484 a 2.2362916,2.2362916 0 0 0 3.63281,-0.008 c 0,0 3.31369,-4.81511 3.99805,-11.22851 5.02892,4.05475 10.79296,5.10351 10.79296,5.10351 a 2.2362916,2.2362916 0 0 0 2.56446,-2.57422 c 0,0 -1.06513,-5.74008 -5.10547,-10.75586 6.40959,-0.69012 11.22851,-3.99218 11.22851,-3.99218 a 2.2362916,2.2362916 0 0 0 0.008,-3.63868 c 0,0 -4.82176,-3.33225 -11.23828,-4.02734 4.04183,-5.01629 5.10742,-10.75781 5.10742,-10.75781 a 2.2362916,2.2362916 0 0 0 -2.56446,-2.57422 c 0,0 -5.76404,1.04876 -10.79296,5.10351 -0.68533,-6.40839 -4.00196,-11.20312 -4.00196,-11.20312 a 2.2362916,2.2362916 0 0 0 -1.70898,-0.92773 z"
       id="path3985"
       style="color:#000000;display:inline;overflow:visible;visibility:visible;fill:#eeeeec;fill-opacity:1;fill-rule:evenodd;stroke:none;stroke-width:0.30022803;marker:none;enable-background:new"
       inkscape:original="M 184.46875 703.71875 C 184.46875 703.71875 180.59375 709.06256 180.59375 715.6875 C 180.59375 716.89696 180.75838 718.0867 180.96875 719.1875 C 180.33528 718.25414 179.58087 717.32975 178.71875 716.46875 C 174.02816 711.78421 167.5 710.71875 167.5 710.71875 C 167.5 710.71875 168.55941 717.25296 173.25 721.9375 C 174.11212 722.7985 175.03419 723.55485 175.96875 724.1875 C 174.85826 723.9742 173.69012 723.8125 172.46875 723.8125 C 165.83526 723.8125 160.46875 727.6875 160.46875 727.6875 C 160.46875 727.6875 165.83526 731.53125 172.46875 731.53125 C 173.69012 731.53125 174.85826 731.4008 175.96875 731.1875 C 175.03456 731.81999 174.11178 732.54558 173.25 733.40625 C 168.55941 738.09078 167.5 744.625 167.5 744.625 C 167.5 744.625 174.02816 743.55954 178.71875 738.875 C 179.58087 738.014 180.33528 737.08961 180.96875 736.15625 C 180.75518 737.2653 180.59375 738.43646 180.59375 739.65625 C 180.59375 746.28119 184.46875 751.65625 184.46875 751.65625 C 184.46875 751.65625 188.3125 746.28119 188.3125 739.65625 C 188.3125 738.43646 188.18232 737.2653 187.96875 736.15625 C 188.60222 737.08961 189.35663 738.014 190.21875 738.875 C 194.90934 743.55954 201.4375 744.625 201.4375 744.625 C 201.4375 744.625 200.34684 738.09078 195.65625 733.40625 C 194.79906 732.55017 193.89785 731.849 192.96875 731.21875 C 194.06956 731.42831 195.22825 731.53125 196.4375 731.53125 C 203.07099 731.53125 208.46875 727.6875 208.46875 727.6875 C 208.46875 727.6875 203.07099 723.8125 196.4375 723.8125 C 195.22647 723.8125 194.07098 723.9774 192.96875 724.1875 C 193.90331 723.55485 194.79413 722.7985 195.65625 721.9375 C 200.34684 717.25296 201.4375 710.71875 201.4375 710.71875 C 201.4375 710.71875 194.90934 711.78421 190.21875 716.46875 C 189.35663 717.32975 188.60222 718.25414 187.96875 719.1875 C 188.17912 718.0867 188.3125 716.89696 188.3125 715.6875 C 188.3125 709.06256 184.46875 703.71875 184.46875 703.71875 z "
       inkscape:radius="2.236068"
       sodipodi:type="inkscape:offset" /></clipPath><clipPath
     clipPathUnits="userSpaceOnUse"
     id="clipPath4169"><path
       inkscape:connector-curvature="0"
       sodipodi:nodetypes="csssc"
       id="path4171"
       d="m 471.43078,685.92888 c 0,22.09674 -12.84202,40.00973 -12.84202,40.00973 0,0 -12.84203,-17.91299 -12.84203,-40.00973 0,-22.09678 12.84203,-40.00974 12.84203,-40.00974 0,0 12.84202,17.91296 12.84202,40.00974 z"
       style="color:#000000;display:inline;overflow:visible;visibility:visible;fill:#edd400;fill-opacity:1;fill-rule:evenodd;stroke:none;stroke-width:12;marker:none;enable-background:new" /></clipPath><clipPath
     clipPathUnits="userSpaceOnUse"
     id="clipPath4145"><path
       inkscape:connector-curvature="0"
       style="color:#000000;display:inline;overflow:visible;visibility:visible;fill:#3465a4;fill-opacity:1;fill-rule:evenodd;stroke:none;stroke-width:12;marker:none;enable-background:new"
       d="m 401.43078,865.80173 c 0,22.09677 -12.84202,40.00973 -12.84202,40.00973 0,0 -12.84203,-17.91296 -12.84203,-40.00973 0,-22.09675 12.84203,-40.00974 12.84203,-40.00974 0,0 12.84202,17.91299 12.84202,40.00974 z"
       id="path4147"
       sodipodi:nodetypes="csssc" /></clipPath><clipPath
     clipPathUnits="userSpaceOnUse"
     id="clipPath4181"><path
       inkscape:connector-curvature="0"
       sodipodi:nodetypes="csssc"
       id="path4183"
       d="m 348.71074,698.72614 c -22.06442,0 -39.95118,-12.86084 -39.95118,-12.86084 0,0 17.88676,-12.86084 39.95118,-12.86084 22.06446,0 39.95119,12.86084 39.95119,12.86084 0,0 -17.88673,12.86084 -39.95119,12.86084 z"
       style="color:#000000;display:inline;overflow:visible;visibility:visible;fill:#ef2929;fill-opacity:1;fill-rule:evenodd;stroke:none;stroke-width:12;marker:none;enable-background:new" /></clipPath><clipPath
     clipPathUnits="userSpaceOnUse"
     id="clipPath4197"><path
       inkscape:connector-curvature="0"
       style="color:#000000;display:inline;overflow:visible;visibility:visible;fill:#75507b;fill-opacity:1;fill-rule:evenodd;stroke:none;stroke-width:12;marker:none;enable-background:new"
       d="m 299.47143,763.19859 c -15.60192,15.62478 -37.33043,19.19718 -37.33043,19.19718 0,0 3.56716,-21.76037 19.16908,-37.38511 15.60192,-15.62479 37.33043,-19.19719 37.33043,-19.19719 0,0 -3.56717,21.76037 -19.16908,37.38512 z"
       id="path4199"
       sodipodi:nodetypes="csssc" /></clipPath><clipPath
     clipPathUnits="userSpaceOnUse"
     id="clipPath4133"><path
       inkscape:connector-curvature="0"
       style="color:#000000;display:inline;overflow:visible;visibility:visible;fill:#65c808;fill-opacity:1;fill-rule:evenodd;stroke:none;stroke-width:12;marker:none;enable-background:new"
       d="m 538.46677,738.72614 c -22.06443,0 -39.95119,-12.86084 -39.95119,-12.86084 0,0 17.88676,-12.86084 39.95119,-12.86084 22.06442,0 39.95119,12.86084 39.95119,12.86084 0,0 -17.88677,12.86084 -39.95119,12.86084 z"
       id="path4135"
       sodipodi:nodetypes="csssc" /></clipPath><clipPath
     clipPathUnits="userSpaceOnUse"
     id="clipPath4071"><path
       inkscape:connector-curvature="0"
       sodipodi:nodetypes="csssc"
       id="path4073"
       d="m 515.86743,706.71995 c -15.60192,15.62478 -37.33043,19.19718 -37.33043,19.19718 0,0 3.56717,-21.76037 19.16909,-37.38511 15.60192,-15.62478 37.33043,-19.19719 37.33043,-19.19719 0,0 -3.56717,21.76034 -19.16909,37.38512 z"
       style="color:#000000;display:inline;overflow:visible;visibility:visible;fill:#afea2c;fill-opacity:1;fill-rule:evenodd;stroke:none;stroke-width:12;marker:none;enable-background:new" /></clipPath><clipPath
     clipPathUnits="userSpaceOnUse"
     id="clipPath4083"><path
       inkscape:connector-curvature="0"
       sodipodi:nodetypes="csssc"
       id="path4085"
       d="m 515.86743,745.01066 c 15.60192,15.62474 19.16909,37.38511 19.16909,37.38511 0,0 -21.72851,-3.5724 -37.33043,-19.19718 -15.60192,-15.62475 -19.16909,-37.38512 -19.16909,-37.38512 0,0 21.72851,3.5724 37.33043,19.19719 z"
       style="color:#000000;display:inline;overflow:visible;visibility:visible;fill:#729fcf;fill-opacity:1;fill-rule:evenodd;stroke:none;stroke-width:12;marker:none;enable-background:new" /></clipPath><clipPath
     clipPathUnits="userSpaceOnUse"
     id="clipPath4157"><path
       inkscape:connector-curvature="0"
       style="color:#000000;display:inline;overflow:visible;visibility:visible;fill:#f57900;fill-opacity:1;fill-rule:evenodd;stroke:none;stroke-width:12;marker:none;enable-background:new"
       d="m 269.47143,688.53202 c 15.60191,15.62474 19.16908,37.38511 19.16908,37.38511 0,0 -21.72851,-3.5724 -37.33043,-19.19718 -15.60192,-15.62478 -19.16908,-37.38512 -19.16908,-37.38512 0,0 21.72851,3.57241 37.33043,19.19719 z"
       id="path4159"
       sodipodi:nodetypes="csssc" /></clipPath></defs><sodipodi:namedview
   pagecolor="#ffffff"
   bordercolor="#666666"
   borderopacity="1"
   objecttolerance="10"
   gridtolerance="10"
   guidetolerance="10"
   inkscape:pageopacity="0"
   inkscape:pageshadow="2"
   inkscape:window-width="1366"
   inkscape:window-height="690"
   id="namedview37"
   showgrid="false"
   showguides="true"
   inkscape:guide-bbox="true"
   inkscape:zoom="10.145833"
   inkscape:cx="25.545472"
   inkscape:cy="23.516532"
   inkscape:window-x="0"
   inkscape:window-y="28"
   inkscape:window-maximized="1"
   inkscape:current-layer="Capa_1" />
<path
   style="fill:#00aa88;stroke-width:0.0924025"
   d="M 23.712891 0.49414062 C 17.87943 0.49414062 13.190692 1.6145182 9.7773438 3.8261719 C 5.6761507 6.4835756 3.5078125 10.727685 3.5078125 16.097656 C 3.5078125 23.324362 9.314078 32.983146 11.09375 35.771484 C 13.125497 38.954565 15.343857 41.851266 17.339844 43.927734 C 19.882206 46.572017 21.907994 47.802734 23.712891 47.802734 C 25.517882 47.802734 27.5419 46.572109 30.083984 43.927734 C 32.079878 41.851358 34.298332 38.954657 36.330078 35.771484 C 38.10975 32.983238 43.916016 23.324362 43.916016 16.097656 C 43.916116 10.727777 41.749811 6.4836678 37.648438 3.8261719 C 34.235274 1.6145182 29.546261 0.49414062 23.712891 0.49414062 z M 17.669922 5.1503906 C 17.794635 5.150391 17.889915 5.2714485 17.859375 5.3925781 C 17.854945 5.4105831 17.847497 5.4276375 17.841797 5.4453125 C 17.811817 5.5382099 17.783389 5.6309104 17.755859 5.7246094 C 17.638312 6.1250913 17.537309 6.5315243 17.449219 6.9394531 C 17.34105 7.440515 17.253449 7.9458624 17.193359 8.4550781 C 17.639182 8.5534901 18.06802 8.6957771 18.476562 8.8769531 C 18.949016 8.5029124 19.474838 8.1902161 20.042969 7.9902344 C 20.465414 7.8415322 20.91063 7.7592562 21.359375 7.7695312 C 21.869109 7.7812201 22.36942 7.9157932 22.822266 8.1484375 C 23.065468 8.2733377 23.295551 8.4240743 23.509766 8.59375 C 23.606528 8.6703398 23.725109 8.7552746 23.673828 8.8964844 C 23.657008 8.9430981 23.623271 8.9764071 23.582031 9.0019531 C 23.445395 9.0864611 23.312507 9.175178 23.179688 9.265625 C 22.508621 9.7225712 21.866298 10.226961 21.267578 10.775391 C 21.211915 10.826294 21.156423 10.877887 21.101562 10.929688 C 21.374599 11.280067 21.615105 11.656583 21.816406 12.056641 C 22.258553 12.068424 22.700758 12.123452 23.128906 12.232422 C 23.758639 12.392624 24.360395 12.678187 24.837891 13.125 C 25.241567 13.502776 25.519149 13.977561 25.703125 14.490234 C 25.903593 13.968334 26.161345 13.471299 26.505859 13.03125 C 26.566281 12.954126 26.628369 12.877828 26.693359 12.804688 C 27.115845 12.329633 27.64084 11.953719 28.230469 11.714844 C 28.819687 11.476083 29.458098 11.376953 30.091797 11.376953 C 30.246872 11.376953 30.364152 11.527119 30.326172 11.677734 C 30.320662 11.700124 30.311688 11.722161 30.304688 11.744141 C 30.267419 11.859653 30.233449 11.97529 30.199219 12.091797 C 30.053057 12.589767 29.92594 13.094333 29.816406 13.601562 C 29.681907 14.224596 29.572767 14.853156 29.498047 15.486328 C 30.052395 15.608696 30.587712 15.784488 31.095703 16.009766 C 31.683163 15.544674 32.334587 15.156866 33.041016 14.908203 C 33.566296 14.723302 34.121707 14.620033 34.679688 14.632812 C 35.313505 14.647348 35.934967 14.816193 36.498047 15.105469 C 36.800451 15.260773 37.085201 15.447224 37.351562 15.658203 C 37.471881 15.753437 37.620401 15.859633 37.556641 16.035156 C 37.535719 16.093116 37.494639 16.134256 37.443359 16.166016 C 37.273462 16.271096 37.106556 16.383631 36.941406 16.496094 C 36.106983 17.064273 35.308917 17.689162 34.564453 18.371094 C 34.49524 18.434388 34.427595 18.49809 34.359375 18.5625 C 34.698876 18.998173 34.995791 19.467402 35.246094 19.964844 C 35.795871 19.979496 36.344582 20.048098 36.876953 20.183594 C 37.659979 20.382793 38.410176 20.739343 39.003906 21.294922 C 39.733719 21.977909 40.153989 22.906311 40.326172 23.880859 L 40.326172 23.882812 C 40.358112 24.064087 40.195502 24.184356 40.029297 24.160156 C 39.948011 24.148556 39.864723 24.138706 39.783203 24.128906 C 39.397931 24.082311 39.012322 24.049651 38.625 24.025391 C 37.903334 23.980091 37.177682 23.967747 36.455078 23.998047 C 36.350233 24.002457 36.247306 24.007472 36.142578 24.013672 C 36.125934 24.581499 36.053168 25.137101 35.929688 25.671875 C 36.534728 26.209227 37.067094 26.83476 37.441406 27.552734 C 37.71691 28.080886 37.900929 28.658768 37.949219 29.253906 C 38.004777 29.940467 37.875774 30.628976 37.613281 31.263672 C 37.542427 31.435151 37.46291 31.602175 37.375 31.765625 C 37.304673 31.896491 37.234879 32.059475 37.058594 32.046875 C 36.957207 32.039666 36.899841 31.972157 36.837891 31.904297 C 36.657738 31.706153 36.472616 31.513456 36.283203 31.324219 C 35.578357 30.619666 34.824768 29.957637 34.025391 29.361328 C 33.649145 29.787916 33.231418 30.177646 32.777344 30.521484 C 32.869944 31.175871 32.883713 31.841258 32.789062 32.492188 C 32.699865 33.106372 32.506606 33.709719 32.1875 34.244141 C 31.905667 34.716325 31.528583 35.125503 31.085938 35.451172 C 30.853214 35.622534 30.60343 35.769428 30.34375 35.896484 C 30.207083 35.963353 30.067489 36.024578 29.925781 36.080078 C 29.850356 36.109738 29.768527 36.154637 29.685547 36.148438 C 29.61311 36.143045 29.545226 36.102629 29.503906 36.042969 C 29.454836 35.971998 29.460531 35.888391 29.457031 35.806641 C 29.452111 35.689547 29.4452 35.572055 29.4375 35.455078 C 29.368932 34.418116 29.22686 33.384537 29.005859 32.369141 C 28.989269 32.293013 28.970765 32.216635 28.953125 32.140625 C 28.534625 32.204385 28.106005 32.236328 27.669922 32.236328 C 27.508289 32.236328 27.348801 32.231656 27.189453 32.222656 C 26.852589 32.749635 26.457925 33.243726 25.992188 33.662109 C 25.557805 34.052304 25.059874 34.374176 24.513672 34.583984 C 23.987747 34.785996 23.424174 34.878126 22.861328 34.853516 C 22.500905 34.837575 22.142921 34.776291 21.794922 34.681641 C 21.699688 34.655691 21.605489 34.628546 21.511719 34.597656 C 21.435766 34.572576 21.345227 34.553149 21.279297 34.505859 C 21.167537 34.425863 21.145079 34.26338 21.230469 34.15625 C 21.33842 34.020578 21.441112 33.880477 21.542969 33.740234 C 22.142736 32.915423 22.687992 32.047405 23.162109 31.144531 C 23.189879 31.091669 23.216891 31.039428 23.244141 30.986328 C 22.731227 30.670914 22.253581 30.302602 21.820312 29.888672 C 21.035529 30.131586 20.211021 30.256756 19.394531 30.191406 C 18.86427 30.148859 18.342302 30.020514 17.861328 29.791016 C 17.387797 29.565151 16.964563 29.244958 16.607422 28.861328 C 16.416075 28.655799 16.243078 28.433113 16.087891 28.199219 C 16.045634 28.135515 16.004584 28.069196 15.964844 28.003906 C 15.927981 27.943425 15.878051 27.880817 15.863281 27.810547 C 15.835912 27.67933 15.92429 27.549868 16.054688 27.523438 C 16.226752 27.488687 16.398052 27.446787 16.568359 27.404297 C 17.55709 27.157744 18.529931 26.842108 19.472656 26.455078 C 19.520184 26.435618 19.567944 26.416354 19.615234 26.396484 C 19.429924 25.830884 19.302414 25.239515 19.240234 24.628906 C 19.041375 24.545016 18.853207 24.438141 18.662109 24.337891 C 18.596859 24.393955 18.540113 24.458696 18.470703 24.509766 C 18.283541 24.647581 18.08189 24.766958 17.873047 24.869141 C 17.763135 24.922918 17.651074 24.972948 17.537109 25.017578 C 17.47645 25.041428 17.41049 25.075212 17.34375 25.070312 C 17.285496 25.065983 17.230496 25.036261 17.197266 24.988281 C 17.157856 24.931204 17.162956 24.862625 17.160156 24.796875 C 17.156196 24.702705 17.150731 24.607752 17.144531 24.513672 C 17.112426 24.028136 17.053719 23.546086 16.980469 23.064453 C 16.766758 22.822144 16.573447 22.563293 16.417969 22.279297 C 16.348352 22.152094 16.285629 22.02016 16.230469 21.886719 C 16.061242 21.899359 15.895045 21.925781 15.722656 21.925781 C 15.592665 21.925781 15.46409 21.921363 15.335938 21.914062 C 15.065021 22.337876 14.747606 22.73579 14.373047 23.072266 C 14.023704 23.386072 13.624819 23.64572 13.185547 23.814453 C 12.762583 23.976917 12.308126 24.049097 11.855469 24.029297 C 11.565606 24.016477 11.277918 23.968698 10.998047 23.892578 C 10.921457 23.871698 10.844941 23.849059 10.769531 23.824219 C 10.708447 23.804049 10.635051 23.78804 10.582031 23.75 C 10.492151 23.685665 10.476252 23.556863 10.544922 23.470703 C 10.631739 23.361592 10.714955 23.249506 10.796875 23.136719 C 11.279225 22.473381 11.716357 21.774946 12.097656 21.048828 C 12.119996 21.006312 12.142143 20.962622 12.164062 20.919922 C 11.751561 20.666257 11.366026 20.370003 11.017578 20.037109 C 10.386431 20.23247 9.7250044 20.3338 9.0683594 20.28125 C 8.6419074 20.247032 8.2207974 20.143554 7.8339844 19.958984 C 7.4531564 19.777337 7.1133959 19.519465 6.8261719 19.210938 C 6.6722859 19.045644 6.5330091 18.865839 6.4082031 18.677734 C 6.3742231 18.626502 6.3405537 18.575948 6.3085938 18.523438 C 6.2789438 18.474797 6.2403956 18.421744 6.2285156 18.365234 C 6.2065046 18.259706 6.2759904 18.156026 6.3808594 18.134766 C 6.5192394 18.106816 6.6579559 18.073232 6.7949219 18.039062 C 7.5900889 17.840778 8.3726914 17.586652 9.1308594 17.275391 C 9.1690844 17.259761 9.2080537 17.244496 9.2460938 17.228516 C 9.0970617 16.773644 8.9933694 16.29771 8.9433594 15.806641 C 8.4340014 15.591765 7.9492439 15.313471 7.5292969 14.955078 C 7.1865049 14.662482 6.8907301 14.314162 6.6738281 13.917969 C 6.4354811 13.482468 6.3027975 12.996935 6.2734375 12.501953 C 6.2576975 12.236929 6.2695275 11.970075 6.3046875 11.707031 C 6.3200055 11.59283 6.3178636 11.437527 6.4316406 11.373047 C 6.4945146 11.337477 6.5666963 11.34149 6.6289062 11.375 C 6.7823693 11.457717 6.9384701 11.535968 7.0957031 11.611328 C 7.8459521 11.970852 8.6225188 12.279011 9.4179688 12.523438 C 9.6005107 12.080065 9.8280861 11.660398 10.095703 11.269531 C 9.9643461 11.014075 9.8502194 10.749829 9.7558594 10.480469 C 9.4307454 9.5517294 9.3703674 8.5219684 9.7871094 7.6113281 C 9.9952454 7.15655 10.307565 6.7563777 10.673828 6.4179688 C 10.762295 6.3362417 10.871014 6.2005724 11.005859 6.2246094 C 11.077552 6.2373822 11.1299 6.2874366 11.15625 6.3535156 C 11.18481 6.4252978 11.213691 6.4954253 11.244141 6.5664062 C 11.616768 7.4334963 12.064499 8.2736699 12.580078 9.0644531 C 12.988101 8.8514158 13.420134 8.6783209 13.871094 8.5507812 C 14.03026 7.8052921 14.317435 7.0802258 14.787109 6.4804688 C 14.835702 6.4184427 14.88523 6.3576491 14.9375 6.2988281 C 15.277276 5.9167749 15.699632 5.6139856 16.173828 5.421875 C 16.647695 5.2298586 17.160282 5.1503906 17.669922 5.1503906 z M 15.730469 11.400391 C 13.681493 11.400391 12.019531 13.062399 12.019531 15.111328 C 12.019531 17.16021 13.681493 18.820312 15.730469 18.820312 C 17.779445 18.820313 19.439453 17.160162 19.439453 15.111328 C 19.439453 13.062446 17.779445 11.400391 15.730469 11.400391 z M 25.886719 15.132812 C 25.890919 15.157132 25.896041 15.181731 25.900391 15.207031 C 25.899543 15.202231 25.894359 15.176182 25.886719 15.132812 z M 23.207031 15.306641 C 23.388641 15.621354 23.56362 15.940301 23.761719 16.244141 C 24.269065 15.979245 24.806451 15.764055 25.367188 15.605469 C 25.381798 15.537029 25.403552 15.470464 25.419922 15.402344 C 25.124884 15.367614 24.829685 15.340836 24.533203 15.322266 C 24.091905 15.294556 23.649236 15.300041 23.207031 15.306641 z M 27.677734 19.150391 C 25.129984 19.150391 23.064453 21.214028 23.064453 23.761719 C 23.064453 26.309352 25.129984 28.375 27.677734 28.375 C 30.225484 28.375 32.291016 26.309293 32.291016 23.761719 C 32.291016 21.214086 30.225484 19.150391 27.677734 19.150391 z "
   id="path2" />

<g
   id="g6"
   transform="translate(0,-464)">
</g>
<g
   id="g8"
   transform="translate(0,-464)">
</g>
<g
   id="g10"
   transform="translate(0,-464)">
</g>
<g
   id="g12"
   transform="translate(0,-464)">
</g>
<g
   id="g14"
   transform="translate(0,-464)">
</g>
<g
   id="g16"
   transform="translate(0,-464)">
</g>
<g
   id="g18"
   transform="translate(0,-464)">
</g>
<g
   id="g20"
   transform="translate(0,-464)">
</g>
<g
   id="g22"
   transform="translate(0,-464)">
</g>
<g
   id="g24"
   transform="translate(0,-464)">
</g>
<g
   id="g26"
   transform="translate(0,-464)">
</g>
<g
   id="g28"
   transform="translate(0,-464)">
</g>
<g
   id="g30"
   transform="translate(0,-464)">
</g>
<g
   id="g32"
   transform="translate(0,-464)">
</g>
<g
   id="g34"
   transform="translate(0,-464)">
</g>


</svg>