<?xml version="1.0" encoding="UTF-8" standalone="no"?>
<!-- Generator: Adobe Illustrator 19.0.0, SVG Export Plug-In . SVG Version: 6.00 Build 0)  -->

<svg
   xmlns:dc="http://purl.org/dc/elements/1.1/"
   xmlns:cc="http://creativecommons.org/ns#"
   xmlns:rdf="http://www.w3.org/1999/02/22-rdf-syntax-ns#"
   xmlns:svg="http://www.w3.org/2000/svg"
   xmlns="http://www.w3.org/2000/svg"
   xmlns:xlink="http://www.w3.org/1999/xlink"
   xmlns:sodipodi="http://sodipodi.sourceforge.net/DTD/sodipodi-0.dtd"
   xmlns:inkscape="http://www.inkscape.org/namespaces/inkscape"
   version="1.1"
   id="Capa_1"
   x="0px"
   y="0px"
   viewBox="0 0 48 48"
   xml:space="preserve"
   sodipodi:docname="tangerine-properties.svg"
   width="48"
   height="48"
   inkscape:version="0.92.3 (2405546, 2018-03-11)"><metadata
   id="metadata41"><rdf:RDF><cc:Work
       rdf:about=""><dc:format>image/svg+xml</dc:format><dc:type
         rdf:resource="http://purl.org/dc/dcmitype/StillImage" /><dc:title /></cc:Work></rdf:RDF></metadata><defs
   id="defs39"><mask
     id="mask4483"><rect
       width="50"
       height="27"
       x="-1"
       y="17"
       id="rect4485"
       style="fill:url(#linearGradient4487);fill-opacity:1;stroke:none" /></mask><linearGradient
     x1="-1"
     y1="30"
     x2="49"
     y2="30"
     id="linearGradient4487"
     xlink:href="#linearGradient4433"
     gradientUnits="userSpaceOnUse" /><linearGradient
     id="linearGradient4433"><stop
       id="stop4435"
       style="stop-color:black;stop-opacity:1"
       offset="0" /><stop
       id="stop4437"
       style="stop-color:black;stop-opacity:1"
       offset="0.02977399" /><stop
       id="stop4439"
       style="stop-color:white;stop-opacity:1"
       offset="0.10122953" /><stop
       id="stop4441"
       style="stop-color:white;stop-opacity:1"
       offset="0.89621317" /><stop
       id="stop4443"
       style="stop-color:black;stop-opacity:1"
       offset="0.96931982" /><stop
       id="stop4445"
       style="stop-color:black;stop-opacity:1"
       offset="1" /></linearGradient><mask
     id="mask4489"><rect
       width="50"
       height="27"
       x="-1"
       y="17"
       id="rect4491"
       style="fill:url(#linearGradient4487);fill-opacity:1;stroke:none" /></mask><linearGradient
     id="linearGradient2264"><stop
       id="stop2266"
       offset="0"
       style="stop-color:#d7e866;stop-opacity:1;" /><stop
       id="stop2268"
       offset="1"
       style="stop-color:#8cab2a;stop-opacity:1;" /></linearGradient><linearGradient
     id="linearGradient3242-817-801"><stop
       id="stop3676"
       style="stop-color:#ffed8c;stop-opacity:1"
       offset="0" /><stop
       id="stop3678"
       style="stop-color:#fb9858;stop-opacity:1"
       offset="0.26238" /><stop
       id="stop3680"
       style="stop-color:#dc572a;stop-opacity:1"
       offset="0.66093999" /><stop
       id="stop3682"
       style="stop-color:#750c3d;stop-opacity:1"
       offset="1" /></linearGradient></defs><sodipodi:namedview
   pagecolor="#ffffff"
   bordercolor="#666666"
   borderopacity="1"
   objecttolerance="10"
   gridtolerance="10"
   guidetolerance="10"
   inkscape:pageopacity="0"
   inkscape:pageshadow="2"
   inkscape:window-width="1366"
   inkscape:window-height="690"
   id="namedview37"
   showgrid="false"
   showguides="true"
   inkscape:guide-bbox="true"
   inkscape:zoom="5.0729167"
   inkscape:cx="-25.287681"
   inkscape:cy="24.255598"
   inkscape:window-x="0"
   inkscape:window-y="28"
   inkscape:window-maximized="1"
   inkscape:current-layer="Capa_1" />
<path
   style="fill:#aa4400;fill-opacity:1;stroke-width:0.0924025"
   d="m 23.712891,0.49414062 c -5.833461,0 -10.522199,1.12037758 -13.935547,3.33203128 -4.101193,2.6574037 -6.269531,6.9015131 -6.269531,12.2714841 0,7.226706 5.806265,16.88549 7.585937,19.673828 2.031747,3.183081 4.250107,6.079782 6.246094,8.15625 2.542362,2.644283 4.56815,3.875 6.373047,3.875 1.804991,0 3.829009,-1.230625 6.371093,-3.875 1.995894,-2.076376 4.214348,-4.973077 6.246094,-8.15625 C 38.10975,32.983238 43.916016,23.324362 43.916016,16.097656 43.916108,10.727777 41.749814,6.4836678 37.648438,3.8261719 34.235274,1.6145182 29.546261,0.49414062 23.712891,0.49414062 Z M 21.453125,9.5566406 c 7.021704,0 12.726563,5.4107044 12.726563,12.0722654 5e-6,6.661561 -5.704859,12.074219 -12.726563,12.074219 -7.021707,2e-6 -12.726563,-5.412658 -12.726563,-12.074219 0,-6.661561 5.704856,-12.0722654 12.726563,-12.0722654 z m 4.888672,3.5566404 c -2.69352,0.429581 -5.790531,0.872599 -8.476563,1.326172 -0.711276,0.343465 -0.550561,1.227406 -0.582031,1.869141 v 8.591797 c -1.828029,-0.418492 -3.834782,0.945806 -3.914062,2.886718 -0.129416,1.20837 0.953538,2.260773 2.130859,2.289063 2.107942,0.05064 3.709562,-1.333495 3.732422,-3.083984 -0.02302,-2.939848 0.0065,-5.880015 0,-8.820313 0.326335,-0.02392 5.428561,-0.957381 5.873047,-1.019531 v 6.605468 c -1.686105,-0.496721 -3.369922,0.541219 -3.785157,2.28125 -0.307237,1.007985 0.154356,2.200306 1.154297,2.613282 1.952044,0.887738 4.698789,-0.911065 4.589844,-3.021485 -0.03023,-3.920131 0.02478,-7.841168 0,-11.761718 -0.05127,-0.368423 -0.303939,-0.78245 -0.722656,-0.75586 z"
   id="path2"
   inkscape:connector-curvature="0" />

<g
   id="g6"
   transform="translate(0,-464)">
</g>
<g
   id="g8"
   transform="translate(0,-464)">
</g>
<g
   id="g10"
   transform="translate(0,-464)">
</g>
<g
   id="g12"
   transform="translate(0,-464)">
</g>
<g
   id="g14"
   transform="translate(0,-464)">
</g>
<g
   id="g16"
   transform="translate(0,-464)">
</g>
<g
   id="g18"
   transform="translate(0,-464)">
</g>
<g
   id="g20"
   transform="translate(0,-464)">
</g>
<g
   id="g22"
   transform="translate(0,-464)">
</g>
<g
   id="g24"
   transform="translate(0,-464)">
</g>
<g
   id="g26"
   transform="translate(0,-464)">
</g>
<g
   id="g28"
   transform="translate(0,-464)">
</g>
<g
   id="g30"
   transform="translate(0,-464)">
</g>
<g
   id="g32"
   transform="translate(0,-464)">
</g>
<g
   id="g34"
   transform="translate(0,-464)">
</g>
<path
   style="opacity:0.46000001;fill:#00ff00;fill-opacity:1;fill-rule:evenodd;stroke:none;stroke-width:0.65267015px;stroke-linecap:butt;stroke-linejoin:miter;stroke-opacity:1"
   d="m 23.021705,10.162233 c 0,0 3.1693,-4.8453505 11.095395,-4.5063505 0,0 -3.419895,5.0812485 -11.095395,4.5063505 z"
   id="path3826"
   inkscape:transform-center-x="-5.7704152"
   inkscape:transform-center-y="-2.6082247"
   inkscape:connector-curvature="0" /></svg>