<?xml version="1.0" encoding="UTF-8" standalone="no"?>
<!-- Generator: Adobe Illustrator 19.0.0, SVG Export Plug-In . SVG Version: 6.00 Build 0)  -->

<svg
   xmlns:dc="http://purl.org/dc/elements/1.1/"
   xmlns:cc="http://creativecommons.org/ns#"
   xmlns:rdf="http://www.w3.org/1999/02/22-rdf-syntax-ns#"
   xmlns:svg="http://www.w3.org/2000/svg"
   xmlns="http://www.w3.org/2000/svg"
   xmlns:sodipodi="http://sodipodi.sourceforge.net/DTD/sodipodi-0.dtd"
   xmlns:inkscape="http://www.inkscape.org/namespaces/inkscape"
   version="1.1"
   id="Capa_1"
   x="0px"
   y="0px"
   viewBox="0 0 48 48"
   xml:space="preserve"
   sodipodi:docname="wesnoth.svg"
   width="48"
   height="48"
   inkscape:version="0.92.3 (2405546, 2018-03-11)"><metadata
   id="metadata41"><rdf:RDF><cc:Work
       rdf:about=""><dc:format>image/svg+xml</dc:format><dc:type
         rdf:resource="http://purl.org/dc/dcmitype/StillImage" /><dc:title /></cc:Work></rdf:RDF></metadata><defs
   id="defs39" /><sodipodi:namedview
   pagecolor="#ffffff"
   bordercolor="#666666"
   borderopacity="1"
   objecttolerance="10"
   gridtolerance="10"
   guidetolerance="10"
   inkscape:pageopacity="0"
   inkscape:pageshadow="2"
   inkscape:window-width="1366"
   inkscape:window-height="690"
   id="namedview37"
   showgrid="false"
   showguides="true"
   inkscape:guide-bbox="true"
   inkscape:zoom="7.5277407"
   inkscape:cx="21.867361"
   inkscape:cy="22.80503"
   inkscape:window-x="0"
   inkscape:window-y="28"
   inkscape:window-maximized="1"
   inkscape:current-layer="Capa_1" />
<path
   style="fill:#784421;stroke-width:0.0924025"
   d="M 23.712891 0.49414062 C 17.87943 0.49414062 13.190692 1.6145182 9.7773438 3.8261719 C 5.6761507 6.4835756 3.5078125 10.727685 3.5078125 16.097656 C 3.5078125 23.324362 9.3140783 32.983146 11.09375 35.771484 C 13.125497 38.954565 15.343857 41.851266 17.339844 43.927734 C 19.882206 46.572017 21.907994 47.802734 23.712891 47.802734 C 25.517882 47.802734 27.5419 46.572109 30.083984 43.927734 C 32.079878 41.851358 34.298332 38.954657 36.330078 35.771484 C 38.10975 32.983238 43.916016 23.324362 43.916016 16.097656 C 43.916108 10.727777 41.749814 6.4836678 37.648438 3.8261719 C 34.235274 1.6145182 29.546261 0.49414062 23.712891 0.49414062 z M 12.324219 7.3710938 C 12.806185 7.3710938 13.28739 7.5549687 13.654297 7.921875 C 14.00982 8.2773469 14.205078 8.7511556 14.205078 9.2539062 C 14.205078 9.3389284 14.19855 9.4229534 14.1875 9.5058594 L 16.699219 10.134766 L 17.308594 10.988281 L 18.169922 10.126953 L 19.269531 11.224609 L 18.3125 12.181641 L 19.941406 13.789062 C 21.022018 13.442934 22.292893 13.179688 23.658203 13.179688 C 25.033424 13.179688 26.31071 13.445025 27.396484 13.794922 L 29.005859 12.185547 L 28.046875 11.224609 L 29.144531 10.126953 L 30.005859 10.988281 L 30.615234 10.134766 L 33.126953 9.5058594 C 33.115863 9.4229538 33.109375 9.3389283 33.109375 9.2539062 C 33.109375 8.7511556 33.304632 8.2773986 33.660156 7.921875 C 34.393968 7.1881656 35.58835 7.1881139 36.322266 7.921875 C 37.056079 8.655791 37.055866 9.8502747 36.322266 10.583984 C 35.966742 10.939508 35.494886 11.134766 34.992188 11.134766 C 34.907165 11.134766 34.823144 11.128237 34.740234 11.117188 L 34.111328 13.628906 L 33.257812 14.238281 L 34.117188 15.099609 L 33.019531 16.199219 L 32.058594 15.238281 L 31.175781 16.121094 C 31.171342 18.667215 30.804427 21.06657 30.083984 23.251953 C 30.0399 23.385655 29.993986 23.518238 29.947266 23.650391 L 36.074219 29.691406 L 35.769531 32.441406 L 33.025391 32.746094 L 27.925781 27.720703 C 27.83952 27.850482 27.753522 27.978427 27.664062 28.105469 C 25.90668 30.601 24.138843 31.702417 24.064453 31.748047 L 23.658203 31.996094 L 23.251953 31.748047 C 23.177565 31.702413 21.409726 30.601 19.652344 28.105469 C 19.588797 28.015285 19.524791 27.925564 19.462891 27.833984 L 14.421875 32.875 L 11.673828 32.570312 L 11.369141 29.824219 L 17.414062 23.777344 C 17.351187 23.603273 17.290702 23.428812 17.232422 23.251953 C 16.51007 21.060736 16.141172 18.655324 16.138672 16.101562 L 15.259766 15.234375 L 14.294922 16.199219 L 13.197266 15.099609 L 14.058594 14.238281 L 13.205078 13.628906 L 12.574219 11.117188 C 12.491314 11.128277 12.407286 11.134766 12.322266 11.134766 C 11.819567 11.134766 11.34766 10.939507 10.992188 10.583984 C 10.258426 9.8501714 10.258427 8.6557393 10.992188 7.921875 C 11.359119 7.5549687 11.842252 7.3710938 12.324219 7.3710938 z M 12.324219 8.9257812 C 12.240126 8.9257812 12.155757 8.9575244 12.091797 9.0214844 C 11.963876 9.1494047 11.963876 9.3564546 12.091797 9.484375 C 12.175425 9.568003 12.273419 9.5819796 12.324219 9.5820312 C 12.375015 9.5820312 12.471058 9.568003 12.554688 9.484375 C 12.638318 9.4007467 12.652344 9.3047032 12.652344 9.2539062 C 12.652344 9.2031098 12.638317 9.1051124 12.554688 9.0214844 C 12.490677 8.9575234 12.408259 8.9257812 12.324219 8.9257812 z M 34.992188 8.9257812 C 34.908199 8.9257812 34.823726 8.9575754 34.759766 9.0214844 C 34.676186 9.1051644 34.664062 9.2031093 34.664062 9.2539062 C 34.664062 9.3047028 34.676136 9.400747 34.759766 9.484375 C 34.843342 9.568003 34.941387 9.5820312 34.992188 9.5820312 C 35.042984 9.5820312 35.139026 9.568055 35.222656 9.484375 C 35.350473 9.3565058 35.350473 9.149508 35.222656 9.0214844 C 35.158644 8.9575244 35.076178 8.9257812 34.992188 8.9257812 z M 14.173828 11.103516 L 14.572266 12.697266 L 15.171875 13.125 L 16.195312 12.101562 L 15.765625 11.501953 L 14.173828 11.103516 z M 33.140625 11.103516 L 31.548828 11.501953 L 31.121094 12.101562 L 32.142578 13.125 L 32.742188 12.697266 L 33.140625 11.103516 z M 17.212891 13.28125 L 16.359375 14.134766 L 17.214844 14.980469 C 17.515648 14.810528 17.899299 14.60775 18.351562 14.402344 L 17.212891 13.28125 z M 30.105469 13.285156 L 28.978516 14.410156 C 29.430006 14.615975 29.814232 14.816955 30.113281 14.986328 L 30.958984 14.138672 L 30.105469 13.285156 z M 22.880859 14.767578 C 20.47861 14.968802 18.466543 16.03834 17.697266 16.5 C 17.735312 18.739225 18.073933 20.84522 18.707031 22.765625 C 19.242149 24.388841 19.98751 25.884138 20.921875 27.210938 C 21.624095 28.208025 22.322098 28.952766 22.880859 29.472656 L 22.880859 25.861328 C 22.801051 25.748533 22.722524 25.634546 22.646484 25.519531 C 21.328822 23.527422 20.505684 21.166195 20.203125 18.5 L 20.134766 17.894531 L 20.705078 17.683594 C 21.449061 17.407208 22.17833 17.230287 22.880859 17.154297 L 22.880859 14.767578 z M 24.433594 14.767578 L 24.433594 17.154297 C 25.13251 17.231059 25.862089 17.409978 26.609375 17.6875 L 27.179688 17.898438 L 27.111328 18.503906 C 26.808459 21.168552 25.987068 23.528197 24.669922 25.519531 C 24.593676 25.634804 24.513194 25.748791 24.433594 25.861328 L 24.433594 29.470703 C 25.036027 28.906883 25.755043 28.127267 26.439453 27.144531 C 27.3621 25.819642 28.097677 24.327338 28.625 22.710938 C 29.246689 20.805245 29.579557 18.718267 29.617188 16.5 C 28.84791 16.038392 26.835843 14.968751 24.433594 14.767578 z M 23.658203 18.666016 C 23.081013 18.666016 22.467925 18.758595 21.830078 18.945312 C 22.124688 20.913728 22.738395 22.680436 23.658203 24.210938 C 24.577547 22.681313 25.189508 20.916343 25.484375 18.949219 C 24.842657 18.760439 24.231212 18.666016 23.658203 18.666016 z M 29.316406 25.212891 C 29.139547 25.600988 28.950863 25.978857 28.75 26.349609 L 33.589844 31.121094 L 34.361328 31.035156 L 34.447266 30.269531 L 29.316406 25.212891 z M 18.054688 25.335938 L 12.996094 30.394531 L 13.082031 31.164062 L 13.849609 31.248047 L 18.628906 26.46875 C 18.425255 26.099495 18.234334 25.722693 18.054688 25.335938 z "
   id="path2" />

<g
   id="g6"
   transform="translate(0,-464)">
</g>
<g
   id="g8"
   transform="translate(0,-464)">
</g>
<g
   id="g10"
   transform="translate(0,-464)">
</g>
<g
   id="g12"
   transform="translate(0,-464)">
</g>
<g
   id="g14"
   transform="translate(0,-464)">
</g>
<g
   id="g16"
   transform="translate(0,-464)">
</g>
<g
   id="g18"
   transform="translate(0,-464)">
</g>
<g
   id="g20"
   transform="translate(0,-464)">
</g>
<g
   id="g22"
   transform="translate(0,-464)">
</g>
<g
   id="g24"
   transform="translate(0,-464)">
</g>
<g
   id="g26"
   transform="translate(0,-464)">
</g>
<g
   id="g28"
   transform="translate(0,-464)">
</g>
<g
   id="g30"
   transform="translate(0,-464)">
</g>
<g
   id="g32"
   transform="translate(0,-464)">
</g>
<g
   id="g34"
   transform="translate(0,-464)">
</g>
</svg>