<?xml version="1.0" encoding="UTF-8" standalone="no"?>
<svg
   xmlns:dc="http://purl.org/dc/elements/1.1/"
   xmlns:cc="http://creativecommons.org/ns#"
   xmlns:rdf="http://www.w3.org/1999/02/22-rdf-syntax-ns#"
   xmlns:svg="http://www.w3.org/2000/svg"
   xmlns="http://www.w3.org/2000/svg"
   xmlns:xlink="http://www.w3.org/1999/xlink"
   xmlns:sodipodi="http://sodipodi.sourceforge.net/DTD/sodipodi-0.dtd"
   xmlns:inkscape="http://www.inkscape.org/namespaces/inkscape"
   width="48"
   height="48"
   version="1"
   id="svg59"
   sodipodi:docname="application-msword.svg"
   inkscape:version="0.92.4 (5da689c313, 2019-01-14)">
  <metadata
     id="metadata63">
    <rdf:RDF>
      <cc:Work
         rdf:about="">
        <dc:format>image/svg+xml</dc:format>
        <dc:type
           rdf:resource="http://purl.org/dc/dcmitype/StillImage" />
        <dc:title></dc:title>
      </cc:Work>
    </rdf:RDF>
  </metadata>
  <sodipodi:namedview
     pagecolor="#ffffff"
     bordercolor="#666666"
     borderopacity="1"
     objecttolerance="10"
     gridtolerance="10"
     guidetolerance="10"
     inkscape:pageopacity="0"
     inkscape:pageshadow="2"
     inkscape:window-width="1112"
     inkscape:window-height="480"
     id="namedview61"
     showgrid="false"
     inkscape:zoom="4.9166667"
     inkscape:cx="2.1355932"
     inkscape:cy="24"
     inkscape:window-x="0"
     inkscape:window-y="25"
     inkscape:window-maximized="0"
     inkscape:current-layer="svg59" />
  <defs
     id="defs39">
    <linearGradient
       id="c">
      <stop
         offset="0"
         stop-color="#2c5aa0"
         id="stop2" />
      <stop
         offset=".2"
         stop-color="#3771c8"
         id="stop4" />
      <stop
         offset=".33"
         stop-color="#2c5aa0"
         id="stop6" />
      <stop
         offset=".44"
         stop-color="#3771c8"
         id="stop8" />
      <stop
         offset=".57"
         stop-color="#3771c8"
         id="stop10" />
      <stop
         offset=".76"
         stop-color="#5f8dd3"
         id="stop12" />
      <stop
         offset="1"
         stop-color="#3771c8"
         id="stop14" />
    </linearGradient>
    <linearGradient
       id="b">
      <stop
         offset="0"
         stop-color="#2c5aa0"
         id="stop17" />
      <stop
         offset=".2"
         stop-color="#3771c8"
         id="stop19" />
      <stop
         offset=".33"
         stop-color="#2c5aa0"
         id="stop21" />
      <stop
         offset=".44"
         stop-color="#3771c8"
         id="stop23" />
      <stop
         offset=".57"
         stop-color="#3771c8"
         id="stop25" />
      <stop
         offset=".76"
         stop-color="#5f8dd3"
         id="stop27" />
      <stop
         offset="1"
         stop-color="#2c5aa0"
         stop-opacity="0"
         id="stop29" />
    </linearGradient>
    <linearGradient
       xlink:href="#b"
       id="a"
       gradientUnits="userSpaceOnUse"
       gradientTransform="translate(-40)"
       x1="8.14"
       y1="13.51"
       x2="36.28"
       y2="35.97" />
    <linearGradient
       xlink:href="#c"
       id="d"
       x1="7.11"
       y1="24"
       x2="37.57"
       y2="10.74"
       gradientUnits="userSpaceOnUse" />
    <linearGradient
       id="e"
       x1="24.24"
       x2="24.24"
       y1="44.11"
       y2=".19"
       gradientTransform="matrix(0.70724,0,0,0.72143,6.86,2.5)"
       gradientUnits="userSpaceOnUse">
      <stop
         offset="0"
         stop-color="#214478"
         id="stop34" />
      <stop
         offset="1"
         stop-color="#2c5aa0"
         id="stop36" />
    </linearGradient>
  </defs>
  <path
     d="M 40.89,17.42 33.06,47.97 H 14.94 L 7.11,17.42 13.01,0.03 H 35 Z"
     id="path41"
     style="fill:url(#d)"
     inkscape:connector-curvature="0" />
  <path
     d="m 18.28,43.82 -3.34,4.15 h 18.12 l -3.34,-4.15 z"
     id="path43"
     inkscape:connector-curvature="0"
     style="fill:#162d50;fill-opacity:0.1" />
  <path
     d="m 29.72,43.82 3.34,4.15 7.83,-30.55 -4.44,0.16 z"
     id="path45"
     inkscape:connector-curvature="0"
     style="fill:#162d50;fill-opacity:0.47000002" />
  <path
     d="m 13.01,0.03 3.08,4.15 h 15.8 l 3.1,-4.15 z"
     id="path47"
     inkscape:connector-curvature="0"
     style="fill:#162d50;fill-opacity:0.35" />
  <path
     d="M 40.89,17.42 34.99,0.03 31.9,4.18 36.45,17.58 Z"
     id="path49"
     inkscape:connector-curvature="0"
     style="fill:#162d50;fill-opacity:0.70999995" />
  <path
     d="m 18.28,43.82 -3.34,4.15 -7.83,-30.55 4.44,0.16 z"
     id="path51"
     inkscape:connector-curvature="0"
     style="fill:#162d50;fill-opacity:0.47000002" />
  <path
     d="m 7.11,17.42 5.9,-17.39 3.09,4.15 -4.55,13.4 z"
     id="path53"
     inkscape:connector-curvature="0"
     style="fill:#162d50;fill-opacity:0.70999995" />
  <path
     d="m 30.3,28.22 h -3.72 c -0.68,-2.84 -1.41,-5.66 -2.06,-8.5 -0.2,-0.9 -0.42,-2.44 -0.54,-3 -0.4,3.08 -1.26,6.05 -1.96,9.06 l -0.6,2.44 H 17.71 L 14,12.52 h 3.21 c 0.86,4.3 1.83,8.6 2.51,12.95 0.29,-2.06 0.65,-4.1 1.18,-6.1 l 1.67,-6.86 h 2.86 c 0.73,3.03 1.49,6.05 2.2,9.1 0.25,1.27 0.46,2.57 0.66,3.86 0.64,-4.28 1.61,-8.5 2.45,-12.74 -0.02,-0.4 0.5,-0.15 0.75,-0.22 H 34 Z"
     id="path55"
     inkscape:connector-curvature="0"
     style="fill:#b7c4c8" />
  <path
     d="M 30.3,27.5 H 26.58 C 25.9,24.67 25.17,21.84 24.52,19 c -0.2,-0.9 -0.42,-2.43 -0.54,-2.99 -0.4,3.08 -1.26,6.05 -1.96,9.05 l -0.6,2.45 H 17.71 L 14,11.8 h 3.21 c 0.86,4.32 1.83,8.61 2.51,12.97 0.29,-2.06 0.65,-4.1 1.18,-6.1 l 1.67,-6.87 h 2.86 c 0.73,3.03 1.49,6.06 2.2,9.1 0.25,1.28 0.46,2.57 0.66,3.87 0.64,-4.28 1.61,-8.5 2.45,-12.74 -0.02,-0.4 0.5,-0.16 0.75,-0.23 H 34 l -3.7,15.72 z"
     id="path57"
     style="fill:url(#e)"
     inkscape:connector-curvature="0" />
</svg>
