<?xml version="1.0" encoding="UTF-8" standalone="no"?>
<svg
   xmlns:dc="http://purl.org/dc/elements/1.1/"
   xmlns:cc="http://creativecommons.org/ns#"
   xmlns:rdf="http://www.w3.org/1999/02/22-rdf-syntax-ns#"
   xmlns:svg="http://www.w3.org/2000/svg"
   xmlns="http://www.w3.org/2000/svg"
   xmlns:xlink="http://www.w3.org/1999/xlink"
   xmlns:sodipodi="http://sodipodi.sourceforge.net/DTD/sodipodi-0.dtd"
   xmlns:inkscape="http://www.inkscape.org/namespaces/inkscape"
   viewBox="0 0 48 48"
   version="1.1"
   id="svg40"
   sodipodi:docname="application-x-glade.svg"
   inkscape:version="0.92.4 (5da689c313, 2019-01-14)">
  <metadata
     id="metadata44">
    <rdf:RDF>
      <cc:Work
         rdf:about="">
        <dc:format>image/svg+xml</dc:format>
        <dc:type
           rdf:resource="http://purl.org/dc/dcmitype/StillImage" />
        <dc:title></dc:title>
      </cc:Work>
    </rdf:RDF>
  </metadata>
  <sodipodi:namedview
     pagecolor="#ffffff"
     bordercolor="#666666"
     borderopacity="1"
     objecttolerance="10"
     gridtolerance="10"
     guidetolerance="10"
     inkscape:pageopacity="0"
     inkscape:pageshadow="2"
     inkscape:window-width="1112"
     inkscape:window-height="480"
     id="namedview42"
     showgrid="false"
     inkscape:zoom="4.9166667"
     inkscape:cx="2.1355932"
     inkscape:cy="24"
     inkscape:window-x="0"
     inkscape:window-y="25"
     inkscape:window-maximized="0"
     inkscape:current-layer="svg40" />
  <defs
     id="defs22">
    <linearGradient
       id="b">
      <stop
         offset="0"
         id="stop2" />
      <stop
         offset="1"
         stop-opacity="0"
         id="stop4" />
    </linearGradient>
    <linearGradient
       xlink:href="#a"
       id="c"
       x1="34.32"
       y1="50.62"
       x2="9.85"
       y2="5.71"
       gradientUnits="userSpaceOnUse" />
    <linearGradient
       id="a">
      <stop
         offset="0"
         stop-color="#2d5016"
         id="stop8" />
      <stop
         offset=".22"
         stop-color="#447821"
         id="stop10" />
      <stop
         offset=".39"
         stop-color="#64b131"
         id="stop12" />
      <stop
         offset=".52"
         stop-color="#57992a"
         id="stop14" />
      <stop
         offset=".64"
         stop-color="#71c837"
         id="stop16" />
      <stop
         offset="1"
         stop-color="#447821"
         id="stop18" />
    </linearGradient>
    <linearGradient
       xlink:href="#b"
       id="d"
       gradientUnits="userSpaceOnUse"
       x1="9.76"
       y1="16.9"
       x2="42.77"
       y2="28.17" />
  </defs>
  <path
     d="M 40.89,17.42 33.06,47.97 H 14.94 L 7.11,17.42 13.01,0.03 H 35 Z"
     id="path24"
     style="fill:url(#c)"
     inkscape:connector-curvature="0" />
  <path
     d="M 29.989,42.802 34.88,23.96 17.12,6.22 l 0.12,1.66 0.19,2.65 0.74,11.65 -1.05,7.6 z"
     id="path26"
     style="opacity:0.54000005;fill:url(#d)"
     inkscape:connector-curvature="0" />
  <path
     d="m 18.28,43.82 -3.34,4.15 h 18.12 l -3.34,-4.15 z"
     id="path28"
     inkscape:connector-curvature="0"
     style="fill:#17280b;fill-opacity:0.1" />
  <path
     d="m 13.01,0.03 3.08,4.15 h 15.8 l 3.1,-4.15 z"
     id="path30"
     inkscape:connector-curvature="0"
     style="fill:#17280b;fill-opacity:0.35" />
  <path
     d="M 18.27,43.82 14.93,47.97 7.1,17.42 11.54,17.58 Z"
     id="path32"
     inkscape:connector-curvature="0"
     style="fill:#17280b;fill-opacity:0.47000002" />
  <path
     d="M 7.1,17.42 13,0.03 l 3.09,4.15 -4.55,13.4 z m 33.79,0 -5.9,-17.39 -3.09,4.15 4.55,13.4 z"
     id="path34"
     inkscape:connector-curvature="0"
     style="fill:#17280b;fill-opacity:0.70999995" />
  <path
     d="m 29.72,43.82 3.34,4.15 7.83,-30.55 -4.44,0.16 z"
     id="path36"
     inkscape:connector-curvature="0"
     style="fill:#17280b;fill-opacity:0.47000002" />
  <path
     style="line-height:normal;text-indent:0;text-align:start;text-decoration:none;text-decoration-line:none;text-transform:none;fill:#17280b;marker:none"
     d="m 17.12,6.21 v 23.58 h 13.76 l -0.78,-1.33 -0.68,0.4 -0.13,-0.23 0.68,-0.4 -0.4,-0.69 -0.68,0.4 -0.14,-0.22 0.69,-0.4 -0.4,-0.7 -1.38,0.8 -0.13,-0.22 1.37,-0.8 -0.4,-0.7 -0.69,0.4 -0.13,-0.22 0.69,-0.4 -0.4,-0.69 -0.7,0.4 -0.13,-0.22 0.7,-0.4 -0.4,-0.69 -1.38,0.8 -0.13,-0.23 1.37,-0.8 -0.4,-0.69 -0.68,0.4 -0.14,-0.22 0.68,-0.4 -0.4,-0.69 -0.68,0.4 -0.13,-0.23 0.68,-0.4 -0.4,-0.69 -1.37,0.8 -0.13,-0.22 1.37,-0.8 -0.4,-0.7 -0.69,0.4 -0.13,-0.22 0.68,-0.4 -0.4,-0.7 -0.68,0.4 -0.14,-0.22 0.69,-0.4 -0.4,-0.68 -1.37,0.79 -0.14,-0.23 1.37,-0.79 -0.46,-0.8 0.06,0.11 -0.68,0.4 -0.13,-0.23 0.68,-0.4 -0.4,-0.69 -0.69,0.4 -0.13,-0.23 0.68,-0.4 -0.4,-0.68 -1.37,0.8 -0.13,-0.23 1.37,-0.8 -0.4,-0.7 -0.69,0.4 -0.13,-0.22 0.68,-0.4 -0.4,-0.68 -0.68,0.4 -0.13,-0.23 0.68,-0.4 -0.4,-0.69 -1.37,0.8 -0.13,-0.23 1.36,-0.8 -0.4,-0.7 -0.68,0.4 -0.13,-0.22 0.68,-0.4 -0.4,-0.68 -0.69,0.4 -0.13,-0.23 0.69,-0.4 -0.4,-0.69 -1.38,0.8 -0.13,-0.23 1.37,-0.8 L 18.75,8.99 18.88,9.23 18.2,9.63 18.07,9.4 18.75,9 Z m 2.16,3.7 0.13,0.22 z m 0.54,0.92 0.13,0.23 -0.13,-0.24 z m 1.07,1.83 z m 0,0 0.13,0.23 z m 0.53,0.92 c 0.05,0.08 0.1,0.15 0.13,0.23 l -0.13,-0.24 z m 0.53,0.91 0.1,0.17 z m 0.54,0.92 0.04,0.06 z m 0.04,0.06 0.1,0.17 z m 0.5,0.86 0.13,0.22 -0.13,-0.23 z m 0.53,0.91 0.07,0.12 z m 0.53,0.92 0.14,0.23 -0.13,-0.24 z m 0.54,0.92 v -0.01 z m 0.66,1.14 -0.13,-0.23 z m 0.4,0.69 0.14,0.22 -0.13,-0.23 z m 0.54,0.9 v 0.01 z m 0,0.01 0.14,0.23 z m 0.67,1.14 -0.13,-0.23 z m 0.4,0.7 0.13,0.22 -0.13,-0.23 z m 2.67,4.57 0.13,0.23 z M 18.2,8.08 18.33,8.31 17.65,8.71 17.52,8.48 Z m 1.43,9.92 4.91,8.43 h -4.91 z"
     id="path38"
     inkscape:connector-curvature="0" />
</svg>
