<?xml version="1.0" encoding="UTF-8" standalone="no"?>
<svg
   xmlns:dc="http://purl.org/dc/elements/1.1/"
   xmlns:cc="http://creativecommons.org/ns#"
   xmlns:rdf="http://www.w3.org/1999/02/22-rdf-syntax-ns#"
   xmlns:svg="http://www.w3.org/2000/svg"
   xmlns="http://www.w3.org/2000/svg"
   xmlns:xlink="http://www.w3.org/1999/xlink"
   xmlns:sodipodi="http://sodipodi.sourceforge.net/DTD/sodipodi-0.dtd"
   xmlns:inkscape="http://www.inkscape.org/namespaces/inkscape"
   width="48"
   height="48"
   version="1"
   id="svg186"
   sodipodi:docname="application-x-keepass.svg"
   inkscape:version="0.92.4 (5da689c313, 2019-01-14)">
  <metadata
     id="metadata190">
    <rdf:RDF>
      <cc:Work
         rdf:about="">
        <dc:format>image/svg+xml</dc:format>
        <dc:type
           rdf:resource="http://purl.org/dc/dcmitype/StillImage" />
        <dc:title></dc:title>
      </cc:Work>
    </rdf:RDF>
  </metadata>
  <sodipodi:namedview
     pagecolor="#ffffff"
     bordercolor="#666666"
     borderopacity="1"
     objecttolerance="10"
     gridtolerance="10"
     guidetolerance="10"
     inkscape:pageopacity="0"
     inkscape:pageshadow="2"
     inkscape:window-width="1112"
     inkscape:window-height="480"
     id="namedview188"
     showgrid="false"
     inkscape:zoom="4.9166667"
     inkscape:cx="2.1355932"
     inkscape:cy="24"
     inkscape:window-x="0"
     inkscape:window-y="25"
     inkscape:window-maximized="0"
     inkscape:current-layer="svg186" />
  <defs
     id="defs130">
    <linearGradient
       id="c">
      <stop
         offset="0"
         stop-color="#e6e6e6"
         id="stop2" />
      <stop
         offset=".2"
         stop-color="gray"
         id="stop4" />
      <stop
         offset=".33"
         stop-color="#999"
         id="stop6" />
      <stop
         offset=".57"
         stop-color="#999"
         id="stop8" />
      <stop
         offset=".76"
         stop-color="#e6e6e6"
         id="stop10" />
      <stop
         offset="1"
         stop-color="#ccc"
         id="stop12" />
    </linearGradient>
    <linearGradient
       id="b">
      <stop
         offset="0"
         stop-color="#2c5aa0"
         id="stop15" />
      <stop
         offset=".2"
         stop-color="#3771c8"
         id="stop17" />
      <stop
         offset=".33"
         stop-color="#2c5aa0"
         id="stop19" />
      <stop
         offset=".44"
         stop-color="#3771c8"
         id="stop21" />
      <stop
         offset=".57"
         stop-color="#3771c8"
         id="stop23" />
      <stop
         offset=".76"
         stop-color="#5f8dd3"
         id="stop25" />
      <stop
         offset="1"
         stop-color="#2c5aa0"
         stop-opacity="0"
         id="stop27" />
    </linearGradient>
    <linearGradient
       xlink:href="#b"
       id="a"
       gradientUnits="userSpaceOnUse"
       gradientTransform="translate(-40)"
       x1="8.14"
       y1="13.51"
       x2="36.28"
       y2="35.97" />
    <linearGradient
       xlink:href="#c"
       id="h"
       x1="7.11"
       y1="24"
       x2="35.45"
       y2="40.15"
       gradientUnits="userSpaceOnUse" />
    <clipPath
       id="k">
      <path
         d="M22 22c0 4.6 2.7 8.85 6.86 10.83l-6.08 36.51a4.03 4.03 0 0 0 .89 3.25A4 4 0 0 0 26.72 74h14.56a4 4 0 0 0 3.94-4.66l-6.08-36.5A12.06 12.06 0 0 0 46 22a12.01 12.01 0 0 0-24 0z"
         fill="#0057ae"
         id="path32" />
    </clipPath>
    <filter
       id="l"
       color-interpolation-filters="sRGB">
      <feGaussianBlur
         stdDeviation=".87"
         id="feGaussianBlur35" />
    </filter>
    <radialGradient
       xlink:href="#d"
       id="j"
       gradientUnits="userSpaceOnUse"
       gradientTransform="matrix(0.7801,0,0,1.85655,31.8,15.26)"
       cx="-10"
       cy="8.84"
       fx="-10"
       fy="16.81"
       r="12" />
    <radialGradient
       id="d"
       cx="34"
       cy="42"
       r="32"
       gradientTransform="matrix(.375 0 0 1 -22.75 -40)"
       gradientUnits="userSpaceOnUse">
      <stop
         offset="0"
         stop-color="#5f5f5f"
         id="stop39" />
      <stop
         offset=".65"
         stop-color="#252525"
         id="stop41" />
      <stop
         offset="1"
         stop-color="#3b3b3b"
         id="stop43" />
    </radialGradient>
    <radialGradient
       xlink:href="#e"
       id="i"
       gradientUnits="userSpaceOnUse"
       gradientTransform="matrix(0.4299,0,0,0.41682,9.38,6.5)"
       cx="33.5"
       cy="77.83"
       r="75.67" />
    <radialGradient
       id="e"
       cx="33.5"
       cy="77.83"
       r="75.67"
       gradientUnits="userSpaceOnUse"
       gradientTransform="translate(-44 -40)">
      <stop
         offset=".08"
         stop-color="#babdb6"
         id="stop47" />
      <stop
         offset=".09"
         stop-color="#b2b5af"
         id="stop49" />
      <stop
         offset=".11"
         stop-color="#9da19b"
         id="stop51" />
      <stop
         offset=".13"
         stop-color="#7a7e7c"
         id="stop53" />
      <stop
         offset=".15"
         stop-color="#4a4f50"
         id="stop55" />
      <stop
         offset=".17"
         stop-color="#2e3436"
         id="stop57" />
      <stop
         offset=".18"
         stop-color="#363b3d"
         id="stop59" />
      <stop
         offset=".19"
         stop-color="#4b5050"
         id="stop61" />
      <stop
         offset=".21"
         stop-color="#6e716e"
         id="stop63" />
      <stop
         offset=".22"
         stop-color="#888a85"
         id="stop65" />
      <stop
         offset=".29"
         stop-color="#90928c"
         id="stop67" />
      <stop
         offset=".39"
         stop-color="#a4a7a1"
         id="stop69" />
      <stop
         offset=".52"
         stop-color="#c6cac2"
         id="stop71" />
      <stop
         offset=".56"
         stop-color="#d3d7cf"
         id="stop73" />
      <stop
         offset=".58"
         stop-color="#eaece8"
         id="stop75" />
      <stop
         offset=".59"
         stop-color="#f9faf9"
         id="stop77" />
      <stop
         offset=".6"
         stop-color="#fff"
         id="stop79" />
      <stop
         offset=".61"
         stop-color="#e8eae6"
         id="stop81" />
      <stop
         offset=".62"
         stop-color="#d9dcd5"
         id="stop83" />
      <stop
         offset=".63"
         stop-color="#d3d7cf"
         id="stop85" />
      <stop
         offset=".72"
         stop-color="#babdb6"
         id="stop87" />
      <stop
         offset=".83"
         stop-color="#9ea19b"
         id="stop89" />
      <stop
         offset=".93"
         stop-color="#8e908b"
         id="stop91" />
      <stop
         offset="1"
         stop-color="#888a85"
         id="stop93" />
    </radialGradient>
    <linearGradient
       xlink:href="#f"
       id="q"
       gradientUnits="userSpaceOnUse"
       gradientTransform="rotate(14.19,7.49,7.64)"
       x1="7.46"
       y1="3.5"
       x2="7.46"
       y2="11.5" />
    <linearGradient
       gradientTransform="rotate(14.19 7.49 7.64)"
       y2="11.5"
       x2="7.46"
       y1="3.5"
       x1="7.46"
       gradientUnits="userSpaceOnUse"
       id="f">
      <stop
         offset="0"
         stop-color="#fff"
         id="stop97" />
      <stop
         offset="1"
         stop-color="#888"
         id="stop99" />
    </linearGradient>
    <linearGradient
       xlink:href="#g"
       id="r"
       gradientUnits="userSpaceOnUse"
       gradientTransform="matrix(0.50102761,0.86536197,-0.86536197,0.50102761,10.571952,-3.3370182)"
       x1="7.84"
       y1="8.58"
       x2="7.84"
       y2="7.58" />
    <linearGradient
       gradientTransform="rotate(24 9.04 7)"
       y2="7.58"
       x2="7.84"
       y1="8.58"
       x1="7.84"
       gradientUnits="userSpaceOnUse"
       id="g">
      <stop
         offset="0"
         stop-color="#888a85"
         id="stop103" />
      <stop
         offset=".22"
         stop-color="#7a7c78"
         id="stop105" />
      <stop
         offset=".64"
         stop-color="#565654"
         id="stop107" />
      <stop
         offset="1"
         stop-color="#323232"
         id="stop109" />
    </linearGradient>
    <filter
       id="m"
       x="-.14"
       width="1.29"
       y="-.14"
       height="1.29">
      <feGaussianBlur
         stdDeviation=".48"
         id="feGaussianBlur112" />
    </filter>
    <linearGradient
       xlink:href="#f"
       id="n"
       gradientUnits="userSpaceOnUse"
       gradientTransform="rotate(14.19,7.49,7.64)"
       x1="7.46"
       y1="3.5"
       x2="7.46"
       y2="11.5" />
    <linearGradient
       xlink:href="#g"
       id="o"
       gradientUnits="userSpaceOnUse"
       gradientTransform="matrix(0.50102761,0.86536197,-0.86536197,0.50102761,10.571952,-3.3370182)"
       x1="7.84"
       y1="8.58"
       x2="7.84"
       y2="7.58" />
    <filter
       id="p"
       x="-.14"
       width="1.29"
       y="-.14"
       height="1.29">
      <feGaussianBlur
         stdDeviation=".48"
         id="feGaussianBlur117" />
    </filter>
    <filter
       id="s"
       x="-.14"
       width="1.29"
       y="-.14"
       height="1.29">
      <feGaussianBlur
         stdDeviation=".48"
         id="feGaussianBlur120" />
    </filter>
    <linearGradient
       xlink:href="#f"
       id="t"
       gradientUnits="userSpaceOnUse"
       gradientTransform="rotate(14.19,7.49,7.64)"
       x1="7.46"
       y1="3.5"
       x2="7.46"
       y2="11.5" />
    <linearGradient
       xlink:href="#g"
       id="u"
       gradientUnits="userSpaceOnUse"
       gradientTransform="matrix(0.50102761,0.86536197,-0.86536197,0.50102761,10.571952,-3.3370182)"
       x1="7.84"
       y1="8.58"
       x2="7.84"
       y2="7.58" />
    <filter
       id="v"
       x="-.14"
       width="1.29"
       y="-.14"
       height="1.29">
      <feGaussianBlur
         stdDeviation=".48"
         id="feGaussianBlur125" />
    </filter>
    <linearGradient
       xlink:href="#f"
       id="w"
       gradientUnits="userSpaceOnUse"
       gradientTransform="rotate(14.19,7.49,7.64)"
       x1="7.46"
       y1="3.5"
       x2="7.46"
       y2="11.5" />
    <linearGradient
       xlink:href="#g"
       id="x"
       gradientUnits="userSpaceOnUse"
       gradientTransform="matrix(0.50102761,0.86536197,-0.86536197,0.50102761,10.571952,-3.3370182)"
       x1="7.84"
       y1="8.58"
       x2="7.84"
       y2="7.58" />
  </defs>
  <path
     d="M 40.89,17.42 33.06,47.97 H 14.94 L 7.11,17.42 13.01,0.03 H 35 Z"
     id="path132"
     style="fill:url(#h)"
     inkscape:connector-curvature="0" />
  <path
     d="m 18.28,43.82 -3.34,4.15 h 18.12 l -3.34,-4.15 z"
     id="path134"
     inkscape:connector-curvature="0"
     style="fill:#1a1a1a;fill-opacity:0.1" />
  <path
     d="m 29.72,43.82 3.34,4.15 7.83,-30.55 -4.44,0.16 z"
     id="path136"
     inkscape:connector-curvature="0"
     style="fill:#1a1a1a;fill-opacity:0.47000002" />
  <path
     d="m 13.01,0.03 3.08,4.15 h 15.8 l 3.1,-4.15 z"
     id="path138"
     inkscape:connector-curvature="0"
     style="fill:#1a1a1a;fill-opacity:0.35" />
  <path
     d="M 40.89,17.42 34.99,0.03 31.9,4.18 36.45,17.58 Z"
     id="path140"
     inkscape:connector-curvature="0"
     style="fill:#1a1a1a;fill-opacity:0.70999995" />
  <path
     d="m 18.28,43.82 -3.34,4.15 -7.83,-30.55 4.44,0.16 z"
     id="path142"
     inkscape:connector-curvature="0"
     style="fill:#1a1a1a;fill-opacity:0.47000002" />
  <path
     d="m 7.11,17.42 5.9,-17.39 3.09,4.15 -4.55,13.4 z"
     id="path144"
     inkscape:connector-curvature="0"
     style="fill:#1a1a1a;fill-opacity:0.70999995" />
  <path
     d="m 17.98,15.66 a 5.8,5.8 0 0 0 2.44,4.67 0.83,0.83 0 0 1 0.33,0.8 l -2.42,14.1 -0.04,0.45 c 0,0.59 0.22,1.16 0.61,1.6 0.5,0.57 1.21,0.9 1.97,0.9 h 6.26 a 2.6,2.6 0 0 0 1.97,-0.9 c 0.39,-0.44 0.6,-1.01 0.6,-1.6 l -0.03,-0.46 -2.43,-14.1 a 0.83,0.83 0 0 1 0.33,-0.8 5.8,5.8 0 0 0 2.45,-4.66 c 0,-3.21 -2.7,-5.83 -6.02,-5.83 a 5.94,5.94 0 0 0 -6.02,5.83 z"
     id="path146"
     style="opacity:0.5;fill:url(#i)"
     inkscape:connector-curvature="0" />
  <path
     d="m 19.2,15.9 a 4.88,4.88 0 0 0 2.75,4.39 l -2.43,14.77 a 1.65,1.65 0 0 0 0.35,1.3 c 0.3,0.37 0.75,0.58 1.22,0.58 h 5.82 c 0.47,0 0.91,-0.21 1.22,-0.57 a 1.63,1.63 0 0 0 0.35,-1.31 L 26.05,20.29 A 4.88,4.88 0 0 0 28.79,15.91 4.83,4.83 0 0 0 24,11.06 4.83,4.83 0 0 0 19.2,15.91 Z"
     id="path148"
     style="fill:url(#j)"
     inkscape:connector-curvature="0" />
  <g
     transform="matrix(0.39957,0,0,0.40433,10.41,7.02)"
     clip-path="url(#k)"
     id="g152"
     style="filter:url(#l)">
    <path
       d="m 24.72,73 c 0,-0.22 0.02,-0.44 0.06,-0.66 l 6.08,-36.5 c -0.81,-0.4 -1.57,-0.87 -2.26,-1.42 l -5.82,34.92 a 4.03,4.03 0 0 0 0.89,3.25 c 0.3,0.36 0.69,0.64 1.1,0.87 C 24.74,73.31 24.72,73.16 24.72,73 Z M 24,25 A 12,12 0 1 1 44.87,16.94 12,12 0 0 0 22,22 c 0,3.01 1.16,5.87 3.13,8.05 A 11.9,11.9 0 0 1 24,25 Z"
       id="path150"
       inkscape:connector-curvature="0" />
  </g>
  <g
     transform="matrix(0.42543998,-0.37798894,0.37798894,0.42543998,18.012748,40.433975)"
     id="g160">
    <circle
       transform="translate(-78.5,0.29)"
       r="4"
       cy="7.5"
       cx="86"
       id="circle154"
       style="opacity:0.7;stroke:#000000;stroke-width:0.5;filter:url(#m)" />
    <circle
       r="4"
       cy="7.5"
       cx="7.5"
       id="circle156"
       style="fill:url(#n)" />
    <path
       d="M 6.24,4.32 C 6.06,4.34 5.9,4.38 5.74,4.47 5.6,4.56 5.47,4.67 5.37,4.82 l 3.4,5.86 a 1.17,1.17 0 0 0 0.86,-0.5 z"
       id="path158"
       style="fill:url(#o)"
       inkscape:connector-curvature="0" />
  </g>
  <g
     transform="matrix(0.5691,0,0,0.5691,19.7,3.54)"
     id="g168">
    <circle
       transform="translate(-78.5,0.29)"
       r="4"
       cy="7.5"
       cx="86"
       id="circle162"
       style="opacity:0.7;stroke:#000000;stroke-width:0.5;filter:url(#p)" />
    <circle
       r="4"
       cy="7.5"
       cx="7.5"
       id="circle164"
       style="fill:url(#q)" />
    <path
       d="M 6.24,4.32 C 6.06,4.34 5.9,4.38 5.74,4.47 5.6,4.56 5.47,4.67 5.37,4.82 l 3.4,5.86 a 1.17,1.17 0 0 0 0.86,-0.5 z"
       id="path166"
       style="fill:url(#r)"
       inkscape:connector-curvature="0" />
  </g>
  <g
     transform="matrix(0.17236271,-0.54237063,0.54237063,0.17236271,10.178942,22.735403)"
     id="g176">
    <circle
       transform="translate(-78.5,0.29)"
       r="4"
       cy="7.5"
       cx="86"
       id="circle170"
       style="opacity:0.7;stroke:#000000;stroke-width:0.5;filter:url(#s)" />
    <circle
       r="4"
       cy="7.5"
       cx="7.5"
       id="circle172"
       style="fill:url(#t)" />
    <path
       d="M 6.24,4.32 C 6.06,4.34 5.9,4.38 5.74,4.47 5.6,4.56 5.47,4.67 5.37,4.82 l 3.4,5.86 a 1.17,1.17 0 0 0 0.86,-0.5 z"
       id="path174"
       style="fill:url(#u)"
       inkscape:connector-curvature="0" />
  </g>
  <g
     transform="matrix(0.34233426,0.45462299,-0.45462299,0.34233426,33.25335,13.893239)"
     id="g184">
    <circle
       transform="translate(-78.5,0.29)"
       r="4"
       cy="7.5"
       cx="86"
       id="circle178"
       style="opacity:0.7;stroke:#000000;stroke-width:0.5;filter:url(#v)" />
    <circle
       r="4"
       cy="7.5"
       cx="7.5"
       id="circle180"
       style="fill:url(#w)" />
    <path
       d="M 6.24,4.32 C 6.06,4.34 5.9,4.38 5.74,4.47 5.6,4.56 5.47,4.67 5.37,4.82 l 3.4,5.86 a 1.17,1.17 0 0 0 0.86,-0.5 z"
       id="path182"
       style="fill:url(#x)"
       inkscape:connector-curvature="0" />
  </g>
</svg>
