<?xml version="1.0" encoding="UTF-8" standalone="no"?><svg xmlns:dc="http://purl.org/dc/elements/1.1/" xmlns:cc="http://creativecommons.org/ns#" xmlns:rdf="http://www.w3.org/1999/02/22-rdf-syntax-ns#" xmlns="http://www.w3.org/2000/svg" xmlns:xlink="http://www.w3.org/1999/xlink" viewBox="0 0 48 48"><metadata><rdf:RDF><cc:Work><dc:format>image/svg+xml</dc:format><dc:type rdf:resource="http://purl.org/dc/dcmitype/StillImage"/><dc:title/></cc:Work></rdf:RDF></metadata><defs><linearGradient id="a"><stop offset="0" stop-color="#1a1a1a"/><stop offset="1" stop-color="#1a1a1a" stop-opacity=".51"/></linearGradient><clipPath id="d"><path d="M-5.02.03l-3.1 4.15H-23.9l-4.55 13.4 6.73 26.24h11.44l6.73-26.24-4.55-13.4z" fill="url(#linearGradient1212)"/></clipPath><filter id="e" x="-.08" width="1.17" y="-.05" height="1.09" color-interpolation-filters="sRGB"><feGaussianBlur stdDeviation=".86"/></filter><linearGradient gradientTransform="translate(0 .13)" xlink:href="#b" id="c" x1="4.89" y1="19.47" x2="39.33" y2="4.73" gradientUnits="userSpaceOnUse"/><linearGradient id="b"><stop offset="0" stop-color="#6c5367"/><stop offset=".2" stop-color="#916f8a"/><stop offset=".33" stop-color="#6c5367"/><stop offset=".44" stop-color="#6c5367"/><stop offset=".63" stop-color="#82697d"/><stop offset=".76" stop-color="#5c4858"/><stop offset="1" stop-color="#ac93a7"/></linearGradient></defs><path d="M40.9 17.55L33.07 48.1H14.95L7.12 17.55 13.02.16H35z" fill="url(#c)"/><path d="M-5.02.03l-3.1 4.15H-23.9l-4.55 13.4 6.73 26.24h11.44l6.73-26.24-4.55-13.4z" clip-path="url(#d)" transform="translate(40.74 -.87) scale(1.04567)" fill="none" stroke="#241c22" stroke-width="1.91" filter="url(#e)"/><path d="M18.29 43.95l-3.34 4.15h18.12l-3.34-4.15z" fill="#241c22" fill-opacity=".1"/><path d="M13.02.16l3.08 4.15h15.8L35 .16z" fill="#241c22" fill-opacity=".35"/><path d="M18.27 43.95l-3.34 4.15L7.1 17.55l4.44.16z" fill="#241c22" fill-opacity=".47"/><path d="M7.1 17.55L13 .16l3.1 4.15-4.56 13.4zm33.8 0L35 .16l-3.1 4.15 4.56 13.4z" fill="#241c22" fill-opacity=".71"/><path d="M29.73 43.95l3.34 4.15 7.83-30.55-4.44.16z" fill="#241c22" fill-opacity=".47"/><path d="M16.04 12.4v2.76h2.48V12.4zm7.12 3.6l-2.97 7.78h1.1l.72-2h3.5l.71 2h1.1L24.34 16zm.6 1.04l1.42 3.87h-2.86zm6.7.76a6.23 6.23 0 0 0-1.98.4v.9a3.86 3.86 0 0 1 1.87-.48c.53 0 .93.12 1.22.36.3.24.44.58.44 1.02v.1h-1.34c-.88 0-1.53.16-1.97.5-.44.33-.66.83-.66 1.48 0 .56.18 1.01.53 1.35a2 2 0 0 0 1.42.5c.47 0 .87-.08 1.2-.25.33-.17.6-.43.82-.79v.9h.96v-3.34c0-.89-.21-1.55-.63-1.99-.42-.44-1.04-.66-1.89-.66zm-14.42.6v2.76h2.48V18.4zm15.02 2.45H32v.21c0 .63-.16 1.13-.48 1.5a1.6 1.6 0 0 1-1.28.57c-.39 0-.7-.1-.92-.3-.22-.2-.33-.47-.33-.81 0-.43.15-.73.45-.9.3-.18.83-.27 1.6-.27zM16.04 24.4v2.76h2.48V24.4z" fill="#483737"/><path d="M15.59 11.95v2.76h2.48v-2.76zm7.12 3.6l-2.97 7.78h1.11l.7-2h3.51l.71 2h1.1l-2.97-7.78zm.6 1.04l1.43 3.87h-2.86zm6.7.77a6.22 6.22 0 0 0-1.98.4v.89a3.85 3.85 0 0 1 1.87-.48c.53 0 .93.12 1.22.37.3.23.44.58.44 1.02v.09h-1.34c-.88 0-1.53.17-1.97.5-.44.33-.66.83-.66 1.48 0 .57.18 1.02.53 1.35a2 2 0 0 0 1.42.5c.48 0 .88-.08 1.2-.25.33-.17.6-.43.82-.78v.88h.96V20c0-.89-.2-1.55-.63-1.99-.41-.43-1.04-.65-1.89-.65zm-14.42.6v2.75h2.48v-2.76zM30.6 20.4h.95v.21c0 .63-.16 1.13-.48 1.5a1.6 1.6 0 0 1-1.28.57c-.38 0-.7-.1-.92-.3-.22-.2-.33-.47-.33-.8 0-.43.15-.74.45-.91.3-.18.83-.27 1.6-.27zm-15.02 3.55v2.76h2.48v-2.76z" fill="#e3dbdb"/></svg>