<?xml version="1.0" encoding="UTF-8" standalone="no"?><svg xmlns:dc="http://purl.org/dc/elements/1.1/" xmlns:cc="http://creativecommons.org/ns#" xmlns:rdf="http://www.w3.org/1999/02/22-rdf-syntax-ns#" xmlns="http://www.w3.org/2000/svg" xmlns:xlink="http://www.w3.org/1999/xlink" width="48" height="48" version="1"><metadata><rdf:RDF><cc:Work><dc:format>image/svg+xml</dc:format><dc:type rdf:resource="http://purl.org/dc/dcmitype/StillImage"/><dc:title/></cc:Work></rdf:RDF></metadata><defs><linearGradient id="f"><stop offset="0" stop-color="#e6e6e6"/><stop offset=".2" stop-color="gray"/><stop offset=".33" stop-color="#999"/><stop offset=".57" stop-color="#999"/><stop offset=".76" stop-color="#e6e6e6"/><stop offset="1" stop-color="#ccc"/></linearGradient><linearGradient id="c"><stop offset="0" stop-color="#2c5aa0"/><stop offset=".2" stop-color="#3771c8"/><stop offset=".33" stop-color="#2c5aa0"/><stop offset=".44" stop-color="#3771c8"/><stop offset=".57" stop-color="#3771c8"/><stop offset=".76" stop-color="#5f8dd3"/><stop offset="1" stop-color="#2c5aa0" stop-opacity="0"/></linearGradient><linearGradient id="a"><stop offset="0" stop-color="#00000a"/><stop offset="1" stop-color="#050000" stop-opacity="0"/></linearGradient><clipPath id="l"><path d="M-5.02.03l-3.1 4.15H-23.9l-4.55 13.4 6.73 26.24h11.44l6.73-26.24-4.55-13.4z" fill="url(#b)"/></clipPath><linearGradient xlink:href="#c" id="b" gradientUnits="userSpaceOnUse" gradientTransform="translate(-40)" x1="8.14" y1="13.51" x2="36.28" y2="35.97"/><filter id="m" x="-.08" width="1.17" y="-.05" height="1.09" color-interpolation-filters="sRGB"><feGaussianBlur stdDeviation=".86"/></filter><linearGradient id="d"><stop offset="0"/><stop stop-opacity=".5" offset=".7"/><stop stop-opacity="0" offset="1"/></linearGradient><linearGradient id="e"><stop stop-color="#fff" offset="0"/><stop stop-color="#fff" stop-opacity=".5" offset=".7"/><stop stop-color="#fff" stop-opacity="0" offset="1"/></linearGradient><linearGradient xlink:href="#f" id="k" x1="7.11" y1="24" x2="35.45" y2="40.15" gradientUnits="userSpaceOnUse"/><clipPath id="p"><path d="M22 22c0 4.6 2.7 8.85 6.86 10.83l-6.08 36.51a4.03 4.03 0 0 0 .89 3.25A4 4 0 0 0 26.72 74h14.56a4 4 0 0 0 3.94-4.66l-6.08-36.5A12.06 12.06 0 0 0 46 22a12.01 12.01 0 0 0-24 0z" fill="#0057ae"/></clipPath><filter id="q" color-interpolation-filters="sRGB"><feGaussianBlur stdDeviation=".87"/></filter><radialGradient xlink:href="#g" id="o" gradientUnits="userSpaceOnUse" gradientTransform="matrix(.7801 0 0 1.85655 31.8 15.26)" cx="-10" cy="8.84" fx="-10" fy="16.81" r="12"/><radialGradient id="g" cx="34" cy="42" r="32" gradientTransform="matrix(.375 0 0 1 -22.75 -40)" gradientUnits="userSpaceOnUse"><stop offset="0" stop-color="#5f5f5f"/><stop offset=".65" stop-color="#252525"/><stop offset="1" stop-color="#3b3b3b"/></radialGradient><radialGradient xlink:href="#h" id="n" gradientUnits="userSpaceOnUse" gradientTransform="matrix(.4299 0 0 .41682 9.38 6.5)" cx="33.5" cy="77.83" r="75.67"/><radialGradient id="h" cx="33.5" cy="77.83" r="75.67" gradientUnits="userSpaceOnUse" gradientTransform="translate(-44 -40)"><stop offset=".08" stop-color="#babdb6"/><stop offset=".09" stop-color="#b2b5af"/><stop offset=".11" stop-color="#9da19b"/><stop offset=".13" stop-color="#7a7e7c"/><stop offset=".15" stop-color="#4a4f50"/><stop offset=".17" stop-color="#2e3436"/><stop offset=".18" stop-color="#363b3d"/><stop offset=".19" stop-color="#4b5050"/><stop offset=".21" stop-color="#6e716e"/><stop offset=".22" stop-color="#888a85"/><stop offset=".29" stop-color="#90928c"/><stop offset=".39" stop-color="#a4a7a1"/><stop offset=".52" stop-color="#c6cac2"/><stop offset=".56" stop-color="#d3d7cf"/><stop offset=".58" stop-color="#eaece8"/><stop offset=".59" stop-color="#f9faf9"/><stop offset=".6" stop-color="#fff"/><stop offset=".61" stop-color="#e8eae6"/><stop offset=".62" stop-color="#d9dcd5"/><stop offset=".63" stop-color="#d3d7cf"/><stop offset=".72" stop-color="#babdb6"/><stop offset=".83" stop-color="#9ea19b"/><stop offset=".93" stop-color="#8e908b"/><stop offset="1" stop-color="#888a85"/></radialGradient><linearGradient xlink:href="#i" id="v" gradientUnits="userSpaceOnUse" gradientTransform="rotate(14.19 7.49 7.64)" x1="7.46" y1="3.5" x2="7.46" y2="11.5"/><linearGradient gradientTransform="rotate(14.19 7.49 7.64)" y2="11.5" x2="7.46" y1="3.5" x1="7.46" gradientUnits="userSpaceOnUse" id="i"><stop offset="0" stop-color="#fff"/><stop offset="1" stop-color="#888"/></linearGradient><linearGradient xlink:href="#j" id="w" gradientUnits="userSpaceOnUse" gradientTransform="rotate(59.93 8.18 7.5) scale(.99994)" x1="7.84" y1="8.58" x2="7.84" y2="7.58"/><linearGradient gradientTransform="rotate(24 9.04 7)" y2="7.58" x2="7.84" y1="8.58" x1="7.84" gradientUnits="userSpaceOnUse" id="j"><stop offset="0" stop-color="#888a85"/><stop offset=".22" stop-color="#7a7c78"/><stop offset=".64" stop-color="#565654"/><stop offset="1" stop-color="#323232"/></linearGradient><filter id="r" x="-.14" width="1.29" y="-.14" height="1.29"><feGaussianBlur stdDeviation=".48"/></filter><linearGradient xlink:href="#i" id="s" gradientUnits="userSpaceOnUse" gradientTransform="rotate(14.19 7.49 7.64)" x1="7.46" y1="3.5" x2="7.46" y2="11.5"/><linearGradient xlink:href="#j" id="t" gradientUnits="userSpaceOnUse" gradientTransform="rotate(59.93 8.18 7.5) scale(.99994)" x1="7.84" y1="8.58" x2="7.84" y2="7.58"/><filter id="u" x="-.14" width="1.29" y="-.14" height="1.29"><feGaussianBlur stdDeviation=".48"/></filter><filter id="x" x="-.14" width="1.29" y="-.14" height="1.29"><feGaussianBlur stdDeviation=".48"/></filter><linearGradient xlink:href="#i" id="y" gradientUnits="userSpaceOnUse" gradientTransform="rotate(14.19 7.49 7.64)" x1="7.46" y1="3.5" x2="7.46" y2="11.5"/><linearGradient xlink:href="#j" id="z" gradientUnits="userSpaceOnUse" gradientTransform="rotate(59.93 8.18 7.5) scale(.99994)" x1="7.84" y1="8.58" x2="7.84" y2="7.58"/><filter id="A" x="-.14" width="1.29" y="-.14" height="1.29"><feGaussianBlur stdDeviation=".48"/></filter><linearGradient xlink:href="#i" id="B" gradientUnits="userSpaceOnUse" gradientTransform="rotate(14.19 7.49 7.64)" x1="7.46" y1="3.5" x2="7.46" y2="11.5"/><linearGradient xlink:href="#j" id="C" gradientUnits="userSpaceOnUse" gradientTransform="rotate(59.93 8.18 7.5) scale(.99994)" x1="7.84" y1="8.58" x2="7.84" y2="7.58"/></defs><path d="M40.89 17.42l-7.83 30.55H14.94L7.11 17.42 13.01.03H35z" fill="url(#k)"/><path d="M-5.02.03l-3.1 4.15H-23.9l-4.55 13.4 6.73 26.24h11.44l6.73-26.24-4.55-13.4z" clip-path="url(#l)" transform="translate(40.73 -1) scale(1.04567)" fill="none" stroke="#1a1a1a" stroke-width="1.91" filter="url(#m)"/><path d="M18.28 43.82l-3.34 4.15h18.12l-3.34-4.15z" fill="#1a1a1a" fill-opacity=".1"/><path d="M29.72 43.82l3.34 4.15 7.83-30.55-4.44.16z" fill="#1a1a1a" fill-opacity=".47"/><path d="M13.01.03l3.08 4.15h15.8l3.1-4.15z" fill="#1a1a1a" fill-opacity=".35"/><path d="M40.89 17.42L34.99.03 31.9 4.18l4.55 13.4z" fill="#1a1a1a" fill-opacity=".71"/><path d="M18.28 43.82l-3.34 4.15-7.83-30.55 4.44.16z" fill="#1a1a1a" fill-opacity=".47"/><path d="M7.11 17.42L13.01.03l3.09 4.15-4.55 13.4z" fill="#1a1a1a" fill-opacity=".71"/><path d="M17.98 15.66a5.8 5.8 0 0 0 2.44 4.67.83.83 0 0 1 .33.8l-2.42 14.1-.04.45c0 .59.22 1.16.61 1.6.5.57 1.21.9 1.97.9h6.26a2.6 2.6 0 0 0 1.97-.9c.39-.44.6-1.01.6-1.6l-.03-.46-2.43-14.1a.83.83 0 0 1 .33-.8 5.8 5.8 0 0 0 2.45-4.66c0-3.21-2.7-5.83-6.02-5.83a5.94 5.94 0 0 0-6.02 5.83z" opacity=".5" fill="url(#n)"/><path d="M19.2 15.9a4.88 4.88 0 0 0 2.75 4.39l-2.43 14.77a1.65 1.65 0 0 0 .35 1.3c.3.37.75.58 1.22.58h5.82c.47 0 .91-.21 1.22-.57a1.63 1.63 0 0 0 .35-1.31l-2.43-14.77a4.88 4.88 0 0 0 2.74-4.38A4.83 4.83 0 0 0 24 11.06a4.83 4.83 0 0 0-4.8 4.85z" fill="url(#o)"/><g transform="matrix(.39957 0 0 .40433 10.41 7.02)" clip-path="url(#p)" filter="url(#q)"><path d="M24.72 73c0-.22.02-.44.06-.66l6.08-36.5c-.81-.4-1.57-.87-2.26-1.42l-5.82 34.92a4.03 4.03 0 0 0 .89 3.25c.3.36.69.64 1.1.87-.03-.15-.05-.3-.05-.46zM24 25a12 12 0 1 1 20.87-8.06A12 12 0 0 0 22 22c0 3.01 1.16 5.87 3.13 8.05A11.9 11.9 0 0 1 24 25z"/></g><g transform="rotate(-41.62 62.2 -3.48) scale(.5691)"><circle transform="translate(-78.5 .29)" r="4" cy="7.5" cx="86" opacity=".7" stroke="#000" stroke-width=".5" filter="url(#r)"/><circle r="4" cy="7.5" cx="7.5" fill="url(#s)"/><path d="M6.24 4.32c-.18.02-.34.06-.5.15-.14.09-.27.2-.37.35l3.4 5.86a1.17 1.17 0 0 0 .86-.5z" fill="url(#t)"/></g><g transform="translate(19.7 3.54) scale(.5691)"><circle transform="translate(-78.5 .29)" r="4" cy="7.5" cx="86" opacity=".7" stroke="#000" stroke-width=".5" filter="url(#u)"/><circle r="4" cy="7.5" cx="7.5" fill="url(#v)"/><path d="M6.24 4.32c-.18.02-.34.06-.5.15-.14.09-.27.2-.37.35l3.4 5.86a1.17 1.17 0 0 0 .86-.5z" fill="url(#w)"/></g><g transform="rotate(-72.37 20.63 4.41) scale(.5691)"><circle transform="translate(-78.5 .29)" r="4" cy="7.5" cx="86" opacity=".7" stroke="#000" stroke-width=".5" filter="url(#x)"/><circle r="4" cy="7.5" cx="7.5" fill="url(#y)"/><path d="M6.24 4.32c-.18.02-.34.06-.5.15-.14.09-.27.2-.37.35l3.4 5.86a1.17 1.17 0 0 0 .86-.5z" fill="url(#z)"/></g><g transform="rotate(53.02 2.7 40.28) scale(.5691)"><circle transform="translate(-78.5 .29)" r="4" cy="7.5" cx="86" opacity=".7" stroke="#000" stroke-width=".5" filter="url(#A)"/><circle r="4" cy="7.5" cx="7.5" fill="url(#B)"/><path d="M6.24 4.32c-.18.02-.34.06-.5.15-.14.09-.27.2-.37.35l3.4 5.86a1.17 1.17 0 0 0 .86-.5z" fill="url(#C)"/></g></svg>