<?xml version="1.0" encoding="UTF-8" standalone="no"?><svg xmlns:dc="http://purl.org/dc/elements/1.1/" xmlns:cc="http://creativecommons.org/ns#" xmlns:rdf="http://www.w3.org/1999/02/22-rdf-syntax-ns#" xmlns="http://www.w3.org/2000/svg" xmlns:xlink="http://www.w3.org/1999/xlink" width="48" height="48" viewBox="0 0 12.7 12.7"><metadata><rdf:RDF><cc:Work><dc:format>image/svg+xml</dc:format><dc:type rdf:resource="http://purl.org/dc/dcmitype/StillImage"/><dc:title/></cc:Work></rdf:RDF></metadata><defs><linearGradient xlink:href="#a" id="b" x1="20.52" y1="-4.5" x2="12.11" y2="44.88" gradientUnits="userSpaceOnUse"/><linearGradient id="a"><stop offset="0" stop-color="#892ca0"/><stop offset=".2" stop-color="#bc5fd3"/><stop offset=".33" stop-color="#bc5fd3"/><stop offset=".44" stop-color="#ab37c8"/><stop offset=".57" stop-color="#bc5fd3"/><stop offset=".76" stop-color="#ab37c8"/><stop offset="1" stop-color="#bc5fd3"/></linearGradient><clipPath id="c"><path d="M-5.02.03l-3.1 4.15H-23.9l-4.55 13.4 6.73 26.24h11.44l6.73-26.24-4.55-13.4z" fill="url(#linearGradient1212)"/></clipPath><filter id="d" x="-.08" width="1.17" y="-.05" height="1.09" color-interpolation-filters="sRGB"><feGaussianBlur stdDeviation=".86"/></filter></defs><path d="M40.89 17.42l-7.83 30.55H14.94L7.11 17.42 13.01.03H35z" fill="url(#b)" transform="matrix(.26458 0 0 .26458 0 -.01)"/><path d="M4.84 11.58l-.89 1.1h4.8l-.89-1.1z" fill="#441650" fill-opacity=".1"/><path d="M3.44 0l.82 1.1h4.18L9.26 0z" fill="#441650" fill-opacity=".35"/><path d="M4.84 11.58l-.89 1.1L1.88 4.6l1.18.04z" fill="#441650" fill-opacity=".47"/><path d="M-5.02.03l-3.1 4.15H-23.9l-4.55 13.4 6.73 26.24h11.44l6.73-26.24-4.55-13.4z" clip-path="url(#c)" transform="matrix(.27667 0 0 .27667 10.78 -.28)" opacity=".7" fill="none" stroke="#662974" stroke-width="1.91" filter="url(#d)"/><path d="M1.88 4.6L3.44 0l.82 1.1-1.2 3.54zm8.94 0L9.26 0l-.82 1.1 1.2 3.54z" fill="#441650" fill-opacity=".71"/><path d="M7.86 11.58l.89 1.1 2.07-8.08-1.17.04z" fill="#441650" fill-opacity=".47"/><path d="M7.81 3.13l-2.9.01v.73h2.9zM4.19 4.21c-.2 0-.37.2-.37.38v1.45c0 .18.18.36.37.36h.35v-.73h.38v1.78h2.87V5.67h.37v.73h.37a.38.38 0 0 0 .35-.36V4.6c0-.18-.18-.37-.35-.37zm1.05 1.45h2.25v1.48H5.24z" fill="#fff"/></svg>