<svg xmlns="http://www.w3.org/2000/svg" xmlns:xlink="http://www.w3.org/1999/xlink" width="48" height="48" viewBox="0 0 12.7 12.7"><defs><linearGradient xlink:href="#a" id="b" x1="7.11" y1="24" x2="35.45" y2="40.15" gradientUnits="userSpaceOnUse"/><linearGradient id="a"><stop offset="0" stop-color="#2c5aa0"/><stop offset=".2" stop-color="#3771c8"/><stop offset=".33" stop-color="#2c5aa0"/><stop offset=".44" stop-color="#3771c8"/><stop offset=".57" stop-color="#3771c8"/><stop offset=".76" stop-color="#5f8dd3"/><stop offset="1" stop-color="#3771c8"/></linearGradient></defs><path d="M40.89 17.42l-7.83 30.55H14.94L7.11 17.42 13.01.03H35z" fill="url(#b)" transform="scale(.26458)"/><path d="M4.84 11.59l-.89 1.1h4.8l-.89-1.1z" fill="#162d50" fill-opacity=".1"/><path d="M7.86 11.59l.89 1.1 2.07-8.09-1.18.05z" fill="#162d50" fill-opacity=".47"/><path d="M3.44 0l.82 1.1h4.18L9.26 0z" fill="#162d50" fill-opacity=".35"/><path d="M10.82 4.6L9.26 0l-.82 1.1 1.2 3.55z" fill="#162d50" fill-opacity=".71"/><path d="M4.84 11.59l-.89 1.1L1.88 4.6l1.18.05z" fill="#162d50" fill-opacity=".47"/><path d="M1.88 4.6L3.44 0l.82 1.1-1.2 3.55z" fill="#162d50" fill-opacity=".71"/><path d="M6.65 11.59h1.21l.23-.87zm-1.61 0h1.5l1.57-.95.22-.87c-.03-.04-.05-.1-.1-.1l-.06.02zm-.39-.74l.19.74h.1l3.2-1.94c.1-.06.04-.13-.01-.22l-.2-.33c-.04-.07-.07-.14-.12-.14-.02 0-.04 0-.07.02zm-.22-.84l.2.79 3.08-1.87c.1-.05.04-.12-.01-.21l-.2-.34c-.04-.06-.07-.13-.13-.13l-.06.02zm-.21-.84l.2.79 2.86-1.74c.1-.06.04-.12-.01-.22l-.2-.33c-.04-.06-.07-.13-.13-.13l-.06.02zM4 8.33l.2.78 2.65-1.6c.1-.06.04-.13-.01-.22l-.2-.33c-.04-.07-.07-.13-.13-.13l-.06.02zm-.21-.84l.2.78L6.42 6.8c.1-.06.04-.13-.01-.22l-.2-.33c-.04-.07-.07-.13-.13-.13l-.06.02zm-.22-.84l.2.78L6 6.1c.1-.06.04-.13-.01-.22l-.2-.33c-.04-.07-.07-.13-.13-.13l-.06.02zm-.22-.85l.2.8 2.01-1.22c.1-.06.04-.13-.01-.22l-.2-.33c-.04-.07-.07-.13-.13-.14l-.06.02zm-.21-.83l.2.78 1.8-1.08c.09-.06.03-.13-.02-.22l-.2-.33c-.04-.07-.07-.13-.13-.14L4.73 4zm.17-1.08l-.25.76.06.26 1.58-.95c.1-.06.04-.13-.01-.22l-.2-.33c-.04-.07-.07-.14-.13-.14l-.06.02zm.42-1.22L3.34 3.8l.93-.57c.1-.06.04-.12-.01-.21l-.2-.34c-.04-.06-.07-.13-.13-.13l-.06.02z" fill="#e6e6e6"/><path d="M3.2 5.22l.63-.38-.27-.44-.5.3zm.21.84l.84-.51L4 5.1l-.71.42zm.22.84l1.05-.64-.27-.45-.92.56zm.43 1.67l1.48-.9-.27-.44-1.35.81zm.21.83l1.7-1.02-.27-.44-1.56.94zm.43 1.67L6.82 9.8l-.27-.44-1.98 1.2zm.76.51l1.79-1.08-.27-.44-2.2 1.33.05.2zm1.6 0l.62-.37-.27-.44-1.35.81z" fill="#1a1a1a"/></svg>