<?xml version="1.0" encoding="UTF-8" standalone="no"?><svg xmlns:dc="http://purl.org/dc/elements/1.1/" xmlns:cc="http://creativecommons.org/ns#" xmlns:rdf="http://www.w3.org/1999/02/22-rdf-syntax-ns#" xmlns="http://www.w3.org/2000/svg" xmlns:xlink="http://www.w3.org/1999/xlink" width="48" height="48" version="1"><metadata><rdf:RDF><cc:Work><dc:format>image/svg+xml</dc:format><dc:type rdf:resource="http://purl.org/dc/dcmitype/StillImage"/><dc:title/></cc:Work></rdf:RDF></metadata><defs><linearGradient id="a"><stop offset="0"/><stop offset="1" stop-opacity="0"/></linearGradient><linearGradient id="d"><stop offset="0" stop-color="#1a1a1a"/><stop offset="1" stop-color="#1a1a1a" stop-opacity="0"/></linearGradient><linearGradient xlink:href="#a" id="h" x1="8.5" y1="7.47" x2="42.75" y2="32.66" gradientUnits="userSpaceOnUse"/><linearGradient id="b"><stop offset="0" stop-color="#c8ab37"/><stop offset=".2" stop-color="#ffd42a"/><stop offset=".33" stop-color="#ffd944"/><stop offset=".45" stop-color="#e6cb5f"/><stop offset=".65" stop-color="#c8ab37"/><stop offset=".76" stop-color="#fd5"/><stop offset="1" stop-color="#c8ab37"/></linearGradient><linearGradient xlink:href="#c" id="e" x1="14.94" y1="47.97" x2="34.08" y2="1" gradientUnits="userSpaceOnUse" gradientTransform="translate(0 -.05)"/><linearGradient id="c"><stop stop-color="#ccc" offset="0"/><stop stop-color="#e6e6e6" offset=".17"/><stop stop-color="#999" offset=".43"/><stop stop-color="#999" offset=".51"/><stop stop-color="gray" offset=".74"/><stop stop-color="#e6e6e6" offset="1"/></linearGradient><clipPath id="f"><path d="M-5.02.03l-3.1 4.15H-23.9l-4.55 13.4 6.73 26.24h11.44l6.73-26.24-4.55-13.4z" fill="url(#d)"/></clipPath><filter id="g" x="-.08" width="1.17" y="-.05" height="1.09" color-interpolation-filters="sRGB"><feGaussianBlur stdDeviation=".86"/></filter></defs><path d="M40.89 17.37l-7.83 30.55H14.94L7.11 17.37l5.9-17.39H35z" fill="url(#e)"/><path transform="translate(40.73 -1.05) scale(1.04567)" clip-path="url(#f)" d="M-5.02.03l-3.1 4.15H-23.9l-4.55 13.4 6.73 26.24h11.44l6.73-26.24-4.55-13.4z" fill="none" stroke="#1a1a1a" stroke-width="1.91" filter="url(#g)"/><path d="M18.28 43.77l-3.34 4.15h18.12l-3.34-4.15z" fill="#1a1a1a" fill-opacity=".1"/><path d="M29.72 43.77l3.34 4.15 7.83-30.55-4.44.16z" fill="#1a1a1a" fill-opacity=".47"/><path d="M13.01-.02l3.08 4.15h15.8l3.1-4.15z" fill="#1a1a1a" fill-opacity=".35"/><path d="M40.89 17.37L34.99-.02 31.9 4.13l4.55 13.4z" fill="#1a1a1a" fill-opacity=".71"/><path d="M18.28 43.77l-3.34 4.15-7.83-30.55 4.44.16z" fill="#1a1a1a" fill-opacity=".47"/><path d="M7.11 17.37l5.9-17.39 3.09 4.15-4.55 13.4z" fill="#1a1a1a" fill-opacity=".71"/><path d="M16.54 29.04l2.25-2.24 1.85 1.85 2.43-.41 1.82-1.57.46-2.35-3.55-3.54.98-1.08-5.95-5.95 1.73-1.73 2.72 2.73 1.43-2.2 2.92-1.35 3.47.77 2.53 2.57.35.8 1.1-.59 3.57 3.76-5.3 20.67-1.18 3.58z" opacity=".53" fill="url(#h)"/><path d="M18.42 27.96c3.3 2.13 10.5-.7 4.52-8.26-5.94-7.53 5.88-12.45 9.37-3.78m-14.69-3.04L29 27.08" fill="none" stroke="#fff" stroke-width=".99"/><path d="M18.42 12.88a.75.75 0 1 1-1.5 0 .75.75 0 0 1 1.5 0zM29.7 27.17a.75.75 0 1 1-1.5 0 .75.75 0 0 1 1.5 0z" fill="#fff" stroke="#fff" stroke-width=".99"/><path d="M16.54 26.8h2.25v2.24h-2.25zm14.29-12.05h2.25V17h-2.25zm-9.03 3.78h2.24v2.25H21.8z" fill="#fff"/></svg>