<?xml version="1.0" encoding="UTF-8" standalone="no"?>
<svg
   xmlns:dc="http://purl.org/dc/elements/1.1/"
   xmlns:cc="http://creativecommons.org/ns#"
   xmlns:rdf="http://www.w3.org/1999/02/22-rdf-syntax-ns#"
   xmlns:svg="http://www.w3.org/2000/svg"
   xmlns="http://www.w3.org/2000/svg"
   xmlns:xlink="http://www.w3.org/1999/xlink"
   xmlns:sodipodi="http://sodipodi.sourceforge.net/DTD/sodipodi-0.dtd"
   xmlns:inkscape="http://www.inkscape.org/namespaces/inkscape"
   width="48"
   height="48"
   version="1"
   id="svg47"
   sodipodi:docname="libreoffice-oasis-spreadsheet-template.svg"
   inkscape:version="0.92.4 (5da689c313, 2019-01-14)">
  <metadata
     id="metadata51">
    <rdf:RDF>
      <cc:Work
         rdf:about="">
        <dc:format>image/svg+xml</dc:format>
        <dc:type
           rdf:resource="http://purl.org/dc/dcmitype/StillImage" />
        <dc:title></dc:title>
      </cc:Work>
    </rdf:RDF>
  </metadata>
  <sodipodi:namedview
     pagecolor="#ffffff"
     bordercolor="#666666"
     borderopacity="1"
     objecttolerance="10"
     gridtolerance="10"
     guidetolerance="10"
     inkscape:pageopacity="0"
     inkscape:pageshadow="2"
     inkscape:window-width="1112"
     inkscape:window-height="480"
     id="namedview49"
     showgrid="false"
     inkscape:zoom="4.9166667"
     inkscape:cx="2.1355932"
     inkscape:cy="24"
     inkscape:window-x="0"
     inkscape:window-y="25"
     inkscape:window-maximized="0"
     inkscape:current-layer="svg47" />
  <defs
     id="defs27">
    <linearGradient
       id="c">
      <stop
         offset="0"
         id="stop2" />
      <stop
         offset="1"
         stop-opacity="0"
         id="stop4" />
    </linearGradient>
    <linearGradient
       id="b">
      <stop
         offset="0"
         id="stop7" />
      <stop
         offset="1"
         stop-opacity="0"
         id="stop9" />
    </linearGradient>
    <linearGradient
       xlink:href="#a"
       id="d"
       x1="14.94"
       y1="47.97"
       x2="34.08"
       y2="1"
       gradientUnits="userSpaceOnUse"
       gradientTransform="translate(0,-0.05)" />
    <linearGradient
       id="a">
      <stop
         stop-color="#ccc"
         offset="0"
         id="stop13" />
      <stop
         stop-color="#e6e6e6"
         offset=".17"
         id="stop15" />
      <stop
         stop-color="#999"
         offset=".43"
         id="stop17" />
      <stop
         stop-color="#999"
         offset=".51"
         id="stop19" />
      <stop
         stop-color="gray"
         offset=".74"
         id="stop21" />
      <stop
         stop-color="#e6e6e6"
         offset="1"
         id="stop23" />
    </linearGradient>
    <linearGradient
       xlink:href="#c"
       id="e"
       gradientUnits="userSpaceOnUse"
       x1="4.57"
       y1="8.68"
       x2="45.98"
       y2="36.99" />
  </defs>
  <path
     d="M 40.89,17.37 33.06,47.92 H 14.94 L 7.11,17.37 13.01,-0.02 H 35 Z"
     id="path29"
     style="fill:url(#d)"
     inkscape:connector-curvature="0" />
  <path
     d="m 18.28,43.77 -3.34,4.15 h 18.12 l -3.34,-4.15 z"
     id="path31"
     inkscape:connector-curvature="0"
     style="fill:#1a1a1a;fill-opacity:0.1" />
  <path
     d="m 29.72,43.77 3.34,4.15 7.83,-30.55 -4.44,0.16 z"
     id="path33"
     inkscape:connector-curvature="0"
     style="fill:#1a1a1a;fill-opacity:0.47000002" />
  <path
     d="m 13.01,-0.02 3.08,4.15 h 15.8 l 3.1,-4.15 z"
     id="path35"
     inkscape:connector-curvature="0"
     style="fill:#1a1a1a;fill-opacity:0.35" />
  <path
     d="m 40.89,17.37 -5.9,-17.39 -3.09,4.15 4.55,13.4 z"
     id="path37"
     inkscape:connector-curvature="0"
     style="fill:#1a1a1a;fill-opacity:0.70999995" />
  <path
     d="m 18.28,43.77 -3.34,4.15 -7.83,-30.55 4.44,0.16 z"
     id="path39"
     inkscape:connector-curvature="0"
     style="fill:#1a1a1a;fill-opacity:0.47000002" />
  <path
     d="m 7.11,17.37 5.9,-17.39 3.09,4.15 -4.55,13.4 z"
     id="path41"
     inkscape:connector-curvature="0"
     style="fill:#1a1a1a;fill-opacity:0.70999995" />
  <path
     d="m 35.2,13.92 -2.56,-2.56 -16.92,0.39 -0.36,16.9 14.52,14.5 6.56,-25.57 z"
     id="path43"
     style="opacity:0.51999996;fill:url(#e)"
     inkscape:connector-curvature="0" />
  <path
     style="line-height:normal;text-indent:0;text-align:start;text-decoration:none;text-decoration-line:none;text-transform:none;fill:#ffffff;marker:none"
     d="M 15.36,11.36 V 28.64 H 32.64 V 11.36 Z m 11.79,0.81 h 4.71 v 2.49 h -4.74 z m -11.01,3.3 h 4.68 v 2.48 h -4.68 z m 5.49,0 h 4.68 v 2.48 h -4.65 z m 5.49,0 h 4.74 v 2.48 h -4.74 z m -10.98,3.29 h 4.68 v 2.48 h -4.68 z m 5.49,3.29 h 4.68 v 2.49 h -4.65 z m 5.49,0 h 4.74 v 2.49 h -4.74 z m -10.98,3.3 h 4.68 v 2.48 h -4.68 z m 5.49,0 h 4.68 v 2.48 h -4.65 z m 5.49,0 h 4.74 v 2.48 h -4.74 z"
     id="path45"
     inkscape:connector-curvature="0" />
</svg>
