<svg xmlns="http://www.w3.org/2000/svg" xmlns:xlink="http://www.w3.org/1999/xlink" viewBox="0 0 48 48"><defs><linearGradient xlink:href="#a" id="b" x1="9.76" y1="1.6" x2="42" y2="33.88" gradientUnits="userSpaceOnUse"/><linearGradient id="a"><stop offset="0" stop-color="red"/><stop offset=".18" stop-color="#d35f5f"/><stop offset=".33" stop-color="#d72b2b"/><stop offset=".5" stop-color="#ff2a2a"/><stop offset=".68" stop-color="#e94545"/><stop offset=".81" stop-color="#d35f5f"/><stop offset="1" stop-color="#d40000"/></linearGradient></defs><path d="M40.89 17.42l-7.83 30.55H14.94L7.11 17.42 13.01.03H35z" fill="url(#b)"/><path d="M18.28 43.82l-3.34 4.15h18.12l-3.34-4.15z" fill="#280b0b" fill-opacity=".1"/><path d="M13.01.03l3.08 4.15h15.8l3.1-4.15z" fill="#280b0b" fill-opacity=".35"/><path d="M18.27 43.82l-3.34 4.15L7.1 17.42l4.44.16z" fill="#280b0b" fill-opacity=".47"/><path d="M7.1 17.42L13 .03l3.09 4.15-4.55 13.4zm33.79 0L34.99.03 31.9 4.18l4.55 13.4z" fill="#280b0b" fill-opacity=".71"/><path d="M29.72 43.82l3.34 4.15 7.83-30.55-4.44.16z" fill="#280b0b" fill-opacity=".47"/><path d="M19.37 7.9h-.1c-.69 0-1.07 1.14-1.7 1.29-.27 1.02.67.49 1.12 0v3.02c-.15.53.57.23.87.3V8.73c-.03-.26.16-.83-.15-.83zm0 8.01h-.1c-.69 0-1.07 1.1-1.7 1.29-.27 1.02.67.5 1.12 0v3.02c-.15.53.57.23.87.3v-3.77c-.03-.27.16-.84-.15-.84zm3 0c-1.26 0-1.52 1.4-1.52 2.35-.08.98.26 2.38 1.51 2.34 1.21.08 1.51-1.36 1.47-2.34.04-.95-.26-2.38-1.5-2.35zm0 .76c.44 0 .48.57.52.9.08.69.15 2.88-.95 2.05-.15-.9-.52-2.42.38-2.95zm-3 7.26h-.1c-.69 0-1.07 1.1-1.7 1.28-.27 1.02.67.5 1.12 0v3.03c-.15.52.57.22.87.3v-3.78c-.03-.27.16-.83-.15-.87zm7.15 0h-.2c-.67 0-1.01 1.1-1.65 1.28-.27 1.02.64.5 1.13 0v3.03c-.15.52.57.22.87.3v-3.78c-.08-.27.15-.83-.15-.87zm-4.16 0c-1.25-.04-1.51 1.36-1.51 2.34-.08.98.26 2.38 1.51 2.34 1.21.04 1.51-1.36 1.47-2.34.04-.94-.26-2.38-1.5-2.34zm0 .75c.45 0 .5.57.53.91.08.68.15 2.87-.95 2.04-.15-.9-.52-2.46.38-2.95zm-2.99 7.18l-.15.04c-.68 0-1.05 1.1-1.7 1.25-.26 1.06.68.53 1.14.04v3.02c-.15.53.56.23.87.3v-3.78c-.04-.3.15-.83-.16-.87zm7.15 0l-.2.04c-.67 0-1.01 1.1-1.65 1.25-.27 1.06.64.53 1.13.04v3.02c-.15.53.57.23.87.3v-3.78c-.08-.3.15-.83-.15-.87zm-4.16.04c-1.25-.04-1.51 1.36-1.51 2.35-.08.98.26 2.38 1.51 2.34 1.21.04 1.51-1.36 1.47-2.34.04-.99-.26-2.39-1.5-2.35zm7.1 0c-1.24-.04-1.5 1.36-1.5 2.35-.04.98.3 2.38 1.5 2.34 1.22.04 1.52-1.36 1.52-2.34 0-.99-.3-2.39-1.51-2.35zm-7.1.76c.45 0 .5.56.53.9.08.69.15 2.88-.95 2.05-.15-.91-.52-2.46.38-2.99zm7.1 0c.46 0 .54.56.57.9.08.69.15 2.88-.94 2.05-.2-.91-.53-2.46.38-2.99z" fill="#280b0b"/><path d="M18.88 7.41h-.15c-.68 0-1.02 1.13-1.66 1.29-.27 1.02.64.49 1.13 0v3.02c-.15.53.53.23.87.3V8.24c-.07-.26.15-.83-.19-.83zm0 8.01h-.15c-.68 0-1.02 1.1-1.66 1.29-.27 1.02.64.49 1.13 0v3.02c-.15.53.53.23.87.3v-3.78c-.07-.26.15-.83-.19-.83zm2.99 0c-1.25 0-1.51 1.4-1.51 2.35-.04.98.3 2.38 1.5 2.34 1.22.08 1.52-1.36 1.52-2.34 0-.95-.3-2.38-1.51-2.35zm0 .76c.45 0 .53.57.53.9.07.69.19 2.88-.95 2.05-.15-.91-.49-2.42.38-2.95zm-2.99 7.26h-.15c-.68 0-1.02 1.1-1.66 1.28-.27 1.02.64.5 1.13 0v3.02c-.15.53.53.23.87.3v-3.77c-.07-.27.15-.83-.19-.87zm7.18 0h-.18c-.68 0-1.06 1.1-1.7 1.28-.27 1.02.68.5 1.13 0v3.02c-.15.53.57.23.87.3v-3.77c-.04-.27.15-.83-.15-.87zm-4.2 0c-1.24-.04-1.5 1.36-1.5 2.34-.04.98.3 2.38 1.5 2.34 1.22.04 1.52-1.36 1.52-2.34 0-.95-.3-2.38-1.51-2.34zm0 .75c.46 0 .54.57.54.9.07.69.19 2.88-.95 2.05-.15-.9-.49-2.46.38-2.95zm-2.98 7.22l-.15.04c-.68 0-1.02 1.1-1.66 1.25-.27 1.05.64.52 1.13.03v3.03c-.15.53.53.22.87.3v-3.78c-.07-.3.15-.83-.19-.87zm7.18 0l-.18.04c-.68 0-1.06 1.1-1.7 1.25-.27 1.05.68.52 1.13.03v3.03c-.15.53.57.22.87.3v-3.78c-.04-.3.15-.83-.15-.87zm-4.2.04c-1.24-.04-1.5 1.36-1.5 2.34-.04.98.3 2.38 1.5 2.35 1.22.03 1.52-1.37 1.52-2.35s-.3-2.38-1.51-2.34zm7.11 0c-1.2-.04-1.5 1.36-1.47 2.34-.07.98.27 2.38 1.51 2.35 1.21.03 1.51-1.37 1.48-2.35.03-.98-.27-2.38-1.52-2.34zm-7.1.75c.45 0 .53.57.53.91.07.68.19 2.87-.95 2.04-.15-.9-.49-2.45.38-2.98zm7.1 0c.5 0 .53.57.57.91.08.68.15 2.87-.94 2.04-.15-.9-.53-2.45.37-2.98z" fill="#f4d7d7"/></svg>