<?xml version="1.0" encoding="UTF-8" standalone="no"?>
<svg
   xmlns:dc="http://purl.org/dc/elements/1.1/"
   xmlns:cc="http://creativecommons.org/ns#"
   xmlns:rdf="http://www.w3.org/1999/02/22-rdf-syntax-ns#"
   xmlns:svg="http://www.w3.org/2000/svg"
   xmlns="http://www.w3.org/2000/svg"
   xmlns:xlink="http://www.w3.org/1999/xlink"
   xmlns:sodipodi="http://sodipodi.sourceforge.net/DTD/sodipodi-0.dtd"
   xmlns:inkscape="http://www.inkscape.org/namespaces/inkscape"
   viewBox="0 0 48 48"
   version="1.1"
   id="svg42"
   sodipodi:docname="text-x-csharp.svg"
   inkscape:version="0.92.4 (5da689c313, 2019-01-14)">
  <metadata
     id="metadata46">
    <rdf:RDF>
      <cc:Work
         rdf:about="">
        <dc:format>image/svg+xml</dc:format>
        <dc:type
           rdf:resource="http://purl.org/dc/dcmitype/StillImage" />
        <dc:title></dc:title>
      </cc:Work>
    </rdf:RDF>
  </metadata>
  <sodipodi:namedview
     pagecolor="#ffffff"
     bordercolor="#666666"
     borderopacity="1"
     objecttolerance="10"
     gridtolerance="10"
     guidetolerance="10"
     inkscape:pageopacity="0"
     inkscape:pageshadow="2"
     inkscape:window-width="1112"
     inkscape:window-height="480"
     id="namedview44"
     showgrid="false"
     inkscape:zoom="4.9166667"
     inkscape:cx="2.1355932"
     inkscape:cy="24"
     inkscape:window-x="0"
     inkscape:window-y="25"
     inkscape:window-maximized="0"
     inkscape:current-layer="svg42" />
  <defs
     id="defs24">
    <linearGradient
       id="b">
      <stop
         offset="0"
         id="stop2" />
      <stop
         offset="1"
         stop-opacity="0"
         id="stop4" />
    </linearGradient>
    <linearGradient
       xlink:href="#a"
       id="c"
       x1="15.97"
       y1="56.88"
       x2="25.88"
       y2="-.87"
       gradientUnits="userSpaceOnUse"
       gradientTransform="translate(0.01)" />
    <linearGradient
       id="a">
      <stop
         offset="0"
         stop-color="#a00"
         id="stop8" />
      <stop
         offset=".21"
         stop-color="#ff2a2a"
         id="stop10" />
      <stop
         offset=".33"
         stop-color="#d72b2b"
         id="stop12" />
      <stop
         offset=".62"
         stop-color="#ff5252"
         id="stop14" />
      <stop
         offset=".76"
         stop-color="#ff2a2a"
         id="stop16" />
      <stop
         offset=".89"
         stop-color="#ff2a2a"
         id="stop18" />
      <stop
         offset="1"
         stop-color="#ff2a2a"
         id="stop20" />
    </linearGradient>
    <linearGradient
       xlink:href="#b"
       id="d"
       gradientUnits="userSpaceOnUse"
       x1="12.59"
       y1="9.13"
       x2="41"
       y2="29.53" />
  </defs>
  <path
     d="M 40.9,17.42 33.07,47.97 H 14.95 L 7.12,17.42 13.02,0.03 h 21.99 z"
     id="path26"
     style="fill:url(#c)"
     inkscape:connector-curvature="0" />
  <path
     d="m 18.29,43.82 -3.34,4.15 h 18.12 l -3.34,-4.15 z"
     id="path28"
     inkscape:connector-curvature="0"
     style="fill:#280b0b;fill-opacity:0.1" />
  <path
     d="M 13.02,0.03 16.1,4.18 H 31.9 L 35,0.03 Z"
     id="path30"
     inkscape:connector-curvature="0"
     style="fill:#280b0b;fill-opacity:0.35" />
  <path
     d="m 18.28,43.82 -3.34,4.15 -7.83,-30.55 4.44,0.16 z"
     id="path32"
     inkscape:connector-curvature="0"
     style="fill:#280b0b;fill-opacity:0.47000002" />
  <path
     d="m 7.11,17.42 5.9,-17.39 3.09,4.15 -4.55,13.4 z m 33.79,0 -5.9,-17.39 -3.09,4.15 4.55,13.4 z"
     id="path34"
     inkscape:connector-curvature="0"
     style="fill:#280b0b;fill-opacity:0.70999995" />
  <path
     d="m 29.73,43.82 3.34,4.15 7.83,-30.55 -4.44,0.16 z"
     id="path36"
     inkscape:connector-curvature="0"
     style="fill:#280b0b;fill-opacity:0.47000002" />
  <path
     d="M 31.56,36.64 36.17,18.67 31.5,14 30.4,15.46 28.92,14 27.8,16.34 24.62,13.16 21.4,13.7 l -3.63,1.45 -0.72,7 z"
     id="path38"
     style="opacity:0.61000001;fill:url(#d)"
     inkscape:connector-curvature="0" />
  <path
     style="line-height:normal;text-indent:0;text-align:start;text-decoration:none;text-decoration-line:none;text-transform:none;fill:#e9afaf;marker:none"
     d="m 21.9,12.62 a 9.34,9.34 0 0 0 -0.93,0 9.34,9.34 0 0 0 -0.14,0 c -0.45,0 -0.9,0.1 -1.29,0.2 a 4.9,4.9 0 0 0 -3.95,3.95 c -0.3,2.03 0.2,4.45 2.02,5.64 2.08,1.28 4.8,1.18 7.02,0.44 v -2.07 c 0.15,-1 -0.4,-0.35 -0.99,-0.1 -1.38,0.59 -3.4,0.59 -4.25,-0.9 -0.69,-1.28 -0.64,-3.06 0.45,-4.15 1.33,-1.13 3.46,-0.74 4.8,0.2 v -2.67 a 9.34,9.34 0 0 0 -2.75,-0.54 z m 5.84,1.38 -0.5,2.03 h -1.78 v 1.14 h 1.49 l -0.35,1.48 h -1.78 v 1.14 h 1.48 l -0.49,2.07 H 27 l 0.5,-2.07 h 1.42 l -0.5,2.07 h 1.15 l 0.5,-2.07 h 1.82 v -1.14 h -1.48 l 0.34,-1.48 h 1.73 V 16.03 H 31 L 31.5,14 h -1.14 l -0.5,2.03 H 28.43 L 28.93,14 Z m 0.4,3.17 h 1.43 l -0.4,1.48 H 27.8 Z"
     id="path40"
     inkscape:connector-curvature="0" />
</svg>
