<?xml version="1.0" encoding="UTF-8" standalone="no"?><svg xmlns:dc="http://purl.org/dc/elements/1.1/" xmlns:cc="http://creativecommons.org/ns#" xmlns:rdf="http://www.w3.org/1999/02/22-rdf-syntax-ns#" xmlns="http://www.w3.org/2000/svg" xmlns:xlink="http://www.w3.org/1999/xlink" width="48" height="48" version="1"><metadata><rdf:RDF><cc:Work><dc:format>image/svg+xml</dc:format><dc:type rdf:resource="http://purl.org/dc/dcmitype/StillImage"/><dc:title/></cc:Work></rdf:RDF></metadata><defs><linearGradient id="c"><stop offset="0" stop-color="#e6e6e6"/><stop offset=".2" stop-color="gray"/><stop offset=".33" stop-color="#999"/><stop offset=".57" stop-color="#999"/><stop offset=".76" stop-color="#e6e6e6"/><stop offset="1" stop-color="#ccc"/></linearGradient><linearGradient id="b"><stop offset="0" stop-color="#2c5aa0"/><stop offset=".2" stop-color="#3771c8"/><stop offset=".33" stop-color="#2c5aa0"/><stop offset=".44" stop-color="#3771c8"/><stop offset=".57" stop-color="#3771c8"/><stop offset=".76" stop-color="#5f8dd3"/><stop offset="1" stop-color="#2c5aa0" stop-opacity="0"/></linearGradient><clipPath id="g"><path d="M-5.02.03l-3.1 4.15H-23.9l-4.55 13.4 6.73 26.24h11.44l6.73-26.24-4.55-13.4z" fill="url(#a)"/></clipPath><linearGradient xlink:href="#b" id="a" gradientUnits="userSpaceOnUse" gradientTransform="translate(-40)" x1="8.14" y1="13.51" x2="36.28" y2="35.97"/><filter id="h" x="-.08" width="1.17" y="-.05" height="1.09" color-interpolation-filters="sRGB"><feGaussianBlur stdDeviation=".86"/></filter><linearGradient xlink:href="#c" id="f" x1="7.11" y1="24" x2="35.45" y2="40.15" gradientUnits="userSpaceOnUse"/><linearGradient id="d"><stop offset="0" stop-color="#1a1a1a"/><stop offset="1" stop-color="#1a1a1a" stop-opacity=".51"/></linearGradient><linearGradient id="e"><stop offset="0" stop-color="#1f241c"/><stop offset="1" stop-color="#1f241c" stop-opacity="0"/></linearGradient><linearGradient xlink:href="#e" id="i" gradientUnits="userSpaceOnUse" gradientTransform="translate(.57 3.66)" x1="5.51" y1="3.37" x2="46.58" y2="39.67"/></defs><path d="M40.89 17.42l-7.83 30.55H14.94L7.11 17.42 13.01.03H35z" fill="url(#f)"/><path transform="translate(40.73 -1) scale(1.04567)" clip-path="url(#g)" d="M-5.02.03l-3.1 4.15H-23.9l-4.55 13.4 6.73 26.24h11.44l6.73-26.24-4.55-13.4z" fill="none" stroke="#1a1a1a" stroke-width="1.91" filter="url(#h)"/><path d="M18.28 43.82l-3.34 4.15h18.12l-3.34-4.15z" fill="#1a1a1a" fill-opacity=".1"/><path d="M29.72 43.82l3.34 4.15 7.83-30.55-4.44.16z" fill="#1a1a1a" fill-opacity=".47"/><path d="M13.01.03l3.08 4.15h15.8l3.1-4.15z" fill="#1a1a1a" fill-opacity=".35"/><path d="M40.89 17.42L34.99.03 31.9 4.18l4.55 13.4z" fill="#1a1a1a" fill-opacity=".71"/><path d="M18.28 43.82l-3.34 4.15-7.83-30.55 4.44.16z" fill="#1a1a1a" fill-opacity=".47"/><path d="M7.11 17.42L13.01.03l3.09 4.15-4.55 13.4z" fill="#1a1a1a" fill-opacity=".71"/><path d="M29.86 43.25l6.08-23.71-5.25-5.25-8.4 1.48-2.9-1.96-2.15 2.7 4.64 4.7-.67 1.2 4.5 4.7-3.42.42-2.83-1.68-2.35 2.61 5.1 5.05-1.26.94z" opacity=".55" fill="url(#i)"/><ellipse cx="18.02" cy="15" rx="1.71" ry="1.81" fill="#1f241c"/><ellipse cx="22.02" cy="21" rx="1.71" ry="1.81" fill="#1f241c"/><ellipse cx="18.02" cy="27" rx="1.71" ry="1.81" fill="#1f241c"/><ellipse cx="22.02" cy="33" rx="1.71" ry="1.81" fill="#1f241c"/><rect rx=".81" width="8.93" height="1.9" x="21.82" y="14.05" ry=".81" fill="#1f241c"/><rect rx=".81" width="8.93" height="1.9" x="21.82" y="26.05" ry=".81" fill="#1f241c"/><rect rx=".81" width="5.04" height="1.9" x="25.72" y="20.05" ry=".81" fill="#1f241c"/><rect rx=".81" width="5.04" height="1.9" x="25.72" y="32.05" ry=".81" fill="#1f241c"/></svg>