<svg xmlns="http://www.w3.org/2000/svg" xmlns:xlink="http://www.w3.org/1999/xlink" width="48" height="48" version="1"><defs><linearGradient id="c"><stop offset="0" stop-color="#ac939d"/><stop offset=".2" stop-color="#c8b7be"/><stop offset=".33" stop-color="#a78b96"/><stop offset=".44" stop-color="#beaab2"/><stop offset=".57" stop-color="#ac939d"/><stop offset=".76" stop-color="#916f7c"/><stop offset="1" stop-color="#c8b7be"/></linearGradient><linearGradient id="b"><stop offset="0" stop-color="#2c5aa0"/><stop offset=".2" stop-color="#3771c8"/><stop offset=".33" stop-color="#2c5aa0"/><stop offset=".44" stop-color="#3771c8"/><stop offset=".57" stop-color="#3771c8"/><stop offset=".76" stop-color="#5f8dd3"/><stop offset="1" stop-color="#2c5aa0" stop-opacity="0"/></linearGradient><linearGradient id="d"><stop offset="0"/><stop offset="1" stop-opacity="0"/></linearGradient><linearGradient xlink:href="#b" id="a" gradientUnits="userSpaceOnUse" gradientTransform="translate(-40)" x1="8.14" y1="13.51" x2="36.28" y2="35.97"/><linearGradient xlink:href="#c" id="e" x1="13.58" y1="52.21" x2="33.12" y2="2.07" gradientUnits="userSpaceOnUse"/><linearGradient xlink:href="#d" id="f" gradientUnits="userSpaceOnUse" gradientTransform="translate(-5.27 -5.53) scale(1.22674)" x1="16.31" y1="17.41" x2="40.31" y2="28.65"/></defs><path d="M40.89 17.42l-7.83 30.55H14.94L7.11 17.42 13.01.03H35z" fill="url(#e)"/><path d="M18.28 43.82l-3.34 4.15h18.12l-3.34-4.15z" fill="#241c1f" fill-opacity=".1"/><path d="M29.72 43.82l3.34 4.15 7.83-30.55-4.44.16z" fill="#241c1f" fill-opacity=".47"/><path d="M13.01.03l3.08 4.15h15.8l3.1-4.15z" fill="#241c1f" fill-opacity=".35"/><path d="M40.89 17.42L34.99.03 31.9 4.18l4.55 13.4z" fill="#241c1f" fill-opacity=".71"/><path d="M18.28 43.82l-3.34 4.15-7.83-30.55 4.44.16z" fill="#241c1f" fill-opacity=".47"/><path d="M7.11 17.42L13.01.03l3.09 4.15-4.55 13.4z" fill="#241c1f" fill-opacity=".71"/><path d="M30.77 39.7l4.8-18.7-9.84-9.84-3.12 13.97 3.1 3.67-2.77 3.07z" opacity=".5" fill="url(#f)"/><rect width="3.89" height="14.95" x="22.16" y="10.6" rx="1.22" ry="1.22" fill="#e3dbdb"/><ellipse cx="24.17" cy="30.15" rx="2.01" ry="2.16" fill="#e3dbdb"/></svg>