<svg xmlns="http://www.w3.org/2000/svg" xmlns:xlink="http://www.w3.org/1999/xlink" width="48" height="48" viewBox="0 0 12.7 12.7"><defs><linearGradient id="a"><stop offset="0"/><stop offset="1" stop-opacity="0"/></linearGradient><linearGradient xlink:href="#a" id="d" x1="3.03" y1="4.01" x2="12.01" y2="8.57" gradientUnits="userSpaceOnUse"/><linearGradient xlink:href="#b" id="c" x1="9.42" y1="37.6" x2="41.07" y2="20.93" gradientUnits="userSpaceOnUse"/><linearGradient id="b"><stop offset="0" stop-color="#87a087"/><stop offset=".2" stop-color="#6f916f"/><stop offset=".33" stop-color="#536c53"/><stop offset=".44" stop-color="#6a836a"/><stop offset=".57" stop-color="#87a087"/><stop offset=".76" stop-color="#536c53"/><stop offset="1" stop-color="#6f916f"/></linearGradient></defs><path d="M40.89 17.42l-7.83 30.55H14.94L7.11 17.42 13.01.03H35z" fill="url(#c)" transform="scale(.26458)"/><path d="M4.84 11.59l-.89 1.1h4.8l-.89-1.1z" fill="#1c241c" fill-opacity=".1"/><path d="M7.86 11.59l.89 1.1 2.07-8.09-1.18.05z" fill="#1c241c" fill-opacity=".47"/><path d="M3.44 0l.82 1.1h4.18L9.26 0z" fill="#1c241c" fill-opacity=".35"/><path d="M10.82 4.6L9.26 0l-.82 1.1 1.2 3.55z" fill="#1c241c" fill-opacity=".71"/><path d="M4.84 11.59l-.89 1.1L1.88 4.6l1.18.05z" fill="#1c241c" fill-opacity=".47"/><path d="M1.88 4.6L3.44 0l.82 1.1-1.2 3.55z" fill="#1c241c" fill-opacity=".71"/><path d="M4.07 7.14l1.3-3.9L7 4.85l1.63-1.63.8.8.21.62-.58 2.27L8 11.07l-1.65-1.6-.29-.33L4.42 7.5z" fill="url(#d)" opacity=".55"/><path d="M4.07 3.23v3.91h1.3V5.2l.33.43v1.9H4.42l1.93 1.95 2-1.96H7V5.63l.32-.44v1.95h1.3v-3.9h-1.3l-.94 1.95-1.02-1.96z" fill="#ccc"/></svg>