<?xml version="1.0" encoding="UTF-8" standalone="no"?>
<svg
   xmlns:dc="http://purl.org/dc/elements/1.1/"
   xmlns:cc="http://creativecommons.org/ns#"
   xmlns:rdf="http://www.w3.org/1999/02/22-rdf-syntax-ns#"
   xmlns:svg="http://www.w3.org/2000/svg"
   xmlns="http://www.w3.org/2000/svg"
   xmlns:xlink="http://www.w3.org/1999/xlink"
   xmlns:sodipodi="http://sodipodi.sourceforge.net/DTD/sodipodi-0.dtd"
   xmlns:inkscape="http://www.inkscape.org/namespaces/inkscape"
   width="48"
   height="48"
   version="1"
   id="svg60"
   sodipodi:docname="text-html.svg"
   inkscape:version="0.92.4 (5da689c313, 2019-01-14)">
  <metadata
     id="metadata64">
    <rdf:RDF>
      <cc:Work
         rdf:about="">
        <dc:format>image/svg+xml</dc:format>
        <dc:type
           rdf:resource="http://purl.org/dc/dcmitype/StillImage" />
        <dc:title></dc:title>
      </cc:Work>
    </rdf:RDF>
  </metadata>
  <sodipodi:namedview
     pagecolor="#ffffff"
     bordercolor="#666666"
     borderopacity="1"
     objecttolerance="10"
     gridtolerance="10"
     guidetolerance="10"
     inkscape:pageopacity="0"
     inkscape:pageshadow="2"
     inkscape:window-width="1112"
     inkscape:window-height="480"
     id="namedview62"
     showgrid="false"
     inkscape:zoom="4.9166667"
     inkscape:cx="2.1355932"
     inkscape:cy="24"
     inkscape:window-x="0"
     inkscape:window-y="25"
     inkscape:window-maximized="0"
     inkscape:current-layer="svg60" />
  <defs
     id="defs40">
    <linearGradient
       id="c">
      <stop
         offset="0"
         stop-color="#2c5aa0"
         id="stop2" />
      <stop
         offset=".2"
         stop-color="#3771c8"
         id="stop4" />
      <stop
         offset=".33"
         stop-color="#2c5aa0"
         id="stop6" />
      <stop
         offset=".44"
         stop-color="#3771c8"
         id="stop8" />
      <stop
         offset=".57"
         stop-color="#3771c8"
         id="stop10" />
      <stop
         offset=".76"
         stop-color="#5f8dd3"
         id="stop12" />
      <stop
         offset="1"
         stop-color="#3771c8"
         id="stop14" />
    </linearGradient>
    <linearGradient
       id="b">
      <stop
         offset="0"
         stop-color="#2c5aa0"
         id="stop17" />
      <stop
         offset=".2"
         stop-color="#3771c8"
         id="stop19" />
      <stop
         offset=".33"
         stop-color="#2c5aa0"
         id="stop21" />
      <stop
         offset=".44"
         stop-color="#3771c8"
         id="stop23" />
      <stop
         offset=".57"
         stop-color="#3771c8"
         id="stop25" />
      <stop
         offset=".76"
         stop-color="#5f8dd3"
         id="stop27" />
      <stop
         offset="1"
         stop-color="#2c5aa0"
         stop-opacity="0"
         id="stop29" />
    </linearGradient>
    <linearGradient
       xlink:href="#b"
       id="a"
       gradientUnits="userSpaceOnUse"
       gradientTransform="translate(-40)"
       x1="8.14"
       y1="13.51"
       x2="36.28"
       y2="35.97" />
    <linearGradient
       xlink:href="#c"
       id="e"
       x1="7.11"
       y1="24"
       x2="35.45"
       y2="40.15"
       gradientUnits="userSpaceOnUse" />
    <linearGradient
       gradientTransform="translate(39.83 1.05)"
       id="d"
       x1="-7.06"
       x2="50.91"
       y1="-8.09"
       y2="41.72"
       gradientUnits="userSpaceOnUse">
      <stop
         offset="0"
         id="stop34" />
      <stop
         stop-opacity="0"
         offset="1"
         id="stop36" />
    </linearGradient>
    <linearGradient
       xlink:href="#d"
       id="f"
       gradientUnits="userSpaceOnUse"
       gradientTransform="translate(-0.17,1.05)"
       x1="-7.06"
       y1="-8.09"
       x2="50.91"
       y2="41.72" />
  </defs>
  <path
     d="M 40.89,17.42 33.06,47.97 H 14.94 L 7.11,17.42 13.01,0.03 H 35 Z"
     id="path42"
     style="fill:url(#e)"
     inkscape:connector-curvature="0" />
  <path
     d="m 18.28,43.82 -3.34,4.15 h 18.12 l -3.34,-4.15 z"
     id="path44"
     inkscape:connector-curvature="0"
     style="fill:#162d50;fill-opacity:0.1" />
  <path
     d="m 29.72,43.82 3.34,4.15 7.83,-30.55 -4.44,0.16 z"
     id="path46"
     inkscape:connector-curvature="0"
     style="fill:#162d50;fill-opacity:0.47000002" />
  <path
     d="m 13.01,0.03 3.08,4.15 h 15.8 l 3.1,-4.15 z"
     id="path48"
     inkscape:connector-curvature="0"
     style="fill:#162d50;fill-opacity:0.35" />
  <path
     d="M 40.89,17.42 34.99,0.03 31.9,4.18 36.45,17.58 Z"
     id="path50"
     inkscape:connector-curvature="0"
     style="fill:#162d50;fill-opacity:0.70999995" />
  <path
     d="m 18.28,43.82 -3.34,4.15 -7.83,-30.55 4.44,0.16 z"
     id="path52"
     inkscape:connector-curvature="0"
     style="fill:#162d50;fill-opacity:0.47000002" />
  <path
     d="m 7.11,17.42 5.9,-17.39 3.09,4.15 -4.55,13.4 z"
     id="path54"
     inkscape:connector-curvature="0"
     style="fill:#162d50;fill-opacity:0.70999995" />
  <path
     d="M 30.4,41.13 35.95,19.49 30.52,14.05 27.85,13 l -3.78,-1.19 -4.8,1.15 -3.57,4.13 -0.78,1.63 0.05,4 1.11,4.1 z"
     id="path56"
     style="opacity:0.5;fill:url(#f)"
     inkscape:connector-curvature="0" />
  <path
     style="color:#000000;text-indent:0;text-decoration:none;text-decoration-line:none;text-transform:none;fill:#afc6e9"
     d="m 23.2,11.42 v 0.02 a 9.63,9.63 0 0 0 -8.98,8.97 H 14.2 v 1.28 h 0.02 a 9.63,9.63 0 0 0 8.97,8.97 v 0.02 h 1.28 v -0.02 a 9.62,9.62 0 0 0 8.96,-8.97 h 0.03 v -1.28 h -0.03 a 9.62,9.62 0 0 0 -8.96,-8.97 v -0.02 h -0.64 z m 0,1.37 v 3.77 h -3.17 c 0.7,-2 1.83,-3.42 3.15,-3.77 z m 1.27,0 c 1.32,0.35 2.46,1.77 3.15,3.77 h -3.15 z m -4.24,0.73 a 9.81,9.81 0 0 0 -1.5,3.04 h -1.94 a 8.4,8.4 0 0 1 3.44,-3.04 z m 7.2,0 a 8.4,8.4 0 0 1 3.43,3.04 h -1.92 a 10.18,10.18 0 0 0 -1.5,-3.04 z m -11.3,4.32 h 2.25 c -0.17,0.81 -0.28,1.67 -0.32,2.57 h -2.55 c 0.07,-0.9 0.28,-1.77 0.61,-2.57 z m 3.55,0 h 3.5 v 2.57 h -3.83 c 0.04,-0.9 0.15,-1.77 0.33,-2.57 z m 4.8,0 h 3.5 c 0.18,0.8 0.3,1.66 0.33,2.57 h -3.84 z m 4.8,0 h 2.26 c 0.33,0.8 0.54,1.66 0.61,2.57 H 29.6 c -0.04,-0.9 -0.15,-1.76 -0.32,-2.57 z M 15.51,21.7 h 2.56 c 0.03,0.9 0.14,1.76 0.31,2.57 h -2.25 a 8.28,8.28 0 0 1 -0.6,-2.57 z m 3.84,0 h 3.84 v 2.57 h -3.5 c -0.19,-0.8 -0.3,-1.66 -0.34,-2.57 z m 5.12,0 h 3.84 c -0.04,0.9 -0.15,1.77 -0.33,2.57 h -3.5 z m 5.13,0 h 2.55 c -0.07,0.9 -0.28,1.77 -0.6,2.57 h -2.27 c 0.17,-0.8 0.28,-1.67 0.32,-2.57 z m -12.8,3.85 h 1.92 c 0.37,1.18 0.9,2.22 1.5,3.04 a 8.39,8.39 0 0 1 -3.43,-3.04 z m 3.24,0 h 3.15 v 3.77 c -1.32,-0.35 -2.46,-1.77 -3.15,-3.77 z m 4.43,0 h 3.15 c -0.7,2 -1.83,3.42 -3.15,3.77 z m 4.47,0 h 1.92 a 8.39,8.39 0 0 1 -3.43,3.04 c 0.62,-0.82 1.14,-1.86 1.51,-3.04 z"
     id="path58"
     inkscape:connector-curvature="0" />
</svg>
