<svg xmlns="http://www.w3.org/2000/svg" xmlns:xlink="http://www.w3.org/1999/xlink" width="48" height="48" version="1"><defs><linearGradient id="c"><stop offset="0" stop-color="#f60"/><stop offset=".2" stop-color="#ff8f44"/><stop offset=".33" stop-color="#ff7f2a"/><stop offset=".45" stop-color="#ff7f2a"/><stop offset=".65" stop-color="#e1610c"/><stop offset=".76" stop-color="#ff7f2a"/><stop offset="1" stop-color="#ff7f2a"/></linearGradient><linearGradient id="b"><stop offset="0" stop-color="#2c5aa0"/><stop offset=".2" stop-color="#3771c8"/><stop offset=".33" stop-color="#2c5aa0"/><stop offset=".44" stop-color="#3771c8"/><stop offset=".57" stop-color="#3771c8"/><stop offset=".76" stop-color="#5f8dd3"/><stop offset="1" stop-color="#2c5aa0" stop-opacity="0"/></linearGradient><linearGradient xlink:href="#b" id="a" gradientUnits="userSpaceOnUse" gradientTransform="translate(-40)" x1="8.14" y1="13.51" x2="36.28" y2="35.97"/><linearGradient xlink:href="#c" id="d" x1="11.36" y1="40.83" x2="16.86" y2=".31" gradientUnits="userSpaceOnUse"/></defs><path d="M40.89 17.42l-7.83 30.55H14.94L7.11 17.42 13.01.03H35z" fill="url(#d)"/><path d="M18.28 43.82l-3.34 4.15h18.12l-3.34-4.15z" fill="#803300" fill-opacity=".1"/><path d="M29.72 43.82l3.34 4.15 7.83-30.55-4.44.16z" fill="#803300" fill-opacity=".47"/><path d="M13.01.03l3.08 4.15h15.8l3.1-4.15z" fill="#803300" fill-opacity=".35"/><path d="M40.89 17.42L34.99.03 31.9 4.18l4.55 13.4z" fill="#803300" fill-opacity=".71"/><path d="M18.28 43.82l-3.34 4.15-7.83-30.55 4.44.16z" fill="#803300" fill-opacity=".47"/><path d="M7.11 17.42L13.01.03l3.09 4.15-4.55 13.4z" fill="#803300" fill-opacity=".71"/><path d="M12.136 15.71l-.596 1.78 2.97.01 4.33 13 4.34-14.74 2.6 8.67 3.46-8.67 2.6 8.67 2.81.076.492-1.806H33.58l-4.34-12.14-3.46 8.67-2.6-9.53-4.34 14.73-2.6-8.67z" fill="#803300"/></svg>