<svg xmlns="http://www.w3.org/2000/svg" width="24" height="24" viewBox="0 0 12.7 12.7"><defs><linearGradient id="a"><stop offset="0"/><stop offset="1" stop-opacity="0"/></linearGradient></defs><g fill="#1a1a1a" stroke-width="1.98"><path d="M6.127 2.883c-2.245 0-4.315.823-5.238 2.07-.324.45-.549.998-.549 1.297a.649.649 0 0 0 0 .225 59.415 59.415 0 0 0 1.821-.3c.025 0 .05-.224.05-.498 0-.35.025-.5.125-.749.748-1.446 3.492-2.22 5.612-1.496l.424.124.25-.324-.25-.075a9.204 9.204 0 0 0-2.245-.274zm0 2.42a.4.4 0 0 0-.05 0 1.122 1.122 0 0 1-.349.05h-.174l.174.074.3.15a18.234 18.234 0 0 1 3.242.499c3.093.548 3.218.548 3.118.474l-.998-.25c-4.739-.798-5.038-.848-5.113-.948a.125.125 0 0 0-.125-.05zM3.134 6.773v3.043l.374-.025c.649-.075.674-.1.674-.349v-.25l.449-.05c.548-.1.598-.398 1.396-.673a.748.748 0 0 0 .175-.499c0-.299-.025-.349-.274-.573-.4-.4-.923-.55-1.996-.599zm1.048.25l.124.05c.225.074.5.249.674.498.3.35.174.848-.35 1.173l-.374.2c-.05 0-.074-.225-.074-.974zm2.768-.25v2.395h1.073v-2.12h.449c.324 0 .424 0 .449.1.025.05.05.498.05 1.047v.998h.997V7.048h.923v1.098l.025 1.023h1.073v-2.12l-.25-.1a8.98 8.98 0 0 0-2.494-.15zm-5.662.05H.315L.29 7.996V9.17h1.073V7.248l.175-.05a1.073 1.073 0 0 1 .399.025c.2.075.25.05.499-.075l.249-.174-.2-.075a3.816 3.816 0 0 0-.598-.075z"/><path d="M8.622 3.207l-.25.35c.723.324 1.272.798 1.547 1.321.15.3.174.823.15.998v.3l1.945.324-.05-.4a3.342 3.342 0 0 0-.823-1.496 5.113 5.113 0 0 0-2.52-1.372z" opacity=".75"/></g></svg>