<svg xmlns="http://www.w3.org/2000/svg" width="24" height="24"><path d="M12 .2a3.96 3.96 0 0 0-3.95 3.96v3.38l-4.82-.7a1.5 1.5 0 0 0-.47-.08.7.7 0 0 0-.32.1c-.25.13-.43.32-.43.6 0 .26.18.5.43.63l5.61 1.68v3.61h.79V10l.47.15-.05 4.99L6.9 22.6c-.12.42-.07.74.13 1 .24.34.84.17 1.08-.18l3.9-8.07 3.85 8.06c.2.35.66.47 1.03.28.36-.2.38-.66.25-1.01l-2.35-7.51-.1-4.7.48-.16v3.06h.78v-3.33l5.7-1.99c.29-.2.4-.56.29-.86-.13-.32-.36-.4-.7-.37a1.26 1.26 0 0 0-.43.04l-4.86.7v-3.4A3.96 3.96 0 0 0 12 .2zm-.39.82v.88a1.87 1.87 0 0 1-1.87 1.87.4.4 0 0 0-.39.4 2.65 2.65 0 0 0 5.3 0 .4.4 0 0 0-.4-.4A1.87 1.87 0 0 1 12.4 1.9v-.88a3.17 3.17 0 0 1 2.79 3.14v3.52L12 8.12l-3.16-.46v-3.5a3.17 3.17 0 0 1 2.78-3.14z" fill="gray"/></svg>