<svg xmlns="http://www.w3.org/2000/svg" width="24" height="24" version="1"><path fill="#ececec" d="M10.17.6c-.23 0-.37.24-.35.65l.07 1.59c.03.66-.48 1.1-1.13.96l-3.51-.74c-.65-.13-.9.21-.53.78l.86 1.33c.36.56.13 1.2-.5 1.4l-3.4 1.11c-.64.21-.68.63-.08.94l1.4.73c.6.3.72.96.28 1.46l-2.4 2.67c-.44.5-.26.88.4.84l1.59-.07c.67-.03 1.1.48.96 1.14l-.73 3.5c-.14.65.21.89.77.53l1.34-.86c.56-.36 1.2-.13 1.4.5l1.11 3.4c.21.64.63.67.94.08l.73-1.4c.3-.6.96-.72 1.46-.28l2.67 2.4c.5.44.88.26.85-.41l-.08-1.58c-.03-.67.48-1.1 1.14-.97l3.5.74c.65.14.9-.21.53-.77l-.85-1.34c-.36-.56-.14-1.2.5-1.4l3.4-1.11c.63-.2.67-.63.08-.94l-1.41-.73c-.6-.3-.72-.96-.27-1.46l2.39-2.67c.44-.5.26-.87-.4-.84l-1.59.07c-.67.03-1.1-.48-.96-1.13l.73-3.5c.14-.66-.2-.9-.77-.54l-1.34.86c-.56.36-1.19.13-1.4-.5l-1.1-3.4c-.22-.64-.64-.67-.95-.08l-.72 1.41c-.31.6-.97.71-1.47.27L10.67.85c-.2-.17-.36-.25-.5-.24zm1.8 10.15a1.36 1.36 0 1 1 0 2.72 1.36 1.36 0 0 1 0-2.72z"/></svg>