<?xml version="1.0" encoding="UTF-8" standalone="no"?>
<svg
   xmlns:dc="http://purl.org/dc/elements/1.1/"
   xmlns:cc="http://creativecommons.org/ns#"
   xmlns:rdf="http://www.w3.org/1999/02/22-rdf-syntax-ns#"
   xmlns:svg="http://www.w3.org/2000/svg"
   xmlns="http://www.w3.org/2000/svg"
   xmlns:xlink="http://www.w3.org/1999/xlink"
   xmlns:sodipodi="http://sodipodi.sourceforge.net/DTD/sodipodi-0.dtd"
   xmlns:inkscape="http://www.inkscape.org/namespaces/inkscape"
   width="48"
   height="48"
   version="1.1"
   id="svg143"
   sodipodi:docname="chess.svg"
   inkscape:version="0.92.3 (2405546, 2018-03-11)">
  <sodipodi:namedview
     pagecolor="#ffffff"
     bordercolor="#666666"
     borderopacity="1"
     objecttolerance="10"
     gridtolerance="10"
     guidetolerance="10"
     inkscape:pageopacity="0"
     inkscape:pageshadow="2"
     inkscape:window-width="640"
     inkscape:window-height="480"
     id="namedview145"
     showgrid="false"
     inkscape:zoom="4.9166667"
     inkscape:cx="24"
     inkscape:cy="24"
     inkscape:window-x="0"
     inkscape:window-y="27"
     inkscape:window-maximized="0"
     inkscape:current-layer="svg143" />
  <metadata
     id="metadata2">
    <rdf:RDF>
      <cc:Work>
        <dc:format>image/svg+xml</dc:format>
        <dc:type
           rdf:resource="http://purl.org/dc/dcmitype/StillImage" />
        <dc:title></dc:title>
      </cc:Work>
    </rdf:RDF>
  </metadata>
  <defs
     id="defs107">
    <linearGradient
       id="g">
      <stop
         offset="0"
         stop-color="#999"
         id="stop4" />
      <stop
         offset="1"
         stop-color="#fff"
         id="stop6" />
    </linearGradient>
    <linearGradient
       id="f">
      <stop
         offset="0"
         stop-color="#fff"
         id="stop9" />
      <stop
         offset="1"
         stop-color="#1a1a1a"
         id="stop11" />
    </linearGradient>
    <linearGradient
       id="e">
      <stop
         offset="0"
         stop-color="#b3b3b3"
         id="stop14" />
      <stop
         offset=".2"
         stop-color="#333"
         id="stop16" />
      <stop
         offset=".29"
         stop-color="#1a1a1a"
         id="stop18" />
      <stop
         offset=".47"
         stop-color="#1a1a1a"
         id="stop20" />
      <stop
         offset=".66"
         stop-color="#1a1a1a"
         id="stop22" />
      <stop
         offset=".79"
         stop-color="#333"
         id="stop24" />
      <stop
         offset=".88"
         stop-color="#4d4d4d"
         id="stop26" />
      <stop
         offset="1"
         stop-color="#e6e6e6"
         id="stop28" />
    </linearGradient>
    <linearGradient
       id="d">
      <stop
         offset="0"
         id="stop31" />
      <stop
         offset="1"
         stop-opacity=".02"
         id="stop33" />
    </linearGradient>
    <linearGradient
       id="b">
      <stop
         offset="0"
         stop-color="#dbe2e3"
         id="stop36" />
      <stop
         offset="1"
         stop-color="#374548"
         id="stop38" />
    </linearGradient>
    <linearGradient
       id="a">
      <stop
         offset="0"
         stop-color="#aef"
         id="stop41" />
      <stop
         offset="1"
         stop-color="#fff"
         stop-opacity=".01"
         id="stop43" />
    </linearGradient>
    <linearGradient
       id="c">
      <stop
         offset="0"
         stop-color="#1a1a1a"
         id="stop46" />
      <stop
         offset="1"
         stop-color="#4d4d4d"
         id="stop48" />
    </linearGradient>
    <radialGradient
       xlink:href="#f"
       id="n"
       cx="24.01"
       cy="24"
       fx="24.01"
       fy="24"
       r="20.21"
       gradientTransform="matrix(1 0 0 1.17046 0 -4.09)"
       gradientUnits="userSpaceOnUse" />
    <radialGradient
       xlink:href="#g"
       id="o"
       cx="24"
       cy="23.89"
       fx="24"
       fy="23.89"
       r="19.33"
       gradientTransform="matrix(1 0 0 1.22363 0 -5.37)"
       gradientUnits="userSpaceOnUse" />
    <linearGradient
       xlink:href="#h"
       id="p"
       x1="33.68"
       y1="42.95"
       x2="54.92"
       y2="42.95"
       gradientUnits="userSpaceOnUse" />
    <linearGradient
       id="h">
      <stop
         offset="0"
         stop-color="gray"
         id="stop54" />
      <stop
         offset=".13"
         stop-color="#333"
         id="stop56" />
      <stop
         offset=".51"
         stop-color="#1a1a1a"
         id="stop58" />
      <stop
         offset=".72"
         stop-color="#333"
         id="stop60" />
      <stop
         offset="1"
         stop-color="#999"
         id="stop62" />
    </linearGradient>
    <linearGradient
       xlink:href="#i"
       id="q"
       x1="38.5"
       y1="18.99"
       x2="50.1"
       y2="18.99"
       gradientUnits="userSpaceOnUse" />
    <linearGradient
       id="i">
      <stop
         offset="0"
         stop-color="#4d4d4d"
         id="stop66" />
      <stop
         offset=".29"
         stop-color="#1a1a1a"
         id="stop68" />
      <stop
         offset=".6"
         stop-color="#1a1a1a"
         id="stop70" />
      <stop
         offset="1"
         stop-color="gray"
         id="stop72" />
    </linearGradient>
    <radialGradient
       xlink:href="#e"
       id="r"
       gradientUnits="userSpaceOnUse"
       gradientTransform="matrix(1.88383 -.02186 .02507 2.16118 -44.8 -31.54)"
       cx="51.29"
       cy="32.8"
       fx="51.29"
       fy="32.8"
       r="10.61" />
    <linearGradient
       xlink:href="#i"
       id="s"
       x1="38.1"
       y1="28.59"
       x2="51.68"
       y2="28.68"
       gradientUnits="userSpaceOnUse" />
    <radialGradient
       xlink:href="#j"
       id="t"
       cx="47.39"
       cy="19.05"
       fx="47.39"
       fy="19.05"
       r="5.8"
       gradientTransform="matrix(.15802 -.17195 .44478 .40875 33.77 19.82)"
       gradientUnits="userSpaceOnUse" />
    <linearGradient
       id="j">
      <stop
         offset="0"
         stop-color="#fff"
         id="stop78" />
      <stop
         offset="1"
         stop-color="#fff"
         stop-opacity="0"
         id="stop80" />
    </linearGradient>
    <linearGradient
       xlink:href="#k"
       id="u"
       x1="47.43"
       y1="4.07"
       x2="38.86"
       y2="16.5"
       gradientUnits="userSpaceOnUse" />
    <linearGradient
       id="k">
      <stop
         offset="0"
         stop-color="#b3b3b3"
         id="stop84" />
      <stop
         offset=".39"
         stop-color="#333"
         id="stop86" />
      <stop
         offset=".72"
         stop-color="#1a1a1a"
         id="stop88" />
      <stop
         offset="1"
         stop-color="#1a1a1a"
         id="stop90" />
    </linearGradient>
    <radialGradient
       xlink:href="#l"
       id="v"
       cx="48.17"
       cy="8.29"
       fx="48.17"
       fy="8.29"
       r="6.06"
       gradientTransform="matrix(-.69265 .17969 -.18682 -.72015 81.32 6.56)"
       gradientUnits="userSpaceOnUse" />
    <linearGradient
       id="l">
      <stop
         offset="0"
         stop-color="#ccc"
         id="stop94" />
      <stop
         offset="1"
         stop-color="#666"
         stop-opacity="0"
         id="stop96" />
    </linearGradient>
    <linearGradient
       xlink:href="#j"
       id="w"
       x1="47.31"
       y1="20.92"
       x2="47.11"
       y2="20.22"
       gradientUnits="userSpaceOnUse" />
    <radialGradient
       xlink:href="#j"
       id="x"
       cx="50.35"
       cy="32.14"
       fx="50.35"
       fy="32.14"
       r="7.38"
       gradientTransform="matrix(.37198 -.1138 .52886 1.72857 14.62 -17.52)"
       gradientUnits="userSpaceOnUse" />
    <radialGradient
       xlink:href="#m"
       id="y"
       cx="38.08"
       cy="31.31"
       fx="38.08"
       fy="31.31"
       r="7.11"
       gradientTransform="matrix(.48883 -1.42241 .36797 .12646 7.94 81.43)"
       gradientUnits="userSpaceOnUse" />
    <linearGradient
       id="m">
      <stop
         offset="0"
         stop-color="#999"
         id="stop102" />
      <stop
         offset="1"
         stop-color="#f9f9f9"
         stop-opacity="0"
         id="stop104" />
    </linearGradient>
  </defs>
  <path
     d="M24 .35c-5.83 0-10.5 1.1-13.93 3.32C5.97 6.34 3.8 10.6 3.8 15.96c0 7.21 5.8 16.87 7.58 19.66a54.47 54.47 0 0 0 6.26 8.17c2.54 2.63 4.57 3.86 6.37 3.86 1.8 0 3.83-1.23 6.37-3.87 2-2.08 4.22-4.98 6.25-8.16 1.78-2.78 7.59-12.44 7.59-19.66 0-5.38-2.18-9.63-6.28-12.28C34.54 1.45 29.86.34 24 .34z"
     fill="url(#n)"
     id="path109" />
  <path
     d="M24 .35c-2.92 0-5.54.28-7.87.83-1.16.27-2.25.62-3.26 1.03-1 .42-1.94.9-2.8 1.46A13 13 0 0 0 5.4 8.81a14.15 14.15 0 0 0-1.2 3.34 17.4 17.4 0 0 0-.4 3.81c0 1.8.36 3.76.93 5.72.22.74.47 1.45.74 2.18H24zm0 23.51v23.79h.01c.9 0 1.86-.3 2.9-.94 1.06-.64 2.2-1.61 3.47-2.93 2-2.08 4.22-4.98 6.25-8.16.9-1.4 2.79-4.5 4.46-8.16a49.58 49.58 0 0 0 1.51-3.6z"
     fill="url(#o)"
     id="path111" />
  <path
     d="M24 .34c-5.83 0-10.52 1.12-13.93 3.33-4.1 2.66-6.27 6.9-6.27 12.27 0 7.23 5.8 16.88 7.58 19.67a54.48 54.48 0 0 0 6.25 8.16c2.54 2.64 4.57 3.87 6.37 3.87 1.8 0 3.83-1.23 6.37-3.87 2-2.08 4.22-4.97 6.25-8.16 1.78-2.79 7.58-12.44 7.58-19.67 0-5.37-2.16-9.61-6.26-12.27C34.52 1.46 29.84.34 24 .34zm0 .14c2.11.09 4.12.27 5.88.7 1.16.27 2.25.62 3.26 1.03 1.01.42 1.94.9 2.8 1.46a12.92 12.92 0 0 1 4.66 5.12c.53 1.03.92 2.15 1.2 3.34.26 1.2.4 2.47.4 3.8 0 1.82-.37 3.77-.94 5.74a43.19 43.19 0 0 1-2.2 5.77 69.59 69.59 0 0 1-4.45 8.17 54.47 54.47 0 0 1-6.25 8.16 17.98 17.98 0 0 1-3.46 2.93c-.32.2-.62.3-.91.39-.3-.08-.6-.2-.9-.4-1.06-.63-2.2-1.6-3.47-2.92-2-2.08-4.22-4.97-6.25-8.16a69.6 69.6 0 0 1-4.46-8.17 43.19 43.19 0 0 1-2.19-5.77 20.93 20.93 0 0 1-.93-5.73c0-1.34.13-2.61.4-3.8.27-1.2.67-2.32 1.2-3.35a12.92 12.92 0 0 1 4.67-5.12 17.1 17.1 0 0 1 2.8-1.46c1-.41 2.1-.76 3.26-1.04C19.88.75 21.89.57 24 .49z"
     opacity=".2"
     id="path113" />
  <g
     transform="matrix(.89956 0 0 .89956 -15.85 -2.48)"
     stroke-width="1.11"
     id="g141">
    <path
       d="M34.22 40.4l-.54.2.02 1.91c.96 1.2 3.34 2.99 10.54 2.99h.12c7.2 0 9.58-1.79 10.53-2.99l.03-1.9-.55-.22-10.07 2.34z"
       fill="url(#p)"
       id="path115" />
    <path
       d="M41.2 16.49c-.18 1.3-1.25 1.99-2.7 2.43.05 1.9 2.7 2.43 5.74 2.55v.01h.12c3.04-.13 5.68-.66 5.74-2.56-1.45-.44-2.52-1.13-2.7-2.43l-3.1.15z"
       fill="url(#q)"
       id="path117" />
    <path
       d="M36.93 34.13c-1.28 1.83-3.95 1.92-3.07 6.48 1.7 1.6 5.13 2.37 10.38 2.28h.12c5.25.09 8.68-.69 10.38-2.28.87-4.56-1.79-4.65-3.07-6.48L44.3 36.4z"
       fill="url(#r)"
       id="path119" />
    <path
       d="M43.43 20.94l-1.94.18c-.75 12.1-4.8 7.67-4.56 13.01 1.02 1.67 3.7 2.28 7.3 2.28h.13c3.61 0 6.29-.6 7.3-2.28.25-5.34-3.8-.92-4.55-13l-1.94-.2-.87.52z"
       fill="url(#s)"
       id="path121" />
    <path
       d="M41.32 16.5c-.17 1.3-1.25 1.99-2.7 2.43.06 1.9 2.7 2.43 5.74 2.55v.01h.13c3.04-.13 5.68-.66 5.73-2.56-1.44-.44-2.52-1.13-2.7-2.43l-3.1.15z"
       fill="url(#t)"
       id="path123" />
    <ellipse
       cx="44.32"
       cy="11.69"
       rx="6.06"
       ry="6.02"
       fill="url(#u)"
       id="ellipse125" />
    <ellipse
       cx="44.32"
       cy="11.69"
       rx="6.06"
       ry="6.02"
       opacity=".58"
       fill="url(#v)"
       id="ellipse127" />
    <path
       d="M38.83 18.76c.08.24.1.5.29.7.3.31.73.56 1.25.76 1.05.38 2.47.55 4 .6v.02H44.48v-.01c1.52-.06 2.94-.23 3.98-.61.53-.2.96-.45 1.26-.76.15-.17.17-.4.25-.6-1.38-.44-2.4-1.11-2.58-2.37l-3.1.15-3.1-.15c-.16 1.18-1.12 1.83-2.37 2.27z"
       opacity=".33"
       fill="url(#w)"
       id="path129" />
    <path
       d="M43.5 20.94l-1.95.18c-.75 12.1-4.8 7.67-4.56 13.01 1.02 1.67 3.7 2.28 7.3 2.28h.13c3.61 0 6.3-.6 7.31-2.28.24-5.34-3.8-.92-4.56-13l-1.94-.2-.87.52z"
       opacity=".49"
       fill="url(#x)"
       id="path131" />
    <path
       d="M36.97 32.79c.23.31.66.56 1.02.8.45.29 1 .52 1.62.7 1.25.36 2.82.51 4.63.52h.12c1.8 0 3.38-.16 4.63-.52a6.07 6.07 0 0 0 1.61-.7c.32-.2.53-.48.75-.75-.62-2.9-3.65-1.14-4.3-11.72l-1.94-.18-.87.5-.87-.5-1.94.18c-.56 11.08-4.24 8.46-4.46 11.67z"
       opacity=".42"
       fill="url(#y)"
       id="path133" />
    <path
       d="M36.97 32.79c-.11.43-.14.62-.1 1.34 1.02 1.67 3.7 2.28 7.3 2.28h.13c3.6 0 6.42-.56 7.43-2.28.03-.66-.04-1-.13-1.41a5.4 5.4 0 0 1-1 .87c-.45.29-.99.52-1.61.7-1.25.36-2.82.51-4.63.52h-.12c-1.8 0-3.38-.16-4.63-.52a6.07 6.07 0 0 1-1.62-.7c-.36-.24-.79-.49-1.02-.8z"
       opacity=".89"
       fill="#1a1a1a"
       id="path135" />
    <path
       d="M38.83 18.76c-.13.04-.2.12-.33.16.05 1.9 2.7 2.43 5.74 2.55v.01h.12c3.04-.13 5.68-.66 5.74-2.56-.05-.01-.07-.04-.12-.06-.08.2-.1.43-.25.6-.3.31-.73.56-1.26.76-1.04.38-2.46.55-3.98.6v.02h-.13v-.01a13.75 13.75 0 0 1-3.99-.61c-.52-.2-.95-.45-1.25-.76-.18-.2-.21-.46-.3-.7z"
       fill="#1a1a1a"
       id="path137" />
    <path
       d="M33.81 37.82c-.17.7-.21 1.57.02 2.79 1.7 1.59 5.14 2.37 10.4 2.28h.13c5.27.09 8.7-.69 10.4-2.28.24-1.22.2-2.1.02-2.8-.02.3.05.46-.01.79-.43.4-.96.75-1.6 1.04-.65.3-1.4.54-2.27.73-1.73.39-3.9.56-6.54.52h-.12c-2.64.04-4.81-.13-6.54-.52-.87-.19-1.62-.43-2.26-.73a5.97 5.97 0 0 1-1.6-1.04c-.07-.33 0-.5-.03-.78z"
       opacity=".48"
       fill="#1a1a1a"
       id="path139" />
  </g>
</svg>
