<?xml version="1.0" encoding="UTF-8" standalone="no"?><svg xmlns:dc="http://purl.org/dc/elements/1.1/" xmlns:cc="http://creativecommons.org/ns#" xmlns:rdf="http://www.w3.org/1999/02/22-rdf-syntax-ns#" xmlns="http://www.w3.org/2000/svg" xmlns:xlink="http://www.w3.org/1999/xlink" width="48" height="48" viewBox="0 0 12.7 12.7"><metadata><rdf:RDF><cc:Work><dc:format>image/svg+xml</dc:format><dc:type rdf:resource="http://purl.org/dc/dcmitype/StillImage"/><dc:title/></cc:Work></rdf:RDF></metadata><defs><linearGradient id="h"><stop offset="0" stop-color="#d74845"/><stop offset="1" stop-color="#d74845" stop-opacity="0"/></linearGradient><linearGradient id="g"><stop offset="0" stop-color="#e98928"/><stop offset="1" stop-color="#e98928" stop-opacity="0"/></linearGradient><linearGradient id="f"><stop offset="0" stop-color="#e0ad2f"/><stop offset="1" stop-color="#e0ad2f" stop-opacity="0"/></linearGradient><linearGradient id="e"><stop offset="0" stop-color="#4fae53" stop-opacity="0"/><stop offset="1" stop-color="#4fae53"/></linearGradient><linearGradient id="d"><stop offset="0" stop-color="#479ae1" stop-opacity="0"/><stop offset="1" stop-color="#479ae1"/></linearGradient><linearGradient id="c"><stop offset="0" stop-color="#a458b8"/><stop offset="1" stop-color="#a458b8" stop-opacity="0"/></linearGradient><linearGradient id="a"><stop offset="0"/><stop offset="1" stop-opacity="0"/></linearGradient><linearGradient id="b"><stop offset="0" stop-color="#515151"/><stop offset=".2" stop-color="#2b2b2b"/><stop offset=".53" stop-color="#1b1b1b"/><stop offset="1"/></linearGradient><linearGradient xlink:href="#c" id="j" x1="4.8" y1=".31" x2="6.36" y2="5.87" gradientUnits="userSpaceOnUse"/><linearGradient xlink:href="#d" id="k" x1="6.36" y1="5.87" x2="11.23" y2="1.81" gradientUnits="userSpaceOnUse"/><linearGradient xlink:href="#e" id="l" x1="6.36" y1="5.87" x2="11.65" y2="6.86" gradientUnits="userSpaceOnUse"/><linearGradient xlink:href="#f" id="m" x1="6.35" y1="12.61" x2="6.36" y2="5.87" gradientUnits="userSpaceOnUse"/><linearGradient xlink:href="#g" id="n" x1="2.2" y1="9.12" x2="6.36" y2="5.87" gradientUnits="userSpaceOnUse"/><linearGradient xlink:href="#h" id="i" x1="1" y1="4.32" x2="6.36" y2="4.32" gradientUnits="userSpaceOnUse"/></defs><path d="M6.35.1C4.81.1 3.57.39 2.66.97A3.67 3.67 0 0 0 1 4.22c0 1.91 1.54 4.47 2.01 5.2.54.85 1.13 1.61 1.65 2.16.68.7 1.21 1.03 1.69 1.03s1.01-.33 1.69-1.03a15.2 15.2 0 0 0 1.65-2.15c.47-.74 2-3.3 2-5.21 0-1.42-.57-2.54-1.65-3.25A6.75 6.75 0 0 0 6.35.09z" fill="#fff"/><path d="M2 1.53a3.67 3.67 0 0 0-.16.17 3.67 3.67 0 0 0-.22.3 3.67 3.67 0 0 0-.19.3 3.67 3.67 0 0 0-.16.34 3.67 3.67 0 0 0-.12.34 3.67 3.67 0 0 0-.09.36 3.67 3.67 0 0 0-.05.36 3.67 3.67 0 0 0-.01.37 3.67 3.67 0 0 0 0 .15c0 .48.1 1 .25 1.52.13.46.32.92.52 1.36l4.59-1.23L3.27 2.8z" fill="url(#i)"/><path d="M7.88.2A6.75 6.75 0 0 0 7.5.13a6.75 6.75 0 0 0-.67-.05 6.75 6.75 0 0 0-.47.01V.1c-.77 0-1.46.07-2.08.22a5.9 5.9 0 0 0-1.61.65 3.67 3.67 0 0 0-.3.22 3.67 3.67 0 0 0-.27.24 3.67 3.67 0 0 0-.1.1l4.37 4.34z" fill="url(#j)"/><path d="M11.65 4.46c0-.08.04-.17.04-.24a3.74 3.74 0 0 0-.94-2.64c-.2-.23-.44-.43-.71-.61a6.75 6.75 0 0 0-.6-.3A6.75 6.75 0 0 0 8.8.42a6.75 6.75 0 0 0-.65-.18A6.75 6.75 0 0 0 7.88.2L6.36 5.87z" fill="url(#k)"/><path d="M9.78 9.27c.25-.4.68-1.1 1.09-2 .22-.5.42-1.01.57-1.53.13-.44.19-.87.21-1.28l-5.3 1.41z" fill="url(#l)"/><path d="M4.8 11.7c.28.27.54.51.78.66.28.17.53.25.77.25s.5-.08.77-.25c.28-.17.58-.43.92-.78a15.2 15.2 0 0 0 1.65-2.15l.09-.16-3.42-3.4z" fill="url(#m)"/><path d="M1.77 7.1l.06.16a18.1 18.1 0 0 0 2.83 4.32l.14.11 1.56-5.82z" fill="url(#n)"/><path d="M6.35.1C4.81.1 3.57.39 2.66.97A3.67 3.67 0 0 0 1 4.22c0 1.91 1.54 4.47 2.01 5.2.54.85 1.13 1.61 1.65 2.16.68.7 1.21 1.03 1.69 1.03s1.01-.33 1.69-1.03a15.2 15.2 0 0 0 1.65-2.15c.47-.74 2-3.3 2-5.21 0-1.42-.57-2.54-1.65-3.25A6.75 6.75 0 0 0 6.35.09zm0 .03C6.91.15 7.44.2 7.9.31a5.82 5.82 0 0 1 1.6.66 3.65 3.65 0 0 1 1.24 1.36c.14.27.25.57.32.88a4.61 4.61 0 0 1-.14 2.53c-.15.52-.36 1.04-.58 1.52-.44.97-.95 1.8-1.18 2.17a15.2 15.2 0 0 1-1.65 2.15 4.9 4.9 0 0 1-.92.78.96.96 0 0 1-.24.1.96.96 0 0 1-.24-.1 4.76 4.76 0 0 1-.92-.78 14.41 14.41 0 0 1-1.65-2.15 19.2 19.2 0 0 1-1.18-2.17c-.22-.48-.43-1-.58-1.52a4.6 4.6 0 0 1-.14-2.52 3.73 3.73 0 0 1 .84-1.64 3.65 3.65 0 0 1 1.45-1A6.83 6.83 0 0 1 6.35.13z" opacity=".2"/><path d="M6.3 2.8a2.98 2.98 0 1 0 2.98 2.98V3.55a.74.74 0 0 0-.74-.75zm2 .5a.5.5 0 0 1 .5.5.5.5 0 0 1-.5.5.5.5 0 0 1-.5-.5.5.5 0 0 1 .5-.5z" fill="#666"/></svg>