<svg xmlns="http://www.w3.org/2000/svg" xmlns:xlink="http://www.w3.org/1999/xlink" width="48" height="48" version="1"><defs><linearGradient id="b"><stop offset="0" stop-color="#14ddb1"/><stop offset="1" stop-color="#fff"/></linearGradient><linearGradient xlink:href="#a" id="e" gradientUnits="userSpaceOnUse" x1="2.76" y1="4.02" x2="53.62" y2="43.36"/><linearGradient id="a"><stop offset="0" stop-color="#040000"/><stop offset="1" stop-opacity="0"/></linearGradient><linearGradient xlink:href="#b" id="d" x1="3.8" y1="24" x2="44.21" y2="24" gradientUnits="userSpaceOnUse"/><linearGradient xlink:href="#c" id="f" x1="12" y1="8" x2="12" y2="32" gradientUnits="userSpaceOnUse" gradientTransform="matrix(1 0 0 -1 0 40)"/><linearGradient id="c"><stop offset="0" stop-color="#333"/><stop offset="1" stop-color="gray"/></linearGradient></defs><path d="M24 .35c-5.83 0-10.52 1.12-13.93 3.33-4.1 2.65-6.27 6.9-6.27 12.27 0 7.23 5.8 16.89 7.58 19.67a54.47 54.47 0 0 0 6.25 8.16c2.54 2.64 4.57 3.87 6.37 3.87 1.8 0 3.83-1.23 6.37-3.87 2-2.08 4.22-4.97 6.25-8.16 1.78-2.78 7.59-12.44 7.59-19.67 0-5.37-2.17-9.61-6.27-12.27C34.52 1.47 29.84.35 24 .35z" fill="url(#d)"/><path d="M8.71 4.66c-.4.35-.8.71-1.15 1.1-.78.86-1.48 1.7-2 2.73a12.5 12.5 0 0 0-1.23 3.12 18.2 18.2 0 0 0-.53 3.9c0 1.8.28 3.84.85 5.8a42 42 0 0 0 2.1 5.72 47.66 47.66 0 0 0 3.37 6.51L24 19.9z" fill="#cf4f8c"/><path d="M37.88 33.58a56.18 56.18 0 0 0 5.39-11.9 21 21 0 0 0 .93-5.73c0-1.34-.13-2.62-.4-3.81a14.09 14.09 0 0 0-1.2-3.34 12.9 12.9 0 0 0-3.3-4.12L24 19.9z" fill="#6655e4"/><path d="M3.92 14.74c-.02.4-.12.78-.12 1.2 0 7.24 5.8 16.9 7.58 19.68a54.47 54.47 0 0 0 6.25 8.16c2.54 2.64 4.57 3.87 6.37 3.87 1.8 0 3.83-1.23 6.37-3.87 2-2.08 4.22-4.97 6.25-8.16 1.78-2.78 7.59-12.44 7.59-19.67 0-.43-.1-.8-.14-1.21-.08 1.59-.3 3.24-.8 4.94a43.17 43.17 0 0 1-2.19 5.77 69.67 69.67 0 0 1-4.46 8.17 54.47 54.47 0 0 1-6.25 8.16 18 18 0 0 1-3.46 2.93c-1.05.64-2 .94-2.9.94-.91 0-1.87-.3-2.92-.94a18 18 0 0 1-3.46-2.93c-2-2.08-4.21-4.97-6.25-8.16a69.4 69.4 0 0 1-4.46-8.17 43.04 43.04 0 0 1-2.19-5.77c-.5-1.7-.72-3.35-.8-4.94z" opacity=".5"/><path d="M26.76 46.76c.05-.03.1-.02.15-.05 1.05-.64 2.2-1.6 3.46-2.93 2-2.08 4.22-4.97 6.25-8.16a69.4 69.4 0 0 0 4.46-8.17c.84-1.83 1.62-3.8 2.19-5.77.55-1.89.87-3.76.9-5.51L36 8 12 32z" opacity=".5" fill="url(#e)"/><path d="M12 32V8h24v24z" fill="url(#f)"/><rect width="7.89" height="1.53" x="15.44" y="23.84" rx="0" ry="0" fill="#1a1a1a"/><rect width="7.89" height="1.53" x="14.68" y="23.08" rx="0" ry="0" fill="#fff"/><path d="M12 8h24v.93H12z" fill="#ccc"/><path d="M12 31.07h24V32H12z" fill="#1a1a1a"/><path style="line-height:1.25;-inkscape-font-specification:squealer" d="M15.479 11.543l-1.252 1.252.685.662v6.248l-.674.662 1.24 1.252h2.096l1.83-1.83v-6.393l-1.855-1.853zm5.574 0l-1.254 1.252.687.662v6.104l-.627.638 1.397 1.42 1.422-1.42-.627-.638v-1.805l2.879-2.867V13.3l-1.784-1.758zm.914 1.143l1.564 1.54-1.564 1.544zm-5.488.277l1.359 1.373v4.539l-1.36 1.373z" font-weight="400" font-size="12.04" font-family="squealer" letter-spacing="0" word-spacing="0" fill="#1a1a1a"/><path style="line-height:1.25;-inkscape-font-specification:squealer" d="M15.19 10.713l-1.254 1.252.687.662v6.248l-.674.662 1.24 1.252h2.094l1.83-1.83v-6.393l-1.853-1.853zm5.572 0l-1.252 1.252.685.662v6.103l-.625.64 1.397 1.42 1.42-1.42-.625-.64v-1.804l2.877-2.865v-1.59l-1.782-1.758zm.916 1.142l1.564 1.541-1.564 1.543zm-5.49.278l1.36 1.373v4.539l-1.36 1.373z" font-weight="400" font-size="12.04" font-family="squealer" letter-spacing="0" word-spacing="0" fill="#fff"/></svg>