<?xml version="1.0" encoding="UTF-8" standalone="no"?><svg xmlns:dc="http://purl.org/dc/elements/1.1/" xmlns:cc="http://creativecommons.org/ns#" xmlns:rdf="http://www.w3.org/1999/02/22-rdf-syntax-ns#" xmlns="http://www.w3.org/2000/svg" xmlns:xlink="http://www.w3.org/1999/xlink" width="48" height="48"><metadata><rdf:RDF><cc:Work><dc:format>image/svg+xml</dc:format><dc:type rdf:resource="http://purl.org/dc/dcmitype/StillImage"/><dc:title/></cc:Work></rdf:RDF></metadata><defs><linearGradient id="a"><stop offset="0" stop-color="#999"/><stop offset="1" stop-color="#e6e6e6"/></linearGradient><linearGradient xlink:href="#a" id="c" x1="22.79" y1="-4.3" x2="17.69" y2="61.25" gradientUnits="userSpaceOnUse"/><clipPath id="d"><path d="M-36 .35c-5.83 0-10.52 1.12-13.93 3.33-4.1 2.66-6.27 6.9-6.27 12.27 0 7.23 5.8 16.88 7.58 19.67a54.48 54.48 0 0 0 6.25 8.16 18.07 18.07 0 0 0 3.16 2.67l7.33-16.18-5.73-1.97 6.63-11.37-10.75-1.7L-33.58.6C-34.42.55-35.1.35-36 .35zm4.21.52l-7.35 13.01 10.84 1.97-6.8 11.64 6 1.97-8.6 17.79c.6.24 1.16.4 1.7.4 1.8 0 3.83-1.23 6.37-3.87 2-2.08 4.22-4.97 6.25-8.16 1.78-2.79 7.58-12.44 7.58-19.67 0-5.37-2.16-9.61-6.26-12.27-2.49-1.61-5.9-2.4-9.72-2.8z" fill="url(#b)"/></clipPath><linearGradient xlink:href="#a" id="b" gradientUnits="userSpaceOnUse" gradientTransform="translate(-60)" x1="22.79" y1="-4.3" x2="17.69" y2="61.25"/><filter id="e" x="-.07" width="1.13" y="-.06" height="1.11" color-interpolation-filters="sRGB"><feGaussianBlur stdDeviation="1.1"/></filter></defs><path d="M24 .35c-5.83 0-10.52 1.12-13.93 3.33-4.1 2.66-6.27 6.9-6.27 12.27 0 7.23 5.8 16.88 7.58 19.67a54.48 54.48 0 0 0 6.25 8.16 18.07 18.07 0 0 0 3.16 2.67l7.33-16.18-5.73-1.97 6.63-11.37-10.75-1.7L26.42.6C25.58.56 24.9.36 24 .36zm4.21.52l-7.35 13.01 10.84 1.97-6.8 11.64 6 1.97-8.6 17.79c.6.24 1.16.4 1.7.4 1.8 0 3.83-1.23 6.37-3.87 2-2.08 4.22-4.97 6.25-8.16 1.78-2.79 7.58-12.44 7.58-19.67 0-5.37-2.16-9.61-6.26-12.27-2.49-1.61-5.9-2.4-9.72-2.8z" fill="url(#c)"/><path d="M37.94 3.68c-1.24-.8-2.72-1.4-4.36-1.86a34.05 34.05 0 0 0-5.36-.95l-.07.11c.56.1 1.21.08 1.73.2a22 22 0 0 1 3.26 1.04c1.01.42 1.94.9 2.8 1.46A12.92 12.92 0 0 1 40.6 8.8c.53 1.03.92 2.15 1.2 3.34.26 1.2.4 2.47.4 3.8 0 1.82-.37 3.77-.94 5.74a43.18 43.18 0 0 1-2.2 5.77 69.59 69.59 0 0 1-4.45 8.17 54.47 54.47 0 0 1-6.25 8.16 17.98 17.98 0 0 1-3.46 2.93c-.32.2-.62.3-.91.39-.3-.08-.6-.2-.9-.4-.11-.07-.26-.24-.37-.31l-.36.73c.55.2 1.13.53 1.64.53 1.8 0 3.83-1.23 6.37-3.87 2-2.08 4.22-4.97 6.25-8.16.89-1.4 2.78-4.5 4.46-8.17.83-1.83 1.61-3.8 2.19-5.77.57-1.96.93-3.92.93-5.73 0-1.34-.14-2.61-.4-3.8a14.08 14.08 0 0 0-1.2-3.35 13.22 13.22 0 0 0-4.66-5.12zM24 .35c-5.83 0-10.52 1.12-13.93 3.33a13.85 13.85 0 0 0-2.7 2.28C5.01 8.54 3.8 11.93 3.8 15.96c0 1.8.36 3.77.93 5.73 1.72 5.9 5.32 11.85 6.65 13.94a54.48 54.48 0 0 0 6.25 8.16 17.96 17.96 0 0 0 3.16 2.67l.56-1.22c-.58-.48-1.1-.8-1.73-1.45-2-2.08-4.22-4.97-6.25-8.16-.9-1.4-2.79-4.5-4.46-8.17a43.18 43.18 0 0 1-1.62-4 43.18 43.18 0 0 1-.57-1.77 20.93 20.93 0 0 1-.52-2.03 20.93 20.93 0 0 1-.3-2.07 20.93 20.93 0 0 1-.11-1.63c0-1.34.13-2.6.4-3.8.27-1.2.67-2.32 1.2-3.35a12.92 12.92 0 0 1 .64-1.12 12.92 12.92 0 0 1 .75-1.05 12.92 12.92 0 0 1 .85-.98 12.92 12.92 0 0 1 .94-.88 12.92 12.92 0 0 1 1.03-.79 12.92 12.92 0 0 1 .46-.3 17.1 17.1 0 0 1 1.48-.85 17.1 17.1 0 0 1 1.32-.6c1-.42 2.1-.77 3.26-1.05C19.88.76 21.89.58 24 .5V.49c.83.03 1.53.2 2.33.28l.09-.17C25.58.55 24.9.35 24 .35z" opacity=".3"/><path transform="translate(60)" clip-path="url(#d)" d="M-36 .35c-5.83 0-10.52 1.12-13.93 3.33-4.1 2.66-6.27 6.9-6.27 12.27 0 7.23 5.8 16.88 7.58 19.67a54.48 54.48 0 0 0 6.25 8.16 18.07 18.07 0 0 0 3.16 2.67l7.33-16.18-5.73-1.97 6.63-11.37-10.75-1.7L-33.58.6C-34.42.55-35.1.35-36 .35zm4.21.52l-7.35 13.01 10.84 1.97-6.8 11.64 6 1.97-8.6 17.79c.6.24 1.16.4 1.7.4 1.8 0 3.83-1.23 6.37-3.87 2-2.08 4.22-4.97 6.25-8.16 1.78-2.79 7.58-12.44 7.58-19.67 0-5.37-2.16-9.61-6.26-12.27-2.49-1.61-5.9-2.4-9.72-2.8z" fill="none" stroke="#4d4d4d" filter="url(#e)"/></svg>