<?xml version="1.0" encoding="UTF-8" standalone="no"?><svg xmlns:dc="http://purl.org/dc/elements/1.1/" xmlns:cc="http://creativecommons.org/ns#" xmlns:rdf="http://www.w3.org/1999/02/22-rdf-syntax-ns#" xmlns="http://www.w3.org/2000/svg" xmlns:xlink="http://www.w3.org/1999/xlink" width="48" height="48" viewBox="0 0 12.7 12.7"><metadata><rdf:RDF><cc:Work><dc:format>image/svg+xml</dc:format><dc:type rdf:resource="http://purl.org/dc/dcmitype/StillImage"/><dc:title/></cc:Work></rdf:RDF></metadata><defs><linearGradient id="d"><stop offset="0" stop-color="#c4c8b7"/><stop offset="1" stop-color="#89ac68"/></linearGradient><linearGradient id="f"><stop offset="0" stop-color="#fff"/><stop offset="1" stop-color="#535d6c"/></linearGradient><linearGradient id="c"><stop offset="0"/><stop offset="1" stop-opacity=".19"/></linearGradient><linearGradient id="a"><stop offset="0" stop-color="#010000"/><stop offset="1" stop-opacity="0"/></linearGradient><linearGradient id="b"><stop offset="0" stop-color="#535353"/><stop offset="1" stop-color="#7e7e7e"/></linearGradient><linearGradient xlink:href="#c" id="i" gradientUnits="userSpaceOnUse" x1="1.38" y1="2.92" x2="15.55" y2="9.88"/><radialGradient xlink:href="#d" id="h" cx="9.68" cy="2.68" fx="9.68" fy="2.68" r="5.35" gradientTransform="matrix(.06616 1.06853 -1.16839 .07235 12.17 -8.48)" gradientUnits="userSpaceOnUse"/><filter id="k" x="-.04" width="1.08" y="-.03" height="1.07" color-interpolation-filters="sRGB"><feGaussianBlur stdDeviation=".17"/></filter><clipPath id="j"><path d="M-9.53.1c-1.54 0-2.78.28-3.69.86a3.67 3.67 0 0 0-1.65 3.26c0 1.91 1.53 4.47 2 5.2.54.85 1.13 1.61 1.65 2.16.69.7 1.22 1.03 1.7 1.03.47 0 1-.33 1.69-1.03A15.2 15.2 0 0 0-6.2 9.43c.47-.74 2-3.3 2-5.21 0-1.42-.56-2.54-1.64-3.25A6.75 6.75 0 0 0-9.53.1z" fill="url(#e)"/></clipPath><radialGradient xlink:href="#f" id="e" gradientUnits="userSpaceOnUse" gradientTransform="matrix(.06616 1.06853 -1.16839 .07235 -3.7 -8.48)" cx="9.68" cy="2.68" fx="9.68" fy="2.68" r="5.35"/><linearGradient id="g"><stop offset="0" stop-color="#18a303"/><stop offset="1" stop-color="#43c330"/></linearGradient></defs><path d="M6.35.1C4.81.1 3.57.38 2.66.96A3.67 3.67 0 0 0 1 4.22c0 1.91 1.54 4.47 2.01 5.2.54.85 1.13 1.61 1.65 2.16.68.7 1.21 1.03 1.69 1.03s1.01-.33 1.69-1.03a15.2 15.2 0 0 0 1.65-2.15c.47-.74 2-3.3 2-5.21 0-1.42-.57-2.54-1.65-3.25A6.75 6.75 0 0 0 6.35.1z" fill="url(#h)"/><path d="M7.35 12.16c.22-.16.44-.32.69-.58a15.2 15.2 0 0 0 1.65-2.15c.23-.37.73-1.2 1.18-2.17.22-.48.42-1 .57-1.52.15-.52.25-1.04.25-1.52 0-.2-.04-.38-.06-.57L9.79 1.8l-6.76.08L3 7.69z" opacity=".5" fill="url(#i)"/><path d="M1.04 3.9c0 .1-.04.2-.04.32 0 1.91 1.54 4.47 2.01 5.2.54.85 1.13 1.61 1.65 2.16.68.7 1.21 1.03 1.69 1.03s1.01-.33 1.69-1.03a15.2 15.2 0 0 0 1.65-2.15c.47-.74 2-3.3 2-5.21 0-.11-.02-.21-.03-.32a5.5 5.5 0 0 1-.21 1.3c-.15.53-.36 1.05-.58 1.53-.44.97-.95 1.8-1.18 2.17a15.2 15.2 0 0 1-1.65 2.15 4.9 4.9 0 0 1-.92.78c-.28.17-.53.25-.77.25s-.5-.08-.77-.25a4.76 4.76 0 0 1-.92-.78A14.41 14.41 0 0 1 3.01 8.9a19.2 19.2 0 0 1-1.18-2.17c-.22-.48-.43-1-.58-1.52a5.66 5.66 0 0 1-.21-1.31z" opacity=".5"/><path transform="translate(15.88)" clip-path="url(#j)" d="M-9.53.1c-1.54 0-2.78.28-3.69.86a3.67 3.67 0 0 0-1.65 3.26c0 1.91 1.53 4.47 2 5.2.54.85 1.13 1.61 1.65 2.16.69.7 1.22 1.03 1.7 1.03.47 0 1-.33 1.68-1.03a15.2 15.2 0 0 0 1.65-2.15c.47-.74 2-3.3 2-5.21 0-1.42-.56-2.54-1.65-3.25A6.75 6.75 0 0 0-9.53.1z" fill="none" stroke="#3e4837" stroke-width=".55" stroke-linejoin="round" filter="url(#k)"/><path d="M3 1.8V7.7h2.85v-.23h-.47v-.9h.47v-.23h-.47v-.9h.47V5.2h-.47v-.9H7.4v.74h.23v-.75h1.92v.75h.23V1.8H3.23zm.23 1.36h1.92v.9H3.23zm2.15 0H7.4v.9H5.38zm2.26 0h1.92v.9H7.64zM3.23 4.3h1.92v.91H3.23zm0 1.14h1.92v.9H3.23zm0 1.13h1.92v.9H3.23z" fill="#fff"/><path d="M5.85 5.04v3h4.19v-3zm.21.21h3.77v2.58H6.06z" opacity=".55" fill="#fff"/><path d="M6.28 6h.75v1.72h-.75z" fill="#484537"/><path d="M7.14 5.47h.75v2.25h-.75z" fill="#784421"/><path d="M8 6.65h.75v1.07H8z" fill="#483737"/><path d="M8.86 6.22h.75v1.5h-.75z" fill="#501616"/></svg>