<svg xmlns="http://www.w3.org/2000/svg" xmlns:xlink="http://www.w3.org/1999/xlink" width="48" height="48"><defs><linearGradient id="b"><stop offset="0" stop-color="teal"/><stop offset="1" stop-color="#006680"/></linearGradient><linearGradient id="a"><stop offset="0"/><stop offset="1" stop-opacity="0"/></linearGradient><linearGradient xlink:href="#b" id="c" x1="3.5" y1="47.88" x2="3.4" y2=".41" gradientUnits="userSpaceOnUse"/></defs><path d="M23.71.5C17.88.5 13.2 1.6 9.78 3.82 5.68 6.48 3.5 10.73 3.5 16.1c0 7.22 5.8 16.88 7.58 19.67a54.48 54.48 0 0 0 6.25 8.16c2.54 2.64 4.57 3.87 6.37 3.87 1.8 0 3.83-1.23 6.37-3.87 2-2.08 4.22-4.98 6.25-8.16 1.78-2.79 7.59-12.45 7.59-19.67 0-5.37-2.17-9.62-6.27-12.27C34.24 1.6 29.55.49 23.7.49z" fill="url(#c)"/><path d="M7.55 5.34c-.18.18-.42.31-.59.5-.09.1-.14.22-.23.33v21.68A74.86 74.86 0 0 0 11 35.67a54.79 54.79 0 0 0 3.13 4.5c.65.8 1.33 1.6 2.02 2.38V14.84H31.8v4.54h.06l.16 22.33c1.51-1.8 2.9-3.74 4.37-6.04.9-1.4 2.8-4.53 4.49-8.22.15-.34.25-.71.4-1.06v-9.35c0-9.44-6.65-11.7-9.42-11.7H7.55zM19.2 18.12l-.01 27.57c.51.42 1.1.84 1.58 1.13 1.05.64 2.01.95 2.92.95.9 0 1.87-.3 2.92-.95.61-.37 1.33-.92 2-1.51V18.1H19.2z" fill="#fff"/><path d="M23.71.5C17.88.5 13.2 1.62 9.78 3.83c-4.1 2.66-6.27 6.9-6.27 12.27 0 7.23 5.8 16.89 7.58 19.68a54.48 54.48 0 0 0 6.25 8.15c2.54 2.65 4.57 3.88 6.37 3.88 1.8 0 3.83-1.23 6.37-3.88 2-2.07 4.22-4.97 6.25-8.15 1.78-2.8 7.59-12.45 7.59-19.68 0-5.37-2.17-9.61-6.27-12.27C34.24 1.62 29.55.5 23.7.5zm0 .14c2.12.09 4.12.28 5.88.7 1.16.27 2.25.62 3.26 1.04 1.01.41 1.95.9 2.8 1.45a12.92 12.92 0 0 1 4.67 5.12 14.1 14.1 0 0 1 1.2 3.34c.26 1.2.4 2.47.4 3.81 0 1.81-.37 3.77-.94 5.73a43.19 43.19 0 0 1-2.19 5.78 69.59 69.59 0 0 1-4.46 8.17 54.47 54.47 0 0 1-6.25 8.15 17.98 17.98 0 0 1-3.46 2.93c-.32.2-.62.3-.9.4-.3-.1-.6-.2-.92-.4a17.72 17.72 0 0 1-3.46-2.93 54.5 54.5 0 0 1-6.25-8.15 69.6 69.6 0 0 1-4.46-8.17 43.19 43.19 0 0 1-2.19-5.78 20.93 20.93 0 0 1-.93-5.73c0-1.34.13-2.61.4-3.8.27-1.2.67-2.32 1.2-3.35a12.92 12.92 0 0 1 4.67-5.12 17.1 17.1 0 0 1 2.8-1.45c1-.42 2.1-.77 3.26-1.04C19.59.92 21.6.73 23.7.64z" opacity=".2"/></svg>