<?xml version="1.0" encoding="UTF-8" standalone="no"?><svg xmlns:dc="http://purl.org/dc/elements/1.1/" xmlns:cc="http://creativecommons.org/ns#" xmlns:rdf="http://www.w3.org/1999/02/22-rdf-syntax-ns#" xmlns="http://www.w3.org/2000/svg" xmlns:xlink="http://www.w3.org/1999/xlink" width="48" height="48" viewBox="0 0 12.7 12.7"><metadata><rdf:RDF><cc:Work><dc:format>image/svg+xml</dc:format><dc:type rdf:resource="http://purl.org/dc/dcmitype/StillImage"/><dc:title/></cc:Work></rdf:RDF></metadata><defs><linearGradient id="b"><stop offset="0" stop-color="#d5fff6"/><stop offset="1" stop-color="teal"/></linearGradient><linearGradient id="a"><stop offset="0" stop-color="#000007"/><stop offset="1" stop-color="#000007" stop-opacity="0"/></linearGradient><radialGradient xlink:href="#b" id="c" cx="6.343" cy="6.336" fx="6.343" fy="6.336" r="5.347" gradientTransform="matrix(1 0 0 1.17153 0 -1.087)" gradientUnits="userSpaceOnUse"/></defs><path d="M54.45 57.21a1.26 1.26 0 1 0 0 2.53h2.92v4.55h2.62v-4.55h2.68a1.26 1.26 0 1 0 0-2.53zm2.92 7.08H53.6c-.5 0-.98.4-1.08.9l-1.57 8.48c-.09.5.25.9.75.9h4.59v.03h4.54v-.03h4.6c.5 0 .83-.4.74-.9l-1.57-8.49c-.1-.5-.57-.9-1.08-.9h-3.49V68h2.54l-3.98 3.27L54.77 68h2.6z" fill="#1a1a1a"/><path d="M6.35.09c-1.54 0-2.78.29-3.69.87A3.67 3.67 0 0 0 1 4.21c0 1.91 1.54 4.47 2.01 5.2.54.85 1.13 1.61 1.65 2.16.68.7 1.21 1.03 1.69 1.03s1.01-.33 1.69-1.03c.52-.55 1.11-1.31 1.65-2.15.47-.74 2-3.3 2-5.21 0-1.42-.57-2.54-1.65-3.25A6.75 6.75 0 0 0 6.35.08z" fill="url(#c)"/><path d="M6.82.063a6.75 6.75 0 0 0-.47.007v.01c-.77 0-1.465.073-2.081.218a5.896 5.896 0 0 0-.865.271c-.042.018-.076.042-.117.06l.002 9.19 6.124-.003V.636A6.743 6.743 0 0 0 8.158.221 6.75 6.75 0 0 0 6.82.062z" fill="#dbe3de"/><path d="M6.35.1C4.81.1 3.57.39 2.66.97A3.67 3.67 0 0 0 1 4.22c0 1.91 1.54 4.47 2.01 5.2.54.85 1.13 1.61 1.65 2.16.68.7 1.21 1.03 1.69 1.03s1.01-.33 1.69-1.03c.52-.55 1.11-1.31 1.65-2.15.47-.74 2-3.3 2-5.21 0-1.42-.57-2.54-1.65-3.25A6.75 6.75 0 0 0 6.35.09zm0 .03C6.91.15 7.44.2 7.9.31a5.82 5.82 0 0 1 1.6.66 3.65 3.65 0 0 1 1.24 1.36c.14.27.25.57.32.88a4.61 4.61 0 0 1-.14 2.53c-.15.52-.36 1.04-.58 1.52-.44.97-.95 1.8-1.18 2.17-.54.84-1.13 1.6-1.65 2.15-.34.35-.64.61-.92.78a.96.96 0 0 1-.24.1.96.96 0 0 1-.24-.1 4.76 4.76 0 0 1-.92-.78 14.41 14.41 0 0 1-1.65-2.15c-.23-.37-.74-1.2-1.18-2.17-.22-.48-.43-1-.58-1.52a4.6 4.6 0 0 1-.14-2.52 3.73 3.73 0 0 1 .84-1.64 3.65 3.65 0 0 1 1.45-1c.27-.1.56-.2.87-.27.46-.1 1-.16 1.55-.18z" opacity=".2"/><path d="M3.282 2.54h6.136v1.896H3.282z" fill="#6f917c"/><g fill="#333"><text y="1.872" x="15.229" style="line-height:3;-inkscape-font-specification:sans-serif" font-weight="400" font-size=".587" font-family="sans-serif" letter-spacing="0" word-spacing="0" stroke-width=".265" transform="translate(-9.963 .143)"><tspan style="line-height:3;-inkscape-font-specification:sans-serif" y="1.872" x="15.229">Education</tspan><tspan style="line-height:3;-inkscape-font-specification:sans-serif" y="3.633" x="15.229">Internet</tspan><tspan style="line-height:3;-inkscape-font-specification:sans-serif" y="5.394" x="15.229">System</tspan><tspan style="line-height:3;-inkscape-font-specification:sans-serif" y="7.156" x="15.229">Utilities</tspan><tspan style="line-height:3;-inkscape-font-specification:sans-serif" y="8.917" x="15.229">Multimedia</tspan></text><g stroke-width="5.425"><path d="M4.924 5.414c-.028-.015-.034-.046-.013-.07l.115-.128c.022-.024.013-.042-.02-.04l-.075.003c-.032.001-.053-.023-.046-.054l.035-.168c.007-.032-.01-.043-.037-.026l-.064.041c-.028.018-.058.007-.067-.024l-.054-.163c-.01-.03-.03-.032-.045-.004l-.035.068c-.014.029-.046.034-.07.013l-.128-.115c-.024-.02-.042-.012-.04.02l.004.076c.001.032-.024.053-.055.046l-.168-.035c-.031-.007-.043.01-.026.037l.042.064c.017.027.006.057-.024.067l-.163.054c-.031.01-.033.029-.004.044l.068.035c.028.015.034.046.012.07l-.114.128c-.021.024-.013.042.02.04l.075-.003c.032-.001.053.023.046.054l-.035.169c-.006.03.01.042.037.025l.064-.041c.027-.018.057-.007.067.024l.054.163c.01.03.03.032.045.004l.034-.068c.015-.028.047-.034.07-.013l.128.115c.025.02.043.013.041-.02l-.003-.076c-.002-.031.023-.052.054-.046l.168.036c.032.006.043-.01.026-.038l-.041-.063c-.018-.027-.007-.058.024-.068l.163-.053c.03-.01.032-.03.003-.045zm-.44.158a.285.285 0 1 1 0-.57.285.285 0 0 1 0 .57z"/><path d="M4.483 5.061a.227.227 0 1 0 0 .454.227.227 0 0 0 0-.454zm0 .292a.065.065 0 1 1 0-.131.065.065 0 0 1 0 .13z"/></g><path d="M4.766 1.249a.017.017 0 0 0-.016.017l.001.096c-.037.039-.096.1-.167.167l-.003-.045h.003a.017.017 0 1 0-.002-.034H4.58l-.002-.033.014-.003a.017.017 0 1 0-.008-.033l-.007.002-.006-.102a.016.016 0 0 0-.016-.016h-.116a.017.017 0 0 0-.016.018l.003.07a2.533 2.533 0 0 0-.13.072 1.493 1.493 0 0 0-.218.155.016.016 0 0 0-.008 0l-.115.033a.016.016 0 0 0-.008.005.02.02 0 0 0-.013.008c-.08.125-.006.22.069.263.137.08.282.027.332.012a.016.016 0 0 0 .01-.025l-.007-.01v-.001l.032-.108c.038-.029.076-.06.113-.092l.089.2.032.162-.02.262c0 .01.007.018.017.018h.102a.016.016 0 0 0 .017-.015l.017-.232v-.004l-.033-.176.18-.326a.018.018 0 0 0 .001-.007l.001-.017.015.001h.001a.016.016 0 0 0 .002-.033l-.016-.001.002-.034.012-.002a.016.016 0 1 0-.004-.032h-.005l.01-.163a.016.016 0 0 0-.018-.017zm.054.026a.032.032 0 0 1 .032.031.032.032 0 0 1-.032.033.032.032 0 0 1-.032-.033.032.032 0 0 1 .032-.031zm-.315.015a.033.033 0 0 1 .033.033.033.033 0 0 1-.033.033.033.033 0 0 1-.033-.033.033.033 0 0 1 .033-.033zm-.077.098l.003.034-.014.003a.016.016 0 1 0 .009.032l.007-.002v.007H4.42a.016.016 0 0 0 .002.034l.012-.001.004.068.002.006.028.064a2.612 2.612 0 0 1-.115.094l-.11-.015a.016.016 0 0 0-.017.006.018.018 0 0 0-.012.01c-.016.044-.065.114-.183.152-.035-.063.025-.136.053-.155a.016.016 0 0 0 .005-.023.014.014 0 0 0 .002-.007v-.083c.1-.091.246-.175.336-.223zm.324.02v.037l-.015.002a.016.016 0 0 0 .004.033l.012-.002v.005H4.74a.017.017 0 0 0-.003.033h.015v.01l-.1.195-.06-.156a4.78 4.78 0 0 0 .159-.156zm-.722.217l-.022.026-.022-.013zm.029.019v.038l-.022-.014.021-.024zm.2.103l.058.008-.036.025zm.067.042l-.012.041-.015-.022zM5 8.242a.347.347 0 0 0-.192-.058h-.074l-.003-.021a.04.04 0 1 0-.08 0l.08.707a.04.04 0 0 0 .02.035v.048a.101.101 0 0 0-.013.194.12.12 0 0 1-.037.044.1.1 0 0 0-.09-.058.1.1 0 0 0-.092.058.121.121 0 0 1-.037-.044.1.1 0 0 0-.013-.194v-.045a.101.101 0 0 0 0-.197v-.045a.1.1 0 0 0-.011-.199.162.162 0 0 0-.07-.08v-.002a.101.101 0 0 0-.202 0v.002a.169.169 0 0 0-.069.08.1.1 0 0 0-.012.2v.044a.1.1 0 1 0-.03.186.06.06 0 0 0-.01.034v.052h-.002l-.02-.036-.036.021.021.036a.177.177 0 0 0-.031.032l-.036-.021-.02.035.036.02a.147.147 0 0 0-.012.043h-.041v.04h.041a.163.163 0 0 0 .012.042l-.037.02.021.036.036-.02c.01.01.02.021.032.03l-.022.037.035.02.02-.037c.014.006.029.01.043.012v.042h.04v-.042a.166.166 0 0 0 .043-.011l.021.036.035-.02-.02-.037a.177.177 0 0 0 .03-.031l.037.021.02-.035-.037-.02a.15.15 0 0 0 .012-.043h.041v-.04h-.041a.16.16 0 0 0-.011-.043l.036-.02-.02-.036-.037.021a.162.162 0 0 0-.031-.031l.02-.036-.034-.02-.02.036h-.003V8.93a.06.06 0 0 0-.01-.034.1.1 0 0 0-.03-.186v-.045a.1.1 0 1 0 .013-.194.118.118 0 0 1 .038-.043.1.1 0 0 0 .181 0c.016.01.028.026.037.043a.101.101 0 0 0 .014.194v.045a.101.101 0 0 0 0 .197v.045a.1.1 0 0 0 .011.2.161.161 0 0 0 .07.079v.002a.101.101 0 0 0 .201 0v-.002a.164.164 0 0 0 .07-.08.1.1 0 0 0 .011-.199v-.048a.04.04 0 0 0 .02-.035l-.06-.525a.499.499 0 0 1 .37.165l.034.037v-.015A.347.347 0 0 0 5 8.242zm-.975.87h.04v.041h-.04zm.12.122h-.04v-.04h.04zm0-.08h-.04v-.041h.04zm0-.082h-.04v-.04h.04zm.082.081h-.04v-.04h.04zm-.081-.222v.041a.162.162 0 0 0-.04 0v-.041a.02.02 0 0 1 .04 0zm.04-.122a.06.06 0 0 1-.04.057V8.83h-.04v.036a.06.06 0 0 1-.04-.057c0-.025.016-.048.04-.057v.037h.04v-.036a.06.06 0 0 1 .04.057zm0-.242a.061.061 0 0 1-.04.057v-.036h-.04v.036a.06.06 0 0 1-.04-.057c0-.026.017-.048.04-.057V8.547h.04v-.02l.002-.016a.06.06 0 0 1 .039.057zm.101-.12a.06.06 0 0 1-.055-.036.128.128 0 0 1 .035-.005v-.04a.16.16 0 0 0-.038.004.062.062 0 0 1 .058-.045c.028 0 .052.02.059.045a.16.16 0 0 0-.039-.005v.04c.012 0 .024.003.035.006a.061.061 0 0 1-.055.035zm.101.12a.06.06 0 0 1 .04-.056V8.547h.041V8.51a.06.06 0 0 1 .04.057.062.062 0 0 1-.04.057v-.036h-.04v.036a.06.06 0 0 1-.041-.057zm0 .242c0-.025.017-.048.04-.057v.037h.041v-.036a.06.06 0 0 1 0 .114V8.83h-.04v.036a.06.06 0 0 1-.041-.057zm0 .243a.06.06 0 0 1 .04-.057v.036h.041v-.036a.06.06 0 1 1 .001.114V9.072h-.042V9.109a.06.06 0 0 1-.04-.057zm.222.242a.06.06 0 0 1-.058-.045.152.152 0 0 0 .038.005v-.04a.113.113 0 0 1-.035-.006.06.06 0 0 1 .11 0 .11.11 0 0 1-.035.005v.04a.155.155 0 0 0 .039-.004.06.06 0 0 1-.059.045zm.223-.242a.06.06 0 0 1-.042.057l.001-.016v-.021h-.04v.02l-.001.016a.06.06 0 0 1-.04-.056c0-.026.017-.049.04-.057v.036h.041v-.036c.023.008.04.031.04.057zm0 0M4.954 6.492l-.046.009.027-.084a.036.036 0 0 0-.004-.028.028.028 0 0 0-.02-.015.19.19 0 0 0-.186.109l-.032.06-.724.143c-.1.02-.162.132-.139.25.004.017.018.029.032.026l.622-.123c.014-.002.023-.018.02-.034 0-.001.005-.018.067-.043-.113.196-.272.441-.43.596a.148.148 0 0 0-.041.112c.001.043.02.085.05.114a.12.12 0 0 0 .104.033.105.105 0 0 0 .056-.031c.137-.139.382-.484.532-.887a8.65 8.65 0 0 1 .147-.025h.001a.073.073 0 0 0 .05-.037.102.102 0 0 0 .01-.069c-.011-.05-.053-.084-.095-.076zm-.652.925c-.015.002-.029-.01-.032-.026-.003-.017.005-.033.02-.036.014-.003.029.009.032.026.003.017-.006.033-.02.036zm.296-.41c-.014.003-.029-.008-.032-.025-.003-.016.005-.033.02-.035.014-.003.029.008.032.025.003.017-.005.033-.02.036zm.02-.325c-.077.02-.151.05-.165.1l-.575.113c-.001-.072.04-.135.103-.147l.674-.133zm.172-.062c-.014.003-.029-.009-.032-.026-.003-.016.006-.032.02-.035.014-.003.028.008.031.025.004.017-.005.033-.02.036zm.204-.02a.024.024 0 0 1-.016.013l.006.031-.007-.03-.068.01-.044.008.02-.063.08-.016c.015-.002.029.009.032.025a.037.037 0 0 1-.003.023zM4.792 2.708a.022.022 0 0 0-.017.008l-.179.234a.287.287 0 0 0-.027.04l-.07.125a.147.147 0 0 0-.016.05l-.006.091a.11.122 49.73 0 0-.013.003l-.017-.225c0-.01.002-.024.006-.033l.11-.253a.022.022 0 0 0-.041-.017l-.11.253a.14.14 0 0 0-.01.052l.02.241a.11.122 49.73 0 0-.013.01.11.122 49.73 0 0-.002.002l-.171-.095a.092.092 0 0 0-.055-.014l-.115.014a.091.091 0 0 0-.05.026l-.09.1a.023.023 0 1 0 .033.03l.09-.102a.046.046 0 0 1 .022-.012l.114-.013c.007 0 .02.002.028.006l.157.09-.17-.003a.15.15 0 0 0-.05.008l-.204.075a.122.122 0 0 0-.042.032l-.128.159a.022.022 0 1 0 .035.028l.127-.16a.074.074 0 0 1 .024-.019l.203-.074a.09.09 0 0 1 .033-.006l.167.003a.11.122 49.73 0 0 0 .027.097.097 0 0 0-.003 0H4.36a.231.231 0 0 0-.176.059h-.002c-.078.067-.095.16-.048.215.047.056.141.055.22-.012a.233.233 0 0 0 .088-.165v-.003a.11.122 49.73 0 0 .026.003l-.024.166a.084.084 0 0 1-.011.03l-.105.19a.1.1 0 0 1-.024.02l-.177.1a.022.022 0 0 0 .02.037l.178-.098a.151.151 0 0 0 .04-.036l.106-.19a.142.142 0 0 0 .016-.047l.026-.168.061.17c.004.007.005.02.002.027l-.03.11a.046.046 0 0 1-.016.022l-.115.07a.022.022 0 0 0 .024.037l.113-.07a.083.083 0 0 0 .035-.046l.032-.112a.093.093 0 0 0-.004-.056l-.067-.184a.11.122 49.73 0 0 .004-.003.11.122 49.73 0 0 .01-.01l.234.057a.158.158 0 0 0 .054 0v-.001l.267-.065a.022.022 0 1 0-.01-.043l-.267.065a.091.091 0 0 1-.034 0l-.218-.053a.11.122 49.73 0 0 .004-.01l.091.006a.167.167 0 0 0 .052-.006l.136-.048c.012-.006.033-.014.043-.02l.26-.14c.011-.006.015-.018.01-.03a.022.022 0 0 0-.031-.009l-.26.14-.037.016-.136.049a.077.077 0 0 1-.033.005l-.05-.005.095-.08c.028-.024.03-.053.026-.067a.022.022 0 0 0-.043.01c0 .001.002.012-.012.024l-.047.04a.066.066 0 0 0-.058-.068l.048-.04c.013-.01.024-.009.026-.008a.022.022 0 0 0 .016-.04c-.013-.007-.042-.01-.071.014l-.094.08.003-.05c.001-.008.007-.024.01-.031l.07-.127c.007-.01.016-.026.023-.034l.18-.234a.022.022 0 0 0-.018-.035zM8.62 9.2v-.646l.518.323zM8.624 7.487V6.84l.517.323zM8.63 5.728v-.645l.517.323zM8.62 3.926V3.28l.518.323zM8.633 2.186v-.645l.517.322z"/></g></svg>