<svg xmlns="http://www.w3.org/2000/svg" xmlns:xlink="http://www.w3.org/1999/xlink" viewBox="0 0 48 48"><defs><linearGradient id="a"><stop stop-color="#373748" offset="0"/><stop stop-color="#53536c" offset=".13"/><stop stop-color="#b7b7c8" offset="1"/></linearGradient><linearGradient id="d" x1="16" x2="40.38" y1="37.08" y2="6.49" gradientUnits="userSpaceOnUse" xlink:href="#a"/><linearGradient id="b"><stop stop-color="#fff" stop-opacity=".94" offset="0"/><stop stop-color="#fff" stop-opacity=".71" offset="1"/></linearGradient><linearGradient id="f" x1="21.87" x2="21.78" y1="8.58" y2="39.92" gradientTransform="matrix(.61199 0 0 .57938 12.52 1.25)" gradientUnits="userSpaceOnUse" xlink:href="#a"/><linearGradient id="g" x1="24" x2="24" y1="13" y2="40" gradientTransform="matrix(.48164 0 0 .46749 16.26 4.48)" gradientUnits="userSpaceOnUse" xlink:href="#b"/><linearGradient id="h" x1="21.87" x2="21.78" y1="8.58" y2="39.92" gradientTransform="matrix(.61199 0 0 .57938 4.88 6.65)" gradientUnits="userSpaceOnUse" xlink:href="#a"/><linearGradient id="i" x1="33.69" x2="33.7" y1="8.27" y2="10.04" gradientTransform="translate(9.18 1.31) scale(.77676)" gradientUnits="userSpaceOnUse" xlink:href="#c"/><linearGradient id="c"><stop stop-color="#666" offset="0"/><stop stop-color="#fff" offset="1"/></linearGradient><linearGradient id="j" x1="24" x2="24" y1="13" y2="40" gradientTransform="matrix(.48164 0 0 .46749 8.62 9.9)" gradientUnits="userSpaceOnUse" xlink:href="#b"/><linearGradient id="k" x1="33.69" x2="33.7" y1="8.27" y2="10.04" gradientTransform="translate(7.62 1.31) scale(.77676)" gradientUnits="userSpaceOnUse" xlink:href="#c"/><linearGradient id="l" x1="33.69" x2="33.7" y1="8.27" y2="10.04" gradientTransform="translate(1.54 6.72) scale(.77676)" gradientUnits="userSpaceOnUse" xlink:href="#c"/><linearGradient id="m" x1="33.69" x2="33.7" y1="8.27" y2="10.04" gradientTransform="translate(6.07 1.31) scale(.77676)" gradientUnits="userSpaceOnUse" xlink:href="#c"/><linearGradient id="n" x1="33.69" x2="33.7" y1="8.27" y2="10.04" gradientTransform="translate(-.02 6.72) scale(.77676)" gradientUnits="userSpaceOnUse" xlink:href="#c"/><linearGradient id="o" x1="33.69" x2="33.7" y1="8.27" y2="10.04" gradientTransform="translate(-1.57 6.72) scale(.77676)" gradientUnits="userSpaceOnUse" xlink:href="#c"/><linearGradient id="e" x1="14.88" x2="42.04" y1="10.73" y2="33.88" gradientUnits="userSpaceOnUse"><stop offset="0"/><stop stop-opacity="0" offset="1"/></linearGradient></defs><path fill="url(#d)" d="M24 .35c-5.83 0-10.52 1.12-13.93 3.33-4.1 2.66-6.27 6.9-6.27 12.27 0 7.23 5.8 16.88 7.58 19.67a54.47 54.47 0 0 0 6.25 8.16c2.54 2.64 4.57 3.87 6.37 3.87 1.8 0 3.83-1.23 6.37-3.87 2-2.08 4.22-4.97 6.25-8.16 1.78-2.79 7.58-12.44 7.58-19.67 0-5.37-2.16-9.62-6.26-12.27C34.52 1.47 29.84.35 24 .35z"/><path opacity=".5" fill="url(#e)" d="M27.44 46.26c.91-.63 1.85-1.36 2.93-2.48 2-2.08 4.21-4.97 6.25-8.16.89-1.4 2.78-4.5 4.46-8.17.83-1.83 1.62-3.8 2.19-5.77.57-1.97.93-3.92.93-5.73 0-.96-.15-1.83-.28-2.72l-6.37-6.36-27.2 22.21z"/><path opacity=".2" d="M36.89 3.07c4.03 2.78 6.17 7.1 6.17 12.54 0 7.53-6.05 17.6-7.9 20.5a56.77 56.77 0 0 1-6.52 8.5 19.88 19.88 0 0 1-3.23 2.8c1.44-.47 3.06-1.65 4.96-3.63 2-2.08 4.22-4.97 6.25-8.16 1.78-2.79 7.58-12.44 7.58-19.67 0-5.37-2.16-9.61-6.27-12.27-.33-.22-.69-.41-1.04-.6zm-25.74.04c-.36.2-.71.39-1.05.6C6 6.37 3.83 10.61 3.83 16c0 7.22 5.8 16.88 7.59 19.67a54.47 54.47 0 0 0 6.24 8.16c1.9 1.98 3.52 3.16 4.97 3.63-1-.66-2.06-1.57-3.23-2.8a56.77 56.77 0 0 1-6.51-8.5c-1.86-2.9-7.91-12.97-7.91-20.5 0-5.44 2.13-9.76 6.17-12.54z"/><rect fill="url(#f)" ry="1.26" rx="1.26" height="17.67" width="20.2" y="6.46" x="17.72"/><rect fill="url(#g)" ry=".32" rx=".32" height="12.62" width="18.3" y="10.56" x="18.67"/><rect fill="url(#h)" ry="1.26" rx="1.26" height="17.67" width="20.2" y="11.87" x="10.08"/><path opacity=".4" fill="url(#i)" d="M34.76 7.84h1.16v1.21h-1.16z"/><rect fill="url(#j)" ry=".32" rx=".32" height="12.62" width="18.3" y="15.97" x="11.03"/><path opacity=".4" fill="url(#k)" d="M33.2 7.84h1.16v1.21H33.2z"/><path opacity=".4" fill="url(#l)" d="M27.12 13.25h1.16v1.21h-1.16z"/><path opacity=".4" fill="url(#m)" d="M31.65 7.84h1.16v1.21h-1.16z"/><path opacity=".4" fill="url(#n)" d="M25.56 13.25h1.16v1.21h-1.16z"/><path opacity=".4" fill="url(#o)" d="M24.01 13.25h1.16v1.21h-1.16z"/></svg>