<svg xmlns="http://www.w3.org/2000/svg" xmlns:xlink="http://www.w3.org/1999/xlink" width="48" height="48" viewBox="0 0 12.7 12.7"><defs><linearGradient id="d"><stop offset="0" stop-color="#28220b"/><stop offset="1" stop-color="#666" stop-opacity=".06"/></linearGradient><linearGradient id="c"><stop offset="0" stop-color="#786721"/><stop offset=".23" stop-color="#504416"/><stop offset=".78" stop-color="#f4eed7"/><stop offset="1" stop-color="#786721"/></linearGradient><linearGradient id="f"><stop offset="0" stop-color="#333"/><stop offset="1" stop-color="#666" stop-opacity=".01"/></linearGradient><linearGradient id="e"><stop offset="0" stop-color="#333"/><stop offset="1" stop-color="#666" stop-opacity=".06"/></linearGradient><linearGradient id="b"><stop offset="0" stop-color="#333"/><stop offset=".23" stop-color="#282326"/><stop offset=".78" stop-color="#d0d3d4"/><stop offset="1" stop-color="#666"/></linearGradient><linearGradient id="a"><stop offset="0"/><stop offset="1" stop-opacity="0"/></linearGradient><linearGradient xlink:href="#a" id="h" gradientUnits="userSpaceOnUse" x1="-2.21" y1="289.86" x2="13.91" y2="290.59"/><linearGradient xlink:href="#b" id="i" x1="7.61" y1="290.85" x2="9.01" y2="290.85" gradientUnits="userSpaceOnUse"/><linearGradient xlink:href="#c" id="m" x1="7.75" y1="287.07" x2="8.87" y2="287.07" gradientUnits="userSpaceOnUse"/><linearGradient xlink:href="#b" id="l" x1="7.61" y1="288.89" x2="9.01" y2="288.89" gradientUnits="userSpaceOnUse"/><linearGradient xlink:href="#d" id="n" x1="8.3" y1="288.61" x2="8.31" y2="285.53" gradientUnits="userSpaceOnUse"/><linearGradient xlink:href="#e" id="o" x1="8.24" y1="289.36" x2="8.24" y2="288.55" gradientUnits="userSpaceOnUse"/><linearGradient xlink:href="#b" id="j" x1="7.89" y1="292.81" x2="8.73" y2="292.81" gradientUnits="userSpaceOnUse"/><linearGradient xlink:href="#f" id="p" x1="8.28" y1="292.58" x2="8.27" y2="293.66" gradientUnits="userSpaceOnUse"/><linearGradient xlink:href="#b" id="k" x1="7.61" y1="293.37" x2="9.01" y2="293.37" gradientUnits="userSpaceOnUse"/><linearGradient xlink:href="#b" id="q" gradientUnits="userSpaceOnUse" x1="7.61" y1="290.85" x2="9.01" y2="290.85"/><linearGradient xlink:href="#b" id="r" gradientUnits="userSpaceOnUse" x1="7.89" y1="292.81" x2="8.73" y2="292.81"/><linearGradient xlink:href="#b" id="s" gradientUnits="userSpaceOnUse" x1="7.61" y1="293.37" x2="9.01" y2="293.37"/><linearGradient xlink:href="#b" id="t" gradientUnits="userSpaceOnUse" x1="7.61" y1="288.89" x2="9.01" y2="288.89"/><linearGradient xlink:href="#c" id="u" gradientUnits="userSpaceOnUse" x1="7.75" y1="287.07" x2="8.87" y2="287.07"/><linearGradient xlink:href="#d" id="v" gradientUnits="userSpaceOnUse" x1="8.3" y1="288.61" x2="8.31" y2="285.53"/><linearGradient xlink:href="#e" id="w" gradientUnits="userSpaceOnUse" x1="8.24" y1="289.36" x2="8.24" y2="288.55"/><linearGradient xlink:href="#f" id="x" gradientUnits="userSpaceOnUse" x1="8.28" y1="292.58" x2="8.27" y2="293.66"/><linearGradient xlink:href="#b" id="y" gradientUnits="userSpaceOnUse" x1="7.61" y1="290.85" x2="9.01" y2="290.85"/><linearGradient xlink:href="#b" id="z" gradientUnits="userSpaceOnUse" x1="7.89" y1="292.81" x2="8.73" y2="292.81"/><linearGradient xlink:href="#b" id="A" gradientUnits="userSpaceOnUse" x1="7.61" y1="293.37" x2="9.01" y2="293.37"/><linearGradient xlink:href="#b" id="B" gradientUnits="userSpaceOnUse" x1="7.61" y1="288.89" x2="9.01" y2="288.89"/><linearGradient xlink:href="#c" id="C" gradientUnits="userSpaceOnUse" x1="7.75" y1="287.07" x2="8.87" y2="287.07"/><linearGradient xlink:href="#d" id="D" gradientUnits="userSpaceOnUse" x1="8.3" y1="288.61" x2="8.31" y2="285.53"/><linearGradient xlink:href="#e" id="E" gradientUnits="userSpaceOnUse" x1="8.24" y1="289.36" x2="8.24" y2="288.55"/><linearGradient xlink:href="#f" id="F" gradientUnits="userSpaceOnUse" x1="8.28" y1="292.58" x2="8.27" y2="293.66"/><linearGradient id="g" x1="6.35" x2="6.35" y1="284.39" y2="296.91" gradientUnits="userSpaceOnUse"><stop stop-color="#f8e5a6" offset="0"/><stop stop-color="#e3a21d" offset="1"/></linearGradient></defs><path d="M6.36 284.4c-1.54 0-2.78.3-3.7.87a3.67 3.67 0 0 0-1.65 3.25c0 1.91 1.54 4.47 2 5.2.55.85 1.14 1.61 1.66 2.16.68.7 1.2 1.03 1.69 1.03.48 0 1-.33 1.69-1.03.52-.55 1.1-1.3 1.65-2.16.47-.73 2-3.29 2-5.2 0-1.42-.57-2.55-1.65-3.25a6.75 6.75 0 0 0-3.7-.88z" fill="url(#g)" transform="translate(0 -284.3)"/><path d="M6.8 296.76c.11-.04.2-.03.32-.1.28-.17.58-.43.92-.78.52-.55 1.11-1.31 1.65-2.15.23-.37.74-1.2 1.18-2.17.22-.48.43-1 .58-1.52.12-.4.16-.8.19-1.18l-3.33-3.33.05 2.01-2.01-2 .1 2.05-2.06-2.06.14 3.68-.84 3.3.8.78-.8.36z" opacity=".35" fill="url(#h)" transform="translate(0 -284.3)"/><path d="M6.35.1C4.81.1 3.57.38 2.66.96A3.67 3.67 0 0 0 1 4.22c0 1.91 1.54 4.47 2.01 5.2.54.85 1.13 1.61 1.65 2.16.68.7 1.21 1.03 1.69 1.03s1.01-.33 1.69-1.03c.52-.55 1.11-1.31 1.65-2.15.47-.74 2-3.3 2-5.21 0-1.42-.57-2.54-1.65-3.25A6.75 6.75 0 0 0 6.35.1zm0 .03C6.91.15 7.44.2 7.9.31a5.82 5.82 0 0 1 1.6.66 3.65 3.65 0 0 1 1.24 1.36c.14.27.25.57.32.88a4.61 4.61 0 0 1-.14 2.53c-.15.52-.36 1.04-.58 1.52-.44.97-.95 1.8-1.18 2.17-.54.84-1.13 1.6-1.65 2.15-.34.35-.64.61-.92.78a.96.96 0 0 1-.24.1.96.96 0 0 1-.24-.1 4.76 4.76 0 0 1-.92-.78 14.41 14.41 0 0 1-1.65-2.15c-.23-.37-.74-1.2-1.18-2.17-.22-.48-.43-1-.58-1.52a4.6 4.6 0 0 1-.14-2.52 3.73 3.73 0 0 1 .84-1.64 3.65 3.65 0 0 1 1.45-1c.27-.1.56-.2.87-.27.46-.1 1-.16 1.55-.18z" opacity=".2"/><path d="M9 292.53v-3.36H7.6v3.36zm0 0" fill="url(#i)" transform="translate(0 -284.3)"/><path d="M7.89 292.53h.84v.56h-.84zm0 0" fill="url(#j)" transform="translate(0 -284.3)"/><path d="M9 293.09H7.6v.56H9zm0 0" fill="url(#k)" transform="translate(0 -284.3)"/><path d="M8.87 288.61H7.75l-.14.56H9zm0 0" fill="url(#l)" transform="translate(0 -284.3)"/><path d="M8.87 288.57c0-.8-.12-1.61-.36-2.38l-.2-.66-.2.66a8.12 8.12 0 0 0-.36 2.38v.04h1.12zm0 0" fill="url(#m)" transform="translate(0 -284.3)"/><path d="M8.87 288.57c0-.8-.12-1.61-.36-2.38l-.2-.66-.2.66a8.12 8.12 0 0 0-.36 2.38v.04h1.12zm0 0" opacity=".6" fill="url(#n)" transform="translate(0 -284.3)"/><path d="M8.87 288.61H7.75l-.14.56H9zm0 0" fill="url(#o)" opacity=".6" transform="translate(0 -284.3)"/><path d="M7.89 292.53h.84v.56h-.84zm0 0" fill="url(#p)" opacity=".76" transform="translate(0 -284.3)"/><g><path d="M9 292.53v-3.36H7.6v3.36zm0 0" fill="url(#q)" transform="translate(-1.96 -284.3)"/><path d="M7.89 292.53h.84v.56h-.84zm0 0" fill="url(#r)" transform="translate(-1.96 -284.3)"/><path d="M9 293.09H7.6v.56H9zm0 0" fill="url(#s)" transform="translate(-1.96 -284.3)"/><path d="M8.87 288.61H7.75l-.14.56H9zm0 0" fill="url(#t)" transform="translate(-1.96 -284.3)"/><path d="M8.87 288.57c0-.8-.12-1.61-.36-2.38l-.2-.66-.2.66a8.12 8.12 0 0 0-.36 2.38v.04h1.12zm0 0" fill="url(#u)" transform="translate(-1.96 -284.3)"/><path d="M8.87 288.57c0-.8-.12-1.61-.36-2.38l-.2-.66-.2.66a8.12 8.12 0 0 0-.36 2.38v.04h1.12zm0 0" opacity=".6" fill="url(#v)" transform="translate(-1.96 -284.3)"/><path d="M8.87 288.61H7.75l-.14.56H9zm0 0" opacity=".6" fill="url(#w)" transform="translate(-1.96 -284.3)"/><path d="M7.89 292.53h.84v.56h-.84zm0 0" opacity=".76" fill="url(#x)" transform="translate(-1.96 -284.3)"/></g><g><path d="M9 292.53v-3.36H7.6v3.36zm0 0" fill="url(#y)" transform="translate(-3.92 -284.3)"/><path d="M7.89 292.53h.84v.56h-.84zm0 0" fill="url(#z)" transform="translate(-3.92 -284.3)"/><path d="M9 293.09H7.6v.56H9zm0 0" fill="url(#A)" transform="translate(-3.92 -284.3)"/><path d="M8.87 288.61H7.75l-.14.56H9zm0 0" fill="url(#B)" transform="translate(-3.92 -284.3)"/><path d="M8.87 288.57c0-.8-.12-1.61-.36-2.38l-.2-.66-.2.66a8.12 8.12 0 0 0-.36 2.38v.04h1.12zm0 0" fill="url(#C)" transform="translate(-3.92 -284.3)"/><path d="M8.87 288.57c0-.8-.12-1.61-.36-2.38l-.2-.66-.2.66a8.12 8.12 0 0 0-.36 2.38v.04h1.12zm0 0" opacity=".6" fill="url(#D)" transform="translate(-3.92 -284.3)"/><path d="M8.87 288.61H7.75l-.14.56H9zm0 0" opacity=".6" fill="url(#E)" transform="translate(-3.92 -284.3)"/><path d="M7.89 292.53h.84v.56h-.84zm0 0" opacity=".76" fill="url(#F)" transform="translate(-3.92 -284.3)"/></g></svg>