<?xml version="1.0" encoding="UTF-8" standalone="no"?><svg xmlns:dc="http://purl.org/dc/elements/1.1/" xmlns:cc="http://creativecommons.org/ns#" xmlns:rdf="http://www.w3.org/1999/02/22-rdf-syntax-ns#" xmlns="http://www.w3.org/2000/svg" xmlns:xlink="http://www.w3.org/1999/xlink" width="48" height="48" viewBox="0 0 12.7 12.7"><metadata><rdf:RDF><cc:Work><dc:format>image/svg+xml</dc:format><dc:type rdf:resource="http://purl.org/dc/dcmitype/StillImage"/><dc:title/></cc:Work></rdf:RDF></metadata><defs><linearGradient id="f" x1="44.99" x2="3.01" y1="17.5" y2="17.5" gradientTransform="translate(2.4 1.674) scale(.16377)" gradientUnits="userSpaceOnUse" spreadMethod="reflect"><stop stop-color="#fff" stop-opacity="0" offset="0"/><stop stop-color="#fff" offset=".24"/><stop stop-color="#fff" offset=".77"/><stop stop-color="#fff" stop-opacity="0" offset="1"/></linearGradient><linearGradient id="c" x1="24.82" x2="25" y1="15.38" y2="37.28" gradientTransform="matrix(1.44914 0 0 2.1568 -70.795 -34.997)" gradientUnits="userSpaceOnUse"><stop stop-color="#eacfb0" offset="0"/><stop stop-color="#b09b77" offset=".373"/><stop stop-color="#e3cfa5" offset=".422"/><stop stop-color="#997b53" offset="1"/></linearGradient><radialGradient id="a" cx="6.35" cy="290.65" r="5.36" gradientTransform="matrix(1 0 0 1.1704 0 -49.52)" gradientUnits="userSpaceOnUse"><stop stop-color="#374837" offset="0"/><stop stop-color="#dbe3de" offset="1"/></radialGradient><radialGradient id="b" cx="6.35" cy="290.65" r="5.36" gradientTransform="matrix(1 0 0 1.1704 0 -49.52)" gradientUnits="userSpaceOnUse"><stop stop-color="#374837" offset="0"/><stop stop-color="#dbe3de" offset="1"/></radialGradient><linearGradient xlink:href="#c" id="e" gradientUnits="userSpaceOnUse" gradientTransform="matrix(.38342 0 0 .57065 -2.856 -9.26)" x1="24.82" y1="15.38" x2="25" y2="37.28"/><linearGradient id="d" x1="26" x2="26" y1="22" y2="8" gradientTransform="matrix(2.0937 0 0 3.47518 33.763 -28.064)" gradientUnits="userSpaceOnUse"><stop stop-color="#fff" offset="0"/><stop stop-color="#fff" offset=".72"/><stop stop-color="#fff" stop-opacity=".69" offset=".79"/><stop stop-color="#fff" stop-opacity="0" offset="1"/></linearGradient><linearGradient xlink:href="#d" id="g" gradientUnits="userSpaceOnUse" gradientTransform="matrix(.55396 0 0 .91947 -6.942 -7.425)" x1="26" y1="22" x2="26" y2="8"/><radialGradient id="j" cx="24.65" cy="18.94" r="8.62" fx="24.65" gradientTransform="matrix(.01154 .42777 -.29718 .00846 14.673 -2.565)" gradientUnits="userSpaceOnUse"><stop stop-color="#cee14b" offset="0"/><stop stop-color="#9db029" offset="1"/></radialGradient><radialGradient id="i" cx="7.92" cy="289.94" r="1.81" gradientTransform="matrix(1.649 0 0 1.65708 -4.257 -472.25)" gradientUnits="userSpaceOnUse"><stop stop-color="#d7e3f4" offset="0"/><stop stop-color="#08a" offset="1"/></radialGradient><filter id="h" x="-.06" y="-.06" width="1.12" height="1.12" color-interpolation-filters="sRGB"><feGaussianBlur stdDeviation=".09"/></filter></defs><path d="M88.193 45.621c-.415.328-.896.847-1.283 1.084-1.049.643-2.003.955-2.91.955s-1.861-.312-2.91-.955c-.387-.237-.868-.756-1.283-1.084v2.691h8.386v-2.69zM79.807-.313V.79C81.195.63 82.448.34 84 .34a25.512 25.512 0 0 1 1.777-.027 25.512 25.512 0 0 1 2.416.168v-.792h-8.386z" transform="scale(.26458)" opacity=".4" fill="url(#d)"/><path d="M6.82.093A6.75 6.75 0 0 0 6.35.1c-.77 0-1.465.075-2.081.222a5.935 5.935 0 0 0-.865.276c-.268.11-.517.237-.744.382a3.67 3.67 0 0 0-.297.216 3.67 3.67 0 0 0-.274.244 3.67 3.67 0 0 0-.248.27 3.67 3.67 0 0 0-.22.293 3.67 3.67 0 0 0-.189.315 3.67 3.67 0 0 0-.157.331 3.67 3.67 0 0 0-.123.346 3.67 3.67 0 0 0-.089.356 3.67 3.67 0 0 0-.052.363 3.67 3.67 0 0 0-.015.366A3.67 3.67 0 0 0 1 4.23c0 .478.096.995.248 1.515.152.52.359 1.042.58 1.527.445.97.947 1.793 1.182 2.158.54.85 1.13 1.61 1.65 2.16.34.35.642.608.92.778.277.17.53.252.77.252s.492-.082.77-.252c.277-.17.58-.428.92-.778.52-.55 1.11-1.31 1.65-2.16.235-.365.735-1.188 1.176-2.158.22-.485.427-1.007.578-1.527.15-.52.246-1.037.246-1.515a4.65 4.65 0 0 0-.106-1.008 3.752 3.752 0 0 0-.314-.887 3.416 3.416 0 0 0-.517-.752A3.6 3.6 0 0 0 10.04.98a6.75 6.75 0 0 0-.602-.305 6.75 6.75 0 0 0-.63-.244 6.75 6.75 0 0 0-.65-.178 6.75 6.75 0 0 0-.665-.114A6.75 6.75 0 0 0 6.82.093z" display="block" fill="url(#e)"/><path d="M2.97 4.544h6.71" opacity=".4" fill="none" stroke="url(#f)" stroke-width=".16" stroke-linecap="square"/><path d="M7.46.127a6.75 6.75 0 0 0-.64-.044 6.75 6.75 0 0 0-.47.007c-.41 0-.742.077-1.11.119V12.07c.11.086.238.224.34.286.278.17.53.253.77.253s.492-.083.77-.253c.102-.062.23-.2.34-.286z" opacity=".4" fill="url(#g)"/><path transform="matrix(1.649 0 0 1.649 -1.386 -1.032)" d="M6.349 4.53c-1 0-1.81.81-1.81 1.82 0 1 .8 1.82 1.8 1.82a1.82 1.82 0 0 0 0-3.64z" opacity=".41" filter="url(#h)"/><path d="M9.43 6.702c-1.65 0-2.969 1.336-2.969 3.001 0 1.65 1.32 3.001 2.968 3.001a3.001 3.001 0 0 0 0-6.002z" fill="url(#i)"/><path d="M8.374 10.396l-.099-.165-.165-.05-.082-.247-.215.033-.18-.148-.199.181v.033c-.066-.016-.148-.016-.198-.066l-.033-.115v-.149l-.132.017.033-.264h-.082l-.083.099-.065.033-.116-.066v-.297l.165-.115h.148l.017-.083.165.05.115.148.033-.264.198-.165.083-.198.164-.065.083-.132.181-.033.1-.165h-.265l.165-.083h.149l.181-.05.017-.082-.066-.066-.066-.016.016-.083-.05-.115-.131.05.016-.1-.165-.098-.099.23v.066l-.115.05-.082.165-.033-.149-.198-.082-.033-.115.264-.165.131-.116v-.148l-.066-.033h-.082l-.05.132-.115.016a3.133 3.133 0 0 0-1.055 2.061l.099.182.23.148.231.066.1.116.164.115h.083l.066.017v.033l-.1.23-.065.1.033.065-.066.182.198.379.198.165.099.132-.017.264.066.165-.066.28v.033c0 .033.346.23.38.214l.032-.033-.016-.066.082-.082.033-.1.149-.049.099-.28-.033-.082.082-.116.165-.033.082-.198v-.264l.116-.18.016-.199-.527-.28M9.825 6.8l-.33-.132-.362.05-.462.115-.083.099.28.198v.115l-.115.116.165.297.083-.066.132-.198a3.72 3.72 0 0 0 .544-.215l.148-.379m2.556 2.424l-.082.099-.165-.165h-.132l-.116-.132v.165l.1.083.065.082.1-.099.065.132v.132l-.099.115-.198.132-.131.149-.1-.116.05-.115-.082-.1-.165-.329-.132-.165-.033.05.05.181.098.115.182.479.33-.033v.099l-.132.33-.132.164-.1.215v.362l.034.149-.05.066-.132.066-.132.115.116.132-.149.132.033.083-.23.263h-.149l-.115.066h-.1v-.099l-.032-.214-.132-.396v-.28l.066-.132-.083-.165v-.214l-.099-.116.05-.181-.083-.116h-.165l-.032-.049-.165.099-.05-.082-.148.131-.28-.33-.116-.28.099-.165-.066-.066.132-.296.33-.38.165-.05.23-.032.149.05.198.214.082-.083.1-.016.197.066h.148l.1-.1.032-.065-.099-.066h-.165c-.049-.083-.082-.148-.148-.214l-.05.033-.032.164-.1-.115-.016-.132-.115-.082h-.066l.115.132-.05.115-.082.016.05-.115-.1-.05-.082-.098-.165.033-.033.05-.098.065-.066.148-.132.066-.066-.066h-.066v-.23l.148-.083h.116l-.033-.099-.083-.082.165-.033.066-.1.066-.115h.132l-.033-.099.082-.049v.099l.165.033.165-.132v-.066l.165-.115-.165.033V7.51l.066-.132h-.066l-.115.116-.033.066.033.099-.066.164-.083-.066-.082-.098-.132.098-.033-.214.214-.148v-.066l.132-.1.215-.049.148.05.264.05-.066.082h-.148l.164.165.1-.132.032-.066s.43.396.676.824c.248.445.363.957.363 1.072z" fill="url(#j)"/></svg>