<?xml version="1.0" encoding="UTF-8" standalone="no"?><svg xmlns:dc="http://purl.org/dc/elements/1.1/" xmlns:cc="http://creativecommons.org/ns#" xmlns:rdf="http://www.w3.org/1999/02/22-rdf-syntax-ns#" xmlns="http://www.w3.org/2000/svg" xmlns:xlink="http://www.w3.org/1999/xlink" width="48" height="48"><metadata><rdf:RDF><cc:Work><dc:format>image/svg+xml</dc:format><dc:type rdf:resource="http://purl.org/dc/dcmitype/StillImage"/><dc:title/></cc:Work></rdf:RDF></metadata><defs><linearGradient id="k"><stop offset="0" stop-color="#9dac93"/><stop offset=".45" stop-color="#7c916f"/><stop offset="1" stop-color="#bec8b7"/></linearGradient><linearGradient id="g"><stop offset="0" stop-color="#a05a2c"/><stop offset=".43" stop-color="#d38d5f"/><stop offset="1" stop-color="#784421"/></linearGradient><linearGradient id="j"><stop offset="0" stop-color="#a05a2c"/><stop offset=".4" stop-color="#deaa87"/><stop offset="1" stop-color="#784421"/></linearGradient><linearGradient id="i"><stop offset="0"/><stop offset="1" stop-opacity="0"/></linearGradient><linearGradient id="c"><stop offset="0" stop-color="#502d16"/><stop offset=".37" stop-color="#784421"/><stop offset=".65" stop-color="#784421"/><stop offset="1" stop-color="#784421"/></linearGradient><linearGradient id="b"><stop offset="0" stop-color="#000005"/><stop offset="1" stop-color="#060000" stop-opacity="0"/></linearGradient><linearGradient id="a"><stop offset="0" stop-color="#1a1a1a"/><stop offset="1" stop-color="#1a1a1a" stop-opacity="0"/></linearGradient><linearGradient id="d" gradientUnits="userSpaceOnUse" x1="41.44" y1="581.72" x2="97.34" y2="581.72"><stop offset="0" stop-color="#b3b3b3"/><stop offset=".3" stop-color="#e6e6e6"/><stop offset=".66" stop-color="gray"/><stop offset="1" stop-color="#8b8b8b"/></linearGradient><linearGradient id="e" gradientUnits="userSpaceOnUse" x1="48.6" y1="579.94" x2="90.17" y2="579.94"><stop offset="0" stop-color="#b3b3b3"/><stop offset=".3" stop-color="#e6e6e6"/><stop offset=".66" stop-color="gray"/><stop offset="1" stop-color="#8b8b8b"/></linearGradient><linearGradient id="f" gradientUnits="userSpaceOnUse" x1="55.43" y1="523.32" x2="83.35" y2="523.32"><stop offset="0" stop-color="#b3b3b3"/><stop offset=".3" stop-color="#e6e6e6"/><stop offset=".66" stop-color="gray"/><stop offset="1" stop-color="#8b8b8b"/></linearGradient><linearGradient id="o" gradientUnits="userSpaceOnUse" x1="5.26" y1="671.47" x2="133.69" y2="543.04" gradientTransform="matrix(.04586 .01823 -.01823 .04586 34.26 -4.09)"><stop offset="0" stop-color="#b3b3b3"/><stop offset=".3" stop-color="#e6e6e6"/><stop offset=".66" stop-color="gray"/><stop offset="1" stop-color="#8b8b8b"/></linearGradient><linearGradient gradientTransform="translate(4.51 -1.16)" xlink:href="#c" id="u" x1="14.38" y1="34.66" x2="15.91" y2="22.91" gradientUnits="userSpaceOnUse"/><linearGradient xlink:href="#d" id="q" gradientUnits="userSpaceOnUse" x1="41.44" y1="581.72" x2="97.34" y2="581.72"/><linearGradient xlink:href="#e" id="r" gradientUnits="userSpaceOnUse" x1="48.6" y1="579.94" x2="90.17" y2="579.94"/><linearGradient xlink:href="#f" id="s" gradientUnits="userSpaceOnUse" x1="55.43" y1="523.32" x2="83.35" y2="523.32"/><linearGradient xlink:href="#g" id="t" gradientUnits="userSpaceOnUse" gradientTransform="matrix(.04903 0 0 .04903 30.33 -8.8)" x1="69.03" y1="4.5" x2="69.03" y2="28.92"/><linearGradient gradientTransform="translate(4.51 -1.16)" xlink:href="#h" id="n" x1="22.62" y1="31.21" x2="25.75" y2="22.44" gradientUnits="userSpaceOnUse"/><linearGradient id="h"><stop offset="0" stop-color="#502d16"/><stop offset="1" stop-color="#c87137"/></linearGradient><linearGradient xlink:href="#i" id="m" gradientUnits="userSpaceOnUse" x1="19.01" y1="13.47" x2="52.73" y2="36.57"/><linearGradient xlink:href="#j" id="p" x1="33.02" y1="-.72" x2="34.16" y2="-.72" gradientUnits="userSpaceOnUse"/><linearGradient xlink:href="#k" id="l" x1="6.22" y1="5.06" x2="38.73" y2="41.42" gradientUnits="userSpaceOnUse"/></defs><path fill="url(#l)" d="M24 .35c-5.83 0-10.52 1.12-13.93 3.33-4.1 2.66-6.27 6.9-6.27 12.27 0 7.23 5.8 16.88 7.58 19.67a54.48 54.48 0 0 0 6.25 8.16c2.54 2.64 4.57 3.87 6.37 3.87 1.8 0 3.83-1.23 6.37-3.87 2-2.08 4.22-4.97 6.25-8.16 1.78-2.79 7.58-12.44 7.58-19.67 0-5.37-2.16-9.61-6.26-12.27C34.52 1.47 29.84.35 24 .35z"/><path d="M26.42 47.02c.17-.1.31-.06.49-.16 1.05-.64 2.19-1.61 3.46-2.93 2-2.08 4.22-4.97 6.25-8.16.89-1.4 2.79-4.5 4.46-8.17.83-1.83 1.61-3.8 2.19-5.77.57-1.96.93-3.92.93-5.73 0-1.24-.14-2.4-.37-3.52l-7.3-7.3-4.52-.47 1.52 1.52-5.41 14.18-2.96 8.86-12.8 3.59z" opacity=".5" fill="url(#m)"/><path opacity=".2" d="M24 .35c-5.83 0-10.52 1.12-13.93 3.33-4.1 2.66-6.27 6.9-6.27 12.27 0 7.23 5.8 16.88 7.58 19.67a54.47 54.47 0 0 0 6.25 8.16c2.54 2.64 4.57 3.87 6.37 3.87 1.8 0 3.83-1.23 6.37-3.87 2-2.08 4.22-4.97 6.25-8.16 1.78-2.79 7.58-12.44 7.58-19.67 0-5.37-2.16-9.61-6.26-12.27C34.52 1.47 29.84.35 24 .35zm0 .14c2.11.09 4.12.27 5.88.7a22 22 0 0 1 3.26 1.03c1.01.42 1.94.9 2.8 1.46A12.92 12.92 0 0 1 40.6 8.8c.53 1.03.92 2.15 1.2 3.34.26 1.2.4 2.47.4 3.8 0 1.82-.37 3.77-.94 5.74a43.19 43.19 0 0 1-2.2 5.77 69.59 69.59 0 0 1-4.45 8.17 54.47 54.47 0 0 1-6.25 8.16 17.98 17.98 0 0 1-3.46 2.93c-.32.2-.62.3-.91.39-.3-.08-.6-.2-.9-.4-1.06-.63-2.2-1.6-3.47-2.92-2-2.08-4.22-4.97-6.25-8.16a69.6 69.6 0 0 1-4.46-8.17 43.18 43.18 0 0 1-2.19-5.77 20.93 20.93 0 0 1-.93-5.73c0-1.34.13-2.61.4-3.81.27-1.2.67-2.31 1.2-3.34a12.92 12.92 0 0 1 4.67-5.12 17.1 17.1 0 0 1 2.8-1.46c1-.41 2.1-.76 3.26-1.04C19.88.76 21.89.58 24 .5z"/><ellipse ry="4.8" rx="5.86" cy="28.08" cx="24.76" fill="url(#n)"/><path d="M22.25 26.2l2.12-5.34 6.3 2.5-2.12 5.35c-.45 1.16-4.4 1.81-4.4 1.81s-2.36-3.16-1.9-4.31z" fill="url(#o)"/><path transform="rotate(21.65) skewX(-.08)" fill="url(#p)" d="M33.02-8.37h1.38V6.92h-1.38z"/><path fill="#e7e7e8" d="M24.45 20.64l6.27 2.5-.08.18-6.26-2.49z"/><path transform="matrix(.04556 .01811 -.01811 .04556 34.27 -4.13)" fill="url(#q)" d="M41.44 547.76l21.7 67.93h13.42L97.34 548z"/><path transform="matrix(.04556 .01811 -.01811 .04556 34.27 -4.13)" fill="url(#r)" d="M48.6 547.76l18.11 64.35h6.27l17.2-64.13z"/><path transform="matrix(.04556 .01811 -.01811 .04556 34.27 -4.13)" fill="url(#s)" d="M69.52 595.59l-14.1-47.02v-97.52h27.93v97.52z"/><path transform="rotate(21.68)" fill="url(#t)" d="M31.52-8.58h4.39v1.23h-4.39z"/><path d="M18.64 22.52a4 4 0 0 1 3.16 1.53c.26-.08.22-.1.51-.1l-.4.82-.22.44a.93.93 0 0 0-.07.55c-.9.12 1.32-.43.64.16.1.49-.09.55-.03.78.19.65.28-.31 2.25 1.12l.17.19.26-.05c.02 0 1.43-.3 2.46.48.34.26-.15-.25.02.03.15.24.5.41.54.92.05.61-.75.06.46-.33 1.42-.71.7.24.44-.33.07-.06.3-.09.34-.16l1.08-2.21c.55.16.99.78.99 1.6 0 .38-.12.73-.3 1.02.12-.05.25-.1.4-.1.5 0 1.18.23 1.17.93.86.2 1.5.95 1.51 1.86a1.92 1.92 0 0 1-2.24 1.89h-.01a.97.97 0 0 1-.22-.03H13.57v-.02c-.89-.1-1.57-.7-1.57-1.41 0-.54.39-1 .95-1.25a2.13 2.13 0 0 1-.25-.98c0-1.08.84-2.02 2.09-2.54a3.93 3.93 0 0 1 3.85-4.82z" fill="url(#u)"/></svg>