<svg xmlns="http://www.w3.org/2000/svg" xmlns:xlink="http://www.w3.org/1999/xlink" width="48" height="48"><defs><linearGradient id="a"><stop offset="0" stop-color="#87aade"/><stop offset=".52" stop-color="#3771c8"/><stop offset=".78" stop-color="#2c5aa0"/><stop offset="1" stop-color="#2c2ca0" stop-opacity="0"/></linearGradient><linearGradient xlink:href="#a" id="b" x1="24" y1=".35" x2="24" y2="59.57" gradientUnits="userSpaceOnUse"/></defs><path fill="url(#b)" d="M24 .35c-5.83 0-10.52 1.12-13.93 3.33-4.1 2.66-6.27 6.9-6.27 12.27 0 7.23 5.8 16.88 7.58 19.67a54.48 54.48 0 0 0 6.25 8.16c2.54 2.64 4.57 3.87 6.37 3.87 1.8 0 3.83-1.23 6.37-3.87 2-2.08 4.22-4.97 6.25-8.16 1.78-2.79 7.58-12.44 7.58-19.67 0-5.37-2.16-9.61-6.26-12.27C34.52 1.47 29.84.35 24 .35z"/><path opacity=".4" d="M24 .35c-.2 0-.34.05-.54.05V7.18l-9.54 3.95-2.26-2.26-.02-.02-3.53-3.53c-.23.23-.54.4-.75.64l-.07.1 5.85 5.84-1.55 3.76a.55.55 0 0 0 1.01.42l1.38-3.33 2.56 2.55-2.55 6.15h-3.62l1.39-3.34a.55.55 0 1 0-1.01-.42l-1.56 3.75h-4.5l.04.24c.09.3.23.57.33.86h4.13l3.94 9.54-2.26 2.26-.02.02-.1.1c.14.23.43.83.54 1l2.62-2.6 9.53 3.95v10.66c.18.03.39.18.56.18.17 0 .37-.15.54-.17V36.81l9.54-3.94 2.26 2.26.35.36c.11-.18.4-.78.55-1l-2.39-2.4 3.96-9.53h4.12c.1-.3.25-.58.34-.88l.03-.21h-4.49l-3.94-9.55 2.26-2.26 3.6-3.59c-.04-.03-.05-.08-.08-.1-.22-.24-.51-.41-.74-.63l-5.81 5.8-9.54-3.95V.4c-.2 0-.35-.06-.56-.06zm-.54 8.03v3.61l-6.15 2.54-2.55-2.56zm1.1 0l8.7 3.6-2.56 2.56-6.14-2.55V8.65zm9.47 4.38l3.6 8.7H34l-.85-2.06a.55.55 0 0 0-1.01.42l.67 1.64h-3.61l-1.14-2.75 2.56-2.56.68 1.64a.55.55 0 0 0 1.01-.42l-.85-2.05zm-10.57.42v3.61l-2.75 1.14-2.56-2.56zm1.1 0l5.3 2.2-2.56 2.55-2.75-1.14zm-7.18 2.96l2.55 2.56-1.14 2.75h-3.61zm6.07 1.84v2.7l-1.9-1.91zm1.1 0l1.9.8-1.9 1.9zm-3.78 1.56l1.9 1.91h-2.7zm6.46 0l.79 1.92h-2.7zm-16.86 3H14l2.54 6.15-2.56 2.55zm4.8 0h3.62l1.14 2.75-2.56 2.56zm4.8 0h2.7l-1.9 1.92zm5.35 0l2.7.01-.8 1.9zm3.89.01h3.61l-2.2 5.3-2.55-2.55zm4.8 0l3.62.01-3.62 8.7-2.55-2.56zm-10.56.77v2.7l-1.9-.79zm1.1 0l1.9 1.91-1.9.8zm-3.85 2.75l2.75 1.14v3.61l-5.3-2.2zm6.6 0l2.55 2.56-5.3 2.2V27.2zm-10 3.4L23.44 32v3.62l-8.7-3.61zm13.38 0l2.56 2.56-8.7 3.6V32z"/><path opacity=".3" d="M3.83 14.77c-.02.39-.03.78-.03 1.18 0 7.23 5.8 16.88 7.58 19.67a54.48 54.48 0 0 0 6.25 8.16c2.54 2.64 4.57 3.87 6.37 3.87 1.8 0 3.83-1.23 6.37-3.87 2-2.08 4.22-4.97 6.25-8.16 1.78-2.79 7.58-12.44 7.58-19.67 0-.4-.01-.8-.03-1.18-.4 7.12-5.84 16.17-7.55 18.85a54.47 54.47 0 0 1-6.25 8.16c-2.54 2.64-4.56 3.87-6.37 3.87-1.8 0-3.83-1.23-6.37-3.87-2-2.08-4.22-4.97-6.25-8.16-1.71-2.68-7.14-11.73-7.55-18.85z"/><path fill="#f9f9f9" d="M24 .35c-.2 0-.34.05-.54.05V5.2l-9.54 3.94-2.26-2.26-.02-.02L9.2 4.41c-.3.22-.57.46-.84.7l4.78 4.8-1.55 3.75a.55.55 0 0 0 1.01.42l1.38-3.33 2.56 2.55-2.55 6.15h-3.62l1.39-3.34a.55.55 0 1 0-1.01-.42l-1.56 3.75H4.37c.07.37.08.72.17 1.1H9.2l3.94 9.54-2.26 2.26-.02.02-.8.81.54 1 3.32-3.31 9.53 3.95V46.98c0 .3.1.27.11.53.15.01.31.14.45.14.13 0 .29-.12.42-.13.02-.27.12-.24.12-.54V34.81l9.54-3.94 2.26 2.26 1.06 1.06c.15-.24.38-.72.55-1l-3.1-3.1 3.96-9.53H43.45c.1-.37.1-.72.18-1.1h-4.82l-3.94-9.54 2.26-2.26 2.53-2.53c-.27-.24-.55-.48-.84-.7L34.1 9.14l-9.54-3.96V.4c-.2 0-.35-.06-.56-.06zm-.54 6.03v3.61l-6.15 2.54-2.55-2.56zm1.1 0l8.7 3.6-2.56 2.56-6.14-2.55V6.65zm9.47 4.38l3.6 8.7H34l-.85-2.06a.55.55 0 0 0-1.01.42l.67 1.64h-3.61l-1.14-2.75 2.56-2.56.68 1.64a.55.55 0 0 0 1.01-.42l-.85-2.05zm-10.57.42v3.61l-2.75 1.14-2.56-2.56zm1.1 0l5.3 2.2-2.56 2.55-2.75-1.14zm-7.18 2.96l2.55 2.56-1.14 2.75h-3.61zm6.07 1.84v2.7l-1.9-1.91zm1.1 0l1.9.8-1.9 1.9zm-3.78 1.56l1.9 1.91h-2.7zm6.46 0l.79 1.92h-2.7zm-16.86 3H14l2.54 6.15-2.56 2.55zm4.8 0h3.62l1.14 2.75-2.56 2.56zm4.8 0h2.7l-1.9 1.92zm5.35 0l2.7.01-.8 1.9zm3.89.01h3.61l-2.2 5.3-2.55-2.55zm4.8 0l3.62.01-3.62 8.7-2.55-2.56zm-10.56.77v2.7l-1.9-.79zm1.1 0l1.9 1.91-1.9.8zm-3.85 2.75l2.75 1.14v3.61l-5.3-2.2zm6.6 0l2.55 2.56-5.3 2.2V25.2zm-10 3.4L23.44 30v3.62l-8.7-3.61zm13.38 0l2.56 2.56-8.7 3.6V30z"/></svg>