<?xml version="1.0" encoding="UTF-8" standalone="no"?><svg xmlns:dc="http://purl.org/dc/elements/1.1/" xmlns:cc="http://creativecommons.org/ns#" xmlns:rdf="http://www.w3.org/1999/02/22-rdf-syntax-ns#" xmlns="http://www.w3.org/2000/svg" xmlns:xlink="http://www.w3.org/1999/xlink" width="48" height="48" viewBox="0 0 12.7 12.7"><metadata><rdf:RDF><cc:Work><dc:format>image/svg+xml</dc:format><dc:type rdf:resource="http://purl.org/dc/dcmitype/StillImage"/><dc:title/></cc:Work></rdf:RDF></metadata><defs><linearGradient id="q"><stop offset="0" stop-color="#a02c2c"/><stop offset="1" stop-color="#d35f5f"/></linearGradient><linearGradient gradientUnits="userSpaceOnUse" id="f" y2="94.51" x2="14.93" y1="100.66" x1="14.93"><stop stop-color="#969696" offset="0"/><stop stop-color="#ddd" offset=".67"/><stop stop-color="#555" offset="1"/></linearGradient><linearGradient x1="54" y1="110.18" x2="56" y2="110.18" id="m" gradientUnits="userSpaceOnUse"><stop offset="0" stop-color="#888"/><stop offset=".01" stop-color="#656565"/><stop offset=".03" stop-color="#494949"/><stop offset=".04" stop-color="#383838"/><stop offset=".05" stop-color="#323232"/><stop offset=".46" stop-color="#353535"/><stop offset=".7" stop-color="#3d3d3d"/><stop offset=".9" stop-color="#4b4b4b"/><stop offset="1" stop-color="#555"/></linearGradient><linearGradient x1="56" y1="110.18" x2="58" y2="110.18" id="l" gradientUnits="userSpaceOnUse"><stop offset="0" stop-color="#888"/><stop offset=".08" stop-color="#858585"/><stop offset=".13" stop-color="#7d7d7d"/><stop offset=".17" stop-color="#6f6f6f"/><stop offset=".2" stop-color="#5b5b5b"/><stop offset=".24" stop-color="#414141"/><stop offset=".25" stop-color="#323232"/><stop offset=".57" stop-color="#353535"/><stop offset=".77" stop-color="#3d3d3d"/><stop offset=".92" stop-color="#4b4b4b"/><stop offset="1" stop-color="#555"/></linearGradient><linearGradient x1="58" y1="110.18" x2="60" y2="110.18" id="k" gradientUnits="userSpaceOnUse"><stop offset="0" stop-color="#888"/><stop offset=".08" stop-color="#858585"/><stop offset=".13" stop-color="#7d7d7d"/><stop offset=".17" stop-color="#6f6f6f"/><stop offset=".2" stop-color="#5b5b5b"/><stop offset=".24" stop-color="#414141"/><stop offset=".25" stop-color="#323232"/><stop offset=".57" stop-color="#353535"/><stop offset=".77" stop-color="#3d3d3d"/><stop offset=".92" stop-color="#4b4b4b"/><stop offset="1" stop-color="#555"/></linearGradient><linearGradient x1="68" y1="110.18" x2="70" y2="110.18" id="a" gradientUnits="userSpaceOnUse"><stop offset="0" stop-color="#888"/><stop offset=".08" stop-color="#858585"/><stop offset=".13" stop-color="#7d7d7d"/><stop offset=".17" stop-color="#6f6f6f"/><stop offset=".2" stop-color="#5b5b5b"/><stop offset=".24" stop-color="#414141"/><stop offset=".25" stop-color="#323232"/><stop offset=".57" stop-color="#353535"/><stop offset=".77" stop-color="#3d3d3d"/><stop offset=".92" stop-color="#4b4b4b"/><stop offset="1" stop-color="#555"/></linearGradient><linearGradient x1="70" y1="110.18" x2="72" y2="110.18" id="b" gradientUnits="userSpaceOnUse"><stop offset="0" stop-color="#888"/><stop offset=".08" stop-color="#858585"/><stop offset=".13" stop-color="#7d7d7d"/><stop offset=".17" stop-color="#6f6f6f"/><stop offset=".2" stop-color="#5b5b5b"/><stop offset=".24" stop-color="#414141"/><stop offset=".25" stop-color="#323232"/><stop offset=".48" stop-color="#353535"/><stop offset=".62" stop-color="#3d3d3d"/><stop offset=".73" stop-color="#4b4b4b"/><stop offset=".79" stop-color="#555"/><stop offset=".83" stop-color="#888"/></linearGradient><radialGradient xlink:href="#a" id="s" gradientUnits="userSpaceOnUse" gradientTransform="matrix(-.07594 0 0 -.07419 11.21 8.3)" cx="64" cy="100.22" r="90"/><radialGradient xlink:href="#b" id="t" gradientUnits="userSpaceOnUse" cx="63.5" cy="75" r="31.5" gradientTransform="rotate(179.54 5.54 3.78) scale(.07379)"/><radialGradient xlink:href="#c" id="u" gradientUnits="userSpaceOnUse" cx="58" cy="53" r="70.12" gradientTransform="translate(12.68 9.4) scale(.10177)"/><radialGradient cx="58" cy="53" r="70.12" id="c" gradientUnits="userSpaceOnUse"><stop offset=".45" stop-color="#fff"/><stop offset=".47" stop-color="#f1f1f1"/><stop offset=".52" stop-color="#ccc"/><stop offset=".58" stop-color="#aeaeae"/><stop offset=".63" stop-color="#999"/><stop offset=".69" stop-color="#8c8c8c"/><stop offset=".74" stop-color="#888"/><stop offset=".84" stop-color="#6c6c6c"/><stop offset=".92" stop-color="#5b5b5b"/><stop offset=".99" stop-color="#555"/></radialGradient><radialGradient xlink:href="#d" id="w" gradientUnits="userSpaceOnUse" cx="14.93" cy="97.59" fx="15" fy="98" r="2.56" gradientTransform="translate(.58 -7.63) scale(.13137)"/><radialGradient cx="14.93" cy="97.59" r="2.56" fx="15" fy="98" id="d" gradientUnits="userSpaceOnUse"><stop offset=".13" stop-color="#eee"/><stop offset=".25" stop-color="#cecece"/><stop offset=".47" stop-color="#888"/><stop offset="1" stop-color="#555"/></radialGradient><radialGradient xlink:href="#e" id="y" gradientUnits="userSpaceOnUse" cx="14.93" cy="97.59" fx="15" fy="98" r="2.56" gradientTransform="translate(5.88 -7.63) scale(.13137)"/><radialGradient cx="14.93" cy="97.59" r="2.56" fx="15" fy="98" id="e" gradientUnits="userSpaceOnUse"><stop offset=".13" stop-color="#eee"/><stop offset=".25" stop-color="#cecece"/><stop offset=".47" stop-color="#888"/><stop offset="1" stop-color="#555"/></radialGradient><linearGradient xlink:href="#f" id="x" gradientUnits="userSpaceOnUse" x1="14.93" y1="100.66" x2="14.93" y2="94.51" gradientTransform="translate(5.88 -7.63) scale(.13137)"/><radialGradient xlink:href="#g" id="A" gradientUnits="userSpaceOnUse" cx="14.93" cy="97.59" fx="15" fy="98" r="2.56" gradientTransform="translate(5.88 -7.63) scale(.13137)"/><radialGradient cx="14.93" cy="97.59" r="2.56" fx="15" fy="98" id="g" gradientUnits="userSpaceOnUse"><stop offset=".13" stop-color="#eee"/><stop offset=".25" stop-color="#cecece"/><stop offset=".47" stop-color="#888"/><stop offset="1" stop-color="#555"/></radialGradient><radialGradient xlink:href="#h" id="C" gradientUnits="userSpaceOnUse" cx="14.93" cy="97.59" fx="15" fy="98" r="2.56" gradientTransform="translate(5.88 -7.63) scale(.13137)"/><radialGradient cx="14.93" cy="97.59" r="2.56" fx="15" fy="98" id="h" gradientUnits="userSpaceOnUse"><stop offset=".13" stop-color="#eee"/><stop offset=".25" stop-color="#cecece"/><stop offset=".47" stop-color="#888"/><stop offset="1" stop-color="#555"/></radialGradient><radialGradient xlink:href="#i" id="E" gradientUnits="userSpaceOnUse" cx="14.93" cy="97.59" fx="15" fy="98" r="2.56" gradientTransform="translate(5.88 -7.63) scale(.13137)"/><radialGradient cx="14.93" cy="97.59" r="2.56" fx="15" fy="98" id="i" gradientUnits="userSpaceOnUse"><stop offset=".13" stop-color="#eee"/><stop offset=".25" stop-color="#cecece"/><stop offset=".47" stop-color="#888"/><stop offset="1" stop-color="#555"/></radialGradient><radialGradient xlink:href="#j" id="G" gradientUnits="userSpaceOnUse" cx="14.93" cy="97.59" fx="15" fy="98" r="2.56" gradientTransform="translate(.58 -7.63) scale(.13137)"/><radialGradient cx="14.93" cy="97.59" r="2.56" fx="15" fy="98" id="j" gradientUnits="userSpaceOnUse"><stop offset=".13" stop-color="#eee"/><stop offset=".25" stop-color="#cecece"/><stop offset=".47" stop-color="#888"/><stop offset="1" stop-color="#555"/></radialGradient><linearGradient xlink:href="#k" id="J" gradientUnits="userSpaceOnUse" x1="58" y1="110.18" x2="60" y2="110.18" gradientTransform="matrix(.1176 0 .04328 .1176 -5.83 -2.37)"/><linearGradient xlink:href="#l" id="I" gradientUnits="userSpaceOnUse" x1="56" y1="110.18" x2="58" y2="110.18" gradientTransform="matrix(.1176 0 .04328 .1176 -5.83 -2.37)"/><linearGradient xlink:href="#m" id="H" gradientUnits="userSpaceOnUse" x1="54" y1="110.18" x2="56" y2="110.18" gradientTransform="matrix(.1176 0 .04328 .1176 -5.83 -2.37)"/><linearGradient id="n"><stop offset="0" stop-color="gray"/><stop offset="1" stop-color="#ccc"/></linearGradient><linearGradient xlink:href="#n" id="r" x1="22.4" y1="-.14" x2="22.42" y2="48.41" gradientUnits="userSpaceOnUse" gradientTransform="scale(.26458)"/><linearGradient xlink:href="#f" id="v" gradientUnits="userSpaceOnUse" x1="14.93" y1="100.66" x2="14.93" y2="94.51" gradientTransform="translate(.39 -7.92) scale(.13137)"/><linearGradient xlink:href="#f" id="D" gradientUnits="userSpaceOnUse" x1="14.93" y1="100.66" x2="14.93" y2="94.51" gradientTransform="matrix(-.13137 0 0 .13137 10.2 -3.2)"/><linearGradient xlink:href="#f" id="z" gradientUnits="userSpaceOnUse" x1="14.93" y1="100.66" x2="14.93" y2="94.51" gradientTransform="matrix(-.13137 0 0 .13137 10.34 -11.76)"/><linearGradient xlink:href="#f" id="B" gradientUnits="userSpaceOnUse" x1="14.93" y1="100.66" x2="14.93" y2="94.51" gradientTransform="translate(2.29 -11.79) scale(.13137)"/><linearGradient xlink:href="#f" id="F" gradientUnits="userSpaceOnUse" x1="14.93" y1="100.66" x2="14.93" y2="94.51" gradientTransform="translate(2.56 -3.13) scale(.13137)"/><linearGradient xlink:href="#k" id="M" gradientUnits="userSpaceOnUse" x1="58" y1="110.18" x2="60" y2="110.18" gradientTransform="matrix(-.1176 0 -.04328 .1176 18.71 -2.37)"/><linearGradient xlink:href="#l" id="L" gradientUnits="userSpaceOnUse" x1="56" y1="110.18" x2="58" y2="110.18" gradientTransform="matrix(-.1176 0 -.04328 .1176 18.71 -2.37)"/><linearGradient xlink:href="#m" id="K" gradientUnits="userSpaceOnUse" x1="54" y1="110.18" x2="56" y2="110.18" gradientTransform="matrix(-.1176 0 -.04328 .1176 18.71 -2.37)"/><linearGradient xlink:href="#o" id="O" x1="32" y1="4.17" x2="32" y2="20.6" gradientUnits="userSpaceOnUse" gradientTransform="matrix(.17795 0 0 .17795 3.22 6.22)"/><linearGradient id="o"><stop offset="0" stop-color="#fff"/><stop offset="1" stop-color="#fff" stop-opacity=".07"/></linearGradient><linearGradient id="p"><stop offset="0" stop-color="#fff"/><stop offset=".52" stop-color="#fff"/><stop offset="1" stop-color="#ccc"/></linearGradient><linearGradient xlink:href="#q" id="N" x1="8.49" y1="12.46" x2="8.87" y2="7.04" gradientUnits="userSpaceOnUse"/></defs><path d="M6.35.1C4.81.1 3.57.38 2.66.96a3.67 3.67 0 0 0-1.65 3.25c0 1.91 1.53 4.47 2 5.2a14.41 14.41 0 0 0 1.65 2.16c.68.7 1.21 1.03 1.69 1.03s1.01-.33 1.69-1.03c.52-.55 1.11-1.31 1.65-2.16.47-.73 2-3.29 2-5.2 0-1.42-.57-2.54-1.65-3.25A6.76 6.76 0 0 0 6.35.1z" fill="url(#r)"/><path d="M6.35.1C4.81.1 3.57.39 2.66.97A3.67 3.67 0 0 0 1 4.22c0 1.91 1.54 4.47 2.01 5.2.54.85 1.13 1.61 1.65 2.16.68.7 1.21 1.03 1.69 1.03s1.01-.33 1.69-1.03a15.2 15.2 0 0 0 1.65-2.15c.47-.74 2-3.3 2-5.21 0-1.42-.57-2.54-1.65-3.25A6.75 6.75 0 0 0 6.35.09zm0 .03C6.91.15 7.44.2 7.9.31a5.82 5.82 0 0 1 1.6.66 3.65 3.65 0 0 1 1.24 1.36c.14.27.25.57.32.88a4.61 4.61 0 0 1-.14 2.53c-.15.52-.36 1.04-.58 1.52-.44.97-.95 1.8-1.18 2.17a15.2 15.2 0 0 1-1.65 2.15 4.9 4.9 0 0 1-.92.78.96.96 0 0 1-.24.1.96.96 0 0 1-.24-.1 4.76 4.76 0 0 1-.92-.78 14.41 14.41 0 0 1-1.65-2.15 19.2 19.2 0 0 1-1.18-2.17c-.22-.48-.43-1-.58-1.52a4.6 4.6 0 0 1-.14-2.52 3.73 3.73 0 0 1 .84-1.64 3.65 3.65 0 0 1 1.45-1A6.83 6.83 0 0 1 6.35.13z" opacity=".2"/><path d="M3.02 3.58c.04.54.33 1.05.8 1.45l.13 2.15c.01.15.16.27.33.27h1.13c.18 0 .32-.12.33-.28.02-.7.65-1.06 1.59-1.4a5.9 5.9 0 0 0 1.38-.6c.58-.42.93-.99.97-1.6a1.97 1.97 0 0 0-.59-1.54A3.81 3.81 0 0 0 6.35 1c-1.1 0-2.12.39-2.74 1.04A2.04 2.04 0 0 0 3 3.58zm3.33-2.32c1.83 0 3.23 1.1 3.13 2.37a2.16 2.16 0 0 1-.9 1.52c-.1.1-1 .5-1.32.57-.9.32-1.7.73-1.73 1.6 0 .03-.06.06-.12.06H4.28c-.06 0-.12-.03-.12-.07l-.13-2.23a2.13 2.13 0 0 1-.8-1.45c-.1-1.27 1.3-2.37 3.12-2.37z" fill="url(#s)" transform="rotate(180 6.53 4.89)"/><path d="M6.35 3.64c.59 0 1.04-.3 1.05-.69v-.01a.56.56 0 0 0-.17-.4c-.2-.2-.52-.3-.88-.3s-.69.1-.88.3a.56.56 0 0 0-.17.41c.01.4.46.7 1.05.7zm0-1.19c.55 0 .84.3.83.57 0 .26-.38.48-.83.48-.45 0-.82-.22-.83-.48 0-.27.28-.57.83-.57z" fill="url(#t)" transform="rotate(180 6.53 4.89)"/><path d="M5.79 7.58l.02.08c.03.11.1.32.38.32H9.7c.32 0 .6-.26.62-.59l.09-1.33a.62.62 0 0 0-.17-.47c-.17-.18-.4-.13-.5-.1-2.3.48-3.74 1.53-3.93 1.87a.26.26 0 0 0-.03.22zm.2-.07C5.92 7.35 7.37 6.2 9.8 5.68c.11-.02.23-.03.3.05.09.08.13.2.12.32v.1l-.1 1.33c-.01.22-.2.4-.4.4H6.18c-.17 0-.15-.1-.2-.27v-.1z" fill="url(#u)" transform="rotate(180 6.53 4.89)"/><path fill="url(#v)" d="M1.83 4.9c-.02.22.2.4.49.4.28 0 .53-.18.55-.4.01-.23-.2-.4-.49-.4s-.53.17-.55.4z"/><path d="M2.16 5.2c-.01.06.02.12.05.15.07.07.18.11.3.11.22 0 .41-.13.43-.28a.2.2 0 0 0-.06-.15.41.41 0 0 0-.3-.11c-.22 0-.41.12-.42.28z" fill="url(#w)" transform="translate(-.2 -.29)"/><path d="M7.32 5.19c-.02.22.2.4.49.4.28 0 .53-.18.55-.4.01-.23-.2-.4-.49-.4s-.53.17-.55.4z" fill="url(#x)" transform="matrix(-1 0 0 1 18.2 -.34)"/><path d="M7.45 5.2c0 .06.02.12.05.15.07.07.18.11.3.11.22 0 .42-.13.43-.28a.2.2 0 0 0-.06-.15.41.41 0 0 0-.3-.11c-.22 0-.4.12-.42.28z" fill="url(#y)" transform="matrix(-1 0 0 1 18.2 -.34)"/><path fill="url(#z)" d="M8.9 1.06c.02.22-.2.4-.49.4-.28 0-.53-.18-.55-.4-.01-.23.2-.4.49-.4s.53.17.55.4z"/><path d="M7.45 5.2c0 .06.02.12.05.15.07.07.18.11.3.11.22 0 .42-.13.43-.28a.2.2 0 0 0-.06-.15.41.41 0 0 0-.3-.11c-.22 0-.4.12-.42.28z" fill="url(#A)" transform="matrix(-1 0 0 1 16.22 -4.13)"/><path fill="url(#B)" d="M3.73 1.03c-.02.22.2.4.49.4.28 0 .53-.18.55-.4.01-.23-.2-.4-.49-.4s-.53.17-.55.4z"/><path d="M7.45 5.2c0 .06.02.12.05.15.07.07.18.11.3.11.22 0 .42-.13.43-.28a.2.2 0 0 0-.06-.15.41.41 0 0 0-.3-.11c-.22 0-.4.12-.42.28z" fill="url(#C)" transform="translate(-3.59 -4.16)"/><path fill="url(#D)" d="M8.76 9.62c.02.22-.2.4-.49.4-.28 0-.53-.18-.55-.4-.01-.23.2-.4.49-.4s.53.17.55.4z"/><path d="M7.45 5.2c0 .06.02.12.05.15.07.07.18.11.3.11.22 0 .42-.13.43-.28a.2.2 0 0 0-.06-.15.41.41 0 0 0-.3-.11c-.22 0-.4.12-.42.28z" fill="url(#E)" transform="matrix(-1 0 0 1 16.08 4.43)"/><path fill="url(#F)" d="M4 9.69c-.02.22.2.4.49.4.28 0 .53-.18.55-.4.01-.23-.2-.4-.49-.4s-.53.17-.55.4z"/><path d="M2.16 5.2c-.01.06.02.12.05.15.07.07.18.11.3.11.22 0 .41-.13.43-.28a.2.2 0 0 0-.06-.15.41.41 0 0 0-.3-.11c-.22 0-.41.12-.42.28z" fill="url(#G)" transform="translate(1.97 4.5)"/><path d="M5.06 9.96h.24l.46 1.25h-.24z" fill="url(#H)"/><path d="M5.3 9.96h.24L6 11.21h-.24z" fill="url(#I)"/><path d="M5.53 9.96h.24l.46 1.25h-.24z" fill="url(#J)"/><path d="M7.83 9.96h-.24l-.46 1.25h.24z" fill="url(#K)"/><path d="M7.59 9.96h-.24l-.46 1.25h.24z" fill="url(#L)"/><path d="M7.36 9.96h-.24l-.46 1.25h.24z" fill="url(#M)"/><path d="M10.84 7.82a2.7 2.7 0 0 0-1.92-.8 2.7 2.7 0 0 0-1.92.8 2.7 2.7 0 0 0-.8 1.92c0 .73.28 1.41.8 1.93a2.7 2.7 0 0 0 1.92.8 2.7 2.7 0 0 0 1.92-.8 2.7 2.7 0 0 0 .8-1.93 2.7 2.7 0 0 0-.8-1.92z" fill="url(#N)"/><path d="M11.46 9.02l-.08-.27a2.72 2.72 0 0 0-.58-.88 2.65 2.7 0 0 0-.2-.19 2.65 2.7 0 0 0-.21-.16 2.65 2.7 0 0 0-.23-.13 2.65 2.7 0 0 0-.24-.12 2.65 2.7 0 0 0-.25-.09 2.65 2.7 0 0 0-.25-.06 2.65 2.7 0 0 0-.27-.04 2.65 2.7 0 0 0-.24 0 2.64 2.64 0 0 0-1.88.79 2.65 2.7 0 0 0-.18.2 2.65 2.7 0 0 0-.16.21 2.65 2.7 0 0 0-.14.23 2.65 2.7 0 0 0-.1.25 2.65 2.7 0 0 0-.1.25 2.8 1.47 0 0 0 2.56.88 2.8 1.47 0 0 0 2.55-.87z" opacity=".51" fill="url(#O)"/><path d="M8.96 7.68a.5.5 0 0 1 .08.01.33.33 0 0 1 .25.4c-.1.82-.11 1.63-.19 2.44h-.4c-.07-.84-.03-1.68-.1-2.55v-.06c.03-.14.2-.25.36-.24zm-.06 3.49l.1.01c.1.01.2.09.24.18.12.2 0 .49-.21.54-.23.07-.5-.12-.5-.36a.38.38 0 0 1 .15-.3.27.27 0 0 1 .22-.07z" fill="#fff"/></svg>