<?xml version="1.0" encoding="UTF-8" standalone="no"?>
<svg
   xmlns:dc="http://purl.org/dc/elements/1.1/"
   xmlns:cc="http://creativecommons.org/ns#"
   xmlns:rdf="http://www.w3.org/1999/02/22-rdf-syntax-ns#"
   xmlns:svg="http://www.w3.org/2000/svg"
   xmlns="http://www.w3.org/2000/svg"
   xmlns:xlink="http://www.w3.org/1999/xlink"
   xmlns:sodipodi="http://sodipodi.sourceforge.net/DTD/sodipodi-0.dtd"
   xmlns:inkscape="http://www.inkscape.org/namespaces/inkscape"
   width="48"
   height="48"
   version="1.1"
   id="svg79"
   sodipodi:docname="avatar-default.svg"
   inkscape:version="0.92.4 (5da689c313, 2019-01-14)">
  <metadata
     id="metadata83">
    <rdf:RDF>
      <cc:Work
         rdf:about="">
        <dc:format>image/svg+xml</dc:format>
        <dc:type
           rdf:resource="http://purl.org/dc/dcmitype/StillImage" />
        <dc:title></dc:title>
      </cc:Work>
    </rdf:RDF>
  </metadata>
  <sodipodi:namedview
     pagecolor="#ffffff"
     bordercolor="#666666"
     borderopacity="1"
     objecttolerance="10"
     gridtolerance="10"
     guidetolerance="10"
     inkscape:pageopacity="0"
     inkscape:pageshadow="2"
     inkscape:window-width="1112"
     inkscape:window-height="480"
     id="namedview81"
     showgrid="false"
     inkscape:zoom="4.9166667"
     inkscape:cx="2.1355932"
     inkscape:cy="24"
     inkscape:window-x="0"
     inkscape:window-y="25"
     inkscape:window-maximized="0"
     inkscape:current-layer="svg79" />
  <defs
     id="defs65">
    <linearGradient
       id="k">
      <stop
         offset="0"
         stop-color="#c83737"
         id="stop2" />
      <stop
         offset="1"
         stop-color="#d35f5f"
         id="stop4" />
    </linearGradient>
    <linearGradient
       id="j">
      <stop
         offset="0"
         stop-color="#c83737"
         id="stop7" />
      <stop
         offset="1"
         stop-color="#d35f5f"
         id="stop9" />
    </linearGradient>
    <linearGradient
       id="i">
      <stop
         offset="0"
         stop-color="#c83737"
         id="stop12" />
      <stop
         offset="1"
         stop-color="#d35f5f"
         id="stop14" />
    </linearGradient>
    <linearGradient
       id="h">
      <stop
         offset="0"
         stop-color="#c83737"
         id="stop17" />
      <stop
         offset="1"
         stop-color="#d35f5f"
         id="stop19" />
    </linearGradient>
    <linearGradient
       id="g">
      <stop
         offset="0"
         stop-color="#a02c2c"
         id="stop22" />
      <stop
         offset="1"
         stop-color="#d35f5f"
         id="stop24" />
    </linearGradient>
    <linearGradient
       id="e">
      <stop
         offset="0"
         stop-color="#d35f5f"
         id="stop27" />
      <stop
         offset="1"
         stop-color="#a02c2c"
         id="stop29" />
    </linearGradient>
    <linearGradient
       id="f">
      <stop
         offset="0"
         stop-color="#a02c2c"
         id="stop32" />
      <stop
         offset="1"
         stop-color="#d35f5f"
         id="stop34" />
    </linearGradient>
    <linearGradient
       id="a">
      <stop
         offset="0"
         stop-color="#fff"
         id="stop37" />
      <stop
         offset="1"
         stop-color="#fff"
         stop-opacity="0"
         id="stop39" />
    </linearGradient>
    <linearGradient
       id="b">
      <stop
         offset="0"
         id="stop42" />
      <stop
         offset="1"
         stop-opacity="0"
         id="stop44" />
    </linearGradient>
    <linearGradient
       id="c">
      <stop
         offset="0"
         stop-color="#f5f5f5"
         id="stop47" />
      <stop
         offset="1"
         stop-color="#d2d2d2"
         id="stop49" />
    </linearGradient>
    <linearGradient
       id="s"
       x1="30"
       x2="30"
       y1="5"
       y2="44.68"
       gradientUnits="userSpaceOnUse"
       xlink:href="#d"
       gradientTransform="matrix(.98865 0 0 .98865 -6.37 2.17)" />
    <linearGradient
       id="d">
      <stop
         offset="0"
         stop-color="#d35f5f"
         id="stop53" />
      <stop
         offset="1"
         stop-color="#8c8c8c"
         id="stop55" />
    </linearGradient>
    <linearGradient
       id="o"
       x1="30"
       x2="30"
       y1="18.25"
       y2="45"
       gradientUnits="userSpaceOnUse"
       xlink:href="#e"
       gradientTransform="matrix(.98865 0 0 .98865 -6.37 2.17)" />
    <linearGradient
       xlink:href="#f"
       id="n"
       gradientUnits="userSpaceOnUse"
       x1="23.66"
       y1="46.47"
       x2="23.66"
       y2="20.03"
       gradientTransform="translate(-0.36,0.19)" />
    <linearGradient
       xlink:href="#g"
       id="r"
       gradientUnits="userSpaceOnUse"
       x1="23.39"
       y1="27.75"
       x2="23.66"
       y2="6.93"
       gradientTransform="translate(-0.36,0.19)" />
    <linearGradient
       xlink:href="#h"
       id="q"
       gradientUnits="userSpaceOnUse"
       x1="34.66"
       y1="2.41"
       x2="26.7"
       y2="12.61"
       gradientTransform="translate(-0.36,0.19)" />
    <linearGradient
       xlink:href="#i"
       id="p"
       gradientUnits="userSpaceOnUse"
       x1="11.94"
       y1="2.41"
       x2="20.76"
       y2="12.61"
       gradientTransform="translate(-0.36,0.19)" />
    <linearGradient
       xlink:href="#j"
       id="m"
       gradientUnits="userSpaceOnUse"
       x1="41.5"
       y1="20.22"
       x2="34.71"
       y2="32.85"
       gradientTransform="translate(-0.36,0.19)" />
    <linearGradient
       xlink:href="#k"
       id="l"
       gradientUnits="userSpaceOnUse"
       x1="34.08"
       y1="31.46"
       x2="41.8"
       y2="24.09"
       gradientTransform="translate(-0.36,0.19)" />
  </defs>
  <path
     d="m 34.35,33.03 -0.63,-1.38 a 6.47,6.47 0 0 0 3.24,-3.1 c 0.52,-1.07 0.6,-1.94 0.6,-1.95 l 1.51,0.11 a 8.03,8.03 0 0 1 -4.73,6.32 z"
     id="path67"
     style="fill:url(#l)"
     inkscape:connector-curvature="0" />
  <path
     d="m 41.4,26.67 -1.25,-6.02 a 0.76,0.76 0 0 0 -1.4,-0.24 l -3.23,5.28 a 0.76,0.76 0 0 0 0.52,1.15 l 4.5,0.78 a 0.76,0.76 0 0 0 0.87,-0.95 z"
     id="path69"
     style="fill:url(#m)"
     inkscape:connector-curvature="0" />
  <path
     d="m 18.84,22.44 c 0.46,2.15 0.71,3.78 0.34,5.93 C 16.3,30.76 8.94,31.83 8.96,34.3 l -1,7.42 c 0,2.45 6.87,4.45 15.33,4.45 8.46,0 15.33,-2 15.33,-4.45 l -1,-7.42 c 0,-2.11 -7.4,-3.46 -10.25,-5.93 -0.24,-2 -0.05,-3.93 0.37,-5.93 z"
     id="path71"
     style="fill:url(#n)"
     inkscape:connector-curvature="0" />
  <path
     d="M 18.9,7.84 C 15.52,7.24 13.38,2.87 13.36,2.83 A 0.77,0.77 0 0 0 11.92,3 c -0.01,0.07 -0.34,1.68 -0.1,3.6 0.32,2.63 1.55,4.58 3.55,5.62 0.51,0.26 1.04,0.4 1.57,0.4 0.84,0 1.67,-0.36 2.31,-1 a 3.3,3.3 0 0 0 1,-1.97 C 20.34,8.71 19.81,7.99 18.91,7.84 Z"
     id="path73"
     style="fill:url(#p)"
     inkscape:connector-curvature="0" />
  <path
     d="m 27.4,7.84 c 3.4,-0.6 5.54,-4.97 5.56,-5.01 A 0.76,0.76 0 0 1 34.39,3 c 0.02,0.07 0.34,1.68 0.1,3.6 -0.32,2.63 -1.54,4.58 -3.55,5.62 -0.51,0.26 -1.04,0.4 -1.57,0.4 a 3.3,3.3 0 0 1 -2.31,-1 3.3,3.3 0 0 1 -1,-1.97 C 25.98,8.71 26.5,7.99 27.4,7.84 Z"
     id="path75"
     style="fill:url(#q)"
     inkscape:connector-curvature="0" />
  <path
     d="m 23.3,7.6 c -4.1,0 -7.42,3.1 -7.42,6.93 0.03,1.41 0.15,3.1 0.99,6.92 0.49,1.48 4.9,5.44 4.94,5.93 0.96,0.5 2.47,0.5 3.46,0 0,-0.5 3.95,-4.45 4.45,-5.93 0.94,-3.98 0.94,-5.44 0.99,-6.92 0,-3.82 -3.32,-6.92 -7.42,-6.92 z"
     id="path77"
     style="fill:url(#r)"
     inkscape:connector-curvature="0" />
</svg>
