<?xml version="1.0" encoding="UTF-8" standalone="no"?>
<svg
   xmlns:dc="http://purl.org/dc/elements/1.1/"
   xmlns:cc="http://creativecommons.org/ns#"
   xmlns:rdf="http://www.w3.org/1999/02/22-rdf-syntax-ns#"
   xmlns:svg="http://www.w3.org/2000/svg"
   xmlns="http://www.w3.org/2000/svg"
   xmlns:xlink="http://www.w3.org/1999/xlink"
   xmlns:sodipodi="http://sodipodi.sourceforge.net/DTD/sodipodi-0.dtd"
   xmlns:inkscape="http://www.inkscape.org/namespaces/inkscape"
   width="48"
   height="48"
   version="1.1"
   viewBox="0 0 12.7 12.7"
   id="svg63"
   sodipodi:docname="osd-sbs-left.svg"
   inkscape:version="0.92.4 (5da689c313, 2019-01-14)">
  <metadata
     id="metadata67">
    <rdf:RDF>
      <cc:Work
         rdf:about="">
        <dc:format>image/svg+xml</dc:format>
        <dc:type
           rdf:resource="http://purl.org/dc/dcmitype/StillImage" />
        <dc:title></dc:title>
      </cc:Work>
    </rdf:RDF>
  </metadata>
  <sodipodi:namedview
     pagecolor="#ffffff"
     bordercolor="#666666"
     borderopacity="1"
     objecttolerance="10"
     gridtolerance="10"
     guidetolerance="10"
     inkscape:pageopacity="0"
     inkscape:pageshadow="2"
     inkscape:window-width="1136"
     inkscape:window-height="480"
     id="namedview65"
     showgrid="false"
     inkscape:zoom="4.9166667"
     inkscape:cx="2.1355932"
     inkscape:cy="24"
     inkscape:window-x="0"
     inkscape:window-y="25"
     inkscape:window-maximized="0"
     inkscape:current-layer="svg63" />
  <defs
     id="defs31">
    <linearGradient
       id="linearGradient849"
       x1=".89406"
       x2=".8818"
       y1="1.8835"
       y2="11.086"
       gradientUnits="userSpaceOnUse">
      <stop
         stop-color="#164450"
         offset="0"
         id="stop2" />
      <stop
         stop-color="#216778"
         offset="1"
         id="stop4" />
    </linearGradient>
    <linearGradient
       id="linearGradient850"
       x1="2.0985"
       x2="12.06"
       y1="7.045"
       y2="7.045"
       gradientTransform="scale(3.7795)"
       gradientUnits="userSpaceOnUse">
      <stop
         offset="0"
         id="stop7" />
      <stop
         stop-opacity="0"
         offset="1"
         id="stop9" />
    </linearGradient>
    <linearGradient
       id="linearGradient867-5"
       x1="2.1625"
       x2="2.1248"
       y1="8.5889"
       y2="2.0481"
       gradientTransform="matrix(.82773 0 0 -.82773 -.89173 10.817)"
       gradientUnits="userSpaceOnUse">
      <stop
         stop-color="#e6e6e6"
         offset="0"
         id="stop12" />
      <stop
         stop-color="#fff"
         offset="1"
         id="stop14" />
    </linearGradient>
    <linearGradient
       id="linearGradient874-9"
       x1=".89406"
       x2=".8818"
       y1="1.8835"
       y2="11.086"
       gradientUnits="userSpaceOnUse"
       xlink:href="#linearGradient849" />
    <linearGradient
       id="linearGradient1032"
       x1="2.0985"
       x2="12.06"
       y1="7.045"
       y2="7.045"
       gradientTransform="scale(3.7795)"
       gradientUnits="userSpaceOnUse"
       xlink:href="#linearGradient850" />
    <linearGradient
       id="linearGradient1034"
       x1="2.1625"
       x2="2.1248"
       y1="8.5889"
       y2="2.0481"
       gradientTransform="matrix(0.82773,0,0,-0.82773,3.0646,10.813)"
       gradientUnits="userSpaceOnUse"
       xlink:href="#linearGradient867-5" />
    <linearGradient
       id="linearGradient1066"
       x1="2.1625"
       x2="2.1248"
       y1="8.5889"
       y2="2.0481"
       gradientTransform="matrix(0.82773,0,0,-0.82773,-0.91433003,10.813)"
       gradientUnits="userSpaceOnUse"
       xlink:href="#linearGradient867-5" />
    <linearGradient
       id="linearGradient1148"
       x1="2.9297"
       x2="8.4116"
       y1="6.9325"
       y2="6.9325"
       gradientTransform="scale(0.99998011)"
       gradientUnits="userSpaceOnUse">
      <stop
         offset="0"
         id="stop21" />
      <stop
         stop-opacity="0"
         offset="1"
         id="stop23" />
    </linearGradient>
    <linearGradient
       id="linearGradient1173"
       x1="3.1169"
       x2="12.128"
       y1="6.9354"
       y2="6.9354"
       gradientUnits="userSpaceOnUse">
      <stop
         offset="0"
         id="stop26" />
      <stop
         stop-opacity="0"
         offset="1"
         id="stop28" />
    </linearGradient>
    <linearGradient
       inkscape:collect="always"
       xlink:href="#linearGradient849"
       id="linearGradient877"
       gradientUnits="userSpaceOnUse"
       x1=".89406"
       y1="1.8835"
       x2=".8818"
       y2="11.086" />
    <linearGradient
       inkscape:collect="always"
       xlink:href="#linearGradient850"
       id="linearGradient879"
       gradientUnits="userSpaceOnUse"
       gradientTransform="scale(3.7795)"
       x1="2.0985"
       y1="7.045"
       x2="12.06"
       y2="7.045" />
  </defs>
  <g
     transform="matrix(0.74754,0,0,0.74754,-0.41362,1.6031)"
     id="g37">
    <path
       d="M 1.8938,1.9636 A 0.99997,0.99997 0 0 0 0.89406,2.9651 V 9.758 c 0,0.51919 0.40501,0.92136 0.89045,0.97855 h 9.0217 a 0.99997,0.99997 0 0 0 0.99974,-1.0009 v -6.7703 a 0.99997,0.99997 0 0 0 -0.99974,-1.0015 h -8.9124 z"
       id="path33"
       style="fill:url(#linearGradient877);stroke-width:2.32660007"
       inkscape:connector-curvature="0" />
    <path
       transform="scale(0.26458)"
       d="m 12.355,40.578 h 28.486 a 3.7794,3.7794 0 0 0 0.37695,-0.01758 3.7794,3.7794 0 0 0 0.375,-0.05664 3.7794,3.7794 0 0 0 0.36523,-0.09375 3.7794,3.7794 0 0 0 0.35547,-0.12891 3.7794,3.7794 0 0 0 0.33984,-0.16602 3.7794,3.7794 0 0 0 0.32226,-0.19726 3.7794,3.7794 0 0 0 0.30078,-0.22852 3.7794,3.7794 0 0 0 0.27539,-0.25781 3.7794,3.7794 0 0 0 0.25,-0.2832 3.7794,3.7794 0 0 0 0.21875,-0.30664 3.7794,3.7794 0 0 0 0.18945,-0.32812 3.7794,3.7794 0 0 0 0.1543,-0.3457 3.7794,3.7794 0 0 0 0.11914,-0.35742 3.7794,3.7794 0 0 0 0.08203,-0.36914 3.7794,3.7794 0 0 0 0.04492,-0.375 3.7794,3.7794 0 0 0 0.0098,-0.26953 v -20.605 l -4.2441,-4.2422 -32.445,24.205 4.4238,4.4238 z"
       id="path35"
       style="opacity:0.2;fill:url(#linearGradient879)"
       inkscape:connector-curvature="0" />
  </g>
  <path
     d="M 1.5854,8.9148 H 7.1503 A 0.57362,0.57362 0 0 0 7.72475,8.34118 V 4.39288 A 0.57362,0.57362 0 0 0 7.1503,3.81926 H 1.5854 A 0.57362,0.57362 0 0 0 1.01095,4.39288 v 3.9483 A 0.57362,0.57362 0 0 0 1.5854,8.9148 Z"
     id="path39"
     style="fill:url(#linearGradient1066);stroke-width:1.73909998"
     inkscape:connector-curvature="0" />
  <g
     transform="matrix(0.74754,0,0,0.74754,3.5653,1.6031)"
     id="g45">
    <path
       d="M 1.8938,1.9636 A 0.99997,0.99997 0 0 0 0.89406,2.9651 V 9.758 c 0,0.51919 0.40501,0.92136 0.89045,0.97855 h 9.0217 a 0.99997,0.99997 0 0 0 0.99974,-1.0009 v -6.7703 a 0.99997,0.99997 0 0 0 -0.99974,-1.0015 h -8.9124 z"
       id="path41"
       style="fill:url(#linearGradient874-9);stroke-width:2.32660007"
       inkscape:connector-curvature="0" />
    <path
       transform="scale(0.26458)"
       d="m 12.355,40.578 h 28.486 a 3.7794,3.7794 0 0 0 0.37695,-0.01758 3.7794,3.7794 0 0 0 0.375,-0.05664 3.7794,3.7794 0 0 0 0.36523,-0.09375 3.7794,3.7794 0 0 0 0.35547,-0.12891 3.7794,3.7794 0 0 0 0.33984,-0.16602 3.7794,3.7794 0 0 0 0.32226,-0.19726 3.7794,3.7794 0 0 0 0.30078,-0.22852 3.7794,3.7794 0 0 0 0.27539,-0.25781 3.7794,3.7794 0 0 0 0.25,-0.2832 3.7794,3.7794 0 0 0 0.21875,-0.30664 3.7794,3.7794 0 0 0 0.18945,-0.32812 3.7794,3.7794 0 0 0 0.1543,-0.3457 3.7794,3.7794 0 0 0 0.11914,-0.35742 3.7794,3.7794 0 0 0 0.08203,-0.36914 3.7794,3.7794 0 0 0 0.04492,-0.375 3.7794,3.7794 0 0 0 0.0098,-0.26953 v -20.605 l -4.2441,-4.2422 -32.445,24.205 4.4238,4.4238 z"
       id="path43"
       style="opacity:0.2;fill:url(#linearGradient1032)"
       inkscape:connector-curvature="0" />
  </g>
  <path
     d="m 5.5644,8.9148 h 5.5649 A 0.57362,0.57362 0 0 0 11.70375,8.34118 V 4.39288 A 0.57362,0.57362 0 0 0 11.1293,3.81926 H 5.5644 A 0.57362,0.57362 0 0 0 4.98995,4.39288 v 3.9483 A 0.57362,0.57362 0 0 0 5.5644,8.9148 Z"
     id="path47"
     style="fill:url(#linearGradient1034);stroke-width:1.73909998"
     inkscape:connector-curvature="0" />
  <path
     d="M 4.9899,6.674 V 8.3411 A 0.57362,0.57362 0 0 0 4.993,8.398461 0.57362,0.57362 0 0 0 5.00127,8.455305 0.57362,0.57362 0 0 0 5.015739,8.510599 0.57362,0.57362 0 0 0 5.035376,8.564342 0.57362,0.57362 0 0 0 5.060181,8.616018 0.57362,0.57362 0 0 0 5.090153,8.665111 0.57362,0.57362 0 0 0 5.124776,8.710586 0.57362,0.57362 0 0 0 5.16405,8.752444 0.57362,0.57362 0 0 0 5.206942,8.790685 0.57362,0.57362 0 0 0 5.253451,8.823758 0.57362,0.57362 0 0 0 5.303577,8.85218 0.57362,0.57362 0 0 0 5.35577,8.875951 0.57362,0.57362 0 0 0 5.41003,8.894038 0.57362,0.57362 0 0 0 5.46584,8.90644 0.57362,0.57362 0 0 0 5.523201,8.91316 0.57362,0.57362 0 0 0 5.564542,8.91471 h 5.5645 a 0.57362,0.57362 0 0 0 0.05736,-0.00258 0.57362,0.57362 0 0 0 0.05684,-0.00878 0.57362,0.57362 0 0 0 0.05581,-0.013953 0.57362,0.57362 0 0 0 0.05374,-0.019637 0.57362,0.57362 0 0 0 0.05168,-0.024805 0.57362,0.57362 0 0 0 0.04857,-0.029972 0.57362,0.57362 0 0 0 0.04599,-0.034623 0.57362,0.57362 0 0 0 0.04186,-0.038757 0.57362,0.57362 0 0 0 0.03824,-0.043408 0.57362,0.57362 0 0 0 0.03307,-0.046509 0.57362,0.57362 0 0 0 0.02894,-0.049609 0.57362,0.57362 0 0 0 0.02325,-0.052193 0.57362,0.57362 0 0 0 0.01809,-0.05426 0.57362,0.57362 0 0 0 0.01292,-0.056327 0.57362,0.57362 0 0 0 0.0067,-0.056844 0.57362,0.57362 0 0 0 0.0015,-0.041341 V 8.324564 l -3.8002,-3.8003 z"
     id="path49"
     style="opacity:0.2;fill:url(#linearGradient1173)"
     inkscape:connector-curvature="0" />
  <path
     d="m 4.991,4.439 2.7161,0.00103 a 0.272,0.272 0 0 1 0.27285,0.27388 v 3.2742 A 0.273,0.273 0 0 1 7.7071,8.26096 H 4.991 v -2.9352 z"
     id="path51"
     inkscape:connector-curvature="0"
     style="fill:#3daee9;stroke-width:1.67900002" />
  <path
     d="m 4.2338092,6.1938178 -1.3043,1.9817571 0.7389719,0.738972 h 0.5720484 c -1.78e-4,-0.00663 -0.00672,-0.010374 -0.00672,-0.017053 v -2.703743 z"
     id="path53"
     style="opacity:0.2;fill:url(#linearGradient1148);stroke-width:0.26458001"
     inkscape:connector-curvature="0" />
  <g
     id="g61"
     style="stroke-width:1.67900002">
    <path
       d="M 4.2253,4.44 V 8.261 H 3.1215 A 0.272,0.272 0 0 1 2.84865,7.98815 V 4.71285 A 0.272,0.272 0 0 1 3.1215,4.44 Z"
       id="path55"
       inkscape:connector-curvature="0"
       style="fill:#3daee9" />
    <path
       d="M 4.2253,8.0558 H 3.1215 a 0.068,0.068 0 0 1 -0.00465,0 A 0.068,0.068 0 0 1 3.11013,8.05477 0.068,0.068 0 0 1 3.10341,8.05374 0.068,0.068 0 0 1 3.09669,8.05116 0.068,0.068 0 0 1 3.09049,8.04858 0.068,0.068 0 0 1 3.08481,8.04496 0.068,0.068 0 0 1 3.07913,8.04134 0.068,0.068 0 0 1 3.07396,8.03669 0.068,0.068 0 0 1 3.06931,8.03152 0.068,0.068 0 0 1 3.06518,8.02635 0.068,0.068 0 0 1 3.06156,8.02067 0.068,0.068 0 0 1 3.05898,8.01447 0.068,0.068 0 0 1 3.0564,8.00827 0.068,0.068 0 0 1 3.05485,8.00155 0.068,0.068 0 0 1 3.05382,7.99483 0.068,0.068 0 0 1 3.0533033,7.98811 v -2.5921 a 0.069,0.069 0 0 1 5.167e-4,-0.00413 0.069,0.069 0 0 1 5.167e-4,-0.00672 0.069,0.069 0 0 1 0.00155,-0.00672 0.069,0.069 0 0 1 0.00207,-0.00672 0.069,0.069 0 0 1 0.00258,-0.0062 0.069,0.069 0 0 1 0.0031,-0.0062 0.069,0.069 0 0 1 0.00413,-0.00568 0.069,0.069 0 0 1 0.00465,-0.00517 0.069,0.069 0 0 1 0.00465,-0.00465 0.069,0.069 0 0 1 0.00568,-0.00413 0.069,0.069 0 0 1 0.00568,-0.00362 0.069,0.069 0 0 1 0.0062,-0.0031 0.069,0.069 0 0 1 0.00672,-0.00258 0.069,0.069 0 0 1 0.0062,-0.00207 0.069,0.069 0 0 1 0.00723,-0.00103 0.069,0.069 0 0 1 0.00672,-5.167e-4 h 1.1038 z"
       id="path57"
       inkscape:connector-curvature="0"
       style="fill:#ffffff" />
    <path
       d="m 4.991,5.3258 h 2.7161 a 0.069,0.069 0 0 1 0.0031,5.168e-4 0.069,0.069 0 0 1 0.00672,5.167e-4 0.069,0.069 0 0 1 0.00672,0.00155 0.069,0.069 0 0 1 0.00672,0.00207 0.069,0.069 0 0 1 0.0062,0.00258 0.069,0.069 0 0 1 0.0062,0.00362 0.069,0.069 0 0 1 0.00568,0.00362 0.069,0.069 0 0 1 0.00517,0.00465 0.069,0.069 0 0 1 0.00465,0.00465 0.069,0.069 0 0 1 0.00413,0.00568 0.069,0.069 0 0 1 0.00362,0.00568 0.069,0.069 0 0 1 0.0031,0.0062 0.069,0.069 0 0 1 0.00258,0.00672 0.069,0.069 0 0 1 0.00207,0.00672 0.069,0.069 0 0 1 0.00103,0.00672 0.069,0.069 0 0 1 5.168e-4,0.00672 v 2.5942 a 0.068,0.068 0 0 1 -5.168e-4,0.00465 0.068,0.068 0 0 1 -5.167e-4,0.00672 0.068,0.068 0 0 1 -0.00155,0.00672 0.068,0.068 0 0 1 -0.00207,0.0062 0.068,0.068 0 0 1 -0.0031,0.0062 0.068,0.068 0 0 1 -0.0031,0.0062 0.068,0.068 0 0 1 -0.00413,0.00568 0.068,0.068 0 0 1 -0.00465,0.00465 0.068,0.068 0 0 1 -0.00465,0.00465 0.068,0.068 0 0 1 -0.00568,0.00413 0.068,0.068 0 0 1 -0.00568,0.00362 0.068,0.068 0 0 1 -0.0062,0.0031 0.068,0.068 0 0 1 -0.0062,0.00207 0.068,0.068 0 0 1 -0.00672,0.00207 0.068,0.068 0 0 1 -0.00672,0.00103 0.068,0.068 0 0 1 -0.00672,0 h -2.7161 z"
       id="path59"
       inkscape:connector-curvature="0"
       style="fill:#ffffff" />
  </g>
</svg>
