<svg xmlns="http://www.w3.org/2000/svg" xmlns:xlink="http://www.w3.org/1999/xlink" height="48" width="48"><defs><linearGradient gradientTransform="translate(-.07 1.05)" xlink:href="#a" id="f" x1="4.19" y1="14.2" x2="3.72" y2="41.83" gradientUnits="userSpaceOnUse"/><linearGradient id="a"><stop offset="0" stop-color="#6c6753"/><stop offset="1" stop-color="#483737"/></linearGradient><linearGradient gradientTransform="translate(-.07 1.05)" xlink:href="#b" id="d" x1="12.19" y1="4" x2="12.16" y2="15.33" gradientUnits="userSpaceOnUse"/><linearGradient id="b"><stop offset="0" stop-color="#ececec"/><stop offset="1" stop-color="#fff"/></linearGradient><linearGradient gradientTransform="translate(-.07 1.05)" xlink:href="#c" id="e" x1="36.3" y1="3.7" x2="36.31" y2="15.23" gradientUnits="userSpaceOnUse"/><linearGradient id="c"><stop offset="0" stop-color="#61584b" stop-opacity=".31"/><stop offset="1" stop-color="#6c6753"/></linearGradient></defs><path d="M12.12 5.05c-.1 0-.19.11-.19.26v10.41c0 .15.09.26.19.26h23.63c.1 0 .18-.11.18-.26V5.31c0-.15-.08-.26-.18-.26z" fill="url(#d)" stroke="url(#e)" stroke-width=".2" stroke-linejoin="round" paint-order="markers fill stroke"/><path d="M4.12 15.25c-.1 0-.19.09-.19.19v17.42c0 .1.09.19.19.19H10v10h28.25v-10h5.63c.1 0 .19-.08.19-.19V15.44c0-.1-.09-.19-.19-.19z" fill="url(#f)" paint-order="markers fill stroke"/><path d="M37.13 18.57a2.77 2.77 0 0 1 2.77 2.77 2.77 2.77 0 0 1-2.77 2.77 2.77 2.77 0 0 1-2.77-2.77 2.77 2.77 0 0 1 2.77-2.77z" fill="#1a1a1a" paint-order="markers fill stroke"/><path d="M37.13 17.9a2.77 2.77 0 0 1 2.77 2.77 2.77 2.77 0 0 1-2.77 2.77 2.77 2.77 0 0 1-2.77-2.77 2.77 2.77 0 0 1 2.77-2.77z" fill="#217844" paint-order="markers fill stroke"/><path d="M12.44 33.81h23.1v7.15h-23.1z" fill="#1a1a1a" paint-order="markers fill stroke"/><path d="M12.44 33.1h23.1v7.15h-23.1z" fill="#fff" paint-order="markers fill stroke"/><path fill="#333" d="M24.25 33.83h10.56v1.55H24.25zM24.18 36.8h10.56v1.55H24.18z"/></svg>