<svg xmlns="http://www.w3.org/2000/svg" width="24" height="24" version="1"><defs><linearGradient id="a"><stop offset="0"/><stop offset="1" stop-opacity="0"/></linearGradient></defs><path d="M20.537 6.007a2.661 2.661 0 0 0-1.424-.744 2.661 2.661 0 0 0-.744-1.424 2.666 2.666 0 0 0-1.898-.786c-.716 0-1.39.28-1.897.786a2.693 2.693 0 0 0-.487 3.127L7.19 13.862a2.693 2.693 0 0 0-3.127.487 2.666 2.666 0 0 0-.786 1.897c0 .717.28 1.39.786 1.897.394.394.887.65 1.424.745.095.536.35 1.03.744 1.423.507.507 1.18.786 1.898.786.716 0 1.39-.279 1.897-.786a2.693 2.693 0 0 0 .487-3.127l6.895-6.895a2.693 2.693 0 0 0 3.128-.487c.506-.507.785-1.181.785-1.898 0-.716-.279-1.39-.785-1.897z" fill="#1a1a1a"/></svg>