<svg xmlns="http://www.w3.org/2000/svg" width="24" height="24" viewBox="0 0 6.35 6.35"><defs><linearGradient id="d"><stop offset="0" stop-color="#000005"/><stop offset="1" stop-color="#501616" stop-opacity="0"/></linearGradient><linearGradient id="a"><stop offset="0" stop-color="#fff"/><stop offset="1" stop-color="#fff" stop-opacity="0"/></linearGradient><linearGradient id="b"><stop offset="0" stop-color="#fff"/><stop offset="1" stop-color="#b1b1b1"/></linearGradient><linearGradient id="c"><stop offset="0" stop-color="#5e98d7"/><stop offset="1" stop-color="#3363ac"/></linearGradient></defs><path d="M2.4 1.52C1.14 1.55.26 2.25.26 3.15c0 .9 1 1.67 2.16 1.68A3.41 3.41 0 0 0 4.96 3.5c.18.28.52.64 1.13.64 0 0-.29-.5-.29-.98 0-.47.29-.96.29-.96-.62 0-.97.38-1.14.66A3.7 3.7 0 0 0 2.4 1.52zm-.95.59a.6.6 0 0 1 .58.6.6.6 0 1 1-1.19 0 .6.6 0 0 1 .61-.6zm-.01.41a.2.19 0 0 0-.04 0 .1.1 0 0 1 .08.1.1.1 0 0 1-.2 0 .1.1 0 0 1 .02-.06.2.19 0 0 0-.07.15.2.19 0 0 0 .4 0 .2.19 0 0 0-.2-.19zm-.14.04a.2.19 0 0 1 .1-.04.1.1 0 0 0-.1.04z" fill="#e6e6e6"/></svg>
