<svg xmlns="http://www.w3.org/2000/svg" width="24" height="24"><path d="M12 1.08c-.62 0-1.24.23-1.7.73l-8.53 8.78a2.6 2.6 0 0 0-.73 1.75v.04c0 1.89 5.03.06 5.48 2.36.25 1.25-2.74.67-2.74 1.93 0 1.47 4.23.46 5.44 1.66.5 1.21-1.63 1.02-1.24 2.15.7.73 2.3.32 2.6 1.5.36 1.35 2.65 1.12 3.98.12.72-.73-1.09-1.06-.38-1.8.71-.73 4.2-.58 4.24-2.17-.33-1.01-1.66-1.18-1.67-2.36-.07-1 1.07-.72 4.7-1.7 1.45-.7 1.51-1.05 1.51-1.69v-.04a2.64 2.64 0 0 0-.77-1.75L13.7 1.81a2.35 2.35 0 0 0-1.7-.73zm.17 1.84c.64 0 2.4 2.18 3.97 3.82.46.59-.16 1.2-.16 1.2l-3.3-1.8-1.45 1.96-1.28-1.93-.77 3L6.9 7.82l.6-.77 3.55-3.65a1.3 1.3 0 0 1 1.1-.47zm9.76 13.2c-.18-.02-.35 0-.47.04-.23.07-1.34.1-1.24.93 1 .43 2.5.76 2.68-.08.14-.62-.45-.88-.97-.9zm-17 2.78a.75.75 0 0 0-.24.08c-.76.29-1.27.9-.57 1.16.7.26 1.19-.02 1.8-.35.63-.33.6-.38.56-.5-.08 0-.65-.34-1.24-.4h-.3z" fill="#e6e6e6"/></svg>