<svg xmlns="http://www.w3.org/2000/svg" width="24" height="24"><defs><linearGradient id="b"><stop offset="0"/><stop offset="1" stop-opacity="0"/></linearGradient><linearGradient id="a"><stop offset="0" stop-color="#214478"/><stop offset="1" stop-color="#87aade"/></linearGradient></defs><path d="M12.83 1.58A10.5 10.42 0 0 0 2.54 9.93H.67v5.5h2.25a10.5 10.42 0 0 0 9.91 7 10.5 10.42 0 0 0 5.6-1.63h2.53v-2.22A10.5 10.42 0 0 0 23.33 12a10.5 10.42 0 0 0-.75-3.84h.03V4h-3.05a10.5 10.42 0 0 0-6.72-2.43zm0 2.05a8.42 8.36 0 0 1 5.54 2.08v2.45h1.94a8.42 8.36 0 0 1 .94 3.84 8.42 8.36 0 0 1-1.9 5.29h-1.98v1.75a8.42 8.36 0 0 1-4.54 1.32 8.42 8.36 0 0 1-7.68-4.94H6.3v-5.5H4.68a8.42 8.36 0 0 1 8.16-6.28z" fill="#e6e6e6" fill-rule="evenodd" stroke-width=".79"/></svg>
