<svg xmlns="http://www.w3.org/2000/svg" width="24" height="24" version="1"><defs><linearGradient id="a"><stop offset="0" stop-color="#040000"/><stop offset="1" stop-opacity="0"/></linearGradient></defs><path d="M1 1v22h22V1H1zm5.65 2.78L8.4 5.53l-.76.79v1.9L9.3 9.88V6.32l-.79-.79 1.75-1.75L12 5.53l-.76.79v2.83l-1.87 1.82v2.71l.79.79-1.75 1.75-1.73-1.75.78-.79v-2.56L5.7 9.36V6.32l-.79-.79 1.75-1.75zm7.16.02h5.29l-1.91 1.92h-.97v7.96l.79.79-1.75 1.75-1.73-1.75.77-.79V5.72h-2.4l1.9-1.92zM7.1 17.46h9.78v1.9H7.11v-1.9z" fill="#e6e6e6"/></svg>