<?xml version="1.0" encoding="UTF-8" standalone="no"?><!--Created with Inkscape (http://www.inkscape.org/)--><svg xmlns:dc="http://purl.org/dc/elements/1.1/" xmlns:cc="http://creativecommons.org/ns#" xmlns:rdf="http://www.w3.org/1999/02/22-rdf-syntax-ns#" xmlns="http://www.w3.org/2000/svg" xmlns:xlink="http://www.w3.org/1999/xlink" width="64" height="64" version="1"><metadata><rdf:RDF><cc:Work><dc:format>image/svg+xml</dc:format><dc:type rdf:resource="http://purl.org/dc/dcmitype/StillImage"/><dc:title/></cc:Work></rdf:RDF></metadata><defs><linearGradient id="e"><stop offset="0" stop-color="#0b2228"/><stop offset="1" stop-color="#0b2228" stop-opacity="0"/></linearGradient><linearGradient id="d"><stop offset="0" stop-color="#0b2228"/><stop offset="1" stop-color="#0b2228" stop-opacity="0"/></linearGradient><linearGradient id="b"><stop offset="0" stop-color="#216778"/><stop offset=".27" stop-color="#164450"/><stop offset=".29" stop-color="#216778"/><stop offset=".49" stop-color="#2c89a0"/><stop offset=".71" stop-color="#216778"/><stop offset=".73" stop-color="#164450"/><stop offset="1" stop-color="#216778"/></linearGradient><linearGradient id="a"><stop offset="0" stop-color="#216778"/><stop offset=".18" stop-color="#164450"/><stop offset=".19" stop-color="#216778"/><stop offset=".49" stop-color="#2c89a0"/><stop offset=".8" stop-color="#216778"/><stop offset=".81" stop-color="#164450"/><stop offset="1" stop-color="#216778"/></linearGradient><linearGradient id="f"><stop offset="0" stop-color="#0b2228"/><stop offset="1" stop-color="#0b2228" stop-opacity="0"/></linearGradient><linearGradient id="c"><stop offset="0" stop-color="#216778"/><stop offset=".12" stop-color="#164450"/><stop offset=".15" stop-color="#2c89a0"/><stop offset=".49" stop-color="#37abc8"/><stop offset=".85" stop-color="#2c89a0"/><stop offset=".88" stop-color="#164450"/><stop offset="1" stop-color="#216778"/></linearGradient><linearGradient xlink:href="#a" id="h" x1="5.27" y1="51.93" x2="59.12" y2="51.93" gradientUnits="userSpaceOnUse"/><linearGradient xlink:href="#b" id="g" x1="-.04" y1="59.46" x2="64.18" y2="59.46" gradientUnits="userSpaceOnUse"/><linearGradient xlink:href="#c" id="i" x1="7.65" y1="24.52" x2="56.44" y2="24.52" gradientUnits="userSpaceOnUse"/><linearGradient xlink:href="#d" id="j" x1="13.48" y1="63.47" x2="13.48" y2="26.47" gradientUnits="userSpaceOnUse"/><linearGradient xlink:href="#e" id="k" x1="5.27" y1="55.14" x2="5.27" y2="48.73" gradientUnits="userSpaceOnUse"/><linearGradient xlink:href="#f" id="l" x1="-.04" y1="63.9" x2="-.04" y2="55.02" gradientUnits="userSpaceOnUse"/></defs><path fill="url(#g)" d="M-.04 55.02h64.22v8.88H-.04z"/><path fill="url(#h)" d="M5.27 48.73h53.86v6.42H5.27z"/><path d="M31.46.28C23.83.35 15.93 3.9 7.66 11.94v36.83h48.76V20.21h.02v-8.27C48.4 4.58 40.11.19 31.46.28z" fill="url(#i)"/><path d="M31.44.28C23.8.35 15.9 3.9 7.64 11.94v36.83h48.75V20.21h.03v-8.27C48.37 4.58 40.09.19 31.44.28z" fill="url(#j)"/><path fill="url(#k)" d="M5.27 48.73h53.86v6.42H5.27z"/><path fill="url(#l)" d="M-.04 55.02h64.22v8.88H-.04z"/><g fill="#1a1a1a"><path d="M37.39 21.65c-.56.43-.6.48-.54 1.12.04.44.02.68-.06.79-.1.13-.1.13.05.02.14-.1.16-.23.11-.79l-.07-.64.42-.33c.06-.05.04-.13.09-.17zm.26-.53c-.07.16-.11.4-.26.53l.08-.08c.09-.07.13-.3.18-.45zm-6.1 18.65c.03.07-.04.18.03.24.13.1.14.1.05-.01-.04-.05-.05-.15-.08-.23zm-.02-.2l-.03.03c0 .06.04.1.05.17a.43.43 0 0 1-.02-.2zm1.09-1.44c-.06.1-.1.19-.22.28-.6.44-.83.83-.87 1.16.01-.24.2-.46 1.07-1.19.08-.06-.02-.17.02-.25zm2.2-6.83c-.03.12-.16.15-.17.3-.03.51-.2.94-.57 1.48-.22.3-.94 1.76-.9 1.81.02.01.06.22.1.45.06.4.05.43-.43.9-.54.55-.6.84-.29 1.25.07.08.05.14.08.21-.03-.1.1-.16.02-.3-.28-.45-.24-.57.27-1.05.45-.43.45-.43.43-1.01-.02-.47.02-.68.24-1.11.21-.43.28-.48.34-.35.05.12.06.07.03-.13-.02-.18 0-.34.04-.37.05-.03.24-.32.43-.63a2 2 0 0 0 .36-1.17zm.34-.58l-.33.25-.01.34c.05-.23.18-.43.34-.59zm4.8 5.06c-.2.37-.44.66-.44 1.34 0 .5-.09 1.27-.18 1.74-.1.53-.15.89-.09.98.14.26 0 .68-.35 1.09-.17.2-.35.46-.38.56-.08.23.15 1.09.53 1.86.33.7.34.77.08 1.57-.12.37-.17.73-.13.93.06.3-.12.7-.62 1.37-.17.24-.21.4-.18.72l.04.42v-.4c.03-.3.13-.57.46-1.04.39-.56.43-.7.43-1.16 0-.3.1-.76.2-1.06l.21-.54-.4-.9a7.3 7.3 0 0 1-.45-1.37c-.06-.41-.04-.48.22-.76.44-.46.53-.68.52-1.3-.01-.3.05-.87.13-1.23.09-.38.15-1.09.15-1.59 0-.75.02-.89.15-.84.12.04.13.02.02-.14-.06-.1.04-.18.08-.25zm.05-.18v.01c-.09.08-.03.12-.06.17.03-.05.03-.13.06-.17zm2.84-12.69c.24.09.32.27.54.27.14 0 .38.1.53.2.21.18.25.27.22.58-.02.2 0 .34.04.32.05-.03.08.02.08.1 0 .28.45.51 1.15.58.9.08 1.55.3 1.84.63.26.29.6.49.8.49.06-.01-.01-.07-.18-.13a1.5 1.5 0 0 1-.5-.4 2.35 2.35 0 0 0-1.03-.58c-1.56-.18-1.87-.28-1.94-.61-.22-1.07-.35-1.22-1.2-1.32-.14-.01-.22-.09-.35-.13z"/><path d="M42.3 2.65c-.19-.08-.38-.13-.58-.21.12.23.22.46.22.5 0 .04.13.28.3.53.18.3.27.54.24.65-.04.1.02.28.14.44.1.13.16.3.13.4-.03.08.03.3.14.5l.2.34-.28.33c-.16.18-.32.46-.35.6-.1.38-.3.78-.58 1.07-.12.14-.29.43-.37.64l-.27.77c-.12.36-.16.4-.5.4-.28 0-.42.05-.6.26a.95.95 0 0 0-.23.5c0 .22-.3.72-.74 1.24-.12.16-.23.4-.23.54a.7.7 0 0 1-.11.39c-.08.09-.08.1-.02.08.06-.04.14 0 .17.08.13.34.04.83-.24 1.4-.16.33-.33.78-.35.97-.05.31-.1.38-.33.43-.15.03-.3.1-.33.15-.03.05.06.04.2 0 .4-.16.4-.06-.01.44-.43.53-.47.92-.15 1.62.1.23.17.45.13.48-.03.03 0 .06.06.06.19 0 .24.82.08 1.37-.07.29-.19.8-.25 1.15-.03.2-.1.23-.14.35.1-.2.28-.28.33-.65.04-.29.13-.74.19-1 .14-.54 0-1.43-.25-1.71a1.6 1.6 0 0 1-.2-.69c-.05-.44-.02-.56.13-.71.1-.1.27-.31.37-.46.13-.2.2-.24.25-.14.07.1.09.1.09 0 0-.07.12-.12.28-.12.22 0 .29-.05.32-.27.07-.35 0-.4-.08-.08-.05.22-.1.26-.32.24-.21-.03-.25-.08-.24-.33 0-.17.17-.65.36-1.08.34-.75.34-.77.24-1.4-.1-.63-.1-.68.1-.93.43-.53.8-1.14.88-1.47.13-.44.32-.61.61-.53.22.04.23.07.16.53-.08.48-.3 1.01-.48 1.12-.05.03-.1.21-.1.4 0 .18-.08.5-.2.73-.1.21-.18.47-.15.57.03.1-.04.24-.14.34a.66.66 0 0 0-.18.42c0 .15-.1.35-.24.48-.14.13-.24.32-.24.43.02.2.02.2.06 0a.98.98 0 0 1 .28-.44c.13-.11.23-.3.23-.42 0-.2.25-.62.32-.53.28.35.64 1.03.7 1.3.03.17.14.39.24.49.16.14.2.3.2.8 0 .6 0 .63.4.98.38.35.39.37.28.74-.06.2-.1.5-.1.65 0 .14-.11.53-.25.87a5.3 5.3 0 0 0-.29 1.1c-.03.42-.1.59-.33.83l-.77.81c-.56.6-.63.77-.54 1.37.04.25.07.69.06.98-.01.29.03.83.08 1.2.13.78.14.76-.72 1.24-.47.27-.6.4-.7.7-.07.2-.23.5-.36.65a.99.99 0 0 0-.24.51c0 .33-.58.47-.87.21-.12-.1-.12-.08-.01.05.06.1.2.18.29.19.08 0-.04.1-.28.22-.25.11-.6.36-.78.53-.18.18-.5.42-.7.55-.13.09-.1.24-.18.33l.45-.35c.42-.33.8-.57.86-.54.05.03.06 0 .02-.07-.05-.06.08-.18.36-.3.48-.21.74-.18.53.06-.1.12-.08.13.05.08.19-.07.2-.3.04-.35-.07-.03-.04-.09.1-.16a.4.4 0 0 0 .21-.33c0-.13.09-.32.2-.44.1-.1.3-.43.42-.72.15-.36.31-.55.47-.6.11-.04.33-.16.48-.25.36-.26.37-.23.17.22-.26.57-.24.99.05 1.41l.24.36-.2.15c-.15.1-.19.2-.13.3.05.07.12.37.15.66l.06.53.02-.46c0-.26-.04-.56-.1-.67-.09-.15-.08-.22.02-.28.23-.14.32-.04.47.62.1.38.25.73.37.84.15.14.2.26.14.51-.04.25.01.39.22.64.24.28.26.34.16.67-.06.2-.12.63-.12.98a2.7 2.7 0 0 1-.7 1.86c-.13.17-.07.37-.16.52.13-.12.3-.32.38-.45.28-.48.68-1.3.69-1.44 0-.13 0-.13.06 0 .03.07.18.29.32.46.16.17.28.41.3.53 0 .5.1.72.4.97.82.7.8.62.59 1.58-.05.24-.01.4.14.63.11.17.2.27.2.22a.77.77 0 0 0-.14-.28c-.14-.19-.2-.64-.08-.75.1-.1.49.36.6.71.07.2.19.41.27.48.2.16.42.62.42.85 0 .1.14.32.3.46l.28.27-.2.5-.21.5.2.29c.11.15.33.32.47.36.48.11.54.24.27.49-.13.13-.24.28-.23.35 0 .07.05.03.1-.09.11-.23.34-.35.48-.26.05.03.09.33.09.68a3 3 0 0 0 .74 1.91c.17.2.22.37.2.53-.1.5-.3 1.23-.48 1.68-.1.26-.16.53-.13.58.02.07.04.06.04-.03.01-.07.12-.34.26-.6.13-.25.24-.56.24-.68 0-.14.07-.43.14-.65.19-.53.2-.52-.12-.89a2.97 2.97 0 0 1-.71-2.02c-.03-.6 0-.87.1-.98.1-.14.1-.25-.1-.7a1.93 1.93 0 0 0-.25-.5c-.03.03.06.28.17.55.22.5.22.51.04.64-.15.11-.2.11-.34-.01-.08-.08-.2-.15-.26-.15-.2 0-.6-.4-.6-.6a.9.9 0 0 1 .19-.46c.26-.34.24-.62-.05-.77a.67.67 0 0 1-.3-.38 9.46 9.46 0 0 0-.1-.44c-.05-.12-.02-.15.06-.1.07.04-.06-.11-.27-.33a1.87 1.87 0 0 1-.45-.7 1.18 1.18 0 0 0-.24-.45c-.1-.09-.2-.33-.23-.52-.07-.44-.26-.72-.76-1.07-.3-.2-.37-.33-.37-.56 0-.38-.21-.87-.47-1.1-.3-.27-.25-.35.16-.28.51.08 1 .3 1.15.51.08.11.26.26.42.34.17.1.29.24.32.4l.04.28.01-.26c.01-.2-.06-.31-.25-.44-.15-.1-.38-.29-.52-.42-.22-.25-.55-.37-1.27-.53-.27-.04-.26-.05-.26-.85 0-.43.05-.96.13-1.16.14-.4.09-.73-.2-1.17a3.1 3.1 0 0 1-.18-.66c-.06-.43-.08-.48-.5-.68-.46-.21-.46-.21-.5-.74-.01-.44 0-.5.1-.39.07.09.3.28.5.43.19.15.38.37.41.5.03.12.15.25.24.28.1.04.19.1.19.13s.08.07.17.08a13 13 0 0 1 2.22.64c.1.07.12.22.08.45-.04.24-.03.3.04.2.3-.49-.02-.84-1.03-1.08-1.4-.32-1.99-.67-1.75-1.08.13-.26.05-.4-.5-.76a1.96 1.96 0 0 1-.49-.39c0-.04.09-.12.2-.17a.4.4 0 0 0 .19-.34c0-.13.07-.4.16-.6.18-.34.18-.34-.14-.92-.3-.55-.31-.58-.16-.87.13-.24.15-.46.09-1.19-.05-.7-.03-.96.09-1.24.13-.33.44-.49.44-.23 0 .08.1.24.24.36.14.13.24.28.24.34 0 .07.27.1.34.17-.18-.18-.34-.38-.34-.62 0-.14-.04-.3-.1-.32-.19-.12-.03-1.6.23-2.24.13-.3.27-.83.31-1.15l.07-.58.23.27c.28.33.3.2.04-.15-.1-.14-.2-.3-.2-.4 0-.08-.18-.33-.4-.55-.39-.38-.39-.4-.34-.89.06-.41.03-.53-.13-.7-.11-.1-.28-.43-.38-.7a6.2 6.2 0 0 0-.49-1l-.3-.47.2-.35c.11-.18.2-.47.2-.64 0-.17.1-.46.25-.66.15-.21.27-.57.32-.89.04-.29.15-.64.23-.77.1-.14.22-.46.27-.72.07-.25.29-.68.5-.96.21-.29.44-.71.52-.96.07-.24.29-.62.47-.82a2 2 0 0 0 .34-.46c0-.04-.09-.21-.2-.38-.1-.18-.18-.42-.18-.54a.83.83 0 0 0-.15-.41.91.91 0 0 1-.15-.47c0-.17-.14-.53-.33-.82-.12-.2-.19-.36-.26-.53zm-1.76 19.46l.08.92c.07.78.06.97-.07 1.26-.17.34-.17.35.14.88.3.53.3.54.15.94-.1.23-.16.5-.16.6 0 .24-.32.45-.55.37-.23-.1.3.35.82.68.38.23.51.47.34.57-.14.09-.82-.43-.94-.71-.06-.16-.14-.26-.17-.24-.03.03-.1 0-.16-.07-.08-.1-.07-.24.04-.6.09-.24.13-.54.1-.66-.04-.12-.1-.9-.15-1.76l-.1-1.54.32-.32zm4.85-16.46c.04.05-.02.22.08.25.6.16 1.33.32 2 .41.21.04.4.12.42.2.03.07-.11.43-.33.8-.22.36-.46.84-.55 1.06-.18.44-.22.48-.43.28-.08-.05-.06-.02.04.1.16.2.16.22.01.28-.08.03-.12.1-.1.15.04.04-.14.27-.38.5a2 2 0 0 0-.44.52c0 .06.15.36.34.67.25.41.33.66.33 1 0 .83.13 1.06 1.26 2.2 1.08 1.1 1.23 1.34 1.12 1.9-.18.97-.18 1.06.05 1.27l.23.19-.18-.21c-.18-.23-.18-.49.02-1.3.12-.51-.04-.8-1.16-1.95a9.4 9.4 0 0 1-1.06-1.2 2.47 2.47 0 0 1-.08-.7c0-.34-.09-.64-.34-1.12-.18-.37-.34-.7-.34-.73 0-.03.22-.28.5-.56.38-.4.54-.5.72-.46.12.01.23 0 .23-.04 0-.1-.13-.13-.36-.1-.08.01-.08-.07.02-.31.13-.3.73-1.47.99-1.94.2-.35-.04-.58-.7-.68-.48-.07-1.76-.4-1.91-.48zm-.02-.08c0 .02-.04.06-.03.07l.05.01c-.02-.02-.01-.06-.02-.08z"/><path d="M44.23 3.37c-.04-.01-.07-.04-.1-.06l-.08-.02.28.6c.12.33.3.57.52.72l.33.24-.38-.06c-.2-.04-.35-.03-.31 0 .03.03.22.09.42.11.3.06.35.1.32.25-.06.3.08.3.14.42-.01-.13.09-.45.15-.42.04.03.02-.05-.03-.19a1.34 1.34 0 0 0-.47-.42c-.28-.16-.4-.32-.55-.76-.08-.21-.16-.22-.24-.4zM19.81 3.1l-.03.02c-.66.31-1.33.82-1.99 1.2-.04.15-.1.11-.14.3-.33 1.23-.6 1.89-.77 1.89-.3 0-2.8 2.42-2.8 2.7 0 .25-.74.86-1.38 1.13-.3.13-.85.43-1.2.66-.35.24-1.04.54-1.54.65-.57.13-.83.34-1.04.52.19-.16.23-.06.12.76-.05.55-.1 1.14-.1 1.3 0 .17-.48.48-1.3.83v.3c.04-.02.1-.1.16-.1 1.02-.2 1.28-.51 1.4-1.67.2-1.49.32-1.69 1.18-1.83a3 3 0 0 0 1.25-.54c.77-.64 2.11-1.1 2.31-.8.11.14.13.12.06-.1-.15-.45.22-1.02 1.45-2.27 1.34-1.34 1.69-1.52 1.85-.9.15.59.15 1.61-.02 2.75-.09.75-.03 1.16.35 2.17.26.68.48 1.45.48 1.7 0 .6.38 1.33.99 1.9.42.38.44.49.22.73-.15.16-.3.46-.33.66-.04.26-.31.44-.88.6-.46.13-1.03.33-1.29.46-.6.3-1.26 1.95-1.28 3.14 0 .57-.13 1.12-.37 1.49-.17.27-.04.4-.05.56l.24-.47c.18-.37.38-1.08.44-1.6.2-2.16.78-3.06 2.16-3.3.8-.11 1.25-.46 1.25-.96 0-.18.13-.45.3-.58.27-.22.36-.19.69.3.22.29.7.87 1.08 1.3.6.67.64.78.39 1-.17.13-.66.75-1.1 1.38-.81 1.14-.83 1.18-.77 2.42.03.72.1 1.25.16 1.21.07-.03.17.6.2 1.4.06.93.19 1.58.37 1.78.15.18.37.62.5.97.1.35.55.99.97 1.41l.77.8-.77.65c-.45.38-.71 1.07-1.09 1.78.42-.8 1.28-1.89 1.62-1.89.07 0 .13.52.11 1.16a6.29 6.29 0 0 1-.83 2.73 8.34 8.34 0 0 0-.75 1.93c0 .22.06.16.17-.15.07-.27.46-1.05.84-1.74.63-1.1.7-1.41.77-2.8.06-1.1.19-1.73.4-2.05.54-.77.56-1.24.12-1.8a6.76 6.76 0 0 1-.72-1.06c-.27-.51-.28-.6.02-1 .31-.48.79-.89 1-.9.08 0 .14.42.14.91 0 .86.03.95.64 1.3.64.39.64.39.51 1.45-.14 1.47 0 1.9.8 2.32.74.38.98.86.98 1.92 0 .7.11.86 1 1.6.16.13.29.42.29.66 0 .24.16.9.36 1.5.22.6.4 1.3.42 1.58.04.28.2.66.4.86.23.28.3.52.21.88-.3 1.14-.33 1.71-.13 1.71.11 0 .37.17.55.35.28.27.35.51.26 1-.06.38.02.82.2 1.18.17.32.3.98.3 1.45 0 .48.07 1 .16 1.12.26.42 0-1.87-.3-2.57a2.7 2.7 0 0 1-.18-1.17c.13-.68-.13-1.3-.58-1.45-.46-.15-.48-.42-.1-1.27.3-.6.3-.66-.09-1.26a2.9 2.9 0 0 1-.38-1.09c0-.25-.13-.71-.28-1.02-.16-.31-.35-1-.4-1.53a2.2 2.2 0 0 0-.73-1.55c-.52-.52-.61-.74-.61-1.45 0-.7-.1-.96-.51-1.34a5.23 5.23 0 0 0-.83-.68c-.39-.22-.4-.5-.22-2.04l.13-1.12-.66-.38c-.64-.39-.66-.43-.66-1.55v-1.13l.6.55.59.53-.57-.64c-.68-.74-.73-.92-.99-2.68a9.63 9.63 0 0 0-.73-2.48l-.55-1.16.56-.58c.32-.33.57-.77.57-1.03-.05-2.04 0-2.79.17-3.12.16-.31.05-.51-.74-1.43-.88-1.01-.91-1.1-.71-1.56.2-.44.18-.53-.2-.84a1.5 1.5 0 0 0-.64-.35c-.48 0-1.58-1.53-1.58-2.19 0-.07.16-.33.36-.56.5-.57.46-1-.1-1.45-.45-.35-.47-.43-.28-.92.2-.46.16-.6-.26-1.23-.08-.12.01-.1-.04-.18zm-1.5 1.72l.59.46c.46.35.6.6.64 1.16.04.4.15.78.24.87.09.11.16.4.16.63 0 .26.33.84.76 1.36l.77.9-.26.77c-.15.42-.4.91-.57 1.08-.42.42-.42.8.04 1.38.2.25.36.56.36.67 0 .2.74.94.92.9.57-.07 1.76 1.27 1.54 1.75-.07.16-.14.42-.18.55-.06.33-.66.99-.77.86-.06-.05.09-.3.33-.55.24-.26.35-.46.25-.46-.09 0-.27.17-.4.37-.13.2-.3.36-.42.36-.27 0-1-.78-1.34-1.44-.15-.28-.6-.74-.99-1.01a3 3 0 0 1-.92-1 17.09 17.09 0 0 1-1-4.25c.03-.75.03-2.06 0-3.67a3.6 3.6 0 0 1 .12-1.16zm3.65 5.17c.2.11.39.26.46.35.05.1 0 .39-.13.64-.16.4-.16.52.1.72.64.5 1.55 1.9 1.39 2.17-.1.14-.17.56-.17.93 0 .39-.05.7-.13.68-.42-.02-2.16-1.45-2.5-2.04l-.36-.67.59-1.12c.35-.63.57-1.29.51-1.49-.07-.28-.03-.31.24-.17zm.1 9.36c.25-.4.98 1.38 1.3 3.12.12.8.29 1.65.36 1.9.08.36 0 .52-.36.76-.26.17-.65.59-.87.94l-.38.62.38.63c.22.34.52.71.66.84.35.3.35 1.1.02 1.58-.26.33-.27.33-.84-.2-.9-.85-1.69-2.7-1.84-4.32-.1-1.15-.09-1.41.17-1.6.26-.18.26-.2-.07-.18-.3.04-.39-.12-.52-.8-.14-.8-.11-.92.46-1.78.33-.5.73-1 .88-1.09.24-.16.28-.07.24.57l-.04.76.13-.74c.07-.4.22-.86.31-1z"/></g><path d="M35.28.73l-.53-.06c.15 1.07.32 2.23.28 2.52-.08.42-.1.45-.39.41-.37-.03-.74.28-1.06.9a3.48 3.48 0 0 1-1.27 1.33c-.13.04-.4.18-.59.33-.31.23-.36.33-.53 1.05-.15.63-.26.9-.56 1.3a4.2 4.2 0 0 1-1.48 1.3c-.43.18-.97.8-.98 1.12 0 .13-.12.31-.27.44-.2.16-.22.2-.09.15.18-.07.18-.01.06.36-.14.42-.18.44-.75.56-.34.05-.68.2-.76.29a.66.66 0 0 1-.42.22c-.19.01-.22.04-.1.08.21.07.59-.1.66-.31a.15.15 0 0 1 .18-.1c.08.02.38-.03.67-.13.48-.16.55-.15.64.04.06.11.1.26.07.33-.02.07.08.3.22.51l.23.4-.37.34c-.3.3-.38.44-.48.93-.1.46-.19.64-.48.94-.19.2-.38.41-.4.49-.02.07-.24.2-.49.3-.34.13-.47.26-.64.6-.1.24-.26.51-.33.62-.06.1-.02.06.12-.08.14-.15.3-.4.37-.58.08-.25.21-.37.56-.49.25-.09.48-.24.5-.32.04-.08.22-.3.42-.51.29-.3.38-.47.48-.95.1-.49.17-.63.45-.88.19-.15.34-.27.35-.24 0 .03-.03.31-.1.64l-.17.94a1.1 1.1 0 0 1-.4.7c-.28.29-.34.42-.33.7 0 .26-.06.44-.25.7-.26.33-.46.82-1 2.3-.12.34-.32.78-.44.98-.14.25-.22.54-.23.86-.02.35-.1.63-.28.94-.14.24-.23.5-.22.62.03.12-.1.26-.39.47-.25.16-.44.3-.45.31l-.28.54c-.24.44-.28.56-.18.76.07.16.06.35-.06.57-.1.18-.17.59-.18.92v.28c0-.08.14-.12.13-.22a7.1 7.1 0 0 1 .44-2.1c.14-.47.23-.6.63-.86.38-.25.48-.37.5-.65.01-.19.14-.48.28-.66.22-.28.25-.4.24-.88-.03-.53 0-.6.3-1 .24-.32.32-.54.34-.81.01-.28.08-.45.26-.62.17-.16.27-.4.33-.7.05-.3.18-.6.38-.85.22-.3.31-.51.33-.8 0-.31.07-.46.28-.66.2-.21.3-.43.41-.97.08-.39.2-.85.26-1.01.05-.17.07-.42.03-.57a3.18 3.18 0 0 1-.02-.88c.03-.33.02-.75-.02-.91-.06-.24-.04-.34.13-.5.14-.13.26-.4.32-.8.12-.53.18-.63.58-.97.26-.22.69-.65.97-.99.45-.54.52-.68.69-1.43l.19-.82.63-.35c.75-.43 1.03-.7 1.54-1.5.42-.67.73-.91 1.03-.81.19.06.19.14-.13 1.01a21 21 0 0 0-.53 1.82c-.18.84-.2.88-.87 1.67l-.69.8-.9 2.77c-1 3.03-.97 2.81-.59 4.19.11.38.15.82.1.97a7.9 7.9 0 0 1-1.26 1.45c-.64.62-1.21 1.23-1.26 1.34-.2.39-.13.79.2 1.21.48.64.48.75-.06 1.92-.46 1.01-.48 1.03-1.48 1.84-1.26 1.02-1.34 1.18-.98 2.36.43 1.47.16 2.34-1.12 3.64a29.08 29.08 0 0 0-2.54 2.74c-.13.16-.44.7-.67 1.22a14.9 14.9 0 0 1-.55 1.1c-.1.12-.07.68-.16 1.03.23-.76 1.04-2.49 1.5-3.13a9.73 9.73 0 0 1 2.2-2.2c.23-.12.45-.33.49-.46.04-.12.29-.46.55-.74.38-.42.53-.68.72-1.25.24-.76.2-1.32-.14-2.4-.18-.53-.1-.85.34-1.12.19-.12.67-.5 1.07-.84.66-.59.76-.72 1.15-1.61.24-.54.45-1.11.46-1.27.03-.16-.1-.54-.32-.86-.2-.33-.36-.67-.37-.78a9.84 9.84 0 0 1 1.85-2c.16-.15.42-.46.58-.7.26-.4.29-.5.24-.95a6.05 6.05 0 0 0-.22-.97c-.23-.76-.2-1.25.22-2.3l.38-.94c.04-.09.75.98.87 1.32.09.24.32.57.52.77.4.36.4.33.12 1.1-.14.38-.16.59-.06.78.2.42.5 1.81.38 1.9-.06.06-.05.08.03.06.22-.05.08.26-.3.64-.58.57-.61 1.01-.22 2.18.2.6.2.73.02 1.3l-.2.63.38.61c.48.8.89 2.2.79 2.77-.09.52-.63 1.3-1.14 1.65-.4.28-.54.58-.45.95.05.19 0 .3-.24.56-.24.26-.3.4-.3.75a1.3 1.3 0 0 1-.24.75c-.13.18-.38.68-.57 1.13-.36.87-.35 1.03.17 1.53.1.1.23.34.3.54.1.3.1.38-.09.58-.12.13-.16.22-.1.2.07-.02.13.05.13.12 0 .08.08-.04.16-.28.12-.35.11-.5-.08-.83l-.43-.75-.2-.36.51-1.1c.28-.6.53-1.28.57-1.51.06-.3.16-.52.38-.72.29-.27.3-.3.22-.65-.12-.5-.03-.7.15-.37a.7.7 0 0 1 .08.47c-.03.13-.03.37.01.54.05.2.07.23.07.08 0-.13 0-.36.02-.51a.95.95 0 0 0-.06-.5c-.1-.22-.05-.3.45-.8.63-.64.94-1.2.93-1.73-.01-.34 0-.35.21-.25.15.07.2.18.15.33-.04.12-.06.26-.04.3.07.12.19-.37.14-.55-.03-.08-.15-.19-.3-.24-.2-.06-.29-.22-.38-.66a4 4 0 0 0-.7-1.6c-.3-.46-.3-.5-.09-1.07.21-.57.2-.65-.08-1.5-.33-1.04-.26-1.42.34-1.96.33-.28.4-.4.34-.6l-.16-.85c-.07-.33-.2-.83-.3-1.11-.17-.43-.18-.58-.03-.82.1-.16.2-.38.23-.5.07-.24-.13-.68-.34-.75a2.95 2.95 0 0 1-.56-.88c-.25-.48-.5-.83-.59-.82-.09 0-.14-.03-.12-.06.04-.04.01-.21-.03-.39-.1-.4.39-2.3.72-2.82.13-.21.48-.64.77-.96.52-.6.52-.6 1.04-2.37.66-2.24.88-3.79.63-4.44-.04-.1-.09-.39-.1-.6 0-.12-.03-.2-.05-.31z" fill="#1a1a1a"/></svg>