<?xml version="1.0" encoding="UTF-8" standalone="no"?><!--Created with Inkscape (http://www.inkscape.org/)--><svg xmlns:dc="http://purl.org/dc/elements/1.1/" xmlns:cc="http://creativecommons.org/ns#" xmlns:rdf="http://www.w3.org/1999/02/22-rdf-syntax-ns#" xmlns="http://www.w3.org/2000/svg" xmlns:xlink="http://www.w3.org/1999/xlink" width="64" height="64" version="1"><metadata><rdf:RDF><cc:Work><dc:format>image/svg+xml</dc:format><dc:type rdf:resource="http://purl.org/dc/dcmitype/StillImage"/><dc:title/></cc:Work></rdf:RDF></metadata><defs><linearGradient id="e"><stop offset="0" stop-color="#0b2228"/><stop offset="1" stop-color="#0b2228" stop-opacity="0"/></linearGradient><linearGradient id="d"><stop offset="0" stop-color="#0b2228"/><stop offset="1" stop-color="#0b2228" stop-opacity="0"/></linearGradient><linearGradient id="b"><stop offset="0" stop-color="#216778"/><stop offset=".27" stop-color="#164450"/><stop offset=".29" stop-color="#216778"/><stop offset=".49" stop-color="#2c89a0"/><stop offset=".71" stop-color="#216778"/><stop offset=".73" stop-color="#164450"/><stop offset="1" stop-color="#216778"/></linearGradient><linearGradient id="a"><stop offset="0" stop-color="#216778"/><stop offset=".18" stop-color="#164450"/><stop offset=".19" stop-color="#216778"/><stop offset=".49" stop-color="#2c89a0"/><stop offset=".8" stop-color="#216778"/><stop offset=".81" stop-color="#164450"/><stop offset="1" stop-color="#216778"/></linearGradient><linearGradient id="f"><stop offset="0" stop-color="#0b2228"/><stop offset="1" stop-color="#0b2228" stop-opacity="0"/></linearGradient><linearGradient id="c"><stop offset="0" stop-color="#216778"/><stop offset=".12" stop-color="#164450"/><stop offset=".15" stop-color="#2c89a0"/><stop offset=".49" stop-color="#37abc8"/><stop offset=".85" stop-color="#2c89a0"/><stop offset=".88" stop-color="#164450"/><stop offset="1" stop-color="#216778"/></linearGradient><linearGradient xlink:href="#a" id="h" x1="5.27" y1="51.93" x2="59.12" y2="51.93" gradientUnits="userSpaceOnUse"/><linearGradient xlink:href="#b" id="g" x1="-.04" y1="59.46" x2="64.18" y2="59.46" gradientUnits="userSpaceOnUse"/><linearGradient xlink:href="#c" id="i" x1="7.65" y1="24.52" x2="56.44" y2="24.52" gradientUnits="userSpaceOnUse"/><linearGradient xlink:href="#d" id="j" x1="13.48" y1="63.47" x2="13.48" y2="26.47" gradientUnits="userSpaceOnUse"/><linearGradient xlink:href="#e" id="k" x1="5.27" y1="55.14" x2="5.27" y2="48.73" gradientUnits="userSpaceOnUse"/><linearGradient xlink:href="#f" id="l" x1="-.04" y1="63.9" x2="-.04" y2="55.02" gradientUnits="userSpaceOnUse"/></defs><path d="M-.04 55.02h64.22v8.88H-.04z" fill="url(#g)"/><path d="M5.27 48.73h53.86v6.42H5.27z" fill="url(#h)"/><path fill="url(#i)" d="M31.46.28C23.83.35 15.93 3.9 7.66 11.94v36.83h48.76V20.21h.02v-8.27C48.4 4.58 40.11.19 31.46.28z"/><path d="M31.44.28C23.8.35 15.9 3.9 7.64 11.94v36.83h48.75V20.21h.03v-8.27C48.37 4.58 40.09.19 31.44.28z" fill="url(#j)"/><path d="M5.27 48.73h53.86v6.42H5.27z" fill="url(#k)"/><path d="M-.04 55.02h64.22v8.88H-.04z" fill="url(#l)"/><g fill="#1a1a1a"><path d="M23.53 15.05a10 10 0 0 0-1.81.93 7.1 7.1 0 0 0-1.99 2.25c-.15.28-.3.44-.51.57l-.12.32-.28.9c-.27.85.42 2.04.38 2.5l.18.73c.22 1 .65 1.75 1.47 2.53.22.22.55.5.74.62.77.5 2.07 1.03 3.08 1.24.58.11 1.86.15 2.5.06a7.36 7.36 0 0 0 4.12-1.95c.61-.56.96-.8 1.48-1.05a3.5 3.5 0 0 1 1-.32s-.02.08-.07.16a.7.7 0 0 0-.1.2c0 .09.19-.1.51-.5s.7-.74.94-.82c.15-.04.16-.06.12-.13-.07-.11.03-.47.3-1.14.15-.39.24-.68.27-.89.02-.17.07-.4.12-.5.07-.15.11-.19.32-.27.43-.16.4-.16.68.14.28.32.58.55 1.4 1.08.52.34.6.4.73.63.32.51.3.46.24.68-.03.1-.1.31-.18.46-.07.14-.12.28-.1.3.01.05.57.28.66.28.02 0 .01-.04-.02-.1-.06-.1-.03-.28.05-.28.02 0 .14.1.26.24.24.25.33.27.17.05a.68.68 0 0 0-.48-.33c-.18-.03-.25-.12-.12-.16.37-.11.72-.42.84-.73l.2-.44c.06-.14.12-.28.12-.33 0-.07-.68-1.34-.77-1.43-.03-.02-.03 0-.01.09.02.12.01.13-.1.13-.07 0-.15 0-.19.02-.05.01-.07-.04-.09-.24-.06-.53-.08-.61-.14-.6-.04.03-.05 0-.03-.14.03-.23-.02-.37-.13-.43l-.09-.05.1.15c.19.3.07.33-.22.02a4.17 4.17 0 0 0-.57-.44c-.23-.16-.37-.27-.4-.36-.06-.15-.03-.2.06-.11l.27.2c.11.08.3.22.41.33.17.14.22.17.23.12.05-.25-.86-.92-1.33-1-.26-.03-.38 0-.57.18-.1.08-.23.18-.3.21a3.3 3.3 0 0 1-1.02.13c-.02-.02-.1-.22-.17-.44a4.72 4.72 0 0 0-.37-.77c-.12-.2-.32-.58-.44-.83-.34-.73-.55-.93-.5-.48.03.24.2.58.42.85.15.17.17.21.12.27-.04.05-.04.08 0 .11l.05.15c0 .08 0 .08.04-.02.06-.1.1-.12.14-.02.02.06.23 2.3.24 2.5 0 .03-.1.22-.22.41-.12.2-.25.45-.3.56-.13.35-.08.52.06.21.1-.2.3-.45.27-.33 0 .05-.03.13-.05.17-.03.07-.02.08.08.05.14-.03.15.05.04.23-.1.16-.17.16-.23 0-.02-.06-.05-.08-.07-.06 0 .03.01.1.05.18.07.12.06.14-.06.45-.05.11-.16.49-.24.84a6 6 0 0 1-.2.76c-.09.16-.5.35-.86.4-.24.04-.22-.02.05-.1a.71.71 0 0 0 .41-.32l.09-.12-.19.03-.19.03.13-.07c.24-.13.3-.3.18-.53-.05-.1-.05-.12.03-.23.08-.12.08-.12 0-.1a6.61 6.61 0 0 0-2.04.61c-.4.21-.52.3-.64.5-.14.22-.9.97-1.3 1.27a8.51 8.51 0 0 1-2.66 1.27c-.04 0 0-.12.08-.2.05-.06.08-.11.06-.13-.01-.02-.23 0-.47.05-.24.04-.64.09-.9.1-.24.02-.45.05-.47.07-.04.03-.04.04-.05.15 0 .04-.22.05-.78.03-.55-.02-.74-.01-.65.02.07.02.5.04.96.05.75 0 .85 0 .92-.07a3.53 3.53 0 0 1 1.12-.22c.09.05.03.16-.11.22-.5.2-2.49.24-3.32.06-.63-.13-1.82-.58-1.69-.63.03-.01.18.03.34.1.46.18.35.08-.23-.21a7.2 7.2 0 0 1-.82-.48 8.96 8.96 0 0 1-1.3-1.26c-.05-.08.1.04.35.3.4.4.56.52.5.37-.02-.04 0-.07.02-.07.04 0 .06.06.04.1l.04.1a5.84 5.84 0 0 0 2.02 1.12l.23.02-.08-.16c-.1-.17-.2-.24-.33-.24-.06 0-.1-.04-.13-.1a.33.33 0 0 0-.13-.16c-.06-.03-.07-.06-.05-.1.07-.07.1-.5.06-.67-.04-.16-.04-.17.03-.1.05.04.1.12.1.18.02.05.05.1.08.1.06 0 .05-.23-.03-.33-.06-.09-.06-.1 0-.1a8.23 8.23 0 0 0 1.02.37l.47.16 1 .01c.58.02 1.04 0 1.1-.02.08-.03-.13-.04-.67-.03a5.05 5.05 0 0 1-2.6-.54 2.67 2.67 0 0 1-1.45-1.71c-.13-.37-.13-.4-.1-.83.04-.62.17-1.46.28-1.81.19-.6.56-1.18 1.19-1.81.4-.42.81-.7 1.32-.91.8-.35 1.51-.47 2.51-.44.5.02.7.04.89.1.58.22 1.05.52 1.51 1 .4.4.56.63.77 1.04l.17.33v1c0 .77-.03 1.1-.08 1.37-.09.43-.09.52-.03.43.05-.09.1-.03.06.08-.01.06-.05.08-.09.07-.05-.02-.06 0-.04.08.02.07.01.11-.03.13-.04.01-.07.07-.1.14-.04.19-.35.64-.6.87-.34.3-.76.57-1.37.86-.6.29-.63.36-.05.11a4.62 4.62 0 0 0 2.63-2.62l.2-.46-.02-1.37c-.02-1.28-.02-1.37-.11-1.59a3.3 3.3 0 0 1-.14-.42 5.49 5.49 0 0 0-.26-.71c-.12-.28-.23-.6-.24-.71-.01-.15-.04-.2-.08-.18-.04.02-.06-.01-.06-.13 0-.13.02-.16.1-.2.07-.02.11-.05.11-.08s-.01-.03-.04-.02c-.02.01-.04.01-.04-.01s.09-.1.2-.17c.15-.1.28-.15.53-.19.18-.02.36-.03.4-.02.07.03.07.04 0 .1-.1.12-.08.23.08.44.07.1.16.24.19.32l.04.12v-.14c0-.1.03-.13.08-.13a.2.2 0 0 0 .13-.05c.03-.04.06-.04.12 0 .03.03.07.05.08.04.06-.07.36-.59.36-.62 0-.03.07-.07.14-.1.12-.03.1-.03-.17-.03-.17 0-.3 0-.3.02s.02.07.06.12c.07.1.08.2 0 .34-.07.17-.18.13-.3-.11-.08-.16-.1-.23-.07-.26.08-.09.05-.11-.17-.13-.42-.03-1 .04-1.23.16-.28.14-.4.14-.84-.05-.2-.08-.5-.2-.67-.25l-.3-.1-2.21-.37c-2.14 0-2.35.38-2.57.46zm5.49.29l.1.08-.1.03-.1.03.1.1.1.1h-.1c-.1 0-.12.04-.04.12.04.04.04.06 0 .09-.04.02-.02.08.08.24.2.28.45.54.5.51.05-.03.12.18.07.22 0 .01-.07-.02-.13-.07-.18-.17-.12-.03.15.37a2.08 2.08 0 0 1 .35.72c.02.02.03.11.03.19l-.02.14-.11-.22a3.42 3.42 0 0 0-.86-.86 5.9 5.9 0 0 0-1.92-.82 5.96 5.96 0 0 0-1.94-.16 1.3 1.3 0 0 1-.36.13 4.8 4.8 0 0 0-1.3.51c-.53.28-.88.55-1.25.98-.63.72-1.13 1.7-1.13 2.24a2 2 0 0 1-.09.44c-.12.42-.1 1.1.07 1.58.1.3.12.48.02.33a6.4 6.4 0 0 1-.42-1.75c0-.26.1-.95.17-1.12a.27.27 0 0 1 .13-.15c.07-.02.11-.1.15-.26.07-.28.5-1.16.73-1.51.24-.35.82-.9 1.2-1.12.41-.25.81-.4 1.53-.57.59-.13.66-.14 1.45-.13a8 8 0 0 1 1.07.05 7.73 7.73 0 0 1 1.79.86c.16.17.28.2.32.1 0-.04 0-.05-.05-.03-.09.03-.43-.31-.4-.4.03-.05.01-.06-.07-.04-.13.04-.13 0-.02-.14.11-.15.1-.19-.04-.15-.13.02-.13.02-.09-.12.02-.07.04-.22.04-.33 0-.1.02-.22.05-.24.08-.08.23-.07.34.03zM39 19.83c.21.24.17.38-.16.47-.26.08-.52.29-.52.43 0 .13-.04.22-.1.22-.03 0-.1-.05-.18-.12-.12-.13-.12-.13-.03-.22l.14-.2c.11-.21.57-.73.64-.73.05 0 .13.07.2.15zm.11 1.62c.04.05.13.2.2.35.07.15.23.43.36.62.13.2.22.39.22.44-.02.06-.04.05-.16-.08a5.56 5.56 0 0 1-.78-1.37c.04-.05.09-.03.16.04zm-7.1 2.9a10.09 10.09 0 0 0-1.11.9c-.32.3-.74.65-.95.8a8.3 8.3 0 0 1-2.67 1.18c-.53.12-2.4.14-2.19.02.03-.02.35-.04.7-.05a7.59 7.59 0 0 0 4.97-2.2c.67-.6.8-.68 1.07-.68.13 0 .2.01.17.03z"/><path d="M32.16 15.99c0 .03-.12.11-.26.18-.4.19-.38.37.03.42.64.09.7.08.8-.03.11-.11.15-.33.07-.45-.03-.06-.39-.18-.54-.18-.05 0-.1.03-.1.06zM41 22.22c.07.3.14.62.14.7 0 .25-.14.49-.35.59-.2.1-.37.43-.37.7 0 .17.01.2.11.25.07.03.15.1.18.13.03.04.1.07.16.07.05 0 .12.03.15.09.06.07.07.06.06-.19 0-.24.02-.3.17-.56.23-.4.29-.58.26-.9a2.48 2.48 0 0 0-.44-1.08.71.71 0 0 1-.14-.26c0-.05-.02-.08-.04-.08s.02.24.1.54zm-9.22-.32c0 .05-.05.15-.1.23-.07.08-.11.16-.11.2 0 .04-.04.08-.08.11-.06.04-.06.05.03.16.13.12.4.27.55.27.11 0 .18-.12.08-.18a.3.3 0 0 1-.09-.14.18.18 0 0 0-.12-.12c-.11-.03-.08-.16.06-.22.28-.1.52.17.43.47-.04.13-.04.14.03.1.17-.09.16-.44 0-.65-.07-.09-.13-.11-.26-.11-.2 0-.34-.06-.34-.15 0-.03-.01-.06-.04-.06-.02 0-.04.04-.04.09zm5.72 1.65c-.17.1-.32.28-.32.4 0 .19.26.4.47.4.13 0 .15-.11.05-.2-.05-.05-.08-.12-.07-.15.02-.03-.01-.07-.07-.08-.13-.03-.05-.11.12-.11.1 0 .14-.03.14-.07 0-.03.04-.06.08-.06.05 0 .12-.04.16-.07.06-.07.06-.08-.01-.1a.75.75 0 0 0-.55.04zm-2.32 1.01a.95.95 0 0 0-.22.17c-.15.14-.16.18-.16.39 0 .13-.02.3-.05.37-.06.17-.01.24.16.24.1 0 .2-.07.46-.32.27-.26.32-.34.32-.45 0-.21-.32-.46-.5-.4z"/><path d="M33.49 24.94c-.05.03-.25.29-.43.57-.4.61-.45.78-.42 1.45.03.47.11.76.26.88.06.05.07.05.07-.07 0-.08.02-.14.06-.14.09 0 .23.13.26.23 0 .06.06.14.11.16.05.03.48.07.95.1 1.19.1 2.17.19 2.3.24.16.06.18.05.2-.05.02-.11.1-.08.09.03-.02.14.05.13.09 0 .03-.14.1-.14.5 0 1.24.4 2.33.97 2.68 1.38l.69.75c.3.3.54.57.53.58 0 .01-.15-.06-.31-.17-.16-.1-.39-.23-.5-.28l-.33-.2a32.54 32.54 0 0 1-1.16-.66 20.1 20.1 0 0 0-2.25-.83 9.67 9.67 0 0 0-1.26-.3s-.04-.05-.06-.12c-.04-.09-.05-.1-.07-.04-.01.06-.07.08-.37.08-.23 0-.4.02-.47.06a.7.7 0 0 1-.27.07c-.55 0-1.83.5-2.55 1.02a5.9 5.9 0 0 0-1.62 1.85c-.2.38-.4 1.2-.4 1.6 0 .74.38 1.69.88 2.22.1.12.2.2.22.19.01-.01-.05-.18-.15-.37a5.7 5.7 0 0 1-.29-.72c-.1-.32-.1-.45-.11-.95a3 3 0 0 1 .32-1.51 7.16 7.16 0 0 1 1.78-2.05 5.22 5.22 0 0 1 2.4-.9 8.64 8.64 0 0 1 2.06.01c.87.2 2.13.72 2.87 1.2a4.69 4.69 0 0 1 1.54 1.5c.19.4.43 1.04.5 1.32.07.25.07.27-.03.66-.13.48-.26.85-.44 1.22a.87.87 0 0 0-.12.3c.04.02.47-.92.6-1.32a6.2 6.2 0 0 0 .1-2.08 3.84 3.84 0 0 0-.72-1.65 1.3 1.3 0 0 1-.2-.34.06.06 0 0 0-.07-.06c-.09 0-.18-.12-.12-.16.05-.03-.14-.24-.36-.39l.09.1c.24.23.15.24-.18.02-.33-.23-.55-.44-.57-.56a.13.13 0 0 0-.07-.1c-.03-.01-.04 0-.02.05.01.04.01.07 0 .07l-.67-.29-1.46-.57c-.81-.3-.87-.32-.82-.36.02-.02.44.06.65.13.08.03.08.03 0-.03a2.7 2.7 0 0 0-.92-.23c-.1.01-.1.01.01.02.13 0 .17.1.03.1s-.5-.1-.5-.14c0-.01.04-.04.1-.06.06-.03.02-.04-.2-.06L34 27.12c-.56-.05-.85-.13-1.01-.29a.7.7 0 0 1-.2-.59c.04-.15.28-.6.33-.6a.3.3 0 0 1 .14.08c.16.12.4.14.6.06l.16-.06-.14-.09c-.15-.1-.16-.15-.07-.28.06-.1.06-.1-.02-.1-.1 0-.12-.1-.02-.17.1-.08.27-.01.36.14.1.15.11.1.03-.07-.05-.13-.31-.28-.47-.28a.39.39 0 0 0-.2.07zm9.67 1.63a5.7 5.7 0 0 0-.1 1.05c0 .18-.04.63-.08 1l-.07.65.35.68a5 5 0 0 1 .69 2.34c.02.43.42 1.27.42.46.01-.32.12-1.6-.4-1.86l-.21-.49a4.25 4.25 0 0 1-.24-.72c-.02-.15-.01-.55.03-1.07.1-1.28.05-1.63-.26-2.01l-.1-.13zm-1.32 1.22c-.25.12-.28.18-.27.44.02.22.02.24.19.34.23.16.3.17.41.09l.1-.09-.14-.12c-.12-.1-.14-.17-.14-.3 0-.16.06-.27.18-.31.07-.03 0-.12-.1-.12a.59.59 0 0 0-.23.07z"/><path d="M28.1 34.14c.02.52.22 1.27.48 1.8.38.79.63 1.12 1.63 2.14.57.6.77.87.87 1.23.04.14.1.33.15.41.23.45.93.78 2 .95 1.1.17 1.74.2 4 .19l2.19-.02.42-.16c.23-.09.66-.27.94-.41a6.69 6.69 0 0 0 2.98-2.95l.22-.43.38-1.92c0-.85-.38-1.17-.39-1.16l-.04.59a5.53 5.53 0 0 1-1.05 3.23 6.72 6.72 0 0 1-2.95 2.46c-.6.23-1.05.24-.5 0 .28-.12 1.19-.7 1.64-1.03a8.18 8.18 0 0 0 2.3-2.8c.21-.44.43-1.24.47-1.68l.03-.29-.17.5a7.14 7.14 0 0 1-6.17 4.92h-.24l.34-.1c.43-.14.36-.18-.32-.19-.94 0-1.91-.09-2.65-.21-.4-.07-.92-.15-1.16-.17-.58-.06-.82-.12-.87-.22-.04-.07-.02-.1.13-.19.1-.06.19-.16.21-.21.02-.06.06-.1.09-.1.09 0 .14-.2.08-.34l-.08-.14a.75.75 0 0 0-.11.19c-.16.34-.4.22-.65-.3-.12-.27-.09-.35.14-.35.18 0 .28-.1.15-.17-.14-.08-.35-.05-.53.06-.2.11-.31.25-.34.43-.03.2.2.55.45.7.16.11.2.16.2.25 0 .13-.11.26-.23.26-.14 0-.46-.17-.6-.31-.2-.18-.31-.52-.31-.85 0-.48.2-.76.76-1.05.1-.06.1-.06-.13-.17a4.28 4.28 0 0 1-.4-.23.58.58 0 0 0-.39-.11c-.17 0-.23-.02-.3-.11-.05-.06-.12-.1-.14-.1-.07 0-.1.12-.05.2.03.05.05.12.05.15 0 .13-.08.06-.2-.16-.1-.2-.14-.22-.26-.22-.1 0-.15-.03-.19-.1-.04-.08-.1-.12-.2-.12-.29-.03-.34-.05-.43-.24a.48.48 0 0 0-.23-.25c-.13-.05-.13-.06-.17-.47-.03-.42-.08-.51-.14-.3a6.06 6.06 0 0 0 .03 1.54.16.16 0 0 1-.08-.08l-.14-.3a5.8 5.8 0 0 1-.5-1.6c-.04-.23-.04-.23-.02.11z"/></g></svg>