<?xml version="1.0" encoding="UTF-8" standalone="no"?>
<svg
   xmlns:dc="http://purl.org/dc/elements/1.1/"
   xmlns:cc="http://creativecommons.org/ns#"
   xmlns:rdf="http://www.w3.org/1999/02/22-rdf-syntax-ns#"
   xmlns:svg="http://www.w3.org/2000/svg"
   xmlns="http://www.w3.org/2000/svg"
   xmlns:sodipodi="http://sodipodi.sourceforge.net/DTD/sodipodi-0.dtd"
   xmlns:inkscape="http://www.inkscape.org/namespaces/inkscape"
   height="24"
   width="24"
   version="1.1"
   id="svg8"
   sodipodi:docname="audio-volume-low-symbolic.svg"
   inkscape:version="0.92.4 (5da689c313, 2019-01-14)">
  <metadata
     id="metadata14">
    <rdf:RDF>
      <cc:Work
         rdf:about="">
        <dc:format>image/svg+xml</dc:format>
        <dc:type
           rdf:resource="http://purl.org/dc/dcmitype/StillImage" />
        <dc:title></dc:title>
      </cc:Work>
    </rdf:RDF>
  </metadata>
  <defs
     id="defs12" />
  <sodipodi:namedview
     pagecolor="#ffffff"
     bordercolor="#666666"
     borderopacity="1"
     objecttolerance="10"
     gridtolerance="10"
     guidetolerance="10"
     inkscape:pageopacity="0"
     inkscape:pageshadow="2"
     inkscape:window-width="1112"
     inkscape:window-height="480"
     id="namedview10"
     showgrid="false"
     inkscape:zoom="9.8333333"
     inkscape:cx="1.0677966"
     inkscape:cy="12"
     inkscape:window-x="0"
     inkscape:window-y="25"
     inkscape:window-maximized="0"
     inkscape:current-layer="svg8" />
  <path
     d="M 28.62,9.73 C 28.7,9.68 28.78,9.65 28.81,9.68 h -0.14 a 6.87,6.6 41.45 0 0 -0.05,0.05 z m -1.14,1.33 0.04,0.09 c -0.03,-0.03 -0.02,-0.1 0,-0.17 a 6.87,6.6 41.45 0 0 -0.04,0.08 z M 11.65,8.13 A 6.87,6.6 41.45 0 0 7.1,9.68 h 0.14 l 4,3.54 c 0.08,0.07 -0.06,0.36 -0.3,0.64 l -0.4,0.44 c -0.25,0.29 -0.51,0.46 -0.59,0.39 l -4,-3.54 -0.05,-0.1 a 6.87,6.6 41.45 0 0 1.36,8.73 6.87,6.6 41.45 0 0 9.51,-0.4 A 6.87,6.6 41.45 0 0 16,9.9 6.87,6.6 41.45 0 0 11.66,8.13 Z"
     id="path2"
     inkscape:connector-curvature="0"
     style="fill:#808080" />
  <path
     d="M 11.76,2.48 C 7.53,2.48 3.97,4.38 1.22,7.4 v 2.7 H 3.45 C 5.74,7.7 8.3,6.3 11.76,6.3 c 3.47,0 6.03,1.48 8.32,3.81 h 2.23 V 7.47 c -2.47,-2.8 -6.3,-5 -10.55,-5 z"
     id="path4"
     inkscape:connector-curvature="0"
     style="color:#000000;fill:#808080;fill-opacity:0.3" />
  <path
     d="M 1.22,7.4 C 1.58,7 1.98,6.62 2.4,6.24 L 4.7,8.9 C 4.26,9.28 3.82,9.66 3.45,10.11 H 1.22 Z"
     id="path6"
     inkscape:connector-curvature="0"
     style="fill:#808080" />
</svg>
