<?xml version="1.0" encoding="UTF-8" standalone="no"?>
<svg
   xmlns:dc="http://purl.org/dc/elements/1.1/"
   xmlns:cc="http://creativecommons.org/ns#"
   xmlns:rdf="http://www.w3.org/1999/02/22-rdf-syntax-ns#"
   xmlns:svg="http://www.w3.org/2000/svg"
   xmlns="http://www.w3.org/2000/svg"
   xmlns:sodipodi="http://sodipodi.sourceforge.net/DTD/sodipodi-0.dtd"
   xmlns:inkscape="http://www.inkscape.org/namespaces/inkscape"
   height="24"
   width="24"
   version="1.1"
   id="svg8"
   sodipodi:docname="audio-volume-medium-symbolic.svg"
   inkscape:version="0.92.4 (5da689c313, 2019-01-14)">
  <metadata
     id="metadata14">
    <rdf:RDF>
      <cc:Work
         rdf:about="">
        <dc:format>image/svg+xml</dc:format>
        <dc:type
           rdf:resource="http://purl.org/dc/dcmitype/StillImage" />
        <dc:title></dc:title>
      </cc:Work>
    </rdf:RDF>
  </metadata>
  <defs
     id="defs12" />
  <sodipodi:namedview
     pagecolor="#ffffff"
     bordercolor="#666666"
     borderopacity="1"
     objecttolerance="10"
     gridtolerance="10"
     guidetolerance="10"
     inkscape:pageopacity="0"
     inkscape:pageshadow="2"
     inkscape:window-width="1112"
     inkscape:window-height="480"
     id="namedview10"
     showgrid="false"
     inkscape:zoom="9.8333333"
     inkscape:cx="1.0677966"
     inkscape:cy="12"
     inkscape:window-x="0"
     inkscape:window-y="25"
     inkscape:window-maximized="0"
     inkscape:current-layer="svg8" />
  <path
     d="m 6.37,10.86 a 6.74,7.03 0.78 0 1 4.7,-2.93 l -0.08,0.1 -0.08,5.47 c 0,0.11 0.31,0.2 0.7,0.2 l 0.6,0.01 c 0.39,0 0.7,-0.07 0.7,-0.18 L 13,8.06 13.08,8 a 6.74,7.03 0.78 0 1 5.55,7 6.74,7.03 0.78 0 1 -6.84,6.92 6.74,7.03 0.78 0 1 -6.64,-7.11 6.74,7.03 0.78 0 1 1.23,-3.95 z"
     id="path2"
     inkscape:connector-curvature="0"
     style="fill:#808080" />
  <path
     d="M 12,2.26 C 7.67,2.26 4.04,4.2 1.22,7.3 v 2.75 H 3.5 c 2.34,-2.46 4.96,-3.9 8.5,-3.9 3.54,0 6.16,1.52 8.5,3.9 h 2.28 V 7.36 C 20.25,4.5 16.33,2.26 12,2.26 Z"
     id="path4"
     inkscape:connector-curvature="0"
     style="fill:#808080;fill-opacity:0.3" />
  <path
     d="M 1.22,10.05 V 7.3 C 5.66,2.7 9,2.47 12,2.26 v 3.9 C 8.71,5.99 5.68,7.74 3.5,10.06 Z"
     id="path6"
     inkscape:connector-curvature="0"
     style="opacity:0.72000002;fill:#808080" />
</svg>
