<?xml version="1.0" encoding="UTF-8" standalone="no"?>
<svg
   xmlns:dc="http://purl.org/dc/elements/1.1/"
   xmlns:cc="http://creativecommons.org/ns#"
   xmlns:rdf="http://www.w3.org/1999/02/22-rdf-syntax-ns#"
   xmlns:svg="http://www.w3.org/2000/svg"
   xmlns="http://www.w3.org/2000/svg"
   xmlns:sodipodi="http://sodipodi.sourceforge.net/DTD/sodipodi-0.dtd"
   xmlns:inkscape="http://www.inkscape.org/namespaces/inkscape"
   width="24"
   height="24"
   version="1.1"
   id="svg4"
   sodipodi:docname="weather-overcast-symbolic.svg"
   inkscape:version="0.92.4 (5da689c313, 2019-01-14)">
  <metadata
     id="metadata10">
    <rdf:RDF>
      <cc:Work
         rdf:about="">
        <dc:format>image/svg+xml</dc:format>
        <dc:type
           rdf:resource="http://purl.org/dc/dcmitype/StillImage" />
        <dc:title></dc:title>
      </cc:Work>
    </rdf:RDF>
  </metadata>
  <defs
     id="defs8" />
  <sodipodi:namedview
     pagecolor="#ffffff"
     bordercolor="#666666"
     borderopacity="1"
     objecttolerance="10"
     gridtolerance="10"
     guidetolerance="10"
     inkscape:pageopacity="0"
     inkscape:pageshadow="2"
     inkscape:window-width="1085"
     inkscape:window-height="480"
     id="namedview6"
     showgrid="false"
     inkscape:zoom="11.833333"
     inkscape:cx="12"
     inkscape:cy="12"
     inkscape:window-x="0"
     inkscape:window-y="25"
     inkscape:window-maximized="0"
     inkscape:current-layer="svg4" />
  <path
     style="fill:#808080"
     d="M 11.279297 3.3535156 A 5 5 0 0 0 6.2792969 8.3535156 A 5 5 0 0 0 6.3886719 9.359375 A 3 3 0 0 0 6.2792969 9.3535156 A 3 3 0 0 0 3.2792969 12.353516 A 3 3 0 0 0 6.2792969 15.353516 L 7.0097656 15.353516 A 3.556 3.556 0 0 1 8.390625 14.646484 A 5.333 5.333 0 0 1 8.3867188 14.53125 A 5.333 5.333 0 0 1 13.720703 9.1992188 A 5.333 5.333 0 0 1 18.837891 13.044922 A 4.444 4.444 0 0 1 18.884766 13.0625 A 4 4 0 0 0 19.279297 11.355469 A 4 4 0 0 0 16.199219 7.4667969 A 5 5 0 0 0 11.279297 3.3554688 L 11.279297 3.3535156 z M 13.720703 10.212891 A 4.342 4.342 0 0 0 9.3769531 14.554688 A 4.342 4.342 0 0 0 9.4707031 15.427734 A 2.605 2.605 0 0 0 9.3769531 15.423828 A 2.605 2.605 0 0 0 6.7734375 18.027344 A 2.605 2.605 0 0 0 9.3769531 20.632812 L 17.193359 20.632812 A 3.474 3.474 0 0 0 20.667969 17.160156 A 3.474 3.474 0 0 0 17.992188 13.783203 A 4.342 4.342 0 0 0 13.720703 10.212891 z "
     id="path814" />
</svg>
