<?xml version="1.0" encoding="UTF-8" standalone="no"?>
<svg
   xmlns:dc="http://purl.org/dc/elements/1.1/"
   xmlns:cc="http://creativecommons.org/ns#"
   xmlns:rdf="http://www.w3.org/1999/02/22-rdf-syntax-ns#"
   xmlns:svg="http://www.w3.org/2000/svg"
   xmlns="http://www.w3.org/2000/svg"
   xmlns:xlink="http://www.w3.org/1999/xlink"
   xmlns:sodipodi="http://sodipodi.sourceforge.net/DTD/sodipodi-0.dtd"
   xmlns:inkscape="http://www.inkscape.org/namespaces/inkscape"
   width="24"
   height="24"
   version="1.1"
   id="svg10"
   sodipodi:docname="geany-build.svg"
   inkscape:version="0.92.4 (5da689c313, 2019-01-14)">
  <metadata
     id="metadata16">
    <rdf:RDF>
      <cc:Work
         rdf:about="">
        <dc:format>image/svg+xml</dc:format>
        <dc:type
           rdf:resource="http://purl.org/dc/dcmitype/StillImage" />
        <dc:title></dc:title>
      </cc:Work>
    </rdf:RDF>
  </metadata>
  <defs
     id="defs14" />
  <sodipodi:namedview
     pagecolor="#ffffff"
     bordercolor="#666666"
     borderopacity="1"
     objecttolerance="10"
     gridtolerance="10"
     guidetolerance="10"
     inkscape:pageopacity="0"
     inkscape:pageshadow="2"
     inkscape:window-width="1112"
     inkscape:window-height="480"
     id="namedview12"
     showgrid="false"
     inkscape:zoom="9.8333333"
     inkscape:cx="1.0677966"
     inkscape:cy="12"
     inkscape:window-x="0"
     inkscape:window-y="25"
     inkscape:window-maximized="0"
     inkscape:current-layer="svg10" />
  <path
     d="m 0.611,3.277 v 7.506 L 13.178,23.78 v 0.03 l 10.18,-5.645 v -7.527 l -10.18,4.781 v -0.06 z"
     id="path2"
     inkscape:connector-curvature="0"
     style="fill:#e6e6e6;stroke:#e6e6e6;stroke-width:0.49399999;stroke-linejoin:round" />
  <path
     d="m 10.537,0.4 c 0,0 -1.112,0.175 -0.85,0.807 C 9.948,1.84 9.074,2.15 7.876,2.625 5.564,3.541 4.496,3.705 2.596,2.931 1.91,2.651 0.612,3.265 0.612,3.265 L 13.22,15.408 23.364,10.653 Z"
     id="path4"
     inkscape:connector-curvature="0"
     style="fill:none;stroke:#e6e6e6;stroke-width:0.49399999;stroke-linejoin:round" />
  <path
     id="a"
     d="M 5.083,5.81 C 5.847,6.585 6.863,6.892 10.209,5.57 13.634,4.218 13.285,4.022 12.522,3.345 11.758,2.669 11.418,2.348 8.595,3.389 4.691,4.829 4.32,5.036 5.083,5.81 Z"
     inkscape:connector-curvature="0"
     style="fill:#e6e6e6;stroke-width:0.49399999" />
  <use
     id="b"
     width="48"
     height="48"
     transform="translate(3.586,3.01)"
     xlink:href="#a"
     style="fill:#e6e6e6"
     x="0"
     y="0" />
  <use
     width="48"
     height="48"
     transform="rotate(-2.947,77.55,-63.172003)"
     xlink:href="#b"
     id="use8"
     style="fill:#e6e6e6"
     x="0"
     y="0" />
</svg>
