<?xml version="1.0" encoding="UTF-8" standalone="no"?>
<svg
   xmlns:dc="http://purl.org/dc/elements/1.1/"
   xmlns:cc="http://creativecommons.org/ns#"
   xmlns:rdf="http://www.w3.org/1999/02/22-rdf-syntax-ns#"
   xmlns:svg="http://www.w3.org/2000/svg"
   xmlns="http://www.w3.org/2000/svg"
   xmlns:sodipodi="http://sodipodi.sourceforge.net/DTD/sodipodi-0.dtd"
   xmlns:inkscape="http://www.inkscape.org/namespaces/inkscape"
   width="24"
   height="24"
   version="1"
   id="svg4"
   sodipodi:docname="go-parent-folder.svg"
   inkscape:version="0.92.4 (5da689c313, 2019-01-14)">
  <metadata
     id="metadata10">
    <rdf:RDF>
      <cc:Work
         rdf:about="">
        <dc:format>image/svg+xml</dc:format>
        <dc:type
           rdf:resource="http://purl.org/dc/dcmitype/StillImage" />
        <dc:title></dc:title>
      </cc:Work>
    </rdf:RDF>
  </metadata>
  <defs
     id="defs8" />
  <sodipodi:namedview
     pagecolor="#ffffff"
     bordercolor="#666666"
     borderopacity="1"
     objecttolerance="10"
     gridtolerance="10"
     guidetolerance="10"
     inkscape:pageopacity="0"
     inkscape:pageshadow="2"
     inkscape:window-width="1112"
     inkscape:window-height="480"
     id="namedview6"
     showgrid="false"
     inkscape:zoom="9.8333333"
     inkscape:cx="1.0677966"
     inkscape:cy="12"
     inkscape:window-x="0"
     inkscape:window-y="25"
     inkscape:window-maximized="0"
     inkscape:current-layer="svg4" />
  <path
     d="m 11.96,1.08 c -3.4,0 -8,3.3 -8.07,6.1 -0.08,3.04 -0.3,8.53 -0.46,12.75 H 1.35 v 2.76 H 22.7 V 19.93 H 20.46 C 20.31,15.01 20.14,9.35 20.01,7.18 19.84,4.27 15.37,1.08 11.96,1.08 Z m 0,1.57 c 2.56,0 6.49,2.93 6.48,5.46 -0.02,1.72 0.07,5.68 0.05,11.82 H 5.39 L 5.41,19.92 C 5.37,13.31 5.51,8.05 5.51,8.05 c 0,-2.45 3.9,-5.4 6.45,-5.4 z M 12,7.19 7.2,12 8.8,13.6 10.4,12 v 4.81 h 3.21 v -4.8 l 1.61,1.6 1.6,-1.6 -4.8,-4.82 z"
     id="path2"
     inkscape:connector-curvature="0"
     style="fill:#e6e6e6" />
</svg>
