<?xml version="1.0" encoding="UTF-8" standalone="no"?>
<svg
   xmlns:dc="http://purl.org/dc/elements/1.1/"
   xmlns:cc="http://creativecommons.org/ns#"
   xmlns:rdf="http://www.w3.org/1999/02/22-rdf-syntax-ns#"
   xmlns:svg="http://www.w3.org/2000/svg"
   xmlns="http://www.w3.org/2000/svg"
   xmlns:sodipodi="http://sodipodi.sourceforge.net/DTD/sodipodi-0.dtd"
   xmlns:inkscape="http://www.inkscape.org/namespaces/inkscape"
   width="24"
   height="24"
   version="1.1"
   id="svg4"
   sodipodi:docname="insert-object.svg"
   inkscape:version="0.92.4 (5da689c313, 2019-01-14)">
  <metadata
     id="metadata10">
    <rdf:RDF>
      <cc:Work
         rdf:about="">
        <dc:format>image/svg+xml</dc:format>
        <dc:type
           rdf:resource="http://purl.org/dc/dcmitype/StillImage" />
        <dc:title></dc:title>
      </cc:Work>
    </rdf:RDF>
  </metadata>
  <defs
     id="defs8" />
  <sodipodi:namedview
     pagecolor="#ffffff"
     bordercolor="#666666"
     borderopacity="1"
     objecttolerance="10"
     gridtolerance="10"
     guidetolerance="10"
     inkscape:pageopacity="0"
     inkscape:pageshadow="2"
     inkscape:window-width="1112"
     inkscape:window-height="480"
     id="namedview6"
     showgrid="false"
     inkscape:zoom="9.8333333"
     inkscape:cx="1.0677966"
     inkscape:cy="12"
     inkscape:window-x="0"
     inkscape:window-y="25"
     inkscape:window-maximized="0"
     inkscape:current-layer="svg4" />
  <path
     d="M 12,0.764 5.179,5.05 v 6.43 L 12,15.77 18.821,11.48 V 5.05 Z M 12,2.853 16.972,5.978 12,8.95 7.025,5.98 Z M 8.499,16.567 a 1.08,1.08 0 0 0 -0.765,0.317 l -0.485,0.485 a 1.078,1.078 0 0 0 0,1.527 l 3.533,3.53 0.006,0.008 0.485,0.485 a 1.078,1.078 0 0 0 1.526,0 l 0.49,-0.493 3.534,-3.53 a 1.078,1.078 0 0 0 0,-1.527 l -0.485,-0.485 a 1.078,1.078 0 0 0 -1.527,0 L 12.035,19.661 9.261,16.884 A 1.073,1.073 0 0 0 8.499,16.567 Z"
     id="path2"
     inkscape:connector-curvature="0"
     style="fill:#e6e6e6;paint-order:markers fill stroke" />
</svg>
