<?xml version="1.0" encoding="UTF-8" standalone="no"?>
<svg
   xmlns:dc="http://purl.org/dc/elements/1.1/"
   xmlns:cc="http://creativecommons.org/ns#"
   xmlns:rdf="http://www.w3.org/1999/02/22-rdf-syntax-ns#"
   xmlns:svg="http://www.w3.org/2000/svg"
   xmlns="http://www.w3.org/2000/svg"
   xmlns:sodipodi="http://sodipodi.sourceforge.net/DTD/sodipodi-0.dtd"
   xmlns:inkscape="http://www.inkscape.org/namespaces/inkscape"
   width="24"
   height="24"
   version="1.1"
   id="svg8"
   sodipodi:docname="package-available-locked.svg"
   inkscape:version="0.92.4 (5da689c313, 2019-01-14)">
  <metadata
     id="metadata14">
    <rdf:RDF>
      <cc:Work
         rdf:about="">
        <dc:format>image/svg+xml</dc:format>
        <dc:type
           rdf:resource="http://purl.org/dc/dcmitype/StillImage" />
        <dc:title></dc:title>
      </cc:Work>
    </rdf:RDF>
  </metadata>
  <defs
     id="defs12" />
  <sodipodi:namedview
     pagecolor="#ffffff"
     bordercolor="#666666"
     borderopacity="1"
     objecttolerance="10"
     gridtolerance="10"
     guidetolerance="10"
     inkscape:pageopacity="0"
     inkscape:pageshadow="2"
     inkscape:window-width="1112"
     inkscape:window-height="480"
     id="namedview10"
     showgrid="false"
     inkscape:zoom="9.8333333"
     inkscape:cx="1.0677966"
     inkscape:cy="12"
     inkscape:window-x="0"
     inkscape:window-y="25"
     inkscape:window-maximized="0"
     inkscape:current-layer="svg8" />
  <g
     id="g6"
     style="fill:#e6e6e6">
    <path
       d="M 11.977,6.023 A 2.859,2.859 0 0 0 9.119,8.881 v 1.142 H 8.547 c -0.632,0 -1.143,0.513 -1.143,1.145 v 5.713 c 0,0.631 0.511,1.144 1.143,1.144 h 6.857 c 0.632,0 1.143,-0.513 1.143,-1.144 v -5.713 c 0,-0.632 -0.511,-1.145 -1.143,-1.145 H 14.832 V 8.881 A 2.857,2.857 0 0 0 11.977,6.023 Z m 0,1.086 c 0.977,0 1.771,0.795 1.771,1.772 v 1.142 H 10.205 V 8.881 c 0,-0.977 0.795,-1.772 1.772,-1.772 z"
       id="path2"
       inkscape:connector-curvature="0" />
    <path
       d="m 4.977,3.023 a 2,2 0 0 0 -2,2 v 14 a 2,2 0 0 0 2,2 h 14 a 2,2 0 0 0 2,-2 v -14 a 2,2 0 0 0 -2,-2 z m 0,2 h 14 v 14 h -14 z"
       id="path4"
       inkscape:connector-curvature="0" />
  </g>
</svg>
