<svg xmlns="http://www.w3.org/2000/svg" width="24" height="24" id="svg9"><defs id="defs3"><style id="current-color-scheme"></style></defs><path d="M11.95.95a6.43 6.43 0 0 0-5.92 3.93c-.28.66-.4 1.4-.44 2.16v9.35a5.6 5.6 0 0 0-2.36 4.15V22h10.45a5.5 5.5 0 0 1-.2-.28 5.5 5.5 0 0 1-.3-.47 5.5 5.5 0 0 1-.23-.49 5.5 5.5 0 0 1-.2-.52 5.5 5.5 0 0 1-.13-.53 5.5 5.5 0 0 1-.08-.54 5.5 5.5 0 0 1-.03-.55 5.5 5.5 0 0 1 .02-.4 5.5 5.5 0 0 1 .06-.54 5.5 5.5 0 0 1 .12-.53 5.5 5.5 0 0 1 .17-.52 5.5 5.5 0 0 1 .23-.5 5.5 5.5 0 0 1 .27-.48 5.5 5.5 0 0 1 .32-.45 5.5 5.5 0 0 1 .3-.34c-.63-.08-1.24-.17-2-.17-2.35 0-4.06.43-5.31 1.04V7.06c.03-.62.12-1.24.36-1.78a5.33 5.33 0 0 1 10.22 1.97v6.94a4.5 4.5 0 0 0-3.76 4.43 4.5 4.5 0 0 0 4.5 4.5 4.5 4.5 0 0 0 4.5-4.5 4.5 4.5 0 0 0-4.15-4.49V7.27a6.44 6.44 0 0 0-.48-2.4A6.43 6.43 0 0 0 11.95.96zM12 3a4.38 4.38 0 1 0-.01 8.76A4.38 4.38 0 0 0 12 3zm5.37 12.4h1.28v1.29h-1.28V15.4zm0 2.57h1.28v3.86h-1.28v-3.86z" id="path860" color="#dfdfdf" fill="#e6e6e6" stroke-width="1.46"/></svg>
