<?xml version="1.0" encoding="UTF-8" standalone="no"?><svg xmlns:dc="http://purl.org/dc/elements/1.1/" xmlns:cc="http://creativecommons.org/ns#" xmlns:rdf="http://www.w3.org/1999/02/22-rdf-syntax-ns#" xmlns="http://www.w3.org/2000/svg" xmlns:xlink="http://www.w3.org/1999/xlink" width="48" height="48" viewBox="0 0 12.7 12.7"><metadata><rdf:RDF><cc:Work><dc:format>image/svg+xml</dc:format><dc:type rdf:resource="http://purl.org/dc/dcmitype/StillImage"/><dc:title/></cc:Work></rdf:RDF></metadata><defs><linearGradient id="a"><stop offset="0"/><stop offset="1" stop-opacity="0"/></linearGradient><linearGradient xlink:href="#a" id="b" x1="3.14" y1="2.57" x2="10.7" y2="8.51" gradientUnits="userSpaceOnUse"/></defs><path d="M9.26.01l1.56 4.6-2.07 8.08h-4.8L1.88 4.61 3.44.01z" fill="#aa87de"/><path fill="#c6afe9" d="M4.84 11.59l-.89 1.1h4.8l-.89-1.1z"/><path d="M7.86 11.59l.89 1.1 2.07-8.09-1.18.05zM1.88 4.6l2.07 8.09.89-1.1-1.78-6.94zM3.44 0l.82 1.1h4.18L9.26 0z" fill="#8d5fd3"/><path d="M1.88 4.61L3.44.01l.82 1.1-1.2 3.54zm7.76.04l-1.2-3.54.82-1.1 1.56 4.6z" fill="#7137c8"/><path d="M3.92 5.9l.43-.78-.4-.4.7-.85.8-.36.67-.1.66.06.73.24.77.32 1.2 1.22-1.26 4.95z" opacity=".58" fill="url(#b)"/><g fill="#dbdee3" stroke-width="1.98"><path d="M6.26 3.37c-.9 0-1.73.33-2.1.83-.13.18-.22.4-.22.52a.26.26 0 0 0 0 .09 23.82 23.82 0 0 0 .73-.12c.01 0 .02-.09.02-.2 0-.14.01-.2.05-.3.3-.58 1.4-.89 2.25-.6l.17.05.1-.13-.1-.03a3.69 3.69 0 0 0-.9-.11zm0 .97a.16.16 0 0 0-.02 0 .45.45 0 0 1-.14.02h-.07l.07.03.12.06a7.31 7.31 0 0 1 1.3.2c1.24.22 1.29.22 1.25.19l-.4-.1c-1.9-.32-2.02-.34-2.05-.38a.05.05 0 0 0-.05-.02zm-1.2.59v1.22l.15-.01c.26-.03.27-.04.27-.14v-.1l.18-.02c.22-.04.48-.16.56-.27a.3.3 0 0 0 .07-.2c0-.12-.01-.14-.11-.23-.16-.16-.37-.22-.8-.24zm.42.1l.05.02c.09.03.2.1.27.2.12.14.07.34-.14.47l-.15.08c-.02 0-.03-.09-.03-.39zm1.11-.1v.96h.43v-.85h.18c.13 0 .17 0 .18.04.01.02.02.2.02.42v.4h.4v-.86h.37v.44l.01.41h.43v-.85L8.51 5a3.6 3.6 0 0 0-1-.06zm-2.27.02h-.39l-.01.47v.47h.43v-.77l.07-.02a.43.43 0 0 1 .16.01c.08.03.1.02.2-.03l.1-.07-.08-.03a1.53 1.53 0 0 0-.48-.03z"/><path d="M7.26 3.5l-.1.14c.29.13.51.32.62.53.06.12.07.33.06.4v.12l.78.13-.02-.16a1.34 1.34 0 0 0-.33-.6 2.05 2.05 0 0 0-1.01-.55z" opacity=".75"/></g></svg>