<?xml version="1.0" encoding="UTF-8" standalone="no"?><svg xmlns:dc="http://purl.org/dc/elements/1.1/" xmlns:cc="http://creativecommons.org/ns#" xmlns:rdf="http://www.w3.org/1999/02/22-rdf-syntax-ns#" xmlns="http://www.w3.org/2000/svg" xmlns:xlink="http://www.w3.org/1999/xlink" width="48" height="48" version="1"><metadata><rdf:RDF><cc:Work><dc:format>image/svg+xml</dc:format><dc:type rdf:resource="http://purl.org/dc/dcmitype/StillImage"/><dc:title/></cc:Work></rdf:RDF></metadata><defs><linearGradient id="c"><stop offset="0"/><stop offset="1" stop-opacity="0"/></linearGradient><linearGradient id="a"><stop offset="0" stop-color="#782121"/><stop offset="1" stop-color="#ff2a2a"/></linearGradient><linearGradient id="b"><stop offset="0" stop-color="#000003"/><stop offset="1" stop-color="#030000" stop-opacity="0"/></linearGradient><linearGradient xlink:href="#c" id="d" x1="7.33" y1="9.43" x2="42.8" y2="34.71" gradientUnits="userSpaceOnUse"/></defs><path d="M33.05 47.97H14.95L7.1 17.42 13 .03h22l5.9 17.39z" fill="#666"/><path d="M18.27 43.82l-3.34 4.15h18.13l-3.35-4.15z" fill="gray"/><path d="M20 31.12l.19-.63-4.9-4.9.45-11.75h12.57l4.86-.61 4.88 4.88-5.11 19.46-1.2 5.28z" fill="url(#d)" opacity=".52"/><path d="M29.71 43.82l3.34 4.15 7.84-30.55-4.45.16zm-22.6-26.4l7.82 30.55 3.34-4.15-6.73-26.24zM13.01.03l3.07 4.15h15.8l3.1-4.15z" fill="#4d4d4d"/><path d="M7.1 17.42L13 .03l3.1 4.15-4.56 13.4zm29.34.16L31.9 4.18 34.98.03l5.9 17.39z" fill="#333"/><path style="line-height:normal;text-indent:0;text-align:start;text-decoration-line:none;text-transform:none;marker:none" d="M15.26 12.83a.43.43 0 0 0-.43.4V24.5a1.68 1.68 0 0 0 1.65 1.65h4.84l-1.48 4.47a.43.43 0 0 0 .4.54c.17 0 .34-.11.4-.28l1.57-4.73h1.36v4.58a.43.43 0 0 0 .86 0V26.2h1.36l1.57 4.7a.43.43 0 0 0 .8-.29l-1.48-4.44h4.84a1.68 1.68 0 0 0 1.65-1.65V13.23a.43.43 0 0 0-.43-.4zm1.22 1.65h15.07v10.03h-15.1zm10.42.86a.43.43 0 0 0-.4.4v7.51c0 .23.18.4.4.4h2.51a.43.43 0 0 0 .43-.4v-7.52a.43.43 0 0 0-.43-.42zm-4.15 1.65a.43.43 0 0 0-.43.42v5.84a.43.43 0 0 0 .43.4h2.5a.43.43 0 0 0 .43-.4v-5.84a.43.43 0 0 0-.43-.42zm-4.16 2.5a.43.43 0 0 0-.43.43v3.33a.43.43 0 0 0 .43.4h2.5a.43.43 0 0 0 .4-.4V19.9a.43.43 0 0 0-.4-.42z" font-weight="400" overflow="visible" color="#000" font-family="Andale Mono" fill="#fff"/></svg>