<?xml version="1.0" encoding="UTF-8" standalone="no"?><svg xmlns:dc="http://purl.org/dc/elements/1.1/" xmlns:cc="http://creativecommons.org/ns#" xmlns:rdf="http://www.w3.org/1999/02/22-rdf-syntax-ns#" xmlns="http://www.w3.org/2000/svg" xmlns:xlink="http://www.w3.org/1999/xlink" width="48" height="48" viewBox="0 0 12.7 12.7"><metadata><rdf:RDF><cc:Work><dc:format>image/svg+xml</dc:format><dc:type rdf:resource="http://purl.org/dc/dcmitype/StillImage"/><dc:title/></cc:Work></rdf:RDF></metadata><defs><linearGradient id="a"><stop offset="0"/><stop offset="1" stop-opacity="0"/></linearGradient><linearGradient xlink:href="#a" id="b" x1="3.03" y1="4.01" x2="12.01" y2="8.57" gradientUnits="userSpaceOnUse"/></defs><path d="M9.26.01l1.56 4.6-2.07 8.08h-4.8L1.88 4.61 3.44.01z" fill="#0a8"/><path d="M4.84 11.59l-.89 1.1h4.8l-.89-1.1z" fill="#00d4aa"/><path d="M7.86 11.59l.89 1.1 2.07-8.09-1.18.05zM1.88 4.6l2.07 8.09.89-1.1-1.78-6.94zM3.44 0l.82 1.1h4.18L9.26 0z" fill="#008066" stroke-width=".12"/><path d="M1.88 4.61L3.44.01l.82 1.1-1.2 3.54zm7.76.04l-1.2-3.54.82-1.1 1.56 4.6z" fill="#054"/><path d="M4.07 7.14l1.3-3.9L7 4.85l1.63-1.63.8.8.21.62-.58 2.27L8 11.07l-1.65-1.6-.29-.33L4.42 7.5z" fill="url(#b)" opacity=".55"/><path d="M4.07 3.23v3.91h1.3V5.2l.33.43v1.9H4.42l1.93 1.95 2-1.96H7V5.63l.32-.44v1.95h1.3v-3.9h-1.3l-.94 1.95-1.02-1.96z" fill="#0b2822"/></svg>