<?xml version="1.0" encoding="UTF-8" standalone="no"?><svg xmlns:dc="http://purl.org/dc/elements/1.1/" xmlns:cc="http://creativecommons.org/ns#" xmlns:rdf="http://www.w3.org/1999/02/22-rdf-syntax-ns#" xmlns="http://www.w3.org/2000/svg" xmlns:xlink="http://www.w3.org/1999/xlink" width="48" height="48" version="1"><metadata><rdf:RDF><cc:Work><dc:format>image/svg+xml</dc:format><dc:type rdf:resource="http://purl.org/dc/dcmitype/StillImage"/><dc:title/></cc:Work></rdf:RDF></metadata><defs><linearGradient id="c"><stop offset="0"/><stop offset="1" stop-opacity="0"/></linearGradient><linearGradient id="b"><stop offset="0"/><stop offset="1" stop-opacity=".06"/></linearGradient><linearGradient id="a" x1="28.74" x2="25.4" y1="144.12" y2="119.86" gradientTransform="matrix(.22147 0 0 .22311 14.03 -16.08)" gradientUnits="userSpaceOnUse"><stop offset="0" stop-color="#fff"/><stop offset="1" stop-color="#b7c8c4"/></linearGradient><linearGradient xlink:href="#c" id="d" x1="10.53" y1="8.86" x2="44.23" y2="32.91" gradientUnits="userSpaceOnUse"/></defs><path d="M33.06 47.97H14.94L7.11 17.42 13.01.03H35l5.9 17.39z" fill="#6f6f91"/><path d="M18.28 43.82l-3.34 4.15h18.12l-3.34-4.15z" fill="#9393ac"/><path d="M17.51 26.4l-1.63-8.07 2.54-4.54 5.56-2.78 6.69 2.87 8.21 8.21-6.03 19.65z" fill="url(#d)" opacity=".53"/><path d="M29.72 43.82l3.34 4.15 7.83-30.55-4.44.16zm-22.6-26.4l7.82 30.55 3.34-4.15-6.73-26.24zM13.01.03l3.08 4.15h15.8l3.1-4.15z" fill="#53536c"/><path d="M7.11 17.42L13.01.03l3.09 4.15-4.55 13.4zm29.34.16L31.9 4.18 34.99.03l5.9 17.39z" fill="#373748"/><path d="M23.98 11A9.01 9.01 0 0 0 15 19.99a9.01 9.01 0 0 0 8.97 9.01 9.01 9.01 0 0 0 9.01-9.01A9.01 9.01 0 0 0 23.98 11zm0 1.92a7.06 7.06 0 0 1 7.1 7.06 7.06 7.06 0 0 1-7.1 7.1 7.06 7.06 0 0 1-7.06-7.1 7.06 7.06 0 0 1 7.06-7.06zm0 1.91a5.15 5.15 0 0 0-3.66 1.58l1.66 1.06a3.23 3.23 0 0 1 2-.68 3.23 3.23 0 0 1 3.23 3.19 3.23 3.23 0 0 1-3.23 3.23 3.23 3.23 0 0 1-2-.72l-1.66 1.1a5.15 5.15 0 0 0 3.66 1.53 5.15 5.15 0 0 0 5.14-5.1 5.15 5.15 0 0 0-5.1-5.19z" fill="#dfe6e4"/></svg>