<svg xmlns="http://www.w3.org/2000/svg" width="24" height="24"><path d="M18.66 1.84C16.98.75 14.67.2 11.8.2S6.62.75 4.94 1.84c-2.02 1.31-3.09 3.4-3.09 6.04 0 3.56 2.86 8.32 3.74 9.69 1 1.57 2.09 3 3.07 4.02 1.25 1.3 2.25 1.9 3.14 1.9.89 0 1.89-.6 3.14-1.9A26.82 26.82 0 0 0 18 17.57c.88-1.37 3.74-6.13 3.74-9.69 0-2.64-1.07-4.73-3.09-6.04z" fill="#483737"/><path d="M8.23 17.05h7.12l.1-1.95.62.19 1.2-.3.85-.67.5-1.01.04-.95-.22-1.02-.25-.29-.42-.33-.48-.83-.1-.32-.96.18.05.8-.12.6-.52.56-.83.3-.9-.07-.95-.82-1.14 1.27 1.1 2.05.02.3-.52.15-1.53-.12-.34-.18.54-1 .46-1.07.31-.13-1.4-1.11-.36.4-.61.3-.88-.04-.78-.32-.4-.56-.19-.79.34-1.1.88-.59.94-.02.7.36.45.42.14.82-.03.72-.2.42 1.4 1.1 1.1-1.28-.13-.72.1-.9.75-.67.77-.34.79.16.56.4.43.72.95-.2-.16-.72-.07-.84.02-.9.07-.72.28-.63-.24-.34-.74-1.06-1.14-.83-.97-.5-1.83-.42-.5.02-1.12.05-1.17.3-1.1.48-1.3.97-.78.79-.28.12.33.54.11 1.05v.79l-.07 1.1-.3 1.22-.86 1-.24.3-.07.78-.11 1.01.38.84.48.69 1.08.6.97.06.48.02z" fill="#fff"/><path d="M15.39 18.12H8.18a.16.16 0 0 1-.16-.16v-2.52a2.78 2.78 0 0 1-2.9-4.1 6.94 6.94 0 1 1 13.32 0 2.78 2.78 0 0 1-2.9 4.1v2.52c0 .09-.07.16-.15.16zm-.67-.31h.51v-2.48l-1.04-.65a.16.16 0 0 1 .17-.26l1.09.68a2.48 2.48 0 0 0 3.03-2.4c0-.43-.11-.84-.31-1.2a5.17 5.17 0 0 1-1.28-3.23c-.1-1.73.12-2.61.2-2.85a6.62 6.62 0 0 0-10.63.02c.08.27.3 1.15.2 2.82a5.21 5.21 0 0 1-1.24 3.2 2.47 2.47 0 0 0 2.7 3.64l1.09-.68a.16.16 0 0 1 .17.26l-1.05.66v2.47h.52v-.74a.16.16 0 0 1 .3 0v.74h.62v-.74a.16.16 0 0 1 .31 0v.74h.62v-.74a.16.16 0 0 1 .31 0v.74h.62v-.74a.16.16 0 0 1 .3 0v.74h.62v-.74a.16.16 0 0 1 .31 0v.74h.62v-.74a.16.16 0 0 1 .31 0v.74h.62v-.74a.16.16 0 0 1 .3 0zm2.6-12.05c-.09.39-.2 1.2-.12 2.49.08 1.45.7 2.41 1 2.8a6.63 6.63 0 0 0-.88-5.3zm-11.1.02a6.59 6.59 0 0 0-.86 5.25c.31-.4.9-1.37.99-2.78a9.56 9.56 0 0 0-.12-2.47zm6.4 9.23h-1.67a.49.49 0 0 1-.44-.7l.86-1.8a.45.45 0 0 1 .41-.26c.18 0 .33.1.41.26l.86 1.8a.49.49 0 0 1-.44.7zm-.84-2.44c-.02 0-.09 0-.12.08l-.87 1.8a.17.17 0 0 0 .01.16c.03.06.09.09.15.09h1.66c.07 0 .12-.03.15-.09a.17.17 0 0 0 .01-.17l-.86-1.8a.14.14 0 0 0-.13-.07zm2.78-.38a1.9 1.9 0 1 1 0-3.81 1.9 1.9 0 0 1 0 3.81zm0-3.5a1.6 1.6 0 1 0 0 3.2 1.6 1.6 0 0 0 0-3.2zM9 12.2a1.9 1.9 0 1 1 0-3.81 1.9 1.9 0 0 1 0 3.81zm0-3.5a1.6 1.6 0 1 0 0 3.2 1.6 1.6 0 0 0 0-3.2z" fill="#fff"/></svg>