<svg xmlns="http://www.w3.org/2000/svg" width="24" height="24"><defs><linearGradient id="d"><stop offset="0"/><stop offset="1" stop-opacity="0"/></linearGradient><linearGradient id="c"><stop offset="0" stop-color="#333"/><stop offset="1" stop-color="#666"/></linearGradient><linearGradient id="a"><stop offset="0" stop-color="#241c1c"/><stop offset="1" stop-color="#e6e6e6" stop-opacity="0"/></linearGradient><linearGradient id="b"><stop offset="0" stop-color="#666"/><stop offset="1" stop-color="#e6e6e6"/></linearGradient></defs><path d="M12 .947A3.512 3.512 0 0 0 8.486 4.46v7.03A3.518 3.518 0 0 0 12 15.004a3.508 3.508 0 0 0 3.502-3.514l.012-7.03A3.508 3.508 0 0 0 12 .947zM5.156 9.983c0 4.001 2.66 7.304 5.866 7.872v3.376a4.944.92 0 0 0-3.965.903 4.944.92 0 0 0 4.943.919 4.944.92 0 0 0 4.943-.92 4.944.92 0 0 0-3.965-.904v-3.374c3.207-.569 5.866-3.872 5.866-7.872h-1.662c0 3.514-2.479 5.975-5.182 5.975-2.698 0-5.182-2.46-5.182-5.975z" fill="#e6e6e6"/></svg>
