<?xml version="1.0" encoding="UTF-8" standalone="no"?>
<svg
   xmlns:dc="http://purl.org/dc/elements/1.1/"
   xmlns:cc="http://creativecommons.org/ns#"
   xmlns:rdf="http://www.w3.org/1999/02/22-rdf-syntax-ns#"
   xmlns:svg="http://www.w3.org/2000/svg"
   xmlns="http://www.w3.org/2000/svg"
   xmlns:sodipodi="http://sodipodi.sourceforge.net/DTD/sodipodi-0.dtd"
   xmlns:inkscape="http://www.inkscape.org/namespaces/inkscape"
   width="24"
   height="24"
   version="1"
   id="svg8"
   sodipodi:docname="document-open-recent.svg"
   inkscape:version="0.92.4 (5da689c313, 2019-01-14)">
  <metadata
     id="metadata14">
    <rdf:RDF>
      <cc:Work
         rdf:about="">
        <dc:format>image/svg+xml</dc:format>
        <dc:type
           rdf:resource="http://purl.org/dc/dcmitype/StillImage" />
        <dc:title></dc:title>
      </cc:Work>
    </rdf:RDF>
  </metadata>
  <defs
     id="defs12" />
  <sodipodi:namedview
     pagecolor="#ffffff"
     bordercolor="#666666"
     borderopacity="1"
     objecttolerance="10"
     gridtolerance="10"
     guidetolerance="10"
     inkscape:pageopacity="0"
     inkscape:pageshadow="2"
     inkscape:window-width="1112"
     inkscape:window-height="480"
     id="namedview10"
     showgrid="false"
     inkscape:zoom="9.8333333"
     inkscape:cx="1.0677966"
     inkscape:cy="12"
     inkscape:window-x="0"
     inkscape:window-y="25"
     inkscape:window-maximized="0"
     inkscape:current-layer="svg8" />
  <g
     id="g6"
     style="fill:#1a1a1a">
    <path
       d="m 5.15,2.29 a 0.66,0.66 0 1 0 0,1.32 H 6.32 V 5.7 c 0,2.1 1.14,4.01 3.23,5.42 0.26,0.17 0.43,0.56 0.43,1 0,0.43 -0.17,0.8 -0.43,0.99 -2.09,1.4 -3.23,3.32 -3.23,5.42 v 2.08 H 5.15 a 0.66,0.66 0 0 0 0,1.32 H 18.7 a 0.66,0.66 0 0 0 0,-1.32 h -1.17 v -2.08 c 0,-2.1 -1.15,-4.02 -3.23,-5.42 -0.27,-0.18 -0.43,-0.56 -0.43,-1 0,-0.43 0.16,-0.82 0.43,-1 2.08,-1.4 3.23,-3.32 3.23,-5.41 V 3.6 h 1.17 a 0.66,0.66 0 0 0 0,-1.32 z M 7.64,3.6 h 8.58 v 2.1 c 0,2.2 -1.66,3.66 -2.65,4.32 -0.64,0.43 -1.01,1.2 -1.01,2.1 0,0.9 0.37,1.66 1,2.09 1,0.66 2.66,2.1 2.66,4.32 v 2.08 H 16 c -0.55,-2.04 -3.32,-4.26 -3.67,-4.53 a 0.66,0.66 0 0 0 -0.8,0 C 11.17,16.35 8.4,18.57 7.86,20.61 H 7.64 v -2.08 c 0,-2.21 1.66,-3.66 2.65,-4.32 a 2.48,2.48 0 0 0 1,-2.1 c 0,-0.88 -0.37,-1.66 -1,-2.1 C 9.29,9.36 7.64,7.91 7.64,5.7 Z"
       id="path2"
       inkscape:connector-curvature="0" />
    <path
       d="m 11.93,14.92 a 0.66,0.66 0 0 0 0.46,-1.12 0.67,0.67 0 0 0 -0.46,-0.2 0.67,0.67 0 0 0 -0.47,0.2 0.67,0.67 0 0 0 -0.2,0.46 0.67,0.67 0 0 0 0.67,0.66 z m 0,-3.5 a 0.66,0.66 0 0 0 0.66,-0.66 V 9.59 a 0.66,0.66 0 0 0 -1.32,0 v 1.17 c 0,0.36 0.3,0.66 0.66,0.66 z"
       id="path4"
       inkscape:connector-curvature="0" />
  </g>
</svg>
