<svg xmlns="http://www.w3.org/2000/svg" width="48" height="48" version="1"><defs><linearGradient id="c"><stop offset="0"/><stop offset="1" stop-color="#020000" stop-opacity="0"/></linearGradient><linearGradient id="a"><stop offset="0" stop-color="#37a8f3"/><stop offset="1" stop-color="#366c99"/></linearGradient><linearGradient id="b"><stop stop-color="#ffe253" offset="0"/><stop stop-color="#ffca1c" offset="1"/></linearGradient></defs><path d="M33.06 47.97H14.94L7.11 17.42 13.01.03H35l5.9 17.39z" fill="#c87137"/><path d="M18.28 43.82l-3.34 4.15h18.12l-3.34-4.15z" fill="#d38d5f"/><path d="M23.13 9.97L18.8 24.71l-2.6-8.67H11v1.73h3.47l4.33 13 4.33-14.73 2.6 8.67 3.47-8.67 2.6 8.67H37v-1.74h-3.47L29.2 10.84l-3.47 8.67z" fill="#502d16"/><path d="M7.11 17.42L13.01.03l3.09 4.15-4.55 13.4zm29.34.16L31.9 4.18 34.99.03l5.9 17.39z" fill="#784421"/><path d="M29.72 43.82l3.34 4.15 7.83-30.55-4.44.16zm-22.6-26.4l7.82 30.55 3.34-4.15-6.73-26.24zM13.01.03l3.08 4.15h15.8l3.1-4.15z" fill="#a05a2c"/><path d="M29.45 25.8c0 1.41-1.47 2.13-2.72 2.48a8.34 8.34 0 0 1-4.92 0c-1.3-.37-2.48-1.15-2.48-2.47l-.01-4.78a2.48 2.48 0 0 1 2.5-2.58l4.37.01c1.68 0 3.3-1.7 3.3-3.38v-1.67h2.17c1.44 0 2.11 1.07 2.47 2.48.5 1.96.51 3.43 0 4.96-.5 1.49-1.03 2.66-2.47 2.66h-7.39v-.02l5.18.02z" fill="none"/><path d="M21.26 7.77a8.33 8.33 0 0 1 4.93 0c1.3.38 2.47 1.16 2.46 2.48v5.02c0 .7-1.01 2.34-2.46 2.34H21.6c-1.29 0-3.1 1.4-3.1 3.09v1.95h-2.16c-1.44 0-2.11-1.06-2.47-2.48a8.28 8.28 0 0 1 0-4.96c.5-1.48 1.03-2.65 2.47-2.65h7.39v.01l-5.18-.02.01-2.51c-.01-1.03 1.25-1.84 2.7-2.27z" fill="none"/></svg>