<?xml version="1.0" encoding="UTF-8" standalone="no"?>
<!-- Created with Inkscape (http://www.inkscape.org/) -->

<svg
   xmlns:dc="http://purl.org/dc/elements/1.1/"
   xmlns:cc="http://creativecommons.org/ns#"
   xmlns:rdf="http://www.w3.org/1999/02/22-rdf-syntax-ns#"
   xmlns:svg="http://www.w3.org/2000/svg"
   xmlns="http://www.w3.org/2000/svg"
   xmlns:xlink="http://www.w3.org/1999/xlink"
   xmlns:sodipodi="http://sodipodi.sourceforge.net/DTD/sodipodi-0.dtd"
   xmlns:inkscape="http://www.inkscape.org/namespaces/inkscape"
   id="svg2677"
   width="48"
   height="48"
   version="1.0"
   sodipodi:docname="application-x-theme.svg"
   inkscape:version="0.92.3 (2405546, 2018-03-11)">
  <metadata
     id="metadata71">
    <rdf:RDF>
      <cc:Work
         rdf:about="">
        <dc:format>image/svg+xml</dc:format>
        <dc:type
           rdf:resource="http://purl.org/dc/dcmitype/StillImage" />
        <dc:title />
      </cc:Work>
    </rdf:RDF>
  </metadata>
  <sodipodi:namedview
     pagecolor="#ffffff"
     bordercolor="#666666"
     borderopacity="1"
     objecttolerance="10"
     gridtolerance="10"
     guidetolerance="10"
     inkscape:pageopacity="0"
     inkscape:pageshadow="2"
     inkscape:window-width="1366"
     inkscape:window-height="690"
     id="namedview69"
     showgrid="false"
     inkscape:zoom="6.9532167"
     inkscape:cx="23.275181"
     inkscape:cy="26.89766"
     inkscape:window-x="0"
     inkscape:window-y="28"
     inkscape:window-maximized="1"
     inkscape:current-layer="svg2677" />
  <defs
     id="defs2679">
    <linearGradient
       id="linearGradient2642"
       x1="302.86"
       x2="302.86"
       y1="366.65"
       y2="609.51"
       gradientTransform="matrix(.067325 0 0 .0147 -.34114 37.04)"
       gradientUnits="userSpaceOnUse">
      <stop
         id="stop5050"
         style="stop-opacity:0"
         offset="0" />
      <stop
         id="stop5056"
         offset=".5" />
      <stop
         id="stop5052"
         style="stop-opacity:0"
         offset="1" />
    </linearGradient>
    <radialGradient
       id="radialGradient2639"
       cx="605.71"
       cy="486.65"
       r="117.14"
       gradientTransform="matrix(-.02304 0 0 .0147 21.623 37.04)"
       gradientUnits="userSpaceOnUse"
       xlink:href="#linearGradient5060" />
    <linearGradient
       id="linearGradient5060">
      <stop
         id="stop5062"
         offset="0" />
      <stop
         id="stop5064"
         style="stop-opacity:0"
         offset="1" />
    </linearGradient>
    <radialGradient
       id="radialGradient2636"
       cx="605.71"
       cy="486.65"
       r="117.14"
       gradientTransform="matrix(.02304 0 0 .0147 26.361 37.04)"
       gradientUnits="userSpaceOnUse"
       xlink:href="#linearGradient5060" />
    <linearGradient
       id="linearGradient2633"
       x1="-51.786"
       x2="-51.786"
       y1="50.786"
       y2="2.9062"
       gradientTransform="matrix(.8075 0 0 .89483 59.41 -2.9806)"
       gradientUnits="userSpaceOnUse">
      <stop
         id="stop3106"
         style="stop-color:#aaa"
         offset="0" />
      <stop
         id="stop3108"
         style="stop-color:#c8c8c8"
         offset="1" />
    </linearGradient>
    <linearGradient
       id="linearGradient2631"
       x1="25.132"
       x2="25.132"
       y1=".98521"
       y2="47.013"
       gradientTransform="matrix(1 0 0 .95617 -1.0065e-7 -1.9149)"
       gradientUnits="userSpaceOnUse">
      <stop
         id="stop3602"
         style="stop-color:#f4f4f4"
         offset="0" />
      <stop
         id="stop3604"
         style="stop-color:#dbdbdb"
         offset="1" />
    </linearGradient>
    <radialGradient
       id="radialGradient2628"
       cx="102"
       cy="112.3"
       r="139.56"
       gradientTransform="matrix(.3617 0 0 -.39078 .85106 47.517)"
       gradientUnits="userSpaceOnUse">
      <stop
         id="stop41"
         style="stop-color:#b7b8b9"
         offset="0" />
      <stop
         id="stop47"
         style="stop-color:#ececec"
         offset=".18851" />
      <stop
         id="stop49"
         style="stop-color:#fafafa;stop-opacity:0"
         offset=".25718" />
      <stop
         id="stop51"
         style="stop-color:#fff;stop-opacity:0"
         offset=".30111" />
      <stop
         id="stop53"
         style="stop-color:#fafafa;stop-opacity:0"
         offset=".5313" />
      <stop
         id="stop55"
         style="stop-color:#ebecec;stop-opacity:0"
         offset=".8449" />
      <stop
         id="stop57"
         style="stop-color:#e1e2e3;stop-opacity:0"
         offset="1" />
    </radialGradient>
    <linearGradient
       id="linearGradient2625"
       x1="24"
       x2="24"
       y1="2"
       y2="46.017"
       gradientTransform="matrix(1 0 0 .97778 0 -.96667)"
       gradientUnits="userSpaceOnUse">
      <stop
         id="stop3213"
         style="stop-color:#fff"
         offset="0" />
      <stop
         id="stop3215"
         style="stop-color:#fff;stop-opacity:0"
         offset="1" />
    </linearGradient>
    <filter
       id="filter3212"
       x="-.14846"
       y="-.16434"
       width="1.2969"
       height="1.3287"
       color-interpolation-filters="sRGB">
      <feGaussianBlur
         id="feGaussianBlur3214"
         stdDeviation="0.77391625" />
    </filter>
    <linearGradient
       id="linearGradient2621"
       x1="32.892"
       x2="36.358"
       y1="8.059"
       y2="5.4565"
       gradientTransform="matrix(.9977 0 0 1.0407 .1638 -1.1058)"
       gradientUnits="userSpaceOnUse">
      <stop
         id="stop8591"
         style="stop-color:#fefefe"
         offset="0" />
      <stop
         id="stop8593"
         style="stop-color:#cbcbcb"
         offset="1" />
    </linearGradient>
    <radialGradient
       id="radialGradient2675"
       cx="22.902"
       cy="45.867"
       r="7.9059"
       gradientTransform="matrix(.69765 0 0 .29961 12.507 18.89)"
       gradientUnits="userSpaceOnUse">
      <stop
         id="stop3197"
         offset="0" />
      <stop
         id="stop3199"
         style="stop-opacity:0"
         offset="1" />
    </radialGradient>
    <radialGradient
       id="radialGradient2672"
       cx="22.902"
       cy="45.867"
       r="7.9059"
       gradientTransform="matrix(.75875 0 0 .32584 -.80598 19.479)"
       gradientUnits="userSpaceOnUse">
      <stop
         id="stop3203"
         offset="0" />
      <stop
         id="stop3205"
         style="stop-opacity:0"
         offset="1" />
    </radialGradient>
    <radialGradient
       id="radialGradient2668"
       cx="17.059"
       cy="41.059"
       r="5.7385"
       fx="14.638"
       fy="38.175"
       gradientTransform="matrix(.66498 0 -.10886 .63739 9.9382 5.2626)"
       gradientUnits="userSpaceOnUse">
      <stop
         id="stop3877"
         style="stop-color:#aaa"
         offset="0" />
      <stop
         id="stop3879"
         style="stop-color:#4d4d4d"
         offset="1" />
    </radialGradient>
    <radialGradient
       id="radialGradient2665"
       cx="17.059"
       cy="41.059"
       r="5.7385"
       fx="14.109"
       fy="38.981"
       gradientTransform="matrix(.66333 0 -.10859 .6358 21.997 3.4975)"
       gradientUnits="userSpaceOnUse">
      <stop
         id="stop3871"
         style="stop-color:#aaa"
         offset="0" />
      <stop
         id="stop3873"
         style="stop-color:#4d4d4d"
         offset="1" />
    </radialGradient>
    <linearGradient
       id="linearGradient2662"
       x1="28.739"
       x2="25.4"
       y1="144.12"
       y2="119.86"
       gradientTransform="matrix(.22147 0 0 .22311 14.032 -16.079)"
       gradientUnits="userSpaceOnUse">
      <stop
         id="stop3239"
         style="stop-color:#fff"
         offset="0" />
      <stop
         id="stop3241"
         style="stop-color:#fff;stop-opacity:.37931"
         offset="1" />
    </linearGradient>
    <linearGradient
       id="linearGradient2659"
       x1="28.739"
       x2="26.257"
       y1="144.12"
       y2="125.39"
       gradientTransform="matrix(.44563 0 0 .22311 20.716 -17.657)"
       gradientUnits="userSpaceOnUse">
      <stop
         id="stop3245"
         style="stop-color:#fff"
         offset="0" />
      <stop
         id="stop3247"
         style="stop-color:#fff;stop-opacity:.37931"
         offset="1" />
    </linearGradient>
    <linearGradient
       id="linearGradient2460"
       x1="24.239"
       x2="24.239"
       y1="44.110001"
       y2="0.19080999"
       gradientTransform="matrix(1.0454,0,0,1.01,2.8837374,-4.6883928)"
       gradientUnits="userSpaceOnUse">
      <stop
         id="stop4108"
         style="stop-color:#355129"
         offset="0" />
      <stop
         id="stop4110"
         style="stop-color:#7c8763"
         offset="1" />
    </linearGradient>
  </defs>
  <path
     style="fill:#6c535d;fill-opacity:1;stroke:none;stroke-width:1.09278476px;stroke-linecap:butt;stroke-linejoin:miter;stroke-opacity:1"
     d="M 14.972656 0.24414062 L 6.3242188 14.355469 L 14.544922 47.671875 L 32.884766 47.671875 L 41.105469 14.355469 L 32.457031 0.24414062 L 14.972656 0.24414062 z M 31.150391 7.7382812 C 31.625524 7.7027957 32.003456 8.1229306 31.84375 8.7128906 L 31.417969 9.9765625 L 30.898438 11.279297 L 30.285156 12.744141 L 29.494141 14.8125 L 28.863281 16.34375 L 28.160156 18.076172 L 28.103516 18.166016 L 28.152344 18.185547 L 28.572266 18.455078 L 29.259766 18.75 L 30.443359 19.289062 L 30.619141 19.615234 L 30.595703 19.927734 L 30.353516 21.382812 L 30.060547 23.183594 L 30.039062 23.271484 L 29.964844 23.271484 L 29.691406 24.003906 L 29.132812 25.386719 L 28.396484 27.089844 L 27.933594 27.949219 L 27.308594 28.886719 L 26.509766 29.826172 C 25.749733 30.61644 24.9013 31.354536 23.617188 31.384766 L 22.400391 31.369141 L 22.625 31.019531 L 21.953125 31.353516 L 21.361328 31.449219 L 20.240234 31.449219 C 20.205256 31.104773 20.777344 30.126953 20.777344 30.126953 C 20.777344 30.126953 19.715102 31.416992 18.537109 30.763672 L 17.626953 30.240234 L 16.955078 29.714844 L 16.970703 29.523438 L 18.089844 28.759766 L 16.203125 28.777344 L 15.787109 28.632812 L 15.324219 28.171875 L 14.300781 27.105469 L 13.773438 26.326172 L 13.230469 25.277344 L 12.974609 24.640625 L 12.910156 24.257812 L 12.957031 24.115234 L 14.060547 23.859375 L 15.820312 23.208984 L 17.339844 22.412109 L 18.603516 21.570312 L 19.738281 20.470703 L 21.208984 18.800781 L 21.261719 18.835938 L 21.228516 18.742188 L 22.572266 16.976562 L 23.035156 16.373047 L 23.322266 16.292969 L 23.658203 16.292969 L 25.035156 16.882812 L 25.990234 17.28125 L 26.849609 15.263672 L 28.09375 12.810547 L 29.111328 10.560547 L 30.285156 8.3554688 C 30.544113 7.9437787 30.865311 7.7595726 31.150391 7.7382812 z "
     id="path897" />
  <path
     inkscape:connector-curvature="0"
     style="opacity:0.2;stroke-width:0.59284973"
     d="m 31.824554,8.769241 -0.407287,1.206567 -0.518744,1.303796 -0.612413,1.464635 -0.790862,2.069045 -0.63257,1.530146 -0.702527,1.731713 -0.05573,0.09071 0.04743,0.02075 0.161848,0.103156 0.548979,-1.353476 0.63257,-1.530145 0.790862,-2.069045 0.612413,-1.464636 0.518744,-1.303795 0.427445,-1.263303 c 0.05513,-0.205126 0.03616,-0.383574 -0.02016,-0.535877 z m -10.410441,10.322699 -0.185561,0.243069 0.06403,0.17489 0.14347,0.207498 0.991245,0.588107 1.246763,0.764183 c 1.504653,0.911802 2.379699,2.104023 4.002921,2.561111 l 2.021618,0.23299 h 0.339703 l 0.02312,-0.08774 0.292868,-1.800485 0.241883,-1.456038 0.02312,-0.310061 -0.05335,-0.0996 -0.211648,1.272849 -0.292868,1.800484 -0.02312,0.08774 h -0.339704 l -2.021617,-0.23299 C 26.053763,22.58086 25.178718,21.388639 23.674065,20.476836 l -1.246763,-0.764183 -0.991245,-0.588107 z"
     id="path8" />
  <path
     inkscape:connector-curvature="0"
     style="opacity:0.2;stroke-width:0.59284973"
     d="m 29.744245,23.863788 -0.05217,0.139912 -0.559651,1.383711 -0.736318,1.702072 -0.463016,0.859632 -0.624271,0.937888 -0.799162,0.939074 c -0.760033,0.790269 -1.608994,1.528366 -2.893106,1.558602 l -1.217121,-0.01541 0.22469,-0.349781 -0.671698,0.33496 -0.591664,0.09486 h -0.94856 c -0.0996,0.230026 -0.184969,0.459459 -0.171334,0.59285 h 1.119892 l 0.591664,-0.09486 0.671698,-0.33496 -0.22469,0.349781 1.217121,0.01541 c 1.284112,-0.03023 2.133073,-0.768333 2.893106,-1.558602 l 0.799162,-0.939074 0.624271,-0.937888 0.463016,-0.859632 0.736318,-1.702072 0.559651,-1.383711 0.272118,-0.732762 z m -16.746819,0.834732 -0.03936,0.0095 -0.04749,0.142284 0.06367,0.382387 0.255933,0.636721 0.54305,1.049937 0.52817,0.778412 1.023259,1.066537 0.463608,0.460643 0.415588,0.144656 1.00488,-0.0089 0.880975,-0.601149 -1.885855,0.01719 -0.415588,-0.144651 -0.463608,-0.460644 -1.023258,-1.066537 -0.527874,-0.778411 -0.543051,-1.049938 -0.232752,-0.578028 z m 4.239171,5.236049 -0.265003,0.180819 -0.0166,0.192083 0.671699,0.524672 0.91121,0.524672 c 0.692449,0.383574 1.338062,0.09486 1.7578,-0.207497 0.135169,-0.425666 0.481987,-1.023259 0.481987,-1.023259 0,0 -1.061794,1.291227 -2.239787,0.637907 l -0.91121,-0.524673 z"
     id="path12" />
</svg>
