<?xml version="1.0" encoding="UTF-8" standalone="no"?>
<!-- Created with Inkscape (http://www.inkscape.org/) -->

<svg
   xmlns:dc="http://purl.org/dc/elements/1.1/"
   xmlns:cc="http://creativecommons.org/ns#"
   xmlns:rdf="http://www.w3.org/1999/02/22-rdf-syntax-ns#"
   xmlns:svg="http://www.w3.org/2000/svg"
   xmlns="http://www.w3.org/2000/svg"
   xmlns:xlink="http://www.w3.org/1999/xlink"
   xmlns:sodipodi="http://sodipodi.sourceforge.net/DTD/sodipodi-0.dtd"
   xmlns:inkscape="http://www.inkscape.org/namespaces/inkscape"
   id="svg2677"
   width="48"
   height="48"
   version="1.0"
   sodipodi:docname="authors.svg"
   inkscape:version="0.92.3 (2405546, 2018-03-11)">
  <metadata
     id="metadata71">
    <rdf:RDF>
      <cc:Work
         rdf:about="">
        <dc:format>image/svg+xml</dc:format>
        <dc:type
           rdf:resource="http://purl.org/dc/dcmitype/StillImage" />
        <dc:title />
      </cc:Work>
    </rdf:RDF>
  </metadata>
  <sodipodi:namedview
     pagecolor="#ffffff"
     bordercolor="#666666"
     borderopacity="1"
     objecttolerance="10"
     gridtolerance="10"
     guidetolerance="10"
     inkscape:pageopacity="0"
     inkscape:pageshadow="2"
     inkscape:window-width="1366"
     inkscape:window-height="690"
     id="namedview69"
     showgrid="false"
     inkscape:zoom="6.9532167"
     inkscape:cx="12.54587"
     inkscape:cy="20.804546"
     inkscape:window-x="0"
     inkscape:window-y="28"
     inkscape:window-maximized="1"
     inkscape:current-layer="svg2677"
     showguides="true"
     inkscape:guide-bbox="true" />
  <defs
     id="defs2679">
    <linearGradient
       id="linearGradient2642"
       x1="302.86"
       x2="302.86"
       y1="366.65"
       y2="609.51"
       gradientTransform="matrix(.067325 0 0 .0147 -.34114 37.04)"
       gradientUnits="userSpaceOnUse">
      <stop
         id="stop5050"
         style="stop-opacity:0"
         offset="0" />
      <stop
         id="stop5056"
         offset=".5" />
      <stop
         id="stop5052"
         style="stop-opacity:0"
         offset="1" />
    </linearGradient>
    <radialGradient
       id="radialGradient2639"
       cx="605.71"
       cy="486.65"
       r="117.14"
       gradientTransform="matrix(-.02304 0 0 .0147 21.623 37.04)"
       gradientUnits="userSpaceOnUse"
       xlink:href="#linearGradient5060" />
    <linearGradient
       id="linearGradient5060">
      <stop
         id="stop5062"
         offset="0" />
      <stop
         id="stop5064"
         style="stop-opacity:0"
         offset="1" />
    </linearGradient>
    <radialGradient
       id="radialGradient2636"
       cx="605.71"
       cy="486.65"
       r="117.14"
       gradientTransform="matrix(.02304 0 0 .0147 26.361 37.04)"
       gradientUnits="userSpaceOnUse"
       xlink:href="#linearGradient5060" />
    <linearGradient
       id="linearGradient2633"
       x1="-51.786"
       x2="-51.786"
       y1="50.786"
       y2="2.9062"
       gradientTransform="matrix(.8075 0 0 .89483 59.41 -2.9806)"
       gradientUnits="userSpaceOnUse">
      <stop
         id="stop3106"
         style="stop-color:#aaa"
         offset="0" />
      <stop
         id="stop3108"
         style="stop-color:#c8c8c8"
         offset="1" />
    </linearGradient>
    <linearGradient
       id="linearGradient2631"
       x1="25.132"
       x2="25.132"
       y1=".98521"
       y2="47.013"
       gradientTransform="matrix(1 0 0 .95617 -1.0065e-7 -1.9149)"
       gradientUnits="userSpaceOnUse">
      <stop
         id="stop3602"
         style="stop-color:#f4f4f4"
         offset="0" />
      <stop
         id="stop3604"
         style="stop-color:#dbdbdb"
         offset="1" />
    </linearGradient>
    <radialGradient
       id="radialGradient2628"
       cx="102"
       cy="112.3"
       r="139.56"
       gradientTransform="matrix(.3617 0 0 -.39078 .85106 47.517)"
       gradientUnits="userSpaceOnUse">
      <stop
         id="stop41"
         style="stop-color:#b7b8b9"
         offset="0" />
      <stop
         id="stop47"
         style="stop-color:#ececec"
         offset=".18851" />
      <stop
         id="stop49"
         style="stop-color:#fafafa;stop-opacity:0"
         offset=".25718" />
      <stop
         id="stop51"
         style="stop-color:#fff;stop-opacity:0"
         offset=".30111" />
      <stop
         id="stop53"
         style="stop-color:#fafafa;stop-opacity:0"
         offset=".5313" />
      <stop
         id="stop55"
         style="stop-color:#ebecec;stop-opacity:0"
         offset=".8449" />
      <stop
         id="stop57"
         style="stop-color:#e1e2e3;stop-opacity:0"
         offset="1" />
    </radialGradient>
    <linearGradient
       id="linearGradient2625"
       x1="24"
       x2="24"
       y1="2"
       y2="46.017"
       gradientTransform="matrix(1 0 0 .97778 0 -.96667)"
       gradientUnits="userSpaceOnUse">
      <stop
         id="stop3213"
         style="stop-color:#fff"
         offset="0" />
      <stop
         id="stop3215"
         style="stop-color:#fff;stop-opacity:0"
         offset="1" />
    </linearGradient>
    <filter
       id="filter3212"
       x="-.14846"
       y="-.16434"
       width="1.2969"
       height="1.3287"
       color-interpolation-filters="sRGB">
      <feGaussianBlur
         id="feGaussianBlur3214"
         stdDeviation="0.77391625" />
    </filter>
    <linearGradient
       id="linearGradient2621"
       x1="32.892"
       x2="36.358"
       y1="8.059"
       y2="5.4565"
       gradientTransform="matrix(.9977 0 0 1.0407 .1638 -1.1058)"
       gradientUnits="userSpaceOnUse">
      <stop
         id="stop8591"
         style="stop-color:#fefefe"
         offset="0" />
      <stop
         id="stop8593"
         style="stop-color:#cbcbcb"
         offset="1" />
    </linearGradient>
    <radialGradient
       id="radialGradient2675"
       cx="22.902"
       cy="45.867"
       r="7.9059"
       gradientTransform="matrix(.69765 0 0 .29961 12.507 18.89)"
       gradientUnits="userSpaceOnUse">
      <stop
         id="stop3197"
         offset="0" />
      <stop
         id="stop3199"
         style="stop-opacity:0"
         offset="1" />
    </radialGradient>
    <radialGradient
       id="radialGradient2672"
       cx="22.902"
       cy="45.867"
       r="7.9059"
       gradientTransform="matrix(.75875 0 0 .32584 -.80598 19.479)"
       gradientUnits="userSpaceOnUse">
      <stop
         id="stop3203"
         offset="0" />
      <stop
         id="stop3205"
         style="stop-opacity:0"
         offset="1" />
    </radialGradient>
    <radialGradient
       id="radialGradient2668"
       cx="17.059"
       cy="41.059"
       r="5.7385"
       fx="14.638"
       fy="38.175"
       gradientTransform="matrix(.66498 0 -.10886 .63739 9.9382 5.2626)"
       gradientUnits="userSpaceOnUse">
      <stop
         id="stop3877"
         style="stop-color:#aaa"
         offset="0" />
      <stop
         id="stop3879"
         style="stop-color:#4d4d4d"
         offset="1" />
    </radialGradient>
    <radialGradient
       id="radialGradient2665"
       cx="17.059"
       cy="41.059"
       r="5.7385"
       fx="14.109"
       fy="38.981"
       gradientTransform="matrix(.66333 0 -.10859 .6358 21.997 3.4975)"
       gradientUnits="userSpaceOnUse">
      <stop
         id="stop3871"
         style="stop-color:#aaa"
         offset="0" />
      <stop
         id="stop3873"
         style="stop-color:#4d4d4d"
         offset="1" />
    </radialGradient>
    <linearGradient
       id="linearGradient2662"
       x1="28.739"
       x2="25.4"
       y1="144.12"
       y2="119.86"
       gradientTransform="matrix(.22147 0 0 .22311 14.032 -16.079)"
       gradientUnits="userSpaceOnUse">
      <stop
         id="stop3239"
         style="stop-color:#fff"
         offset="0" />
      <stop
         id="stop3241"
         style="stop-color:#fff;stop-opacity:.37931"
         offset="1" />
    </linearGradient>
    <linearGradient
       id="linearGradient2659"
       x1="28.739"
       x2="26.257"
       y1="144.12"
       y2="125.39"
       gradientTransform="matrix(.44563 0 0 .22311 20.716 -17.657)"
       gradientUnits="userSpaceOnUse">
      <stop
         id="stop3245"
         style="stop-color:#fff"
         offset="0" />
      <stop
         id="stop3247"
         style="stop-color:#fff;stop-opacity:.37931"
         offset="1" />
    </linearGradient>
    <radialGradient
       id="radialGradient2965"
       cx="102"
       cy="112.3"
       r="139.56"
       gradientTransform="matrix(0.36171,0,0,-0.39078,0.82753,49.649671)"
       gradientUnits="userSpaceOnUse">
      <stop
         id="stop41-3"
         style="stop-color:#b7b8b9"
         offset="0" />
      <stop
         id="stop47-6"
         style="stop-color:#ececec"
         offset=".18851" />
      <stop
         id="stop49-7"
         style="stop-color:#fafafa;stop-opacity:0"
         offset=".25718" />
      <stop
         id="stop51-5"
         style="stop-color:#fff;stop-opacity:0"
         offset=".30111" />
      <stop
         id="stop53-3"
         style="stop-color:#fafafa;stop-opacity:0"
         offset=".5313" />
      <stop
         id="stop55-5"
         style="stop-color:#ebecec;stop-opacity:0"
         offset=".8449" />
      <stop
         id="stop57-6"
         style="stop-color:#e1e2e3;stop-opacity:0"
         offset="1" />
    </radialGradient>
    <filter
       style="color-interpolation-filters:sRGB"
       id="filter3248"
       x="-0.14846"
       y="-0.16434"
       width="1.2969"
       height="1.3286999">
      <feGaussianBlur
         id="feGaussianBlur3250"
         stdDeviation="0.77391625" />
    </filter>
    <linearGradient
       id="linearGradient2633-2"
       x1="32.891998"
       x2="36.358002"
       y1="8.059"
       y2="5.4565001"
       gradientTransform="matrix(0.99771,0,0,1.0407,0.14026,1.026871)"
       gradientUnits="userSpaceOnUse">
      <stop
         id="stop8591-1"
         style="stop-color:#fefefe"
         offset="0" />
      <stop
         id="stop8593-2"
         style="stop-color:#cbcbcb"
         offset="1" />
    </linearGradient>
    <radialGradient
       id="radialGradient7057"
       cx="416.79999"
       cy="399.14001"
       r="20.131001"
       gradientTransform="matrix(-0.35504,-0.061138,0.026988,-0.15672,165.99761,119.16179)"
       gradientUnits="userSpaceOnUse">
      <stop
         id="stop9170"
         style="stop-color:#8ae234"
         offset="0" />
      <stop
         id="stop9166"
         style="stop-color:#4db07d;stop-opacity:.88235"
         offset="1" />
    </radialGradient>
    <radialGradient
       id="radialGradient7065"
       cx="416.64999"
       cy="392.07999"
       r="27.077"
       gradientTransform="matrix(0.26197,-0.28561,0.29579,0.27131,-198.31239,41.858785)"
       gradientUnits="userSpaceOnUse">
      <stop
         id="stop7210"
         style="stop-color:#fce94f"
         offset="0" />
      <stop
         id="stop8189"
         style="stop-color:#66d09a"
         offset=".5" />
      <stop
         id="stop8187"
         style="stop-color:#66c6d0"
         offset="1" />
    </radialGradient>
    <linearGradient
       id="linearGradient7067"
       x1="32.027"
       x2="27.559999"
       y1="21.986"
       y2="15.299"
       gradientTransform="translate(-2.113014,2.1176552)"
       gradientUnits="userSpaceOnUse">
      <stop
         id="stop7607"
         style="stop-color:#bcae3e"
         offset="0" />
      <stop
         id="stop7609"
         style="stop-color:#3b9a6a"
         offset=".5" />
      <stop
         id="stop7611"
         style="stop-color:#3d8891"
         offset="1" />
    </linearGradient>
    <linearGradient
       id="linearGradient7060"
       x1="375.63"
       x2="393.42999"
       y1="311.79001"
       y2="374.92001"
       gradientTransform="matrix(0.22976,-0.038376,0.038376,0.22976,-84.799394,-47.706215)"
       gradientUnits="userSpaceOnUse">
      <stop
         id="stop7178"
         style="stop-color:#204a87"
         offset="0" />
      <stop
         id="stop7180"
         style="stop-color:#97bcd4"
         offset="1" />
    </linearGradient>
    <linearGradient
       id="linearGradient7062"
       x1="13.113"
       x2="20.403999"
       y1="7.2514"
       y2="21.767"
       gradientTransform="translate(-2.113014,2.1176552)"
       gradientUnits="userSpaceOnUse">
      <stop
         id="stop7615"
         style="stop-color:#304456"
         offset="0" />
      <stop
         id="stop7617"
         style="stop-color:#6394be"
         offset="1" />
    </linearGradient>
    <radialGradient
       id="radialGradient2882"
       cx="25"
       cy="28.66"
       r="16"
       gradientTransform="matrix(0.66118252,0,0,0.18803779,7.89658,17.717344)"
       gradientUnits="userSpaceOnUse"
       xlink:href="#linearGradient6954" />
    <linearGradient
       id="linearGradient6954">
      <stop
         id="stop6960"
         style="stop-color:#f5f5f5"
         offset="0" />
      <stop
         id="stop6962"
         style="stop-color:#d2d2d2"
         offset="1" />
    </linearGradient>
    <linearGradient
       id="linearGradient2884"
       x1="30"
       x2="30"
       y1="25.084999"
       y2="45"
       gradientUnits="userSpaceOnUse"
       xlink:href="#linearGradient3785"
       gradientTransform="matrix(0.50375811,0,0,0.50375811,11.832189,7.4900472)" />
    <linearGradient
       id="linearGradient3785">
      <stop
         id="stop3787"
         style="stop-color:#bdbdbd"
         offset="0" />
      <stop
         id="stop3789"
         style="stop-color:#8c8c8c"
         offset="1" />
    </linearGradient>
    <linearGradient
       id="linearGradient2886"
       x1="24.787001"
       x2="24.875"
       y1="53.868999"
       y2="83.5"
       gradientUnits="userSpaceOnUse"
       xlink:href="#linearGradient3341"
       gradientTransform="matrix(0.50375811,0,0,0.50375811,-26.089809,-12.408398)" />
    <linearGradient
       id="linearGradient3341">
      <stop
         id="stop3343"
         style="stop-color:#fff"
         offset="0" />
      <stop
         id="stop3345"
         style="stop-color:#fff;stop-opacity:0"
         offset="1" />
    </linearGradient>
    <radialGradient
       id="radialGradient2888"
       cx="26.375999"
       cy="12.313"
       r="8"
       gradientTransform="matrix(0.82626405,-0.06678825,0.06453645,0.79840623,2.565056,4.8567018)"
       gradientUnits="userSpaceOnUse"
       xlink:href="#linearGradient6954" />
    <linearGradient
       id="linearGradient2890"
       x1="30"
       x2="30"
       y1="5"
       y2="44.679001"
       gradientUnits="userSpaceOnUse"
       xlink:href="#linearGradient3785"
       gradientTransform="matrix(0.50375811,0,0,0.50375811,11.832189,7.4900472)" />
    <linearGradient
       id="linearGradient2892"
       x1="22"
       x2="17"
       y1="39"
       y2="37.438"
       gradientUnits="userSpaceOnUse"
       xlink:href="#linearGradient5060"
       gradientTransform="matrix(0.50375811,0,0,0.50375811,-28.167811,7.4900472)" />
    <linearGradient
       id="linearGradient2894"
       x1="38"
       x2="43"
       y1="39"
       y2="38.599998"
       gradientUnits="userSpaceOnUse"
       xlink:href="#linearGradient5060"
       gradientTransform="matrix(0.50375811,0,0,0.50375811,-28.167811,7.4900472)" />
    <radialGradient
       id="radialGradient2896"
       cx="30"
       cy="33.188"
       r="4.6875"
       gradientTransform="matrix(0.76974239,-3.5588999e-7,1.0734582e-7,0.232167,-36.146835,14.89781)"
       gradientUnits="userSpaceOnUse"
       xlink:href="#linearGradient5060" />
    <linearGradient
       id="linearGradient2898"
       x1="30"
       x2="30"
       y1="3.0411"
       y2="27.957001"
       gradientUnits="userSpaceOnUse"
       xlink:href="#linearGradient3341"
       gradientTransform="matrix(0.50602502,0,0,0.50547089,-28.23612,7.4641746)" />
    <radialGradient
       id="radialGradient2882-3"
       cx="25"
       cy="28.66"
       r="16"
       gradientTransform="matrix(0.46962245,0,0,0.13355884,3.646211,20.454809)"
       gradientUnits="userSpaceOnUse"
       xlink:href="#linearGradient6954" />
    <radialGradient
       id="radialGradient2888-2"
       cx="26.375999"
       cy="12.313"
       r="8"
       gradientTransform="matrix(0.58687599,-0.04743813,0.04583873,0.56708923,-0.140646,11.320196)"
       gradientUnits="userSpaceOnUse"
       xlink:href="#linearGradient6954" />
    <radialGradient
       id="radialGradient2896-2"
       cx="30"
       cy="33.188"
       r="4.6875"
       gradientTransform="matrix(0.54672998,-2.5278032e-7,7.6245217e-8,0.16490278,-19.225732,18.45216)"
       gradientUnits="userSpaceOnUse"
       xlink:href="#linearGradient5060" />
  </defs>
  <path
     style="fill:#782121;fill-opacity:1;stroke:none;stroke-width:1.09278476px;stroke-linecap:butt;stroke-linejoin:miter;stroke-opacity:1"
     d="M 14.972656 0.24414062 L 6.3242188 14.355469 L 14.544922 47.671875 L 32.884766 47.671875 L 41.105469 14.355469 L 32.457031 0.24414062 L 14.972656 0.24414062 z M 21.484375 7.609375 C 21.648662 7.5897624 21.809456 7.676076 21.882812 7.8261719 C 21.892492 7.848659 22.98256 10.075087 24.710938 10.376953 C 24.927486 10.415067 25.099386 10.520332 25.21875 10.667969 C 25.73843 10.416696 26.319643 10.259766 26.945312 10.259766 C 27.535424 10.259766 28.086392 10.397875 28.583984 10.623047 C 28.70051 10.502659 28.849334 10.410564 29.041016 10.376953 C 30.767611 10.075087 31.860045 7.848659 31.869141 7.8261719 C 31.941331 7.676076 32.101302 7.5897624 32.265625 7.609375 C 32.432786 7.629279 32.565479 7.7514859 32.599609 7.9140625 C 32.608109 7.9487395 32.774231 8.7693603 32.654297 9.7460938 C 32.489973 11.088407 31.864597 12.078684 30.841797 12.607422 C 30.739633 12.660633 30.63585 12.696085 30.53125 12.728516 C 30.645173 13.06454 30.722656 13.415916 30.722656 13.787109 C 30.69695 14.542747 30.698016 15.286536 30.21875 17.3125 C 30.095966 17.680853 29.554333 18.35003 29.03125 18.966797 C 28.962473 19.588991 28.946719 20.208686 29.023438 20.839844 C 29.778617 21.496523 31.158991 21.996976 32.314453 22.478516 C 33.035592 22.137168 33.574645 21.619592 33.912109 20.929688 C 34.06527 20.616473 34.132003 20.367994 34.169922 20.185547 L 33.439453 20.058594 C 33.312645 20.037016 33.205214 19.952448 33.152344 19.835938 C 33.099474 19.718845 33.108141 19.582945 33.175781 19.472656 L 34.824219 16.783203 C 34.9078 16.647295 35.065756 16.575926 35.222656 16.603516 C 35.377846 16.630516 35.502736 16.752139 35.535156 16.908203 L 36.175781 19.974609 C 36.185441 20.006443 36.189381 20.039539 36.189453 20.074219 C 36.189453 20.287447 36.01733 20.459991 35.804688 20.462891 L 35.800781 20.462891 C 35.779161 20.462891 35.758245 20.461031 35.734375 20.457031 L 34.935547 20.318359 C 34.89031 20.546745 34.80755 20.85236 34.625 21.234375 C 34.390167 21.72833 33.941584 22.36333 33.175781 22.869141 C 33.799999 23.180162 34.247978 23.498138 34.25 23.861328 L 34.753906 27.640625 C 34.753906 28.892615 31.257683 29.908203 26.945312 29.908203 C 24.137663 29.908203 21.696295 29.473883 20.320312 28.828125 C 19.426228 29.007308 18.344392 29.113281 17.175781 29.113281 C 14.112805 29.113281 11.628906 28.391212 11.628906 27.501953 L 11.988281 24.820312 C 11.984345 23.925793 14.647982 23.535944 15.689453 22.671875 C 15.778956 22.150043 15.7467 21.700011 15.679688 21.234375 C 15.300872 20.828343 14.929664 20.408132 14.849609 20.167969 C 14.547111 18.783396 14.503796 18.175977 14.492188 17.664062 C 14.492187 17.409973 14.545724 17.168589 14.621094 16.9375 C 14.515754 16.913611 14.411341 16.879344 14.308594 16.826172 C 13.58414 16.450621 13.139388 15.746382 13.021484 14.792969 C 12.937491 14.099218 13.056047 13.516818 13.060547 13.492188 C 13.084789 13.376713 13.181725 13.289531 13.298828 13.275391 C 13.415516 13.26146 13.527978 13.323078 13.580078 13.429688 C 13.586952 13.445657 14.362218 15.025826 15.589844 15.240234 C 15.743272 15.267239 15.864454 15.342824 15.949219 15.447266 C 16.318355 15.268768 16.73135 15.158203 17.175781 15.158203 C 17.594836 15.158203 17.986471 15.256144 18.339844 15.416016 C 18.422606 15.330523 18.527931 15.264105 18.664062 15.240234 C 19.890422 15.025826 20.667367 13.445657 20.673828 13.429688 C 20.725098 13.323078 20.838362 13.26146 20.955078 13.275391 C 21.073808 13.289531 21.167165 13.376713 21.191406 13.492188 C 21.197506 13.516818 21.315655 14.099218 21.230469 14.792969 C 21.113754 15.746382 20.66983 16.450621 19.943359 16.826172 C 19.871143 16.863785 19.796588 16.887161 19.722656 16.910156 C 19.803777 17.149098 19.859375 17.400067 19.859375 17.664062 C 19.841116 18.200774 19.842364 18.728974 19.501953 20.167969 C 19.41574 20.426609 19.035513 20.892323 18.667969 21.326172 C 18.617579 21.773189 18.597229 22.218467 18.652344 22.671875 C 18.95044 22.931089 19.391273 23.151939 19.861328 23.359375 C 20.675505 22.432627 23.596509 21.881115 24.851562 20.839844 C 24.977147 20.107651 24.954829 19.49096 24.861328 18.837891 C 24.319996 18.258813 23.78421 17.655363 23.669922 17.3125 C 23.244034 15.363158 23.182366 14.507836 23.166016 13.787109 C 23.166016 13.429388 23.24155 13.090966 23.347656 12.765625 C 23.19967 12.731976 23.052552 12.682122 22.908203 12.607422 C 21.888242 12.078684 21.261701 11.088407 21.095703 9.7460938 C 20.977445 8.7693603 21.144091 7.9487395 21.150391 7.9140625 C 21.184522 7.7514859 21.319507 7.629279 21.484375 7.609375 z M 26.007812 19.248047 C 25.901505 19.248047 25.803889 19.318762 25.748047 19.433594 C 25.692637 19.547303 25.687915 19.691162 25.734375 19.810547 L 26.650391 22.138672 C 26.701311 22.270574 26.808542 22.353516 26.923828 22.353516 C 27.040428 22.353516 27.143503 22.270571 27.195312 22.138672 L 28.111328 19.810547 C 28.159568 19.691162 28.153036 19.547303 28.097656 19.433594 C 28.041816 19.318757 27.942854 19.248047 27.837891 19.248047 L 26.007812 19.248047 z M 16.511719 21.542969 C 16.436219 21.542969 16.365835 21.592259 16.326172 21.673828 C 16.286822 21.754588 16.283376 21.85661 16.316406 21.941406 L 16.966797 23.595703 C 17.002967 23.689393 17.07827 23.748047 17.160156 23.748047 C 17.242966 23.748047 17.316717 23.689391 17.353516 23.595703 L 18.003906 21.941406 C 18.038166 21.856616 18.033471 21.754594 17.994141 21.673828 C 17.954481 21.592268 17.8851 21.542969 17.810547 21.542969 L 16.511719 21.542969 z "
     id="path897" />
  <flowRoot
     xml:space="preserve"
     style="font-size:4px;font-family:Arial;fill:#000000"
     transform="translate(-55.29246,22.562671)"
     id="flowRoot2445"><flowRegion
       id="flowRegion2447"><rect
         height="77.499001"
         width="63.762001"
         y="8.6025"
         x="-95.124001"
         id="rect2449" /></flowRegion><flowPara
       id="flowPara2451" /></flowRoot>  <flowRoot
     xml:space="preserve"
     style="font-size:4px;font-family:Arial;fill:#000000"
     transform="translate(-70.96246,6.382071)"
     id="flowRoot2945"><flowRegion
       id="flowRegion2947"><rect
         height="77.499001"
         width="63.762001"
         y="8.6025"
         x="-95.124001"
         id="rect2949" /></flowRegion><flowPara
       id="flowPara2951" /></flowRoot></svg>
