<svg xmlns="http://www.w3.org/2000/svg" width="24" height="24"><path d="M6.4 1.02c.49 2.16-1.75 2.81-2.56 4.15-.55.92.28 1.9 1.4 3.02-.45-1.1-1.93-2.05 0-3.72 2.38-2.08 1.15-3.44 1.15-3.44zM7.86 3.7S3.84 4.8 5.76 7.27c.57.72-.15 1.38-.15 1.38s1.44-.83.78-1.86c-.62-.97-1.1-1.44 1.48-3.1zm2.94 1.93l.22 1.51h.7l.22-1.5zm.57 2.12c-1.14 0-2.28.22-3.35.67h6.7a8.71 8.71 0 0 0-3.35-.68zM5 9.04l-.33.33 1.9 2.33-.42-2.66zm1.78 0l.85 5.26H9.5l-.28-5.26zm3.07 0l.28 5.26h2.5l.28-5.26zm3.68 0l-.28 5.26h1.9l.82-5.26zm3.07 0l-.2 1.24h1.8c.08 0 .16.03.21.08l.31.32c.08.07.1.17.09.28l-.93 4.33a.3.3 0 0 1-.3.26h-.62v.92h1.92l1.45-6.4-1.02-1.03zm-8.63 5.88v1.24h6.82v-1.24zm.62 1.86v.62h5.58v-.62zm-.97 1.24l-.83 4.96h2.44l.27-4.96zm2.5 0l-.27 4.96h3.06l-.28-4.96zm3.13 0l.28 4.96h2.44l-.82-4.96z" clip-rule="evenodd" fill="#1a1a1a" fill-rule="evenodd" stroke-width=".85"/></svg>