<?xml version="1.0" encoding="UTF-8" standalone="no"?>
<!-- Created with Inkscape (http://www.inkscape.org/) -->

<svg
   xmlns:dc="http://purl.org/dc/elements/1.1/"
   xmlns:cc="http://creativecommons.org/ns#"
   xmlns:rdf="http://www.w3.org/1999/02/22-rdf-syntax-ns#"
   xmlns:svg="http://www.w3.org/2000/svg"
   xmlns="http://www.w3.org/2000/svg"
   xmlns:xlink="http://www.w3.org/1999/xlink"
   xmlns:sodipodi="http://sodipodi.sourceforge.net/DTD/sodipodi-0.dtd"
   xmlns:inkscape="http://www.inkscape.org/namespaces/inkscape"
   id="svg3925"
   width="24"
   height="24"
   version="1.1"
   sodipodi:docname="applications-multimedia.svg"
   inkscape:version="0.92.3 (2405546, 2018-03-11)">
  <sodipodi:namedview
     pagecolor="#ffffff"
     bordercolor="#666666"
     borderopacity="1"
     objecttolerance="10"
     gridtolerance="10"
     guidetolerance="10"
     inkscape:pageopacity="0"
     inkscape:pageshadow="2"
     inkscape:window-width="1366"
     inkscape:window-height="690"
     id="namedview72"
     showgrid="false"
     inkscape:zoom="4.9454753"
     inkscape:cx="-4.6929794"
     inkscape:cy="12"
     inkscape:window-x="0"
     inkscape:window-y="28"
     inkscape:window-maximized="1"
     inkscape:current-layer="svg3925" />
  <defs
     id="defs3927">
    <linearGradient
       id="linearGradient3005"
       x1="28.739"
       x2="26.257"
       y1="144.12"
       y2="125.39"
       gradientTransform="matrix(.33893 0 0 .16642 14.124 -24.768)"
       gradientUnits="userSpaceOnUse">
      <stop
         id="stop3245"
         style="stop-color:#fff"
         offset="0" />
      <stop
         id="stop3247"
         style="stop-color:#fff;stop-opacity:.37931"
         offset="1" />
    </linearGradient>
    <linearGradient
       id="linearGradient3008"
       x1="28.739"
       x2="25.4"
       y1="144.12"
       y2="119.86"
       gradientTransform="matrix(.16844 0 0 .16642 9.157 -23.591)"
       gradientUnits="userSpaceOnUse">
      <stop
         id="stop3239"
         style="stop-color:#fff"
         offset="0" />
      <stop
         id="stop3241"
         style="stop-color:#fff;stop-opacity:.37931"
         offset="1" />
    </linearGradient>
    <radialGradient
       id="radialGradient3011"
       cx="17.059"
       cy="41.059"
       r="5.7385"
       fx="14.109"
       fy="38.981"
       gradientTransform="matrix(.50449 0 -.08259 .47423 14.689 -8.989)"
       gradientUnits="userSpaceOnUse">
      <stop
         id="stop3871"
         style="stop-color:#aaa"
         offset="0" />
      <stop
         id="stop3873"
         style="stop-color:#4d4d4d"
         offset="1" />
    </radialGradient>
    <radialGradient
       id="radialGradient3014"
       cx="17.059"
       cy="41.059"
       r="5.7385"
       fx="14.638"
       fy="38.175"
       gradientTransform="matrix(.50576 0 -.082797 .47542 5.735 -7.7245)"
       gradientUnits="userSpaceOnUse">
      <stop
         id="stop3877"
         style="stop-color:#aaa"
         offset="0" />
      <stop
         id="stop3879"
         style="stop-color:#4d4d4d"
         offset="1" />
    </radialGradient>
    <radialGradient
       id="radialGradient3018"
       cx="22.902"
       cy="45.867"
       r="7.9059"
       gradientTransform="matrix(.57707 0 0 .24304 -2.6542 2.9315)"
       gradientUnits="userSpaceOnUse">
      <stop
         id="stop3203"
         offset="0" />
      <stop
         id="stop3205"
         style="stop-opacity:0"
         offset="1" />
    </radialGradient>
    <radialGradient
       id="radialGradient3021"
       cx="22.902"
       cy="45.867"
       r="7.9059"
       gradientTransform="matrix(.5306 0 0 .22347 7.4709 2.492)"
       gradientUnits="userSpaceOnUse">
      <stop
         id="stop3197"
         offset="0" />
      <stop
         id="stop3199"
         style="stop-opacity:0"
         offset="1" />
    </radialGradient>
    <linearGradient
       id="linearGradient3038"
       x1="12.872"
       x2="12.872"
       y1="5.0561"
       y2="21.468"
       gradientTransform="matrix(.80742 0 0 .75464 -.44696 -7.2198)"
       gradientUnits="userSpaceOnUse">
      <stop
         id="stop3618"
         style="stop-color:#f0c178"
         offset="0" />
      <stop
         id="stop3270"
         style="stop-color:#e18941"
         offset=".5" />
      <stop
         id="stop3620"
         style="stop-color:#ec4f18"
         offset="1" />
    </linearGradient>
    <linearGradient
       id="linearGradient3040"
       x1="5.6598"
       x2="5.6598"
       y1="18.3"
       y2="1"
       gradientTransform="matrix(1.0274 0 0 .96886 -.33737 -7.7448)"
       gradientUnits="userSpaceOnUse"
       xlink:href="#linearGradient3582" />
    <linearGradient
       id="linearGradient3582">
      <stop
         id="stop3584"
         style="stop-color:#333"
         offset="0" />
      <stop
         id="stop3586"
         style="stop-color:#5a5a5a"
         offset="1" />
    </linearGradient>
    <linearGradient
       id="linearGradient3043"
       x1="5.0678"
       x2="5.0678"
       y1="4.5037"
       y2="18.154"
       gradientTransform="matrix(.98464 0 0 .9701 .093169 -7.7566)"
       gradientUnits="userSpaceOnUse">
      <stop
         id="stop3934"
         style="stop-color:#828282"
         offset="0" />
      <stop
         id="stop3936"
         style="stop-color:#434343"
         offset="1" />
    </linearGradient>
    <linearGradient
       id="linearGradient3045"
       x1="2.6708"
       x2="2.6708"
       y1="18.3"
       y2=".78105"
       gradientTransform="matrix(.98464 0 0 .9701 .093169 -7.7566)"
       gradientUnits="userSpaceOnUse"
       xlink:href="#linearGradient3582" />
    <radialGradient
       id="radialGradient4327"
       cx="605.71"
       cy="486.65"
       r="117.14"
       gradientTransform="matrix(.024288 0 0 .011812 .31291 11.794)"
       gradientUnits="userSpaceOnUse"
       xlink:href="#linearGradient5060" />
    <linearGradient
       id="linearGradient5060">
      <stop
         id="stop5062"
         offset="0" />
      <stop
         id="stop5064"
         style="stop-opacity:0"
         offset="1" />
    </linearGradient>
    <linearGradient
       id="linearGradient4329"
       x1="302.86"
       x2="302.86"
       y1="366.65"
       y2="609.51"
       gradientTransform="matrix(.022747 0 0 .011804 1.2868 11.799)"
       gradientUnits="userSpaceOnUse">
      <stop
         id="stop5050"
         style="stop-opacity:0"
         offset="0" />
      <stop
         id="stop5056"
         offset=".5" />
      <stop
         id="stop5052"
         style="stop-opacity:0"
         offset="1" />
    </linearGradient>
    <radialGradient
       id="radialGradient3923"
       cx="605.71"
       cy="486.65"
       r="117.14"
       gradientTransform="matrix(-.024229 0 0 .011804 18.619 11.799)"
       gradientUnits="userSpaceOnUse"
       xlink:href="#linearGradient5060" />
  </defs>
  <metadata
     id="metadata3930">
    <rdf:RDF>
      <cc:Work
         rdf:about="">
        <dc:format>image/svg+xml</dc:format>
        <dc:type
           rdf:resource="http://purl.org/dc/dcmitype/StillImage" />
        <dc:title></dc:title>
      </cc:Work>
    </rdf:RDF>
  </metadata>
  <path
     style="stroke-width:0.04869355;fill:#cccccc"
     inkscape:connector-curvature="0"
     d="M 21.044779,2.6540302 C 19.943468,1.9196326 18.649472,1.5278019 17.325804,1.5278019 h -1.431702 l -0.04431,-0.3895491 c 0,-0.43044267 -0.348652,-0.77909585 -0.779096,-0.77909585 -0.430444,0 -0.779097,0.34865318 -0.779097,0.77909585 l 1.558194,13.6341922 c 0,0.287407 0.157682,0.536008 0.389548,0.671249 v 0.926319 c -0.887706,0.181079 -1.558193,0.967595 -1.558193,1.908366 0,0.847574 0.548181,1.563329 1.305788,1.830191 -0.169856,0.335721 -0.418081,0.624267 -0.720702,0.84282 -0.313657,-0.656793 -0.978438,-1.114818 -1.753349,-1.114818 -0.774723,0 -1.440073,0.458025 -1.753348,1.114818 -0.302622,-0.218553 -0.550847,-0.507099 -0.720703,-0.84282 0.756844,-0.266481 1.305025,-0.982236 1.305025,-1.830191 0,-0.940394 -0.670487,-1.727287 -1.558193,-1.908366 v -0.857846 c 0.887706,-0.18108 1.558193,-0.96759 1.558193,-1.908367 0,-0.940775 -0.670487,-1.727291 -1.558193,-1.908371 v -0.857841 c 0.887706,-0.181079 1.558193,-0.9675944 1.558193,-1.9083652 0,-1.017049 -0.786516,-1.8448421 -1.7815,-1.931006 C 10.301392,6.3457982 9.8270128,5.8023713 9.2244294,5.4537185 c 0,-0.010293 0.00314,-0.019959 0.00314,-0.030461 0,-1.0739171 -0.8738187,-1.947741 -1.9477409,-1.947741 -1.0739222,0 -1.9477409,0.8738239 -1.9477409,1.947741 0,0.010455 0.00261,0.019803 0.00314,0.030461 C 4.733019,5.8023713 4.2582578,6.3457982 3.9972893,6.9982168 3.0023049,7.0843801 2.2157944,7.912549 2.2157944,8.9292228 c 0,0.9403944 0.6704863,1.7272862 1.5581928,1.9083652 v 0.857841 c -0.8877065,0.18108 -1.5581928,0.967596 -1.5581928,1.908371 0,0.720704 0.3981067,1.3444 0.9816661,1.68088 -0.1278169,0.187354 -0.2025696,0.413321 -0.2025696,0.65641 v 1.008491 c -0.013324,0.0056 -0.026804,0.0089 -0.039762,0.01448 L 2.5532154,16.267893 1.878356,16.657441 2.2827378,17.357599 C 2.0571523,17.528975 1.8566727,17.729837 1.6849143,17.955428 L 0.98475053,17.551422 0.59520238,18.226282 1.291369,18.628197 c -0.10861,0.257159 -0.1810797,0.532586 -0.217027,0.818848 H 0.26804478 v 0.779096 H 1.0739606 c 0.035947,0.286267 0.1084218,0.561688 0.217027,0.818853 l -0.69578522,0.40191 0.38954815,0.674864 0.70016377,-0.404387 c 0.171377,0.225591 0.372238,0.42607 0.5978235,0.597829 L 1.878356,23.015368 2.5532154,23.404917 2.955131,22.708751 c 0.2571595,0.108609 0.5325853,0.181079 0.8188475,0.217032 v 0.805915 H 4.5530749 V 22.925783 C 4.8393423,22.889839 5.1147628,22.81736 5.3719276,22.708751 L 5.7738379,23.404917 6.4487026,23.015368 6.0443157,22.31521 c 0.2255906,-0.171376 0.4260702,-0.372238 0.5978286,-0.597829 l 0.7001585,0.404387 0.3895482,-0.674864 -0.6961666,-0.40191 c 0.1086101,-0.257165 0.1810795,-0.532586 0.2170322,-0.818853 h 0.806292 V 19.447045 H 7.2530927 C 7.2171454,19.160783 7.1446759,18.885356 7.0360658,18.628197 L 7.7322324,18.226282 7.3426842,17.551422 6.6425257,17.955809 C 6.4711436,17.730218 6.2702825,17.529739 6.0446971,17.35798 L 6.4490788,16.657822 5.7742193,16.268268 5.372309,16.964435 c -0.013324,-0.0055 -0.026803,-0.0093 -0.040127,-0.01484 v -1.00849 c 0,-0.243089 -0.074753,-0.469056 -0.2025696,-0.656411 0.5835594,-0.336859 0.9816661,-0.960176 0.9816661,-1.680878 0,-0.940394 -0.6704863,-1.727292 -1.5581928,-1.908371 V 10.837608 C 5.4407923,10.656528 6.1112786,9.8700122 6.1112786,8.9292414 6.1112786,8.081667 5.563097,7.3659126 4.8054958,7.0990453 4.9753523,6.7633259 5.223572,6.4747751 5.5261987,6.2562277 c 0.3136511,0.6567917 0.9784317,1.1148176 1.7533482,1.1148176 0.7747179,0 1.4400734,-0.4580259 1.7533483,-1.1148176 0.3026214,0.2185474 0.5508411,0.5070982 0.7207028,0.8428141 -0.7568434,0.2668673 -1.3050251,0.9826217 -1.3050251,1.8301961 0,0.9403944 0.6704863,1.7272861 1.5581931,1.9083671 v 0.85784 c -0.8877068,0.181079 -1.5581931,0.967595 -1.5581931,1.908372 0,0.940775 0.6704863,1.727291 1.5581931,1.908365 v 0.857846 c -0.8877073,0.181081 -1.5581936,0.967596 -1.5581936,1.908367 0,1.017049 0.7865106,1.844841 1.7814946,1.931005 0.260969,0.652419 0.735349,1.195846 1.337932,1.544499 0,0.01034 -0.0031,0.01996 -0.0031,0.03041 0,1.073922 0.873818,1.947745 1.947741,1.947745 1.073923,0 1.947741,-0.873823 1.947741,-1.947745 0,-0.01046 -0.0027,-0.01981 -0.0031,-0.03041 0.602205,-0.348653 1.076966,-0.89208 1.337935,-1.544499 0.994983,-0.08579 1.781499,-0.913956 1.781499,-1.931005 0,-0.940395 -0.670491,-1.727286 -1.558192,-1.908367 v -0.926317 c 0.23186,-0.134861 0.389548,-0.383462 0.389548,-0.67125 l -1.1575,-10.1278769 c 2.723415,0.00314 5.318246,1.1600862 7.140453,3.1844816 L 24.030318,8.53969 V 8.2323091 c 0,-2.2414232 -1.120335,-4.3348658 -2.985523,-5.5782632 z M 2.2155924,19.447024 H 2.9946888 V 20.22612 H 2.2155924 Z m 2.3372892,2.337289 H 3.7737852 v -0.779096 h 0.7790964 z m 0,-1.558193 H 3.7737852 v -0.779096 h 0.7790964 z m 0,-1.558193 H 3.7737852 V 17.888831 H 4.5528816 Z M 6.1110743,20.22612 H 5.3319779 V 19.447024 H 6.1110743 Z M 4.5528816,15.94109 v 0.805915 c -0.1278169,-0.01599 -0.2575409,-0.0268 -0.3895482,-0.0268 -0.1320021,0 -0.2617261,0.0108 -0.3895482,0.0268 V 15.94109 c 0,-0.214937 0.1746112,-0.389549 0.3895482,-0.389549 0.214937,0 0.3895482,0.174993 0.3895482,0.389549 z M 5.3319779,13.6038 c 0,0.507099 -0.3267761,0.935641 -0.7790963,1.096938 V 13.993349 H 3.7737852 v 0.707389 C 3.3214702,14.539441 2.9946888,14.110899 2.9946888,13.6038 c 0,-0.507097 0.3267814,-0.935639 0.7790964,-1.096938 v 0.70739 h 0.7790964 v -0.70739 c 0.4523202,0.16168 0.7790963,0.589841 0.7790963,1.096938 z m 0,-4.6745772 c 0,0.5070928 -0.3267761,0.9356337 -0.7790963,1.0969322 V 9.3187708 H 3.7737852 V 10.026155 C 3.3214702,9.8648565 2.9946888,9.4363156 2.9946888,8.9292228 c 0,-0.5133787 0.3349583,-0.9453433 0.795837,-1.1020739 -0.010816,0.1063319 -0.016719,0.2139858 -0.016719,0.3229769 V 8.5396737 H 4.5529029 V 8.1501258 c 0,-0.1055652 0.00931,-0.2088499 0.022989,-0.3104222 0.4405276,0.1673859 0.7560806,0.5909791 0.7560806,1.0895192 z M 7.2797188,6.5919332 c -0.4698131,0 -0.8726744,-0.2801805 -1.0583205,-0.6805703 0.2118908,-0.06353 0.4361491,-0.098531 0.6687724,-0.098531 V 5.0337354 c -0.2539253,0 -0.4994855,0.033857 -0.7359178,0.091493 0.1329582,-0.499297 0.5847038,-0.8705894 1.1254659,-0.8705894 0.5407675,0 0.992513,0.3709109 1.1254712,0.8705897 C 8.1687578,5.0675925 7.9231975,5.0337354 7.6692723,5.0337354 v 0.7790965 c 0.2326233,0 0.4565001,0.035007 0.6687724,0.098531 C 8.1523986,6.3117527 7.7495373,6.5919332 7.2797188,6.5919332 Z m 1.9477463,2.3372896 c 0,-0.4985401 0.3155531,-0.9221333 0.7560806,-1.0895192 0.01369,0.1019522 0.022989,0.2048536 0.022989,0.3104222 v 0.3895479 h 0.779097 V 8.1501258 c 0,-0.1089922 -0.0059,-0.2170318 -0.01672,-0.3229769 0.460879,0.1567306 0.795837,0.5886952 0.795837,1.1020739 0,0.5070928 -0.326781,0.9356337 -0.779096,1.0969322 V 9.3187708 H 10.006556 V 10.026155 C 9.5542359,9.8648565 9.2274599,9.4363156 9.2274599,8.9292228 Z m 0,4.6745772 c 0,-0.507097 0.3267761,-0.935639 0.7790959,-1.096938 v 0.70739 h 0.779097 v -0.70739 c 0.452315,0.161299 0.779096,0.589841 0.779096,1.096938 0,0.507099 -0.326781,0.935641 -0.779096,1.096938 v -0.707389 h -0.779097 v 0.707389 C 9.5542412,14.539441 9.2274651,14.110899 9.2274651,13.6038 Z m 0,4.674579 c 0,-0.507099 0.3267761,-0.93564 0.7790959,-1.096932 v 0.707384 h 0.779097 v -0.707384 c 0.452315,0.161292 0.779096,0.589833 0.779096,1.096932 0,0.49854 -0.315558,0.922133 -0.75608,1.089518 -0.01369,-0.101569 -0.02299,-0.204852 -0.02299,-0.310422 v -0.389548 h -0.779096 v 0.389548 c 0,0.108992 0.0059,0.217033 0.01672,0.322978 C 9.5624338,19.224291 9.2274755,18.791758 9.2274755,18.278379 Z m 4.2850309,4.674578 c -0.540769,0 -0.992514,-0.370905 -1.125467,-0.870584 0.236427,0.05763 0.481987,0.09148 0.735918,0.09148 v -0.779097 c -0.232628,0 -0.4565,-0.035 -0.668777,-0.09852 0.185264,-0.40039 0.588507,-0.680571 1.058326,-0.680571 0.469818,0 0.872679,0.280181 1.05832,0.680571 -0.211891,0.06353 -0.436149,0.09852 -0.668772,0.09852 v 0.779096 c 0.25393,0 0.49949,-0.03385 0.735917,-0.09149 -0.132953,0.499678 -0.584704,0.870584 -1.125465,0.870585 z m 4.285029,-4.674578 c 0,0.513373 -0.334959,0.945342 -0.795831,1.102074 0.0108,-0.105949 0.01672,-0.213986 0.01672,-0.322978 V 18.667927 H 16.23932 v 0.389548 c 0,0.105565 -0.0093,0.208851 -0.02304,0.310422 -0.440523,-0.167004 -0.756081,-0.590978 -0.756081,-1.089518 0,-0.507099 0.326782,-0.93564 0.779096,-1.096932 v 0.707384 h 0.779097 v -0.707384 c 0.452314,0.161673 0.779096,0.589833 0.779096,1.096932 z m 0,0"
     id="path2" />
</svg>
