<?xml version="1.0" encoding="UTF-8" standalone="no"?><svg xmlns:dc="http://purl.org/dc/elements/1.1/" xmlns:cc="http://creativecommons.org/ns#" xmlns:rdf="http://www.w3.org/1999/02/22-rdf-syntax-ns#" xmlns="http://www.w3.org/2000/svg" xmlns:xlink="http://www.w3.org/1999/xlink" width="48" height="48" version="1"><metadata><rdf:RDF><cc:Work><dc:format>image/svg+xml</dc:format><dc:type rdf:resource="http://purl.org/dc/dcmitype/StillImage"/><dc:title/></cc:Work></rdf:RDF></metadata><defs><linearGradient id="d"><stop offset="0"/><stop offset="1" stop-opacity="0"/></linearGradient><linearGradient id="c"><stop offset="0" stop-color="#2c5aa0"/><stop offset=".2" stop-color="#3771c8"/><stop offset=".33" stop-color="#2c5aa0"/><stop offset=".44" stop-color="#3771c8"/><stop offset=".57" stop-color="#3771c8"/><stop offset=".76" stop-color="#5f8dd3"/><stop offset="1" stop-color="#3771c8"/></linearGradient><linearGradient id="b"><stop offset="0" stop-color="#2c5aa0"/><stop offset=".2" stop-color="#3771c8"/><stop offset=".33" stop-color="#2c5aa0"/><stop offset=".44" stop-color="#3771c8"/><stop offset=".57" stop-color="#3771c8"/><stop offset=".76" stop-color="#5f8dd3"/><stop offset="1" stop-color="#2c5aa0" stop-opacity="0"/></linearGradient><linearGradient xlink:href="#b" id="a" gradientUnits="userSpaceOnUse" gradientTransform="translate(-40)" x1="8.14" y1="13.51" x2="36.28" y2="35.97"/><linearGradient xlink:href="#d" id="i" x1="11.12" y1="20.23" x2="37.01" y2="25.97" gradientUnits="userSpaceOnUse"/><linearGradient xlink:href="#e" id="f" x1="14.94" y1="47.97" x2="34.08" y2="1" gradientUnits="userSpaceOnUse" gradientTransform="translate(0 -.05)"/><linearGradient id="e"><stop stop-color="#ccc" offset="0"/><stop stop-color="#e6e6e6" offset=".17"/><stop stop-color="#999" offset=".43"/><stop stop-color="#999" offset=".51"/><stop stop-color="gray" offset=".74"/><stop stop-color="#e6e6e6" offset="1"/></linearGradient><clipPath id="g"><path d="M-5.02.03l-3.1 4.15H-23.9l-4.55 13.4 6.73 26.24h11.44l6.73-26.24-4.55-13.4z" fill="url(#a)"/></clipPath><filter id="h" x="-.08" width="1.17" y="-.05" height="1.09" color-interpolation-filters="sRGB"><feGaussianBlur stdDeviation=".86"/></filter></defs><path d="M40.89 17.37l-7.83 30.55H14.94L7.11 17.37l5.9-17.39H35z" fill="url(#f)"/><path transform="translate(40.73 -1.05) scale(1.04567)" clip-path="url(#g)" d="M-5.02.03l-3.1 4.15H-23.9l-4.55 13.4 6.73 26.24h11.44l6.73-26.24-4.55-13.4z" fill="none" stroke="#1a1a1a" stroke-width="1.91" filter="url(#h)"/><path d="M18.28 43.77l-3.34 4.15h18.12l-3.34-4.15z" fill="#1a1a1a" fill-opacity=".1"/><path d="M29.72 43.77l3.34 4.15 7.83-30.55-4.44.16z" fill="#1a1a1a" fill-opacity=".47"/><path d="M13.01-.02l3.08 4.15h15.8l3.1-4.15z" fill="#1a1a1a" fill-opacity=".35"/><path d="M40.89 17.37L34.99-.02 31.9 4.13l4.55 13.4z" fill="#1a1a1a" fill-opacity=".71"/><path d="M18.28 43.77l-3.34 4.15-7.83-30.55 4.44.16z" fill="#1a1a1a" fill-opacity=".47"/><path d="M7.11 17.37l5.9-17.39 3.09 4.15-4.55 13.4z" fill="#1a1a1a" fill-opacity=".71"/><path d="M15 25.31l1.64-.6L15 23.05l1.6-.64-1.6-1.6 1.85-.4L15 18.56l1.78-.47L15 16.31l1.8-.46-1.8-1.79 1.72-.53L15 11.8l5.06-1.12 1.46 1.45.26-.9 7.08-.1 3 .19 1.14-.64 2.6 2.6 1.4 4.1-6.06 23.86z" fill="url(#i)" opacity=".53"/><path d="M15 10.69v1.12h5.06V10.7zm6.19 0v7.87H33V10.7zm1.12 1.12h9.57v5.63H22.3zM15 12.94v1.12h5.06v-1.12zm0 2.25v1.12h5.06V15.2zm0 2.25v1.12h5.06v-1.12zm0 2.25v1.12h18V19.7zm0 2.25v1.12h18v-1.12zm0 2.25v1.12h11.81V24.2z" fill="#fff"/></svg>