<?xml version="1.0" encoding="UTF-8" standalone="no"?><svg xmlns:dc="http://purl.org/dc/elements/1.1/" xmlns:cc="http://creativecommons.org/ns#" xmlns:rdf="http://www.w3.org/1999/02/22-rdf-syntax-ns#" xmlns="http://www.w3.org/2000/svg" xmlns:xlink="http://www.w3.org/1999/xlink" width="48" height="48" version="1"><metadata><rdf:RDF><cc:Work><dc:format>image/svg+xml</dc:format><dc:type rdf:resource="http://purl.org/dc/dcmitype/StillImage"/><dc:title/></cc:Work></rdf:RDF></metadata><defs><linearGradient id="a"><stop offset="0"/><stop offset="1" stop-opacity="0"/></linearGradient><linearGradient xlink:href="#b" id="c" x1="34.32" y1="50.62" x2="9.85" y2="5.71" gradientUnits="userSpaceOnUse"/><linearGradient id="b"><stop offset="0" stop-color="#2d5016"/><stop offset=".22" stop-color="#447821"/><stop offset=".39" stop-color="#64b131"/><stop offset=".52" stop-color="#57992a"/><stop offset=".64" stop-color="#71c837"/><stop offset="1" stop-color="#447821"/></linearGradient><clipPath id="d"><path d="M-5.02.03l-3.1 4.15H-23.9l-4.55 13.4 6.73 26.24h11.44l6.73-26.24-4.55-13.4z" fill="url(#linearGradient1212)"/></clipPath><filter id="e" x="-.08" width="1.17" y="-.05" height="1.09" color-interpolation-filters="sRGB"><feGaussianBlur stdDeviation=".86"/></filter><linearGradient xlink:href="#a" id="f" gradientUnits="userSpaceOnUse" x1="4.57" y1="8.68" x2="45.98" y2="36.99"/></defs><path d="M40.89 17.42l-7.83 30.55H14.94L7.11 17.42 13.01.03H35z" fill="url(#c)" transform="translate(0 -.05)"/><path d="M-5.02.03l-3.1 4.15H-23.9l-4.55 13.4 6.73 26.24h11.44l6.73-26.24-4.55-13.4z" clip-path="url(#d)" transform="translate(40.73 -1.05) scale(1.04567)" fill="none" stroke="#2d5016" stroke-width="1.91" filter="url(#e)"/><path d="M18.29 43.77l-3.34 4.15h18.12l-3.35-4.15z" fill="#17280b" fill-opacity=".1"/><path d="M13.02-.02l3.08 4.15h15.8L35-.02z" fill="#17280b" fill-opacity=".35"/><path d="M18.27 43.77l-3.34 4.15L7.1 17.37l4.44.16z" fill="#17280b" fill-opacity=".47"/><path d="M7.1 17.37L13-.02l3.1 4.15-4.56 13.4zm33.8 0L35-.02l-3.1 4.15 4.55 13.4z" fill="#17280b" fill-opacity=".71"/><path d="M29.72 43.77l3.34 4.15 7.83-30.55-4.44.16z" fill="#17280b" fill-opacity=".47"/><path d="M35.21 13.94l-2.57-2.58-16.92.39-.36 16.9 14.53 14.51 6.56-25.58z" opacity=".52" fill="url(#f)"/><path style="line-height:normal;text-indent:0;text-align:start;text-decoration-line:none;text-transform:none;marker:none" d="M15.36 11.36v17.28h17.28V11.36zm11.79.81h4.71v2.49h-4.74zm-11.01 3.3h4.68v2.48h-4.68zm5.49 0h4.68v2.48h-4.65zm5.49 0h4.74v2.48h-4.74zm-10.98 3.29h4.68v2.48h-4.68zm5.49 3.29h4.68v2.49h-4.65zm5.49 0h4.74v2.49h-4.74zm-10.98 3.3h4.68v2.48h-4.68zm5.49 0h4.68v2.48h-4.65zm5.49 0h4.74v2.48h-4.74z" fill="#c6e9af"/></svg>