<?xml version="1.0" encoding="UTF-8" standalone="no"?><svg xmlns:dc="http://purl.org/dc/elements/1.1/" xmlns:cc="http://creativecommons.org/ns#" xmlns:rdf="http://www.w3.org/1999/02/22-rdf-syntax-ns#" xmlns="http://www.w3.org/2000/svg" xmlns:xlink="http://www.w3.org/1999/xlink" width="48" height="48" version="1"><metadata><rdf:RDF><cc:Work><dc:format>image/svg+xml</dc:format><dc:type rdf:resource="http://purl.org/dc/dcmitype/StillImage"/><dc:title/></cc:Work></rdf:RDF></metadata><defs><linearGradient id="c"><stop offset="0" stop-color="#e6e6e6"/><stop offset=".2" stop-color="gray"/><stop offset=".33" stop-color="#999"/><stop offset=".57" stop-color="#999"/><stop offset=".76" stop-color="#e6e6e6"/><stop offset="1" stop-color="#ccc"/></linearGradient><linearGradient id="b"><stop offset="0" stop-color="#2c5aa0"/><stop offset=".2" stop-color="#3771c8"/><stop offset=".33" stop-color="#2c5aa0"/><stop offset=".44" stop-color="#3771c8"/><stop offset=".57" stop-color="#3771c8"/><stop offset=".76" stop-color="#5f8dd3"/><stop offset="1" stop-color="#2c5aa0" stop-opacity="0"/></linearGradient><clipPath id="f"><path d="M-5.02.03l-3.1 4.15H-23.9l-4.55 13.4 6.73 26.24h11.44l6.73-26.24-4.55-13.4z" fill="url(#a)"/></clipPath><linearGradient xlink:href="#b" id="a" gradientUnits="userSpaceOnUse" gradientTransform="translate(-40)" x1="8.14" y1="13.51" x2="36.28" y2="35.97"/><filter id="g" x="-.08" width="1.17" y="-.05" height="1.09" color-interpolation-filters="sRGB"><feGaussianBlur stdDeviation=".86"/></filter><linearGradient xlink:href="#c" id="e" x1="7.11" y1="24" x2="35.45" y2="40.15" gradientUnits="userSpaceOnUse"/><linearGradient id="d"><stop offset="0" stop-color="#1a1a1a"/><stop offset="1" stop-color="#1a1a1a" stop-opacity=".51"/></linearGradient></defs><path d="M40.89 17.42l-7.83 30.55H14.94L7.11 17.42 13.01.03H35z" fill="url(#e)"/><path transform="translate(40.73 -1) scale(1.04567)" clip-path="url(#f)" d="M-5.02.03l-3.1 4.15H-23.9l-4.55 13.4 6.73 26.24h11.44l6.73-26.24-4.55-13.4z" fill="none" stroke="#1a1a1a" stroke-width="1.91" filter="url(#g)"/><path d="M18.28 43.82l-3.34 4.15h18.12l-3.34-4.15z" fill="#1a1a1a" fill-opacity=".1"/><path d="M29.72 43.82l3.34 4.15 7.83-30.55-4.44.16z" fill="#1a1a1a" fill-opacity=".47"/><path d="M13.01.03l3.08 4.15h15.8l3.1-4.15z" fill="#1a1a1a" fill-opacity=".35"/><path d="M40.89 17.42L34.99.03 31.9 4.18l4.55 13.4z" fill="#1a1a1a" fill-opacity=".71"/><path d="M18.28 43.82l-3.34 4.15-7.83-30.55 4.44.16z" fill="#1a1a1a" fill-opacity=".47"/><path d="M7.11 17.42L13.01.03l3.09 4.15-4.55 13.4z" fill="#1a1a1a" fill-opacity=".71"/><text word-spacing="0" letter-spacing="0" font-size="13.33" font-weight="400" style="line-height:1.25" x="20.12" y="16.19" font-family="sans-serif" fill="#333"><tspan x="20.12" y="16.19">a</tspan></text><path d="M14.9 19.61h18.2c.53 0 .96.34.96.76 0 .4-.43.74-.96.74H14.9a.95.75 0 1 1 0-1.5zm1.06 3.64h16.08c.47 0 .84.34.84.75s-.37.75-.84.75H15.96a.84.75 0 1 1 0-1.5zm.87 3.64h14.33c.42 0 .76.33.76.75 0 .41-.34.75-.76.75H16.83a.75.75 0 1 1 0-1.5z" fill="#333"/></svg>