<?xml version="1.0" encoding="UTF-8" standalone="no"?><svg xmlns:dc="http://purl.org/dc/elements/1.1/" xmlns:cc="http://creativecommons.org/ns#" xmlns:rdf="http://www.w3.org/1999/02/22-rdf-syntax-ns#" xmlns="http://www.w3.org/2000/svg" xmlns:xlink="http://www.w3.org/1999/xlink" width="48" height="48" version="1"><metadata><rdf:RDF><cc:Work><dc:format>image/svg+xml</dc:format><dc:type rdf:resource="http://purl.org/dc/dcmitype/StillImage"/><dc:title/></cc:Work></rdf:RDF></metadata><defs><linearGradient id="f"><stop offset="0" stop-color="#2c5aa0"/><stop offset=".2" stop-color="#3771c8"/><stop offset=".33" stop-color="#2c5aa0"/><stop offset=".44" stop-color="#3771c8"/><stop offset=".57" stop-color="#3771c8"/><stop offset=".76" stop-color="#5f8dd3"/><stop offset="1" stop-color="#3771c8"/></linearGradient><linearGradient id="c"><stop offset="0" stop-color="#2c5aa0"/><stop offset=".2" stop-color="#3771c8"/><stop offset=".33" stop-color="#2c5aa0"/><stop offset=".44" stop-color="#3771c8"/><stop offset=".57" stop-color="#3771c8"/><stop offset=".76" stop-color="#5f8dd3"/><stop offset="1" stop-color="#2c5aa0" stop-opacity="0"/></linearGradient><linearGradient id="a"><stop offset="0" stop-color="#00000a"/><stop offset="1" stop-color="#050000" stop-opacity="0"/></linearGradient><clipPath id="h"><path d="M-5.02.03l-3.1 4.15H-23.9l-4.55 13.4 6.73 26.24h11.44l6.73-26.24-4.55-13.4z" fill="url(#b)"/></clipPath><linearGradient xlink:href="#c" id="b" gradientUnits="userSpaceOnUse" gradientTransform="translate(-40)" x1="8.14" y1="13.51" x2="36.28" y2="35.97"/><filter id="i" x="-.08" width="1.17" y="-.05" height="1.09" color-interpolation-filters="sRGB"><feGaussianBlur stdDeviation=".86"/></filter><linearGradient id="d"><stop offset="0"/><stop stop-opacity=".5" offset=".7"/><stop stop-opacity="0" offset="1"/></linearGradient><linearGradient id="e"><stop stop-color="#fff" offset="0"/><stop stop-color="#fff" stop-opacity=".5" offset=".7"/><stop stop-color="#fff" stop-opacity="0" offset="1"/></linearGradient><linearGradient xlink:href="#f" id="g" x1="39.2" y1="41.02" x2="8.16" y2="4.64" gradientUnits="userSpaceOnUse"/></defs><path d="M40.89 17.42l-7.83 30.55H14.94L7.11 17.42 13.01.03H35z" fill="url(#g)"/><path transform="translate(40.73 -1) scale(1.04567)" clip-path="url(#h)" d="M-5.02.03l-3.1 4.15H-23.9l-4.55 13.4 6.73 26.24h11.44l6.73-26.24-4.55-13.4z" fill="none" stroke="#214478" stroke-width="1.91" filter="url(#i)"/><path d="M18.28 43.82l-3.34 4.15h18.12l-3.34-4.15z" fill="#162d50" fill-opacity=".1"/><path d="M29.72 43.82l3.34 4.15 7.83-30.55-4.44.16z" fill="#162d50" fill-opacity=".47"/><path d="M13.01.03l3.08 4.15h15.8l3.1-4.15z" fill="#162d50" fill-opacity=".35"/><path d="M40.89 17.42L34.99.03 31.9 4.18l4.55 13.4z" fill="#162d50" fill-opacity=".71"/><path d="M18.28 43.82l-3.34 4.15-7.83-30.55 4.44.16z" fill="#162d50" fill-opacity=".47"/><path d="M7.11 17.42L13.01.03l3.09 4.15-4.55 13.4z" fill="#162d50" fill-opacity=".71"/><path d="M16.45 9.33h15.1v1.34h-15.1zm-2 4h19.09v1.34H14.45zm-1.28 4h21.66v1.34H13.17zm1 4h19.66v1.34H14.17zm1.19 4h17.29v1.34H15.36zm.76 4h15.77v1.34H16.12zm1.04 4h13.68v1.34H17.16zm.95 4h11.77v1.34H18.11z" fill="#1c241f"/></svg>