<?xml version="1.0" encoding="UTF-8" standalone="no"?><svg xmlns:dc="http://purl.org/dc/elements/1.1/" xmlns:cc="http://creativecommons.org/ns#" xmlns:rdf="http://www.w3.org/1999/02/22-rdf-syntax-ns#" xmlns="http://www.w3.org/2000/svg" xmlns:xlink="http://www.w3.org/1999/xlink" viewBox="0 0 48 48"><metadata><rdf:RDF><cc:Work><dc:format>image/svg+xml</dc:format><dc:type rdf:resource="http://purl.org/dc/dcmitype/StillImage"/><dc:title/></cc:Work></rdf:RDF></metadata><defs><linearGradient id="a"><stop offset="0"/><stop offset="1" stop-opacity="0"/></linearGradient><linearGradient xlink:href="#a" id="b" x1="13.43" y1="11.93" x2="40.84" y2="32.62" gradientUnits="userSpaceOnUse"/></defs><path d="M40.89 17.42l-7.83 30.55H14.94L7.11 17.42 13.01.03H35z" fill="#c83737"/><path d="M18.28 43.82l-3.34 4.15h18.12l-3.34-4.15z" fill="#d35f5f"/><path d="M16.79 22.23l.54-3.72 6.08-5.53 4.95 1.94 8.85 8.85-3.46 15.43z" fill="url(#b)" opacity=".67"/><path d="M29.72 43.82l3.34 4.15 7.83-30.55-4.44.16zm-22.6-26.4l7.82 30.55 3.34-4.15-6.73-26.24zM13.01.03l3.08 4.15h15.8l3.1-4.15z" fill="#a02c2c"/><path d="M7.11 17.42L13.01.03l3.09 4.15-4.55 13.4zm29.34.16L31.9 4.18 34.99.03l5.9 17.39z" fill="#782121"/><path d="M24 25.68l-5.67-5.67L24 14.34l1.89 1.9L22.11 20l1.89 1.9 5.67-5.68-4.91-4.91a1.02 1.02 0 0 0-1.52 0l-7.93 7.94c-.38.45-.38 1.1 0 1.5l7.93 7.94c.42.42 1.1.42 1.52 0l7.93-7.93c.38-.42.38-1.06 0-1.51l-1.13-1.14z" class="ColorScheme-Text" fill="#f4d7d7"/></svg>