<svg xmlns="http://www.w3.org/2000/svg" version="1" viewBox="0 0 48 48"><flowRoot transform="translate(-70.96 6.38)" fill="#000" font-family="Arial" font-size="4" xml:space="preserve"><flowRegion><path d="M-95.12 8.6h63.76v77.5h-63.76z"/></flowRegion><flowPara/></flowRoot><path fill="#939dac" d="M14.94 47.97L7.11 17.42 13.01.03H35l5.9 17.39-7.83 30.55z"/><path d="M21.6 9.02l-9.16 9.17 5.2 5.2-4.98 8.75h1.92l4.29-7.52 1.06 1.07v6.45h1.67zm1.24 0v23.12h1.66V9.02zm2.9 0v23.12h1.66v-6.45l1.07-1.07 4.29 7.52h1.92l-4.98-8.75 5.2-5.2zm-5.8 4.03v10.28l-5.14-5.14zm7.46 0l5.14 5.14-5.14 5.14z" fill="#1c1f24"/><path d="M21.6 7.02l-9.16 9.17 5.2 5.2-4.98 8.75h1.92l4.29-7.52 1.06 1.07v6.45h1.67zm1.24 0v23.12h1.66V7.02zm2.9 0v23.12h1.66v-6.45l1.07-1.07 4.29 7.52h1.92l-4.98-8.75 5.2-5.2zm-5.8 4.03v10.28l-5.14-5.14zm7.46 0l5.14 5.14-5.14 5.14z" fill="#dbe2e3"/><path d="M18.28 43.82l-3.34 4.15h18.12l-3.34-4.15z" fill="#b7bec8"/><g fill="#6f7c91" stroke-width=".12"><path d="M29.72 43.82l3.34 4.15 7.83-30.55-4.44.16zM7.11 17.42l7.83 30.55 3.34-4.15-6.73-26.24zM13.01.03l3.09 4.15h15.8L34.99.03z"/></g><g fill="#535d6c"><path d="M16.1 4.18l-4.55 13.4-4.44-.16L13.01.03zM34.99.03l5.9 17.39-4.44.16-4.55-13.4z"/></g></svg>