<svg xmlns="http://www.w3.org/2000/svg" xmlns:xlink="http://www.w3.org/1999/xlink" width="48" height="48" viewBox="0 0 12.7 12.7"><defs><linearGradient id="a"><stop offset="0" stop-color="#216778"/><stop offset="1" stop-color="#5fbcd3"/></linearGradient><linearGradient xlink:href="#a" id="b" x1="6.34" y1="293.99" x2="6.23" y2="284.36" gradientUnits="userSpaceOnUse"/></defs><path d="M6.23 284.36c-1.52.01-3.09.72-4.73 2.31V294h9.69v-7.32c-1.6-1.46-3.24-2.33-4.96-2.31z" fill="url(#b)" transform="translate(0 -284.3)"/><path fill="#164450" d="M1.03 9.68h10.7v1.27H1.03z"/><path fill="#216778" d="M-.03 10.93h12.76v1.76H-.03z"/><path d="M2.74 1.33h-.02c-.4.3-.81.64-1.22 1.04V9.68h-.47v1.25H-.03v1.77h3.4v-1.77h-.4V9.68h-.23zm7.14 0v8.35h-.1v1.25h-.44v1.77h3.39v-1.77h-1V9.68h-.54V2.37c-.43-.4-.87-.74-1.31-1.04z" opacity=".5"/><g fill="#1c1f24"><path d="M6.13 4.13a.1.1 0 0 1 .08.07l.12.39c.1.33.15.67.16 1h-.73c.01-.33.06-.67.16-1l.12-.4a.1.1 0 0 1 .09-.06zM7.4 4.5a.1.1 0 0 1 .1.06l.11.4c.1.32.15.66.16 1h-.72c0-.34.06-.68.15-1l.12-.4a.1.1 0 0 1 .09-.06zM8.69 4.87a.1.1 0 0 1 .09.06l.11.39c.1.33.15.67.16 1.01h-.72c0-.34.06-.68.16-1.01l.11-.39a.1.1 0 0 1 .09-.06zM5.76 5.78h.73v.44l.15.3H5.61l.15-.3zM7.04 6.15h.73v.43l.15.3H6.9l.15-.3zM8.32 6.51h.74v.44l.14.3H8.18l.14-.3zM5.58 6.7h1.1V8.7h-1.1zM6.86 7.06h1.1v1.65h-1.1zM8.14 7.43h1.1V8.7h-1.1zM5.6 8.9h1.06l-.06.2v.03c.04.04.08.1.08.17v.1c0 .12-.1.22-.23.22H5.8a.23.23 0 0 1-.22-.22v-.1c0-.07.03-.13.08-.17v-.02zM6.88 8.9h1.06l-.06.2v.03c.05.04.08.1.08.17v.1c0 .12-.1.22-.23.22h-.65a.23.23 0 0 1-.22-.22v-.1c0-.07.03-.13.08-.17V9.1zM8.16 8.9h1.06l-.05.2-.01.03c.05.04.08.1.08.17v.1c0 .12-.1.22-.23.22h-.64a.23.23 0 0 1-.23-.22v-.1c0-.07.03-.13.08-.17V9.1z"/></g></svg>