<svg xmlns="http://www.w3.org/2000/svg" width="24" height="24"><path d="M18.66 1.84C16.98.75 14.67.2 11.8.2S6.62.75 4.94 1.84c-2.02 1.31-3.09 3.4-3.09 6.04 0 3.56 2.86 8.32 3.74 9.69 1 1.57 2.09 3 3.07 4.02 1.25 1.3 2.25 1.9 3.14 1.9.89 0 1.89-.6 3.14-1.9A26.82 26.82 0 0 0 18 17.57c.88-1.37 3.74-6.13 3.74-9.69 0-2.64-1.07-4.73-3.09-6.04z" fill="#483737"/><path d="M11.81 2.63a6.98 6.98 0 0 0-6.64 4.82c0 .03-.02.05-.03.08a6.97 6.97 0 0 0 13.3 4.2 6.97 6.97 0 0 0-6.63-9.11zm-.5 1.08v2.34c-.67-.02-1.3-.1-1.9-.2l.29-.59c.47-.84 1.03-1.36 1.61-1.55zm1 .04l.16.02c.52.23 1.03.73 1.45 1.49.1.18.19.37.28.57-.59.12-1.23.2-1.9.22v-2.3zm-3.13.48a5.67 5.67 0 0 0-.75 1.38c-.29-.08-.56-.18-.8-.28.45-.45.97-.82 1.55-1.1zm5.36.15c.28.1.49.2.7.31.26.19.51.4.74.61-.25.11-.51.2-.8.3a7.54 7.54 0 0 0-.64-1.22zm2.1 1.67a5.9 5.9 0 0 1 1.13 3.03H15.9c-.03-.9-.17-1.76-.4-2.54.4-.12.78-.26 1.12-.42l.02-.07zm-9.7.07c.36.17.76.3 1.17.43-.21.78-.35 1.63-.39 2.53H5.85a5.9 5.9 0 0 1 1.1-2.96zm7.6.66c.19.7.32 1.48.36 2.3h-2.6V7.04c.8-.03 1.54-.11 2.23-.26zm-5.46.02c.7.14 1.45.22 2.23.24v2.04H8.72c.04-.82.17-1.6.36-2.28zm-3.23 3.28h1.87a11 11 0 0 0 .41 2.6c-.4.11-.8.25-1.14.41a5.9 5.9 0 0 1-1.14-3.01zm2.87 0h2.59v2.1c-.78.03-1.52.11-2.21.25-.2-.7-.34-1.5-.38-2.35zm3.59 0h2.59c-.04.85-.18 1.65-.39 2.36-.68-.14-1.43-.22-2.2-.25v-2.11zm3.58 0h1.88a5.9 5.9 0 0 1-1.15 3.04c-.35-.17-.73-.3-1.14-.43.23-.8.38-1.68.41-2.61zm-4.58 3.1v2.27c-.58-.2-1.14-.71-1.61-1.55-.1-.16-.18-.34-.26-.52.59-.11 1.21-.18 1.87-.2zm1 0c.65.03 1.28.1 1.86.2-.08.19-.16.36-.25.52-.47.84-1.03 1.36-1.61 1.55v-2.27zm-3.85.43a7.5 7.5 0 0 0 .71 1.3 5.97 5.97 0 0 1-1.49-1.03c.24-.1.5-.19.78-.27zm6.7.02c.27.08.52.17.76.27-.43.41-.93.76-1.47 1.02a5.9 5.9 0 0 0 .7-1.3z" fill="#fff" fill-rule="evenodd"/></svg>