<?xml version="1.0" encoding="UTF-8" standalone="no"?>
<svg
   xmlns:dc="http://purl.org/dc/elements/1.1/"
   xmlns:cc="http://creativecommons.org/ns#"
   xmlns:rdf="http://www.w3.org/1999/02/22-rdf-syntax-ns#"
   xmlns:svg="http://www.w3.org/2000/svg"
   xmlns="http://www.w3.org/2000/svg"
   xmlns:sodipodi="http://sodipodi.sourceforge.net/DTD/sodipodi-0.dtd"
   xmlns:inkscape="http://www.inkscape.org/namespaces/inkscape"
   fill="#000000"
   height="48"
   viewBox="0 0 48 48"
   width="48"
   version="1.1"
   id="svg4"
   sodipodi:docname="audio-volume-low-symbolic.svg"
   inkscape:version="0.92.3 (2405546, 2018-03-11)">
  <metadata
     id="metadata10">
    <rdf:RDF>
      <cc:Work
         rdf:about="">
        <dc:format>image/svg+xml</dc:format>
        <dc:type
           rdf:resource="http://purl.org/dc/dcmitype/StillImage" />
        <dc:title></dc:title>
      </cc:Work>
    </rdf:RDF>
  </metadata>
  <defs
     id="defs8" />
  <sodipodi:namedview
     pagecolor="#ffffff"
     bordercolor="#666666"
     borderopacity="1"
     objecttolerance="10"
     gridtolerance="10"
     guidetolerance="10"
     inkscape:pageopacity="0"
     inkscape:pageshadow="2"
     inkscape:window-width="1366"
     inkscape:window-height="668"
     id="namedview6"
     showgrid="false"
     inkscape:zoom="5.4469319"
     inkscape:cx="4.2954145"
     inkscape:cy="10.053115"
     inkscape:window-x="0"
     inkscape:window-y="31"
     inkscape:window-maximized="1"
     inkscape:current-layer="svg4"
     showguides="true"
     inkscape:guide-bbox="true"
     inkscape:snap-smooth-nodes="true" />
  <path
     style="opacity:1;fill:#cccccc;fill-opacity:1;fill-rule:nonzero;stroke:none;stroke-width:2.6540246;stroke-miterlimit:4;stroke-dasharray:none;stroke-opacity:1;paint-order:normal"
     d="m 12.961095,18.727189 c -0.313505,0.355069 -0.52535,0.697112 -0.620208,0.952969 a 14.196823,13.620302 41.445522 0 1 1.065241,-1.415185 14.196823,13.620302 41.445522 0 1 1.187168,-1.16691 c -0.236062,0.134948 -0.529216,0.379999 -0.822449,0.71215 z m 1.632201,-1.629126 c 0.179044,-0.102364 0.329278,-0.147207 0.398631,-0.08596 l 8.278879,7.310512 c 0.16079,0.141969 -0.125145,0.72647 -0.640845,1.310477 l -0.809753,0.916985 c -0.515663,0.584036 -1.060309,0.940075 -1.221096,0.798097 l -8.278883,-7.310516 c -0.06303,-0.05565 -0.04053,-0.192525 0.0206,-0.357513 a 14.196823,13.620302 41.445522 0 0 2.692142,18.192605 14.196823,13.620302 41.445522 0 0 19.657081,-0.813397 14.196823,13.620302 41.445522 0 0 -1.625549,-19.606634 14.196823,13.620302 41.445522 0 0 -18.47121,-0.354655 z"
     id="path817"
     inkscape:connector-curvature="0" />
  <path
     inkscape:connector-curvature="0"
     style="color:#000000;opacity:1;fill:#cccccc;stroke-width:3.50006557;fill-opacity:0.3019608"
     d="m 24.325622,2.122088 c -8.755766,0 -16.0906088,3.9374335 -21.7789629,10.180628 v 5.569105 H 7.1535313 C 11.880499,12.892149 17.169986,9.9969543 24.325622,9.9969543 c 7.155634,0 12.445119,3.0693477 17.172089,7.8748667 h 4.606873 V 12.433045 C 41.000838,6.6615549 33.081387,2.122088 24.325622,2.122088 Z"
     id="rect11714-5" />
  <path
     style="fill:#cccccc;fill-opacity:1;stroke:none;stroke-width:1px;stroke-linecap:butt;stroke-linejoin:miter;stroke-opacity:1"
     d="M 2.5466591,12.302716 C 3.2945055,11.482019 4.106142,10.682585 4.983805,9.90516 l 4.7464433,5.46179 C 8.8335619,16.164126 7.924798,16.949225 7.1535313,17.871821 H 2.5466591 Z"
     id="path900"
     inkscape:connector-curvature="0"
     sodipodi:nodetypes="cccccc" />
</svg>
