<?xml version="1.0" encoding="UTF-8" standalone="no"?>
<svg
   xmlns:dc="http://purl.org/dc/elements/1.1/"
   xmlns:cc="http://creativecommons.org/ns#"
   xmlns:rdf="http://www.w3.org/1999/02/22-rdf-syntax-ns#"
   xmlns:svg="http://www.w3.org/2000/svg"
   xmlns="http://www.w3.org/2000/svg"
   xmlns:sodipodi="http://sodipodi.sourceforge.net/DTD/sodipodi-0.dtd"
   xmlns:inkscape="http://www.inkscape.org/namespaces/inkscape"
   fill="#000000"
   height="48"
   viewBox="0 0 48 48"
   width="48"
   version="1.1"
   id="svg4"
   sodipodi:docname="battery-missing-symbolic.svg"
   inkscape:version="0.92.3 (2405546, 2018-03-11)">
  <metadata
     id="metadata10">
    <rdf:RDF>
      <cc:Work
         rdf:about="">
        <dc:format>image/svg+xml</dc:format>
        <dc:type
           rdf:resource="http://purl.org/dc/dcmitype/StillImage" />
        <dc:title></dc:title>
      </cc:Work>
    </rdf:RDF>
  </metadata>
  <defs
     id="defs8" />
  <sodipodi:namedview
     pagecolor="#ffffff"
     bordercolor="#666666"
     borderopacity="1"
     objecttolerance="10"
     gridtolerance="10"
     guidetolerance="10"
     inkscape:pageopacity="0"
     inkscape:pageshadow="2"
     inkscape:window-width="1366"
     inkscape:window-height="672"
     id="namedview6"
     showgrid="false"
     inkscape:zoom="7.0121422"
     inkscape:cx="24"
     inkscape:cy="24"
     inkscape:window-x="0"
     inkscape:window-y="27"
     inkscape:window-maximized="1"
     inkscape:current-layer="svg4"
     showguides="true"
     inkscape:guide-bbox="true"
     inkscape:snap-to-guides="true" />
  <path
     style="fill:#cccccc;fill-opacity:1"
     d="M 27.115234 4 L 14 4 L 14 4 L 14 26 L 20 26 L 20 44 L 34 20 L 26 20 L 27.115234 17.769531 "
     id="path823" />
  <path
     style="fill:#cccccc;fill-opacity:1"
     d="m 33.548375,0.83334329 c 2.885711,0 5.232421,2.34866431 5.232421,5.23437461 0,2.434134 -1.671088,4.4859441 -3.925781,5.0683601 v 2.126953 c 0,0.722604 -0.584035,1.308594 -1.30664,1.308594 -0.722606,0 -1.308594,-0.58599 -1.308594,-1.308594 V 9.9934999 c 0,-0.722606 0.585988,-1.308594 1.308594,-1.308594 1.442855,0 2.615234,-1.174331 2.615234,-2.617188 0,-1.4428549 -1.172379,-2.6171871 -2.615234,-2.6171871 -1.442856,0 -2.617188,1.1743322 -2.617188,2.6171871 0,0.722606 -0.585988,1.308594 -1.308594,1.308594 -0.722605,0 -1.308593,-0.585988 -1.308593,-1.308594 0,-2.8857103 2.348663,-5.23437461 5.234375,-5.23437461 z"
     id="path814"
     inkscape:connector-curvature="0" />
  <path
     style="fill:#cccccc;fill-opacity:1"
     d="m 33.548375,15.554047 a 1.6354461,1.6354461 0 0 1 1.634765,1.634765 1.6354461,1.6354461 0 0 1 -1.634765,1.634766 1.6354461,1.6354461 0 0 1 -1.636719,-1.634766 1.6354461,1.6354461 0 0 1 1.636719,-1.634765 z"
     id="path2"
     inkscape:connector-curvature="0" />
</svg>
