<?xml version="1.0" encoding="UTF-8" standalone="no"?>
<svg
   xmlns:dc="http://purl.org/dc/elements/1.1/"
   xmlns:cc="http://creativecommons.org/ns#"
   xmlns:rdf="http://www.w3.org/1999/02/22-rdf-syntax-ns#"
   xmlns:svg="http://www.w3.org/2000/svg"
   xmlns="http://www.w3.org/2000/svg"
   xmlns:sodipodi="http://sodipodi.sourceforge.net/DTD/sodipodi-0.dtd"
   xmlns:inkscape="http://www.inkscape.org/namespaces/inkscape"
   fill="#000000"
   height="48"
   viewBox="0 0 48 48"
   width="48"
   version="1.1"
   id="svg4"
   sodipodi:docname="microphone-sensitivity-medium-symbolic.svg"
   inkscape:version="0.92.3 (2405546, 2018-03-11)">
  <metadata
     id="metadata10">
    <rdf:RDF>
      <cc:Work
         rdf:about="">
        <dc:format>image/svg+xml</dc:format>
        <dc:type
           rdf:resource="http://purl.org/dc/dcmitype/StillImage" />
        <dc:title></dc:title>
      </cc:Work>
    </rdf:RDF>
  </metadata>
  <defs
     id="defs8">
    <clipPath
       clipPathUnits="userSpaceOnUse"
       id="clipPath6810-7-87">
      <rect
         height="11"
         id="rect6812-2-4"
         style="color:#bebebe;display:inline;overflow:visible;visibility:visible;fill:none;stroke:#ffffff;stroke-width:2;stroke-linecap:round;stroke-linejoin:round;stroke-miterlimit:4;stroke-dasharray:none;stroke-dashoffset:0;stroke-opacity:1;marker:none"
         width="14"
         x="21"
         y="281" />
    </clipPath>
  </defs>
  <sodipodi:namedview
     pagecolor="#ffffff"
     bordercolor="#666666"
     borderopacity="1"
     objecttolerance="10"
     gridtolerance="10"
     guidetolerance="10"
     inkscape:pageopacity="0"
     inkscape:pageshadow="2"
     inkscape:window-width="1366"
     inkscape:window-height="668"
     id="namedview6"
     showgrid="false"
     inkscape:zoom="4.8179195"
     inkscape:cx="-6.408399"
     inkscape:cy="33.028175"
     inkscape:window-x="0"
     inkscape:window-y="31"
     inkscape:window-maximized="1"
     inkscape:current-layer="svg4"
     showguides="true"
     inkscape:guide-bbox="true" />
  <rect
     style="opacity:1;fill:#cccccc;fill-opacity:1;fill-rule:nonzero;stroke:none;stroke-width:3.5;stroke-miterlimit:4;stroke-dasharray:none;stroke-opacity:1;paint-order:normal"
     id="rect812"
     width="12.738917"
     height="23.051374"
     x="17.692942"
     y="11.435841"
     ry="6.3694587"
     rx="6.3694587" />
  <path
     style="opacity:1;fill:#cccccc;fill-opacity:1;fill-rule:nonzero;stroke:none;stroke-width:3.88139367;stroke-miterlimit:4;stroke-dasharray:none;stroke-opacity:1;paint-order:normal"
     d="m 22.646484,36.8125 c -0.336064,0 -0.605468,0.271357 -0.605468,0.607422 v 8.03125 h -8.189454 c -0.336064,0 -0.607421,0.269404 -0.607421,0.605469 v 0.708984 c 0,0.336065 0.271357,0.605469 0.607421,0.605469 H 34.375 c 0.336065,0 0.607422,-0.269404 0.607422,-0.605469 v -0.708984 c 0,-0.336065 -0.271357,-0.605469 -0.607422,-0.605469 h -8.087891 v -8.03125 c 0,-0.336065 -0.271357,-0.607422 -0.607421,-0.607422 z"
     id="rect816"
     inkscape:connector-curvature="0" />
  <path
     clip-path="url(#clipPath6810-7-87)"
     inkscape:connector-curvature="0"
     d="m 27.96875,273.625 c -2.502477,0 -4.53125,2.02877 -4.53125,4.53125 v 5.8125 c 0,2.50248 2.028773,4.53125 4.53125,4.53125 2.502477,0 4.53125,-2.02877 4.53125,-4.53125 v -5.8125 c 0,-2.50248 -2.028773,-4.53125 -4.53125,-4.53125 z m 0,2.34402 c 1.964148,0 3.53125,0.22308 3.53125,2.18723 v 5.8125 c 0,0 -1.637972,2.58088 -3.60212,2.58088 -1.964148,0 -3.46038,-2.58088 -3.46038,-2.58088 v -5.8125 c 0,-1.96415 1.567102,-2.18723 3.53125,-2.18723 z"
     id="rect12329"
     style="color:#bebebe;font-style:normal;font-variant:normal;font-weight:normal;font-stretch:normal;font-size:medium;line-height:normal;font-family:Sans;-inkscape-font-specification:Sans;text-indent:0;text-align:start;text-decoration:none;text-decoration-line:none;letter-spacing:normal;word-spacing:normal;text-transform:none;writing-mode:lr-tb;direction:ltr;baseline-shift:baseline;text-anchor:start;display:inline;overflow:visible;visibility:visible;fill:#cccccc;fill-opacity:1;stroke:none;stroke-width:1.00302994;marker:none;enable-background:accumulate"
     transform="matrix(2.0709268,0,0,1.0037987,-34.035067,-251.68241)"
     sodipodi:nodetypes="ssssssssscscss" />
  <path
     inkscape:connector-curvature="0"
     style="color:#000000;fill:#cccccc;stroke-width:1.74173224;fill-opacity:0.3019608"
     d="M 44.30418,11.65119 C 42.589669,7.0592443 39.52169,3.821734 35.820592,1.8044909 l -2.307885,0.861703 0.902096,2.4160664 c 2.98923,1.7085499 5.224784,4.0346416 6.625966,7.7874017 1.401181,3.752759 1.164979,7.00174 0.09914,10.224344 l 0.902096,2.416066 2.253874,-0.841537 c 1.392364,-3.569668 1.722809,-8.425399 0.0083,-13.017345 z"
     id="rect11714" />
  <path
     inkscape:connector-curvature="0"
     style="color:#000000;fill:#cccccc;stroke-width:1.74173224"
     d="m 37.154682,14.50325 c -1.31997,-3.535253 -3.654477,-6.109039 -6.30959,-6.9400565 l -1.631705,0.6092357 1.218471,3.2634118 c 1.470215,0.917543 2.70329,2.260771 3.459413,4.285881 0.756122,2.02511 0.710094,3.861129 0.196001,5.504352 l 1.218472,3.263412 1.631705,-0.609236 c 1.389358,-2.368223 1.512834,-5.907014 0.217233,-9.377 z"
     id="rect11703" />
  <path
     inkscape:connector-curvature="0"
     style="color:#000000;fill:#cccccc;stroke-width:1.74173224;fill-opacity:0.3019608"
     d="M 3.82062,11.65119 C 5.535131,7.0592446 8.60311,3.8217336 12.304208,1.8044906 l 2.307885,0.861703 -0.902096,2.416067 c -2.98923,1.708549 -5.224784,4.034641 -6.625966,7.7874014 -1.401181,3.752759 -1.164979,7.00174 -0.09914,10.224344 L 6.082795,25.510072 3.828921,24.668535 C 2.436557,21.098867 2.106112,16.243136 3.820621,11.65119 Z"
     id="rect11714-6" />
  <path
     inkscape:connector-curvature="0"
     style="color:#000000;fill:#cccccc;stroke-width:1.74173224"
     d="m 10.970118,14.50325 c 1.31997,-3.535253 3.654477,-6.1090394 6.30959,-6.9400564 l 1.631705,0.609235 -1.218471,3.2634124 c -1.470215,0.917543 -2.70329,2.260771 -3.459413,4.285881 -0.756122,2.02511 -0.710094,3.861129 -0.196001,5.504352 l -1.218472,3.263412 -1.631705,-0.609236 c -1.389358,-2.368223 -1.512834,-5.907014 -0.217233,-9.377 z"
     id="rect11703-7" />
</svg>
