<svg xmlns="http://www.w3.org/2000/svg" xmlns:xlink="http://www.w3.org/1999/xlink" width="48" height="48" viewBox="0 0 12.7 12.7"><defs><linearGradient id="a"><stop offset="0" stop-color="#216778"/><stop offset="1" stop-color="#5fbcd3"/></linearGradient><linearGradient xlink:href="#a" id="e" x1="6.34" y1="293.99" x2="6.23" y2="284.36" gradientUnits="userSpaceOnUse"/><linearGradient id="b"><stop offset="0" stop-color="#fff"/><stop offset="1" stop-color="#fff" stop-opacity="0"/></linearGradient><linearGradient id="c"><stop offset="0"/><stop offset="1" stop-opacity="0"/></linearGradient><linearGradient id="d"><stop offset="0" stop-color="#f5f5f5"/><stop offset="1" stop-color="#d2d2d2"/></linearGradient></defs><path d="M6.23 284.36c-1.52.01-3.09.72-4.73 2.31V294h9.69v-7.32c-1.6-1.46-3.24-2.33-4.96-2.31z" fill="url(#e)" transform="translate(0 -284.3)"/><path fill="#164450" d="M1.03 9.68h10.7v1.27H1.03z"/><path fill="#216778" d="M-.03 10.93h12.76v1.76H-.03z"/><path d="M2.74 1.33h-.02c-.4.3-.81.64-1.22 1.04v7.31h-.47v1.25H-.03v1.77h3.4v-1.77h-.4V9.68h-.23zm7.14 0v8.35h-.1v1.25h-.44v1.77h3.39v-1.77h-1V9.68h-.54V2.37c-.43-.4-.87-.74-1.31-1.04z" opacity=".5"/><path d="M6.32 2.34h-.18c-.12.03-.31.08-.41.13a1.4 1.4 0 0 0-.66.64c-.11.23-.1.2-.11 1.21v.9h.46v-.85c0-.94 0-.94.08-1.1.06-.12.22-.27.34-.34l.2-.09c.1-.03.13-.04.31-.04s.22 0 .32.04c.28.1.5.3.58.54.03.08.03.13.04.34 0 .23 0 .24.04.26.11.1.12.11.06.16-.1.08-.1.09-.1.2 0 .08 0 .1.03.13.04.03.05.03.2.03.15 0 .16 0 .2-.03l.03-.04V4c0-.5-.01-.61-.08-.8a1.14 1.14 0 0 0-.26-.4 1.36 1.36 0 0 0-1.08-.45zm-.87 2.95c-.69 0-.74 0-.77.02a.2.2 0 0 0-.08.07c-.02.05-.02.12-.02 1.53 0 1.65-.01 1.54.1 1.6l.05.03h1.62c1.6 0 1.63 0 1.68-.03a.26.26 0 0 0 .07-.07c.03-.04.03-.07.03-1.52 0-1.61 0-1.52-.08-1.6l-.04-.03H5.45zm.9.69c.05 0 .1 0 .16.03.14.06.23.23.21.38a.4.4 0 0 1-.12.24l-.05.05v.3c0 .35 0 .37-.09.43a.18.18 0 0 1-.1.03.18.18 0 0 1-.18-.1c-.02-.03-.02-.06-.02-.35v-.31l-.06-.05a.38.38 0 0 1-.03-.52.36.36 0 0 1 .27-.13z" fill="#1c1f24"/></svg>