<svg xmlns="http://www.w3.org/2000/svg" width="48" height="48"><defs><filter id="a" x="-.06" width="1.11" y="-.06" height="1.13" color-interpolation-filters="sRGB"><feGaussianBlur stdDeviation=".73"/></filter></defs><path d="M24 .35c-5.83 0-10.52 1.12-13.93 3.33-4.1 2.66-6.27 6.9-6.27 12.27 0 7.23 5.8 16.88 7.58 19.67a54.48 54.48 0 0 0 6.25 8.16c2.54 2.64 4.57 3.87 6.37 3.87 1.8 0 3.83-1.23 6.37-3.87 2-2.08 4.22-4.97 6.25-8.16 1.78-2.79 7.58-12.44 7.58-19.67 0-5.37-2.16-9.61-6.26-12.27C34.52 1.47 29.84.35 24 .35z" fill="#5d536c"/><path d="M34.1 29.68c.84-1.58 1.98-2.51 2.6-3.6.82-1.47 2.37-5.56 1.2-8.87.54 2.07.37 4.17-1.34 5.23.55-1.46.9-4.66.33-7.54-.37-1.87-1.54-3.55-2.3-4.07.7.52 1.26 2.41 1.25 3.28a12.53 12.53 0 0 0-7.5-5.85c2.81 1.86 3.87 3.44 4.53 4.84-.75-.77-2.04-1.57-2.91-1.64 1.3.97 3.49 3.86 3.26 8.23a8.8 8.8 0 0 0-1.39-2.2c.47 4.3.06 5.22-.22 6.36-.07-.53-.25-.92-.36-1.16 0 0-.05 1.34-.93 3.25-.65 1.45-1.34 1.9-1.64 1.84-.08 0-.12-.04-.12-.04.02-.19.04-.38-.01-.5 0 0-.28.09-.46.34-.07.1-.17.2-.29.3-.02.01.2-.29.18-.27l-.34.31c-.42.44-.8.93-1.01.8.19-.06.34-.3.38-.53-.17.12-.6.43-1.55.58-.4.05-2.06.36-4.27-.75.32-.04.8-.15 1.17.07-.36-.4-1.25-.32-1.89-.52-.55-.18-1.28-.96-1.7-1.35a6 6 0 0 0 4.56-.6c1.06-.72 1.68-1.25 2.24-1.12.56.12.94-.44.5-.94a2.93 2.93 0 0 0-2.93-.81c-1.1.27-2.03 1.15-3.58.54a3.8 3.8 0 0 1-.29-.13c-.1-.05.33.06.22 0-.3-.11-.83-.36-.97-.45-.02-.02.23.04.2.03-1.46-.87-1.37-1.56-1.37-2 0-.34.21-.8.6-1.02.21.08.34.15.34.15l-.16-.23.05-.01c.17.06.56.2.76.3.26.13.35.27.35.27s.06-.04 0-.17a.95.95 0 0 0-.39-.39h.02l.44.22c.06-.24.16-.48.09-.9-.05-.3-.04-.38-.12-.5-.06-.08.02-.13.12-.04a1.32 1.32 0 0 0-.1-.22c.08-.38 2.29-1.53 2.45-1.65.23-.17.46-.43.6-.73.11-.2.2-.47.17-.86-.01-.28-.18-.46-2.53-.44a1.6 1.6 0 0 1-1.32-.72l-.13-.22-.13-.26c.29-1.02.85-1.9 1.73-2.62.05-.04-.21.03-.16-.02.06-.05.43-.23.5-.27.09-.05-.4-.18-.83-.1-.42.1-.5.14-.73.26.1-.1.38-.24.31-.22-.46.1-1 .4-1.47.73l.01-.14c-.22.11-.74.52-.88.83v-.18c-.16.14-.3.3-.43.48a6.32 6.32 0 0 0-3.52.06c-.23-.17-.6-.43-1.2-1.34-.03-.05-.04.13-.07.07a4.22 4.22 0 0 1-.45-1.64s-.38.22-.62 1l-.11.3c-.01.02.02-.25 0-.23-.04.1-.18.25-.22.43-.03.13-.09.2-.1.37l-.01.01c0-.04 0-.19-.02-.16a8.78 8.78 0 0 0-.46 3.42v.24c-.36.5-.6.95-.7 1.16-.45.88-.9 2.23-1.28 4.33 0 0 .25-.79.75-1.68a14.84 14.84 0 0 0-.49 5.52c0-.09.09-.76.28-1.65.1 1.75.51 3.9 1.88 6.24 1.04 1.78 3.78 5.91 10.65 7.46-.75-.22-1.22-.65-1.22-.65s2.57.82 4.44.75c-.59-.1-.7-.38-.7-.38s6.66.37 8.96-2.77c-.79.92-2.78 1.18-3.54 1.2 1.15-1.06 3.7-1.04 6.44-3.75 1.5-1.48 1.67-2.61 1.84-3.67-.26 1.39-1.57 2.22-2.95 2.97z" opacity=".8" filter="url(#a)"/><path d="M23.95 33.19a14.66 14.66 0 1 0 0-29.33 14.66 14.66 0 0 0 0 29.33z" fill="#80b3ff"/><path d="M38.09 14.85a15.1 15.1 0 0 0-.63-2.04 14.63 14.63 0 0 0-3.14-4.66c-.53-.53-1.12-.98-1.72-1.42.52.67.96 1.31 1.24 1.9-.76-.76-2.05-1.57-2.92-1.63 1.3.97 3.5 3.85 3.26 8.22a8.8 8.8 0 0 0-1.38-2.2c.47 4.3.06 5.22-.23 6.36-.06-.52-.25-.92-.36-1.16 0 0-.05 1.35-.92 3.26-.66 1.44-1.34 1.89-1.64 1.84-.08 0-.13-.04-.13-.04.03-.2.04-.39 0-.51 0 0-.28.1-.46.35-.08.1-.17.2-.3.29l.19-.27-.34.31c-.43.45-.81.94-1.01.8.18-.06.33-.3.37-.53-.17.12-.6.44-1.55.58-.39.06-2.05.36-4.26-.75.32-.03.8-.15 1.17.07-.37-.4-1.26-.32-1.9-.52-.55-.17-1.27-.95-1.69-1.35 1.7.42 3.51.12 4.55-.6 1.06-.72 1.69-1.25 2.25-1.12.56.13.93-.44.5-.94a2.93 2.93 0 0 0-2.93-.81c-1.1.27-2.04 1.16-3.58.54a3.8 3.8 0 0 1-.29-.12c-.1-.05.32.05.22 0-.3-.12-.84-.36-.97-.46-.02-.01.22.05.2.03-1.47-.87-1.37-1.56-1.37-1.99 0-.34.2-.8.6-1.02.2.07.34.14.34.14l-.16-.22.04-.02c.18.06.56.2.76.3.27.14.36.28.36.28s.06-.04 0-.18a.95.95 0 0 0-.4-.38h.02c.14.05.29.12.45.21.05-.23.15-.48.08-.9-.04-.3-.04-.38-.11-.49-.07-.1.02-.13.11-.05a1.3 1.3 0 0 0-.1-.22c.09-.37 2.3-1.53 2.46-1.65.23-.17.46-.43.6-.73.11-.2.19-.47.17-.86-.02-.28-.19-.45-2.54-.43-.64 0-1.06-.37-1.31-.73a8.67 8.67 0 0 1-.26-.47 5.1 5.1 0 0 1 1.72-2.63c.05-.04-.2.04-.16-.01.06-.06.43-.24.5-.27.1-.06-.4-.19-.82-.1-.43.09-.51.14-.73.25.09-.09.38-.24.3-.22-.45.1-1 .4-1.46.73v-.14c-.21.11-.74.52-.87.83l-.01-.18c-.15.14-.3.3-.43.48v.01a6.3 6.3 0 0 0-3.24 0c-.2.2-.45.34-.64.54a14.74 14.74 0 0 0-4 7.41 14.8 14.8 0 0 0-.27 2.67 13.3 13.3 0 0 0 1.81 5.82c1.04 1.78 3.78 5.92 10.66 7.47-.76-.22-1.23-.66-1.23-.66s2.57.83 4.44.76c-.58-.1-.7-.39-.7-.39s6.66.38 8.97-2.77c-.8.93-2.79 1.19-3.54 1.2 1.15-1.06 3.69-1.04 6.44-3.74a6.18 6.18 0 0 0 1.36-1.9c.08-.22.12-.45.2-.67.1-.37.22-.75.27-1.1-.25 1.38-1.57 2.2-2.94 2.96.84-1.58 1.98-2.5 2.6-3.6.27-.48.58-1.53.88-2.45.01-.22.07-.42.07-.64 0-.5-.1-.97-.15-1.45a3.2 3.2 0 0 1-.93.9 12 12 0 0 0 .56-3.12z" opacity=".26"/><path d="M24 .35c-5.83 0-10.52 1.12-13.93 3.33-4.1 2.66-6.27 6.9-6.27 12.27 0 7.23 5.8 16.88 7.58 19.67a54.48 54.48 0 0 0 6.25 8.16c2.54 2.64 4.57 3.87 6.37 3.87 1.8 0 3.83-1.23 6.37-3.87 2-2.08 4.22-4.97 6.25-8.16 1.78-2.79 7.59-12.44 7.59-19.67 0-5.37-2.17-9.61-6.27-12.27C34.52 1.47 29.84.35 24 .35zm0 .14c2.11.09 4.12.27 5.88.7a22 22 0 0 1 3.26 1.03c1.01.42 1.94.9 2.8 1.46A12.9 12.9 0 0 1 40.6 8.8c.53 1.03.92 2.15 1.2 3.34.26 1.2.4 2.47.4 3.8 0 1.82-.37 3.77-.94 5.74a43.2 43.2 0 0 1-2.2 5.77 69.59 69.59 0 0 1-4.45 8.17 54.47 54.47 0 0 1-6.25 8.16 17.98 17.98 0 0 1-3.46 2.93c-.32.2-.62.3-.9.39-.3-.08-.6-.2-.92-.4-1.05-.63-2.2-1.6-3.46-2.92-2-2.08-4.22-4.97-6.25-8.16-.89-1.4-2.78-4.5-4.46-8.17a43.2 43.2 0 0 1-2.19-5.77 20.93 20.93 0 0 1-.93-5.73c0-1.34.13-2.61.4-3.8.27-1.2.67-2.32 1.2-3.35a12.92 12.92 0 0 1 4.67-5.12c.85-.56 1.78-1.04 2.8-1.46a22 22 0 0 1 3.26-1.04C19.88.76 21.89.58 24 .5z" opacity=".3" fill="#280b0b"/><path d="M35.46 27.37c.85-1.6 2.01-2.54 2.64-3.66.84-1.49 2.41-5.66 1.22-9.03.55 2.1.38 4.26-1.36 5.32.57-1.48.92-4.74.34-7.67-.38-1.9-1.57-3.61-2.35-4.14.72.54 1.29 2.46 1.28 3.34a12.75 12.75 0 0 0-7.64-5.96c2.87 1.9 3.94 3.5 4.62 4.94-.77-.78-2.08-1.6-2.97-1.67 1.33.99 3.56 3.92 3.32 8.37a8.96 8.96 0 0 0-1.4-2.24c.47 4.37.05 5.3-.24 6.47-.06-.53-.25-.94-.36-1.18 0 0-.06 1.36-.94 3.3-.67 1.48-1.36 1.94-1.67 1.89-.1 0-.13-.04-.13-.05.02-.18.04-.39 0-.51 0 0-.3.1-.48.35-.07.1-.16.2-.3.3-.02.01.2-.28.2-.27l-.35.31c-.44.46-.83.96-1.04.82.2-.07.35-.3.4-.54-.18.12-.62.44-1.59.59-.4.06-2.08.36-4.34-.77.33-.03.82-.15 1.2.07-.38-.4-1.28-.32-1.94-.52-.56-.19-1.3-.97-1.73-1.38 1.74.43 3.59.12 4.65-.6 1.07-.74 1.7-1.28 2.29-1.15.57.12.94-.45.5-.96a2.98 2.98 0 0 0-2.98-.82c-1.12.27-2.07 1.18-3.64.55a3.87 3.87 0 0 1-.3-.13c-.1-.04.33.06.23 0-.3-.1-.86-.36-.99-.46-.03-.01.22.05.2.03-1.5-.89-1.4-1.59-1.4-2.03 0-.34.21-.81.61-1.03.22.07.36.14.36.14l-.17-.22.04-.03c.18.07.57.2.78.31.27.14.36.27.36.27s.06-.04 0-.17a.97.97 0 0 0-.4-.38H20a3 3 0 0 1 .45.2c.06-.23.16-.48.09-.9-.05-.31-.04-.4-.12-.5-.07-.1.01-.14.12-.06a1.34 1.34 0 0 0-.1-.22c.09-.38 2.34-1.56 2.5-1.68.22-.17.47-.44.6-.74.11-.2.2-.48.17-.88 0-.28-.18-.46-2.57-.45a1.6 1.6 0 0 1-1.34-.73l-.14-.22c-.06-.1-.1-.2-.12-.27a5.13 5.13 0 0 1 1.75-2.66c.05-.04-.21.03-.16-.01.06-.06.43-.25.5-.28.1-.06-.4-.2-.84-.1-.43.1-.5.14-.73.25.09-.1.37-.24.3-.22-.46.1-1.01.4-1.48.74V8.3c-.22.11-.76.53-.89.85v-.19c-.16.14-.31.3-.45.5a6.43 6.43 0 0 0-3.58.05c-.23-.17-.6-.43-1.22-1.36-.03-.05-.03.13-.07.07a4.3 4.3 0 0 1-.45-1.66s-.39.22-.64 1.02l-.1.3c-.02.01 0-.26 0-.24-.05.1-.18.25-.24.44-.03.13-.08.21-.1.38 0-.03 0-.18-.02-.15-.11.3-.22.63-.3 1a9.02 9.02 0 0 0-.18 2.47l.01.25c-.37.51-.6.96-.7 1.19-.47.88-.94 2.27-1.32 4.4 0 0 .25-.81.76-1.73a15.1 15.1 0 0 0-.49 5.63c0-.09.09-.76.29-1.68.1 1.78.5 3.97 1.9 6.35 1.06 1.81 3.85 6.03 10.84 7.6a3.26 3.26 0 0 1-1.24-.67s2.61.85 4.52.78c-.6-.1-.71-.4-.71-.4s6.77.39 9.11-2.82c-.79.95-2.82 1.21-3.59 1.22 1.17-1.08 3.75-1.06 6.55-3.8 1.53-1.52 1.7-2.67 1.87-3.74-.26 1.4-1.6 2.24-3 3.01z" fill="#04a"/></svg>