<svg xmlns="http://www.w3.org/2000/svg" xmlns:xlink="http://www.w3.org/1999/xlink" width="48" height="48"><defs><linearGradient id="e"><stop stop-color="#00f" offset="0"/><stop stop-color="teal" offset=".51"/><stop stop-color="#0ff" offset="1"/></linearGradient><linearGradient id="g"><stop offset="0"/><stop offset="1" stop-opacity="0"/></linearGradient><linearGradient id="d"><stop offset="0" stop-color="#67536c"/><stop offset=".51" stop-color="#a793ac"/><stop offset="1" stop-color="#e2dbe3"/></linearGradient><linearGradient id="c"><stop offset="0"/><stop offset="1" stop-opacity="0"/></linearGradient><linearGradient id="b" gradientUnits="userSpaceOnUse" x1="-84" y1="-384" x2="-23.52" y2="-384" gradientTransform="rotate(90 -90 50)"><stop offset="0" stop-color="#d2faff"/><stop offset="1" stop-color="#fff" stop-opacity="0"/></linearGradient><radialGradient id="a" cx="56.02" cy="45.24" r="71.35" gradientTransform="rotate(15 45.7 -303.33) scale(1.0326)" gradientUnits="userSpaceOnUse"><stop offset="0" stop-color="#bfebff"/><stop offset=".07" stop-color="#9fdfff"/><stop offset=".18" stop-color="#78d1ff"/><stop offset=".28" stop-color="#5ac6ff"/><stop offset=".38" stop-color="#44beff"/><stop offset=".48" stop-color="#37baff"/><stop offset=".57" stop-color="#33b8ff"/><stop offset=".8" stop-color="#1690e3"/><stop offset="1" stop-color="#0063b4"/></radialGradient><linearGradient gradientTransform="matrix(1.25 0 0 1.25 4 -7.5)" xlink:href="#f" id="i" gradientUnits="userSpaceOnUse" y1="30" x2="0" y2="14"/><linearGradient id="f" y1="30" y2="14" x2="0" gradientUnits="userSpaceOnUse"><stop stop-color="#c2d4e7"/><stop offset="1" stop-color="#e0e3f7"/></linearGradient><linearGradient xlink:href="#g" id="h" gradientUnits="userSpaceOnUse" x1="8.78" y1="12.28" x2="46.97" y2="39.11"/></defs><path d="M24 .35c-5.82 0-10.5 1.1-13.92 3.32C5.98 6.34 3.8 10.6 3.8 15.96c0 7.21 5.8 16.87 7.58 19.66a54.48 54.48 0 0 0 6.24 8.17c2.54 2.63 4.57 3.86 6.37 3.86 1.8 0 3.84-1.23 6.38-3.87 2-2.08 4.22-4.98 6.25-8.16 1.78-2.78 7.59-12.44 7.59-19.66 0-5.38-2.18-9.63-6.28-12.28C34.54 1.45 29.84.34 24 .34z" fill="#08a"/><path d="M31.41 42.41a54.6 54.6 0 0 0 5.2-6.8c.9-1.39 2.8-4.5 4.47-8.17.56-1.23 1-2.57 1.47-3.89L29 10l-1.3 6.2-6.2-6.2-1.46 5.84L14 17.5l6.06 6.06L14 25z" fill="url(#h)"/><path d="M24 .35c-5.83 0-10.52 1.13-13.93 3.33-4.1 2.67-6.27 6.9-6.27 12.27 0 7.24 5.8 16.88 7.58 19.68a54.48 54.48 0 0 0 6.25 8.15c2.54 2.64 4.57 3.87 6.37 3.87 1.8 0 3.83-1.23 6.37-3.87 2-2.08 4.22-4.97 6.25-8.16 1.78-2.78 7.58-12.43 7.58-19.66 0-5.38-2.17-9.62-6.27-12.28C34.53 1.48 29.84.35 24 .35zm0 .15c2.1.08 4.12.27 5.88.7 1.16.26 2.25.61 3.26 1.02 1 .42 1.93.9 2.8 1.46a12.92 12.92 0 0 1 4.65 5.13c.53 1.02.92 2.14 1.2 3.33.27 1.2.4 2.47.4 3.8 0 1.83-.36 3.78-.93 5.75a43.19 43.19 0 0 1-2.2 5.77 69.59 69.59 0 0 1-4.46 8.17 54.47 54.47 0 0 1-6.25 8.15 17.98 17.98 0 0 1-3.46 2.93c-.32.2-.62.3-.9.4-.3-.09-.6-.2-.9-.4-1.07-.64-2.2-1.6-3.48-2.93-2-2.08-4.22-4.97-6.25-8.16a69.6 69.6 0 0 1-4.46-8.16 43.19 43.19 0 0 1-2.19-5.78 20.93 20.93 0 0 1-.93-5.73c0-1.34.13-2.6.4-3.8.27-1.2.67-2.32 1.2-3.35a12.92 12.92 0 0 1 4.67-5.12 17.1 17.1 0 0 1 2.8-1.46c1-.4 2.1-.76 3.27-1.04C19.88.76 21.89.58 24 .5z" opacity=".2"/><path d="M19 10v5h-5v2.5h5v5h-5V25h5v5h2.5v-5h5v5H29v-5h5v-2.5h-5v-5h5V15h-5v-5h-2.5v5h-5v-5zm2.5 7.5h5v5h-5z" fill="url(#i)"/></svg>