<svg xmlns="http://www.w3.org/2000/svg" xmlns:xlink="http://www.w3.org/1999/xlink" width="48" height="48"><defs><linearGradient id="e"><stop offset="0"/><stop offset="1" stop-opacity="0"/></linearGradient><linearGradient id="a"><stop offset="0"/><stop offset="1" stop-opacity="0"/></linearGradient><linearGradient id="b"><stop offset="0" stop-color="#f6845d"/><stop offset=".26" stop-color="#e7341e"/><stop offset="1" stop-color="#cb121b"/></linearGradient><linearGradient id="c"><stop offset="0" stop-color="#b20909"/><stop offset="1" stop-color="#d71f1f"/></linearGradient><linearGradient id="d"><stop offset="0" stop-color="#a81212"/><stop offset="1" stop-color="#8e1414"/></linearGradient><linearGradient xlink:href="#e" id="f" gradientUnits="userSpaceOnUse" x1="-.81" y1="1.06" x2="59.3" y2="43.28"/></defs><path d="M23.71.5C17.88.5 13.2 1.6 9.78 3.82 5.68 6.48 3.5 10.73 3.5 16.1c0 7.22 5.8 16.88 7.58 19.67a54.48 54.48 0 0 0 6.25 8.16c2.54 2.64 4.57 3.87 6.37 3.87 1.8 0 3.83-1.23 6.37-3.87 2-2.08 4.22-4.98 6.25-8.16 1.78-2.79 7.59-12.45 7.59-19.67 0-5.37-2.17-9.62-6.27-12.27C34.24 1.6 29.55.49 23.7.49z" fill="#08a"/><path d="M23.71.35C17.88.35 13.2 1.47 9.78 3.68c-4.1 2.66-6.27 6.9-6.27 12.27 0 7.23 5.8 16.89 7.58 19.68a54.48 54.48 0 0 0 6.25 8.15c2.54 2.65 4.57 3.88 6.37 3.88 1.8 0 3.83-1.23 6.37-3.88 2-2.07 4.22-4.97 6.25-8.15 1.78-2.8 7.59-12.45 7.59-19.68 0-5.37-2.17-9.61-6.27-12.27C34.24 1.47 29.55.35 23.7.35zm0 .14c2.12.09 4.12.28 5.88.7 1.16.27 2.25.62 3.26 1.04 1.01.41 1.95.9 2.8 1.45a12.92 12.92 0 0 1 4.67 5.12 14.1 14.1 0 0 1 1.2 3.34c.26 1.2.4 2.47.4 3.81 0 1.81-.37 3.77-.94 5.73a43.19 43.19 0 0 1-2.19 5.78 69.59 69.59 0 0 1-4.46 8.17 54.47 54.47 0 0 1-6.25 8.15 17.98 17.98 0 0 1-3.46 2.93c-.32.2-.62.3-.9.4-.3-.1-.6-.2-.92-.4a17.72 17.72 0 0 1-3.46-2.93 54.5 54.5 0 0 1-6.25-8.15 69.6 69.6 0 0 1-4.46-8.17 43.19 43.19 0 0 1-2.19-5.78 20.93 20.93 0 0 1-.93-5.73c0-1.34.13-2.61.4-3.8.27-1.2.67-2.32 1.2-3.35a12.92 12.92 0 0 1 4.67-5.12 17.1 17.1 0 0 1 2.8-1.45c1-.42 2.1-.77 3.26-1.04C19.59.77 21.6.58 23.7.49z" opacity=".2"/><path d="M28.92 44.74c.4-.36.72-.53 1.14-.96 2-2.08 4.22-4.98 6.25-8.16.9-1.4 2.79-4.5 4.46-8.17.84-1.84 1.62-3.8 2.2-5.77.57-1.97.93-3.93.93-5.73 0-.85-.15-1.62-.26-2.4l-5.4-5.42L8.77 24.6z" opacity=".57" fill="url(#f)"/><path d="M23.27 8.06a.8.8 0 0 0-.8.8v5.89l-4.36-3.04a.8.8 0 0 0-1.12.2L8.77 23.72a.8.8 0 0 0 .2 1.12l11.82 8.22a.8.8 0 0 0 1.1-.2l6.14-8.8h9.64a.8.8 0 0 0 .8-.8V8.86a.8.8 0 0 0-.8-.8z" fill="#e4e4e4"/><path d="M25.67 9.26a2 2 0 0 0-2 2 2 2 0 0 0 2 2 2 2 0 0 0 2-2 2 2 0 0 0-2-2zm9.6 0a2 2 0 0 0-2 2 2 2 0 0 0 2 2 2 2 0 0 0 2-2 2 2 0 0 0-2-2zm-17 4.44a2 2 0 0 0-1.66.86 2 2 0 0 0 .5 2.79 2 2 0 0 0 2.78-.5 2 2 0 0 0-.5-2.79 2 2 0 0 0-1.13-.36zm12.2.36a2 2 0 0 0-2 2 2 2 0 0 0 2 2 2 2 0 0 0 2-2 2 2 0 0 0-2-2zm-4.8 4.8a2 2 0 0 0-2 2 2 2 0 0 0 2 2 2 2 0 0 0 2-2 2 2 0 0 0-2-2zm9.6 0a2 2 0 0 0-2 2 2 2 0 0 0 2 2 2 2 0 0 0 2-2 2 2 0 0 0-2-2zm-22.43 2.72a2 2 0 0 0-1.72.86 2 2 0 0 0 .5 2.78 2 2 0 0 0 2.79-.5 2 2 0 0 0-.5-2.78 2 2 0 0 0-1.07-.36zm7.82 5.49a2 2 0 0 0-1.66.85 2 2 0 0 0 .5 2.79 2 2 0 0 0 2.79-.5 2 2 0 0 0-.5-2.78 2 2 0 0 0-1.13-.36z" fill="#4d4d4d"/></svg>