<svg xmlns="http://www.w3.org/2000/svg" width="24" height="24"><defs><linearGradient id="f"><stop offset="0" stop-color="#fff"/><stop offset="1" stop-color="#fff" stop-opacity=".02"/></linearGradient><linearGradient id="e"><stop offset="0" stop-color="#164450"/><stop offset="1" stop-color="#164450" stop-opacity="0"/></linearGradient><linearGradient id="d"><stop offset="0" stop-color="#fff"/><stop offset="1" stop-color="#fff" stop-opacity=".07"/></linearGradient><linearGradient id="c"><stop offset="0" stop-color="#fff"/><stop offset=".52" stop-color="#fff"/><stop offset="1" stop-color="#ccc"/></linearGradient><linearGradient id="a"><stop offset="0" stop-color="#030000"/><stop offset="1" stop-color="#030000" stop-opacity="0"/></linearGradient><linearGradient id="b"><stop offset="0" stop-color="#164450"/><stop offset="1" stop-color="#00cdff"/></linearGradient></defs><path d="M6.23.28S4.31.28 4.31 2.2v21.53l7.7-7.7 7.68 7.7V2.2C19.7.28 17.77.28 17.77.28H6.23zM12 1.2a6.95 6.95 0 1 1 .01 13.9 6.95 6.95 0 0 1 0-13.9zm0 1.52a3.25 3.25 0 0 0-3.25 3.25.81.81 0 1 0 1.63 0A1.63 1.63 0 1 1 12 7.61a.81.81 0 0 0-.81.8v2.04a.81.81 0 0 0 1.62 0V9.13a3.25 3.25 0 0 0-.8-6.4zm0 9.14A1.02 1.02 0 0 0 11 12.88 1.02 1.02 0 0 0 12 13.9a1.02 1.02 0 0 0 1.02-1.02A1.02 1.02 0 0 0 12 11.87z" fill="#e6e6e6"/></svg>