<svg xmlns="http://www.w3.org/2000/svg" width="24" height="24" version="1"><defs><linearGradient id="a"><stop offset="0" stop-color="#040000"/><stop offset="1" stop-opacity="0"/></linearGradient></defs><path d="M1 1v22h22V1H1zm14.44 2.77l2.79 2.82-1.46 1.47-2.09-2.1v7.12l.49.48L16.76 12l1.4 1.38-2.87 2.85-2.53-2.54V6.44l2.68-2.67zm-8.12.03h2.55l2.29 2.29v7.88L9.9 16.23H7.32l-1.53-1.55.83-.81v-7.7l-.85-.82L7.32 3.8zm1.23 1.75v8.99l1.68-1.7v-5.6L8.55 5.56zM7.1 17.45h9.78v1.9H7.11v-1.9z" fill="#e6e6e6"/></svg>