<svg xmlns="http://www.w3.org/2000/svg" width="24" height="24"><defs><linearGradient id="a"><stop offset="0"/><stop offset="1" stop-color="#000004" stop-opacity="0"/></linearGradient></defs><path d="M12.08.21c-.3 0-.52.07-.81.09v5.04h-.95c-.27 0-.53.1-.74.27a1.2 1.2 0 0 0-.19.18l-3.76 5.28-.07 11.57c0 .64.52 1.15 1.16 1.15l3.5-.01 3.48-.02 3.5-.02c.64 0 1.16-.51 1.17-1.15l.07-10.37v-1.16l-.8-1.14-2.9-4.14a1.15 1.15 0 0 0-.92-.45h-.92V.3C12.6.28 12.39.2 12.08.2zm-.81 7.43v.21a.82.82 0 0 0 1.63 0v-.09a1.87 1.82 44.58 0 1 .95 1.62 1.87 1.82 44.58 0 1-1.82 1.81 1.87 1.82 44.58 0 1-1.87-1.87 1.87 1.82 44.58 0 1 .68-1.43 1.87 1.82 44.58 0 1 .43-.25zm3.14 6.08a1.4 1.4 0 0 1 1.42 1.4v.84l.06 3.38a1.4 1.4 0 0 1-1.4 1.42 1.4 1.4 0 0 1-1.42-1.4 1.4 1.4 0 0 1 1.39-1.41l-.03-1.97-4.21.05.04 3.38a1.4 1.4 0 0 1 0 .12 1.4 1.4 0 0 1-1.38 1.43 1.4 1.4 0 0 1-1.43-1.4 1.4 1.4 0 0 1 1.39-1.42l-.03-2.1-.01-.83a1.4 1.4 0 0 1 .6-1.17c.22-.16.5-.25.78-.25l4.23-.07z" fill="#e6e6e6"/></svg>