<svg xmlns="http://www.w3.org/2000/svg" width="24" height="24" viewBox="0 0 6.35 6.35"><defs><linearGradient id="a"><stop offset="0"/><stop offset="1" stop-opacity="0"/></linearGradient></defs><path class="ColorScheme-Text" d="M3.18.3A2.91 2.91 0 0 0 1 5.15l-.02-.13c0-.35.09-.78.3-1.3.04-.05.06-.11.09-.16l.01-.02a4.22 4.22 0 0 1 2.25-.82s-2.39.11-2.6.78c.12-.78.52-1.87 1.46-1.71.11-.02.2-.1.21-.19-.09-.04-.89-.1-1.14-.02.47-.2.88-.27 1.24-.26 1.24 0 1.85.91 1.95.96.6.13.98.54 1.03.93-.3-.01-.58 0-.85.03-.57.15-.74.43-.75.73-.01.59.69 1.3.86 1.46A2.91 2.91 0 0 0 3.17.3zm-.8 1.43zm1.64.32a.55.55 0 0 0-.26.03s.07.45.58.4c-.03-.3-.18-.4-.32-.43zm.59 1.15c-.75 0-2.39.26-3.58 2.15 0 .35.24.7.24.7S2.23 3.32 5 3.22c0 0-.15-.03-.4-.02z" color="#090d11" fill="#e6e6e6"/></svg>
