<svg xmlns="http://www.w3.org/2000/svg" width="24" height="24" version="1"><path d="M12.15 1.32A10.54 10.54 0 0 0 1.61 11.86 10.54 10.54 0 0 0 12.15 22.4a10.54 10.54 0 0 0 10.54-10.54A10.54 10.54 0 0 0 12.15 1.32zm-.07 5.43a8.45 8.45 0 0 1 7.88 4.92 8.58 8.58 0 0 1-3.48 3.81 9.27 9.27 0 0 1-5.56 1.05 8.41 8.41 0 0 1-6.71-4.86 8.58 8.58 0 0 1 3.47-3.8 9.11 9.11 0 0 1 4.4-1.12zm0 1.97a2.97 2.97 0 0 0-2.81 2.08 2.96 2.96 0 0 0 2.37 3.79 2.97 2.97 0 0 0 3.4-2.92 2.99 2.99 0 0 0-2.96-2.95zm0 1.96a.98.98 0 0 1 .98 1 .98.98 0 0 1-.98.97.98.98 0 0 1-.98-.98.98.98 0 0 1 .98-1z" fill="#e6e6e6"/></svg>