<svg xmlns="http://www.w3.org/2000/svg" width="24" height="24"><path d="M13.899 1.165c-.51 0-.88.37-.88.832a.88.88 0 0 0 .832.833c2.083.047 3.799.694 5.188 1.992 1.342 1.249 2.085 3.01 2.085 5.326a.88.88 0 0 0 .831.878.88.88 0 0 0 .927-.832c-.047-1.39-.231-2.64-.694-3.705a7.698 7.698 0 0 0-1.946-2.917c-1.714-1.574-3.844-2.407-6.344-2.407zM4.696 3.138a1.76 1.76 0 0 0-.845.202h-.047a8.098 8.098 0 0 0-1.899 1.529l-.047.091a3.103 3.103 0 0 0-.74 1.529v.232a2.362 2.362 0 0 0 .139.694v.14h.045a25.237 25.237 0 0 0 5.65 9.26l.045.047.094.046v.094h.139v.044a25.237 25.237 0 0 0 9.26 5.65l.048.046c.278.093.462.093.74.093a3.103 3.103 0 0 0 1.852-.787v-.046c.648-.555 1.111-1.157 1.574-1.851v-.095c.324-.74.188-1.481-.368-1.944a19.82 19.82 0 0 0-3.475-2.501c-.88-.463-1.806-.184-2.222.325l-.695.926c-.324.325-.926.323-.926.323-4.862-1.25-6.205-6.159-6.205-6.159 0-.047.002-.648.326-.926l.925-.74c.51-.37.787-1.297.324-2.177C8.157 6.72 7.6 5.887 7.23 5.33l-.833-1.017-.371-.465-.093-.138-.046-.046a1.43 1.43 0 0 0-.926-.51h-.045a1.76 1.76 0 0 0-.22-.017zm9.248 1.96c-.462-.046-.926.28-.926.743-.047.462.324.925.787.925 1.158.093 1.944.417 2.546 1.066a3.056 3.056 0 0 1 .836 2.316.833.833 0 0 0 .878.878.83.83 0 0 0 .835-.832c.047-1.343-.418-2.595-1.251-3.52-.927-.927-2.223-1.483-3.705-1.576z" fill="#e6e6e6"/></svg>
