<svg xmlns="http://www.w3.org/2000/svg" width="24" height="24"><defs><linearGradient id="b"><stop offset="0"/><stop offset="1" stop-opacity="0"/></linearGradient><linearGradient id="a"><stop offset="0" stop-color="#e26400"/><stop offset="1" stop-color="#ffb900"/></linearGradient></defs><path class="ColorScheme-Text" d="M11.95 1h-.02c-.95 0-1.6.27-1.68.63-.05.08-.11.15-.14.24l-.88 4.36c1.33.96 4.21.96 5.54 0l-.88-4.36c-.01-.02-.03-.03-.03-.05V1.8c0-.11-.08-.22-.2-.33a.97.97 0 0 0-.39-.25C12.87 1.09 12.44 1 12 1zm-3.86 9.08l-.9 3.02H5.75a.96.96 0 0 0-.88.6l-2.41 7.97A.96.96 0 0 0 3.34 23h17.32c.69 0 1.15-.7.89-1.33l-2.4-7.98a.96.96 0 0 0-.9-.59H16.8l-.9-3.02c-2.64 1.05-4.86 1.32-7.8 0zm8.85 3.49l.8 2.68a.96.96 0 0 1-.42 1.09 10.57 10.57 0 0 1-5.36 1.4 9.19 9.19 0 0 1-5.32-1.43.96.96 0 0 1-.37-1.06l.75-2.56c1.04.6 5.73 2.41 9.92-.12z" fill-rule="evenodd" fill="#e6e6e6"/></svg>
