<svg xmlns="http://www.w3.org/2000/svg" width="24" height="24" version="1"><path d="M14.92 1.21a.68.68 0 0 0-.67.51c-.4 1.5-1.26 4.71-2.25 8.1-.99-3.39-1.85-6.6-2.25-8.1a.68.68 0 0 0-1.34.18L8 2.18a482.09 190.77 79.06 0 1-.06-.32C5.67 3.4.54 7.88.54 17.21c.91-3.98 4.73-9.8 8.36-10.4a482.09 190.77 79.06 0 1-.22-1.15l.6-.42c.55 2 1.22 4.4 2 7-.48 1.57-.97 3.11-1.44 4.47-.88 2.49-1.8 4.21-2.72 6.14h1.54c.81-1.76 1.6-3.2 2.38-5.37.31-.9.64-1.9.96-2.92.32 1.02.65 2.02.96 2.92.77 2.18 1.57 3.61 2.38 5.37h1.54c-.92-1.93-1.84-3.65-2.72-6.14-.47-1.36-.96-2.9-1.45-4.47.79-2.6 1.46-5 2-7l.61.41a190.77 482.09 10.94 0 1-.22 1.16c3.63.6 7.45 6.41 8.36 10.4 0-9.33-5.13-13.83-7.4-15.35a190.77 482.09 10.94 0 1-.05.32l-.42-.28a.68.68 0 0 0-.67-.69z" fill="gray"/></svg>