<svg xmlns="http://www.w3.org/2000/svg" width="24" height="24" version="1"><defs><linearGradient id="a"><stop offset="0"/><stop offset="1" stop-color="#010000" stop-opacity="0"/></linearGradient></defs><path d="M20.565 1.77c-1.903 0-2.86.672-3.618 1.607-.76.924-1.21 2.166-1.728 3.222-.34.726-1.122 3.377-1.837 5.896-.605 2.068-1.143 4.125-2.034 5.95-.638.98-1.662 1.53-2.696 1.53-.363 0-.725-.067-1.077-.2 1.232 1.739 4.059 4.589 7.359-.13 2.288-3.278 3.31-10.341 4.675-12.981 2.046-3.377 3.079-2.585 3.332-2.3.044-.285.067-.56.056-.835-.022-.517-.144-.902-.44-1.188-.298-.297-.848-.571-1.992-.571zM5.122 4.739v.013a6.424 6.424 0 0 1 .019.01 5.544 5.544 0 0 0-.02-.023zm.019.023a5.544 5.544 0 0 1 1.091 2.112c.528 1.903.638 4.257.748 6.325.066 1.034.122 2.002.221 2.75.077 1.188.527 1.99 1.45 2.067 1.123-.055 1.464-1.386 1.794-2.376-.495-.22-1.232-1.43-1.793-6.05A6.424 6.424 0 0 0 5.14 4.762zm-3.034.462c-.23 0-.439.077-.593.187-.22.143-.408.396-.496.913-.12.792.407 1.673.902 2.366 0 0 0-.992.946-1.476.517-.264 1.155.176 1.65.616l-.11-.416c-.385-1.397-1.32-2.058-2.034-2.168z" fill="#1a1a1a"/></svg>