<svg xmlns="http://www.w3.org/2000/svg" xmlns:xlink="http://www.w3.org/1999/xlink" width="48" height="48" version="1"><defs><linearGradient id="k"><stop offset="0"/><stop offset="1" stop-opacity=".01"/></linearGradient><linearGradient id="c"><stop offset="0" stop-color="#ac939d"/><stop offset=".2" stop-color="#c8b7be"/><stop offset=".33" stop-color="#a78b96"/><stop offset=".44" stop-color="#beaab2"/><stop offset=".57" stop-color="#ac939d"/><stop offset=".76" stop-color="#916f7c"/><stop offset="1" stop-color="#c8b7be"/></linearGradient><linearGradient id="b"><stop offset="0" stop-color="#2c5aa0"/><stop offset=".2" stop-color="#3771c8"/><stop offset=".33" stop-color="#2c5aa0"/><stop offset=".44" stop-color="#3771c8"/><stop offset=".57" stop-color="#3771c8"/><stop offset=".76" stop-color="#5f8dd3"/><stop offset="1" stop-color="#2c5aa0" stop-opacity="0"/></linearGradient><clipPath id="n"><path d="M-5.02.03l-3.1 4.15H-23.9l-4.55 13.4 6.73 26.24h11.44l6.73-26.24-4.55-13.4z" fill="url(#a)"/></clipPath><linearGradient xlink:href="#b" id="a" gradientUnits="userSpaceOnUse" gradientTransform="translate(-40)" x1="8.14" y1="13.51" x2="36.28" y2="35.97"/><filter id="o" x="-.08" width="1.17" y="-.05" height="1.09" color-interpolation-filters="sRGB"><feGaussianBlur stdDeviation=".86"/></filter><linearGradient xlink:href="#c" id="l" x1="6.37" y1="10.13" x2="38.76" y2="32.59" gradientUnits="userSpaceOnUse"/><linearGradient id="d"><stop offset="0" stop-color="#060000"/><stop offset="1" stop-color="#060000" stop-opacity="0"/></linearGradient><linearGradient id="e"><stop offset="0" stop-color="#333"/><stop offset=".23" stop-color="#282326"/><stop offset=".78" stop-color="#d0d3d4"/><stop offset="1" stop-color="#666"/></linearGradient><linearGradient id="f"><stop offset="0" stop-color="#786721"/><stop offset=".23" stop-color="#504416"/><stop offset=".78" stop-color="#f4eed7"/><stop offset="1" stop-color="#786721"/></linearGradient><linearGradient id="g"><stop offset="0" stop-color="#28220b"/><stop offset="1" stop-color="#666" stop-opacity=".06"/></linearGradient><linearGradient id="h"><stop offset="0" stop-color="#333"/><stop offset="1" stop-color="#666" stop-opacity=".06"/></linearGradient><linearGradient id="i"><stop offset="0" stop-color="#333"/><stop offset="1" stop-color="#666" stop-opacity=".01"/></linearGradient><linearGradient id="j"><stop offset="0"/><stop offset="1" stop-opacity="0"/></linearGradient><linearGradient xlink:href="#k" id="m" x1="10.37" y1="11.73" x2="39.43" y2="32.88" gradientUnits="userSpaceOnUse"/></defs><path d="M40.89 17.42l-7.83 30.55H14.94L7.11 17.42 13.01.03H35z" fill="url(#l)"/><path d="M17.3 30.25l1.94-.87-2.26-2.27 2.55-6.22-2.42-2.42 3.47-1.17-2.87-2.43 1.56-5.6 4.42 4.43.49-3.08 5.08 5.08v-3.66l6.9 6.9-6.18 23.98z" opacity=".62" fill="url(#m)"/><path transform="translate(40.73 -1) scale(1.04567)" clip-path="url(#n)" d="M-5.02.03l-3.1 4.15H-23.9l-4.55 13.4 6.73 26.24h11.44l6.73-26.24-4.55-13.4z" fill="none" stroke="#48373e" stroke-width="1.91" filter="url(#o)" opacity=".7"/><path d="M18.28 43.82l-3.34 4.15h18.12l-3.34-4.15z" fill="#241c1f" fill-opacity=".1"/><path d="M29.72 43.82l3.34 4.15 7.83-30.55-4.44.16z" fill="#241c1f" fill-opacity=".47"/><path d="M13.01.03l3.08 4.15h15.8l3.1-4.15z" fill="#241c1f" fill-opacity=".35"/><path d="M40.89 17.42L34.99.03 31.9 4.18l4.55 13.4z" fill="#241c1f" fill-opacity=".71"/><path d="M18.28 43.82l-3.34 4.15-7.83-30.55 4.44.16z" fill="#241c1f" fill-opacity=".47"/><path d="M7.11 17.42L13.01.03l3.09 4.15-4.55 13.4z" fill="#241c1f" fill-opacity=".71"/><g fill="#221c24"><path d="M16.98 19.2h4.32v7.91h-4.32zM17.7 17.3l-.59 1.17h4.05l-.58-1.17V15.6H17.7zM19.94 10.9l-.46-1.54a.36.36 0 0 0-.69 0l-.46 1.54c-.39 1.29-.59 2.62-.62 3.97h2.85a15.06 15.06 0 0 0-.62-3.97zM20.98 28.76l.03-.09.2-.84h-4.15l.2.84.04.1c-.2.16-.32.4-.32.67v.39c0 .49.4.88.88.88h2.55c.49 0 .89-.4.89-.88v-.39a.88.88 0 0 0-.32-.68zM27.78 20.19l-.58 1.16h4.04l-.58-1.16v-1.72h-2.88zM27.06 22.07h4.32v5.04h-4.32zM30.02 13.78l-.45-1.54a.36.36 0 0 0-.7 0l-.45 1.54c-.4 1.29-.6 2.62-.63 3.97h2.86a15.06 15.06 0 0 0-.63-3.97zM31.06 28.76l.03-.09.21-.84h-4.16l.2.84.04.1c-.2.16-.32.4-.32.67v.39c0 .49.4.88.89.88h2.54c.5 0 .9-.4.9-.88v-.39a.88.88 0 0 0-.33-.68zM22.02 20.63h4.32v6.48h-4.32zM22.74 18.75l-.58 1.16h4.04l-.58-1.16v-1.72h-2.88zM24.98 12.34l-.46-1.54a.36.36 0 0 0-.69 0l-.46 1.54c-.38 1.29-.59 2.62-.62 3.97h2.86a15.06 15.06 0 0 0-.63-3.97zM26.02 28.76l.03-.09.21-.84H22.1l.2.84.04.1c-.2.16-.32.4-.32.67v.39c0 .49.4.88.89.88h2.54c.5 0 .89-.4.89-.88v-.39a.88.88 0 0 0-.32-.68z"/></g></svg>