<?xml version="1.0" encoding="UTF-8" standalone="no"?><svg xmlns:dc="http://purl.org/dc/elements/1.1/" xmlns:cc="http://creativecommons.org/ns#" xmlns:rdf="http://www.w3.org/1999/02/22-rdf-syntax-ns#" xmlns="http://www.w3.org/2000/svg" xmlns:xlink="http://www.w3.org/1999/xlink" viewBox="0 0 48 48"><defs><linearGradient xlink:href="#a" id="b" x1="7.53" y1="30.11" x2="39.2" y2="4.6" gradientUnits="userSpaceOnUse"/><linearGradient id="a"><stop offset="0" stop-color="#87a087"/><stop offset=".11" stop-color="#6f916f"/><stop offset=".33" stop-color="#536c53"/><stop offset=".44" stop-color="#6a836a"/><stop offset=".66" stop-color="#87a087"/><stop offset=".9" stop-color="#536c53"/><stop offset="1" stop-color="#6f916f"/></linearGradient><clipPath id="c"><path d="M-5.02.03l-3.1 4.15H-23.9l-4.55 13.4 6.73 26.24h11.44l6.73-26.24-4.55-13.4z" fill="url(#b)"/></clipPath><filter id="d" x="-.08" width="1.17" y="-.05" height="1.09" color-interpolation-filters="sRGB"><feGaussianBlur stdDeviation=".86"/></filter></defs><metadata><rdf:RDF><cc:Work><dc:format>image/svg+xml</dc:format><dc:type rdf:resource="http://purl.org/dc/dcmitype/StillImage"/><dc:title/></cc:Work></rdf:RDF></metadata><path d="M40.89 17.42l-7.83 30.55H14.94L7.11 17.42 13.01.03H35z" fill="url(#b)" transform="translate(0 -.05)"/><path d="M-5.02.03l-3.1 4.15H-23.9l-4.55 13.4 6.73 26.24h11.44l6.73-26.24-4.55-13.4z" clip-path="url(#c)" transform="translate(40.73 -1.05) scale(1.04567)" opacity=".7" fill="none" stroke="#1c241c" stroke-width="1.91" filter="url(#d)"/><path d="M18.28 43.77l-3.34 4.15h18.12l-3.34-4.15z" fill="#1c241c" fill-opacity=".1"/><path d="M29.72 43.77l3.34 4.15 7.83-30.55-4.44.16z" fill="#1c241c" fill-opacity=".47"/><path d="M13.01-.02l3.08 4.15h15.8l3.1-4.15z" fill="#1c241c" fill-opacity=".35"/><path d="M40.89 17.37L34.99-.02 31.9 4.13l4.55 13.4z" fill="#1c241c" fill-opacity=".71"/><path d="M18.28 43.77l-3.34 4.15-7.83-30.55 4.44.16z" fill="#1c241c" fill-opacity=".47"/><path d="M7.11 17.37l5.9-17.39 3.09 4.15-4.55 13.4z" fill="#1c241c" fill-opacity=".71"/><path d="M24.53 7.7c-.08 0-.34.08-.34.15v10.96a1.32 1.32 0 0 0-.9-.38 3.48 3.48 0 0 0-1.7.57c-.69.38-1.52 1.13-1.52 2.15 0 .91.75 1.33 1.59 1.33a3.4 3.4 0 0 0 1.7-.53c.68-.38 1.5-1.13 1.5-2.16v-8.27c1.07 1.06 2.43 2.6 2.43 4.12a7.3 7.3 0 0 1-.6 2.8c0 .22.14.37.37.37.08 0 .2-.04.23-.15.38-.98.64-2 .64-3.02 0-2.88-3.02-4.92-3.06-7.79a.15.15 0 0 0-.15-.15h-.2zm-9.5 16.7v1.37h17.95v-1.36H15.02zm.81 3.99v1.4h16.32v-1.4H15.84zm1.72 4v1.4h12.88v-1.4H17.56zm1.96 4.02v1.36h8.96v-1.36h-8.96z" fill="#1f241c"/></svg>