<?xml version="1.0" encoding="UTF-8" standalone="no"?><svg xmlns:dc="http://purl.org/dc/elements/1.1/" xmlns:cc="http://creativecommons.org/ns#" xmlns:rdf="http://www.w3.org/1999/02/22-rdf-syntax-ns#" xmlns="http://www.w3.org/2000/svg" xmlns:xlink="http://www.w3.org/1999/xlink" viewBox="0 0 48 48"><metadata><rdf:RDF><cc:Work><dc:format>image/svg+xml</dc:format><dc:type rdf:resource="http://purl.org/dc/dcmitype/StillImage"/><dc:title/></cc:Work></rdf:RDF></metadata><defs><linearGradient id="a"><stop offset="0"/><stop stop-opacity="0" offset="1"/></linearGradient><linearGradient id="g" x1="18.91" x2="52.17" y1="13.2" y2="34.41" gradientTransform="matrix(.79834 0 0 .77683 -1.29 -.55)" gradientUnits="userSpaceOnUse"><stop stop-color="#030000" offset="0"/><stop stop-opacity="0" offset="1"/></linearGradient><linearGradient id="h" x1="22" x2="17" y1="39" y2="37.44" gradientTransform="translate(-24.52 12.38) scale(.53019)" gradientUnits="userSpaceOnUse" xlink:href="#a"/><linearGradient id="i" x1="38" x2="43" y1="39" y2="38.6" gradientTransform="translate(-24.52 12.38) scale(.53019)" gradientUnits="userSpaceOnUse" xlink:href="#a"/><radialGradient id="j" cx="30" cy="33.19" r="4.69" gradientTransform="matrix(.81013 0 0 .24435 -32.92 19.83)" gradientUnits="userSpaceOnUse" xlink:href="#a"/><linearGradient id="k" x1="22" x2="17" y1="39" y2="37.44" gradientTransform="translate(2.38 4.46) scale(.71429)" gradientUnits="userSpaceOnUse" xlink:href="#a"/><linearGradient id="l" x1="38" x2="43" y1="39" y2="38.6" gradientTransform="translate(2.38 4.46) scale(.71429)" gradientUnits="userSpaceOnUse" xlink:href="#a"/><radialGradient id="m" cx="30" cy="33.19" r="4.69" gradientTransform="matrix(1.0914 0 0 .32919 -8.93 14.5)" gradientUnits="userSpaceOnUse" xlink:href="#a"/><linearGradient id="b"><stop offset="0" stop-color="#1a1a1a"/><stop offset="1" stop-color="#1a1a1a" stop-opacity=".51"/></linearGradient><clipPath id="e"><path d="M-5.02.03l-3.1 4.15H-23.9l-4.55 13.4 6.73 26.24h11.44l6.73-26.24-4.55-13.4z" fill="url(#linearGradient1212)"/></clipPath><filter id="f" x="-.08" width="1.17" y="-.05" height="1.09" color-interpolation-filters="sRGB"><feGaussianBlur stdDeviation=".86"/></filter><linearGradient gradientTransform="translate(0 .04)" xlink:href="#c" id="d" x1="8.59" y1="29.36" x2="39.52" y2="12.78" gradientUnits="userSpaceOnUse"/><linearGradient id="c"><stop offset="0" stop-color="#53536c"/><stop offset=".2" stop-color="#9595a8"/><stop offset=".33" stop-color="#777797"/><stop offset=".56" stop-color="#8686a3"/><stop offset=".66" stop-color="#b7b7c8"/><stop offset=".76" stop-color="#9393ac"/><stop offset="1" stop-color="#6f6f91"/></linearGradient></defs><path d="M40.9 17.46L33.07 48H14.95L7.12 17.46l5.9-17.4H35z" fill="url(#d)"/><path d="M18.29 43.86L14.95 48h18.12l-3.34-4.15z" fill="#373748" fill-opacity=".1"/><path d="M13.02.07l3.08 4.15h15.8L35 .07z" fill="#373748" fill-opacity=".35"/><path d="M18.27 43.86L14.93 48 7.1 17.46l4.44.16z" fill="#373748" fill-opacity=".47"/><path transform="translate(40.74 -.96) scale(1.04567)" clip-path="url(#e)" d="M-5.02.03l-3.1 4.15H-23.9l-4.55 13.4 6.73 26.24h11.44l6.73-26.24-4.55-13.4z" fill="none" stroke="#53536c" stroke-width="1.91" filter="url(#f)"/><path d="M7.1 17.46L13 .06l3.1 4.16-4.56 13.4zm33.8 0L35 .06l-3.1 4.16 4.56 13.4z" fill="#373748" fill-opacity=".71"/><path d="M29.73 43.86L33.07 48l7.83-30.55-4.44.16z" fill="#373748" fill-opacity=".47"/><path d="M31.24 8.34l3.46 4.07 1.76 5.2-5.84 22.72-16.4-15.77 4.63-1.52v-6.82l3.56-3.69 4.31 4.6 2.75-5.79z" opacity=".5" fill="url(#g)"/><path d="M17.58 18.4a4 4 0 0 1 .1 1.82c-.9.73-3.23 1.06-3.23 1.83l-.31 2.28c0 .76 2.17 1.38 4.85 1.38 2.69 0 4.86-.62 4.86-1.38l-.31-2.28c0-.66-2.35-1.07-3.25-1.83a5.38 5.38 0 0 1 .1-1.83z" fill="#c83737"/><path d="M18.99 13.81c-1.3 0-2.35.96-2.35 2.14 0 .43.05.95.32 2.13.15.46 1.55 1.68 1.56 1.83.3.16.79.16 1.1 0 0-.15 1.25-1.37 1.4-1.83.3-1.22.3-1.67.32-2.13 0-1.18-1.05-2.14-2.35-2.14z" fill="#c83737"/><path d="M20.04 14.26c.1.24.16.5.3.74.08.11.18.22.32.3.15.1.33.16.58.21l.24-.12a2.1 2.1 0 0 0 1.05-1.66 3.57 3.57 0 0 0-.03-1.09.23.23 0 0 0-.2-.18.24.24 0 0 0-.25.13c0 .01-.67 1.34-1.73 1.52a.5.5 0 0 0-.28.15z" fill="#333"/><path d="M-13.39 35.28c-1.25-1.05-.66-3.38-.53-4.87-.53 1.06-.53 4.24-1.6 4.24.73.24 1.47.5 2.13.63z" transform="matrix(.59112 0 0 .57516 24.09 5.22)" opacity=".3" fill="url(#h)"/><path d="M-3.85 35.28c1.25-.92.62-3.44.53-4.87.53 1.06.53 4.24 1.6 4.24-.73.24-1.46.5-2.13.63z" transform="matrix(.59112 0 0 .57516 24.09 5.22)" opacity=".3" fill="url(#i)"/><path d="M-11.1 26.34c.36.93 1.33 1.6 2.48 1.6s2.12-.67 2.49-1.6z" transform="matrix(.59112 0 0 .57516 24.09 5.22)" opacity=".2" fill="url(#j)"/><path d="M18.5 19.47c-.06 0-.12.04-.16.11a.28.28 0 0 0 0 .23l.56 1.4c.03.07.1.12.16.12.07 0 .14-.05.17-.13l.56-1.4a.28.28 0 0 0 0-.22.18.18 0 0 0-.16-.1zm-.56-5.2c-.11.23-.16.5-.31.73a.99.99 0 0 1-.32.3c-.14.1-.32.16-.57.2l-.25-.1a2.1 2.1 0 0 1-1.05-1.67 3.5 3.5 0 0 1 .04-1.1c.02-.09.1-.16.2-.17.1 0 .2.04.24.13 0 .01.68 1.34 1.74 1.52a.5.5 0 0 1 .28.15z" fill="#333"/><path d="M30.75 20.08l.72.32a3.3 3.3 0 0 0 1.45-2.06l.66.11h.05c.18 0 .32-.14.32-.3v-.09l-.54-2.46a.32.32 0 0 0-.6-.1l-1.35 2.16a.3.3 0 0 0-.02.3c.05.08.14.15.24.17l.6.1c-.02.15-.08.35-.2.6a2.8 2.8 0 0 1-1.33 1.25z" fill="#c83737"/><path d="M24.84 16.38c.19.9.3 1.57.14 2.46-1.23 1-4.37 1.44-4.37 2.47l-.42 3.08c0 1.02 2.93 1.85 6.55 1.85 3.6 0 6.54-.83 6.54-1.85l-.42-3.08c0-.88-3.17-1.44-4.38-2.47-.1-.83-.02-1.63.15-2.46h-3.8z" fill="#c83737"/><path d="M26.74 10.22c-1.75 0-3.17 1.28-3.17 2.87 0 .6.06 1.3.42 2.88.2.62 2.1 2.26 2.1 2.46.42.2 1.07.2 1.49 0 0-.2 1.69-1.84 1.9-2.46.4-1.65.4-2.26.42-2.88 0-1.59-1.42-2.87-3.16-2.87z" fill="#c83737"/><path d="M28.14 10.82c.15.33.22.68.42 1 .1.15.23.3.43.4.19.13.44.22.77.28l.33-.16a2.82 2.82 0 0 0 1.42-2.23 4.8 4.8 0 0 0-.05-1.47.32.32 0 0 0-.28-.25.32.32 0 0 0-.32.18c0 .01-.91 1.8-2.34 2.05a.69.69 0 0 0-.38.2z" fill="#333"/><path d="M17.38 35.32c-1.68-1.41-.88-4.56-.71-6.57-.72 1.43-.72 5.71-2.14 5.71.97.33 1.96.7 2.85.86z" transform="matrix(.59112 0 0 .57516 12.66 5.66)" opacity=".3" fill="url(#k)"/><path d="M30.24 35.32c1.68-1.24.83-4.63.71-6.57.72 1.43.72 5.71 2.15 5.71-.98.33-1.97.7-2.86.86z" transform="matrix(.59112 0 0 .57516 12.66 5.66)" opacity=".3" fill="url(#l)"/><path d="M20.46 23.28a3.55 3.55 0 0 0 3.35 2.14c1.55 0 2.86-.9 3.35-2.14z" transform="matrix(.59112 0 0 .57516 12.66 5.66)" opacity=".2" fill="url(#m)"/><path d="M26.07 17.84c-.08 0-.17.06-.21.15-.05.1-.05.2-.01.3l.75 1.88c.05.1.13.17.23.17s.18-.07.22-.17l.76-1.88a.37.37 0 0 0-.01-.3c-.05-.1-.13-.15-.21-.15zm-.75-7.03c-.15.33-.22.7-.42 1-.1.15-.24.3-.43.41-.2.12-.44.22-.78.28l-.32-.16a2.82 2.82 0 0 1-1.42-2.23A4.8 4.8 0 0 1 22 8.64a.32.32 0 0 1 .27-.25c.14-.02.27.05.33.17 0 .02.9 1.81 2.34 2.05.16.03.28.1.38.2z" fill="#333"/></svg>