<svg xmlns="http://www.w3.org/2000/svg" xmlns:xlink="http://www.w3.org/1999/xlink" viewBox="0 0 48 48"><defs><linearGradient xlink:href="#a" id="b" x1="8.59" y1="29.36" x2="39.52" y2="12.78" gradientUnits="userSpaceOnUse"/><linearGradient id="a"><stop offset="0" stop-color="#53536c"/><stop offset=".2" stop-color="#9595a8"/><stop offset=".33" stop-color="#777797"/><stop offset=".56" stop-color="#8686a3"/><stop offset=".66" stop-color="#b7b7c8"/><stop offset=".76" stop-color="#9393ac"/><stop offset="1" stop-color="#6f6f91"/></linearGradient><filter id="c" x="-.04" width="1.07" y="-.04" height="1.07" color-interpolation-filters="sRGB"><feGaussianBlur stdDeviation=".34"/></filter></defs><path d="M40.89 17.42l-7.83 30.55H14.94L7.11 17.42 13.01.03H35z" fill="url(#b)"/><path d="M18.28 43.82l-3.34 4.15h18.12l-3.34-4.15z" fill="#373748" fill-opacity=".1"/><path d="M13.01.03l3.08 4.15h15.8l3.1-4.15z" fill="#373748" fill-opacity=".35"/><path d="M18.27 43.82l-3.34 4.15L7.1 17.42l4.44.16z" fill="#373748" fill-opacity=".47"/><path d="M7.1 17.42L13 .03l3.09 4.15-4.55 13.4zm33.79 0L34.99.03 31.9 4.18l4.55 13.4z" fill="#373748" fill-opacity=".71"/><path d="M29.72 43.82l3.34 4.15 7.83-30.55-4.44.16z" fill="#373748" fill-opacity=".47"/><path d="M21.93 10.18l-9.16 9.17 5.2 5.2-3.2 5.62.6 2.33 3.83-6.72 1.06 1.07v6.45h1.67zm1.24 0V33.3h1.66V10.18zm2.9 0V33.3h1.66v-6.45l1.07-1.07 3.82 6.7.6-2.33-3.2-5.6 5.21-5.2zm-5.8 4.03v10.28l-5.14-5.14zm7.46 0l5.14 5.14-5.14 5.14z" fill="#1c1f24" filter="url(#c)"/><path d="M21.93 8.18l-9.16 9.17 5.2 5.2-3.55 6.25.6 2.32 4.18-7.34 1.06 1.07v6.45h1.67zm1.24 0V31.3h1.66V8.18zm2.9 0V31.3h1.66v-6.45l1.07-1.07 4.17 7.32.6-2.33-3.54-6.22 5.2-5.2zm-5.8 4.03v10.28l-5.14-5.14zm7.46 0l5.14 5.14-5.14 5.14z" fill="#dbe2e3"/></svg>