<?xml version="1.0" encoding="UTF-8" standalone="no"?><svg xmlns:dc="http://purl.org/dc/elements/1.1/" xmlns:cc="http://creativecommons.org/ns#" xmlns:rdf="http://www.w3.org/1999/02/22-rdf-syntax-ns#" xmlns="http://www.w3.org/2000/svg" xmlns:xlink="http://www.w3.org/1999/xlink" width="48" height="48" version="1"><metadata><rdf:RDF><cc:Work><dc:format>image/svg+xml</dc:format><dc:type rdf:resource="http://purl.org/dc/dcmitype/StillImage"/><dc:title/></cc:Work></rdf:RDF></metadata><defs><linearGradient id="c"><stop offset="0" stop-color="#c8ab37"/><stop offset=".2" stop-color="#ffd42a"/><stop offset=".33" stop-color="#ffd944"/><stop offset=".45" stop-color="#e6cb5f"/><stop offset=".65" stop-color="#c8ab37"/><stop offset=".76" stop-color="#fd5"/><stop offset="1" stop-color="#c8ab37"/></linearGradient><linearGradient id="b"><stop offset="0" stop-color="#2c5aa0"/><stop offset=".2" stop-color="#3771c8"/><stop offset=".33" stop-color="#2c5aa0"/><stop offset=".44" stop-color="#3771c8"/><stop offset=".57" stop-color="#3771c8"/><stop offset=".76" stop-color="#5f8dd3"/><stop offset="1" stop-color="#2c5aa0" stop-opacity="0"/></linearGradient><clipPath id="f"><path d="M-5.02.03l-3.1 4.15H-23.9l-4.55 13.4 6.73 26.24h11.44l6.73-26.24-4.55-13.4z" fill="url(#a)"/></clipPath><linearGradient xlink:href="#b" id="a" gradientUnits="userSpaceOnUse" gradientTransform="translate(-40)" x1="8.14" y1="13.51" x2="36.28" y2="35.97"/><filter id="g" x="-.08" width="1.17" y="-.05" height="1.09" color-interpolation-filters="sRGB"><feGaussianBlur stdDeviation=".86"/></filter><linearGradient xlink:href="#c" id="e" x1="11.36" y1="40.83" x2="34.99" y2=".03" gradientUnits="userSpaceOnUse"/><linearGradient id="d"><stop offset="0" stop-color="#1a1a1a"/><stop offset="1" stop-color="#1a1a1a" stop-opacity=".51"/></linearGradient></defs><path d="M40.89 17.42l-7.83 30.55H14.94L7.11 17.42 13.01.03H35z" fill="url(#e)"/><path transform="translate(40.73 -1) scale(1.04567)" clip-path="url(#f)" d="M-5.02.03l-3.1 4.15H-23.9l-4.55 13.4 6.73 26.24h11.44l6.73-26.24-4.55-13.4z" fill="none" stroke="#806600" stroke-width="1.91" filter="url(#g)"/><path d="M18.28 43.82l-3.34 4.15h18.12l-3.34-4.15z" fill="#540" fill-opacity=".1"/><path d="M29.72 43.82l3.34 4.15 7.83-30.55-4.44.16z" fill="#540" fill-opacity=".47"/><path d="M13.01.03l3.08 4.15h15.8l3.1-4.15z" fill="#540" fill-opacity=".35"/><path d="M40.89 17.42L34.99.03 31.9 4.18l4.55 13.4z" fill="#540" fill-opacity=".71"/><path d="M18.28 43.82l-3.34 4.15-7.83-30.55 4.44.16z" fill="#540" fill-opacity=".47"/><path d="M7.11 17.42L13.01.03l3.09 4.15-4.55 13.4z" fill="#540" fill-opacity=".71"/><path d="M17.74 7.3c.59 2.55-2.06 3.32-3.01 4.9-.65 1.09.32 2.25 1.64 3.57-.52-1.29-2.27-2.42 0-4.4 2.82-2.46 1.37-4.06 1.37-4.06zm1.75 3.16s-4.77 1.32-2.5 4.22c.68.86-.17 1.63-.17 1.63s1.7-.98.92-2.2c-.73-1.14-1.3-1.7 1.75-3.65zm3.47 2.29l.26 1.78h.84l.25-1.78zm.68 2.5c-1.35 0-2.7.26-3.96.79h7.92a10.3 10.3 0 0 0-3.96-.8zm-7.54 1.52l-.39.4 2.25 2.75-.5-3.15zm2.1 0l1 6.23h2.23l-.33-6.23zm3.63 0l.33 6.23h2.96l.33-6.23zm4.35 0L25.85 23h2.24l.98-6.23zm3.63 0l-.23 1.47h2.11c.1 0 .2.04.26.1l.37.37c.09.09.12.21.1.34l-1.1 5.12a.36.36 0 0 1-.36.3h-.73v1.09h2.27l1.72-7.57-1.21-1.22zm-10.2 6.96v1.46h8.06v-1.46zm.73 2.2v.73h6.6v-.73zm-1.15 1.46l-.98 5.86h2.89l.32-5.86zm2.96 0l-.32 5.86h3.62l-.33-5.86zm3.7 0l.33 5.86h2.88l-.97-5.86z" clip-rule="evenodd" fill="#540" fill-rule="evenodd"/></svg>