<svg xmlns="http://www.w3.org/2000/svg" xmlns:xlink="http://www.w3.org/1999/xlink" viewBox="0 0 48 48"><defs><linearGradient id="a"><stop offset="0"/><stop offset="1" stop-opacity="0"/></linearGradient><linearGradient xlink:href="#b" id="c" x1="15.97" y1="56.88" x2="25.88" y2="-.87" gradientUnits="userSpaceOnUse"/><linearGradient id="b"><stop offset="0" stop-color="#a00"/><stop offset=".21" stop-color="#ff2a2a"/><stop offset=".33" stop-color="#d72b2b"/><stop offset=".62" stop-color="#ff5252"/><stop offset=".76" stop-color="#ff2a2a"/><stop offset=".89" stop-color="#ff2a2a"/><stop offset="1" stop-color="#ff2a2a"/></linearGradient><clipPath id="d"><path d="M-5.02.03l-3.1 4.15H-23.9l-4.55 13.4 6.73 26.24h11.44l6.73-26.24-4.55-13.4z" fill="url(#linearGradient1212)"/></clipPath><filter id="e" x="-.08" width="1.17" y="-.05" height="1.09" color-interpolation-filters="sRGB"><feGaussianBlur stdDeviation=".86"/></filter></defs><path d="M40.89 17.42l-7.83 30.55H14.94L7.11 17.42 13.01.03H35z" fill="url(#c)"/><path d="M11.5 15.85l-.46 1.36v.04l.09.34h3.38l4.33 13 4.34-14.74 2.6 8.67 3.46-8.67 2.6 8.67h3.37l.44-1.73h-2.07l-4.34-12.14-3.46 8.67-2.6-9.53-4.34 14.73-2.6-8.67z" fill="#501616"/><path d="M-5.02.03l-3.1 4.15H-23.9l-4.55 13.4 6.73 26.24h11.44l6.73-26.24-4.55-13.4z" clip-path="url(#d)" transform="translate(40.73 -1) scale(1.04567)" fill="none" stroke="#501616" stroke-width="1.91" filter="url(#e)"/><path d="M18.28 43.82l-3.34 4.15h18.12l-3.34-4.15z" fill="#280b0b" fill-opacity=".1"/><path d="M13.01.03l3.08 4.15h15.8l3.1-4.15z" fill="#280b0b" fill-opacity=".35"/><path d="M18.27 43.82l-3.34 4.15L7.1 17.42l4.44.16z" fill="#280b0b" fill-opacity=".47"/><path d="M7.1 17.42L13 .03l3.09 4.15-4.55 13.4zm33.79 0L34.99.03 31.9 4.18l4.55 13.4z" fill="#280b0b" fill-opacity=".71"/><path d="M29.72 43.82l3.34 4.15 7.83-30.55-4.44.16z" fill="#280b0b" fill-opacity=".47"/></svg>