<?xml version="1.0" encoding="UTF-8" standalone="no"?>
<svg
   xmlns:dc="http://purl.org/dc/elements/1.1/"
   xmlns:cc="http://creativecommons.org/ns#"
   xmlns:rdf="http://www.w3.org/1999/02/22-rdf-syntax-ns#"
   xmlns:svg="http://www.w3.org/2000/svg"
   xmlns="http://www.w3.org/2000/svg"
   xmlns:xlink="http://www.w3.org/1999/xlink"
   xmlns:sodipodi="http://sodipodi.sourceforge.net/DTD/sodipodi-0.dtd"
   xmlns:inkscape="http://www.inkscape.org/namespaces/inkscape"
   width="48"
   height="48"
   version="1.1"
   id="svg48"
   sodipodi:docname="accessories-ebook-reader.svg"
   inkscape:version="0.92.4 (5da689c313, 2019-01-14)">
  <metadata
     id="metadata52">
    <rdf:RDF>
      <cc:Work
         rdf:about="">
        <dc:format>image/svg+xml</dc:format>
        <dc:type
           rdf:resource="http://purl.org/dc/dcmitype/StillImage" />
        <dc:title></dc:title>
      </cc:Work>
    </rdf:RDF>
  </metadata>
  <sodipodi:namedview
     pagecolor="#ffffff"
     bordercolor="#666666"
     borderopacity="1"
     objecttolerance="10"
     gridtolerance="10"
     guidetolerance="10"
     inkscape:pageopacity="0"
     inkscape:pageshadow="2"
     inkscape:window-width="1112"
     inkscape:window-height="480"
     id="namedview50"
     showgrid="false"
     inkscape:zoom="4.9166667"
     inkscape:cx="2.1355932"
     inkscape:cy="24"
     inkscape:window-x="0"
     inkscape:window-y="25"
     inkscape:window-maximized="0"
     inkscape:current-layer="svg48" />
  <defs
     id="defs34">
    <linearGradient
       id="e">
      <stop
         offset="0"
         stop-color="#666"
         id="stop2" />
      <stop
         offset="1"
         stop-color="#fff"
         id="stop4" />
    </linearGradient>
    <linearGradient
       id="d">
      <stop
         offset="0"
         stop-color="#e6e6e6"
         id="stop7" />
      <stop
         offset="1"
         stop-color="gray"
         id="stop9" />
    </linearGradient>
    <linearGradient
       id="b">
      <stop
         offset="0"
         id="stop12" />
      <stop
         offset="1"
         stop-opacity="0"
         id="stop14" />
    </linearGradient>
    <linearGradient
       id="a">
      <stop
         offset="0"
         stop-color="#e26400"
         id="stop17" />
      <stop
         offset="1"
         stop-color="#ffb900"
         id="stop19" />
    </linearGradient>
    <linearGradient
       id="c">
      <stop
         stop-color="#fff"
         offset="0"
         id="stop22" />
      <stop
         stop-color="#999"
         offset=".67"
         id="stop24" />
      <stop
         stop-color="#fff"
         offset="1"
         id="stop26" />
    </linearGradient>
    <linearGradient
       xlink:href="#d"
       id="g"
       x1="24.27"
       y1="23.97"
       x2="44.2"
       y2="23.97"
       gradientUnits="userSpaceOnUse" />
    <linearGradient
       xlink:href="#e"
       id="f"
       x1="3.8"
       y1="24"
       x2="44.2"
       y2="24"
       gradientUnits="userSpaceOnUse" />
    <filter
       id="h"
       x="-.1"
       width="1.2"
       y="-.02"
       height="1.04"
       color-interpolation-filters="sRGB">
      <feGaussianBlur
         stdDeviation=".28"
         id="feGaussianBlur31" />
    </filter>
  </defs>
  <path
     d="m 24,0.35 c -5.83,0 -10.52,1.12 -13.93,3.33 -4.1,2.66 -6.27,6.9 -6.27,12.27 0,7.23 5.8,16.88 7.58,19.67 a 54.48,54.48 0 0 0 6.25,8.16 c 2.54,2.64 4.57,3.87 6.37,3.87 1.8,0 3.83,-1.23 6.37,-3.87 2,-2.08 4.22,-4.97 6.25,-8.16 C 38.4,32.83 44.2,23.18 44.2,15.95 44.2,10.58 42.04,6.34 37.94,3.68 34.52,1.47 29.84,0.35 24,0.35 Z"
     id="path36"
     inkscape:connector-curvature="0"
     style="fill:#ff7f2a" />
  <path
     d="m 24,0.35 a 34,34 0 0 0 -7.87,0.84 22,22 0 0 0 -3.26,1.04 c -1.02,0.41 -1.95,0.9 -2.8,1.45 A 12.92,12.92 0 0 0 5.4,8.8 14.07,14.07 0 0 0 4.2,12.14 17.4,17.4 0 0 0 3.8,15.94 c 0,1.82 0.36,3.78 0.93,5.74 a 43.13,43.13 0 0 0 2.2,5.77 69.54,69.54 0 0 0 4.45,8.17 54.48,54.48 0 0 0 3.12,4.47 54.48,54.48 0 0 0 3.13,3.69 17.94,17.94 0 0 0 3.46,2.93 c 1.05,0.63 2.01,0.94 2.91,0.94 0.9,0 1.86,-0.3 2.9,-0.94 1.06,-0.64 2.2,-1.61 3.47,-2.93 2,-2.08 4.22,-4.97 6.25,-8.16 0.89,-1.4 2.79,-4.5 4.46,-8.17 0.83,-1.83 1.61,-3.8 2.19,-5.77 0.57,-1.96 0.93,-3.92 0.93,-5.73 0,-1.34 -0.13,-2.62 -0.4,-3.8 C 43.53,10.95 43.13,9.83 42.6,8.8 A 12.9,12.9 0 0 0 37.94,3.68 17.19,17.19 0 0 0 35.14,2.23 C 34.13,1.81 33.04,1.46 31.88,1.19 A 34,34 0 0 0 24,0.35 Z"
     id="path38"
     style="fill:url(#f)"
     inkscape:connector-curvature="0" />
  <path
     d="m 24.27,47.56 a 5.61,5.61 0 0 0 2.64,-0.85 c 1.05,-0.64 2.19,-1.61 3.46,-2.93 2,-2.08 4.22,-4.97 6.25,-8.16 0.89,-1.4 2.79,-4.5 4.46,-8.17 0.83,-1.83 1.61,-3.8 2.19,-5.77 0.57,-1.96 0.93,-3.92 0.93,-5.73 0,-1.34 -0.13,-2.62 -0.4,-3.8 C 43.53,10.95 43.13,9.83 42.6,8.8 A 12.9,12.9 0 0 0 37.94,3.68 17.19,17.19 0 0 0 35.14,2.23 C 34.13,1.81 33.04,1.46 31.88,1.19 A 34,34 0 0 0 24.27,0.38 Z"
     id="path40"
     style="fill:url(#g)"
     inkscape:connector-curvature="0" />
  <path
     d="m 21.74,0.65 c -1.85,0.12 -3.76,0.19 -5.34,0.56 -0.44,0.1 -0.8,0.27 -1.22,0.4 v 26.48 l 3.27,-2.96 3.29,3.32 V 28.4 Z"
     id="path42"
     inkscape:connector-curvature="0"
     style="opacity:0.76000001;fill:#1a1a1a;fill-rule:evenodd;filter:url(#h)" />
  <path
     d="m 20.72,0.47 c -1.56,0.14 -3.24,0.36 -4.6,0.69 -0.7,0.16 -1.31,0.4 -1.96,0.62 v 25.27 l 3.27,-2.95 3.28,3.32 v -0.05 z"
     id="path44"
     inkscape:connector-curvature="0"
     style="fill:#fd4747;fill-rule:evenodd" />
  <path
     d="m 24,0.35 c -5.83,0 -10.52,1.12 -13.93,3.33 -4.1,2.66 -6.27,6.9 -6.27,12.27 0,7.23 5.8,16.88 7.58,19.67 a 54.48,54.48 0 0 0 6.25,8.16 c 2.54,2.64 4.57,3.87 6.37,3.87 1.8,0 3.83,-1.23 6.37,-3.87 2,-2.08 4.22,-4.97 6.25,-8.16 C 38.4,32.83 44.2,23.18 44.2,15.95 44.2,10.58 42.04,6.34 37.94,3.68 34.52,1.47 29.84,0.35 24,0.35 Z m 0,0.14 c 2.11,0.09 4.12,0.27 5.88,0.7 1.16,0.27 2.25,0.62 3.26,1.03 1.01,0.42 1.94,0.9 2.8,1.46 A 12.92,12.92 0 0 1 40.6,8.8 c 0.53,1.03 0.92,2.15 1.2,3.34 0.26,1.2 0.4,2.47 0.4,3.8 0,1.82 -0.37,3.77 -0.94,5.74 a 43.19,43.19 0 0 1 -2.2,5.77 69.59,69.59 0 0 1 -4.45,8.17 54.47,54.47 0 0 1 -6.25,8.16 17.98,17.98 0 0 1 -3.46,2.93 c -0.32,0.2 -0.62,0.3 -0.91,0.39 -0.3,-0.08 -0.6,-0.2 -0.9,-0.4 -1.06,-0.63 -2.2,-1.6 -3.47,-2.92 -2,-2.08 -4.22,-4.97 -6.25,-8.16 A 69.6,69.6 0 0 1 8.91,27.45 43.19,43.19 0 0 1 6.72,21.68 20.93,20.93 0 0 1 5.79,15.95 c 0,-1.34 0.13,-2.61 0.4,-3.8 0.27,-1.2 0.67,-2.32 1.2,-3.35 a 12.92,12.92 0 0 1 4.67,-5.12 17.1,17.1 0 0 1 2.8,-1.46 c 1,-0.41 2.1,-0.76 3.26,-1.04 C 19.88,0.76 21.89,0.58 24,0.5 Z"
     id="path46"
     inkscape:connector-curvature="0"
     style="opacity:0.2" />
</svg>
