<?xml version="1.0" encoding="UTF-8" standalone="no"?>
<svg
   xmlns:dc="http://purl.org/dc/elements/1.1/"
   xmlns:cc="http://creativecommons.org/ns#"
   xmlns:rdf="http://www.w3.org/1999/02/22-rdf-syntax-ns#"
   xmlns:svg="http://www.w3.org/2000/svg"
   xmlns="http://www.w3.org/2000/svg"
   xmlns:xlink="http://www.w3.org/1999/xlink"
   xmlns:sodipodi="http://sodipodi.sourceforge.net/DTD/sodipodi-0.dtd"
   xmlns:inkscape="http://www.inkscape.org/namespaces/inkscape"
   width="48"
   height="48"
   version="1.1"
   id="svg33"
   sodipodi:docname="amd.svg"
   inkscape:version="0.92.4 (5da689c313, 2019-01-14)">
  <metadata
     id="metadata37">
    <rdf:RDF>
      <cc:Work
         rdf:about="">
        <dc:format>image/svg+xml</dc:format>
        <dc:type
           rdf:resource="http://purl.org/dc/dcmitype/StillImage" />
        <dc:title></dc:title>
      </cc:Work>
    </rdf:RDF>
  </metadata>
  <sodipodi:namedview
     pagecolor="#ffffff"
     bordercolor="#666666"
     borderopacity="1"
     objecttolerance="10"
     gridtolerance="10"
     guidetolerance="10"
     inkscape:pageopacity="0"
     inkscape:pageshadow="2"
     inkscape:window-width="1112"
     inkscape:window-height="480"
     id="namedview35"
     showgrid="false"
     inkscape:zoom="4.9166667"
     inkscape:cx="2.1355932"
     inkscape:cy="24"
     inkscape:window-x="0"
     inkscape:window-y="25"
     inkscape:window-maximized="0"
     inkscape:current-layer="svg33" />
  <defs
     id="defs21">
    <linearGradient
       id="b">
      <stop
         offset="0"
         stop-color="#b3b3b3"
         id="stop2" />
      <stop
         offset="1"
         stop-color="#fff"
         id="stop4" />
    </linearGradient>
    <linearGradient
       xlink:href="#a"
       id="c"
       x1="-.56"
       y1="37.34"
       x2="23.72"
       y2="-3.09"
       gradientUnits="userSpaceOnUse" />
    <linearGradient
       id="a">
      <stop
         offset="0"
         stop-color="#a00"
         id="stop8" />
      <stop
         offset=".22"
         stop-color="#f55"
         id="stop10" />
      <stop
         offset=".44"
         stop-color="red"
         id="stop12" />
      <stop
         offset=".67"
         stop-color="#c83737"
         id="stop14" />
      <stop
         offset=".8"
         stop-color="red"
         id="stop16" />
      <stop
         offset="1"
         stop-color="#ff2a2a"
         id="stop18" />
    </linearGradient>
  </defs>
  <path
     d="m 24,0.35 c -5.83,0 -10.52,1.12 -13.93,3.33 -4.1,2.66 -6.27,6.9 -6.27,12.27 0,7.23 5.8,16.88 7.58,19.67 a 54.48,54.48 0 0 0 6.25,8.16 c 2.54,2.64 4.57,3.87 6.37,3.87 1.8,0 3.83,-1.23 6.37,-3.87 2,-2.08 4.22,-4.97 6.25,-8.16 C 38.4,32.83 44.2,23.18 44.2,15.95 44.2,10.58 42.04,6.34 37.94,3.68 34.52,1.47 29.84,0.35 24,0.35 Z"
     id="path23"
     style="fill:url(#c)"
     inkscape:connector-curvature="0" />
  <path
     d="m 24,0.35 c -5.83,0 -10.52,1.12 -13.93,3.33 -4.1,2.66 -6.27,6.9 -6.27,12.27 0,7.23 5.8,16.88 7.58,19.67 a 54.48,54.48 0 0 0 6.25,8.16 c 2.54,2.64 4.57,3.87 6.37,3.87 1.8,0 3.83,-1.23 6.37,-3.87 2,-2.08 4.22,-4.97 6.25,-8.16 C 38.4,32.83 44.2,23.18 44.2,15.95 44.2,10.58 42.04,6.34 37.94,3.68 34.52,1.47 29.84,0.35 24,0.35 Z m 0,0.14 c 2.11,0.09 4.12,0.27 5.88,0.7 1.16,0.27 2.25,0.62 3.26,1.03 1.01,0.42 1.94,0.9 2.8,1.46 A 12.92,12.92 0 0 1 40.6,8.8 c 0.53,1.03 0.92,2.15 1.2,3.34 0.26,1.2 0.4,2.47 0.4,3.8 0,1.82 -0.37,3.77 -0.94,5.74 a 43.19,43.19 0 0 1 -2.2,5.77 69.59,69.59 0 0 1 -4.45,8.17 54.47,54.47 0 0 1 -6.25,8.16 17.98,17.98 0 0 1 -3.46,2.93 c -0.32,0.2 -0.62,0.3 -0.91,0.39 -0.3,-0.08 -0.6,-0.2 -0.9,-0.4 -1.06,-0.63 -2.2,-1.6 -3.47,-2.92 -2,-2.08 -4.22,-4.97 -6.25,-8.16 A 69.6,69.6 0 0 1 8.91,27.45 43.19,43.19 0 0 1 6.72,21.68 20.93,20.93 0 0 1 5.79,15.95 c 0,-1.34 0.13,-2.61 0.4,-3.8 0.27,-1.2 0.67,-2.32 1.2,-3.35 a 12.92,12.92 0 0 1 4.67,-5.12 17.1,17.1 0 0 1 2.8,-1.46 c 1,-0.41 2.1,-0.76 3.26,-1.04 C 19.88,0.76 21.89,0.58 24,0.5 Z"
     id="path25"
     inkscape:connector-curvature="0"
     style="opacity:0.2" />
  <path
     d="M 24,5.11 A 13.47,13.47 0 0 1 37.47,18.58 13.47,13.47 0 0 1 24,32.08 13.47,13.47 0 0 1 10.5,18.6 13.47,13.47 0 0 1 23.98,5.09 Z"
     id="path27"
     inkscape:connector-curvature="0"
     style="fill:#501616" />
  <path
     d="M 24,4.57 A 15.69,15.69 0 0 0 8.31,20.28 15.69,15.69 0 0 0 24.02,35.95 15.69,15.69 0 0 0 39.69,20.25 15.69,15.69 0 0 0 24,4.58 Z M 23.98,6.91 A 13.47,13.47 0 0 1 37.45,20.38 13.47,13.47 0 0 1 23.98,33.88 13.47,13.47 0 0 1 10.48,20.41 13.47,13.47 0 0 1 23.95,6.89 Z m -8.56,4.72 4.99,4.99 h 7.16 v 0.05 h 0.02 v 7.08 l 5,4.99 V 11.65 H 15.43 Z m 4.99,5.61 -5,4.91 v 6.64 h 7.02 l 4.99,-4.99 h -6.99 v -6.56 z"
     id="path29"
     inkscape:connector-curvature="0"
     style="opacity:0.58999999" />
  <path
     d="M 24,2.74 A 15.69,15.69 0 0 0 8.31,18.46 15.69,15.69 0 0 0 24.02,34.12 15.69,15.69 0 0 0 39.7,18.43 15.69,15.69 0 0 0 24,2.74 Z m -0.05,2.32 0.03,0.03 A 13.47,13.47 0 0 1 37.45,18.56 13.47,13.47 0 0 1 23.98,32.06 13.47,13.47 0 0 1 10.48,18.58 13.47,13.47 0 0 1 23.95,5.06 Z m -8.5,4.77 4.96,4.96 h 7.16 v 0.05 h 0.02 v 7.09 l 5,4.98 V 9.83 Z m 4.96,5.59 -5,4.9 v 6.65 h 7.02 l 4.99,-5 h -6.99 v -6.55 z"
     id="path31"
     inkscape:connector-curvature="0"
     style="fill:#f4d7d7" />
</svg>
