<?xml version="1.0" encoding="UTF-8" standalone="no"?>
<svg
   xmlns:dc="http://purl.org/dc/elements/1.1/"
   xmlns:cc="http://creativecommons.org/ns#"
   xmlns:rdf="http://www.w3.org/1999/02/22-rdf-syntax-ns#"
   xmlns:svg="http://www.w3.org/2000/svg"
   xmlns="http://www.w3.org/2000/svg"
   xmlns:xlink="http://www.w3.org/1999/xlink"
   xmlns:sodipodi="http://sodipodi.sourceforge.net/DTD/sodipodi-0.dtd"
   xmlns:inkscape="http://www.inkscape.org/namespaces/inkscape"
   width="48"
   height="48"
   version="1.1"
   id="svg114"
   sodipodi:docname="application-x-clementine.svg"
   inkscape:version="0.92.4 (5da689c313, 2019-01-14)">
  <sodipodi:namedview
     pagecolor="#ffffff"
     bordercolor="#666666"
     borderopacity="1"
     objecttolerance="10"
     gridtolerance="10"
     guidetolerance="10"
     inkscape:pageopacity="0"
     inkscape:pageshadow="2"
     inkscape:window-width="1112"
     inkscape:window-height="480"
     id="namedview116"
     showgrid="false"
     inkscape:zoom="4.9166667"
     inkscape:cx="2.1355932"
     inkscape:cy="24"
     inkscape:window-x="0"
     inkscape:window-y="25"
     inkscape:window-maximized="0"
     inkscape:current-layer="svg114" />
  <metadata
     id="metadata2">
    <rdf:RDF>
      <cc:Work>
        <dc:format>image/svg+xml</dc:format>
        <dc:type
           rdf:resource="http://purl.org/dc/dcmitype/StillImage" />
        <dc:title></dc:title>
      </cc:Work>
    </rdf:RDF>
  </metadata>
  <defs
     id="defs20">
    <linearGradient
       id="c">
      <stop
         offset="0"
         stop-color="#ffb380"
         id="stop4" />
      <stop
         offset="1"
         stop-color="#ff7f2a"
         id="stop6" />
    </linearGradient>
    <linearGradient
       id="b">
      <stop
         offset="0"
         id="stop9" />
      <stop
         offset="1"
         stop-opacity="0"
         id="stop11" />
    </linearGradient>
    <linearGradient
       id="a">
      <stop
         offset="0"
         stop-color="#b3b3b3"
         id="stop14" />
      <stop
         offset="1"
         stop-color="#e6e6e6"
         id="stop16" />
    </linearGradient>
    <radialGradient
       xlink:href="#c"
       id="d"
       cx="30.839"
       cy="30.274"
       fx="30.839"
       fy="30.274"
       r="20.2"
       gradientTransform="matrix(1.60684,-0.0742,0.08404,1.81993,-21.259,-21.463)"
       gradientUnits="userSpaceOnUse" />
  </defs>
  <use
     transform="matrix(0.90802,0,0,0.90802,27.264,-8.363)"
     width="64"
     height="64"
     xlink:href="#a"
     id="use22"
     x="0"
     y="0" />
  <use
     transform="matrix(0.63209,0,0,0.63209,9.442,-11.444)"
     width="64"
     height="64"
     xlink:href="#a"
     id="use24"
     x="0"
     y="0" />
  <use
     transform="matrix(0.34302,0,0,0.34302,48.283,3.296)"
     width="64"
     height="64"
     xlink:href="#a"
     id="use26"
     x="0"
     y="0" />
  <use
     transform="matrix(0.34302,0,0,0.34302,51.995,8.158)"
     width="64"
     height="64"
     xlink:href="#a"
     id="use28"
     x="0"
     y="0" />
  <use
     transform="matrix(0.48755,0,0,0.48755,43.889,2.07)"
     width="64"
     height="64"
     xlink:href="#a"
     id="use30"
     x="0"
     y="0" />
  <use
     transform="matrix(0.90802,0,0,0.90802,27.264,-8.363)"
     width="64"
     height="64"
     xlink:href="#a"
     id="use32"
     x="0"
     y="0" />
  <use
     transform="matrix(0.63209,0,0,0.63209,9.442,-11.444)"
     width="64"
     height="64"
     xlink:href="#a"
     id="use34"
     x="0"
     y="0" />
  <use
     transform="matrix(0.34302,0,0,0.34302,48.283,3.296)"
     width="64"
     height="64"
     xlink:href="#a"
     id="use36"
     x="0"
     y="0" />
  <use
     transform="matrix(0.34302,0,0,0.34302,51.995,8.158)"
     width="64"
     height="64"
     xlink:href="#a"
     id="use38"
     x="0"
     y="0" />
  <use
     transform="matrix(0.48755,0,0,0.48755,43.889,2.07)"
     width="64"
     height="64"
     xlink:href="#a"
     id="use40"
     x="0"
     y="0" />
  <use
     transform="matrix(0.90802,0,0,0.90802,27.264,-8.363)"
     width="64"
     height="64"
     xlink:href="#a"
     id="use42"
     x="0"
     y="0" />
  <use
     transform="matrix(0.63209,0,0,0.63209,9.442,-11.444)"
     width="64"
     height="64"
     xlink:href="#a"
     id="use44"
     x="0"
     y="0" />
  <use
     transform="matrix(0.34302,0,0,0.34302,48.283,3.296)"
     width="64"
     height="64"
     xlink:href="#a"
     id="use46"
     x="0"
     y="0" />
  <use
     transform="matrix(0.34302,0,0,0.34302,51.995,8.158)"
     width="64"
     height="64"
     xlink:href="#a"
     id="use48"
     x="0"
     y="0" />
  <use
     transform="matrix(0.48755,0,0,0.48755,43.889,2.07)"
     width="64"
     height="64"
     xlink:href="#a"
     id="use50"
     x="0"
     y="0" />
  <use
     transform="matrix(0.90802,0,0,0.90802,27.264,-8.363)"
     width="64"
     height="64"
     xlink:href="#a"
     id="use52"
     x="0"
     y="0" />
  <use
     transform="matrix(0.63209,0,0,0.63209,9.442,-11.444)"
     width="64"
     height="64"
     xlink:href="#a"
     id="use54"
     x="0"
     y="0" />
  <use
     transform="matrix(0.34302,0,0,0.34302,48.283,3.296)"
     width="64"
     height="64"
     xlink:href="#a"
     id="use56"
     x="0"
     y="0" />
  <use
     transform="matrix(0.34302,0,0,0.34302,51.995,8.158)"
     width="64"
     height="64"
     xlink:href="#a"
     id="use58"
     x="0"
     y="0" />
  <use
     transform="matrix(0.48755,0,0,0.48755,43.889,2.07)"
     width="64"
     height="64"
     xlink:href="#a"
     id="use60"
     x="0"
     y="0" />
  <use
     transform="matrix(0.90802,0,0,0.90802,27.264,-8.363)"
     width="64"
     height="64"
     xlink:href="#a"
     id="use62"
     x="0"
     y="0" />
  <use
     transform="matrix(0.63209,0,0,0.63209,9.442,-11.444)"
     width="64"
     height="64"
     xlink:href="#a"
     id="use64"
     x="0"
     y="0" />
  <use
     transform="matrix(0.34302,0,0,0.34302,48.283,3.296)"
     width="64"
     height="64"
     xlink:href="#a"
     id="use66"
     x="0"
     y="0" />
  <use
     transform="matrix(0.34302,0,0,0.34302,51.995,8.158)"
     width="64"
     height="64"
     xlink:href="#a"
     id="use68"
     x="0"
     y="0" />
  <use
     transform="matrix(0.48755,0,0,0.48755,43.889,2.07)"
     width="64"
     height="64"
     xlink:href="#a"
     id="use70"
     x="0"
     y="0" />
  <use
     transform="matrix(0.90802,0,0,0.90802,27.264,-8.363)"
     width="64"
     height="64"
     xlink:href="#a"
     id="use72"
     x="0"
     y="0" />
  <use
     transform="matrix(0.63209,0,0,0.63209,9.442,-11.444)"
     width="64"
     height="64"
     xlink:href="#a"
     id="use74"
     x="0"
     y="0" />
  <use
     transform="matrix(0.34302,0,0,0.34302,48.283,3.296)"
     width="64"
     height="64"
     xlink:href="#a"
     id="use76"
     x="0"
     y="0" />
  <use
     transform="matrix(0.34302,0,0,0.34302,51.995,8.158)"
     width="64"
     height="64"
     xlink:href="#a"
     id="use78"
     x="0"
     y="0" />
  <use
     transform="matrix(0.48755,0,0,0.48755,43.889,2.07)"
     width="64"
     height="64"
     xlink:href="#a"
     id="use80"
     x="0"
     y="0" />
  <use
     transform="matrix(0.63209,0,0,0.63209,9.442,-11.444)"
     width="64"
     height="64"
     xlink:href="#a"
     id="use82"
     x="0"
     y="0" />
  <use
     transform="matrix(0.63209,0,0,0.63209,9.442,-11.444)"
     width="64"
     height="64"
     xlink:href="#a"
     id="use84"
     x="0"
     y="0" />
  <use
     transform="matrix(0.63209,0,0,0.63209,9.442,-11.444)"
     width="64"
     height="64"
     xlink:href="#a"
     id="use86"
     x="0"
     y="0" />
  <use
     transform="matrix(0.63209,0,0,0.63209,9.442,-11.444)"
     width="64"
     height="64"
     xlink:href="#a"
     id="use88"
     x="0"
     y="0" />
  <use
     transform="matrix(0.63209,0,0,0.63209,9.442,-11.444)"
     width="64"
     height="64"
     xlink:href="#a"
     id="use90"
     x="0"
     y="0" />
  <use
     transform="matrix(0.63209,0,0,0.63209,9.442,-11.444)"
     width="64"
     height="64"
     xlink:href="#a"
     id="use92"
     x="0"
     y="0" />
  <use
     transform="matrix(0.63209,0,0,0.63209,9.442,-11.444)"
     width="64"
     height="64"
     xlink:href="#a"
     id="use94"
     x="0"
     y="0" />
  <use
     transform="matrix(0.63209,0,0,0.63209,9.442,-11.444)"
     width="64"
     height="64"
     xlink:href="#a"
     id="use96"
     x="0"
     y="0" />
  <use
     transform="matrix(0.63209,0,0,0.63209,9.442,-11.444)"
     width="64"
     height="64"
     xlink:href="#a"
     id="use98"
     x="0"
     y="0" />
  <use
     transform="matrix(0.63209,0,0,0.63209,9.442,-11.444)"
     width="64"
     height="64"
     xlink:href="#a"
     id="use100"
     x="0"
     y="0" />
  <use
     transform="matrix(0.63209,0,0,0.63209,9.442,-11.444)"
     width="64"
     height="64"
     xlink:href="#a"
     id="use102"
     x="0"
     y="0" />
  <use
     transform="matrix(0.63209,0,0,0.63209,9.442,-11.444)"
     width="64"
     height="64"
     xlink:href="#a"
     id="use104"
     x="0"
     y="0" />
  <use
     transform="matrix(0.63209,0,0,0.63209,9.442,-11.444)"
     width="64"
     height="64"
     xlink:href="#a"
     id="use106"
     x="0"
     y="0" />
  <path
     d="m 24,0.35 c -5.83,0 -10.52,1.12 -13.93,3.33 -4.1,2.66 -6.27,6.9 -6.27,12.27 0,7.23 5.8,16.88 7.58,19.67 a 54.48,54.48 0 0 0 6.25,8.16 c 2.54,2.64 4.57,3.87 6.37,3.87 1.8,0 3.83,-1.23 6.37,-3.87 2,-2.08 4.22,-4.97 6.25,-8.16 C 38.4,32.83 44.2,23.18 44.2,15.95 44.2,10.58 42.04,6.34 37.94,3.68 34.52,1.47 29.84,0.35 24,0.35 Z"
     id="path108"
     style="fill:url(#d)"
     inkscape:connector-curvature="0" />
  <path
     d="M 18.996,1.56 A 25.865,25.865 0 0 0 13.6,1.992 c -0.236,0.087 -0.507,0.14 -0.735,0.235 -1.01,0.415 -1.942,0.9 -2.795,1.453 A 13.847,13.847 0 0 0 7.361,5.965 12.919,12.919 0 0 0 5.398,8.799 14.073,14.073 0 0 0 4.203,12.141 17.406,17.406 0 0 0 3.801,15.949 c 0,1.808 0.362,3.768 0.933,5.733 0.572,1.965 1.352,3.935 2.188,5.767 0.365,0.8 0.6,1.047 0.973,1.781 3.01,3.553 7.125,7.035 12.525,10.153 3.495,2.018 6.79,3.337 9.973,4.365 1.95,-2.033 4.105,-4.857 6.091,-7.953 -1.28,-2.336 -2.321,-11.823 -2.861,-16.3 l 0.361,-0.339 0.82,0.217 a 743.676,743.676 0 0 0 7.325,5.307 c 0.131,-0.34 0.262,-0.67 0.385,-1.014 -2.593,-1.735 -5.305,-3.54 -7.348,-4.92 l -0.385,-0.603 0.313,-0.387 c 2.987,-0.182 6.305,-0.5 8.892,-0.504 0.036,-0.425 0.213,-0.892 0.213,-1.303 0,-0.138 -0.038,-0.255 -0.04,-0.392 -2.014,0.498 -6.579,0.976 -9.837,1.355 L 33.574,16.646 33.115,16.043 C 33.042,12.49 32.195,7.101 33.598,7.33 33.838,7.297 34.088,7.128 34.49,7.16 h 0.002 c 0.134,0.011 0.279,0.049 0.457,0.121 3.935,1.594 6.264,3.207 8.946,5.776 -0.05,-0.296 -0.032,-0.63 -0.096,-0.916 -0.149,-0.665 -0.435,-1.244 -0.664,-1.86 A 44.849,44.849 0 0 0 38.861,7.451 C 32.689,3.888 25.444,1.701 18.996,1.561 Z m 2.559,2.028 c 2.135,-0.07 4.376,0.414 7.529,1.45 0.586,0.167 0.822,0.661 1.232,1.013 0.89,0.494 1.32,6.016 1.69,9.75 l -0.363,0.29 -0.82,-0.241 C 25.848,12.19 16.96,6.36 17.572,5.496 17.539,5.171 17.025,4.508 17.644,4.312 c 1.37,-0.44 2.629,-0.68 3.91,-0.722 z m -8.809,2.558 c 0.49,-0.1 1.334,0.278 1.979,0.387 1.062,-0.095 10.295,6.3 15.638,9.92 l 0.412,0.604 -0.386,0.386 C 24.665,17.749 13.047,19.296 11.369,17.637 10.935,17.402 10.179,17.159 9.584,16.814 9.227,16.607 8.899,16.346 8.787,16.02 6.967,10.784 8.129,8.496 12.553,6.219 a 0.569,0.569 0 0 1 0.193,-0.073 z m 18.39,12.19 0.821,0.266 0.482,0.652 c 0.033,4.744 1.302,15.609 -1.062,15.88 -0.582,0.35 -1.164,1.549 -2.484,1.182 -3.257,-0.89 -5.956,-1.914 -8.256,-3.257 -3.83,-2.238 -6.375,-5.216 -8.737,-9.487 -0.516,-0.772 0.668,-1.255 1.063,-1.857 0,-1.176 12.583,-2.65 18.174,-3.38 z"
     id="path110"
     inkscape:connector-curvature="0"
     style="color:#000000;fill:#ffe6d5;fill-opacity:0.84899998" />
  <path
     d="m 3.92,14.74 c -0.02,0.4 -0.12,0.78 -0.12,1.2 0,7.24 5.8,16.9 7.58,19.68 a 54.47,54.47 0 0 0 6.25,8.16 c 2.54,2.64 4.57,3.87 6.37,3.87 1.8,0 3.83,-1.23 6.37,-3.87 2,-2.08 4.22,-4.97 6.25,-8.16 1.78,-2.79 7.58,-12.44 7.58,-19.67 0,-0.43 -0.1,-0.8 -0.12,-1.21 a 21.6,21.6 0 0 1 -0.8,4.94 43.2,43.2 0 0 1 -2.2,5.77 69.59,69.59 0 0 1 -4.46,8.17 54.47,54.47 0 0 1 -6.25,8.16 17.98,17.98 0 0 1 -3.46,2.93 c -1.05,0.64 -2,0.94 -2.9,0.94 -0.91,0 -1.87,-0.3 -2.92,-0.94 -1.05,-0.64 -2.2,-1.6 -3.46,-2.93 -2,-2.08 -4.21,-4.97 -6.25,-8.16 A 69.6,69.6 0 0 1 6.92,25.45 43.2,43.2 0 0 1 4.73,19.68 21.6,21.6 0 0 1 3.93,14.74 Z"
     id="path112"
     inkscape:connector-curvature="0"
     style="opacity:0.5" />
</svg>
