<svg xmlns="http://www.w3.org/2000/svg" viewBox="0 0 48 48"><defs><linearGradient id="a" x1="16" x2="40.38" y1="37.08" y2="6.49" gradientUnits="userSpaceOnUse"><stop stop-color="#ff2a2a" offset="0"/><stop stop-color="#f55" offset=".1"/><stop stop-color="#ff4242" offset=".3"/><stop stop-color="#ff3636" offset=".42"/><stop stop-color="#ff2a2a" offset=".54"/><stop stop-color="#ff2a2a" offset=".67"/><stop stop-color="#c83737" offset="1"/></linearGradient></defs><path fill="url(#a)" d="M24 .35c-5.83 0-10.52 1.12-13.93 3.33-4.1 2.66-6.27 6.9-6.27 12.27 0 7.23 5.8 16.88 7.58 19.67a54.47 54.47 0 0 0 6.25 8.16c2.54 2.64 4.57 3.87 6.37 3.87 1.8 0 3.83-1.23 6.37-3.87 2-2.08 4.22-4.97 6.25-8.16 1.78-2.79 7.58-12.44 7.58-19.67 0-5.37-2.16-9.62-6.26-12.27C34.52 1.47 29.84.35 24 .35z"/><path opacity=".65" d="M41.46 22.48c.38-1.54.74-3.1.74-4.53 0-.86-.14-1.64-.25-2.43l-1.2 1.76c-3.24 4.83-7.13 8.05-9.75 8.05-5.79 0-6.56-4.48-1.06-6.74 3.97-1.63 8.61-4.6 10.96-6.98-.11-.26-.16-.56-.3-.81a12.9 12.9 0 0 0-1.71-2.5c-2.12 2.8-10.67 9.4-13.17 9.4-.27 0-.37-2.11-.6-5.3-.24-3.32-.15-6.04-.54-5.85-.06.02-.97 2.5-2.32 4.94-3.24 5.87-5.3 8.44-8.61 10.65-1.44.96-3.7 2.16-4.2 2.82-.46.63-.18.24 1.74-.3 4.78-1.38 4.43-2.47.81 1.87-4.93 5.9-2.45 4.07 2.71-.76a24.62 24.62 0 0 1 5.62-4.02c.72-.28 1.17-.47 2.07-.53 1.06-.08 1.67.03 2.06 1.2.34 1 1.1 2.8 2.3 4.22.48.57.91.85 1.35 1.12.4.26.82.52 1.39.64 1.13.25 1.88.12 2.68.08 1.7-.1 4.58-1.65 6.56-3.24a11.53 11.53 0 0 0 2.72-2.76zM23.4 13.32l.23 2.56a3.22 3.22 0 0 1-2 3.07c-1.03.43-2.03 1.16-1.94.02.05-.61.96-1.58 2.06-3.12z"/><path fill="#e6e6e6" d="M43.46 20.48c.38-1.54.74-3.1.74-4.53 0-.86-.14-1.64-.25-2.43l-1.2 1.76c-3.24 4.83-7.13 8.05-9.75 8.05-5.79 0-6.56-4.48-1.06-6.74 3.97-1.63 8.61-4.6 10.96-6.98-.11-.26-.16-.56-.3-.81a12.9 12.9 0 0 0-1.71-2.5c-2.12 2.8-10.67 9.4-13.17 9.4-.27 0-.37-2.11-.6-5.3-.24-3.32-.15-6.04-.54-5.85-.06.02-.97 2.5-2.32 4.94-3.24 5.87-5.3 8.44-8.61 10.65-1.44.96-3.7 2.16-4.2 2.82-.46.63-.18.24 1.74-.3 4.78-1.38 4.43-2.47.81 1.87-4.93 5.9-2.45 4.07 2.71-.76a24.62 24.62 0 0 1 5.62-4.02c.72-.28 1.17-.47 2.07-.53 1.06-.08 1.67.03 2.06 1.2.34 1 1.1 2.8 2.3 4.22.48.57.91.85 1.35 1.12.4.26.82.52 1.39.64 1.13.25 1.88.12 2.68.08 1.7-.1 4.58-1.65 6.56-3.24a11.53 11.53 0 0 0 2.72-2.76zM25.4 11.32l.23 2.56a3.22 3.22 0 0 1-2 3.07c-1.03.43-2.03 1.16-1.94.02.05-.61.96-1.58 2.06-3.12z"/><path opacity=".2" d="M24 .35c-5.83 0-10.52 1.12-13.94 3.33-4.1 2.66-6.27 6.9-6.27 12.27 0 7.23 5.81 16.88 7.59 19.67a54.47 54.47 0 0 0 6.25 8.16c2.54 2.64 4.56 3.87 6.37 3.87 1.8 0 3.83-1.23 6.37-3.87 2-2.08 4.21-4.97 6.25-8.16 1.78-2.79 7.58-12.44 7.58-19.67 0-5.37-2.16-9.62-6.26-12.27C34.52 1.47 29.84.35 24 .35zm0 .14c2.11.09 4.12.27 5.88.7a22 22 0 0 1 3.26 1.03c1 .42 1.94.9 2.8 1.46A12.92 12.92 0 0 1 40.6 8.8c.52 1.03.92 2.15 1.2 3.34.26 1.2.4 2.47.4 3.8 0 1.82-.37 3.77-.94 5.74a43.18 43.18 0 0 1-2.2 5.77 69.59 69.59 0 0 1-4.45 8.17 54.46 54.46 0 0 1-6.25 8.16 17.98 17.98 0 0 1-3.46 2.93c-.32.2-.62.3-.91.39-.3-.08-.6-.2-.91-.4-1.05-.63-2.2-1.6-3.46-2.92-2-2.08-4.22-4.97-6.25-8.16a69.6 69.6 0 0 1-4.46-8.17 43.2 43.2 0 0 1-2.19-5.77 20.93 20.93 0 0 1-.94-5.73c0-1.34.14-2.61.4-3.81.27-1.2.68-2.31 1.2-3.34a12.92 12.92 0 0 1 4.67-5.12c.86-.56 1.8-1.04 2.8-1.46s2.1-.76 3.27-1.04C19.88.76 21.89.58 24 .5z"/></svg>