<svg xmlns="http://www.w3.org/2000/svg" viewBox="0 0 48 48"><defs><linearGradient id="a" x1="13.19" x2="44.01" y1="6.27" y2="44.98" gradientUnits="userSpaceOnUse"><stop offset="0"/><stop stop-opacity="0" offset="1"/></linearGradient><radialGradient id="b" cx="4.19" cy="18.89" r="14.75" gradientTransform="translate(20)" gradientUnits="userSpaceOnUse"><stop stop-opacity=".02" offset="0"/><stop stop-opacity=".76" offset=".85"/><stop offset="1"/></radialGradient></defs><path fill="#e3dbde" d="M24 .35c-5.83 0-10.52 1.12-13.93 3.33-4.1 2.66-6.27 6.9-6.27 12.27 0 7.23 5.8 16.88 7.58 19.67a54.47 54.47 0 0 0 6.25 8.16c2.54 2.64 4.57 3.87 6.37 3.87 1.8 0 3.83-1.23 6.37-3.87 2-2.08 4.22-4.97 6.25-8.16 1.78-2.79 7.58-12.44 7.58-19.67 0-5.37-2.16-9.62-6.26-12.27C34.52 1.47 29.84.35 24 .35z"/><path opacity=".4" fill="url(#a)" d="M31.56 6.2l-3.54 4.31a9.22 9.22 0 0 1 .82.43 9.22 9.22 0 0 1 .77.5 9.22 9.22 0 0 1 .72.58 9.22 9.22 0 0 1 .65.65 9.22 9.22 0 0 1 .59.7 9.22 9.22 0 0 1 .51.77 9.22 9.22 0 0 1 .44.81 9.22 9.22 0 0 1 .35.85 9.22 9.22 0 0 1 .26.89 9.22 9.22 0 0 1 .18.9 9.22 9.22 0 0 1 .08.92 9.22 9.22 0 0 1 .01.38 9.22 9.22 0 0 1-.04.92 9.22 9.22 0 0 1-.14.91 9.22 9.22 0 0 1-.23.9 9.22 9.22 0 0 1-.31.86 9.22 9.22 0 0 1-.4.83 9.22 9.22 0 0 1-.49.79 9.22 9.22 0 0 1-.55.73 9.22 9.22 0 0 1-.63.68 9.22 9.22 0 0 1-.7.6 9.22 9.22 0 0 1-.74.54 9.22 9.22 0 0 1-.8.46 9.22 9.22 0 0 1-.84.37 9.22 9.22 0 0 1-.88.3 9.22 9.22 0 0 1-.9.2 9.22 9.22 0 0 1-.91.1 9.22 9.22 0 0 1-.92.03 9.22 9.22 0 0 1-.92-.07 9.22 9.22 0 0 1-.9-.17 9.22 9.22 0 0 1-.9-.25 9.22 9.22 0 0 1-.85-.34 9.22 9.22 0 0 1-.82-.43 9.22 9.22 0 0 1-.77-.5 9.22 9.22 0 0 1-.71-.58 9.22 9.22 0 0 1-.66-.65 9.22 9.22 0 0 1-.59-.7 9.22 9.22 0 0 1-.1-.15l-3.52 4.28 1.45 1.49c.43.37.84.76 1.31 1.08a14.71 14.71 0 0 0 21.83-6.49 14.63 14.63 0 0 0 .86-8.7 14.65 14.65 0 0 0-6.2-9.26c-.27-.19-.58-.3-.87-.47z"/><path opacity=".45" fill="url(#b)" d="M24.19 4.15a14.75 14.75 0 1 0 0 29.49 14.75 14.75 0 0 0 0-29.5zm.26 5.53a9.22 9.22 0 0 1 .92.07 9.22 9.22 0 0 1 .91.17 9.22 9.22 0 0 1 .88.25 9.22 9.22 0 0 1 .86.34 9.22 9.22 0 0 1 .82.43 9.22 9.22 0 0 1 .77.5 9.22 9.22 0 0 1 .72.58 9.22 9.22 0 0 1 .65.65 9.22 9.22 0 0 1 .6.7 9.22 9.22 0 0 1 .5.77 9.22 9.22 0 0 1 .44.81 9.22 9.22 0 0 1 .35.85 9.22 9.22 0 0 1 .27.89 9.22 9.22 0 0 1 .17.9 9.22 9.22 0 0 1 .08.92 9.22 9.22 0 0 1 .01.38 9.22 9.22 0 0 1-.04.92 9.22 9.22 0 0 1-.14.91 9.22 9.22 0 0 1-.23.9 9.22 9.22 0 0 1-.31.86 9.22 9.22 0 0 1-.4.83 9.22 9.22 0 0 1-.49.79 9.22 9.22 0 0 1-.55.73 9.22 9.22 0 0 1-.63.68 9.22 9.22 0 0 1-.7.6 9.22 9.22 0 0 1-.74.54 9.22 9.22 0 0 1-.8.46 9.22 9.22 0 0 1-.84.37 9.22 9.22 0 0 1-.88.3 9.22 9.22 0 0 1-.9.2 9.22 9.22 0 0 1-.91.1 9.22 9.22 0 0 1-.92.03 9.22 9.22 0 0 1-.92-.07 9.22 9.22 0 0 1-.9-.17 9.22 9.22 0 0 1-.9-.25 9.22 9.22 0 0 1-.85-.34 9.22 9.22 0 0 1-.81-.43 9.22 9.22 0 0 1-.78-.5 9.22 9.22 0 0 1-.71-.58 9.22 9.22 0 0 1-.66-.65 9.22 9.22 0 0 1-.59-.7 9.22 9.22 0 0 1-.51-.77 9.22 9.22 0 0 1-.44-.81 9.22 9.22 0 0 1-.35-.86 9.22 9.22 0 0 1-.26-.88 9.22 9.22 0 0 1-.18-.9 9.22 9.22 0 0 1-.08-.92 9.22 9.22 0 0 1-.01-.39 9.22 9.22 0 0 1 .05-.92 9.22 9.22 0 0 1 .13-.9 9.22 9.22 0 0 1 .23-.9 9.22 9.22 0 0 1 .32-.87 9.22 9.22 0 0 1 .4-.83 9.22 9.22 0 0 1 .48-.78 9.22 9.22 0 0 1 .56-.73 9.22 9.22 0 0 1 .62-.68 9.22 9.22 0 0 1 .7-.6 9.22 9.22 0 0 1 .75-.54 9.22 9.22 0 0 1 .8-.46 9.22 9.22 0 0 1 .84-.38 9.22 9.22 0 0 1 .87-.29 9.22 9.22 0 0 1 .9-.2 9.22 9.22 0 0 1 .91-.11 9.22 9.22 0 0 1 .92-.02z"/><path opacity=".5" fill="#050000" d="M30.27 19.5c0 .1-3.92 2.35-4 2.4-.09.05-3.98 2.44-4.07 2.4-.08-.05 0-4.68 0-4.77 0-.1-.08-4.77 0-4.82.08-.05 3.95 2.33 4.03 2.38.08.04 4.04 2.32 4.04 2.41z"/><path fill="#c4b7c8" d="M29.72 18.52c0 .1-3.93 2.35-4.01 2.4-.08.05-3.98 2.44-4.06 2.4-.08-.05-.02-4.68-.02-4.77 0-.1-.06-4.77.02-4.82.08-.05 3.94 2.33 4.02 2.38.08.04 4.05 2.32 4.05 2.41z"/><path opacity=".5" d="M3.93 14.74c-.03.4-.13.78-.13 1.2 0 7.24 5.8 16.9 7.58 19.68a54.47 54.47 0 0 0 6.25 8.16c2.54 2.64 4.57 3.87 6.37 3.87 1.8 0 3.83-1.23 6.37-3.87 2-2.08 4.22-4.97 6.25-8.16 1.78-2.79 7.58-12.44 7.58-19.67 0-.43-.1-.8-.13-1.21a21.6 21.6 0 0 1-.8 4.94 43.2 43.2 0 0 1-2.2 5.77 69.59 69.59 0 0 1-4.45 8.17 54.46 54.46 0 0 1-6.25 8.16 17.98 17.98 0 0 1-3.46 2.93c-1.05.64-2 .94-2.9.94-.91 0-1.87-.3-2.92-.94-1.05-.64-2.2-1.6-3.46-2.93-2-2.08-4.22-4.97-6.25-8.16a69.6 69.6 0 0 1-4.46-8.17 43.2 43.2 0 0 1-2.19-5.77 21.6 21.6 0 0 1-.8-4.94z"/></svg>