<?xml version="1.0" encoding="UTF-8" standalone="no"?><svg xmlns:dc="http://purl.org/dc/elements/1.1/" xmlns:cc="http://creativecommons.org/ns#" xmlns:rdf="http://www.w3.org/1999/02/22-rdf-syntax-ns#" xmlns="http://www.w3.org/2000/svg" xmlns:xlink="http://www.w3.org/1999/xlink" width="48" height="48" viewBox="0 0 12.7 12.7"><metadata><rdf:RDF><cc:Work><dc:format>image/svg+xml</dc:format><dc:type rdf:resource="http://purl.org/dc/dcmitype/StillImage"/><dc:title/></cc:Work></rdf:RDF></metadata><defs><linearGradient id="f"><stop offset="0" stop-color="#fff"/><stop offset="1" stop-color="#2c89a0"/></linearGradient><linearGradient id="e"><stop offset="0" stop-color="#00112b"/><stop offset="1" stop-color="#214478"/></linearGradient><linearGradient id="b"><stop offset="0" stop-color="#020000"/><stop offset="1" stop-color="#6f918a" stop-opacity="0"/></linearGradient><linearGradient id="a"><stop offset="0" stop-color="#162d50"/><stop offset="1" stop-color="#2c5aa0"/></linearGradient><linearGradient id="c"><stop offset="0" stop-color="#fff" stop-opacity=".18"/><stop offset="1" stop-opacity="0"/></linearGradient><linearGradient id="d"><stop offset="0"/><stop offset="1" stop-opacity="0"/></linearGradient><linearGradient xlink:href="#e" id="h" x1="3.67" y1="5.29" x2="10.58" y2="5.29" gradientUnits="userSpaceOnUse"/><linearGradient xlink:href="#e" id="i" x1="2.96" y1="4.19" x2="6.52" y2="4.19" gradientUnits="userSpaceOnUse"/><radialGradient xlink:href="#f" id="g" gradientUnits="userSpaceOnUse" gradientTransform="matrix(1.5571 .0042 -.00425 1.57695 -3.5 -3.69)" cx="6.34" cy="6.35" fx="6.34" fy="6.35" r="5.35"/></defs><path d="M6.35.1C4.81.1 3.57.38 2.66.96A3.67 3.67 0 0 0 1 4.22c0 1.91 1.54 4.47 2.01 5.2.54.85 1.13 1.61 1.65 2.16.68.7 1.21 1.03 1.69 1.03s1.01-.33 1.69-1.03a15.2 15.2 0 0 0 1.65-2.15c.47-.74 2-3.3 2-5.21 0-1.42-.57-2.54-1.65-3.25A6.75 6.75 0 0 0 6.35.1z" fill="url(#g)"/><path d="M6.35.2L1.49 6.36l4.86 6.17 4.86-6.17zm0 1.55l3.63 4.61-3.63 4.61-3.63-4.6z" fill="#0a8"/><path d="M6.35.1C4.81.1 3.57.38 2.66.96A3.67 3.67 0 0 0 1 4.22c0 1.91 1.54 4.47 2.01 5.2.54.85 1.13 1.61 1.65 2.16.68.7 1.21 1.03 1.69 1.03s1.01-.33 1.69-1.03a15.2 15.2 0 0 0 1.65-2.15c.47-.74 2-3.3 2-5.21 0-1.42-.57-2.54-1.65-3.25A6.75 6.75 0 0 0 6.35.1zm0 .03C6.91.15 7.44.2 7.9.31a5.82 5.82 0 0 1 1.6.66 3.65 3.65 0 0 1 1.24 1.36c.14.27.25.57.32.88a4.61 4.61 0 0 1-.14 2.53c-.15.52-.36 1.04-.58 1.52-.44.97-.95 1.8-1.18 2.17a15.2 15.2 0 0 1-1.65 2.15 4.9 4.9 0 0 1-.92.78.96.96 0 0 1-.24.1.96.96 0 0 1-.24-.1 4.76 4.76 0 0 1-.92-.78 14.41 14.41 0 0 1-1.65-2.15 19.2 19.2 0 0 1-1.18-2.17c-.22-.48-.43-1-.58-1.52a4.6 4.6 0 0 1-.14-2.52 3.73 3.73 0 0 1 .84-1.64 3.65 3.65 0 0 1 1.45-1A6.83 6.83 0 0 1 6.35.13z" opacity=".2"/><path d="M5 9.82c-.88.1-1.32-.55-1.33-1.5-.01-.75.72-3.12 2.28-3.06l.62.02.11-1.13-.48-1.78c.57-.22.84.4 1.04.65L7.3 3l-.2-.59c.86-.33.65.7.79 1.33.1-.46.33-1.33-.13-2.17-.17-.3-.25-.57-.08-.75.25-.28.55.04.7.22.66.7.35 1.9.22 2.48-.08.33-.16.63-.23 1 .33-.81.58-1.97.52-2.48-.04-.32-.16-.85.07-.93.2-.07.4.02.59.63a2.3 2.3 0 0 1-.08 1.61c-.12.3-.27.61-.44.9-.32.56-.63 1.04-.81 1.6l1-1.71.71-1.7c.55.63.44 1.29-.17 2.24-.2.32-.4.68-.45.8l1.16-1.71c.3.77.06 1.94-1.3 2.66l.04.1 1.2-.67c.02.6-.23 1.23-1.23 1.49-.6.18-1.3.23-1.83.47.72.1 1.25-.12 1.81-.28.18-.06.36-.12.56-.17-.02.58-.77.97-1.43 1.1-.57.1-1.06.1-1.39-.13l-.09.22h1.94c-.78.74-1.74.38-2.59.36l1.16.48c-.56.65-1.42.08-1.8-.24l.42.68c-.46.19-.8-.12-1.1-.64l-.05.03z" fill="url(#h)"/><path d="M3.72 5.6c.4-.04 1.2-.06 1.31-.7.16.13.3.18.43.18.16 0 .3-.13.54-.34l.18.4.34-.06c-.08-.42-.33-.53-.6-.63-.2-.07-.36-.15-.5-.28.72-.22.64-.89.8-1.37l-1.02.5.46-.4v-.1c-.52-.07-1.1.2-.91.63l-1.09.1.11.4c-.2-.19-.48-.23-.65-.08-.13.13-.24.4-.09.78h.12c.09-.2.32-.27.5-.27.28 0 .54.16.64.26.13.12.17.23.17.33 0 .18-.14.26-.4.4-.22.11-.3.18-.34.24z" fill="url(#i)"/><path d="M4.12 3.94v-.06c.29-.16.42-.03.5.06-.16.1-.33.1-.5 0zM2.75 5.54l1.65-.46V4.8c-.87.12-1.41.4-1.65.74z" fill="#ff2a2a"/></svg>