<svg xmlns="http://www.w3.org/2000/svg" xmlns:xlink="http://www.w3.org/1999/xlink" width="48" height="48" version="1"><defs><linearGradient id="a"><stop offset="0" stop-color="#2086e7"/><stop stop-color="#00aad4" offset=".3"/><stop offset="1" stop-color="#afe"/></linearGradient><linearGradient xlink:href="#a" id="f" x1="11.676" x2="44.21" y2="24" gradientUnits="userSpaceOnUse"/><linearGradient id="b"><stop offset="0" stop-color="#c6cdd1"/><stop offset="1" stop-color="#e0e5e7"/></linearGradient><linearGradient xlink:href="#c" id="g" x1="24" y1="30" x2="24" y2="41" gradientUnits="userSpaceOnUse" gradientTransform="matrix(1.07365 0 0 1.07365 -1.023 -.668)"/><linearGradient id="c"><stop offset="0" stop-color="#dc2b41"/><stop offset="1" stop-color="#c61423"/></linearGradient><linearGradient xlink:href="#d" id="h" x1="24" y1="7" x2="24" y2="29" gradientUnits="userSpaceOnUse" gradientTransform="translate(-2.087 -5.103) scale(1.11864)"/><linearGradient id="d"><stop offset="0" stop-color="#1f93b9"/><stop offset="1" stop-color="#1a5c9b"/></linearGradient><linearGradient id="e"><stop offset="0" stop-color="#000019"/><stop offset="1" stop-color="#000019" stop-opacity=".291"/></linearGradient><radialGradient xlink:href="#e" id="i" gradientUnits="userSpaceOnUse" gradientTransform="matrix(1.1335 0 0 1.1335 -3.575 -5.204)" cx="24" cy="24" fx="24" fy="24" r="19"/></defs><path d="M24 .35c-5.83 0-10.52 1.12-13.93 3.33-4.1 2.65-6.27 6.9-6.27 12.27 0 7.23 5.8 16.89 7.58 19.67a54.47 54.47 0 0 0 6.25 8.16c2.54 2.64 4.57 3.87 6.37 3.87 1.8 0 3.83-1.23 6.37-3.87 2-2.08 4.22-4.97 6.25-8.16 1.78-2.78 7.59-12.44 7.59-19.67 0-5.37-2.17-9.61-6.27-12.27C34.52 1.47 29.84.35 24 .35z" fill="url(#f)"/><path d="M3.92 14.74c-.02.4-.12.78-.12 1.2 0 7.24 5.8 16.9 7.58 19.68a54.47 54.47 0 0 0 6.25 8.16c2.54 2.64 4.57 3.87 6.37 3.87 1.8 0 3.83-1.23 6.37-3.87 2-2.08 4.22-4.97 6.25-8.16 1.78-2.78 7.59-12.44 7.59-19.67 0-.43-.1-.8-.14-1.21-.08 1.59-.3 3.24-.8 4.94a43.17 43.17 0 0 1-2.19 5.77 69.67 69.67 0 0 1-4.46 8.17 54.47 54.47 0 0 1-6.25 8.16 18 18 0 0 1-3.46 2.93c-1.05.64-2 .94-2.9.94-.91 0-1.87-.3-2.92-.94a18 18 0 0 1-3.46-2.93c-2-2.08-4.21-4.97-6.25-8.16a69.4 69.4 0 0 1-4.46-8.17 43.04 43.04 0 0 1-2.19-5.77c-.5-1.7-.72-3.35-.8-4.94z" opacity=".5"/><path d="M24.208 31.541a5.905 5.905 0 0 0-5.905 5.905 5.905 5.905 0 0 0 5.905 5.905 5.905 5.905 0 0 0 5.905-5.905 5.905 5.905 0 0 0-5.905-5.905zm0 1.074a4.831 4.831 0 0 1 4.832 4.831 4.831 4.831 0 0 1-4.832 4.832 4.831 4.831 0 0 1-4.831-4.832 4.831 4.831 0 0 1 4.831-4.831z" fill="url(#g)"/><path d="M18.048 2.061l5.142 5.142-5.142 5.141.791.791 5.142-5.141 5.141 5.141.791-.791-5.141-5.141 5.141-5.142-.791-.791-5.141 5.142-5.142-5.142zm0 14.542l5.142 5.142-5.142 5.141.791.791 5.142-5.141 5.141 5.141.791-.79-5.141-5.142 5.141-5.142-.791-.79-5.141 5.14-5.142-5.14z" fill="url(#h)"/><path d="M16.828 1.111c-.212.045-.494.025-.701.075-.154.036-.28.099-.432.138v12.742H4c-.04.379-.103.742-.12 1.133h11.815v13.602H7.658c.238.478.382.686.617 1.133h7.42v11.564a54.47 54.47 0 0 0 1.133 1.336v-12.9h14.736v12.285c.375-.43.751-1.005 1.133-1.479V29.934h7.03c.235-.447.38-.654.619-1.133h-7.649V15.199h11.434c-.016-.39-.08-.755-.12-1.133H32.698V1.447c-.283-.078-.528-.192-.82-.261-.092-.023-.22-.012-.313-.034v12.914H16.828V1.111zm0 14.088h14.736v13.602H16.828V15.199z" fill="url(#i)"/></svg>