<?xml version="1.0" encoding="UTF-8" standalone="no"?>
<svg
   xmlns:dc="http://purl.org/dc/elements/1.1/"
   xmlns:cc="http://creativecommons.org/ns#"
   xmlns:rdf="http://www.w3.org/1999/02/22-rdf-syntax-ns#"
   xmlns:svg="http://www.w3.org/2000/svg"
   xmlns="http://www.w3.org/2000/svg"
   xmlns:xlink="http://www.w3.org/1999/xlink"
   xmlns:sodipodi="http://sodipodi.sourceforge.net/DTD/sodipodi-0.dtd"
   xmlns:inkscape="http://www.inkscape.org/namespaces/inkscape"
   width="48"
   height="48"
   version="1.1"
   id="svg58"
   sodipodi:docname="braindump.svg"
   inkscape:version="0.92.4 (5da689c313, 2019-01-14)">
  <metadata
     id="metadata62">
    <rdf:RDF>
      <cc:Work
         rdf:about="">
        <dc:format>image/svg+xml</dc:format>
        <dc:type
           rdf:resource="http://purl.org/dc/dcmitype/StillImage" />
        <dc:title></dc:title>
      </cc:Work>
    </rdf:RDF>
  </metadata>
  <sodipodi:namedview
     pagecolor="#ffffff"
     bordercolor="#666666"
     borderopacity="1"
     objecttolerance="10"
     gridtolerance="10"
     guidetolerance="10"
     inkscape:pageopacity="0"
     inkscape:pageshadow="2"
     inkscape:window-width="1112"
     inkscape:window-height="480"
     id="namedview60"
     showgrid="false"
     inkscape:zoom="4.9166667"
     inkscape:cx="2.1355932"
     inkscape:cy="24"
     inkscape:window-x="0"
     inkscape:window-y="25"
     inkscape:window-maximized="0"
     inkscape:current-layer="svg58" />
  <defs
     id="defs42">
    <linearGradient
       id="g">
      <stop
         offset="0"
         stop-color="#ff0"
         id="stop2" />
      <stop
         offset="1"
         stop-color="#f4e3d7"
         id="stop4" />
    </linearGradient>
    <linearGradient
       id="f">
      <stop
         offset="0"
         stop-color="#1a1a1a"
         id="stop7" />
      <stop
         offset="1"
         stop-color="#666"
         id="stop9" />
    </linearGradient>
    <linearGradient
       id="e">
      <stop
         offset="0"
         stop-color="#1a1a1a"
         id="stop12" />
      <stop
         offset="1"
         stop-color="#1a1a1a"
         stop-opacity="0"
         id="stop14" />
    </linearGradient>
    <linearGradient
       id="d">
      <stop
         offset="0"
         stop-color="#1a1a1a"
         id="stop17" />
      <stop
         offset="1"
         stop-color="#1a1a1a"
         stop-opacity="0"
         id="stop19" />
    </linearGradient>
    <linearGradient
       id="a">
      <stop
         offset="0"
         id="stop22" />
      <stop
         offset="1"
         stop-opacity="0"
         id="stop24" />
    </linearGradient>
    <linearGradient
       id="b">
      <stop
         stop-color="#3daefd"
         id="stop27" />
      <stop
         offset="1"
         stop-color="#24a058"
         id="stop29" />
    </linearGradient>
    <linearGradient
       id="c">
      <stop
         stop-color="#2c3e50"
         id="stop32" />
      <stop
         offset="1"
         stop-color="#0d352d"
         id="stop34" />
    </linearGradient>
    <linearGradient
       xlink:href="#d"
       id="k"
       gradientUnits="userSpaceOnUse"
       x1="20.064"
       y1="20.85"
       x2="34.475"
       y2="20.85" />
    <linearGradient
       xlink:href="#e"
       id="i"
       gradientUnits="userSpaceOnUse"
       x1="18.7"
       y1="30.139"
       x2="47.165"
       y2="30.139" />
    <linearGradient
       xlink:href="#b"
       id="h"
       x1="6.383"
       y1="58.217"
       x2="27.136"
       y2="1.605"
       gradientUnits="userSpaceOnUse" />
    <linearGradient
       xlink:href="#f"
       id="l"
       x1="19.658"
       y1="33.248"
       x2="27.787"
       y2="33.248"
       gradientUnits="userSpaceOnUse" />
    <linearGradient
       xlink:href="#g"
       id="j"
       x1="15.137"
       y1="9.728"
       x2="36.199"
       y2="29.744"
       gradientUnits="userSpaceOnUse" />
  </defs>
  <path
     d="M 23.71,0.5 C 17.88,0.5 13.2,1.6 9.78,3.82 5.68,6.48 3.5,10.73 3.5,16.1 c 0,7.22 5.8,16.88 7.58,19.67 a 54.48,54.48 0 0 0 6.25,8.16 c 2.54,2.64 4.57,3.87 6.37,3.87 1.8,0 3.83,-1.23 6.37,-3.87 2,-2.08 4.22,-4.98 6.25,-8.16 C 38.1,32.98 43.91,23.32 43.91,16.1 43.91,10.73 41.74,6.48 37.64,3.83 34.24,1.6 29.55,0.49 23.7,0.49 Z"
     id="path44"
     style="fill:url(#h)"
     inkscape:connector-curvature="0" />
  <path
     d="M 23.71,0.5 C 17.88,0.5 13.2,1.62 9.78,3.83 5.68,6.49 3.51,10.73 3.51,16.1 c 0,7.23 5.8,16.89 7.58,19.68 a 54.48,54.48 0 0 0 6.25,8.15 c 2.54,2.65 4.57,3.88 6.37,3.88 1.8,0 3.83,-1.23 6.37,-3.88 2,-2.07 4.22,-4.97 6.25,-8.15 1.78,-2.8 7.59,-12.45 7.59,-19.68 0,-5.37 -2.17,-9.61 -6.27,-12.27 C 34.24,1.62 29.55,0.5 23.7,0.5 Z m 0,0.14 c 2.12,0.09 4.12,0.28 5.88,0.7 1.16,0.27 2.25,0.62 3.26,1.04 1.01,0.41 1.95,0.9 2.8,1.45 a 12.92,12.92 0 0 1 4.67,5.12 14.1,14.1 0 0 1 1.2,3.34 c 0.26,1.2 0.4,2.47 0.4,3.81 0,1.81 -0.37,3.77 -0.94,5.73 a 43.19,43.19 0 0 1 -2.19,5.78 69.59,69.59 0 0 1 -4.46,8.17 54.47,54.47 0 0 1 -6.25,8.15 17.98,17.98 0 0 1 -3.46,2.93 c -0.32,0.2 -0.62,0.3 -0.9,0.4 -0.3,-0.1 -0.6,-0.2 -0.92,-0.4 A 17.72,17.72 0 0 1 19.34,43.93 54.5,54.5 0 0 1 13.09,35.78 69.6,69.6 0 0 1 8.63,27.61 43.19,43.19 0 0 1 6.44,21.83 20.93,20.93 0 0 1 5.51,16.1 c 0,-1.34 0.13,-2.61 0.4,-3.8 0.27,-1.2 0.67,-2.32 1.2,-3.35 a 12.92,12.92 0 0 1 4.67,-5.12 17.1,17.1 0 0 1 2.8,-1.45 c 1,-0.42 2.1,-0.77 3.26,-1.04 1.75,-0.42 3.76,-0.61 5.86,-0.7 z"
     id="path46"
     inkscape:connector-curvature="0"
     style="opacity:0.2" />
  <path
     d="m 29.596,44.313 c 0.166,-0.165 0.294,-0.216 0.465,-0.393 2,-2.08 4.22,-4.98 6.25,-8.16 0.89,-1.395 2.787,-4.508 4.462,-8.174 a 44.501,44.501 0 0 0 1.983,-5.217 L 30.486,10.1 19.332,28.493 l 2.08,2.08 -1.43,0.848 2.122,2.121 -1.471,0.805 1.955,1.955 -1.496,-0.492 z"
     id="path48"
     style="opacity:0.5;fill:url(#i)"
     inkscape:connector-curvature="0" />
  <path
     d="m 23.722,7.274 a 9.511,9.511 0 0 0 -9.512,9.511 c -0.02,2.849 2.501,5.339 3.659,8.05 0.515,1.207 1.462,3.657 1.462,3.657 h 8.782 c 0,0 0.947,-2.45 1.463,-3.658 1.157,-2.71 3.607,-5.232 3.658,-8.049 A 9.511,9.511 0 0 0 23.722,7.274 Z"
     id="path50"
     style="fill:url(#j)"
     inkscape:connector-curvature="0" />
  <path
     d="m 28.113,28.492 c 0,0 0.947,-2.45 1.463,-3.658 0.579,-1.355 1.48,-2.663 2.244,-3.984 0.233,-0.404 0.406,-0.814 0.6,-1.221 l -7.965,-7.967 -0.898,3.315 -3.493,3.271 3.254,3.256 -0.326,1.867 z"
     id="path52"
     style="opacity:0.5;fill:url(#k)"
     inkscape:connector-curvature="0" />
  <path
     d="m 24.454,11.662 v 5.123 h 2.926 l -4.388,6.586 v -5.123 h -2.928 z"
     id="path54"
     inkscape:connector-curvature="0"
     style="fill:#24221c" />
  <path
     d="m 19.658,29.955 0.324,1.465 h 7.48 l 0.325,-1.465 z m 0.65,2.928 0.325,1.463 h 6.179 l 0.325,-1.463 h -6.828 z m 6.186,2.662 c -0.025,0.06 -0.054,0.116 -0.084,0.172 0.03,-0.057 0.059,-0.112 0.084,-0.172 z m -5.54,0.004 z m 0.138,0.26 c 0.253,0.426 0.633,0.732 1.168,0.732 h 2.926 c 0.535,0 0.912,-0.306 1.166,-0.732 z"
     id="path56"
     style="fill:url(#l)"
     inkscape:connector-curvature="0" />
</svg>
