<svg xmlns="http://www.w3.org/2000/svg" xmlns:xlink="http://www.w3.org/1999/xlink" width="48" height="48"><defs><linearGradient id="c"><stop offset="0" stop-color="#fff"/><stop offset="1" stop-color="#333" stop-opacity="0"/></linearGradient><linearGradient id="b"><stop offset="0"/><stop offset="1" stop-opacity=".03"/></linearGradient><linearGradient id="a"><stop offset="0" stop-color="#bec8b7"/><stop offset="1" stop-color="#afe9af"/></linearGradient><linearGradient xlink:href="#a" id="e" x1="22.79" y1="-3.02" x2="22.9" y2="51.14" gradientUnits="userSpaceOnUse"/><linearGradient xlink:href="#b" id="f" gradientUnits="userSpaceOnUse" x1="13.94" y1="15.14" x2="48.19" y2="37.1"/><radialGradient xlink:href="#c" id="g" cx="31.91" cy="30.5" fx="31.91" fy="30.5" r="3" gradientUnits="userSpaceOnUse"/><radialGradient gradientTransform="translate(-8)" xlink:href="#c" id="h" cx="31.91" cy="30.5" fx="31.91" fy="30.5" r="3" gradientUnits="userSpaceOnUse"/><radialGradient gradientTransform="translate(-16)" xlink:href="#c" id="i" cx="31.91" cy="30.5" fx="31.91" fy="30.5" r="3" gradientUnits="userSpaceOnUse"/><radialGradient xlink:href="#c" id="j" cx="24.01" cy="18.12" fx="24.01" fy="18.12" r="4.32" gradientTransform="matrix(1 0 0 1.16075 0 -2.07)" gradientUnits="userSpaceOnUse"/><radialGradient xlink:href="#c" id="k" cx="24.3" cy="13.57" fx="24.3" fy="13.57" r="5.96" gradientTransform="matrix(.50232 0 0 .49708 11.93 6.7)" gradientUnits="userSpaceOnUse"/><linearGradient xlink:href="#a" id="d" gradientUnits="userSpaceOnUse" gradientTransform="translate(60)" x1="22.79" y1="-3.02" x2="22.9" y2="51.14"/></defs><path d="M24.42 47.51a5.6 5.6 0 0 0 2.49-.8c1.05-.64 2.19-1.61 3.46-2.93 2-2.08 4.22-4.97 6.25-8.16.89-1.4 2.79-4.5 4.46-8.17.83-1.83 1.61-3.8 2.19-5.77.57-1.96.93-3.92.93-5.73 0-1.34-.13-2.62-.4-3.8-.27-1.2-.67-2.32-1.2-3.35a12.9 12.9 0 0 0-4.66-5.12 17.19 17.19 0 0 0-2.8-1.45c-1.01-.42-2.1-.77-3.26-1.04A34 34 0 0 0 24 .35a34 34 0 0 0-7.87.84 22 22 0 0 0-3.26 1.04c-1.02.41-1.95.9-2.8 1.45A12.92 12.92 0 0 0 5.4 8.8a14.07 14.07 0 0 0-1.2 3.34 17.4 17.4 0 0 0-.4 3.8c0 1.82.36 3.78.93 5.74a43.13 43.13 0 0 0 2.2 5.77 69.54 69.54 0 0 0 4.45 8.17 54.48 54.48 0 0 0 3.12 4.47 54.48 54.48 0 0 0 3.13 3.69 17.94 17.94 0 0 0 3.46 2.93c.9.54 1.7.73 2.49.8z" color="#000" fill="url(#e)"/><path d="M27.26 46.4a18 18 0 0 0 3.1-2.62c2-2.08 4.23-4.97 6.26-8.16.89-1.4 2.79-4.5 4.46-8.17a45.15 45.15 0 0 0 1.87-4.92L28.3 7.89c-1.24-.23-2.66-1.62-3.9-1.04l-2.27.05-2.81 2.36-.73 2.99-.56 13.68 5.83 5.83-1.96.86-3.4-3.4-4.8 3.63z" opacity=".4" fill="url(#f)"/><path d="M24 .35c-5.83 0-10.52 1.12-13.93 3.33-4.1 2.66-6.27 6.9-6.27 12.27 0 7.23 5.8 16.88 7.58 19.67a54.48 54.48 0 0 0 6.25 8.16c2.54 2.64 4.57 3.87 6.37 3.87 1.8 0 3.83-1.23 6.37-3.87 2-2.08 4.22-4.97 6.25-8.16 1.78-2.79 7.58-12.44 7.58-19.67 0-5.37-2.16-9.61-6.26-12.27C34.52 1.47 29.84.35 24 .35zm0 .14c2.11.09 4.12.27 5.88.7 1.16.27 2.25.62 3.26 1.03 1.01.42 1.94.9 2.8 1.46A12.92 12.92 0 0 1 40.6 8.8c.53 1.03.92 2.15 1.2 3.34.26 1.2.4 2.47.4 3.8 0 1.82-.37 3.77-.94 5.74a43.19 43.19 0 0 1-2.2 5.77 69.59 69.59 0 0 1-4.45 8.17 54.47 54.47 0 0 1-6.25 8.16 17.98 17.98 0 0 1-3.46 2.93c-.32.2-.62.3-.91.39-.3-.08-.6-.2-.9-.4-1.06-.63-2.2-1.6-3.47-2.92-2-2.08-4.22-4.97-6.25-8.16a69.6 69.6 0 0 1-4.46-8.17 43.19 43.19 0 0 1-2.19-5.77 20.93 20.93 0 0 1-.93-5.73c0-1.34.13-2.61.4-3.8.27-1.2.67-2.32 1.2-3.35a12.92 12.92 0 0 1 4.67-5.12 17.1 17.1 0 0 1 2.8-1.46c1-.41 2.1-.76 3.26-1.04C19.88.76 21.89.58 24 .5z" opacity=".2"/><path d="M24 6.05a5.97 5.97 0 0 0-5.96 5.97v13.91h1.18V12.04a4.79 4.79 0 0 1 4.2-4.74v1.32a2.82 2.82 0 0 1-2.82 2.81.59.59 0 0 0-.6.6 4 4 0 0 0 8 0 .59.59 0 0 0-.6-.6 2.82 2.82 0 0 1-2.8-2.81V7.29c2.36.29 4.2 2.3 4.2 4.73v5.3l-.02 4v4.63h1.18V12.04A5.97 5.97 0 0 0 24 6.06z" fill="#333"/><path d="M24.03 17.03a4.44 5.06 0 0 0-2.35.77 4.44 5.06 0 0 0-1.99 3.2 4.4 3.05 0 0 0 .07.2 4.4 3.05 0 0 0 .13.29 4.4 3.05 0 0 0 .19.28 4.4 3.05 0 0 0 .21.26 4.4 3.05 0 0 0 .26.25 4.4 3.05 0 0 0 .29.23 4.4 3.05 0 0 0 .32.2 4.4 3.05 0 0 0 .35.19 4.4 3.05 0 0 0 .38.16 4.4 3.05 0 0 0 .4.13 4.4 3.05 0 0 0 .4.1 4.4 3.05 0 0 0 .43.08 4.4 3.05 0 0 0 .44.05 4.4 3.05 0 0 0 .44.01 4.4 3.05 0 0 0 .31 0 4.4 3.05 0 0 0 .44-.04 4.4 3.05 0 0 0 .43-.07 4.4 3.05 0 0 0 .41-.1 4.4 3.05 0 0 0 .4-.12 4.4 3.05 0 0 0 .39-.15 4.4 3.05 0 0 0 .35-.18 4.4 3.05 0 0 0 .34-.2 4.4 3.05 0 0 0 .3-.22 4.4 3.05 0 0 0 .26-.24 4.4 3.05 0 0 0 .23-.26 4.4 3.05 0 0 0 .2-.28 4.4 3.05 0 0 0 .14-.28 4.4 3.05 0 0 0 .11-.3 4.4 3.05 0 0 0 .03-.1 4.44 5.06 0 0 0-1.88-3.03 4.44 5.06 0 0 0-2.43-.83z" fill="#333"/><path d="M16 27.87a3 3 0 0 0-3 3 3 3 0 0 0 3 3 3 3 0 0 0 3-3 3 3 0 0 0-3-3zm8 0a3 3 0 0 0-3 3 3 3 0 0 0 3 3 3 3 0 0 0 3-3 3 3 0 0 0-3-3zm8 0a3 3 0 0 0-3 3 3 3 0 0 0 3 3 3 3 0 0 0 3-3 3 3 0 0 0-3-3z" color="#000" fill="#333"/><path d="M32 27.87a3 3 0 0 0-3 3 3 3 0 0 0 3 3 3 3 0 0 0 3-3 3 3 0 0 0-3-3z" color="#000" opacity=".3" fill="url(#g)"/><path d="M24 27.87a3 3 0 0 0-3 3 3 3 0 0 0 3 3 3 3 0 0 0 3-3 3 3 0 0 0-3-3z" color="#000" opacity=".3" fill="url(#h)"/><path d="M16 27.87a3 3 0 0 0-3 3 3 3 0 0 0 3 3 3 3 0 0 0 3-3 3 3 0 0 0-3-3z" color="#000" opacity=".3" fill="url(#i)"/><path d="M24.03 17.03a4.44 5.06 0 0 0-2.35.77 4.44 5.06 0 0 0-1.99 3.2 4.4 3.05 0 0 0 .07.2 4.4 3.05 0 0 0 .13.29 4.4 3.05 0 0 0 .19.28 4.4 3.05 0 0 0 .21.26 4.4 3.05 0 0 0 .26.25 4.4 3.05 0 0 0 .29.23 4.4 3.05 0 0 0 .32.2 4.4 3.05 0 0 0 .35.19 4.4 3.05 0 0 0 .38.16 4.4 3.05 0 0 0 .4.13 4.4 3.05 0 0 0 .4.1 4.4 3.05 0 0 0 .43.08 4.4 3.05 0 0 0 .44.05 4.4 3.05 0 0 0 .44.01 4.4 3.05 0 0 0 .31 0 4.4 3.05 0 0 0 .44-.04 4.4 3.05 0 0 0 .43-.07 4.4 3.05 0 0 0 .41-.1 4.4 3.05 0 0 0 .4-.12 4.4 3.05 0 0 0 .39-.15 4.4 3.05 0 0 0 .35-.18 4.4 3.05 0 0 0 .34-.2 4.4 3.05 0 0 0 .3-.22 4.4 3.05 0 0 0 .26-.24 4.4 3.05 0 0 0 .23-.26 4.4 3.05 0 0 0 .2-.28 4.4 3.05 0 0 0 .14-.28 4.4 3.05 0 0 0 .11-.3 4.4 3.05 0 0 0 .03-.1 4.44 5.06 0 0 0-1.88-3.03 4.44 5.06 0 0 0-2.43-.83z" fill="url(#j)" opacity=".3"/><path d="M24 6.05a5.97 5.97 0 0 0-5.96 5.97v13.91h1.18V12.04a4.79 4.79 0 0 1 4.2-4.74v1.32a2.82 2.82 0 0 1-2.82 2.81.59.59 0 0 0-.6.6 4 4 0 0 0 8 0 .59.59 0 0 0-.6-.6 2.82 2.82 0 0 1-2.8-2.81V7.29c2.36.29 4.2 2.3 4.2 4.73v5.3l-.02 4v4.63h1.18V12.04A5.97 5.97 0 0 0 24 6.06z" fill="url(#k)" opacity=".2"/></svg>