<?xml version="1.0" encoding="UTF-8" standalone="no"?>
<svg
   xmlns:dc="http://purl.org/dc/elements/1.1/"
   xmlns:cc="http://creativecommons.org/ns#"
   xmlns:rdf="http://www.w3.org/1999/02/22-rdf-syntax-ns#"
   xmlns:svg="http://www.w3.org/2000/svg"
   xmlns="http://www.w3.org/2000/svg"
   xmlns:xlink="http://www.w3.org/1999/xlink"
   xmlns:sodipodi="http://sodipodi.sourceforge.net/DTD/sodipodi-0.dtd"
   xmlns:inkscape="http://www.inkscape.org/namespaces/inkscape"
   width="48"
   height="48"
   version="1.1"
   id="svg100"
   sodipodi:docname="cuttlefish.svg"
   inkscape:version="0.92.4 (5da689c313, 2019-01-14)">
  <metadata
     id="metadata104">
    <rdf:RDF>
      <cc:Work
         rdf:about="">
        <dc:format>image/svg+xml</dc:format>
        <dc:type
           rdf:resource="http://purl.org/dc/dcmitype/StillImage" />
        <dc:title></dc:title>
      </cc:Work>
    </rdf:RDF>
  </metadata>
  <sodipodi:namedview
     pagecolor="#ffffff"
     bordercolor="#666666"
     borderopacity="1"
     objecttolerance="10"
     gridtolerance="10"
     guidetolerance="10"
     inkscape:pageopacity="0"
     inkscape:pageshadow="2"
     inkscape:window-width="1112"
     inkscape:window-height="480"
     id="namedview102"
     showgrid="false"
     inkscape:zoom="4.9166667"
     inkscape:cx="2.1355932"
     inkscape:cy="24"
     inkscape:window-x="0"
     inkscape:window-y="25"
     inkscape:window-maximized="0"
     inkscape:current-layer="svg100" />
  <defs
     id="defs86">
    <linearGradient
       id="n">
      <stop
         offset="0"
         id="stop2" />
      <stop
         offset="1"
         stop-opacity=".081"
         id="stop4" />
    </linearGradient>
    <linearGradient
       id="i">
      <stop
         offset="0"
         id="stop7" />
      <stop
         offset="1"
         stop-opacity="0"
         id="stop9" />
    </linearGradient>
    <linearGradient
       id="a">
      <stop
         offset="0"
         stop-color="#e26400"
         id="stop12" />
      <stop
         offset="1"
         stop-color="#ffb900"
         id="stop14" />
    </linearGradient>
    <linearGradient
       id="b">
      <stop
         offset="0"
         stop-color="#9b4400"
         id="stop17" />
      <stop
         offset="1"
         stop-color="#e56300"
         id="stop19" />
    </linearGradient>
    <linearGradient
       id="c">
      <stop
         offset="0"
         stop-color="#f48200"
         stop-opacity="0"
         id="stop22" />
      <stop
         offset=".59"
         stop-color="#f48200"
         stop-opacity=".73"
         id="stop24" />
      <stop
         offset=".82"
         stop-color="#cc5f00"
         id="stop26" />
      <stop
         offset="1"
         stop-color="#a43d00"
         id="stop28" />
    </linearGradient>
    <linearGradient
       id="d">
      <stop
         offset="0"
         stop-color="#a1abb2"
         id="stop31" />
      <stop
         offset=".08"
         stop-color="#eaeced"
         id="stop33" />
      <stop
         offset="1"
         stop-color="#c6ccd0"
         id="stop35" />
    </linearGradient>
    <linearGradient
       id="e">
      <stop
         offset="0"
         stop-color="#a1abb2"
         id="stop38" />
      <stop
         offset=".15"
         stop-color="#eaeced"
         id="stop40" />
      <stop
         offset="1"
         stop-color="#c6ccd0"
         id="stop42" />
    </linearGradient>
    <linearGradient
       id="f">
      <stop
         offset="0"
         stop-color="#ffb900"
         id="stop45" />
      <stop
         offset="1"
         stop-color="#ffd76b"
         id="stop47" />
    </linearGradient>
    <linearGradient
       id="g">
      <stop
         offset="0"
         stop-color="#f68000"
         id="stop50" />
      <stop
         offset="1"
         stop-color="#fd9800"
         id="stop52" />
    </linearGradient>
    <linearGradient
       xlink:href="#h"
       id="o"
       x1="23.669"
       y1="56.322"
       x2="20.031"
       y2="-4.317"
       gradientUnits="userSpaceOnUse" />
    <linearGradient
       id="j">
      <stop
         offset="0"
         stop-color="#fff"
         id="stop56" />
      <stop
         offset="1"
         stop-color="#fff"
         stop-opacity="0"
         id="stop58" />
    </linearGradient>
    <linearGradient
       id="k">
      <stop
         offset="0"
         stop-color="#045"
         id="stop61" />
      <stop
         offset="1"
         stop-color="#ccc"
         id="stop63" />
    </linearGradient>
    <radialGradient
       id="h"
       cx="25.265"
       cy="12.352"
       r="18.785"
       gradientTransform="matrix(1.8856 0 0 1.6521 -22.862 -8.378)"
       gradientUnits="userSpaceOnUse">
      <stop
         stop-color="#ffe680"
         offset="0"
         id="stop66" />
      <stop
         offset=".371"
         stop-color="#fec757"
         id="stop68" />
      <stop
         stop-color="#a02c89"
         offset="1"
         id="stop70" />
    </radialGradient>
    <linearGradient
       id="l"
       x1="400.57"
       x2="392.9"
       y1="537.6"
       y2="546.58"
       gradientTransform="matrix(1.25 0 0 1.26667 -92.14 -151.08)"
       gradientUnits="userSpaceOnUse">
      <stop
         stop-color="#ffc35a"
         offset="0"
         stop-opacity=".999"
         id="stop73" />
      <stop
         stop-color="#f98a14"
         offset="1"
         id="stop75" />
    </linearGradient>
    <radialGradient
       id="m"
       cx="25.265"
       cy="12.352"
       r="18.785"
       gradientTransform="matrix(1.8856 0 0 1.6521 -22.862 -8.378)"
       gradientUnits="userSpaceOnUse">
      <stop
         stop-color="#ffe680"
         offset="0"
         id="stop78" />
      <stop
         offset=".371"
         stop-color="#fec757"
         id="stop80" />
      <stop
         stop-color="#fdaf41"
         offset="1"
         id="stop82" />
    </radialGradient>
    <linearGradient
       xlink:href="#n"
       id="p"
       gradientUnits="userSpaceOnUse"
       x1="-13.344"
       y1="-8.753"
       x2="46.121"
       y2="26.356" />
  </defs>
  <path
     d="m 24,0.35 c -5.83,0 -10.52,1.12 -13.93,3.33 -4.1,2.66 -6.27,6.9 -6.27,12.27 0,7.23 5.8,16.88 7.58,19.67 a 54.48,54.48 0 0 0 6.25,8.16 c 2.54,2.64 4.57,3.87 6.37,3.87 1.8,0 3.83,-1.23 6.37,-3.87 2,-2.08 4.22,-4.97 6.25,-8.16 C 38.4,32.83 44.2,23.18 44.2,15.95 44.2,10.58 42.04,6.34 37.94,3.68 34.52,1.47 29.84,0.35 24,0.35 Z"
     id="path88"
     style="fill:url(#o)"
     inkscape:connector-curvature="0" />
  <path
     d="m 27.385,46.3 a 17.997,17.997 0 0 0 2.984,-2.52 c 2,-2.08 4.22,-4.97 6.25,-8.16 0.89,-1.396 2.787,-4.506 4.46,-8.17 0.835,-1.833 1.615,-3.803 2.187,-5.768 0.087,-0.302 0.065,-0.58 0.142,-0.881 L 28.826,6.219 27.627,5.344 25.49,4.34 23.238,4 l -2.46,0.55 -1.733,1.36 -0.988,2.268 -0.227,2.69 -0.584,1.732 -0.71,1.068 0.226,2.592 0.842,0.986 -0.713,1.361 -1.344,0.858 -1.117,0.082 -2.834,-2.834 -0.162,1.812 0.712,2.366 1.167,1.23 -1.686,0.324 -0.744,0.422 -0.842,0.711 -1.102,2.268 4.762,4.761 0.291,2.3 z"
     id="path90"
     style="opacity:0.30199998;fill:url(#p)"
     inkscape:connector-curvature="0" />
  <g
     id="g96"
     style="fill:#241f1c">
    <path
       d="m 22.766,3.715 c -0.367,0.096 -0.713,0.206 -0.84,0.274 a 1.704,1.704 0 0 1 -0.359,0.116 c -0.277,0.055 -0.798,0.25 -1.13,0.425 -0.572,0.301 -0.846,0.51 -1.29,0.99 -0.388,0.418 -0.44,0.49 -0.634,0.88 -0.565,1.127 -0.672,1.428 -0.798,2.243 a 6.959,6.959 0 0 1 -0.151,0.72 c -0.092,0.3 -0.144,0.605 -0.192,1.146 -0.017,0.199 -0.048,0.483 -0.068,0.634 l -0.055,0.41 c -0.038,0.316 -0.09,0.467 -0.168,0.497 a 0.322,0.322 0 0 0 -0.188,0.267 c 0,0.08 -0.199,0.723 -0.298,0.97 -0.038,0.092 -0.079,0.13 -0.147,0.147 -0.055,0.01 -0.168,0.085 -0.254,0.168 l -0.157,0.15 v 0.254 c 0,0.14 -0.017,0.39 -0.041,0.561 -0.048,0.374 -0.048,0.363 0.003,0.96 0.062,0.664 0.1,0.735 0.678,1.307 0.449,0.449 0.455,0.456 0.455,0.61 0,0.301 -0.304,0.942 -0.537,1.133 -0.267,0.22 -0.623,0.401 -1.072,0.555 -0.462,0.158 -0.462,0.158 -0.993,0.168 -0.52,0.01 -0.538,0.01 -0.822,-0.092 a 12.551,12.551 0 0 0 -0.452,-0.155 c -0.277,-0.082 -0.637,-0.29 -0.788,-0.458 -0.16,-0.182 -0.294,-0.446 -0.52,-1 -0.127,-0.322 -0.165,-0.456 -0.185,-0.702 -0.024,-0.295 -0.028,-0.305 -0.113,-0.315 -0.11,-0.014 -0.281,0.17 -0.459,0.49 -0.253,0.451 -0.432,1.557 -0.329,2.037 0.062,0.28 0.27,0.818 0.394,1.01 0.062,0.092 0.161,0.26 0.223,0.366 0.219,0.387 0.753,0.99 1.181,1.322 0.055,0.041 0.093,0.082 0.082,0.093 a 0.876,0.876 0 0 1 -0.202,0.037 c -0.315,0.031 -1.126,0.24 -1.452,0.374 a 1.934,1.934 0 0 0 -0.41,0.219 c -0.055,0.051 -0.158,0.13 -0.223,0.175 -0.213,0.14 -0.695,0.595 -0.785,0.736 a 5.56,5.56 0 0 1 -0.178,0.257 1.304,1.304 0 0 0 -0.147,0.274 1.267,1.267 0 0 1 -0.089,0.188 c -0.072,0.089 -0.315,0.794 -0.4,1.15 -0.08,0.353 -0.086,0.415 -0.045,0.51 0.051,0.124 0.178,0.19 0.27,0.138 0.069,-0.034 0.206,-0.189 0.363,-0.411 0.292,-0.408 0.929,-0.88 1.353,-1.004 0.281,-0.082 1.086,-0.212 1.483,-0.243 0.216,-0.017 0.791,0.059 1.154,0.148 0.065,0.017 0.212,0.04 0.325,0.054 0.113,0.01 0.291,0.041 0.394,0.069 0.274,0.065 0.668,0.147 0.932,0.192 0.133,0.02 0.232,0.054 0.232,0.078 0,0.024 -0.061,0.103 -0.14,0.175 a 2.584,2.584 0 0 0 -0.284,0.36 c -0.082,0.123 -0.233,0.342 -0.34,0.493 -0.427,0.589 -0.78,1.51 -1,2.602 -0.167,0.843 -0.19,1.103 -0.153,1.723 0.061,0.972 0.212,1.798 0.442,2.455 0.089,0.25 0.157,0.329 0.277,0.329 0.157,0 0.205,-0.181 0.24,-0.873 0.051,-1.082 0.356,-2.024 0.883,-2.73 0.408,-0.55 1.545,-1.681 1.84,-1.832 0.057,-0.03 0.17,-0.102 0.256,-0.164 0.26,-0.185 1.181,-0.634 1.305,-0.634 0.034,0 0.188,-0.068 0.346,-0.147 a 8.07,8.07 0 0 1 0.67,-0.298 6.63,6.63 0 0 0 0.788,-0.383 c 0.22,-0.134 0.47,-0.264 0.555,-0.291 0.147,-0.048 0.49,-0.291 0.88,-0.62 l 0.175,-0.147 0.113,0.232 c 0.058,0.127 0.137,0.27 0.168,0.319 0.034,0.048 0.205,0.37 0.383,0.719 0.291,0.565 0.336,0.681 0.428,1.079 0.233,0.996 0.302,1.575 0.267,2.322 -0.013,0.321 -0.03,0.763 -0.037,0.979 -0.014,0.35 -0.028,0.435 -0.154,0.805 -0.08,0.23 -0.202,0.565 -0.278,0.753 -0.198,0.504 -0.133,0.582 0.247,0.305 0.507,-0.367 0.948,-0.904 1.41,-1.723 0.357,-0.63 0.436,-0.787 0.566,-1.113 0.065,-0.17 0.198,-0.493 0.29,-0.719 0.21,-0.493 0.244,-0.62 0.354,-1.215 0.137,-0.75 0.222,-1.463 0.222,-1.86 0,-0.202 0.007,-0.366 0.017,-0.366 0.01,0 0.093,0.051 0.182,0.113 0.23,0.157 0.832,0.527 0.914,0.558 0.038,0.014 0.195,0.103 0.353,0.192 0.154,0.092 0.346,0.188 0.421,0.215 0.075,0.028 0.178,0.08 0.23,0.113 0.05,0.038 0.13,0.08 0.178,0.093 0.048,0.014 0.222,0.085 0.387,0.157 0.164,0.076 0.441,0.182 0.61,0.237 0.17,0.058 0.574,0.233 0.896,0.39 0.326,0.158 0.658,0.312 0.743,0.35 0.086,0.034 0.216,0.109 0.292,0.17 0.075,0.059 0.222,0.151 0.325,0.203 0.305,0.15 1.113,1.01 1.534,1.63 0.209,0.304 0.25,0.397 0.346,0.767 0.212,0.828 0.25,1.034 0.277,1.575 0.031,0.654 0.082,0.884 0.199,0.9 0.171,0.025 0.284,-0.18 0.452,-0.831 0.16,-0.624 0.25,-1.226 0.305,-2.072 0.027,-0.439 -0.024,-0.956 -0.148,-1.507 a 6.004,6.004 0 0 1 -0.071,-0.36 C 34.419,27.899 34.07,26.878 33.861,26.481 a 8.565,8.565 0 0 0 -0.904,-1.335 2.204,2.204 0 0 1 -0.209,-0.264 c 0,-0.007 0.103,-0.034 0.233,-0.058 0.202,-0.035 0.36,-0.065 1.017,-0.202 0.096,-0.02 0.356,-0.069 0.582,-0.106 0.226,-0.042 0.531,-0.096 0.678,-0.124 0.305,-0.058 0.548,-0.044 1.274,0.062 0.603,0.089 0.89,0.171 1.216,0.35 0.267,0.146 0.726,0.554 0.907,0.807 0.237,0.333 0.36,0.418 0.473,0.336 0.093,-0.069 0.116,-0.53 0.041,-0.815 -0.062,-0.25 -0.27,-0.798 -0.35,-0.918 a 1.302,1.302 0 0 1 -0.092,-0.205 c -0.113,-0.319 -0.517,-0.788 -1.01,-1.165 -0.404,-0.315 -0.5,-0.376 -0.64,-0.431 a 20.461,20.461 0 0 0 -0.288,-0.106 8.086,8.086 0 0 0 -1.147,-0.274 c -0.39,-0.041 -0.384,-0.035 -0.164,-0.213 0.441,-0.352 0.907,-0.883 1.14,-1.294 0.062,-0.113 0.157,-0.267 0.212,-0.342 a 3.56,3.56 0 0 0 0.254,-0.566 l 0.16,-0.428 v -0.462 c 0.004,-0.428 -0.006,-0.496 -0.123,-0.938 -0.14,-0.528 -0.28,-0.815 -0.503,-1.031 -0.199,-0.192 -0.25,-0.15 -0.28,0.23 -0.028,0.315 -0.145,0.657 -0.415,1.225 -0.288,0.603 -0.463,0.73 -1.524,1.083 -0.213,0.068 -0.326,0.082 -0.754,0.089 -0.5,0.01 -0.506,0.01 -0.931,-0.124 a 5.999,5.999 0 0 1 -0.548,-0.191 c -0.603,-0.302 -0.825,-0.5 -1.01,-0.901 -0.15,-0.329 -0.257,-0.658 -0.257,-0.801 0,-0.14 -0.051,-0.25 -0.12,-0.25 -0.027,0 -0.051,-0.007 -0.051,-0.018 0,-0.01 0.11,-0.167 0.243,-0.349 0.137,-0.181 0.305,-0.442 0.38,-0.575 0.13,-0.247 0.13,-0.25 0.168,-0.815 0.048,-0.764 -0.007,-1.09 -0.302,-1.777 -0.102,-0.25 -0.297,-0.439 -0.441,-0.439 -0.093,0 -0.22,-0.11 -0.22,-0.188 a 0.053,0.053 0 0 0 -0.05,-0.052 c -0.028,0 -0.11,-0.054 -0.186,-0.12 -0.123,-0.109 -0.14,-0.154 -0.24,-0.547 a 2.676,2.676 0 0 1 -0.106,-0.781 c 0,-0.346 -0.072,-1.041 -0.137,-1.308 A 1.79,1.79 0 0 1 29.803,9.824 C 29.8,9.633 29.776,9.499 29.618,8.78 29.567,8.554 29.488,8.184 29.44,7.958 29.28,7.17 29.2,6.928 28.978,6.54 28.752,6.146 28.731,6.12 28.32,5.664 27.882,5.177 27.656,4.975 27.307,4.76 26.69,4.38 26.248,4.195 25.612,4.05 A 3.243,3.243 0 0 1 25.057,3.883 1.63,1.63 0 0 0 24.642,3.763 C 24.396,3.722 22.882,3.684 22.766,3.715 Z m 1.811,0.702 c 0.394,0.069 0.476,0.09 0.689,0.185 0.054,0.024 0.181,0.051 0.28,0.062 0.14,0.01 0.257,0.061 0.572,0.243 0.22,0.127 0.408,0.222 0.425,0.212 0.014,-0.007 0.092,0.031 0.175,0.086 0.082,0.055 0.164,0.1 0.181,0.1 0.052,0 0.48,0.287 0.678,0.455 0.103,0.085 0.243,0.205 0.312,0.263 0.27,0.226 0.73,1.02 0.952,1.654 0.123,0.35 0.12,0.336 0.061,0.312 -0.034,-0.01 -0.078,0.079 -0.15,0.301 -0.079,0.247 -0.11,0.302 -0.13,0.25 A 51.55,51.55 0 0 0 28.183,7.451 c -0.085,-0.205 -0.16,-0.315 -0.16,-0.24 0,0.024 0.013,0.048 0.027,0.059 0.061,0.037 0.315,1.068 0.315,1.274 0,0.065 0.03,0.26 0.065,0.435 0.079,0.376 0.103,0.712 0.11,1.445 l 0.003,0.548 -0.154,0.024 a 0.662,0.662 0 0 0 -0.236,0.075 c -0.048,0.03 -0.161,0.079 -0.257,0.106 a 1.766,1.766 0 0 0 -0.408,0.216 c -0.13,0.089 -0.322,0.198 -0.424,0.243 a 2.36,2.36 0 0 0 -0.566,0.325 c -0.147,0.113 -0.143,0.103 0.093,-0.205 0.171,-0.223 0.267,-0.421 0.267,-0.555 0,-0.062 -0.01,-0.11 -0.02,-0.11 -0.066,0 -0.268,0.226 -0.5,0.559 -0.346,0.486 -0.353,0.578 -0.042,0.49 a 5.61,5.61 0 0 1 0.425,-0.103 1.93,1.93 0 0 0 0.356,-0.107 c 0.065,-0.034 0.113,-0.04 0.137,-0.02 0.024,0.02 0.062,0.02 0.09,0.003 A 0.22,0.22 0 0 1 27.44,11.9 c 0.065,0.013 0.161,-0.035 0.394,-0.189 0.199,-0.137 0.319,-0.195 0.34,-0.174 0.047,0.048 0.163,0.04 0.239,-0.017 0.075,-0.059 0.137,-0.069 0.106,-0.021 -0.034,0.058 0.092,0.147 0.192,0.134 0.075,-0.014 0.102,0 0.12,0.054 0.013,0.041 0.071,0.161 0.137,0.267 l 0.113,0.196 -0.08,0.147 c -0.064,0.123 -0.092,0.147 -0.167,0.137 -0.075,-0.007 -0.103,0.014 -0.158,0.123 -0.089,0.175 -0.345,0.384 -0.472,0.384 -0.113,0 -0.202,0.054 -0.421,0.257 -0.175,0.16 -0.606,0.414 -0.644,0.376 A 0.474,0.474 0 0 1 27.081,13.43 c -0.041,-0.147 -0.13,-0.219 -0.196,-0.154 -0.03,0.031 -0.024,0.069 0.035,0.175 a 0.562,0.562 0 0 1 0.075,0.199 c 0,0.071 -0.216,0.205 -0.312,0.188 a 0.425,0.425 0 0 0 -0.185,0.044 c -0.071,0.028 -0.13,0.052 -0.133,0.052 0,0 0.003,-0.185 0.01,-0.411 0.01,-0.452 -0.007,-0.582 -0.082,-0.582 -0.062,0 -0.072,0.051 -0.123,0.582 -0.02,0.236 -0.052,0.459 -0.065,0.5 -0.017,0.04 -0.1,0.103 -0.196,0.144 -0.15,0.065 -0.181,0.065 -0.352,0.027 a 3.162,3.162 0 0 1 -0.435,-0.15 2.616,2.616 0 0 0 -0.373,-0.13 c -0.137,-0.025 -0.271,-0.172 -0.34,-0.37 -0.05,-0.141 -0.078,-0.103 0.39,-0.521 0.316,-0.278 0.429,-0.548 0.295,-0.699 -0.058,-0.065 -0.02,-0.198 0.189,-0.63 0.188,-0.397 0.301,-0.736 0.25,-0.767 -0.02,-0.014 -0.045,-0.072 -0.052,-0.127 -0.006,-0.072 -0.03,-0.106 -0.082,-0.113 -0.058,-0.006 -0.079,0.017 -0.113,0.137 a 9.98,9.98 0 0 1 -0.366,0.809 c -0.308,0.623 -0.322,0.667 -0.27,0.726 0.085,0.095 0.05,0.212 -0.086,0.287 -0.076,0.041 -0.192,0.168 -0.315,0.35 -0.185,0.277 -0.192,0.29 -0.144,0.383 0.024,0.051 0.048,0.13 0.048,0.178 0,0.065 0.027,0.096 0.099,0.127 0.069,0.024 0.13,0.092 0.185,0.202 a 0.964,0.964 0 0 0 0.157,0.233 c 0.042,0.037 0.072,0.099 0.072,0.137 0,0.051 0.048,0.096 0.154,0.154 0.182,0.096 0.463,0.383 0.463,0.476 0,0.034 0.037,0.1 0.082,0.14 0.15,0.144 0.257,0.449 0.14,0.4 -0.085,-0.03 -0.058,0.07 0.048,0.182 0.09,0.093 0.161,0.127 0.254,0.11 0.017,-0.003 0.075,0.027 0.133,0.068 0.082,0.059 0.11,0.066 0.13,0.028 0.018,-0.024 0.014,-0.072 -0.003,-0.103 -0.051,-0.103 -0.038,-0.14 0.034,-0.1 0.038,0.018 0.11,0.035 0.161,0.035 0.12,0 0.384,-0.127 0.435,-0.209 0.024,-0.038 0.058,-0.065 0.082,-0.065 0.024,0 0.045,-0.03 0.045,-0.068 0,-0.09 -0.055,-0.086 -0.329,0.017 -0.356,0.133 -0.404,0.123 -0.668,-0.151 -0.202,-0.209 -0.308,-0.39 -0.257,-0.438 0.01,-0.01 0.107,0.065 0.216,0.168 0.394,0.37 0.456,0.39 0.805,0.27 0.226,-0.079 0.363,-0.062 0.377,0.045 0.02,0.137 0.143,0.106 0.301,-0.072 0.253,-0.288 0.445,-0.58 0.445,-0.678 0,-0.158 0.082,-0.076 0.106,0.106 0.02,0.15 0.014,0.185 -0.092,0.339 -0.192,0.284 -0.065,0.24 0.226,-0.079 0.315,-0.346 0.421,-0.517 0.435,-0.709 0.01,-0.092 0.03,-0.202 0.048,-0.24 a 0.758,0.758 0 0 0 0.04,-0.222 c 0.008,-0.144 0,-0.154 -0.085,-0.165 -0.079,-0.01 -0.096,-0.027 -0.096,-0.102 0,-0.171 0.09,-0.367 0.175,-0.377 0.079,-0.014 0.127,-0.051 0.185,-0.157 0.02,-0.035 0.051,-0.062 0.068,-0.059 0.048,0.01 0.024,0.11 -0.04,0.185 -0.052,0.052 -0.049,0.086 0.023,0.377 0.079,0.322 0.113,1.003 0.055,1.178 -0.041,0.127 0.03,0.089 0.134,-0.065 l 0.096,-0.147 -0.08,-0.446 c -0.14,-0.784 -0.153,-0.904 -0.109,-0.948 0.048,-0.048 0.165,0.044 0.199,0.157 0.051,0.172 0.335,0.726 0.394,0.767 0.03,0.021 0.078,0.096 0.099,0.165 0.034,0.103 0.075,0.14 0.23,0.209 0.102,0.048 0.287,0.099 0.414,0.113 0.277,0.034 0.328,0.089 0.301,0.308 -0.058,0.466 -0.058,0.466 -0.014,0.4 l 0.086,-0.12 c 0.02,-0.033 -0.007,0.158 -0.062,0.422 l -0.099,0.48 -0.387,0.366 c -0.209,0.202 -0.41,0.366 -0.442,0.366 -0.034,0.004 -0.061,0.028 -0.061,0.058 0,0.076 -0.172,0.288 -0.233,0.288 a 3.31,3.31 0 0 1 -0.439,-0.154 c -0.208,-0.086 -0.438,-0.154 -0.503,-0.154 -0.195,0 -0.64,0.096 -0.78,0.168 -0.073,0.037 -0.261,0.092 -0.419,0.12 -0.452,0.078 -1.04,0.404 -1.106,0.61 -0.01,0.037 -0.085,0.174 -0.167,0.297 -0.237,0.366 -0.432,1.02 -0.428,1.438 l 0.003,0.158 0.096,-0.209 c 0.055,-0.113 0.123,-0.291 0.157,-0.394 0.035,-0.103 0.093,-0.23 0.13,-0.28 0.038,-0.055 0.113,-0.192 0.168,-0.309 0.172,-0.36 0.302,-0.537 0.442,-0.61 0.075,-0.037 0.134,-0.058 0.134,-0.044 0,0.01 -0.117,0.257 -0.257,0.545 -0.264,0.54 -0.36,0.821 -0.36,1.054 0,0.117 0.01,0.13 0.079,0.12 0.055,-0.007 0.079,-0.037 0.086,-0.103 0.02,-0.164 0.51,-1.106 0.729,-1.397 0.188,-0.246 0.455,-0.48 0.555,-0.48 0.013,0 -0.024,0.066 -0.09,0.145 -0.318,0.393 -0.674,1.075 -0.674,1.294 0,0.09 0.058,0.09 0.086,-0.003 0.013,-0.038 0.102,-0.172 0.198,-0.298 0.096,-0.127 0.26,-0.346 0.37,-0.487 0.178,-0.236 0.373,-0.448 0.373,-0.404 0,0.007 -0.061,0.158 -0.137,0.333 a 2.724,2.724 0 0 0 -0.25,1.219 c 0,0.349 0.01,0.404 0.144,0.787 0.08,0.226 0.172,0.507 0.206,0.624 0.085,0.28 0.537,1.174 0.75,1.49 0.188,0.277 1.363,1.533 1.435,1.533 0.006,0 0.13,0.096 0.277,0.216 0.27,0.223 0.394,0.305 0.572,0.4 0.63,0.333 1.11,0.617 1.181,0.703 0.045,0.055 0.172,0.188 0.281,0.29 0.325,0.31 0.623,0.754 0.805,1.217 0.185,0.462 0.298,0.866 0.404,1.431 0.103,0.558 0.11,0.829 0.027,0.921 -0.03,0.034 -0.068,0.062 -0.082,0.062 -0.013,0 -0.072,-0.082 -0.127,-0.182 -0.085,-0.15 -0.106,-0.23 -0.123,-0.527 -0.027,-0.428 -0.103,-0.907 -0.178,-1.13 -0.055,-0.168 -0.133,-0.277 -0.171,-0.243 -0.01,0.013 0.003,0.301 0.034,0.644 0.031,0.342 0.055,0.643 0.055,0.667 0,0.045 -0.37,-0.13 -0.414,-0.198 A 0.88,0.88 0 0 1 32.255,27.55 3.486,3.486 0 0 0 32.18,27.156 c -0.137,-0.483 -0.576,-1.38 -0.665,-1.363 -0.082,0.014 -0.054,0.178 0.12,0.657 0.199,0.552 0.305,0.908 0.278,0.935 -0.041,0.038 -0.21,-0.16 -0.25,-0.294 a 2.89,2.89 0 0 0 -0.25,-0.456 8.798,8.798 0 0 1 -0.312,-0.527 3.515,3.515 0 0 0 -0.178,-0.305 6.055,6.055 0 0 1 -0.212,-0.36 c -0.137,-0.26 -0.23,-0.328 -0.25,-0.181 -0.017,0.113 0.089,0.445 0.195,0.623 0.051,0.086 0.12,0.223 0.154,0.305 0.03,0.082 0.12,0.25 0.192,0.373 0.075,0.124 0.137,0.24 0.137,0.254 0,0.034 -0.254,-0.103 -0.33,-0.178 a 3.617,3.617 0 0 1 -0.211,-0.281 c -0.09,-0.127 -0.278,-0.38 -0.418,-0.565 -0.236,-0.305 -0.363,-0.504 -0.63,-0.98 -0.124,-0.215 -0.175,-0.195 -0.172,0.072 0.004,0.257 0.161,0.606 0.521,1.137 0.134,0.199 0.236,0.363 0.233,0.37 -0.028,0.028 -0.28,-0.116 -0.35,-0.198 A 3.786,3.786 0 0 0 29.474,25.916 C 29.07,25.587 28.779,25.118 28.57,24.45 c -0.16,-0.513 -0.222,-0.534 -0.219,-0.071 0,0.493 0.192,1.023 0.528,1.465 0.075,0.1 0.136,0.185 0.136,0.192 0,0.007 -0.03,0.007 -0.071,-0.003 -0.042,-0.01 -0.09,-0.066 -0.107,-0.117 -0.017,-0.055 -0.048,-0.1 -0.065,-0.1 -0.078,0 -0.448,-0.427 -0.62,-0.718 -0.273,-0.466 -0.386,-0.774 -0.469,-1.288 -0.096,-0.589 -0.099,-0.596 -0.157,-0.596 -0.12,0 -0.168,0.312 -0.117,0.798 0.045,0.445 0.168,0.86 0.36,1.202 0.086,0.147 0.147,0.277 0.14,0.284 -0.02,0.02 -0.558,-0.558 -0.667,-0.719 -0.295,-0.431 -0.64,-1.342 -0.778,-2.061 -0.089,-0.476 -0.188,-0.439 -0.192,0.072 -0.003,0.37 0.137,1.126 0.274,1.486 0.042,0.103 0.072,0.195 0.072,0.202 0,0.03 -0.301,-0.332 -0.448,-0.541 -0.278,-0.4 -0.411,-0.795 -0.476,-1.425 l -0.055,-0.558 c -0.014,-0.113 -0.034,-0.178 -0.065,-0.178 -0.065,0 -0.086,0.113 -0.11,0.616 -0.02,0.531 0.031,0.884 0.195,1.278 0.117,0.28 0.069,0.25 -0.184,-0.11 -0.226,-0.322 -0.322,-0.51 -0.38,-0.736 -0.072,-0.281 -0.165,-1.175 -0.144,-1.394 0.017,-0.199 -0.01,-0.28 -0.069,-0.195 -0.068,0.11 -0.116,0.308 -0.137,0.568 -0.01,0.154 -0.034,0.278 -0.051,0.274 -0.02,-0.007 -0.065,-0.096 -0.103,-0.198 -0.055,-0.154 -0.062,-0.24 -0.048,-0.463 0.01,-0.15 0.038,-0.328 0.055,-0.393 A 3.76,3.76 0 0 0 24.68,20.67 c 0.055,-0.274 0.014,-0.308 -0.116,-0.093 -0.165,0.267 -0.158,0.267 -0.182,0.083 -0.017,-0.13 0,-0.244 0.079,-0.521 0.055,-0.192 0.092,-0.373 0.082,-0.4 -0.03,-0.076 -0.137,-0.008 -0.222,0.147 -0.038,0.068 -0.059,0.095 -0.045,0.058 0.051,-0.158 0.15,-0.654 0.15,-0.76 0,-0.144 -0.088,-0.189 -0.17,-0.086 -0.055,0.065 -0.059,0.034 -0.083,-0.616 -0.017,-0.497 -0.013,-0.7 0.017,-0.733 0.052,-0.065 0.086,-0.035 0.137,0.116 0.041,0.137 0.154,0.28 0.22,0.28 0.071,0 0.29,0.131 0.356,0.21 0.048,0.058 0.078,0.072 0.102,0.044 0.028,-0.024 0.02,-0.082 -0.027,-0.205 -0.038,-0.093 -0.13,-0.37 -0.212,-0.613 A 32.454,32.454 0 0 0 24.355,16.42 c -0.15,-0.394 -0.27,-0.76 -0.27,-0.815 0,-0.051 -0.018,-0.096 -0.038,-0.096 -0.018,0 -0.052,-0.044 -0.069,-0.1 -0.041,-0.116 -0.113,-0.153 -0.195,-0.109 a 0.118,0.118 0 0 1 -0.117,0 c -0.05,-0.027 -0.089,0.028 -0.263,0.394 -0.34,0.709 -1.024,2.644 -0.96,2.709 0.025,0.024 0.063,0.003 0.114,-0.058 0.041,-0.055 0.092,-0.096 0.113,-0.096 0.02,0 0.055,-0.02 0.079,-0.048 0.02,-0.028 0.078,-0.055 0.13,-0.062 0.068,-0.007 0.096,-0.038 0.116,-0.123 0.017,-0.058 0.045,-0.11 0.062,-0.11 0.017,0 0.058,-0.048 0.085,-0.106 0.055,-0.1 0.059,-0.103 0.103,-0.041 a 0.26,0.26 0 0 1 0.052,0.14 c 0,0.041 0.024,0.113 0.05,0.154 0.09,0.137 0.134,0.668 0.124,1.415 -0.003,0.181 -0.013,0.212 -0.072,0.23 -0.082,0.02 -0.089,0.116 -0.013,0.198 0.048,0.055 0.048,0.089 0,0.397 -0.031,0.185 -0.065,0.435 -0.083,0.558 l -0.024,0.223 -0.075,-0.13 c -0.041,-0.069 -0.092,-0.127 -0.11,-0.127 -0.02,0 -0.027,0.192 -0.013,0.51 l 0.017,0.507 -0.116,0.288 c -0.226,0.555 -0.429,0.757 -0.34,0.339 0.055,-0.26 0.045,-0.445 -0.037,-0.617 l -0.072,-0.154 -0.045,0.326 c -0.072,0.5 -0.445,1.558 -0.667,1.887 a 0.902,0.902 0 0 1 -0.124,0.154 2.662,2.662 0 0 1 0.065,-0.35 c 0.093,-0.42 0.11,-1.232 0.031,-1.328 -0.075,-0.09 -0.123,-0.01 -0.185,0.322 -0.089,0.462 -0.322,1.191 -0.472,1.49 -0.11,0.215 -0.202,0.331 -0.439,0.554 a 4.834,4.834 0 0 1 -0.304,0.284 0.315,0.315 0 0 1 0.03,-0.079 c 0.024,-0.04 0.086,-0.222 0.14,-0.4 0.165,-0.541 0.172,-1.404 0.011,-1.404 -0.072,0 -0.079,0.027 -0.137,0.407 -0.1,0.675 -0.199,0.96 -0.51,1.486 -0.188,0.322 -0.343,0.5 -0.596,0.702 -0.171,0.134 -0.178,0.12 -0.045,-0.071 0.151,-0.223 0.26,-0.46 0.36,-0.778 a 1.48,1.48 0 0 0 0.082,-0.6 c -0.007,-0.174 -0.024,-0.307 -0.044,-0.307 -0.017,0 -0.103,0.209 -0.189,0.462 -0.219,0.647 -0.37,0.894 -0.852,1.363 -0.353,0.346 -0.541,0.486 -0.651,0.486 -0.02,0 0.075,-0.164 0.212,-0.37 0.411,-0.606 0.627,-1.191 0.487,-1.308 -0.055,-0.044 -0.055,-0.044 -0.394,0.541 a 5.478,5.478 0 0 1 -0.302,0.463 13.34,13.34 0 0 0 -0.26,0.332 9.597,9.597 0 0 0 -0.274,0.37 1.452,1.452 0 0 1 -0.325,0.335 c -0.202,0.137 -0.223,0.103 -0.079,-0.126 0.171,-0.268 0.514,-1.004 0.548,-1.168 0.024,-0.124 0.02,-0.178 -0.01,-0.223 -0.041,-0.055 -0.055,-0.044 -0.137,0.093 -0.048,0.085 -0.15,0.253 -0.226,0.376 a 6.555,6.555 0 0 0 -0.223,0.394 4.856,4.856 0 0 1 -0.253,0.428 c -0.213,0.326 -0.343,0.565 -0.343,0.634 0,0.051 -0.195,0.257 -0.243,0.257 -0.03,0 0.1,-0.439 0.305,-1.02 0.096,-0.271 0.164,-0.515 0.154,-0.542 -0.038,-0.103 -0.113,-0.038 -0.264,0.243 -0.298,0.552 -0.49,1.096 -0.551,1.579 -0.02,0.157 -0.048,0.202 -0.243,0.41 l -0.223,0.237 0.02,-0.325 c 0.011,-0.178 0.035,-0.442 0.052,-0.582 0.079,-0.665 0.045,-0.88 -0.096,-0.559 -0.106,0.25 -0.178,0.696 -0.202,1.25 l -0.02,0.507 -0.113,0.086 c -0.093,0.068 -0.13,0.082 -0.182,0.055 -0.106,-0.059 -0.106,-0.33 0.004,-0.928 0.123,-0.685 0.24,-1.093 0.441,-1.552 0.192,-0.435 0.411,-0.746 0.833,-1.188 0.318,-0.332 0.393,-0.38 1.335,-0.884 0.22,-0.116 0.723,-0.49 1.014,-0.75 0.4,-0.356 1.212,-1.243 1.38,-1.503 a 7.73,7.73 0 0 0 0.811,-1.743 c 0.213,-0.647 0.278,-0.973 0.21,-1.058 -0.028,-0.034 -0.031,-0.093 -0.004,-0.216 0.041,-0.185 -0.007,-0.472 -0.116,-0.736 -0.069,-0.158 -0.62,-0.778 -0.733,-0.819 -0.1,-0.037 -0.062,-0.102 0.096,-0.167 0.154,-0.065 0.575,0.048 0.62,0.167 0.02,0.045 0.085,0.168 0.15,0.274 0.065,0.107 0.202,0.398 0.308,0.648 0.144,0.352 0.185,0.493 0.185,0.62 -0.003,0.088 0.014,0.222 0.038,0.294 0.024,0.068 0.034,0.178 0.024,0.24 -0.01,0.061 -0.01,0.123 0,0.133 0.04,0.041 0.113,-0.061 0.113,-0.164 0,-0.178 0.048,-0.21 0.113,-0.072 0.061,0.13 0.096,0.147 0.154,0.075 0.027,-0.03 0.027,-0.085 0.007,-0.164 a 8.886,8.886 0 0 1 -0.086,-0.408 4.041,4.041 0 0 0 -0.38,-1.048 1.453,1.453 0 0 1 -0.116,-0.232 c 0,-0.01 0.044,0 0.102,0.03 0.055,0.028 0.182,0.072 0.281,0.1 l 0.182,0.044 0.116,0.278 c 0.065,0.154 0.123,0.274 0.127,0.27 0.027,-0.027 -0.069,-0.945 -0.106,-1 -0.024,-0.037 -0.144,-0.123 -0.267,-0.188 l -0.223,-0.12 -0.134,0.072 c -0.212,0.12 -0.301,0.127 -0.5,0.044 A 2.418,2.418 0 0 1 20.454,16.828 C 20.307,16.725 20.136,16.677 19.855,16.66 a 0.732,0.732 0 0 1 -0.137,-0.02 1.774,1.774 0 0 0 -0.325,-0.018 c -0.247,0.003 -0.322,0.02 -0.493,0.103 l -0.206,0.096 -0.089,-0.107 c -0.051,-0.061 -0.106,-0.11 -0.123,-0.11 -0.017,0 -0.137,-0.071 -0.267,-0.153 a 1.587,1.587 0 0 0 -0.267,-0.154 c -0.076,0 -0.01,0.075 0.16,0.188 0.103,0.072 0.189,0.14 0.189,0.158 0,0.054 -0.065,0.034 -0.127,-0.038 -0.034,-0.038 -0.082,-0.069 -0.113,-0.069 -0.027,0 -0.13,-0.061 -0.223,-0.14 -0.191,-0.158 -0.438,-0.592 -0.599,-1.058 a 8.376,8.376 0 0 0 -0.147,-0.384 c -0.055,-0.123 -0.055,-0.133 0.003,-0.191 a 0.466,0.466 0 0 1 0.216,-0.09 c 0.195,-0.03 0.305,-0.102 0.305,-0.205 0,-0.116 0.157,-0.64 0.28,-0.942 0.169,-0.397 0.37,-0.575 0.37,-0.318 0,0.051 -0.068,0.298 -0.154,0.548 a 4.06,4.06 0 0 0 -0.154,0.52 c 0,0.045 0.035,0.082 0.086,0.103 0.048,0.017 0.086,0.048 0.086,0.068 0,0.021 0.017,0.028 0.034,0.018 0.02,-0.01 0.034,-0.062 0.034,-0.11 0,-0.048 0.038,-0.274 0.082,-0.503 a 4.91,4.91 0 0 0 0.093,-0.586 c 0.003,-0.116 0.03,-0.195 0.075,-0.247 0.041,-0.044 0.058,-0.102 0.048,-0.147 -0.014,-0.051 0,-0.068 0.048,-0.068 0.044,0 0.065,0.024 0.065,0.082 0,0.092 0.055,0.144 0.14,0.13 0.11,-0.017 0.103,0.096 -0.013,0.212 -0.182,0.178 -0.247,0.435 -0.247,0.946 0.004,0.469 0.038,0.595 0.202,0.684 0.048,0.024 0.09,0.059 0.09,0.076 0,0.013 0.016,0.027 0.033,0.027 0.059,0 0.038,-0.113 -0.054,-0.288 -0.09,-0.164 -0.09,-0.167 -0.048,-0.513 0.072,-0.617 0.178,-0.952 0.277,-0.89 0.017,0.01 0.031,-0.025 0.031,-0.08 0,-0.085 0.003,-0.088 0.055,-0.037 0.03,0.03 0.058,0.116 0.061,0.188 0.004,0.117 -0.006,0.13 -0.089,0.14 -0.12,0.014 -0.226,0.261 -0.233,0.542 -0.003,0.11 -0.01,0.294 -0.01,0.407 -0.007,0.182 0,0.206 0.062,0.216 0.044,0.007 0.12,0.093 0.205,0.233 0.199,0.329 0.285,0.421 0.51,0.568 0.23,0.148 0.305,0.14 0.172,-0.017 -0.134,-0.164 -0.531,-0.883 -0.552,-1 -0.034,-0.185 -0.027,-0.267 0.014,-0.28 0.024,-0.01 0.058,0.024 0.079,0.075 0.058,0.15 0.565,0.839 0.808,1.096 0.233,0.246 0.322,0.26 0.188,0.03 -0.089,-0.15 -0.092,-0.178 -0.006,-0.102 0.037,0.034 0.085,0.055 0.102,0.051 0.02,-0.007 -0.072,-0.1 -0.205,-0.202 -0.267,-0.205 -0.408,-0.356 -0.408,-0.431 0,-0.083 0.08,-0.055 0.322,0.123 0.13,0.096 0.278,0.181 0.326,0.192 0.048,0.01 0.253,0.075 0.458,0.144 l 0.367,0.126 0.137,-0.079 a 0.575,0.575 0 0 1 0.195,-0.075 c 0.045,0 0.03,0.02 -0.048,0.075 a 0.503,0.503 0 0 0 -0.15,0.175 0.682,0.682 0 0 1 -0.165,0.195 c -0.106,0.09 -0.113,0.103 -0.048,0.103 a 0.486,0.486 0 0 0 0.161,-0.034 c 0.1,-0.038 0.113,-0.007 0.051,0.11 -0.058,0.109 0.018,0.16 0.113,0.075 0.045,-0.038 0.117,-0.09 0.165,-0.113 0.11,-0.052 0.462,-0.394 0.733,-0.699 0.11,-0.127 0.246,-0.253 0.308,-0.277 a 1.24,1.24 0 0 0 0.603,-0.576 c 0.078,-0.147 0.154,-0.267 0.17,-0.267 0.035,0 0.018,-0.068 -0.04,-0.195 -0.028,-0.055 -0.024,-0.127 0.02,-0.277 0.096,-0.343 0.12,-0.305 -0.452,-0.695 l -0.246,-0.172 0.02,-0.133 a 0.314,0.314 0 0 0 -0.048,-0.247 5.208,5.208 0 0 1 -0.246,-0.524 c -0.23,-0.537 -0.428,-0.873 -0.514,-0.873 -0.041,0 -0.068,0.024 -0.068,0.055 0,0.044 -0.01,0.048 -0.052,0.014 -0.113,-0.096 -0.106,-0.004 0.02,0.215 0.076,0.127 0.21,0.397 0.295,0.6 0.185,0.42 0.22,0.654 0.13,0.825 a 0.371,0.371 0 0 0 -0.034,0.253 c 0.048,0.284 0.093,0.346 0.363,0.483 0.346,0.182 0.38,0.216 0.353,0.343 a 1.06,1.06 0 0 1 -0.086,0.229 c -0.051,0.103 -0.085,0.127 -0.195,0.147 -0.075,0.01 -0.236,0.069 -0.363,0.127 a 2.52,2.52 0 0 1 -0.421,0.15 c -0.182,0.042 -0.213,0.042 -0.363,-0.023 -0.09,-0.041 -0.178,-0.096 -0.192,-0.127 -0.017,-0.03 -0.051,-0.264 -0.072,-0.517 -0.051,-0.528 -0.079,-0.644 -0.15,-0.586 -0.062,0.052 -0.09,0.343 -0.059,0.689 0.014,0.16 0.024,0.294 0.02,0.3 a 0.475,0.475 0 0 1 -0.146,-0.047 c -0.08,-0.03 -0.161,-0.048 -0.185,-0.038 -0.024,0.007 -0.103,-0.017 -0.175,-0.058 -0.123,-0.065 -0.13,-0.079 -0.113,-0.188 a 0.425,0.425 0 0 1 0.075,-0.178 c 0.076,-0.082 0.038,-0.175 -0.061,-0.161 -0.062,0.007 -0.086,0.044 -0.117,0.16 -0.02,0.086 -0.051,0.158 -0.072,0.165 -0.048,0.017 -0.65,-0.353 -0.688,-0.418 -0.048,-0.085 -0.257,-0.222 -0.342,-0.222 -0.055,0 -0.182,-0.086 -0.36,-0.24 -0.15,-0.134 -0.288,-0.24 -0.308,-0.24 -0.017,0 -0.038,0.031 -0.048,0.065 a 0.121,0.121 0 0 1 -0.093,0.08 c -0.054,0.006 -0.072,0.033 -0.072,0.105 l 0.004,0.096 -0.058,-0.075 c -0.065,-0.086 -0.134,-0.456 -0.134,-0.716 0,-0.133 0.014,-0.178 0.062,-0.195 0.03,-0.014 0.137,-0.075 0.236,-0.137 0.291,-0.185 0.586,-0.161 0.914,0.082 0.158,0.117 0.23,0.15 0.305,0.137 0.051,-0.007 0.103,0 0.113,0.017 0.01,0.014 0.055,0.028 0.1,0.028 0.054,0 0.116,0.04 0.178,0.12 0.089,0.109 0.095,0.112 0.154,0.061 0.061,-0.055 0.075,-0.048 0.232,0.12 0.165,0.175 0.309,0.233 0.309,0.127 0,-0.028 0.017,-0.052 0.034,-0.052 0.02,0 0.034,0.02 0.034,0.048 0,0.058 0.192,0.226 0.257,0.226 0.024,0 0.062,-0.024 0.086,-0.051 0.034,-0.041 0.024,-0.065 -0.055,-0.137 a 0.524,0.524 0 0 0 -0.165,-0.106 c -0.04,-0.01 -0.116,-0.079 -0.174,-0.15 -0.055,-0.076 -0.12,-0.128 -0.144,-0.12 -0.086,0.027 -0.404,-0.097 -0.538,-0.21 a 0.624,0.624 0 0 0 -0.167,-0.116 c -0.018,0 -0.179,-0.096 -0.357,-0.212 -0.274,-0.179 -0.349,-0.21 -0.458,-0.202 -0.182,0.01 -0.26,-0.042 -0.305,-0.196 -0.048,-0.181 -0.041,-0.575 0.013,-0.685 0.076,-0.15 0.1,-0.345 0.045,-0.37 -0.038,-0.013 -0.027,-0.12 0.065,-0.592 0.134,-0.692 0.209,-0.969 0.404,-1.486 0.171,-0.449 0.25,-0.73 0.216,-0.767 C 19.547,7.16 19.406,7.321 19.297,7.523 19.18,7.746 18.995,8.3 18.862,8.842 18.787,9.146 18.752,9.229 18.67,9.304 18.615,9.355 18.447,9.605 18.297,9.859 l -0.274,0.459 v -0.155 c 0,-0.126 0.017,-0.17 0.106,-0.256 0.236,-0.226 0.568,-0.812 0.603,-1.062 0.02,-0.154 0.02,-0.158 -0.055,-0.12 -0.079,0.045 -0.212,0.24 -0.432,0.63 -0.068,0.127 -0.13,0.23 -0.137,0.223 a 2.6,2.6 0 0 1 0.014,-0.25 c 0.017,-0.209 0.028,-0.24 0.09,-0.24 0.081,0 0.468,-0.623 0.544,-0.877 0.061,-0.202 0.034,-0.448 -0.045,-0.434 -0.03,0.006 -0.055,0.027 -0.055,0.044 0,0.02 -0.044,0.103 -0.092,0.188 A 5.269,5.269 0 0 0 18.348,8.434 C 18.28,8.581 18.218,8.694 18.208,8.687 18.163,8.643 18.602,7.249 18.732,7.02 19.06,6.451 19.68,5.67 20.019,5.4 c 0.309,-0.243 0.778,-0.538 0.925,-0.579 0.079,-0.02 0.322,-0.1 0.538,-0.171 0.55,-0.182 1.044,-0.257 2.02,-0.305 0.53,-0.024 0.53,-0.024 1.075,0.072 z m 4.47,4.003 c 0.047,0.226 0.047,0.26 -0.011,0.353 a 1.551,1.551 0 0 0 -0.11,0.308 c -0.03,0.127 -0.065,0.223 -0.078,0.213 A 1.177,1.177 0 0 1 28.776,9.074 C 28.721,8.886 28.724,8.876 28.8,8.725 28.84,8.643 28.896,8.503 28.916,8.41 28.94,8.321 28.971,8.25 28.985,8.25 c 0.013,0 0.04,0.078 0.061,0.17 z m 0.55,4.274 a 0.32,0.32 0 0 1 -0.047,0.165 c -0.045,0.058 -0.041,0.071 0.013,0.133 0.14,0.154 0.411,0.582 0.411,0.654 0,0.154 -0.181,0.12 -0.318,-0.061 a 3.865,3.865 0 0 1 -0.23,-0.377 l -0.14,-0.264 0.055,-0.164 c 0.075,-0.22 0.11,-0.257 0.192,-0.213 0.04,0.021 0.065,0.069 0.065,0.127 z m -11.965,0.562 c -0.05,0.12 -0.164,0.352 -0.253,0.524 -0.168,0.318 -0.247,0.38 -0.329,0.246 -0.03,-0.048 -0.003,-0.126 0.144,-0.41 0.1,-0.192 0.236,-0.425 0.301,-0.518 0.113,-0.15 0.127,-0.16 0.179,-0.113 0.047,0.052 0.044,0.076 -0.042,0.27 z m 0.004,5 c 0.044,0.04 0.079,0.092 0.079,0.116 0,0.02 0.024,0.062 0.058,0.086 a 0.79,0.79 0 0 1 0.181,0.414 v 0.096 l -0.16,-0.103 c -0.179,-0.113 -0.336,-0.13 -0.442,-0.051 -0.065,0.051 -0.065,0.051 0,0.102 a 0.262,0.262 0 0 0 0.126,0.052 c 0.069,0 0.254,0.222 0.39,0.466 0.093,0.167 0.097,0.181 0.052,0.335 -0.024,0.086 -0.051,0.158 -0.065,0.158 -0.01,0 -0.079,-0.086 -0.154,-0.185 -0.161,-0.226 -0.445,-0.432 -0.596,-0.432 -0.062,0 -0.11,0.017 -0.11,0.041 0,0.02 0.093,0.134 0.203,0.25 0.226,0.233 0.277,0.363 0.277,0.682 0,0.168 -0.017,0.23 -0.106,0.37 -0.058,0.089 -0.12,0.157 -0.134,0.147 -0.017,-0.01 -0.04,-0.106 -0.051,-0.216 -0.028,-0.25 -0.158,-0.52 -0.312,-0.654 -0.226,-0.199 -0.28,-0.12 -0.126,0.178 0.082,0.15 0.095,0.22 0.095,0.452 0,0.346 -0.072,0.538 -0.274,0.736 l -0.154,0.151 v -0.212 c 0,-0.14 -0.03,-0.308 -0.089,-0.486 -0.078,-0.233 -0.113,-0.288 -0.26,-0.411 -0.096,-0.083 -0.188,-0.134 -0.216,-0.124 -0.055,0.02 -0.055,0.017 0.08,0.302 0.18,0.38 0.109,0.873 -0.158,1.082 -0.117,0.092 -0.316,0.164 -0.316,0.113 0,-0.01 0.024,-0.096 0.052,-0.189 0.092,-0.308 0.055,-0.664 -0.096,-0.897 -0.079,-0.12 -0.212,-0.212 -0.253,-0.171 -0.014,0.01 0.003,0.137 0.037,0.274 0.093,0.363 0.045,0.555 -0.212,0.87 -0.134,0.164 -0.267,0.246 -0.4,0.246 -0.049,0 -0.086,-0.006 -0.086,-0.013 0,-0.007 0.037,-0.1 0.085,-0.206 0.144,-0.329 0.1,-0.774 -0.092,-0.89 -0.09,-0.055 -0.106,-0.01 -0.11,0.301 -0.003,0.264 -0.014,0.302 -0.106,0.435 a 1.065,1.065 0 0 1 -0.22,0.226 l -0.112,0.075 -0.175,-0.068 c -0.277,-0.11 -0.284,-0.123 -0.147,-0.353 0.26,-0.435 0.192,-0.568 -0.123,-0.246 -0.12,0.123 -0.237,0.226 -0.257,0.226 -0.02,0 -0.123,-0.079 -0.23,-0.175 -0.16,-0.147 -0.185,-0.181 -0.15,-0.233 0.058,-0.096 0.01,-0.174 -0.103,-0.174 -0.13,0 -0.185,-0.066 -0.336,-0.394 l -0.29,-0.64 c -0.25,-0.542 -0.213,-0.754 0.081,-0.483 0.247,0.226 0.466,0.356 0.798,0.476 0.562,0.202 1.148,0.256 1.935,0.188 0.387,-0.034 0.517,-0.093 1.26,-0.565 0.49,-0.308 0.826,-0.6 1.144,-0.99 0.072,-0.089 0.147,-0.16 0.171,-0.16 0.021,0 0.072,0.033 0.117,0.075 z m 13.133,0.167 c 0.41,0.507 0.414,0.51 1.1,0.96 0.725,0.472 0.89,0.547 1.304,0.581 0.78,0.065 1.168,0.031 1.784,-0.16 0.397,-0.12 0.558,-0.206 0.884,-0.473 0.229,-0.185 0.318,-0.189 0.287,-0.01 -0.017,0.113 -0.53,1.273 -0.627,1.417 a 0.163,0.163 0 0 1 -0.147,0.079 c -0.123,0 -0.202,0.082 -0.14,0.15 0.055,0.07 0.014,0.13 -0.185,0.295 -0.103,0.086 -0.182,0.127 -0.216,0.113 -0.065,-0.024 -0.377,-0.335 -0.394,-0.394 -0.02,-0.058 -0.096,0 -0.096,0.072 0,0.093 0.096,0.312 0.2,0.446 l 0.085,0.116 -0.093,0.075 a 0.744,0.744 0 0 1 -0.226,0.117 c -0.113,0.034 -0.147,0.03 -0.25,-0.031 A 0.806,0.806 0 0 1 33.823,21.56 C 33.738,21.437 33.721,21.375 33.707,21.108 33.693,20.858 33.68,20.8 33.635,20.79 c -0.092,-0.017 -0.192,0.191 -0.212,0.438 -0.017,0.195 -0.007,0.253 0.079,0.459 0.058,0.13 0.095,0.243 0.092,0.25 a 0.514,0.514 0 0 1 -0.137,-0.014 c -0.1,-0.014 -0.168,-0.061 -0.305,-0.212 a 1.849,1.849 0 0 1 -0.236,-0.329 c -0.079,-0.168 -0.082,-0.435 -0.014,-0.633 0.065,-0.182 0.065,-0.24 0.004,-0.24 -0.082,0 -0.21,0.127 -0.291,0.287 -0.107,0.22 -0.113,0.624 -0.007,0.86 L 32.68,21.82 32.553,21.8 c -0.22,-0.038 -0.428,-0.291 -0.483,-0.6 a 1.04,1.04 0 0 1 0.117,-0.68 c 0.15,-0.265 0.078,-0.333 -0.148,-0.141 a 1.544,1.544 0 0 0 -0.167,0.164 c -0.086,0.106 -0.189,0.51 -0.192,0.74 v 0.236 l -0.178,-0.192 c -0.206,-0.219 -0.26,-0.37 -0.26,-0.698 0,-0.189 0.02,-0.274 0.102,-0.452 0.058,-0.117 0.103,-0.233 0.103,-0.25 0,-0.08 -0.134,-0.024 -0.264,0.11 -0.181,0.191 -0.243,0.318 -0.28,0.592 -0.021,0.126 -0.042,0.236 -0.049,0.246 -0.03,0.031 -0.229,-0.28 -0.232,-0.363 -0.014,-0.5 0.037,-0.65 0.308,-0.9 0.096,-0.09 0.174,-0.178 0.174,-0.199 0,-0.017 -0.058,-0.034 -0.126,-0.034 -0.158,0 -0.456,0.215 -0.63,0.459 -0.062,0.089 -0.124,0.147 -0.137,0.133 a 0.692,0.692 0 0 1 -0.062,-0.164 c -0.034,-0.127 -0.027,-0.147 0.1,-0.36 0.18,-0.298 0.277,-0.397 0.403,-0.428 0.137,-0.027 0.172,-0.082 0.093,-0.144 -0.103,-0.072 -0.295,-0.054 -0.435,0.041 -0.158,0.107 -0.164,0.107 -0.164,0 a 0.59,0.59 0 0 1 0.147,-0.356 0.146,0.146 0 0 0 0.058,-0.099 c 0,-0.03 0.041,-0.096 0.09,-0.15 0.109,-0.114 0.16,-0.097 0.328,0.112 z m -11.342,0.27 c 0.038,0.021 0.086,0.07 0.106,0.107 0.027,0.058 0.024,0.079 -0.024,0.116 -0.058,0.042 -0.055,0.052 0.062,0.182 0.078,0.086 0.13,0.185 0.144,0.267 0.04,0.26 0.05,0.514 0.027,0.627 l -0.024,0.116 -0.062,-0.092 c -0.068,-0.103 -0.318,-0.295 -0.39,-0.295 -0.072,0 -0.055,0.072 0.072,0.281 0.065,0.106 0.144,0.277 0.178,0.38 0.058,0.188 0.058,0.192 -0.024,0.38 -0.09,0.21 -0.116,0.23 -0.154,0.113 a 1.165,1.165 0 0 0 -0.14,-0.24 c -0.086,-0.116 -0.144,-0.16 -0.203,-0.16 -0.102,0 -0.106,0.065 -0.017,0.263 0.11,0.237 0.154,0.62 0.11,0.908 -0.048,0.318 -0.1,0.507 -0.14,0.507 -0.021,0 -0.035,-0.062 -0.035,-0.14 0,-0.217 -0.137,-0.641 -0.243,-0.754 -0.192,-0.206 -0.253,-0.093 -0.147,0.27 0.089,0.302 0.051,0.77 -0.086,1.124 -0.058,0.154 -0.137,0.304 -0.174,0.339 -0.069,0.061 -0.069,0.058 -0.069,-0.161 0,-0.12 -0.017,-0.309 -0.041,-0.418 -0.041,-0.216 -0.264,-0.613 -0.35,-0.63 -0.068,-0.014 -0.068,0.04 -0.003,0.352 0.082,0.387 0.048,0.911 -0.072,1.172 -0.051,0.106 -0.373,0.346 -0.41,0.308 -0.014,-0.01 0.006,-0.1 0.037,-0.199 0.117,-0.346 0.014,-1.024 -0.15,-1.024 -0.07,0 -0.073,0.02 -0.073,0.326 0,0.27 -0.017,0.373 -0.099,0.61 -0.137,0.396 -0.181,0.472 -0.353,0.592 -0.174,0.126 -0.527,0.212 -0.486,0.12 0.11,-0.257 0.288,-0.788 0.288,-0.857 0,-0.15 -0.069,-0.346 -0.12,-0.346 a 0.145,0.145 0 0 0 -0.055,0.007 l -0.02,0.165 c -0.024,0.181 -0.315,0.78 -0.483,0.99 l -0.12,0.147 -0.295,-0.024 c -0.493,-0.038 -0.476,-0.01 -0.24,-0.367 0.206,-0.311 0.254,-0.476 0.162,-0.568 -0.045,-0.045 -0.13,0.007 -0.13,0.079 0,0.02 -0.035,0.068 -0.072,0.106 a 1.75,1.75 0 0 0 -0.206,0.26 1.21,1.21 0 0 1 -0.257,0.277 c -0.126,0.09 -0.164,0.09 -0.537,-0.01 l -0.165,-0.044 0.103,-0.107 c 0.11,-0.113 0.175,-0.25 0.15,-0.321 -0.03,-0.08 -0.133,-0.042 -0.266,0.099 -0.202,0.209 -0.305,0.243 -0.535,0.185 a 1.48,1.48 0 0 0 -0.277,-0.052 c -0.079,0 -0.096,-0.013 -0.096,-0.085 0,-0.12 -0.072,-0.137 -0.209,-0.055 -0.168,0.103 -0.613,0.089 -0.613,-0.017 0,-0.13 -0.236,-0.123 -0.383,0.01 -0.045,0.041 -0.165,0.062 -0.432,0.075 a 2.42,2.42 0 0 0 -0.407,0.048 c -0.072,0.045 -0.086,-0.044 -0.028,-0.212 0.052,-0.16 0.1,-0.216 0.487,-0.555 0.253,-0.226 0.825,-0.335 1.958,-0.373 0.973,-0.034 1.004,-0.038 1.98,-0.277 0.798,-0.199 1.034,-0.274 1.483,-0.487 0.582,-0.27 1.37,-0.945 1.725,-1.476 0.257,-0.383 0.562,-1.044 0.672,-1.452 0.037,-0.15 0.065,-0.167 0.17,-0.11 z m 9.452,0.271 c 0.099,0.336 0.349,0.898 0.537,1.216 0.343,0.572 1.164,1.305 1.791,1.603 0.493,0.236 0.72,0.308 1.61,0.524 0.832,0.202 1.246,0.257 1.9,0.257 0.726,0 1.493,0.113 1.76,0.256 0.206,0.113 0.538,0.418 0.613,0.565 0.096,0.189 0.103,0.363 0.018,0.322 a 2.802,2.802 0 0 0 -0.405,-0.048 c -0.273,-0.017 -0.366,-0.037 -0.445,-0.096 -0.147,-0.106 -0.27,-0.126 -0.339,-0.058 -0.03,0.031 -0.055,0.076 -0.055,0.1 0,0.03 -0.068,0.051 -0.191,0.065 -0.165,0.017 -0.22,0.007 -0.38,-0.072 -0.158,-0.079 -0.189,-0.086 -0.22,-0.041 a 0.145,0.145 0 0 0 -0.017,0.106 c 0.01,0.044 -0.044,0.068 -0.257,0.113 -0.318,0.068 -0.414,0.04 -0.657,-0.182 -0.082,-0.078 -0.178,-0.14 -0.209,-0.14 -0.103,0 -0.062,0.154 0.086,0.322 0.078,0.089 0.137,0.164 0.13,0.171 -0.024,0.014 -0.5,0.123 -0.552,0.123 -0.082,0 -0.28,-0.191 -0.482,-0.465 l -0.247,-0.34 -0.051,-0.068 -0.055,0.069 a 0.218,0.218 0 0 0 -0.034,0.16 c 0.02,0.1 0.26,0.507 0.373,0.634 0.038,0.045 0.062,0.086 0.051,0.096 -0.007,0.01 -0.178,0.027 -0.373,0.038 L 32.423,24.218 32.3,24.081 c -0.155,-0.172 -0.473,-0.798 -0.497,-0.987 a 2.12,2.12 0 0 0 -0.034,-0.185 c -0.028,-0.082 -0.106,0.024 -0.15,0.199 -0.039,0.158 -0.032,0.182 0.13,0.613 0.092,0.25 0.157,0.452 0.14,0.452 -0.151,0 -0.384,-0.096 -0.524,-0.22 -0.137,-0.119 -0.178,-0.187 -0.281,-0.465 -0.1,-0.274 -0.12,-0.377 -0.13,-0.65 -0.01,-0.377 -0.031,-0.442 -0.124,-0.36 -0.143,0.13 -0.198,0.657 -0.106,0.983 0.08,0.27 0.055,0.287 -0.164,0.126 -0.216,-0.154 -0.284,-0.335 -0.301,-0.8 -0.014,-0.254 0,-0.463 0.034,-0.645 0.055,-0.284 0.03,-0.346 -0.082,-0.243 -0.192,0.171 -0.353,0.733 -0.315,1.082 0.01,0.072 0.003,0.13 -0.014,0.13 -0.055,0 -0.178,-0.226 -0.27,-0.496 a 1.522,1.522 0 0 1 -0.09,-0.6 c 0,-0.195 0.024,-0.393 0.055,-0.496 0.072,-0.226 0.069,-0.291 -0.01,-0.291 -0.13,0 -0.264,0.212 -0.34,0.534 a 6.476,6.476 0 0 0 -0.085,0.39 l -0.01,0.086 -0.041,-0.096 c -0.14,-0.332 -0.134,-0.983 0.01,-1.322 0.106,-0.253 0.106,-0.277 0.004,-0.277 -0.096,0 -0.268,0.182 -0.35,0.37 L 28.7,21.04 28.618,20.868 a 0.95,0.95 0 0 1 -0.079,-0.243 c -0.003,-0.126 0.09,-0.38 0.196,-0.537 0.054,-0.086 0.113,-0.189 0.126,-0.23 0.024,-0.072 0.018,-0.075 -0.072,-0.055 a 0.766,0.766 0 0 0 -0.253,0.178 0.95,0.95 0 0 1 -0.181,0.151 c -0.038,0 -0.028,-0.49 0.013,-0.685 a 0.74,0.74 0 0 1 0.137,-0.29 c 0.113,-0.131 0.124,-0.179 0.041,-0.196 -0.051,-0.01 -0.037,-0.038 0.065,-0.144 0.072,-0.068 0.144,-0.12 0.161,-0.106 0.02,0.01 0.069,0.127 0.107,0.253 z m -4.5,4.942 c 0.096,0.1 0.191,0.223 0.212,0.274 0.02,0.055 0.055,0.096 0.072,0.096 0.065,0 0.65,0.907 0.61,0.945 -0.01,0.01 -0.038,-0.014 -0.059,-0.055 a 1.578,1.578 0 0 0 -0.16,-0.209 C 24.951,24.844 24.91,24.824 24.8,24.824 c -0.075,0 -0.134,0.01 -0.134,0.02 0,0.01 0.038,0.065 0.086,0.124 0.147,0.174 0.363,0.571 0.47,0.863 l 0.098,0.277 -0.089,-0.096 c -0.085,-0.092 -0.222,-0.127 -0.222,-0.058 0,0.02 0.03,0.13 0.072,0.25 0.082,0.243 0.154,1.027 0.106,1.154 l -0.03,0.082 -0.039,-0.072 c -0.065,-0.12 -0.14,-0.181 -0.198,-0.157 -0.045,0.017 -0.052,0.051 -0.034,0.16 0.01,0.08 0.034,0.24 0.05,0.36 0.045,0.295 0.015,0.551 -0.068,0.551 -0.048,0 -0.065,0.042 -0.082,0.23 -0.03,0.363 -0.085,0.695 -0.14,0.897 -0.062,0.216 -0.315,0.733 -0.421,0.86 l -0.072,0.085 0.02,-0.308 c 0.01,-0.171 0.024,-0.325 0.031,-0.35 0.02,-0.057 -0.075,-1.297 -0.12,-1.56 -0.04,-0.254 0.028,-0.672 0.158,-0.997 0.044,-0.113 0.082,-0.24 0.082,-0.285 0,-0.126 -0.117,-0.095 -0.253,0.066 l -0.124,0.147 0.02,-0.12 c 0.011,-0.065 0.073,-0.274 0.138,-0.462 0.102,-0.302 0.11,-0.346 0.065,-0.39 -0.045,-0.045 -0.069,-0.032 -0.206,0.109 -0.085,0.089 -0.154,0.14 -0.154,0.116 0,-0.116 0.113,-0.397 0.254,-0.644 0.181,-0.308 0.198,-0.407 0.075,-0.407 -0.12,0 -0.377,0.27 -0.517,0.544 -0.127,0.24 -0.127,0.192 0,-0.219 0.041,-0.133 0.154,-0.36 0.25,-0.51 0.185,-0.28 0.22,-0.397 0.12,-0.397 -0.09,0.003 -0.367,0.215 -0.476,0.366 a 5.013,5.013 0 0 1 -0.12,0.161 c -0.017,0.017 -0.004,-0.068 0.024,-0.188 0.058,-0.243 0.195,-0.51 0.394,-0.764 0.147,-0.181 0.157,-0.22 0.085,-0.246 -0.15,-0.059 -0.561,0.28 -0.719,0.592 a 0.442,0.442 0 0 1 -0.068,0.113 c -0.024,0 0.048,-0.312 0.096,-0.4 0.137,-0.264 0.42,-0.497 0.688,-0.562 0.243,-0.059 0.301,-0.041 0.483,0.147 z"
       id="path92"
       inkscape:connector-curvature="0" />
    <path
       d="m 22.81,8.28 c -0.174,0.113 -0.198,0.14 -0.253,0.312 -0.03,0.092 -0.041,0.102 -0.045,0.04 -0.003,-0.04 -0.013,-0.075 -0.027,-0.075 -0.075,0.004 -0.24,0.35 -0.274,0.572 -0.014,0.096 -0.007,0.113 0.055,0.113 h 0.1 c 0.013,0 0.037,-0.048 0.05,-0.11 0.048,-0.184 0.305,-0.578 0.435,-0.674 a 1.74,1.74 0 0 1 0.268,-0.154 c 0.078,-0.038 0.143,-0.079 0.143,-0.096 0,-0.014 -0.065,-0.027 -0.147,-0.027 A 0.553,0.553 0 0 0 22.81,8.28 Z m 1.476,-0.017 a 0.315,0.315 0 0 0 0.13,0.072 c 0.199,0.048 0.73,0.575 0.83,0.822 0.098,0.253 0.246,0.085 0.17,-0.196 -0.075,-0.29 -0.702,-0.746 -1.024,-0.746 -0.12,0 -0.137,0.007 -0.106,0.048 z m -0.77,0.722 c -0.14,0.059 -0.257,0.22 -0.367,0.497 -0.12,0.308 -0.16,0.565 -0.16,1.02 0,0.744 0.263,1.483 0.595,1.675 0.065,0.038 0.274,0.034 0.439,-0.01 0.089,-0.024 0.284,-0.463 0.42,-0.939 0.107,-0.363 0.124,-0.462 0.11,-0.667 A 2.5,2.5 0 0 0 24.122,9.283 C 23.927,8.985 23.738,8.89 23.516,8.985 Z m 2.684,2.267 c -0.147,0.158 -0.68,0.942 -0.743,1.1 -0.058,0.137 -0.006,0.219 0.093,0.157 0.147,-0.092 0.863,-1.202 0.863,-1.339 0,-0.082 -0.086,-0.048 -0.212,0.082 z m -4.65,0.552 c 0,0.072 0.14,0.431 0.25,0.64 0.041,0.075 0.069,0.165 0.062,0.199 -0.01,0.085 0.099,0.116 0.154,0.04 0.082,-0.109 0.051,-0.256 -0.106,-0.544 A 4.285,4.285 0 0 0 21.708,11.8 C 21.646,11.725 21.55,11.725 21.55,11.804 Z m -0.548,0.068 c 0,0.072 0.195,0.404 0.325,0.558 0.048,0.059 0.086,0.134 0.086,0.172 0,0.044 0.024,0.065 0.082,0.065 0.048,0 0.093,-0.014 0.106,-0.035 0.035,-0.054 -0.075,-0.263 -0.29,-0.547 -0.203,-0.268 -0.309,-0.34 -0.309,-0.213 z m 3.065,2.648 c -0.014,0.017 0.014,0.106 0.058,0.195 0.572,1.116 0.863,1.667 0.918,1.729 0.038,0.038 0.069,0.086 0.069,0.103 0,0.048 0.178,0.263 0.202,0.246 0.03,-0.017 -0.137,-0.561 -0.274,-0.89 a 12.624,12.624 0 0 1 -0.23,-0.634 c -0.11,-0.328 -0.147,-0.4 -0.222,-0.438 a 0.39,0.39 0 0 1 -0.148,-0.15 c -0.034,-0.07 -0.065,-0.093 -0.078,-0.066 -0.018,0.028 -0.052,0.01 -0.107,-0.048 -0.085,-0.092 -0.154,-0.11 -0.188,-0.048 z m -0.887,0.335 c -0.085,0.15 -0.178,0.288 -0.202,0.301 -0.062,0.038 -0.27,0.404 -0.366,0.644 -0.09,0.223 -0.363,0.726 -0.432,0.798 -0.055,0.051 -0.096,0.178 -0.068,0.206 0.013,0.01 0.037,0.003 0.058,-0.018 0.02,-0.02 0.062,-0.03 0.086,-0.02 0.068,0.027 0.147,-0.069 0.308,-0.377 0.078,-0.154 0.16,-0.28 0.185,-0.28 0.051,0 0.14,-0.12 0.116,-0.162 -0.01,-0.013 0.09,-0.208 0.22,-0.431 0.263,-0.445 0.417,-0.74 0.417,-0.795 0,-0.048 -0.086,-0.137 -0.13,-0.137 -0.02,0 -0.106,0.124 -0.192,0.271 z m -0.88,0.473 c -0.068,0.123 -0.243,0.328 -0.466,0.544 -0.191,0.192 -0.352,0.37 -0.352,0.397 0,0.028 -0.062,0.1 -0.137,0.161 -0.076,0.058 -0.137,0.13 -0.137,0.158 0,0.027 0.058,0.065 0.126,0.082 0.11,0.03 0.151,0.024 0.336,-0.065 0.188,-0.09 0.226,-0.127 0.373,-0.367 0.093,-0.147 0.21,-0.328 0.264,-0.407 0.1,-0.144 0.28,-0.527 0.26,-0.551 -0.007,-0.007 -0.04,0.02 -0.075,0.058 -0.055,0.061 -0.154,0.096 -0.154,0.055 0,-0.01 0.03,-0.072 0.072,-0.137 0.04,-0.069 0.054,-0.124 0.034,-0.124 -0.02,0 -0.086,0.09 -0.144,0.196 z m 5.551,0.006 c -0.209,0.113 -0.305,0.278 -0.16,0.278 0.023,0 0.057,0.034 0.075,0.075 0.027,0.062 0.058,0.075 0.133,0.069 0.123,-0.014 0.373,-0.189 0.432,-0.302 0.051,-0.092 0.02,-0.15 -0.042,-0.089 a 0.163,0.163 0 0 1 -0.106,0.041 c -0.048,0 -0.058,-0.017 -0.04,-0.068 0.016,-0.058 0.006,-0.069 -0.076,-0.069 a 0.664,0.664 0 0 0 -0.216,0.065 z M 25.3,15.715 a 0.778,0.778 0 0 0 0.079,0.267 c 0.04,0.065 0.044,0.085 0.01,0.11 -0.038,0.02 -0.034,0.057 0.01,0.194 0.058,0.175 0.14,0.237 0.473,0.367 0.137,0.055 0.37,0.02 0.37,-0.055 0,-0.02 -0.062,-0.096 -0.137,-0.164 -0.076,-0.069 -0.137,-0.148 -0.137,-0.175 0,-0.027 -0.154,-0.202 -0.346,-0.39 l -0.346,-0.343 z m -2.863,1.205 c -0.144,0.28 -0.243,0.623 -0.253,0.873 -0.004,0.137 -0.007,0.25 0,0.25 0.072,0 0.455,-1.157 0.41,-1.233 -0.04,-0.065 -0.085,-0.034 -0.157,0.11 z m 0.151,1.722 c -0.23,0.26 -0.281,0.36 -0.285,0.548 0,0.08 -0.017,0.158 -0.04,0.182 -0.08,0.079 0,0.079 0.14,0 0.15,-0.086 0.448,-0.47 0.448,-0.579 0,-0.034 0.028,-0.103 0.059,-0.16 0.03,-0.056 0.048,-0.124 0.034,-0.155 -0.041,-0.113 -0.154,-0.058 -0.356,0.164 z"
       id="path94"
       inkscape:connector-curvature="0" />
  </g>
  <path
     d="m 24,0.35 c -5.83,0 -10.52,1.12 -13.93,3.33 -4.1,2.66 -6.27,6.9 -6.27,12.27 0,7.23 5.8,16.88 7.58,19.67 a 54.48,54.48 0 0 0 6.25,8.16 c 2.54,2.64 4.57,3.87 6.37,3.87 1.8,0 3.83,-1.23 6.37,-3.87 2,-2.08 4.22,-4.97 6.25,-8.16 C 38.4,32.83 44.2,23.18 44.2,15.95 44.2,10.58 42.04,6.34 37.94,3.68 34.52,1.47 29.84,0.35 24,0.35 Z m 0,0.14 c 2.11,0.09 4.12,0.27 5.88,0.7 1.16,0.27 2.25,0.62 3.26,1.03 1.01,0.42 1.94,0.9 2.8,1.46 A 12.92,12.92 0 0 1 40.6,8.8 c 0.53,1.03 0.92,2.15 1.2,3.34 0.26,1.2 0.4,2.47 0.4,3.8 0,1.82 -0.37,3.77 -0.94,5.74 a 43.19,43.19 0 0 1 -2.2,5.77 69.59,69.59 0 0 1 -4.45,8.17 54.47,54.47 0 0 1 -6.25,8.16 17.98,17.98 0 0 1 -3.46,2.93 c -0.32,0.2 -0.62,0.3 -0.91,0.39 -0.3,-0.08 -0.6,-0.2 -0.9,-0.4 -1.06,-0.63 -2.2,-1.6 -3.47,-2.92 -2,-2.08 -4.22,-4.97 -6.25,-8.16 A 69.6,69.6 0 0 1 8.91,27.45 43.19,43.19 0 0 1 6.72,21.68 20.93,20.93 0 0 1 5.79,15.95 c 0,-1.34 0.13,-2.61 0.4,-3.8 C 6.46,10.96 6.86,9.83 7.39,8.8 A 12.92,12.92 0 0 1 12.06,3.68 C 12.91,3.12 13.84,2.64 14.86,2.22 15.88,1.8 16.96,1.46 18.12,1.18 19.88,0.76 21.89,0.58 24,0.5 Z"
     id="path98"
     inkscape:connector-curvature="0"
     style="opacity:0.25" />
</svg>
