<svg xmlns="http://www.w3.org/2000/svg" xmlns:xlink="http://www.w3.org/1999/xlink" width="48" height="48" viewBox="0 0 12.7 12.7"><defs><linearGradient id="a"><stop offset="0" stop-color="#599ba9"/><stop offset=".5" stop-color="#67a4b0"/><stop offset=".52" stop-color="#599ba9"/><stop offset="1" stop-color="#67a4b0"/></linearGradient><linearGradient xlink:href="#a" id="h" gradientUnits="userSpaceOnUse" gradientTransform="translate(-50.57 102.06) scale(.26458)" x1="215.14" y1="-335.93" x2="215.14" y2="-397.93"/><linearGradient xlink:href="#a" id="g" gradientUnits="userSpaceOnUse" gradientTransform="translate(-50.57 102.06) scale(.26458)" x1="215.14" y1="-335.93" x2="215.14" y2="-397.93"/><linearGradient xlink:href="#a" id="f" gradientUnits="userSpaceOnUse" gradientTransform="translate(-50.57 102.06) scale(.26458)" x1="215.14" y1="-335.93" x2="215.14" y2="-397.93"/><linearGradient xlink:href="#a" id="e" gradientUnits="userSpaceOnUse" gradientTransform="translate(-50.57 102.06) scale(.26458)" x1="215.14" y1="-335.93" x2="215.14" y2="-397.93"/><linearGradient xlink:href="#a" id="d" gradientUnits="userSpaceOnUse" gradientTransform="translate(-50.57 102.06) scale(.26458)" x1="215.14" y1="-335.93" x2="215.14" y2="-397.93"/><linearGradient id="b"><stop offset="0" stop-color="#aa668a"/><stop offset=".5" stop-color="#b27494"/><stop offset=".52" stop-color="#aa668a"/><stop offset="1" stop-color="#b27494"/></linearGradient><linearGradient xlink:href="#b" id="F" gradientUnits="userSpaceOnUse" gradientTransform="translate(-198.53 58.67) scale(.15273)" x1="1295.19" y1="-335.93" x2="1295.19" y2="-397.93"/><linearGradient xlink:href="#b" id="E" gradientUnits="userSpaceOnUse" gradientTransform="translate(-198.53 58.67) scale(.15273)" x1="1295.19" y1="-335.93" x2="1295.19" y2="-397.93"/><linearGradient xlink:href="#b" id="D" gradientUnits="userSpaceOnUse" gradientTransform="translate(-198.53 58.67) scale(.15273)" x1="1295.19" y1="-335.93" x2="1295.19" y2="-397.93"/><linearGradient xlink:href="#b" id="C" gradientUnits="userSpaceOnUse" gradientTransform="translate(-198.53 58.67) scale(.15273)" x1="1295.19" y1="-335.93" x2="1295.19" y2="-397.93"/><linearGradient xlink:href="#b" id="B" gradientUnits="userSpaceOnUse" gradientTransform="translate(-198.53 58.67) scale(.15273)" x1="1295.19" y1="-335.93" x2="1295.19" y2="-397.93"/><linearGradient xlink:href="#b" id="A" gradientUnits="userSpaceOnUse" gradientTransform="translate(-198.53 58.67) scale(.15273)" x1="1295.19" y1="-335.93" x2="1295.19" y2="-397.93"/><linearGradient xlink:href="#b" id="z" gradientUnits="userSpaceOnUse" gradientTransform="translate(-198.53 58.67) scale(.15273)" x1="1295.19" y1="-335.93" x2="1295.19" y2="-397.93"/><linearGradient xlink:href="#b" id="y" gradientUnits="userSpaceOnUse" gradientTransform="translate(-198.53 58.67) scale(.15273)" x1="1295.19" y1="-335.93" x2="1295.19" y2="-397.93"/><linearGradient xlink:href="#b" id="x" gradientUnits="userSpaceOnUse" gradientTransform="translate(-198.53 58.67) scale(.15273)" x1="1295.19" y1="-335.93" x2="1295.19" y2="-397.93"/><linearGradient xlink:href="#b" id="w" gradientUnits="userSpaceOnUse" gradientTransform="translate(-198.53 58.67) scale(.15273)" x1="1295.19" y1="-335.93" x2="1295.19" y2="-397.93"/><linearGradient xlink:href="#b" id="v" gradientUnits="userSpaceOnUse" gradientTransform="translate(-198.53 58.67) scale(.15273)" x1="1295.19" y1="-335.93" x2="1295.19" y2="-397.93"/><linearGradient xlink:href="#b" id="u" gradientUnits="userSpaceOnUse" gradientTransform="translate(-198.53 58.67) scale(.15273)" x1="1295.19" y1="-335.93" x2="1295.19" y2="-397.93"/><linearGradient xlink:href="#b" id="t" gradientUnits="userSpaceOnUse" gradientTransform="translate(-198.53 58.67) scale(.15273)" x1="1295.19" y1="-335.93" x2="1295.19" y2="-397.93"/><linearGradient xlink:href="#b" id="s" gradientUnits="userSpaceOnUse" gradientTransform="translate(-198.53 58.67) scale(.15273)" x1="1295.19" y1="-335.93" x2="1295.19" y2="-397.93"/><linearGradient xlink:href="#b" id="r" gradientUnits="userSpaceOnUse" gradientTransform="translate(-198.53 58.67) scale(.15273)" x1="1295.19" y1="-335.93" x2="1295.19" y2="-397.93"/><linearGradient xlink:href="#b" id="q" gradientUnits="userSpaceOnUse" gradientTransform="translate(-198.53 58.67) scale(.15273)" x1="1295.19" y1="-335.93" x2="1295.19" y2="-397.93"/><linearGradient xlink:href="#b" id="p" gradientUnits="userSpaceOnUse" gradientTransform="translate(-198.53 58.67) scale(.15273)" x1="1295.19" y1="-335.93" x2="1295.19" y2="-397.93"/><linearGradient xlink:href="#b" id="o" gradientUnits="userSpaceOnUse" gradientTransform="translate(-198.53 58.67) scale(.15273)" x1="1295.19" y1="-335.93" x2="1295.19" y2="-397.93"/><linearGradient xlink:href="#b" id="n" gradientUnits="userSpaceOnUse" gradientTransform="translate(-198.53 58.67) scale(.15273)" x1="1295.19" y1="-335.93" x2="1295.19" y2="-397.93"/><linearGradient xlink:href="#b" id="m" gradientUnits="userSpaceOnUse" gradientTransform="translate(-198.53 58.67) scale(.15273)" x1="1295.19" y1="-335.93" x2="1295.19" y2="-397.93"/><linearGradient xlink:href="#b" id="l" gradientUnits="userSpaceOnUse" gradientTransform="translate(-198.53 58.67) scale(.15273)" x1="1295.19" y1="-335.93" x2="1295.19" y2="-397.93"/><linearGradient xlink:href="#b" id="k" gradientUnits="userSpaceOnUse" gradientTransform="translate(-198.53 58.67) scale(.15273)" x1="1295.19" y1="-335.93" x2="1295.19" y2="-397.93"/><linearGradient xlink:href="#b" id="j" gradientUnits="userSpaceOnUse" gradientTransform="translate(-198.53 58.67) scale(.15273)" x1="1295.19" y1="-335.93" x2="1295.19" y2="-397.93"/><linearGradient xlink:href="#b" id="i" gradientUnits="userSpaceOnUse" gradientTransform="translate(-198.53 58.67) scale(.15273)" x1="1295.19" y1="-335.93" x2="1295.19" y2="-397.93"/><linearGradient x1="48.92" y1="110.21" x2="32.67" y2="88" id="c" gradientUnits="userSpaceOnUse" gradientTransform="translate(0 -64)"><stop offset="0" stop-color="#c6744e"/><stop offset=".5" stop-color="#d6855f"/><stop offset=".52" stop-color="#c6744e"/><stop offset="1" stop-color="#d6855f"/></linearGradient><linearGradient x1="6072.46" y1="128" x2="6072.46" y2="66" id="I" xlink:href="#c" gradientUnits="userSpaceOnUse" gradientTransform="translate(-1600.04 -16.01) scale(.26458)"/><linearGradient xlink:href="#c" id="G" gradientUnits="userSpaceOnUse" gradientTransform="translate(-1600.04 -16.01) scale(.26458)" x1="6072.46" y1="128" x2="6072.46" y2="66"/><linearGradient xlink:href="#c" id="H" gradientUnits="userSpaceOnUse" gradientTransform="translate(-1600.04 -16.01) scale(.26458)" x1="6072.46" y1="128" x2="6072.46" y2="66"/><linearGradient xlink:href="#c" id="J" gradientUnits="userSpaceOnUse" gradientTransform="translate(-1604.66 -21.58) scale(.26458)" x1="6072.46" y1="128" x2="6072.46" y2="66"/></defs><path d="M6.72-.01h-.47V0C4.71 0 3.48.3 2.56.89a3.67 3.67 0 0 0-1.65 2.9V4.18c.01.72.26 1.52.56 2.3.06.07.1.19.17.24.15.14.3.22.48.26.17.03.34.02.53-.01.18-.04.37-.1.56-.17.38-.14.77-.31 1.16-.39.19-.04.38-.05.56-.02.19.02.36.1.53.22a.42.42 0 0 1 .19.36c0 .14-.06.28-.16.44-.2.32-.77.6-1.13.96-.36.36-.65.6-.87.93a.91.91 0 0 0-.17.43c0 .07.18.33.2.4l.4.51c.22.27.44.63.65.84.68.7 1.2 1.03 1.69 1.03s1-.33 1.69-1.03A15.2 15.2 0 0 0 9.6 9.33c.47-.74 2-3.3 2-5.2 0-1.43-.57-2.55-1.65-3.26A6.75 6.75 0 0 0 6.72 0zM6.67.7a.46.46 0 0 1 .25.07c.29.2.28.7 0 1.13-.3.43-.79.63-1.08.44-.29-.2-.28-.72.01-1.15.15-.22.35-.37.54-.45a.67.67 0 0 1 .28-.04zm-2.7.59c.35.02.6.46.56.98-.04.52-.35.93-.7.9-.34-.02-.6-.46-.56-.98.02-.26.1-.5.22-.67a.58.58 0 0 1 .49-.23zm4.97.4h.16a.5.5 0 0 1 .33.2c.21.28.03.75-.39 1.06-.42.3-.93.33-1.14.05-.2-.28-.02-.75.4-1.06.2-.16.44-.24.64-.25zm1.37 1.72a.94.94 0 0 1 .15.02c.2.04.38.15.44.31.13.32-.16.75-.64.95-.48.2-.98.1-1.12-.22-.13-.32.16-.75.64-.95.18-.08.36-.11.53-.1zM6.78 8.64c.35-.02.67.1.85.34.32.45.1 1.16-.5 1.59-.6.42-1.34.4-1.66-.04-.32-.44-.1-1.16.5-1.59a1.65 1.65 0 0 1 .82-.3z" fill="#4d4d4d"/><path d="M6.82.08a6.75 6.75 0 0 0-.47.01V.1C4.81.1 3.57.39 2.66.97A3.67 3.67 0 0 0 1 3.87v.41c.02.72.26 1.52.56 2.29.06.07.11.2.17.25.15.14.31.21.48.25.17.03.35.03.53 0 .18-.04.37-.1.56-.17.38-.14.78-.32 1.16-.4.2-.03.38-.05.57-.02.18.03.36.1.53.23a.42.42 0 0 1 .19.36.9.9 0 0 1-.17.44c-.2.32-.77.6-1.13.96s-.65.6-.86.92a.91.91 0 0 0-.17.43c0 .07.18.33.2.4l.4.52c.21.27.44.63.64.84.68.7 1.21 1.03 1.69 1.03s1.01-.33 1.69-1.03a15.2 15.2 0 0 0 1.65-2.15c.47-.74 2-3.3 2-5.21 0-1.42-.57-2.54-1.65-3.25A6.75 6.75 0 0 0 6.82.08zM6.75.8A.46.46 0 0 1 7 .88c.3.19.29.7 0 1.13-.3.43-.78.63-1.07.43-.29-.19-.28-.71 0-1.15.15-.21.35-.36.54-.44A.67.67 0 0 1 6.75.8zm-2.69.6c.35.02.59.45.55.97-.04.52-.34.93-.7.9-.34-.02-.6-.46-.56-.98.02-.26.1-.5.23-.66a.58.58 0 0 1 .48-.24zm4.97.4c.05-.01.11-.02.16 0a.5.5 0 0 1 .33.2c.2.27.02.74-.4 1.05-.42.31-.93.33-1.13.06-.21-.28-.03-.75.4-1.06.2-.16.43-.25.64-.26zm1.36 1.72a.94.94 0 0 1 .16.01c.2.04.37.16.44.32.13.32-.16.75-.64.95-.48.2-.99.1-1.12-.23-.14-.32.15-.75.63-.95.18-.07.37-.1.53-.1zM6.88 8.74c.35-.03.67.09.85.34.32.44.1 1.16-.5 1.58-.6.43-1.35.4-1.67-.04-.32-.44-.09-1.15.5-1.58a1.65 1.65 0 0 1 .82-.3z" fill="#333"/><path d="M9.19 4.36c-.04 0-.07.05-.12.02-.09-.02-.18.12-.22.1-.06 0-.16-.05-.2 0-.01.01-.18.13-.23.11-.04-.02-.04-.13-.05-.16 0-.01.1-.24-.3-.46a.34.34 0 0 0-.18-.05c-.16.01-.27.15-.33.12l-.05.1c-.01-.01-.03 0-.05.02-.03.06-.06.2-.07.22.03.06.08.35.17.4a.12.12 0 0 0 .02 0c.03.01.05.07.1.1h.04l.05.04c.02-.04.45.01.46 0 .05-.1-.02-.13.01-.18.03-.06.1-.08.18-.06-.02.03-.05.08-.01.1-.06.1-.23.3-.3.3l-.06.12c-.02-.01-.09.06-.1.08-.02.04-.02.06-.01.11 0 0 .09.27 0 .42 0 0 0 .02-.02.03.3.17-.13.54.12.68.06.03.2-.04.28 0 .01.02 0 .06.18.47-.04.04-.08.03-.1.07-.1 0-.14.15-.2.23.03.02 0 .07-.01.1l.04.2-.03.01c.01.02.16.2.15.22l.13.05c.03.01.06.07.1.09.01 0 .12 0 .13-.02l.09.07c0-.02.01-.02.02-.01l.03-.06c-.02-.01-.02 0-.01-.02.06-.12.17 0 .21-.08.03-.04 0-.03.01-.06s.04-.04.06-.06v-.08l.04-.05s0-.23-.04-.3c.04-.03.06-.02.09-.03.04-.07.24-.11.26-.14l.01-.07c.02-.03.07-.02.1 0 .09.05.1.15.22.21l.02.01c.03.01.04.15.1.18v.01c0 .1.08.2.17.27.02-.03.04.02.07.01a.1.1 0 0 0 .04-.04c.04-.07.06-.3-.1-.38-.11-.06-.07-.22-.14-.32.08-.13.24-.08.26-.11.05-.1.32.06.42-.12.12-.23-.14-.47-.12-.52.04-.07.14-.15.15-.14l.06-.09c.03.02.08-.01.1-.06l.03-.04c0-.01.02 0 .03-.03.08-.15-.05-.24-.17-.3-.24-.14-.18-.24-.25-.36l.1-.2c-.06-.06-.06-.13-.05-.22h-.02s-.02-.03 0-.04c-.04-.01-.05 0-.07 0l-.08.03c-.24.1-.49.12-.7.08a.7.7 0 0 1-.26-.1.46.46 0 0 1-.2-.42z" style="marker:none" color="#000" overflow="visible" fill="teal"/><path d="M4.66 11.58c.34.35.64.6.92.78.28.17.53.25.77.25s.5-.08.77-.25c.28-.17.58-.43.92-.78a15.2 15.2 0 0 0 1.65-2.15c.13-.2.4-.76.64-1.18-.03-.03-.06-.04-.06-.1l-.08-.08c0-.07.2-.24.2-.27 0-.04-.03-.04-.03-.04-.06.04-.13.08-.2.08-.2 0-.4-.51-.4-.51.03-.17.1-.3.1-.44 0-.04-.07-.08-.1-.08-.14.38-.21.58-.35.58-.47 0-.3-.58-.6-.58 0 .1.03.18.03.24 0 .14-.55.34-.55.38 0 0-.24-.28-.37-.31 0 .07.13.27.27.34-.03.07-.03.1-.1.1-.1 0-.24-.2-.38-.2-.1 0-.1.06-.16.1.03.13.13.24.13.34 0 .34-.3.31-.3.35-.52 0-.45-.45-.59-.45-.07 0-.16.03-.16.1 0 .17.3.1.3.24-.13 0-.27-.1-.34-.1l-.14.03c.04.2.31.04.31.3-.07.28-.95.86-1.05.86l-.1.23c0 .05.03.08.04.12l.04-.07a1.65 1.65 0 0 1 1.19-.67c.17-.01.34.01.49.07a.79.79 0 0 1 .36.27c.08.1.12.24.14.37.01.14 0 .28-.05.43-.05.14-.12.28-.22.42a1.72 1.72 0 0 1-.84.6 1.42 1.42 0 0 1-.47.07 1.05 1.05 0 0 1-.41-.1c-.03 0-.04-.03-.07-.05l-.03.07-.14-.03c0 .2-.17.38-.17.44-.03 0-.03 0-.07-.03 0 .17-.27.2-.34.2-.1 0-.2-.03-.24-.03-.1 0-.13.07-.16.14z" style="line-height:125%;-inkscape-font-specification:'WC Rhesus A Bta';marker:none" color="#000" font-weight="400" font-size="105.67" font-family="WC Rhesus A Bta" letter-spacing="0" word-spacing="0" overflow="visible" fill="#ff7f2a"/><path d="M4.86.48L4.82.5c-.03.01-.08.06-.05.16l.05.1c.04.13-.03.1-.03.15h-.1v.02a.12.12 0 0 0 .04.05c0 .04-.04.06-.06.07-.04 0-.02-.05-.08-.04l-.01.04h.01c.03.11-.03.07-.03.1-.1.03-.14-.04-.22-.02.06.05.14.05.16.12.01.04-.04.2-.1.3l.08.16c.07.13.13.31.15.49.05 0 0 .09.06.08.14.02.27-.07.35.06.02.02.06.02.09 0 .13-.03.14-.13.2-.15.1-.03.16.06.2.04.04 0 .14-.05.2-.07-.02-.05-.01-.13-.01-.19 0-.2.08-.41.2-.62a.67.67 0 0 0-.3-.16C5.4 1.14 5.5.9 5.33.95 5.24.96 5.13.79 5.12.8V.8c0-.02-.04-.06-.05-.08l-.1-.12C4.92.59 4.93.48 4.85.48zm1.05.64a.09.09 0 0 0-.02 0c-.03.01-.03.03-.03.04.01.04.03.03.04.05.03 0 .03-.03.06-.04-.02-.03-.02-.05-.04-.05z" style="marker:none" color="#000" overflow="visible" fill="#d35fbc"/><path d="M4.19 3.2c.01.01.03.02.03.04 0 .04.07.11.1.12h.04c.04 0 .07.02.11.03.2.04.28-.21.3-.28.02-.13-.15-.23-.15-.25l-.1-.06a1.23 1.23 0 0 1-.14.23.69.69 0 0 1-.2.17zm-1.33.5l-.01.02c-.01.07.01.15.07.2H2.9c0 .05.06.1.06.13v.02c-.02.08.02.13 0 .2 0 .01-.02.05-.03.04l-.05-.02c-.01 0-.12.07-.17.06-.02.01-.02.03-.05.03-.02-.04-.13-.14-.13-.14h-.05l-.03-.03h-.06l-.03-.02c-.05-.01-.04.09-.12.07-.02 0-.02 0-.01-.01l-.04-.01h-.02a.22.22 0 0 0 0 .08c-.01 0-.07.04-.07.06 0 .02.02.06.01.08 0 .03-.02.05-.03.08l.04.17.02-.01.08.1c.02 0 .06.01.06.04.07 0 .15.04.19 0 .03 0 .04-.03.08-.03.12.26.16.27.15.28 0 .06-.1.1-.1.15-.04.18.32.12.27.34h.03c.1.02.2.17.2.17.02.03.04.04.07.04l.07-.01.08.01c.03-.03.2-.03.28-.01 0 .02.03.03.05.03-.02.05-.06.07-.1.06-.04 0-.03-.05-.1-.06 0 0-.16.22-.19.22v.04l-.01.02v.1c-.02.06.1.2.12.25l.14.06c.02 0 .03 0 .03-.02l.07.02c.01-.06.2-.04.25-.23.05-.28-.1-.32-.1-.33-.01-.02-.07-.07-.06-.1 0-.03.13-.06.15-.06.03 0 .06-.06.08-.1 0-.03.11-.01.14-.06.01-.07.05-.1.12-.11.07-.01.05-.23.16-.2l.06-.07c.01-.05-.04-.08-.04-.09 0-.09.12-.13.14-.22 0-.03-.06-.12-.07-.12 0-.02.02-.03.03-.05l-.02-.02v-.01c-.04-.03-.08-.06-.08-.13l-.14-.02c-.03-.09-.11-.1-.08-.27.02-.09.04-.19-.07-.21h-.03-.02c-.04-.01-.08 0-.08.02l-.06-.01c0 .01-.09.03-.13.02-.04-.01-.05-.24-.21-.27-.13-.03-.17.16-.24.15-.03 0-.07.1-.16.08-.02-.07-.12-.11-.1-.2.02-.08-.05-.15-.1-.18z" style="marker:none" color="#000" overflow="visible" fill="#333"/><path d="M6.79 11.61c-.03.04-.06.1 0 .13h.05l.02-.01c.03-.05-.02-.09-.07-.12zm-.21-.52c-.05.03-.1.05-.14.11-.05.1.05.2.08.21.07.04.13.03.17 0l.03-.05c.03-.06.01-.13 0-.2zm.88-.06H7.4c-.09.03-.13.08-.17.15-.11.19.08.33.18.39a.23.23 0 0 0 .24-.02.34.34 0 0 0 .09-.1c.02-.04-.02-.27-.1-.33l-.1-.07a.12.12 0 0 0-.07-.02zM8.66 9c-.1.01-.17.06-.23.16-.1.17 0 .4.17.48a.34.34 0 0 0 .34-.03.35.35 0 0 0 .1-.1c-.02 0-.02-.03 0-.05 0-.02 0-.03.02-.04-.02 0 .07-.23-.13-.34A.51.51 0 0 0 8.65 9zM7.5 1.94c-.06 0-.15.05-.17.1-.02.04 0 .13.04.17.08.04.16.03.22-.02a.2.2 0 0 0 .05-.06c.02-.05-.01-.15-.09-.19a.08.08 0 0 0-.05 0z" style="marker:none" color="#000" overflow="visible" fill="teal"/><path d="M5.48.83a.07.07 0 0 0-.04.03c-.03.04-.03 0-.06.06-.06.1-.06.2.07.28a.15.15 0 0 0 .18-.02.3.3 0 0 0 .06-.09c.08-.13-.08-.2-.05-.24-.04 0-.11-.03-.16-.02z" style="marker:none" color="#000" overflow="visible" fill="#c83737"/><path d="M3.96 9c-.12.12-.28.25-.37.39-.04.07-.04.12-.07.18.1.03.22.03.26.05.24.14.02.4.14.58h.13c.1.05.02.19.06.2.04.03 0 0 .05.02l.02-.07h.04c.15.08.32.23.43.29-.02.02.05.26.09.29l.03-.07c-.01-.04-.08-.15-.05-.2.04-.06.19.07.24-.03.06-.1-.02-.23.06-.37 0-.02.08-.07.09-.07.03-.05.16-.27.12-.3 0-.02.04-.03.05-.04l-.01-.03.05-.1c-.02 0-.03-.02-.01-.04.02-.06-.2-.3-.14-.4 0-.01.08-.05.12-.1v-.02a.73.73 0 0 0-.16-.03c-.04.02-.56.03-.6.01v-.01c-.04-.03-.05.01-.1 0-.16-.03-.22 0-.35-.07-.02 0-.02-.03-.05-.05h-.04zm1.68 1.86a.3.3 0 0 0-.24.15l-.07.17-.04.06c-.02.04-.02.2.03.23.06.03-.07.13.26.31.07.04.14.03.22.05.02.01.3-.16.3-.15a2.01 2.01 0 0 1 .08-.32c-.02-.01.04-.3-.16-.41a.72.72 0 0 0-.38-.1zM1.02 3.68a1.95 1.95 0 0 0-.01.2L1 4.21v.06c.01.25.07.52.13.8.15.02.36-.19.55-.09.1.06.14.16.18.18.01 0 .05 0 .08-.02a.08.08 0 0 0 .02-.02c.05-.09-.01-.11.04-.2.1-.18.18.03.28-.1-.04-.04-.02-.1.02-.18.06 0 .1 0 .14-.05-.08-.05-.02-.29-.05-.3l.1-.13c.02-.04-.04-.12-.1-.16.01.01-.2-.27-.23-.42l-.18-.08c.02-.04-.27-.2-.37-.27-.02.03-.07 0-.1-.01a1 1 0 0 0-.27.18c-.03.05-.04.13-.06.17-.02.03-.1.06-.16.1zM9.4.64a5.99 5.99 0 0 0-.91-.32 5 5 0 0 0-.35-.08L8.08.23c-.07.09-.14.13-.2.22 0 .15.06.17 0 .28 0 .1.15.09.17.19.02.09.02.24.08.28l.05.03c.1.08.2.12.29.19.29.16.08-.2.55.07.03.01.05.03.04.04.13.04.13-.06.22-.06a.4.4 0 0 0 .06-.03c.06-.02.08-.06.14-.12-.04-.04-.03-.14-.05-.2V.98l.03-.02L9.5.9c.01-.02 0-.08-.04-.12a.85.85 0 0 0 0-.1z" style="marker:none" color="#000" overflow="visible" fill="teal"/><path d="M5.14 2.07a.16.16 0 0 0-.11.11c-.02.07-.02.23.12.25.05.01.1.01.14-.02.02-.03.04-.05.04-.08l.02-.08c0-.07-.1-.17-.12-.18a.23.23 0 0 0-.1 0zm-.41.31H4.7c-.01 0-.02.01-.02.03 0 .04.03.05.06.05.01-.04.01-.07-.02-.08zm.08.22c-.03 0-.06.03-.07.08 0 .02 0 .11.07.12.05.01.08 0 .11-.02l.03-.1c-.03-.03-.06-.07-.1-.08a.09.09 0 0 0-.04 0zm.42.49h-.05a.22.22 0 0 0-.14.16c-.03.11.04.25.16.28.14.03.22-.08.25-.22s-.12-.19-.12-.2H5.3l-.03-.02a.21.21 0 0 0-.04 0zm3.22 1.2a.42.42 0 0 0-.07.01c-.1.03-.14.09-.15.09l-.02-.01c-.02 0-.08-.02-.08 0v.05c0 .04-.16.05-.19.05-.03.01-.02.05-.05.05-.02.17.05.32.05.32l-.05.16c.02 0 .04.05.03.1 0 .04-.04.12-.09.13v.02c0 .04-.18.13-.19.17.02 0 .06.04.05.06 0 .02-.04.03-.1.03h.07c.01 0 .03.03.03.06-.02.1-.21.07-.24.1l.06.02c.06.01.13 0 .2.02 0 .04-.02.04-.03.07v.04c.13 0 .21-.08.41-.04.03 0 .05.08.1.1h.1l.2.06c.3.06.4-.17.4-.19.02-.06.02-.13-.04-.18.02-.1-.27-.1-.25-.2 0-.03 0-.03.04-.03.1.02.07-.17.22-.17l.02-.13c0-.02.01-.04.03-.04.02 0 .08-.12.16-.1a.22.22 0 0 0 .04-.08s-.01-.04-.05-.04h-.04c-.18-.04-.18-.3-.17-.3 0-.01-.07-.12-.13-.13l-.09-.02-.02-.02h-.07l-.02-.03a.54.54 0 0 0-.07 0z" style="marker:none" color="#000" overflow="visible" fill="#333"/><path d="M8.54 3.27c-.03.07-.12.13-.12.19.46.73.23.54.8.8a.8.8 0 0 1 .1-.2c.11-.18.3-.34.55-.44l.24-.1V3.4c-.1 0-.37-.64-.68-.64-.03 0-.04.06-.07.07a1.14 1.14 0 0 1-.82.45z" style="marker:none" color="#000" overflow="visible" fill="#668000"/><path d="M8.12 5.93c-.05 0-.09.05-.1.12-.02.1.1.13.09.15h.09c-.04.09-.1.1-.1.12-.01.03 0 .05 0 .07-.01.01-.06.06-.08.06-.02.1.05.13.03.22 0 .04-.04.03-.05.06l.01.04h.03c.05.01.05.04.04.07v.03c-.01.03.26.12.25.16 0 .01-.03.03-.03.05.04.01.02-.07.14-.05.16.03.12.11.18.13l.02.01c.08.02.14-.05.16-.05l.04.03.12-.14c.04-.04.1 0 .1-.03l-.01-.08.02-.04-.01-.02c0-.02.03-.04.03-.07v-.1s.09-.1.12-.16c-.04-.01 0-.12-.03-.12 0-.02-.04-.03-.05-.05h-.02a.28.28 0 0 0-.09-.17h-.08s-.08-.07-.08-.1c-.08 0-.19 0-.22.06L8.6 6.1c-.05 0-.04.01-.07 0-.04 0-.03-.03-.07-.08h-.04v.01l-.02.05c-.01.05-.08.05-.12.04.01-.08.02-.17-.1-.2h-.06zm2.3-3.77a.11.11 0 0 0-.1.1c0 .03.04.08.07.09.04 0 .14-.04.14-.07.02-.05-.02-.12-.06-.12a.12.12 0 0 0-.05 0zm-.4 4.06v.02-.02zm-.36.04a.1.1 0 0 0-.07.07c-.04 0-.02.06-.05.06-.01.1.04.16.15.18.1.02.14-.06.15-.12-.02 0 .01-.14-.14-.2a.1.1 0 0 0-.04 0zM7.69 7.35c-.05 0-.05.02-.07.06h.07v-.06zm1.7 0a.1.1 0 0 0-.08.08c-.02.1.04.14.11.16h.06c.05 0 .07-.08.08-.1-.03-.01 0-.11-.1-.13a.18.18 0 0 0-.06 0zm-1.05 0a.02.02 0 0 0-.01.02l.03-.01a.06.06 0 0 0-.02 0zm-1.82-.28c-.1 0-.04.12-.16.1-.07-.02-.06-.06-.12-.07a.05.05 0 0 0-.02 0c-.02 0-.04.03-.04.04 0 .03.03.08.02.16-.03.14-.28.14-.3.26-.01.02.02.16.08.19-.02.08 0 .19-.01.28.05.02.1.06.16.07l.17.02.11.13c.03 0 .04-.04.07-.06.04-.04.16-.06.2-.06l.1.04a.65.65 0 0 0 .2-.06c.02-.01.02-.05.04-.05 0-.08.06-.3.03-.3l.03-.12c-.06-.07-.11-.3-.11-.28 0-.05-.01-.11-.04-.12h-.1c0-.02-.14-.1-.12-.15-.04 0-.07.02-.09.05-.06-.02-.09-.03-.1-.07zm3.65-4.43a.1.1 0 0 0-.08.08c-.01.05.03.1.08.12h.03l.07-.1c0-.04-.02-.09-.04-.1h-.06zm-2.5 5.75v.01a.09.09 0 0 0-.03.05c0 .02.03.05.05.05.04 0 .05-.04.06-.07l-.06-.03h-.01z" style="marker:none" color="#000" overflow="visible" fill="#333"/><path d="M9.84 2.4a.05.05 0 0 0-.01.02v.02h.01a.1.1 0 0 0 .04-.03.04.04 0 0 0-.04 0z" style="marker:none" color="#000" overflow="visible" fill="url(#d)"/><path d="M7.46 4.1c-.04 0-.04.02-.06.04 0 0 .03 0 .02.01l-.01.01h.05V4.1z" style="marker:none" color="#000" overflow="visible" fill="url(#e)"/><path d="M11.22 5.23l-.18.15h.04l.14-.15z" style="marker:none" color="#000" overflow="visible" fill="url(#f)"/><path d="M8.98 5.52c-.04 0-.05.02-.09.07l.08.05h.02l.03-.03c.04-.08-.02-.05 0-.09h-.04z" style="marker:none" color="#000" overflow="visible" fill="url(#g)"/><path d="M8.95 6.62c-.01.04 0 .05.04.08.03-.04.03-.05.02-.06l-.06-.02z" style="marker:none" color="#000" overflow="visible" fill="url(#h)"/><path d="M5 6.55h-.03l.01.04h.03c0-.03-.01-.04-.02-.04z" style="marker:none" color="#000" overflow="visible" fill="url(#i)"/><path d="M1.9 6.28c-.02 0-.02.03-.02.04h.02s.04-.02.03-.04H1.9z" style="marker:none" color="#000" overflow="visible" fill="url(#j)"/><path d="M3.18 6.23c-.01 0-.02 0-.02.02a.04.04 0 0 0 .02 0h.02c0-.02 0-.03-.02-.02z" style="marker:none" color="#000" overflow="visible" fill="url(#k)"/><path d="M3.18 6.06c-.03 0-.01.04-.01.04h.02s.02 0 .01-.02c0-.02-.02-.02-.02-.02z" style="marker:none" color="#000" overflow="visible" fill="url(#l)"/><path d="M4.16 5.98L4.1 6c-.02 0-.07.03-.06.08l.02.03c.02.03.05.05.08.04.08-.02.08-.07.07-.11-.01-.04-.03-.05-.05-.06z" style="marker:none" color="#000" overflow="visible" fill="url(#m)"/><path d="M3.98 5.75c-.08.03-.12.13-.1.22l.02.01c.02.02.08.04.13.03.04-.01.06-.04.08-.06.02-.04.03-.06.02-.1-.03-.1-.09-.08-.15-.1z" style="marker:none" color="#000" overflow="visible" fill="url(#n)"/><path d="M7.79 5.6c-.05 0-.08.02-.07.04a.1.1 0 0 0 .02.03h.02a.06.06 0 0 0 .03 0v-.02l.01-.04-.01-.02z" style="marker:none" color="#000" overflow="visible" fill="url(#o)"/><path d="M2.91 5.5a.87.87 0 0 0-.1.03c.02.04-.04.04-.03.09.05 0 .06.12.17.1.08-.03.06-.07.08-.11-.02-.1-.04-.12-.12-.1z" style="marker:none" color="#000" overflow="visible" fill="url(#p)"/><path d="M7.05 5.33a.1.1 0 0 0-.02 0c-.03 0-.03.06-.07.07l.05.08c.01.02.04.02.08 0s.04-.06.07-.08c0 0-.04-.07-.1-.07z" style="marker:none" color="#000" overflow="visible" fill="url(#q)"/><path d="M1.73 5.32c-.02 0-.02.02-.03.04h.03c.03 0 .03-.01.02-.03h-.02z" style="marker:none" color="#000" overflow="visible" fill="url(#r)"/><path d="M2.35 4.91c-.01.03-.03.04-.02.06a.06.06 0 0 0 .01.03c.02.02.06.03.08.03 0 0 0-.02.02-.02.01-.02.02-.04.01-.06 0-.03-.05-.04-.1-.04zm.25.02h-.05c-.04.02-.05.04-.03.08a.04.04 0 0 0 0 .02.08.08 0 0 0 .08.02l.02-.02c.03-.02.03-.03.02-.05 0-.03 0-.05-.04-.05zm-.5.1h-.04c-.02 0 .01.02 0 .03h-.08c-.01.03-.05.05-.05.07h-.06c.02 0 .02.02.03.03l-.05.1s.02.01.02.03c0 .02 0 .03-.03.05l.04.08s-.02.01-.02.04a.05.05 0 0 0 .03-.03c.04.05.08.1.2.1V5.5c.1-.1.3-.1.25-.28-.05-.16-.13-.11-.16-.19h-.02c-.01.01-.04 0-.07-.02zm.78.23l-.03.02c0 .02.01.03.02.03h.04-.01l.02-.01-.04-.04z" style="marker:none" color="#000" overflow="visible" fill="#d35fbc"/><path d="M3.04 4.84c-.03.02-.03.03-.02.05h.01c.01 0 .02-.02.01-.05z" style="marker:none" color="#000" overflow="visible" fill="url(#s)"/><path d="M3.32 4.78l-.06.02c0 .01.02.06.03.05.05-.01.05 0 .03-.07z" style="marker:none" color="#000" overflow="visible" fill="url(#t)"/><path d="M1.32 4.55a.77.77 0 0 1-.14.19v.18c.02 0 .02.02.03.04-.01.02 0 .05 0 .07.01.02 0 .05-.03.09v.1a.04.04 0 0 0 .02 0c.03-.01.07-.07.1-.08.04-.01.08.02.11.01.06-.01.22-.13.22-.13h.04l.02-.07c.04-.02.04-.08.05-.09h-.02c0-.05.03 0 0-.1-.02-.06-.08-.1-.09-.1l.01-.03a1.25 1.25 0 0 0-.32-.08zm.4.01a.21.21 0 0 0-.03 0c0 .03.02.03.03.06.01-.02.04-.03.03-.05h-.03zm.4.14h-.03a.16.16 0 0 0-.1.21c.07-.02.06.06.16.03.07-.02.07-.07.1-.11-.01-.07-.05-.12-.12-.12l-.02-.01zm5.57.06l-.08.02c-.01.03-.08.1-.06.13a.1.1 0 0 0 .02.04c.02.03.06.03.1.06.12-.04.14-.12.12-.19 0 0 0-.02-.03-.03a.07.07 0 0 0-.07-.03z" style="marker:none" color="#000" overflow="visible" fill="#0b1728"/><path d="M6.07 3.8v.03l.01.02c.02 0 .04-.01.03-.03 0-.03-.02-.03-.04-.03zm1.19 0v.04s.04-.01.03-.02c0-.02 0-.04-.03-.03z" style="marker:none" color="#000" overflow="visible" fill="url(#u)"/><path d="M1.85 3.72H1.8l.02.04h.01c.01 0 .03-.02.03-.04h-.02z" style="marker:none" color="#000" overflow="visible" fill="url(#v)"/><path d="M2.02 3.46c-.02 0-.08.02-.07.06a.07.07 0 0 0 .02.03.05.05 0 0 0 .03.02c.04-.02.07-.04.06-.09l-.04-.02z" style="marker:none" color="#000" overflow="visible" fill="url(#w)"/><path d="M1.36 3.08a.15.15 0 0 0-.07 0 .24.24 0 0 0-.1.06v.24c.06.07.2.04.21.04.03 0 .08-.07.1-.08.02-.02.04-.09.02-.13-.02-.08-.1-.12-.16-.13zm1.15.1l-.02.02c-.02 0-.04-.02-.12 0-.18.05-.2.22-.2.22a.37.37 0 0 0 .07.15v-.02s.06.14.27.1v-.02a.1.1 0 0 0 .06 0c.08-.03.1-.17.11-.22v-.03a.46.46 0 0 0-.1-.13l.01-.02-.08-.04zm3.64.22c-.03.01-.05.02-.05.04l.03.02c.02-.02.04-.03.03-.04l-.01-.02z" style="marker:none" color="#000" overflow="visible" fill="#d35fbc"/><path d="M1.55 3.05v.04a.05.05 0 0 0 .04 0s0-.02-.04-.04z" style="marker:none" color="#000" overflow="visible" fill="url(#x)"/><path d="M7.23 2.81s-.05.05-.04.07a.05.05 0 0 0 .01.02l.07.04c.05-.03.07-.04.05-.11-.02-.02-.06-.03-.09-.02z" style="marker:none" color="#000" overflow="visible" fill="url(#y)"/><path d="M5.98 2.76c-.02 0-.04.03-.04.04l.03.03H6s.03-.02.02-.04c0-.03 0-.01-.03-.03z" style="marker:none" color="#000" overflow="visible" fill="#c83737"/><path d="M7.21 2.71c-.02.02-.02.04-.02.06h-.01l.02.03a.03.03 0 0 0 .03 0s.03-.03.02-.06c0-.02-.04-.03-.04-.03z" style="marker:none" color="#000" overflow="visible" fill="url(#z)"/><path d="M6.83 2.45a.14.14 0 0 0-.06 0c-.18.06-.13.2-.13.22 0 .02.02.03.03.05.03.05.1.07.18.05 0 0 .1-.04.1-.09.01-.06.04-.03 0-.14 0-.04-.06-.08-.12-.09z" style="marker:none" color="#000" overflow="visible" fill="#c83737"/><path d="M2.45 1.87c-.02 0-.01 0-.03.02l.01.03h.05V1.9c0-.03 0-.03-.03-.02zm.4-.54H2.8c-.14.05-.2.19-.2.21a.55.55 0 0 0 .1.13v.03c.04.04.14.03.14.03.24-.07.21-.15.17-.31a.23.23 0 0 0-.17-.09zm.52.1c-.07.03-.1.05-.08.14l.02.02v.01l.06.03c.05-.02.12-.07.1-.14-.02-.02-.07-.06-.1-.05z" style="marker:none" color="#000" overflow="visible" fill="#d35fbc"/><path d="M4.3 1.3c-.02 0-.03.01-.02.02h.03c0-.02 0-.03-.02-.02z" style="marker:none" color="#000" overflow="visible" fill="url(#A)"/><path d="M4.33 1.21c-.01.02-.1.07-.1.07h.09l.03-.03v-.02l-.02-.02z" style="marker:none" color="#000" overflow="visible" fill="url(#B)"/><path d="M4.13 1l-.03.03.01.02a.05.05 0 0 0 .03 0z" style="marker:none" color="#000" overflow="visible" fill="url(#C)"/><path d="M4.6.82l-.03.03.02.02.04.02c0-.02.02-.02.02-.06H4.6z" style="marker:none" color="#000" overflow="visible" fill="url(#D)"/><path d="M3.83.71c-.02 0-.01.02-.02.03l.02.05h.06C3.87.76 3.85.7 3.82.72z" style="marker:none" color="#000" overflow="visible" fill="#d35fbc"/><path d="M4.97 6.14v.01z" style="marker:none" color="#000" overflow="visible" fill="url(#E)"/><path d="M4.51 2.65l.01-.01v-.01.02z" style="marker:none" color="#000" overflow="visible" fill="url(#F)"/><path d="M5.72 1.96H5.7c-.03.01-.04.07-.1.08v.01c-.01.02-.28 0-.28 0l-.02.08c-.02.02-.16.03-.22.14.02 0 .02.01.02.02l-.02.02c-.04.08.1.11-.02.34-.1.16-.19.05-.22.11.03.02.08.01.1.02.06.03-.1.43-.06.45l.04.03c.03.02.07.06.04.12l-.03.04s0 .03.04.05c.05.03.05-.04.11 0 .13.07.1.18.22.25.04-.02.14-.03.17-.02.02.02.04.05.08.07.03.01.1-.06.23-.02l-.07.12c.02.01-.03.15.05.23h-.08c-.13 0-.34.04-.48.3-.07.12-.12.28-.14.3L5 4.83c-.04.07.03.18 0 .22-.14.28-.33.3-.46.43.03.02-.03.02.04.05.04.03.06.02.11.04-.05.1-.13.17-.18.26a.34.34 0 0 0-.03.1c.07-.01.22-.27.36-.2.05.03.05.08.04.1a.41.41 0 0 1-.06.08c.05-.06.1-.1.13-.09.03.02.03.1.02.12.06.04.34-.1.4-.06l.02.03c.06-.05.19-.01.25.02.06.04.1.1.09.14l.23.1s.12.24.34.38c.02-.03.07.02.1-.02.04-.03.2-.2.25-.16.02 0 .04.03.05.04.04.02.07-.06.1-.08v-.04c.01 0 .12.01.26-.1a.78.78 0 0 0 .15-.15c-.02-.01-.01-.04 0-.05l.06-.08v-.05l.06-.12c.04-.07-.02-.26-.02-.27-.01 0-.32-.27-.18-.5l.03-.07c.03-.05 0-.1 0-.1a.36.36 0 0 0-.13-.03c-.06.12-.27.06-.29.09 0 .02-.04 0-.07-.01l-.18-.11c-.14.18-.34-.06-.42.08-.03.05-.04.05-.08.03-.12-.07.15-.42.03-.49a.24.24 0 0 0-.1-.18.18.18 0 0 0 .13-.04.27.27 0 0 0 .06-.08c.1-.16-.03-.25-.14-.31.03-.07.1-.14.17-.1l.07.04h.02l.04-.07c-.03-.09-.06-.1-.04-.15.03-.05.05-.02.09-.08l.01-.06c.1 0 .21-.12.3-.22-.04-.02-.04-.19-.04-.19l.07-.1a.45.45 0 0 0-.11-.29c0-.01.01-.02.02-.01-.02-.03.02-.07 0-.1l-.01-.02c-.03.01-.06.06-.09.07a.72.72 0 0 1-.28.06.46.46 0 0 1-.25-.08.45.45 0 0 1-.16-.2.71.71 0 0 1-.05-.28zm4.67 1.56z" style="marker:none" color="#000" overflow="visible" fill="teal"/><path d="M3.4 2.51c-.27.08-.48.1-.36.53.03.11-.11.41-.15.42-.02-.04-.04-.05-.07-.04-.02 0-.03.02-.05.03.01.05.06.06.07.07a.11.11 0 0 0 .05-.03c0 .04-.07.19-.06.22l.02.01c-.02.15 0 .2 0 .22a.06.06 0 0 0-.01.02l.01.01h-.01c-.01 0-.01.05-.03.06l.01.02-.28.16c-.02.01-.04.02-.04 0l-.01.01-.22-.15v-.01c-.1.03-.3.05-.3.05-.07.02-.1.05-.07.16a.26.26 0 0 0 .06.12c.08.08.2.04.34.1 0 0 0 .04.04.03.5.02.23.18.85.15-.01-.02-.04-.1-.11-.07l-.03.02-.06-.03a.06.06 0 0 0-.02.01c-.1 0-.34-.04-.36-.12 0-.03.3-.2.35-.22.05-.01.26.2.27.24v.07c.03.08.16.04.19.13a.45.45 0 0 1-.04.25l.02.01c-.03.05-.08.12-.07.15 0 .03.07.04.1.03s.01.01.06 0c.02.09-.03.01-.03.1l.03.01.19-.18a.4.4 0 0 0 .15-.02c.03 0 .03-.02.05-.02.07-.02.1.05.16.03.09-.03.07-.1.14-.13h.04l.03.16s-.03-.15.02-.17c.05 0 .03.05.06.04.03-.01.1-.13.11-.16v-.01c0-.01.05-.1.05-.14.03 0 .06.02.08.04.02.05-.02.08-.01.12 0 .03.04.04.05.08-.06.02-.15.04-.13.13 0 .02.06.03.08.02l.05-.03c.05-.01.1.03.12.08.02.05.01.07-.03.1.07.12.13.09.14.13.02.08-.06.09-.05.12l-.08.01c0 .03-.05.06-.08.07-.06.02-.08 0-.13 0 .02.04.07.06.08.09.03.1-.12.18-.14.19l-.04.02s-.02.05-.04.06c.06.19.24.03.28.15.01.05.3.08.33.11.04-.02.2-.2.22-.2v-.02c-.08-.29.38-.46.38-.47h-.03c.24-.07.29-.33.28-.37.03-.11.14-.18.14-.2l-.02.01v-.05l-.03-.06.02-.2c-.01-.04-.01-.04-.05-.04 0-.02-.01-.05-.04-.05v-.06a.33.33 0 0 1-.08-.05c0-.02.02-.05.01-.06-.02 0-.21-.11-.23-.17l.01-.01c-.03-.1-.23-.15-.25-.15-.38.11-.23.22-.41.27-.04.01-.05-.02-.1 0-.08.02-.14.25-.2.28l-.01-.03c-.03-.1.13-.31.14-.31h.04c-.02 0-.02-.01-.02-.02-.04-.15.17-.43.15-.48l.03-.05h.15a.18.18 0 0 1 .11-.08c.04-.02.1-.04.11-.01.08-.02.14-.08.16-.31l-.02-.02v-.1c-.1-.35-.5-.31-.66-.3 0-.02-.12.17-.2.2-.05.01-.04-.06-.07-.14-.03.05-.1.1-.12.14a.69.69 0 0 1-.21.19.45.45 0 0 1-.25.06.46.46 0 0 1-.24-.1.7.7 0 0 1-.19-.21 1.16 1.16 0 0 1-.16-.44zm2.66.35v.03h.02l.03-.01-.05-.02zm.4.06c-.03.01-.03.03-.05.04 0 .01 0 .03.02.04h.03c.03-.01.03-.01.03-.05l-.03-.03zm-.3 1.57c-.02 0-.03.02-.02.03l.01.03c.03 0 .04-.02.04-.04l-.02-.02z" style="marker:none" color="#000" overflow="visible" fill="#d35fbc"/><path d="M6.2 2.52c-.03 0-.05 0-.04.06 0 .02.01.02.02.03 0 .03-.02.06 0 .1a.1.1 0 0 0 .03.05c.06.05.17.08.2.07.21-.06.16-.25.14-.31-.02 0-.06-.03-.1-.06a.72.72 0 0 1-.26.06z" style="marker:none" color="#000" overflow="visible" fill="#c83737"/><path d="M2.19 1.36l-.15.12a3.67 3.67 0 0 0-.5.63c-.07.12-.11.25-.17.37.06.02.09.05.1.04.24-.06.11-.33.2-.36h.07c.1-.04.1-.26.14-.27h.02c.2-.05.22-.29.26-.36-.02-.1.02-.13.03-.17zM6.3.1l-.43.01c0 .08-.04.21-.05.29 0 .01.1.1.12.1l.01.08c.03 0 .05-.02.06-.03.04 0 .08.04.12.03.37-.1.23-.32.26-.36C6.37.16 6.34.14 6.3.1z" style="marker:none" color="#000" overflow="visible" fill="#d35fbc"/><path d="M6.72 3.15c0 .04 0 .1.03.1h.04c0-.07 0-.06-.07-.1z" style="line-height:125%;-inkscape-font-specification:'WC Rhesus A Bta';marker:none" color="#000" font-weight="400" font-size="105.67" font-family="WC Rhesus A Bta" letter-spacing="0" word-spacing="0" overflow="visible" fill="url(#G)"/><path d="M7.1 3.25l-.04.08c.03 0 .03.03.03.06 0 .07-.1.13-.14.13-.03 0-.06-.1-.13-.1v.07l-.17-.03c0 .03-.04.03-.07.03h-.07c.04.07.04.14.04.2-.04-.02-.07-.02-.13-.02.03.06.06.1.06.13s-.07.04-.14.1c-.07.07 0 .14-.13.14 0 0 0 .03.03.03 0 0 .03-.03.07-.03-.1.3-.34.1-.34.24 0 .1.27.16.34.16l.03-.03.1.07c0 .06 0 .13-.02.2.37 0 .16.14.4.14l.13-.04c.03 0 .08 0 .08.03.03-.03.1-.03.16-.03 0 .07 0 .08.04.08v-.11c.06 0 .14 0 .17.03.1-.4.13-.47.16-.47l.05.03v-.1c0-.06-.05-.13-.05-.2.04-.04.11-.1.11-.18a.33.33 0 0 0-.17.05c0-.07 0-.21-.07-.21l.04-.24c-.1 0-.07.14-.1.17-.07 0-.18-.04-.18-.14v-.1c-.03-.03-.1-.1-.1-.14z" style="line-height:125%;-inkscape-font-specification:'WC Rhesus A Bta';marker:none" color="#000" font-weight="400" font-size="105.67" font-family="WC Rhesus A Bta" letter-spacing="0" word-spacing="0" overflow="visible" fill="#ff7f2a"/><path d="M8.42 3.46c-.04 0-.04.1-.04.14 0 .07.04.07.07.07s.1 0 .14-.04c-.03-.1-.04-.17-.17-.17z" style="line-height:125%;-inkscape-font-specification:'WC Rhesus A Bta';marker:none" color="#000" font-weight="400" font-size="105.67" font-family="WC Rhesus A Bta" letter-spacing="0" word-spacing="0" overflow="visible" fill="url(#H)"/><path d="M5.87 4.92c.03.04.03.03.07.03 0 0 0-.03-.07-.03z" style="line-height:125%;-inkscape-font-specification:'WC Rhesus A Bta';marker:none" color="#000" font-weight="400" font-size="105.67" font-family="WC Rhesus A Bta" letter-spacing="0" word-spacing="0" overflow="visible" fill="url(#I)"/><path d="M5.76 1.22c-.03.03-.03.03-.03.06s0 .04.14.04c-.04-.07-.07-.07-.1-.1z" style="line-height:125%;-inkscape-font-specification:'WC Rhesus A Bta';marker:none" color="#000" font-weight="400" font-size="105.67" font-family="WC Rhesus A Bta" letter-spacing="0" word-spacing="0" overflow="visible" fill="url(#J)"/><path d="M5.6 2.77c-.18 0-.25.2-.25.3 0 .07.03.15.1.18 0 .07.2.07.3.07.08 0 .21-.18.21-.24 0-.17-.2-.31-.37-.31z" style="line-height:125%;-inkscape-font-specification:'WC Rhesus A Bta';marker:none" color="#000" font-weight="400" font-size="105.67" font-family="WC Rhesus A Bta" letter-spacing="0" word-spacing="0" overflow="visible" fill="#ff7f2a"/><path d="M7.99.6c-.2-.01-.38.06-.44.1.02.03-.2.22-.2.23-.14.1-.13.64-.1.68.23.46.68.35.7.35l.02-.02.03.03c.13-.08.56-.38.47-.55a.86.86 0 0 1 .07-.2c.02-.04 0-.08-.02-.12-.03-.05-.08-.1-.1-.09C8.37.93 8.35.86 8.3.78 8.24.65 8.1.6 7.99.6zM2.53 2.05a.35.35 0 0 0-.16.04c-.19.1-.33.37-.23.54l.04.04-.02.03c.1.13.27.2.32.28a.3.3 0 0 1 .01.21c.04.08.1.1.16.08.1-.06.1-.35.21-.44a.39.39 0 0 0 .11-.5.52.52 0 0 0-.44-.28zm4.2 4.58a.27.27 0 0 0-.13.03c-.15.08-.25.24-.17.4.12.23.4.15.4.17.17-.13.23-.35.21-.34-.07-.13-.17-.25-.3-.26zM2.79 5.28a.37.37 0 0 0-.17.04c-.3.15-.33.24-.24.6 0 0 .26.37.55.22.23-.13.37-.4.24-.63-.06-.12-.15-.18-.31-.23a.36.36 0 0 0-.07 0z" style="line-height:125%;-inkscape-font-specification:'WC Rhesus A Bta';marker:none" color="#000" font-weight="400" font-size="40" font-family="WC Rhesus A Bta" letter-spacing="0" word-spacing="0" overflow="visible" fill="#fd5"/></svg>