<svg xmlns="http://www.w3.org/2000/svg" xmlns:xlink="http://www.w3.org/1999/xlink" viewBox="0 0 48 48"><defs><linearGradient id="b"><stop offset="0" stop-color="#939dac"/><stop offset=".24" stop-color="#dbdee3"/><stop offset=".5" stop-color="#b7bec8"/><stop offset=".79" stop-color="#dbdee3"/><stop offset="1" stop-color="#939dac"/></linearGradient><linearGradient id="a"><stop offset="0"/><stop offset="1" stop-opacity="0"/></linearGradient><linearGradient gradientTransform="matrix(3.77953 0 0 3.77953 -.3 .11)" xlink:href="#c" id="d" x1="5.09" y1="12.59" x2="5.38" y2="-.11" gradientUnits="userSpaceOnUse"/><linearGradient id="c"><stop offset="0" stop-color="#80b3ff"/><stop offset=".4" stop-color="#3771c8"/><stop offset="1" stop-color="#025"/></linearGradient></defs><path d="M23.7.49c-5.82 0-10.5 1.1-13.95 3.29a13.87 13.87 0 0 0-6.27 12.28c0 7.22 5.82 16.9 7.6 19.66a55.85 55.85 0 0 0 6.23 8.16c2.57 2.64 4.58 3.9 6.39 3.9 1.81 0 3.82-1.26 6.39-3.9a57.45 57.45 0 0 0 6.23-8.13c1.78-2.8 7.56-12.47 7.56-19.69 0-5.37-2.15-9.6-6.23-12.28A25.51 25.51 0 0 0 23.7.45z" fill="url(#d)"/><path d="M3.64 14.88c-.03.42-.13.79-.13 1.22 0 7.22 5.8 16.88 7.58 19.67a54.47 54.47 0 0 0 6.25 8.16c2.54 2.64 4.57 3.87 6.37 3.87 1.8 0 3.83-1.23 6.37-3.87 2-2.08 4.22-4.98 6.25-8.16 1.78-2.79 7.59-12.45 7.59-19.67 0-.43-.1-.8-.13-1.22a21.6 21.6 0 0 1-.81 4.95 43.18 43.18 0 0 1-2.19 5.77 69.59 69.59 0 0 1-4.46 8.17 54.46 54.46 0 0 1-6.25 8.16 18.08 18.08 0 0 1-3.46 2.93c-1.05.64-2 .94-2.9.94-.91 0-1.87-.3-2.92-.94a18.08 18.08 0 0 1-3.46-2.93c-2-2.08-4.21-4.98-6.25-8.16a69.6 69.6 0 0 1-4.46-8.17 43.2 43.2 0 0 1-2.19-5.77 21.6 21.6 0 0 1-.8-4.95z" opacity=".4"/><path d="M23.69 1.56c-5.33 0-9.61 1.02-12.74 3.05C7.19 7.04 5.2 10.93 5.2 15.85c0 6.6 5.3 15.45 6.94 18a49.86 49.86 0 0 0 5.72 7.48c2.32 2.41 4.18 3.54 5.83 3.54 1.65 0 3.5-1.13 5.83-3.54a49.89 49.89 0 0 0 5.72-7.47c1.63-2.56 6.95-11.4 6.95-18.01 0-4.92-1.99-8.8-5.74-11.23-3.12-2.04-7.4-3.06-12.76-3.06zm0 .92c2.5 0 4.74.24 6.73.72a16.2 16.2 0 0 1 5.17 2.17 11.15 11.15 0 0 1 3.99 4.42c.45.89.8 1.85 1.02 2.89.23 1.03.34 2.13.34 3.29 0 1.56-.3 3.25-.8 4.95-.48 1.7-1.15 3.4-1.87 4.98a60.6 60.6 0 0 1-3.8 7.06 47 47 0 0 1-5.34 7.05 15.36 15.36 0 0 1-2.96 2.53c-.9.55-1.71.82-2.48.82s-1.58-.27-2.48-.82c-.9-.55-1.87-1.39-2.96-2.53a46.5 47.06 0 0 1-2.67-3.19 46.5 47.06 0 0 1-2.66-3.86c-.76-1.2-2.38-3.9-3.8-7.06a37.6 37.6 0 0 1-1.88-4.98c-.48-1.7-.8-3.4-.8-4.95 0-1.16.12-2.26.35-3.3.23-1.03.57-2 1.02-2.89a11.2 11.2 0 0 1 4-4.42 16.3 16.3 0 0 1 5.17-2.16c1.99-.47 4.23-.71 6.72-.71v-.01z" fill="#fff"/><path d="M24.33 9.46c-2.45.08 6.53 12.47-.39 11.68 5.77 1.6 7.1-5.85 5.91-9.49-1.16-3.6-1.77-1.35-5.25-2.16l-.27-.03zm-6.87 1.73c-3.8 0-1.84 1.27-3.68 4.33-1.75 2.92 13.86-2.31 10.88 4.22 3.3-4.99-3.37-8.55-7.2-8.55zm2.67 5.6c-3.04-.01-6.1 3.43-6.94 6.05-1.18 3.6.63 2.14 2.98 4.83 2.23 2.57 2.08-13.9 7.38-9.04-1.05-1.31-2.24-1.84-3.42-1.85zm13.03.58c-2.04.2-9.51 9.69-10.77 3.53.27 5.98 7.76 4.93 10.86 2.69 3.07-2.23.74-2.11.42-5.66-.03-.43-.21-.59-.5-.56zm-11.01 1.98c-5.6 2.1-2.3 8.9.8 11.15 3.06 2.23 2.23.05 5.51-1.34 3.14-1.33-12.57-6.28-6.31-9.81z" fill="#fff" fill-rule="evenodd"/></svg>