<?xml version="1.0" encoding="UTF-8" standalone="no"?>
<svg
   xmlns:dc="http://purl.org/dc/elements/1.1/"
   xmlns:cc="http://creativecommons.org/ns#"
   xmlns:rdf="http://www.w3.org/1999/02/22-rdf-syntax-ns#"
   xmlns:svg="http://www.w3.org/2000/svg"
   xmlns="http://www.w3.org/2000/svg"
   xmlns:xlink="http://www.w3.org/1999/xlink"
   xmlns:sodipodi="http://sodipodi.sourceforge.net/DTD/sodipodi-0.dtd"
   xmlns:inkscape="http://www.inkscape.org/namespaces/inkscape"
   viewBox="0 0 48 48"
   version="1.1"
   id="svg36"
   sodipodi:docname="distributor-logo-chakra.svg"
   inkscape:version="0.92.4 (5da689c313, 2019-01-14)">
  <metadata
     id="metadata40">
    <rdf:RDF>
      <cc:Work
         rdf:about="">
        <dc:format>image/svg+xml</dc:format>
        <dc:type
           rdf:resource="http://purl.org/dc/dcmitype/StillImage" />
        <dc:title></dc:title>
      </cc:Work>
    </rdf:RDF>
  </metadata>
  <sodipodi:namedview
     pagecolor="#ffffff"
     bordercolor="#666666"
     borderopacity="1"
     objecttolerance="10"
     gridtolerance="10"
     guidetolerance="10"
     inkscape:pageopacity="0"
     inkscape:pageshadow="2"
     inkscape:window-width="1112"
     inkscape:window-height="480"
     id="namedview38"
     showgrid="false"
     inkscape:zoom="4.9166667"
     inkscape:cx="2.1355932"
     inkscape:cy="24"
     inkscape:window-x="0"
     inkscape:window-y="25"
     inkscape:window-maximized="0"
     inkscape:current-layer="svg36" />
  <defs
     id="defs26">
    <linearGradient
       id="b">
      <stop
         offset="0"
         stop-color="#939dac"
         id="stop2" />
      <stop
         offset=".24"
         stop-color="#dbdee3"
         id="stop4" />
      <stop
         offset=".5"
         stop-color="#b7bec8"
         id="stop6" />
      <stop
         offset=".79"
         stop-color="#dbdee3"
         id="stop8" />
      <stop
         offset="1"
         stop-color="#939dac"
         id="stop10" />
    </linearGradient>
    <linearGradient
       id="a">
      <stop
         offset="0"
         id="stop13" />
      <stop
         offset="1"
         stop-opacity="0"
         id="stop15" />
    </linearGradient>
    <linearGradient
       gradientTransform="matrix(3.77953,0,0,3.77953,-0.3,0.11)"
       xlink:href="#c"
       id="d"
       x1="5.09"
       y1="12.59"
       x2="5.38"
       y2="-.11"
       gradientUnits="userSpaceOnUse" />
    <linearGradient
       id="c">
      <stop
         offset="0"
         stop-color="#80b3ff"
         id="stop19" />
      <stop
         offset=".4"
         stop-color="#3771c8"
         id="stop21" />
      <stop
         offset="1"
         stop-color="#025"
         id="stop23" />
    </linearGradient>
  </defs>
  <path
     d="m 23.7,0.49 c -5.82,0 -10.5,1.1 -13.95,3.29 A 13.87,13.87 0 0 0 3.48,16.06 c 0,7.22 5.82,16.9 7.6,19.66 a 55.85,55.85 0 0 0 6.23,8.16 c 2.57,2.64 4.58,3.9 6.39,3.9 1.81,0 3.82,-1.26 6.39,-3.9 a 57.45,57.45 0 0 0 6.23,-8.13 c 1.78,-2.8 7.56,-12.47 7.56,-19.69 0,-5.37 -2.15,-9.6 -6.23,-12.28 A 25.51,25.51 0 0 0 23.7,0.45 Z"
     id="path28"
     style="fill:url(#d)"
     inkscape:connector-curvature="0" />
  <path
     d="m 3.64,14.88 c -0.03,0.42 -0.13,0.79 -0.13,1.22 0,7.22 5.8,16.88 7.58,19.67 a 54.47,54.47 0 0 0 6.25,8.16 c 2.54,2.64 4.57,3.87 6.37,3.87 1.8,0 3.83,-1.23 6.37,-3.87 2,-2.08 4.22,-4.98 6.25,-8.16 1.78,-2.79 7.59,-12.45 7.59,-19.67 0,-0.43 -0.1,-0.8 -0.13,-1.22 a 21.6,21.6 0 0 1 -0.81,4.95 43.18,43.18 0 0 1 -2.19,5.77 69.59,69.59 0 0 1 -4.46,8.17 54.46,54.46 0 0 1 -6.25,8.16 18.08,18.08 0 0 1 -3.46,2.93 c -1.05,0.64 -2,0.94 -2.9,0.94 -0.91,0 -1.87,-0.3 -2.92,-0.94 a 18.08,18.08 0 0 1 -3.46,-2.93 c -2,-2.08 -4.21,-4.98 -6.25,-8.16 A 69.6,69.6 0 0 1 6.63,25.6 43.2,43.2 0 0 1 4.44,19.83 21.6,21.6 0 0 1 3.64,14.88 Z"
     id="path30"
     inkscape:connector-curvature="0"
     style="opacity:0.4" />
  <path
     d="m 23.69,1.56 c -5.33,0 -9.61,1.02 -12.74,3.05 -3.76,2.43 -5.75,6.32 -5.75,11.24 0,6.6 5.3,15.45 6.94,18 a 49.86,49.86 0 0 0 5.72,7.48 c 2.32,2.41 4.18,3.54 5.83,3.54 1.65,0 3.5,-1.13 5.83,-3.54 a 49.89,49.89 0 0 0 5.72,-7.47 C 36.87,31.3 42.19,22.46 42.19,15.85 42.19,10.93 40.2,7.05 36.45,4.62 33.33,2.58 29.05,1.56 23.69,1.56 Z m 0,0.92 c 2.5,0 4.74,0.24 6.73,0.72 a 16.2,16.2 0 0 1 5.17,2.17 11.15,11.15 0 0 1 3.99,4.42 c 0.45,0.89 0.8,1.85 1.02,2.89 0.23,1.03 0.34,2.13 0.34,3.29 0,1.56 -0.3,3.25 -0.8,4.95 -0.48,1.7 -1.15,3.4 -1.87,4.98 a 60.6,60.6 0 0 1 -3.8,7.06 47,47 0 0 1 -5.34,7.05 15.36,15.36 0 0 1 -2.96,2.53 c -0.9,0.55 -1.71,0.82 -2.48,0.82 -0.77,0 -1.58,-0.27 -2.48,-0.82 -0.9,-0.55 -1.87,-1.39 -2.96,-2.53 a 46.5,47.06 0 0 1 -2.67,-3.19 46.5,47.06 0 0 1 -2.66,-3.86 c -0.76,-1.2 -2.38,-3.9 -3.8,-7.06 A 37.6,37.6 0 0 1 7.24,20.92 c -0.48,-1.7 -0.8,-3.4 -0.8,-4.95 0,-1.16 0.12,-2.26 0.35,-3.3 0.23,-1.03 0.57,-2 1.02,-2.89 a 11.2,11.2 0 0 1 4,-4.42 16.3,16.3 0 0 1 5.17,-2.16 C 18.97,2.73 21.21,2.49 23.7,2.49 V 2.48 Z"
     id="path32"
     inkscape:connector-curvature="0"
     style="fill:#ffffff" />
  <path
     d="m 24.33,9.46 c -2.45,0.08 6.53,12.47 -0.39,11.68 5.77,1.6 7.1,-5.85 5.91,-9.49 C 28.69,8.05 28.08,10.3 24.6,9.49 Z m -6.87,1.73 c -3.8,0 -1.84,1.27 -3.68,4.33 -1.75,2.92 13.86,-2.31 10.88,4.22 3.3,-4.99 -3.37,-8.55 -7.2,-8.55 z m 2.67,5.6 c -3.04,-0.01 -6.1,3.43 -6.94,6.05 -1.18,3.6 0.63,2.14 2.98,4.83 2.23,2.57 2.08,-13.9 7.38,-9.04 -1.05,-1.31 -2.24,-1.84 -3.42,-1.85 z m 13.03,0.58 c -2.04,0.2 -9.51,9.69 -10.77,3.53 0.27,5.98 7.76,4.93 10.86,2.69 3.07,-2.23 0.74,-2.11 0.42,-5.66 -0.03,-0.43 -0.21,-0.59 -0.5,-0.56 z m -11.01,1.98 c -5.6,2.1 -2.3,8.9 0.8,11.15 3.06,2.23 2.23,0.05 5.51,-1.34 3.14,-1.33 -12.57,-6.28 -6.31,-9.81 z"
     id="path34"
     inkscape:connector-curvature="0"
     style="fill:#ffffff;fill-rule:evenodd" />
</svg>
