<?xml version="1.0" encoding="UTF-8" standalone="no"?>
<svg
   xmlns:dc="http://purl.org/dc/elements/1.1/"
   xmlns:cc="http://creativecommons.org/ns#"
   xmlns:rdf="http://www.w3.org/1999/02/22-rdf-syntax-ns#"
   xmlns:svg="http://www.w3.org/2000/svg"
   xmlns="http://www.w3.org/2000/svg"
   xmlns:xlink="http://www.w3.org/1999/xlink"
   xmlns:sodipodi="http://sodipodi.sourceforge.net/DTD/sodipodi-0.dtd"
   xmlns:inkscape="http://www.inkscape.org/namespaces/inkscape"
   width="48"
   height="48"
   viewBox="0 0 12.7 12.7"
   version="1.1"
   id="svg166"
   sodipodi:docname="evolution-calendar.svg"
   inkscape:version="0.92.4 (5da689c313, 2019-01-14)">
  <metadata
     id="metadata170">
    <rdf:RDF>
      <cc:Work
         rdf:about="">
        <dc:format>image/svg+xml</dc:format>
        <dc:type
           rdf:resource="http://purl.org/dc/dcmitype/StillImage" />
        <dc:title></dc:title>
      </cc:Work>
    </rdf:RDF>
  </metadata>
  <sodipodi:namedview
     pagecolor="#ffffff"
     bordercolor="#666666"
     borderopacity="1"
     objecttolerance="10"
     gridtolerance="10"
     guidetolerance="10"
     inkscape:pageopacity="0"
     inkscape:pageshadow="2"
     inkscape:window-width="1112"
     inkscape:window-height="480"
     id="namedview168"
     showgrid="false"
     inkscape:zoom="4.9166667"
     inkscape:cx="2.1355932"
     inkscape:cy="24"
     inkscape:window-x="0"
     inkscape:window-y="25"
     inkscape:window-maximized="0"
     inkscape:current-layer="svg166" />
  <defs
     id="defs124">
    <linearGradient
       id="e">
      <stop
         offset="0"
         stop-color="#999"
         id="stop2" />
      <stop
         offset="1"
         stop-color="#fff"
         id="stop4" />
    </linearGradient>
    <linearGradient
       id="c">
      <stop
         offset="0"
         id="stop7" />
      <stop
         offset="1"
         stop-color="#000004"
         stop-opacity="0"
         id="stop9" />
    </linearGradient>
    <linearGradient
       y2="108"
       x2="64"
       y1="123"
       x1="64"
       gradientUnits="userSpaceOnUse"
       id="h"
       gradientTransform="matrix(0.05788,0,0,0.05788,2.65,1.06)">
      <stop
         offset="0"
         stop-color="#2e3436"
         id="stop12" />
      <stop
         offset=".1"
         stop-color="#383e40"
         id="stop14" />
      <stop
         offset=".27"
         stop-color="#535859"
         id="stop16" />
      <stop
         offset=".48"
         stop-color="#7e8283"
         id="stop18" />
      <stop
         offset=".74"
         stop-color="#bbbdbd"
         id="stop20" />
      <stop
         offset="1"
         stop-color="#fff"
         id="stop22" />
    </linearGradient>
    <linearGradient
       xlink:href="#a"
       id="i"
       gradientUnits="userSpaceOnUse"
       x1="64"
       y1="118.71"
       x2="64"
       y2="18"
       gradientTransform="matrix(0.05788,0,0,0.05788,2.65,1.06)" />
    <linearGradient
       y2="18"
       x2="64"
       y1="118.71"
       x1="64"
       gradientUnits="userSpaceOnUse"
       id="a">
      <stop
         offset="0"
         stop-color="#bbb"
         id="stop26" />
      <stop
         offset=".09"
         stop-color="#90918f"
         id="stop28" />
      <stop
         offset=".16"
         stop-color="#70716e"
         id="stop30" />
      <stop
         offset=".23"
         stop-color="#5c5e5a"
         id="stop32" />
      <stop
         offset=".27"
         stop-color="#555753"
         id="stop34" />
      <stop
         offset="1"
         stop-color="#555753"
         id="stop36" />
    </linearGradient>
    <linearGradient
       y2="63"
       x2="116.92"
       y1="63"
       x1="11.92"
       gradientUnits="userSpaceOnUse"
       id="j"
       gradientTransform="matrix(0.05788,0,0,0.05788,2.65,1.06)">
      <stop
         offset="0"
         stop-color="#4f4f4f"
         id="stop39" />
      <stop
         offset=".24"
         stop-color="#b1b1b1"
         id="stop41" />
      <stop
         offset=".38"
         stop-color="#969696"
         id="stop43" />
      <stop
         offset=".69"
         stop-color="#6b6b6b"
         id="stop45" />
      <stop
         offset=".83"
         stop-color="#555"
         id="stop47" />
      <stop
         offset="1"
         stop-color="#bbb"
         id="stop49" />
    </linearGradient>
    <linearGradient
       y2="59.79"
       x2="117.46"
       y1="59.79"
       x1="11.38"
       gradientUnits="userSpaceOnUse"
       id="k"
       gradientTransform="matrix(0.05788,0,0,0.05788,2.65,1.06)">
      <stop
         offset="0"
         stop-color="#8b8b8b"
         id="stop52" />
      <stop
         offset=".14"
         stop-color="#b1b1b1"
         id="stop54" />
      <stop
         offset=".38"
         stop-color="#969696"
         id="stop56" />
      <stop
         offset=".69"
         stop-color="#6b6b6b"
         id="stop58" />
      <stop
         offset=".83"
         stop-color="#555"
         id="stop60" />
      <stop
         offset="1"
         stop-color="#bbb"
         id="stop62" />
    </linearGradient>
    <linearGradient
       gradientTransform="matrix(-0.05788,0,0,-0.05788,24.0656,4.961112)"
       y2="32.9"
       x2="305.58"
       y1="59.69"
       x1="305.58"
       gradientUnits="userSpaceOnUse"
       id="m">
      <stop
         offset="0"
         stop-color="#164450"
         id="stop65" />
      <stop
         offset=".57"
         stop-color="#2c89a0"
         id="stop67" />
    </linearGradient>
    <linearGradient
       y2="11.57"
       x2="31.21"
       y1="15.86"
       x1="31.21"
       gradientUnits="userSpaceOnUse"
       id="n"
       gradientTransform="matrix(0.05788,0,0,0.05788,2.65,1.06)">
      <stop
         offset="0"
         stop-color="#555"
         id="stop70" />
      <stop
         offset=".57"
         stop-color="#323232"
         id="stop72" />
    </linearGradient>
    <linearGradient
       y2="11.57"
       x2="97.63"
       y1="15.86"
       x1="97.63"
       gradientUnits="userSpaceOnUse"
       id="b">
      <stop
         offset="0"
         stop-color="#555"
         id="stop75" />
      <stop
         offset=".57"
         stop-color="#323232"
         id="stop77" />
    </linearGradient>
    <linearGradient
       y2="15.86"
       x2="31.21"
       y1="3"
       x1="31.21"
       gradientUnits="userSpaceOnUse"
       id="p"
       gradientTransform="matrix(0.05788,0,0,0.05788,2.65,1.06)">
      <stop
         offset="0"
         stop-color="#323232"
         id="stop80" />
      <stop
         offset=".37"
         stop-color="#ddd"
         id="stop82" />
      <stop
         offset=".45"
         stop-color="#d9d9d9"
         id="stop84" />
      <stop
         offset=".55"
         stop-color="#cbcbcb"
         id="stop86" />
      <stop
         offset=".64"
         stop-color="#b6b6b6"
         id="stop88" />
      <stop
         offset=".74"
         stop-color="#979797"
         id="stop90" />
      <stop
         offset=".79"
         stop-color="#888"
         id="stop92" />
    </linearGradient>
    <linearGradient
       y2="15.86"
       x2="97.63"
       y1="3"
       x1="97.63"
       gradientUnits="userSpaceOnUse"
       id="q"
       gradientTransform="matrix(0.05788,0,0,0.05788,2.65,1.06)">
      <stop
         offset="0"
         stop-color="#323232"
         id="stop95" />
      <stop
         offset=".37"
         stop-color="#ddd"
         id="stop97" />
      <stop
         offset=".45"
         stop-color="#d9d9d9"
         id="stop99" />
      <stop
         offset=".55"
         stop-color="#cbcbcb"
         id="stop101" />
      <stop
         offset=".64"
         stop-color="#b6b6b6"
         id="stop103" />
      <stop
         offset=".74"
         stop-color="#979797"
         id="stop105" />
      <stop
         offset=".79"
         stop-color="#888"
         id="stop107" />
    </linearGradient>
    <linearGradient
       xlink:href="#b"
       id="r"
       x1="28.37"
       y1="94.97"
       x2="28.69"
       y2="44.82"
       gradientUnits="userSpaceOnUse"
       gradientTransform="matrix(0.0608,0,0,0.0551,2.65,1.06)" />
    <linearGradient
       y2="11.57"
       x2="97.63"
       y1="15.86"
       x1="97.63"
       gradientUnits="userSpaceOnUse"
       id="o"
       xlink:href="#b"
       gradientTransform="matrix(0.05788,0,0,0.05788,2.65,1.06)" />
    <linearGradient
       xlink:href="#c"
       id="g"
       gradientUnits="userSpaceOnUse"
       x1="2.48"
       y1="285.88"
       x2="14.95"
       y2="297.05"
       gradientTransform="translate(0,-284.3)" />
    <linearGradient
       gradientTransform="scale(0.26458)"
       xlink:href="#d"
       id="f"
       x1="3.8"
       y1="24"
       x2="44.2"
       y2="24"
       gradientUnits="userSpaceOnUse" />
    <linearGradient
       id="d">
      <stop
         offset="0"
         stop-color="#6f918a"
         id="stop114" />
      <stop
         offset=".33"
         stop-color="#dbe3e2"
         id="stop116" />
      <stop
         offset=".62"
         stop-color="#dbe3e2"
         id="stop118" />
      <stop
         offset="1"
         stop-color="#b7c8c4"
         id="stop120" />
    </linearGradient>
    <linearGradient
       xlink:href="#e"
       id="l"
       x1="3.3"
       y1="1.85"
       x2="3.27"
       y2="7.25"
       gradientUnits="userSpaceOnUse" />
  </defs>
  <path
     d="M 6.35,0.1 C 4.81,0.1 3.57,0.39 2.66,0.97 A 3.67,3.67 0 0 0 1.01,4.22 c 0,1.91 1.53,4.47 2,5.2 a 14.41,14.41 0 0 0 1.65,2.16 c 0.68,0.7 1.21,1.03 1.69,1.03 0.48,0 1.01,-0.33 1.69,-1.03 0.52,-0.55 1.11,-1.31 1.65,-2.16 0.47,-0.73 2,-3.29 2,-5.2 0,-1.42 -0.57,-2.54 -1.65,-3.25 A 6.76,6.76 0 0 0 6.35,0.09 Z"
     id="path126"
     style="fill:url(#f)"
     inkscape:connector-curvature="0" />
  <path
     d="m 7.24,12.26 c 0.25,-0.17 0.5,-0.37 0.8,-0.68 A 15.2,15.2 0 0 0 9.69,9.43 C 9.92,9.06 10.43,8.23 10.87,7.26 11.09,6.78 11.3,6.26 11.45,5.74 11.6,5.22 11.7,4.7 11.7,4.22 11.7,4.02 11.66,3.84 11.64,3.65 L 9.47,1.49 9.2,1.76 8.67,1.23 6.1,2.51 4.82,1.23 3.07,8.1 Z"
     id="path128"
     style="opacity:0.5;fill:url(#g)"
     inkscape:connector-curvature="0" />
  <path
     d="M 6.35,0.1 C 4.81,0.1 3.57,0.38 2.66,0.96 A 3.67,3.67 0 0 0 1,4.22 c 0,1.91 1.54,4.47 2.01,5.2 0.54,0.85 1.13,1.61 1.65,2.16 0.68,0.7 1.21,1.03 1.69,1.03 0.48,0 1.01,-0.33 1.69,-1.03 A 15.2,15.2 0 0 0 9.69,9.43 c 0.47,-0.74 2,-3.3 2,-5.21 0,-1.42 -0.57,-2.54 -1.65,-3.25 A 6.75,6.75 0 0 0 6.35,0.1 Z m 0,0.03 C 6.91,0.15 7.44,0.2 7.9,0.31 a 5.82,5.82 0 0 1 1.6,0.66 3.65,3.65 0 0 1 1.24,1.36 c 0.14,0.27 0.25,0.57 0.32,0.88 A 4.61,4.61 0 0 1 10.92,5.74 C 10.77,6.26 10.56,6.78 10.34,7.26 9.9,8.23 9.39,9.06 9.16,9.43 A 15.2,15.2 0 0 1 7.51,11.58 4.9,4.9 0 0 1 6.59,12.36 0.96,0.96 0 0 1 6.35,12.46 0.96,0.96 0 0 1 6.11,12.36 4.76,4.76 0 0 1 5.19,11.58 14.41,14.41 0 0 1 3.54,9.43 19.2,19.2 0 0 1 2.36,7.26 C 2.14,6.78 1.93,6.26 1.78,5.74 A 4.6,4.6 0 0 1 1.64,3.22 3.73,3.73 0 0 1 2.48,1.58 3.65,3.65 0 0 1 3.93,0.58 6.83,6.83 0 0 1 6.35,0.13 Z"
     id="path130"
     inkscape:connector-curvature="0"
     style="opacity:0.2" />
  <path
     d="m 2.65,1.06 h 7.4 v 7.4 h -7.4 z"
     id="path132"
     inkscape:connector-curvature="0"
     style="fill:none" />
  <path
     d="M 9.7032568,7.9309348 A 0.2483052,0.2483052 0 0 1 9.4549516,8.17924 H 3.2536884 A 0.2483052,0.2483052 0 0 1 3.0053832,7.9309348 V 7.5593452 a 0.2483052,0.2483052 0 0 1 0.2483052,-0.248884 h 6.2012632 a 0.2483052,0.2483052 0 0 1 0.2483052,0.248884 z"
     id="path134"
     style="fill:url(#h);stroke-width:0.05788"
     inkscape:connector-curvature="0" />
  <path
     d="M 9.7032568,7.6832084 A 0.2483052,0.2483052 0 0 1 9.4549516,7.9309348 H 3.2536884 A 0.2483052,0.2483052 0 0 1 3.0053832,7.6832084 V 2.3501452 A 0.2483052,0.2483052 0 0 1 3.2536884,2.10184 h 6.2012632 a 0.2483052,0.2483052 0 0 1 0.2483052,0.2483052 z"
     id="path136"
     style="fill:url(#i);stroke-width:0.05788"
     inkscape:connector-curvature="0" />
  <path
     d="M 9.45,2.1 H 3.27 v 5.52 c 0,0.03 0.03,0.06 0.07,0.06 H 9.4 c 0.04,0 0.06,-0.03 0.06,-0.06 V 2.1 H 9.44 Z"
     id="path138"
     inkscape:connector-curvature="0"
     style="opacity:0.4;fill:#323232" />
  <path
     d="M 3.34,7.62 V 2.04 H 9.4 v 5.58 z"
     id="path140"
     inkscape:connector-curvature="0"
     style="fill:#ffffff" />
  <path
     d="M 3.3399296,7.4968348 V 1.916624 l 6.0774,0.00463 v 5.5761592 z"
     id="path142"
     style="fill:url(#j);stroke-width:0.05788"
     inkscape:connector-curvature="0" />
  <path
     d="M 3.3,7.43 V 1.85 h 6.14 v 5.58 z"
     id="path144"
     inkscape:connector-curvature="0"
     style="fill:#ffffff" />
  <path
     d="M 9.4485848,1.7348808 V 7.31104 H 3.3092532 V 1.7296716 Z"
     id="path146"
     style="fill:url(#k);stroke-width:0.05788"
     inkscape:connector-curvature="0" />
  <path
     d="M 3.27,7.25 V 1.67 h 6.2 v 5.58 z"
     id="path148"
     style="fill:url(#l)"
     inkscape:connector-curvature="0" />
  <path
     d="M 3.277998,1.4946788 H 9.4792612 V 3.045284 H 3.277998 Z"
     id="path150"
     style="fill:url(#m);stroke-width:0.05788"
     inkscape:connector-curvature="0" />
  <path
     d="m 4.0223348,1.7296716 h 0.8682 v 0.2483052 h -0.8682 z"
     id="path152"
     style="fill:url(#n);stroke-width:0.05788"
     inkscape:connector-curvature="0" />
  <path
     d="m 7.8673032,1.7296716 h 0.8682 v 0.2483052 h -0.8682 z"
     id="path154"
     style="fill:url(#o);stroke-width:0.05788"
     inkscape:connector-curvature="0" />
  <path
     d="M 4.0842664,1.23364 H 4.8286032 V 1.9779768 H 4.0842664 Z"
     id="path156"
     style="fill:url(#p);stroke-width:0.05788"
     inkscape:connector-curvature="0" />
  <path
     d="M 7.9292348,1.23364 H 8.6735716 V 1.9779768 H 7.9292348 Z"
     id="path158"
     style="fill:url(#q);stroke-width:0.05788"
     inkscape:connector-curvature="0" />
  <path
     d="M 3.58,2.22 C 3.58,2.16 3.64,2.1 3.71,2.1 H 5.2 c 0.06,0 0.12,0.06 0.12,0.12 V 2.78 C 5.32,2.85 5.26,2.91 5.2,2.91 H 3.7 A 0.12,0.12 0 0 1 3.58,2.78 Z"
     id="path160"
     inkscape:connector-curvature="0"
     style="fill:#2c89a0" />
  <path
     style="font-weight:400;font-size:0.77600002px;line-height:1.25;font-family:sans-serif;letter-spacing:0;word-spacing:0;fill:#ffffff"
     d="M 3.917,2.21 3.697,2.765 H 3.779 L 3.832,2.623 h 0.26 L 4.144,2.765 H 4.226 L 4.006,2.21 Z m 0.392,0 V 2.765 H 4.387 V 2.542 H 4.486 C 4.55,2.542 4.599,2.528 4.632,2.5 4.665,2.472 4.682,2.43 4.682,2.376 4.682,2.322 4.665,2.281 4.632,2.253 4.599,2.224 4.55,2.21 4.486,2.21 Z m 0.478,0 V 2.765 H 4.865 V 2.531 H 4.95 c 0.031,0 0.055,0.006 0.073,0.018 A 0.198,0.198 0 0 1 5.079,2.623 L 5.153,2.765 H 5.236 L 5.157,2.613 A 0.348,0.348 0 0 0 5.109,2.54 0.114,0.114 0 0 0 5.061,2.505 0.13,0.13 0 0 0 5.134,2.457 0.144,0.144 0 0 0 5.159,2.37 C 5.159,2.316 5.143,2.277 5.111,2.25 5.078,2.223 5.029,2.21 4.963,2.21 Z m -0.4,0.062 H 4.486 A 0.12,0.12 0 0 1 4.57,2.299 0.1,0.1 0 0 1 4.6,2.376 C 4.6,2.41 4.59,2.435 4.57,2.453 A 0.12,0.12 0 0 1 4.486,2.48 H 4.387 Z m 0.478,0 h 0.098 c 0.038,0 0.066,0.008 0.085,0.025 0.02,0.016 0.03,0.04 0.03,0.073 0,0.032 -0.01,0.057 -0.03,0.074 C 5.029,2.46 5.001,2.469 4.963,2.469 H 4.865 Z M 3.961,2.284 4.067,2.56 H 3.855 Z"
     font-weight="400"
     font-size=".776"
     letter-spacing="0"
     word-spacing="0"
     id="path162"
     inkscape:connector-curvature="0" />
  <path
     style="font-weight:400;font-size:4.10300016px;line-height:1.25;font-family:Ubuntu;-inkscape-font-specification:Ubuntu;letter-spacing:0;word-spacing:0;fill:url(#r)"
     d="m 5.204,3.504 c -0.103,0 -0.2,0.012 -0.289,0.035 C 4.826,3.563 4.746,3.591 4.675,3.625 4.602,3.659 4.54,3.695 4.489,3.735 A 0.902,0.902 0 0 0 4.372,3.828 L 4.571,4.086 4.657,4.019 A 1.058,1.058 0 0 1 4.98,3.859 0.788,0.788 0 0 1 5.402,3.856 0.423,0.423 0 0 1 5.566,3.934 0.423,0.423 0 0 1 5.716,4.27 0.469,0.469 0 0 1 5.669,4.477 0.82,0.82 0 0 1 5.549,4.667 C 5.5,4.727 5.442,4.789 5.376,4.851 A 22.662,22.662 0 0 0 4.911,5.277 C 4.822,5.361 4.741,5.449 4.67,5.543 a 1.41,1.41 0 0 0 -0.177,0.3 0.879,0.879 0 0 0 -0.064,0.34 v 0.043 a 0.26,0.26 0 0 0 0.004,0.047 h 1.81 V 5.964 H 4.868 C 4.868,5.92 4.887,5.868 4.924,5.808 4.964,5.748 5.013,5.686 5.07,5.621 5.128,5.556 5.188,5.493 5.251,5.433 L 5.424,5.277 C 5.51,5.199 5.596,5.12 5.682,5.039 A 3.09,3.09 0 0 0 5.915,4.789 C 5.985,4.703 6.039,4.617 6.079,4.531 A 0.618,0.618 0 0 0 6.144,4.258 C 6.144,4.018 6.064,3.833 5.907,3.703 5.751,3.57 5.517,3.504 5.204,3.504 Z M 7.869,3.567 A 1.96,1.96 0 0 1 7.443,3.907 2.889,2.889 0 0 1 6.964,4.125 L 7.089,4.398 A 2.337,2.337 0 0 0 7.623,4.16 C 7.676,4.129 7.719,4.1 7.753,4.07 V 6.273 H 8.154 V 3.567 Z"
     font-weight="400"
     font-size="4.103"
     letter-spacing="0"
     word-spacing="0"
     id="path164"
     inkscape:connector-curvature="0" />
</svg>
