<?xml version="1.0" encoding="UTF-8" standalone="no"?>
<svg
   xmlns:dc="http://purl.org/dc/elements/1.1/"
   xmlns:cc="http://creativecommons.org/ns#"
   xmlns:rdf="http://www.w3.org/1999/02/22-rdf-syntax-ns#"
   xmlns:svg="http://www.w3.org/2000/svg"
   xmlns="http://www.w3.org/2000/svg"
   xmlns:xlink="http://www.w3.org/1999/xlink"
   xmlns:sodipodi="http://sodipodi.sourceforge.net/DTD/sodipodi-0.dtd"
   xmlns:inkscape="http://www.inkscape.org/namespaces/inkscape"
   viewBox="0 0 48 48"
   version="1.1"
   id="svg49"
   sodipodi:docname="exaile.svg"
   inkscape:version="0.92.4 (5da689c313, 2019-01-14)">
  <metadata
     id="metadata53">
    <rdf:RDF>
      <cc:Work
         rdf:about="">
        <dc:format>image/svg+xml</dc:format>
        <dc:type
           rdf:resource="http://purl.org/dc/dcmitype/StillImage" />
        <dc:title></dc:title>
      </cc:Work>
    </rdf:RDF>
  </metadata>
  <sodipodi:namedview
     pagecolor="#ffffff"
     bordercolor="#666666"
     borderopacity="1"
     objecttolerance="10"
     gridtolerance="10"
     guidetolerance="10"
     inkscape:pageopacity="0"
     inkscape:pageshadow="2"
     inkscape:window-width="1112"
     inkscape:window-height="480"
     id="namedview51"
     showgrid="false"
     inkscape:zoom="4.9166667"
     inkscape:cx="2.1355932"
     inkscape:cy="24"
     inkscape:window-x="0"
     inkscape:window-y="25"
     inkscape:window-maximized="0"
     inkscape:current-layer="svg49" />
  <defs
     id="defs27">
    <radialGradient
       id="d"
       cx="275"
       cy="110.36"
       r="95.5"
       gradientTransform="matrix(0.15269,0,0,0.15269,-32.57,-11.43)"
       gradientUnits="userSpaceOnUse"
       xlink:href="#a"
       spreadMethod="reflect" />
    <linearGradient
       id="a">
      <stop
         stop-color="#74c332"
         offset="0"
         id="stop3" />
      <stop
         stop-color="#9ecd5e"
         offset="1"
         id="stop5" />
    </linearGradient>
    <radialGradient
       id="e"
       cx="370.5"
       cy="205.86"
       r="95.5"
       fy="276.16"
       gradientTransform="matrix(0.19664,0,0,0.15269,-47.8,-8.61)"
       gradientUnits="userSpaceOnUse">
      <stop
         stop-color="#c9df18"
         offset="0"
         id="stop8" />
      <stop
         stop-color="#e88524"
         stop-opacity="0"
         offset="1"
         id="stop10" />
    </radialGradient>
    <radialGradient
       id="f"
       cx="370.5"
       cy="205.86"
       r="95.5"
       fy="276.16"
       gradientTransform="matrix(0.19664,0,0,0.15269,-48.85,-11.43)"
       gradientUnits="userSpaceOnUse"
       xlink:href="#a" />
    <linearGradient
       id="g"
       x1="378.34"
       x2="378.34"
       y1="156.19"
       y2="274.4"
       gradientUnits="userSpaceOnUse"
       xlink:href="#b"
       gradientTransform="matrix(0.15269,0,0,-0.15269,-32.85,45.86)" />
    <linearGradient
       id="b">
      <stop
         stop-color="#fff"
         offset="0"
         id="stop15" />
      <stop
         stop-color="#fff"
         stop-opacity="0"
         offset="1"
         id="stop17" />
    </linearGradient>
    <linearGradient
       id="h"
       x1="376.36"
       x2="376.36"
       y1="120.19"
       y2="323.4"
       gradientTransform="matrix(0.15269,0,0,0.15269,-31.52,-8.6)"
       gradientUnits="userSpaceOnUse"
       xlink:href="#b" />
    <linearGradient
       id="i"
       x1="373.12"
       x2="363.62"
       y1="91.88"
       y2="258.55"
       gradientTransform="matrix(0.15269,0,0,0.15269,-31.52,-8.6)"
       gradientUnits="userSpaceOnUse"
       xlink:href="#b" />
    <linearGradient
       id="c"
       x1="10.57"
       x2="38.17"
       y1="2.22"
       y2="48.9"
       gradientUnits="userSpaceOnUse">
      <stop
         stop-color="#668000"
         offset="0"
         id="stop22" />
      <stop
         stop-color="#80ff80"
         offset="1"
         id="stop24" />
    </linearGradient>
  </defs>
  <path
     d="M 23.71,0.5 C 17.88,0.5 13.2,1.6 9.78,3.82 5.68,6.48 3.5,10.73 3.5,16.1 c 0,7.22 5.8,16.88 7.58,19.67 a 54.47,54.47 0 0 0 6.25,8.16 c 2.54,2.64 4.57,3.87 6.37,3.87 1.8,0 3.83,-1.23 6.37,-3.87 2,-2.08 4.22,-4.98 6.25,-8.16 C 38.1,32.98 43.91,23.32 43.91,16.1 43.91,10.73 41.74,6.48 37.64,3.83 34.23,1.6 29.55,0.49 23.7,0.49 Z"
     id="path29"
     style="fill:url(#c)"
     inkscape:connector-curvature="0" />
  <circle
     cy="22"
     cx="24"
     id="ellipse31"
     r="14.58"
     style="opacity:0.4;fill-rule:evenodd" />
  <circle
     cy="20"
     cx="24"
     id="ellipse33"
     style="fill:url(#d);fill-rule:evenodd"
     r="14.58" />
  <path
     d="m 18.85,18.89 a 35.4,35.4 0 0 0 -9.43,1.16 14.59,14.59 0 0 0 28.96,2.37 49.1,49.1 0 0 1 -2.72,-0.74 C 29.11,19.69 23.55,18.9 18.86,18.88 Z m 19.54,3.48 c 0.16,-1.34 0.2,-1.33 0,0 z"
     id="path35"
     style="opacity:0.4;fill:url(#e);fill-rule:evenodd"
     inkscape:connector-curvature="0" />
  <circle
     cy="20"
     cx="24"
     id="ellipse37"
     style="opacity:0.3;fill:url(#f);fill-rule:evenodd"
     r="14.58" />
  <path
     d="m 18.72,14.26 c -1.34,0.78 -1.34,14.7 0,15.48 1.34,0.77 13.4,-6.2 13.4,-7.74 0,-1.55 -12.06,-8.51 -13.4,-7.74 z"
     id="path39"
     inkscape:connector-curvature="0"
     style="opacity:0.4;fill-rule:evenodd" />
  <path
     d="m 18.719521,12.260565 c -1.340619,0.774139 -1.340619,14.704047 0,15.478186 1.340618,0.774138 13.403128,-6.19158 13.403128,-7.738329 0,-1.548277 -12.06251,-8.512468 -13.403128,-7.739857 z"
     id="path41"
     style="fill:url(#g);fill-rule:evenodd;stroke-width:0.15268999"
     inkscape:connector-curvature="0" />
  <path
     d="m 18.98,12.2 c -0.11,0 -0.2,0.03 -0.26,0.06 -0.6,0.35 -0.93,3.36 -1,6.64 4,-0.1 8.66,0.38 14.06,1.71 0.21,-0.25 0.34,-0.45 0.34,-0.6 0,-1.48 -10.96,-7.88 -13.15,-7.81 z"
     id="path43"
     style="fill:url(#h);fill-rule:evenodd"
     inkscape:connector-curvature="0" />
  <path
     d="M 24,5.42 A 14.59,14.59 0 0 0 9.42,20 v 0.05 c 6.07,-1.64 14.59,-1.9 26.24,1.63 0.93,0.28 1.84,0.53 2.72,0.74 A 14.59,14.59 0 0 0 24,5.42 Z"
     id="path45"
     style="opacity:0.3;fill:url(#i);fill-rule:evenodd"
     inkscape:connector-curvature="0" />
  <path
     d="m 3.64,14.88 c -0.03,0.42 -0.13,0.79 -0.13,1.22 0,7.22 5.8,16.88 7.59,19.67 a 54.48,54.48 0 0 0 6.24,8.16 c 2.54,2.64 4.57,3.87 6.37,3.87 1.8,0 3.83,-1.23 6.37,-3.87 2,-2.08 4.22,-4.97 6.25,-8.16 1.78,-2.79 7.59,-12.45 7.59,-19.67 0,-0.43 -0.1,-0.8 -0.13,-1.21 a 21.6,21.6 0 0 1 -0.8,4.94 43.2,43.2 0 0 1 -2.2,5.77 69.59,69.59 0 0 1 -4.46,8.17 54.47,54.47 0 0 1 -6.25,8.16 17.98,17.98 0 0 1 -3.46,2.93 c -1.05,0.64 -2,0.94 -2.9,0.94 -0.91,0 -1.87,-0.3 -2.92,-0.94 -1.05,-0.64 -2.19,-1.61 -3.46,-2.93 -2,-2.08 -4.21,-4.98 -6.24,-8.16 A 69.6,69.6 0 0 1 6.63,25.6 43.19,43.19 0 0 1 4.44,19.83 21.6,21.6 0 0 1 3.64,14.89 Z"
     id="path47"
     inkscape:connector-curvature="0"
     style="opacity:0.5" />
</svg>
