<?xml version="1.0" encoding="UTF-8" standalone="no"?>
<svg
   xmlns:dc="http://purl.org/dc/elements/1.1/"
   xmlns:cc="http://creativecommons.org/ns#"
   xmlns:rdf="http://www.w3.org/1999/02/22-rdf-syntax-ns#"
   xmlns:svg="http://www.w3.org/2000/svg"
   xmlns="http://www.w3.org/2000/svg"
   xmlns:xlink="http://www.w3.org/1999/xlink"
   xmlns:sodipodi="http://sodipodi.sourceforge.net/DTD/sodipodi-0.dtd"
   xmlns:inkscape="http://www.inkscape.org/namespaces/inkscape"
   width="48"
   height="48"
   version="1.1"
   id="svg27"
   sodipodi:docname="gitkraken.svg"
   inkscape:version="0.92.4 (5da689c313, 2019-01-14)">
  <metadata
     id="metadata31">
    <rdf:RDF>
      <cc:Work
         rdf:about="">
        <dc:format>image/svg+xml</dc:format>
        <dc:type
           rdf:resource="http://purl.org/dc/dcmitype/StillImage" />
        <dc:title></dc:title>
      </cc:Work>
    </rdf:RDF>
  </metadata>
  <sodipodi:namedview
     pagecolor="#ffffff"
     bordercolor="#666666"
     borderopacity="1"
     objecttolerance="10"
     gridtolerance="10"
     guidetolerance="10"
     inkscape:pageopacity="0"
     inkscape:pageshadow="2"
     inkscape:window-width="1112"
     inkscape:window-height="480"
     id="namedview29"
     showgrid="false"
     inkscape:zoom="4.9166667"
     inkscape:cx="2.1355932"
     inkscape:cy="24"
     inkscape:window-x="0"
     inkscape:window-y="25"
     inkscape:window-maximized="0"
     inkscape:current-layer="svg27" />
  <defs
     id="defs19">
    <linearGradient
       id="c">
      <stop
         offset="0"
         stop-color="#afdde9"
         id="stop2" />
      <stop
         offset="1"
         stop-color="#0cf"
         id="stop4" />
    </linearGradient>
    <linearGradient
       id="b">
      <stop
         offset="0"
         stop-color="#170b28"
         id="stop7" />
      <stop
         offset="1"
         stop-color="#53536c"
         id="stop9" />
    </linearGradient>
    <linearGradient
       id="a">
      <stop
         offset="0"
         id="stop12" />
      <stop
         offset="1"
         stop-opacity="0"
         id="stop14" />
    </linearGradient>
    <linearGradient
       xlink:href="#b"
       id="d"
       x1="15.841"
       y1=".093"
       x2="24.005"
       y2="47.105"
       gradientUnits="userSpaceOnUse" />
    <linearGradient
       xlink:href="#c"
       id="e"
       x1="23.772"
       y1="6.567"
       x2="23.976"
       y2="35.938"
       gradientUnits="userSpaceOnUse" />
  </defs>
  <path
     d="m 24.005,0.355 c -5.83,0 -10.51,1.1 -13.93,3.32 -4.1,2.66 -6.28,6.91 -6.28,12.28 0,7.22 5.8,16.88 7.58,19.67 a 54.48,54.48 0 0 0 6.25,8.16 c 2.54,2.64 4.57,3.87 6.37,3.87 1.8,0 3.83,-1.23 6.37,-3.87 2,-2.08 4.22,-4.98 6.25,-8.16 1.78,-2.79 7.59,-12.45 7.59,-19.67 0,-5.37 -2.17,-9.62 -6.27,-12.27 -3.4,-2.23 -8.09,-3.34 -13.94,-3.34 z"
     id="path21"
     style="fill:url(#d)"
     inkscape:connector-curvature="0" />
  <path
     d="m 23.995,0.345 c -5.83,0 -10.51,1.12 -13.93,3.33 -4.1,2.66 -6.27,6.9 -6.27,12.27 0,7.23 5.8,16.89 7.58,19.68 a 54.48,54.48 0 0 0 6.25,8.15 c 2.54,2.65 4.57,3.88 6.37,3.88 1.8,0 3.83,-1.23 6.37,-3.88 2,-2.07 4.22,-4.97 6.25,-8.15 1.78,-2.8 7.59,-12.45 7.59,-19.68 0,-5.37 -2.17,-9.61 -6.27,-12.27 -3.41,-2.21 -8.1,-3.33 -13.95,-3.33 z m 0,0.14 c 2.12,0.09 4.12,0.28 5.88,0.7 1.16,0.27 2.25,0.62 3.26,1.04 1.01,0.41 1.95,0.9 2.8,1.45 a 12.92,12.92 0 0 1 4.67,5.12 14.1,14.1 0 0 1 1.2,3.34 c 0.26,1.2 0.4,2.47 0.4,3.81 0,1.81 -0.37,3.77 -0.94,5.73 a 43.19,43.19 0 0 1 -2.19,5.78 69.59,69.59 0 0 1 -4.46,8.17 54.47,54.47 0 0 1 -6.25,8.15 17.98,17.98 0 0 1 -3.46,2.93 c -0.32,0.2 -0.62,0.3 -0.9,0.4 -0.3,-0.1 -0.6,-0.2 -0.92,-0.4 a 17.72,17.72 0 0 1 -3.46,-2.93 54.5,54.5 0 0 1 -6.25,-8.15 69.6,69.6 0 0 1 -4.46,-8.17 43.19,43.19 0 0 1 -2.19,-5.78 20.93,20.93 0 0 1 -0.93,-5.73 c 0,-1.34 0.13,-2.61 0.4,-3.8 0.27,-1.2 0.67,-2.32 1.2,-3.35 a 12.92,12.92 0 0 1 4.67,-5.12 17.1,17.1 0 0 1 2.8,-1.45 c 1,-0.42 2.1,-0.77 3.26,-1.04 1.75,-0.42 3.76,-0.61 5.86,-0.7 z"
     id="path23"
     inkscape:connector-curvature="0"
     style="opacity:0.2" />
  <path
     d="m 30.003,6.529 a 0.602,0.602 0 0 0 -0.542,0.339 l -0.034,0.3 c 0,0.235 0.1,0.435 0.3,0.535 a 11.846,11.846 0 0 1 -1.403,21.384 v -4.952 a 1.877,1.877 0 0 0 1.338,-1.807 c 0,-0.703 -0.37,-1.305 -0.972,-1.64 0.435,-4.25 2.41,-3.112 2.41,-4.484 V 15.4 c 0,-2.008 -4.685,-8.7 -6.927,-8.833 h -0.4 c -2.21,0.167 -6.928,6.792 -6.928,8.833 v 0.804 c 0,1.339 1.94,0.234 2.376,4.484 a 1.874,1.874 0 0 0 -0.903,1.672 c 0,0.804 0.569,1.54 1.338,1.775 v 4.952 A 11.88,11.88 0 0 1 18.25,7.67 0.602,0.602 0 0 0 18.484,6.868 C 18.417,6.667 18.184,6.532 17.95,6.532 A 0.67,0.67 0 0 0 17.649,6.6 13.05,13.05 0 0 0 20.895,30.727 v -5.555 l 1.238,0.334 v 6.627 A 14.222,14.222 0 0 1 10.688,13.024 c 0.134,-0.335 0,-0.668 -0.335,-0.802 a 0.736,0.736 0 0 0 -0.2,-0.033 0.636,0.636 0 0 0 -0.603,0.401 15.427,15.427 0 0 0 13.786,20.881 v -7.83 h 1.306 v 7.83 a 15.427,15.427 0 0 0 13.82,-20.848 0.636,0.636 0 0 0 -0.837,-0.368 0.636,0.636 0 0 0 -0.368,0.568 l 0.035,0.201 A 14.155,14.155 0 0 1 25.88,32.098 v -6.625 l 1.238,-0.335 v 5.556 A 13.05,13.05 0 0 0 30.063,6.532 0.602,0.602 0 0 0 30.003,6.529 Z m -9.77,14.46 a 1.238,1.238 0 0 1 0.025,0 c 0.335,0 0.67,0.167 0.87,0.401 0.234,0.235 0.401,0.536 0.401,0.87 -0.033,0.368 -0.167,0.67 -0.401,0.905 a 1.238,1.238 0 0 1 -0.87,0.368 c -0.334,0 -0.67,-0.134 -0.904,-0.368 A 1.171,1.171 0 0 1 18.987,22.26 c 0,-0.334 0.132,-0.669 0.367,-0.87 a 1.238,1.238 0 0 1 0.878,-0.4 z m 7.487,0 c 0.368,0 0.67,0.167 0.904,0.401 0.235,0.235 0.369,0.536 0.369,0.87 0,0.368 -0.134,0.67 -0.369,0.905 a 1.238,1.238 0 0 1 -0.904,0.368 c -0.335,0 -0.669,-0.134 -0.87,-0.368 A 1.238,1.238 0 0 1 26.449,22.26 c 0,-0.334 0.167,-0.669 0.401,-0.87 a 1.238,1.238 0 0 1 0.87,-0.4 z"
     id="path25"
     style="fill:url(#e)"
     inkscape:connector-curvature="0" />
</svg>
