<?xml version="1.0" encoding="UTF-8" standalone="no"?>
<svg
   xmlns:dc="http://purl.org/dc/elements/1.1/"
   xmlns:cc="http://creativecommons.org/ns#"
   xmlns:rdf="http://www.w3.org/1999/02/22-rdf-syntax-ns#"
   xmlns:svg="http://www.w3.org/2000/svg"
   xmlns="http://www.w3.org/2000/svg"
   xmlns:xlink="http://www.w3.org/1999/xlink"
   xmlns:sodipodi="http://sodipodi.sourceforge.net/DTD/sodipodi-0.dtd"
   xmlns:inkscape="http://www.inkscape.org/namespaces/inkscape"
   width="48"
   height="48"
   viewBox="0 0 12.7 12.7"
   version="1.1"
   id="svg43"
   sodipodi:docname="gnome-panel.svg"
   inkscape:version="0.92.4 (5da689c313, 2019-01-14)">
  <sodipodi:namedview
     pagecolor="#ffffff"
     bordercolor="#666666"
     borderopacity="1"
     objecttolerance="10"
     gridtolerance="10"
     guidetolerance="10"
     inkscape:pageopacity="0"
     inkscape:pageshadow="2"
     inkscape:window-width="1112"
     inkscape:window-height="480"
     id="namedview45"
     showgrid="false"
     inkscape:zoom="4.9166667"
     inkscape:cx="2.1355932"
     inkscape:cy="24"
     inkscape:window-x="0"
     inkscape:window-y="25"
     inkscape:window-maximized="0"
     inkscape:current-layer="svg43" />
  <metadata
     id="metadata2">
    <rdf:RDF>
      <cc:Work>
        <dc:format>image/svg+xml</dc:format>
        <dc:type
           rdf:resource="http://purl.org/dc/dcmitype/StillImage" />
        <dc:title></dc:title>
      </cc:Work>
    </rdf:RDF>
  </metadata>
  <defs
     id="defs29">
    <linearGradient
       id="c">
      <stop
         offset="0"
         stop-color="#020000"
         id="stop4" />
      <stop
         offset="1"
         stop-opacity="0"
         id="stop6" />
    </linearGradient>
    <linearGradient
       id="b">
      <stop
         offset="0"
         stop-color="#7c6f91"
         id="stop9" />
      <stop
         offset=".21"
         stop-color="#c4b7c8"
         id="stop11" />
      <stop
         offset=".36"
         stop-color="#453748"
         id="stop13" />
      <stop
         offset=".42"
         stop-color="#8a6f91"
         id="stop15" />
      <stop
         offset=".59"
         stop-color="#c4b7c8"
         id="stop17" />
      <stop
         offset="1"
         stop-color="#e2dbe3"
         id="stop19" />
    </linearGradient>
    <linearGradient
       id="a">
      <stop
         offset="0"
         id="stop22" />
      <stop
         offset="1"
         stop-opacity="0"
         id="stop24" />
    </linearGradient>
    <linearGradient
       xlink:href="#b"
       id="d"
       x1="6.24"
       y1="-.12"
       x2="6.24"
       y2="13.41"
       gradientUnits="userSpaceOnUse" />
    <linearGradient
       xlink:href="#c"
       id="e"
       gradientUnits="userSpaceOnUse"
       x1="3.58"
       y1="6.69"
       x2="13.22"
       y2="13.22" />
  </defs>
  <path
     d="M 6.35,0.1 C 4.81,0.1 3.57,0.38 2.66,0.96 A 3.67,3.67 0 0 0 1,4.22 c 0,1.91 1.54,4.47 2.01,5.2 0.54,0.85 1.13,1.61 1.65,2.16 0.68,0.7 1.21,1.03 1.69,1.03 0.48,0 1.01,-0.33 1.69,-1.03 A 15.2,15.2 0 0 0 9.69,9.43 c 0.47,-0.74 2,-3.3 2,-5.21 0,-1.42 -0.57,-2.54 -1.65,-3.25 A 6.75,6.75 0 0 0 6.35,0.1 Z"
     id="path31"
     style="fill:url(#d)"
     inkscape:connector-curvature="0" />
  <path
     d="M 7.48,12.05 C 7.66,11.91 7.83,11.79 8.04,11.58 A 15.2,15.2 0 0 0 9.69,9.43 c 0.1,-0.15 0.32,-0.61 0.5,-0.9 L 8.01,6.35 7.14,7.15 6.48,6.48 6.14,7.33 5.6,6.78 5.38,7.49 5.9,8.01 5.77,8.15 4.96,7.34 4.85,7.95 l 0.6,0.6 0.02,1.5 z"
     id="path33"
     style="opacity:0.45;fill:url(#e)"
     inkscape:connector-curvature="0" />
  <path
     d="M 1.37,2.42 A 3.67,3.67 0 0 0 1.07,3.33 3.67,3.67 0 0 0 1,4.22 C 1,4.39 1.02,4.6 1.04,4.8 h 10.6 A 4.53,4.53 0 0 0 11.58,3.21 3.74,3.74 0 0 0 11.3,2.42 Z"
     id="path35"
     inkscape:connector-curvature="0"
     style="color:#000000;fill:#d4fbc1" />
  <path
     d="m 2.13,3.22 h 0.8 v 0.8 h -0.8 z m 1.33,0 h 0.79 v 0.8 h -0.8 z m 1.32,0 h 0.8 v 0.8 H 4.78 Z M 7.95,3.48 H 10.6 V 3.75 H 7.95 Z"
     id="path37"
     inkscape:connector-curvature="0"
     style="color:#000000;fill:#333333" />
  <path
     d="M 6.35,0.1 C 4.81,0.1 3.57,0.38 2.66,0.96 A 3.67,3.67 0 0 0 1,4.22 c 0,1.91 1.54,4.47 2.01,5.2 0.54,0.85 1.13,1.61 1.65,2.16 0.68,0.7 1.21,1.03 1.69,1.03 0.48,0 1.01,-0.33 1.69,-1.03 A 15.2,15.2 0 0 0 9.69,9.43 c 0.47,-0.74 2,-3.3 2,-5.21 0,-1.42 -0.57,-2.54 -1.65,-3.25 A 6.75,6.75 0 0 0 6.35,0.1 Z m 0,0.03 C 6.91,0.15 7.44,0.2 7.9,0.31 a 5.82,5.82 0 0 1 1.6,0.66 3.65,3.65 0 0 1 1.24,1.36 c 0.14,0.27 0.25,0.57 0.32,0.88 A 4.61,4.61 0 0 1 10.92,5.74 C 10.77,6.26 10.56,6.78 10.34,7.26 9.9,8.23 9.39,9.06 9.16,9.43 A 15.2,15.2 0 0 1 7.51,11.58 4.9,4.9 0 0 1 6.59,12.36 0.96,0.96 0 0 1 6.35,12.46 0.96,0.96 0 0 1 6.11,12.36 4.76,4.76 0 0 1 5.19,11.58 14.41,14.41 0 0 1 3.54,9.43 19.2,19.2 0 0 1 2.36,7.26 C 2.14,6.78 1.93,6.26 1.78,5.74 A 4.6,4.6 0 0 1 1.64,3.22 3.73,3.73 0 0 1 2.48,1.58 3.65,3.65 0 0 1 3.93,0.58 6.83,6.83 0 0 1 6.35,0.13 Z"
     id="path39"
     inkscape:connector-curvature="0"
     style="opacity:0.2" />
  <path
     d="m 7.7,6.26 c -0.87,0 -1.04,1.26 -0.54,1.26 0.5,0 1.44,-1.26 0.55,-1.26 z M 6.3,6.42 C 5.8,6.48 5.98,7.34 6.24,7.36 6.51,7.37 6.8,6.35 6.3,6.42 Z M 5.47,6.75 5.4,6.77 C 5,6.94 5.34,7.62 5.56,7.57 5.78,7.53 5.79,6.71 5.47,6.75 Z M 4.85,7.29 c -0.04,0 -0.07,0 -0.11,0.04 C 4.42,7.55 4.84,8.08 5.03,7.99 5.2,7.92 5.1,7.3 4.85,7.29 Z m 1.82,0.4 c -0.68,0 -1.59,0.33 -1.73,1.02 -0.17,0.75 0.68,1.8 1.57,1.8 A 1.15,1.15 0 0 0 7.55,9.59 C 7.62,9.22 6.68,9.38 6.73,9.62 6.77,9.92 6.51,10.08 6.25,9.88 5.43,9.26 7.61,8.94 7.46,8.09 7.42,7.83 7.09,7.71 6.67,7.69 Z"
     id="path41"
     inkscape:connector-curvature="0"
     style="fill:#333333;stroke-width:0.69" />
</svg>
