<svg xmlns="http://www.w3.org/2000/svg" xmlns:xlink="http://www.w3.org/1999/xlink" width="48" height="48"><defs><linearGradient id="a"><stop offset="0" stop-color="#0a8"/><stop offset="1" stop-color="#006680"/></linearGradient><linearGradient xlink:href="#a" id="b" x1="3.5" y1="47.88" x2="3.4" y2=".41" gradientUnits="userSpaceOnUse"/></defs><path d="M23.71.5C17.88.5 13.2 1.6 9.78 3.82 5.68 6.48 3.5 10.73 3.5 16.1c0 7.22 5.8 16.88 7.58 19.67a54.48 54.48 0 006.25 8.16c2.54 2.64 4.57 3.87 6.37 3.87 1.8 0 3.83-1.23 6.37-3.87 2-2.08 4.22-4.98 6.25-8.16 1.78-2.79 7.59-12.45 7.59-19.67 0-5.37-2.17-9.62-6.27-12.27C34.24 1.6 29.55.49 23.7.49z" fill="url(#b)"/><path d="M23.71.5C17.88.5 13.2 1.62 9.78 3.83c-4.1 2.66-6.27 6.9-6.27 12.27 0 7.23 5.8 16.89 7.58 19.68a54.48 54.48 0 006.25 8.15c2.54 2.65 4.57 3.88 6.37 3.88 1.8 0 3.83-1.23 6.37-3.88 2-2.07 4.22-4.97 6.25-8.15 1.78-2.8 7.59-12.45 7.59-19.68 0-5.37-2.17-9.61-6.27-12.27C34.24 1.62 29.55.5 23.7.5zm0 .14c2.12.09 4.12.28 5.88.7 1.16.27 2.25.62 3.26 1.04 1.01.41 1.95.9 2.8 1.45a12.92 12.92 0 014.67 5.12 14.1 14.1 0 011.2 3.34c.26 1.2.4 2.47.4 3.81 0 1.81-.37 3.77-.94 5.73a43.19 43.19 0 01-2.19 5.78 69.59 69.59 0 01-4.46 8.17 54.47 54.47 0 01-6.25 8.15 17.98 17.98 0 01-3.46 2.93c-.32.2-.62.3-.9.4-.3-.1-.6-.2-.92-.4a17.72 17.72 0 01-3.46-2.93 54.5 54.5 0 01-6.25-8.15 69.6 69.6 0 01-4.46-8.17 43.19 43.19 0 01-2.19-5.78 20.93 20.93 0 01-.93-5.73c0-1.34.13-2.61.4-3.8.27-1.2.67-2.32 1.2-3.35a12.92 12.92 0 014.67-5.12 17.1 17.1 0 012.8-1.45c1-.42 2.1-.77 3.26-1.04C19.59.92 21.6.73 23.7.64z" opacity=".2"/><g transform="matrix(.74561 0 0 .74561 -6.69 -8.21)" color="#000"><path d="M26.071 19.56a.47.47 0 00-.471.471v9.978c0 .262.21.471.471.471h9.458A.47.47 0 0036 30.01v-9.978a.47.47 0 00-.471-.471z" fill="#00112b" fill-opacity=".292"/><rect ry=".473" rx=".473" height="10.4" width="10.4" y="18.52" x="24.56" fill="#00222b"/><rect ry=".473" rx=".473" height="10.4" width="10.4" y="19.04" x="24.56" fill="#d2e2de"/><path d="M25.032 19.04a.47.47 0 00-.472.472v9.456a.47.47 0 00.295.437.469.469 0 01-.035-.177v-9.456a.47.47 0 01.472-.472h9.456c.063 0 .122.013.177.036a.47.47 0 00-.437-.296z" fill="#fff"/></g><g transform="matrix(.74561 0 0 .74561 1.423 -8.21)" color="#000"><path d="M26.071 19.56a.47.47 0 00-.471.471v9.978c0 .262.21.471.471.471h9.458A.47.47 0 0036 30.01v-9.978a.47.47 0 00-.471-.471z" fill="#00112b" fill-opacity=".292"/><rect ry=".473" rx=".473" height="10.4" width="10.4" y="18.52" x="24.56" fill="#00222b"/><rect ry=".473" rx=".473" height="10.4" width="10.4" y="19.04" x="24.56" fill="#d2e2de"/><path d="M25.032 19.04a.47.47 0 00-.472.472v9.456a.47.47 0 00.295.437.469.469 0 01-.035-.177v-9.456a.47.47 0 01.472-.472h9.456c.063 0 .122.013.177.036a.47.47 0 00-.437-.296z" fill="#fff"/></g><g transform="matrix(.74561 0 0 .74561 -6.69 .009)" color="#000"><path d="M26.071 19.56a.47.47 0 00-.471.471v9.978c0 .262.21.471.471.471h9.458A.47.47 0 0036 30.01v-9.978a.47.47 0 00-.471-.471z" fill="#00112b" fill-opacity=".292"/><rect ry=".473" rx=".473" height="10.4" width="10.4" y="18.52" x="24.56" fill="#00222b"/><rect ry=".473" rx=".473" height="10.4" width="10.4" y="19.04" x="24.56" fill="#d2e2de"/><path d="M25.032 19.04a.47.47 0 00-.472.472v9.456a.47.47 0 00.295.437.469.469 0 01-.035-.177v-9.456a.47.47 0 01.472-.472h9.456c.063 0 .122.013.177.036a.47.47 0 00-.437-.296z" fill="#fff"/></g><g transform="matrix(.74561 0 0 .74561 -6.69 8.227)" color="#000"><path d="M26.071 19.56a.47.47 0 00-.471.471v9.978c0 .262.21.471.471.471h9.458A.47.47 0 0036 30.01v-9.978a.47.47 0 00-.471-.471z" fill="#00112b" fill-opacity=".292"/><rect ry=".473" rx=".473" height="10.4" width="10.4" y="18.52" x="24.56" fill="#00222b"/><rect ry=".473" rx=".473" height="10.4" width="10.4" y="19.04" x="24.56" fill="#d2e2de"/><path d="M25.032 19.04a.47.47 0 00-.472.472v9.456a.47.47 0 00.295.437.469.469 0 01-.035-.177v-9.456a.47.47 0 01.472-.472h9.456c.063 0 .122.013.177.036a.47.47 0 00-.437-.296z" fill="#fff"/></g><g transform="matrix(.74561 0 0 .74561 1.423 .009)" color="#000"><path d="M26.071 19.56a.47.47 0 00-.471.471v9.978c0 .262.21.471.471.471h9.458A.47.47 0 0036 30.01v-9.978a.47.47 0 00-.471-.471z" fill="#00112b" fill-opacity=".292"/><rect ry=".473" rx=".473" height="10.4" width="10.4" y="18.52" x="24.56" fill="#00222b"/><rect ry=".473" rx=".473" height="10.4" width="10.4" y="19.04" x="24.56" fill="#d2e2de"/><path d="M25.032 19.04a.47.47 0 00-.472.472v9.456a.47.47 0 00.295.437.469.469 0 01-.035-.177v-9.456a.47.47 0 01.472-.472h9.456c.063 0 .122.013.177.036a.47.47 0 00-.437-.296z" fill="#fff"/></g><g transform="matrix(.74561 0 0 .74561 9.535 -8.21)" color="#000"><path d="M26.071 19.56a.47.47 0 00-.471.471v9.978c0 .262.21.471.471.471h9.458A.47.47 0 0036 30.01v-9.978a.47.47 0 00-.471-.471z" fill="#00112b" fill-opacity=".292"/><rect ry=".473" rx=".473" height="10.4" width="10.4" y="18.52" x="24.56" fill="#00222b"/><rect ry=".473" rx=".473" height="10.4" width="10.4" y="19.04" x="24.56" fill="#d2e2de"/><path d="M25.032 19.04a.47.47 0 00-.472.472v9.456a.47.47 0 00.295.437.469.469 0 01-.035-.177v-9.456a.47.47 0 01.472-.472h9.456c.063 0 .122.013.177.036a.47.47 0 00-.437-.296z" fill="#fff"/></g><g transform="matrix(.74561 0 0 .74561 9.535 .009)" color="#000"><path d="M26.071 19.56a.47.47 0 00-.471.471v9.978c0 .262.21.471.471.471h9.458A.47.47 0 0036 30.01v-9.978a.47.47 0 00-.471-.471z" fill="#00112b" fill-opacity=".292"/><rect ry=".473" rx=".473" height="10.4" width="10.4" y="18.52" x="24.56" fill="#00222b"/><rect ry=".473" rx=".473" height="10.4" width="10.4" y="19.04" x="24.56" fill="#d2e2de"/><path d="M25.032 19.04a.47.47 0 00-.472.472v9.456a.47.47 0 00.295.437.469.469 0 01-.035-.177v-9.456a.47.47 0 01.472-.472h9.456c.063 0 .122.013.177.036a.47.47 0 00-.437-.296z" fill="#fff"/></g><path d="M23.59 7.711c-.358 0-.65.088-.874.266a.879.879 0 00-.336.726c0 .233.072.433.21.603.14.17.322.293.544.366-.268.093-.475.23-.621.414a1.061 1.061 0 00-.218.677c0 .223.062.415.18.577.121.163.275.283.467.36.191.076.408.114.647.114.37 0 .677-.093.922-.278.244-.184.366-.44.366-.773 0-.253-.076-.478-.226-.677a1.189 1.189 0 00-.603-.422c.228-.082.409-.204.54-.366a.915.915 0 00.2-.595c0-.307-.11-.549-.333-.726-.22-.178-.51-.266-.866-.266zm0 .337c.231 0 .416.059.554.177a.577.577 0 01.207.466.774.774 0 01-.192.537c-.128.142-.316.241-.57.296-.251-.057-.445-.156-.577-.296a.766.766 0 01-.192-.537c0-.193.07-.347.21-.466.143-.118.33-.177.56-.177zm0 1.794c.257.055.46.161.617.314.159.154.24.34.24.563 0 .496-.285.743-.858.743-.28 0-.498-.062-.647-.192-.148-.13-.222-.312-.222-.547 0-.23.078-.42.237-.57.158-.15.372-.254.632-.311zM14.063 7.765l.052.366h1.791l-1.378 3.627h.454l1.4-3.67v-.323z" color="#f2f2f2" fill="#0b2228"/><g transform="matrix(.74561 0 0 .74561 1.423 8.227)" color="#000"><path d="M26.071 19.56a.47.47 0 00-.471.471v9.978c0 .262.21.471.471.471h9.458A.47.47 0 0036 30.01v-9.978a.47.47 0 00-.471-.471z" fill="#00112b" fill-opacity=".292"/><rect ry=".473" rx=".473" height="10.4" width="10.4" y="18.52" x="24.56" fill="#00222b"/><rect ry=".473" rx=".473" height="10.4" width="10.4" y="19.04" x="24.56" fill="#d2e2de"/><path d="M25.032 19.04a.47.47 0 00-.472.472v9.456a.47.47 0 00.295.437.469.469 0 01-.035-.177v-9.456a.47.47 0 01.472-.472h9.456c.063 0 .122.013.177.036a.47.47 0 00-.437-.296z" fill="#fff"/></g><path d="M31.81 7.765a1.89 1.89 0 01-.427.2 3.73 3.73 0 01-.486.139v.36c.122-.016.27-.051.442-.106.176-.055.32-.114.436-.177v3.25h-.963v.327h2.276v-.328h-.86V7.765zM22.55 15.94l-.076 2.108.365.043a1.017 1.017 0 01.709-.292c.184 0 .337.042.46.123.124.08.213.184.266.311.052.126.078.269.078.43 0 .295-.081.525-.245.688-.162.162-.379.243-.651.243-.306 0-.634-.1-.985-.298l-.155.352c.395.22.784.33 1.17.33.187 0 .36-.028.52-.084.16-.057.3-.139.42-.246a1.09 1.09 0 00.284-.417c.069-.171.103-.362.103-.575 0-.224-.045-.426-.136-.606a1.041 1.041 0 00-.409-.438c-.183-.113-.4-.17-.649-.17-.272 0-.515.073-.728.216l.044-1.358h1.674l.035-.36zM15.588 15.942l-.896 1.32a8.484 8.484 0 00-.247.373 4.072 4.072 0 00-.18.332 1.553 1.553 0 00-.17.763c0 .163.028.323.085.472.056.149.138.282.243.398.105.114.238.204.402.273.163.069.346.103.546.103.381 0 .69-.118.925-.354a1.2 1.2 0 00.354-.881c0-.344-.118-.628-.354-.852a1.177 1.177 0 00-.84-.335c-.202 0-.39.049-.565.15.111-.148.204-.28.284-.397l.93-1.365zm-.214 1.962c.26 0 .465.08.612.236a.829.829 0 01.225.6.918.918 0 01-.228.628c-.151.169-.358.25-.624.25-.263 0-.466-.081-.612-.247a.894.894 0 01-.22-.612.98.98 0 01.055-.335.703.703 0 01.143-.244.795.795 0 01.2-.158.972.972 0 01.45-.118zM32.174 15.968l-1.78 2.585v.394h1.81v1.003h.431v-1.003h.454l.033-.35h-.487v-2.629zm.03.564v2.065h-1.36zM23.55 23.894c-.415 0-.809.113-1.18.34l.167.38c.336-.193.67-.29.997-.29.241 0 .437.061.586.184.15.122.227.31.231.561v.022c0 .536-.368.804-1.103.804h-.134v.418h.131c.152 0 .283.007.395.022.115.013.226.042.334.084.108.04.196.093.265.162a.705.705 0 01.165.27c.042.113.063.247.063.403 0 .283-.076.499-.225.648-.15.15-.358.224-.624.224-.33 0-.709-.109-1.137-.327v.468c.385.201.769.302 1.153.302.397 0 .723-.113.979-.34.258-.228.39-.553.395-.975v-.022c0-.31-.086-.562-.261-.758a1.225 1.225 0 00-.689-.383c.553-.143.83-.49.83-1.038v-.018a1.084 1.084 0 00-.676-1.019 1.71 1.71 0 00-.662-.122zM15.552 23.925c-.233 0-.462.034-.688.103-.227.067-.41.15-.549.252l.153.396a2.002 2.002 0 011.028-.314c.08 0 .155.008.228.022a.815.815 0 01.227.077.657.657 0 01.203.147.677.677 0 01.14.24c.037.101.056.219.056.352 0 .122-.012.235-.037.337-.023.1-.067.202-.131.308a2.807 2.807 0 01-.171.256c-.05.064-.132.163-.247.296l-1.467 1.733.08.408h2.434l.029-.374h-1.96l1.22-1.43c.148-.173.263-.315.344-.425.083-.11.159-.228.227-.355.07-.128.118-.255.143-.38.027-.124.041-.266.041-.424 0-.18-.027-.343-.08-.486a.988.988 0 00-.213-.352 1.305 1.305 0 00-.654-.35 1.657 1.657 0 00-.356-.037z" color="#f2f2f2" fill="#0b2228"/></svg>