<svg xmlns="http://www.w3.org/2000/svg" xmlns:xlink="http://www.w3.org/1999/xlink" width="48" height="48"><defs><linearGradient id="g"><stop offset="0" stop-color="#501616"/><stop offset="1" stop-color="#de8787"/></linearGradient><linearGradient id="f"><stop offset="0"/><stop offset="1" stop-opacity="0"/></linearGradient><linearGradient id="d"><stop offset="0" stop-color="#000003"/><stop offset="1" stop-opacity="0"/></linearGradient><linearGradient id="c"><stop offset="0" stop-color="#f4d7d7"/><stop offset=".79" stop-color="#c83737"/><stop offset=".88" stop-color="#c83737"/><stop offset="1" stop-color="#c83737"/></linearGradient><linearGradient id="a"><stop offset="0" stop-color="#1a1a1a"/><stop offset="1" stop-color="#fff"/></linearGradient><clipPath id="j"><circle r="99.09" cy="661.71" cx="513.65" transform="translate(-816.25 -161.96) scale(1.01142)" stroke-width="2.8" stroke-linecap="round" stroke-linejoin="round"/></clipPath><filter id="k" x="-.11" width="1.22" y="-.21" height="1.42"><feGaussianBlur stdDeviation="9.12"/></filter><filter id="l"><feGaussianBlur stdDeviation="3.04"/></filter><radialGradient xlink:href="#b" id="m" cx="87.26" cy="48.89" fx="87.26" fy="99.35" r="74.64" gradientUnits="userSpaceOnUse" gradientTransform="matrix(.12234 0 0 .09238 13.52 21.74)"/><linearGradient id="b"><stop offset="0" stop-color="#fff" stop-opacity=".43"/><stop offset="1" stop-color="#fff" stop-opacity="0"/></linearGradient><radialGradient xlink:href="#e" id="n" cx="24" cy="42.72" fx="24" fy="42.72" r="2.55" gradientTransform="matrix(.6819 0 0 .61308 7.62 9.25)" gradientUnits="userSpaceOnUse"/><linearGradient id="e"><stop offset="0" stop-color="#b3b3b3"/><stop offset="1" stop-color="#666"/></linearGradient><radialGradient xlink:href="#e" id="o" cx="5.33" cy="13.96" fx="5.33" fy="13.96" r="2.49" gradientTransform="matrix(.90614 .19932 -.14315 .6508 8.42 5.68)" gradientUnits="userSpaceOnUse"/><radialGradient xlink:href="#e" id="p" cx="10.28" cy="22.95" fx="10.28" fy="22.95" r="2.55" gradientTransform="matrix(.6819 0 0 .56763 7.62 8.95)" gradientUnits="userSpaceOnUse"/><radialGradient xlink:href="#e" id="q" cx="23.09" cy="22.01" fx="23.09" fy="22.01" r="2.48" gradientTransform="matrix(.6819 0 0 .68878 7.62 6.15)" gradientUnits="userSpaceOnUse"/><radialGradient xlink:href="#e" id="r" cx="5.33" cy="13.96" fx="5.33" fy="13.96" r="2.49" gradientTransform="matrix(-.90614 .19932 .14315 .6508 39.55 5.7)" gradientUnits="userSpaceOnUse"/><radialGradient xlink:href="#e" id="s" cx="10.28" cy="22.95" fx="10.28" fy="22.95" r="2.55" gradientTransform="matrix(-.6819 0 0 .56763 40.35 8.95)" gradientUnits="userSpaceOnUse"/><radialGradient xlink:href="#e" id="t" cx="10.28" cy="22.95" fx="10.28" fy="22.95" r="2.55" gradientTransform="matrix(-.36688 .5748 .47847 .3054 21.73 .37)" gradientUnits="userSpaceOnUse"/><radialGradient xlink:href="#e" id="u" cx="10.28" cy="22.95" fx="10.28" fy="22.95" r="2.55" gradientTransform="matrix(.36688 .5748 -.47847 .3054 26.29 .34)" gradientUnits="userSpaceOnUse"/><radialGradient xlink:href="#e" id="v" cx="10.28" cy="22.95" fx="10.28" fy="22.95" r="2.55" gradientTransform="matrix(.36688 -.5748 -.47847 -.3054 26.29 42.9)" gradientUnits="userSpaceOnUse"/><radialGradient xlink:href="#e" id="w" cx="10.28" cy="22.95" fx="10.28" fy="22.95" r="2.55" gradientTransform="matrix(-.36688 -.5748 .47847 -.3054 21.75 42.97)" gradientUnits="userSpaceOnUse"/><radialGradient xlink:href="#e" id="x" cx="5.33" cy="13.96" fx="5.33" fy="13.96" r="2.49" gradientTransform="matrix(.90614 -.19932 -.14315 -.6508 8.45 38.31)" gradientUnits="userSpaceOnUse"/><radialGradient xlink:href="#e" id="y" cx="5.33" cy="13.96" fx="5.33" fy="13.96" r="2.49" gradientTransform="matrix(-.90614 -.19932 .14315 -.6508 39.58 38.33)" gradientUnits="userSpaceOnUse"/><radialGradient xlink:href="#e" id="z" cx="24" cy="42.72" fx="24" fy="42.72" r="2.55" gradientTransform="matrix(.6819 0 0 -.61308 7.69 34.75)" gradientUnits="userSpaceOnUse"/><linearGradient xlink:href="#f" id="i" gradientUnits="userSpaceOnUse" x1=".91" y1="5.84" x2="51.14" y2="39.3"/><linearGradient xlink:href="#g" id="h" x1="3.29" y1="9.86" x2="42.4" y2="35.83" gradientUnits="userSpaceOnUse"/></defs><path d="M24 .35c-5.83 0-10.52 1.12-13.93 3.33-4.1 2.66-6.27 6.9-6.27 12.27 0 7.23 5.8 16.88 7.58 19.67a54.48 54.48 0 0 0 6.25 8.16c2.54 2.64 4.57 3.87 6.37 3.87 1.8 0 3.83-1.23 6.37-3.87 2-2.08 4.22-4.97 6.25-8.16 1.78-2.79 7.58-12.44 7.58-19.67 0-5.37-2.16-9.61-6.26-12.27C34.52 1.47 29.84.35 24 .35z" fill="url(#h)"/><path d="M28.47 45.38c.63-.51 1.2-.88 1.9-1.6 2-2.08 4.22-4.97 6.25-8.16.89-1.4 2.79-4.5 4.46-8.17.83-1.83 1.61-3.8 2.19-5.77.18-.63.16-1.21.3-1.84l-6.75-6.75-2.96 1.95-2.9-2.9-6.23-6.23-1.1 6.63L16 25.64l-4.82 2.45z" fill="url(#i)"/><path d="M3.92 14.74c-.02.4-.12.78-.12 1.2 0 7.24 5.8 16.9 7.58 19.68a54.47 54.47 0 0 0 6.25 8.16c2.54 2.64 4.57 3.87 6.37 3.87 1.8 0 3.83-1.23 6.37-3.87 2-2.08 4.22-4.97 6.25-8.16 1.78-2.79 7.58-12.44 7.58-19.67 0-.43-.1-.8-.12-1.21a21.6 21.6 0 0 1-.8 4.94 43.2 43.2 0 0 1-2.2 5.77 69.59 69.59 0 0 1-4.46 8.17 54.47 54.47 0 0 1-6.25 8.16 17.98 17.98 0 0 1-3.46 2.93c-1.05.64-2 .94-2.9.94-.91 0-1.87-.3-2.92-.94-1.05-.64-2.2-1.6-3.46-2.93-2-2.08-4.21-4.97-6.25-8.16a69.6 69.6 0 0 1-4.46-8.17 43.2 43.2 0 0 1-2.19-5.77 21.6 21.6 0 0 1-.8-4.94z" opacity=".5"/><ellipse ry="12.29" rx="12.17" cy="20.55" cx="23.99"/><g clip-path="url(#j)" transform="matrix(.12148 0 0 .12334 60.03 -41.95)" opacity=".77" fill="#fff"><path d="M-296.74 402.1c-55.32 0-100.2 44.9-100.2 100.22 0 1.62.06 3.24.13 4.84 2.69-52.92 46.47-95.06 100.07-95.06 53.59 0 97.4 42.14 100.09 95.06.08-1.6.12-3.22.12-4.84 0-55.32-44.9-100.22-100.21-100.22z" filter="url(#k)"/><path d="M-296.74 399.1c-55.32 0-100.2 44.9-100.2 100.22 0 1.62.06 3.24.13 4.84 2.69-52.92 46.47-95.06 100.07-95.06 53.59 0 97.4 42.14 100.09 95.06.08-1.6.12-3.22.12-4.84 0-55.32-44.9-100.22-100.21-100.22z" filter="url(#l)"/></g><ellipse cx="24.19" cy="26.26" rx="9.13" ry="6.89" fill="url(#m)"/><g transform="translate(0 -1.45)"><path d="M25.66 34.16l-.77-.18a4 4 0 0 0-1.82 0l-.8.19s-.24-.1.72 1.84c1.11 2.25 2.08-.02 2.08-.02.5-1.14.63-1.63.65-1.79.01-.04-.02-.03-.06-.04z" fill="url(#n)"/><path d="M12.68 17.41c.03.03.04 0 .07-.03l.54-.58c.41-.46.73-1 .9-1.6l.24-.79s.2-.17-1.94-.3c-2.48-.14-1.02 1.83-1.02 1.83a9.18 9.18 0 0 0 1.2 1.47z" fill="url(#o)"/><path d="M16.6 20.6c-.64 0-2.47.64-2.47 1.44 0 .8 1.84 1.44 2.47 1.44.87 0 1-.64 1-1.44 0-.8-.06-1.45-1-1.45z" fill="url(#p)"/><ellipse ry="1.71" rx="1.69" cy="21.99" cx="23.99" fill="url(#q)"/><path d="M35.3 17.43c-.04.03-.05 0-.07-.03l-.54-.59c-.42-.45-.73-1-.91-1.59l-.24-.8s-.2-.16 1.94-.29c2.48-.14 1.02 1.83 1.02 1.83a9.18 9.18 0 0 1-1.2 1.47z" fill="url(#r)"/><path d="M31.37 20.6c.64 0 2.47.64 2.47 1.44 0 .8-1.84 1.44-2.47 1.44-.87 0-1-.64-1-1.44 0-.8.06-1.45 1-1.45z" fill="url(#s)"/><path d="M26.71 14.2c.35-.54 1.88-1.72 2.55-1.3.67.43.23 2.33-.1 2.86-.48.74-1.1.5-1.77.07-.67-.43-1.18-.83-.68-1.62z" fill="url(#t)"/><path d="M21.3 14.17c-.34-.54-1.87-1.73-2.54-1.3-.68.43-.23 2.33.1 2.86.47.74 1.1.5 1.77.07.67-.43 1.18-.83.67-1.63z" fill="url(#u)"/><path d="M21.3 29.07c-.34.54-1.87 1.73-2.54 1.3-.68-.43-.23-2.32.1-2.85.47-.74 1.1-.5 1.77-.08.67.43 1.18.84.67 1.63z" fill="url(#v)"/><path d="M26.73 29.13c.35.55 1.87 1.73 2.55 1.3.67-.43.23-2.32-.11-2.85-.47-.74-1.09-.5-1.76-.07-.68.42-1.19.83-.68 1.62z" fill="url(#w)"/><path d="M12.7 26.58c.04-.03.05 0 .07.03l.54.59c.42.45.73 1 .91 1.59l.24.8s.2.16-1.94.29c-2.48.14-1.02-1.83-1.02-1.83a9.18 9.18 0 0 1 1.2-1.47z" fill="url(#x)"/><path d="M35.32 26.6c-.03-.03-.04 0-.07.03l-.54.58c-.41.46-.73 1-.9 1.6l-.24.79s-.2.17 1.94.3c2.48.14 1.02-1.83 1.02-1.83a9.18 9.18 0 0 0-1.2-1.47z" fill="url(#y)"/><path d="M25.73 9.84l-.77.18a4 4 0 0 1-1.82 0l-.8-.19s-.24.1.72-1.84c1.11-2.25 2.08.02 2.08.02.5 1.14.63 1.63.65 1.79.01.04-.02.03-.06.04z" fill="url(#z)"/></g></svg>