<?xml version="1.0" encoding="UTF-8" standalone="no"?>
<svg
   xmlns:dc="http://purl.org/dc/elements/1.1/"
   xmlns:cc="http://creativecommons.org/ns#"
   xmlns:rdf="http://www.w3.org/1999/02/22-rdf-syntax-ns#"
   xmlns:svg="http://www.w3.org/2000/svg"
   xmlns="http://www.w3.org/2000/svg"
   xmlns:xlink="http://www.w3.org/1999/xlink"
   xmlns:sodipodi="http://sodipodi.sourceforge.net/DTD/sodipodi-0.dtd"
   xmlns:inkscape="http://www.inkscape.org/namespaces/inkscape"
   width="48"
   height="48"
   version="1.1"
   id="svg58"
   sodipodi:docname="granatier.svg"
   inkscape:version="0.92.4 (5da689c313, 2019-01-14)">
  <metadata
     id="metadata62">
    <rdf:RDF>
      <cc:Work
         rdf:about="">
        <dc:format>image/svg+xml</dc:format>
        <dc:type
           rdf:resource="http://purl.org/dc/dcmitype/StillImage" />
        <dc:title></dc:title>
      </cc:Work>
    </rdf:RDF>
  </metadata>
  <sodipodi:namedview
     pagecolor="#ffffff"
     bordercolor="#666666"
     borderopacity="1"
     objecttolerance="10"
     gridtolerance="10"
     guidetolerance="10"
     inkscape:pageopacity="0"
     inkscape:pageshadow="2"
     inkscape:window-width="1112"
     inkscape:window-height="480"
     id="namedview60"
     showgrid="false"
     inkscape:zoom="4.9166667"
     inkscape:cx="2.1355932"
     inkscape:cy="24"
     inkscape:window-x="0"
     inkscape:window-y="25"
     inkscape:window-maximized="0"
     inkscape:current-layer="svg58" />
  <defs
     id="defs36">
    <linearGradient
       id="d">
      <stop
         offset="0"
         stop-color="#000003"
         id="stop2" />
      <stop
         offset="1"
         stop-opacity="0"
         id="stop4" />
    </linearGradient>
    <linearGradient
       id="c">
      <stop
         offset="0"
         stop-color="#f4d7d7"
         id="stop7" />
      <stop
         offset=".79"
         stop-color="#c83737"
         id="stop9" />
      <stop
         offset=".88"
         stop-color="#c83737"
         id="stop11" />
      <stop
         offset="1"
         stop-color="#c83737"
         id="stop13" />
    </linearGradient>
    <clipPath
       id="g">
      <path
         d="M203.36 387.44c-4.62-.02-9.97 1.1-16.1 3.65a3.45 3.45 0 1 0 2.66 6.35c11.03-4.6 17.06-3.7 21.85-.94 4.79 2.76 8.53 8.1 13.09 13.44a3.45 3.45 0 1 0 5.25-4.47c-4.2-4.92-8.26-11.14-14.9-14.97a23.45 23.45 0 0 0-11.85-3.06z"
         fill="#ffe804"
         fill-rule="evenodd"
         stroke-width="6.9"
         stroke-linecap="round"
         stroke-linejoin="round"
         id="path16" />
    </clipPath>
    <filter
       id="h"
       x="-.07"
       width="1.15"
       y="-.16"
       height="1.32">
      <feGaussianBlur
         stdDeviation="1.41"
         id="feGaussianBlur19" />
    </filter>
    <linearGradient
       xlink:href="#a"
       id="i"
       x1="-101.81"
       y1="364.36"
       x2="-96.49"
       y2="351.33"
       gradientUnits="userSpaceOnUse"
       gradientTransform="matrix(0.23443,0,0,0.23443,41.51,-73.86)" />
    <linearGradient
       id="a">
      <stop
         offset="0"
         stop-color="#1a1a1a"
         id="stop23" />
      <stop
         offset="1"
         stop-color="#fff"
         id="stop25" />
    </linearGradient>
    <radialGradient
       xlink:href="#b"
       id="j"
       cx="87.26"
       cy="48.89"
       fx="87.26"
       fy="99.35"
       r="74.64"
       gradientUnits="userSpaceOnUse"
       gradientTransform="matrix(0.12224,0,0,0.09125,14.58,21)" />
    <linearGradient
       id="b">
      <stop
         offset="0"
         stop-color="#fff"
         stop-opacity=".43"
         id="stop29" />
      <stop
         offset="1"
         stop-color="#fff"
         stop-opacity="0"
         id="stop31" />
    </linearGradient>
    <radialGradient
       xlink:href="#c"
       id="e"
       cx="24.66"
       cy="21.46"
       fx="24.66"
       fy="21.46"
       r="20.2"
       gradientTransform="matrix(1.1913,0.91304,-0.92054,1.2011,15.05,-27.36)"
       gradientUnits="userSpaceOnUse" />
    <linearGradient
       xlink:href="#d"
       id="f"
       gradientUnits="userSpaceOnUse"
       x1="-8.91"
       y1="-11.73"
       x2="57.01"
       y2="47.38" />
  </defs>
  <path
     d="m 24,0.35 c -5.83,0 -10.52,1.12 -13.93,3.33 -4.1,2.66 -6.27,6.9 -6.27,12.27 0,7.23 5.8,16.88 7.58,19.67 a 54.48,54.48 0 0 0 6.25,8.16 c 2.54,2.64 4.57,3.87 6.37,3.87 1.8,0 3.83,-1.23 6.37,-3.87 2,-2.08 4.22,-4.97 6.25,-8.16 C 38.4,32.83 44.2,23.18 44.2,15.95 44.2,10.58 42.04,6.34 37.94,3.68 34.52,1.47 29.84,0.35 24,0.35 Z"
     id="path38"
     style="fill:url(#e)"
     inkscape:connector-curvature="0" />
  <path
     d="m 30.41,43.73 a 54.49,54.49 0 0 0 6.21,-8.1 68,68 0 0 0 4.46,-8.18 43.9,43.9 0 0 0 2.08,-5.47 L 32.57,11.4 l -12.95,0.87 -4.04,-3.7 -1.9,-1.08 -2.43,0.2 -1.38,0.74 7.95,7.95 -1.53,13.23 z"
     id="path40"
     style="opacity:0.55;fill:url(#f)"
     inkscape:connector-curvature="0" />
  <path
     d="m 3.92,14.74 c -0.02,0.4 -0.12,0.78 -0.12,1.2 0,7.24 5.8,16.9 7.58,19.68 a 54.47,54.47 0 0 0 6.25,8.16 c 2.54,2.64 4.57,3.87 6.37,3.87 1.8,0 3.83,-1.23 6.37,-3.87 2,-2.08 4.22,-4.97 6.25,-8.16 1.78,-2.79 7.58,-12.44 7.58,-19.67 0,-0.43 -0.1,-0.8 -0.12,-1.21 a 21.6,21.6 0 0 1 -0.8,4.94 43.2,43.2 0 0 1 -2.2,5.77 69.59,69.59 0 0 1 -4.46,8.17 54.47,54.47 0 0 1 -6.25,8.16 17.98,17.98 0 0 1 -3.46,2.93 c -1.05,0.64 -2,0.94 -2.9,0.94 -0.91,0 -1.87,-0.3 -2.92,-0.94 -1.05,-0.64 -2.2,-1.6 -3.46,-2.93 -2,-2.08 -4.21,-4.97 -6.25,-8.16 A 69.6,69.6 0 0 1 6.92,25.45 43.2,43.2 0 0 1 4.73,19.68 21.6,21.6 0 0 1 3.93,14.74 Z"
     id="path42"
     inkscape:connector-curvature="0"
     style="opacity:0.5" />
  <path
     d="m 12.72,6.99 c -0.77,0 -1.67,0.16 -2.7,0.54 A 0.53,0.53 0 0 0 9.64,7.94 c -0.04,0.19 0.05,0.38 0.23,0.5 0.18,0.1 0.41,0.12 0.6,0.03 1.85,-0.68 2.86,-0.55 3.66,-0.14 0.8,0.41 1.43,1.2 2.19,2 a 0.6,0.6 0 0 0 0.55,0.18 0.57,0.57 0 0 0 0.45,-0.33 A 0.47,0.47 0 0 0 17.2,9.66 C 16.5,8.93 15.82,8.01 14.7,7.44 A 4.32,4.32 0 0 0 12.72,7 Z"
     id="path44"
     inkscape:connector-curvature="0"
     style="fill:#ffe804;fill-rule:evenodd" />
  <g
     id="g50"
     style="fill-rule:evenodd">
    <path
       transform="matrix(0.16735,0,0,0.1482,-21.31,-50.43)"
       clip-path="url(#g)"
       d="m 202.47,391.2 c -3.49,0 -7.74,0.95 -13.25,3.25 -1.16,0.6 -2.54,0.47 -3.6,-0.29 -0.3,-0.22 -0.6,-0.48 -0.81,-0.78 a 3.43,3.43 0 0 0 0.81,4.78 c 1.06,0.76 2.44,0.88 3.6,0.29 11.03,-4.6 17.05,-3.7 21.84,-0.94 4.79,2.76 8.53,8.1 13.1,13.44 0.77,1 2.03,1.49 3.28,1.28 a 3.51,3.51 0 0 0 2.71,-2.32 c 0.36,-1.05 0.16,-2.2 -0.46,-3.09 a 3.43,3.43 0 0 1 -5.53,0.13 c -4.57,-5.33 -8.31,-10.68 -13.1,-13.44 a 16.56,16.56 0 0 0 -8.6,-2.31 z"
       id="path46"
       inkscape:connector-curvature="0"
       style="fill:#f0b400;filter:url(#h)" />
    <path
       d="m 202.47,392.28 c -3.49,0 -7.74,0.95 -13.25,3.25 -1.16,0.6 -2.54,0.48 -3.6,-0.28 -0.3,-0.22 -0.6,-0.48 -0.81,-0.78 a 3.43,3.43 0 0 0 0.81,4.78 c 1.06,0.76 2.44,0.88 3.6,0.28 11.03,-4.6 17.05,-3.7 21.84,-0.93 4.79,2.76 8.53,8.1 13.1,13.43 0.77,1 2.03,1.5 3.28,1.29 a 3.51,3.51 0 0 0 2.71,-2.32 c 0.36,-1.05 0.16,-2.2 -0.46,-3.1 a 3.43,3.43 0 0 1 -5.53,0.13 c -4.57,-5.32 -8.31,-10.67 -13.1,-13.43 a 16.56,16.56 0 0 0 -8.6,-2.32 z"
       clip-path="url(#g)"
       transform="matrix(0.16735,0,0,0.1482,-21.31,-50.43)"
       id="path48"
       inkscape:connector-curvature="0"
       style="fill:#f08400;filter:url(#h)" />
  </g>
  <path
     d="m 15.78,10.58 c 0.51,-0.46 1.16,-0.9 1.83,-1.25 0.33,-0.17 0.72,-0.13 0.93,0.18 l 1.25,1.82 c 0.22,0.31 0.14,0.73 -0.17,0.94 l -1.83,1.25 A 0.67,0.67 0 0 1 16.85,13.35 L 15.6,11.52 c -0.21,-0.3 -0.1,-0.69 0.18,-0.94 z"
     id="path52"
     style="fill:url(#i)"
     inkscape:connector-curvature="0" />
  <circle
     cx="24.799999"
     cy="20.799999"
     r="12.21"
     id="circle54"
     style="fill:#1a1a1a" />
  <ellipse
     cx="25.25"
     cy="25.459999"
     rx="9.1199999"
     ry="6.8099999"
     id="ellipse56"
     style="fill:url(#j)" />
</svg>
