<svg xmlns="http://www.w3.org/2000/svg" xmlns:xlink="http://www.w3.org/1999/xlink" viewBox="0 0 48 48"><defs><linearGradient id="f" x1="28.7" x2="17.74" y1="31.5" y2="18.37" gradientTransform="translate(4.4 .46) scale(.76562)" gradientUnits="userSpaceOnUse"><stop stop-color="#fff" offset="0"/><stop stop-color="#fff" stop-opacity="0" offset="1"/></linearGradient><linearGradient id="e" x1="21.13" x2="29" y1="14.63" y2="28" gradientTransform="translate(0 -1.6) scale(.95703)" gradientUnits="userSpaceOnUse" xlink:href="#a"/><linearGradient id="a"><stop stop-color="#fff" stop-opacity=".33" offset="0"/><stop stop-color="#fff" stop-opacity=".6" offset="1"/></linearGradient><linearGradient id="d" x1="12.27" x2="35.39" y1="32.42" y2="14.2" gradientTransform="translate(1.09 -1.53) scale(.91146)" gradientUnits="userSpaceOnUse"><stop stop-color="#fbfbfb" offset="0"/><stop stop-color="#988484" offset=".5"/><stop stop-color="#e4e4e4" offset="1"/></linearGradient><linearGradient id="c" x1="15" x2="32.51" y1="11.19" y2="34.31" gradientTransform="translate(1.09 -1.53) scale(.91146)" gradientUnits="userSpaceOnUse"><stop stop-color="#ebebeb" offset="0"/><stop stop-color="#fff" offset=".5"/><stop stop-color="#ebebeb" offset="1"/></linearGradient><radialGradient id="g" cx="37.75" cy="27.57" r="21.33" gradientTransform="matrix(.64977 .73348 -.59881 .53045 18.64 -15.33)" gradientUnits="userSpaceOnUse"><stop stop-color="#fff307" offset="0"/><stop stop-color="#166eff" offset=".5"/><stop stop-color="#fff" stop-opacity="0" offset="1"/></radialGradient><radialGradient id="h" cx="26.14" cy="38.81" r="21.33" gradientTransform="matrix(.58915 -.95129 .5132 .31784 -12.35 32.06)" gradientUnits="userSpaceOnUse"><stop stop-color="#b307ff" stop-opacity=".82" offset="0"/><stop stop-color="#f0ff8b" stop-opacity=".64" offset="1"/><stop stop-color="#fff" stop-opacity="0" offset="1"/></radialGradient><linearGradient id="b" x1="13.37" x2="48.28" y1="5.88" y2="36.56" gradientTransform="translate(2.16 .37)" gradientUnits="userSpaceOnUse"><stop offset="0"/><stop stop-opacity="0" offset="1"/></linearGradient><linearGradient id="i" x1="32.88" x2="42.39" y1="21.88" y2="28.85" gradientUnits="userSpaceOnUse"><stop stop-color="#000009" offset="0"/><stop stop-color="#000009" stop-opacity="0" offset="1"/></linearGradient><linearGradient id="j" x1="25.56" x2="39.39" y1="28.23" y2="28.23" gradientUnits="userSpaceOnUse"><stop stop-color="#000009" stop-opacity="0" offset="0"/><stop stop-color="#333" offset="1"/></linearGradient></defs><path fill="#939dac" d="M24 .35c-5.83 0-10.52 1.12-13.93 3.33-4.1 2.66-6.27 6.9-6.27 12.27 0 7.23 5.8 16.88 7.58 19.67a54.47 54.47 0 0 0 6.25 8.16c2.54 2.64 4.57 3.87 6.37 3.87 1.8 0 3.83-1.23 6.37-3.87 2-2.08 4.22-4.97 6.25-8.16 1.78-2.79 7.58-12.44 7.58-19.67 0-5.37-2.16-9.62-6.26-12.27C34.52 1.47 29.84.35 24 .35z"/><path opacity=".2" fill="#1c1f24" d="M3.93 14.74c-.03.4-.13.78-.13 1.2 0 7.24 5.8 16.9 7.58 19.68a54.47 54.47 0 0 0 6.25 8.16c2.54 2.64 4.57 3.87 6.37 3.87 1.8 0 3.83-1.23 6.37-3.87 2-2.08 4.22-4.97 6.25-8.16 1.78-2.79 7.58-12.44 7.58-19.67 0-.43-.1-.8-.13-1.21a21.6 21.6 0 0 1-.8 4.94 43.2 43.2 0 0 1-2.2 5.77 69.59 69.59 0 0 1-4.45 8.17 54.46 54.46 0 0 1-6.25 8.16 17.98 17.98 0 0 1-3.46 2.93c-1.05.64-2 .94-2.91.94-.9 0-1.86-.3-2.9-.94-1.06-.64-2.2-1.6-3.47-2.93-2-2.08-4.22-4.97-6.25-8.16-.89-1.4-2.78-4.5-4.46-8.17a43.2 43.2 0 0 1-2.19-5.77 21.6 21.6 0 0 1-.8-4.94z"/><path opacity=".5" fill="url(#b)" d="M32.16 41.45c1.49-1.79 3-3.55 4.46-5.83.89-1.4 2.78-4.5 4.46-8.17.83-1.83 1.62-3.8 2.19-5.77.57-1.97.93-3.92.93-5.73 0-.96-.15-1.83-.28-2.7l-11.65-7.7-7.15 3.01-7.34 9.22-1.88 15.25z"/><path fill="url(#c)" d="M22.96 3.58c-8.84 0-15.95 7.1-15.95 15.95s7.11 15.95 15.96 15.95 15.95-7.1 15.95-15.95c0-8.84-7.11-15.95-15.96-15.95zm0 19.78c-2.1 0-3.82-1.73-3.82-3.83s1.73-3.83 3.83-3.83 3.82 1.73 3.82 3.83-1.73 3.83-3.83 3.83z" transform="translate(.94 -.38)"/><path fill="url(#d)" d="M22.96 3.58c-8.84 0-15.95 7.1-15.95 15.95s7.11 15.95 15.96 15.95 15.95-7.1 15.95-15.95c0-8.84-7.11-15.95-15.96-15.95zm0 19.78c-2.1 0-3.82-1.73-3.82-3.83s1.73-3.83 3.83-3.83 3.82 1.73 3.82 3.83-1.73 3.83-3.83 3.83z" transform="translate(.94 -.38)"/><path opacity=".11" d="M23.9 11.42a7.74 7.74 0 1 0 .01 15.48 7.74 7.74 0 0 0 0-15.48zm0 11.95a4.25 4.25 0 0 1-4.21-4.22c0-2.3 1.9-4.22 4.22-4.22 2.3 0 4.22 1.91 4.22 4.22 0 2.31-1.91 4.22-4.22 4.22z"/><path fill="url(#e)" d="M27.23 4.73l-2.75 10.71a3.4 3.4 0 0 1 2.02 1.5l9.48-5.78a14.45 14.45 0 0 0-8.75-6.43zM17.57 33.9l3.63-10.46a3.4 3.4 0 0 1-1.89-1.66l-9.93 4.98a14.45 14.45 0 0 0 8.2 7.14z" transform="translate(.94 -.38)"/><path stroke-width=".71" stroke="url(#f)" opacity=".67" fill="none" d="M27.67 19.54a4.67 4.67 0 1 1-9.34 0 4.67 4.67 0 1 1 9.34 0z" transform="translate(.94 -.38)"/><path opacity=".11" fill="url(#g)" d="M22.96 3.58c-8.84 0-15.95 7.1-15.95 15.95s7.11 15.95 15.96 15.95 15.95-7.1 15.95-15.95c0-8.84-7.11-15.95-15.96-15.95zm0 19.78c-2.1 0-3.82-1.73-3.82-3.83s1.73-3.83 3.83-3.83 3.82 1.73 3.82 3.83-1.73 3.83-3.83 3.83z" transform="translate(.94 -.38)"/><path opacity=".1" fill="url(#h)" d="M22.96 3.58c-8.84 0-15.95 7.1-15.95 15.95s7.11 15.95 15.96 15.95 15.95-7.1 15.95-15.95c0-8.84-7.11-15.95-15.96-15.95zm0 19.78c-2.1 0-3.82-1.73-3.82-3.83s1.73-3.83 3.83-3.83 3.82 1.73 3.82 3.83-1.73 3.83-3.83 3.83z" transform="translate(.94 -.38)"/><path opacity=".57" fill="url(#i)" d="M35.22 30.42a15.91 15.91 0 0 0 4.31-8.04l.03-.24-3.18-3.18-4.66 8.15z"/><path fill="#5fd38d" d="M39.38 27.12L32.45 37.5l-6.9-10.38h3.01v-8.15h7.82v8.15h3z"/><path opacity=".5" fill="url(#j)" d="M39.38 27.12L32.45 37.5l-6.9-10.38h3.01v-8.15h7.82v8.15h3z"/></svg>