<?xml version="1.0" encoding="UTF-8" standalone="no"?><svg xmlns:dc="http://purl.org/dc/elements/1.1/" xmlns:cc="http://creativecommons.org/ns#" xmlns:rdf="http://www.w3.org/1999/02/22-rdf-syntax-ns#" xmlns="http://www.w3.org/2000/svg" width="48" height="48"><metadata><rdf:RDF><cc:Work><dc:format>image/svg+xml</dc:format><dc:type rdf:resource="http://purl.org/dc/dcmitype/StillImage"/><dc:title/></cc:Work></rdf:RDF></metadata><defs><linearGradient id="a"><stop offset="0" stop-color="#5aa02c"/><stop offset="1" stop-color="#17280b"/></linearGradient></defs><path d="M24 .35c-5.83 0-10.52 1.12-13.93 3.33-4.1 2.66-6.27 6.9-6.27 12.27 0 7.23 5.8 16.88 7.58 19.67a54.48 54.48 0 0 0 6.25 8.16c2.54 2.64 4.57 3.87 6.37 3.87 1.8 0 3.83-1.23 6.37-3.87 2-2.08 4.22-4.97 6.25-8.16 1.78-2.79 7.58-12.44 7.58-19.67 0-5.37-2.16-9.61-6.26-12.27C34.52 1.47 29.84.35 24 .35z" fill="#c37819"/><path overflow="visible" style="marker:none" d="M24 .35a34 34 0 0 0-7.87.84c-.17.03-.3.1-.46.14-.07.39-.2.88-.34 1.14-.17.34-.16 1.24-.23 1.66.04.05.1.14.36.36.52.43 1.12.56 1.45 1.22.29.58.82 2.06 1.3 2.3.54.27 3.53.6 3.99.15a7.76 7.76 0 0 1 1.15-.94c1.03-.69 2.71-1.4 3.24-2.45.2-.42-.07-.8-.16-1.22-.22-1.14-.45-2.27-1.22-3.04L25.2.48c-.43-.02-.75-.13-1.2-.13zm3.36.36c.26.7.37 1.58.73 2.12.07.1.37.24.39.28.02.06.05.25.12.28.51.26 1.25.62 1.74 1.1.06.06.22.02.28.08.05.04.03.15.07.2.14.14 1.14.4 1.23.36.4-.2 2.25-1.13 2.48-1.36l.12-.23a2.8 2.8 0 0 0 1.22-1c-.21-.1-.38-.23-.6-.31a22.05 22.05 0 0 0-3.26-1.04C30.54.87 28.89.84 27.36.7zm-15.4 2.86a.17.17 0 0 0-.1.05c-.56.57-2.12 1.2-2.45 1.86-.53 1.06-.7 1.82-.94 3.04.16.79 1.01 1.39 1.22 2.02.04.13.32.22.36.3.3.62 1.63 2.28 2.4 1.51.09-.09.35-.12.43-.28.2-.38.47-.65.72-1.02.07-.11.15-.48.2-.51.73-.37 1.4-1.38 2.04-2.02.3-.3.93-.77.64-1.35a2.97 2.97 0 0 0-1.43-1.46c-.2-.1-.31-.33-.5-.43-.16-.07-.41-.17-.52-.28-.1-.1-.54-.64-.59-.66-.1-.05-.43-.13-.5-.28-.05-.08-.68-.52-.98-.49zm26.16.26c.26.54.67 1.15.82 1.45.03.07.33.2.36.28.23.7 1.02 1.06 1.91 1.22-.2-.26-.34-.57-.56-.82-.73-.8-1.59-1.5-2.53-2.13zm-8.96.97a2 2 0 0 0-1.12.48c-.14.3-1.53.9-1.89 1.02-.17.06-.25.3-.43.36a4.5 4.5 0 0 0-1.94 1.5c-.1.2-.14.49-.23.72.09.48.28.92.43 1.22.08.15.06.42.16.51.32.32.68.63 1 .95.08.08.29.07.37.15.2.2 1.01-.23 1.23-.23.82 0 1.9-.82 2.45-1.38.1-.09.36-.05.51-.12.14-.08.4-.43.49-.51.08-.09.34-.12.43-.2.44-.45.97-1.12.74-1.82a5.83 5.83 0 0 0-1.66-2.4c-.12-.12-.34-.1-.43-.2a.17.17 0 0 0-.1-.05zm7.35.05c-1.1-.11-2.3 1.11-2.93 1.73-.06.06-.21.4-.28.44-.04.02-.12-.04-.15 0a6.6 6.6 0 0 0-.44 2.45c.29.4.53.86.82 1.15.1.1.34.13.43.22.4.4.66 1.02 1.07 1.23.35.17.72.41.95.64.08.08.85.37 1 .23.12-.13 1.09-.43 1.17-.51.16-.16.5-.5.79-.64.17-.09.5-.17.64-.3.23-.25.52-.68.79-.95.08-.09-.28-.7-.28-.8 0-.4-1.57-3.39-1.9-3.87-.15-.25-.42-.4-.63-.51-.2-.1-.4-.26-.59-.36a1.34 1.34 0 0 0-.46-.15zm-28.65.7c-.15.14-.35.26-.5.42-.62.68-1.1 1.46-1.57 2.26.74-.26 1.4-.65 1.68-1.21.2-.4.23-.96.4-1.48zm10.97 3.97c-1.02 0-2.03.11-2.86.3-.02.2-.04.4-.08.59-.04.21-.37.34-.43.51a9.09 9.09 0 0 1-.84 1.43c-.05.02-.12-.03-.15 0-.12.12-.14.44-.29.59a7.34 7.34 0 0 0-.94 1.15c-.09.12-.5.88-.3 1.07.16.16.47.45.58.66.02.04-.03.17 0 .2.03.04.13-.04.15 0 .08.15.23.9.36 1.03 1.03 1.03 1.87 2.42 3.24 3.11 1.12.56 5-1.45 5.72-1.81.19-.1.35-.37.48-.44.06-.03.25-.02.3-.07 1.74-1.73.3-3.9-.3-5.7-.12-.35-.5-.59-.64-.86-.19-.38-.63-1.2-1.14-1.38a9.34 9.34 0 0 0-2.86-.38zm-11.84.55a24.4 24.4 0 0 0-.87 0c-.6.02-1.13.05-1.22.1-.24.65-.54 1.27-.7 1.97a17.4 17.4 0 0 0-.4 3.8c0 .96.31 2 .49 3.01.19.14.4.35.5.42.18.12.78.46 1 .36.58-.3 1.3-.67 1.73-1.1.43-.43 1.97-.82 2.48-1.07.09-.05.54-.48.64-.67.06-.13-.07-.35 0-.48.41-.83.63-1.69-.08-2.4-.07-.07-.23-.1-.28-.2-.2-.4-.5-.72-.8-1.02-.55-.56-.62-1.27-1.22-1.87-.13-.13-.31-.37-.48-.56 0-.07-.2-.17-.26-.25a3.3 3.3 0 0 0-.53-.04zm23.5.67c-1.73.17-4.06 1.87-4.77 2.76.28 1.38 1.06 3 .36 4.41-.2.39 1.02.67 1.22 1.08.12.24.55.47.74.66.33.33.84.63 1.15.94.03.04.16-.02.2 0 .86.43 2.93.42 3.75 0 .07-.03.26.05.31 0 .27-.26.55-.46.8-.94.26-.53.4-.91.63-1.38.14-.28-.06-.74.08-1.02.22-.45.9-2.26.58-2.88-.27-.55-.9-1.03-1.3-1.43-.07-.07-.26-.06-.36-.15-.17-.18-.36-.5-.58-.72-.13-.13-.42-.22-.59-.28-.14-.05-.36-.41-.4-.51-.04-.06-.17.03-.24 0-.16-.08-.29-.25-.5-.36a1.95 1.95 0 0 0-1.08-.18zm9.37 1.86c-.08.01-.15 0-.2.03-.36.18-.86.57-1.3.87-1.1.73-.86.66-1.39 1.96-.48 1.55-1.35 2.73-1.35 4.47 0 .45 2.26 1.82 2.66 2.02.23.12.68.18.86.35.16.16.5.21.67.39.14.14.35.5.63.63a3.1 3.1 0 0 0 1.66.16c.18-.06.42-.28.66-.46.15-.46.37-.88.5-1.34.58-1.96.94-3.92.94-5.73 0-.58-.12-1.09-.17-1.64-.4-.26-.83-.58-1.14-.73-.4-.21-1.12-.05-1.42-.36a3.05 3.05 0 0 0-1.61-.62zm-27.13 5.52c-.7.42-1.37.58-2.1.94-.19.1-.44.38-.63.51-.3.2-1.28.55-1.46.72-.25.25-.89.62-1.22.79-.38.19-.74.7-.95 1.1-.26.53 1.45 4.12 1.74 4.7.18.35.55.39.8.63.96.97 2.44.59 3.74.15.46-.15 1.2-.1 1.54-.43.4-.4.79-.61 1.27-1.1.05-.05.03-.3.08-.36.52-.52.46-1.35.79-2.01.04-.08-.04-.2 0-.28.15-.3.78-1.07.59-1.46-.25-.5-.75-.72-1.03-1-.08-.08-.36-.07-.43-.14-.26-.26-.43-.68-.8-.8-.15-.05-1.48-2.06-1.93-1.96zm11.4 1.38c-2.12 0-3.35 1.57-5.33 2.09-.05.28.04 1.35-.15 1.53-.36.36-1.07.77-1.07 1.58 0 .35.93 2.05 1.15 2.38.06.1.07.32.13.43.22.44.85.95 1.3 1.1.18.06.51.56.66.64.61.3 5.82-1.84 6.05-2.3.25-.51 1.29-4.11 1.02-4.65-.57-1.13-2.32-2.8-3.75-2.8zm8.96 2.37a15.7 15.7 0 0 0-3.1.3c-.3.5-.56.96-.88 1.44-.08.12-.01.31-.07.43-.17.33-.93 2.75-.56 3.11.28.29.54.78.79 1.02.04.05.62.27.71.36.03.03-.02.08 0 .13.03.05.76.47.87.59.05.04.3.08.36.15.03.03-.04.1 0 .12a3.53 3.53 0 0 0 3.47.87c.37-.12 1.02-.15 1.3-.43.1-.1.42-.33.51-.51.4-.79 2.03-4.43 1.66-5.18l-.51-1.02c-.16-.31-1.32-.54-1.58-.72a5.72 5.72 0 0 0-2.97-.66zm8.94 2.83c-.83.01-1.7.04-1.74.08-.12.12 0 .06.05.05-.02.03-.11.15-.4.38-.92.64-1 1.54-1.3 2.45-.2.61-1.3 2.44-1 3.04.06.13.88.6 1.07.79.04.04.05.1.08.15.81-1.43 1.43-2.31 2.29-4.19.4-.87.68-1.83 1.04-2.75zM16.2 27.15c-.94 1.1-2.34 1.27-3.67 1.94-.52.26-.67 1.04-.95 1.46-.54.8-1.3 2.36-.74 3.47.13.25.46.23.66.43.17.17.23.59.44.8l1.38 1.37c.22.22.7.42.91.64.4.4 2.41-.46 2.76-.64.24-.12 3.4-1.52 3.4-1.53.34-.7.2-1.4.43-2.1.07-.22-.1-.58 0-.78.13-.26.27-1.46.08-1.66-.26-.26-1.27-.53-1.61-.87a3.66 3.66 0 0 0-.92-.59c-.16-.08-.4-.42-.43-.43-.1-.03-.28-.05-.36-.13-.44-.44-.72-.98-1.38-1.38zm-9.05.72c.92 1.96 1.61 3.04 2.43 4.45 0-.13 0-.28.04-.34.9-1.82-.42-2.96-1.87-3.68-.2-.1-.41-.27-.6-.43zm20.08.64c-.67.05-2.17.85-2.66 1.02-.7.23-1.27.54-2.01 1.02-.15.37-.35.83-.6 1.07-.23.24-.61 3.38-.35 3.9.04.09.38.7.43.72.8.4 3.63 2.46 4.78 1.89.35-.18.77-.17 1.15-.36.34-.17.7-.39 1.07-.51.36-.12.66-1.61.86-1.81.33-.33.56-.88.8-1.36.14-.3.82-1.5.66-1.8-.15-.31-.11-.68-.3-.88-1.22-1.2-1.93-2.04-3.6-2.88a.46.46 0 0 0-.23-.02zm9.36 2.85c-.1 0-.22.1-.33.13-1.44.08-3.5.86-3.9 2.1-.24.7-.48 1.7-1 2.21-.04.04.04.2 0 .23-.1.1-.45.6-.51.8-.04.1-.4.82-.36.86a9 9 0 0 1 1.23 1.81c.06.13.63.28.71.36.13.13.43.26.63.4 1.2-1.52 2.4-2.82 3.56-4.64.34-.53 1.12-2.13 1.68-3.07-.08-.02-.2 0-.23-.06-.15-.3-1.2-.75-1.38-.92-.03-.04.04-.12 0-.16a.17.17 0 0 0-.1-.05zm-15.92 4.95c-.55.69-1.44 1.02-2.17 1.38-.48.24-3.01 2.58-3.39 3.12a54.48 54.48 0 0 0 2.52 2.97c.73.76 1.33 1.15 1.99 1.68.05-.02.14-.02.18-.03.14-.05.38.06.51 0 .26-.13 3.08-1.93 3.24-2.25.14-.28.37-.51.51-.8.1-.2-.08-.65-.08-.94 0-1.62.2-2.32-1.22-3.03a5.65 5.65 0 0 1-2.1-2.1zm8.11 2.58c-1.03 0-2.6.56-3.14 1.1-.05.05-.35 1.58-.43 1.81-.05.16-.28.35-.36.51-.2.42-.66 1.92-.2 2.38.04.03-.05.28 0 .3.22.11.37.5.56.8.21.3.54.88.85 1.19.3-.13.54-.09.85-.28 1.05-.63 2.19-1.6 3.46-2.92.5-.52 1.04-1.42 1.56-2.04-.25-.27-.47-.56-.72-.8-.68-.69-1.05-1.64-2.02-2.02a2.1 2.1 0 0 0-.4-.03zm-5.94 6.46c-.24.48-.99.93-1.63 1.4 1 .58 1.93.9 2.8.9.21 0 .47-.2.7-.23-.21-.44-.33-.96-.65-1.28-.13-.13-.5-.14-.59-.23-.23-.23-.26-.33-.63-.56z" color="#000" fill="#e69a3c"/><path overflow="visible" style="marker:none" d="M20.78.7c-.18 0-.34.03-.52.05-.16.57-.23 1.2-.57 1.54-.1.1-.5-.34-.68-.15-.07.07-.07.22-.15.3-.23.23-1-.21-1.29-.15.31.62 1.48.9.99 1.89-.04.07-.04.19-.06.29a1.9 1.9 0 0 1 .97.16c.44.23.39 1.32.38 1.96 0-.16.1-.37.15-.52.12-.38.4-1.12.68-1.2.87-.3 2.24.76 2.72.52.03 0-.27-.35-.3-.38-.28-.28-.36-.8-.53-1.13-.09-.18-.24-.18-.3-.3-.05-.1-.3-.54-.15-.69.05-.05 1.52-.22 1.44-.3-.22-.22-.94.04-1.14-.15-.53-.54.08-1 .45-1.37.13-.13-.4.02-.53.16-.24.24-1.3.05-1.51-.16-.06-.06 0-.25-.05-.38zm9.05.27c.2.2.32.41.15.77-.03.05-.03.13-.04.2.24-.03.53.04.67.11.31.16.27.93.26 1.37 0-.12.07-.27.1-.37.1-.26.29-.77.48-.84.6-.2 1.56.54 1.9.37l-.22-.26c-.2-.2-.25-.56-.37-.8-.02-.04-.05-.06-.08-.08-.28-.08-.52-.19-.8-.25-.6-.15-1.4-.11-2.05-.22zm-17.58 4.1l-.16.65c-.25.5-.22 1.15-.55 1.47-.07.07-.36-.24-.48-.1-.06.05-.06.15-.11.2-.17.18-.72-.14-.93-.1.22.45 1.06.64.7 1.36-.02.05-.02.14-.03.2.25-.02.55.05.7.13.32.16.27.96.26 1.41 0-.12.08-.28.11-.38.1-.27.29-.8.49-.87.63-.21 1.61.55 1.96.38l-.22-.27c-.2-.2-.26-.58-.38-.82-.06-.13-.17-.12-.22-.21-.03-.08-.21-.39-.1-.5.03-.03 1.09-.16 1.03-.21-.16-.16-.68.03-.82-.11-.38-.38.06-.71.33-.98.1-.1-.29.02-.38.11-.18.18-.94.04-1.1-.1-.14-.16-.23-.62-.1-.88.06-.11.13-.38 0-.38zm15.29.86c-.01 0-.13.54-.15.56-.21.44-.19 1-.47 1.28-.06.06-.31-.2-.42-.1-.05.05-.05.14-.1.2-.14.14-.62-.14-.8-.1.2.39.92.56.61 1.18-.02.04-.02.12-.03.18a.42.42 0 0 0-.25.1.9.9 0 0 1-.25.13c.16-.04.38-.1.44-.13.03-.02.05-.06.06-.1.22-.03.47.04.6.1.28.14.24.84.24 1.23 0-.1.06-.24.1-.33.07-.24.24-.7.42-.76.54-.18 1.4.48 1.7.33l-.2-.23c-.17-.18-.22-.5-.32-.71-.06-.11-.15-.11-.2-.19-.02-.06-.18-.33-.09-.42.04-.04.95-.15.9-.2-.13-.13-.58.03-.7-.09-.34-.33.04-.62.28-.85.08-.08-.25.01-.33.1-.16.15-.82.03-.95-.1s-.2-.53-.1-.75c.06-.1.12-.33 0-.33zm8.8.64v.01zm0 .01l-.14.56c-.22.44-.19 1-.47 1.28-.06.06-.31-.21-.43-.1-.04.05-.04.14-.1.2-.14.14-.62-.14-.8-.1.2.38.93.56.62 1.18-.02.04-.02.12-.04.18.22-.03.48.04.6.1.29.14.25.83.24 1.23 0-.1.07-.24.1-.33.08-.24.25-.7.42-.76.55-.18 1.4.48 1.7.33.02 0-.17-.21-.18-.23-.18-.18-.23-.5-.34-.71-.05-.11-.14-.11-.18-.19-.04-.06-.2-.33-.1-.43.03-.03.95-.13.9-.18-.14-.14-.59.03-.71-.1-.33-.33.05-.61.28-.85.08-.08-.25.02-.33.1-.15.15-.81.03-.94-.1-.13-.13-.21-.53-.1-.76.05-.1.1-.3 0-.32zm-17.26 4.4l-.21.87c-.34.67-.3 1.52-.73 1.95-.1.1-.48-.32-.65-.15-.07.07-.07.22-.14.3-.22.21-.96-.2-1.23-.15.3.6 1.41.86.94 1.8-.03.07-.03.18-.05.28.33-.05.72.06.92.15.42.22.37 1.26.36 1.87 0-.16.1-.36.14-.5.12-.36.38-1.06.65-1.15.83-.28 2.14.74 2.6.5a2.7 2.7 0 0 0-.29-.35c-.27-.27-.34-.76-.5-1.09-.09-.17-.23-.16-.3-.29-.04-.1-.28-.5-.14-.65.05-.05 1.45-.2 1.37-.29-.2-.2-.9.05-1.08-.14-.5-.5.08-.94.43-1.3.13-.12-.38.02-.5.15-.24.23-1.24.05-1.44-.15-.2-.2-.32-.8-.15-1.15.08-.15.17-.5 0-.5zm-13.16.51s-.17.73-.19.76c-.3.59-.26 1.33-.63 1.7-.09.1-.42-.27-.57-.12-.06.06-.06.2-.13.26-.07.07-.24-.02-.4-.05l-.05.55c.25.23.42.5.2.95-.03.06-.03.16-.05.24.3-.04.64.06.8.14.38.19.34 1.1.33 1.64 0-.14.08-.32.12-.44.1-.31.34-.93.57-1.01.73-.24 1.88.64 2.28.44.02 0-.23-.29-.25-.31-.24-.24-.3-.67-.45-.95-.07-.15-.2-.15-.25-.25-.04-.09-.25-.45-.13-.57.05-.05 1.27-.2 1.2-.26-.18-.18-.78.04-.94-.12-.45-.45.06-.83.38-1.14.1-.11-.34.01-.45.12-.2.21-1.09.05-1.26-.12-.17-.18-.28-.71-.13-1.01.07-.14.15-.45 0-.45zm24.64.72l-.22.87c-.33.67-.3 1.52-.72 1.95-.1.1-.48-.32-.65-.15-.07.07-.07.22-.14.29-.23.22-.96-.2-1.23-.14.3.59 1.41.85.94 1.8-.03.07-.03.18-.06.28.34-.05.73.06.92.15.43.22.38 1.26.37 1.87 0-.16.1-.36.14-.5.12-.36.38-1.06.65-1.15.83-.28 2.14.73 2.6.5a2.7 2.7 0 0 0-.3-.36c-.26-.27-.34-.76-.5-1.08-.08-.17-.22-.17-.29-.29-.04-.1-.28-.5-.14-.65.05-.05 1.45-.21 1.37-.29-.2-.2-.9.05-1.08-.14-.51-.51.08-.95.43-1.3.12-.13-.38.02-.5.15-.24.23-1.25.05-1.45-.15-.2-.2-.31-.81-.14-1.16.07-.15.17-.5 0-.5zm10.03 2.02l-.22.87c-.33.67-.29 1.52-.71 1.95-.1.1-.48-.32-.66-.15-.07.08-.07.22-.14.3-.22.21-.96-.2-1.23-.15.3.59 1.41.85.94 1.8-.03.07-.03.18-.05.28a1.81 1.81 0 0 1 .92.15c.42.22.37 1.26.36 1.87 0-.16.1-.36.14-.5.12-.35.38-1.06.65-1.15.83-.28 2.14.73 2.6.5.02 0-.26-.33-.29-.35-.27-.27-.34-.76-.5-1.09-.09-.17-.23-.16-.3-.29-.04-.1-.28-.5-.14-.65.06-.05 1.45-.21 1.38-.29-.21-.2-.9.05-1.09-.14-.5-.5.08-.94.44-1.3.12-.12-.39.02-.51.14-.24.24-1.24.06-1.44-.14-.2-.2-.32-.81-.15-1.15.08-.15.17-.5 0-.5zM9.3 20.94c.12.1.23.28.32.4.22.3.64.93.56 1.2-.26.84-1.84 1.32-1.92 1.82 0 .02.42-.02.46-.02.37-.07.82.16 1.18.21.18.03.26-.08.4-.06.1.01.58.06.61.26.01.07-.66 1.3-.56 1.28.3-.05.48-.75.74-.8.71-.12.73.61.81 1.1.03.18.2-.31.18-.48-.06-.33.67-1.05.95-1.1.28-.04.85.22 1.03.56.08.14.31.43.4.29.02-.01-.55-.64-.57-.68-.35-.66-1.07-1.12-1.17-1.72-.02-.14.54-.2.5-.44-.02-.1-.14-.19-.15-.29-.06-.3.71-.66.83-.92-.66-.1-1.52.66-2.02-.28-.03-.06-.13-.13-.2-.2-.15.3-.46.56-.65.66-.42.22-1.24-.43-1.73-.79zm12.8.18c-.38.55-.07 1.65-1.13 1.7-.07 0-.17.06-.27.08.2.28.3.67.31.89.02.47-.92.93-1.45 1.22.13-.08.35-.1.5-.12.37-.07 1.11-.18 1.32.01.65.6.4 2.23.82 2.52.01.01.16-.39.17-.43.1-.36.5-.67.7-.96.11-.16.04-.28.12-.4.06-.09.3-.5.5-.44.07.02.88 1.17.91 1.06.08-.28-.47-.76-.4-1.01.2-.7.87-.4 1.35-.25.17.04-.2-.33-.37-.38-.32-.09-.65-1.06-.57-1.33.08-.27.56-.67.94-.69.17 0 .52-.1.44-.24 0 0-.82.23-.86.23-.75.03-1.47.48-2.06.31-.13-.04.05-.57-.18-.64-.1-.02-.23.05-.33.02-.3-.09-.28-.94-.46-1.15zm10.13 1.81c-.06 0-.13.4-.09.55.1.32-.53 1.13-.8 1.2-.27.1-.87-.1-1.1-.4-.09-.14-.36-.4-.44-.24l.67.6c.43.6 1.2.96 1.38 1.54.04.14-.5.28-.43.51.03.1.16.17.19.27.09.3-.63.74-.7 1.01.66.02 1.41-.84 2.03.02.04.06.14.11.22.17.11-.3.39-.6.57-.73.38-.28 1.28.25 1.8.55-.13-.08-.26-.25-.36-.36-.26-.27-.76-.84-.71-1.11.14-.87 1.65-1.55 1.66-2.06 0-.02-.41.07-.45.08-.37.12-.84-.05-1.2-.06-.19 0-.25.13-.39.12-.1 0-.58.02-.64-.17-.02-.07.5-1.38.39-1.35-.28.09-.38.81-.64.89-.69.2-.8-.51-.94-1 0-.02-.01-.02-.02-.03zM26.3 29.4c-.01 0-.2.83-.22.86-.33.67-.29 1.52-.72 1.95-.1.1-.48-.31-.65-.14-.07.07-.07.22-.14.29-.23.22-.96-.2-1.23-.15.3.6 1.4.86.94 1.8-.04.07-.03.19-.05.29.33-.05.72.06.91.15.43.22.38 1.26.37 1.87 0-.16.1-.36.14-.5.12-.36.38-1.06.65-1.15.83-.28 2.14.73 2.6.5.02 0-.26-.33-.3-.36-.26-.27-.34-.76-.5-1.08-.08-.17-.22-.17-.29-.29-.04-.1-.28-.5-.14-.65.05-.05 1.45-.21 1.37-.29-.2-.2-.9.05-1.08-.14-.51-.51.08-.94.43-1.3.13-.12-.38.02-.5.14-.24.24-1.25.06-1.45-.14-.2-.2-.31-.81-.14-1.15.08-.15.17-.51 0-.51zm-11.72.07c-.27.6.24 1.63-.8 1.87-.06.02-.15.09-.24.14.25.22.42.6.47.8.1.47-.74 1.1-1.21 1.47.12-.1.34-.15.47-.2.36-.14 1.07-.39 1.3-.24.75.47.8 2.12 1.27 2.33.02 0 .1-.42.1-.46.03-.38.36-.75.5-1.08.08-.17 0-.28.05-.4.04-.1.2-.55.4-.53.08.01 1.1.98 1.1.88.03-.3-.6-.67-.58-.93.07-.72.78-.54 1.28-.5.18.02-.26-.28-.43-.3-.33-.02-.84-.91-.81-1.2.03-.28.42-.76.8-.84.16-.04.5-.2.39-.33l-.8.39c-.74.17-1.37.74-1.97.68-.14 0-.06-.57-.3-.59-.1 0-.22.08-.32.07-.31-.03-.45-.86-.67-1.03zm21.18 3.18c-.01 0-.2.83-.22.86-.34.67-.3 1.52-.72 1.95-.1.1-.48-.31-.65-.14-.08.07-.08.21-.15.29-.22.22-.95-.2-1.23-.15.3.6 1.42.86.94 1.8-.03.07-.03.19-.05.28.33-.04.73.06.92.16.1.05.1.24.16.36.62-.89 1.25-1.48 1.86-2.43.13-.2.48-.92.64-1.19-.3.19-1.17.06-1.36-.13-.2-.2-.32-.81-.15-1.16.08-.15.17-.5 0-.5zm-16.17 5.34l-.22.87c-.34.66-.3 1.51-.72 1.94-.1.1-.48-.31-.65-.14-.07.07-.07.22-.15.29-.22.22-.95-.2-1.22-.15.3.6 1.4.86.94 1.8-.04.07-.04.19-.06.28.33-.04.73.07.92.16.4.2.38 1.11.36 1.73l.04.03c.02-.14.07-.28.1-.39.13-.36.39-1.06.66-1.15.83-.28 2.14.73 2.6.5.02 0-.26-.33-.3-.36-.26-.27-.34-.76-.5-1.08-.09-.17-.23-.17-.29-.29-.05-.1-.29-.5-.14-.65.05-.05 1.44-.21 1.37-.29-.21-.2-.9.05-1.08-.14-.51-.51.07-.95.43-1.3.12-.12-.38.02-.5.14-.24.24-1.25.06-1.45-.14-.2-.2-.32-.81-.14-1.16.07-.15.16-.5 0-.5zm8.95 1.88c-.01 0-.2.83-.22.86-.33.67-.3 1.52-.72 1.95-.1.1-.48-.32-.65-.14-.07.07-.07.21-.15.29-.22.22-.95-.2-1.22-.15.3.6 1.4.86.94 1.8-.04.07-.04.18-.06.28a1.81 1.81 0 0 1 .92.16c.28.14.34.6.35 1.1.19-.14.4-.35.6-.5.07-.13.12-.36.2-.38.06-.02.14.04.2.03.47-.4.9-.67 1.4-1.18l-.08-.08c-.05-.1-.29-.5-.14-.65.04-.04.67-.14 1.03-.22.03-.03.05-.08.08-.1-.29-.04-.68.03-.82-.12-.51-.5.07-.94.43-1.3.12-.12-.38.03-.5.15-.24.24-1.25.06-1.45-.14-.2-.2-.32-.82-.14-1.16.07-.15.17-.5 0-.5z" color="#000" fill="#ffc378"/><path d="M5.66 24.13l.45 1.2 2.54-1.37 1.52 2.83-2.79 1.5c.89 1.84 1.55 2.93 2.31 4.24l2.76-1.48 1.52 2.83-2.74 1.47.15.27c.26.41.53.65.8 1.05l31.4-16.85c.28-1.31.62-2.65.62-3.87 0-.25-.06-.46-.07-.7l-.5-.93.38-.2c-.07-.67-.07-1.36-.2-1.98-.24-1.02-.6-1.95-1.02-2.85l-1.44.78-1.52-2.84 1.23-.66c-.15-.2-.25-.43-.41-.6-.13-.15-.3-.24-.44-.38zM37 8.75l1.52 2.84-2.83 1.52-1.52-2.84zm-5.67 3.04l1.52 2.84-2.83 1.52-1.52-2.83zm-5.66 3.05l1.51 2.83-2.83 1.52-1.52-2.83zm15.13 1l1.53 2.83-2.84 1.52-1.52-2.83zM20 17.88l1.52 2.83-2.84 1.52-1.52-2.83zm15.13 1l1.53 2.83-2.84 1.53-1.52-2.84zm-20.8 2.04l1.52 2.83L13 25.28l-1.52-2.84zm15.14 1l1.52 2.84-2.84 1.52-1.52-2.83zm-5.67 3.04l1.52 2.84-2.84 1.52-1.52-2.84zm-5.67 3.05l1.52 2.83-2.84 1.52-1.51-2.83z" opacity=".74"/><path d="M5.22 22.97a46.41 46.41 0 0 0 1.7 4.48 69.65 69.65 0 0 0 4.46 8.17l.04.06 32.4-17.38c.11-.78.38-1.61.38-2.35 0-1.34-.13-2.61-.4-3.8-.27-1.2-.67-2.32-1.2-3.35a12.9 12.9 0 0 0-1.95-2.84c-.42-.46-.96-.81-1.45-1.22zm32.7-16.1l1.51 2.83-2.83 1.52-1.52-2.83zM32.24 9.9l1.52 2.83-2.84 1.52-1.52-2.83zm-5.67 3.04l1.52 2.83-2.84 1.52-1.52-2.83zm15.13 1l1.53 2.84-2.84 1.52-1.52-2.84zm-20.8 2.04l1.52 2.83-2.83 1.52-1.53-2.83zm15.14 1l1.52 2.84-2.84 1.52-1.52-2.84zm-20.81 2.04l1.52 2.84-2.83 1.52-1.52-2.84zm15.14 1l1.52 2.84-2.84 1.52-1.52-2.84zm-20.8 2.05l1.52 2.84-2.83 1.52-1.52-2.84zm15.14 1l1.52 2.84-2.83 1.52-1.52-2.83zm-5.67 3.05l1.52 2.83-2.83 1.52-1.52-2.83zm-5.67 3.04l1.52 2.83-2.83 1.52-1.52-2.83z" fill="#e6e6e6"/><path d="M24 .35c-5.83 0-10.52 1.12-13.93 3.33-4.1 2.66-6.27 6.9-6.27 12.27 0 7.23 5.8 16.88 7.58 19.67a54.48 54.48 0 0 0 6.25 8.16c2.54 2.64 4.57 3.87 6.37 3.87 1.8 0 3.83-1.23 6.37-3.87 2-2.08 4.22-4.97 6.25-8.16 1.78-2.79 7.58-12.44 7.58-19.67 0-5.37-2.16-9.61-6.26-12.27C34.52 1.47 29.84.35 24 .35zm0 .14c2.11.09 4.12.27 5.88.7 1.16.27 2.25.62 3.26 1.03 1.01.42 1.94.9 2.8 1.46A12.92 12.92 0 0 1 40.6 8.8c.53 1.03.92 2.15 1.2 3.34.26 1.2.4 2.47.4 3.8 0 1.82-.37 3.77-.94 5.74a43.19 43.19 0 0 1-2.2 5.77 69.59 69.59 0 0 1-4.45 8.17 54.47 54.47 0 0 1-6.25 8.16 17.98 17.98 0 0 1-3.46 2.93c-.32.2-.62.3-.91.39-.3-.08-.6-.2-.9-.4-1.06-.63-2.2-1.6-3.47-2.92-2-2.08-4.22-4.97-6.25-8.16a69.6 69.6 0 0 1-4.46-8.17 43.19 43.19 0 0 1-2.19-5.77 20.93 20.93 0 0 1-.93-5.73c0-1.34.13-2.61.4-3.8.27-1.2.67-2.32 1.2-3.35a12.92 12.92 0 0 1 4.67-5.12 17.1 17.1 0 0 1 2.8-1.46c1-.41 2.1-.76 3.26-1.04C19.88.76 21.89.58 24 .5z" opacity=".3"/></svg>