<svg xmlns="http://www.w3.org/2000/svg" xmlns:xlink="http://www.w3.org/1999/xlink" width="48" height="48" version="1"><defs><linearGradient id="d"><stop offset="0" stop-color="#f60"/><stop offset="1" stop-color="#d45500"/></linearGradient><linearGradient id="c"><stop offset="0" stop-color="maroon"/><stop offset="1" stop-color="#ff2a2a"/></linearGradient><linearGradient id="b"><stop offset="0" stop-color="#f60"/><stop offset="1" stop-color="#fd5"/></linearGradient><linearGradient id="a"><stop offset="0" stop-color="#f60"/><stop offset=".51" stop-color="#ffd42a"/><stop offset="1" stop-color="#ffe680"/></linearGradient><linearGradient id="e"><stop offset="0"/><stop offset="1" stop-opacity="0"/></linearGradient><linearGradient xlink:href="#a" id="f" x1="4.24" y1="1" x2="32.68" y2="45.82" gradientUnits="userSpaceOnUse"/><linearGradient xlink:href="#b" id="i" x1="11.828" y1="38.797" x2="26.8" y2="30.673" gradientUnits="userSpaceOnUse"/><linearGradient xlink:href="#b" id="h" x1="19.33" y1="13.209" x2="27.551" y2="13.209" gradientUnits="userSpaceOnUse"/><linearGradient xlink:href="#c" id="j" x1="15.197" y1="15.884" x2="33.817" y2="19.385" gradientUnits="userSpaceOnUse"/><linearGradient xlink:href="#d" id="k" x1="24.691" y1="27.731" x2="31.693" y2="38.787" gradientUnits="userSpaceOnUse"/><linearGradient xlink:href="#e" id="g" x1="-5.519" y1="19.977" x2="45.94" y2="32.482" gradientUnits="userSpaceOnUse"/></defs><path d="M24 .44c-5.8 0-10.48 1.12-13.87 3.32-4.09 2.64-6.25 6.87-6.25 12.22 0 7.2 5.78 16.82 7.55 19.6a54.25 54.25 0 006.23 8.12c2.53 2.63 4.55 3.86 6.34 3.86 1.8 0 3.81-1.23 6.34-3.86 2-2.07 4.2-4.95 6.23-8.13 1.77-2.77 7.56-12.39 7.56-19.59 0-5.35-2.16-9.57-6.25-12.22C34.48 1.56 29.82.44 24 .44z" fill="url(#f)"/><path d="M28.547 45.219c.594-.498 1.134-.835 1.793-1.52 2-2.07 4.2-4.949 6.23-8.129.885-1.385 2.775-4.483 4.444-8.134.834-1.826 1.613-3.789 2.183-5.747.04-.135.027-.26.065-.396L24.469 2.5l-3.557 8.041 3.713 12.898s-6.171.83-6.041.96l-3.11-3.11.878 4.17-.303 2.389-1.746-1.746-.004 1.1.637 2.314.52 2.02.573 1.165L28.547 45.22z" fill="url(#g)" opacity=".3"/><path d="M3.92 14.74c-.02.4-.12.78-.12 1.2 0 7.24 5.8 16.9 7.58 19.68a54.47 54.47 0 006.25 8.16c2.54 2.64 4.57 3.87 6.37 3.87 1.8 0 3.83-1.23 6.37-3.87 2-2.08 4.22-4.97 6.25-8.16 1.78-2.78 7.59-12.44 7.59-19.67 0-.43-.1-.8-.14-1.21-.08 1.59-.3 3.24-.8 4.94a43.17 43.17 0 01-2.19 5.77 69.67 69.67 0 01-4.46 8.17 54.47 54.47 0 01-6.25 8.16 18 18 0 01-3.46 2.93c-1.05.64-2 .94-2.9.94-.91 0-1.87-.3-2.92-.94a18 18 0 01-3.46-2.93c-2-2.08-4.21-4.97-6.25-8.16a69.4 69.4 0 01-4.46-8.17 43.04 43.04 0 01-2.19-5.77c-.5-1.7-.72-3.35-.8-4.94z" opacity=".311"/><path d="M23.518 4.042c-2.516 2.554-3.583 5.349-3.738 8.055-.18 3.136.764 6.135 1.77 8.315a.427.427 0 01-.3.597 7.253 7.253 0 00-4.43 2.894.427.427 0 01-.77-.317l.018-.111a2.023 2.023 0 00-.298-1.062c-.05.324-.05.717-.114.998-.136.607-.249 1.139-.166 1.83.021.18.095.336.21.526a.427.427 0 01.045.339 7.252 7.252 0 00-.275 1.974.427.427 0 01-.769.255c-.008-.01-.014-.025-.022-.035.568 4.652 5.462 9.065 10.828 7.648a.427.427 0 01.006-.002c4.25-1.046 6.744-4.088 7.578-7.548.48-1.991.333-4.068-.108-5.809-.354-1.398-1.084-2.891-2.186-4.263-1.758-2.189-3.902-3.477-5.614-4.997a.427.427 0 01-.141-.282c-.16-1.87-.237-3.63-.224-5.563-.064.114-.17.226-.223.355-.27.65-.554 1.757-.764 2.654a.427.427 0 01-.805.078c-.054-.12-.119-.254-.177-.413a.427.427 0 01-.015-.052c-.35-1.575-.095-3.324.265-4.78.155-.627.256-.804.419-1.284zm-6.666 19.13l-.005.006c.006.033.02.06.023.095a.427.427 0 01.055.142V23.2zm.02.543a.427.427 0 01-.015.025l.017-.025z" fill="#ff7d20"/><path d="M24.47 2.5s-3.572 3.675-3.27 6.515c.246 2.313 4.88 9.805 6.35 14.499l-4.433.404c-1.335-1.558-8.55-13.353 1.352-21.418z" fill="url(#h)"/><path d="M15.475 21.289c.102 1.6-.59 2.475-.408 4.001.078.656.57 1.06.87 1.62l.2-1.228c.018-.095.032-.19.048-.287l.31-1.884.013-.016-.01-.004c0-.947-.455-1.502-1.023-2.202z" fill="#d40000"/><circle cx="19.117" cy="30.673" r="7.683" transform="rotate(-7.012)" fill="url(#i)"/><path d="M25.55 5.51c-.447.852-.99 1.3-1.348 2.166-.479 1.153-1.055 3.893-1.055 3.893l1.15 1.75 1.27.842c-.236-2.472-.377-4.587-.34-7.071.007-.419.25-1.165.324-1.58z" fill="#ff7d20"/><path d="M24.47 2.5c-6.265 6.614-2.531 9.759.063 14.45.681 1.286 1.502 3.388 1.636 4.299a7.681 7.681 0 013.846 4.473l.045.134c.036.116.065.236.095.355.039.147.078.292.107.447l.005.02c.03.162.058.326.078.493.01.074.005.133.01.203l.004.076c.015.234.013.454-.009.653-.018.385-.06.781-.156 1.204-.794 2.918-3.187 4.728-5.53 5.255-3.3.566-6.083-1.19-6.753-3.655-.131-.812.073-1.905.545-2.18-.272.093-.603.2-1 .568-.67.622-.43.843-1.304 1.084.443-1.233-2.107-2.577-1.85-4.277-.42 2.286.295 4.69 1.726 6.623 2.096 2.83 5.728 4.233 9.587 3.213 4.4-1.082 7.024-3.845 7.892-7.44.5-2.076.344-4.217-.11-6.014-.371-1.463-1.128-3.007-2.266-4.425-2.874-3.578-6.692-4.78-7.88-8.046-.65-2.93.945-6.791 1.219-7.513z" fill="url(#j)"/><path d="M30.344 19.9l.917 2.024.05.145.422 1.537c.459 2.174.394 4.443-.276 6.216-.966 2.56-2.563 4.56-4.773 5.474-3.868 1.599-8.895.337-10.97-3.707.082.38.188.75.316 1.113 2.094 2.839 5.72 4.68 9.585 3.66 4.4-1.083 7.024-4.269 7.892-7.864.053-.223.097-.446.136-.67v-.002a11.543 11.543 0 00-.081-1.272 11.462 11.462 0 00-1.032-3.503l.01-.006-.09-.156c-.243-.488-.517-.96-.826-1.412l-.045-.078z" fill="url(#k)"/></svg>