<?xml version="1.0" encoding="UTF-8" standalone="no"?>
<svg
   xmlns:dc="http://purl.org/dc/elements/1.1/"
   xmlns:cc="http://creativecommons.org/ns#"
   xmlns:rdf="http://www.w3.org/1999/02/22-rdf-syntax-ns#"
   xmlns:svg="http://www.w3.org/2000/svg"
   xmlns="http://www.w3.org/2000/svg"
   xmlns:xlink="http://www.w3.org/1999/xlink"
   xmlns:sodipodi="http://sodipodi.sourceforge.net/DTD/sodipodi-0.dtd"
   xmlns:inkscape="http://www.inkscape.org/namespaces/inkscape"
   width="48"
   height="48"
   viewBox="0 0 12.7 12.7"
   version="1.1"
   id="svg132"
   sodipodi:docname="hwbrowser.svg"
   inkscape:version="0.92.4 (5da689c313, 2019-01-14)">
  <sodipodi:namedview
     pagecolor="#ffffff"
     bordercolor="#666666"
     borderopacity="1"
     objecttolerance="10"
     gridtolerance="10"
     guidetolerance="10"
     inkscape:pageopacity="0"
     inkscape:pageshadow="2"
     inkscape:window-width="1112"
     inkscape:window-height="480"
     id="namedview134"
     showgrid="false"
     inkscape:zoom="4.9166667"
     inkscape:cx="2.1355932"
     inkscape:cy="24"
     inkscape:window-x="0"
     inkscape:window-y="25"
     inkscape:window-maximized="0"
     inkscape:current-layer="svg132" />
  <metadata
     id="metadata2">
    <rdf:RDF>
      <cc:Work>
        <dc:format>image/svg+xml</dc:format>
        <dc:type
           rdf:resource="http://purl.org/dc/dcmitype/StillImage" />
        <dc:title></dc:title>
      </cc:Work>
    </rdf:RDF>
  </metadata>
  <defs
     id="defs17">
    <linearGradient
       id="b">
      <stop
         offset="0"
         stop-color="#4d4d4d"
         id="stop4" />
      <stop
         offset="1"
         stop-color="#333"
         id="stop6" />
    </linearGradient>
    <linearGradient
       id="a">
      <stop
         offset="0"
         stop-color="#37c837"
         id="stop9" />
      <stop
         offset="1"
         stop-color="#d7f4d7"
         id="stop11" />
    </linearGradient>
    <linearGradient
       xlink:href="#a"
       id="c"
       x1="14.36"
       y1="13"
       x2="22.34"
       y2=".24"
       gradientUnits="userSpaceOnUse"
       gradientTransform="translate(-10.58)" />
    <linearGradient
       xlink:href="#b"
       id="e"
       x1="2.42"
       y1="7.02"
       x2="2.47"
       y2="2.52"
       gradientUnits="userSpaceOnUse" />
    <linearGradient
       xlink:href="#b"
       id="f"
       x1="8.06"
       y1="7.19"
       x2="8.06"
       y2="5.21"
       gradientUnits="userSpaceOnUse" />
  </defs>
  <path
     d="M 6.35,0.1 C 4.81,0.1 3.57,0.38 2.66,0.96 A 3.67,3.67 0 0 0 1,4.22 c 0,1.91 1.54,4.47 2.01,5.2 0.54,0.85 1.13,1.61 1.65,2.16 0.68,0.7 1.21,1.03 1.7,1.03 0.47,0 1,-0.33 1.68,-1.03 A 15.2,15.2 0 0 0 9.69,9.43 c 0.47,-0.74 2,-3.3 2,-5.21 0,-1.42 -0.57,-2.54 -1.65,-3.25 A 6.75,6.75 0 0 0 6.35,0.1 Z"
     id="path19"
     style="fill:url(#c)"
     inkscape:connector-curvature="0" />
  <path
     d="M 1.04,3.9 C 1.04,4 1,4.1 1,4.22 c 0,1.91 1.54,4.47 2.01,5.2 0.54,0.85 1.13,1.61 1.65,2.16 0.68,0.7 1.21,1.03 1.69,1.03 0.48,0 1.01,-0.33 1.69,-1.03 A 15.2,15.2 0 0 0 9.69,9.43 c 0.47,-0.74 2,-3.3 2,-5.21 0,-0.11 -0.02,-0.21 -0.03,-0.32 A 5.5,5.5 0 0 1 11.45,5.2 C 11.3,5.73 11.09,6.25 10.87,6.73 10.43,7.7 9.92,8.53 9.69,8.9 A 15.2,15.2 0 0 1 8.04,11.05 4.9,4.9 0 0 1 7.12,11.83 C 6.84,12 6.59,12.08 6.35,12.08 6.11,12.08 5.85,12 5.58,11.83 A 4.76,4.76 0 0 1 4.66,11.05 14.41,14.41 0 0 1 3.01,8.9 19.2,19.2 0 0 1 1.83,6.73 C 1.61,6.25 1.4,5.73 1.25,5.21 A 5.66,5.66 0 0 1 1.04,3.9 Z"
     id="path21"
     inkscape:connector-curvature="0"
     style="opacity:0.5" />
  <path
     d="M 4.79,0.26 H 4.8 Z m 0,0 C 4.62,0.29 4.43,0.28 4.27,0.31 L 3.99,0.4 v 0.86 h 0.74 l 0.25,0.25 h 0.37 l 0.31,0.3 H 7.9 L 8.26,1.45 h 2.35 L 10.48,1.35 H 8.2 L 7.84,1.71 H 5.7 L 5.38,1.41 H 5.02 L 4.79,1.17 Z M 3.78,0.46 3.67,0.5 v 1.38 h 1.29 l 0.35,0.34 h 5.88 L 11.12,2.11 H 9.4 V 1.67 H 9.1 V 1.57 H 8.38 V 1.89 H 9.1 V 1.78 H 9.3 V 2.11 H 5.36 L 5,1.77 H 3.78 v -1.3 z m 1.58,0 c -0.13,0 -0.23,0.12 -0.23,0.25 0,0.13 0.1,0.24 0.23,0.24 0.03,0 0.08,0 0.1,-0.02 L 6,1.46 h 1.31 l 0.3,-0.3 H 8.37 V 1.2 H 9.09 V 0.88 H 8.37 v 0.17 h -0.8 l -0.3,0.3 H 6.05 L 5.55,0.85 A 0.2,0.2 0 0 0 5.6,0.71 0.25,0.25 0 0 0 5.36,0.47 Z m -2,0.14 A 4.4,4.4 0 0 0 2.83,0.87 V 1.35 H 3.06 V 1.68 H 2.7 A 0.23,0.23 0 0 0 2.48,1.51 0.25,0.25 0 0 0 2.24,1.75 c 0,0.14 0.1,0.24 0.24,0.24 0.12,0 0.2,-0.09 0.23,-0.2 H 3.07 V 1.88 H 2.76 v 0.61 h 0.5 V 1.88 H 3.18 V 1.35 h 0.3 V 0.6 H 3.38 Z M 2.23,1.3 A 3.67,3.67 0 0 0 2.16,1.35 H 2.23 Z M 1.91,1.61 A 3.67,3.67 0 0 0 1.84,1.69 3.67,3.67 0 0 0 1.8,1.74 V 1.88 H 1.7 a 3.67,3.67 0 0 0 0,0.01 V 2.62 H 2.21 V 1.88 h -0.3 z m 2.06,0.68 v 0.2 H 4.8 V 2.29 Z M 2.47,2.52 A 0.25,0.25 0 0 0 2.23,2.76 H 1.53 L 1.31,2.56 a 3.67,3.67 0 0 0 -0.04,0.07 3.67,3.67 0 0 0 0,0.03 L 1.48,2.87 H 2.25 C 2.29,2.95 2.38,3.01 2.47,3.01 L 2.49,2.99 V 2.83 c 0,0.01 0,0.03 -0.02,0.03 a 0.1,0.1 0 0 1 -0.1,-0.1 c 0,-0.05 0.04,-0.1 0.1,-0.1 0.03,0 0.03,0.04 0.05,0.06 L 2.64,2.6 A 0.22,0.22 0 0 0 2.47,2.52 Z M 2.23,3.14 V 3.48 H 2.08 A 0.23,0.23 0 0 0 1.85,3.28 c -0.11,0 -0.2,0.08 -0.23,0.19 H 1.04 A 3.67,3.67 0 0 0 1.03,3.57 H 1.61 C 1.63,3.68 1.74,3.76 1.85,3.76 1.95,3.76 2.04,3.7 2.07,3.6 H 2.23 V 3.87 H 2.49 V 3.14 Z m 6.92,0.13 c -0.12,0.02 -0.2,0.12 -0.2,0.25 0,0.13 0.09,0.23 0.22,0.23 0.1,0 0.2,-0.07 0.23,-0.16 h 2.22 V 3.48 H 9.42 A 0.25,0.25 0 0 0 9.17,3.28 H 9.15 Z M 7.03,3.83 v 0.12 h 4.56 L 11.67,4.03 11.65,3.85 11.64,3.83 h -4.6 z m 0,0.37 v 0.1 h 4.41 l 0.2,0.2 0.02,-0.12 -0.18,-0.18 z m 0,0.36 v 0.1 h 4.02 l 0.49,0.5 0.02,-0.14 -0.46,-0.46 z m 0,0.39 v 0.1 h 3.78 l 0.64,0.65 c 0.01,-0.04 0,-0.08 0.02,-0.13 L 10.85,4.95 Z m 2.7,1.21 V 6.67 H 8.19 L 7.16,7.72 H 6.46 V 7.6 H 5.44 V 7.94 H 6.46 V 7.82 H 7.19 L 8.24,6.77 h 1.49 v 0.54 h 0.33 V 6.16 Z M 8.42,7.61 V 7.73 H 7.93 L 7.25,8.46 H 6.46 V 8.32 H 5.44 V 8.66 H 6.46 V 8.58 H 7.3 L 7.98,7.84 h 0.44 v 0.1 h 1 V 7.61 Z M 4.39,8.23 c -0.12,0 -0.2,0.07 -0.23,0.18 h -1.7 l 0.06,0.1 h 1.64 c 0.02,0.1 0.1,0.17 0.19,0.2 v 1.13 h 1.1 V 9.92 H 6.46 V 9.59 H 5.44 V 9.73 H 4.46 V 8.7 C 4.56,8.67 4.63,8.58 4.63,8.47 A 0.24,0.24 0 0 0 4.39,8.24 Z m 3.25,1.31 a 0.235,0.235 0 1 0 0,0.47 c 0.11,0 0.2,-0.07 0.23,-0.18 h 0.55 v 0.09 h 0.9 L 9.42,9.77 V 9.6 h -1 V 9.73 H 7.87 A 0.24,0.24 0 0 0 7.64,9.55 Z m -0.63,1.38 -0.38,0.4 H 6.46 V 11.15 H 5.44 v 0.34 h 1.02 v -0.07 h 0.22 l 0.38,-0.38 h 1.4 l 0.08,-0.12 z m 1.4,0.15 v 0.02 L 8.43,11.07 H 8.42 Z"
     id="path23"
     inkscape:connector-curvature="0"
     style="fill:#374837" />
  <g
     transform="matrix(0.126,0,0,0.126,0.73,1.1)"
     id="g88"
     style="fill:#7c916f;stroke-width:2.0999999">
    <rect
       x="17"
       y="8"
       width="2"
       height="4"
       rx="2.0999999"
       ry="2.0999999"
       id="d"
       style="color:#000000" />
    <use
       transform="translate(4)"
       width="64"
       height="64"
       xlink:href="#d"
       id="use26"
       x="0"
       y="0" />
    <use
       transform="rotate(90,32,29)"
       width="64"
       height="64"
       xlink:href="#d"
       id="use28"
       x="0"
       y="0" />
    <use
       transform="matrix(0,1,1,0,3,-3)"
       width="64"
       height="64"
       xlink:href="#d"
       id="use30"
       x="0"
       y="0" />
    <use
       transform="translate(0,38)"
       width="64"
       height="64"
       xlink:href="#d"
       id="use32"
       x="0"
       y="0" />
    <use
       transform="translate(16)"
       width="64"
       height="64"
       xlink:href="#d"
       id="use34"
       x="0"
       y="0" />
    <use
       transform="rotate(90,26,35)"
       width="64"
       height="64"
       xlink:href="#d"
       id="use36"
       x="0"
       y="0" />
    <use
       transform="matrix(0,1,1,0,3,9)"
       width="64"
       height="64"
       xlink:href="#d"
       id="use38"
       x="0"
       y="0" />
    <use
       transform="translate(12,38)"
       width="64"
       height="64"
       xlink:href="#d"
       id="use40"
       x="0"
       y="0" />
    <use
       transform="translate(8)"
       width="64"
       height="64"
       xlink:href="#d"
       id="use42"
       x="0"
       y="0" />
    <use
       transform="rotate(90,30,31)"
       width="64"
       height="64"
       xlink:href="#d"
       id="use44"
       x="0"
       y="0" />
    <use
       transform="matrix(0,1,1,0,3,1)"
       width="64"
       height="64"
       xlink:href="#d"
       id="use46"
       x="0"
       y="0" />
    <use
       transform="translate(4,38)"
       width="64"
       height="64"
       xlink:href="#d"
       id="use48"
       x="0"
       y="0" />
    <use
       transform="translate(20)"
       width="64"
       height="64"
       xlink:href="#d"
       id="use50"
       x="0"
       y="0" />
    <use
       transform="rotate(90,24,37)"
       width="64"
       height="64"
       xlink:href="#d"
       id="use52"
       x="0"
       y="0" />
    <use
       transform="matrix(0,1,1,0,3,13)"
       width="64"
       height="64"
       xlink:href="#d"
       id="use54"
       x="0"
       y="0" />
    <use
       transform="translate(16,38)"
       width="64"
       height="64"
       xlink:href="#d"
       id="use56"
       x="0"
       y="0" />
    <use
       transform="translate(12)"
       width="64"
       height="64"
       xlink:href="#d"
       id="use58"
       x="0"
       y="0" />
    <use
       transform="rotate(90,28,33)"
       width="64"
       height="64"
       xlink:href="#d"
       id="use60"
       x="0"
       y="0" />
    <use
       transform="matrix(0,1,1,0,3,5)"
       width="64"
       height="64"
       xlink:href="#d"
       id="use62"
       x="0"
       y="0" />
    <use
       transform="translate(8,38)"
       width="64"
       height="64"
       xlink:href="#d"
       id="use64"
       x="0"
       y="0" />
    <use
       transform="translate(24)"
       width="64"
       height="64"
       xlink:href="#d"
       id="use66"
       x="0"
       y="0" />
    <use
       transform="rotate(90,22,39)"
       width="64"
       height="64"
       xlink:href="#d"
       id="use68"
       x="0"
       y="0" />
    <use
       transform="matrix(0,1,1,0,3,17)"
       width="64"
       height="64"
       xlink:href="#d"
       id="use70"
       x="0"
       y="0" />
    <use
       transform="translate(20,38)"
       width="64"
       height="64"
       xlink:href="#d"
       id="use72"
       x="0"
       y="0" />
    <use
       transform="translate(28)"
       width="64"
       height="64"
       xlink:href="#d"
       id="use74"
       x="0"
       y="0" />
    <use
       transform="rotate(90,20,41)"
       width="64"
       height="64"
       xlink:href="#d"
       id="use76"
       x="0"
       y="0" />
    <use
       transform="matrix(0,1,1,0,3,21)"
       width="64"
       height="64"
       xlink:href="#d"
       id="use78"
       x="0"
       y="0" />
    <use
       transform="translate(24,38)"
       width="64"
       height="64"
       xlink:href="#d"
       id="use80"
       x="0"
       y="0" />
    <use
       transform="rotate(90,18,43)"
       width="64"
       height="64"
       xlink:href="#d"
       id="use82"
       x="0"
       y="0" />
    <use
       transform="matrix(0,1,1,0,3,25)"
       width="64"
       height="64"
       xlink:href="#d"
       id="use84"
       x="0"
       y="0" />
    <use
       transform="translate(28,38)"
       width="64"
       height="64"
       xlink:href="#d"
       id="use86"
       x="0"
       y="0" />
  </g>
  <path
     d="M 2.75,2.5 2.49,2.75 V 6.78 L 2.75,7.03 H 6.78 L 7.03,6.78 V 2.75 L 6.78,2.49 Z"
     id="path90"
     style="color:#000000;fill:url(#e)"
     inkscape:connector-curvature="0" />
  <path
     d="M 5.25,3.2 C 4.92,3.2 4.75,3.62 5.06,3.75 5.33,3.85 5.59,3.62 5.53,3.4 5.51,3.28 5.39,3.2 5.25,3.2 Z M 5.12,4.17 C 5.06,4.17 5,4.17 4.92,4.23 4.62,4.36 4.35,4.54 4.06,4.73 4.1,4.81 4.14,4.87 4.23,4.79 4.33,4.72 4.67,4.5 4.63,4.72 L 4.3,5.97 C 4.2,6.21 4.44,6.42 4.7,6.25 4.97,6.17 5.21,6.01 5.44,5.85 5.42,5.8 5.4,5.7 5.3,5.78 5.17,5.82 4.93,6.05 4.89,5.87 4.97,5.42 5.15,4.99 5.29,4.54 5.36,4.38 5.29,4.19 5.13,4.17 Z"
     id="path92"
     inkscape:connector-curvature="0"
     style="fill:#1a1a1a" />
  <path
     d="M 5.15,3.1 C 4.82,3.1 4.66,3.53 4.97,3.65 5.23,3.75 5.5,3.53 5.43,3.3 5.41,3.18 5.29,3.1 5.15,3.1 Z M 5.03,4.08 A 4.33,4.33 0 0 0 3.97,4.63 C 4.01,4.71 4.05,4.77 4.13,4.69 4.23,4.63 4.58,4.4 4.53,4.63 L 4.2,5.87 C 4.1,6.12 4.34,6.32 4.6,6.16 4.87,6.08 5.12,5.91 5.34,5.75 5.32,5.71 5.3,5.61 5.2,5.69 5.08,5.73 4.83,5.95 4.8,5.77 4.87,5.32 5.06,4.89 5.2,4.44 5.26,4.28 5.2,4.1 5.04,4.08 Z"
     id="path94"
     inkscape:connector-curvature="0"
     style="fill:#ffffff" />
  <g
     transform="matrix(0.03264,0,0,0.03264,118.64,-1.4)"
     id="g128"
     style="fill:#333333">
    <rect
       width="10.7"
       height="2.5699999"
       x="-3356.8301"
       y="206.81"
       rx="1.28"
       ry="1.28"
       id="rect96" />
    <rect
       width="10.7"
       height="2.5699999"
       x="-3356.8301"
       y="213.66"
       rx="1.28"
       ry="1.28"
       id="rect98" />
    <rect
       width="10.7"
       height="2.5699999"
       x="-3356.8301"
       y="220.50999"
       rx="1.28"
       ry="1.28"
       id="rect100" />
    <rect
       width="10.7"
       height="2.5699999"
       x="-3356.8301"
       y="227.35001"
       rx="1.28"
       ry="1.28"
       id="rect102" />
    <rect
       width="10.7"
       height="2.5699999"
       x="-3356.8301"
       y="234.2"
       rx="1.28"
       ry="1.28"
       id="rect104" />
    <rect
       width="10.7"
       height="2.5699999"
       x="-3356.8301"
       y="241.05"
       rx="1.28"
       ry="1.28"
       id="rect106" />
    <rect
       width="10.7"
       height="2.5699999"
       x="-3356.8301"
       y="247.89999"
       rx="1.28"
       ry="1.28"
       id="rect108" />
    <rect
       ry="1.28"
       rx="1.28"
       y="254.74001"
       x="-3356.8301"
       height="2.5699999"
       width="10.7"
       id="rect110" />
    <rect
       ry="1.28"
       rx="1.28"
       y="206.81"
       x="-3393.1599"
       height="2.5699999"
       width="10.7"
       id="rect112" />
    <rect
       ry="1.28"
       rx="1.28"
       y="213.66"
       x="-3393.1599"
       height="2.5699999"
       width="10.7"
       id="rect114" />
    <rect
       ry="1.28"
       rx="1.28"
       y="220.50999"
       x="-3393.1599"
       height="2.5699999"
       width="10.7"
       id="rect116" />
    <rect
       ry="1.28"
       rx="1.28"
       y="227.35001"
       x="-3393.1599"
       height="2.5699999"
       width="10.7"
       id="rect118" />
    <rect
       ry="1.28"
       rx="1.28"
       y="234.2"
       x="-3393.1599"
       height="2.5699999"
       width="10.7"
       id="rect120" />
    <rect
       ry="1.28"
       rx="1.28"
       y="241.05"
       x="-3393.1599"
       height="2.5699999"
       width="10.7"
       id="rect122" />
    <rect
       ry="1.28"
       rx="1.28"
       y="247.89999"
       x="-3393.1599"
       height="2.5699999"
       width="10.7"
       id="rect124" />
    <rect
       width="10.7"
       height="2.5699999"
       x="-3393.1599"
       y="254.74001"
       rx="1.28"
       ry="1.28"
       id="rect126" />
  </g>
  <path
     d="M 8.06,5.21 H 9.25 V 7.19 H 8.06 Z"
     id="path130"
     style="fill:url(#f)"
     inkscape:connector-curvature="0" />
</svg>
