<?xml version="1.0" encoding="UTF-8" standalone="no"?>
<svg
   xmlns:dc="http://purl.org/dc/elements/1.1/"
   xmlns:cc="http://creativecommons.org/ns#"
   xmlns:rdf="http://www.w3.org/1999/02/22-rdf-syntax-ns#"
   xmlns:svg="http://www.w3.org/2000/svg"
   xmlns="http://www.w3.org/2000/svg"
   xmlns:xlink="http://www.w3.org/1999/xlink"
   xmlns:sodipodi="http://sodipodi.sourceforge.net/DTD/sodipodi-0.dtd"
   xmlns:inkscape="http://www.inkscape.org/namespaces/inkscape"
   width="48"
   height="48"
   version="1.1"
   id="svg75"
   sodipodi:docname="istanbul.svg"
   inkscape:version="0.92.4 (5da689c313, 2019-01-14)">
  <sodipodi:namedview
     pagecolor="#ffffff"
     bordercolor="#666666"
     borderopacity="1"
     objecttolerance="10"
     gridtolerance="10"
     guidetolerance="10"
     inkscape:pageopacity="0"
     inkscape:pageshadow="2"
     inkscape:window-width="1112"
     inkscape:window-height="480"
     id="namedview77"
     showgrid="false"
     inkscape:zoom="4.9166667"
     inkscape:cx="2.1355932"
     inkscape:cy="24"
     inkscape:window-x="0"
     inkscape:window-y="25"
     inkscape:window-maximized="0"
     inkscape:current-layer="svg75" />
  <metadata
     id="metadata2">
    <rdf:RDF>
      <cc:Work>
        <dc:format>image/svg+xml</dc:format>
        <dc:type
           rdf:resource="http://purl.org/dc/dcmitype/StillImage" />
        <dc:title></dc:title>
      </cc:Work>
    </rdf:RDF>
  </metadata>
  <defs
     id="defs51">
    <linearGradient
       id="g">
      <stop
         offset="0"
         stop-color="#d7eef4"
         id="stop4" />
      <stop
         offset="1"
         stop-color="#87cdde"
         stop-opacity="0"
         id="stop6" />
    </linearGradient>
    <linearGradient
       id="f">
      <stop
         offset="0"
         stop-color="#0b2228"
         id="stop9" />
      <stop
         offset="1"
         stop-color="#37abc8"
         id="stop11" />
    </linearGradient>
    <linearGradient
       id="b">
      <stop
         offset="0"
         id="stop14" />
      <stop
         offset="1"
         stop-opacity="0"
         id="stop16" />
    </linearGradient>
    <linearGradient
       id="a">
      <stop
         offset="0"
         stop-color="#ef2929"
         id="stop19" />
      <stop
         offset="1"
         stop-color="#c00"
         id="stop21" />
    </linearGradient>
    <linearGradient
       xlink:href="#c"
       id="j"
       x1="20.63"
       y1="33"
       x2="43.38"
       y2="33"
       gradientUnits="userSpaceOnUse"
       gradientTransform="matrix(0.75276,0,0,0.75276,-0.09,-2.54)" />
    <linearGradient
       id="c">
      <stop
         offset="0"
         stop-color="#eef9f9"
         id="stop25" />
      <stop
         offset=".26"
         stop-color="#f2fdfe"
         id="stop27" />
      <stop
         offset=".51"
         stop-color="#cbeae7"
         id="stop29" />
      <stop
         offset=".77"
         stop-color="#8bcdc9"
         id="stop31" />
      <stop
         offset="1"
         stop-color="#43aea4"
         id="stop33" />
    </linearGradient>
    <radialGradient
       xlink:href="#a"
       id="k"
       cx="32"
       cy="34"
       fx="32"
       fy="34"
       r="6"
       gradientUnits="userSpaceOnUse"
       gradientTransform="matrix(0.7409,0,0,0.7409,0.3,-2.86)" />
    <linearGradient
       xlink:href="#d"
       id="l"
       x1="-1.55"
       y1="52.01"
       x2="-1.33"
       y2="48.3"
       gradientUnits="userSpaceOnUse"
       gradientTransform="matrix(0.66485,0,0,0.66485,2.12,1.73)" />
    <linearGradient
       id="d">
      <stop
         offset="0"
         stop-color="#ff936e"
         id="stop38" />
      <stop
         offset="1"
         stop-color="#ff936e"
         stop-opacity="0"
         id="stop40" />
    </linearGradient>
    <linearGradient
       xlink:href="#e"
       id="m"
       x1="-1.06"
       y1="41.11"
       x2="-1.06"
       y2="46.45"
       gradientUnits="userSpaceOnUse"
       gradientTransform="matrix(0.66485,0,0,0.66485,2.12,1.73)" />
    <linearGradient
       id="e">
      <stop
         offset="0"
         stop-color="#f1ff83"
         stop-opacity=".96"
         id="stop44" />
      <stop
         offset="1"
         stop-color="#e7ff3c"
         stop-opacity="0"
         id="stop46" />
    </linearGradient>
    <linearGradient
       xlink:href="#f"
       id="h"
       x1="23.67"
       y1="47.77"
       x2="24"
       y2=".35"
       gradientUnits="userSpaceOnUse" />
    <linearGradient
       xlink:href="#g"
       id="i"
       x1="24.21"
       y1="11.91"
       x2="23.82"
       y2="32.3"
       gradientUnits="userSpaceOnUse" />
  </defs>
  <path
     d="m 24,0.35 c -5.83,0 -10.52,1.12 -13.93,3.33 -4.1,2.66 -6.27,6.9 -6.27,12.27 0,7.23 5.8,16.88 7.58,19.67 a 54.48,54.48 0 0 0 0.22,0.31 54.48,54.48 0 0 0 4.46,6 54.48,54.48 0 0 0 1.57,1.85 c 2.54,2.64 4.57,3.87 6.37,3.87 1.8,0 3.83,-1.23 6.37,-3.87 2,-2.08 4.22,-4.97 6.25,-8.16 C 38.4,32.82 44.2,23.18 44.2,15.95 44.2,10.58 42.04,6.34 37.94,3.68 34.52,1.47 29.84,0.35 24,0.35 Z M 23.91,2.8 c 2,0 3.81,0.17 5.48,0.49 l -0.52,1.42 c -1.5,-0.3 -3.16,-0.45 -4.96,-0.45 -1.73,0 -3.33,0.14 -4.8,0.41 L 18.6,3.25 C 20.22,2.95 21.99,2.8 23.91,2.8 Z m -8.66,1.35 0.54,1.47 C 14.86,5.98 14,6.42 13.24,6.94 A 10.48,10.48 0 0 0 9.69,11.02 L 8.24,10 a 11.4,11.4 0 0 1 3.82,-4.26 14.9,14.9 0 0 1 3.2,-1.59 z m 17.47,0.06 c 1.12,0.42 2.14,0.92 3.05,1.53 a 11.38,11.38 0 0 1 3.87,4.34 l -1.46,1.03 C 37.38,9.42 36.17,8.01 34.58,6.94 33.86,6.44 33.06,6.04 32.19,5.68 Z m -25.68,9.16 1.6,1.12 c -0.12,0.74 -0.2,1.5 -0.2,2.31 0,1.46 0.28,3.03 0.72,4.61 H 7.46 A 15.95,15.95 0 0 1 7.04,13.37 Z m 33.75,0.12 a 16.05,16.05 0 0 1 -0.43,7.92 h -1.7 c 0.44,-1.58 0.72,-3.15 0.72,-4.6 0,-0.77 -0.08,-1.5 -0.18,-2.2 z M 8.62,24.86 h 1.74 c 0.92,2.3 1.92,4.26 2.77,5.79 L 11.8,31.58 A 46.97,46.97 0 0 1 8.62,24.87 Z m 28.84,0 h 1.74 a 46.96,46.96 0 0 1 -3.13,6.62 l -1.33,-0.92 a 51.04,51.04 0 0 0 2.72,-5.7 z m -4.46,8.68 1.32,0.92 a 52.39,52.39 0 0 1 -3.35,4.76 L 30.3,37.38 c 0.9,-1.14 1.81,-2.44 2.7,-3.84 z m -18.08,0.07 a 41.72,43.8 0 0 0 2.76,3.88 L 17,39.32 a 46.35,48.1 0 0 1 -1.18,-1.44 46.35,48.1 0 0 1 -2.24,-3.34 z m 12.77,6.68 0.67,1.84 c -0.7,0.67 -1.35,1.2 -1.97,1.6 -0.89,0.56 -1.7,0.83 -2.47,0.83 -0.77,0 -1.58,-0.27 -2.47,-0.84 -0.58,-0.36 -1.19,-0.85 -1.84,-1.46 l 0.67,-1.84 c 1.39,1.26 2.57,1.87 3.64,1.87 1.1,0 2.33,-0.65 3.77,-2 z"
     id="path53"
     style="fill:url(#h)"
     inkscape:connector-curvature="0" />
  <path
     d="m 24,6.9 c -3.62,0 -6.52,0.75 -8.64,2.24 -2.54,1.78 -3.89,4.63 -3.89,8.23 0,4.85 3.6,11.33 4.7,13.2 a 33.78,36.57 0 0 0 3.88,5.48 c 1.58,1.77 2.83,2.6 3.95,2.6 1.12,0 2.37,-0.83 3.95,-2.6 a 36.05,36.05 0 0 0 3.88,-5.48 c 1.1,-1.87 4.7,-8.35 4.7,-13.2 0,-3.6 -1.34,-6.45 -3.89,-8.23 C 30.52,7.65 27.62,6.9 24,6.9 Z"
     id="path55"
     style="fill:url(#i)"
     inkscape:connector-curvature="0" />
  <path
     style="color:#000000;overflow:visible;fill:url(#j);fill-rule:evenodd;marker:none"
     d="m 24,13.74 a 8.565,8.565 0 1 0 0,17.13 8.565,8.565 0 0 0 0,-17.13 z m 0,1.75 A 6.8100073,6.8100073 0 1 1 24.02,29.11 6.81,6.81 0 0 1 24,15.5 Z"
     overflow="visible"
     id="path57"
     inkscape:connector-curvature="0" />
  <path
     d="m 24,14.77 a 7.56,7.56 0 1 0 0,15.12 7.56,7.56 0 0 0 0,-15.12 z m 0,1.54 A 6.02,6.02 0 1 1 24.01,28.34 6.02,6.02 0 0 1 24,16.31 Z"
     style="color:#000000;overflow:visible;fill:#2f8e8f;fill-rule:evenodd;marker:none"
     overflow="visible"
     id="path59"
     inkscape:connector-curvature="0" />
  <path
     style="color:#000000;overflow:visible;fill:#1a1a1a;fill-rule:evenodd;marker:none"
     d="M 30.27,22.33 A 6.27,6.27 0 0 1 24,28.6 6.27,6.27 0 0 1 17.73,22.33 6.27,6.27 0 0 1 24,16.07 a 6.27,6.27 0 0 1 6.27,6.26 z"
     overflow="visible"
     id="path61"
     inkscape:connector-curvature="0" />
  <path
     d="M 28.45,22.33 A 4.45,4.45 0 0 1 24,26.78 4.45,4.45 0 0 1 19.55,22.33 4.45,4.45 0 0 1 24,17.9 a 4.45,4.45 0 0 1 4.45,4.44 z"
     style="color:#000000;overflow:visible;fill:url(#k);fill-rule:evenodd;marker:none"
     overflow="visible"
     id="path63"
     inkscape:connector-curvature="0" />
  <ellipse
     transform="rotate(-45)"
     style="color:#000000;overflow:visible;fill:url(#l);fill-rule:evenodd;marker:none"
     cx="1.1799999"
     cy="34.959999"
     rx="1.98"
     ry="1.35"
     overflow="visible"
     id="ellipse65" />
  <ellipse
     style="color:#000000;overflow:visible;fill:url(#m);fill-rule:evenodd;marker:none"
     transform="rotate(-45)"
     cx="1.36"
     cy="30.709999"
     rx="2.04"
     ry="1.66"
     overflow="visible"
     id="ellipse67" />
  <g
     style="font-weight:700;font-size:16px;line-height:125%;font-family:'Open Sans';-inkscape-font-specification:'Open Sans Bold';letter-spacing:0;word-spacing:0;fill:#e72f6a;stroke-width:4.82000017"
     font-weight="700"
     font-size="16"
     letter-spacing="0"
     word-spacing="0"
     id="g71">
    <path
       d="m 22.82,10.6 h 0.16 q 0.24,0 0.35,-0.09 0.12,-0.08 0.12,-0.25 0,-0.16 -0.12,-0.24 -0.12,-0.07 -0.36,-0.07 h -0.15 z m 0,0.4 v 0.91 h -0.5 V 9.54 H 23 q 0.48,0 0.71,0.18 0.23,0.17 0.23,0.53 0,0.21 -0.11,0.37 -0.12,0.17 -0.33,0.26 l 0.7,1.03 h -0.56 l -0.56,-0.9 z m 3.05,0.91 H 24.51 V 9.54 h 1.36 v 0.41 h -0.86 v 0.52 h 0.8 v 0.42 h -0.8 v 0.6 h 0.86 z m 1.5,-1.98 q -0.28,0 -0.43,0.21 -0.16,0.21 -0.16,0.6 0,0.79 0.6,0.79 0.24,0 0.6,-0.13 v 0.42 q -0.3,0.12 -0.65,0.12 -0.52,0 -0.8,-0.3 -0.27,-0.32 -0.27,-0.91 0,-0.37 0.14,-0.65 0.13,-0.28 0.38,-0.42 0.26,-0.15 0.6,-0.15 0.34,0 0.69,0.16 l -0.16,0.41 -0.27,-0.1 Q 27.5,9.93 27.37,9.93 Z"
       id="path69"
       inkscape:connector-curvature="0" />
  </g>
  <circle
     r="0.88"
     cy="10.73"
     cx="20.450001"
     style="color:#000000;overflow:visible;fill:#e72f6a;marker:none"
     overflow="visible"
     id="circle73" />
</svg>
