<?xml version="1.0" encoding="UTF-8" standalone="no"?><svg xmlns:dc="http://purl.org/dc/elements/1.1/" xmlns:cc="http://creativecommons.org/ns#" xmlns:rdf="http://www.w3.org/1999/02/22-rdf-syntax-ns#" xmlns="http://www.w3.org/2000/svg" xmlns:xlink="http://www.w3.org/1999/xlink" width="48" height="48" viewBox="0 0 12.7 12.7"><metadata><rdf:RDF><cc:Work><dc:format>image/svg+xml</dc:format><dc:type rdf:resource="http://purl.org/dc/dcmitype/StillImage"/><dc:title/></cc:Work></rdf:RDF></metadata><defs><linearGradient id="e"><stop offset="0" stop-color="#f95"/><stop offset="1" stop-color="#fca"/></linearGradient><linearGradient id="d"><stop offset="0"/><stop offset="1" stop-opacity=".09"/></linearGradient><linearGradient id="c"><stop offset="0"/><stop offset="1" stop-opacity=".02"/></linearGradient><linearGradient id="a"><stop offset="0" stop-color="#fff"/><stop offset="1" stop-color="#1a1a1a"/></linearGradient><linearGradient id="b"><stop offset="0" stop-color="#917c6f"/><stop offset="1" stop-color="#f4e3d7"/></linearGradient><linearGradient xlink:href="#d" id="g" gradientUnits="userSpaceOnUse" x1="5.07" y1="6.31" x2="13.17" y2="10.46"/><linearGradient xlink:href="#e" id="f" x1=".23" y1="2.99" x2="11.69" y2="6.35" gradientUnits="userSpaceOnUse"/></defs><path d="M6.35.1C4.81.1 3.57.38 2.66.96A3.67 3.67 0 0 0 1 4.22c0 1.91 1.54 4.47 2.01 5.2.54.85 1.13 1.61 1.65 2.16.68.7 1.21 1.03 1.69 1.03s1.01-.33 1.69-1.03a15.2 15.2 0 0 0 1.65-2.15c.47-.74 2-3.3 2-5.21 0-1.42-.57-2.54-1.65-3.25A6.75 6.75 0 0 0 6.35.1z" fill="url(#f)"/><path d="M6.82.1a6.75 6.75 0 0 0-.1 0L5.38 7.63 8.57.36a6.75 6.75 0 0 0-.41-.11 6.75 6.75 0 0 0-.67-.11 6.75 6.75 0 0 0-.67-.05zM5.37 7.63l6.07-1.9c.15-.52.25-1.04.25-1.52 0-.1-.02-.19-.03-.28l-6.29 3.7zm0 0l4.32 1.8v-.01c.1-.16.34-.65.52-.96l-4.84-.83zm0 0l1.58 4.77c.06-.03.1-.02.17-.05.23-.15.5-.39.77-.65a1244.73 1244.73 0 0 1-2.52-4.07zm0 0l-1.36 3.08c.22.28.44.64.65.86l.71-3.94zm0 0l-2.85.88.32.6 2.53-1.48zM3.1.74c-.15.07-.3.13-.44.22a3.67 3.67 0 0 0-.3.22 3.67 3.67 0 0 0-.27.24 3.67 3.67 0 0 0-.25.27 3.67 3.67 0 0 0-.09.12 1342.89 1342.89 0 0 1 3.61 5.81L3.1.73zm-1.78 5.2c.12.35.26.7.4 1.05l3.58.62-3.98-1.68z" fill="#ff7f2a"/><path d="M8.86 10.52c.28-.37.56-.67.83-1.09.23-.37.73-1.2 1.18-2.17.22-.48.42-1 .57-1.52.03-.1.02-.18.05-.27L8.66 2.64l-.38 1.08-.24 3.58-1.62.78z" opacity=".5" fill="url(#g)"/><path font-size="25.19" font-weight="700" d="M7.4 2.89l1.26-.25v3.93c0 .5-.16.88-.5 1.13-.32.25-.82.38-1.49.38h-.25v-.8h.2c.26 0 .45-.05.59-.18a.7.7 0 0 0 .2-.53V2.89" style="line-height:125%;text-align:start" font-family="Bitstream Vera Sans" fill="#fff"/><path d="M6.35.1C4.81.1 3.57.38 2.66.96A3.67 3.67 0 0 0 1 4.22c0 1.91 1.54 4.47 2.01 5.2.54.85 1.13 1.61 1.65 2.16.68.7 1.21 1.03 1.69 1.03s1.01-.33 1.69-1.03a15.2 15.2 0 0 0 1.65-2.15c.47-.74 2-3.3 2-5.21 0-1.42-.57-2.54-1.65-3.25A6.75 6.75 0 0 0 6.35.1zm0 .03C6.91.15 7.44.2 7.9.31a5.82 5.82 0 0 1 1.6.66 3.65 3.65 0 0 1 1.24 1.36c.14.27.25.57.32.88a4.61 4.61 0 0 1-.14 2.53c-.15.52-.36 1.04-.58 1.52-.44.97-.95 1.8-1.18 2.17a15.2 15.2 0 0 1-1.65 2.15 4.9 4.9 0 0 1-.92.78.96.96 0 0 1-.24.1.96.96 0 0 1-.24-.1 4.76 4.76 0 0 1-.92-.78 14.41 14.41 0 0 1-1.65-2.15 19.2 19.2 0 0 1-1.18-2.17c-.22-.48-.43-1-.58-1.52a4.6 4.6 0 0 1-.14-2.52 3.73 3.73 0 0 1 .84-1.64 3.65 3.65 0 0 1 1.45-1A6.83 6.83 0 0 1 6.35.13z" opacity=".2"/></svg>