<?xml version="1.0" encoding="UTF-8" standalone="no"?>
<svg
   xmlns:dc="http://purl.org/dc/elements/1.1/"
   xmlns:cc="http://creativecommons.org/ns#"
   xmlns:rdf="http://www.w3.org/1999/02/22-rdf-syntax-ns#"
   xmlns:svg="http://www.w3.org/2000/svg"
   xmlns="http://www.w3.org/2000/svg"
   xmlns:xlink="http://www.w3.org/1999/xlink"
   xmlns:sodipodi="http://sodipodi.sourceforge.net/DTD/sodipodi-0.dtd"
   xmlns:inkscape="http://www.inkscape.org/namespaces/inkscape"
   width="48"
   height="48"
   version="1.1"
   id="svg73"
   sodipodi:docname="karbon.svg"
   inkscape:version="0.92.4 (5da689c313, 2019-01-14)">
  <metadata
     id="metadata77">
    <rdf:RDF>
      <cc:Work
         rdf:about="">
        <dc:format>image/svg+xml</dc:format>
        <dc:type
           rdf:resource="http://purl.org/dc/dcmitype/StillImage" />
        <dc:title></dc:title>
      </cc:Work>
    </rdf:RDF>
  </metadata>
  <sodipodi:namedview
     pagecolor="#ffffff"
     bordercolor="#666666"
     borderopacity="1"
     objecttolerance="10"
     gridtolerance="10"
     guidetolerance="10"
     inkscape:pageopacity="0"
     inkscape:pageshadow="2"
     inkscape:window-width="1112"
     inkscape:window-height="480"
     id="namedview75"
     showgrid="false"
     inkscape:zoom="4.9166667"
     inkscape:cx="2.1355932"
     inkscape:cy="24"
     inkscape:window-x="0"
     inkscape:window-y="25"
     inkscape:window-maximized="0"
     inkscape:current-layer="svg73" />
  <defs
     id="defs51">
    <linearGradient
       id="h">
      <stop
         offset="0"
         stop-color="teal"
         id="stop2" />
      <stop
         offset="1"
         stop-color="#afdde9"
         id="stop4" />
    </linearGradient>
    <linearGradient
       id="g">
      <stop
         offset="0"
         stop-color="#53676c"
         id="stop7" />
      <stop
         offset="1"
         stop-color="#b7c4c8"
         id="stop9" />
    </linearGradient>
    <linearGradient
       id="f">
      <stop
         offset="0"
         stop-color="#4d4d4d"
         id="stop12" />
      <stop
         offset="1"
         id="stop14" />
    </linearGradient>
    <linearGradient
       id="e">
      <stop
         offset="0"
         stop-color="#4d4d4d"
         id="stop17" />
      <stop
         offset="1"
         id="stop19" />
    </linearGradient>
    <linearGradient
       id="d">
      <stop
         offset="0"
         id="stop22" />
      <stop
         offset="1"
         stop-color="#4d4d4d"
         id="stop24" />
    </linearGradient>
    <linearGradient
       id="c">
      <stop
         offset="0"
         stop-color="#ffb380"
         id="stop27" />
      <stop
         offset="1"
         stop-color="#f60"
         id="stop29" />
    </linearGradient>
    <linearGradient
       id="b">
      <stop
         offset="0"
         stop-color="#ffb380"
         id="stop32" />
      <stop
         offset="1"
         stop-color="#f60"
         id="stop34" />
    </linearGradient>
    <linearGradient
       id="a">
      <stop
         offset="0"
         id="stop37" />
      <stop
         offset="1"
         stop-opacity="0"
         id="stop39" />
    </linearGradient>
    <radialGradient
       xlink:href="#b"
       id="q"
       cx="29.94"
       cy="38.34"
       fx="29.94"
       fy="38.34"
       r="3.37"
       gradientTransform="matrix(0.80811,0.68333,-0.77868,0.92088,35.8,-17.54)"
       gradientUnits="userSpaceOnUse" />
    <radialGradient
       xlink:href="#c"
       id="p"
       cx="12.61"
       cy="27.43"
       fx="12.61"
       fy="27.43"
       r="2.51"
       gradientUnits="userSpaceOnUse" />
    <radialGradient
       xlink:href="#b"
       id="o"
       cx="35.14"
       cy="14.23"
       fx="35.14"
       fy="14.23"
       r="2.02"
       gradientUnits="userSpaceOnUse" />
    <radialGradient
       xlink:href="#c"
       id="n"
       cx="8.39"
       cy="5.01"
       fx="8.39"
       fy="5.01"
       r="1.03"
       gradientTransform="matrix(1,0,0,0.9555,0,0.23)"
       gradientUnits="userSpaceOnUse" />
    <linearGradient
       xlink:href="#d"
       id="m"
       x1="11.06"
       y1="21.5"
       x2="36.77"
       y2="21.5"
       gradientUnits="userSpaceOnUse" />
    <linearGradient
       xlink:href="#e"
       id="l"
       gradientUnits="userSpaceOnUse"
       x1="8.97"
       y1="10.05"
       x2="36.78"
       y2="10.05" />
    <linearGradient
       xlink:href="#f"
       id="k"
       x1="11.7"
       y1="33.03"
       x2="30.77"
       y2="33.03"
       gradientUnits="userSpaceOnUse" />
    <linearGradient
       xlink:href="#g"
       id="i"
       x1="44.48"
       y1=".5"
       x2="14.1"
       y2=".32"
       gradientUnits="userSpaceOnUse" />
    <linearGradient
       xlink:href="#h"
       id="j"
       x1="3.71"
       y1="4.9"
       x2="24.56"
       y2="4.81"
       gradientUnits="userSpaceOnUse" />
  </defs>
  <path
     d="m 24,0.35 c -5.83,0 -10.52,1.12 -13.93,3.33 -4.1,2.66 -6.27,6.9 -6.27,12.27 0,7.23 5.8,16.88 7.58,19.67 a 54.48,54.48 0 0 0 6.25,8.16 c 2.54,2.64 4.57,3.87 6.37,3.87 1.8,0 3.83,-1.23 6.37,-3.87 2,-2.08 4.22,-4.97 6.25,-8.16 C 38.4,32.83 44.2,23.18 44.2,15.95 44.2,10.58 42.04,6.34 37.94,3.68 34.52,1.47 29.84,0.35 24,0.35 Z"
     id="path53"
     style="fill:url(#i)"
     inkscape:connector-curvature="0" />
  <path
     d="M 8.72,4.82 C 8.26,5.2 7.75,5.54 7.36,5.96 6.58,6.82 5.93,7.76 5.4,8.8 a 14.07,14.07 0 0 0 -1.2,3.34 17.4,17.4 0 0 0 -0.4,3.8 c 0,1.82 0.36,3.78 0.93,5.74 a 43.13,43.13 0 0 0 2.2,5.77 69.54,69.54 0 0 0 4.45,8.17 54.48,54.48 0 0 0 3.12,4.47 54.48,54.48 0 0 0 3.13,3.69 17.94,17.94 0 0 0 3.46,2.93 c 1.05,0.63 2.01,0.94 2.91,0.94 0.9,0 1.86,-0.3 2.9,-0.94 1.06,-0.64 2.2,-1.61 3.47,-2.93 0.81,-0.85 1.68,-2.24 2.54,-3.32 L 30.55,38.86 12.61,27.43 36.04,14.76 9.7,5.35 Z"
     id="path55"
     style="fill:url(#j)"
     inkscape:connector-curvature="0" />
  <path
     d="M 13.27,28.2 29.2,37.86"
     id="path57"
     style="fill:none;stroke:url(#k);stroke-width:3.0999999;stroke-linecap:round;stroke-linejoin:round"
     inkscape:connector-curvature="0" />
  <path
     d="m 9.7,5.35 26.34,9.4"
     id="path59"
     style="fill:none;stroke:url(#l);stroke-width:1.46000004;stroke-linecap:round;stroke-linejoin:round"
     inkscape:connector-curvature="0" />
  <path
     d="M 12.6,27.43 35.23,15.57"
     id="path61"
     style="fill:none;stroke:url(#m);stroke-width:3.04999995;stroke-linecap:round;stroke-linejoin:round"
     inkscape:connector-curvature="0" />
  <path
     d="M 9.3,4.22 C 8.69,4.67 8.18,5.14 7.66,5.68 7.87,5.97 8.15,6.24 8.54,6.24 9.18,6.24 9.7,5.72 9.7,5.08 9.7,4.76 9.5,4.43 9.3,4.22 Z"
     id="path63"
     style="color:#000000;fill:url(#n)"
     inkscape:connector-curvature="0" />
  <path
     d="m 35.69,13.02 a 2.02,2.02 0 1 0 0,4.04 2.02,2.02 0 0 0 0,-4.04 z"
     id="path65"
     style="color:#000000;fill:url(#o)"
     inkscape:connector-curvature="0" />
  <path
     d="m 13.24,25.15 a 2.515,2.515 0 1 0 0,5.03 2.515,2.515 0 0 0 0,-5.03 z"
     id="path67"
     style="color:#000000;fill:url(#p)"
     inkscape:connector-curvature="0" />
  <path
     d="m 31.44,35.94 a 3.4699352,3.4699352 0 1 0 -0.37,6.93 c 1.18,-1.3 2.39,-3.01 3.6,-4.71 a 3.48,3.48 0 0 0 -3.23,-2.22 z"
     id="path69"
     style="color:#000000;fill:url(#q)"
     inkscape:connector-curvature="0" />
  <path
     d="m 3.92,14.74 c -0.02,0.4 -0.13,0.78 -0.13,1.2 0,7.24 5.81,16.9 7.6,19.68 a 54.47,54.47 0 0 0 6.24,8.16 c 2.54,2.64 4.57,3.87 6.37,3.87 1.8,0 3.83,-1.23 6.37,-3.87 2,-2.08 4.22,-4.97 6.25,-8.16 1.78,-2.79 7.58,-12.44 7.58,-19.67 0,-0.43 -0.1,-0.8 -0.13,-1.21 a 21.6,21.6 0 0 1 -0.8,4.94 43.2,43.2 0 0 1 -2.2,5.77 69.59,69.59 0 0 1 -4.45,8.17 54.47,54.47 0 0 1 -6.25,8.16 17.98,17.98 0 0 1 -3.46,2.93 c -1.05,0.64 -2,0.94 -2.91,0.94 -0.9,0 -1.86,-0.3 -2.9,-0.94 -1.06,-0.64 -2.2,-1.6 -3.47,-2.93 -2,-2.08 -4.22,-4.97 -6.25,-8.16 -0.89,-1.4 -2.78,-4.5 -4.46,-8.17 A 43.2,43.2 0 0 1 4.73,19.68 21.6,21.6 0 0 1 3.93,14.74 Z"
     id="path71"
     inkscape:connector-curvature="0"
     style="opacity:0.4" />
</svg>
