<?xml version="1.0" encoding="UTF-8" standalone="no"?>
<svg
   xmlns:dc="http://purl.org/dc/elements/1.1/"
   xmlns:cc="http://creativecommons.org/ns#"
   xmlns:rdf="http://www.w3.org/1999/02/22-rdf-syntax-ns#"
   xmlns:svg="http://www.w3.org/2000/svg"
   xmlns="http://www.w3.org/2000/svg"
   xmlns:xlink="http://www.w3.org/1999/xlink"
   xmlns:sodipodi="http://sodipodi.sourceforge.net/DTD/sodipodi-0.dtd"
   xmlns:inkscape="http://www.inkscape.org/namespaces/inkscape"
   width="48"
   height="48"
   version="1.1"
   id="svg58"
   sodipodi:docname="kjumpingcube.svg"
   inkscape:version="0.92.4 (5da689c313, 2019-01-14)">
  <metadata
     id="metadata62">
    <rdf:RDF>
      <cc:Work
         rdf:about="">
        <dc:format>image/svg+xml</dc:format>
        <dc:type
           rdf:resource="http://purl.org/dc/dcmitype/StillImage" />
        <dc:title></dc:title>
      </cc:Work>
    </rdf:RDF>
  </metadata>
  <sodipodi:namedview
     pagecolor="#ffffff"
     bordercolor="#666666"
     borderopacity="1"
     objecttolerance="10"
     gridtolerance="10"
     guidetolerance="10"
     inkscape:pageopacity="0"
     inkscape:pageshadow="2"
     inkscape:window-width="1112"
     inkscape:window-height="480"
     id="namedview60"
     showgrid="false"
     inkscape:zoom="4.9166667"
     inkscape:cx="2.1355932"
     inkscape:cy="24"
     inkscape:window-x="0"
     inkscape:window-y="25"
     inkscape:window-maximized="0"
     inkscape:current-layer="svg58" />
  <defs
     id="defs38">
    <linearGradient
       id="e">
      <stop
         offset="0"
         stop-color="#3d4970"
         id="stop2" />
      <stop
         offset=".37"
         stop-color="#0a8"
         id="stop4" />
      <stop
         offset="1"
         stop-color="#aef"
         id="stop6" />
    </linearGradient>
    <linearGradient
       id="a">
      <stop
         offset="0"
         id="stop9" />
      <stop
         offset="1"
         stop-opacity="0"
         id="stop11" />
    </linearGradient>
    <linearGradient
       id="b">
      <stop
         offset="0"
         stop-color="#f6845d"
         id="stop14" />
      <stop
         offset=".26"
         stop-color="#e7341e"
         id="stop16" />
      <stop
         offset="1"
         stop-color="#cb121b"
         id="stop18" />
    </linearGradient>
    <linearGradient
       id="c">
      <stop
         offset="0"
         stop-color="#b20909"
         id="stop21" />
      <stop
         offset="1"
         stop-color="#d71f1f"
         id="stop23" />
    </linearGradient>
    <linearGradient
       x1="34.44"
       y1="35.45"
       x2="33.01"
       y2="22.58"
       id="h"
       xlink:href="#c"
       gradientUnits="userSpaceOnUse"
       gradientTransform="matrix(1.31836,0,0,1.31836,-10.4,-10.98)" />
    <linearGradient
       x1="14.89"
       y1="25.03"
       x2="24.34"
       y2="37.11"
       id="l"
       xlink:href="#d"
       gradientUnits="userSpaceOnUse"
       gradientTransform="matrix(1.26521,0,0,1.26521,-2.14,-10.4)" />
    <linearGradient
       id="d">
      <stop
         offset="0"
         stop-color="#a81212"
         id="stop28" />
      <stop
         offset="1"
         stop-color="#8e1414"
         id="stop30" />
    </linearGradient>
    <linearGradient
       x1="36.68"
       y1="18.24"
       x2="43.45"
       y2="28"
       id="i"
       xlink:href="#d"
       gradientUnits="userSpaceOnUse"
       gradientTransform="matrix(1.28717,0,0,1.28717,-10.08,-10.37)" />
    <linearGradient
       xlink:href="#b"
       id="g"
       gradientUnits="userSpaceOnUse"
       gradientTransform="matrix(1.21378,0,0,1.21378,-7.38,-8.8)"
       x1="37.22"
       y1="7.71"
       x2="44.47"
       y2="43.09" />
    <linearGradient
       xlink:href="#b"
       id="j"
       gradientUnits="userSpaceOnUse"
       gradientTransform="matrix(1.21378,0,0,1.21378,-1.51,-8.8)"
       x1="9.59"
       y1="13.33"
       x2="17.6"
       y2="44.68" />
    <linearGradient
       xlink:href="#c"
       id="k"
       gradientUnits="userSpaceOnUse"
       gradientTransform="matrix(1.2777,0,0,1.2777,-2.34,-10.73)"
       x1="12.92"
       y1="52.85"
       x2="7.78"
       y2="24.78" />
    <linearGradient
       xlink:href="#e"
       id="f"
       x1="7.07"
       y1="-1.63"
       x2="40.57"
       y2="43.76"
       gradientUnits="userSpaceOnUse" />
  </defs>
  <path
     d="M 23.71,0.5 C 17.88,0.5 13.2,1.6 9.78,3.82 5.68,6.48 3.5,10.73 3.5,16.1 c 0,7.22 5.8,16.88 7.58,19.67 a 54.48,54.48 0 0 0 6.25,8.16 c 2.54,2.64 4.57,3.87 6.37,3.87 1.8,0 3.83,-1.23 6.37,-3.87 2,-2.08 4.22,-4.98 6.25,-8.16 C 38.1,32.98 43.91,23.32 43.91,16.1 43.91,10.73 41.74,6.48 37.64,3.83 34.24,1.6 29.55,0.49 23.7,0.49 Z"
     id="path40"
     style="fill:url(#f)"
     inkscape:connector-curvature="0" />
  <path
     d="m 42.2,23.73 c 0.25,-0.7 0.57,-1.35 0.77,-2.05 0.58,-1.97 0.94,-3.93 0.94,-5.73 0,-1.34 -0.13,-2.61 -0.4,-3.8 A 12.89,12.89 0 0 0 40.5,6.18 L 34.12,4.1 20.6,7.97 l 1.52,14 10.48,7.5 z"
     id="path42"
     style="fill:url(#g)"
     inkscape:connector-curvature="0" />
  <path
     d="m 20.6,7.97 1.52,14 10.48,7.5 -0.3,-15.85 z"
     id="path44"
     style="fill:url(#h)"
     inkscape:connector-curvature="0" />
  <path
     d="m 42.29,23.67 c 0.22,-0.62 0.51,-1.2 0.7,-1.83 0.57,-1.97 0.93,-3.93 0.93,-5.73 0,-1.34 -0.13,-2.61 -0.4,-3.8 -0.23,-1.04 -0.61,-2 -1.04,-2.9 l -10.18,4.2 0.3,15.85 z"
     id="path46"
     style="fill:url(#i)"
     inkscape:connector-curvature="0" />
  <path
     d="m 4.72,22.44 c 0.54,1.7 1.18,3.41 1.9,5 a 69.63,69.63 0 0 0 4.46,8.18 54.48,54.48 0 0 0 1.5,2.16 l 7.08,2.1 9,-11.47 -4.68,-12.71 -11.8,0.67 z"
     id="path48"
     style="fill:url(#j)"
     inkscape:connector-curvature="0" />
  <path
     d="m 5.64,24.85 c 0.35,0.87 0.61,1.78 1,2.6 a 69.63,69.63 0 0 0 4.45,8.18 54.48,54.48 0 0 0 1.5,2.15 l 7.07,2.1 -5.84,-14.57 z"
     id="path50"
     style="fill:url(#k)"
     inkscape:connector-curvature="0" />
  <path
     d="M 23.98,15.7 28.67,28.4 19.66,39.89 13.87,25.33 Z"
     id="path52"
     style="fill:url(#l)"
     inkscape:connector-curvature="0" />
  <path
     d="m 34,5.48 a 0.67,1.9 86.74 0 0 -2.1,0.9 0.67,1.9 86.74 1 0 3.71,-0.45 0.67,1.9 86.74 0 0 -1.6,-0.45 z M 30.45,6.46 A 0.85,2.14 86.19 0 0 28.08,7.6 0.85,2.14 86.19 1 0 32.26,7.03 0.85,2.14 86.19 0 0 30.46,6.46 Z m 10,1.12 a 0.9,2.22 89.6 0 0 -0.1,0 0.9,2.22 89.6 0 0 -2.09,1.06 0.9,2.22 89.6 0 0 4.06,0.32 C 42.08,8.49 41.72,8.1 41.43,7.67 A 0.9,2.22 89.6 0 0 40.45,7.58 Z M 26.68,7.94 a 0.76,2.3 84.17 0 0 -2.7,1.17 0.76,2.3 84.17 1 0 4.46,-0.75 0.76,2.3 84.17 0 0 -1.76,-0.42 z m 10.2,1.2 a 0.9,2.35 88.39 0 0 -2.42,1.13 0.9,2.35 88.39 0 0 4.61,-0.44 0.9,2.35 88.39 0 0 -2.2,-0.69 z m -3.83,1.43 a 1.01,2.54 85.37 0 0 -2.8,1.4 1.01,2.54 85.37 1 0 4.96,-0.75 1.01,2.54 85.37 0 0 -2.16,-0.65 z m -10.03,0.18 a 2.19,1.32 67.16 0 0 -0.7,0.35 2.19,1.32 67.16 1 0 2.42,3.45 2.19,1.32 67.16 0 0 -1.72,-3.8 z m 20.04,0.26 a 1.22,2.02 32.74 0 0 -1.03,3.52 1.22,2.02 32.74 0 0 1.64,-0.78 c -0.06,-0.47 -0.05,-1 -0.15,-1.45 -0.1,-0.46 -0.32,-0.85 -0.46,-1.29 z M 29.5,13.53 a 2.43,1.52 64.45 0 0 -0.8,0.4 2.43,1.52 64.45 1 0 2.81,3.78 2.43,1.52 64.45 0 0 -2,-4.18 z m 6.81,0.53 a 1.52,2.43 39.17 0 0 -1.98,4.2 1.52,2.43 39.17 1 0 2.22,-4.17 1.52,2.43 39.17 0 0 -0.24,-0.03 z m -10.07,1.96 a 2.19,1.32 67.16 0 0 -0.7,0.36 2.19,1.32 67.16 1 0 2.43,3.44 2.19,1.32 67.16 0 0 -1.73,-3.8 z m 17.37,1.9 a 1.26,2.1 31.79 0 0 -1.58,3.78 1.26,2.1 31.79 0 0 1.02,-0.25 c 0.33,-1.21 0.44,-2.37 0.58,-3.53 a 1.26,2.1 31.79 0 0 -0.02,0 z m -20.57,1.1 a 1.14,1.72 4.33 0 0 -0.11,0 1.1431084,1.7246899 4.33 1 0 0.06,3.43 1.14,1.72 4.33 0 0 0.05,-3.43 z m -9.19,0.03 a 1.28,2.33 69.22 0 0 -3.05,2.4 1.2807591,2.3313819 69.22 1 0 4.25,-1.88 1.28,2.33 69.22 0 0 -1.2,-0.52 z m 15.52,2.86 a 2.36,1.24 62.02 0 0 -0.68,0.52 2.36,1.24 62.02 1 0 2.93,3.28 2.36,1.24 62.02 0 0 -2.25,-3.8 z m 7.07,0.06 A 1.61,2.6 36.5 0 0 34.37,26.53 1.61,2.6 36.5 1 0 36.7,22 1.61,2.6 36.5 0 0 36.45,21.97 Z M 22.17,24.2 a 1.30006,2.2601043 5.84 1 0 -0.19,4.5 1.3,2.26 5.84 1 0 0.2,-4.5 z m -1.13,6.28 a 1.65,2.99 8.06 1 0 -0.52,5.93 1.65,2.99 8.06 1 0 0.52,-5.93 z m -7.16,3.01 a 2.77,1.52 42.14 0 0 -0.84,0.43 2.77,1.52 42.14 1 0 4.28,3.48 2.77,1.52 42.14 0 0 -3.45,-3.91 z"
     id="path54"
     inkscape:connector-curvature="0"
     style="fill:#d5c2c2" />
  <path
     d="m 23.71,0.35 c -5.83,0 -10.51,1.12 -13.93,3.33 -4.1,2.66 -6.27,6.9 -6.27,12.27 0,7.23 5.8,16.89 7.58,19.68 a 54.48,54.48 0 0 0 6.25,8.15 c 2.54,2.65 4.57,3.88 6.37,3.88 1.8,0 3.83,-1.23 6.37,-3.88 2,-2.07 4.22,-4.97 6.25,-8.15 1.78,-2.8 7.59,-12.45 7.59,-19.68 0,-5.37 -2.17,-9.61 -6.27,-12.27 C 34.24,1.47 29.55,0.35 23.7,0.35 Z m 0,0.14 c 2.12,0.09 4.12,0.28 5.88,0.7 1.16,0.27 2.25,0.62 3.26,1.04 1.01,0.41 1.95,0.9 2.8,1.45 a 12.92,12.92 0 0 1 4.67,5.12 14.1,14.1 0 0 1 1.2,3.34 c 0.26,1.2 0.4,2.47 0.4,3.81 0,1.81 -0.37,3.77 -0.94,5.73 a 43.19,43.19 0 0 1 -2.19,5.78 69.59,69.59 0 0 1 -4.46,8.17 54.47,54.47 0 0 1 -6.25,8.15 17.98,17.98 0 0 1 -3.46,2.93 c -0.32,0.2 -0.62,0.3 -0.9,0.4 -0.3,-0.1 -0.6,-0.2 -0.92,-0.4 A 17.72,17.72 0 0 1 19.34,43.78 54.5,54.5 0 0 1 13.09,35.63 69.6,69.6 0 0 1 8.63,27.46 43.19,43.19 0 0 1 6.44,21.68 20.93,20.93 0 0 1 5.51,15.95 c 0,-1.34 0.13,-2.61 0.4,-3.8 0.27,-1.2 0.67,-2.32 1.2,-3.35 a 12.92,12.92 0 0 1 4.67,-5.12 17.1,17.1 0 0 1 2.8,-1.45 c 1,-0.42 2.1,-0.77 3.26,-1.04 1.75,-0.42 3.76,-0.61 5.86,-0.7 z"
     id="path56"
     inkscape:connector-curvature="0"
     style="opacity:0.2" />
</svg>
