<svg xmlns="http://www.w3.org/2000/svg" xmlns:xlink="http://www.w3.org/1999/xlink" width="48" height="48"><defs><linearGradient id="h"><stop offset="0" stop-color="#6f7c91"/><stop offset=".71" stop-color="#0ff"/><stop offset="1" stop-color="#d5f6ff"/></linearGradient><linearGradient id="g"><stop offset="0"/><stop offset="1" stop-opacity="0"/></linearGradient><linearGradient id="f"><stop offset="0" stop-color="#374845"/><stop offset="1" stop-color="#536c67"/></linearGradient><linearGradient id="e"><stop offset="0" stop-color="#374845"/><stop offset="1" stop-color="#536c67"/></linearGradient><linearGradient id="d"><stop offset="0" stop-color="#333" stop-opacity=".03"/><stop offset="1" stop-color="#1a1a1a"/></linearGradient><linearGradient id="c"><stop offset="0" stop-color="#535d6c"/><stop offset="1" stop-color="#fff"/></linearGradient><linearGradient id="a"><stop offset="0" stop-color="#39465c"/><stop offset="1" stop-opacity="0"/></linearGradient><linearGradient id="b"><stop offset="0" stop-color="#1a1a1a"/><stop offset="1" stop-color="#4d4d4d"/></linearGradient><linearGradient xlink:href="#g" id="j" gradientUnits="userSpaceOnUse" x1="12.71" y1="9.82" x2="52.65" y2="34.04"/><linearGradient id="l" y1="542.8" x1="408.57" y2="512.91" x2="407.27" gradientUnits="userSpaceOnUse" gradientTransform="matrix(.7561 0 0 .7561 -284.54 -374.05)"><stop stop-color="#00112b"/><stop offset="1" stop-color="#20bcfa"/></linearGradient><linearGradient id="k" y1="510.8" y2="523.15" gradientUnits="userSpaceOnUse" x2="404.57" gradientTransform="matrix(1.5918 0 0 1.5918 -625.67 -806.21)" x1="404.57"><stop stop-color="#7cbaf8"/><stop offset="1" stop-color="#f4fcff"/></linearGradient><linearGradient xlink:href="#h" id="i" x1="18.97" y1="-.86" x2="24.82" y2="53.58" gradientUnits="userSpaceOnUse"/></defs><path d="M24.04.31C18.2.31 13.52 1.43 10.1 3.64 6 6.3 3.84 10.54 3.84 15.91c0 7.23 5.8 16.88 7.58 19.67a54.48 54.48 0 0 0 6.25 8.16c2.54 2.64 4.57 3.87 6.37 3.87 1.8 0 3.83-1.23 6.37-3.87 2-2.08 4.22-4.97 6.25-8.16 1.78-2.79 7.58-12.44 7.58-19.67 0-5.37-2.16-9.6-6.26-12.27-3.42-2.2-8.1-3.33-13.94-3.33z" fill="url(#i)"/><path d="M30.49 43.63a53.97 53.97 0 0 0 6.17-8.05 69.6 69.6 0 0 0 4.46-8.17c.83-1.83 1.61-3.8 2.18-5.77.16-.55.14-1.07.27-1.62L30.42 6.88l-5.67 8.18-3.53 2.9-3.52 1.48-1.42-1.42-.1.6.9 2.04-1.53 1.16-3.98-3.98-.19 1.05 2.6 2.6.18 1.72-.6 1.02L9.8 20.7l-1.24 1 2.09 2.1z" opacity=".54" fill="url(#j)"/><path d="M18.33 6.88v19.65h12.1V6.87z" fill="url(#k)"/><path d="M25.51 14.44a1.13 1.13 0 1 0 0 2.27 1.13 1.13 0 0 0 0-2.27m13.23 6.8a.76.76 0 1 0 0 1.52.76.76 0 0 0 0-1.52M11.9 16.71a1.13 1.13 0 1 0 0 2.27 1.13 1.13 0 0 0 0-2.27m8.9.83a.5.5 0 0 0-.14.04c-.38.17-.51.71-.01 1.86.5 1.15 1.22 1.94 1.6 1.77.39-.16.29-1.23-.22-2.38-.44-1-.87-1.33-1.22-1.3m-4.53.49c-.3-.03-.71.27-.34.7.5.56.76 1.56.32 1.76-.45.2-.41-.75-.45-1.25-.04-.5-1.27-.81-1.73-.18-.45.62 0 1.3.46 1.43.45.14.52.65.78 1.19.27.53 1.57.4 1.89 0 .32-.4.51-1.15-.1-1.83-.62-.7-.44-1.33-.6-1.68-.04-.09-.13-.13-.23-.14m14.74.06c-.4-.1-.57.66-.66 1.37-.1.7-.45 1.44-.15 1.58.43.2.65-.97 1.13-1.4.48-.44.08-1.46-.32-1.55m-12.7.14a.76.76 0 1 0 .01 1.51.76.76 0 0 0 0-1.51m9.19.18c-.5.04-.98.87-1.22 1.46-.28.66.05 1.95-.6 2.44-.64.49-1.12.5-1.44.3-.32-.19.28-.16-.08-.9-.37-.75-1.23-.51-1.46.06-.23.58.24.55.08.9-.16.33-1.54.7-1.84-.32-.31-1.02-1.4-2.13-1.75-1.86-.34.28.04 1.3.94 2.1.89.81-.23 1.25-1 .64-.78-.61-1.7.46-2.4 1.18s-1.33.77-1.83.34-.06-1.6-.64-2.77c-.58-1.18-1.73-.6-1.9.2-.16.8 1.46 1.33 1.14 1.77-.3.44-1.56.34-1.93-.5-.37-.82-1.17-.55-1.19.13-.01.68.63.2 1.12.7l12.86 12.85 12.85-12.85c1.51-1.51-.22-.86-.58-.52-.35.34-1.45.61-1.58.24-.13-.37 1.23-1 1.62-1.42.39-.42.77-1.62.14-2.06-.63-.43-1.52.36-1.9.94-.4.58-.06 2.07-.58 2.52-.51.46-.8.18-.9-.2-.1-.4 1.12-.94.61-1.91-.5-.97-1.45-.53-1.89-.08-.44.46.26 1.16.43 1.87.16.71-1.5.7-2.15.43-.65-.25-.86-1.88-1.13-1.98-.28-.1-.98.54-1.87.26-.9-.27-.15-.82.12-1.47.28-.65.71-2.2.16-2.45a.43.43 0 0 0-.21-.04m7.82-.93a1.13 1.13 0 1 0 0 2.26 1.13 1.13 0 0 0 0-2.26M9.26 20.49a.76.76 0 1 0 0 1.51.76.76 0 0 0 0-1.51" fill="url(#l)" fill-rule="evenodd"/><path d="M24 .35c-5.83 0-10.52 1.12-13.93 3.33-4.1 2.66-6.27 6.9-6.27 12.27 0 7.23 5.8 16.88 7.58 19.67a54.48 54.48 0 0 0 6.25 8.16c2.54 2.64 4.57 3.87 6.37 3.87 1.8 0 3.83-1.23 6.37-3.87 2-2.08 4.22-4.97 6.25-8.16 1.78-2.79 7.58-12.44 7.58-19.67 0-5.37-2.16-9.61-6.26-12.27C34.52 1.47 29.84.35 24 .35zm0 .14c2.11.09 4.12.27 5.88.7 1.16.27 2.25.62 3.26 1.03 1.01.42 1.94.9 2.8 1.46A12.92 12.92 0 0 1 40.6 8.8c.53 1.03.92 2.15 1.2 3.34.26 1.2.4 2.47.4 3.8 0 1.82-.37 3.77-.94 5.74a43.19 43.19 0 0 1-2.2 5.77 69.59 69.59 0 0 1-4.45 8.17 54.47 54.47 0 0 1-6.25 8.16 17.98 17.98 0 0 1-3.46 2.93c-.32.2-.62.3-.91.39-.3-.08-.6-.2-.9-.4-1.06-.63-2.2-1.6-3.47-2.92-2-2.08-4.22-4.97-6.25-8.16a69.6 69.6 0 0 1-4.46-8.17 43.19 43.19 0 0 1-2.19-5.77 20.93 20.93 0 0 1-.93-5.73c0-1.34.13-2.61.4-3.8.27-1.2.67-2.32 1.2-3.35a12.92 12.92 0 0 1 4.67-5.12 17.1 17.1 0 0 1 2.8-1.46c1-.41 2.1-.76 3.26-1.04C19.88.76 21.89.58 24 .5z" opacity=".2"/></svg>