<?xml version="1.0" encoding="UTF-8" standalone="no"?>
<!--Generator: Adobe Illustrator 19.0.0, SVG Export Plug-In . SVG Version: 6.00 Build 0)-->

<svg
   xmlns:dc="http://purl.org/dc/elements/1.1/"
   xmlns:cc="http://creativecommons.org/ns#"
   xmlns:rdf="http://www.w3.org/1999/02/22-rdf-syntax-ns#"
   xmlns:svg="http://www.w3.org/2000/svg"
   xmlns="http://www.w3.org/2000/svg"
   xmlns:xlink="http://www.w3.org/1999/xlink"
   xmlns:sodipodi="http://sodipodi.sourceforge.net/DTD/sodipodi-0.dtd"
   xmlns:inkscape="http://www.inkscape.org/namespaces/inkscape"
   width="48"
   height="48"
   version="1.1"
   id="svg51"
   sodipodi:docname="mega.svg"
   inkscape:version="0.92.4 (5da689c313, 2019-01-14)">
  <sodipodi:namedview
     pagecolor="#ffffff"
     bordercolor="#666666"
     borderopacity="1"
     objecttolerance="10"
     gridtolerance="10"
     guidetolerance="10"
     inkscape:pageopacity="0"
     inkscape:pageshadow="2"
     inkscape:window-width="1112"
     inkscape:window-height="480"
     id="namedview53"
     showgrid="false"
     inkscape:zoom="4.9166667"
     inkscape:cx="2.1355932"
     inkscape:cy="24"
     inkscape:window-x="0"
     inkscape:window-y="25"
     inkscape:window-maximized="0"
     inkscape:current-layer="svg51" />
  <metadata
     id="metadata2">
    <rdf:RDF>
      <cc:Work>
        <dc:format>image/svg+xml</dc:format>
        <dc:type
           rdf:resource="http://purl.org/dc/dcmitype/StillImage" />
        <dc:title></dc:title>
      </cc:Work>
    </rdf:RDF>
  </metadata>
  <defs
     id="defs37">
    <linearGradient
       id="d">
      <stop
         offset="0"
         stop-color="#782121"
         id="stop4" />
      <stop
         offset="1"
         stop-color="#ff2a2a"
         id="stop6" />
    </linearGradient>
    <linearGradient
       id="c">
      <stop
         offset="0"
         stop-color="#f55"
         id="stop9" />
      <stop
         offset=".22"
         stop-color="#f55"
         id="stop11" />
      <stop
         offset=".44"
         stop-color="red"
         id="stop13" />
      <stop
         offset=".67"
         stop-color="#de8787"
         id="stop15" />
      <stop
         offset=".8"
         stop-color="red"
         id="stop17" />
      <stop
         offset="1"
         stop-color="#ff2a2a"
         id="stop19" />
    </linearGradient>
    <linearGradient
       id="b">
      <stop
         offset="0"
         stop-color="#fff"
         id="stop22" />
      <stop
         offset="1"
         stop-color="#999"
         id="stop24" />
    </linearGradient>
    <linearGradient
       id="a">
      <stop
         offset="0"
         id="stop27" />
      <stop
         offset="1"
         stop-opacity="0"
         id="stop29" />
    </linearGradient>
    <linearGradient
       xlink:href="#a"
       id="g"
       x1="18.34"
       y1="12.76"
       x2="39.24"
       y2="35.53"
       gradientUnits="userSpaceOnUse" />
    <linearGradient
       xlink:href="#b"
       id="f"
       x1="8.43"
       y1="36.06"
       x2="8.44"
       y2="4.48"
       gradientUnits="userSpaceOnUse" />
    <linearGradient
       xlink:href="#c"
       id="e"
       x1="-.56"
       y1="37.34"
       x2="48.02"
       y2=".77"
       gradientUnits="userSpaceOnUse" />
    <linearGradient
       xlink:href="#d"
       id="h"
       x1="14.2"
       y1="12.76"
       x2="14.2"
       y2="27.24"
       gradientUnits="userSpaceOnUse" />
    <linearGradient
       xlink:href="#b"
       id="i"
       gradientUnits="userSpaceOnUse"
       x1="33.86"
       y1="12.76"
       x2="33.86"
       y2="27.24" />
  </defs>
  <path
     d="m 24,0.35 c -5.83,0 -10.52,1.12 -13.93,3.33 -4.1,2.66 -6.27,6.9 -6.27,12.27 0,7.23 5.8,16.88 7.58,19.67 a 54.48,54.48 0 0 0 6.25,8.16 c 2.54,2.64 4.57,3.87 6.37,3.87 1.8,0 3.83,-1.23 6.37,-3.87 2,-2.08 4.22,-4.97 6.25,-8.16 C 38.4,32.83 44.2,23.18 44.2,15.95 44.2,10.58 42.04,6.34 37.94,3.68 34.52,1.47 29.84,0.35 24,0.35 Z"
     id="path39"
     style="fill:url(#e)"
     inkscape:connector-curvature="0" />
  <path
     d="M 24,6.34 A 15.66,15.66 0 0 0 8.34,22 15.66,15.66 0 0 0 24,37.66 15.66,15.66 0 0 0 39.66,22 15.66,15.66 0 0 0 24,6.34 Z"
     id="path41"
     inkscape:connector-curvature="0"
     style="opacity:0.45" />
  <path
     d="M 24,4.34 A 15.66,15.66 0 0 0 8.34,20 15.66,15.66 0 0 0 24,35.66 15.66,15.66 0 0 0 39.66,20 15.66,15.66 0 0 0 24,4.34 Z"
     id="path43"
     style="fill:url(#f)"
     inkscape:connector-curvature="0" />
  <path
     d="m 22.53,35.57 a 15.66,15.66 0 0 0 0.36,0.05 15.66,15.66 0 0 0 1.1,0.04 15.66,15.66 0 0 0 1.57,-0.08 15.66,15.66 0 0 0 1.55,-0.23 15.66,15.66 0 0 0 1.52,-0.4 15.66,15.66 0 0 0 1.47,-0.53 15.66,15.66 0 0 0 1.4,-0.68 15.66,15.66 0 0 0 1.34,-0.82 15.66,15.66 0 0 0 1.25,-0.94 15.66,15.66 0 0 0 1.14,-1.07 15.66,15.66 0 0 0 1.03,-1.18 15.66,15.66 0 0 0 0.91,-1.27 15.66,15.66 0 0 0 0.78,-1.36 15.66,15.66 0 0 0 0.64,-1.43 15.66,15.66 0 0 0 0.5,-1.48 15.66,15.66 0 0 0 0.34,-1.53 15.66,15.66 0 0 0 0.19,-1.55 A 15.66,15.66 0 0 0 39.66,20 15.66,15.66 0 0 0 39.58,18.48 L 33.86,12.76 24.03,21.47 18,17.3 14.2,27.25 Z"
     id="path45"
     style="opacity:0.65;fill:url(#g)"
     inkscape:connector-curvature="0" />
  <path
     d="m 14.2,12.76 h 4.14 l 5.8,5.17 5.58,-5.17 h 4.14 v 14.48 h -4.14 v -8.27 l -5.17,4.13 h -1.04 l -5.17,-4.13 v 8.27 H 14.2 Z"
     id="path47"
     style="fill:url(#h);stroke:url(#i);stroke-width:0.38;stroke-linejoin:round"
     inkscape:connector-curvature="0" />
  <path
     d="m 3.92,14.74 c -0.02,0.4 -0.12,0.78 -0.12,1.2 0,7.24 5.8,16.9 7.58,19.68 a 54.47,54.47 0 0 0 6.25,8.16 c 2.54,2.64 4.57,3.87 6.37,3.87 1.8,0 3.83,-1.23 6.37,-3.87 2,-2.08 4.22,-4.97 6.25,-8.16 1.78,-2.79 7.58,-12.44 7.58,-19.67 0,-0.43 -0.1,-0.8 -0.12,-1.21 a 21.6,21.6 0 0 1 -0.8,4.94 43.2,43.2 0 0 1 -2.2,5.77 69.59,69.59 0 0 1 -4.46,8.17 54.47,54.47 0 0 1 -6.25,8.16 17.98,17.98 0 0 1 -3.46,2.93 c -1.05,0.64 -2,0.94 -2.9,0.94 -0.91,0 -1.87,-0.3 -2.92,-0.94 -1.05,-0.64 -2.2,-1.6 -3.46,-2.93 -2,-2.08 -4.21,-4.97 -6.25,-8.16 A 69.6,69.6 0 0 1 6.92,25.45 43.2,43.2 0 0 1 4.73,19.68 21.6,21.6 0 0 1 3.93,14.74 Z"
     id="path49"
     inkscape:connector-curvature="0"
     style="opacity:0.5" />
</svg>
