<svg xmlns="http://www.w3.org/2000/svg" xmlns:xlink="http://www.w3.org/1999/xlink" viewBox="0 0 48 48"><defs><linearGradient id="c"><stop offset="0" stop-color="#5f8dd3"/><stop offset=".59" stop-color="#afc6e9"/><stop offset="1" stop-color="#025"/></linearGradient><linearGradient id="b"><stop offset="0"/><stop offset="1" stop-opacity="0"/></linearGradient><linearGradient id="a"><stop stop-color="#fff" offset="0"/><stop stop-color="#999" offset=".67"/><stop stop-color="#fff" offset="1"/></linearGradient><linearGradient xlink:href="#b" id="e" gradientUnits="userSpaceOnUse" x1="7.26" y1="1.85" x2="48.22" y2="31.37"/><linearGradient xlink:href="#c" id="d" x1="15.17" y1="44.78" x2="33.48" y2="-1.72" gradientUnits="userSpaceOnUse"/></defs><path fill="url(#d)" d="M24 .35c-5.83 0-10.52 1.12-13.93 3.33-4.1 2.66-6.27 6.9-6.27 12.27 0 7.23 5.8 16.88 7.58 19.67a54.47 54.47 0 0 0 6.25 8.16c2.54 2.64 4.57 3.87 6.37 3.87 1.8 0 3.83-1.23 6.37-3.87 2-2.08 4.22-4.97 6.25-8.16 1.78-2.79 7.58-12.44 7.58-19.67 0-5.37-2.16-9.62-6.26-12.27C34.52 1.47 29.84.35 24 .35z"/><path d="M30.17 43.95l.2-.17c2-2.08 4.22-4.97 6.25-8.16.73-1.15 2.26-3.9 3.68-6.74l.88-1.7c.79-1.75 1.54-3.62 2.09-5.5.57-1.96.93-3.92.93-5.73l-.02-.17-7.32-7.32-2 1.84-5.07-2.5-5.47-.8-4.22.6s-5.47 3.63-5.47 3.95c0 .33-1.45 5.87-1.45 5.87l-4.07 5.47z" opacity=".6" fill="url(#e)"/><path d="M24.49 5.38A13.29 13.18 0 0 0 11.2 18.56a13.29 13.18 0 0 0 13.29 13.18 13.29 13.18 0 0 0 13.28-13.18A13.29 13.18 0 0 0 24.5 5.38zm0 2.6a10.65 10.57 0 0 1 10.65 10.58 10.65 10.57 0 0 1-10.65 10.57 10.65 10.57 0 0 1-10.66-10.57A10.65 10.57 0 0 1 24.5 7.99z" fill="#dbe3e2" fill-rule="evenodd"/><path fill="#ff2a2a" fill-rule="evenodd" d="M9.11 15.94h7.12v6.95H9.11zM31.5 8.46h5.36v5.24H31.5zM30.23 25.25h4.54v4.44h-4.54z"/><path opacity=".5" d="M3.92 14.74c-.02.4-.13.78-.13 1.2 0 7.24 5.81 16.9 7.6 19.68a54.47 54.47 0 0 0 6.24 8.16c2.54 2.64 4.56 3.87 6.37 3.87 1.8 0 3.83-1.23 6.37-3.87 2-2.08 4.22-4.97 6.25-8.16 1.78-2.79 7.58-12.44 7.58-19.67 0-.43-.1-.8-.13-1.21a21.6 21.6 0 0 1-.8 4.94 43.2 43.2 0 0 1-2.2 5.77 69.59 69.59 0 0 1-4.45 8.17 54.46 54.46 0 0 1-6.25 8.16 17.98 17.98 0 0 1-3.46 2.93c-1.05.64-2 .94-2.91.94-.9 0-1.86-.3-2.9-.94-1.06-.64-2.2-1.6-3.47-2.93-2-2.08-4.22-4.97-6.25-8.16a69.6 69.6 0 0 1-4.46-8.17 43.19 43.19 0 0 1-2.19-5.77 21.6 21.6 0 0 1-.8-4.94z"/></svg>