<?xml version="1.0" encoding="UTF-8" standalone="no"?>
<svg
   xmlns:dc="http://purl.org/dc/elements/1.1/"
   xmlns:cc="http://creativecommons.org/ns#"
   xmlns:rdf="http://www.w3.org/1999/02/22-rdf-syntax-ns#"
   xmlns:svg="http://www.w3.org/2000/svg"
   xmlns="http://www.w3.org/2000/svg"
   xmlns:xlink="http://www.w3.org/1999/xlink"
   xmlns:sodipodi="http://sodipodi.sourceforge.net/DTD/sodipodi-0.dtd"
   xmlns:inkscape="http://www.inkscape.org/namespaces/inkscape"
   width="48"
   height="48"
   version="1.1"
   id="svg39"
   sodipodi:docname="onboard.svg"
   inkscape:version="0.92.4 (5da689c313, 2019-01-14)">
  <metadata
     id="metadata43">
    <rdf:RDF>
      <cc:Work
         rdf:about="">
        <dc:format>image/svg+xml</dc:format>
        <dc:type
           rdf:resource="http://purl.org/dc/dcmitype/StillImage" />
        <dc:title></dc:title>
      </cc:Work>
    </rdf:RDF>
  </metadata>
  <sodipodi:namedview
     pagecolor="#ffffff"
     bordercolor="#666666"
     borderopacity="1"
     objecttolerance="10"
     gridtolerance="10"
     guidetolerance="10"
     inkscape:pageopacity="0"
     inkscape:pageshadow="2"
     inkscape:window-width="1112"
     inkscape:window-height="480"
     id="namedview41"
     showgrid="false"
     inkscape:zoom="4.9166667"
     inkscape:cx="2.1355932"
     inkscape:cy="24"
     inkscape:window-x="0"
     inkscape:window-y="25"
     inkscape:window-maximized="0"
     inkscape:current-layer="svg39" />
  <defs
     id="defs21">
    <linearGradient
       id="a">
      <stop
         offset="0"
         stop-color="#ccc"
         id="stop2" />
      <stop
         offset="1"
         stop-color="#fff"
         id="stop4" />
    </linearGradient>
    <linearGradient
       id="b">
      <stop
         offset="0"
         stop-color="#a0892c"
         id="stop7" />
      <stop
         offset="1"
         stop-color="#d3bc5f"
         id="stop9" />
    </linearGradient>
    <linearGradient
       id="c">
      <stop
         offset="0"
         stop-color="#214478"
         id="stop12" />
      <stop
         offset="1"
         stop-color="#3771c8"
         id="stop14" />
    </linearGradient>
    <linearGradient
       xlink:href="#a"
       id="e"
       gradientUnits="userSpaceOnUse"
       gradientTransform="matrix(1.7779,0,0,1.90768,-19.12,-10.22)"
       x1="30.78"
       y1="4.93"
       x2="30.93"
       y2="17.17" />
    <linearGradient
       xlink:href="#b"
       id="d"
       gradientUnits="userSpaceOnUse"
       gradientTransform="matrix(1.7779,0,0,1.91531,-18.2,-10.35)"
       x1="16.7"
       y1="4.93"
       x2="16.84"
       y2="17.26" />
    <linearGradient
       xlink:href="#c"
       id="g"
       gradientUnits="userSpaceOnUse"
       gradientTransform="matrix(1.7779,0,0,1.97638,-19.12,-12.74)"
       x1="30.83"
       y1="18.93"
       x2="30.88"
       y2="30.97" />
    <linearGradient
       xlink:href="#a"
       id="f"
       gradientUnits="userSpaceOnUse"
       gradientTransform="matrix(1.7779,0,0,2.02218,-18.2,-13.51)"
       x1="16.88"
       y1="18.74"
       x2="17.03"
       y2="30.6" />
  </defs>
  <path
     d="M 24,0.44 C 18.17,0.44 13.48,1.56 10.07,3.77 5.97,6.42 3.8,10.65 3.8,16 c 0,7.22 5.8,16.85 7.58,19.63 a 54.48,54.37 0 0 0 6.25,8.15 c 2.54,2.63 4.57,3.86 6.37,3.86 1.8,0 3.83,-1.23 6.37,-3.86 2,-2.08 4.22,-4.96 6.25,-8.15 C 38.4,32.85 44.2,23.22 44.2,16 44.2,10.64 42.04,6.41 37.94,3.76 34.52,1.56 29.84,0.44 24,0.44 Z"
     id="path23"
     inkscape:connector-curvature="0"
     style="fill:#1a1a1a" />
  <path
     d="m 22.9,0.46 c -2.37,0.07 -4.81,0.26 -6.77,0.73 a 22,22 0 0 0 -3.26,1.04 c -1.02,0.41 -1.95,0.9 -2.8,1.45 A 12.92,12.92 0 0 0 5.4,8.8 14.07,14.07 0 0 0 4.2,12.14 17.4,17.4 0 0 0 3.8,15.94 c 0,1.82 0.36,3.78 0.93,5.74 0.08,0.27 0.22,0.53 0.3,0.8 h 16.49 c 0.78,0 1.42,-0.63 1.42,-1.42 V 0.92 c 0,-0.17 0.02,-0.31 -0.04,-0.46 z"
     id="path25"
     style="fill:url(#d)"
     inkscape:connector-curvature="0" />
  <path
     d="m 42.96,22.48 c 0.09,-0.27 0.23,-0.53 0.3,-0.8 0.58,-1.96 0.94,-3.92 0.94,-5.73 0,-1.34 -0.13,-2.62 -0.4,-3.8 C 43.53,10.95 43.13,9.83 42.6,8.8 A 12.9,12.9 0 0 0 37.94,3.68 17.19,17.19 0 0 0 35.14,2.23 C 34.13,1.81 33.04,1.46 31.88,1.19 29.93,0.72 27.48,0.55 25.1,0.47 25.03,0.65 25.06,0.8 25.06,1.01 v 20.05 c 0,0.79 0.64,1.42 1.42,1.42 z"
     id="path27"
     style="fill:url(#e)"
     inkscape:connector-curvature="0" />
  <path
     d="m 5.84,24.6 c 0.37,0.96 0.67,1.94 1.08,2.85 a 69.54,69.54 0 0 0 7.58,12.64 c 0.99,1.27 2.03,2.5 3.13,3.69 a 17.94,17.94 0 0 0 3.46,2.93 c 0.67,0.4 1.25,0.64 1.85,0.78 V 26.02 c 0,-0.78 -0.64,-1.42 -1.42,-1.42 z"
     id="path29"
     style="fill:url(#f)"
     inkscape:connector-curvature="0" />
  <path
     d="m 25.16,47.47 c 0.55,-0.15 1.15,-0.4 1.75,-0.76 1.05,-0.64 2.19,-1.61 3.46,-2.93 2,-2.08 4.22,-4.97 6.25,-8.16 0.89,-1.4 2.79,-4.5 4.46,-8.17 0.42,-0.93 0.73,-1.95 1.11,-2.94 H 26.5 c -0.8,0 -1.43,0.63 -1.43,1.42 v 20.88 c 0,0.17 0.05,0.51 0.1,0.66 z"
     id="path31"
     style="fill:url(#g)"
     inkscape:connector-curvature="0" />
  <path
     style="font-size:12.10999966px;line-height:125%;font-family:'Bitstream Vera Sans'"
     d="m 15.602,9.838 c -1.242,0 -2.236,0.416 -2.98,1.248 -0.742,0.828 -1.112,1.94 -1.112,3.336 0,1.395 0.37,2.506 1.111,3.334 0.745,0.828 1.739,1.242 2.98,1.242 1.238,0 2.228,-0.414 2.97,-1.242 0.74,-0.832 1.11,-1.943 1.11,-3.334 0,-1.396 -0.37,-2.508 -1.11,-3.336 -0.742,-0.832 -1.732,-1.248 -2.97,-1.248 z m 0,0.97 c 0.867,0 1.554,0.323 2.058,0.97 0.509,0.646 0.762,1.528 0.762,2.644 0,1.112 -0.253,1.99 -0.762,2.637 -0.504,0.646 -1.191,0.968 -2.058,0.968 -0.868,0 -1.558,-0.322 -2.07,-0.968 -0.51,-0.647 -0.762,-1.525 -0.762,-2.637 0,-1.116 0.253,-1.998 0.761,-2.645 0.513,-0.646 1.203,-0.968 2.07,-0.968 z"
     font-size="12.11"
     id="path33"
     inkscape:connector-curvature="0" />
  <path
     style="line-height:125%"
     d="m 27.709,27.223 v 8.828 h 3.17 c 0.99,0 1.75,-0.215 2.287,-0.645 0.536,-0.43 0.805,-1.04 0.805,-1.828 0,-0.6 -0.163,-1.098 -0.49,-1.496 -0.324,-0.402 -0.78,-0.667 -1.368,-0.793 0.49,-0.079 0.86,-0.276 1.112,-0.596 0.252,-0.319 0.379,-0.749 0.379,-1.289 0,-0.697 -0.246,-1.236 -0.739,-1.615 -0.493,-0.378 -1.195,-0.566 -2.105,-0.566 z m 1.193,0.98 h 1.77 c 0.583,0 1.017,0.111 1.3,0.332 0.288,0.22 0.432,0.553 0.432,0.998 0,0.45 -0.144,0.785 -0.431,1.006 -0.284,0.217 -0.718,0.324 -1.301,0.324 h -1.77 z m 0,3.631 h 1.916 c 0.643,0 1.119,0.132 1.426,0.396 0.312,0.26 0.467,0.665 0.467,1.217 0,0.548 -0.155,0.957 -0.467,1.225 -0.307,0.264 -0.783,0.396 -1.426,0.396 h -1.916 z"
     id="path35"
     inkscape:connector-curvature="0" />
  <path
     d="m 3.92,14.74 c -0.02,0.4 -0.13,0.78 -0.13,1.2 0,7.24 5.81,16.9 7.6,19.68 a 54.47,54.47 0 0 0 6.24,8.16 c 2.54,2.64 4.57,3.87 6.37,3.87 1.8,0 3.83,-1.23 6.37,-3.87 2,-2.08 4.22,-4.97 6.25,-8.16 1.78,-2.79 7.58,-12.44 7.58,-19.67 0,-0.43 -0.1,-0.8 -0.13,-1.21 a 21.6,21.6 0 0 1 -0.8,4.94 43.2,43.2 0 0 1 -2.2,5.77 69.59,69.59 0 0 1 -4.45,8.17 54.47,54.47 0 0 1 -6.25,8.16 17.98,17.98 0 0 1 -3.46,2.93 c -1.05,0.64 -2,0.94 -2.91,0.94 -0.9,0 -1.86,-0.3 -2.9,-0.94 -1.06,-0.64 -2.2,-1.6 -3.47,-2.93 -2,-2.08 -4.22,-4.97 -6.25,-8.16 A 69.6,69.6 0 0 1 6.92,25.45 43.2,43.2 0 0 1 4.73,19.68 21.6,21.6 0 0 1 3.93,14.74 Z"
     id="path37"
     inkscape:connector-curvature="0"
     style="opacity:0.3" />
</svg>
