<svg xmlns="http://www.w3.org/2000/svg" xmlns:xlink="http://www.w3.org/1999/xlink" viewBox="0 0 48 48"><defs><linearGradient id="e" x1="100.12" x2="28.87" y1="29.37" y2="57.12" gradientTransform="translate(10.55 4.18) scale(.24022)" gradientUnits="userSpaceOnUse" xlink:href="#a"/><linearGradient id="a"><stop stop-color="#7e7e7e" offset="0"/><stop stop-color="#2b2b2b" offset="1"/></linearGradient><linearGradient id="f" x1="74.73" x2="24.23" y1="3.81" y2="45.31" gradientTransform="translate(10.55 4.18) scale(.24022)" gradientUnits="userSpaceOnUse" xlink:href="#a"/><linearGradient id="g" x1="14.11" x2="10.71" y1="53.23" y2="59.98" gradientTransform="translate(10.55 4.18) scale(.24022)" gradientUnits="userSpaceOnUse"><stop stop-color="#333" offset="0"/><stop stop-color="#383838" offset="1"/></linearGradient><linearGradient id="h" x1="12.72" x2="12.5" y1="37.02" y2="37.43" gradientTransform="translate(9.71 3.34) scale(.25007)" gradientUnits="userSpaceOnUse"><stop stop-color="#2b2b2b" offset="0"/><stop stop-color="#2b2b2b" stop-opacity="0" offset="1"/></linearGradient><linearGradient id="i" x1="6.56" x2="63.76" y1="1.58" y2="103.61" gradientTransform="translate(10.4 3.84) scale(.24283)" gradientUnits="userSpaceOnUse"><stop stop-color="#7e7e7e" offset="0"/><stop stop-color="#1a1a1a" offset="1"/></linearGradient><radialGradient id="j" cx="56.92" cy="105.72" r="43.49" fx="24.57" fy="102.1" gradientTransform="matrix(.21147 -.04516 0 .00569 13.16 32.48)" gradientUnits="userSpaceOnUse" xlink:href="#b"/><linearGradient id="b"><stop stop-color="#fff" offset="0"/><stop stop-color="#fff" stop-opacity="0" offset="1"/></linearGradient><linearGradient id="k" x1="35.38" x2="35.38" y1="82.03" y2="84.05" gradientTransform="matrix(.21147 -.03988 0 .23327 13.28 8.45)" gradientUnits="userSpaceOnUse"><stop stop-color="#888a85" offset="0"/><stop stop-color="#2e3436" stop-opacity="0" offset="1"/></linearGradient><radialGradient id="l" cx="9.99" cy="32.81" r="4.77" fx="6.28" fy="31.51" gradientTransform="matrix(.12308 .05225 -.01103 .03923 12.09 10.82)" gradientUnits="userSpaceOnUse" xlink:href="#b"/><radialGradient id="m" cx="95.39" cy=".33" r="1.49" fx="94.43" fy=".29" gradientTransform="matrix(.26991 .1381 -.02368 .04628 7.83 -9.16)" gradientUnits="userSpaceOnUse" xlink:href="#b"/><linearGradient id="d" x1="11.33" x2="49.98" y1="9.27" y2="32.14" gradientUnits="userSpaceOnUse"><stop stop-color="#070000" offset="0"/><stop stop-color="#070000" stop-opacity="0" offset="1"/></linearGradient><linearGradient id="c" x1="22.9" x2="34.32" y2="45.46" gradientUnits="userSpaceOnUse"><stop stop-color="#e3dbde" offset="0"/><stop stop-color="#b3b3b3" offset=".14"/><stop stop-color="#c8beb7" offset=".48"/><stop stop-color="#e3d7f4" offset=".62"/><stop stop-color="#c8b7c4" offset=".79"/><stop stop-color="#d5d5ff" offset="1"/></linearGradient></defs><path fill="url(#c)" d="M24 .35c-5.83 0-10.52 1.12-13.93 3.33-4.1 2.66-6.27 6.9-6.27 12.27 0 7.23 5.8 16.88 7.58 19.67a54.47 54.47 0 0 0 6.25 8.16c2.54 2.64 4.57 3.87 6.37 3.87 1.8 0 3.83-1.23 6.37-3.87 2-2.08 4.22-4.97 6.25-8.16 1.78-2.79 7.58-12.44 7.58-19.67 0-5.37-2.16-9.62-6.26-12.27C34.52 1.47 29.84.35 24 .35z"/><path opacity=".35" fill="url(#d)" d="M26.3 46.9c.21-.1.39-.06.61-.2 1.05-.63 2.19-1.6 3.46-2.92 2-2.08 4.22-4.97 6.25-8.16.89-1.4 2.78-4.5 4.46-8.17.84-1.83 1.62-3.8 2.19-5.77.57-1.97.93-3.92.93-5.73 0-.6-.12-1.13-.18-1.7L33.92 4.19l-19 9.56-.73 21.05z"/><path opacity=".25" d="M24 .35c-5.83 0-10.52 1.12-13.93 3.33-4.1 2.66-6.27 6.9-6.27 12.27 0 7.23 5.8 16.88 7.58 19.67a54.47 54.47 0 0 0 6.25 8.16c2.54 2.64 4.57 3.87 6.37 3.87 1.8 0 3.83-1.23 6.37-3.87 2-2.08 4.22-4.97 6.25-8.16 1.78-2.79 7.58-12.44 7.58-19.67 0-5.37-2.16-9.62-6.26-12.27C34.52 1.47 29.84.35 24 .35zm0 .14c2.11.09 4.12.27 5.88.7 1.16.27 2.25.62 3.26 1.03 1.01.42 1.94.9 2.8 1.46A12.92 12.92 0 0 1 40.6 8.8c.53 1.03.92 2.15 1.2 3.34s.4 2.47.4 3.8c0 1.82-.37 3.77-.94 5.74a43.18 43.18 0 0 1-2.2 5.77 69.59 69.59 0 0 1-4.45 8.17 54.46 54.46 0 0 1-6.25 8.16 17.98 17.98 0 0 1-3.46 2.93c-.32.2-.62.3-.91.39-.3-.08-.59-.2-.9-.4-1.06-.63-2.2-1.6-3.47-2.92-2-2.08-4.22-4.97-6.25-8.16a69.6 69.6 0 0 1-4.46-8.17 43.2 43.2 0 0 1-2.19-5.77 20.93 20.93 0 0 1-.93-5.73c0-1.34.13-2.61.4-3.8s.67-2.32 1.2-3.35a13.06 13.06 0 0 1 4.67-5.12c.85-.56 1.78-1.04 2.8-1.46s2.1-.76 3.26-1.04C19.88.76 21.89.58 24 .5z"/><path fill-rule="evenodd" fill="url(#e)" d="M14.27 15.2l.05-.9 20.48-2.04.95.38-4.28 4.43-15.6-.93z"/><path fill-rule="evenodd" fill="url(#f)" d="M13.34 12.81l-.94-.46c.07-.11.15-.2.27-.24l20.56-8.22c.05-.02.08-.01.11 0l.73.36-4.26 4.45-14.88 5.05z"/><path fill-rule="evenodd" fill="url(#g)" d="M13.91 13.05l-1.5-.7a.51.51 0 0 0-.03.4l.93 2.99-.17 18.3 1.1.8.69-21.1z"/><path fill="url(#h)" d="M12.43 12.32l1.14.5-.07.37-1.14-.71c0-.03.03-.13.06-.16z"/><path fill="url(#i)" d="M18.38 13.96L35.03 6.9l-.9-2.57c-.02-.06-.1-.11-.2-.07l-20.1 8.36c-.22.12-.43.34-.36.66l.78 3.07v18.5l21.5-4.7v-17.5l-17.38 1.7v-.38z"/><path fill="#fff" d="M16.05 20.52l18.4-2.43v.33l-18.4 2.43zM33.98 15.51l-1.84.2.72-2.18 1.84-.2-.72 2.18m-8.68-1.16l1.85-.2-.72 2.17-1.84.2.71-2.17m3.78-.41l1.85-.2-.72 2.18-1.85.2.72-2.18m-7.55.81l1.84-.2-.71 2.18-1.85.2zM15.79 17.06c0 .34.22.56.5.5.27-.06.49-.38.49-.71 0-.33-.22-.55-.5-.5-.27.06-.5.38-.5.71zM20.79 12.13l1.73-.72-1.4-1.5-1.73.71 1.4 1.5M28.2 7l-1.73.71 1.4 1.5 1.73-.7L28.21 7m-3.54 1.46l-1.74.7 1.4 1.51 1.74-.71-1.4-1.5m7.09-2.92l-1.74.72 1.4 1.5 1.74-.71zM16.04 27.07l18.92-3.55v4.87l-18.92 4.04z"/><path fill-opacity=".76" fill="#fff" d="M23.44 4.16v-.7z"/><path opacity=".83" fill="url(#j)" d="M34.4 28.55A.24 9.4 77.94 1 1 16 32.48a.24 9.4 77.94 1 1 18.4-3.93z"/><path opacity=".83" fill="url(#k)" d="M16.05 27.07v.63l18.9-3.56v-.64z"/><path opacity=".64" fill="url(#l)" d="M13.54 12.87a.63.24 21.85 1 1-1.17-.48.63.24 21.85 1 1 1.17.48z"/><path opacity=".62" fill-rule="evenodd" fill="url(#m)" d="M33.3 3.89l-.06.01c.05.05.13.15.28.23.2.1.4.12.42.09 0 0 0-.02-.02-.03l-.58-.3h-.04z"/></svg>