<?xml version="1.0" encoding="UTF-8" standalone="no"?><svg xmlns:dc="http://purl.org/dc/elements/1.1/" xmlns:cc="http://creativecommons.org/ns#" xmlns:rdf="http://www.w3.org/1999/02/22-rdf-syntax-ns#" xmlns="http://www.w3.org/2000/svg" width="48" height="48"><metadata><rdf:RDF><cc:Work><dc:format>image/svg+xml</dc:format><dc:type rdf:resource="http://purl.org/dc/dcmitype/StillImage"/><dc:title/></cc:Work></rdf:RDF></metadata><defs><linearGradient id="a"><stop offset="0"/><stop offset="1" stop-opacity="0"/></linearGradient><linearGradient id="b"><stop offset="0" stop-color="#c83737"/><stop offset="1" stop-color="#c83737" stop-opacity=".03"/></linearGradient><linearGradient id="c"><stop offset="0" stop-color="#2086e7"/><stop stop-color="#89c2ee" offset=".58"/><stop offset="1" stop-color="#2086e7"/></linearGradient></defs><path d="M24 .35c-5.83 0-10.52 1.12-13.93 3.33-4.1 2.65-6.27 6.9-6.27 12.27 0 7.23 5.8 16.89 7.58 19.67a54.47 54.47 0 0 0 6.25 8.16c2.54 2.64 4.57 3.87 6.37 3.87 1.8 0 3.83-1.23 6.37-3.87 2-2.08 4.22-4.97 6.25-8.16 1.78-2.78 7.59-12.44 7.59-19.67 0-5.37-2.18-9.61-6.28-12.27C34.53 1.47 29.84.35 24 .35z" fill="#5f8dd3"/><path d="M39.3 4.68c-.43-.35-.88-.69-1.36-1a17.1 17.1 0 0 0-2.8-1.46 22 22 0 0 0-3.26-1.04A33.86 33.86 0 0 0 24 .35c-2.92 0-5.54.28-7.87.83a22.02 22.02 0 0 0-3.27 1.04A17.15 17.15 0 0 0 8.7 4.66L24 19.9z" fill="#de8787"/><path d="M8.7 4.66c-.4.35-.8.71-1.14 1.1-.78.86-1.48 1.7-2 2.73a12.5 12.5 0 0 0-1.23 3.12 18.2 18.2 0 0 0-.54 3.9c0 1.8.28 3.84.85 5.8a42 42 0 0 0 2.1 5.72 47.66 47.66 0 0 0 3.37 6.51L24 19.9z" fill="#87deaa"/><path d="M37.88 33.58a56.18 56.18 0 0 0 5.38-11.9 21 21 0 0 0 .94-5.73c0-1.34-.14-2.62-.4-3.81a14.09 14.09 0 0 0-1.2-3.34 12.9 12.9 0 0 0-3.3-4.12L24 19.9z" fill="#d3bc5f"/><path d="M19.9 9.18l-2.73.04-3.59 1.3-1.8 3 .08 2.92.8.33.37-.17-.03-1.63-.03-1 .63-1.03 1.15-1.37.9-.7 2.35-.43.71.07.48.08.6.22.63.38.7.62.44.64.34.07.05 1.1.21 1.07h-.13l-.06.92-.22.66-.24.37-.47.58-.39.33-.48.36-.48.2-.55.27a2.6 2.6 0 0 1-1.16.32l-.01.01H17.1l-.85-.03-.32-.04-.62-.17-.85-.38-.71-.3-2.61-.8.56.94 1.6 2.18 2.3 1.1 1.28.43 1.04-.03 1.73-.17 1.85-.84 1.51-1.35h.01v.04l1.69-.84.88-.29.11.03-.4.53-.1.11-.1.2-.41.63-.29.43-.1.41.08.6.12.83c-.79-.3-5.16.92-4.82 6.04l.07.55.24.94.18.42.26.47.3.4 1.09.82 1.03 1.31-.02.93 6.8.8 1.36.04 1.7-.77 2.42-2.36.85-2.46-.05-1.88c-.84-2.65-1.2-4.85-1.12-6.62-.85-.65-1.52-1.23-2.17-1.72l-.05-.57.41-.78-.07-.78-.24-.6c-.09-.03-.13-.2-.18-.34l-1.64-2.22-.46-.51-.18-.11-.77-.4-.73.38-.02-.03-1.55.16-.07-.47-.47-1.16-.46-.76-.23-.57a3.62 3.62 0 0 0-1.95-.76l-.53.01H22.87l-.18-.02-.38.03-.36.07-.45.21-.02.03-.43-.05-.47-.27-.43-.08zm8.01 5s.97.12 1.07.12c.02 0 .07-.04.1-.06l.29.78.87.62.75 1.16-.18 1a6.83 6.83 0 0 0-2.52-.44c-.45 0-.94.02-1.5.08l-.03.03-.28.02.13-.75.75-2.3zm-.75 8.69l.76.1.66.12.92.29.87.34.86.46.28.17 1.26.82.3.22.44 1.6.02.46-.07.44-.23.64-.11.25-.15.26-.12.3c-2.16 3.74-6.03 1.45-9.25 1.45l-.47-.23-.06-.17-.55-.76-.88-1.56.17-1.4.35-1.07.97-1.4 1.82-.93z" fill="#dbdee3"/><g fill="#1a1a1a"><path d="M15.14 9.14a10 10 0 0 0-1.8.93 7.1 7.1 0 0 0-2 2.25c-.15.28-.3.44-.5.57l-.13.32-.28.9c-.27.85.42 2.04.38 2.5l.18.73c.22 1 .65 1.75 1.47 2.53.22.22.55.5.74.62.77.5 2.07 1.03 3.08 1.24.58.11 1.86.15 2.5.06a7.36 7.36 0 0 0 4.12-1.95c.61-.56.96-.8 1.48-1.05a3.5 3.5 0 0 1 1-.32s-.02.08-.07.16a.7.7 0 0 0-.1.2c0 .1.2-.1.51-.5.32-.4.7-.74.94-.82.15-.04.16-.06.12-.13-.07-.1.03-.47.3-1.14.15-.39.24-.68.27-.89.02-.17.07-.4.12-.5.07-.15.11-.19.32-.27.43-.16.4-.16.68.14.28.32.58.55 1.4 1.08.52.34.6.4.73.63.32.51.3.46.24.68-.03.1-.1.31-.18.46-.07.14-.12.28-.1.3.01.05.57.28.66.28.02 0 .01-.04-.02-.1-.06-.1-.03-.28.05-.28.02 0 .14.1.26.24.24.25.33.27.17.05a.68.68 0 0 0-.48-.33c-.18-.03-.25-.12-.12-.16.37-.1.72-.42.84-.73l.2-.44c.06-.14.12-.28.12-.33 0-.07-.68-1.34-.77-1.43-.03-.02-.03 0 0 .1.01.11 0 .12-.1.12-.08 0-.16 0-.2.02-.05.01-.07-.04-.09-.24-.06-.53-.08-.6-.14-.6-.04.03-.05 0-.03-.14.03-.23-.02-.37-.13-.43l-.09-.05.1.15c.2.3.07.33-.22.02a4.17 4.17 0 0 0-.57-.44c-.23-.16-.37-.27-.4-.36-.06-.15-.03-.2.06-.1l.27.2c.11.07.3.21.41.32.17.14.22.17.23.12.05-.25-.86-.92-1.33-1-.26-.03-.38 0-.57.18-.1.08-.23.18-.3.21a3.3 3.3 0 0 1-1.02.13c-.02-.02-.1-.22-.17-.44a4.72 4.72 0 0 0-.37-.77c-.12-.2-.32-.58-.44-.83-.34-.73-.55-.93-.5-.48.03.24.2.58.42.85.15.17.17.21.12.27-.04.05-.04.08 0 .11l.05.15c0 .08 0 .08.04-.02.06-.1.1-.12.14-.02.02.06.23 2.3.24 2.5 0 .03-.1.22-.22.41-.12.2-.25.45-.3.56-.13.35-.08.52.06.21.1-.2.3-.45.27-.33 0 .05-.03.13-.05.17-.03.07-.02.08.08.05.14-.03.15.05.04.23-.1.16-.17.16-.23 0-.02-.06-.05-.08-.07-.06 0 .03.01.1.05.18.07.12.06.14-.06.45-.05.11-.16.5-.24.84a6 6 0 0 1-.2.76c-.09.16-.5.35-.86.4-.24.04-.22-.02.05-.1a.71.71 0 0 0 .41-.32l.1-.12-.2.03-.19.03.13-.07c.24-.13.3-.3.18-.53-.05-.1-.05-.12.03-.23.08-.12.08-.12 0-.1a6.61 6.61 0 0 0-2.04.61c-.4.21-.52.3-.64.5-.14.22-.9.97-1.3 1.27a8.51 8.51 0 0 1-2.66 1.27c-.04 0 0-.12.08-.2.05-.06.08-.1.06-.13 0-.02-.23 0-.47.05-.24.04-.64.1-.9.1-.24.02-.45.05-.47.07-.04.03-.04.04-.05.15 0 .04-.22.05-.78.03-.55-.02-.74 0-.65.02.07.02.5.04.96.05.75 0 .85 0 .92-.07a3.53 3.53 0 0 1 1.12-.22c.1.05.03.16-.1.22-.5.2-2.5.24-3.33.06-.63-.13-1.82-.58-1.69-.63.03 0 .18.03.34.1.46.18.35.08-.23-.2a7.2 7.2 0 0 1-.82-.49 8.96 8.96 0 0 1-1.3-1.26c-.05-.08.1.04.35.3.4.4.56.52.5.37-.02-.04 0-.07.02-.07.04 0 .06.06.04.1l.04.1a5.84 5.84 0 0 0 2.02 1.12l.23.02-.08-.16c-.1-.17-.2-.24-.33-.24-.06 0-.1-.04-.13-.1a.33.33 0 0 0-.13-.16c-.06-.03-.07-.06-.05-.1.07-.07.1-.5.06-.67-.04-.16-.04-.17.03-.1.05.04.1.12.1.18.02.05.05.1.08.1.06 0 .05-.23-.03-.33-.06-.09-.06-.1 0-.1a8.23 8.23 0 0 0 1.02.37l.47.16 1 .01c.58.02 1.04 0 1.1-.02.08-.03-.13-.04-.67-.03a5.05 5.05 0 0 1-2.6-.54 2.67 2.67 0 0 1-1.45-1.7c-.13-.38-.13-.4-.1-.84.04-.62.17-1.46.28-1.8.2-.6.56-1.19 1.2-1.82.4-.42.8-.7 1.31-.9.8-.36 1.51-.48 2.51-.45.5.02.7.04.9.1.57.22 1.04.52 1.5 1 .4.4.56.63.77 1.04l.17.33v1c0 .77-.03 1.1-.08 1.37-.09.43-.09.52-.03.43.05-.09.1-.03.06.08 0 .06-.05.08-.09.07-.05-.02-.06 0-.04.08.02.07.01.11-.03.13-.04.01-.07.07-.1.14-.04.2-.35.64-.6.87-.34.3-.76.57-1.37.86-.6.3-.63.36-.05.11a4.62 4.62 0 0 0 2.63-2.62l.2-.46-.02-1.37c-.02-1.28-.02-1.37-.1-1.59a3.3 3.3 0 0 1-.15-.42 5.49 5.49 0 0 0-.26-.7c-.12-.29-.23-.6-.24-.72 0-.15-.04-.2-.08-.18-.04.02-.06 0-.06-.13s.02-.16.1-.2c.07-.02.11-.05.11-.08s0-.03-.04-.02h-.04c0-.03.1-.1.2-.18.15-.1.28-.15.53-.19.18-.02.36-.03.4-.02.07.03.07.04 0 .1-.1.12-.08.23.08.44l.2.32.03.12v-.14c0-.1.03-.13.08-.13a.2.2 0 0 0 .13-.05c.03-.04.06-.04.12 0 .03.03.07.05.08.04.06-.07.36-.59.36-.62 0-.03.07-.07.14-.1.12-.03.1-.03-.17-.03-.17 0-.3 0-.3.02s.02.07.06.12c.07.1.08.2 0 .34-.07.17-.18.13-.3-.1-.08-.17-.1-.24-.07-.27.08-.09.05-.1-.17-.13-.42-.03-1 .04-1.23.16-.28.14-.4.14-.84-.05-.2-.08-.5-.2-.67-.25l-.3-.1-2.2-.37c-2.15 0-2.36.38-2.58.46zm5.5.3l.1.07-.1.03-.1.03.1.1.1.1h-.1c-.1 0-.13.04-.05.12.04.04.04.06 0 .1-.04.01-.02.07.08.23.2.28.45.54.5.51.05-.03.12.18.07.22 0 .01-.07-.02-.13-.07-.18-.17-.12-.03.15.37a2.08 2.08 0 0 1 .35.72c.02.02.03.11.03.2l-.02.13-.1-.22a3.42 3.42 0 0 0-.87-.86 5.9 5.9 0 0 0-1.92-.82 5.96 5.96 0 0 0-1.94-.16 1.3 1.3 0 0 1-.36.13 4.8 4.8 0 0 0-1.3.51c-.53.28-.88.55-1.25.98-.63.72-1.13 1.7-1.13 2.24a2 2 0 0 1-.09.44c-.12.42-.1 1.1.07 1.58.1.3.12.48.02.33a6.4 6.4 0 0 1-.42-1.75c0-.26.1-.95.17-1.12a.27.27 0 0 1 .13-.15c.07-.02.11-.1.15-.26.07-.28.5-1.16.73-1.5.24-.36.82-.9 1.2-1.13.41-.25.81-.4 1.53-.57.6-.13.66-.14 1.45-.13a8 8 0 0 1 1.07.05 7.73 7.73 0 0 1 1.8.86c.15.17.27.2.31.1 0-.04 0-.05-.05-.03-.09.03-.43-.3-.4-.4.03-.05.01-.06-.07-.04-.13.04-.13 0-.02-.14.11-.15.1-.19-.04-.15-.13.02-.13.02-.09-.12.02-.07.04-.22.04-.33 0-.1.02-.22.05-.24.08-.08.23-.07.34.03zm9.97 4.48c.21.24.17.38-.16.47-.26.08-.52.3-.52.43s-.04.22-.1.22c-.03 0-.1-.05-.18-.12-.12-.13-.12-.13-.03-.22l.14-.2c.11-.2.57-.73.64-.73.05 0 .13.07.2.15zm.11 1.62c.04.05.13.2.2.35.07.15.23.43.36.62.13.2.22.4.22.44-.02.06-.04.05-.16-.08a5.56 5.56 0 0 1-.78-1.37c.04-.05.1-.03.16.04zm-7.1 2.9a10.09 10.09 0 0 0-1.1.9c-.33.3-.75.65-.96.8a8.3 8.3 0 0 1-2.67 1.18c-.53.12-2.4.14-2.19.02.03-.02.35-.04.7-.05a7.59 7.59 0 0 0 4.97-2.2c.67-.6.8-.68 1.07-.68.13 0 .2.01.17.03z"/><path d="M23.77 10.08c0 .03-.12.11-.26.18-.4.2-.38.37.03.42.64.1.7.08.8-.03.11-.1.15-.33.07-.45-.03-.06-.39-.18-.54-.18-.05 0-.1.03-.1.06zm8.84 6.23c.07.3.14.62.14.7 0 .25-.14.5-.35.6-.2.1-.37.42-.37.7 0 .16.01.2.11.24.07.03.15.1.18.13.03.04.1.07.16.07.05 0 .12.03.15.1.06.06.07.05.06-.2 0-.24.02-.3.17-.56.23-.4.3-.58.26-.9a2.48 2.48 0 0 0-.44-1.08.71.71 0 0 1-.14-.26c0-.05-.02-.08-.04-.08s.02.24.1.54zM23.4 16c0 .05-.05.15-.1.23-.07.08-.1.16-.1.2 0 .04-.05.08-.09.11-.06.04-.06.05.03.16.13.12.4.27.55.27.11 0 .18-.12.08-.18a.3.3 0 0 1-.09-.14.18.18 0 0 0-.12-.12c-.1-.03-.08-.16.06-.22.28-.1.52.17.43.47-.04.13-.04.14.03.1.17-.09.16-.44 0-.65-.07-.09-.13-.1-.26-.1-.2 0-.34-.07-.34-.16 0-.03 0-.06-.04-.06-.02 0-.04.04-.04.1zm5.72 1.65c-.17.1-.32.28-.32.4 0 .2.26.4.47.4.13 0 .15-.1.05-.2-.05-.05-.08-.12-.07-.15.02-.03 0-.07-.07-.08-.13-.03-.05-.1.12-.1.1 0 .14-.04.14-.08 0-.03.04-.06.08-.06.05 0 .12-.04.16-.07.06-.07.06-.08 0-.1a.75.75 0 0 0-.56.04zm-2.32 1.01a.95.95 0 0 0-.22.17c-.15.14-.16.18-.16.4 0 .12-.02.3-.05.36-.06.17 0 .24.16.24.1 0 .2-.07.46-.32.27-.26.32-.34.32-.45 0-.2-.32-.46-.5-.4z"/><path d="M25.1 19.03c-.05.03-.25.3-.43.57-.4.61-.45.78-.42 1.45.03.47.11.76.26.88.06.05.07.05.07-.07 0-.08.02-.14.06-.14.1 0 .23.13.26.23 0 .06.06.14.11.16.05.03.48.07.95.1 1.2.1 2.17.2 2.3.24.16.06.18.05.2-.05.02-.1.1-.08.1.03-.03.14.04.13.08 0 .03-.14.1-.14.5 0 1.24.4 2.33.97 2.68 1.38l.7.75c.3.3.53.57.52.58 0 .01-.15-.06-.3-.17l-.5-.28-.34-.2a32.54 32.54 0 0 1-1.16-.66A20.1 20.1 0 0 0 28.5 23a9.67 9.67 0 0 0-1.26-.3s-.04-.05-.06-.12c-.04-.09-.05-.1-.07-.04 0 .06-.07.08-.37.08-.23 0-.4.02-.47.06a.7.7 0 0 1-.27.07c-.55 0-1.83.5-2.55 1.02a5.9 5.9 0 0 0-1.62 1.85c-.2.38-.4 1.2-.4 1.6 0 .74.38 1.7.88 2.22.1.12.2.2.22.2.01-.02-.05-.19-.15-.38a5.7 5.7 0 0 1-.29-.72c-.1-.32-.1-.45-.1-.95a3 3 0 0 1 .31-1.5 7.16 7.16 0 0 1 1.78-2.06 5.22 5.22 0 0 1 2.4-.9 8.64 8.64 0 0 1 2.06.01c.87.2 2.13.72 2.87 1.2a4.69 4.69 0 0 1 1.54 1.5c.2.4.43 1.04.5 1.32.07.25.07.27-.03.66-.13.48-.26.85-.44 1.22a.87.87 0 0 0-.12.3c.04.02.47-.92.6-1.32a6.2 6.2 0 0 0 .1-2.08 3.84 3.84 0 0 0-.72-1.65 1.3 1.3 0 0 1-.2-.34.06.06 0 0 0-.07-.06c-.09 0-.18-.12-.12-.16.05-.03-.14-.24-.36-.39l.1.1c.23.23.14.24-.19.02-.33-.23-.55-.44-.57-.56a.13.13 0 0 0-.07-.1c-.03 0-.04 0-.02.05.01.04.01.07 0 .07l-.67-.29-1.46-.57c-.8-.3-.87-.32-.82-.36.02-.02.44.06.65.13.08.03.08.03 0-.03a2.7 2.7 0 0 0-.92-.23c-.1.01-.1.01.01.02.13 0 .17.1.03.1s-.5-.1-.5-.14c0 0 .04-.04.1-.06.06-.03.02-.04-.2-.06l-1.94-.22c-.56-.05-.85-.13-1-.29a.7.7 0 0 1-.2-.59c.03-.15.27-.6.32-.6a.3.3 0 0 1 .14.08c.16.12.4.14.6.06l.16-.06-.14-.09c-.15-.1-.16-.15-.07-.28.06-.1.06-.1-.02-.1-.1 0-.12-.1-.02-.17.1-.08.27 0 .36.14.1.15.11.1.03-.07-.05-.13-.3-.28-.47-.28a.39.39 0 0 0-.2.07zm9.67 1.63a5.7 5.7 0 0 0-.1 1.05c0 .18-.04.63-.08 1l-.07.65.35.68a5 5 0 0 1 .7 2.34c.01.43.41 1.27.41.46.01-.32.12-1.6-.4-1.86l-.2-.49a4.25 4.25 0 0 1-.25-.72c-.02-.15 0-.55.03-1.07.1-1.28.05-1.63-.26-2l-.1-.14zm-1.32 1.22c-.25.12-.28.18-.27.44.02.22.02.24.2.34.22.16.3.17.4.1l.1-.1-.14-.12c-.12-.1-.14-.17-.14-.3 0-.16.06-.27.18-.3.07-.04 0-.13-.1-.13a.59.59 0 0 0-.23.07z"/><path d="M19.71 28.23c.02.52.22 1.27.48 1.8.38.8.63 1.12 1.63 2.14.57.6.77.87.87 1.23.04.14.1.33.15.41.23.45.93.78 2 .95 1.1.17 1.74.2 4 .2l2.2-.03.41-.16.94-.4a6.69 6.69 0 0 0 2.98-2.96l.22-.43.38-1.92c0-.85-.38-1.17-.39-1.16l-.04.6a5.53 5.53 0 0 1-1.05 3.22 6.72 6.72 0 0 1-2.95 2.46c-.6.23-1.05.24-.5 0 .28-.12 1.2-.7 1.64-1.03a8.18 8.18 0 0 0 2.3-2.8c.21-.44.43-1.24.47-1.68l.03-.29-.17.5a7.14 7.14 0 0 1-6.17 4.92h-.24l.34-.1c.43-.14.36-.18-.32-.19-.94 0-1.9-.09-2.65-.2-.4-.08-.92-.16-1.16-.18-.58-.06-.82-.12-.87-.22-.04-.07-.02-.1.13-.19.1-.06.2-.16.21-.2.02-.07.06-.1.1-.1.08 0 .13-.2.07-.35l-.08-.14a.75.75 0 0 0-.1.2c-.17.33-.4.21-.66-.3-.12-.28-.09-.36.14-.36.18 0 .28-.1.15-.17-.14-.08-.35-.05-.53.06-.2.11-.3.25-.34.43-.03.2.2.55.45.7.16.11.2.16.2.25 0 .13-.1.26-.23.26-.14 0-.46-.17-.6-.3-.2-.19-.3-.53-.3-.86 0-.48.2-.76.75-1.05.1-.06.1-.06-.13-.17a4.28 4.28 0 0 1-.4-.23.58.58 0 0 0-.39-.1c-.17 0-.23-.03-.3-.12-.05-.06-.12-.1-.14-.1-.07 0-.1.12-.05.2.03.05.05.12.05.15 0 .13-.08.06-.2-.16-.1-.2-.14-.22-.26-.22-.1 0-.15-.03-.19-.1-.04-.08-.1-.12-.2-.12-.29-.03-.34-.05-.43-.24a.48.48 0 0 0-.23-.25c-.13-.05-.13-.06-.17-.47-.03-.42-.08-.5-.14-.3a6.06 6.06 0 0 0 .03 1.54.16.16 0 0 1-.08-.08l-.14-.3a5.8 5.8 0 0 1-.5-1.6c-.04-.23-.04-.23-.02.11z"/></g><path d="M24 .35c-5.83 0-10.52 1.12-13.93 3.33-4.1 2.66-6.27 6.9-6.27 12.27 0 7.23 5.8 16.88 7.58 19.67a54.48 54.48 0 0 0 6.25 8.16c2.54 2.64 4.57 3.87 6.37 3.87 1.8 0 3.83-1.23 6.37-3.87 2-2.08 4.22-4.97 6.25-8.16 1.78-2.79 7.58-12.44 7.58-19.67 0-5.37-2.16-9.61-6.26-12.27C34.52 1.47 29.84.35 24 .35zm0 .14c2.11.09 4.12.27 5.88.7 1.16.27 2.25.62 3.26 1.03 1.01.42 1.94.9 2.8 1.46A12.92 12.92 0 0 1 40.6 8.8c.53 1.03.92 2.15 1.2 3.34.26 1.2.4 2.47.4 3.8 0 1.82-.37 3.77-.94 5.74a43.19 43.19 0 0 1-2.2 5.77 69.59 69.59 0 0 1-4.45 8.17 54.47 54.47 0 0 1-6.25 8.16 17.98 17.98 0 0 1-3.46 2.93c-.32.2-.62.3-.91.39-.3-.08-.6-.2-.9-.4-1.06-.63-2.2-1.6-3.47-2.92-2-2.08-4.22-4.97-6.25-8.16a69.6 69.6 0 0 1-4.46-8.17 43.19 43.19 0 0 1-2.19-5.77 20.93 20.93 0 0 1-.93-5.73c0-1.34.13-2.61.4-3.8.27-1.2.67-2.32 1.2-3.35a12.92 12.92 0 0 1 4.67-5.12 17.1 17.1 0 0 1 2.8-1.46c1-.41 2.1-.76 3.26-1.04C19.88.76 21.89.58 24 .5z" opacity=".2"/></svg>