<?xml version="1.0" encoding="UTF-8" standalone="no"?>
<svg
   xmlns:dc="http://purl.org/dc/elements/1.1/"
   xmlns:cc="http://creativecommons.org/ns#"
   xmlns:rdf="http://www.w3.org/1999/02/22-rdf-syntax-ns#"
   xmlns:svg="http://www.w3.org/2000/svg"
   xmlns="http://www.w3.org/2000/svg"
   xmlns:xlink="http://www.w3.org/1999/xlink"
   xmlns:sodipodi="http://sodipodi.sourceforge.net/DTD/sodipodi-0.dtd"
   xmlns:inkscape="http://www.inkscape.org/namespaces/inkscape"
   viewBox="0 0 48 48"
   version="1.1"
   id="svg58"
   sodipodi:docname="preferences-gtk-config.svg"
   inkscape:version="0.92.4 (5da689c313, 2019-01-14)">
  <metadata
     id="metadata62">
    <rdf:RDF>
      <cc:Work
         rdf:about="">
        <dc:format>image/svg+xml</dc:format>
        <dc:type
           rdf:resource="http://purl.org/dc/dcmitype/StillImage" />
        <dc:title></dc:title>
      </cc:Work>
    </rdf:RDF>
  </metadata>
  <sodipodi:namedview
     pagecolor="#ffffff"
     bordercolor="#666666"
     borderopacity="1"
     objecttolerance="10"
     gridtolerance="10"
     guidetolerance="10"
     inkscape:pageopacity="0"
     inkscape:pageshadow="2"
     inkscape:window-width="1112"
     inkscape:window-height="480"
     id="namedview60"
     showgrid="false"
     inkscape:zoom="4.9166667"
     inkscape:cx="2.1355932"
     inkscape:cy="24"
     inkscape:window-x="0"
     inkscape:window-y="25"
     inkscape:window-maximized="0"
     inkscape:current-layer="svg58" />
  <defs
     id="defs38">
    <linearGradient
       id="d">
      <stop
         offset="0"
         stop-color="#374548"
         id="stop2" />
      <stop
         offset="1"
         stop-color="#0b1728"
         id="stop4" />
    </linearGradient>
    <linearGradient
       id="c">
      <stop
         offset="0"
         stop-color="#ff7f2a"
         id="stop7" />
      <stop
         offset="1"
         stop-color="#f55"
         id="stop9" />
    </linearGradient>
    <linearGradient
       id="b">
      <stop
         offset="0"
         stop-color="#0b1728"
         id="stop12" />
      <stop
         offset="1"
         stop-color="#374548"
         id="stop14" />
    </linearGradient>
    <linearGradient
       id="a">
      <stop
         stop-color="#666"
         offset="0"
         id="stop17" />
      <stop
         stop-color="#fff"
         offset="1"
         id="stop19" />
    </linearGradient>
    <linearGradient
       id="h"
       x1="24"
       x2="24"
       y1="13"
       y2="40"
       gradientTransform="matrix(0.62007,0,0,0.60185,9.12,4.08)"
       gradientUnits="userSpaceOnUse">
      <stop
         stop-color="#fff"
         stop-opacity=".94"
         offset="0"
         id="stop22" />
      <stop
         stop-color="#fff"
         stop-opacity=".71"
         offset="1"
         id="stop24" />
    </linearGradient>
    <linearGradient
       id="f"
       x1="11.6"
       x2="48.6"
       y1="7.83"
       y2="44.26"
       gradientUnits="userSpaceOnUse">
      <stop
         offset="0"
         id="stop27" />
      <stop
         stop-opacity="0"
         offset="1"
         id="stop29" />
    </linearGradient>
    <linearGradient
       id="i"
       x1="33.69"
       x2="33.7"
       y1="8.27"
       y2="10.04"
       gradientUnits="userSpaceOnUse"
       xlink:href="#a" />
    <linearGradient
       id="j"
       x1="33.69"
       x2="33.7"
       y1="8.27"
       y2="10.04"
       gradientTransform="translate(-2)"
       gradientUnits="userSpaceOnUse"
       xlink:href="#a" />
    <linearGradient
       id="k"
       x1="33.69"
       x2="33.7"
       y1="8.27"
       y2="10.04"
       gradientTransform="translate(-4)"
       gradientUnits="userSpaceOnUse"
       xlink:href="#a" />
    <linearGradient
       xlink:href="#b"
       id="g"
       x1="11"
       y1="6.63"
       x2="11.48"
       y2="28.89"
       gradientUnits="userSpaceOnUse" />
    <linearGradient
       xlink:href="#c"
       id="e"
       x1="1.97"
       y1="-.81"
       x2="47.66"
       y2="39.66"
       gradientUnits="userSpaceOnUse" />
    <linearGradient
       xlink:href="#d"
       id="l"
       x1="17.78"
       y1="26.69"
       x2="17.93"
       y2="13.4"
       gradientUnits="userSpaceOnUse" />
  </defs>
  <path
     d="m 24,0.35 c -5.83,0 -10.52,1.12 -13.93,3.33 -4.1,2.66 -6.27,6.9 -6.27,12.27 0,7.23 5.8,16.88 7.58,19.67 a 54.47,54.47 0 0 0 6.25,8.16 c 2.54,2.64 4.57,3.87 6.37,3.87 1.8,0 3.83,-1.23 6.37,-3.87 2,-2.08 4.22,-4.97 6.25,-8.16 C 38.4,32.83 44.2,23.18 44.2,15.95 44.2,10.58 42.04,6.33 37.94,3.68 34.52,1.47 29.84,0.35 24,0.35 Z"
     id="path40"
     style="fill:url(#e)"
     inkscape:connector-curvature="0" />
  <path
     d="m 24,0.35 c -5.83,0 -10.52,1.12 -13.93,3.33 -4.1,2.66 -6.27,6.9 -6.27,12.27 0,7.23 5.8,16.88 7.58,19.67 a 54.47,54.47 0 0 0 6.25,8.16 c 2.54,2.64 4.57,3.87 6.37,3.87 1.8,0 3.83,-1.23 6.37,-3.87 2,-2.08 4.22,-4.97 6.25,-8.16 C 38.4,32.83 44.2,23.18 44.2,15.95 44.2,10.58 42.04,6.33 37.94,3.68 34.52,1.47 29.84,0.35 24,0.35 Z m 0,0.14 c 2.11,0.09 4.12,0.27 5.88,0.7 1.16,0.27 2.25,0.62 3.26,1.03 1.01,0.42 1.94,0.9 2.8,1.46 A 12.92,12.92 0 0 1 40.6,8.8 c 0.53,1.03 0.92,2.15 1.2,3.34 0.28,1.19 0.4,2.47 0.4,3.8 0,1.82 -0.37,3.77 -0.94,5.74 -0.57,1.97 -1.35,3.94 -2.2,5.77 a 69.59,69.59 0 0 1 -4.45,8.17 54.46,54.46 0 0 1 -6.25,8.16 17.98,17.98 0 0 1 -3.46,2.93 c -0.32,0.2 -0.62,0.3 -0.91,0.39 -0.3,-0.08 -0.59,-0.2 -0.9,-0.4 -1.06,-0.63 -2.2,-1.6 -3.47,-2.92 -2,-2.08 -4.22,-4.97 -6.25,-8.16 A 69.6,69.6 0 0 1 8.91,27.45 43.2,43.2 0 0 1 6.72,21.68 20.93,20.93 0 0 1 5.79,15.95 c 0,-1.34 0.13,-2.61 0.4,-3.8 0.27,-1.2 0.67,-2.32 1.2,-3.35 a 13.06,13.06 0 0 1 4.67,-5.12 17.1,17.1 0 0 1 2.8,-1.46 c 1,-0.41 2.1,-0.76 3.26,-1.04 C 19.88,0.76 21.89,0.58 24,0.5 Z"
     id="path42"
     inkscape:connector-curvature="0"
     style="opacity:0.2" />
  <path
     d="m 28.16,45.65 c 0.71,-0.56 1.4,-1.02 2.21,-1.87 2,-2.08 4.22,-4.97 6.25,-8.16 0.89,-1.4 2.78,-4.5 4.46,-8.17 0.83,-1.83 1.62,-3.8 2.19,-5.77 a 21,21 0 0 0 0.93,-5.73 c 0,-0.42 -0.1,-0.79 -0.12,-1.2 L 36.7,7.35 11.48,28.89 Z"
     id="path44"
     style="opacity:0.4;fill:url(#f)"
     inkscape:connector-curvature="0" />
  <rect
     ry="1.63"
     rx="1.63"
     height="22.75"
     width="26"
     y="6.6300001"
     x="11"
     id="rect46"
     style="fill:url(#g)" />
  <rect
     ry="0.41"
     rx="0.41"
     height="16.25"
     width="23.559999"
     y="11.91"
     x="12.22"
     id="rect48"
     style="fill:url(#h)" />
  <path
     d="m 32.93,8.41 h 1.49 v 1.56 h -1.49 z"
     id="path50"
     style="opacity:0.4;fill:url(#i)"
     inkscape:connector-curvature="0" />
  <path
     d="m 30.93,8.41 h 1.49 v 1.56 h -1.49 z"
     id="path52"
     style="opacity:0.4;fill:url(#j)"
     inkscape:connector-curvature="0" />
  <path
     d="m 28.93,8.41 h 1.49 v 1.56 h -1.49 z"
     id="path54"
     style="opacity:0.4;fill:url(#k)"
     inkscape:connector-curvature="0" />
  <path
     d="m 23.86,13.28 a 1.96,1.96 0 0 0 -0.25,0.02 2.96,2.96 0 0 0 -2.34,3.87 c 0.02,0.08 0.02,0.1 -0.08,0.25 a 1.5,1.5 0 0 0 0.18,1.91 c 0.11,0.12 0.45,0.32 0.62,0.37 0.05,0.02 0.06,0.06 0.06,0.36 0,0.43 0.04,0.55 0.2,0.62 0.16,0.07 3.43,0.07 3.6,0 0.15,-0.07 0.2,-0.2 0.2,-0.6 0,-0.29 0,-0.33 0.06,-0.35 0.36,-0.13 0.74,-0.46 0.9,-0.8 0.26,-0.52 0.2,-1.16 -0.14,-1.6 L 26.77,17.2 26.83,17 a 2.88,2.88 0 0 0 -0.74,-2.87 3.1,3.1 0 0 0 -1.35,-0.77 3.77,3.77 0 0 0 -0.88,-0.08 z m 1.54,4.12 c 0.18,0 0.41,0.04 0.54,0.1 0.19,0.1 0.35,0.27 0.46,0.46 0.06,0.11 0.07,0.19 0.07,0.4 0,0.24 -0.01,0.3 -0.08,0.44 -0.1,0.18 -0.28,0.35 -0.47,0.45 -0.11,0.07 -0.19,0.08 -0.4,0.08 -0.23,0 -0.3,-0.01 -0.42,-0.08 A 1.15,1.15 0 0 1 24.64,18.8 c -0.08,-0.14 -0.09,-0.2 -0.09,-0.43 0,-0.22 0.01,-0.3 0.08,-0.4 a 1.1,1.1 0 0 1 0.62,-0.55 0.56,0.56 0 0 1 0.15,-0.02 z m -2.83,0.07 a 0.8,0.8 0 0 1 0.58,1.46 0.8,0.8 0 0 1 -1.12,-0.18 0.82,0.82 0 0 1 0.38,-1.25 0.63,0.63 0 0 1 0.17,-0.03 z m 6.5,1.76 a 0.39,0.39 0 0 0 -0.32,0.11 0.77,0.77 0 0 0 -0.19,0.45 c 0,0.1 -0.06,0.22 -0.18,0.33 -0.04,0.04 -0.69,0.37 -1.42,0.73 a 609.6,609.6 0 0 0 -2.14,1.04 l -0.82,0.4 -0.8,-0.4 -2.16,-1.04 a 17.83,17.83 0 0 1 -1.42,-0.73 c -0.13,-0.11 -0.18,-0.23 -0.18,-0.36 0,-0.13 -0.1,-0.34 -0.2,-0.44 a 0.45,0.45 0 0 0 -0.5,-0.02 c -0.23,0.14 -0.3,0.3 -0.27,0.66 0.02,0.25 0.01,0.28 -0.04,0.35 a 0.63,0.63 0 0 1 -0.19,0.15 c -0.42,0.21 -0.5,0.74 -0.16,0.97 0.15,0.1 0.37,0.08 0.6,-0.04 0.25,-0.12 0.39,-0.11 0.82,0.08 l 3.08,1.5 c 0,0.01 -0.76,0.4 -1.69,0.84 -1.92,0.92 -1.9,0.92 -2.2,0.75 -0.24,-0.12 -0.46,-0.13 -0.6,-0.03 -0.35,0.22 -0.26,0.7 0.16,0.96 0.1,0.06 0.19,0.15 0.2,0.18 l 0.01,0.32 c 0,0.17 0.01,0.3 0.05,0.37 0.12,0.3 0.4,0.44 0.64,0.32 0.16,-0.08 0.23,-0.22 0.3,-0.6 0.04,-0.22 0.13,-0.27 2.4,-1.37 l 2.15,-1.04 0.9,0.44 a 50.04,50.04 0 0 1 3.49,1.73 c 0.12,0.1 0.17,0.23 0.17,0.37 0,0.38 0.4,0.64 0.7,0.44 a 0.62,0.62 0 0 0 0.18,-0.21 c 0.08,-0.13 0.08,-0.18 0.08,-0.45 0,-0.31 0,-0.32 0.1,-0.4 l 0.2,-0.14 c 0.17,-0.1 0.3,-0.34 0.3,-0.54 0,-0.4 -0.38,-0.57 -0.8,-0.35 -0.31,0.17 -0.3,0.17 -2.21,-0.75 a 51.83,51.83 0 0 1 -1.7,-0.83 c 0,-0.02 2.26,-1.12 3.1,-1.5 0.43,-0.2 0.55,-0.22 0.85,-0.08 0.24,0.12 0.41,0.13 0.56,0.02 0.34,-0.22 0.26,-0.75 -0.16,-0.96 -0.2,-0.11 -0.23,-0.15 -0.22,-0.49 0,-0.3 -0.04,-0.45 -0.15,-0.57 a 0.5,0.5 0 0 0 -0.32,-0.17 z m -5.45,0.21 a 0.24,0.24 0 0 1 0.16,0.06 c 0.08,0.08 0.08,0.29 0,0.38 l -0.05,0.06 -0.1,-0.08 a 0.9,0.9 0 0 1 -0.18,-0.21 c -0.06,-0.11 -0.06,-0.11 0,-0.16 a 0.27,0.27 0 0 1 0.17,-0.05 z m 0.89,0 c 0.06,0 0.12,0.01 0.17,0.05 0.06,0.05 0.06,0.05 0,0.16 a 0.9,0.9 0 0 1 -0.18,0.2 l -0.1,0.1 -0.06,-0.07 c -0.08,-0.1 -0.07,-0.3 0,-0.38 a 0.24,0.24 0 0 1 0.17,-0.06 z"
     id="path56"
     style="fill:url(#l)"
     inkscape:connector-curvature="0" />
</svg>
