<svg xmlns="http://www.w3.org/2000/svg" xmlns:xlink="http://www.w3.org/1999/xlink" width="48" height="48"><defs><linearGradient id="b"><stop offset="0" stop-color="#b7bec8"/><stop offset="1" stop-color="#939dac"/></linearGradient><linearGradient id="c"><stop offset="0" stop-color="#373e48" stop-opacity=".84"/><stop offset="1" stop-opacity="0"/></linearGradient><linearGradient id="a"><stop offset="0"/><stop offset="1" stop-opacity="0"/></linearGradient><linearGradient xlink:href="#a" id="e" x1="11.41" y1="7.73" x2="41.44" y2="39.26" gradientUnits="userSpaceOnUse" gradientTransform="translate(.01 -.02)"/><radialGradient xlink:href="#b" id="d" cx="9.68" cy="2.68" fx="9.68" fy="2.68" r="5.35" gradientTransform="matrix(.25006 4.03852 -4.41595 .27343 46.02 -32.07)" gradientUnits="userSpaceOnUse"/><linearGradient xlink:href="#c" id="f" gradientUnits="userSpaceOnUse" x1="21.69" y1="6.1" x2="21.6" y2="18.28"/><linearGradient xlink:href="#c" id="g" gradientUnits="userSpaceOnUse" x1="21.69" y1="6.1" x2="21.6" y2="18.28"/><linearGradient xlink:href="#c" id="h" gradientUnits="userSpaceOnUse" x1="21.69" y1="6.1" x2="21.6" y2="18.28"/><linearGradient xlink:href="#c" id="i" gradientUnits="userSpaceOnUse" x1="21.69" y1="6.1" x2="21.6" y2="18.28"/></defs><path d="M-59.66 28.94h.37l-.35-.61a11.58 14.38 0 0 1-.02.6z" fill="#483737"/><path d="M24.03.38c-5.82 0-10.5 1.06-13.95 3.25a13.87 13.87 0 0 0-6.27 12.32c0 7.22 5.82 16.9 7.6 19.65a55.85 55.85 0 0 0 6.23 8.17c2.57 2.64 4.57 3.89 6.39 3.89 1.81 0 3.82-1.25 6.39-3.9a57.44 57.44 0 0 0 6.23-8.12c1.78-2.8 7.56-12.47 7.56-19.7 0-5.36-2.15-9.6-6.24-12.27A25.51 25.51 0 0 0 24.03.37z" fill="url(#d)"/><path d="M24 .34c-5.82 0-10.5 1.14-13.94 3.33a13.87 13.87 0 0 0-6.28 12.28c0 7.22 5.82 16.9 7.6 19.65a55.85 55.85 0 0 0 6.24 8.17c2.57 2.64 4.57 3.9 6.38 3.9 1.82 0 3.82-1.26 6.39-3.9a55.85 55.85 0 0 0 6.24-8.17c1.77-2.75 7.56-12.43 7.56-19.65 0-5.37-2.16-9.64-6.24-12.28A25.51 25.51 0 0 0 24 .37zm0 .15c2.12.08 4.12.27 5.86.64a22 22 0 0 1 6.05 2.5 13.8 13.8 0 0 1 4.68 5.14c.53 1.02.95 2.12 1.21 3.33a17.42 17.42 0 0 1-.53 9.52 42.41 42.41 0 0 1-2.19 5.78 68 68 0 0 1-4.46 8.17 55.85 55.85 0 0 1-6.23 8.16 20.05 20.05 0 0 1-3.48 2.95 3.63 3.63 0 0 1-.9.38 3.63 3.63 0 0 1-.91-.38 18 18 0 0 1-3.48-2.95 54.46 54.46 0 0 1-6.24-8.16 69.54 69.54 0 0 1-4.46-8.17 40.6 40.6 0 0 1-2.19-5.78 17.39 17.39 0 0 1-.53-9.52 14.1 14.1 0 0 1 3.18-6.17 13.8 13.8 0 0 1 5.48-3.77 26.3 26.3 0 0 1 3.28-1.03C19.88.72 21.92.53 24 .45z" opacity=".2"/><path d="M27.22 46.43c.98-.63 2-1.47 3.16-2.67 2-2.08 4.22-4.97 6.25-8.16.89-1.4 2.79-4.5 4.46-8.17a45.89 45.89 0 0 0 1.78-4.68l-6.72-6.71-9.35-8.02-1.94-1.94-1.57 1.58-1.59-1.58-7.4 9.96 3.1 5.65-5.42 9.5z" opacity=".7" fill="url(#e)"/><path d="M21.7 6.08l-9.96 9.96 5.66 5.65-5.42 9.5h2.09l4.66-8.17 1.16 1.16v7.01h1.81zm1.34 0v25.11h1.82V6.08zm3.15 0v25.11H28v-7l1.16-1.17 4.66 8.17h2.1l-5.43-9.5 5.66-5.65zm-6.3 4.38v11.16l-5.58-5.58zm8.11 0l5.59 5.58L28 21.62z" fill="#fff"/><g transform="translate(.01 -.02)" fill="url(#f)" opacity=".6"><path d="M24.84 15.68V6.1h-1.81v9.58a11.58 14.38 0 0 1 .15-.02 11.58 14.38 0 0 1 .82-.04 11.58 14.38 0 0 1 .84.06z" fill="url(#g)"/><path d="M32.26 19.93l3.88-3.87-9.96-9.96v9.79a11.58 14.38 0 0 1 .12.02 11.58 14.38 0 0 1 1.12.36 11.58 14.38 0 0 1 .57.26v-6.05l5.58 5.58-2.54 2.54a11.58 14.38 0 0 1 .43.4 11.58 14.38 0 0 1 .8.93z" fill="url(#h)"/><path d="M21.69 6.1l-9.96 9.96L15.69 20a11.58 14.38 0 0 1 .24-.32 11.58 14.38 0 0 1 .87-.95 11.58 14.38 0 0 1 .1-.08l-2.6-2.6 5.58-5.58v6.1a11.58 14.38 0 0 1 1.02-.43 11.58 14.38 0 0 1 .79-.22z" fill="url(#i)"/></g></svg>