<svg xmlns="http://www.w3.org/2000/svg" xmlns:xlink="http://www.w3.org/1999/xlink" width="48" height="48" version="1"><defs><linearGradient id="g"><stop offset="0" stop-color="#2484e8"/><stop offset="1" stop-color="#80b3ff"/></linearGradient><linearGradient id="f"><stop offset="0" stop-color="#21de94"/><stop offset="1" stop-color="#80e5ff"/></linearGradient><linearGradient id="e"><stop offset="0" stop-color="#70cc21"/><stop offset="1" stop-color="#b3ff80"/></linearGradient><linearGradient id="d"><stop offset="0" stop-color="#e9c332"/><stop offset="1" stop-color="#ffe680"/></linearGradient><linearGradient id="c"><stop offset="0" stop-color="#f69422"/><stop offset="1" stop-color="#f95"/></linearGradient><linearGradient id="b"><stop offset="0" stop-color="#ed2c48"/><stop offset="1" stop-color="#ff8080"/></linearGradient><linearGradient id="a"><stop offset="0" stop-color="#040000"/><stop offset="1" stop-opacity="0"/></linearGradient><linearGradient xlink:href="#b" id="h" x1="16.91" y1="46.31" x2="19.25" y2="38.33" gradientUnits="userSpaceOnUse"/><linearGradient xlink:href="#c" id="i" x1="18.29" y1="40.24" x2="21.64" y2="32.17" gradientUnits="userSpaceOnUse"/><linearGradient xlink:href="#d" id="j" x1="13.94" y1="27.78" x2="20.85" y2="18.99" gradientUnits="userSpaceOnUse"/><linearGradient xlink:href="#e" id="k" x1="19.06" y1="17.52" x2="29.64" y2="10.16" gradientUnits="userSpaceOnUse"/><linearGradient xlink:href="#f" id="l" x1="31.01" y1="16.47" x2="43.26" y2="6.37" gradientUnits="userSpaceOnUse"/><linearGradient xlink:href="#g" id="m" x1="39.86" y1="11.62" x2="44.03" y2="10.45" gradientUnits="userSpaceOnUse"/><linearGradient id="n" x1="177.02" x2="190.87" y1="715.69" y2="745.97" gradientUnits="userSpaceOnUse" gradientTransform="matrix(.58556 .27957 -.28036 .58723 119.7 -459.36)"><stop stop-color="#e3e3e1" offset="0"/><stop stop-color="#7f8376" offset="1"/></linearGradient><clipPath id="o"><path d="M184.57 701.48a2.24 2.24 0 0 0-1.92.92s-3.33 4.79-4.03 11.19a26.88 26.88 0 0 0-10.77-5.08 2.24 2.24 0 0 0-2.56 2.56s1.04 5.75 5.08 10.77c-6.41.7-11.21 4.03-11.21 4.03a2.24 2.24 0 0 0 0 3.63s4.8 3.3 11.2 4a26.83 26.83 0 0 0-5.07 10.76 2.24 2.24 0 0 0 2.56 2.57s5.75-1.05 10.77-5.08a26.9 26.9 0 0 0 4.03 11.21 2.24 2.24 0 0 0 3.63 0s3.32-4.82 4-11.24a26.85 26.85 0 0 0 10.8 5.1 2.24 2.24 0 0 0 2.56-2.57s-1.07-5.74-5.1-10.75c6.4-.7 11.22-4 11.22-4a2.24 2.24 0 0 0 .01-3.63s-4.82-3.33-11.24-4.03c4.04-5.02 5.1-10.76 5.1-10.76a2.24 2.24 0 0 0-2.56-2.57s-5.76 1.05-10.79 5.1c-.68-6.4-4-11.2-4-11.2a2.24 2.24 0 0 0-1.7-.93z" color="#000" fill="#eeeeec" fill-rule="evenodd" enable-background="new"/></clipPath><filter id="p" color-interpolation-filters="sRGB"><feGaussianBlur stdDeviation=".26"/></filter><clipPath id="q"><path d="M471.43 685.93c0 22.1-12.84 40.01-12.84 40.01s-12.84-17.91-12.84-40.01c0-22.1 12.84-40.01 12.84-40.01s12.84 17.91 12.84 40.01z" color="#000" fill="#edd400" fill-rule="evenodd" enable-background="new"/></clipPath><filter id="r" x="-.25" y="-.08" width="1.49" height="1.16" color-interpolation-filters="sRGB"><feGaussianBlur stdDeviation="2.64"/></filter><clipPath id="s"><path d="M401.43 865.8c0 22.1-12.84 40.01-12.84 40.01s-12.84-17.91-12.84-40.01c0-22.1 12.84-40.01 12.84-40.01s12.84 17.91 12.84 40.01z" color="#000" fill="#3465a4" fill-rule="evenodd" enable-background="new"/></clipPath><filter id="t" x="-.25" y="-.08" width="1.49" height="1.16" color-interpolation-filters="sRGB"><feGaussianBlur stdDeviation="2.64"/></filter><clipPath id="u"><path d="M348.71 698.73c-22.06 0-39.95-12.86-39.95-12.86S326.65 673 348.7 673c22.06 0 39.95 12.86 39.95 12.86s-17.89 12.86-39.95 12.86z" color="#000" fill="#ef2929" fill-rule="evenodd" enable-background="new"/></clipPath><filter id="v" x="-.08" y="-.25" width="1.16" height="1.49" color-interpolation-filters="sRGB"><feGaussianBlur stdDeviation="2.64"/></filter><clipPath id="w"><path d="M299.47 763.2c-15.6 15.63-37.33 19.2-37.33 19.2s3.57-21.76 19.17-37.39c15.6-15.62 37.33-19.2 37.33-19.2s-3.57 21.77-19.17 37.39z" color="#000" fill="#75507b" fill-rule="evenodd" enable-background="new"/></clipPath><filter id="x" x="-.12" y="-.12" width="1.24" height="1.24" color-interpolation-filters="sRGB"><feGaussianBlur stdDeviation="2.83"/></filter><clipPath id="y"><path d="M538.47 738.73c-22.06 0-39.95-12.86-39.95-12.86S516.4 713 538.47 713c22.06 0 39.95 12.86 39.95 12.86s-17.89 12.86-39.95 12.86z" color="#000" fill="#65c808" fill-rule="evenodd" enable-background="new"/></clipPath><filter id="z" x="-.08" y="-.25" width="1.16" height="1.49" color-interpolation-filters="sRGB"><feGaussianBlur stdDeviation="2.64"/></filter><clipPath id="A"><path d="M515.87 706.72c-15.6 15.63-37.33 19.2-37.33 19.2s3.57-21.76 19.17-37.39c15.6-15.62 37.33-19.2 37.33-19.2s-3.57 21.76-19.17 37.39z" color="#000" fill="#afea2c" fill-rule="evenodd" enable-background="new"/></clipPath><filter id="B" x="-.12" y="-.12" width="1.24" height="1.24" color-interpolation-filters="sRGB"><feGaussianBlur stdDeviation="2.83"/></filter><clipPath id="C"><path d="M515.87 745.01c15.6 15.63 19.17 37.38 19.17 37.38s-21.73-3.57-37.33-19.2c-15.6-15.62-19.17-37.38-19.17-37.38s21.73 3.58 37.33 19.2z" color="#000" fill="#729fcf" fill-rule="evenodd" enable-background="new"/></clipPath><filter id="D" x="-.12" y="-.12" width="1.24" height="1.24" color-interpolation-filters="sRGB"><feGaussianBlur stdDeviation="2.83"/></filter><clipPath id="E"><path d="M269.47 688.53c15.6 15.63 19.17 37.38 19.17 37.38s-21.73-3.57-37.33-19.2c-15.6-15.63-19.17-37.38-19.17-37.38s21.73 3.58 37.33 19.2z" color="#000" fill="#f57900" fill-rule="evenodd" enable-background="new"/></clipPath><filter id="F" x="-.12" y="-.12" width="1.24" height="1.24" color-interpolation-filters="sRGB"><feGaussianBlur stdDeviation="2.83"/></filter></defs><path d="M24 .72C18.26.72 13.64 1.82 10.29 4 6.25 6.6 4.1 10.79 4.1 16.07c0 7.12 5.71 16.63 7.47 19.37a53.63 53.63 0 0 0 6.15 8.03c2.5 2.6 4.5 3.81 6.27 3.81 1.77 0 3.77-1.2 6.27-3.8a53.14 53.14 0 0 0 6.15-8.04c1.76-2.74 7.48-12.25 7.48-19.37 0-5.28-2.14-9.46-6.18-12.07C34.36 1.82 29.75.72 24 .72z" fill="#21d789"/><path d="M9.73 32.6c.54.92 1.32 2.5 1.65 3.02a54.47 54.47 0 0 0 3.12 4.47 54.47 54.47 0 0 0 3.13 3.69 17.94 17.94 0 0 0 3.46 2.93c1.05.63 2.01.94 2.91.94.9 0 1.86-.3 2.9-.94 1.06-.64 2.2-1.61 3.47-2.93 2-2.08 4.22-4.97 6.25-8.16.33-.52 1.11-2.1 1.65-3.03z" color="#000" fill="url(#h)"/><path d="M4.2 18.44c.17 1.08.21 2.13.53 3.24a43.14 43.14 0 0 0 2.2 5.77 68.87 68.87 0 0 0 4.45 8.17 54.47 54.47 0 0 0 2.03 2.91l17.4 4.67a53.93 53.93 0 0 0 5.8-7.58c.82-1.26 2.5-4.18 4.05-7.4z" color="#000" fill="url(#i)"/><path d="M10.27 3.58l-.2.1A12.9 12.9 0 0 0 5.4 8.8a14.1 14.1 0 0 0-1.2 3.34c-.26 1.2-.4 2.47-.4 3.8 0 1.72.37 3.58.89 5.44l29.7 17.15c.76-1.04 1.5-1.77 2.23-2.91.89-1.4 2.79-4.5 4.46-8.17.6-1.3 1.08-2.72 1.57-4.12z" color="#000" fill="url(#j)"/><path d="M29.2.9C27.54.66 25.94.35 24 .35a34 34 0 0 0-7.87.84 22 22 0 0 0-3.26 1.04c-1.02.41-1.95.9-2.8 1.45-.47.3-.82.7-1.24 1.04l28.5 29.6c.99-1.6 2.34-3.78 3.75-6.87.84-1.83 1.62-3.8 2.2-5.77.49-1.7.72-3.35.8-4.94z" color="#000" fill="url(#k)"/><path d="M39.77 29.86c.5-.95.82-1.33 1.31-2.4.84-1.84 1.62-3.81 2.2-5.78.57-1.96.93-3.92.93-5.73 0-1.34-.14-2.62-.4-3.8-.27-1.2-.67-2.32-1.2-3.35a12.93 12.93 0 0 0-1.96-2.84 13.85 13.85 0 0 0-2.71-2.28 17.19 17.19 0 0 0-2.8-1.45c-1.01-.42-2.1-.77-3.26-1.04A34 34 0 0 0 24 .35c-.2 0-.34.05-.54.06z" color="#000" fill="url(#l)"/><path d="M42.54 23.63c.23-.66.54-1.28.73-1.95.58-1.96.94-3.92.94-5.73 0-1.34-.14-2.62-.4-3.8-.27-1.2-.67-2.32-1.2-3.35a12.93 12.93 0 0 0-1.96-2.84 13.85 13.85 0 0 0-2.71-2.28c-.18-.12-.4-.2-.6-.3z" color="#000" fill="url(#m)"/><path d="M3.92 14.74c-.02.4-.12.78-.12 1.2 0 7.24 5.8 16.9 7.58 19.68a54.47 54.47 0 0 0 6.25 8.16c2.54 2.64 4.57 3.87 6.37 3.87 1.8 0 3.83-1.23 6.37-3.87 2-2.08 4.22-4.97 6.25-8.16 1.78-2.78 7.59-12.44 7.59-19.67 0-.43-.1-.8-.14-1.21-.08 1.59-.3 3.24-.8 4.94a43.17 43.17 0 0 1-2.19 5.77 69.67 69.67 0 0 1-4.46 8.17 54.47 54.47 0 0 1-6.25 8.16 18 18 0 0 1-3.46 2.93c-1.05.64-2 .94-2.9.94-.91 0-1.87-.3-2.92-.94a18 18 0 0 1-3.46-2.93c-2-2.08-4.21-4.97-6.25-8.16a69.4 69.4 0 0 1-4.46-8.17 43.04 43.04 0 0 1-2.19-5.77c-.5-1.7-.72-3.35-.8-4.94z" opacity=".5"/><g color="#000" fill-rule="evenodd"><path d="M31.11 4.17a1.45 1.46 25.52 0 0-1.38 0s-3.3 1.89-5.5 5.45a17.44 17.5 25.52 0 0-4.88-6 1.45 1.46 25.52 0 0-2.22.8s-1 3.66-.04 7.74c-3.95-1.38-7.7-.77-7.7-.77a1.45 1.46 25.52 0 0-1.01 2.13s1.88 3.28 5.44 5.48a17.48 17.48 0 0 0-5.99 4.9 1.45 1.46 25.52 0 0 .78 2.23s3.66.99 7.73.02c-1.39 3.96-.78 7.71-.78 7.71a1.45 1.46 25.52 0 0 2.12 1.02s3.3-1.9 5.5-5.48a17.42 17.47 25.52 0 0 4.89 6.01 1.45 1.46 25.52 0 0 2.22-.8s.98-3.66.03-7.73c3.94 1.38 7.69.79 7.69.79a1.45 1.46 25.52 0 0 1.02-2.13s-1.89-3.3-5.45-5.51c3.77-1.82 6-4.9 6-4.9a1.45 1.46 25.52 0 0-.78-2.22s-3.66-1-7.74-.02c1.4-3.95.8-7.7.8-7.7a1.45 1.46 25.52 0 0-.74-1.02z" fill="url(#n)" enable-background="new"/><path transform="matrix(.58556 .27957 -.28036 .58723 119.7 -459.36)" d="M184.57 701.48a2.24 2.24 0 0 0-1.92.92s-3.33 4.79-4.03 11.19a26.88 26.88 0 0 0-10.77-5.08 2.24 2.24 0 0 0-2.56 2.56s1.04 5.75 5.08 10.77c-6.41.7-11.21 4.03-11.21 4.03a2.24 2.24 0 0 0 0 3.63s4.8 3.3 11.2 4a26.83 26.83 0 0 0-5.07 10.76 2.24 2.24 0 0 0 2.56 2.57s5.75-1.05 10.77-5.08a26.9 26.9 0 0 0 4.03 11.21 2.24 2.24 0 0 0 3.63 0s3.32-4.82 4-11.24a26.85 26.85 0 0 0 10.8 5.1 2.24 2.24 0 0 0 2.56-2.57s-1.07-5.74-5.1-10.75c6.4-.7 11.22-4 11.22-4a2.24 2.24 0 0 0 .01-3.63s-4.82-3.33-11.24-4.03c4.04-5.02 5.1-10.76 5.1-10.76a2.24 2.24 0 0 0-2.56-2.57s-5.76 1.05-10.79 5.1c-.68-6.4-4-11.2-4-11.2a2.24 2.24 0 0 0-1.7-.93z" clip-path="url(#o)" opacity=".97" fill="#f9f9f9" filter="url(#p)" enable-background="new"/><path d="M29.32 13.58c-1.86 3.89-5.62 5.96-5.62 5.96s-.76-4.23 1.1-8.12c1.86-3.9 5.62-5.97 5.62-5.97s.76 4.24-1.1 8.13z" fill="#d5be00" enable-background="new"/><path transform="matrix(.17604 .08405 -.08406 .17607 3.99 -146.81)" d="M471.43 685.93c0 22.1-12.84 40.01-12.84 40.01s-12.84-17.91-12.84-40.01c0-22.1 12.84-40.01 12.84-40.01s12.84 17.91 12.84 40.01z" clip-path="url(#q)" fill="#edd400" filter="url(#r)" enable-background="new"/><path d="M22.6 27.64a14.94 14.94 0 0 1-5.62 5.96s-.75-4.23 1.1-8.12a14.94 14.94 0 0 1 5.63-5.96s.76 4.23-1.1 8.12z" fill="#23446e" enable-background="new"/><path d="M29.64 25.15c-3.88-1.86-5.95-5.63-5.95-5.63s4.23-.76 8.11 1.1a14.88 14.88 0 0 1 5.96 5.62s-4.23.76-8.12-1.1z" fill="#56aa07" enable-background="new"/><path d="M15.6 18.44c-3.88-1.85-5.95-5.62-5.95-5.62s4.23-.76 8.11 1.1a14.87 14.87 0 0 1 5.96 5.62s-4.23.76-8.12-1.1z" fill="#ca0f0f" enable-background="new"/><path d="M31.88 19.3c-4.06 1.43-8.19.23-8.19.23s2.46-3.53 6.52-4.97 8.18-.24 8.18-.24-2.45 3.53-6.51 4.97z" fill="#85b912" enable-background="new"/><path transform="matrix(.17604 .08405 -.08406 .17607 24.72 -158.53)" d="M401.43 865.8c0 22.1-12.84 40.01-12.84 40.01s-12.84-17.91-12.84-40.01c0-22.1 12.84-40.01 12.84-40.01s12.84 17.91 12.84 40.01z" clip-path="url(#s)" fill="#3465a4" filter="url(#t)" enable-background="new"/><path transform="matrix(.17604 .08405 -.08406 .17607 12.95 -133.89)" d="M348.71 698.73c-22.06 0-39.95-12.86-39.95-12.86S326.65 673 348.7 673c22.06 0 39.95 12.86 39.95 12.86s-17.89 12.86-39.95 12.86z" clip-path="url(#u)" fill="#ef2929" filter="url(#v)" enable-background="new"/><path d="M17.2 24.5c-4.06 1.44-8.19.24-8.19.24s2.46-3.53 6.52-4.97 8.19-.24 8.19-.24-2.46 3.53-6.52 4.97z" fill="#593d5e" enable-background="new"/><path d="M23.48 11.35c1.43 4.06.23 8.2.23 8.2s-3.53-2.46-4.96-6.53c-1.43-4.06-.23-8.19-.23-8.19s3.52 2.46 4.96 6.52z" fill="#c96300" enable-background="new"/><path transform="matrix(.17604 .08405 -.08406 .17607 28.63 -135.04)" d="M299.47 763.2c-15.6 15.63-37.33 19.2-37.33 19.2s3.57-21.76 19.17-37.39c15.6-15.62 37.33-19.2 37.33-19.2s-3.57 21.77-19.17 37.39z" clip-path="url(#w)" fill="#75507b" filter="url(#x)" enable-background="new"/><path d="M28.66 26.03c1.43 4.06.23 8.2.23 8.2s-3.53-2.46-4.96-6.52c-1.43-4.06-.23-8.2-.23-8.2s3.52 2.46 4.96 6.52z" fill="#3f7bba" enable-background="new"/><path transform="matrix(.17604 .08405 -.08406 .17607 -3.05 -150.17)" d="M538.47 738.73c-22.06 0-39.95-12.86-39.95-12.86S516.4 713 538.47 713c22.06 0 39.95 12.86 39.95 12.86s-17.89 12.86-39.95 12.86z" clip-path="url(#y)" fill="#65c808" filter="url(#z)" enable-background="new"/><path transform="matrix(.17604 .08405 -.08406 .17607 .47 -148.5)" d="M515.87 706.72c-15.6 15.63-37.33 19.2-37.33 19.2s3.57-21.76 19.17-37.39c15.6-15.62 37.33-19.2 37.33-19.2s-3.57 21.76-19.17 37.39z" clip-path="url(#A)" fill="#afea2c" filter="url(#B)" enable-background="new"/><path transform="matrix(.17604 .08405 -.08406 .17607 .47 -148.5)" d="M515.87 745.01c15.6 15.63 19.17 37.38 19.17 37.38s-21.73-3.57-37.33-19.2c-15.6-15.62-19.17-37.38-19.17-37.38s21.73 3.58 37.33 19.2z" clip-path="url(#C)" fill="#729fcf" filter="url(#D)" enable-background="new"/><path transform="matrix(.17604 .08405 -.08406 .17607 33.91 -132.52)" d="M269.47 688.53c15.6 15.63 19.17 37.38 19.17 37.38s-21.73-3.57-37.33-19.2c-15.6-15.63-19.17-37.38-19.17-37.38s21.73 3.58 37.33 19.2z" clip-path="url(#E)" fill="#f57900" filter="url(#F)" enable-background="new"/><ellipse ry="3.48" rx="3.47" transform="rotate(25.52)" cx="29.67" cy="7.37" opacity=".1" fill="#fff" enable-background="new"/><ellipse ry="7.49" rx="7.47" transform="rotate(25.52)" cx="29.67" cy="7.32" opacity=".1" fill="#fff" enable-background="new"/><path d="M28.42 9.32c-.58-.28-1.18-.5-1.79-.67a12.6 12.6 0 0 0-1.83 2.77c-.34.71-.6 1.44-.78 2.14a12.06 12.06 0 0 0-.55-2.21 12.6 12.6 0 0 0-1.55-2.98 11.25 11.25 0 0 0-3.84 1.33 12.63 12.63 0 0 0 .67 3.33 12.03 12.03 0 0 0 .96 2.06 12.06 12.06 0 0 0-1.95-1.18 12.6 12.6 0 0 0-3.23-1 11.32 11.32 0 0 0-1.02 1.71c-.3.64-.54 1.3-.72 1.95a12.57 12.57 0 0 0 2.81 1.87c.71.34 1.43.6 2.13.78a12.06 12.06 0 0 0-2.2.55 12.6 12.6 0 0 0-2.96 1.54 11.24 11.24 0 0 0 1.4 3.85 12.55 12.55 0 0 0 3.23-.67 12.07 12.07 0 0 0 2.06-.96 12.12 12.12 0 0 0-1.18 1.95 12.5 12.5 0 0 0-.98 3.08 11.18 11.18 0 0 0 3.77 1.74 12.53 12.53 0 0 0 1.73-2.66c.34-.71.6-1.44.79-2.15a12.06 12.06 0 0 0 .54 2.22 12.47 12.47 0 0 0 1.41 2.78 11.25 11.25 0 0 0 3.96-1.43 12.48 12.48 0 0 0-.64-3.03 12.09 12.09 0 0 0-.96-2.06 12.07 12.07 0 0 0 4.87 2.13 11.25 11.25 0 0 0 1.83-3.8 12.44 12.44 0 0 0-2.6-1.68c-.71-.35-1.43-.6-2.14-.78a12.05 12.05 0 0 0 2.22-.55c1.04-.37 1.97-.88 2.8-1.43a11.25 11.25 0 0 0-1.35-3.95 12.5 12.5 0 0 0-3.12.65 12.06 12.06 0 0 0-2.07.97 12.21 12.21 0 0 0 2.17-5.07 11.21 11.21 0 0 0-1.89-1.14z" opacity=".1" fill="#fff" enable-background="new"/></g></svg>