<svg xmlns="http://www.w3.org/2000/svg" xmlns:xlink="http://www.w3.org/1999/xlink" width="48" height="48" viewBox="0 0 12.7 12.7"><defs><linearGradient id="g"><stop offset="0" stop-color="#483745"/><stop offset="1" stop-color="#e3dbe2"/></linearGradient><linearGradient id="c"><stop offset="0"/><stop offset="1" stop-opacity="0"/></linearGradient><linearGradient id="a"><stop offset="0" stop-color="#37a8f3"/><stop offset="1" stop-color="#366c99"/></linearGradient><linearGradient id="b"><stop stop-color="#ffe253" offset="0"/><stop stop-color="#ffca1c" offset="1"/></linearGradient><linearGradient xlink:href="#c" id="i" gradientUnits="userSpaceOnUse" x1="3.17" y1="286.7" x2="12.87" y2="292.98"/><linearGradient xlink:href="#d" id="j" x1="13.36" y1="31.47" x2="20.32" y2="5.8" gradientUnits="userSpaceOnUse" gradientTransform="matrix(.20038 0 0 .20038 1.54 285.1)"/><linearGradient id="d"><stop offset="0" stop-color="#214478"/><stop offset="1" stop-color="#3771c8"/></linearGradient><linearGradient xlink:href="#e" id="k" x1="12.53" y1="3.44" x2="16.87" y2="21.31" gradientUnits="userSpaceOnUse" gradientTransform="matrix(.20038 0 0 .20038 1.54 285.1)"/><linearGradient id="e"><stop offset="0" stop-color="#fff"/><stop offset="1" stop-color="#fff" stop-opacity="0"/></linearGradient><radialGradient xlink:href="#e" id="l" cx="17.21" cy="6" fx="17.21" fy="6" r="1.79" gradientTransform="matrix(.20038 0 0 .20176 1.54 285.08)" gradientUnits="userSpaceOnUse"/><linearGradient xlink:href="#f" id="m" x1="28.11" y1="38.18" x2="34.65" y2="13.55" gradientUnits="userSpaceOnUse" gradientTransform="matrix(.20038 0 0 .20038 1.54 285.1)"/><linearGradient id="f"><stop offset="0" stop-color="#ffe253"/><stop offset="1" stop-color="#c8ab37"/></linearGradient><radialGradient xlink:href="#e" id="n" cx="17.21" cy="6" fx="17.21" fy="6" r="1.79" gradientTransform="matrix(-.20038 0 0 -.20176 11.17 294.1)" gradientUnits="userSpaceOnUse"/><radialGradient xlink:href="#g" id="h" cx="6.35" cy="290.65" fx="6.35" fy="290.65" r="5.35" gradientTransform="matrix(.99998 -.00687 .00893 1.30027 -2.6 -87.23)" gradientUnits="userSpaceOnUse"/></defs><path d="M6.35 284.4c-1.54 0-2.78.29-3.69.87A3.67 3.67 0 0 0 1 288.52c0 1.91 1.54 4.47 2.01 5.2.54.85 1.13 1.61 1.65 2.16.68.7 1.21 1.03 1.7 1.03.47 0 1-.33 1.68-1.03.52-.55 1.11-1.31 1.65-2.15.47-.74 2-3.3 2-5.21 0-1.42-.57-2.54-1.65-3.25a6.75 6.75 0 0 0-3.69-.88z" fill="url(#h)" transform="translate(0 -284.3)"/><path d="M1.04 3.9c0 .1-.04.2-.04.32 0 1.91 1.54 4.47 2.01 5.2.54.85 1.13 1.61 1.65 2.16.68.7 1.21 1.03 1.69 1.03s1.01-.33 1.69-1.03c.52-.55 1.11-1.31 1.65-2.15.47-.74 2-3.3 2-5.21 0-.11-.02-.21-.03-.32-.02.42-.08.86-.21 1.3-.15.53-.36 1.05-.58 1.53-.44.97-.95 1.8-1.18 2.17-.54.84-1.13 1.6-1.65 2.15-.34.35-.64.61-.92.78-.28.17-.53.25-.77.25s-.5-.08-.77-.25a4.76 4.76 0 0 1-.92-.78A14.41 14.41 0 0 1 3.01 8.9c-.23-.37-.74-1.2-1.18-2.17-.22-.48-.43-1-.58-1.52-.13-.45-.19-.89-.21-1.31z" opacity=".5"/><path d="M7.73 296.14c.1-.1.2-.14.3-.26.53-.55 1.12-1.31 1.66-2.15.23-.37.74-1.2 1.18-2.17.22-.48.43-1 .58-1.52.05-.17.04-.32.08-.49l-3.66-3.59-3.63 1.29 1.34.9-2.9 2.93z" opacity=".6" fill="url(#i)" transform="translate(0 -284.3)"/><path d="M8.47 8.33c0 .54-.57.82-1.06.96-.72.2-1.3.18-1.91 0-.5-.15-.97-.45-.97-.96V6.47c0-.62.46-1 .97-1h1.7c.65 0 1.29-.66 1.28-1.31V3.5h.85c.56 0 .82.41.96.96.19.76.2 1.33 0 1.93-.2.58-.4 1.03-.96 1.03H6.46h2z" fill="none"/><path d="M5.29 1.32c.72-.21 1.3-.18 1.91 0 .5.14.96.45.96.96v1.95c0 .28-.4.91-.96.91H5.42c-.5 0-1.2.55-1.2 1.2v.76h-.85c-.56 0-.82-.41-.96-.96-.19-.77-.2-1.34 0-1.93.2-.58.4-1.03.96-1.03H6.24h-2V2.2c0-.4.48-.72 1.05-.88z" fill="none"/><path d="M6.29 285.47c-.31 0-.64.04-1 .15-.57.17-1.06.48-1.05.88v.75h1.81v.22H4.24h.89-1.75c-.56 0-.77.46-.96 1.04-.2.6-.2 1.16 0 1.93.14.54.4.96.96.96h.84v-.76c0-.66.7-1.2 1.2-1.2H7.2c.56 0 .96-.63.96-.9v-1.96c0-.51-.45-.81-.96-.96-.3-.09-.6-.14-.91-.15z" fill="url(#j)" transform="translate(0 -284.3)"/><path d="M8.16 287.15v-.57a.78.78 0 0 0-.08-.34.9.9 0 0 0-.2-.28 1.73 1.73 0 0 0-.68-.34 3.37 3.37 0 0 0-1.91 0c-.28.08-.55.2-.74.35a.93.93 0 0 0-.23.25.52.52 0 0 0-.08.28v.75h1.81v.22H4.24h.89-1.75a.77.77 0 0 0-.36.09.78.78 0 0 0-.26.22c-.15.18-.25.44-.34.73-.1.3-.15.59-.15.9l.03.17c1.63-1.95 3.9-.73 5.86-2.43z" opacity=".34" fill="url(#k)" transform="translate(0 -284.3)"/><path d="M4.82 2.14a.36.36 0 1 1 .72 0 .36.36 0 0 1-.72 0z" fill="#333"/><path d="M4.82 286.44a.36.36 0 1 1 .72 0 .36.36 0 0 1-.72 0z" fill="url(#l)" transform="translate(0 -284.3)"/><path d="M6.41 293.73c.32 0 .64-.04 1-.14.57-.17 1.06-.48 1.05-.88v-.75h-1.8v-.23h1.8-.89 1.76c.55 0 .76-.46.96-1.03.2-.6.19-1.17 0-1.93-.14-.55-.4-.96-.96-.96h-.85v.76c0 .65-.7 1.2-1.2 1.2H5.5c-.56 0-.96.63-.96.9v1.95c0 .52.45.82.96.97.3.09.6.14.91.14z" fill="url(#m)" transform="translate(0 -284.3)"/><path d="M10.38 5.15c-.02-.22-.03-.43-.1-.68a1.63 1.63 0 0 0-.32-.69.8.8 0 0 0-.63-.27h-.84v.76c0 .16-.05.32-.12.46a1.5 1.5 0 0 1-.69.64 1 1 0 0 1-.4.1H5.5a.8.8 0 0 0-.39.1 1.3 1.3 0 0 0-.5.55.65.65 0 0 0-.07.25v1.19c1.63-1.94 3.89-.75 5.84-2.41z" opacity=".35" fill="#6c6753"/><path d="M7.9 8.44c0 .2-.17.36-.37.36a.36.36 0 0 1-.35-.36c0-.2.16-.36.35-.36.2 0 .36.16.36.36z" fill="#333"/><path d="M7.9 292.74c0 .2-.17.36-.37.36a.36.36 0 0 1-.35-.36c0-.2.16-.36.35-.36.2 0 .36.16.36.36z" fill="url(#n)" transform="translate(0 -284.3)"/></svg>