<?xml version="1.0" encoding="UTF-8" standalone="no"?><svg xmlns:dc="http://purl.org/dc/elements/1.1/" xmlns:cc="http://creativecommons.org/ns#" xmlns:rdf="http://www.w3.org/1999/02/22-rdf-syntax-ns#" xmlns="http://www.w3.org/2000/svg" xmlns:xlink="http://www.w3.org/1999/xlink" width="48" height="48"><metadata><rdf:RDF><cc:Work><dc:format>image/svg+xml</dc:format><dc:type rdf:resource="http://purl.org/dc/dcmitype/StillImage"/><dc:title/></cc:Work></rdf:RDF></metadata><defs><linearGradient id="c"><stop offset="0" stop-color="#d35f5f"/><stop offset="1" stop-color="#a02c2c"/></linearGradient><linearGradient xlink:href="#a" id="f" gradientUnits="userSpaceOnUse" gradientTransform="rotate(90 -48.34 1.73) scale(.5356)" x1="-80" y1="-131.93" x2="-45.1" y2="-131.93"/><linearGradient gradientTransform="rotate(90 -90 50)" y2="-384" x2="-23.52" y1="-384" x1="-84" gradientUnits="userSpaceOnUse" id="a"><stop offset="0" stop-color="#fff"/><stop offset="1" stop-color="#fff" stop-opacity="0"/></linearGradient><linearGradient id="d"><stop offset="0" stop-color="#501616" stop-opacity=".04"/><stop offset=".53" stop-color="#501616" stop-opacity=".27"/><stop offset=".78" stop-color="#501616"/><stop offset="1" stop-color="#501616" stop-opacity=".14"/></linearGradient><linearGradient xlink:href="#b" id="h" gradientUnits="userSpaceOnUse" x1="328.12" y1="120.81" x2="336.98" y2="87.76"/><linearGradient id="b"><stop offset="0" stop-color="red"/><stop offset="1" stop-color="#650000"/></linearGradient><clipPath id="g"><circle r="36" cx="344" cy="92" fill="url(#linearGradient5167)"/></clipPath><filter id="i" x="-.1" width="1.19" y="-.1" height="1.19" color-interpolation-filters="sRGB"><feGaussianBlur stdDeviation="2.88"/></filter><linearGradient xlink:href="#c" id="e" gradientUnits="userSpaceOnUse" gradientTransform="translate(-59.95 -.05)" x1="62" y1="24.05" x2="105.91" y2="24.05"/><radialGradient xlink:href="#d" id="j" cx="24.17" cy="24" fx="24.17" fy="24" r="15.37" gradientTransform="scale(1 1.0002)" gradientUnits="userSpaceOnUse"/><filter id="k" x="-.06" width="1.12" y="-.06" height="1.12" color-interpolation-filters="sRGB"><feGaussianBlur stdDeviation=".77"/></filter></defs><ellipse ry="22.05" rx="21.96" cy="24" cx="24" fill="url(#e)"/><path d="M24.09 7.22c-8.23 0-14.83 5.8-16.48 13.54 3.3 3.08 9.3 5.16 16.48 5.16 7.19 0 13.23-2.08 16.53-5.16A16.9 16.9 0 0 0 24.09 7.22z" opacity=".8" fill="url(#f)"/><circle r="36" cx="344" cy="92" transform="scale(-.61649 .61649) rotate(-15 -49.02 1519.77)" clip-path="url(#g)" opacity=".8" fill="none" stroke="url(#h)" stroke-width="17.73" filter="url(#i)"/><path d="M24.23 8.62A15.43 15.38 0 0 0 8.8 24a15.43 15.38 0 0 0 15.43 15.38 15.43 15.38 0 0 0 15.31-13.7H32.5a8.43 8.4 0 0 1-8.26 6.72A8.43 8.4 0 0 1 15.8 24a8.43 8.4 0 0 1 8.43-8.4 8.43 8.4 0 0 1 5.21 1.82l-2.08 2.09h8.98v-8.98l-1.94 1.93a15.43 15.38 0 0 0-10.17-3.84z" fill="url(#j)" filter="url(#k)"/><path d="M24.2 10.58A13.4 13.4 0 0 0 10.82 24a13.4 13.4 0 0 0 26.38 3.35h-3.5a10.06 10.06 0 1 1-9.47-13.42 10 10 0 0 1 7.08 2.98l.9-.9-2.64 2.65h5.74v-5.74l-1.6 1.6a13.33 13.33 0 0 0-9.48-3.94h-.01z" fill="#fff"/></svg>