<?xml version="1.0" encoding="UTF-8" standalone="no"?><svg xmlns:dc="http://purl.org/dc/elements/1.1/" xmlns:cc="http://creativecommons.org/ns#" xmlns:rdf="http://www.w3.org/1999/02/22-rdf-syntax-ns#" xmlns="http://www.w3.org/2000/svg" xmlns:xlink="http://www.w3.org/1999/xlink" width="48" height="48"><metadata><rdf:RDF><cc:Work><dc:format>image/svg+xml</dc:format><dc:type rdf:resource="http://purl.org/dc/dcmitype/StillImage"/><dc:title/></cc:Work></rdf:RDF></metadata><defs><linearGradient id="h"><stop offset="0" stop-color="#3737c8"/><stop offset=".42" stop-color="#5f8dd3"/><stop offset="1" stop-color="#acf"/></linearGradient><linearGradient id="g"><stop offset="0" stop-color="#87decd"/><stop offset="1" stop-color="#008066"/></linearGradient><linearGradient id="f"><stop offset="0" stop-color="#f2f2f2"/><stop offset="1" stop-color="gray"/></linearGradient><linearGradient id="b"><stop offset="0" stop-color="#333"/><stop stop-opacity="0" offset="1"/></linearGradient><linearGradient id="c"><stop offset="0" stop-color="#333"/><stop stop-opacity="0" offset="1"/></linearGradient><linearGradient id="d"><stop offset="0" stop-color="#00222b"/><stop stop-opacity="0" offset="1"/></linearGradient><linearGradient id="e"><stop offset="0" stop-color="#00222b"/><stop stop-opacity="0" offset="1"/></linearGradient><linearGradient id="a"><stop offset="0"/><stop offset="1" stop-opacity="0"/></linearGradient><linearGradient xlink:href="#a" id="j" gradientUnits="userSpaceOnUse" x1="10.46" y1="11.28" x2="38.68" y2="39.71"/><linearGradient xlink:href="#h" id="i" x1="9.15" y1="-1.86" x2="26.51" y2="51.4" gradientUnits="userSpaceOnUse"/></defs><path fill="url(#i)" d="M24 .35c-5.83 0-10.52 1.12-13.93 3.33-4.1 2.66-6.27 6.9-6.27 12.27 0 7.23 5.8 16.88 7.58 19.67a54.48 54.48 0 0 0 6.25 8.16c2.54 2.64 4.57 3.87 6.37 3.87 1.8 0 3.83-1.23 6.37-3.87 2-2.08 4.22-4.97 6.25-8.16 1.78-2.79 7.58-12.44 7.58-19.67 0-5.37-2.16-9.61-6.26-12.27C34.52 1.47 29.84.35 24 .35z"/><path fill="url(#j)" d="M32.08 41.55c1.52-1.8 3.06-3.61 4.54-5.93.89-1.4 2.78-4.5 4.46-8.17l.08-.22L30.4 16.46l-17.02-5.92 8.32 8.32-6.49 3.85 3.77 3.77-3.66-1.7z"/><path fill="#fff" d="M13.6 4.72l16.8 11.74-15.19 6.25 6.03-6.14-7.86-6.03z"/><path d="M30.5 18.54l-6.02 6.14 7.86 6.03-.22 5.82-16.8-11.74z" fill="#2ca089"/><path opacity=".2" d="M24 .35c-5.83 0-10.52 1.12-13.93 3.33-4.1 2.66-6.27 6.9-6.27 12.27 0 7.23 5.8 16.88 7.58 19.67a54.48 54.48 0 0 0 6.25 8.16c2.54 2.64 4.57 3.87 6.37 3.87 1.8 0 3.83-1.23 6.37-3.87 2-2.08 4.22-4.97 6.25-8.16 1.78-2.79 7.58-12.44 7.58-19.67 0-5.37-2.16-9.61-6.26-12.27C34.52 1.47 29.84.35 24 .35zm0 .14c2.11.09 4.12.27 5.88.7 1.16.27 2.25.62 3.26 1.03 1.01.42 1.94.9 2.8 1.46A12.92 12.92 0 0 1 40.6 8.8c.53 1.03.92 2.15 1.2 3.34.26 1.2.4 2.47.4 3.8 0 1.82-.37 3.77-.94 5.74a43.19 43.19 0 0 1-2.2 5.77 69.59 69.59 0 0 1-4.45 8.17 54.47 54.47 0 0 1-6.25 8.16 17.98 17.98 0 0 1-3.46 2.93c-.32.2-.62.3-.91.39-.3-.08-.6-.2-.9-.4-1.06-.63-2.2-1.6-3.47-2.92-2-2.08-4.22-4.97-6.25-8.16a69.6 69.6 0 0 1-4.46-8.17 43.19 43.19 0 0 1-2.19-5.77 20.93 20.93 0 0 1-.93-5.73c0-1.34.13-2.61.4-3.8.27-1.2.67-2.32 1.2-3.35a12.92 12.92 0 0 1 4.67-5.12 17.1 17.1 0 0 1 2.8-1.46c1-.41 2.1-.76 3.26-1.04C19.88.76 21.89.58 24 .5z"/></svg>