<?xml version="1.0" encoding="UTF-8" standalone="no"?>
<svg
   xmlns:dc="http://purl.org/dc/elements/1.1/"
   xmlns:cc="http://creativecommons.org/ns#"
   xmlns:rdf="http://www.w3.org/1999/02/22-rdf-syntax-ns#"
   xmlns:svg="http://www.w3.org/2000/svg"
   xmlns="http://www.w3.org/2000/svg"
   xmlns:xlink="http://www.w3.org/1999/xlink"
   xmlns:sodipodi="http://sodipodi.sourceforge.net/DTD/sodipodi-0.dtd"
   xmlns:inkscape="http://www.inkscape.org/namespaces/inkscape"
   viewBox="0 0 48 48"
   version="1.1"
   id="svg46"
   sodipodi:docname="ring.svg"
   inkscape:version="0.92.4 (5da689c313, 2019-01-14)">
  <sodipodi:namedview
     pagecolor="#ffffff"
     bordercolor="#666666"
     borderopacity="1"
     objecttolerance="10"
     gridtolerance="10"
     guidetolerance="10"
     inkscape:pageopacity="0"
     inkscape:pageshadow="2"
     inkscape:window-width="1112"
     inkscape:window-height="480"
     id="namedview48"
     showgrid="false"
     inkscape:zoom="4.9166667"
     inkscape:cx="2.1355932"
     inkscape:cy="24"
     inkscape:window-x="0"
     inkscape:window-y="25"
     inkscape:window-maximized="0"
     inkscape:current-layer="svg46" />
  <metadata
     id="metadata2">
    <rdf:RDF>
      <cc:Work>
        <dc:format>image/svg+xml</dc:format>
        <dc:type
           rdf:resource="http://purl.org/dc/dcmitype/StillImage" />
        <dc:title></dc:title>
      </cc:Work>
    </rdf:RDF>
  </metadata>
  <defs
     id="defs34">
    <linearGradient
       id="d">
      <stop
         offset="0"
         stop-color="#006680"
         id="stop4" />
      <stop
         offset="1"
         stop-color="#1c2422"
         stop-opacity="0"
         id="stop6" />
    </linearGradient>
    <linearGradient
       id="c">
      <stop
         offset="0"
         stop-color="#d7e3f4"
         id="stop9" />
      <stop
         offset=".54"
         stop-color="#87aade"
         stop-opacity=".99"
         id="stop11" />
      <stop
         offset="1"
         stop-color="#d7e3f4"
         id="stop13" />
    </linearGradient>
    <linearGradient
       id="b">
      <stop
         offset="0"
         stop-color="#0e6dfa"
         id="stop16" />
      <stop
         offset=".49"
         stop-color="#025"
         id="stop18" />
      <stop
         offset="1"
         stop-color="#126ef8"
         id="stop20" />
    </linearGradient>
    <linearGradient
       id="a">
      <stop
         offset="0"
         stop-color="#87aade"
         id="stop23" />
      <stop
         offset=".53"
         stop-color="#06f"
         stop-opacity=".99"
         id="stop25" />
      <stop
         offset="1"
         stop-color="#87aade"
         id="stop27" />
    </linearGradient>
    <linearGradient
       xlink:href="#a"
       id="g"
       x1="6.37"
       y1="26.9"
       x2="38.35"
       y2="4.42"
       gradientUnits="userSpaceOnUse" />
    <linearGradient
       xlink:href="#b"
       id="f"
       x1="9.51"
       y1="4.06"
       x2="41.25"
       y2="26.38"
       gradientUnits="userSpaceOnUse" />
    <linearGradient
       xlink:href="#c"
       id="h"
       gradientUnits="userSpaceOnUse"
       x1="18.28"
       y1="44.73"
       x2="18.28"
       y2=".78" />
    <radialGradient
       xlink:href="#d"
       id="e"
       cx="23.7"
       cy="24.14"
       fx="23.7"
       fy="24.14"
       r="20.2"
       gradientTransform="matrix(1.20658,0,0,1.61534,-4.9,-14.86)"
       gradientUnits="userSpaceOnUse" />
  </defs>
  <path
     d="M 23.71,0.5 C 17.88,0.5 13.2,1.6 9.78,3.82 5.68,6.48 3.5,10.73 3.5,16.1 c 0,7.22 5.8,16.88 7.58,19.67 a 54.47,54.47 0 0 0 6.25,8.16 c 2.54,2.64 4.57,3.87 6.37,3.87 1.8,0 3.83,-1.23 6.37,-3.87 2,-2.08 4.22,-4.98 6.25,-8.16 C 38.1,32.98 43.91,23.32 43.91,16.1 43.91,10.73 41.74,6.48 37.64,3.83 34.23,1.6 29.55,0.49 23.7,0.49 Z"
     id="path36"
     style="fill:url(#e)"
     inkscape:connector-curvature="0" />
  <path
     d="M 9.5,4.06 A 12.95,12.95 0 0 0 5.1,8.94 14.1,14.1 0 0 0 3.91,12.29 C 3.8,12.82 3.81,13.42 3.73,13.98 L 35.77,36.5 c 0.18,-0.28 0.38,-0.44 0.56,-0.73 0.89,-1.4 2.79,-4.5 4.46,-8.17 0.18,-0.39 0.3,-0.82 0.46,-1.22 z"
     id="path38"
     style="fill:url(#f)"
     inkscape:connector-curvature="0" />
  <path
     d="m 6.37,26.9 c 0.1,0.23 0.16,0.48 0.26,0.7 a 69.63,69.63 0 0 0 4.46,8.17 54.47,54.47 0 0 0 0.84,1.2 L 43.76,14.6 C 43.7,13.82 43.68,13.02 43.52,12.3 43.25,11.1 42.85,9.99 42.32,8.96 A 12.9,12.9 0 0 0 40.36,6.12 C 39.78,5.48 39.06,4.96 38.35,4.42 Z"
     id="path40"
     style="fill:url(#g)"
     inkscape:connector-curvature="0" />
  <path
     d="M 29.72,0.94 A 34.83,34.83 0 0 0 23.7,0.49 l 0.01,0.01 c -2.01,0 -3.7,0.15 -5.43,0.41 v 43.82 c 0.87,0.82 1.75,1.66 2.51,2.13 1.05,0.63 2,0.94 2.9,0.94 0.9,0 1.87,-0.3 2.92,-0.94 0.94,-0.58 1.99,-1.51 3.1,-2.63 z"
     id="path42"
     style="fill:url(#h)"
     inkscape:connector-curvature="0" />
  <path
     d="m 3.64,14.88 c -0.03,0.42 -0.13,0.79 -0.13,1.22 0,7.22 5.8,16.88 7.58,19.67 a 54.47,54.47 0 0 0 6.25,8.16 c 2.54,2.64 4.57,3.87 6.37,3.87 1.8,0 3.83,-1.23 6.37,-3.87 2,-2.08 4.22,-4.98 6.25,-8.16 1.78,-2.79 7.59,-12.45 7.59,-19.67 0,-0.43 -0.1,-0.8 -0.13,-1.22 a 21.6,21.6 0 0 1 -0.81,4.95 43.18,43.18 0 0 1 -2.19,5.77 69.59,69.59 0 0 1 -4.46,8.17 54.46,54.46 0 0 1 -6.25,8.16 18.08,18.08 0 0 1 -3.46,2.93 c -1.05,0.64 -2,0.94 -2.9,0.94 -0.91,0 -1.87,-0.3 -2.92,-0.94 a 18.08,18.08 0 0 1 -3.46,-2.93 c -2,-2.08 -4.21,-4.98 -6.25,-8.16 A 69.6,69.6 0 0 1 6.63,25.6 43.2,43.2 0 0 1 4.44,19.83 21.6,21.6 0 0 1 3.64,14.88 Z"
     id="path44"
     inkscape:connector-curvature="0"
     style="opacity:0.4" />
</svg>
