<?xml version="1.0" encoding="UTF-8" standalone="no"?>
<svg
   xmlns:dc="http://purl.org/dc/elements/1.1/"
   xmlns:cc="http://creativecommons.org/ns#"
   xmlns:rdf="http://www.w3.org/1999/02/22-rdf-syntax-ns#"
   xmlns:svg="http://www.w3.org/2000/svg"
   xmlns="http://www.w3.org/2000/svg"
   xmlns:xlink="http://www.w3.org/1999/xlink"
   xmlns:sodipodi="http://sodipodi.sourceforge.net/DTD/sodipodi-0.dtd"
   xmlns:inkscape="http://www.inkscape.org/namespaces/inkscape"
   width="48"
   height="48"
   version="1.1"
   id="svg161"
   sodipodi:docname="softwarecenter.svg"
   inkscape:version="0.92.4 (5da689c313, 2019-01-14)">
  <sodipodi:namedview
     pagecolor="#ffffff"
     bordercolor="#666666"
     borderopacity="1"
     objecttolerance="10"
     gridtolerance="10"
     guidetolerance="10"
     inkscape:pageopacity="0"
     inkscape:pageshadow="2"
     inkscape:window-width="1112"
     inkscape:window-height="480"
     id="namedview163"
     showgrid="false"
     inkscape:zoom="4.9166667"
     inkscape:cx="2.1355932"
     inkscape:cy="24"
     inkscape:window-x="0"
     inkscape:window-y="25"
     inkscape:window-maximized="0"
     inkscape:current-layer="svg161" />
  <metadata
     id="metadata2">
    <rdf:RDF>
      <cc:Work>
        <dc:format>image/svg+xml</dc:format>
        <dc:type
           rdf:resource="http://purl.org/dc/dcmitype/StillImage" />
        <dc:title></dc:title>
      </cc:Work>
    </rdf:RDF>
  </metadata>
  <defs
     id="defs75">
    <linearGradient
       id="k">
      <stop
         offset="0"
         stop-color="#162d50"
         id="stop4" />
      <stop
         offset="1"
         stop-color="#5f8dd3"
         id="stop6" />
    </linearGradient>
    <linearGradient
       id="j">
      <stop
         offset="0"
         stop-color="#999"
         id="stop9" />
      <stop
         offset=".48"
         stop-color="#e6e6e6"
         id="stop11" />
      <stop
         offset="1"
         stop-color="#999"
         id="stop13" />
    </linearGradient>
    <linearGradient
       id="c">
      <stop
         offset="0"
         stop-color="#fff"
         id="stop16" />
      <stop
         offset="1"
         stop-color="#ccc"
         id="stop18" />
    </linearGradient>
    <linearGradient
       id="d">
      <stop
         offset="0"
         stop-color="#1a1a1a"
         id="stop21" />
      <stop
         offset="1"
         stop-color="#1a1a1a"
         stop-opacity=".01"
         id="stop23" />
    </linearGradient>
    <linearGradient
       id="e">
      <stop
         offset="0"
         stop-color="#4d4d4d"
         id="stop26" />
      <stop
         offset="1"
         stop-color="#4d4d4d"
         stop-opacity="0"
         id="stop28" />
    </linearGradient>
    <linearGradient
       id="g">
      <stop
         offset="0"
         stop-opacity=".56"
         id="stop31" />
      <stop
         offset="1"
         stop-opacity="0"
         id="stop33" />
    </linearGradient>
    <radialGradient
       r="44.46"
       fy="98.81"
       fx="527.96"
       cy="98.81"
       cx="527.96"
       gradientTransform="matrix(0.04972,-0.0019,0.00523,0.13713,-11.35,-3.85)"
       gradientUnits="userSpaceOnUse"
       id="y"
       xlink:href="#a" />
    <linearGradient
       id="a">
      <stop
         offset="0"
         stop-color="#ffff91"
         id="stop37" />
      <stop
         offset="1"
         stop-color="#ffff91"
         stop-opacity="0"
         id="stop39" />
    </linearGradient>
    <radialGradient
       r="29.56"
       fy="114.74"
       fx="522.99"
       cy="114.74"
       cx="522.99"
       gradientTransform="matrix(0.05054,-0.00193,0.00514,0.1349,-11.35,-3.85)"
       gradientUnits="userSpaceOnUse"
       id="x"
       xlink:href="#b" />
    <linearGradient
       id="b">
      <stop
         offset="0"
         stop-color="#ffd069"
         id="stop43" />
      <stop
         offset="1"
         stop-color="#ffd069"
         stop-opacity="0"
         id="stop45" />
    </linearGradient>
    <radialGradient
       xlink:href="#c"
       id="s"
       cx="15.76"
       cy="10.5"
       fx="15.76"
       fy="10.5"
       r="1.76"
       gradientTransform="matrix(5.15113,0,0,7.45054,-52.18,-65.77)"
       gradientUnits="userSpaceOnUse" />
    <linearGradient
       xlink:href="#d"
       id="t"
       x1="271.26"
       y1="311.64"
       x2="246.49"
       y2="364.01"
       gradientUnits="userSpaceOnUse"
       gradientTransform="matrix(0.06434,0,0,0.06434,7.37,3.05)" />
    <linearGradient
       xlink:href="#d"
       id="u"
       gradientUnits="userSpaceOnUse"
       x1="143.18"
       y1="249.64"
       x2="109.65"
       y2="134.6"
       gradientTransform="matrix(0.06434,0,0,0.06434,12.52,3.05)" />
    <linearGradient
       xlink:href="#e"
       id="v"
       gradientUnits="userSpaceOnUse"
       x1="378.89"
       y1="219.11"
       x2="414.58"
       y2="129.99"
       gradientTransform="matrix(0.06434,0,0,0.06434,12.52,3.05)" />
    <linearGradient
       gradientTransform="matrix(-0.06434,0,0,0.06434,50.58,3.05)"
       xlink:href="#d"
       id="w"
       x1="271.26"
       y1="311.64"
       x2="246.49"
       y2="364.01"
       gradientUnits="userSpaceOnUse" />
    <radialGradient
       r="35.27"
       fy="888.84"
       fx="182.69"
       cy="888.84"
       cx="181.95"
       gradientTransform="matrix(0.231,0,0,0.05662,-13.02,-18.26)"
       gradientUnits="userSpaceOnUse"
       id="r"
       xlink:href="#f" />
    <linearGradient
       id="f">
      <stop
         offset="0"
         id="stop54" />
      <stop
         offset="1"
         stop-opacity="0"
         id="stop56" />
    </linearGradient>
    <radialGradient
       r="11.33"
       fy="618.38"
       fx="158.47"
       cy="618.38"
       cx="158.47"
       gradientTransform="matrix(0.17679,-0.00674,0.00147,0.03856,-13.71,-7.4)"
       gradientUnits="userSpaceOnUse"
       id="q"
       xlink:href="#g" />
    <radialGradient
       xlink:href="#h"
       id="p"
       cx="-8.81"
       cy="8.42"
       fx="-8.81"
       fy="8.42"
       r="4.34"
       gradientTransform="matrix(0.88195,-0.03085,0.03749,0.90293,22.67,7.75)"
       gradientUnits="userSpaceOnUse" />
    <linearGradient
       id="h">
      <stop
         offset="0"
         stop-color="#333"
         id="stop61" />
      <stop
         offset="1"
         stop-color="#ccc"
         id="stop63" />
    </linearGradient>
    <linearGradient
       xlink:href="#i"
       id="o"
       x1="-8.94"
       y1="10.29"
       x2="-9.09"
       y2="27.57"
       gradientUnits="userSpaceOnUse"
       gradientTransform="matrix(0.88195123,-0.03357284,0.03357284,0.88195123,22.701605,7.6044347)" />
    <linearGradient
       id="i">
      <stop
         offset="0"
         stop-color="#999"
         id="stop67" />
      <stop
         offset="1"
         stop-color="#999"
         stop-opacity="0"
         id="stop69" />
    </linearGradient>
    <linearGradient
       xlink:href="#j"
       id="n"
       x1="-12.57"
       y1="18.57"
       x2="-5.17"
       y2="18.57"
       gradientUnits="userSpaceOnUse"
       gradientTransform="matrix(0.88195123,-0.03357284,0.03357284,0.88195123,22.701605,7.6044347)" />
    <radialGradient
       r="35.27"
       fy="888.84"
       fx="182.69"
       cy="888.84"
       cx="181.95"
       gradientTransform="matrix(0.1396,0,0,0.05154,-9.52,-13.65)"
       gradientUnits="userSpaceOnUse"
       id="m"
       xlink:href="#f" />
    <radialGradient
       xlink:href="#k"
       id="l"
       cx="23.97"
       cy="23.95"
       fx="23.97"
       fy="23.95"
       r="20.21"
       gradientTransform="matrix(0.00963,1.26255,-1.0219,0.0078,48.21,-6.5)"
       gradientUnits="userSpaceOnUse" />
  </defs>
  <path
     d="m 24,0.34 c -5.82,0 -10.5,1.1 -13.95,3.29 A 13.87,13.87 0 0 0 3.78,15.9 c 0,7.22 5.82,16.9 7.6,19.66 a 55.85,55.85 0 0 0 6.23,8.16 c 2.57,2.64 4.58,3.9 6.39,3.9 1.81,0 3.82,-1.26 6.39,-3.9 a 57.44,57.44 0 0 0 6.23,-8.13 c 1.78,-2.8 7.56,-12.47 7.56,-19.69 0,-5.37 -2.15,-9.6 -6.23,-12.28 A 25.51,25.51 0 0 0 24,0.3 Z"
     id="path77"
     style="fill:url(#l)"
     inkscape:connector-curvature="0" />
  <path
     d="M 28.4,0.97 C 26.94,0.79 25.62,0.5 24,0.5 22.32,0.5 20.95,0.8 19.46,0.98 L 24,25.35 23.99,25.37 15.14,1.65 C 14.36,1.87 13.56,2.09 12.86,2.38 12.18,2.65 11.6,3.01 11,3.34 L 24,25.38 7.46,6.03 C 7.43,6.07 7.38,6.09 7.36,6.13 A 12.6,12.6 0 0 0 5.39,8.96 14.07,14.07 0 0 0 4.19,12.3 C 4.04,13 4.02,13.78 3.96,14.53 L 23.99,25.4 v 0.01 L 4.39,19.67 c 0.14,0.73 0.13,1.42 0.34,2.16 0.36,1.23 0.89,2.4 1.37,3.6 h 35.8 c 0.48,-1.2 1.01,-2.37 1.37,-3.6 0.21,-0.74 0.2,-1.43 0.35,-2.16 l -19.6,5.74 V 25.4 L 44.03,14.52 C 43.97,13.77 43.95,12.99 43.8,12.29 A 14.1,14.1 0 0 0 42.6,8.95 12.9,12.9 0 0 0 40.65,6.11 L 40.54,6.01 24.04,25.36 V 25.32 L 36.99,3.34 C 36.39,3 35.81,2.65 35.14,2.38 34.44,2.08 33.64,1.87 32.85,1.65 L 24.06,25.2 Z M 24,25.37 v 0.01 z m -0.01,0.01 v 0.01 z m 0.02,0.02 v 0.01 z m -0.03,0 v 0.01 z m 0.02,0 v 0.01 z m -0.01,0.01 z"
     id="path79"
     inkscape:connector-curvature="0"
     style="opacity:0.3;fill:#dbe3db" />
  <ellipse
     ry="1.8200001"
     rx="4.9200001"
     cy="32.16"
     cx="15.85"
     id="ellipse81"
     style="fill:url(#m)" />
  <path
     d="M 12.82,31.63 C 12.81,31.22 12.74,28.71 12.7,27.81 L 12.61,25.41 12.51,23 c -0.01,-0.6 -0.37,-1.46 -0.4,-2.23 -0.03,-0.86 0.27,-1.37 0.24,-2.26 -0.03,-0.76 -0.04,-1.72 0.07,-2.25 0.08,-0.35 1.91,-0.23 2.24,-0.25 1.08,-0.04 2.06,-0.2 3.03,-0.43 1.49,-0.36 0.36,0.84 0.38,1.43 0.03,0.79 -0.1,1.72 -0.06,2.57 0.03,0.9 0.07,1.74 -0.07,2.57 -0.12,0.8 0.07,1.76 0.1,2.57 l 0.1,2.4 c 0.03,0.93 -0.1,1.66 -0.07,2.57 0.04,0.92 1.28,1.73 1.25,2.42 -0.02,0.53 -2.35,0.21 -2.66,0.3 -1.03,0.3 -1.51,0.19 -2.17,-0.11 -0.79,-0.36 -2.17,0.96 -2.27,-0.02 z"
     id="path83"
     style="fill:url(#n);fill-rule:evenodd"
     inkscape:connector-curvature="0" />
  <path
     d="M 12.82,31.63 C 12.81,31.22 12.74,28.71 12.7,27.81 L 12.61,25.41 12.51,23 c -0.01,-0.6 -0.37,-1.46 -0.4,-2.23 -0.03,-0.86 0.27,-1.37 0.24,-2.26 -0.03,-0.76 -0.04,-1.72 0.07,-2.25 0.08,-0.35 1.91,-0.23 2.24,-0.25 1.08,-0.04 2.06,-0.2 3.03,-0.43 1.49,-0.36 0.36,0.84 0.38,1.43 0.03,0.79 -0.1,1.72 -0.06,2.57 0.03,0.9 0.07,1.74 -0.07,2.57 -0.12,0.8 0.07,1.76 0.1,2.57 l 0.1,2.4 c 0.03,0.93 -0.1,1.66 -0.07,2.57 0.04,0.92 1.28,1.73 1.25,2.42 -0.02,0.53 -2.35,0.21 -2.66,0.3 -1.03,0.3 -1.51,0.19 -2.17,-0.11 -0.79,-0.36 -2.17,0.96 -2.27,-0.02 z"
     id="path85"
     style="fill:url(#o);fill-rule:evenodd"
     inkscape:connector-curvature="0" />
  <path
     d="m 18.97,15.4 a 3.7,3.7 0 0 0 -0.85,-0.28 c -0.3,-0.04 -0.59,-0.14 -0.88,-0.2 -0.3,-0.05 -0.68,-0.08 -1,-0.07 -0.31,0 -0.7,0 -1,-0.05 -0.25,-0.04 -0.58,0.02 -0.84,0.03 -0.26,0 -0.65,0.03 -0.86,0.08 -0.3,0.08 -0.59,0.24 -0.9,0.32 -0.2,0.06 -0.42,0.25 -0.57,0.4 -0.25,0.25 -0.18,0.56 -0.33,0.86 -0.09,0.17 -0.07,0.58 -0.06,0.77 0,0.26 0.04,0.53 0,0.77 -0.04,0.23 -0.01,0.52 0,0.74 0,0.32 0,0.6 -0.06,0.9 -0.04,0.2 0.03,0.53 0.1,0.73 0.12,0.4 0.23,0.73 0.16,1.17 -0.03,0.22 -0.05,0.49 0.06,0.68 0.11,0.18 0.1,0.26 0.24,0.42 0.11,0.13 0.38,0.01 0.43,-0.02 0.24,-0.11 0.24,-0.28 0.3,-0.52 0.07,-0.35 0.43,-0.44 0.5,-0.7 0.04,-0.2 -0.03,-0.49 -0.04,-0.69 L 13.34,19.8 13.33,19.6 c -0.01,-0.22 0.07,-0.4 0.16,-0.57 0.1,-0.2 0.24,-0.24 0.46,-0.25 0.17,0 0.14,0.39 0.17,0.5 0.06,0.23 0.27,0.3 0.45,0.34 0.47,0.09 0.38,-0.5 0.53,-0.7 0.22,-0.29 0.49,-0.31 0.8,-0.18 0.25,0.1 0.23,0.67 0.29,0.85 0.09,0.27 -0.05,0.6 -0.09,0.86 0,0.05 -0.02,0.1 -0.03,0.14 a 2,2 0 0 0 0.1,0.77 c 0.07,0.26 0.54,0.24 0.72,0.23 0.38,-0.01 0.62,-0.36 0.66,-0.65 0.03,-0.25 -0.04,-0.51 0,-0.74 0.05,-0.3 -0.05,-0.57 0.06,-0.86 0.09,-0.23 0.25,-0.15 0.31,0.04 0.06,0.2 0.04,0.24 0.26,0.28 0.24,0.05 0.32,-0.17 0.43,-0.3 0.08,-0.12 0,-0.48 0,-0.63 -0.01,-0.33 0.14,-0.63 0.21,-0.95 0,-0.04 0.02,-0.07 0.03,-0.11 0.05,-0.23 0.12,-0.42 0.16,-0.64 0.03,-0.2 0.07,-0.39 0.06,-0.6 0,-0.14 0.05,-0.3 0.05,-0.46 0,-0.15 -0.05,-0.29 -0.08,-0.4 l -0.03,-0.02 c -0.04,-0.03 -0.03,-0.1 -0.04,-0.14 z"
     id="path87"
     style="fill:url(#p);fill-rule:evenodd"
     inkscape:connector-curvature="0" />
  <path
     d="m 15.22,15.23 c -0.09,-0.07 -0.13,-0.53 -0.19,-0.74 -0.1,-0.37 0.04,-0.63 0.25,-0.9 0.02,-0.04 0.06,-0.07 0.09,-0.1 0.1,-0.12 0.19,-0.33 0.26,-0.48 0.09,-0.2 0.17,-0.37 0.16,-0.63 0,-0.24 -0.06,-0.4 -0.12,-0.62 -0.05,-0.2 -0.1,-0.36 -0.08,-0.5"
     id="path89"
     inkscape:connector-curvature="0"
     style="fill:none;stroke:#000000;stroke-width:0.60000002;stroke-linecap:round" />
  <path
     d="m 15.97,14.94 h -0.84 c -0.1,0.01 -0.24,0.12 -0.3,0.15 -0.22,0.08 -0.54,-0.03 -0.76,-0.02 -0.27,0.01 -0.52,0.04 -0.78,0.14 -0.19,0.07 -0.03,0.32 0.07,0.39 0.32,0.22 0.56,0.27 0.93,0.26 0.47,-0.02 0.95,-0.03 1.41,-0.12 0.34,-0.06 0.66,-0.13 1,-0.06 0.21,0.05 0.47,0.02 0.52,-0.19 0.05,-0.23 -0.38,-0.34 -0.52,-0.4 -0.2,-0.06 -0.39,0 -0.57,-0.12 -0.04,-0.03 -0.1,-0.02 -0.16,-0.03 z"
     id="path91"
     style="fill:url(#q);fill-rule:evenodd"
     inkscape:connector-curvature="0" />
  <ellipse
     ry="2"
     rx="8.1499996"
     cy="32.07"
     cx="28.959999"
     id="ellipse93"
     style="fill:url(#r)" />
  <path
     d="m 29.1,32.62 h 0.93 c 1.44,-0.3 4.64,-2.68 5,-3.3 0.3,-0.62 0.67,-4.74 0.67,-4.74 0,0 0.15,-0.4 0.92,-1.44 0.62,-0.41 1.03,-1.18 1.19,-1.44 0.15,-0.26 -0.05,-1.13 -0.31,-1.8 0.93,-4.23 0.41,-6.44 0.41,-6.44 C 36.52,6.35 29.36,6.5 29.36,6.5 h -0.77 c 0,0 -7.21,-0.15 -8.5,6.96 0,0 -0.52,2.21 0.41,6.44 -0.26,0.67 -0.51,1.54 -0.36,1.8 0.2,0.26 0.62,1.03 1.19,1.44 0.77,1.03 0.92,1.44 0.92,1.44 0,0 0.36,4.12 0.72,4.74 0.31,0.62 3.56,3 5,3.3 z"
     id="path95"
     style="fill:url(#s)"
     inkscape:connector-curvature="0" />
  <path
     d="m 20.35,21.96 -0.2,-0.26 v -0.72 a 2.06,2.06 0 0 0 0.25,0.62 1.7,1.7 0 0 0 0.51,0.51 c 0.1,0.16 0.26,0.26 0.47,0.36 l 0.56,0.26 1.19,0.51 0.51,0.26 a 2.47,2.47 0 0 1 0.62,0.52 1.18,1.18 0 0 1 0.2,0.41 v 0.26 a 4.43,4.43 0 0 0 0.11,0.98 l 0.16,0.72 a 2.06,2.06 0 0 1 0.05,0.25 0.52,0.52 0 0 1 0,0.21 l -0.1,0.1 H 24.16 A 3.14,3.14 0 0 1 23.85,26.8 c -0.26,-0.05 -0.52,-0.2 -0.72,-0.31 a 4.8,4.8 0 0 0 -0.62,-0.2 h -0.05 c -0.05,0 0,0 0,0 l -0.2,-1.7 c 0,0 -0.16,-0.42 -0.93,-1.45 a 4.22,4.22 0 0 1 -0.88,-0.98 z"
     id="path97"
     style="fill:url(#t)"
     inkscape:connector-curvature="0" />
  <path
     d="m 25.09,15.57 c 0,0 -2.27,0 -3.3,2.21 -0.41,1.55 0.41,2.73 1.03,2.63 0.57,-0.05 3.81,-0.67 4.12,-2.06 0.36,-1.5 0.46,-3.04 -1.85,-2.78 z m 7.77,0 c 0,0 2.32,0 3.35,2.21 0.41,1.55 -0.46,2.73 -1.03,2.63 -0.62,-0.05 -3.81,-0.67 -4.12,-2.06 -0.36,-1.5 -0.51,-3.04 1.8,-2.78 z m -3.5,2.52 c 0,0 2.63,3.82 1.13,4.7 h -2.83 c -1.54,-0.88 1.19,-4.7 1.19,-4.7 z"
     id="path99"
     inkscape:connector-curvature="0"
     style="fill:#333333" />
  <path
     d="m 20.09,13.46 c -0.1,0 -0.52,2.47 0.41,6.44 0.1,0.1 -0.1,-0.05 0,0 0.2,-3 1.4,-4.12 1.6,-4.28 a 43.06,43.06 0 0 1 -0.62,-1.6 c -0.93,-2.31 1.29,-5.04 2.58,-6.33 a 7.97,7.97 0 0 0 -3.97,5.77 z"
     id="path101"
     style="fill:url(#u)"
     inkscape:connector-curvature="0" />
  <path
     d="m 37.86,13.46 c 0.1,0 0.52,2.42 -0.36,6.44 -0.1,0.1 0.05,-0.05 0,0 0.77,-2.53 -1.13,-3.97 -1.6,-4.28 l 0.62,-1.6 c 0.93,-2.31 -1.29,-5.04 -2.57,-6.33 1.7,0.98 3.4,2.68 3.96,5.77 z"
     id="path103"
     style="fill:url(#v)"
     inkscape:connector-curvature="0" />
  <path
     d="m 30.9,17.63 c 0.1,-0.72 0.68,-1.13 1.96,-1.03 0,0 2.32,0 3.35,2.21 v 0.31 a 2.88,2.88 0 0 0 0,-1.34 c -1.03,-2.21 -3.35,-2.21 -3.35,-2.21 -1.9,-0.2 -2.16,0.82 -1.95,2.06 z m -3.8,0 c -0.16,-0.72 -0.68,-1.13 -2.01,-1.03 0,0 -2.27,0 -3.3,2.21 l -0.05,0.31 a 2.88,2.88 0 0 1 0.05,-1.34 c 1.03,-2.21 3.3,-2.21 3.3,-2.21 1.95,-0.2 2.16,0.82 2.06,2.06 z m 1.75,0.47 c 0,0 -2.06,2.83 -1.55,4.22 0,-0.16 0,-0.26 0.1,-0.36 a 7.1,7.1 0 0 1 0.67,-1.55 l 0.36,-0.67 0.42,-0.62 h 0.51 a 12.77,12.77 0 0 0 1.55,3.2 c 0.4,-1.4 -1.55,-4.23 -1.55,-4.23 z"
     id="path105"
     inkscape:connector-curvature="0"
     style="fill:#1a1a1a" />
  <path
     d="m 37.65,21.96 0.16,-0.26 0.05,-0.31 v -0.41 a 2.06,2.06 0 0 1 -0.26,0.62 1.7,1.7 0 0 1 -0.51,0.51 8.96,8.96 0 0 1 -1.08,0.57 4.84,4.84 0 0 1 -1.19,0.51 c -0.15,0.16 -0.36,0.2 -0.51,0.31 a 2.47,2.47 0 0 0 -0.57,0.52 1.18,1.18 0 0 0 -0.2,0.41 v 0.26 a 4.43,4.43 0 0 1 -0.16,0.98 c 0,0.25 -0.1,0.51 -0.16,0.72 a 2.06,2.06 0 0 0 0,0.25 0.52,0.52 0 0 0 0,0.21 l 0.06,0.1 h 0.51 l 0.36,-0.15 0.72,-0.31 a 4.8,4.8 0 0 1 0.57,-0.2 h 0.1 l 0.16,-1.7 c 0,0 0.15,-0.42 0.92,-1.45 a 4.22,4.22 0 0 0 0.88,-0.98 z"
     id="path107"
     style="fill:url(#w)"
     inkscape:connector-curvature="0" />
  <path
     d="m 15.51,14.62 c 0,-0.15 -0.2,-0.31 -0.3,-0.49 -0.08,-0.14 -0.18,-0.23 -0.23,-0.33 -0.1,-0.17 -0.22,-0.29 -0.27,-0.45 -0.05,-0.18 -0.12,-0.32 -0.17,-0.5 -0.05,-0.18 -0.09,-0.36 -0.17,-0.52 -0.09,-0.15 -0.07,-0.4 -0.12,-0.58 -0.05,-0.19 -0.05,-0.4 -0.05,-0.6 -0.01,-0.28 0.04,-0.6 0.09,-0.87 0.05,-0.3 0.18,-0.6 0.3,-0.88 0.13,-0.28 0.35,-0.53 0.47,-0.8 0.12,-0.26 0.25,-0.5 0.31,-0.79 0.08,-0.36 0.19,-0.68 0.25,-1.03 0.06,-0.4 -0.04,0.11 -0.06,0.22 -0.08,0.38 0.09,0.87 0.23,1.2 0.2,0.44 0.41,0.8 0.64,1.22 0.12,0.22 0.25,0.6 0.31,0.83 0.11,0.38 0.25,0.74 0.39,1.1 0.1,0.27 0.08,0.56 0.1,0.84 0,0.24 -0.13,0.36 -0.2,0.54 -0.09,0.17 -0.38,0.35 -0.55,0.49 -0.13,0.1 -0.27,0.32 -0.32,0.44 -0.06,0.12 -0.27,0.4 -0.36,0.48 -0.14,0.15 -0.22,0.29 -0.29,0.48 z"
     id="path109"
     style="fill:url(#x);fill-rule:evenodd"
     inkscape:connector-curvature="0" />
  <path
     d="m 15.55,14.78 c -0.13,0.14 -0.22,-0.33 -0.36,-0.46 l -0.58,-0.5 c -0.28,-0.27 -0.5,-0.54 -0.72,-0.85 a 3.08,3.08 0 0 1 -0.45,-1.13 5.18,5.18 0 0 1 -0.16,-1.05 c -0.01,-0.34 -0.03,-0.66 0.06,-0.97 l 0.08,-0.28 c 0.08,-0.29 0.13,-0.59 0.25,-0.85 0.14,-0.33 0.31,-0.66 0.46,-0.98 0.22,-0.49 0.5,-0.87 0.7,-1.37 0.15,-0.4 0.4,-0.77 0.54,-1.17 0.1,-0.28 0.17,-0.6 0.21,-0.88 0.05,-0.27 0.1,-0.5 0.1,-0.78 C 15.67,3.31 15.72,3.1 15.72,2.89 15.71,2.74 15.74,2.4 15.68,2.7 c -0.08,0.35 0.01,0.75 0.07,1.09 0.06,0.36 0.11,0.72 0.2,1.08 0.1,0.4 0.12,0.83 0.2,1.24 0.07,0.34 0.14,0.69 0.29,1.01 0.15,0.34 0.19,0.68 0.28,1.02 0.1,0.34 0.31,0.7 0.48,1 l 0.07,0.16 0.27,0.7 c 0.1,0.26 0.1,0.51 0.16,0.77 0.04,0.2 -0.01,0.43 -0.04,0.63 -0.04,0.22 -0.01,0.4 -0.1,0.6 -0.07,0.13 -0.09,0.25 -0.11,0.37 a 0.95,0.95 0 0 1 -0.26,0.5 c -0.1,0.12 -0.22,0.18 -0.3,0.27 -0.1,0.1 -0.27,0.24 -0.37,0.32 -0.17,0.14 -0.4,0.39 -0.5,0.55 -0.11,0.15 -0.3,0.3 -0.36,0.45 -0.06,0.13 -0.06,0.16 -0.11,0.32 z"
     id="path111"
     style="fill:url(#y);fill-rule:evenodd"
     inkscape:connector-curvature="0" />
  <path
     d="m 24.03,0.38 c -5.82,0 -10.5,1.06 -13.95,3.25 A 13.87,13.87 0 0 0 3.81,15.95 c 0,7.22 5.82,16.9 7.6,19.65 a 55.85,55.85 0 0 0 6.23,8.17 c 2.57,2.64 4.57,3.89 6.39,3.89 1.81,0 3.82,-1.25 6.39,-3.9 a 57.45,57.45 0 0 0 6.23,-8.12 c 1.78,-2.8 7.56,-12.47 7.56,-19.7 0,-5.36 -2.15,-9.6 -6.24,-12.27 A 25.51,25.51 0 0 0 24.03,0.37 Z m 0,0.11 c 2.11,0.08 4.12,0.26 5.86,0.68 a 22,22 0 0 1 6.04,2.5 13.8,13.8 0 0 1 4.69,5.14 c 0.53,1.02 0.94,2.15 1.2,3.32 a 17.42,17.42 0 0 1 -0.52,9.56 41.91,41.91 0 0 1 -2.2,5.75 72.6,72.6 0 0 1 -4.45,8.2 57.45,57.45 0 0 1 -6.24,8.13 18.52,18.52 0 0 1 -3.48,2.94 3.63,3.63 0 0 1 -0.9,0.38 3.63,3.63 0 0 1 -0.9,-0.38 A 18,18 0 0 1 19.64,43.77 54.46,54.46 0 0 1 13.41,35.64 72.57,72.57 0 0 1 8.95,27.44 41.91,41.91 0 0 1 6.75,21.69 17.39,17.39 0 0 1 6.23,12.17 14.1,14.1 0 0 1 9.4,5.97 13.8,13.8 0 0 1 14.88,2.19 25.81,25.81 0 0 1 24.03,0.5 Z"
     id="path113"
     inkscape:connector-curvature="0"
     style="opacity:0.2" />
  <g
     transform="matrix(0.88992,0,0,0.88992,7.6,3.62)"
     id="g159"
     style="stroke-width:1.12">
    <rect
       width="10.24"
       height="3.26"
       x="18.98"
       y="24.48"
       rx="2.4400001"
       ry="1.96"
       id="rect115"
       style="fill:#1a1a1a" />
    <path
       d="m 19.2,27.03 c 0.12,0.05 0.46,0.23 0.58,0.11 0.17,-0.11 0.34,-0.57 0.23,-0.8 -0.46,-0.64 -1.5,0.11 -0.8,0.69 z"
       id="path117"
       inkscape:connector-curvature="0"
       style="fill:#cecece;stroke:#4d4d4d;stroke-width:0.11" />
    <path
       d="m 20.18,26.28 c -0.06,-0.12 -0.29,-0.29 -0.46,-0.29 -0.11,0 -0.4,0.06 -0.4,0.17 -0.12,0.3 0,0.75 0.17,1.04 a 0.57,0.57 0 0 0 0.23,0.23 c 0.17,0.06 0.12,0 0.29,-0.12 l 0.28,-0.28 c 0,-0.12 0,-0.58 -0.11,-0.75 z"
       id="path119"
       inkscape:connector-curvature="0"
       style="fill:#cecece;stroke:#4d4d4d;stroke-width:0.11" />
    <path
       d="m 20.3,26.05 c -0.23,0 -0.35,-0.23 -0.52,0 v 0.46 c 0,0.23 0.17,0.86 0.46,0.98 0.28,0.11 0.57,-0.18 0.57,-0.46 l -0.11,-0.4 v -0.4 c -0.18,-0.18 -0.4,-0.12 -0.58,-0.3"
       id="path121"
       inkscape:connector-curvature="0"
       style="fill:#cecece;stroke:#4d4d4d;stroke-width:0.11" />
    <path
       d="m 20.52,27.26 0.52,0.57 c 0.58,-0.4 0.46,-1.84 -0.34,-1.9 -0.58,0 -0.4,0.92 -0.23,1.27 z"
       id="path123"
       inkscape:connector-curvature="0"
       style="fill:#cecece;stroke:#4d4d4d;stroke-width:0.11" />
    <path
       d="m 22.2,26.34 v 0.11 c 0.05,0.17 -0.12,0.58 -0.18,0.8 0,0.24 -0.06,0.52 -0.29,0.58 -0.29,-0.23 -0.75,-1.6 -0.17,-1.72 0.23,0 0.52,0 0.57,0.23 z"
       id="path125"
       inkscape:connector-curvature="0"
       style="fill:#cecece;stroke:#4d4d4d;stroke-width:0.11" />
    <path
       d="m 23,26.34 c 0.28,0.11 -0.06,1.49 -0.35,1.55 -0.29,0 -0.4,-0.86 -0.46,-1.04 0,-0.57 0.29,-0.8 0.8,-0.57 z m 0.97,-0.12 c 0.17,0.06 0,0.8 0,0.98 0,0.17 0,0.57 -0.23,0.63 -0.4,0.23 -0.51,-0.57 -0.57,-0.8 v -0.52 c 0,-0.4 0.57,-0.35 0.8,-0.29 z m 5.06,0.8 c -0.12,0.12 -0.4,0.24 -0.58,0.18 -0.17,-0.17 -0.34,-0.58 -0.23,-0.8 0.52,-0.7 1.5,0.05 0.8,0.63 z"
       id="path127"
       inkscape:connector-curvature="0"
       style="fill:#cecece;stroke:#4d4d4d;stroke-width:0.11" />
    <path
       d="m 28.05,26.34 c 0.06,-0.18 0.29,-0.35 0.52,-0.35 0.06,0 0.34,0.12 0.4,0.23 0.06,0.29 0,0.75 -0.17,0.98 a 0.63,0.63 0 0 1 -0.29,0.23 c -0.17,0.11 -0.11,0 -0.23,-0.06 -0.11,-0.11 -0.29,-0.23 -0.29,-0.34 -0.05,-0.12 0,-0.58 0.06,-0.7 z"
       id="path129"
       inkscape:connector-curvature="0"
       style="fill:#cecece;stroke:#4d4d4d;stroke-width:0.11" />
    <path
       d="m 28,26.05 c 0.17,0 0.34,-0.17 0.45,0 v 0.52 c 0,0.23 -0.17,0.8 -0.4,0.92 -0.34,0.11 -0.63,-0.18 -0.63,-0.46 l 0.11,-0.4 0.06,-0.35 c 0.12,-0.23 0.35,-0.17 0.52,-0.29"
       id="path131"
       inkscape:connector-curvature="0"
       style="fill:#cecece;stroke:#4d4d4d;stroke-width:0.11" />
    <path
       d="m 27.7,27.26 -0.51,0.57 c -0.57,-0.4 -0.4,-1.84 0.34,-1.9 0.58,0 0.4,0.98 0.23,1.27 v 0.06 z"
       id="path133"
       inkscape:connector-curvature="0"
       style="fill:#cecece;stroke:#4d4d4d;stroke-width:0.11" />
    <path
       d="m 26.1,26.28 -0.06,0.11 c -0.06,0.23 0.12,0.64 0.17,0.87 0,0.23 0.06,0.46 0.3,0.57 0.28,-0.23 0.74,-1.6 0.16,-1.72 -0.17,0 -0.46,0 -0.57,0.17 z"
       id="path135"
       inkscape:connector-curvature="0"
       style="fill:#cecece;stroke:#4d4d4d;stroke-width:0.11" />
    <path
       d="m 25.24,26.28 c -0.3,0.17 0.05,1.5 0.34,1.6 0.29,0 0.46,-0.85 0.46,-1.03 0,-0.57 -0.29,-0.8 -0.8,-0.57 z"
       id="path137"
       inkscape:connector-curvature="0"
       style="fill:#cecece;stroke:#4d4d4d;stroke-width:0.11" />
    <path
       d="m 24.32,26.28 c -0.18,0.06 0,0.8 0,0.98 0.05,0.17 0.05,0.57 0.28,0.63 0.35,0.23 0.46,-0.58 0.52,-0.8 l 0.06,-0.52 c 0,-0.4 -0.58,-0.35 -0.86,-0.3 z M 19.26,24.9 h -0.17 a 2.59,2.59 0 0 0 0,1.55 c 0,0.12 0.46,-0.23 0.46,-0.23 a 0.57,0.57 0 0 0 0.17,-0.46 c 0,-0.23 -0.17,-0.69 -0.46,-0.86 z"
       id="path139"
       inkscape:connector-curvature="0"
       style="fill:#cecece;stroke:#4d4d4d;stroke-width:0.11" />
    <path
       d="m 19.78,26.34 c 0.8,-0.3 0.34,-2.02 -0.17,-1.38 -0.12,0.17 -0.23,1.55 0.17,1.38 z"
       id="path141"
       inkscape:connector-curvature="0"
       style="fill:#cecece;stroke:#4d4d4d;stroke-width:0.11" />
    <path
       d="m 20.98,26 c 0.18,-0.58 -0.23,-1.5 -0.74,-1.1 -0.23,0.23 -0.23,1.26 0.11,1.32 0.35,0.12 0.58,0 0.58,-0.23 z"
       id="path143"
       inkscape:connector-curvature="0"
       style="fill:#cecece;stroke:#4d4d4d;stroke-width:0.11" />
    <path
       d="m 21.44,24.61 c -0.17,0 -0.4,0 -0.51,0.23 -0.12,0.29 0,0.58 0.11,0.86 0,0.12 0.46,0.58 0.46,0.64 0.12,-0.4 0.4,-0.92 0.29,-1.38 a 0.46,0.46 0 0 0 -0.35,-0.35 z"
       id="path145"
       inkscape:connector-curvature="0"
       style="fill:#cecece;stroke:#4d4d4d;stroke-width:0.11" />
    <path
       d="m 22.6,25.88 c 0.22,-0.18 0.1,-0.98 0,-1.21 -0.18,-0.4 -0.58,-0.12 -0.7,0.23 a 2.47,2.47 0 0 0 0,1.15 c 0.3,0 0.58,0 0.7,-0.12 z m 1.49,-0.1 c 0,-0.66 -0.23,-1.63 -0.75,-1.37 -0.52,0.25 -0.57,1.01 -0.57,1.42 0,0.35 0.05,0.4 0.51,0.5 h 0.8 z m 4.82,-1.05 0.12,-0.12 c 0.23,0.4 0.29,1.15 0.17,1.61 0,0.12 -0.52,-0.17 -0.57,-0.23 a 0.57,0.57 0 0 1 -0.12,-0.4 c 0,-0.29 0.12,-0.69 0.4,-0.86 z"
       id="path147"
       inkscape:connector-curvature="0"
       style="fill:#cecece;stroke:#4d4d4d;stroke-width:0.11" />
    <path
       d="m 28.45,26.16 c -0.8,-0.28 -0.4,-2 0.12,-1.38 0.11,0.12 0.29,1.5 -0.12,1.38 z"
       id="path149"
       inkscape:connector-curvature="0"
       style="fill:#cecece;stroke:#4d4d4d;stroke-width:0.11" />
    <path
       d="m 27.25,25.88 c -0.23,-0.58 0.11,-1.56 0.63,-1.15 0.29,0.17 0.34,1.2 0,1.32 -0.35,0.11 -0.58,0 -0.58,-0.23 z"
       id="path151"
       inkscape:connector-curvature="0"
       style="fill:#cecece;stroke:#4d4d4d;stroke-width:0.11" />
    <path
       d="m 26.73,24.5 c 0.17,0 0.4,0 0.52,0.23 0.11,0.23 0,0.57 -0.12,0.86 0,0.11 -0.4,0.57 -0.34,0.63 -0.17,-0.4 -0.52,-0.92 -0.4,-1.38 0,-0.17 0.17,-0.34 0.34,-0.34 z"
       id="path153"
       inkscape:connector-curvature="0"
       style="fill:#cecece;stroke:#4d4d4d;stroke-width:0.11" />
    <path
       d="m 25.64,25.88 c -0.23,-0.18 -0.23,-1.04 -0.12,-1.27 0.23,-0.4 0.64,-0.17 0.75,0.17 0.12,0.35 0.12,0.8 0.06,1.15 -0.29,0.06 -0.58,0 -0.7,-0.05 z"
       id="path155"
       inkscape:connector-curvature="0"
       style="fill:#cecece;stroke:#4d4d4d;stroke-width:0.11" />
    <path
       d="m 24.14,25.82 c 0,-0.66 0.12,-1.68 0.58,-1.47 0.57,0.25 0.75,1.01 0.75,1.47 0,0.3 0,0.36 -0.46,0.46 h -0.87 v -0.51 z"
       id="path157"
       inkscape:connector-curvature="0"
       style="fill:#cecece;stroke:#4d4d4d;stroke-width:0.11" />
  </g>
</svg>
