<?xml version="1.0" encoding="UTF-8" standalone="no"?>
<svg
   xmlns:dc="http://purl.org/dc/elements/1.1/"
   xmlns:cc="http://creativecommons.org/ns#"
   xmlns:rdf="http://www.w3.org/1999/02/22-rdf-syntax-ns#"
   xmlns:svg="http://www.w3.org/2000/svg"
   xmlns="http://www.w3.org/2000/svg"
   xmlns:xlink="http://www.w3.org/1999/xlink"
   xmlns:sodipodi="http://sodipodi.sourceforge.net/DTD/sodipodi-0.dtd"
   xmlns:inkscape="http://www.inkscape.org/namespaces/inkscape"
   width="48"
   height="48"
   version="1.1"
   id="svg25"
   sodipodi:docname="wikipedia.svg"
   inkscape:version="0.92.4 (5da689c313, 2019-01-14)">
  <metadata
     id="metadata29">
    <rdf:RDF>
      <cc:Work
         rdf:about="">
        <dc:format>image/svg+xml</dc:format>
        <dc:type
           rdf:resource="http://purl.org/dc/dcmitype/StillImage" />
        <dc:title></dc:title>
      </cc:Work>
    </rdf:RDF>
  </metadata>
  <sodipodi:namedview
     pagecolor="#ffffff"
     bordercolor="#666666"
     borderopacity="1"
     objecttolerance="10"
     gridtolerance="10"
     guidetolerance="10"
     inkscape:pageopacity="0"
     inkscape:pageshadow="2"
     inkscape:window-width="1112"
     inkscape:window-height="480"
     id="namedview27"
     showgrid="false"
     inkscape:zoom="4.9166667"
     inkscape:cx="2.1355932"
     inkscape:cy="24"
     inkscape:window-x="0"
     inkscape:window-y="25"
     inkscape:window-maximized="0"
     inkscape:current-layer="svg25" />
  <defs
     id="defs15">
    <linearGradient
       id="a">
      <stop
         offset="0"
         stop-color="#8a916f"
         id="stop2" />
      <stop
         offset="1"
         stop-color="#22241c"
         id="stop4" />
    </linearGradient>
    <linearGradient
       gradientTransform="matrix(3.77953,0,0,3.77953,0,-1074.548)"
       xlink:href="#b"
       id="c"
       x1="4.66"
       y1="295.88"
       x2="6.35"
       y2="284.39"
       gradientUnits="userSpaceOnUse" />
    <linearGradient
       id="b">
      <stop
         offset="0"
         stop-color="#b3b3b3"
         id="stop8" />
      <stop
         offset=".57"
         stop-color="#fff"
         id="stop10" />
      <stop
         offset="1"
         stop-color="#999"
         id="stop12" />
    </linearGradient>
  </defs>
  <path
     d="m 24,0.35 c -5.82,0 -10.507,1.096 -13.946,3.288 A 13.87,13.87 0 0 0 3.78,15.922 c 0,7.219 5.82,16.894 7.596,19.653 2.041,3.213 4.271,6.085 6.237,8.164 2.57,2.646 4.573,3.893 6.387,3.893 1.814,0 3.817,-1.247 6.387,-3.893 1.966,-2.079 4.196,-4.951 6.237,-8.126 1.776,-2.797 7.559,-12.472 7.559,-19.691 0,-5.367 -2.155,-9.6 -6.237,-12.284 A 25.512,25.512 0 0 0 24,0.312 Z"
     id="path17"
     style="fill:url(#c)"
     inkscape:connector-curvature="0" />
  <path
     d="m 24,0.35 c -5.83,0 -10.52,1.12 -13.93,3.33 -4.1,2.66 -6.27,6.9 -6.27,12.27 0,7.23 5.8,16.88 7.58,19.67 a 54.48,54.48 0 0 0 6.25,8.16 c 2.54,2.64 4.57,3.87 6.37,3.87 1.8,0 3.83,-1.23 6.37,-3.87 2,-2.08 4.22,-4.97 6.25,-8.16 C 38.4,32.83 44.2,23.18 44.2,15.95 44.2,10.58 42.04,6.34 37.94,3.68 34.52,1.47 29.84,0.35 24,0.35 Z m 0,0.14 c 2.11,0.09 4.12,0.27 5.88,0.7 1.16,0.27 2.25,0.62 3.26,1.03 1.01,0.42 1.94,0.9 2.8,1.46 A 12.92,12.92 0 0 1 40.6,8.8 c 0.53,1.03 0.92,2.15 1.2,3.34 0.26,1.2 0.4,2.47 0.4,3.8 0,1.82 -0.37,3.77 -0.94,5.74 a 43.19,43.19 0 0 1 -2.2,5.77 69.59,69.59 0 0 1 -4.45,8.17 54.47,54.47 0 0 1 -6.25,8.16 17.98,17.98 0 0 1 -3.46,2.93 c -0.32,0.2 -0.62,0.3 -0.91,0.39 -0.3,-0.08 -0.6,-0.2 -0.9,-0.4 -1.06,-0.63 -2.2,-1.6 -3.47,-2.92 -2,-2.08 -4.22,-4.97 -6.25,-8.16 A 69.6,69.6 0 0 1 8.91,27.45 43.19,43.19 0 0 1 6.72,21.68 20.93,20.93 0 0 1 5.79,15.95 c 0,-1.34 0.13,-2.61 0.4,-3.8 0.27,-1.2 0.67,-2.32 1.2,-3.35 a 12.92,12.92 0 0 1 4.67,-5.12 17.1,17.1 0 0 1 2.8,-1.46 c 1,-0.41 2.1,-0.76 3.26,-1.04 C 19.88,0.76 21.89,0.58 24,0.5 Z"
     id="path19"
     inkscape:connector-curvature="0"
     style="opacity:0.2" />
  <path
     d="m 28.67,10.716 c -1.065,0 -2.328,0.004 -3.105,0.009 l -0.076,0.052 v 0.56 c 0,0.068 0.028,0.115 0.085,0.157 0.058,0.043 0.115,0.07 0.179,0.07 l 0.246,0.026 c 0.635,0.027 0.934,0.198 1.021,0.306 0.152,0.19 0.223,0.4 -0.144,1.223 l -2.195,4.49 -1.983,-4.167 c -0.651,-1.332 -0.81,-1.748 0.17,-1.826 l 0.392,-0.052 c 0.188,0 0.28,-0.068 0.28,-0.201 v -0.586 l -0.144,-0.052 -5.352,0.009 -0.076,0.052 v 0.585 c 0,0.131 0.134,0.167 0.391,0.201 0.918,0.125 0.896,0.222 1.804,2.07 0.136,0.278 0.536,1.11 0.536,1.11 l 2.067,4.176 0.604,1.372 -3.003,6.15 -0.17,-0.044 c 0,0 -4.665,-10.101 -6.016,-13.48 -0.14,-0.35 -0.204,-0.608 -0.204,-0.768 0,-0.343 0.299,-0.525 0.902,-0.55 l 0.706,-0.036 c 0.186,0 0.281,-0.073 0.281,-0.227 v -0.55 l -0.068,-0.061 c 0,0 -5.584,-0.007 -6.739,0 l -0.06,0.063 v 0.576 c 0,0.105 0.123,0.172 0.384,0.2 0.709,0.04 1.18,0.157 1.404,0.35 0.223,0.196 0.46,0.689 0.774,1.46 1.696,4.181 5.299,11.648 7.053,15.898 0.506,1.161 1.135,1.342 1.906,-0.035 0.831,-1.583 2.285,-4.64 3.463,-7.137 0.017,-0.242 0.017,0.224 0.23,0.079 1.1,2.486 2.427,5.48 3.165,7.04 0.572,1.212 1.219,1.328 1.88,0.036 1.727,-3.944 6.782,-15.804 6.782,-15.804 0.22,-0.583 0.52,-1.03 0.91,-1.354 0.39,-0.324 0.992,-0.505 1.804,-0.542 0.166,0 0.247,-0.076 0.247,-0.227 v -0.56 l -0.06,-0.06 h -6.202 l -0.077,0.06 v 0.56 c 0,0.066 0.029,0.116 0.085,0.157 0.058,0.044 0.116,0.07 0.18,0.07 l 0.518,0.026 c 0.636,0.027 0.809,0.157 1.055,0.376 0.245,0.225 0.276,0.605 0.085,1.144 l -5.488,13.375 -0.212,-0.061 -3.489,-7.312 0.085,-0.175 2.85,-5.477 c 0.333,-0.578 0.655,-1.096 0.817,-1.337 0.298,-0.44 0.464,-0.52 1.277,-0.559 0.165,0 0.246,-0.074 0.246,-0.227 v -0.55 l -0.06,-0.062 c 0,0 -0.873,-0.007 -1.939,-0.008 z"
     id="path21"
     inkscape:connector-curvature="0"
     style="fill:#4d4d4d" />
  <path
     d="m 29.273,11.504 c -1.066,0 -2.33,0.004 -3.106,0.01 l -0.076,0.052 v 0.559 c 0,0.068 0.028,0.116 0.085,0.157 0.058,0.044 0.115,0.07 0.178,0.07 l 0.247,0.026 c 0.635,0.027 0.934,0.199 1.021,0.306 0.152,0.19 0.223,0.401 -0.144,1.223 L 25.282,18.397 23.3,14.23 c -0.651,-1.332 -0.81,-1.747 0.17,-1.826 l 0.392,-0.052 c 0.188,0 0.28,-0.068 0.28,-0.201 v -0.585 l -0.144,-0.053 -5.352,0.01 -0.076,0.052 v 0.585 c 0,0.13 0.134,0.166 0.391,0.2 0.918,0.125 0.895,0.223 1.804,2.071 0.136,0.278 0.536,1.11 0.536,1.11 l 2.067,4.176 0.604,1.371 -3.003,6.15 -0.17,-0.043 c 0,0 -4.665,-10.102 -6.016,-13.48 -0.14,-0.35 -0.204,-0.609 -0.204,-0.769 0,-0.343 0.299,-0.524 0.902,-0.55 l 0.706,-0.035 c 0.186,0 0.281,-0.074 0.281,-0.227 v -0.55 L 16.4,11.522 c 0,0 -5.584,-0.007 -6.739,0 l -0.06,0.063 v 0.576 c 0,0.105 0.123,0.172 0.384,0.201 0.709,0.04 1.18,0.156 1.404,0.35 0.223,0.195 0.46,0.688 0.774,1.458 1.695,4.183 5.299,11.65 7.053,15.9 0.505,1.16 1.135,1.341 1.906,-0.035 0.831,-1.584 2.285,-4.64 3.463,-7.138 0.017,-0.242 0.017,0.225 0.23,0.079 1.1,2.487 2.427,5.48 3.165,7.041 0.571,1.211 1.219,1.328 1.88,0.035 1.727,-3.943 6.781,-15.803 6.781,-15.803 0.219,-0.583 0.52,-1.029 0.91,-1.354 0.39,-0.323 0.992,-0.505 1.804,-0.542 0.166,0 0.247,-0.076 0.247,-0.227 v -0.559 l -0.06,-0.061 H 33.34 l -0.077,0.061 v 0.56 c 0,0.065 0.029,0.115 0.085,0.156 0.058,0.044 0.116,0.07 0.179,0.07 l 0.519,0.026 c 0.636,0.027 0.809,0.157 1.055,0.376 0.245,0.225 0.276,0.606 0.085,1.145 l -5.488,13.374 -0.212,-0.06 -3.489,-7.313 0.085,-0.175 2.85,-5.477 c 0.333,-0.578 0.655,-1.096 0.817,-1.337 0.298,-0.439 0.464,-0.52 1.277,-0.559 0.165,0 0.246,-0.074 0.246,-0.227 v -0.55 l -0.06,-0.061 c 0,0 -0.873,-0.008 -1.939,-0.01 z"
     id="path23"
     inkscape:connector-curvature="0"
     style="opacity:0.272;fill:#4d4d4d" />
</svg>
