<?xml version="1.0" encoding="UTF-8" standalone="no"?>
<svg
   xmlns:dc="http://purl.org/dc/elements/1.1/"
   xmlns:cc="http://creativecommons.org/ns#"
   xmlns:rdf="http://www.w3.org/1999/02/22-rdf-syntax-ns#"
   xmlns:svg="http://www.w3.org/2000/svg"
   xmlns="http://www.w3.org/2000/svg"
   xmlns:xlink="http://www.w3.org/1999/xlink"
   xmlns:sodipodi="http://sodipodi.sourceforge.net/DTD/sodipodi-0.dtd"
   xmlns:inkscape="http://www.inkscape.org/namespaces/inkscape"
   width="48"
   height="48"
   version="1.1"
   id="svg22"
   sodipodi:docname="applications-engineering.svg"
   inkscape:version="0.92.4 (5da689c313, 2019-01-14)">
  <metadata
     id="metadata26">
    <rdf:RDF>
      <cc:Work
         rdf:about="">
        <dc:format>image/svg+xml</dc:format>
        <dc:type
           rdf:resource="http://purl.org/dc/dcmitype/StillImage" />
        <dc:title></dc:title>
      </cc:Work>
    </rdf:RDF>
  </metadata>
  <sodipodi:namedview
     pagecolor="#ffffff"
     bordercolor="#666666"
     borderopacity="1"
     objecttolerance="10"
     gridtolerance="10"
     guidetolerance="10"
     inkscape:pageopacity="0"
     inkscape:pageshadow="2"
     inkscape:window-width="1112"
     inkscape:window-height="480"
     id="namedview24"
     showgrid="false"
     inkscape:zoom="4.9166667"
     inkscape:cx="2.1355932"
     inkscape:cy="24"
     inkscape:window-x="0"
     inkscape:window-y="25"
     inkscape:window-maximized="0"
     inkscape:current-layer="svg22" />
  <defs
     id="defs14">
    <linearGradient
       id="a">
      <stop
         offset="0"
         id="stop2" />
      <stop
         offset="1"
         stop-opacity="0"
         id="stop4" />
    </linearGradient>
    <linearGradient
       xlink:href="#a"
       id="d"
       gradientUnits="userSpaceOnUse"
       x1="10.33"
       y1="28.9"
       x2="54.48"
       y2="28.9" />
    <linearGradient
       xlink:href="#b"
       id="c"
       x1="1.09"
       y1="1"
       x2="46.91"
       y2="47"
       gradientUnits="userSpaceOnUse" />
    <linearGradient
       id="b">
      <stop
         offset="0"
         stop-color="#37abc8"
         id="stop9" />
      <stop
         offset="1"
         stop-color="#87cdde"
         id="stop11" />
    </linearGradient>
  </defs>
  <rect
     width="45.830002"
     height="46"
     x="1.09"
     y="1"
     ry="5.0500002"
     id="rect16"
     style="fill:url(#c);fill-rule:evenodd" />
  <path
     d="m 18.33,47 h 23.53 a 5.06,5.06 0 0 0 5.05,-5.05 v -22.6 l -8.86,-8.86 -4.3,-1.05 -0.78,3.35 0.25,1.1 -1.38,1.2 1.33,1.73 -5.22,7.27 1.33,1.74 -6.25,4.84 -1.7,-1.7 -1.92,1.04 -3.38,-0.89 -1.6,5.7 -4.1,4.19 z"
     id="path18"
     style="opacity:0.5;fill:url(#d)"
     inkscape:connector-curvature="0" />
  <path
     d="m 33.17,16.82 -3.9,7.92 -1.32,-0.65 3.9,-7.93 z m 4.88,-6.33 -0.36,0.67 c -0.42,0.77 -1.28,2.34 -2.5,2.66 l -1.14,2.34 -2.2,-1.07 1.12,-2.3 c -0.53,-1.24 0.24,-3.07 0.6,-3.87 l 0.22,-0.54 z m -1.86,1.25 -2.24,-1.1 c -0.26,0.94 -0.33,1.81 0.33,2.14 0.7,0.35 1.34,-0.2 1.9,-1.04 z m -11.9,20.62 a 4.6,4.6 0 0 1 3.25,0.75 c 0.22,0.18 0.4,0.37 0.6,0.57 l 0.8,-1.61 0.35,-0.74 1.2,-2.45 c 0.17,-0.34 -0.6,-0.98 -1.87,-1.7 l 0.66,-1.35 -2.2,-1.1 -0.68,1.35 a 7.88,7.88 0 0 0 -2.15,-0.57 c -0.19,0 -0.31,0.04 -0.35,0.13 l -1.65,3.35 -0.76,1.52 -0.02,0.06 a 0.62,0.62 0 0 0 -0.03,0.4 4.57,4.57 0 0 1 2.85,1.4 z m 8.32,3.1 c 0,-0.79 -0.74,-1.02 -1.3,-1.02 a 1.17,1.17 0 0 0 -0.45,0.1 c 0.22,-0.32 0.34,-0.71 0.34,-1.13 0,-0.9 -0.47,-1.6 -1.09,-1.77 l -1.3,2.6 a 0.94,0.94 0 0 1 -0.17,0.25 c 0.27,0.56 0.43,1.22 0.5,1.98 a 0.51198144,0.51198144 0 0 1 -1.02,0.09 c -0.1,-1.21 -0.5,-2.1 -1.2,-2.63 -1.13,-0.84 -2.68,-0.53 -2.71,-0.53 l -0.28,0.06 -0.2,-0.21 C 21.25,30.6 18.7,32.85 18.59,32.97 a 0.52031241,0.52031241 0 0 1 -0.7,-0.77 5.1,5.1 0 0 1 2.69,-1.21 1.02,1.02 0 0 1 0.07,-0.62 l 0.24,-0.48 0.44,-0.92 c -0.3,0 -0.27,0.03 -0.56,0.12 a 4.4,4.4 0 0 0 -3.5,-1.7 4.34,4.34 0 0 0 -4.25,5.32 c -1.38,0.58 -2.3,1.61 -2.3,2.81 0,0.38 0.09,0.74 0.26,1.08 -0.62,0.26 -1.03,0.79 -1.03,1.38 0,0.8 0.75,1.45 1.73,1.56 v 0.03 h 19.87 l 0.24,0.02 h 0.01 l 0.34,0.03 c 1.18,0 2.15,-0.94 2.15,-2.11 a 2.15,2.15 0 0 0 -1.68,-2.06 z"
     id="path20"
     inkscape:connector-curvature="0"
     style="fill:#1a1a1a" />
</svg>
