<?xml version="1.0" encoding="UTF-8" standalone="no"?>
<svg
   xmlns:dc="http://purl.org/dc/elements/1.1/"
   xmlns:cc="http://creativecommons.org/ns#"
   xmlns:rdf="http://www.w3.org/1999/02/22-rdf-syntax-ns#"
   xmlns:svg="http://www.w3.org/2000/svg"
   xmlns="http://www.w3.org/2000/svg"
   xmlns:xlink="http://www.w3.org/1999/xlink"
   xmlns:sodipodi="http://sodipodi.sourceforge.net/DTD/sodipodi-0.dtd"
   xmlns:inkscape="http://www.inkscape.org/namespaces/inkscape"
   width="48"
   height="48"
   version="1.1"
   id="svg26"
   sodipodi:docname="applications-featured.svg"
   inkscape:version="0.92.4 (5da689c313, 2019-01-14)">
  <metadata
     id="metadata30">
    <rdf:RDF>
      <cc:Work
         rdf:about="">
        <dc:format>image/svg+xml</dc:format>
        <dc:type
           rdf:resource="http://purl.org/dc/dcmitype/StillImage" />
        <dc:title></dc:title>
      </cc:Work>
    </rdf:RDF>
  </metadata>
  <sodipodi:namedview
     pagecolor="#ffffff"
     bordercolor="#666666"
     borderopacity="1"
     objecttolerance="10"
     gridtolerance="10"
     guidetolerance="10"
     inkscape:pageopacity="0"
     inkscape:pageshadow="2"
     inkscape:window-width="1112"
     inkscape:window-height="480"
     id="namedview28"
     showgrid="false"
     inkscape:zoom="4.9166667"
     inkscape:cx="2.1355932"
     inkscape:cy="24"
     inkscape:window-x="0"
     inkscape:window-y="25"
     inkscape:window-maximized="0"
     inkscape:current-layer="svg26" />
  <defs
     id="defs14">
    <linearGradient
       id="a">
      <stop
         offset="0"
         id="stop2" />
      <stop
         offset="1"
         stop-opacity="0"
         id="stop4" />
    </linearGradient>
    <linearGradient
       xlink:href="#b"
       id="c"
       x1="1.09"
       y1="1"
       x2="46.91"
       y2="47"
       gradientUnits="userSpaceOnUse" />
    <linearGradient
       id="b">
      <stop
         offset="0"
         stop-color="#37abc8"
         id="stop8" />
      <stop
         offset="1"
         stop-color="#87cdde"
         id="stop10" />
    </linearGradient>
    <linearGradient
       xlink:href="#a"
       id="d"
       x1="14.664"
       y1="26.604"
       x2="46.914"
       y2="26.604"
       gradientUnits="userSpaceOnUse" />
  </defs>
  <rect
     width="45.830002"
     height="46"
     x="1.09"
     y="1"
     ry="5.0500002"
     id="rect16"
     style="fill:url(#c);fill-rule:evenodd" />
  <path
     d="m 27.754,47 h 14.111 a 5.055,5.055 0 0 0 3.574,-1.477 5.032,5.032 0 0 0 1.475,-3.574 V 21.121 L 31.974,6.207 31.52,8.475 l 0.189,5.668 -1.246,6.728 -2.91,-2.91 -0.227,4.195 -1.058,1.436 -11.604,-11.604 0.49,3.78 3.026,8.24 1.435,7.445 1.285,8.693 z"
     id="path18"
     style="opacity:0.5;fill:url(#d)"
     inkscape:connector-curvature="0" />
  <g
     id="g24"
     style="fill:#1a1a1a">
    <path
       d="m 32.012,6.206 c 0.416,0.53 0.605,3.062 0.756,9.071 0,2.192 0,3.062 -0.303,4.044 -0.226,0.643 -0.378,1.323 -0.378,1.512 l -0.226,0.643 c -0.265,0.378 0.075,1.511 0.453,1.511 0.265,0 0.265,1.777 -0.038,1.928 -0.34,0.227 -0.793,-0.567 -0.68,-1.134 0.113,-0.378 0.076,-0.453 -0.302,-0.302 -0.227,0.038 -0.454,0 -0.454,-0.038 a 3.402,3.402 0 0 0 -0.605,-0.907 l -0.642,-0.756 0.416,0.907 c 0.226,0.491 0.415,1.02 0.415,1.21 0,0.188 0.076,0.264 0.19,0.226 0.113,-0.075 0.453,0.265 0.755,0.756 0.492,0.907 1.701,2.192 2.646,2.948 0.302,0.227 0.642,0.605 0.718,0.832 0.151,0.529 0.076,2.04 -0.151,2.154 -0.151,0.113 -1.323,2.268 -1.36,2.494 0,0.378 -0.379,0.643 -0.568,0.454 a 0.907,0.907 0 0 0 -0.529,-0.227 c -0.227,0 -0.189,0.114 0.19,0.378 0.264,0.265 0.377,0.454 0.264,0.454 -0.151,0 -0.265,0.227 -0.34,0.529 l -0.038,0.529 -0.567,-0.416 c -0.756,-0.604 -0.907,-0.567 -0.265,0.114 0.303,0.34 0.53,0.831 0.53,1.134 0,0.529 -0.076,0.566 -0.454,0.49 -0.378,-0.15 -0.416,-0.075 -0.34,0.19 0.075,0.189 0,0.302 -0.151,0.302 a 0.491,0.491 0 0 0 -0.378,0.265 c -0.076,0.189 -0.152,0.189 -0.378,0 -0.416,-0.416 -0.68,-0.303 -0.303,0.151 0.378,0.378 0.378,0.378 -0.113,0.302 l -0.53,-0.15 0.417,0.49 c 0.453,0.53 0.453,0.53 -0.605,0.076 -0.19,-0.076 -0.34,0 -0.34,0.113 0,0.114 0.113,0.227 0.189,0.227 0.075,0 0.378,0.114 0.567,0.265 0.377,0.302 0.302,0.302 -0.643,0.227 a 5.48,5.48 0 0 1 -3.364,-1.588 c -0.491,-0.529 -0.642,-0.907 -0.718,-1.738 a 3.477,3.477 0 0 1 0.076,-1.361 c 0.113,-0.189 0.189,-0.076 0.189,0.378 0,0.605 0.491,1.512 0.718,1.285 a 2.419,2.419 0 0 0 0.151,-0.87 c 0,-0.415 0.076,-0.755 0.151,-0.755 0.076,0 0.076,-0.378 0.038,-0.756 -0.113,-1.36 0.378,-2.57 1.323,-3.213 0.453,-0.302 0.907,-0.491 1.058,-0.453 0.113,0.037 0.53,0.567 0.907,1.134 0.378,0.566 0.87,1.058 1.02,1.133 0.19,0.076 0.152,-0.075 -0.113,-0.378 -0.793,-0.869 -0.831,-1.058 -0.15,-0.907 0.528,0.152 0.49,0.114 -0.303,-0.453 -1.02,-0.756 -1.134,-0.983 -0.303,-0.756 l 0.567,0.151 -0.604,-0.642 c -0.378,-0.378 -0.53,-0.643 -0.416,-0.643 0.075,0 0,-0.189 -0.19,-0.378 -0.226,-0.264 -0.302,-0.453 -0.15,-0.567 0.302,-0.189 -1.02,-1.512 -1.701,-1.663 -0.303,-0.075 -0.567,-0.227 -0.567,-0.34 0,-0.076 -0.19,-0.189 -0.454,-0.189 -1.096,0 -3.855,-2.003 -4.497,-3.25 -0.53,-0.983 -0.151,-2.192 0.756,-2.57 0.264,-0.076 0.453,-0.227 0.378,-0.303 -0.227,-0.264 -1.323,0.567 -1.588,1.134 -0.529,1.36 0.303,2.797 2.721,4.611 1.55,1.134 1.701,1.399 1.701,2.948 0,0.567 0.151,1.247 0.265,1.55 0.567,1.096 0.189,1.814 -0.87,1.587 -0.377,-0.113 -0.49,-0.113 -0.377,0.076 0.189,0.378 -0.227,0.264 -0.567,-0.114 A 16.176,16.176 0 0 1 22.828,28.43 33.713,33.713 0 0 0 21.165,24.272 c -1.134,-2.23 -1.437,-3.628 -0.87,-4.308 0.53,-0.718 1.852,-1.096 2.533,-0.756 0.302,0.113 0.529,0.378 0.529,0.529 0,0.151 0.189,0.378 0.378,0.416 0.264,0.075 0.453,0.227 0.453,0.302 0,0.227 0.756,0.454 1.663,0.53 0.605,0.075 0.53,0 -0.491,-0.379 -0.907,-0.302 -1.21,-0.491 -1.323,-0.869 -0.189,-0.756 0.076,-1.512 0.68,-2.117 0.454,-0.415 0.68,-0.529 1.361,-0.377 1.096,0.113 1.625,0.68 1.852,1.814 0.416,2.305 0.53,2.532 0.87,2.645 0.188,0 0.377,-0.113 0.377,-0.264 0.038,-0.53 0.076,-0.643 0.227,-0.87 0.076,-0.113 0.189,-1.663 0.265,-3.401 a 21.543,21.543 0 0 1 0.415,-5.065 17.235,17.235 0 0 1 0,-5.971 c 0.378,-0.265 1.701,-0.19 1.89,0.075 z"
       id="path20"
       inkscape:connector-curvature="0" />
    <path
       d="m 14.74,11.951 c 0.34,0.303 0.68,1.058 1.171,2.532 a 48.454,48.454 0 0 0 1.134,3.402 c 0.189,0.756 1.134,3.213 1.776,4.535 l 0.718,1.701 c 0.076,0.227 0.416,0.567 0.794,0.718 0.68,0.303 1.285,1.285 1.814,2.986 0.227,0.756 0.227,0.832 -0.189,1.096 -0.604,0.416 -0.529,0.718 0.114,0.53 0.604,-0.152 0.907,0.15 0.907,0.906 0,0.68 0.907,1.89 1.55,2.004 0.453,0.113 0.528,0.226 0.415,0.604 -0.151,0.53 -0.68,3.175 -0.87,4.271 -0.075,0.53 0,0.87 0.228,1.134 0.378,0.416 0.378,0.416 0.226,-0.378 0,-0.378 0,-0.756 0.076,-0.756 0.076,0 0.491,0.416 0.907,0.945 0.416,0.491 0.945,0.945 1.21,1.058 0.49,0.152 0.34,0.492 -0.265,0.492 -0.19,0 -0.378,0.075 -0.378,0.226 0,0.076 -0.189,0.19 -0.454,0.152 -0.378,-0.038 -0.453,0.037 -0.415,0.302 0.037,0.227 -0.076,0.378 -0.265,0.378 -0.151,0 -0.302,0.076 -0.302,0.227 0,0.15 0.378,0.189 1.285,0.113 0.87,-0.038 1.474,0 1.663,0.151 0.453,0.378 0.453,0.567 0,0.492 a 3.553,3.553 0 0 0 -0.983,0.113 c -1.058,0.227 -2.57,0.189 -2.872,-0.076 a 2.268,2.268 0 0 0 -0.87,-0.302 1.398,1.398 0 0 1 -0.756,-0.264 c -0.226,-0.227 -0.113,-0.227 1.512,-0.303 a 3.78,3.78 0 0 0 0.794,-0.075 c 0,-0.19 -0.832,-0.492 -1.625,-0.605 -0.756,-0.114 -0.907,-0.076 -0.756,0.189 0.227,0.642 -0.454,0.34 -1.323,-0.605 a 10.998,10.998 0 0 1 -2.079,-3.968 c 0,-0.152 -0.113,-0.265 -0.189,-0.265 -0.113,0 -0.226,-0.265 -0.302,-0.605 l -0.34,-1.814 a 29.33,29.33 0 0 1 -0.303,-3.401 c -0.075,-1.21 -0.226,-2.268 -0.34,-2.344 -0.113,-0.15 -0.189,-0.453 -0.189,-0.718 0,-0.264 -0.15,-0.756 -0.302,-1.058 -0.151,-0.303 -0.378,-1.058 -0.454,-1.663 A 3.44,3.44 0 0 0 15.911,22.836 C 15.798,22.761 15.722,22.534 15.722,22.307 A 3.137,3.137 0 0 0 15.42,21.249 c -0.492,-1.134 -1.134,-3.326 -1.02,-3.515 0,-0.076 0,-0.416 -0.19,-0.756 -0.378,-0.756 -1.058,-3.553 -1.02,-4.158 0.038,-0.49 0.567,-1.247 0.87,-1.247 0.075,0 0.377,0.151 0.68,0.378 z m 11.036,14.211 0.226,0.756 c 0.492,1.512 0.87,2.268 1.21,2.57 0.302,0.19 0.567,0.378 0.68,0.378 0.265,0 0.794,-0.756 0.87,-1.247 l -0.038,-0.114 a 3.213,3.213 0 0 0 -1.739,-1.7 c -0.378,-0.114 -0.642,-0.265 -0.642,-0.378 0,-0.151 -0.265,-0.227 -0.567,-0.227 z"
       id="path22"
       inkscape:connector-curvature="0" />
  </g>
</svg>
