<svg xmlns="http://www.w3.org/2000/svg" width="24" height="24"><path d="M11.66.96V2.6L5.6 5.11 4.42 3.93l-.49.5L5.11 5.6l-.99 2.38a.35.35 0 0 0 .65.27l.87-2.11 1.63 1.62-1.62 3.9h-2.3l.88-2.12a.35.35 0 1 0-.64-.27l-.99 2.39H.96v.7H2.6l2.5 6.05-1.13 1.13.5.5L5.6 18.9l6.05 2.5v1.55h.7V21.4l6.06-2.5L19.48 20l.5-.5-1.08-1.07 2.51-6.05h1.55v-.7H21.4L18.9 5.6l1.13-1.13-.5-.49-1.12 1.12-6.06-2.5V.95zm0 2.4v2.3l-3.9 1.6-1.62-1.62zm.7 0l5.52 2.29-1.62 1.62-3.9-1.61V3.53zm6.01 2.78l2.29 5.53h-2.3l-.55-1.3a.35.35 0 0 0-.64.26l.43 1.04h-2.3l-.72-1.75 1.63-1.62.43 1.04a.35.35 0 0 0 .64-.27l-.54-1.3zm-6.7.27v2.3l-1.75.72L8.29 7.8zm.7 0l3.36 1.4-1.63 1.62-1.75-.73zM7.8 8.29l1.62 1.63-.72 1.74H6.4zm3.85 1.17v1.71l-1.2-1.21zm.7 0l1.21.5-1.2 1.21zm-2.4.99l1.21 1.21H9.45zm4.1 0l.5 1.22h-1.7zm-10.7 1.9h2.3l1.62 3.9-1.63 1.63zm3.05 0h2.3l.72 1.75-1.63 1.63zm3.05 0h1.71l-1.2 1.22zm3.4 0l1.7.01-.5 1.2zm2.46.01h2.3l-1.4 3.37-1.62-1.62zm3.05 0h2.3l-2.3 5.53-1.62-1.63zm-6.7.49v1.71l-1.21-.5zm.7 0l1.2 1.21-1.2.51zM9.9 14.6l1.74.72v2.3l-3.36-1.4zm4.19 0l1.62 1.62-3.37 1.4v-2.3zm-6.35 2.15l3.9 1.61v2.3l-5.53-2.3zm8.5 0l1.62 1.63-5.52 2.29v-2.3z" fill="#1a1a1a" stroke-width=".63"/></svg>