<?xml version="1.0" encoding="UTF-8" standalone="no"?>
<svg
   xmlns:dc="http://purl.org/dc/elements/1.1/"
   xmlns:cc="http://creativecommons.org/ns#"
   xmlns:rdf="http://www.w3.org/1999/02/22-rdf-syntax-ns#"
   xmlns:svg="http://www.w3.org/2000/svg"
   xmlns="http://www.w3.org/2000/svg"
   xmlns:sodipodi="http://sodipodi.sourceforge.net/DTD/sodipodi-0.dtd"
   xmlns:inkscape="http://www.inkscape.org/namespaces/inkscape"
   width="24"
   height="24"
   version="1.1"
   id="svg4"
   sodipodi:docname="applications-java.svg"
   inkscape:version="0.92.4 (5da689c313, 2019-01-14)">
  <metadata
     id="metadata10">
    <rdf:RDF>
      <cc:Work
         rdf:about="">
        <dc:format>image/svg+xml</dc:format>
        <dc:type
           rdf:resource="http://purl.org/dc/dcmitype/StillImage" />
        <dc:title></dc:title>
      </cc:Work>
    </rdf:RDF>
  </metadata>
  <defs
     id="defs8" />
  <sodipodi:namedview
     pagecolor="#ffffff"
     bordercolor="#666666"
     borderopacity="1"
     objecttolerance="10"
     gridtolerance="10"
     guidetolerance="10"
     inkscape:pageopacity="0"
     inkscape:pageshadow="2"
     inkscape:window-width="1142"
     inkscape:window-height="480"
     id="namedview6"
     showgrid="false"
     inkscape:zoom="9.8333333"
     inkscape:cx="1.2711864"
     inkscape:cy="12"
     inkscape:window-x="0"
     inkscape:window-y="25"
     inkscape:window-maximized="0"
     inkscape:current-layer="svg4" />
  <path
     d="M 6.4,1.02 C 6.89,3.18 4.65,3.83 3.84,5.17 3.29,6.09 4.12,7.07 5.24,8.19 4.79,7.09 3.31,6.14 5.24,4.47 7.62,2.39 6.39,1.03 6.39,1.03 Z M 7.86,3.7 c 0,0 -4.02,1.1 -2.1,3.57 0.57,0.72 -0.15,1.38 -0.15,1.38 0,0 1.44,-0.83 0.78,-1.86 C 5.77,5.82 5.29,5.35 7.87,3.69 Z m 2.94,1.93 0.22,1.51 h 0.7 l 0.22,-1.5 z m 0.57,2.12 c -1.14,0 -2.28,0.22 -3.35,0.67 h 6.7 A 8.71,8.71 0 0 0 11.37,7.74 Z M 5,9.04 4.67,9.37 6.57,11.7 6.15,9.04 Z m 1.78,0 0.85,5.26 H 9.5 L 9.22,9.04 Z m 3.07,0 0.28,5.26 h 2.5 l 0.28,-5.26 z m 3.68,0 -0.28,5.26 h 1.9 l 0.82,-5.26 z m 3.07,0 -0.2,1.24 h 1.8 c 0.08,0 0.16,0.03 0.21,0.08 l 0.31,0.32 c 0.08,0.07 0.1,0.17 0.09,0.28 l -0.93,4.33 a 0.3,0.3 0 0 1 -0.3,0.26 h -0.62 v 0.92 h 1.92 l 1.45,-6.4 -1.02,-1.03 z m -8.63,5.88 v 1.24 h 6.82 v -1.24 z m 0.62,1.86 v 0.62 h 5.58 V 16.78 Z M 7.62,18.02 6.79,22.98 H 9.23 L 9.5,18.02 Z m 2.5,0 -0.27,4.96 h 3.06 l -0.28,-4.96 z m 3.13,0 0.28,4.96 h 2.44 l -0.82,-4.96 z"
     id="path2"
     inkscape:connector-curvature="0"
     style="clip-rule:evenodd;fill:#1a1a1a;fill-rule:evenodd;stroke-width:0.85000002" />
</svg>
