<?xml version="1.0" encoding="UTF-8" standalone="no"?>
<svg
   xmlns:dc="http://purl.org/dc/elements/1.1/"
   xmlns:cc="http://creativecommons.org/ns#"
   xmlns:rdf="http://www.w3.org/1999/02/22-rdf-syntax-ns#"
   xmlns:svg="http://www.w3.org/2000/svg"
   xmlns="http://www.w3.org/2000/svg"
   xmlns:xlink="http://www.w3.org/1999/xlink"
   xmlns:sodipodi="http://sodipodi.sourceforge.net/DTD/sodipodi-0.dtd"
   xmlns:inkscape="http://www.inkscape.org/namespaces/inkscape"
   height="48"
   width="48"
   version="1.1"
   id="svg22"
   sodipodi:docname="aptdaemon-cleanup.svg"
   inkscape:version="0.92.4 (5da689c313, 2019-01-14)">
  <metadata
     id="metadata26">
    <rdf:RDF>
      <cc:Work
         rdf:about="">
        <dc:format>image/svg+xml</dc:format>
        <dc:type
           rdf:resource="http://purl.org/dc/dcmitype/StillImage" />
        <dc:title></dc:title>
      </cc:Work>
    </rdf:RDF>
  </metadata>
  <sodipodi:namedview
     pagecolor="#ffffff"
     bordercolor="#666666"
     borderopacity="1"
     objecttolerance="10"
     gridtolerance="10"
     guidetolerance="10"
     inkscape:pageopacity="0"
     inkscape:pageshadow="2"
     inkscape:window-width="1112"
     inkscape:window-height="480"
     id="namedview24"
     showgrid="false"
     inkscape:zoom="4.9166667"
     inkscape:cx="2.1355932"
     inkscape:cy="24"
     inkscape:window-x="0"
     inkscape:window-y="25"
     inkscape:window-maximized="0"
     inkscape:current-layer="svg22" />
  <defs
     id="defs8">
    <linearGradient
       id="a">
      <stop
         offset="0"
         id="stop2" />
      <stop
         offset="1"
         stop-opacity="0"
         id="stop4" />
    </linearGradient>
    <linearGradient
       xlink:href="#a"
       id="b"
       x1="10.49"
       y1="29.22"
       x2="45.56"
       y2="29.22"
       gradientUnits="userSpaceOnUse" />
    <linearGradient
       inkscape:collect="always"
       xlink:href="#a"
       id="linearGradient833"
       gradientUnits="userSpaceOnUse"
       x1="10.49"
       y1="29.22"
       x2="45.56"
       y2="29.22" />
  </defs>
  <path
     d="M 23.79,2.44 A 21.77,21.86 0 0 0 2.02,24.3 21.77,21.86 0 0 0 23.79,46.17 21.77,21.86 0 0 0 45.56,24.3 21.77,21.86 0 0 0 23.79,2.44 Z"
     id="path10"
     inkscape:connector-curvature="0"
     style="fill:#008080;fill-opacity:0.98999999;paint-order:markers fill stroke" />
  <g
     id="g14"
     style="fill:url(#b)">
    <path
       d="m 36.62,41.94 a 21.77,21.86 0 0 0 1.2,-0.91 21.77,21.86 0 0 0 1.58,-1.5 21.77,21.86 0 0 0 1.44,-1.63 21.77,21.86 0 0 0 1.27,-1.78 21.77,21.86 0 0 0 1.08,-1.9 21.77,21.86 0 0 0 0.89,-2 21.77,21.86 0 0 0 0.69,-2.07 21.77,21.86 0 0 0 0.47,-2.13 21.77,21.86 0 0 0 0.26,-2.17 21.77,21.86 0 0 0 0.06,-1.55 21.77,21.86 0 0 0 -0.11,-2.18 21.77,21.86 0 0 0 -0.2,-1.33 L 36.73,12.27 21.56,26.89 Z M 20.2,45.87 a 21.77,21.86 0 0 0 2.05,0.25 21.77,21.86 0 0 0 1.54,0.05 21.77,21.86 0 0 0 2.17,-0.1 21.77,21.86 0 0 0 2.15,-0.34 21.77,21.86 0 0 0 2.11,-0.54 21.77,21.86 0 0 0 2.05,-0.75 21.77,21.86 0 0 0 1.95,-0.95 21.77,21.86 0 0 0 1.23,-0.75 l -14.96,-14.96 -10,8.38 z"
       id="path12"
       style="opacity:0.5;fill:url(#linearGradient833)"
       inkscape:connector-curvature="0" />
  </g>
  <path
     d="m 35.65,11.2 1.8,1.79 -12.95,12.98 3.69,3.63 -1.87,1.9 -9.23,-9.07 1.87,-1.9 3.73,3.66 z"
     id="path16"
     inkscape:connector-curvature="0"
     style="fill:#ffffff;paint-order:markers fill stroke" />
  <path
     d="m 22.7,24.2 -0.05,0.03 1.8,1.8 0.06,-0.06 z"
     id="path18"
     inkscape:connector-curvature="0"
     style="fill:#cccccc;fill-opacity:0.95;paint-order:markers fill stroke" />
  <path
     d="m 16.02,23.31 9.57,9.58 -4.88,4.88 c -0.98,1.64 3.98,1.8 6.05,2.67 l -9.4,0.68 C 13.6,39.72 7.04,33.48 8.36,30.98 Z"
     id="path20"
     inkscape:connector-curvature="0"
     style="fill:#ffffff;paint-order:markers fill stroke" />
</svg>
