<?xml version="1.0" encoding="UTF-8" standalone="no"?>
<svg
   xmlns:dc="http://purl.org/dc/elements/1.1/"
   xmlns:cc="http://creativecommons.org/ns#"
   xmlns:rdf="http://www.w3.org/1999/02/22-rdf-syntax-ns#"
   xmlns:svg="http://www.w3.org/2000/svg"
   xmlns="http://www.w3.org/2000/svg"
   xmlns:xlink="http://www.w3.org/1999/xlink"
   xmlns:sodipodi="http://sodipodi.sourceforge.net/DTD/sodipodi-0.dtd"
   xmlns:inkscape="http://www.inkscape.org/namespaces/inkscape"
   width="48"
   height="48"
   version="1.1"
   viewBox="0 0 12.7 12.7"
   id="svg66"
   sodipodi:docname="osd-shutd-screen.svg"
   inkscape:version="0.92.4 (5da689c313, 2019-01-14)">
  <metadata
     id="metadata70">
    <rdf:RDF>
      <cc:Work
         rdf:about="">
        <dc:format>image/svg+xml</dc:format>
        <dc:type
           rdf:resource="http://purl.org/dc/dcmitype/StillImage" />
        <dc:title></dc:title>
      </cc:Work>
    </rdf:RDF>
  </metadata>
  <sodipodi:namedview
     pagecolor="#ffffff"
     bordercolor="#666666"
     borderopacity="1"
     objecttolerance="10"
     gridtolerance="10"
     guidetolerance="10"
     inkscape:pageopacity="0"
     inkscape:pageshadow="2"
     inkscape:window-width="1136"
     inkscape:window-height="480"
     id="namedview68"
     showgrid="false"
     inkscape:zoom="4.9166667"
     inkscape:cx="2.1355932"
     inkscape:cy="24"
     inkscape:window-x="0"
     inkscape:window-y="25"
     inkscape:window-maximized="0"
     inkscape:current-layer="svg66" />
  <defs
     id="defs34">
    <linearGradient
       id="linearGradient849"
       x1=".89406"
       x2=".8818"
       y1="1.8835"
       y2="11.086"
       gradientUnits="userSpaceOnUse">
      <stop
         stop-color="#164450"
         offset="0"
         id="stop2" />
      <stop
         stop-color="#216778"
         offset="1"
         id="stop4" />
    </linearGradient>
    <linearGradient
       id="linearGradient850"
       x1="2.0985"
       x2="12.06"
       y1="7.045"
       y2="7.045"
       gradientTransform="scale(3.7795)"
       gradientUnits="userSpaceOnUse">
      <stop
         offset="0"
         id="stop7" />
      <stop
         stop-opacity="0"
         offset="1"
         id="stop9" />
    </linearGradient>
    <linearGradient
       id="linearGradient892-3"
       x1="3.3034"
       x2="8.4066"
       y1="9.0842"
       y2="9.0842"
       gradientTransform="matrix(0.99998,0,0,0.99998,0.27615,0.27724)"
       gradientUnits="userSpaceOnUse">
      <stop
         offset="0"
         id="stop12" />
      <stop
         stop-opacity="0"
         offset="1"
         id="stop14" />
    </linearGradient>
    <linearGradient
       id="linearGradient867-5"
       x1="2.1625"
       x2="2.1248"
       y1="8.5889"
       y2="2.0481"
       gradientTransform="matrix(0.82773,0,0,-0.82773,-0.61963,12.697)"
       gradientUnits="userSpaceOnUse">
      <stop
         stop-color="#e6e6e6"
         offset="0"
         id="stop17" />
      <stop
         stop-color="#fff"
         offset="1"
         id="stop19" />
    </linearGradient>
    <linearGradient
       id="linearGradient934"
       x1=".89406"
       x2=".8818"
       y1="1.8835"
       y2="11.086"
       gradientUnits="userSpaceOnUse"
       xlink:href="#linearGradient849" />
    <linearGradient
       id="linearGradient936"
       x1="2.0985"
       x2="12.06"
       y1="7.045"
       y2="7.045"
       gradientTransform="scale(3.7795)"
       gradientUnits="userSpaceOnUse"
       xlink:href="#linearGradient850" />
    <linearGradient
       id="linearGradient1019"
       x1="2.1625"
       x2="2.1248"
       y1="8.5889"
       y2="2.0481"
       gradientTransform="matrix(0.82773,0,0,-0.82773,3.0836,9.174)"
       gradientUnits="userSpaceOnUse">
      <stop
         stop-color="#e6e6e6"
         offset="0"
         id="stop24" />
      <stop
         stop-color="#fff"
         offset="1"
         id="stop26" />
    </linearGradient>
    <linearGradient
       id="linearGradient1021"
       x1="2.1803"
       x2="8.3827"
       y1="8.6883"
       y2="8.6883"
       gradientTransform="matrix(0.99998,0,0,0.99998,3.9794,-3.246)"
       gradientUnits="userSpaceOnUse">
      <stop
         offset="0"
         id="stop29" />
      <stop
         stop-opacity="0"
         offset="1"
         id="stop31" />
    </linearGradient>
    <linearGradient
       inkscape:collect="always"
       xlink:href="#linearGradient849"
       id="linearGradient880"
       gradientUnits="userSpaceOnUse"
       x1=".89406"
       y1="1.8835"
       x2=".8818"
       y2="11.086" />
    <linearGradient
       inkscape:collect="always"
       xlink:href="#linearGradient850"
       id="linearGradient882"
       gradientUnits="userSpaceOnUse"
       gradientTransform="scale(3.7795)"
       x1="2.0985"
       y1="7.045"
       x2="12.06"
       y2="7.045" />
  </defs>
  <g
     transform="translate(3.7121,-3.5061)"
     id="g48">
    <g
       transform="matrix(0.74754,0,0,0.74754,-0.11892,3.4865)"
       id="g40">
      <path
         d="M 1.8938,1.9636 A 0.99997,0.99997 0 0 0 0.89406,2.9651 V 9.758 c 0,0.51919 0.40501,0.92136 0.89045,0.97855 h 9.0217 a 0.99997,0.99997 0 0 0 0.99974,-1.0009 v -6.7703 a 0.99997,0.99997 0 0 0 -0.99974,-1.0015 h -8.9124 z"
         id="path36"
         style="fill:url(#linearGradient880);stroke-width:2.32660007"
         inkscape:connector-curvature="0" />
      <path
         transform="scale(0.26458)"
         d="m 12.355,40.578 h 28.486 a 3.7794,3.7794 0 0 0 0.37695,-0.01758 3.7794,3.7794 0 0 0 0.375,-0.05664 3.7794,3.7794 0 0 0 0.36523,-0.09375 3.7794,3.7794 0 0 0 0.35547,-0.12891 3.7794,3.7794 0 0 0 0.33984,-0.16602 3.7794,3.7794 0 0 0 0.32226,-0.19726 3.7794,3.7794 0 0 0 0.30078,-0.22852 3.7794,3.7794 0 0 0 0.27539,-0.25781 3.7794,3.7794 0 0 0 0.25,-0.2832 3.7794,3.7794 0 0 0 0.21875,-0.30664 3.7794,3.7794 0 0 0 0.18945,-0.32812 3.7794,3.7794 0 0 0 0.1543,-0.3457 3.7794,3.7794 0 0 0 0.11914,-0.35742 3.7794,3.7794 0 0 0 0.08203,-0.36914 3.7794,3.7794 0 0 0 0.04492,-0.375 3.7794,3.7794 0 0 0 0.0098,-0.26953 v -20.605 l -4.2441,-4.2422 -32.445,24.205 4.4238,4.4238 z"
         id="path38"
         style="opacity:0.2;fill:url(#linearGradient882)"
         inkscape:connector-curvature="0" />
    </g>
    <path
       d="M 1.8801,10.798 H 7.445 A 0.57362,0.57362 0 0 0 8.01945,10.22438 V 6.27608 A 0.57362,0.57362 0 0 0 7.445,5.70246 H 1.8801 A 0.57362,0.57362 0 0 0 1.30565,6.27608 v 3.9483 A 0.57362,0.57362 0 0 0 1.8801,10.798 Z"
       id="path42"
       style="fill:url(#linearGradient867-5);stroke-width:1.73909998"
       inkscape:connector-curvature="0" />
    <path
       d="m 4.7079,10.798 h 2.7368 a 0.57361,0.57361 0 0 0 0.057361,-0.0026 0.57361,0.57361 0 0 0 0.056842,-0.0083 0.57361,0.57361 0 0 0 0.05581,-0.01447 0.57361,0.57361 0 0 0 0.053742,-0.01964 0.57361,0.57361 0 0 0 0.051675,-0.0248 0.57361,0.57361 0 0 0 0.049093,-0.02997 0.57361,0.57361 0 0 0 0.045476,-0.03462 0.57361,0.57361 0 0 0 0.041857,-0.03876 0.57361,0.57361 0 0 0 0.03824,-0.04289 0.57361,0.57361 0 0 0 0.033072,-0.04703 0.57361,0.57361 0 0 0 0.02894,-0.04961 0.57361,0.57361 0 0 0 0.023254,-0.05219 0.57361,0.57361 0 0 0 0.018087,-0.05426 0.57361,0.57361 0 0 0 0.01292,-0.05581 0.57361,0.57361 0 0 0 0.00672,-0.05736 0.57361,0.57361 0 0 0 0.00156,-0.04134 v -1.0304 l -1.9828,-1.9823 -1.3999,1.0371 -1.0568,1.4206 1.1281,1.1286 z"
       id="path44"
       style="opacity:0.2;fill:url(#linearGradient892-3);stroke-width:0.26458001"
       inkscape:connector-curvature="0" />
    <path
       d="m 3.5786,6.8605 -0.35,0.352 1.053,1.053 -1.054,1.053 0.352,0.351 1.052,-1.053 1.054,1.053 0.351,-0.35 -1.054,-1.054 1.054,-1.054 -0.351,-0.351 -1.054,1.052 z"
       id="path46"
       inkscape:connector-curvature="0"
       style="fill:#da4453;stroke-width:1.56700003" />
  </g>
  <g
     transform="translate(-3.9794,3.246)"
     id="g64">
    <g
       transform="matrix(0.74754,0,0,0.74754,3.5932,-0.019551)"
       id="g54">
      <path
         d="M 1.8938,1.9636 A 0.99997,0.99997 0 0 0 0.89406,2.9651 V 9.758 c 0,0.51919 0.40501,0.92136 0.89045,0.97855 h 9.0217 a 0.99997,0.99997 0 0 0 0.99974,-1.0009 v -6.7703 a 0.99997,0.99997 0 0 0 -0.99974,-1.0015 h -8.9124 z"
         id="path50"
         style="fill:url(#linearGradient934);stroke-width:2.32660007"
         inkscape:connector-curvature="0" />
      <path
         transform="scale(0.26458)"
         d="m 12.355,40.578 h 28.486 a 3.7794,3.7794 0 0 0 0.37695,-0.01758 3.7794,3.7794 0 0 0 0.375,-0.05664 3.7794,3.7794 0 0 0 0.36523,-0.09375 3.7794,3.7794 0 0 0 0.35547,-0.12891 3.7794,3.7794 0 0 0 0.33984,-0.16602 3.7794,3.7794 0 0 0 0.32226,-0.19726 3.7794,3.7794 0 0 0 0.30078,-0.22852 3.7794,3.7794 0 0 0 0.27539,-0.25781 3.7794,3.7794 0 0 0 0.25,-0.2832 3.7794,3.7794 0 0 0 0.21875,-0.30664 3.7794,3.7794 0 0 0 0.18945,-0.32812 3.7794,3.7794 0 0 0 0.1543,-0.3457 3.7794,3.7794 0 0 0 0.11914,-0.35742 3.7794,3.7794 0 0 0 0.08203,-0.36914 3.7794,3.7794 0 0 0 0.04492,-0.375 3.7794,3.7794 0 0 0 0.0098,-0.26953 v -20.605 l -4.2441,-4.2422 -32.445,24.205 4.4238,4.4238 z"
         id="path52"
         style="opacity:0.2;fill:url(#linearGradient936)"
         inkscape:connector-curvature="0" />
    </g>
    <path
       d="m 5.5833,7.275 h 5.5649 A 0.57362,0.57362 0 0 0 11.72265,6.70138 V 2.75308 A 0.57362,0.57362 0 0 0 11.1482,2.17946 H 5.5833 A 0.57362,0.57362 0 0 0 5.00885,2.75308 v 3.9483 A 0.57362,0.57362 0 0 0 5.5833,7.275 Z"
       id="path56"
       style="fill:url(#linearGradient1019);stroke-width:1.73909998"
       inkscape:connector-curvature="0" />
    <path
       d="m 6.7331,7.2748 h 4.4148 A 0.57361,0.57361 0 0 0 11.20526,7.27221 0.57361,0.57361 0 0 0 11.2621,7.26394 0.57361,0.57361 0 0 0 11.31791,7.24947 0.57361,0.57361 0 0 0 11.37165,7.229833 0.57361,0.57361 0 0 0 11.42332,7.205029 0.57361,0.57361 0 0 0 11.47241,7.175057 0.57361,0.57361 0 0 0 11.51789,7.140434 0.57361,0.57361 0 0 0 11.55975,7.101678 0.57361,0.57361 0 0 0 11.59799,7.058787 0.57361,0.57361 0 0 0 11.63106,7.011761 0.57361,0.57361 0 0 0 11.66,6.962152 a 0.57361,0.57361 0 0 0 0.02325,-0.052191 0.57361,0.57361 0 0 0 0.01809,-0.05426 0.57361,0.57361 0 0 0 0.01292,-0.05581 0.57361,0.57361 0 0 0 0.0067,-0.056842 0.57361,0.57361 0 0 0 0.0016,-0.041856 v -2.7493 l -1.1343,-1.1343 -4.4285,3.8835 z"
       id="path58"
       style="opacity:0.2;fill:url(#linearGradient1021);stroke-width:0.26458001"
       inkscape:connector-curvature="0" />
    <path
       d="M 6.3249,2.7119 A 0.28712,0.28712 0 0 0 6.03778,3.00095 v 3.4532 c 0,0.15951 0.12858,0.28809 0.28712,0.28809 h 4.0294 A 0.28712,0.28712 0 0 0 10.64142,6.45415 V 3.00005 A 0.28712,0.28712 0 0 0 10.3543,2.71196 Z"
       id="path60"
       inkscape:connector-curvature="0"
       style="fill:#3daee9;stroke-width:2.03110003" />
    <path
       d="m 6.3249,3.6478 h 4.0294 c 0.03867,0 0.07154,0.032868 0.07154,0.072506 v 2.7339 A 0.071539,0.071539 0 0 1 10.3543,6.525745 H 6.3249 A 0.071539,0.071539 0 0 1 6.253361,6.454206 v -2.7349 c 0,-0.038669 0.031904,-0.071538 0.071539,-0.071539 z"
       id="path62"
       inkscape:connector-curvature="0"
       style="fill:#ffffff;stroke-width:2.03110003" />
  </g>
</svg>
