<?xml version="1.0" encoding="UTF-8" standalone="no"?>
<svg
   xmlns:dc="http://purl.org/dc/elements/1.1/"
   xmlns:cc="http://creativecommons.org/ns#"
   xmlns:rdf="http://www.w3.org/1999/02/22-rdf-syntax-ns#"
   xmlns:svg="http://www.w3.org/2000/svg"
   xmlns="http://www.w3.org/2000/svg"
   xmlns:sodipodi="http://sodipodi.sourceforge.net/DTD/sodipodi-0.dtd"
   xmlns:inkscape="http://www.inkscape.org/namespaces/inkscape"
   width="48"
   height="48"
   version="1.1"
   viewBox="0 0 12.7 12.7"
   id="svg36"
   sodipodi:docname="osd-rotate-flip.svg"
   inkscape:version="0.92.4 (5da689c313, 2019-01-14)">
  <metadata
     id="metadata40">
    <rdf:RDF>
      <cc:Work
         rdf:about="">
        <dc:format>image/svg+xml</dc:format>
        <dc:type
           rdf:resource="http://purl.org/dc/dcmitype/StillImage" />
        <dc:title></dc:title>
      </cc:Work>
    </rdf:RDF>
  </metadata>
  <sodipodi:namedview
     pagecolor="#ffffff"
     bordercolor="#666666"
     borderopacity="1"
     objecttolerance="10"
     gridtolerance="10"
     guidetolerance="10"
     inkscape:pageopacity="0"
     inkscape:pageshadow="2"
     inkscape:window-width="1136"
     inkscape:window-height="480"
     id="namedview38"
     showgrid="false"
     inkscape:zoom="4.9166667"
     inkscape:cx="2.1355932"
     inkscape:cy="24"
     inkscape:window-x="0"
     inkscape:window-y="25"
     inkscape:window-maximized="0"
     inkscape:current-layer="svg36" />
  <defs
     id="defs22">
    <linearGradient
       id="linearGradient864-3"
       x1="5.504"
       x2="10.988"
       y1="7.1131"
       y2="7.1131"
       gradientTransform="matrix(1.1074,0,0,1.1074,-0.68193003,0.40016)"
       gradientUnits="userSpaceOnUse">
      <stop
         offset="0"
         id="stop2" />
      <stop
         stop-opacity="0"
         offset="1"
         id="stop4" />
    </linearGradient>
    <linearGradient
       id="linearGradient832-5"
       x1="2.1625"
       x2="2.1248"
       y1="8.5889"
       y2="2.0481"
       gradientTransform="matrix(1.1074,0,0,-1.1074,-0.68193003,12.3)"
       gradientUnits="userSpaceOnUse">
      <stop
         stop-color="#e6e6e6"
         offset="0"
         id="stop7" />
      <stop
         stop-color="#fff"
         offset="1"
         id="stop9" />
    </linearGradient>
    <linearGradient
       id="linearGradient849"
       x1=".89406"
       x2=".8818"
       y1="1.8835"
       y2="11.086"
       gradientUnits="userSpaceOnUse">
      <stop
         stop-color="#164450"
         offset="0"
         id="stop12" />
      <stop
         stop-color="#216778"
         offset="1"
         id="stop14" />
    </linearGradient>
    <linearGradient
       id="linearGradient850"
       x1="2.0985"
       x2="12.06"
       y1="7.045"
       y2="7.045"
       gradientTransform="scale(3.7795)"
       gradientUnits="userSpaceOnUse">
      <stop
         offset="0"
         id="stop17" />
      <stop
         stop-opacity="0"
         offset="1"
         id="stop19" />
    </linearGradient>
  </defs>
  <g
     transform="translate(-5.0033333e-6,-7.5e-5)"
     id="g28">
    <path
       d="M 1.8938,1.9636 A 0.99997,0.99997 0 0 0 0.89406,2.9651 V 9.758 c 0,0.51919 0.40501,0.92136 0.89045,0.97855 h 9.0217 a 0.99997,0.99997 0 0 0 0.99974,-1.0009 v -6.7703 a 0.99997,0.99997 0 0 0 -0.99974,-1.0015 h -8.9124 z"
       id="path24"
       style="fill:url(#linearGradient849);stroke-width:2.32660007"
       inkscape:connector-curvature="0" />
    <path
       transform="scale(0.26458)"
       d="m 12.355,40.578 h 28.486 a 3.7794,3.7794 0 0 0 0.37695,-0.01758 3.7794,3.7794 0 0 0 0.375,-0.05664 3.7794,3.7794 0 0 0 0.36523,-0.09375 3.7794,3.7794 0 0 0 0.35547,-0.12891 3.7794,3.7794 0 0 0 0.33984,-0.16602 3.7794,3.7794 0 0 0 0.32226,-0.19726 3.7794,3.7794 0 0 0 0.30078,-0.22852 3.7794,3.7794 0 0 0 0.27539,-0.25781 3.7794,3.7794 0 0 0 0.25,-0.2832 3.7794,3.7794 0 0 0 0.21875,-0.30664 3.7794,3.7794 0 0 0 0.18945,-0.32812 3.7794,3.7794 0 0 0 0.1543,-0.3457 3.7794,3.7794 0 0 0 0.11914,-0.35742 3.7794,3.7794 0 0 0 0.08203,-0.36914 3.7794,3.7794 0 0 0 0.04492,-0.375 3.7794,3.7794 0 0 0 0.0098,-0.26953 v -20.605 l -4.2441,-4.2422 -32.445,24.205 4.4238,4.4238 z"
       id="path26"
       style="opacity:0.2;fill:url(#linearGradient850)"
       inkscape:connector-curvature="0" />
  </g>
  <path
     d="m 2.6624,9.7588 h 7.4451 A 0.76743,0.76743 0 0 0 10.87604,8.99137 V 3.70907 A 0.76743,0.76743 0 0 0 10.1075,2.94164 H 2.6624 A 0.76743,0.76743 0 0 0 1.89386,3.70907 v 5.2823 A 0.76743,0.76743 0 0 0 2.6624,9.7588 Z"
     id="path30"
     style="fill:url(#linearGradient832-5);stroke-width:2.32669997"
     inkscape:connector-curvature="0" />
  <path
     d="m 7.3149,9.7587 h 2.7927 A 0.76742,0.76742 0 0 0 10.18428,9.7547 0.76742,0.76742 0 0 0 10.25982,9.743255 0.76742,0.76742 0 0 0 10.33422,9.724371 0.76742,0.76742 0 0 0 10.40633,9.698619 0.76742,0.76742 0 0 0 10.47558,9.664857 0.76742,0.76742 0 0 0 10.54081,9.62537 0.76742,0.76742 0 0 0 10.60204,9.579017 0.76742,0.76742 0 0 0 10.65812,9.526369 0.76742,0.76742 0 0 0 10.70905,9.469144 0.76742,0.76742 0 0 0 10.75368,9.406768 0.76742,0.76742 0 0 0 10.79202,9.340387 0.76742,0.76742 0 0 0 10.8235,9.270001 0.76742,0.76742 0 0 0 10.84754,9.197322 0.76742,0.76742 0 0 0 10.8647,9.122357 0.76742,0.76742 0 0 0 10.8738,9.046248 0.76742,0.76742 0 0 0 10.8761,8.991311 v -0.1528 l -3.5902997,-3.5904 -0.93566,-0.23062 -0.9368,0.23062 0.83607,0.83607 0.10072,2.7096 0.96484,0.96484 z"
     id="path32"
     style="opacity:0.2;fill:url(#linearGradient864-3);stroke-width:0.29300001"
     inkscape:connector-curvature="0" />
  <path
     d="M 6.3501,4.3115 5.41323,5.24837 h 0.69102 v 2.6102 H 5.41323 L 6.3501,8.79433 7.28586,7.85857 H 6.59595 v -2.6102 h 0.68991 z"
     id="path34"
     inkscape:connector-curvature="0"
     style="fill:#3daee9;stroke-width:2.32669997" />
</svg>
