<?xml version="1.0" encoding="UTF-8" standalone="no"?>
<svg
   xmlns:dc="http://purl.org/dc/elements/1.1/"
   xmlns:cc="http://creativecommons.org/ns#"
   xmlns:rdf="http://www.w3.org/1999/02/22-rdf-syntax-ns#"
   xmlns:svg="http://www.w3.org/2000/svg"
   xmlns="http://www.w3.org/2000/svg"
   xmlns:xlink="http://www.w3.org/1999/xlink"
   xmlns:sodipodi="http://sodipodi.sourceforge.net/DTD/sodipodi-0.dtd"
   xmlns:inkscape="http://www.inkscape.org/namespaces/inkscape"
   width="48"
   height="48"
   version="1.1"
   id="svg26"
   sodipodi:docname="semi-starred-rtl.svg"
   inkscape:version="0.92.4 (5da689c313, 2019-01-14)">
  <metadata
     id="metadata30">
    <rdf:RDF>
      <cc:Work
         rdf:about="">
        <dc:format>image/svg+xml</dc:format>
        <dc:type
           rdf:resource="http://purl.org/dc/dcmitype/StillImage" />
        <dc:title></dc:title>
      </cc:Work>
    </rdf:RDF>
  </metadata>
  <sodipodi:namedview
     pagecolor="#ffffff"
     bordercolor="#666666"
     borderopacity="1"
     objecttolerance="10"
     gridtolerance="10"
     guidetolerance="10"
     inkscape:pageopacity="0"
     inkscape:pageshadow="2"
     inkscape:window-width="1112"
     inkscape:window-height="480"
     id="namedview28"
     showgrid="false"
     inkscape:zoom="4.9166667"
     inkscape:cx="2.1355932"
     inkscape:cy="24"
     inkscape:window-x="0"
     inkscape:window-y="25"
     inkscape:window-maximized="0"
     inkscape:current-layer="svg26" />
  <defs
     id="defs14">
    <linearGradient
       id="b">
      <stop
         offset="0"
         stop-color="#1a1a1a"
         id="stop2" />
      <stop
         offset="1"
         stop-color="#666"
         id="stop4" />
    </linearGradient>
    <linearGradient
       id="a">
      <stop
         offset="0"
         id="stop7" />
      <stop
         offset="1"
         stop-opacity="0"
         id="stop9" />
    </linearGradient>
    <linearGradient
       xlink:href="#a"
       id="d"
       gradientUnits="userSpaceOnUse"
       x1="-2.88"
       y1="15.39"
       x2="57.57"
       y2="37.67"
       gradientTransform="matrix(0.9567,0,0,0.9567,1.04,1.04)" />
    <linearGradient
       xlink:href="#b"
       id="c"
       x1="1"
       y1="47.06"
       x2=".88"
       y2=".66"
       gradientUnits="userSpaceOnUse"
       gradientTransform="matrix(0.9567,0,0,0.9567,1.04,1.04)" />
  </defs>
  <ellipse
     cx="23.950001"
     cy="24"
     rx="22.049999"
     ry="22.09"
     id="ellipse16"
     style="fill:url(#c)" />
  <path
     d="m 19.61,45.66 a 22.05,22.1 0 0 0 2.14,0.32 22.05,22.1 0 0 0 2.2,0.11 22.05,22.1 0 0 0 1.56,-0.05 22.05,22.1 0 0 0 2.2,-0.27 22.05,22.1 0 0 0 2.14,-0.48 22.05,22.1 0 0 0 2.1,-0.7 22.05,22.1 0 0 0 2,-0.9 22.05,22.1 0 0 0 1.92,-1.1 22.05,22.1 0 0 0 1.8,-1.28 22.05,22.1 0 0 0 1.65,-1.46 22.05,22.1 0 0 0 1.5,-1.62 22.05,22.1 0 0 0 1.33,-1.76 22.05,22.1 0 0 0 1.15,-1.88 22.05,22.1 0 0 0 0.96,-1.99 22.05,22.1 0 0 0 0.76,-2.07 22.05,22.1 0 0 0 0.54,-2.14 A 22.05,22.1 0 0 0 45.89,26.2 22.05,22.1 0 0 0 46,24 22.05,22.1 0 0 0 45.95,22.44 22.05,22.1 0 0 0 45.68,20.24 22.05,22.1 0 0 0 45.2,18.09 22.05,22.1 0 0 0 44.5,15.99 22.05,22.1 0 0 0 43.77,14.35 l -7.2,-7.2 -12.03,9.5 -10.95,-7.18 0.9,3.95 2.96,8.43 -13.59,8.05 z"
     id="path18"
     style="opacity:0.54000005;fill:url(#d)"
     inkscape:connector-curvature="0" />
  <g
     id="g24"
     style="fill-rule:evenodd">
    <path
       d="m 36.77,7.03 -4.78,14.35 12.35,8.53 -15.17,-0.06 -4.97,14.92 -0.02,-6.5 0.13,0.4 2.9,-8.83 -3.06,-0.01 v -2.05 h 3.74 l 1.84,-5.6 -5.62,-4.03 -0.01,-2.5 z m -3.69,4.97 -7.26,5.12 4.55,3.14 z m -1.74,11.35 -1.48,4.43 h 7.64 z"
       id="path20"
       inkscape:connector-curvature="0"
       style="fill:#e6e6e6" />
    <path
       d="m 11.67,7.15 12.46,8.5 0.01,2.5 -0.03,-0.02 -5.33,3.71 1.96,5.94 h 3.44 v 2.05 l -2.76,-0.02 2.8,8.46 0.02,6.5 -5,-14.96 L 4.1,29.74 16.33,21.09 Z m 3.85,4.85 2.6,7.83 3.85,-2.73 0.39,-0.25 z M 17,23.09 10.27,27.78 h 8.3 z"
       id="path22"
       inkscape:connector-curvature="0"
       style="fill:#ffdd55" />
  </g>
</svg>
