<svg xmlns="http://www.w3.org/2000/svg" xmlns:xlink="http://www.w3.org/1999/xlink" width="48" height="48" viewBox="0 0 12.7 12.7"><defs><linearGradient id="a"><stop offset="0" stop-color="#216778"/><stop offset="1" stop-color="#5fbcd3"/></linearGradient><linearGradient xlink:href="#a" id="b" x1="6.34" y1="293.99" x2="6.23" y2="284.36" gradientUnits="userSpaceOnUse"/></defs><path d="M6.23 284.36c-1.52.01-3.09.72-4.73 2.31V294h9.69v-7.32c-1.6-1.46-3.24-2.33-4.96-2.31z" fill="url(#b)" transform="translate(0 -284.3)"/><path fill="#164450" d="M1.03 9.68h10.7v1.27H1.03z"/><path fill="#216778" d="M-.03 10.93h12.76v1.76H-.03z"/><path d="M2.74 1.33h-.02c-.4.3-.81.64-1.22 1.04V9.68h-.47v1.25H-.03v1.77h3.4v-1.77h-.4V9.68h-.23zm7.14 0v8.35h-.1v1.25h-.44v1.77h3.39v-1.77h-1V9.68h-.54V2.37c-.43-.4-.87-.74-1.31-1.04z" opacity=".5"/><path d="M9.52-.17l-1.54 1s.22.18.13.45L6.23 5.4c-.12.08-.25.13-.38.07-.3-.14-.17-.74-.08-1.02.02-.08 0-.1-.06-.04l-.55.55a.34.34 0 0 0-.08.26c.04.26.1.79-.02 1.04-.13.3-1.3 1-1.7 1.25a.2.2 0 0 0-.09.22c.2.67.16 1.55.13 1.9 0 .08.03.1.1.04.77-.79 1.51-.82 1.72-.72.18.08.26 1.49.28 1.96 0 .09.05.1.11.04l1.03-1.18a.38.38 0 0 0 .08-.26 5.35 5.35 0 0 1-.03-1.83c.14-.3.48-.5.68-.6a.32.32 0 0 0 .16-.2l.09-.59c.01-.08-.01-.09-.06-.02-.15.2-.5.58-.88.4-.17-.08-.22-.3-.22-.55l2.12-4.66c.04-.08.15-.24.3-.24 0 0 .27-.76.6-.87 0 0 .01-.3.04-.53zM5.56 6.49l.06.01.1.05.45.2.04.02c.08.03.11.13.08.2l-.1.22a.15.15 0 0 1-.2.08L5.38 7a.15.15 0 0 1-.08-.2l.1-.22a.15.15 0 0 1 .15-.1zm-.4.89l.05.01.6.27c.07.04.1.13.07.2l-.1.23a.15.15 0 0 1-.2.07l-.6-.27a.15.15 0 0 1-.07-.2l.1-.22a.15.15 0 0 1 .14-.09z" fill="#1c1f24"/></svg>