<svg xmlns="http://www.w3.org/2000/svg" xmlns:xlink="http://www.w3.org/1999/xlink" width="48" height="48" viewBox="0 0 12.7 12.7"><defs><linearGradient id="a"><stop offset="0" stop-color="#216778"/><stop offset="1" stop-color="#5fbcd3"/></linearGradient><linearGradient xlink:href="#a" id="b" x1="6.34" y1="293.99" x2="6.23" y2="284.36" gradientUnits="userSpaceOnUse"/></defs><path d="M6.23 284.36c-1.52.01-3.09.72-4.73 2.31V294h9.69v-7.32c-1.6-1.46-3.24-2.33-4.96-2.31z" fill="url(#b)" transform="translate(0 -284.3)"/><path fill="#164450" d="M1.03 9.68h10.7v1.27H1.03z"/><path fill="#216778" d="M-.03 10.93h12.76v1.76H-.03z"/><path d="M2.74 1.33h-.02c-.4.3-.81.64-1.22 1.04V9.68h-.47v1.25H-.03v1.77h3.4v-1.77h-.4V9.68h-.23zm7.14 0v8.35h-.1v1.25h-.44v1.77h3.39v-1.77h-1V9.68h-.54V2.37c-.43-.4-.87-.74-1.31-1.04z" opacity=".5"/><g transform="translate(15.88 -284.3)" fill="#1c1f24"><path d="M-9.3 288.16a.1.1 0 0 0-.1.17c.02 0 .06.03.06.1v.28a.29.29 0 0 0-.4-.01l.01-.27c0-.07.04-.1.05-.1a.1.1 0 0 0-.09-.17c-.06.02-.15.1-.15.27l-.01.58c0 .05.04.1.1.1h.57a.1.1 0 0 0 .1-.1v-.57c.01-.16-.08-.25-.14-.28zM-9.76 289.64a.1.1 0 0 0 0-.1.1.1 0 0 0-.02-.13l-.98-.72a.42.42 0 0 1-.09-.11l-.52-1.08a.1.1 0 0 0-.17.08l.52 1.08c.03.06.09.14.15.18l.91.69-.88.31a.4.4 0 0 0-.2.14l-.29.42a.39.39 0 0 0-.06.24l.08.58a.1.1 0 1 0 .19-.02l-.08-.58c0-.03.01-.09.03-.11l.28-.42a.22.22 0 0 1 .1-.07l.75-.26-.5.55a.6.6 0 0 0-.11.19l-.35.88a.55.55 0 0 0-.01.23l.16.88a.1.1 0 1 0 .2-.04l-.17-.87v-.14l.35-.87a.4.4 0 0 1 .07-.13l.63-.7a.1.1 0 0 0 0-.1zM-8.06 288.7l.55-1.06a.1.1 0 1 0-.17-.09l-.55 1.06a.42.42 0 0 1-.1.12l-.99.7a.1.1 0 0 0-.03.12v.01a.1.1 0 0 0 0 .08.1.1 0 0 0 .01.12l.6.7a.4.4 0 0 1 .08.13l.31.89v.13l-.18.87a.1.1 0 0 0 .19.04l.18-.86a.55.55 0 0 0 0-.24l-.32-.9a.6.6 0 0 0-.1-.18l-.49-.56.73.28c.04.01.09.05.1.07l.27.42a.2.2 0 0 1 .03.11l-.1.58a.1.1 0 0 0 .2.03l.09-.58a.39.39 0 0 0-.05-.24l-.28-.42a.4.4 0 0 0-.2-.15l-.87-.34.94-.66a.6.6 0 0 0 .15-.18z"/><ellipse cx="-5.38" cy="289.65" rx=".48" ry=".53" transform="rotate(.83)"/><path d="M-10.15 290.74c0-.45.27-.86.6-.86.31 0 .56.43.56.88s-.27.77-.6.76c-.31 0-.57-.33-.56-.78zM-8.24 286.62a.1.1 0 0 0-.11.08l-.29 1.25-.05.17-.23.59a.44.44 0 0 1-.08.12l-.29.27a.45.45 0 0 0-.52 0l-.27-.29a.44.44 0 0 1-.08-.12l-.21-.6a1.47 1.47 0 0 1-.05-.17l-.25-1.26a.1.1 0 1 0-.19.04l.25 1.26.06.2.2.6c.03.06.08.14.13.19l.28.28a.6.6 0 0 0-.03.05c.08.19.23.31.42.31.18 0 .34-.11.42-.3a.53.53 0 0 0-.03-.05l.29-.27a.6.6 0 0 0 .13-.2l.23-.58.06-.2.29-1.25a.1.1 0 0 0-.08-.12z"/></g></svg>