<svg xmlns="http://www.w3.org/2000/svg" xmlns:xlink="http://www.w3.org/1999/xlink" width="48" height="48"><defs><linearGradient id="a"><stop offset="0"/><stop offset="1" stop-opacity="0"/></linearGradient><linearGradient xlink:href="#a" id="d" gradientUnits="userSpaceOnUse" x1="10.33" y1="28.9" x2="54.48" y2="28.9"/><linearGradient xlink:href="#b" id="c" x1="1.09" y1="1" x2="46.91" y2="47" gradientUnits="userSpaceOnUse"/><linearGradient id="b"><stop offset="0" stop-color="#37abc8"/><stop offset="1" stop-color="#87cdde"/></linearGradient></defs><rect width="45.83" height="46" x="1.09" y="1" ry="5.05" fill="url(#c)" fill-rule="evenodd"/><path d="M18.33 47h23.53a5.06 5.06 0 0 0 5.05-5.05v-22.6l-8.86-8.86-4.3-1.05-.78 3.35.25 1.1-1.38 1.2 1.33 1.73-5.22 7.27 1.33 1.74-6.25 4.84-1.7-1.7-1.92 1.04-3.38-.89-1.6 5.7-4.1 4.19z" opacity=".5" fill="url(#d)"/><path d="M33.17 16.82l-3.9 7.92-1.32-.65 3.9-7.93zm4.88-6.33l-.36.67c-.42.77-1.28 2.34-2.5 2.66l-1.14 2.34-2.2-1.07 1.12-2.3c-.53-1.24.24-3.07.6-3.87l.22-.54zm-1.86 1.25l-2.24-1.1c-.26.94-.33 1.81.33 2.14.7.35 1.34-.2 1.9-1.04zm-11.9 20.62a4.6 4.6 0 0 1 3.25.75c.22.18.4.37.6.57l.8-1.61.35-.74 1.2-2.45c.17-.34-.6-.98-1.87-1.7l.66-1.35-2.2-1.1-.68 1.35a7.88 7.88 0 0 0-2.15-.57c-.19 0-.31.04-.35.13l-1.65 3.35-.76 1.52-.02.06a.62.62 0 0 0-.03.4 4.57 4.57 0 0 1 2.85 1.4zm8.32 3.1c0-.79-.74-1.02-1.3-1.02a1.17 1.17 0 0 0-.45.1c.22-.32.34-.71.34-1.13 0-.9-.47-1.6-1.09-1.77l-1.3 2.6a.94.94 0 0 1-.17.25c.27.56.43 1.22.5 1.98a.51.51 0 0 1-1.02.09c-.1-1.21-.5-2.1-1.2-2.63-1.13-.84-2.68-.53-2.71-.53l-.28.06-.2-.21c-2.48-2.65-5.03-.4-5.14-.28a.52.52 0 0 1-.7-.77 5.1 5.1 0 0 1 2.69-1.21 1.02 1.02 0 0 1 .07-.62l.24-.48.44-.92c-.3 0-.27.03-.56.12a4.4 4.4 0 0 0-3.5-1.7 4.34 4.34 0 0 0-4.25 5.32c-1.38.58-2.3 1.61-2.3 2.81 0 .38.09.74.26 1.08-.62.26-1.03.79-1.03 1.38 0 .8.75 1.45 1.73 1.56v.03h19.87l.24.02h.01l.34.03c1.18 0 2.15-.94 2.15-2.11a2.15 2.15 0 0 0-1.68-2.06z" fill="#1a1a1a"/></svg>