<?xml version="1.0" encoding="UTF-8" standalone="no"?>
<!-- Created with Inkscape (http://www.inkscape.org/) -->

<svg
   xmlns:dc="http://purl.org/dc/elements/1.1/"
   xmlns:cc="http://creativecommons.org/ns#"
   xmlns:rdf="http://www.w3.org/1999/02/22-rdf-syntax-ns#"
   xmlns:svg="http://www.w3.org/2000/svg"
   xmlns="http://www.w3.org/2000/svg"
   xmlns:xlink="http://www.w3.org/1999/xlink"
   xmlns:sodipodi="http://sodipodi.sourceforge.net/DTD/sodipodi-0.dtd"
   xmlns:inkscape="http://www.inkscape.org/namespaces/inkscape"
   id="svg11300"
   width="24"
   height="24"
   version="1.0"
   sodipodi:docname="applications-graphics.svg"
   inkscape:version="0.92.3 (2405546, 2018-03-11)">
  <metadata
     id="metadata58">
    <rdf:RDF>
      <cc:Work
         rdf:about="">
        <dc:format>image/svg+xml</dc:format>
        <dc:type
           rdf:resource="http://purl.org/dc/dcmitype/StillImage" />
      </cc:Work>
    </rdf:RDF>
  </metadata>
  <sodipodi:namedview
     pagecolor="#ffffff"
     bordercolor="#666666"
     borderopacity="1"
     objecttolerance="10"
     gridtolerance="10"
     guidetolerance="10"
     inkscape:pageopacity="0"
     inkscape:pageshadow="2"
     inkscape:window-width="1366"
     inkscape:window-height="690"
     id="namedview56"
     showgrid="false"
     inkscape:zoom="13.906433"
     inkscape:cx="12"
     inkscape:cy="12"
     inkscape:window-x="0"
     inkscape:window-y="28"
     inkscape:window-maximized="1"
     inkscape:current-layer="svg11300" />
  <defs
     id="defs3">
    <radialGradient
       id="radialGradient6075"
       cx="26.782"
       cy="42.343"
       r="14.407"
       gradientTransform="matrix(1 0 0 .28221 0 30.394)"
       gradientUnits="userSpaceOnUse"
       xlink:href="#linearGradient6975" />
    <linearGradient
       id="linearGradient6975">
      <stop
         id="stop6977"
         offset="0" />
      <stop
         id="stop6979"
         style="stop-opacity:0"
         offset="1" />
    </linearGradient>
    <linearGradient
       id="linearGradient6651">
      <stop
         id="stop6653"
         style="stop-color:#f2f2f2"
         offset="0" />
      <stop
         id="stop6655"
         style="stop-color:#c3c3c3"
         offset="1" />
    </linearGradient>
    <linearGradient
       id="linearGradient4103">
      <stop
         id="stop4105"
         style="stop-color:#edd563"
         offset="0" />
      <stop
         id="stop4107"
         style="stop-color:#e08223"
         offset="1" />
    </linearGradient>
    <linearGradient
       id="linearGradient5532"
       x1="48.25"
       x2="48.25"
       y1="52"
       y2="74.5"
       gradientTransform="matrix(.22223 0 0 .26667 4.7775 -3.8667)"
       gradientUnits="userSpaceOnUse">
      <stop
         id="stop6837"
         style="stop-color:#fff"
         offset="0" />
      <stop
         id="stop6839"
         style="stop-color:#fff;stop-opacity:0"
         offset="1" />
    </linearGradient>
    <radialGradient
       id="radialGradient5535"
       cx="12.995"
       cy="11.209"
       r="4"
       gradientTransform="matrix(1 0 0 1.625 1 -8.0625)"
       gradientUnits="userSpaceOnUse">
      <stop
         id="stop5115"
         style="stop-color:#fff"
         offset="0" />
      <stop
         id="stop5117"
         style="stop-color:#fff;stop-opacity:0"
         offset="1" />
    </radialGradient>
    <linearGradient
       id="linearGradient5539"
       x1="60.169"
       x2="60.441"
       y1="40.12"
       y2="43.87"
       gradientTransform="matrix(.40588 0 0 .39166 -7.7895 5.0489)"
       gradientUnits="userSpaceOnUse"
       xlink:href="#linearGradient6651" />
    <linearGradient
       id="linearGradient5542"
       x1="42.816"
       x2="54.065"
       y1="64.564"
       y2="64.52"
       gradientTransform="matrix(.44295 0 0 .41355 -6.2383 -12.649)"
       gradientUnits="userSpaceOnUse"
       xlink:href="#linearGradient4103" />
    <linearGradient
       id="linearGradient5545"
       x1="61.872"
       x2="61.872"
       y1="29.615"
       y2="41.459"
       gradientTransform="matrix(.47513 0 0 .2901 -12.277 8.9729)"
       gradientUnits="userSpaceOnUse">
      <stop
         id="stop6631"
         style="stop-color:#aeaeae"
         offset="0" />
      <stop
         id="stop6633"
         style="stop-color:#c4c4c4;stop-opacity:0"
         offset="1" />
    </linearGradient>
    <linearGradient
       id="linearGradient5548"
       x1="53.169"
       x2="69.691"
       y1="24.245"
       y2="24.245"
       gradientTransform="matrix(.54268 0 0 .33737 -15.798 7.3327)"
       gradientUnits="userSpaceOnUse"
       xlink:href="#linearGradient6651" />
    <linearGradient
       id="linearGradient5551"
       x1="52.718"
       x2="67.466"
       y1="2.3162"
       y2="2.3162"
       gradientTransform="matrix(.65461 0 0 .43439 -22.337 6.2419)"
       gradientUnits="userSpaceOnUse"
       xlink:href="#linearGradient4103" />
    <linearGradient
       id="linearGradient5553"
       x1="107"
       x2="115"
       y1="36"
       y2="36"
       gradientTransform="matrix(1.3157 0 0 1.2396 -129.05 -38.126)"
       gradientUnits="userSpaceOnUse">
      <stop
         id="stop6470"
         style="stop-color:#cd8033"
         offset="0" />
      <stop
         id="stop6472"
         style="stop-color:#bb5e12"
         offset="1" />
    </linearGradient>
    <radialGradient
       id="radialGradient5556"
       cx="15.415"
       cy="35.357"
       r="7.5792"
       gradientTransform="matrix(.47209 0 0 .47512 -2.0095 2.0966)"
       gradientUnits="userSpaceOnUse">
      <stop
         id="stop6965"
         style="stop-color:#696969"
         offset="0" />
      <stop
         id="stop6967"
         offset="1" />
    </radialGradient>
    <linearGradient
       id="linearGradient5559"
       x1="20.251"
       x2="22.012"
       y1="29.811"
       y2="31.724"
       gradientTransform="matrix(.49251 0 0 .52721 -1.7832 -.31891)"
       gradientUnits="userSpaceOnUse"
       xlink:href="#linearGradient6651" />
    <linearGradient
       id="linearGradient5562"
       x1="28.059"
       x2="33.437"
       y1="18.868"
       y2="23.743"
       gradientTransform="matrix(.49294 0 0 .51865 -1.7924 -.028504)"
       gradientUnits="userSpaceOnUse">
      <stop
         id="stop6953"
         style="stop-color:#6e3d09"
         offset="0" />
      <stop
         id="stop6959"
         style="stop-color:#ea8113"
         offset=".24242" />
      <stop
         id="stop6961"
         style="stop-color:#5c3307"
         offset=".62121" />
      <stop
         id="stop6955"
         style="stop-color:#e07c12"
         offset="1" />
    </linearGradient>
  </defs>
  <path
     id="path2"
     d="m 15.90012,4.9016548 c 0,0.2730099 -0.221272,0.4942819 -0.494513,0.4942819 -0.27301,0 -0.494282,-0.221272 -0.494282,-0.4942819 0,-0.2727789 0.221272,-0.4940509 0.494282,-0.4940509 0.273241,0 0.494513,0.221272 0.494513,0.4940509 z m 4.239044,9.7135622 c 0,0 -0.972164,1.100586 -0.972164,1.637598 0,0.537011 0.435383,0.972164 0.972164,0.972164 0.53655,0 0.971934,-0.435153 0.971934,-0.972164 0,-0.537012 -0.971934,-1.637598 -0.971934,-1.637598 z m -1.203137,-3.014426 c 0,-0.06352 0.01224,-0.136736 0.03234,-0.214343 l -0.138122,0.18293 c -1.043535,1.144009 -2.254988,2.161213 -3.559522,3.039603 -1.561376,1.318393 -3.329935,2.46679 -5.233844,3.114207 l -0.2411361,0.08176 -1.9849805,-1.430415 -5.5371116,4.951134 c -0.2358233,0.210647 -0.5300827,0.314354 -0.8229562,0.314354 -0.3395301,0 -0.67721234,-0.139046 -0.92135063,-0.412056 C 0.0743235,20.719367 0.11820834,19.938448 0.62681051,19.483662 L 5.7581029,14.895387 5.5749414,14.763271 5.4885576,14.676887 5.1894478,14.3429 C 5.110917,14.117933 5.1857522,13.916524 5.4114127,13.743526 6.8254283,12.659339 11.631742,8.6120023 14.109849,2.0465997 l 0.209031,-0.5543348 7.88241,4.7409483 -0.247834,0.4217564 c -0.05405,0.092158 -0.430303,0.7243308 -1.07079,1.6468362 -0.128652,0.3261337 -0.282942,0.6559629 -0.294722,0.9393665 l -0.03649,0.048273 c 0.348307,0.4568642 0.790851,1.1158297 0.790851,1.5191087 0,0.662892 -0.535857,1.199904 -1.198287,1.202675 -0.109712,0.266774 -0.319436,0.449936 -0.563112,0.449936 -0.35616,0 -0.644876,-0.385263 -0.644876,-0.860374 z m 1.587245,-4.6705018 c 0.02425,0.00993 0.0425,0.021942 0.0649,0.032567 0.0984,-0.1492084 0.184086,-0.2817868 0.254994,-0.3931157 L 14.818936,2.9462388 C 12.419821,8.8764662 8.2385201,12.730017 6.4491736,14.182836 l 3.5073224,2.520607 c 0.190553,-0.06998 0.379488,-0.146668 0.567269,-0.227047 C 9.8451671,15.918597 9.1249938,15.221983 8.8850131,14.369 8.6505757,13.535881 9.3039978,13.185264 9.9839818,13.073474 c -0.00739,-0.42499 0.1339642,-0.807251 0.6356372,-0.968008 0.297955,-0.09562 1.681713,0.440235 1.70943,0.35362 0.110405,-0.342764 0.417137,-0.492665 0.759901,-0.431457 0.694766,0.123801 0.571426,0.377871 0.390344,-0.23975 -0.06213,-0.211802 -0.138122,-0.450397 -0.136043,-0.67421 0.0044,-0.498208 0.195634,-0.934747 0.669359,-1.1377721 0.4012,-0.1723057 0.775376,-0.023559 0.863838,-0.6312487 0.03857,-0.2649259 0.09816,-0.578356 0.293567,-0.7809192 0.453399,-0.4697987 0.801706,-0.3931157 1.424409,-0.3880343 1.063168,0.00878 1.256261,-0.7675227 2.115942,-1.1620243 0.505138,-0.2312038 1.293217,-0.2970311 1.812906,-0.083381 z m 1.856329,9.3280688 c 0,0 -1.450741,1.642448 -1.450741,2.444154 0,0.801245 0.649727,1.450741 1.450741,1.450741 0.801013,0 1.45074,-0.649496 1.45074,-1.450741 0,-0.801706 -1.45074,-2.444154 -1.45074,-2.444154 z"
     inkscape:connector-curvature="0"
     style="stroke-width:0.23097283;fill:#1a1a1a;fill-opacity:1;stroke:none;stroke-opacity:1" />
</svg>
