<svg xmlns="http://www.w3.org/2000/svg" width="24" height="24"><defs><linearGradient id="f"><stop offset="0" stop-color="#000006"/><stop offset="1" stop-color="#000006" stop-opacity="0"/></linearGradient><linearGradient id="e"><stop offset="0" stop-color="#784421"/><stop offset="1" stop-color="#d38d5f"/></linearGradient><linearGradient id="a"><stop offset="0" stop-color="#25190e"/><stop offset="1" stop-opacity="0"/></linearGradient><linearGradient id="b"><stop offset="0" stop-color="#999"/><stop offset=".6" stop-color="#3d3d3d"/><stop offset="1"/></linearGradient><linearGradient id="c"><stop offset="0" stop-color="#dedede"/><stop offset="1" stop-color="#f5f5f5"/></linearGradient><linearGradient id="d"><stop offset="0" stop-color="#bababa"/><stop offset="1" stop-color="#e8e8e8"/></linearGradient></defs><path d="M16.6.5c-.22 0-.6.49-.89.93-.67 1-1.3 2.1-1.98 3.49-.68 1.36-.74 1.32-.66 4.16a5.3 5.3 0 0 0-.42-.02c-.44.04-.85.14-1.21.28l-.02-.04c-1.23-1.82-3.24-3.5-5.7-4.9-.21-.11-.37-.16-.47-.16-.75.05.82 2.88 1.29 3.6a26.63 26.63 0 0 0 2.82 3.28l-.16.29c-.1.32-.16.67-.16 1.06 0 1.35.42 2.39.3 3.75-.16 1.86-1.54 2.98-.93 4.65l.03.12a3.75 3.75 0 0 0 .93 1.31c.27.23.64.4 1.06.5a6.06 6.06 0 0 0 1.26.16h.1c1.12.04 2.3-.1 3-.13.17 0 .33-.03.5-.05l.16-.04a1.6 1.6 0 0 0 1.36.76 1.6 1.6 0 0 0 1.6-1.6 1.6 1.6 0 0 0-.17-.74 2.66 2.66 0 0 0 .71-1.92c0-.52-.16-1.07-.52-1.63-1.18-1.83-2.45-4.08-2.52-6.52a1.88 1.88 0 0 0-.35-.94c-.17-.21-.4-.39-.64-.53l.19-.42c1-2.02 1.37-5.1 1.66-7.54.1-.86.01-1.16-.16-1.16zm-1.87 11.77c.31 0 .67.08.84.21.35.27.52.9.6 1.23.09.33.11.83.1 1.42 0 .6-1.75.29-2.11.03-.37-.25-.56-.47-.56-1.03 0-.43.53-1.75.85-1.83.08-.02.18-.03.28-.03zm-3.81 0c.16 0 .33.06.52.18.39.25 1 1.03 1.07 1.5.16 1.18-.53 1.62-1.37 2-.84.4-1.21-1.46-1.27-2.13-.07-.74.35-1.6 1.05-1.55zm.54 1.6a.53.53 0 0 0-.53.54.53.53 0 0 0 .53.53.53.53 0 0 0 .54-.53.53.53 0 0 0-.54-.54zm3.21 0a.53.53 0 0 0-.53.54.53.53 0 0 0 .53.53.53.53 0 0 0 .54-.53.53.53 0 0 0-.54-.54zm2.02 2.28c.45.16.74.5.74 1.26 0 .69-1.06 1.7-1.37 2.65a6.18 6.18 0 0 1-.06-.8c0-.83.3-2.27.69-3.11zm-6.86 1.32c.63.82 1.12 1.58 1.57 2.46.21.41.29.87.31 1.36-.11-1.14-2.18-1.36-2.18-2.96 0-.33.1-.61.3-.86z" fill="#1a1a1a"/></svg>