<svg xmlns="http://www.w3.org/2000/svg" width="24" height="24"><defs><linearGradient id="a"><stop offset="0"/><stop offset="1" stop-opacity="0"/></linearGradient></defs><path d="M20.78 1.02a2.97 2.97 0 0 0-1.3.29 3.23 3.23 0 0 0-1.37 1.46 3.77 3.77 0 0 0-.08 2.27l.34.96c.24.6.33 1.93.18 2.67a5.1 5.1 0 0 1-1.3 2.46 4.45 4.45 0 0 1-6.38.06c-.63-.6-.7-.77-3.56-5.93a29.5 29.5 0 0 0-1.99-3.38 2.76 2.76 0 0 0-2.04-.84C1.73 1.04.66 2.24.43 3.57c-.18 1.07-.3.89 4.69 9.9a149.47 149.47 0 0 0 4.86 8.6 2.7 2.7 0 0 0 3.27.6c.29-.11.62-.39.86-.62.41-.5 9.28-16.61 9.43-17.18.15-.6.12-1.4-.09-1.98a3.14 3.14 0 0 0-1.63-1.7 2.83 2.83 0 0 0-1.04-.17z" fill="#1a1a1a"/></svg>