<svg xmlns="http://www.w3.org/2000/svg" xmlns:xlink="http://www.w3.org/1999/xlink" viewBox="0 0 48 48"><defs><linearGradient id="b"><stop offset="0" stop-color="#f4d7ee"/><stop offset="1" stop-color="#feffff" stop-opacity="0"/></linearGradient><linearGradient id="c"><stop offset="0" stop-color="#feffff"/><stop offset="1" stop-color="#feffff" stop-opacity="0"/></linearGradient><linearGradient id="a"><stop offset="0"/><stop stop-opacity="0" offset="1"/></linearGradient><linearGradient id="j" x1="28.58" x2="16.74" y1="21.52" y2="21.77" gradientTransform="translate(-43.49 -1.82)" gradientUnits="userSpaceOnUse" xlink:href="#a"/><linearGradient id="i" x1="29.45" x2="28.82" y1="6.72" y2="9.11" gradientTransform="translate(-43.49 -1.82)" gradientUnits="userSpaceOnUse" xlink:href="#a"/><filter id="e" x="-.03" y="-.02" width="1.05" height="1.04" color-interpolation-filters="sRGB"><feGaussianBlur stdDeviation=".3"/></filter><linearGradient id="d" x1="24.32" x2="23.71" y1="66.31" y2=".49" gradientUnits="userSpaceOnUse"><stop stop-color="#fff" offset="0"/><stop stop-color="#ac93a7" offset=".57"/><stop stop-color="#916f8a" offset="1"/></linearGradient><radialGradient xlink:href="#b" id="f" cx="19.91" cy="33.09" fx="19.91" fy="33.09" r="2.12" gradientTransform="matrix(.30625 -.63872 .65567 .31438 4.5 36.06)" gradientUnits="userSpaceOnUse"/><linearGradient id="k" x1="24.41" x2="22.97" y1="25.64" y2="24.97" gradientTransform="translate(-43.49 -1.82)" gradientUnits="userSpaceOnUse" xlink:href="#c"/><linearGradient id="l" x1="26.85" x2="24.55" y1="20.66" y2="20.13" gradientTransform="translate(-43.49 -1.82)" gradientUnits="userSpaceOnUse" xlink:href="#c"/><radialGradient xlink:href="#b" id="g" cx="19.91" cy="33.09" fx="19.91" fy="33.09" r="2.12" gradientTransform="matrix(.30625 -.63872 .65567 .31438 -1.5 36.06)" gradientUnits="userSpaceOnUse"/><radialGradient xlink:href="#b" id="h" cx="19.91" cy="33.09" fx="19.91" fy="33.09" r="2.12" gradientTransform="matrix(.30625 -.63872 .65567 .31438 -7.33 36.25)" gradientUnits="userSpaceOnUse"/><linearGradient id="m" x1="39.58" x2="36.71" y1="3.72" y2="18.37" gradientUnits="userSpaceOnUse" xlink:href="#a" gradientTransform="translate(20)"/><radialGradient xlink:href="#c" id="n" cx="27.57" cy="18.76" fx="27.57" fy="18.76" r="6.96" gradientTransform="matrix(1.32866 .55481 -.0648 .15519 14.85 -7.96)" gradientUnits="userSpaceOnUse"/></defs><path fill="#e3dbde" d="M23.71.5C17.88.5 13.2 1.6 9.78 3.82 5.68 6.48 3.5 10.73 3.5 16.1c0 7.22 5.8 16.88 7.58 19.67a54.47 54.47 0 0 0 6.25 8.16c2.54 2.64 4.57 3.87 6.37 3.87 1.8 0 3.83-1.23 6.37-3.87 2-2.08 4.22-4.98 6.25-8.16 1.78-2.79 7.59-12.45 7.59-19.67 0-5.37-2.17-9.62-6.27-12.27C34.23 1.6 29.55.49 23.7.49z"/><path d="M23.71.5C17.88.5 13.2 1.6 9.78 3.82 5.68 6.48 3.5 10.73 3.5 16.1c0 7.22 5.8 16.88 7.58 19.67a54.47 54.47 0 0 0 6.25 8.16c2.54 2.64 4.57 3.87 6.37 3.87 1.8 0 3.83-1.23 6.37-3.87 2-2.08 4.22-4.98 6.25-8.16 1.78-2.79 7.59-12.45 7.59-19.67 0-5.37-2.17-9.62-6.27-12.27C34.23 1.6 29.55.49 23.7.49z" fill="url(#d)"/><path d="M21.7 34.99a2.12 2.18 0 0 1-4.25 0 2.12 2.18 0 1 1 4.24 0zm1.62-30.85c.1 0 .22.04.33.1a.72.72 0 0 1 .35.78l-.12.54c.24.08.76.25 1.47.51C28.87 7.4 37 10.98 38.55 16.73c-1.97-2.6-8.45-6.8-13.77-7.77l.27-1.33-1.5-.53c-.79 3.54-2.26 9.95-3.64 14.48-2.53 8.34-6.18 14.4-6.18 14.4l-1.32-.75s3.65-6.07 6.19-14.41a237 237 0 0 0 3.98-16.11c.08-.36.4-.58.74-.57zm4.2 30.66a2.12 2.18 0 0 1-4.24 0 2.12 2.18 0 1 1 4.24 0zm6 0a2.12 2.18 0 0 1-4.24 0 2.12 2.18 0 1 1 4.24 0z" filter="url(#e)" opacity=".5"/><path fill="#892ca0" d="M22.16 34.52a2.12 2.18 0 0 1-4.24 0 2.12 2.18 0 1 1 4.24 0zm5.84-.19a2.12 2.18 0 0 1-4.25 0 2.12 2.18 0 1 1 4.24 0zm6 0a2.12 2.18 0 0 1-4.25 0 2.12 2.18 0 1 1 4.24 0z"/><path opacity=".2" d="M23.71.5C17.88.5 13.2 1.6 9.78 3.82 5.68 6.48 3.5 10.73 3.5 16.1c0 7.22 5.8 16.88 7.58 19.67a54.47 54.47 0 0 0 6.25 8.16c2.54 2.64 4.57 3.87 6.37 3.87 1.8 0 3.83-1.23 6.37-3.87 2-2.08 4.22-4.98 6.25-8.16 1.78-2.79 7.59-12.45 7.59-19.67 0-5.37-2.17-9.62-6.27-12.27C34.23 1.6 29.55.49 23.7.49zm0 .14c2.12.08 4.12.27 5.88.69 1.16.28 2.25.63 3.26 1.04 1.01.42 1.95.9 2.8 1.46a12.92 12.92 0 0 1 4.67 5.12c.53 1.03.93 2.14 1.2 3.34.26 1.2.4 2.47.4 3.8 0 1.81-.37 3.77-.94 5.74a43.18 43.18 0 0 1-2.19 5.77 69.59 69.59 0 0 1-4.46 8.17 54.46 54.46 0 0 1-6.25 8.16 17.98 17.98 0 0 1-3.46 2.93c-.32.2-.62.3-.9.39-.3-.09-.6-.2-.92-.4a17.62 17.62 0 0 1-3.46-2.92c-2-2.08-4.21-4.98-6.25-8.16a69.6 69.6 0 0 1-4.46-8.17 43.2 43.2 0 0 1-2.19-5.77 20.93 20.93 0 0 1-.93-5.73c0-1.34.13-2.62.4-3.81.27-1.2.67-2.31 1.2-3.34a12.92 12.92 0 0 1 4.67-5.12 17.1 17.1 0 0 1 2.8-1.46c1-.41 2.1-.76 3.26-1.04 1.75-.42 3.76-.6 5.87-.7z"/><g opacity=".5"><path fill="url(#f)" d="M34 34.33a2.12 2.18 0 0 1-4.25 0 2.12 2.18 0 1 1 4.24 0z"/><path fill="url(#g)" d="M28 34.33a2.12 2.18 0 0 1-4.25 0 2.12 2.18 0 1 1 4.24 0z"/><path fill="url(#h)" d="M22.16 34.52a2.12 2.18 0 0 1-4.24 0 2.12 2.18 0 1 1 4.24 0z"/></g><path fill="#ccc" d="M24.65 6.6l1.52.54c.07-.34 1.3.1 1.35-.2.05-.25-1.06-1.25-1.04-1.37a43.2 43.2 0 0 0-1.49-.53c-.05.22-.93.3-1 .58-.05.25.72.68.66.98z"/><path transform="translate(40)" fill="url(#i)" opacity=".8" d="M-15.35 6.6l1.52.54c.07-.34 1.3.1 1.35-.2.05-.25-1.06-1.25-1.04-1.37a43.2 43.2 0 0 0-1.49-.53c-.05.22-.93.3-1 .58-.05.25.72.68.66.98z"/><path fill="#b27214" d="M24.65 6.6a370.09 370.09 0 0 0 .46-2.11.73.73 0 1 0-1.43-.3 243.5 243.5 0 0 1-4.05 16.27c-2.58 8.43-6.29 14.55-6.29 14.55l1.33.77s3.7-6.13 6.28-14.55c1.4-4.58 2.9-11.06 3.7-14.63z"/><path fill="#e6e6e6" d="M25.9 8.48c5.38.98 11.91 5.24 13.9 7.88-1.56-5.81-9.77-9.46-13.32-10.8a284.02 284.02 0 0 1-.59 2.92z"/><path transform="translate(40)" fill="url(#j)" opacity=".5" d="M-15.35 6.6a370.09 370.09 0 0 0 .46-2.11.73.73 0 1 0-1.43-.3 243.5 243.5 0 0 1-4.05 16.27c-2.58 8.43-6.29 14.55-6.29 14.55l1.33.77s3.7-6.13 6.28-14.55c1.4-4.58 2.9-11.06 3.7-14.63z"/><path transform="translate(40)" fill="url(#k)" opacity=".5" d="M-15.35 6.6a370.09 370.09 0 0 0 .46-2.11.73.73 0 1 0-1.43-.3 243.5 243.5 0 0 1-4.05 16.27c-2.58 8.43-6.29 14.55-6.29 14.55l1.33.77s3.7-6.13 6.28-14.55c1.4-4.58 2.9-11.06 3.7-14.63z"/><path transform="translate(40)" fill="url(#l)" opacity=".5" d="M-15.35 6.6a370.09 370.09 0 0 0 .46-2.11.73.73 0 1 0-1.43-.3 243.5 243.5 0 0 1-4.05 16.27c-2.58 8.43-6.29 14.55-6.29 14.55l1.33.77s3.7-6.13 6.28-14.55c1.4-4.58 2.9-11.06 3.7-14.63z"/><path transform="translate(-23.5 -1.82)" fill="url(#m)" opacity=".35" d="M49.38 10.3c5.39.99 11.92 5.25 13.92 7.88-1.57-5.8-9.78-9.46-13.33-10.79a284.02 284.02 0 0 1-.59 2.91z"/><path transform="translate(-23.5 -1.82)" fill="url(#n)" opacity=".4" d="M49.39 10.3c5.38.99 11.91 5.25 13.9 7.88-1.56-5.8-9.77-9.46-13.32-10.79a284.02 284.02 0 0 1-.58 2.91z"/></svg>