<?xml version="1.0" encoding="UTF-8" standalone="no"?><svg xmlns:dc="http://purl.org/dc/elements/1.1/" xmlns:cc="http://creativecommons.org/ns#" xmlns:rdf="http://www.w3.org/1999/02/22-rdf-syntax-ns#" xmlns="http://www.w3.org/2000/svg" xmlns:xlink="http://www.w3.org/1999/xlink" width="48" height="48"><metadata><rdf:RDF><cc:Work><dc:format>image/svg+xml</dc:format><dc:type rdf:resource="http://purl.org/dc/dcmitype/StillImage"/><dc:title/></cc:Work></rdf:RDF></metadata><defs><linearGradient id="d"><stop offset="0" stop-color="#67536c"/><stop offset=".51" stop-color="#a793ac"/><stop offset="1" stop-color="#e2dbe3"/></linearGradient><linearGradient id="a"><stop offset="0"/><stop offset="1" stop-opacity="0"/></linearGradient><linearGradient id="c" gradientUnits="userSpaceOnUse" x1="-84" y1="-384" x2="-23.52" y2="-384" gradientTransform="rotate(90 -90 50)"><stop offset="0" stop-color="#d2faff"/><stop offset="1" stop-color="#fff" stop-opacity="0"/></linearGradient><radialGradient xlink:href="#b" id="g" cx="62" cy="63.67" fx="82.59" fy="94.23" r="54" gradientTransform="matrix(.3989 -.02395 .0825 .37151 -5.73 -3.02)" gradientUnits="userSpaceOnUse"/><radialGradient id="b" cx="56.02" cy="45.24" r="71.35" gradientTransform="rotate(15 45.7 -303.33) scale(1.0326)" gradientUnits="userSpaceOnUse"><stop offset="0" stop-color="#bfebff"/><stop offset=".07" stop-color="#9fdfff"/><stop offset=".18" stop-color="#78d1ff"/><stop offset=".28" stop-color="#5ac6ff"/><stop offset=".38" stop-color="#44beff"/><stop offset=".48" stop-color="#37baff"/><stop offset=".57" stop-color="#33b8ff"/><stop offset=".8" stop-color="#1690e3"/><stop offset="1" stop-color="#0063b4"/></radialGradient><linearGradient gradientTransform="matrix(.2973 -.01785 .06375 .2871 1.76 1.98)" xlink:href="#c" id="h" x1="115.5" y1="1.84" x2="124" y2="83.56" gradientUnits="userSpaceOnUse"/><linearGradient xlink:href="#a" id="f" gradientUnits="userSpaceOnUse" x1="4.86" y1="12.03" x2="57.53" y2="38.52"/><linearGradient xlink:href="#d" id="e" x1="4.69" y1="6.11" x2="44.21" y2="24" gradientUnits="userSpaceOnUse"/></defs><path d="M24 .35c-5.82 0-10.5 1.1-13.92 3.32-4.1 2.66-6.28 6.91-6.28 12.28 0 7.22 5.8 16.88 7.58 19.67a54.48 54.48 0 0 0 6.25 8.16c2.54 2.64 4.57 3.87 6.37 3.87 1.8 0 3.83-1.23 6.37-3.87 2-2.08 4.22-4.98 6.25-8.16 1.78-2.79 7.59-12.45 7.59-19.67 0-5.37-2.17-9.62-6.27-12.27C34.54 1.45 29.84.34 24 .34z" fill="url(#e)"/><path d="M26.92 46.7c1.05-.64 2.18-1.6 3.45-2.92 2-2.08 4.22-4.97 6.25-8.16.89-1.4 2.79-4.5 4.46-8.17.83-1.83 1.61-3.8 2.19-5.77.57-1.96.93-3.92.93-5.73 0-.24-.06-.44-.07-.68L33.3 4.45l-2 2.54v4.99l-4.85.4-6.94-6.94-1.64 1.46-.9 6.07-6.08 2.1 5.62 5.62.19 4.08-6.17 4.45 4.3 4.3-.86.23z" fill="url(#f)" opacity=".6"/><path d="M24 .35c-5.83 0-10.52 1.12-13.93 3.33-4.1 2.66-6.27 6.9-6.27 12.27 0 7.23 5.8 16.88 7.58 19.67a54.48 54.48 0 0 0 6.25 8.16c2.54 2.64 4.57 3.87 6.37 3.87 1.8 0 3.83-1.23 6.37-3.87 2-2.08 4.22-4.97 6.25-8.16 1.78-2.79 7.58-12.44 7.58-19.67 0-5.37-2.16-9.61-6.26-12.27C34.52 1.47 29.84.35 24 .35zm0 .14c2.11.09 4.12.27 5.88.7 1.16.27 2.25.62 3.26 1.03 1.01.42 1.94.9 2.8 1.46A12.92 12.92 0 0 1 40.6 8.8c.53 1.03.92 2.15 1.2 3.34.26 1.2.4 2.47.4 3.8 0 1.82-.37 3.77-.94 5.74a43.19 43.19 0 0 1-2.2 5.77 69.59 69.59 0 0 1-4.45 8.17 54.47 54.47 0 0 1-6.25 8.16 17.98 17.98 0 0 1-3.46 2.93c-.32.2-.62.3-.91.39-.3-.08-.6-.2-.9-.4-1.06-.63-2.2-1.6-3.47-2.92-2-2.08-4.22-4.97-6.25-8.16a69.6 69.6 0 0 1-4.46-8.17 43.19 43.19 0 0 1-2.19-5.77 20.93 20.93 0 0 1-.93-5.73c0-1.34.13-2.61.4-3.8.27-1.2.67-2.32 1.2-3.35a12.92 12.92 0 0 1 4.67-5.12 17.1 17.1 0 0 1 2.8-1.46c1-.41 2.1-.76 3.26-1.04C19.88.76 21.89.58 24 .5z" opacity=".2"/><path d="M15.73 4.51c-.56.01-.99.4-1 .94l-.17 5.07-3.63.22c-.65.04-1.07.58-.93 1.22l.51 2.3c.14.63.79 1.11 1.44 1.07l2.46-.15-.31 9.33-3.67.22c-.66.04-1.08.59-.94 1.22l.51 2.3c.14.63.79 1.12 1.45 1.08l2.49-.15-.12 3.74c-.02.63.5 1.22 1.17 1.34l2.44.42c.67.11 1.23-.3 1.25-.92l.16-4.88 9.16-.55-.12 3.75c-.02.62.5 1.22 1.18 1.33l2.43.42c.68.12 1.23-.3 1.25-.92l.16-4.87 4.71-.28c.66-.04 1.07-.59.93-1.22l-.5-2.3a1.43 1.43 0 0 0-1.45-1.08l-3.54.21.31-9.32 4.76-.29c.65-.04 1.07-.58.93-1.22l-.5-2.3a1.43 1.43 0 0 0-1.45-1.07l-3.59.21.13-3.93c.03-.63-.5-1.23-1.17-1.34l-2.44-.42c-.67-.12-1.23.3-1.25.92l-.17 5.07-9.16.55.14-3.94c.02-.63-.51-1.22-1.18-1.34l-2.43-.42a1.36 1.36 0 0 0-.25-.02zM19.3 14.9l9.16-.55-.3 9.33-9.17.55z" fill="url(#g)"/><path d="M15.73 4.51c-.56.01-.99.4-1 .94l-.17 5.07-3.63.22c-.65.04-1.07.58-.93 1.22l.51 2.3c.14.63.79 1.11 1.44 1.07l2.46-.15-.3 9.03a45.8 45.8 0 0 0 4.9-.65l.3-8.67 9.15-.55-.2 6.22c1.89-.92 3.57-1.99 4.99-3.17l.11-3.34 3.12-.2a11.8 11.8 0 0 0 1.8-4.14 1.43 1.43 0 0 0-1.18-.54l-3.59.21.13-3.93c.03-.63-.5-1.23-1.17-1.34l-2.44-.42c-.67-.12-1.23.3-1.25.92l-.17 5.07-9.16.55.14-3.94c.02-.63-.51-1.22-1.18-1.34l-2.43-.42a1.36 1.36 0 0 0-.25-.02z" fill="url(#h)"/></svg>