<svg xmlns="http://www.w3.org/2000/svg" xmlns:xlink="http://www.w3.org/1999/xlink" width="48" height="48"><defs><linearGradient id="f"><stop offset="0" stop-color="#afc6e9"/><stop offset="1" stop-color="#006680"/></linearGradient><linearGradient id="e"><stop offset="0" stop-color="#fff" stop-opacity="0"/><stop offset=".528" stop-color="#fff"/><stop offset="1" stop-color="#fff" stop-opacity="0"/></linearGradient><linearGradient id="d"><stop offset="0" stop-color="#a2f3ff" stop-opacity=".309"/><stop offset=".58" stop-color="#51d2f4" stop-opacity=".465"/><stop offset=".882" stop-color="#388bc9" stop-opacity=".663"/><stop offset="1" stop-color="#1f449e" stop-opacity=".862"/></linearGradient><linearGradient id="c"><stop offset="0" stop-color="#999"/><stop offset="1" stop-color="#1a1a1a"/></linearGradient><linearGradient id="b"><stop offset="0"/><stop offset=".664" stop-opacity=".238"/><stop offset="1" stop-opacity="0"/></linearGradient><linearGradient gradientUnits="userSpaceOnUse" y2="87.578" x2="102.638" y1="98.323" x1="91.894" id="i" xlink:href="#a" gradientTransform="rotate(37.91 4.369 35.968) scale(.17857)"/><linearGradient id="a"><stop offset="0" stop-color="#1a1a1a"/><stop offset="1" stop-color="#999"/></linearGradient><radialGradient r="6.932" fy="73.296" fx=".906" cy="74.833" cx="3.953" gradientTransform="matrix(.12353 -.03192 .22472 1.35954 9.252 -72.923)" gradientUnits="userSpaceOnUse" id="j" xlink:href="#b"/><linearGradient y2="20.205" x2="40.199" y1="20.205" x1="28.072" spreadMethod="reflect" gradientTransform="matrix(-.09459 .01736 .01646 .0942 27.928 19.299)" gradientUnits="userSpaceOnUse" id="k" xlink:href="#c"/><radialGradient r="38.29" fy="3.277" fx="653.773" cy="-20.356" cx="654.536" gradientTransform="rotate(37.91 33.321 -96.209) scale(.14444)" gradientUnits="userSpaceOnUse" id="l" xlink:href="#d"/><linearGradient xlink:href="#e" id="h" x1="19.237" y1="60.275" x2="19.237" y2="-17.863" gradientUnits="userSpaceOnUse"/><radialGradient xlink:href="#f" id="g" cx="24" cy="24" fx="24" fy="24" r="20.2" gradientTransform="matrix(1 0 0 1.1708 0 -4.099)" gradientUnits="userSpaceOnUse"/></defs><path d="M24 .35c-5.83 0-10.52 1.12-13.93 3.33-4.1 2.66-6.27 6.9-6.27 12.27 0 7.23 5.8 16.88 7.58 19.67a54.48 54.48 0 0 0 6.25 8.16c2.54 2.64 4.57 3.87 6.37 3.87 1.8 0 3.83-1.23 6.37-3.87 2-2.08 4.22-4.97 6.25-8.16 1.78-2.79 7.58-12.44 7.58-19.67 0-5.37-2.16-9.61-6.26-12.27C34.52 1.47 29.84.35 24 .35z" fill="url(#g)"/><path d="M36.648 3.01c-.5-.264-.963-.56-1.507-.783a22.05 22.05 0 0 0-3.264-1.041C29.549.629 26.92.35 24 .35c-2.915 0-5.546.28-7.873.836a22 22 0 0 0-3.262 1.04c-.576.238-1.068.547-1.594.829v32.363c.024.036.088.167.11.201a54.48 54.48 0 0 0 3.115 4.467 54.48 54.48 0 0 0 3.135 3.693c1.27 1.32 2.41 2.289 3.46 2.926 1.05.638 2.009.945 2.909.945.9 0 1.858-.307 2.908-.945 1.05-.637 2.191-1.606 3.461-2.926 2-2.08 4.22-4.97 6.25-8.16l.03-.053zm-22.49-.65a1.368 1.425 0 0 1 1.37 1.423 1.368 1.425 0 0 1-1.37 1.426 1.368 1.425 0 0 1-1.367-1.426 1.368 1.425 0 0 1 1.367-1.424zm19.604 0a1.368 1.425 0 0 1 1.367 1.423 1.368 1.425 0 0 1-1.367 1.426 1.368 1.425 0 0 1-1.37-1.426 1.368 1.425 0 0 1 1.37-1.424zm-19.604 4a1.368 1.425 0 0 1 1.37 1.423 1.368 1.425 0 0 1-1.37 1.426 1.368 1.425 0 0 1-1.367-1.426 1.368 1.425 0 0 1 1.367-1.424zm19.604 0a1.368 1.425 0 0 1 1.367 1.423 1.368 1.425 0 0 1-1.367 1.426 1.368 1.425 0 0 1-1.37-1.426 1.368 1.425 0 0 1 1.37-1.424zm-19.604 4a1.368 1.425 0 0 1 1.37 1.423 1.368 1.425 0 0 1-1.37 1.426 1.368 1.425 0 0 1-1.367-1.426 1.368 1.425 0 0 1 1.367-1.424zm19.604 0a1.368 1.425 0 0 1 1.367 1.423 1.368 1.425 0 0 1-1.367 1.426 1.368 1.425 0 0 1-1.37-1.426 1.368 1.425 0 0 1 1.37-1.424zm-19.604 4a1.368 1.425 0 0 1 1.37 1.423 1.368 1.425 0 0 1-1.37 1.426 1.368 1.425 0 0 1-1.367-1.426 1.368 1.425 0 0 1 1.367-1.424zm19.604 0a1.368 1.425 0 0 1 1.367 1.423 1.368 1.425 0 0 1-1.367 1.426 1.368 1.425 0 0 1-1.37-1.426 1.368 1.425 0 0 1 1.37-1.424zm-19.604 4a1.368 1.425 0 0 1 1.37 1.423 1.368 1.425 0 0 1-1.37 1.426 1.368 1.425 0 0 1-1.367-1.426 1.368 1.425 0 0 1 1.367-1.424zm19.604 0a1.368 1.425 0 0 1 1.367 1.423 1.368 1.425 0 0 1-1.367 1.426 1.368 1.425 0 0 1-1.37-1.426 1.368 1.425 0 0 1 1.37-1.424zm-19.604 4a1.368 1.425 0 0 1 1.37 1.423 1.368 1.425 0 0 1-1.37 1.426 1.368 1.425 0 0 1-1.367-1.426 1.368 1.425 0 0 1 1.367-1.424zm19.604 0a1.368 1.425 0 0 1 1.367 1.423 1.368 1.425 0 0 1-1.367 1.426 1.368 1.425 0 0 1-1.37-1.426 1.368 1.425 0 0 1 1.37-1.424zm-19.604 4a1.368 1.425 0 0 1 1.37 1.423 1.368 1.425 0 0 1-1.37 1.426 1.368 1.425 0 0 1-1.367-1.426 1.368 1.425 0 0 1 1.367-1.424zm19.604 0a1.368 1.425 0 0 1 1.367 1.423 1.368 1.425 0 0 1-1.367 1.426 1.368 1.425 0 0 1-1.37-1.426 1.368 1.425 0 0 1 1.37-1.424zm-19.604 4a1.368 1.425 0 0 1 1.37 1.423 1.368 1.425 0 0 1-1.37 1.426 1.368 1.425 0 0 1-1.367-1.426 1.368 1.425 0 0 1 1.367-1.424zm19.604 0a1.368 1.425 0 0 1 1.367 1.423 1.368 1.425 0 0 1-1.367 1.426 1.368 1.425 0 0 1-1.37-1.426 1.368 1.425 0 0 1 1.37-1.424zm-19.604 4a1.368 1.425 0 0 1 1.37 1.423 1.368 1.425 0 0 1-1.37 1.426 1.368 1.425 0 0 1-1.367-1.426 1.368 1.425 0 0 1 1.367-1.424zm19.604 0a1.368 1.425 0 0 1 1.367 1.423 1.368 1.425 0 0 1-1.367 1.426 1.368 1.425 0 0 1-1.37-1.426 1.368 1.425 0 0 1 1.37-1.424z" fill="url(#h)"/><path d="M24 .35c-5.83 0-10.52 1.12-13.93 3.33-4.1 2.66-6.27 6.9-6.27 12.27 0 7.23 5.8 16.88 7.58 19.67a54.48 54.48 0 0 0 6.25 8.16c2.54 2.64 4.57 3.87 6.37 3.87 1.8 0 3.83-1.23 6.37-3.87 2-2.08 4.22-4.97 6.25-8.16 1.78-2.79 7.58-12.44 7.58-19.67 0-5.37-2.16-9.61-6.26-12.27C34.52 1.47 29.84.35 24 .35zm0 .14c2.11.09 4.12.27 5.88.7 1.16.27 2.25.62 3.26 1.03 1.01.42 1.94.9 2.8 1.46A12.92 12.92 0 0 1 40.6 8.8c.53 1.03.92 2.15 1.2 3.34.26 1.2.4 2.47.4 3.8 0 1.82-.37 3.77-.94 5.74a43.19 43.19 0 0 1-2.2 5.77 69.59 69.59 0 0 1-4.45 8.17 54.47 54.47 0 0 1-6.25 8.16 17.98 17.98 0 0 1-3.46 2.93c-.32.2-.62.3-.91.39-.3-.08-.6-.2-.9-.4-1.06-.63-2.2-1.6-3.47-2.92-2-2.08-4.22-4.97-6.25-8.16a69.6 69.6 0 0 1-4.46-8.17 43.19 43.19 0 0 1-2.19-5.77 20.93 20.93 0 0 1-.93-5.73c0-1.34.13-2.61.4-3.8.27-1.2.67-2.32 1.2-3.35a12.92 12.92 0 0 1 4.67-5.12 17.1 17.1 0 0 1 2.8-1.46c1-.41 2.1-.76 3.26-1.04C19.88.76 21.89.58 24 .5z" opacity=".2"/><path style="line-height:1.25" d="M19.943 7.13v1.372h.162v-.559c0-.096.026-.17.077-.226a.265.265 0 0 1 .207-.084c.073 0 .127.022.164.068a.345.345 0 0 1 .054.211v.59h.163v-.596c0-.136-.028-.238-.086-.308a.32.32 0 0 0-.258-.108.374.374 0 0 0-.184.045.397.397 0 0 0-.137.133v-.537zm1.803 0v.534a.337.337 0 0 0-.316-.174c-.12 0-.218.05-.293.145a.59.59 0 0 0-.112.375c0 .155.037.28.112.375a.357.357 0 0 0 .293.142.38.38 0 0 0 .185-.04.347.347 0 0 0 .131-.133v.148h.162V7.131zm1.6 0v.206h.162V7.13zm2.57 0c-.111 0-.193.026-.244.077-.051.05-.076.128-.076.238v.07h-.157v.126h.157v.861h.162v-.861h.267v-.125h-.267v-.088c0-.061.01-.104.033-.127.023-.024.065-.035.123-.035h.154V7.13zm.938 0v.534a.333.333 0 0 0-.317-.174c-.12 0-.218.05-.293.145a.59.59 0 0 0-.111.375c0 .155.036.28.111.375a.357.357 0 0 0 .293.142.387.387 0 0 0 .188-.04.342.342 0 0 0 .129-.133v.148h.162V7.131zm1.437 0v1.372h.162V7.131zm.502 0v.206h.162V7.13zm-11.303.056v1.316h.178v-.627h.648v.627h.178V7.186h-.178v.539h-.648v-.54zm1.698.304a.781.781 0 0 0-.163.018c-.055.01-.114.03-.173.053v.148a.653.653 0 0 1 .32-.08c.089 0 .156.02.205.06.05.041.074.1.074.174v.016h-.226c-.148 0-.26.027-.334.084-.074.056-.112.14-.112.252a.3.3 0 0 0 .09.228.34.34 0 0 0 .242.084c.08 0 .146-.013.201-.04a.356.356 0 0 0 .14-.133v.148h.161v-.563c0-.15-.035-.263-.105-.337-.07-.075-.179-.112-.32-.112zm3.394 0a.423.423 0 0 0-.291.139.56.56 0 0 0-.12.38c0 .163.04.29.12.382.08.09.192.136.334.136a.418.418 0 0 0 .332-.136.56.56 0 0 0 .121-.381c0-.163-.04-.29-.121-.381a.42.42 0 0 0-.332-.139.423.423 0 0 0-.043 0zm1.563 0a.358.358 0 0 0-.258.139.574.574 0 0 0-.11.369c0 .152.036.273.11.365a.358.358 0 0 0 .293.139.39.39 0 0 0 .19-.043.332.332 0 0 0 .126-.13v.08c0 .11-.025.196-.078.251-.053.056-.134.084-.24.084a.54.54 0 0 1-.282-.076v.158a.78.78 0 0 0 .147.04l.031.001a.91.91 0 0 0 .131.012l.006-.002c.15-.001.263-.042.336-.123.075-.082.113-.205.113-.373v-.865h-.164v.148a.332.332 0 0 0-.127-.13.39.39 0 0 0-.19-.044.358.358 0 0 0-.034 0zm3.474 0a.455.455 0 0 0-.236.076.254.254 0 0 0-.098.215c0 .077.022.138.067.182a.444.444 0 0 0 .218.098l.055.011a.54.54 0 0 1 .195.069c.03.023.045.057.045.101 0 .048-.02.085-.06.112a.338.338 0 0 1-.178.039.672.672 0 0 1-.172-.024.9.9 0 0 1-.178-.07v.168c.064.02.125.035.182.045a.92.92 0 0 0 .166.015.493.493 0 0 0 .299-.08.254.254 0 0 0 .11-.217.242.242 0 0 0-.075-.187.516.516 0 0 0-.244-.105l-.057-.012a.511.511 0 0 1-.174-.063.103.103 0 0 1-.043-.088c0-.049.021-.087.061-.11a.355.355 0 0 1 .182-.038.65.65 0 0 1 .296.07v-.154a.721.721 0 0 0-.146-.04 1.036 1.036 0 0 0-.17-.013.455.455 0 0 0-.045 0zm1.973 0a.358.358 0 0 0-.258.139.574.574 0 0 0-.111.369c0 .152.037.273.111.365a.358.358 0 0 0 .293.139.383.383 0 0 0 .187-.043.337.337 0 0 0 .13-.13v.08c0 .11-.029.196-.08.251-.055.056-.133.084-.239.084a.554.554 0 0 1-.283-.076v.158a.923.923 0 0 0 .308.053c.153 0 .27-.043.344-.125.075-.082.111-.205.111-.373v-.865h-.162v.148a.337.337 0 0 0-.129-.13.383.383 0 0 0-.187-.044.358.358 0 0 0-.035 0zm-6.246.026v.986h.162v-.986zm5.447 0V8.52c0 .09-.01.15-.033.177-.023.03-.065.043-.127.043h-.043v.139h.062c.107 0 .184-.03.23-.086.05-.056.073-.148.073-.273V7.516zm-7.348.111a.237.237 0 0 1 .024 0c.086 0 .153.033.203.102a.47.47 0 0 1 .074.28c0 .12-.025.214-.074.282a.238.238 0 0 1-.203.102.238.238 0 0 1-.203-.102.476.476 0 0 1-.073-.281.47.47 0 0 1 .073-.281.237.237 0 0 1 .18-.102zm2.76 0a.244.244 0 0 1 .016 0c.087 0 .155.033.203.098a.446.446 0 0 1 .072.273.441.441 0 0 1-.072.272.239.239 0 0 1-.203.097.244.244 0 0 1-.205-.097.445.445 0 0 1-.073-.272.45.45 0 0 1 .073-.273.244.244 0 0 1 .19-.098zm2.348 0a.237.237 0 0 1 .023 0c.086 0 .154.033.203.102a.47.47 0 0 1 .075.28c0 .12-.025.214-.075.282a.238.238 0 0 1-.203.102.238.238 0 0 1-.203-.102.476.476 0 0 1-.072-.281.47.47 0 0 1 .072-.281.237.237 0 0 1 .18-.102zm3.093 0a.24.24 0 0 1 .02 0 .24.24 0 0 1 .205.098.446.446 0 0 1 .072.273.441.441 0 0 1-.072.272.242.242 0 0 1-.205.097.24.24 0 0 1-.203-.097.445.445 0 0 1-.072-.272.45.45 0 0 1 .072-.273.24.24 0 0 1 .183-.098zm-7.04.002a.244.244 0 0 1 .019 0c.086 0 .155.035.205.103.05.07.076.16.076.278a.46.46 0 0 1-.076.28.241.241 0 0 1-.205.1.245.245 0 0 1-.207-.1.463.463 0 0 1-.076-.28c0-.118.025-.212.076-.28a.244.244 0 0 1 .187-.101zm-3.315.377h.16v.037c0 .106-.027.19-.082.254a.268.268 0 0 1-.215.096.23.23 0 0 1-.156-.051.175.175 0 0 1-.057-.137c0-.072.026-.124.077-.154.05-.03.142-.045.273-.045zm-.668 1.383v1.37h.164v-.482l.502.483h.211l-.545-.526.524-.463h-.208l-.484.428v-.81zm1.4 0c-.11 0-.19.023-.242.074-.05.05-.078.13-.078.24v.068h-.154v.127h.154v.862h.164v-.862h.268v-.127h-.268v-.085c0-.062.011-.104.033-.127.023-.024.063-.036.121-.036h.157v-.132zm9.024 0v1.37h.164v-.558c0-.096.026-.172.076-.228a.264.264 0 0 1 .207-.082c.073 0 .128.022.164.068.037.046.055.118.055.21v.59h.162v-.595c0-.136-.03-.24-.088-.31-.058-.071-.144-.106-.258-.106a.366.366 0 0 0-.181.045.397.397 0 0 0-.137.133v-.537zm1.146 0v1.37h.164v-.558c0-.096.026-.172.077-.228a.264.264 0 0 1 .207-.082c.073 0 .127.022.164.068.036.046.054.118.054.21v.59h.162v-.595c0-.136-.03-.24-.087-.31-.06-.071-.145-.106-.258-.106a.366.366 0 0 0-.182.045.397.397 0 0 0-.137.133v-.537zm-12.234.357v.002a.366.366 0 0 0-.182.045.397.397 0 0 0-.136.133V9.77h-.164v.99h.164v-.56c0-.097.025-.171.076-.227a.264.264 0 0 1 .207-.082c.073 0 .127.02.164.066.036.046.055.118.055.211v.59h.162v-.596c0-.136-.03-.238-.088-.308-.058-.071-.145-.108-.258-.108zm2.828 0v.002a.37.37 0 0 0-.183.043.374.374 0 0 0-.135.135V9.77h-.162v.99h.162v-.56c0-.097.025-.17.074-.225a.247.247 0 0 1 .197-.084c.07 0 .12.02.155.066.01.015.008.048.015.068.05-.033.089-.08.139-.113-.023-.042-.045-.084-.08-.11a.299.299 0 0 0-.182-.056zm8.043 0v.002a.416.416 0 0 0-.2.045.328.328 0 0 0-.132.133V9.77h-.164v.99h.164v-.522c0-.11.024-.198.072-.258.05-.06.121-.09.213-.09a.29.29 0 0 1 .07.008.21.21 0 0 1 .061.026l-.002-.166a.5.5 0 0 0-.045-.006c-.013-.002-.026-.006-.037-.006zm-1.25.002a.8.8 0 0 0-.164.018c-.026.005-.053.015-.08.023-.03.01-.06.015-.092.027v.15c.05-.025.1-.046.154-.06a.662.662 0 0 1 .13-.015c.01-.001.022-.004.034-.004.09 0 .159.02.208.06.026.022.026.062.039.094.055.04.122.05.177.094-.01-.111-.028-.215-.086-.276-.07-.074-.177-.111-.32-.111zm-8.95 1.897v1.373h.165v-1.373zm.497 0v.263c.05-.086.075-.18.129-.263zm11.451 0v1.373h.164v-.149a.34.34 0 0 0 .131.131.383.383 0 0 0 .186.043c.12 0 .218-.047.293-.143a.587.587 0 0 0 .113-.375.592.592 0 0 0-.113-.377.355.355 0 0 0-.293-.142.376.376 0 0 0-.188.043.336.336 0 0 0-.129.13v-.534zm-12.654.36a.367.367 0 0 0-.147.046.397.397 0 0 0-.134.133v-.155h-.164v.989h.164v-.559c0-.096.025-.173.076-.229a.265.265 0 0 1 .207-.084c.073 0 .127.025.164.07a.343.343 0 0 1 .055.212v.59h.162v-.596c0-.137-.03-.24-.088-.31-.058-.072-.145-.106-.258-.106a.367.367 0 0 0-.037 0zm11.955 0a.367.367 0 0 0-.147.046c-.04.022-.07.062-.101.101.017.034.015.072.031.106.006-.007.006-.02.012-.028a.265.265 0 0 1 .207-.084c.073 0 .128.025.164.07a.343.343 0 0 1 .055.212v.59h.162v-.596c0-.137-.03-.24-.088-.31-.058-.072-.146-.106-.26-.106a.367.367 0 0 0-.035 0zm-.29.024c.005.008.005.016.009.024v-.024zm1.405.114a.237.237 0 0 1 .026 0 .23.23 0 0 1 .199.101.47.47 0 0 1 .076.281c0 .12-.025.213-.074.282a.234.234 0 0 1-.201.101.238.238 0 0 1-.206-.101.476.476 0 0 1-.072-.282.48.48 0 0 1 .072-.28.237.237 0 0 1 .18-.102zm-13.515 1.76v1.372h.164v-.148a.34.34 0 0 0 .128.13.39.39 0 0 0 .186.044c.12 0 .216-.048.291-.143.027-.034.024-.093.041-.135-.002-.13.021-.26.027-.392-.018-.078-.023-.168-.068-.225a.352.352 0 0 0-.291-.142.384.384 0 0 0-.186.043.336.336 0 0 0-.13.13v-.535zm.414.497a.237.237 0 0 1 .025 0c.086 0 .152.034.201.102a.47.47 0 0 1 .074.281c0 .12-.024.213-.074.281a.238.238 0 0 1-.201.102.238.238 0 0 1-.203-.102.476.476 0 0 1-.072-.28c0-.12.023-.214.072-.282a.237.237 0 0 1 .178-.102zm12.314 1.76v.535a.335.335 0 0 0-.111-.111c-.013.044-.052.081-.065.125.033.017.078.018.102.05.05.069.072.16.072.28 0 .12-.023.213-.072.281a.238.238 0 0 1-.203.102.238.238 0 0 1-.201-.102c-.02.044-.047.085-.067.13.066.055.137.109.229.109a.34.34 0 0 0 .314-.174v.148h.162V16.16zm-11.787.059l.002.006v-.006zm.002.006v1.308h.16v-.148a.34.34 0 0 0 .13.13c.04.023.092.029.144.034-.024-.05-.028-.105-.051-.154-.055-.014-.112-.025-.149-.075a.475.475 0 0 1-.074-.28c0-.079.029-.126.049-.18-.072-.213-.159-.418-.21-.635zm-.668.297a.449.449 0 0 0-.236.076.255.255 0 0 0-.098.215c0 .077.02.137.064.181a.444.444 0 0 0 .221.096l.057.014a.54.54 0 0 1 .193.068c.03.023.047.057.047.101a.126.126 0 0 1-.063.112.331.331 0 0 1-.175.037.683.683 0 0 1-.174-.022.9.9 0 0 1-.18-.07v.166c.064.02.127.037.184.047a.92.92 0 0 0 .166.016.493.493 0 0 0 .299-.08.258.258 0 0 0 .109-.22.241.241 0 0 0-.072-.187.524.524 0 0 0-.246-.105l-.055-.012a.52.52 0 0 1-.176-.06.108.108 0 0 1-.045-.09c0-.05.02-.087.06-.112a.355.355 0 0 1 .182-.037.67.67 0 0 1 .297.073v-.155a.721.721 0 0 0-.144-.039 1.038 1.038 0 0 0-.17-.013.449.449 0 0 0-.045 0zm12.947.023v1.006c0 .09-.008.15-.031.178-.022.028-.065.043-.127.043h-.045v.136h.065c.106 0 .182-.027.23-.084.048-.056.07-.147.07-.273v-1.006zm-13.217 1.873v.205h.163v-.205zm.5 0v.205h.163v-.205zm11.377 0v.205h.162v-.205zm-10.535.361a.417.417 0 0 0-.29.137.56.56 0 0 0-.12.38c0 .164.04.29.12.382a.42.42 0 0 0 .331.138.423.423 0 0 0 .334-.138.565.565 0 0 0 .121-.381.56.56 0 0 0-.12-.38.422.422 0 0 0-.335-.138.417.417 0 0 0-.04 0zm10.239 0a.416.416 0 0 0-.159.043.333.333 0 0 0-.133.135v-.053c-.049.056-.113.09-.164.143v.744h.164v-.521a.39.39 0 0 1 .075-.256.26.26 0 0 1 .213-.09c.025 0 .049.002.07.008a.21.21 0 0 1 .058.023l-.002-.168a.524.524 0 0 0-.082-.008.416.416 0 0 0-.04 0zm1.232 0a.384.384 0 0 0-.15.043.336.336 0 0 0-.127.131v-.15h-.164v1.363h.164v-.523a.34.34 0 0 0 .127.13.39.39 0 0 0 .189.043c.12 0 .218-.047.293-.142a.592.592 0 0 0 .11-.377.586.586 0 0 0-.11-.375.355.355 0 0 0-.293-.143.384.384 0 0 0-.04 0zm-12.813.024v1.006c0 .09-.012.15-.035.177-.022.03-.063.043-.125.043h-.043v.137h.06c.108 0 .186-.028.233-.084.048-.056.073-.148.073-.273v-1.006zm.5 0v1.006c0 .09-.01.15-.033.177-.022.03-.065.043-.127.043h-.043v.137h.065c.106 0 .181-.028.228-.084.048-.056.073-.148.073-.273v-1.006zm1.608 0v1.006c0 .09-.011.15-.033.177-.023.03-.066.043-.127.043h-.043v.137h.058c.107 0 .187-.028.235-.084.048-.056.072-.148.072-.273v-1.002l-.006-.004zm9.77 0v.988h.161v-.988zm.911.111a.239.239 0 0 1 .024 0 .23.23 0 0 1 .2.104c.05.067.073.16.073.279 0 .12-.025.213-.074.281a.234.234 0 0 1-.2.102.238.238 0 0 1-.202-.102.475.475 0 0 1-.074-.281c0-.12.025-.211.074-.28a.239.239 0 0 1 .18-.103zm-11.427.002a.242.242 0 0 1 .021 0c.087 0 .157.035.207.104.05.068.074.16.074.277a.46.46 0 0 1-.074.28.245.245 0 0 1-.207.1.245.245 0 0 1-.207-.1.463.463 0 0 1-.072-.28c0-.118.024-.21.074-.277a.242.242 0 0 1 .184-.104zm1.24.277v.973h.162v-.523a.336.336 0 0 0 .129.13.39.39 0 0 0 .186.043c.035 0 .054-.034.084-.04-.033-.027-.076-.03-.11-.055-.022-.017-.029-.045-.049-.06-.065-.012-.127-.028-.168-.083-.027-.038-.028-.102-.039-.156-.078-.069-.122-.157-.195-.229zm8.258.084c-.068.063-.141.12-.211.178-.012.04-.01.092-.031.121a.241.241 0 0 1-.205.102c-.006 0-.01-.006-.014-.006-.038.029-.071.066-.111.094.044.012.072.05.125.05a.42.42 0 0 0 .332-.138.56.56 0 0 0 .119-.381c0-.008-.004-.012-.004-.02zm-7.666 1.399v.205h.162v-.205zm.5 0v.205h.164v-.205zm5.094 0v.535a.333.333 0 0 0-.127-.13c-.027-.017-.065-.015-.098-.022l.023.152c.045.016.096.022.127.064.05.068.075.16.075.28 0 .12-.025.213-.075.281-.004.006-.011.003-.015.008l.02.127c.023-.023.052-.04.07-.07v.148h.164v-1.373zm.49 0v1.373h.164V21.9a.34.34 0 0 0 .129.131.39.39 0 0 0 .185.043c.12 0 .22-.047.293-.142a.592.592 0 0 0 .114-.377.586.586 0 0 0-.114-.375.355.355 0 0 0-.293-.143.384.384 0 0 0-.185.043.336.336 0 0 0-.131.131v-.535zm-1.479.191c-.013.003-.025.012-.039.014h.041zm-7.529.17a.449.449 0 0 0-.236.076.255.255 0 0 0-.098.215.24.24 0 0 0 .064.18.444.444 0 0 0 .221.098l.057.013a.54.54 0 0 1 .193.069c.03.023.047.054.047.1a.126.126 0 0 1-.063.11.33.33 0 0 1-.175.04.689.689 0 0 1-.174-.024.9.9 0 0 1-.18-.07v.168c.064.02.127.037.184.047a.92.92 0 0 0 .166.015.493.493 0 0 0 .299-.08.258.258 0 0 0 .109-.219.241.241 0 0 0-.072-.187.524.524 0 0 0-.246-.105l-.055-.012a.52.52 0 0 1-.176-.06.108.108 0 0 1-.045-.09c0-.05.02-.087.06-.112a.355.355 0 0 1 .182-.037.666.666 0 0 1 .297.07v-.152a.721.721 0 0 0-.144-.04 1.038 1.038 0 0 0-.17-.013.449.449 0 0 0-.045 0zm1.107 0a.384.384 0 0 0-.148.043.336.336 0 0 0-.13.131v-.15h-.161v1.363h.16V21.9a.34.34 0 0 0 .13.131.39.39 0 0 0 .186.043c.12 0 .218-.047.292-.142a.592.592 0 0 0 .115-.377.587.587 0 0 0-.115-.375.352.352 0 0 0-.29-.143h-.002a.384.384 0 0 0-.037 0zm1.053 0a.421.421 0 0 0-.293.137c-.08.092-.117.219-.117.38 0 .163.04.29.12.382a.42.42 0 0 0 .331.138.42.42 0 0 0 .332-.138.56.56 0 0 0 .121-.381c0-.163-.039-.29-.119-.381a.418.418 0 0 0-.334-.137.421.421 0 0 0-.04 0zm2.063 0a.358.358 0 0 0-.256.139.569.569 0 0 0-.114.367.57.57 0 0 0 .114.367.358.358 0 0 0 .293.139.383.383 0 0 0 .185-.043.337.337 0 0 0 .131-.13v.08c0 .111-.029.194-.082.25-.053.055-.13.083-.236.083a.553.553 0 0 1-.283-.074v.156a.948.948 0 0 0 .308.053c.153 0 .267-.04.342-.123.075-.082.111-.207.111-.375v-.865h-.162v.15a.337.337 0 0 0-.129-.13.383.383 0 0 0-.185-.044.358.358 0 0 0-.037 0zm2.433 0a.384.384 0 0 0-.148.043.336.336 0 0 0-.131.131v-.15h-.16v1.363h.162V21.9a.34.34 0 0 0 .129.131.39.39 0 0 0 .185.043c.041 0 .066-.037.102-.049l-.027-.146c-.036.022-.067.059-.116.059a.235.235 0 0 1-.199-.102.475.475 0 0 1-.074-.281c0-.12.023-.212.072-.28a.235.235 0 0 1 .201-.101l-.006-.02c.064-.008.143-.029.207-.039-.052-.029-.094-.078-.16-.078a.384.384 0 0 0-.037 0zm-3.732.024v1.005c0 .09-.011.148-.033.176-.023.03-.066.045-.127.045h-.043v.137h.06c.107 0 .184-.028.23-.084.05-.057.075-.148.075-.274v-1.005zm.5 0v1.005c0 .09-.011.148-.033.176-.023.03-.064.045-.125.045h-.043v.137h.058c.107 0 .187-.028.235-.084.048-.057.072-.148.072-.274v-1.005zm-2.344.111a.235.235 0 0 1 .023 0c.086 0 .157.035.206.103.049.068.074.16.074.28 0 .12-.025.213-.074.281a.238.238 0 0 1-.206.102.235.235 0 0 1-.199-.102.475.475 0 0 1-.076-.281c0-.12.025-.212.074-.28a.235.235 0 0 1 .178-.103zm3.2 0a.24.24 0 0 1 .019 0c.087 0 .155.033.203.098a.446.446 0 0 1 .072.273.441.441 0 0 1-.072.272.239.239 0 0 1-.203.097.24.24 0 0 1-.203-.097.445.445 0 0 1-.075-.272.45.45 0 0 1 .075-.273.24.24 0 0 1 .183-.098zm5.146 0a.239.239 0 0 1 .021 0c.086 0 .153.035.201.103.05.068.077.16.077.28 0 .12-.027.213-.077.281a.234.234 0 0 1-.199.102.238.238 0 0 1-.205-.102.475.475 0 0 1-.072-.281c0-.12.023-.212.072-.28a.239.239 0 0 1 .182-.103zm-7.242.002a.246.246 0 0 1 .017 0c.086 0 .155.035.205.103.05.07.076.16.076.278a.46.46 0 0 1-.076.281.241.241 0 0 1-.205.1.245.245 0 0 1-.207-.1.463.463 0 0 1-.074-.281.45.45 0 0 1 .074-.278.246.246 0 0 1 .19-.103zm-2.452 1.76v.205h.16v-.205zm1.608 0v.205h.162v-.205zm.502 0v.205h.162v-.205zm2.75 0v.205h.162v-.205zm4.967 0v.205h.162v-.205zm1.601 0v1.373h.162v-.559a.33.33 0 0 1 .076-.228.265.265 0 0 1 .207-.084c.073 0 .128.024.164.07.037.046.055.115.055.209v.592h.162v-.598c0-.136-.027-.238-.086-.308-.058-.07-.143-.106-.257-.106a.373.373 0 0 0-.182.043.397.397 0 0 0-.139.133v-.537zm-10.584.361a1.063 1.063 0 0 0-.336.068v.15a.659.659 0 0 1 .32-.081c.09 0 .159.021.208.062a.21.21 0 0 1 .074.172v.016h-.229c-.147 0-.26.03-.334.086-.074.056-.11.139-.11.25a.3.3 0 0 0 .09.228.34.34 0 0 0 .243.086c.08 0 .146-.015.201-.043a.352.352 0 0 0 .139-.133v.15h.164v-.564c0-.15-.039-.262-.11-.336-.07-.074-.177-.11-.32-.11zm2.106 0a.421.421 0 0 0-.291.137.56.56 0 0 0-.122.38c0 .163.042.29.122.381a.42.42 0 0 0 .334.14.42.42 0 0 0 .332-.14.56.56 0 0 0 .119-.38c0-.163-.04-.29-.12-.381a.418.418 0 0 0-.331-.137.421.421 0 0 0-.043 0zm1.06 0a.358.358 0 0 0-.258.139.569.569 0 0 0-.109.367.57.57 0 0 0 .11.367.358.358 0 0 0 .292.139.383.383 0 0 0 .19-.045.331.331 0 0 0 .129-.13v.081c0 .112-.028.195-.08.25-.053.056-.134.084-.24.084a.553.553 0 0 1-.284-.076v.158a.925.925 0 0 0 .31.053c.155 0 .268-.041.342-.123.075-.082.114-.207.114-.375v-.866h-.162v.15a.337.337 0 0 0-.131-.13.383.383 0 0 0-.188-.043.358.358 0 0 0-.035 0zm1.719 0a.46.46 0 0 0-.31.143.546.546 0 0 0-.13.384.5.5 0 0 0 .137.371.51.51 0 0 0 .375.14.892.892 0 0 0 .365-.077v-.154a.811.811 0 0 1-.353.091.349.349 0 0 1-.252-.087.373.373 0 0 1-.104-.254h.746v-.08a.496.496 0 0 0-.115-.348.4.4 0 0 0-.312-.129.46.46 0 0 0-.047 0zm3.377 0a.418.418 0 0 0-.31.127c.021.057.043.188.066.248.012-.045.012-.104.037-.137a.244.244 0 0 1 .207-.101c.086 0 .154.034.205.103.05.068.074.16.074.278a.46.46 0 0 1-.074.279.241.241 0 0 1-.205.101c-.053 0-.086-.036-.125-.06.015.044.028.12.043.166.03.005.047.033.082.033a.42.42 0 0 0 .332-.139.56.56 0 0 0 .121-.38c0-.163-.04-.29-.121-.381a.418.418 0 0 0-.332-.137zm1.566 0a1.063 1.063 0 0 0-.336.068v.15a.659.659 0 0 1 .32-.081c.09 0 .159.021.208.062a.21.21 0 0 1 .074.172v.016h-.229a.555.555 0 0 0-.334.086c-.074.056-.109.139-.109.25a.3.3 0 0 0 .09.228c.06.057.137.086.238.086.08 0 .148-.015.203-.043a.356.356 0 0 0 .14-.133v.15h.163v-.564c0-.15-.035-.262-.105-.336-.071-.074-.179-.11-.32-.11zm-10.674.023v1.006c0 .09-.012.148-.035.176-.022.03-.063.043-.125.043h-.043v.139h.06c.108 0 .186-.028.233-.084.048-.057.073-.148.073-.274v-1.006zm1.61 0v.989h.162v-.989zm.502 0v1.006c0 .09-.013.148-.035.176-.023.03-.064.043-.125.043h-.043v.139h.058c.107 0 .187-.028.235-.084.048-.057.072-.148.072-.274v-1.006zm2.75 0v1.006c0 .09-.011.148-.033.176-.023.03-.064.043-.125.043h-.045v.139h.06c.107 0 .184-.028.23-.084.05-.057.075-.148.075-.274v-1.006zm4.967 0v1.006c0 .09-.013.148-.036.176-.022.03-.063.043-.125.043h-.045v.139h.065c.106 0 .181-.028.228-.084.05-.057.075-.148.075-.274v-1.006zm-5.76.112a.24.24 0 0 1 .017 0h.002a.24.24 0 0 1 .203.097.446.446 0 0 1 .075.274.441.441 0 0 1-.075.271.242.242 0 0 1-.205.098.24.24 0 0 1-.203-.098.445.445 0 0 1-.07-.271.45.45 0 0 1 .07-.274.24.24 0 0 1 .186-.097zm-1.096.002a.244.244 0 0 1 .022 0c.086 0 .154.035.205.103.05.068.076.16.076.278a.46.46 0 0 1-.076.279.241.241 0 0 1-.205.102.245.245 0 0 1-.207-.102.463.463 0 0 1-.079-.28c0-.117.028-.21.079-.279a.244.244 0 0 1 .185-.101zm2.78 0a.303.303 0 0 1 .025 0 .25.25 0 0 1 .191.08.308.308 0 0 1 .074.213h-.578a.327.327 0 0 1 .096-.217.303.303 0 0 1 .191-.076zm-4.801.377h.16v.037a.38.38 0 0 1-.082.254.267.267 0 0 1-.215.095.23.23 0 0 1-.156-.05.175.175 0 0 1-.057-.137c0-.072.024-.124.074-.154.05-.03.144-.045.276-.045zm9.828 0h.16v.037c0 .106-.027.19-.082.254a.267.267 0 0 1-.215.095.23.23 0 0 1-.156-.05.175.175 0 0 1-.059-.137c0-.072.026-.124.076-.154s.145-.045.276-.045zm-10.78 1.383v.205h.163v-.205zm2.75 0v.205h.163v-.205zm3.329 0v1.37h.162v-1.37zm.496 0v1.37h.162v-.482l.502.483h.213l-.547-.526.521-.46h-.207l-.482.425v-.81zm4.529 0v.205h.164v-.205zm-10.262.36a.421.421 0 0 0-.293.138c-.08.09-.119.218-.119.38s.041.29.121.381c.08.092.19.139.332.139a.42.42 0 0 0 .332-.139.56.56 0 0 0 .121-.38c0-.164-.039-.29-.119-.381a.418.418 0 0 0-.334-.137.421.421 0 0 0-.04 0zm1.06 0a.356.356 0 0 0-.255.138.574.574 0 0 0-.111.369.57.57 0 0 0 .109.367.356.356 0 0 0 .295.137.383.383 0 0 0 .185-.043.337.337 0 0 0 .131-.131v.082c0 .112-.028.195-.08.25-.054.056-.133.084-.24.084a.553.553 0 0 1-.281-.076v.158a.925.925 0 0 0 .308.053c.153 0 .267-.041.342-.123.075-.082.111-.207.111-.375v-.866h-.162v.149a.331.331 0 0 0-.129-.13.383.383 0 0 0-.185-.042.356.356 0 0 0-.037 0zm1.692 0a.421.421 0 0 0-.293.138c-.08.09-.117.218-.117.38s.04.29.12.381c.08.092.19.139.331.139a.42.42 0 0 0 .332-.139.56.56 0 0 0 .121-.38c0-.164-.039-.29-.119-.381a.418.418 0 0 0-.334-.137.421.421 0 0 0-.04 0zm1.778 0a.366.366 0 0 0-.145.044.397.397 0 0 0-.139.133v-.153h-.164v.986h.164v-.556a.33.33 0 0 1 .076-.229.265.265 0 0 1 .207-.084c.073 0 .13.022.166.069.036.046.053.118.053.21v.59h.162v-.595c0-.137-.03-.239-.088-.309-.058-.07-.142-.105-.255-.105a.366.366 0 0 0-.038 0zm4.99 0a.457.457 0 0 0-.309.143.547.547 0 0 0-.129.385.5.5 0 0 0 .137.371.51.51 0 0 0 .375.139.91.91 0 0 0 .363-.076v-.154a.796.796 0 0 1-.353.091.349.349 0 0 1-.252-.088.377.377 0 0 1-.102-.255h.746v-.079a.502.502 0 0 0-.117-.35.4.4 0 0 0-.312-.126.457.457 0 0 0-.047 0zm-10.362.024v1.004c0 .09-.012.15-.035.178-.022.029-.063.043-.125.043h-.043v.139h.06c.108 0 .186-.03.233-.086.048-.057.073-.148.073-.274v-1.004zm2.75 0v1.004c0 .09-.01.15-.033.178-.022.029-.063.043-.125.043h-.045v.139h.065c.106 0 .181-.03.228-.086.048-.057.073-.148.073-.274v-1.004zm8.356 0v.986h.162v-.986zm-9.147.111a.24.24 0 0 1 .02 0 .24.24 0 0 1 .205.098.446.446 0 0 1 .07.274.441.441 0 0 1-.07.271.242.242 0 0 1-.205.098.24.24 0 0 1-.203-.098.445.445 0 0 1-.073-.271.45.45 0 0 1 .073-.274.24.24 0 0 1 .183-.097zm-1.095.002a.244.244 0 0 1 .02 0 .24.24 0 0 1 .204.104c.05.068.076.16.076.277a.46.46 0 0 1-.076.28.241.241 0 0 1-.205.101.245.245 0 0 1-.207-.101.463.463 0 0 1-.074-.28c0-.118.024-.21.074-.279a.244.244 0 0 1 .188-.102zm2.752 0a.244.244 0 0 1 .02 0 .24.24 0 0 1 .204.104c.05.068.076.16.076.277a.46.46 0 0 1-.076.28.241.241 0 0 1-.205.101.245.245 0 0 1-.207-.101.463.463 0 0 1-.074-.28c0-.118.024-.21.074-.279a.244.244 0 0 1 .188-.102zm6.771 0a.308.308 0 0 1 .024 0c.08 0 .143.029.19.08a.304.304 0 0 1 .075.212l-.58.002a.327.327 0 0 1 .096-.217.308.308 0 0 1 .195-.076zm-10.387 1.76v.205h.162v-.205zm.5 0v.205h.162v-.205zm.5 0v.205h.164v-.205zm1.65 0v1.371h.163v-1.37zm4.641 0v.205h.164v-.205zm.657 0l.004.045v-.045zm-6.112.36a.358.358 0 0 0-.293.138.574.574 0 0 0-.109.37c0 .151.035.272.11.365a.358.358 0 0 0 .292.138.383.383 0 0 0 .19-.043.337.337 0 0 0 .129-.13v.08c0 .112-.027.196-.08.252-.053.055-.134.084-.24.084a.553.553 0 0 1-.284-.077v.159a.948.948 0 0 0 .31.052c.155 0 .267-.042.342-.125.074-.08.114-.205.114-.373v-.865h-.162v.148a.331.331 0 0 0-.131-.128.383.383 0 0 0-.188-.045zm1.649 0a.358.358 0 0 0-.293.138.574.574 0 0 0-.113.37c0 .151.039.272.113.365a.358.358 0 0 0 .293.138.383.383 0 0 0 .185-.043.337.337 0 0 0 .131-.13v.08c0 .112-.028.196-.08.252-.054.055-.133.084-.24.084a.553.553 0 0 1-.281-.077v.159a.925.925 0 0 0 .308.052c.153 0 .269-.042.344-.125.075-.08.11-.205.11-.373v-.865h-.163v.148a.331.331 0 0 0-.129-.128.383.383 0 0 0-.185-.045zm1.302 0a.416.416 0 0 0-.2.045.328.328 0 0 0-.134.132v-.152h-.164v.986h.166v-.52c0-.11.024-.196.073-.255a.262.262 0 0 1 .213-.092.298.298 0 0 1 .129.031v-.166a.524.524 0 0 0-.045-.005zm.725 0a.377.377 0 0 0-.183.045.33.33 0 0 0-.131.128v-.148h-.162v1.363h.164v-.525a.346.346 0 0 0 .128.133.383.383 0 0 0 .184.04c.12 0 .218-.047.293-.142a.587.587 0 0 0 .113-.375.587.587 0 0 0-.113-.375.357.357 0 0 0-.293-.144zm1.016 0a.418.418 0 0 0-.29.138.56.56 0 0 0-.12.381c0 .162.039.289.119.381a.42.42 0 0 0 .334.137.422.422 0 0 0 .334-.137c.08-.092.119-.22.119-.38a.555.555 0 0 0-.121-.382.423.423 0 0 0-.332-.138.418.418 0 0 0-.043 0zm5.18 0a.384.384 0 0 0-.186.045.33.33 0 0 0-.129.128v-.148h-.162v1.363h.162v-.525a.346.346 0 0 0 .129.133.39.39 0 0 0 .185.04c.12 0 .217-.047.291-.142a.587.587 0 0 0 .116-.375.587.587 0 0 0-.116-.375.354.354 0 0 0-.289-.144zm1.042 0a.458.458 0 0 0-.306.144.542.542 0 0 0-.131.383c0 .156.045.281.137.373a.508.508 0 0 0 .375.137.973.973 0 0 0 .365-.074v-.155a.796.796 0 0 1-.358.092.349.349 0 0 1-.252-.088.378.378 0 0 1-.1-.256h.747v-.078a.5.5 0 0 0-.115-.35.4.4 0 0 0-.317-.128.458.458 0 0 0-.045 0zm-12.75.025v.986h.162v-.986zm.5 0v1.004c0 .09-.01.15-.033.178-.022.028-.065.043-.127.043h-.043v.138h.065c.106 0 .181-.03.228-.086.048-.056.072-.147.072-.273v-1.004zm.5 0v1.004c0 .09-.01.15-.033.178-.022.028-.063.043-.125.043h-.043v.138h.06c.108 0 .184-.03.231-.086.048-.056.074-.147.074-.273v-1.004zm6.291 0v1.004c0 .09-.01.15-.033.178-.022.028-.065.043-.127.043h-.043v.138h.06c.108 0 .186-.03.233-.086.048-.056.074-.147.074-.273v-1.004zm-5.433.111a.24.24 0 0 1 .017 0c.088 0 .156.033.204.098a.446.446 0 0 1 .076.273.441.441 0 0 1-.076.272.239.239 0 0 1-.204.098.24.24 0 0 1-.203-.098.445.445 0 0 1-.07-.272.45.45 0 0 1 .07-.273.24.24 0 0 1 .186-.098zm1.646 0a.24.24 0 0 1 .02 0c.087 0 .157.033.205.098a.446.446 0 0 1 .07.273.441.441 0 0 1-.07.272.242.242 0 0 1-.205.098.24.24 0 0 1-.203-.098.445.445 0 0 1-.075-.272.45.45 0 0 1 .075-.273.24.24 0 0 1 .183-.098zm1.946 0a.237.237 0 0 1 .023 0c.086 0 .152.034.201.102a.47.47 0 0 1 .074.281c0 .12-.024.213-.074.281a.234.234 0 0 1-.201.102.238.238 0 0 1-.201-.102.476.476 0 0 1-.072-.28c0-.12.023-.214.072-.282a.237.237 0 0 1 .178-.102zm6.195 0a.237.237 0 0 1 .023 0c.086 0 .154.034.203.102a.47.47 0 0 1 .075.281c0 .12-.026.213-.075.281a.234.234 0 0 1-.203.102.238.238 0 0 1-.203-.102.475.475 0 0 1-.072-.28c0-.12.023-.214.072-.282a.237.237 0 0 1 .18-.102zm-5.096.002a.24.24 0 0 1 .022 0c.086 0 .156.035.207.104.05.068.074.16.074.277a.46.46 0 0 1-.074.28.245.245 0 0 1-.207.101.245.245 0 0 1-.207-.101.463.463 0 0 1-.077-.28c0-.118.028-.21.079-.28a.24.24 0 0 1 .183-.1zm6.227 0a.308.308 0 0 1 .021 0h.002c.08 0 .142.028.19.08a.303.303 0 0 1 .076.211l-.578.002a.327.327 0 0 1 .093-.216.308.308 0 0 1 .196-.077zm-12.776 1.76v1.371h.162v-1.37zm.496 0v1.371h.163v-.482l.502.482h.21l-.544-.525.521-.461h-.205l-.484.426v-.81zm2.194 0v1.371h.164v-.482l.502.482h.209l-.543-.525.521-.461h-.207l-.482.426v-.81zm-.809.36a.358.358 0 0 0-.293.138.574.574 0 0 0-.11.37c0 .151.036.272.11.365a.358.358 0 0 0 .293.138.383.383 0 0 0 .19-.043.337.337 0 0 0 .129-.13v.08c0 .111-.027.196-.079.251-.053.056-.134.084-.24.084a.635.635 0 0 1-.283-.076v.158a.925.925 0 0 0 .309.053c.153 0 .267-.043.341-.125.075-.082.114-.207.114-.375v-.863h-.162v.148a.337.337 0 0 0-.131-.13.383.383 0 0 0-.188-.044zm2.352 0a.416.416 0 0 0-.201.044.328.328 0 0 0-.131.133v-.152h-.162v.986h.162v-.52c0-.11.023-.198.072-.257.05-.06.122-.09.213-.09.026 0 .048.002.068.008a.209.209 0 0 1 .06.023v-.166a.524.524 0 0 0-.044-.006c-.014-.002-.026-.004-.037-.004zm1.812 0a.416.416 0 0 0-.199.044.332.332 0 0 0-.135.133v-.152h-.162v.986h.162v-.52c0-.11.027-.198.076-.257a.253.253 0 0 1 .21-.09c.025 0 .05.002.07.008a.209.209 0 0 1 .06.023v-.166a.524.524 0 0 0-.045-.006.26.26 0 0 0-.037-.004zm1.664 0a.418.418 0 0 0-.29.138.56.56 0 0 0-.12.381c0 .162.04.29.12.38.08.094.19.138.331.138a.422.422 0 0 0 .334-.137.563.563 0 0 0 .121-.381.558.558 0 0 0-.12-.38.423.423 0 0 0-.335-.14.418.418 0 0 0-.04 0zm-3.338.025l.4.97-.03.075a.408.408 0 0 1-.08.15.153.153 0 0 1-.106.031h-.096v.137h.131a.27.27 0 0 0 .174-.055c.044-.035.089-.112.135-.23l.431-1.078h-.17l-.308.771-.31-.771zm1.815 0l.396.97-.029.075a.408.408 0 0 1-.082.15.153.153 0 0 1-.101.031h-.096v.137h.129a.268.268 0 0 0 .176-.055.589.589 0 0 0 .132-.23l.436-1.078h-.174l-.309.771-.306-.771zm-4.283.111a.24.24 0 0 1 .017 0 .24.24 0 0 1 .205.098.446.446 0 0 1 .075.273.441.441 0 0 1-.075.272.242.242 0 0 1-.205.097.24.24 0 0 1-.203-.097.445.445 0 0 1-.07-.272.45.45 0 0 1 .07-.273.24.24 0 0 1 .186-.098zm5.847.002c.087 0 .157.035.207.104.051.068.077.16.077.277a.46.46 0 0 1-.077.28.245.245 0 0 1-.207.1.245.245 0 0 1-.207-.1.463.463 0 0 1-.074-.28c0-.118.026-.211.076-.28a.24.24 0 0 1 .205-.1zm-6.644 1.76v.205h.162v-.205zm.492 0v1.371h.164v-.559a.33.33 0 0 1 .074-.228.27.27 0 0 1 .211-.084c.072 0 .126.024.162.07.037.047.055.118.055.211v.59h.162v-.596c0-.136-.03-.24-.088-.31-.058-.07-.144-.106-.258-.106a.367.367 0 0 0-.18.045.397.397 0 0 0-.138.133v-.537zm2.262 0v1.371h.162v-1.371zm.496 0v1.371H22v-.482l.502.482h.21l-.544-.525.523-.463h-.207l-.484.427v-.81zm1.047 0v1.371h.164v-.148a.346.346 0 0 0 .129.132.383.383 0 0 0 .183.041c.12 0 .22-.047.293-.142a.587.587 0 0 0 .115-.375.592.592 0 0 0-.115-.377.355.355 0 0 0-.293-.143.376.376 0 0 0-.183.043.336.336 0 0 0-.131.131v-.533zm7.148 0v.205h.162v-.205zm-12.21.36a.418.418 0 0 0-.292.138.56.56 0 0 0-.119.38c0 .164.04.29.12.382.08.09.19.136.331.136a.422.422 0 0 0 .334-.136.56.56 0 0 0 .121-.381c0-.162-.039-.29-.119-.381a.423.423 0 0 0-.336-.139.418.418 0 0 0-.04 0zm2.757 0a.798.798 0 0 0-.162.017 1.043 1.043 0 0 0-.174.05v.151a.653.653 0 0 1 .318-.08c.09 0 .16.02.207.06.05.042.077.1.077.174v.016h-.23c-.148 0-.258.028-.333.084-.074.056-.11.14-.11.252a.3.3 0 0 0 .089.228.34.34 0 0 0 .242.084c.08 0 .146-.013.201-.04a.362.362 0 0 0 .14-.135v.15h.163v-.562c0-.15-.037-.264-.108-.338-.07-.074-.177-.112-.32-.112zm5.082 0a.374.374 0 0 0-.184.044.397.397 0 0 0-.134.133v-.154h-.162v.988h.162v-.559c0-.096.025-.172.076-.228a.265.265 0 0 1 .207-.084c.073 0 .128.024.164.07a.345.345 0 0 1 .055.211v.59h.162v-.596c0-.136-.028-.24-.086-.31-.058-.07-.146-.106-.26-.106zm2.445 0c-.05 0-.082.04-.125.058.004.047.011.102.014.148.044-.035.088-.07.152-.07a.24.24 0 0 1 .205.096.446.446 0 0 1 .073.273.447.447 0 0 1-.073.274.239.239 0 0 1-.205.097c-.04 0-.061-.032-.093-.047.002.048.01.116.011.163.016 0 .024.021.041.021a.39.39 0 0 0 .192-.045.332.332 0 0 0 .127-.13v.08c0 .111-.025.196-.078.251-.053.056-.135.084-.24.084l-.016-.002c0 .037.01.097.011.133l.03.002c.155 0 .269-.04.344-.123.074-.082.113-.207.113-.375v-.865h-.164v.15a.332.332 0 0 0-.127-.13.39.39 0 0 0-.192-.044zm1.182 0a.457.457 0 0 0-.309.142.546.546 0 0 0-.127.385c0 .156.044.28.135.373a.508.508 0 0 0 .375.136.892.892 0 0 0 .365-.076v-.152a.811.811 0 0 1-.353.092.349.349 0 0 1-.254-.088.378.378 0 0 1-.102-.256h.749v-.078a.5.5 0 0 0-.118-.35.405.405 0 0 0-.314-.129.457.457 0 0 0-.047 0zm-10.701.023v1.006c0 .09-.011.15-.033.177-.023.03-.066.043-.127.043h-.043v.137h.06c.107 0 .184-.027.23-.084.05-.056.075-.148.075-.273v-1.006zm11.445 0v.988h.162v-.988zm-6.734.113a.237.237 0 0 1 .023 0h.002c.085 0 .151.033.2.102a.47.47 0 0 1 .076.28c0 .12-.027.214-.077.282a.234.234 0 0 1-.199.102.238.238 0 0 1-.205-.102.476.476 0 0 1-.07-.281.47.47 0 0 1 .07-.282.237.237 0 0 1 .18-.101zm-5.457.002a.24.24 0 0 1 .021 0c.087 0 .157.033.207.102.05.068.074.162.074.279 0 .118-.023.21-.074.277a.246.246 0 0 1-.207.104.245.245 0 0 1-.207-.102.463.463 0 0 1-.072-.28c0-.116.024-.21.074-.278a.24.24 0 0 1 .184-.102zm11.47 0a.303.303 0 0 1 .026 0c.08 0 .143.025.191.078a.308.308 0 0 1 .074.213l-.578.002a.327.327 0 0 1 .094-.217.303.303 0 0 1 .193-.076zm-8.628.377h.162v.035a.382.382 0 0 1-.082.256.271.271 0 0 1-.217.096.225.225 0 0 1-.154-.051.175.175 0 0 1-.057-.137c0-.072.024-.124.074-.154.05-.03.142-.045.274-.045zm-2.551 1.38v.536a.333.333 0 0 0-.319-.174.353.353 0 0 0-.289.143.596.596 0 0 0-.115.377c0 .155.04.28.113.375a.353.353 0 0 0 .291.142.388.388 0 0 0 .19-.043.337.337 0 0 0 .129-.13v.148h.162V34.22zm.488 0v1.374h.164v-.559a.33.33 0 0 1 .076-.228.265.265 0 0 1 .207-.084c.073 0 .128.024.164.07.037.046.055.118.055.211v.59h.162v-.596c0-.136-.03-.24-.088-.31-.058-.071-.144-.106-.258-.106a.367.367 0 0 0-.18.045.397.397 0 0 0-.138.133v-.54zm3.441 0v1.374h.165v-.482l.501.482h.21l-.544-.525.524-.463h-.207l-.484.425v-.81zm3.073 0v.208h.162v-.207zm3.164 0v.208h.162v-.207zm.5 0v.208h.164v-.207zm1.15 0v.536a.337.337 0 0 0-.314-.174.357.357 0 0 0-.293.143.595.595 0 0 0-.114.377c0 .155.039.28.114.375a.357.357 0 0 0 .293.142.341.341 0 0 0 .314-.173v.148h.162V34.22zm-9.74.362a.376.376 0 0 0-.148.043.336.336 0 0 0-.127.13v-.15h-.165v1.364h.165v-.524a.34.34 0 0 0 .126.131.383.383 0 0 0 .186.043.36.36 0 0 0 .295-.142.587.587 0 0 0 .111-.375.592.592 0 0 0-.111-.377.355.355 0 0 0-.295-.143.376.376 0 0 0-.037 0zm1.047 0a.353.353 0 0 0-.291.143.596.596 0 0 0-.113.377c0 .155.038.28.113.375a.353.353 0 0 0 .289.142.388.388 0 0 0 .187-.043.337.337 0 0 0 .131-.13v.523h.16v-1.363h-.162v.15a.333.333 0 0 0-.314-.174zm2.176 0a.798.798 0 0 0-.164.018 1.043 1.043 0 0 0-.172.05v.151a.653.653 0 0 1 .316-.08c.09 0 .158.02.207.06.05.04.074.1.074.174v.016h-.224c-.148 0-.26.027-.334.084-.074.056-.114.14-.114.252a.3.3 0 0 0 .09.228c.06.057.14.084.24.084.08 0 .15-.015.206-.043a.356.356 0 0 0 .136-.132v.15h.162v-.563c0-.15-.033-.263-.103-.337-.07-.074-.177-.112-.32-.112zm1.029 0a.449.449 0 0 0-.236.076.255.255 0 0 0-.098.215c0 .076.022.138.066.182a.436.436 0 0 0 .217.096l.059.013a.54.54 0 0 1 .193.069c.03.024.047.057.047.101a.126.126 0 0 1-.065.111.33.33 0 0 1-.173.04.689.689 0 0 1-.174-.024.884.884 0 0 1-.178-.07v.168c.064.02.125.035.182.045a.92.92 0 0 0 .166.015.493.493 0 0 0 .299-.08.254.254 0 0 0 .109-.217.245.245 0 0 0-.072-.189.525.525 0 0 0-.246-.104l-.055-.013a.52.52 0 0 1-.176-.06.103.103 0 0 1-.043-.089c0-.05.02-.086.06-.111a.355.355 0 0 1 .18-.037.666.666 0 0 1 .297.07v-.154a.721.721 0 0 0-.144-.04 1.038 1.038 0 0 0-.17-.013.449.449 0 0 0-.045 0zm1.441 0a.449.449 0 0 0-.234.076.255.255 0 0 0-.1.215c0 .076.024.138.069.182a.444.444 0 0 0 .216.096l.057.013c.1.022.164.046.193.069.03.024.047.057.047.101a.126.126 0 0 1-.06.111.33.33 0 0 1-.178.04.689.689 0 0 1-.174-.024.9.9 0 0 1-.178-.07v.168c.064.02.125.035.182.045a.92.92 0 0 0 .166.015.493.493 0 0 0 .3-.08.254.254 0 0 0 .11-.217.246.246 0 0 0-.076-.189.517.517 0 0 0-.242-.104l-.059-.013a.52.52 0 0 1-.172-.06.103.103 0 0 1-.042-.089.12.12 0 0 1 .058-.111.355.355 0 0 1 .184-.037.666.666 0 0 1 .297.07v-.154a.721.721 0 0 0-.149-.04 1.038 1.038 0 0 0-.17-.013.449.449 0 0 0-.045 0zm1.006 0c-.04 0-.062.037-.098.047-.07.02-.145.03-.195.092a.569.569 0 0 0-.11.367.57.57 0 0 0 .11.367.358.358 0 0 0 .293.139.383.383 0 0 0 .19-.043.337.337 0 0 0 .129-.13v.079c0 .112-.028.197-.08.252-.053.056-.134.084-.24.084a.648.648 0 0 1-.282-.076v.158a.8.8 0 0 0 .309.05c.154 0 .267-.04.341-.122.075-.082.114-.207.114-.375v-.866h-.162v.15a.337.337 0 0 0-.131-.13.383.383 0 0 0-.188-.043zm3.836 0a.358.358 0 0 0-.258.139.569.569 0 0 0-.11.367.57.57 0 0 0 .11.367.358.358 0 0 0 .293.139.383.383 0 0 0 .19-.043.336.336 0 0 0 .129-.13v.079c0 .112-.028.197-.08.252-.053.056-.134.084-.24.084a.635.635 0 0 1-.284-.076v.158a.78.78 0 0 0 .31.05c.155 0 .266-.04.34-.122.075-.082.116-.207.116-.375v-.866H31.1v.15a.337.337 0 0 0-.131-.13.383.383 0 0 0-.188-.043.358.358 0 0 0-.035 0zm-5.61.024v1.006c0 .09-.01.15-.032.177-.023.03-.066.043-.127.043h-.043v.137h.06c.107 0 .184-.028.23-.084.05-.057.075-.147.075-.273v-1.006zm3.165 0v1.006c0 .09-.011.15-.033.177-.023.03-.066.043-.127.043h-.043v.137h.06c.107 0 .184-.028.23-.084.05-.057.075-.147.075-.273v-1.006zm.5 0v.988h.164v-.989zm-10.97.113a.233.233 0 0 1 .024 0c.086 0 .156.033.206.101a.47.47 0 0 1 .074.282.472.472 0 0 1-.074.28.238.238 0 0 1-.206.102.235.235 0 0 1-.199-.101.475.475 0 0 1-.076-.281c0-.12.025-.214.074-.282a.233.233 0 0 1 .176-.101zm2.357 0a.237.237 0 0 1 .023 0c.086 0 .152.033.201.101a.47.47 0 0 1 .072.282.472.472 0 0 1-.072.28.238.238 0 0 1-.201.102.238.238 0 0 1-.203-.101.476.476 0 0 1-.072-.281c0-.12.023-.214.072-.282a.237.237 0 0 1 .18-.101zm1.083 0a.233.233 0 0 1 .024 0h.002c.086 0 .152.033.201.101a.47.47 0 0 1 .074.282.472.472 0 0 1-.074.28.238.238 0 0 1-.201.102.235.235 0 0 1-.201-.101.475.475 0 0 1-.074-.281c0-.12.025-.214.074-.282a.233.233 0 0 1 .176-.101zm5.68 0c.08 0 .139.033.186.086.005.005.014.002.02.01a.446.446 0 0 1 .072.273.447.447 0 0 1-.075.273.237.237 0 0 1-.203.096.242.242 0 0 1-.205-.096.451.451 0 0 1-.07-.273.45.45 0 0 1 .07-.274c.024-.03.069-.03.102-.046.034-.017.058-.05.103-.05zm2.701 0a.237.237 0 0 1 .024 0c.086 0 .154.033.203.101a.47.47 0 0 1 .072.282.472.472 0 0 1-.072.28.238.238 0 0 1-.203.102.238.238 0 0 1-.203-.101.476.476 0 0 1-.075-.281c0-.12.026-.214.075-.282a.237.237 0 0 1 .18-.101zm1.15 0a.239.239 0 0 1 .018 0c.088 0 .155.03.203.095a.446.446 0 0 1 .077.274.447.447 0 0 1-.077.273.237.237 0 0 1-.203.096.239.239 0 0 1-.203-.096.451.451 0 0 1-.07-.273.45.45 0 0 1 .07-.274.239.239 0 0 1 .186-.095zm-7.269.379h.162v.035a.382.382 0 0 1-.082.256.271.271 0 0 1-.217.095.225.225 0 0 1-.154-.05.179.179 0 0 1-.055-.14c0-.07.026-.121.077-.151.05-.03.138-.045.27-.045z" font-weight="400" font-size="1.806" font-family="sans-serif" letter-spacing="0" word-spacing="0"/><path d="M24.167 22.851a8.65 8.65 0 0 0 2.58-.474c.98 4.962 1.444 7.985 2.232 12.078-.968.285-1.922.396-2.84.49-.597-4.127-1.057-5.56-1.972-12.094z" fill="url(#i)"/><path d="M26.063 22.583l-.964.181c-.151 1.299.006 3.558.455 6.445.367 2.363.853 4.328 1.31 5.635.545-.037.905-.109 1.322-.19.037-1.411-.154-3.513-.525-5.895-.446-2.868-1.067-5.014-1.598-6.176z" fill="url(#j)"/><path d="M26.01 20.854c-.591.133-1.117.232-1.61.3l.261 1.564c.588-.052 1.135-.112 1.623-.263z" fill="url(#k)"/><path d="M24.096 8.691a6.232 6.232 0 0 0-4.754 2.403 6.246 6.246 0 0 0 1.09 8.761 6.246 6.246 0 0 0 8.761-1.09 6.246 6.246 0 0 0-1.09-8.761 6.212 6.212 0 0 0-4.007-1.313zm.066.776a5.509 5.509 0 0 1 3.553 1.164 5.532 5.532 0 0 1-6.797 8.726 5.533 5.533 0 0 1-.969-7.761 5.523 5.523 0 0 1 4.213-2.13z" fill="#333" fill-rule="evenodd"/><path style="line-height:1;text-align:center" d="M20.695 10.955c-.132.118-.278.21-.4.344.026-.001.037-.016.064-.016.14 0 .285.02.434.059.15.04.308.098.477.18v-.432a3.283 3.283 0 0 0-.49-.127c-.03-.005-.056-.004-.085-.008zm2.399.025l-1.252 3.282h.469l.298-.842h1.479l.299.842h.46l-1.25-3.282zm1.424 0v.375h1.166v2.907h.445v-2.907h1.166v-.375zm3.638.165l-1.19 3.117h.47l.298-.842h1.479l.299.842h.275a5.533 5.533 0 0 0-.642-1.965c-.15-.27-.417-.47-.614-.715l.543 1.469h-1.207l.58-1.567c-.096-.114-.185-.231-.29-.34zm-4.81.273l.603 1.633h-1.207zm-3.639.664c-.084.133-.136.276-.207.414.149.107.323.203.6.258l.27.053c.224.045.387.114.485.205.1.09.149.217.149.379 0 .184-.07.326-.207.425-.138.1-.333.149-.586.149-.167 0-.337-.025-.51-.076a2.592 2.592 0 0 1-.53-.229v.457c.189.07.37.121.544.156.176.036.34.053.496.053.412 0 .723-.082.935-.246.214-.164.323-.405.323-.723 0-.266-.08-.48-.239-.638-.156-.16-.4-.271-.732-.334l-.268-.055c-.243-.045-.408-.104-.496-.178-.018-.016-.013-.05-.027-.07zm7.096 3.342c-.36 0-.643.083-.848.25-.204.167-.305.395-.305.685 0 .25.075.446.223.586.148.141.388.246.719.31l.27.054c.224.045.387.114.486.205.1.09.148.215.148.377 0 .184-.07.326-.207.425-.138.1-.332.15-.586.15-.167 0-.337-.024-.51-.075a2.592 2.592 0 0 1-.529-.229v.457c.188.07.369.12.543.154.176.036.34.055.496.055.412 0 .723-.084.936-.248.214-.164.322-.405.322-.723 0-.266-.08-.478-.238-.636-.157-.16-.402-.271-.733-.334l-.267-.055c-.244-.045-.41-.104-.496-.178-.087-.074-.131-.185-.131-.33 0-.173.065-.306.195-.4.132-.094.32-.14.56-.14.14 0 .285.018.434.058.15.04.308.1.477.181v-.433a3.393 3.393 0 0 0-.49-.125 2.716 2.716 0 0 0-.47-.041zm-5.701.058v3.282h.43v-2.746l1.454 2.746h.598v-3.282h-.43v2.745L21.7 15.482zm3.367 0v3.282h.443v-3.282z" font-weight="400" font-size="4.501" font-family="sans-serif" letter-spacing="0" word-spacing="0" text-anchor="middle"/><path d="M27.714 10.63a5.536 5.536 0 0 0-7.764.966 5.532 5.532 0 0 0 .968 7.761 5.528 5.528 0 0 0 7.758-.965 5.532 5.532 0 0 0-.962-7.762z" fill="url(#l)"/></svg>