<svg xmlns="http://www.w3.org/2000/svg" xmlns:xlink="http://www.w3.org/1999/xlink" viewBox="0 0 48 48"><defs><linearGradient id="c"><stop offset="0" stop-color="#b7c8b7"/><stop offset="1" stop-color="#677867"/></linearGradient><linearGradient id="i" x1="23.23" x2="28.25" y1="21.85" y2="5.53" gradientTransform="translate(-.14 .66)" gradientUnits="userSpaceOnUse"><stop offset="0"/><stop stop-opacity="0" offset="1"/></linearGradient><linearGradient id="h" x1="23.23" x2="16.93" y1="21.85" y2="38.1" gradientUnits="userSpaceOnUse"><stop offset="0"/><stop stop-opacity="0" offset="1"/></linearGradient><linearGradient id="j" x1="28.58" x2="16.74" y1="21.52" y2="21.77" gradientUnits="userSpaceOnUse"><stop offset="0"/><stop stop-opacity="0" offset="1"/></linearGradient><filter id="f" x="-.01" y="-.01" width="1.02" height="1.03" color-interpolation-filters="sRGB"><feGaussianBlur stdDeviation=".18"/></filter><linearGradient id="e" x1="4.38" x2="43.38" y1="5.59" y2="46.53" gradientUnits="userSpaceOnUse"><stop offset="0"/><stop stop-opacity="0" offset="1"/></linearGradient><linearGradient id="g" x1="29.45" x2="28.82" y1="6.72" y2="9.11" gradientUnits="userSpaceOnUse" xlink:href="#a"/><linearGradient id="a"><stop offset="0"/><stop stop-opacity="0" offset="1"/></linearGradient><linearGradient id="m" x1="39.58" x2="36.71" y1="3.72" y2="18.37" gradientUnits="userSpaceOnUse" xlink:href="#a" gradientTransform="translate(20)"/><linearGradient id="k" x1="24.41" x2="22.97" y1="25.64" y2="24.97" gradientUnits="userSpaceOnUse" xlink:href="#b"/><linearGradient id="b"><stop offset="0" stop-color="#feffff"/><stop offset="1" stop-color="#feffff" stop-opacity="0"/></linearGradient><linearGradient id="l" x1="26.85" x2="24.55" y1="20.66" y2="20.13" gradientUnits="userSpaceOnUse" xlink:href="#b"/><radialGradient xlink:href="#b" id="n" cx="27.57" cy="18.76" fx="27.57" fy="18.76" r="6.96" gradientTransform="matrix(1.32866 .55481 -.0648 .15519 14.85 -7.96)" gradientUnits="userSpaceOnUse"/><linearGradient xlink:href="#a" id="o" gradientUnits="userSpaceOnUse" gradientTransform="matrix(-1 0 0 1 47.96 -.05)" x1="29.45" y1="6.72" x2="28.82" y2="9.11"/><linearGradient xlink:href="#a" id="p" gradientUnits="userSpaceOnUse" gradientTransform="matrix(-1 0 0 1 47.96 -.05)" x1="28.58" y1="21.52" x2="16.74" y2="21.77"/><linearGradient xlink:href="#b" id="q" gradientUnits="userSpaceOnUse" gradientTransform="matrix(-1 0 0 1 47.96 -.05)" x1="24.41" y1="25.64" x2="22.97" y2="24.97"/><linearGradient xlink:href="#b" id="r" gradientUnits="userSpaceOnUse" gradientTransform="matrix(-1 0 0 1 47.96 -.05)" x1="26.85" y1="20.66" x2="24.55" y2="20.13"/><radialGradient xlink:href="#b" id="t" cx="27.57" cy="18.76" fx="27.57" fy="18.76" r="6.96" gradientTransform="matrix(1.32866 .55481 -.0648 .15519 14.85 -7.96)" gradientUnits="userSpaceOnUse"/><linearGradient xlink:href="#a" id="s" gradientUnits="userSpaceOnUse" gradientTransform="translate(20)" x1="39.58" y1="3.72" x2="36.71" y2="18.37"/><linearGradient xlink:href="#c" id="d" x1="23.52" y1="47.99" x2="23.71" y2=".49" gradientUnits="userSpaceOnUse"/></defs><path d="M23.71.5C17.88.5 13.2 1.6 9.78 3.82 5.68 6.48 3.5 10.73 3.5 16.1c0 7.22 5.8 16.88 7.58 19.67a54.47 54.47 0 0 0 6.25 8.16c2.54 2.64 4.57 3.87 6.37 3.87 1.8 0 3.83-1.23 6.37-3.87 2-2.08 4.22-4.98 6.25-8.16 1.78-2.79 7.59-12.45 7.59-19.67 0-5.37-2.17-9.62-6.27-12.27C34.23 1.6 29.55.49 23.7.49z" fill="url(#d)"/><path d="M26.65 46.83c1.04-.64 2.17-1.6 3.43-2.9 2-2.08 4.22-4.98 6.25-8.16.89-1.4 2.79-4.5 4.46-8.17a43.2 43.2 0 0 0 2.19-5.77c.34-1.17.4-2.27.56-3.4l-.24-.25-5.61-5.6L32 9.21l-3.75-3.7-.96 4.46-.28 2.07-6.22-6.1-.76 1.49L16 8.84l-5.08 2.93-4.9 4.04-1.36 2.32 15.06 15.23-2.89 3.48z" opacity=".2" fill="url(#e)"/><path d="M20.04 7.44c.33-.02.65.2.73.57.5 2.32 1.83 8.3 3.22 13.36 1.38-5.05 2.7-11 3.2-13.31a.72.72 0 1 1 1.4.3l-.1.55c.23.07.76.25 1.47.51 3.52 1.31 11.64 4.9 13.2 10.65-1.98-2.6-8.45-6.8-13.78-7.77l.27-1.32-1.5-.54c-.74 3.35-2.09 9.2-3.4 13.67a70.99 70.99 0 0 0 6.2 14.41l-1.32.76S26.47 34 23.99 26.54a71.74 71.74 0 0 1-5.66 12.8l-1.31-.77s3.65-6.06 6.18-14.4l.02-.07a229.42 229.42 0 0 1-3.4-13.7l-1.52.52.27 1.33c-5.32.97-11.8 5.17-13.77 7.77 1.56-5.74 9.68-9.34 13.2-10.65a31.6 31.6 0 0 1 1.48-.51l-.12-.55a.73.73 0 0 1 .68-.88z" opacity=".2" filter="url(#f)"/><path d="M3.64 14.88c-.03.42-.13.79-.13 1.22 0 7.22 5.8 16.88 7.58 19.67a54.47 54.47 0 0 0 6.25 8.16c2.54 2.64 4.57 3.87 6.37 3.87 1.8 0 3.83-1.23 6.37-3.87 2-2.08 4.22-4.98 6.25-8.16 1.78-2.79 7.59-12.45 7.59-19.67 0-.43-.1-.8-.13-1.22a21.6 21.6 0 0 1-.81 4.95 43.18 43.18 0 0 1-2.19 5.77 69.59 69.59 0 0 1-4.46 8.17 54.46 54.46 0 0 1-6.25 8.16 17.98 17.98 0 0 1-3.46 2.93c-1.05.64-2 .94-2.9.94-.91 0-1.87-.3-2.92-.94-1.05-.64-2.19-1.61-3.46-2.93-2-2.08-4.21-4.98-6.25-8.16a69.6 69.6 0 0 1-4.46-8.17 43.2 43.2 0 0 1-2.19-5.77 21.6 21.6 0 0 1-.8-4.95z" opacity=".2"/><path d="M28.14 8.42l1.52.54c.07-.34 1.3.1 1.35-.2.05-.25-1.06-1.25-1.04-1.37-.72-.27-1.25-.44-1.49-.52-.05.22-.93.3-1 .57-.05.26.72.69.66.98z" fill="#ccc"/><path d="M28.14 8.42l1.52.54c.07-.34 1.3.1 1.35-.2.05-.25-1.06-1.25-1.04-1.37-.72-.27-1.25-.44-1.49-.52-.05.22-.93.3-1 .57-.05.26.72.69.66.98z" opacity=".8" fill="url(#g)"/><path d="M28.14 8.42a370.09 370.09 0 0 0 .46-2.1.73.73 0 1 0-1.43-.31c-.6 2.77-2.4 10.85-4.05 16.27-2.58 8.43-6.29 14.56-6.29 14.56l1.33.77s3.7-6.13 6.28-14.56c1.4-4.58 2.9-11.05 3.7-14.63z" fill="#b27214"/><path d="M23.23 21.85c-.05.15-.07.29-.11.44a71.77 71.77 0 0 1-6.29 14.55l1.33.77s3.52-6.03 6.06-13.75c-.15-.46-.56-.38-.7-.86-.11-.36-.18-.77-.3-1.15z" opacity=".45" fill="url(#h)"/><path d="M24.6 22.5a243.01 243.01 0 0 0 3.74-14.97l.12-.56a.73.73 0 0 0-.35-.78.73.73 0 0 0-1.08.47c-.47 2.19-1.84 8.04-3.14 12.9.31 1.17.4 1.9.72 2.95z" opacity=".45" fill="url(#i)"/><path d="M28.14 8.42a370.09 370.09 0 0 0 .46-2.1.73.73 0 1 0-1.43-.31c-.6 2.77-2.4 10.85-4.05 16.27-2.58 8.43-6.29 14.56-6.29 14.56l1.33.77s3.7-6.13 6.28-14.56c1.4-4.58 2.9-11.05 3.7-14.63z" opacity=".5" fill="url(#j)"/><path d="M29.39 10.3c5.38.99 11.91 5.25 13.9 7.88-1.56-5.8-9.77-9.46-13.32-10.79a284.02 284.02 0 0 1-.59 2.91z" fill="#e6e6e6"/><path d="M28.14 8.42a370.09 370.09 0 0 0 .46-2.1.73.73 0 1 0-1.43-.31c-.6 2.77-2.4 10.85-4.05 16.27-2.58 8.43-6.29 14.56-6.29 14.56l1.33.77s3.7-6.13 6.28-14.56c1.4-4.58 2.9-11.05 3.7-14.63z" opacity=".5" fill="url(#k)"/><path d="M28.14 8.42a370.09 370.09 0 0 0 .46-2.1.73.73 0 1 0-1.43-.31c-.6 2.77-2.4 10.85-4.05 16.27-2.58 8.43-6.29 14.56-6.29 14.56l1.33.77s3.7-6.13 6.28-14.56c1.4-4.58 2.9-11.05 3.7-14.63z" opacity=".5" fill="url(#l)"/><path d="M49.38 10.3c5.39.99 11.92 5.25 13.92 7.88-1.57-5.8-9.78-9.46-13.33-10.79a284.02 284.02 0 0 1-.59 2.91z" opacity=".35" fill="url(#m)" transform="translate(-20)"/><path d="M49.39 10.3c5.38.99 11.91 5.25 13.9 7.88-1.56-5.8-9.77-9.46-13.32-10.79a284.02 284.02 0 0 1-.58 2.91z" opacity=".4" fill="url(#n)" transform="translate(-20)"/><path d="M19.82 8.37l-1.52.54c-.07-.34-1.3.1-1.35-.2-.05-.25 1.06-1.25 1.04-1.37.72-.27 1.24-.44 1.49-.52.05.21.93.3 1 .57.05.26-.73.69-.66.98z" fill="#ccc"/><path d="M19.82 8.37l-1.52.54c-.07-.34-1.3.1-1.35-.2-.05-.25 1.06-1.25 1.04-1.37.72-.27 1.24-.44 1.49-.52.05.21.93.3 1 .57.05.26-.73.69-.66.98z" opacity=".8" fill="url(#o)"/><path d="M19.82 8.37a370.09 370.09 0 0 1-.46-2.1.73.73 0 1 1 1.43-.32c.6 2.78 2.4 10.86 4.05 16.28 2.58 8.43 6.28 14.56 6.28 14.56l-1.32.77S26.1 31.43 23.52 23c-1.4-4.58-2.9-11.05-3.7-14.63z" fill="#b27214"/><path d="M18.57 10.25c-5.38.99-11.91 5.25-13.9 7.88 1.56-5.8 9.77-9.46 13.32-10.79a284.02 284.02 0 0 0 .58 2.91z" fill="#e6e6e6"/><path d="M19.82 8.37a370.09 370.09 0 0 1-.46-2.1.73.73 0 1 1 1.43-.32c.6 2.78 2.4 10.86 4.05 16.28 2.58 8.43 6.28 14.56 6.28 14.56l-1.32.77S26.1 31.43 23.52 23c-1.4-4.58-2.9-11.05-3.7-14.63z" opacity=".5" fill="url(#p)"/><path d="M19.82 8.37a370.09 370.09 0 0 1-.46-2.1.73.73 0 1 1 1.43-.32c.6 2.78 2.4 10.86 4.05 16.28 2.58 8.43 6.28 14.56 6.28 14.56l-1.32.77S26.1 31.43 23.52 23c-1.4-4.58-2.9-11.05-3.7-14.63z" opacity=".5" fill="url(#q)"/><path d="M19.82 8.37a370.09 370.09 0 0 1-.46-2.1.73.73 0 1 1 1.43-.32c.6 2.78 2.4 10.86 4.05 16.28 2.58 8.43 6.28 14.56 6.28 14.56l-1.32.77S26.1 31.43 23.52 23c-1.4-4.58-2.9-11.05-3.7-14.63z" opacity=".5" fill="url(#r)"/><g><path d="M49.38 10.3c5.39.99 11.92 5.25 13.92 7.88-1.57-5.8-9.78-9.46-13.33-10.79a284.02 284.02 0 0 1-.59 2.91z" opacity=".35" fill="url(#s)" transform="matrix(-1 0 0 1 67.96 -.05)"/><path d="M49.39 10.3c5.38.99 11.91 5.25 13.9 7.88-1.56-5.8-9.77-9.46-13.32-10.79a284.02 284.02 0 0 1-.58 2.91z" opacity=".4" fill="url(#t)" transform="matrix(-1 0 0 1 67.96 -.05)"/></g></svg>