<svg xmlns="http://www.w3.org/2000/svg" viewBox="0 0 48 48"><defs><linearGradient id="b" x1="11.21" x2="48.08" y1="10.69" y2="29.21" gradientUnits="userSpaceOnUse"><stop offset="0"/><stop stop-opacity="0" offset="1"/></linearGradient><linearGradient id="d" x1="24" x2="23.71" y1="5.11" y2="46.09" gradientUnits="userSpaceOnUse"><stop offset="0"/><stop stop-opacity="0" offset="1"/></linearGradient><radialGradient id="c" cx="24" cy="17.05" r="9.23" gradientTransform="matrix(2.414 .0178 -.01578 2.1406 -33.65 -20.29)" gradientUnits="userSpaceOnUse"><stop stop-color="#fff" offset="0"/><stop stop-color="#d8d8d8" offset=".41"/><stop offset="1"/></radialGradient><linearGradient id="a" x1="23.81" x2="23.71" y1="-1.86" y2="47.25" gradientUnits="userSpaceOnUse"><stop stop-color="#5f8248" offset="0"/><stop stop-color="#78aa50" offset=".4"/><stop stop-color="#a0fa64" offset=".84"/><stop stop-color="#aade87" offset="1"/></linearGradient></defs><path fill="url(#a)" d="M23.71.5C17.88.5 13.2 1.6 9.78 3.82 5.68 6.48 3.5 10.73 3.5 16.1c0 7.22 5.8 16.88 7.58 19.67a54.47 54.47 0 0 0 6.25 8.16c2.54 2.64 4.57 3.87 6.37 3.87 1.8 0 3.83-1.23 6.37-3.87 2-2.08 4.22-4.98 6.25-8.16 1.78-2.79 7.59-12.45 7.59-19.67 0-5.37-2.17-9.62-6.27-12.27C34.23 1.6 29.55.49 23.7.49z"/><path opacity=".35" fill="url(#b)" d="M33.02 40.1c1.12-1.45 2.23-2.64 3.31-4.33.89-1.4 2.79-4.5 4.46-8.17.84-1.83 1.62-3.8 2.2-5.77s.93-3.93.93-5.73c0-1.34-.14-2.62-.4-3.81-.14-.58-.4-1.09-.59-1.63L25.2 5.19c-4.03 8.59-6.75 19.5-12.08 25.77z"/><path opacity=".2" d="M23.71.5C17.88.5 13.2 1.6 9.78 3.82 5.68 6.48 3.5 10.73 3.5 16.1c0 7.22 5.8 16.88 7.58 19.67a54.47 54.47 0 0 0 6.25 8.16c2.54 2.64 4.57 3.87 6.37 3.87 1.8 0 3.83-1.23 6.37-3.87 2-2.08 4.22-4.98 6.25-8.16 1.78-2.79 7.59-12.45 7.59-19.67 0-5.37-2.17-9.62-6.27-12.27C34.23 1.6 29.55.49 23.7.49zm0 .14c2.12.08 4.12.27 5.88.69 1.16.28 2.25.63 3.26 1.04 1.01.42 1.95.9 2.8 1.46a12.92 12.92 0 0 1 4.67 5.12c.53 1.03.93 2.14 1.2 3.34.26 1.2.4 2.47.4 3.8 0 1.81-.37 3.77-.94 5.74a43.19 43.19 0 0 1-2.19 5.77 69.59 69.59 0 0 1-4.46 8.17 54.47 54.47 0 0 1-6.25 8.16 17.98 17.98 0 0 1-3.46 2.93c-.32.2-.62.3-.9.39-.3-.09-.6-.2-.92-.4-1.05-.63-2.19-1.6-3.46-2.92-2-2.08-4.21-4.98-6.25-8.16a69.6 69.6 0 0 1-4.46-8.17 43.2 43.2 0 0 1-2.19-5.77 20.93 20.93 0 0 1-.93-5.73c0-1.34.13-2.62.4-3.81.27-1.2.67-2.31 1.2-3.34a13.06 13.06 0 0 1 4.67-5.12c.85-.56 1.78-1.04 2.8-1.46s2.1-.76 3.26-1.04c1.75-.42 3.76-.6 5.87-.7z"/><path fill="#f9f9f9" d="M24 5.11c5.1 0 9.23 4.13 9.23 9.23v14.4H14.77v-14.4c0-5.1 4.14-9.23 9.23-9.23z"/><path opacity=".5" fill="url(#c)" d="M24 5.11c5.1 0 9.23 4.13 9.23 9.23v14.4H14.77v-14.4c0-5.1 4.14-9.23 9.23-9.23z"/><path opacity=".76" fill="#686d6d" d="M34.7 30.89H13.3a.26.26 0 0 1-.26-.26v-1.65c0-.14.12-.26.26-.26h21.4c.14 0 .26.12.26.26v1.65c0 .14-.12.26-.26.26z"/><path opacity=".8" fill="#555656" d="M34.7 30.89h-3.85v-2.15h3.85c.14 0 .26.11.26.26v1.63c0 .14-.12.26-.26.26z"/><path opacity=".7" fill="#686d6d" d="M26.27 14.37h-1.33v2c0 .14-.12.26-.26.26h-1.36a.26.26 0 0 1-.26-.26v-2h-1.33a.26.26 0 0 1-.26-.26v-1.35c0-.15.11-.26.26-.26h1.33V8.96c0-.14.12-.26.26-.26h1.36c.14 0 .26.12.26.26v3.54h1.33c.15 0 .26.11.26.26v1.35c0 .14-.11.26-.26.26z"/><g stroke-width=".05" fill="#686d6d"><path opacity=".68" d="M29.73 20.13H18.27a.39.39 0 1 1 0-.78h11.46a.39.39 0 1 1 0 .78zM29.73 22.39H18.27a.39.39 0 1 1 0-.78h11.46a.39.39 0 1 1 0 .78zM29.73 24.65H18.27a.39.39 0 1 1 0-.78h11.46a.39.39 0 1 1 0 .78z"/></g><path opacity=".2" fill="url(#d)" d="M24 5.11a9.23 9.23 0 0 0-9.23 9.23v14.4h1.94V15.56c0-1.17.2-2.28.57-3.3s.9-1.91 1.55-2.67a7.3 7.3 0 0 1 2.3-1.81 6.34 6.34 0 0 1 5.64 0 7.3 7.3 0 0 1 2.3 1.8c.66.77 1.19 1.68 1.55 2.69s.57 2.12.57 3.29v13.18h2.03v-14.4c0-5.1-4.12-9.23-9.22-9.23z"/><path opacity=".8" fill="#555656" d="M13.1 30.96h3.86v-2.15H13.1a.26.26 0 0 0-.26.26v1.64c0 .14.11.25.26.25z"/><path opacity=".46" fill="#333" d="M24 16.63h.68c.14 0 .26-.12.26-.26v-2h1.33c.15 0 .26-.12.26-.26v-1.35a.26.26 0 0 0-.26-.26h-1.33V8.96a.26.26 0 0 0-.26-.26H24z"/><path fill="#f9f9f9" d="M23.95 7.11c-4 0-7.24 3.43-7.24 7.67v11.96H31.2V14.78c0-4.24-3.24-7.67-7.24-7.67zm0 .83c3.66 0 6.63 3.14 6.63 7.02V25.9H17.33V14.96c0-3.88 2.96-7.02 6.62-7.02z"/></svg>