<?xml version="1.0" encoding="UTF-8" standalone="no"?><svg xmlns:dc="http://purl.org/dc/elements/1.1/" xmlns:cc="http://creativecommons.org/ns#" xmlns:rdf="http://www.w3.org/1999/02/22-rdf-syntax-ns#" xmlns="http://www.w3.org/2000/svg" xmlns:xlink="http://www.w3.org/1999/xlink" width="48" height="48"><metadata><rdf:RDF><cc:Work><dc:format>image/svg+xml</dc:format><dc:type rdf:resource="http://purl.org/dc/dcmitype/StillImage"/><dc:title/></cc:Work></rdf:RDF></metadata><defs><linearGradient id="g"><stop offset="0" stop-color="#4d4d4d"/><stop offset="1" stop-color="gray"/></linearGradient><linearGradient id="d"><stop offset="0" stop-color="#e9afaf"/><stop offset="1" stop-color="#c83737"/></linearGradient><radialGradient xlink:href="#a" id="p" gradientUnits="userSpaceOnUse" gradientTransform="matrix(-.38797 .06742 -.83354 -2.29412 45.81 28.4)" cx="49.01" cy="8.5" fx="47.37" fy="6.77" r="3.98"/><linearGradient id="a"><stop offset="0" stop-color="#fff"/><stop offset="1" stop-color="#aeaeae"/></linearGradient><radialGradient xlink:href="#b" id="q" gradientUnits="userSpaceOnUse" gradientTransform="matrix(.37201 .00248 0 .01985 17.6 14.82)" cx="34.68" cy="7.46" fx="11.25" fy="18.45" r="47.6"/><linearGradient id="b"><stop offset="0" stop-color="#fff" stop-opacity=".68"/><stop offset="1" stop-color="#fff" stop-opacity="0"/></linearGradient><linearGradient xlink:href="#c" id="r" gradientUnits="userSpaceOnUse" gradientTransform="matrix(-.36494 .13088 .12696 .36117 36.28 2.12)" x1="48.5" y1=".81" x2="48.73" y2="2.37"/><linearGradient id="c"><stop offset="0" stop-color="#fff"/><stop offset="1" stop-color="#fff" stop-opacity="0"/></linearGradient><filter id="l" x="-.08" width="1.16" y="-.05" height="1.1" color-interpolation-filters="sRGB"><feGaussianBlur stdDeviation=".66"/></filter><linearGradient xlink:href="#d" id="i" x1="4.53" y1="2.5" x2="42.39" y2="45.87" gradientUnits="userSpaceOnUse"/><linearGradient id="o" x1="33.69" x2="33.7" y1="8.27" y2="10.04" gradientTransform="translate(-12.7 -3.33) scale(1.30769)" gradientUnits="userSpaceOnUse" xlink:href="#e"/><linearGradient id="e"><stop stop-color="#666" offset="0"/><stop stop-color="#fff" offset="1"/></linearGradient><linearGradient id="n" x1="33.69" x2="33.7" y1="8.27" y2="10.04" gradientTransform="translate(-10.09 -3.33) scale(1.30769)" gradientUnits="userSpaceOnUse" xlink:href="#e"/><linearGradient gradientTransform="translate(-7.47 -3.33) scale(1.30769)" id="m" x1="33.69" x2="33.7" y1="8.27" y2="10.04" gradientUnits="userSpaceOnUse" xlink:href="#e"/><linearGradient id="f" x1="24" x2="24" y1="13" y2="40" gradientTransform="matrix(.81086 0 0 .78703 -35.55 2)" gradientUnits="userSpaceOnUse"><stop stop-color="#fff" stop-opacity=".94" offset="0"/><stop stop-color="#fff" stop-opacity=".71" offset="1"/></linearGradient><linearGradient id="h" x1="21.87" x2="21.78" y1="8.58" y2="39.92" gradientTransform="matrix(1.0303 0 0 .9754 -81.85 -3.45)" gradientUnits="userSpaceOnUse"><stop stop-color="#0b1728" offset="0"/><stop stop-color="#214478" offset=".13"/><stop stop-color="#5f8dd3" offset="1"/></linearGradient><linearGradient xlink:href="#f" id="k" gradientUnits="userSpaceOnUse" gradientTransform="matrix(.81086 0 0 .78703 4.45 2)" x1="24" y1="13" x2="24" y2="40"/><linearGradient xlink:href="#g" id="j" x1="18.96" y1="4.03" x2="18.96" y2="36.22" gradientUnits="userSpaceOnUse"/></defs><path d="M-72.32 5.7a1.4 1.4 0 0 0-.4.38l.08-.12c.1-.1.22-.16.32-.26z" fill="url(#h)"/><path fill="url(#i)" d="M24 .35c-5.83 0-10.52 1.12-13.93 3.33-4.1 2.66-6.27 6.9-6.27 12.27 0 7.23 5.8 16.88 7.58 19.67a54.48 54.48 0 0 0 6.25 8.16c2.54 2.64 4.57 3.87 6.37 3.87 1.8 0 3.83-1.23 6.37-3.87 2-2.08 4.22-4.97 6.25-8.16 1.78-2.79 7.58-12.44 7.58-19.67 0-5.37-2.16-9.61-6.26-12.27C34.52 1.47 29.84.35 24 .35z"/><path d="M7.68 5.7c-.1.1-.23.17-.32.26l-.08.12c-.18.27-.37.54-.37.9v20.44l.01.03a64.6 64.6 0 0 0 4.17 7.64h25.82a67.67 67.67 0 0 0 4-7.34V6.97c0-.9-.72-1.63-1.63-1.63H8.54c-.34 0-.6.18-.86.36z" fill="url(#j)"/><path opacity=".5" d="M3.92 14.74c-.02.4-.12.78-.12 1.2 0 7.24 5.8 16.9 7.58 19.68a54.48 54.48 0 0 0 6.25 8.16c2.54 2.64 4.57 3.87 6.37 3.87 1.8 0 3.83-1.23 6.37-3.87 2-2.08 4.22-4.97 6.25-8.16 1.78-2.79 7.58-12.44 7.58-19.67 0-.43-.1-.8-.12-1.21a21.6 21.6 0 0 1-.81 4.94 43.2 43.2 0 0 1-2.2 5.77 69.59 69.59 0 0 1-4.45 8.17 54.47 54.47 0 0 1-6.25 8.16 17.98 17.98 0 0 1-3.46 2.93c-1.05.64-2 .94-2.9.94-.91 0-1.87-.3-2.92-.94-1.05-.64-2.2-1.6-3.46-2.93-2-2.08-4.21-4.97-6.25-8.16a69.6 69.6 0 0 1-4.46-8.17 43.2 43.2 0 0 1-2.19-5.77 21.6 21.6 0 0 1-.8-4.94z"/><path d="M8.5 30.36c.65 1.2 1.21 2.29 1.72 3.14h27.56c.46-.77.96-1.77 1.54-2.82V12.66a.4.4 0 0 0-.41-.41h-30a.4.4 0 0 0-.4.4z" fill="url(#k)"/><g filter="url(#l)" stroke-width=".94" transform="translate(-1.3 -1.39) scale(1.06081)"><g stroke-width="3.79" transform="translate(-16.19 7.45) scale(.24896)"><path fill-opacity=".76" d="M139.84 15.47v-2.8z"/><path fill-rule="evenodd" d="M188.45 122.52c.24.64-1.22 3.11-4.98 4.46-3.8 1.36-6.44.55-6.75-.26-.2-.52-42-115.59-42.2-116.11l11.73-4.2c.2.52 42 115.58 42.2 116.1"/><path d="M155.09 30.67c-.13-1.49-5.02-14.73-5.8-15.85l-9.38 3.38 5.8 15.85zm-8.4 3.03l-5.79-15.85-3.3 1.18c.08 1.28 4.88 14.55 5.8 15.85z"/><ellipse transform="matrix(.33523 .94214 .95003 -.31216 0 0)" cx="114.42" cy="131.77" rx="62.5" ry="3.49"/><path fill-rule="evenodd" d="M146.12 6.01c-.2-.59-2.86-1.42-6.63-.07-3.8 1.36-5.36 3.54-5.1 4.28.18.48-.04-.08.13.4l11.73-4.2c-.17-.49.04.08-.13-.4"/><path fill-rule="evenodd" d="M140.57 5.74a15.13 15.13 0 0 0-4.52 2.16c-.15.15 2.45-1.25 4.3-1.62 1.85-.37 3.89.42 4.09.36.2-.05 1.65-.7.72-1.04-.98-.34-2.78-.36-4.59.14z"/></g><path d="M28.99 16.82c-.4-.02-.4-.96-.7-1.2-.3-.25-1.21-.06-1.31-.43-.1-.38.8-.67.93-1.03.14-.36-.33-1.17 0-1.38.32-.22.87.55 1.26.57.39.02 1.02-.68 1.32-.44.3.25-.25 1-.15 1.38.1.38.96.76.82 1.12-.14.36-1.04.07-1.36.28-.33.21-.43 1.15-.81 1.13zm-14.29.88c-.09.08-.34-.08-.46-.05-.13.03-.26.3-.38.25-.12-.04-.02-.3-.08-.4-.07-.1-.38-.12-.37-.24.01-.12.32-.12.4-.21.1-.1.04-.37.16-.4.13-.03.22.23.33.27.12.04.4-.1.47 0 .06.1-.2.26-.2.38-.02.11.21.3.13.4zm-.87-7.2c-.18.17-.63-.19-.88-.15-.25.05-.57.53-.79.43-.22-.1.04-.6-.07-.8-.11-.2-.71-.31-.67-.54.05-.22.66-.18.84-.34.18-.17.13-.72.38-.76.25-.04.37.5.6.6.22.1.78-.14.9.06.1.2-.43.49-.48.71-.04.23.36.63.17.8zm9.07-1.1c-.23-.24.4-.8.38-1.12-.03-.32-.74-.73-.55-1.01.19-.29.95.06 1.28-.08.33-.13.58-.89.92-.82.35.06.19.83.42 1.06.23.24 1.1.19 1.12.5.02.33-.83.46-1.02.74-.19.28.1 1-.23 1.14-.33.13-.7-.55-1.05-.62-.35-.06-1.03.44-1.26.2z"/></g><path d="M35.59 7.67h1.95V9.7h-1.95z" opacity=".4" fill="url(#m)"/><path fill-opacity=".76" fill="#fff" d="M18.62 11.3v-.7z"/><path d="M32.98 7.67h1.94V9.7h-1.94z" opacity=".4" fill="url(#n)"/><path fill-rule="evenodd" fill="#1a1a1a" d="M30.73 37.95c.06.16-.3.78-1.24 1.11-.95.34-1.6.14-1.68-.06L17.3 10.1l2.92-1.05 10.5 28.9"/><path d="M30.36 7.67h1.95V9.7h-1.95z" opacity=".4" fill="url(#o)"/><path fill="url(#p)" d="M22.42 15.09a32.08 32.08 0 0 0-1.44-3.95l-2.34.84 1.45 3.95zm-2.09.75l-1.44-3.95-.82.3c.02.32 1.21 3.62 1.44 3.94z"/><ellipse fill="url(#q)" ry=".87" rx="15.56" cy="15.05" cx="30.51" transform="matrix(.33523 .94214 .95003 -.31216 0 0)"/><path fill-rule="evenodd" fill="#1a1a1a" d="M20.19 8.95c-.05-.15-.71-.36-1.65-.02-.95.34-1.34.88-1.27 1.06l.03.1 2.92-1.04-.03-.1"/><path fill-rule="evenodd" fill="url(#r)" d="M18.8 8.88a3.77 3.77 0 0 0-1.12.54c-.04.03.61-.31 1.07-.4.46-.1.97.1 1.02.08.05 0 .41-.17.18-.26-.24-.08-.7-.09-1.14.04z"/><path fill="#eb7331" d="M28.99 16.82c-.4-.02-.4-.96-.7-1.2-.3-.25-1.21-.06-1.31-.43-.1-.38.8-.67.93-1.03.14-.36-.33-1.17 0-1.38.32-.22.87.55 1.26.57.39.02 1.02-.68 1.32-.44.3.25-.25 1-.15 1.38.1.38.96.76.82 1.12-.14.36-1.04.07-1.36.28-.33.21-.43 1.15-.81 1.13zm-14.29.88c-.09.08-.34-.08-.46-.05-.13.03-.26.3-.38.25-.12-.04-.02-.3-.08-.4-.07-.1-.38-.12-.37-.24.01-.12.32-.12.4-.21.1-.1.04-.37.16-.4.13-.03.22.23.33.27.12.04.4-.1.47 0 .06.1-.2.26-.2.38-.02.11.21.3.13.4zm-.87-7.2c-.18.17-.63-.19-.88-.15-.25.05-.57.53-.79.43-.22-.1.04-.6-.07-.8-.11-.2-.71-.31-.67-.54.05-.22.66-.18.84-.34.18-.17.13-.72.38-.76.25-.04.37.5.6.6.22.1.78-.14.9.06.1.2-.43.49-.48.71-.04.23.36.63.17.8zm9.07-1.1c-.23-.24.4-.8.38-1.12-.03-.32-.74-.73-.55-1.01.19-.29.95.06 1.28-.08.33-.13.58-.89.92-.82.35.06.19.83.42 1.06.23.24 1.1.19 1.12.5.02.33-.83.46-1.02.74-.19.28.1 1-.23 1.14-.33.13-.7-.55-1.05-.62-.35-.06-1.03.44-1.26.2z"/></svg>