<svg xmlns="http://www.w3.org/2000/svg" width="24" height="24"><path fill="#333" d="M4.977 2.97a2 2 0 0 0-2 2v14a2 2 0 0 0 2 2h14a2 2 0 0 0 2-2v-14a2 2 0 0 0-2-2zm6.999 2.807c1.135 0 2.2.304 3.118.836l-3.118 2.265-3.118-2.265a6.205 6.205 0 0 1 3.118-.836zm-4.18 1.609l1.19 3.665-3.12 2.267a6.231 6.231 0 0 1 1.93-5.932zm8.36 0a6.231 6.231 0 0 1 1.93 5.932l-3.121-2.268zm-7.236.43l2.259 1.641-1.396 1.015zm6.11 0l-.862 2.656-1.395-1.015zm-3.054 2.22l1.887 1.372-.72 2.22h-2.334l-.722-2.22zM9.29 11.988l.533 1.64h-2.79zm5.37 0l2.26 1.64h-2.793zm-8.387 2.577h3.855l1.192 3.668a6.26 6.26 0 0 1-5.047-3.668zm4.84 0h1.725l-.862 2.654zm2.71 0h3.856a6.26 6.26 0 0 1-5.048 3.668z"/></svg>