<svg xmlns="http://www.w3.org/2000/svg" width="24" height="24"><path fill="#1a1a1a" d="M13.73 2.63c-.56 0-1.15.1-1.75.3a6.11 6.11 0 0 0-1.74-.29c-2.94 0-6.9 2.86-6.96 5.27-.07 2.61-.26 7.34-.4 10.98h-.32v2.38H21.4v-2.38h-.35c-.13-4.24-.28-9.12-.39-11-.15-2.5-4-5.26-6.94-5.26zm0 1.36c2.21 0 5.6 2.53 5.59 4.7-.02 1.5.06 4.9.04 10.2H8.07l.01-.01c-.03-5.7.09-10.24.09-10.24 0-2.1 3.35-4.65 5.56-4.65zm-4.13.08C8.02 5.12 6.8 6.57 6.78 7.9c-.08 2.62-.26 7.35-.4 10.99h-1.8c-.03-5.7.1-10.24.1-10.24 0-1.9 2.75-4.17 4.92-4.58z"/></svg>