<svg xmlns="http://www.w3.org/2000/svg" width="24" height="24"><defs><linearGradient id="a"><stop offset="0"/><stop offset="1" stop-color="#020000" stop-opacity="0"/></linearGradient></defs><path d="M7.21 1.87c-.14.02-.27.07-.41.12a2.5 2.5 0 0 0-1.6 1.67c-.25.77-.3 1.68-.19 2.7.07.56.22 1.18.38 1.81l-.15.04c-2.4.69-4 1.62-4.48 3.07-.24.73-.06 1.57.42 2.2a5.65 5.65 0 0 0 2.2 1.64l.65-1.45a4.28 4.28 0 0 1-1.6-1.13c-.24-.33-.27-.48-.19-.73.17-.5 1.28-1.46 3.46-2.08l.15-.04c.26.75.54 1.52.9 2.31a22.15 22.15 0 0 0-1.47 4.3A9.73 9.73 0 0 0 5 19.4c.1.88.39 1.61.95 2.13a2.5 2.5 0 0 0 2.16.57c.8-.16 1.62-.6 2.5-1.26l-.94-1.25c-.76.57-1.41.87-1.86.95-.44.09-.66.01-.83-.15-.18-.16-.35-.54-.42-1.18a8.2 8.2 0 0 1 .23-2.58c.2-.87.53-1.82.9-2.77 1.38 2.48 3 4.6 4.6 6.07.83.78 1.66 1.4 2.46 1.79.81.38 1.65.54 2.43.3a2.5 2.5 0 0 0 1.6-1.67c.25-.77.3-1.68.19-2.7a21.06 21.06 0 0 0-2.5-7.16l-1.41.76a19.73 19.73 0 0 1 2.31 6.6c.1.87.07 1.57-.07 2-.15.45-.32.58-.57.65-.25.08-.7.06-1.3-.22-.59-.29-1.3-.79-2.04-1.48-1.5-1.4-3.14-3.5-4.48-6v-.04c-.14-.25-.25-.5-.38-.76.52-1.03 1.11-2.03 1.75-3 3.59-.2 7.41.29 9.67 1.34.7.32 1.2.68 1.48.98.28.3.31.53.3.72 0 .2-.1.41-.41.72a5.1 5.1 0 0 1-1.56.99l.65 1.44a6.56 6.56 0 0 0 2.05-1.29c.5-.5.84-1.15.87-1.82.03-.67-.28-1.3-.76-1.82a6.11 6.11 0 0 0-1.97-1.37c-2.37-1.1-5.74-1.62-9.1-1.55a16.14 16.14 0 0 1 2.8-2.92l.07-.04c.66-.48 1.21-.76 1.64-.87.43-.12.7-.07.87.03.17.1.34.32.45.76.12.45.15 1.13.04 1.98l1.56.19c.12-1 .11-1.86-.08-2.58a2.72 2.72 0 0 0-1.17-1.71 2.66 2.66 0 0 0-2.05-.2c-.72.2-1.49.6-2.28 1.18A19.47 19.47 0 0 0 9.38 7.5c-.83.08-1.65.19-2.43.34-.16-.6-.28-1.16-.34-1.67-.1-.87-.07-1.57.07-2 .15-.45.32-.58.57-.65.35-.11 1.18.04 2.24.8L10.4 3c-1.1-.78-2.18-1.26-3.19-1.14zm1.03 7.36c-.18.3-.36.6-.53.92l-.3-.8c.26-.05.55-.08.83-.12zm4.21 1.48a1.82 1.82 0 1 0 0 3.65 1.82 1.82 0 0 0 0-3.65z" style="line-height:normal;-inkscape-font-specification:Sans;text-indent:0;text-align:start;text-decoration-line:none;text-transform:none;marker:none" color="#000" font-weight="400" font-family="Sans" overflow="visible" fill="#1a1a1a" fill-opacity=".98"/></svg>