<svg xmlns="http://www.w3.org/2000/svg" width="24" height="24"><defs><linearGradient id="a"><stop offset="0" stop-color="teal"/><stop offset="1" stop-color="#0ff"/></linearGradient></defs><path d="M2.207 1.12c-.603 0-1.088.484-1.088 1.087v19.586c0 .603.485 1.088 1.088 1.088h19.586c.603 0 1.088-.485 1.088-1.088V2.207c0-.603-.485-1.088-1.088-1.088H2.207zm2.176 2.175h15.232c.603 0 1.09.485 1.09 1.088v15.232c0 .603-.487 1.09-1.09 1.09H4.383a1.087 1.087 0 0 1-1.088-1.09V4.383c0-.603.485-1.088 1.088-1.088zM6 6.5v11h5v-2.334H8.334V8.834H11V6.5H6zm7 0v2.334h2.666v6.332H13V17.5h5v-11h-5z" fill="#1a1a1a"/></svg>
