<svg xmlns="http://www.w3.org/2000/svg" width="24" height="24"><defs><linearGradient id="a"><stop offset="0" stop-color="#2c89a0"/><stop offset="1" stop-color="#2c89a0" stop-opacity="0"/></linearGradient><linearGradient id="b"><stop stop-color="#3daefd"/><stop offset="1" stop-color="#24a058"/></linearGradient><linearGradient id="c"><stop offset="0" stop-color="#afdde9"/><stop offset="1" stop-color="#0cf"/></linearGradient><linearGradient id="d"><stop offset="0" stop-color="#1a1a1a"/><stop offset="1" stop-color="#4d4d4d"/></linearGradient></defs><path d="M2.63 3.204v1.632H.997v1.12h1.6v1.088h-1.6v1.118h1.6V9.25h-1.6v1.087h1.6v1.12h-1.6v1.087h1.6v1.119h-1.6v1.087h1.6v1.088h-1.6v1.118h1.6v1.088h-1.6v1.12h1.663v1.632h1.087v-1.473h1.088v1.473h1.12v-1.473h1.088v1.473h1.118v-1.473H9.25v1.473h1.087v-1.473h1.12v1.473h1.087v-1.473h1.119v1.473h1.087v-1.473h1.088v1.473h1.118v-1.473h1.088v1.473h1.12v-1.473h1.088v1.473h1.087v-1.6h1.663v-1.12h-1.6v-1.12h1.6v-1.118h-1.6V14.75h1.6v-1.087h-1.6v-1.12h1.6v-1.087h-1.6v-1.119h1.6V9.281h-1.6V8.194h1.6v-1.15h-1.6V5.956h1.6V4.804h-1.663v-1.6h-1.087v1.473h-1.088V3.204h-1.12v1.473h-1.088V3.204h-1.118v1.473H14.75V3.204h-1.087v1.473h-1.12V3.204h-1.087v1.473h-1.119V3.204H9.281v1.473H8.194V3.204h-1.15v1.473H5.956V3.204H4.804v1.473H3.717V3.204zM5.57 8.067h12.858a.54.54 0 0 1 .544.543.54.54 0 0 1-.544.544H5.571a.544.544 0 0 1-.544-.544.54.54 0 0 1 .544-.543zm0 3.39h12.858a.52.52 0 0 1 .544.543.54.54 0 0 1-.544.544H5.571A.544.544 0 0 1 5.027 12a.54.54 0 0 1 .544-.544zm0 3.389h12.858a.52.52 0 0 1 .544.544.54.54 0 0 1-.544.543H5.571a.544.544 0 0 1-.544-.543.54.54 0 0 1 .544-.544z" fill="#1a1a1a"/></svg>