<svg xmlns="http://www.w3.org/2000/svg" width="24" height="24" viewBox="0 0 6.35 6.35"><defs><linearGradient id="c"><stop offset="0" stop-color="#000005"/><stop offset="1" stop-opacity="0"/></linearGradient><linearGradient id="b"><stop offset="0" stop-color="#00000a"/><stop offset="1" stop-opacity="0"/></linearGradient><linearGradient id="a"><stop offset="0" stop-color="#2d5016"/><stop offset="1" stop-color="#71c837"/></linearGradient></defs><path d="M.45.41v3.3l1.88.82.02-.03a.43.43 0 0 1 .34-.16c.24 0 .44.2.44.44s-.2.44-.44.44a.44.44 0 0 1-.43-.38V4.8L.44 4v1.94H5.9V.41h-.86v1.67l.02.03c.12.07.19.2.19.34a.4.4 0 0 1-.4.41.41.41 0 0 1-.42-.4c0-.19.11-.34.28-.4l.05-.02V.41H1.82v1.83h.89l.02-.04a.41.41 0 0 1 .39-.28c.23 0 .42.19.42.43s-.18.43-.42.43a.42.42 0 0 1-.37-.23l-.02-.04H1.56V.4z" fill="#1a1a1a" stroke-width=".91"/></svg>