<svg xmlns="http://www.w3.org/2000/svg" width="24" height="24"><defs><linearGradient id="a"><stop offset="0"/><stop offset="1" stop-opacity="0"/></linearGradient></defs><path d="M14.65 4.87a.54.54 0 0 0-.74.21l-1.96 3.49-1.57-3.25a.54.54 0 0 0-.73-.25L.86 9.32a.54.54 0 0 0-.25.73l4.26 8.8a.54.54 0 0 0 .72.24l6.56-3.17 5.7 3.2a.54.54 0 0 0 .74-.2l4.79-8.52a.54.54 0 0 0-.21-.74zm1.02 1.51a1.36 1.36 0 0 1 .52 1.85 1.36 1.36 0 0 1-1.85.52 1.36 1.36 0 0 1-.52-1.85 1.36 1.36 0 0 1 1.85-.52zm5.68 3.19a1.36 1.36 0 0 1 .52 1.85 1.36 1.36 0 0 1-1.85.52 1.36 1.36 0 0 1-.52-1.85 1.36 1.36 0 0 1 1.85-.52zM9.8 6.55a1.36 1.36 0 0 1 .55.59 1.36 1.36 0 0 1-.63 1.81 1.36 1.36 0 0 1-1.82-.63 1.36 1.36 0 0 1 .64-1.81 1.36 1.36 0 0 1 1.26.04zm7.1 4.27a1.36 1.36 0 0 1 .52 1.84 1.36 1.36 0 0 1-1.84.52 1.36 1.36 0 0 1-.52-1.84 1.36 1.36 0 0 1 1.84-.52zm-4.43 1.24a1.36 1.36 0 0 1 .52 1.85 1.36 1.36 0 0 1-1.85.52 1.36 1.36 0 0 1-.52-1.85 1.36 1.36 0 0 1 1.85-.52zm5.68 3.2a1.36 1.36 0 0 1 .52 1.84 1.36 1.36 0 0 1-1.85.52 1.36 1.36 0 0 1-.52-1.85 1.36 1.36 0 0 1 1.85-.52zM3.98 9.4a1.36 1.36 0 0 1 .52.57 1.36 1.36 0 0 1-.63 1.8 1.36 1.36 0 0 1-1.82-.62 1.36 1.36 0 0 1 .63-1.81 1.36 1.36 0 0 1 1.3.06zm2.8 5.85a1.36 1.36 0 0 1 .56.58 1.36 1.36 0 0 1-.63 1.82 1.36 1.36 0 0 1-1.82-.63 1.36 1.36 0 0 1 .63-1.82 1.36 1.36 0 0 1 1.27.05z" fill="#1a1a1a" stroke-width=".68"/></svg>