<svg xmlns="http://www.w3.org/2000/svg" width="24" height="24"><defs><linearGradient id="a"><stop offset="0" stop-color="#025"/><stop offset="1" stop-color="#08a"/></linearGradient><linearGradient id="b"><stop offset="0"/><stop offset="1" stop-opacity="0"/></linearGradient></defs><path d="M.48 3.21s2.68-.1 4.9-.1c3.08 0 6.64.9 6.64 6.24 0 5.3-3.56 6.2-6.64 6.17l-1.35.04v5.33H.44zm3.55 9.63h1.28c1.91 0 3.15-1.68 3.15-3.52 0-1.68-1-3.5-2.88-3.56H4.03zm9.76 3.59c.78.47 2.22 1.78 3.46 1.78 1.24 0 2.31-.64 2.31-1.35 0-.67-.43-1.54-2-2.04-2.73-.98-3.8-2.08-3.77-3.7 0-2.54 2.12-4.45 5.44-4.45a7.1 7.1 0 0 1 3.45.9v2.69c-.6-.34-2.18-.91-3.35-.91-1 0-2.01.67-2.01 1.34 0 .9 1 1 2.61 1.58 2.52.87 3.6 2.18 3.63 4.2 0 2.5-1.95 4.52-5.77 4.39a9.7 9.7 0 0 1-4.03-.88v-3.55z" fill="#1a1a1a"/></svg>