<svg xmlns="http://www.w3.org/2000/svg" width="24" height="24" id="svg7"><defs id="defs3"><style id="current-color-scheme"/></defs><path d="M15.84 2a5.77 5.77 0 0 1-2.5.51 8 8 0 0 0-5.8 2.45C5.46 7.1 4.8 9.8 5.75 12.3c.23.59.35 1.17.3 1.31-.06.14-.46.53-.89.88a4.85 4.85 0 0 0-1.75 3.16c-.1.75-.02 1.12.38 2.02.9 1.94 2.91 2.78 5.05 2.1 1.25-.4 2.5-1.82 3.49-3.97.85-1.85.88-1.9 1.81-2.24a8.16 8.16 0 0 0 3.5-2.22 6.85 6.85 0 0 0 1.75-6.53c-.28-1.02-.5-1.37-1.76-2.69a12.14 12.14 0 0 1-1.58-1.87c-.06-.16-.1-.25-.21-.25zm-3.91 2.5c.72 0 1.28.22 1.43.66.05.14-.16.83-.47 1.5-.8 1.75-1.05 2.73-1.54 5.83-.61 3.85-1.26 5.5-2.59 6.5-.82.62-1.85.68-2.4.12A1.59 1.59 0 0 1 6 17.4c.16-.5.84-.58 2.1-.75.87-.14 1.5-.75 1.5-1.55 0-.5-.2-.79-.88-1.51-1.07-1.13-2.03-2.2-2.03-3.57a5.35 5.35 0 0 1 5.25-5.52zm2.91 1.25c.25-.03.59.24 1.04.77a5.32 5.32 0 0 1-.42 7.3c-.87.8-1.07.84-1.67.42-.35-.25-.41-.48-.41-1.39 0-1.4.47-4.81.85-6.11.17-.63.36-.95.62-.99z" id="path5" color="#fff" fill="#1a1a1a" stroke-width="1.25"/></svg>
