<svg xmlns="http://www.w3.org/2000/svg" xmlns:xlink="http://www.w3.org/1999/xlink" width="48" height="48"><defs><linearGradient id="b"><stop offset="0" stop-color="#e3dbdb"/><stop offset="1" stop-color="#fff" stop-opacity=".97"/></linearGradient><linearGradient id="a"><stop offset="0"/><stop offset="1" stop-opacity="0"/></linearGradient><linearGradient xlink:href="#a" id="d" x1="24.06" y1="9.02" x2="24.48" y2="48.68" gradientUnits="userSpaceOnUse"/><linearGradient xlink:href="#b" id="c" x1="19.95" y1="4.14" x2="19.76" y2="33.69" gradientUnits="userSpaceOnUse"/></defs><path d="M24 .35c-5.83 0-10.52 1.12-13.93 3.33-4.1 2.66-6.27 6.9-6.27 12.27 0 7.23 5.8 16.88 7.58 19.67a54.48 54.48 0 0 0 6.25 8.16c2.54 2.64 4.57 3.87 6.37 3.87 1.8 0 3.83-1.23 6.37-3.87 2-2.08 4.22-4.97 6.25-8.16 1.78-2.79 7.58-12.44 7.58-19.67 0-5.37-2.16-9.61-6.26-12.27C34.52 1.47 29.84.35 24 .35z" fill="#bb3e48"/><rect ry="2.68" y="4.42" x="11.58" height="28.99" width="20.24" fill="url(#c)"/><path d="M14.28 39.81c1.5 2.14 1.92 2.48 3.35 3.97a17.98 17.98 0 0 0 3.46 2.93c1.05.64 2 .94 2.91.94.9 0 1.86-.3 2.91-.94 1.05-.64 2.19-1.6 3.46-2.93 2-2.08 4.22-4.97 6.25-8.16.39-.61-.68 1.19 0 0l-.1-22.91-5.87-3.46v8.91l-16.28 7.38v5.24z" opacity=".6" fill="url(#d)"/><path d="M32.06 8.4c.35 0 .7.13.95.39l3.14 3.14c.53.52.53 1.37 0 1.9l-2.46 2.46-5.03-5.04 2.45-2.46c.27-.26.6-.4.95-.4z" fill="#1a1a1a"/><path d="M29.23 10.67l5.04 5.04L19.4 30.58l-5.04-5.04z" fill="#483e37"/><path d="M14.37 25.74l5.04 5.04h-5.04z" fill="#f95"/><path d="M24 .35c-5.83 0-10.52 1.12-13.93 3.33-4.1 2.66-6.27 6.9-6.27 12.27 0 7.23 5.8 16.88 7.58 19.67a54.48 54.48 0 0 0 6.25 8.16c2.54 2.64 4.57 3.87 6.37 3.87 1.8 0 3.83-1.23 6.37-3.87 2-2.08 4.22-4.97 6.25-8.16 1.78-2.79 7.58-12.44 7.58-19.67 0-5.37-2.16-9.61-6.26-12.27C34.52 1.47 29.84.35 24 .35zm0 .14c2.11.09 4.12.27 5.88.7 1.16.27 2.25.62 3.26 1.03 1.01.42 1.94.9 2.8 1.46A12.92 12.92 0 0 1 40.6 8.8c.53 1.03.92 2.15 1.2 3.34.26 1.2.4 2.47.4 3.8 0 1.82-.37 3.77-.94 5.74a43.19 43.19 0 0 1-2.2 5.77 69.59 69.59 0 0 1-4.45 8.17 54.47 54.47 0 0 1-6.25 8.16 17.98 17.98 0 0 1-3.46 2.93c-.32.2-.62.3-.91.39-.3-.08-.6-.2-.9-.4-1.06-.63-2.2-1.6-3.47-2.92-2-2.08-4.22-4.97-6.25-8.16a69.6 69.6 0 0 1-4.46-8.17 43.19 43.19 0 0 1-2.19-5.77 20.93 20.93 0 0 1-.93-5.73c0-1.34.13-2.61.4-3.8.27-1.2.67-2.32 1.2-3.35a12.92 12.92 0 0 1 4.67-5.12 17.1 17.1 0 0 1 2.8-1.46c1-.41 2.1-.76 3.26-1.04C19.88.76 21.89.58 24 .5z" opacity=".2"/><path d="M14.37 30.78l1.38-.02-1.37-1.5z" fill="#191918"/></svg>