<?xml version="1.0" encoding="UTF-8" standalone="no"?>
<!-- Created with Inkscape (http://www.inkscape.org/) -->

<svg
   xmlns:dc="http://purl.org/dc/elements/1.1/"
   xmlns:cc="http://creativecommons.org/ns#"
   xmlns:rdf="http://www.w3.org/1999/02/22-rdf-syntax-ns#"
   xmlns:svg="http://www.w3.org/2000/svg"
   xmlns="http://www.w3.org/2000/svg"
   xmlns:xlink="http://www.w3.org/1999/xlink"
   xmlns:sodipodi="http://sodipodi.sourceforge.net/DTD/sodipodi-0.dtd"
   xmlns:inkscape="http://www.inkscape.org/namespaces/inkscape"
   width="48"
   height="48"
   viewBox="0 0 12.7 12.7"
   version="1.1"
   id="svg829"
   inkscape:version="0.92.3 (2405546, 2018-03-11)"
   sodipodi:docname="application-community.svg">
  <defs
     id="defs823">
    <linearGradient
       inkscape:collect="always"
       id="linearGradient949">
      <stop
         style="stop-color:#000000;stop-opacity:1;"
         offset="0"
         id="stop945" />
      <stop
         style="stop-color:#000000;stop-opacity:0;"
         offset="1"
         id="stop947" />
    </linearGradient>
    <linearGradient
       inkscape:collect="always"
       id="linearGradient1343">
      <stop
         style="stop-color:#000000;stop-opacity:1;"
         offset="0"
         id="stop1339" />
      <stop
         style="stop-color:#000000;stop-opacity:0;"
         offset="1"
         id="stop1341" />
    </linearGradient>
    <linearGradient
       id="linearGradient1146"
       x1="9"
       x2="9"
       y1="29.056999"
       y2="26.030001"
       gradientTransform="matrix(0.63801001,-0.64114001,0.85963004,0.85535,-11.105345,9.9707121)"
       gradientUnits="userSpaceOnUse"
       spreadMethod="pad">
      <stop
         id="stop1140"
         style="stop-color:#f4e3d7;stop-opacity:0"
         offset="0" />
      <stop
         offset="0.440139"
         style="stop-color:#e0af8f;stop-opacity:0.03435114"
         id="stop1142" />
      <stop
         id="stop1144"
         style="stop-color:#deaa87;stop-opacity:1"
         offset="1" />
    </linearGradient>
    <linearGradient
       spreadMethod="pad"
       gradientUnits="userSpaceOnUse"
       gradientTransform="matrix(0.63801001,-0.64114001,0.85963004,0.85535,-11.105345,9.9707121)"
       y2="26.030001"
       y1="29.056999"
       x2="9"
       x1="9"
       id="linearGradient969">
      <stop
         offset="0"
         style="stop-color:#f4e3d7;stop-opacity:0"
         id="stop965" />
      <stop
         id="stop981"
         style="stop-color:#e0af8f;stop-opacity:0.59607843;"
         offset="0.440139" />
      <stop
         offset="1"
         style="stop-color:#deaa87;stop-opacity:1"
         id="stop967" />
    </linearGradient>
    <linearGradient
       id="linearGradient2670-5"
       x1="9"
       x2="9"
       y1="29.056999"
       y2="26.030001"
       gradientTransform="matrix(0.63801001,-0.64114001,0.85963004,0.85535,-11.105345,9.9707121)"
       gradientUnits="userSpaceOnUse"
       spreadMethod="pad">
      <stop
         id="stop2607-3"
         style="stop-color:#f4e3d7;stop-opacity:1"
         offset="0" />
      <stop
         id="stop2609-5"
         style="stop-color:#deaa87;stop-opacity:1"
         offset="1" />
    </linearGradient>
    <linearGradient
       inkscape:collect="always"
       xlink:href="#linearGradient2670-5"
       id="linearGradient963"
       gradientUnits="userSpaceOnUse"
       x1="6.3494902"
       y1="290.54581"
       x2="9.5255098"
       y2="290.54581" />
    <linearGradient
       inkscape:collect="always"
       xlink:href="#linearGradient969"
       id="linearGradient1166"
       gradientUnits="userSpaceOnUse"
       x1="5.2472873"
       y1="292.62451"
       x2="6.110096"
       y2="291.65604" />
    <linearGradient
       inkscape:collect="always"
       xlink:href="#linearGradient1343"
       id="linearGradient1345"
       x1="1.7509567"
       y1="286.25388"
       x2="10.805039"
       y2="295.03845"
       gradientUnits="userSpaceOnUse"
       gradientTransform="matrix(3.7795276,0,0,3.7795276,39.999999,-1074.5197)" />
    <linearGradient
       inkscape:collect="always"
       xlink:href="#linearGradient949"
       id="linearGradient951"
       x1="2.6427233"
       y1="287.11862"
       x2="11.226209"
       y2="295.57065"
       gradientUnits="userSpaceOnUse"
       gradientTransform="matrix(3.7795276,0,0,3.7795276,39.999999,-1074.5197)" />
    <linearGradient
       inkscape:collect="always"
       xlink:href="#linearGradient949"
       id="linearGradient971"
       gradientUnits="userSpaceOnUse"
       x1="2.6427233"
       y1="287.11862"
       x2="11.226209"
       y2="295.57065" />
  </defs>
  <sodipodi:namedview
     id="base"
     pagecolor="#ffffff"
     bordercolor="#666666"
     borderopacity="1.0"
     inkscape:pageopacity="0.0"
     inkscape:pageshadow="2"
     inkscape:zoom="2.65625"
     inkscape:cx="24"
     inkscape:cy="24"
     inkscape:document-units="mm"
     inkscape:current-layer="layer1"
     showgrid="false"
     showguides="true"
     inkscape:guide-bbox="true"
     inkscape:window-width="1366"
     inkscape:window-height="719"
     inkscape:window-x="0"
     inkscape:window-y="25"
     inkscape:window-maximized="1"
     scale-x="1.9"
     units="px"
     inkscape:snap-global="true"
     inkscape:snap-smooth-nodes="true" />
  <metadata
     id="metadata826">
    <rdf:RDF>
      <cc:Work
         rdf:about="">
        <dc:format>image/svg+xml</dc:format>
        <dc:type
           rdf:resource="http://purl.org/dc/dcmitype/StillImage" />
        <dc:title />
      </cc:Work>
    </rdf:RDF>
  </metadata>
  <g
     inkscape:label="Capa 1"
     inkscape:groupmode="layer"
     id="layer1"
     transform="translate(0,-284.3)">
    <g
       id="g977">
      <path
         inkscape:connector-curvature="0"
         id="path833"
         d="m 6.3502582,284.39147 c -1.5434366,0 -2.7839985,0.29643 -3.6871135,0.8816 -1.0851073,0.7031 -1.6588137,1.82603 -1.6588137,3.24683 0,1.91207 1.5362412,4.46762 2.0071128,5.20537 0.5375664,0.84219 1.1245074,1.60861 1.6526123,2.158 0.6726666,0.69964 1.2086564,1.02527 1.6862021,1.02527 0.4775705,0 1.0130919,-0.32561 1.685685,-1.02527 0.5280803,-0.54937 1.1150462,-1.31579 1.6526123,-2.158 0.4708715,-0.73773 2.0071135,-3.2933 2.0071135,-5.20537 2.4e-5,-1.42078 -0.573143,-2.5437 -1.658297,-3.24683 -0.9030667,-0.58517 -2.1437014,-0.8816 -3.6871138,-0.8816 z"
         style="fill:#3771c8;fill-opacity:1;stroke-width:0.02444816" />
      <path
         id="path833-1"
         d="m 6.3499999,284.39147 c -1.5434366,0 -2.7839985,0.29643 -3.6871135,0.8816 -1.0851073,0.7031 -1.6588134,1.82603 -1.6588134,3.24683 0,1.91207 1.5362411,4.46762 2.0071125,5.20537 0.5375664,0.84219 1.1245075,1.60861 1.6526124,2.15801 0.6726666,0.69963 1.2086563,1.02526 1.686202,1.02526 0.4775705,0 1.0130922,-0.32561 1.6856853,-1.02526 0.5280803,-0.54938 1.1150462,-1.3158 1.6526123,-2.15801 0.4708715,-0.73773 2.0076295,-3.2933 2.0076295,-5.20537 2.4e-5,-1.42078 -0.573659,-2.5437 -1.658814,-3.24683 -0.9030659,-0.58517 -2.1437006,-0.8816 -3.6871131,-0.8816 z m 0,0.0382 c 0.5590315,0.0224 1.0903969,0.0719 1.5549438,0.18294 0.3079843,0.0736 0.5955773,0.16587 0.8629965,0.27595 0.2674189,0.11008 0.5142399,0.23818 0.7400065,0.38447 0.2712887,0.17578 0.5109353,0.37775 0.7172683,0.6041 0.206334,0.22635 0.379365,0.47723 0.518832,0.75034 0.139466,0.27311 0.245056,0.56864 0.315743,0.8847 0.07069,0.31606 0.106976,0.6525 0.10697,1.00769 0,0.47802 -0.09615,0.99619 -0.24753,1.51619 -0.15138,0.51999 -0.35835,1.04198 -0.57981,1.52704 -0.4429192,0.97011 -0.9448533,1.79328 -1.1802891,2.16214 -0.5375662,0.84221 -1.1245321,1.60863 -1.6526124,2.15801 -0.3362965,0.34982 -0.6380557,0.60628 -0.9157065,0.77514 -0.084437,0.0513 -0.1635244,0.0811 -0.2408121,0.10335 -0.077023,-0.0222 -0.1560145,-0.0521 -0.2402954,-0.10335 -0.2777739,-0.16886 -0.5804067,-0.42533 -0.91674,-0.77514 -0.5281049,-0.5494 -1.1150459,-1.31582 -1.6526123,-2.15801 -0.2354358,-0.36888 -0.7368535,-1.19203 -1.1797729,-2.16214 -0.2214596,-0.48506 -0.4284295,-1.00705 -0.5798095,-1.52704 -0.1513801,-0.52 -0.2475301,-1.03817 -0.2475301,-1.51619 0,-0.3552 0.03623,-0.69163 0.1069702,-1.00769 0.07074,-0.31606 0.1762104,-0.61159 0.315743,-0.8847 0.1395325,-0.27311 0.31297,-0.52399 0.5193481,-0.75034 0.2063783,-0.22635 0.4454753,-0.42832 0.7167521,-0.6041 0.2257788,-0.14629 0.4731038,-0.27439 0.7405232,-0.38447 0.2674194,-0.11008 0.5550167,-0.20233 0.8629965,-0.27595 0.4645234,-0.11106 0.9955051,-0.16048 1.5544271,-0.18294 z"
         style="opacity:0.3;fill:#280b0b;stroke-width:0.02444816"
         inkscape:connector-curvature="0" />
      <path
         inkscape:connector-curvature="0"
         id="path943"
         d="m 7.8667033,296.02642 c 0.05978,-0.0582 0.106925,-0.0786 0.168982,-0.14315 0.528081,-0.54937 1.115045,-1.3158 1.652612,-2.15801 0.235436,-0.36886 0.7373697,-1.19202 1.1802897,-2.16214 0.221459,-0.48506 0.427912,-1.00704 0.579292,-1.52704 0.04834,-0.16606 0.04334,-0.31975 0.07906,-0.4842 l -2.8659747,-2.86598 -0.543119,2.14612 -0.746208,-0.7462 -0.245979,0.15244 -2.297534,-2.29753 -0.9177739,4.10621 0.3725871,0.35398 0.4733558,2.51509 z"
         style="fill:url(#linearGradient971);fill-opacity:1;stroke:none;stroke-width:0.26458332px;stroke-linecap:butt;stroke-linejoin:miter;stroke-opacity:1;opacity:0.7" />
      <path
         d="m 6.4783993,288.43615 c 0,-0.2825 0.2311033,-0.51358 0.5135748,-0.51358 0.2824716,0 0.5135747,0.23108 0.5135747,0.51358 v 2.18268 c 0,0.28362 -0.2299498,0.51355 -0.5135747,0.51355 -0.2537145,0 -0.5135748,-0.20556 -0.5135748,-0.51355 z m -1.2839272,0 c 0,-0.2825 0.2311037,-0.51358 0.513575,-0.51358 0.2824714,0 0.513575,0.23108 0.513575,0.51358 v 1.60967 c -0.1363584,-0.1222 -0.3159687,-0.19735 -0.513575,-0.19735 h -0.513575 z m -1.2839272,-2.18268 c 0,-0.28325 0.2303275,-0.51359 0.5135749,-0.51359 0.283248,0 0.5135755,0.23032 0.5135755,0.51359 v 3.59498 H 4.4240992 c -0.1970819,0 -0.3769645,0.0756 -0.513575,0.19862 0,0 0,-3.7936 2.07e-5,-3.7936 z m 4.8789309,4.8789 c 0,1.27432 -1.0367777,2.31107 -2.3110765,2.31107 H 6.2216221 c -1.2742995,0 -2.3110772,-1.03675 -2.3110772,-2.31107 v -0.51355 0 c 0,-0.2825 0.2311036,-0.51359 0.5135749,-0.51359 h 0.5135755 v 0 h 0.2567768 0.513575 c 0.04455,0 0.087173,0.005 0.1283887,0.0185 v 0.17436 c 0,0.0353 -0.028756,0.0642 -0.064204,0.0642 H 5.2586562 c -0.035429,0 -0.064204,0.0288 -0.064204,0.0642 0,0.0353 0.028757,0.0642 0.064204,0.0642 h 0.5777586 c 0.070873,0 0.1283886,-0.0573 0.1283886,-0.12837 v -0.18529 c 0.1463644,0.0851 0.246248,0.23946 0.25447,0.41869 0.012712,0.29404 -0.219672,0.53693 -0.5108694,0.53693 H 5.0664401 c -0.070873,0 -0.1283883,0.0577 -0.1283883,0.12838 0,0.071 0.057515,0.12838 0.1283883,0.12838 h 0.6096203 c 0.2739973,0 0.524608,-0.1376 0.6704685,-0.34936 0.14714,0.22171 0.4022601,0.34936 0.6454247,0.34936 0.4247242,0 0.7703513,-0.34562 0.7703513,-0.77037 v -3.59498 c 0,-0.28325 0.2303277,-0.51358 0.5135755,-0.51358 0.2832263,0 0.5135749,0.23031 0.5135749,0.51358 v 4.10856 z"
         style="fill:#c4b7c8;stroke:none;stroke-width:0.10958042;stroke-miterlimit:4;stroke-dasharray:none;stroke-opacity:1"
         id="path840"
         inkscape:connector-curvature="0" />
    </g>
  </g>
</svg>
