<?xml version="1.0" encoding="UTF-8" standalone="no"?>
<!-- Generator: Adobe Illustrator 19.0.0, SVG Export Plug-In . SVG Version: 6.00 Build 0)  -->

<svg
   xmlns:dc="http://purl.org/dc/elements/1.1/"
   xmlns:cc="http://creativecommons.org/ns#"
   xmlns:rdf="http://www.w3.org/1999/02/22-rdf-syntax-ns#"
   xmlns:svg="http://www.w3.org/2000/svg"
   xmlns="http://www.w3.org/2000/svg"
   xmlns:xlink="http://www.w3.org/1999/xlink"
   xmlns:sodipodi="http://sodipodi.sourceforge.net/DTD/sodipodi-0.dtd"
   xmlns:inkscape="http://www.inkscape.org/namespaces/inkscape"
   version="1.1"
   id="Capa_1"
   x="0px"
   y="0px"
   viewBox="0 0 48 48"
   xml:space="preserve"
   sodipodi:docname="audio-equalizer.svg"
   width="48"
   height="48"
   inkscape:version="0.92.3 (2405546, 2018-03-11)"><metadata
   id="metadata41"><rdf:RDF><cc:Work
       rdf:about=""><dc:format>image/svg+xml</dc:format><dc:type
         rdf:resource="http://purl.org/dc/dcmitype/StillImage" /><dc:title /></cc:Work></rdf:RDF></metadata><defs
   id="defs39"><linearGradient
     x1="-83.756935"
     y1="-7.8379993"
     x2="-92.222527"
     y2="27.521217"
     id="linearGradient5588"
     xlink:href="#linearGradient3202"
     gradientUnits="userSpaceOnUse"
     gradientTransform="matrix(0.5857566,-0.140767,0.1402401,0.5879573,74.307775,0.1578927)" /><linearGradient
     id="linearGradient3202"><stop
       id="stop3204"
       style="stop-color:white;stop-opacity:1"
       offset="0" /><stop
       id="stop3206"
       style="stop-color:#d3eefc;stop-opacity:1"
       offset="1" /></linearGradient><clipPath
     clipPathUnits="userSpaceOnUse"
     id="clipPath847"><g
       inkscape:label="Clip"
       id="use849"><path
         id="path853"
         d="M 14.069848,6.4751355 V 32.667158 h 2.500059 V 6.4751355 Z m 8.571165,0 V 32.667158 h 2.500059 V 6.4751355 Z m 8.572793,0 V 32.667158 h 2.500059 V 6.4751355 Z"
         style="opacity:1;fill:#ffffff;fill-opacity:0.55633802;stroke:none;stroke-width:2.50005889;stroke-linecap:round;stroke-linejoin:bevel;stroke-miterlimit:4;stroke-dasharray:none;stroke-dashoffset:0;stroke-opacity:1"
         inkscape:connector-curvature="0" /></g></clipPath></defs><sodipodi:namedview
   pagecolor="#ffffff"
   bordercolor="#666666"
   borderopacity="1"
   objecttolerance="10"
   gridtolerance="10"
   guidetolerance="10"
   inkscape:pageopacity="0"
   inkscape:pageshadow="2"
   inkscape:window-width="1366"
   inkscape:window-height="690"
   id="namedview37"
   showgrid="false"
   showguides="true"
   inkscape:guide-bbox="true"
   inkscape:zoom="5.0729165"
   inkscape:cx="33.335423"
   inkscape:cy="26.57455"
   inkscape:window-x="0"
   inkscape:window-y="28"
   inkscape:window-maximized="1"
   inkscape:current-layer="Capa_1" />
<path
   style="fill:#a02c2c;stroke-width:0.0924025"
   d="M 23.712891 0.49414062 C 17.87943 0.49414062 13.190692 1.6145182 9.7773438 3.8261719 C 5.6761507 6.4835756 3.5078125 10.727685 3.5078125 16.097656 C 3.5078125 23.324362 9.3140783 32.983146 11.09375 35.771484 C 13.125497 38.954565 15.343857 41.851266 17.339844 43.927734 C 19.882206 46.572017 21.907994 47.802734 23.712891 47.802734 C 25.517882 47.802734 27.5419 46.572109 30.083984 43.927734 C 32.079878 41.851358 34.298332 38.954657 36.330078 35.771484 C 38.10975 32.983238 43.916016 23.324362 43.916016 16.097656 C 43.916108 10.727777 41.749814 6.4836678 37.648438 3.8261719 C 34.235274 1.6145182 29.546261 0.49414062 23.712891 0.49414062 z M 11.570312 8.8554688 L 19.070312 8.8554688 L 19.070312 13.619141 L 11.570312 13.619141 L 11.570312 8.8554688 z M 20.140625 12.666016 L 27.640625 12.666016 L 27.640625 17.429688 L 20.140625 17.429688 L 20.140625 12.666016 z M 28.712891 20.285156 L 36.214844 20.285156 L 36.214844 25.048828 L 28.712891 25.048828 L 28.712891 20.285156 z "
   id="path2" />

<g
   id="g6"
   transform="translate(0,-464)">
</g>
<g
   id="g8"
   transform="translate(0,-464)">
</g>
<g
   id="g10"
   transform="translate(0,-464)">
</g>
<g
   id="g12"
   transform="translate(0,-464)">
</g>
<g
   id="g14"
   transform="translate(0,-464)">
</g>
<g
   id="g16"
   transform="translate(0,-464)">
</g>
<g
   id="g18"
   transform="translate(0,-464)">
</g>
<g
   id="g20"
   transform="translate(0,-464)">
</g>
<g
   id="g22"
   transform="translate(0,-464)">
</g>
<g
   id="g24"
   transform="translate(0,-464)">
</g>
<g
   id="g26"
   transform="translate(0,-464)">
</g>
<g
   id="g28"
   transform="translate(0,-464)">
</g>
<g
   id="g30"
   transform="translate(0,-464)">
</g>
<g
   id="g32"
   transform="translate(0,-464)">
</g>
<g
   id="g34"
   transform="translate(0,-464)">
</g>
<rect
   style="opacity:0.6;fill:#f2f2f2;fill-opacity:1;stroke:none;stroke-width:8.13221455;stroke-linecap:butt;stroke-linejoin:round;stroke-miterlimit:4;stroke-dasharray:none;stroke-dashoffset:0;stroke-opacity:1;paint-order:markers fill stroke"
   id="rect873"
   width="2.5626283"
   height="19.040012"
   x="14.069847"
   y="13.627147"
   ry="0" /><rect
   style="opacity:0.6;fill:#f2f2f2;fill-opacity:1;stroke:none;stroke-width:7.27198553;stroke-linecap:butt;stroke-linejoin:round;stroke-miterlimit:4;stroke-dasharray:none;stroke-dashoffset:0;stroke-opacity:1;paint-order:markers fill stroke"
   id="rect873-5"
   width="2.5626283"
   height="15.224937"
   x="22.641014"
   y="17.442219"
   ry="0" /><rect
   style="opacity:0.6;fill:#f2f2f2;fill-opacity:1;stroke:none;stroke-width:5.15088987;stroke-linecap:butt;stroke-linejoin:round;stroke-miterlimit:4;stroke-dasharray:none;stroke-dashoffset:0;stroke-opacity:1;paint-order:markers fill stroke"
   id="rect873-5-3"
   width="2.5626283"
   height="7.6386042"
   x="31.213806"
   y="25.028553"
   ry="0" /><rect
   style="opacity:0.6;fill:#f2f2f2;fill-opacity:1;stroke:none;stroke-width:6.92226744;stroke-linecap:butt;stroke-linejoin:round;stroke-miterlimit:4;stroke-dasharray:none;stroke-dashoffset:0;stroke-opacity:1;paint-order:markers fill stroke"
   id="rect873-5-3-5"
   width="2.5626283"
   height="13.795779"
   x="31.213806"
   y="6.4751353"
   ry="0" /><rect
   style="opacity:0.6;fill:#f2f2f2;fill-opacity:1;stroke:none;stroke-width:4.63870049;stroke-linecap:butt;stroke-linejoin:round;stroke-miterlimit:4;stroke-dasharray:none;stroke-dashoffset:0;stroke-opacity:1;paint-order:markers fill stroke"
   id="rect873-5-3-5-6"
   width="2.5626283"
   height="6.1950121"
   x="22.641014"
   y="6.4751353"
   ry="0" /><rect
   style="opacity:0.6;fill:#f2f2f2;fill-opacity:1;stroke:none;stroke-width:2.86821246;stroke-linecap:butt;stroke-linejoin:round;stroke-miterlimit:4;stroke-dasharray:none;stroke-dashoffset:0;stroke-opacity:1;paint-order:markers fill stroke"
   id="rect873-5-3-5-6-2"
   width="2.5626283"
   height="2.3684928"
   x="14.069847"
   y="6.4751353"
   ry="0" /></svg>