<?xml version="1.0" encoding="UTF-8" standalone="no"?>
<!-- Created with Inkscape (http://www.inkscape.org/) -->

<svg
   xmlns:dc="http://purl.org/dc/elements/1.1/"
   xmlns:cc="http://creativecommons.org/ns#"
   xmlns:rdf="http://www.w3.org/1999/02/22-rdf-syntax-ns#"
   xmlns:svg="http://www.w3.org/2000/svg"
   xmlns="http://www.w3.org/2000/svg"
   xmlns:xlink="http://www.w3.org/1999/xlink"
   xmlns:sodipodi="http://sodipodi.sourceforge.net/DTD/sodipodi-0.dtd"
   xmlns:inkscape="http://www.inkscape.org/namespaces/inkscape"
   width="48"
   height="48"
   viewBox="0 0 12.7 12.7"
   version="1.1"
   id="svg829"
   inkscape:version="0.92.3 (2405546, 2018-03-11)"
   sodipodi:docname="bluegriffon.svg">
  <defs
     id="defs823">
    <linearGradient
       inkscape:collect="always"
       id="linearGradient872">
      <stop
         style="stop-color:#020000;stop-opacity:1"
         offset="0"
         id="stop868" />
      <stop
         style="stop-color:#6f918a;stop-opacity:0;"
         offset="1"
         id="stop870" />
    </linearGradient>
    <linearGradient
       id="linearGradient860">
      <stop
         id="stop856"
         offset="0"
         style="stop-color:#162d50;stop-opacity:1" />
      <stop
         id="stop858"
         offset="1"
         style="stop-color:#2c5aa0;stop-opacity:1" />
    </linearGradient>
    <linearGradient
       xlink:href="#blue-gradient-5"
       id="linearGradient4351"
       x1="24"
       y1="1008.362"
       x2="24"
       y2="1048.3621"
       gradientUnits="userSpaceOnUse"
       gradientTransform="matrix(0.25135416,0,0,0.25135416,0.31750034,32.214723)" />
    <linearGradient
       id="blue-gradient-5">
      <stop
         style="stop-color:#054e87;stop-opacity:1"
         offset="0"
         id="stop2" />
      <stop
         style="stop-color:#1d99f3;stop-opacity:1"
         offset="1"
         id="stop4" />
    </linearGradient>
    <linearGradient
       inkscape:collect="always"
       xlink:href="#linearGradient860"
       id="linearGradient854"
       x1="5.3283467"
       y1="288.58691"
       x2="7.1335912"
       y2="293.3183"
       gradientUnits="userSpaceOnUse" />
    <linearGradient
       inkscape:collect="always"
       xlink:href="#linearGradient872"
       id="linearGradient900"
       gradientUnits="userSpaceOnUse"
       x1="6.8243446"
       y1="285.27747"
       x2="13.761794"
       y2="295.039" />
  </defs>
  <sodipodi:namedview
     id="base"
     pagecolor="#ffffff"
     bordercolor="#666666"
     borderopacity="1.0"
     inkscape:pageopacity="0.0"
     inkscape:pageshadow="2"
     inkscape:zoom="3.7565048"
     inkscape:cx="24"
     inkscape:cy="24"
     inkscape:document-units="mm"
     inkscape:current-layer="layer1"
     showgrid="false"
     showguides="true"
     inkscape:guide-bbox="true"
     inkscape:window-width="1366"
     inkscape:window-height="719"
     inkscape:window-x="0"
     inkscape:window-y="25"
     inkscape:window-maximized="1"
     scale-x="1.9"
     units="px"
     inkscape:snap-global="true"
     inkscape:snap-smooth-nodes="true" />
  <metadata
     id="metadata826">
    <rdf:RDF>
      <cc:Work
         rdf:about="">
        <dc:format>image/svg+xml</dc:format>
        <dc:type
           rdf:resource="http://purl.org/dc/dcmitype/StillImage" />
        <dc:title />
      </cc:Work>
    </rdf:RDF>
  </metadata>
  <g
     inkscape:label="Capa 1"
     inkscape:groupmode="layer"
     id="layer1"
     transform="translate(0,-284.3)">
    <g
       id="g906">
      <path
         id="path844"
         d="m 6.3502587,284.39147 c -1.5434371,0 -2.7839992,0.29643 -3.6871142,0.8816 -1.085107,0.7031 -1.658813,1.82603 -1.658813,3.24683 0,1.91207 1.536241,4.46762 2.007112,5.20537 0.537567,0.84219 1.124508,1.60861 1.6526131,2.158 0.6726669,0.69964 1.2086559,1.02527 1.6862021,1.02527 0.4775708,0 1.0130919,-0.32561 1.685685,-1.02527 0.52808,-0.54937 1.115047,-1.31579 1.6526118,-2.158 0.4708725,-0.73773 2.0071125,-3.2933 2.0071125,-5.20537 2.4e-5,-1.42078 -0.573141,-2.5437 -1.658295,-3.24683 -0.9030674,-0.58517 -2.1437024,-0.8816 -3.6871143,-0.8816 z"
         style="fill:#6f918a;stroke-width:0.02444816"
         inkscape:connector-curvature="0" />
      <path
         inkscape:connector-curvature="0"
         id="path866"
         d="m 7.8145103,296.07086 c 0.0775,-0.0738 0.140314,-0.10294 0.221691,-0.18759 0.52808,-0.54937 1.115047,-1.3158 1.652612,-2.15801 0.235437,-0.36886 0.7368537,-1.19202 1.1797717,-2.16214 0.221461,-0.48506 0.428431,-1.00704 0.57981,-1.52704 0.151381,-0.51999 0.247531,-1.03817 0.247531,-1.51618 5e-6,-0.32533 -0.03882,-0.63031 -0.09819,-0.92294 l -1.8360627,-1.80299 -2.689756,2.71456 -1.120347,0.9958 -2.4401607,0.44855 -0.79685,0.19896 -0.174667,0.6227 z"
         style="fill:url(#linearGradient900);fill-opacity:1;stroke:none;stroke-width:0.26458332px;stroke-linecap:butt;stroke-linejoin:miter;stroke-opacity:1;opacity:0.49" />
      <path
         inkscape:connector-curvature="0"
         id="path821"
         d="m 9.8230025,285.75672 c 0,-0.0106 -0.118325,0.0707 -0.2632645,0.18006 -1.3634241,1.02821 -3.0679052,1.92743 -4.0221251,2.12219 l -0.1796633,0.0366 -0.068328,0.17927 c -0.2376409,0.62473 -0.9131962,1.06782 -1.9722764,1.29341 -0.167328,0.0357 -0.3466847,0.0865 -0.3987157,0.11295 -0.1607418,0.0818 -0.3476369,0.26864 -0.432076,0.43247 -0.068217,0.13231 -0.078634,0.18923 -0.068329,0.36857 0.00867,0.15096 0.029299,0.231 0.071945,0.27733 0.057351,0.0623 0.200513,0.0953 0.1643897,0.0378 -0.028403,-0.0453 0.1060852,-0.18968 0.239149,-0.25643 0.2154584,-0.10808 0.5500995,-0.15905 0.9003259,-0.15435 0.062534,7.5e-4 0.1378212,0.006 0.1897114,0.007 0.2622684,0.0187 0.523145,0.0679 0.7395535,0.14872 0.1163673,0.0435 0.2146309,0.0956 0.2946156,0.15433 0.2986065,0.15296 0.5498389,0.3518 0.760856,0.58159 1.794e-4,-0.007 0.0012,-0.0146 0.0012,-0.0226 0.00131,-0.15108 0.00647,-0.27487 0.011254,-0.27493 0.00483,-6e-5 0.023834,0.0388 0.042204,0.0863 0.044546,0.11504 0.067965,0.23595 0.072347,0.35772 0.4005257,0.49741 0.6370793,1.11024 0.7761293,1.70179 0.1853449,-0.31577 0.3609546,-0.73342 0.361738,-0.90394 0.00111,-0.25243 0.1789871,0.24304 0.2351296,0.65514 l 0.038987,0.28539 0.070338,-0.17286 c 0.1176214,-0.28887 0.1729027,-0.59077 0.1732324,-0.94654 1.778e-4,-0.1839 -0.00913,-0.36401 -0.0209,-0.40032 -0.011705,-0.0363 -0.00846,-0.0664 0.00722,-0.0664 0.038516,0 0.3447582,0.30688 0.4232335,0.42404 0.074054,0.11053 0.079681,0.0623 0.018893,-0.16197 -0.1607418,-0.59356 -0.6218998,-1.15286 -1.2797489,-1.55227 l -0.2540205,-0.15433 0.1262064,-0.005 c 0.069535,-0.003 0.1695592,-0.0134 0.2222681,-0.0254 l 0.096062,-0.0214 -0.1278144,-0.0426 -0.1278142,-0.0429 0.2045832,-0.0411 c 0.1126425,-0.0227 0.3067463,-0.0887 0.4312721,-0.14672 l 0.2266891,-0.10529 -0.2877826,0.0113 -0.2873809,0.0113 0.2234738,-0.0744 c 0.3111563,-0.10323 0.9084138,-0.41135 0.8701811,-0.44895 -0.00539,-0.007 -0.1173002,0.0174 -0.2483936,0.051 -0.3854033,0.0984 -0.4262076,0.0771 -0.1250006,-0.066 0.2932205,-0.13925 0.7059968,-0.40151 0.9087664,-0.57717 l 0.1278142,-0.11054 -0.239551,0.10611 c -0.2034513,0.0903 -0.6676109,0.23875 -0.7467881,0.23875 -0.013353,0 0.068355,-0.0477 0.1816729,-0.10571 0.3244561,-0.16626 0.6176746,-0.38646 0.9803098,-0.73593 l 0.3356136,-0.32356 -0.2717065,0.14109 c -0.2567362,0.13325 -0.7986368,0.37272 -0.7986368,0.35288 0,-0.006 0.068481,-0.0568 0.1519298,-0.11495 0.3238135,-0.22503 0.8970204,-0.81949 1.2363421,-1.28215 l 0.1233818,-0.16801 -0.3022525,0.23231 c -0.3225637,0.24791 -0.9815943,0.66791 -1.0076422,0.64229 -0.00858,-0.008 0.023767,-0.0404 0.071544,-0.071 0.1410558,-0.0909 0.7619741,-0.78074 1.103302,-1.2255 0.1741085,-0.22687 0.3163195,-0.42087 0.3163195,-0.43127 z"
         style="fill:url(#linearGradient854);fill-opacity:1;stroke-width:0.10807362" />
      <path
         inkscape:connector-curvature="0"
         id="path4588"
         d="m 6.3502587,284.39147 c -1.5434361,0 -2.7839982,0.29643 -3.6871132,0.8816 -1.085108,0.7031 -1.658814,1.82603 -1.658814,3.24683 0,1.91207 1.536241,4.46762 2.007113,5.20537 0.537566,0.84219 1.124507,1.60861 1.6526121,2.158 0.6726669,0.69964 1.2086569,1.02527 1.6862021,1.02527 0.4775708,0 1.0130919,-0.32561 1.685685,-1.02527 0.5280808,-0.54937 1.115047,-1.31579 1.6526129,-2.158 0.4708714,-0.73773 2.0071114,-3.2933 2.0071114,-5.20537 2.5e-5,-1.42078 -0.573141,-2.5437 -1.658295,-3.24683 -0.9030674,-0.58517 -2.1437013,-0.8816 -3.6871143,-0.8816 z m 0,0.0382 c 0.558918,0.0225 1.0898968,0.0719 1.5544268,0.18294 0.307985,0.0736 0.596094,0.16587 0.8635132,0.27595 0.2674189,0.11008 0.514241,0.23818 0.7400068,0.38447 0.2712892,0.17578 0.5104175,0.37775 0.7167515,0.6041 0.206335,0.22635 0.379883,0.47723 0.519349,0.75034 0.139467,0.27311 0.245056,0.56864 0.315742,0.8847 0.07069,0.31606 0.10646,0.6525 0.106454,1.00769 0,0.47802 -0.09615,0.99619 -0.24753,1.51619 -0.15138,0.51999 -0.357832,1.04198 -0.579293,1.52704 -0.4429194,0.97011 -0.9448533,1.79328 -1.1802894,2.16214 -0.5375661,0.84221 -1.124532,1.60863 -1.6526121,2.158 -0.336297,0.34983 -0.6385718,0.60629 -0.9162229,0.77515 -0.08441,0.0513 -0.1636321,0.0811 -0.2408122,0.10335 -0.07713,-0.0222 -0.155988,-0.0521 -0.2402959,-0.10335 -0.2777738,-0.16886 -0.5798899,-0.42533 -0.9162229,-0.77515 -0.5281049,-0.54939 -1.115046,-1.31581 -1.6526131,-2.158 -0.235435,-0.36888 -0.73737,-1.19203 -1.18029,-2.16215 -0.221459,-0.48505 -0.427912,-1.00704 -0.579292,-1.52703 -0.15138,-0.52 -0.24753,-1.03817 -0.24753,-1.51619 0,-0.3552 0.03571,-0.69163 0.106453,-1.00769 0.07074,-0.31606 0.176727,-0.61159 0.31626,-0.8847 0.139532,-0.27311 0.31297,-0.52399 0.519348,-0.75034 0.206378,-0.22635 0.445475,-0.42832 0.716752,-0.6041 0.225779,-0.14629 0.4725869,-0.27439 0.7400071,-0.38447 0.2674189,-0.11008 0.5555329,-0.20233 0.863513,-0.27595 0.4645239,-0.11106 0.9955051,-0.16048 1.5544271,-0.18294 z"
         style="opacity:0.2;fill:#000000;stroke-width:0.02444816" />
    </g>
  </g>
</svg>
