<?xml version="1.0" encoding="UTF-8" standalone="no"?>
<!-- Generator: Adobe Illustrator 19.0.0, SVG Export Plug-In . SVG Version: 6.00 Build 0)  -->

<svg
   xmlns:dc="http://purl.org/dc/elements/1.1/"
   xmlns:cc="http://creativecommons.org/ns#"
   xmlns:rdf="http://www.w3.org/1999/02/22-rdf-syntax-ns#"
   xmlns:svg="http://www.w3.org/2000/svg"
   xmlns="http://www.w3.org/2000/svg"
   xmlns:sodipodi="http://sodipodi.sourceforge.net/DTD/sodipodi-0.dtd"
   xmlns:inkscape="http://www.inkscape.org/namespaces/inkscape"
   version="1.1"
   id="Capa_1"
   x="0px"
   y="0px"
   viewBox="0 0 48 48"
   xml:space="preserve"
   sodipodi:docname="cowbell.svg"
   width="48"
   height="48"
   inkscape:version="0.92.3 (2405546, 2018-03-11)"><metadata
   id="metadata41"><rdf:RDF><cc:Work
       rdf:about=""><dc:format>image/svg+xml</dc:format><dc:type
         rdf:resource="http://purl.org/dc/dcmitype/StillImage" /><dc:title /></cc:Work></rdf:RDF></metadata><defs
   id="defs39" /><sodipodi:namedview
   pagecolor="#ffffff"
   bordercolor="#666666"
   borderopacity="1"
   objecttolerance="10"
   gridtolerance="10"
   guidetolerance="10"
   inkscape:pageopacity="0"
   inkscape:pageshadow="2"
   inkscape:window-width="1366"
   inkscape:window-height="690"
   id="namedview37"
   showgrid="false"
   showguides="true"
   inkscape:guide-bbox="true"
   inkscape:zoom="5.0729165"
   inkscape:cx="-1.2270683"
   inkscape:cy="20.718585"
   inkscape:window-x="0"
   inkscape:window-y="28"
   inkscape:window-maximized="1"
   inkscape:current-layer="Capa_1" />
<path
   style="fill:#225500;stroke-width:0.0924025"
   d="M 23.712891 0.49414062 C 17.87943 0.49414062 13.190692 1.6145182 9.7773438 3.8261719 C 5.6761507 6.4835756 3.5078125 10.727685 3.5078125 16.097656 C 3.5078125 23.324362 9.3140783 32.983146 11.09375 35.771484 C 13.125497 38.954565 15.343857 41.851266 17.339844 43.927734 C 19.882206 46.572017 21.907994 47.802734 23.712891 47.802734 C 25.517882 47.802734 27.5419 46.572109 30.083984 43.927734 C 32.079878 41.851358 34.298332 38.954657 36.330078 35.771484 C 38.10975 32.983238 43.916016 23.324362 43.916016 16.097656 C 43.916108 10.727777 41.749814 6.4836678 37.648438 3.8261719 C 34.235274 1.6145182 29.546261 0.49414062 23.712891 0.49414062 z M 14.990234 6.5273438 C 16.68391 6.5273438 18.060603 7.9039808 18.060547 9.5976562 C 18.060547 10.932416 17.20537 12.071506 16.013672 12.494141 L 16.013672 35.195312 L 13.964844 35.195312 L 13.964844 12.494141 C 12.773146 12.071506 11.917969 10.932472 11.917969 9.5976562 C 11.917969 7.9039808 13.296559 6.5273438 14.990234 6.5273438 z M 22.839844 6.5273438 L 28.982422 6.5273438 L 28.982422 10.623047 L 30.021484 10.623047 C 31.312458 10.623047 32.387089 11.626174 32.474609 12.912109 L 34.542969 35.195312 L 17.279297 35.195312 L 19.347656 12.912109 C 19.435173 11.62623 20.507854 10.623047 21.798828 10.623047 L 22.839844 10.623047 L 22.839844 6.5273438 z M 14.990234 8.5742188 C 14.425657 8.5742188 13.964844 9.033079 13.964844 9.5976562 C 13.964844 10.162233 14.425657 10.623047 14.990234 10.623047 C 15.554868 10.623047 16.013672 10.162233 16.013672 9.5976562 C 16.013672 9.0330791 15.554812 8.5742188 14.990234 8.5742188 z M 24.886719 8.5742188 L 24.886719 10.623047 L 26.933594 10.623047 L 26.933594 8.5742188 L 24.886719 8.5742188 z M 21.798828 12.669922 C 21.582472 12.669922 21.403675 12.838722 21.390625 13.054688 L 21.388672 13.087891 L 19.90625 29.052734 L 31.916016 29.052734 L 30.431641 13.072266 L 30.431641 13.054688 C 30.418594 12.838722 30.237841 12.669922 30.021484 12.669922 L 28.982422 12.669922 L 22.839844 12.669922 L 21.798828 12.669922 z M 19.714844 31.099609 L 19.525391 33.146484 L 32.294922 33.146484 L 32.105469 31.099609 L 19.714844 31.099609 z "
   id="path2" />

<g
   id="g6"
   transform="translate(0,-464)">
</g>
<g
   id="g8"
   transform="translate(0,-464)">
</g>
<g
   id="g10"
   transform="translate(0,-464)">
</g>
<g
   id="g12"
   transform="translate(0,-464)">
</g>
<g
   id="g14"
   transform="translate(0,-464)">
</g>
<g
   id="g16"
   transform="translate(0,-464)">
</g>
<g
   id="g18"
   transform="translate(0,-464)">
</g>
<g
   id="g20"
   transform="translate(0,-464)">
</g>
<g
   id="g22"
   transform="translate(0,-464)">
</g>
<g
   id="g24"
   transform="translate(0,-464)">
</g>
<g
   id="g26"
   transform="translate(0,-464)">
</g>
<g
   id="g28"
   transform="translate(0,-464)">
</g>
<g
   id="g30"
   transform="translate(0,-464)">
</g>
<g
   id="g32"
   transform="translate(0,-464)">
</g>
<g
   id="g34"
   transform="translate(0,-464)">
</g>
</svg>