<svg xmlns="http://www.w3.org/2000/svg" width="48" height="48"><defs><filter id="a" x="-.02" width="1.05" y="-.02" height="1.05" color-interpolation-filters="sRGB"><feGaussianBlur stdDeviation=".27"/></filter></defs><path d="M24 .35c-5.83 0-10.52 1.12-13.93 3.33-4.1 2.66-6.27 6.9-6.27 12.27 0 7.23 5.8 16.88 7.58 19.67a54.48 54.48 0 0 0 6.25 8.16c2.54 2.64 4.57 3.87 6.37 3.87 1.8 0 3.83-1.23 6.37-3.87 2-2.08 4.22-4.97 6.25-8.16 1.78-2.79 7.58-12.44 7.58-19.67 0-5.37-2.16-9.61-6.26-12.27C34.52 1.47 29.84.35 24 .35z" fill="#48373e"/><g transform="translate(0 2)" fill="#221c24" filter="url(#a)"><path d="M35.4 7.38a3.23 3.23 0 1 0 0 6.45 3.23 3.23 0 0 0 0-6.45zm.88.94a.47.47 0 0 1 0 .93.47.47 0 0 1-.47-.47c0-.25.21-.46.47-.46zm-1.8.47a.47.47 0 0 1 .05.91.95.95 0 0 0-.58.5c-.15.38-.01.93.4 1.62a.47.47 0 1 1-.8.48c-.59-.97-.74-1.8-.46-2.46.23-.51.67-.9 1.2-1.04a.47.47 0 0 1 .2 0zM30.73 12.06c.56.44.9 1.12.9 1.84-.01.13.04.25.13.34.1.1.22.14.34.14.7 0 1.37.31 1.81.85a2.73 2.73 0 0 0-2.6.7l-4.8 4.84-.65-.64a.47.47 0 0 0-.66.67l.64.63-2.6 2.62-.65-.64a.47.47 0 0 0-.66.66l.65.64-3.08 3.09-1.32-1.33 9.14-9.17.69.7a.46.46 0 0 0 .78-.21.47.47 0 0 0-.12-.46l-.7-.69L30 14.62c.67-.67.95-1.64.74-2.56zM26.47 6.45c.26 0 .47.2.47.47v.93c0 .26-.21.47-.47.47a.47.47 0 0 1-.47-.47v-.93c0-.26.21-.47.47-.47zM21.8 7.85a.47.47 0 1 1 0 .93.47.47 0 1 1 0-.93zM24.6 8.32h.93c.26 0 .47.2.47.46s-.2.47-.47.47h-.93a.47.47 0 0 1 0-.93zM27.4 8.32h.94a.47.47 0 0 1 0 .93h-.94a.47.47 0 0 1-.46-.47c0-.25.2-.46.46-.46zM26.47 9.25c.26 0 .47.21.47.47v.93a.47.47 0 0 1-.94 0v-.93c0-.26.21-.47.47-.47zM26.94 12.52c.25 0 .46.21.46.47a.47.47 0 1 1-.46-.47zM22.26 12.99c.26 0 .47.21.47.47v.93a.47.47 0 1 1-.93 0v-.93c0-.26.2-.47.46-.47zM20.4 14.86h.93a.47.47 0 1 1 0 .93h-.94a.47.47 0 0 1 0-.93zM23.2 14.86h.93a.47.47 0 1 1 0 .93h-.93a.47.47 0 1 1 0-.93zM22.26 15.8c.26 0 .47.2.47.46v.94c0 .25-.2.46-.47.46a.47.47 0 0 1-.46-.46v-.94c0-.26.2-.47.46-.47z"/><g><path d="M38.15 15.33a.47.47 0 1 1 0 .93.47.47 0 0 1 0-.93zM33.95 18.13a.47.47 0 1 1 0 .93.47.47 0 0 1 0-.93zM37.22 18.13c.25 0 .46.21.46.47v.93c0 .26-.2.47-.46.47a.47.47 0 0 1-.47-.47v-.93c0-.26.2-.47.47-.47zM35.35 20h.93a.47.47 0 0 1 0 .94h-.93a.47.47 0 0 1-.47-.47c0-.26.2-.47.47-.47zM38.15 20h.93a.47.47 0 0 1 0 .94h-.93a.47.47 0 0 1 0-.94zM37.22 20.94c.25 0 .46.2.46.46v.94a.47.47 0 1 1-.93 0v-.94c0-.26.2-.46.47-.46z"/></g><path d="M17.52 27.14l1.33 1.32-4.8 4.82a.93.93 0 0 1-1.32-1.32l2-2.01.66.66a.47.47 0 1 0 .66-.66l-.67-.67z"/></g><path d="M35.4 7.38a3.23 3.23 0 1 0 0 6.45 3.23 3.23 0 0 0 0-6.45zm.88.94a.47.47 0 0 1 0 .93.47.47 0 0 1-.47-.47c0-.25.21-.46.47-.46zm-1.8.47a.47.47 0 0 1 .05.91.95.95 0 0 0-.58.5c-.15.38-.01.93.4 1.62a.47.47 0 1 1-.8.48c-.59-.97-.74-1.8-.46-2.46.23-.51.67-.9 1.2-1.04a.47.47 0 0 1 .2 0z" fill="#37abc8"/><path d="M30.73 12.06c.56.44.9 1.12.9 1.84-.01.13.04.25.13.34.1.1.22.14.34.14.7 0 1.37.31 1.81.85a2.73 2.73 0 0 0-2.6.7l-4.8 4.84-.65-.64a.47.47 0 0 0-.66.67l.64.63-2.6 2.62-.65-.64a.47.47 0 0 0-.66.66l.65.64-3.08 3.09-1.32-1.33 9.14-9.17.69.7a.46.46 0 0 0 .78-.21.47.47 0 0 0-.12-.46l-.7-.69L30 14.62c.67-.67.95-1.64.74-2.56z" fill="teal"/><g fill="#e5ff80"><path d="M26.47 6.45c.26 0 .47.2.47.47v.93c0 .26-.21.47-.47.47a.47.47 0 0 1-.47-.47v-.93c0-.26.21-.47.47-.47zM21.8 7.85a.47.47 0 1 1 0 .93.47.47 0 1 1 0-.93zM24.6 8.32h.93c.26 0 .47.2.47.46s-.2.47-.47.47h-.93a.47.47 0 0 1 0-.93zM27.4 8.32h.94a.47.47 0 0 1 0 .93h-.94a.47.47 0 0 1-.46-.47c0-.25.2-.46.46-.46zM26.47 9.25c.26 0 .47.21.47.47v.93a.47.47 0 0 1-.94 0v-.93c0-.26.21-.47.47-.47zM26.94 12.52c.25 0 .46.21.46.47a.47.47 0 1 1-.46-.47zM22.26 12.99c.26 0 .47.21.47.47v.93a.47.47 0 1 1-.93 0v-.93c0-.26.2-.47.46-.47zM20.4 14.86h.93a.47.47 0 1 1 0 .93h-.94a.47.47 0 0 1 0-.93zM23.2 14.86h.93a.47.47 0 1 1 0 .93h-.93a.47.47 0 1 1 0-.93zM22.26 15.8c.26 0 .47.2.47.46v.94c0 .25-.2.46-.47.46a.47.47 0 0 1-.46-.46v-.94c0-.26.2-.47.46-.47z"/></g><g fill="#e5ff80"><path d="M38.15 15.33a.47.47 0 1 1 0 .93.47.47 0 0 1 0-.93zM33.95 18.13a.47.47 0 1 1 0 .93.47.47 0 0 1 0-.93zM37.22 18.13c.25 0 .46.21.46.47v.93c0 .26-.2.47-.46.47a.47.47 0 0 1-.47-.47v-.93c0-.26.2-.47.47-.47zM35.35 20h.93a.47.47 0 0 1 0 .94h-.93a.47.47 0 0 1-.47-.47c0-.26.2-.47.47-.47zM38.15 20h.93a.47.47 0 0 1 0 .94h-.93a.47.47 0 0 1 0-.94zM37.22 20.94c.25 0 .46.2.46.46v.94a.47.47 0 1 1-.93 0v-.94c0-.26.2-.46.47-.46z"/></g><path d="M17.52 27.14l1.33 1.32-4.8 4.82a.93.93 0 0 1-1.32-1.32l2-2.01.66.66a.47.47 0 1 0 .66-.66l-.67-.67z" fill="teal"/><path d="M3.92 14.74c-.02.4-.12.78-.12 1.2 0 7.24 5.8 16.9 7.58 19.68a54.48 54.48 0 0 0 6.25 8.16c2.54 2.64 4.57 3.87 6.37 3.87 1.8 0 3.83-1.23 6.37-3.87 2-2.08 4.22-4.97 6.25-8.16 1.78-2.79 7.58-12.44 7.58-19.67 0-.43-.1-.8-.12-1.21a21.6 21.6 0 0 1-.81 4.94 43.2 43.2 0 0 1-2.2 5.77 69.59 69.59 0 0 1-4.45 8.17 54.47 54.47 0 0 1-6.25 8.16 17.98 17.98 0 0 1-3.46 2.93c-1.05.64-2 .94-2.9.94-.91 0-1.87-.3-2.92-.94-1.05-.64-2.2-1.6-3.46-2.93-2-2.08-4.21-4.97-6.25-8.16a69.6 69.6 0 0 1-4.46-8.17 43.2 43.2 0 0 1-2.19-5.77 21.6 21.6 0 0 1-.8-4.94z" opacity=".5"/></svg>