<svg xmlns="http://www.w3.org/2000/svg" xmlns:xlink="http://www.w3.org/1999/xlink" width="48" height="48"><defs><linearGradient id="a"><stop offset="0" stop-color="#010000"/><stop offset="1" stop-color="#030000" stop-opacity="0"/></linearGradient><linearGradient xlink:href="#a" id="b" gradientUnits="userSpaceOnUse" x1="8.74" y1="9.31" x2="52.37" y2="34.44"/></defs><path d="M24 .35c-5.83 0-10.52 1.12-13.93 3.33-4.1 2.66-6.27 6.9-6.27 12.27 0 7.23 5.8 16.88 7.58 19.67a54.48 54.48 0 0 0 6.25 8.16c2.54 2.64 4.57 3.87 6.37 3.87 1.8 0 3.83-1.23 6.37-3.87 2-2.08 4.22-4.97 6.25-8.16 1.78-2.79 7.58-12.44 7.58-19.67 0-5.37-2.16-9.61-6.26-12.27C34.52 1.47 29.84.35 24 .35z" fill="#8787de"/><path d="M28.3 45.53c.68-.54 1.31-.96 2.07-1.75 2-2.08 4.22-4.97 6.25-8.16.89-1.4 2.78-4.5 4.46-8.17a43.2 43.2 0 0 0 2.19-5.77c.22-.77.21-1.48.36-2.23L32.75 8.56l-18.82 22.6z" fill="url(#b)"/><path d="M38.48 20a14.19 14.19 0 0 1-14.16 14.19A14.19 14.19 0 0 1 10.1 20.04 14.19 14.19 0 0 1 24.23 5.81a14.19 14.19 0 0 1 14.25 14.1" fill="#212178"/><path d="M23.04 5.81a14.2 14.2 0 0 0 0 28.38l.52-.02a14.18 14.18 0 0 1 0-28.34l-.52-.02z" fill="#fff"/><path fill="#fff" d="M10.27 16.77h28.84v.66H10.27zM9.87 18.74h29.24v.66H9.87zM10.06 20.71h29.06v.66H10.06zM10.24 22.69h28.87v.66H10.24z"/><path d="M36.85 3.03c4.04 2.79 6.17 7.1 6.17 12.54 0 7.53-6.05 17.6-7.9 20.5a56.77 56.77 0 0 1-6.52 8.5 19.88 19.88 0 0 1-3.23 2.8c1.45-.46 3.06-1.65 4.96-3.63 2-2.07 4.22-4.97 6.25-8.15 1.78-2.8 7.59-12.45 7.59-19.68 0-5.37-2.17-9.61-6.27-12.27-.34-.22-.7-.41-1.05-.6zm-25.74.04l-1.04.6c-4.1 2.67-6.27 6.9-6.27 12.28 0 7.23 5.8 16.88 7.58 19.67a54.48 54.48 0 0 0 6.25 8.16c1.9 1.98 3.51 3.16 4.96 3.64-.99-.66-2.05-1.58-3.23-2.8a56.77 56.77 0 0 1-6.51-8.5c-1.86-2.91-7.9-12.98-7.9-20.51 0-5.43 2.13-9.76 6.16-12.54z" opacity=".2"/></svg>