<svg xmlns="http://www.w3.org/2000/svg" xmlns:xlink="http://www.w3.org/1999/xlink" width="48" height="48" viewBox="0 0 12.7 12.7"><defs><linearGradient id="b"><stop offset="0" stop-color="#1c2422"/><stop offset="1" stop-color="#1c2422" stop-opacity="0"/></linearGradient><linearGradient gradientTransform="matrix(.2344 0 0 .2344 .72 283.44)" xlink:href="#a" id="d" x1="29.6" y1="20.2" x2="12.99" y2="39.97" gradientUnits="userSpaceOnUse"/><linearGradient id="a"><stop offset="0" stop-color="teal"/><stop offset="1" stop-color="#87cdde"/></linearGradient><linearGradient xlink:href="#b" id="c" gradientUnits="userSpaceOnUse" x1="2.14" y1="285.64" x2="13.47" y2="292.47"/></defs><path d="M6.35.1C4.81.1 3.57.38 2.66.96A3.67 3.67 0 0 0 1 4.22c0 1.91 1.54 4.47 2.01 5.2.54.85 1.13 1.61 1.65 2.16.68.7 1.21 1.03 1.69 1.03s1.01-.33 1.69-1.03c.52-.55 1.11-1.31 1.65-2.15.47-.74 2-3.3 2-5.21 0-1.42-.57-2.54-1.65-3.25A6.75 6.75 0 0 0 6.35.1z" fill="#216778"/><path d="M7.42 296.4c.2-.15.39-.28.62-.52.52-.55 1.11-1.31 1.65-2.15.23-.37.74-1.2 1.18-2.17.22-.48.43-1 .58-1.52.15-.52.25-1.04.25-1.52l-.01-.07-1.8-1.8-6.85 3.63 1.5 1.47-.75 1.1z" opacity=".7" fill="url(#c)" transform="translate(0 -284.3)"/><path d="M1.04 3.9c0 .1-.04.2-.04.32 0 1.91 1.54 4.47 2.01 5.2.54.85 1.13 1.61 1.65 2.16.68.7 1.21 1.03 1.69 1.03s1.01-.33 1.69-1.03c.52-.55 1.11-1.31 1.65-2.15.47-.74 2-3.3 2-5.21 0-.11-.02-.21-.03-.32-.02.42-.08.86-.21 1.3-.15.53-.36 1.05-.58 1.53-.44.97-.95 1.8-1.18 2.17-.54.84-1.13 1.6-1.65 2.15-.34.35-.64.61-.92.78-.28.17-.53.25-.77.25s-.5-.08-.77-.25a4.76 4.76 0 0 1-.92-.78A14.41 14.41 0 0 1 3.01 8.9c-.23-.37-.74-1.2-1.18-2.17-.22-.48-.43-1-.58-1.52-.13-.45-.19-.89-.21-1.31z" opacity=".5"/><path d="M6.5 285.32c-.14 0-.28 0-.42.02l-.31.03c-2.1.31-3.66 1.76-3.52 3.33.09 1.02.87 1.85 1.99 2.3l-.47 1.8 2.06-1.48h.01c.26 0 .51.01.78-.01 2.26-.2 3.98-1.71 3.83-3.36-.14-1.54-1.87-2.67-3.95-2.63z" fill="url(#d)" transform="translate(0 -284.3)"/><path d="M6.27 1.91a.5.5 0 0 1 .08 0 .33.33 0 0 1 .3.37c0 .83.08 1.64.1 2.45l-.39.05c-.18-.83-.24-1.67-.41-2.52l-.01-.06c0-.14.16-.27.33-.29z" fill="#1c2422"/><path d="M6.12 1.83a.5.5 0 0 1 .08 0 .33.33 0 0 1 .3.36c0 .83.08 1.64.1 2.45l-.39.05c-.18-.83-.24-1.67-.41-2.52v-.06c0-.14.15-.27.32-.28z" fill="#d5fff6"/><path d="M6.63 5.38h.09c.1.01.21.07.27.16.14.19.05.48-.15.56h-.01c-.21.1-.5-.06-.52-.3a.38.38 0 0 1 .1-.31c.06-.07.14-.1.22-.1z" fill="#1c2422"/><path d="M6.48 5.3h.09c.1 0 .21.06.27.15.14.19.05.48-.15.56-.22.1-.51-.06-.53-.3a.38.38 0 0 1 .11-.31c.06-.07.13-.1.21-.1z" fill="#d5fff6"/></svg>