<svg xmlns="http://www.w3.org/2000/svg" xmlns:xlink="http://www.w3.org/1999/xlink" width="48" height="48"><defs><linearGradient id="a"><stop offset="0"/><stop offset="1" stop-opacity="0"/></linearGradient><linearGradient xlink:href="#a" id="b" gradientUnits="userSpaceOnUse" x1="14.09" y1="11.94" x2="42.06" y2="39.71"/></defs><path d="M23.71.5C17.88.5 13.2 1.6 9.78 3.82 5.68 6.48 3.5 10.73 3.5 16.1c0 7.22 5.8 16.88 7.58 19.67a54.48 54.48 0 0 0 6.25 8.16c2.54 2.64 4.57 3.87 6.37 3.87 1.8 0 3.83-1.23 6.37-3.87 2-2.08 4.22-4.98 6.25-8.16 1.78-2.79 7.59-12.45 7.59-19.67 0-5.37-2.17-9.62-6.27-12.27C34.24 1.6 29.55.49 23.7.49z" fill="#672178"/><path d="M25.88 47.1c.25-.12.47-.08.74-.24 1.05-.64 2.2-1.61 3.46-2.93 2-2.08 4.22-4.98 6.25-8.16.89-1.4 2.79-4.5 4.46-8.17.84-1.83 1.62-3.8 2.19-5.77.2-.67.18-1.3.32-1.95l-3.63-3.63-1.23-1.23-2.82-2.83-7.03-4.73-3.74-3.74-4.24 15.76-3.2 10.36-3.88 4.91z" fill="url(#b)" opacity=".7"/><path d="M24.43 3.66c.12 0 .23.04.33.1.18.1.3.28.35.47.02.1.02.2 0 .3l-.12.55c.24.08.77.25 1.48.52 3.52 1.3 11.64 4.9 13.2 10.65-1.98-2.6-8.45-6.8-13.78-7.77l.27-1.33-1.5-.53c-.78 3.54-2.25 9.95-3.63 14.48-2.54 8.34-6.19 14.41-6.19 14.41l-1.31-.76s3.65-6.07 6.18-14.4c1.64-5.37 3.4-13.37 3.99-16.12.07-.36.4-.58.73-.57z" fill="#e3dbde"/><path d="M22.54 35.08a2.12 2.18 0 0 1-4.24 0 2.12 2.18 0 1 1 4.24 0zM28.37 34.9a2.12 2.18 0 0 1-4.25 0 2.12 2.18 0 1 1 4.25 0zM34.37 34.9a2.12 2.18 0 0 1-4.25 0 2.12 2.18 0 1 1 4.25 0z" opacity=".4"/><g fill="#bc5fd3"><path d="M22.16 34.52a2.12 2.18 0 0 1-4.24 0 2.12 2.18 0 1 1 4.24 0zM28 34.33a2.12 2.18 0 0 1-4.25 0 2.12 2.18 0 1 1 4.24 0zM34 34.33a2.12 2.18 0 0 1-4.25 0 2.12 2.18 0 1 1 4.24 0z"/></g><path d="M23.71.5C17.88.5 13.2 1.6 9.78 3.82 5.68 6.48 3.5 10.73 3.5 16.1c0 7.22 5.8 16.88 7.58 19.67a54.48 54.48 0 0 0 6.25 8.16c2.54 2.64 4.57 3.87 6.37 3.87 1.8 0 3.83-1.23 6.37-3.87 2-2.08 4.22-4.98 6.25-8.16 1.78-2.79 7.59-12.45 7.59-19.67 0-5.37-2.17-9.62-6.27-12.27C34.24 1.6 29.55.49 23.7.49zm0 .14c2.12.08 4.12.27 5.88.69 1.16.28 2.25.63 3.26 1.04 1.01.42 1.95.9 2.8 1.46a12.92 12.92 0 0 1 4.67 5.12c.53 1.03.93 2.14 1.2 3.34.26 1.2.4 2.47.4 3.8 0 1.81-.37 3.77-.94 5.74a43.19 43.19 0 0 1-2.19 5.77 69.59 69.59 0 0 1-4.46 8.17 54.47 54.47 0 0 1-6.25 8.16 17.98 17.98 0 0 1-3.46 2.93c-.32.2-.62.3-.9.39-.3-.09-.6-.2-.92-.4-1.05-.63-2.19-1.6-3.46-2.92-2-2.08-4.21-4.98-6.25-8.16a69.6 69.6 0 0 1-4.46-8.17 43.19 43.19 0 0 1-2.19-5.77 20.93 20.93 0 0 1-.93-5.73c0-1.34.13-2.62.4-3.81.27-1.2.67-2.31 1.2-3.34a12.92 12.92 0 0 1 4.67-5.12 17.1 17.1 0 0 1 2.8-1.46c1-.41 2.1-.76 3.26-1.04 1.75-.42 3.76-.6 5.87-.7z" opacity=".2"/></svg>