<?xml version="1.0" encoding="UTF-8" standalone="no"?>
<!-- Created with Inkscape (http://www.inkscape.org/) -->

<svg
   xmlns:dc="http://purl.org/dc/elements/1.1/"
   xmlns:cc="http://creativecommons.org/ns#"
   xmlns:rdf="http://www.w3.org/1999/02/22-rdf-syntax-ns#"
   xmlns:svg="http://www.w3.org/2000/svg"
   xmlns="http://www.w3.org/2000/svg"
   xmlns:xlink="http://www.w3.org/1999/xlink"
   xmlns:sodipodi="http://sodipodi.sourceforge.net/DTD/sodipodi-0.dtd"
   xmlns:inkscape="http://www.inkscape.org/namespaces/inkscape"
   width="48"
   height="48"
   viewBox="0 0 12.7 12.7"
   version="1.1"
   id="svg829"
   inkscape:version="0.92.3 (2405546, 2018-03-11)"
   sodipodi:docname="glipper.svg">
  <defs
     id="defs823">
    <linearGradient
       inkscape:collect="always"
       id="linearGradient919">
      <stop
         style="stop-color:#1a1a1a;stop-opacity:1;"
         offset="0"
         id="stop915" />
      <stop
         style="stop-color:#1a1a1a;stop-opacity:0;"
         offset="1"
         id="stop917" />
    </linearGradient>
    <linearGradient
       id="linearGradient890"
       inkscape:collect="always">
      <stop
         id="stop886"
         offset="0"
         style="stop-color:#b3b3b3;stop-opacity:1" />
      <stop
         id="stop888"
         offset="1"
         style="stop-color:#ffffff;stop-opacity:1" />
    </linearGradient>
    <linearGradient
       inkscape:collect="always"
       id="linearGradient872">
      <stop
         style="stop-color:#1a1a1a;stop-opacity:1;"
         offset="0"
         id="stop868" />
      <stop
         style="stop-color:#b3b3b3;stop-opacity:1"
         offset="1"
         id="stop870" />
    </linearGradient>
    <linearGradient
       inkscape:collect="always"
       xlink:href="#linearGradient872"
       id="linearGradient874"
       x1="23.998047"
       y1="8.0625"
       x2="24.0912"
       y2="18.217119"
       gradientUnits="userSpaceOnUse"
       gradientTransform="matrix(0.247982,0,0,0.247982,0.39843182,283.21052)" />
    <linearGradient
       inkscape:collect="always"
       xlink:href="#linearGradient890"
       id="linearGradient884"
       x1="6.349483"
       y1="287.20007"
       x2="6.4437532"
       y2="294.17133"
       gradientUnits="userSpaceOnUse"
       gradientTransform="matrix(0.93725487,0,0,0.93725487,0.39843182,16.748991)" />
    <linearGradient
       inkscape:collect="always"
       xlink:href="#linearGradient919"
       id="linearGradient921"
       x1="3.1625488"
       y1="286.77774"
       x2="13.559118"
       y2="293.20245"
       gradientUnits="userSpaceOnUse" />
  </defs>
  <sodipodi:namedview
     id="base"
     pagecolor="#ffffff"
     bordercolor="#666666"
     borderopacity="1.0"
     inkscape:pageopacity="0.0"
     inkscape:pageshadow="2"
     inkscape:zoom="5.3125"
     inkscape:cx="24"
     inkscape:cy="24"
     inkscape:document-units="mm"
     inkscape:current-layer="layer1"
     showgrid="false"
     showguides="true"
     inkscape:guide-bbox="true"
     inkscape:window-width="1366"
     inkscape:window-height="719"
     inkscape:window-x="0"
     inkscape:window-y="25"
     inkscape:window-maximized="1"
     scale-x="1.9"
     units="px"
     inkscape:snap-global="true"
     inkscape:measure-start="24.3569,28.2825"
     inkscape:measure-end="0,0"
     inkscape:snap-smooth-nodes="true" />
  <metadata
     id="metadata826">
    <rdf:RDF>
      <cc:Work
         rdf:about="">
        <dc:format>image/svg+xml</dc:format>
        <dc:type
           rdf:resource="http://purl.org/dc/dcmitype/StillImage" />
        <dc:title />
      </cc:Work>
    </rdf:RDF>
  </metadata>
  <g
     inkscape:label="Capa 1"
     inkscape:groupmode="layer"
     id="layer1"
     transform="translate(0,-284.3)">
    <g
       id="g948">
      <path
         id="path837"
         d="m 6.3502584,284.39147 c -1.5434371,0 -2.7839989,0.29643 -3.6871139,0.8816 -1.085107,0.7031 -1.658813,1.82603 -1.658813,3.24683 0,1.91207 1.536241,4.46762 2.007112,5.20537 0.537567,0.84219 1.124508,1.60861 1.6526131,2.158 0.6726666,0.69964 1.2086556,1.02527 1.6862018,1.02527 0.4775708,0 1.013092,-0.32561 1.6856847,-1.02527 0.5280801,-0.54937 1.1150471,-1.31579 1.6526122,-2.158 0.4708717,-0.73773 2.0071127,-3.2933 2.0071127,-5.20537 2.4e-5,-1.42078 -0.573141,-2.5437 -1.658296,-3.24683 -0.9030667,-0.58517 -2.1437006,-0.8816 -3.6871136,-0.8816 z"
         style="fill:#8aa678;stroke-width:0.02444816"
         inkscape:connector-curvature="0" />
      <path
         inkscape:connector-curvature="0"
         id="path913"
         d="m 7.0703693,296.67444 c 0.01769,-0.0102 0.03172,-0.005 0.04961,-0.016 0.277651,-0.16886 0.579927,-0.42532 0.916223,-0.77515 0.52808,-0.54937 1.115047,-1.3158 1.652613,-2.15801 0.235436,-0.36886 0.7368527,-1.19202 1.1797727,-2.16214 0.221459,-0.48506 0.428429,-1.00704 0.579809,-1.52704 0.15138,-0.51999 0.24753,-1.03817 0.24753,-1.51618 1e-6,-0.0262 -0.0074,-0.0484 -0.0078,-0.0744 l -2.3001177,-2.3275 -1.145667,4.85551 -5.0301835,1.84279 z"
         style="fill:url(#linearGradient921);fill-opacity:1;stroke:none;stroke-width:0.26458332px;stroke-linecap:butt;stroke-linejoin:miter;stroke-opacity:1;opacity:0.5" />
      <path
         inkscape:connector-curvature="0"
         id="path866"
         d="m 3.834823,285.92865 c -0.3970239,0 -0.718276,0.32173 -0.718276,0.71876 v 5.74863 c 0,0.39702 0.3212521,0.71828 0.718276,0.71828 h 5.0303541 c 0.3970248,0 0.7182756,-0.32125 0.7182756,-0.71828 v -5.74863 c 0,-0.39703 -0.3212508,-0.71876 -0.7182756,-0.71876 H 8.6598161 8.146416 4.5530989 4.1331763 Z"
         style="fill:#784421;fill-opacity:1;stroke-width:0.13023213" />
      <rect
         y="286.39938"
         x="3.6178257"
         height="6.2445974"
         width="5.4643483"
         id="rect876"
         style="opacity:0.75;fill:#1a1a1a;fill-opacity:1;fill-rule:nonzero;stroke:none;stroke-width:0.2698009;stroke-miterlimit:4;stroke-dasharray:none;stroke-opacity:1" />
      <path
         inkscape:connector-curvature="0"
         id="path818"
         d="m 3.8348229,286.64741 h 0.7182764 v 1.07814 h 3.5933176 v -1.07814 h 0.7187602 v 5.74863 H 3.8348229 Z"
         style="fill:url(#linearGradient884);fill-opacity:1;stroke-width:0.13023213" />
      <path
         inkscape:connector-curvature="0"
         id="path822"
         d="m 4.553099,285.92865 v 1.7969 h 3.5933175 v -1.7969 H 7.3617858 c -0.1473119,-0.41679 -0.5433861,-0.71876 -1.0122702,-0.71876 -0.4688841,0 -0.8639896,0.30198 -1.0113016,0.71876 z m 1.7964166,0 c 0.1976141,0 0.3598645,0.15997 0.3598645,0.35938 0,0.19941 -0.1622504,0.35938 -0.3598645,0.35938 -0.1976139,0 -0.3588959,-0.15997 -0.3588959,-0.35938 0,-0.19941 0.161282,-0.35938 0.3588959,-0.35938 z"
         style="fill:url(#linearGradient874);fill-opacity:1;stroke-width:0.13023213" />
      <path
         inkscape:connector-curvature="0"
         id="path4588"
         d="m 6.3502584,284.39147 c -1.543436,0 -2.7839979,0.29643 -3.6871129,0.8816 -1.085108,0.7031 -1.658814,1.82603 -1.658814,3.24683 0,1.91207 1.536241,4.46762 2.007113,5.20537 0.537566,0.84219 1.124507,1.60861 1.6526121,2.158 0.6726666,0.69964 1.2086567,1.02527 1.6862018,1.02527 0.4775708,0 1.013092,-0.32561 1.6856847,-1.02527 0.5280811,-0.54937 1.1150471,-1.31579 1.6526132,-2.158 0.4708707,-0.73773 2.0071117,-3.2933 2.0071117,-5.20537 2.4e-5,-1.42078 -0.573141,-2.5437 -1.658296,-3.24683 -0.9030667,-0.58517 -2.1437006,-0.8816 -3.6871136,-0.8816 z m 0,0.0382 c 0.558918,0.0225 1.0898968,0.0719 1.5544268,0.18294 0.3079851,0.0736 0.5960941,0.16587 0.863513,0.27595 0.2674191,0.11008 0.5142412,0.23818 0.740007,0.38447 0.2712892,0.17578 0.5104178,0.37775 0.7167518,0.6041 0.206334,0.22635 0.379882,0.47723 0.519348,0.75034 0.139467,0.27311 0.245057,0.56864 0.315743,0.8847 0.07069,0.31606 0.106459,0.6525 0.106454,1.00769 0,0.47802 -0.09615,0.99619 -0.24753,1.51619 -0.15138,0.51999 -0.357833,1.04198 -0.579293,1.52704 -0.4429197,0.97011 -0.9448536,1.79328 -1.1802896,2.16214 -0.5375661,0.84221 -1.1245321,1.60863 -1.6526121,2.158 -0.3362971,0.34983 -0.6385722,0.60629 -0.916223,0.77515 -0.08441,0.0513 -0.1636321,0.0811 -0.2408121,0.10335 -0.07713,-0.0222 -0.155988,-0.0521 -0.2402959,-0.10335 -0.2777742,-0.16886 -0.57989,-0.42533 -0.916223,-0.77515 -0.5281046,-0.54939 -1.1150457,-1.31581 -1.6526128,-2.158 -0.235435,-0.36888 -0.73737,-1.19203 -1.18029,-2.16215 -0.221459,-0.48505 -0.427912,-1.00704 -0.579292,-1.52703 -0.15138,-0.52 -0.24753,-1.03817 -0.24753,-1.51619 0,-0.3552 0.03571,-0.69163 0.106453,-1.00769 0.07074,-0.31606 0.176727,-0.61159 0.31626,-0.8847 0.139532,-0.27311 0.31297,-0.52399 0.519348,-0.75034 0.206378,-0.22635 0.445475,-0.42832 0.716752,-0.6041 0.225779,-0.14629 0.4725869,-0.27439 0.7400071,-0.38447 0.2674189,-0.11008 0.5555329,-0.20233 0.8635127,-0.27595 0.4645239,-0.11106 0.9955048,-0.16048 1.5544271,-0.18294 z"
         style="opacity:0.2;fill:#000000;stroke-width:0.02444816" />
    </g>
  </g>
</svg>
