<svg xmlns="http://www.w3.org/2000/svg" xmlns:xlink="http://www.w3.org/1999/xlink" width="48" height="48" viewBox="0 0 12.7 12.7"><defs><linearGradient id="c"><stop offset="0" stop-color="#1a1a1a"/><stop offset="1" stop-color="#1a1a1a" stop-opacity="0"/></linearGradient><linearGradient id="b"><stop offset="0" stop-color="#b3b3b3"/><stop offset="1" stop-color="#fff"/></linearGradient><linearGradient id="a"><stop offset="0" stop-color="#1a1a1a"/><stop offset="1" stop-color="#b3b3b3"/></linearGradient><linearGradient xlink:href="#a" id="f" x1="24" y1="8.06" x2="24.09" y2="18.22" gradientUnits="userSpaceOnUse" gradientTransform="translate(.4 283.21) scale(.24798)"/><linearGradient xlink:href="#b" id="e" x1="6.35" y1="287.2" x2="6.44" y2="294.17" gradientUnits="userSpaceOnUse" gradientTransform="matrix(.93725 0 0 .93725 .4 16.75)"/><linearGradient xlink:href="#c" id="d" x1="3.16" y1="286.78" x2="13.56" y2="293.2" gradientUnits="userSpaceOnUse"/></defs><path d="M6.35.1C4.81.1 3.57.38 2.66.96A3.67 3.67 0 0 0 1 4.22c0 1.91 1.54 4.47 2.01 5.2.54.85 1.13 1.61 1.65 2.16.68.7 1.21 1.03 1.69 1.03s1.01-.33 1.69-1.03c.52-.55 1.11-1.31 1.65-2.15.47-.74 2-3.3 2-5.21 0-1.42-.57-2.54-1.65-3.25A6.75 6.75 0 0 0 6.35.1z" fill="#8aa678"/><path d="M7.07 296.67l.05-.01c.28-.17.58-.43.92-.78.52-.55 1.11-1.31 1.65-2.15.23-.37.74-1.2 1.18-2.17.22-.48.43-1 .58-1.52.15-.52.25-1.04.25-1.52l-.01-.07-2.3-2.33-1.15 4.85-5.03 1.85z" fill="url(#d)" opacity=".5" transform="translate(0 -284.3)"/><path d="M3.83 1.63c-.4 0-.71.32-.71.72V8.1c0 .4.32.71.71.71h5.04c.4 0 .71-.32.71-.71V2.35c0-.4-.32-.72-.71-.72H4.13z" fill="#784421"/><path opacity=".75" fill="#1a1a1a" d="M3.62 2.1h5.46v6.24H3.62z"/><path d="M3.83 286.65h.72v1.08h3.6v-1.08h.72v5.75H3.83z" fill="url(#e)" transform="translate(0 -284.3)"/><path d="M4.55 285.93v1.8h3.6v-1.8h-.79a1.08 1.08 0 0 0-2.02 0zm1.8 0a.36.36 0 1 1 0 .72.36.36 0 0 1 0-.72z" fill="url(#f)" transform="translate(0 -284.3)"/><path d="M6.35.1C4.81.1 3.57.38 2.66.96A3.67 3.67 0 0 0 1 4.22c0 1.91 1.54 4.47 2.01 5.2.54.85 1.13 1.61 1.65 2.16.68.7 1.21 1.03 1.69 1.03s1.01-.33 1.69-1.03c.52-.55 1.11-1.31 1.65-2.15.47-.74 2-3.3 2-5.21 0-1.42-.57-2.54-1.65-3.25A6.75 6.75 0 0 0 6.35.1zm0 .03C6.91.15 7.44.2 7.9.31a5.82 5.82 0 0 1 1.6.66 3.65 3.65 0 0 1 1.24 1.36c.14.27.25.57.32.88a4.61 4.61 0 0 1-.14 2.53c-.15.52-.36 1.04-.58 1.52-.44.97-.95 1.8-1.18 2.17-.54.84-1.13 1.6-1.65 2.15-.34.35-.64.61-.92.78a.96.96 0 0 1-.24.1.96.96 0 0 1-.24-.1 4.76 4.76 0 0 1-.92-.78 14.41 14.41 0 0 1-1.65-2.15c-.23-.37-.74-1.2-1.18-2.17-.22-.48-.43-1-.58-1.52a4.6 4.6 0 0 1-.14-2.52 3.73 3.73 0 0 1 .84-1.64 3.65 3.65 0 0 1 1.45-1c.27-.1.56-.2.87-.27.46-.1 1-.16 1.55-.18z" opacity=".2"/></svg>