<?xml version="1.0" encoding="UTF-8" standalone="no"?>
<!-- Generator: Adobe Illustrator 19.0.0, SVG Export Plug-In . SVG Version: 6.00 Build 0)  -->

<svg
   xmlns:dc="http://purl.org/dc/elements/1.1/"
   xmlns:cc="http://creativecommons.org/ns#"
   xmlns:rdf="http://www.w3.org/1999/02/22-rdf-syntax-ns#"
   xmlns:svg="http://www.w3.org/2000/svg"
   xmlns="http://www.w3.org/2000/svg"
   xmlns:xlink="http://www.w3.org/1999/xlink"
   xmlns:sodipodi="http://sodipodi.sourceforge.net/DTD/sodipodi-0.dtd"
   xmlns:inkscape="http://www.inkscape.org/namespaces/inkscape"
   version="1.1"
   id="Capa_1"
   x="0px"
   y="0px"
   viewBox="0 0 48 48"
   xml:space="preserve"
   sodipodi:docname="gnome-panel-window-list.svg"
   width="48"
   height="48"
   inkscape:version="0.92.3 (2405546, 2018-03-11)"><metadata
   id="metadata41"><rdf:RDF><cc:Work
       rdf:about=""><dc:format>image/svg+xml</dc:format><dc:type
         rdf:resource="http://purl.org/dc/dcmitype/StillImage" /><dc:title /></cc:Work></rdf:RDF></metadata><defs
   id="defs39"><mask
     id="mask4483"><rect
       width="50"
       height="27"
       x="-1"
       y="17"
       id="rect4485"
       style="fill:url(#linearGradient4487);fill-opacity:1;stroke:none" /></mask><linearGradient
     x1="-1"
     y1="30"
     x2="49"
     y2="30"
     id="linearGradient4487"
     xlink:href="#linearGradient4433"
     gradientUnits="userSpaceOnUse" /><linearGradient
     id="linearGradient4433"><stop
       id="stop4435"
       style="stop-color:black;stop-opacity:1"
       offset="0" /><stop
       id="stop4437"
       style="stop-color:black;stop-opacity:1"
       offset="0.02977399" /><stop
       id="stop4439"
       style="stop-color:white;stop-opacity:1"
       offset="0.10122953" /><stop
       id="stop4441"
       style="stop-color:white;stop-opacity:1"
       offset="0.89621317" /><stop
       id="stop4443"
       style="stop-color:black;stop-opacity:1"
       offset="0.96931982" /><stop
       id="stop4445"
       style="stop-color:black;stop-opacity:1"
       offset="1" /></linearGradient><mask
     id="mask4489"><rect
       width="50"
       height="27"
       x="-1"
       y="17"
       id="rect4491"
       style="fill:url(#linearGradient4487);fill-opacity:1;stroke:none" /></mask></defs><sodipodi:namedview
   pagecolor="#ffffff"
   bordercolor="#666666"
   borderopacity="1"
   objecttolerance="10"
   gridtolerance="10"
   guidetolerance="10"
   inkscape:pageopacity="0"
   inkscape:pageshadow="2"
   inkscape:window-width="1366"
   inkscape:window-height="690"
   id="namedview37"
   showgrid="false"
   showguides="true"
   inkscape:guide-bbox="true"
   inkscape:zoom="20.291667"
   inkscape:cx="19.551088"
   inkscape:cy="23.650213"
   inkscape:window-x="0"
   inkscape:window-y="28"
   inkscape:window-maximized="1"
   inkscape:current-layer="Capa_1" />
<path
   style="fill:#a02c2c;stroke-width:0.0924025;fill-opacity:1"
   d="M 23.712891 0.49414062 C 17.87943 0.49414062 13.190692 1.6145182 9.7773438 3.8261719 C 5.6761506 6.4835756 3.5078125 10.727685 3.5078125 16.097656 C 3.5078125 23.324362 9.3140783 32.983146 11.09375 35.771484 C 13.125497 38.954565 15.343857 41.851266 17.339844 43.927734 C 19.882206 46.572017 21.907994 47.802734 23.712891 47.802734 C 25.517882 47.802734 27.5419 46.572109 30.083984 43.927734 C 32.079878 41.851358 34.298332 38.954657 36.330078 35.771484 C 38.10975 32.983238 43.916016 23.324362 43.916016 16.097656 C 43.916108 10.727777 41.749813 6.4836678 37.648438 3.8261719 C 34.235273 1.6145182 29.546261 0.49414062 23.712891 0.49414062 z M 7.4023438 10.642578 L 39.990234 10.642578 L 39.990234 27.242188 L 7.4023438 27.242188 L 7.4023438 10.642578 z M 7.4082031 12.742188 L 7.4082031 25.201172 L 12.019531 25.201172 C 12.113999 25.201172 12.215246 25.184942 12.300781 25.158203 C 12.434744 25.112634 12.570367 25.018426 12.667969 24.919922 C 12.713083 24.872158 12.764722 24.802861 12.798828 24.746094 C 12.875309 24.611551 12.927734 24.436379 12.927734 24.269531 L 12.927734 13.673828 C 12.927734 13.506981 12.875309 13.331808 12.798828 13.197266 C 12.764722 13.140498 12.713083 13.071204 12.667969 13.023438 C 12.570368 12.924933 12.434744 12.83268 12.300781 12.787109 C 12.215246 12.760371 12.113999 12.742186 12.019531 12.742188 L 7.4082031 12.742188 z M 15.113281 12.742188 C 15.06006 12.748973 14.989349 12.771513 14.939453 12.787109 C 14.80549 12.832678 14.669867 12.924933 14.572266 13.023438 C 14.527154 13.071201 14.477465 13.140498 14.443359 13.197266 C 14.366878 13.331808 14.3125 13.506981 14.3125 13.673828 L 14.3125 24.269531 C 14.3125 24.436379 14.366876 24.611552 14.443359 24.746094 C 14.477467 24.802861 14.527151 24.872156 14.572266 24.919922 C 14.669867 25.018426 14.80549 25.112632 14.939453 25.158203 C 15.024989 25.184942 15.128188 25.201172 15.222656 25.201172 L 39.914062 25.201172 L 39.914062 12.742188 L 15.222656 12.742188 C 15.183292 12.742188 15.151297 12.737339 15.113281 12.742188 z M 16.085938 15.636719 L 28.025391 15.636719 L 28.025391 22.685547 C 28.025391 23.089562 27.663915 23.416016 27.212891 23.416016 L 16.900391 23.416016 C 16.449368 23.416016 16.085938 23.089562 16.085938 22.685547 L 16.085938 15.636719 z "
   id="path2" />

<g
   id="g6"
   transform="translate(0,-464)">
</g>
<g
   id="g8"
   transform="translate(0,-464)">
</g>
<g
   id="g10"
   transform="translate(0,-464)">
</g>
<g
   id="g12"
   transform="translate(0,-464)">
</g>
<g
   id="g14"
   transform="translate(0,-464)">
</g>
<g
   id="g16"
   transform="translate(0,-464)">
</g>
<g
   id="g18"
   transform="translate(0,-464)">
</g>
<g
   id="g20"
   transform="translate(0,-464)">
</g>
<g
   id="g22"
   transform="translate(0,-464)">
</g>
<g
   id="g24"
   transform="translate(0,-464)">
</g>
<g
   id="g26"
   transform="translate(0,-464)">
</g>
<g
   id="g28"
   transform="translate(0,-464)">
</g>
<g
   id="g30"
   transform="translate(0,-464)">
</g>
<g
   id="g32"
   transform="translate(0,-464)">
</g>
<g
   id="g34"
   transform="translate(0,-464)">
</g>
<path
   inkscape:connector-curvature="0"
   style="fill:#636e73;stroke-width:0.25684264"
   d="m 16.90004,14.177941 c -0.451023,0 -0.814121,0.325254 -0.814121,0.729269 v 0.729269 H 28.026366 V 14.90721 c 0,-0.404015 -0.363098,-0.729269 -0.814122,-0.729269 z"
   id="path8" /></svg>