<?xml version="1.0" encoding="UTF-8" standalone="no"?>
<!-- Generator: Adobe Illustrator 19.0.0, SVG Export Plug-In . SVG Version: 6.00 Build 0)  -->

<svg
   xmlns:dc="http://purl.org/dc/elements/1.1/"
   xmlns:cc="http://creativecommons.org/ns#"
   xmlns:rdf="http://www.w3.org/1999/02/22-rdf-syntax-ns#"
   xmlns:svg="http://www.w3.org/2000/svg"
   xmlns="http://www.w3.org/2000/svg"
   xmlns:xlink="http://www.w3.org/1999/xlink"
   xmlns:sodipodi="http://sodipodi.sourceforge.net/DTD/sodipodi-0.dtd"
   xmlns:inkscape="http://www.inkscape.org/namespaces/inkscape"
   version="1.1"
   id="Capa_1"
   x="0px"
   y="0px"
   viewBox="0 0 48 48"
   xml:space="preserve"
   sodipodi:docname="gnome-panel-notification-area.svg"
   width="48"
   height="48"
   inkscape:version="0.92.3 (2405546, 2018-03-11)"><metadata
   id="metadata41"><rdf:RDF><cc:Work
       rdf:about=""><dc:format>image/svg+xml</dc:format><dc:type
         rdf:resource="http://purl.org/dc/dcmitype/StillImage" /><dc:title /></cc:Work></rdf:RDF></metadata><defs
   id="defs39"><mask
     id="mask4483"><rect
       width="50"
       height="27"
       x="-1"
       y="17"
       id="rect4485"
       style="fill:url(#linearGradient4487);fill-opacity:1;stroke:none" /></mask><linearGradient
     x1="-1"
     y1="30"
     x2="49"
     y2="30"
     id="linearGradient4487"
     xlink:href="#linearGradient4433"
     gradientUnits="userSpaceOnUse" /><linearGradient
     id="linearGradient4433"><stop
       id="stop4435"
       style="stop-color:black;stop-opacity:1"
       offset="0" /><stop
       id="stop4437"
       style="stop-color:black;stop-opacity:1"
       offset="0.02977399" /><stop
       id="stop4439"
       style="stop-color:white;stop-opacity:1"
       offset="0.10122953" /><stop
       id="stop4441"
       style="stop-color:white;stop-opacity:1"
       offset="0.89621317" /><stop
       id="stop4443"
       style="stop-color:black;stop-opacity:1"
       offset="0.96931982" /><stop
       id="stop4445"
       style="stop-color:black;stop-opacity:1"
       offset="1" /></linearGradient><mask
     id="mask4489"><rect
       width="50"
       height="27"
       x="-1"
       y="17"
       id="rect4491"
       style="fill:url(#linearGradient4487);fill-opacity:1;stroke:none" /></mask></defs><sodipodi:namedview
   pagecolor="#ffffff"
   bordercolor="#666666"
   borderopacity="1"
   objecttolerance="10"
   gridtolerance="10"
   guidetolerance="10"
   inkscape:pageopacity="0"
   inkscape:pageshadow="2"
   inkscape:window-width="1366"
   inkscape:window-height="690"
   id="namedview37"
   showgrid="false"
   showguides="true"
   inkscape:guide-bbox="true"
   inkscape:zoom="5.0729165"
   inkscape:cx="2.6881277"
   inkscape:cy="24.371071"
   inkscape:window-x="0"
   inkscape:window-y="28"
   inkscape:window-maximized="1"
   inkscape:current-layer="Capa_1" />
<path
   style="fill:#a02c2c;stroke-width:0.0924025;fill-opacity:1"
   d="M 23.712891 0.49414062 C 17.87943 0.49414062 13.190692 1.6145182 9.7773438 3.8261719 C 5.6761507 6.4835756 3.5078125 10.727685 3.5078125 16.097656 C 3.5078125 23.324362 9.3140783 32.983146 11.09375 35.771484 C 13.125497 38.954565 15.343857 41.851266 17.339844 43.927734 C 19.882206 46.572017 21.907994 47.802734 23.712891 47.802734 C 25.517882 47.802734 27.5419 46.572109 30.083984 43.927734 C 32.079878 41.851358 34.298332 38.954657 36.330078 35.771484 C 38.10975 32.983238 43.916016 23.324362 43.916016 16.097656 C 43.916108 10.727777 41.749814 6.4836678 37.648438 3.8261719 C 34.235274 1.6145182 29.546261 0.49414062 23.712891 0.49414062 z M 23.603516 7.8339844 A 11.656051 11.656061 0 0 1 35.259766 19.490234 A 11.656051 11.656061 0 0 1 23.603516 31.146484 A 11.656051 11.656061 0 0 1 11.947266 19.490234 A 11.656051 11.656061 0 0 1 23.603516 7.8339844 z M 23.980469 11.970703 A 1.8800096 1.8800096 0 0 0 22.099609 13.849609 A 1.8800096 1.8800096 0 0 0 23.980469 15.730469 A 1.8800096 1.8800096 0 0 0 25.859375 13.849609 A 1.8800096 1.8800096 0 0 0 23.980469 11.970703 z M 20.595703 17.234375 L 20.595703 18.738281 L 22.099609 18.738281 L 22.099609 24.753906 L 20.595703 24.753906 L 20.595703 26.257812 L 27.365234 26.257812 L 27.365234 24.753906 L 25.859375 24.722656 L 25.859375 17.234375 L 20.595703 17.234375 z "
   id="path2" />

<g
   id="g6"
   transform="translate(0,-464)">
</g>
<g
   id="g8"
   transform="translate(0,-464)">
</g>
<g
   id="g10"
   transform="translate(0,-464)">
</g>
<g
   id="g12"
   transform="translate(0,-464)">
</g>
<g
   id="g14"
   transform="translate(0,-464)">
</g>
<g
   id="g16"
   transform="translate(0,-464)">
</g>
<g
   id="g18"
   transform="translate(0,-464)">
</g>
<g
   id="g20"
   transform="translate(0,-464)">
</g>
<g
   id="g22"
   transform="translate(0,-464)">
</g>
<g
   id="g24"
   transform="translate(0,-464)">
</g>
<g
   id="g26"
   transform="translate(0,-464)">
</g>
<g
   id="g28"
   transform="translate(0,-464)">
</g>
<g
   id="g30"
   transform="translate(0,-464)">
</g>
<g
   id="g32"
   transform="translate(0,-464)">
</g>
<g
   id="g34"
   transform="translate(0,-464)">
</g>
</svg>