<svg xmlns="http://www.w3.org/2000/svg" xmlns:xlink="http://www.w3.org/1999/xlink" width="48" height="48"><defs><linearGradient id="a"><stop offset="0"/><stop offset="1" stop-opacity="0"/></linearGradient><linearGradient xlink:href="#a" id="b" x1="17.39" y1="7.03" x2="36.74" y2="27.55" gradientUnits="userSpaceOnUse"/></defs><text style="line-height:1.25;-inkscape-font-specification:sans-serif" x="13.8" y="19.91" font-weight="400" font-size="5.33" font-family="sans-serif" letter-spacing="0" word-spacing="0"/><path d="M24 .35c-5.83 0-10.52 1.12-13.93 3.33-4.1 2.66-6.27 6.9-6.27 12.27 0 7.23 5.8 16.88 7.58 19.67a54.48 54.48 0 0 0 6.25 8.16c2.54 2.64 4.57 3.87 6.37 3.87 1.8 0 3.83-1.23 6.37-3.87 2-2.08 4.22-4.97 6.25-8.16 1.78-2.79 7.58-12.44 7.58-19.67 0-5.37-2.16-9.61-6.26-12.27C34.52 1.47 29.84.35 24 .35z" fill="#447821"/><path d="M23.86 6.35c9.83 0 17.78 5.4 17.78 12.08 0 6.39-6.48 13.78-16.73 17.04V30.5h-1.05c-9.83 0-17.78-5.4-17.78-12.07 0-6.68 7.95-12.08 17.78-12.08z" opacity=".5"/><path d="M23.86 2.35c9.83 0 17.78 5.4 17.78 12.08 0 6.39-6.48 13.78-16.73 17.04V26.5h-1.05c-9.83 0-17.78-5.4-17.78-12.07 0-6.68 7.95-12.08 17.78-12.08z" fill="#fff"/><path d="M29.16 29.55c.87-.43 1.9-.73 2.69-1.22a25.87 25.87 0 0 0 5.27-4.2 18.26 18.26 0 0 0 3-4.31l-8.94-8.95-5.2 3.16-3.17-3.15-6.27 4.26 2.42 2.42-1.37.42z" fill="url(#b)" opacity=".4"/><path d="M16.54 10.88v4.26h3.14l-2.1 2.84h3.14l2.1-2.84v-4.26zM24.9 10.88v4.26h3.14l-2.09 2.84h3.14l2.1-2.84v-4.26z" fill="#483737"/><path d="M3.92 14.74c-.02.4-.12.78-.12 1.2 0 7.24 5.8 16.9 7.58 19.68a54.47 54.47 0 0 0 6.25 8.16c2.54 2.64 4.57 3.87 6.37 3.87 1.8 0 3.83-1.23 6.37-3.87 2-2.08 4.22-4.97 6.25-8.16 1.78-2.79 7.58-12.44 7.58-19.67 0-.43-.1-.8-.12-1.21a21.6 21.6 0 0 1-.8 4.94 43.2 43.2 0 0 1-2.2 5.77 69.59 69.59 0 0 1-4.46 8.17 54.47 54.47 0 0 1-6.25 8.16 17.98 17.98 0 0 1-3.46 2.93c-1.05.64-2 .94-2.9.94-.91 0-1.87-.3-2.92-.94-1.05-.64-2.2-1.6-3.46-2.93-2-2.08-4.21-4.97-6.25-8.16a69.6 69.6 0 0 1-4.46-8.17 43.2 43.2 0 0 1-2.19-5.77 21.6 21.6 0 0 1-.8-4.94z" opacity=".5"/></svg>