<?xml version="1.0" encoding="UTF-8" standalone="no"?>
<!-- Generator: Adobe Illustrator 19.0.0, SVG Export Plug-In . SVG Version: 6.00 Build 0)  -->

<svg
   xmlns:dc="http://purl.org/dc/elements/1.1/"
   xmlns:cc="http://creativecommons.org/ns#"
   xmlns:rdf="http://www.w3.org/1999/02/22-rdf-syntax-ns#"
   xmlns:svg="http://www.w3.org/2000/svg"
   xmlns="http://www.w3.org/2000/svg"
   xmlns:xlink="http://www.w3.org/1999/xlink"
   xmlns:sodipodi="http://sodipodi.sourceforge.net/DTD/sodipodi-0.dtd"
   xmlns:inkscape="http://www.inkscape.org/namespaces/inkscape"
   version="1.1"
   id="Capa_1"
   x="0px"
   y="0px"
   viewBox="0 0 48 48"
   xml:space="preserve"
   sodipodi:docname="google-hangout.svg"
   width="48"
   height="48"
   inkscape:version="0.92.3 (2405546, 2018-03-11)"><metadata
   id="metadata41"><rdf:RDF><cc:Work
       rdf:about=""><dc:format>image/svg+xml</dc:format><dc:type
         rdf:resource="http://purl.org/dc/dcmitype/StillImage" /><dc:title /></cc:Work></rdf:RDF></metadata><defs
   id="defs39"><linearGradient
     inkscape:collect="always"
     id="linearGradient907"><stop
       style="stop-color:#000000;stop-opacity:1;"
       offset="0"
       id="stop903" /><stop
       style="stop-color:#000000;stop-opacity:0;"
       offset="1"
       id="stop905" /></linearGradient><linearGradient
     inkscape:collect="always"
     xlink:href="#linearGradient907"
     id="linearGradient909"
     x1="17.388075"
     y1="7.0344667"
     x2="36.736763"
     y2="27.552114"
     gradientUnits="userSpaceOnUse" /></defs><sodipodi:namedview
   pagecolor="#ffffff"
   bordercolor="#666666"
   borderopacity="1"
   objecttolerance="10"
   gridtolerance="10"
   guidetolerance="10"
   inkscape:pageopacity="0"
   inkscape:pageshadow="2"
   inkscape:window-width="1366"
   inkscape:window-height="719"
   id="namedview37"
   showgrid="false"
   showguides="true"
   inkscape:guide-bbox="true"
   inkscape:zoom="2.65625"
   inkscape:cx="24"
   inkscape:cy="24"
   inkscape:window-x="0"
   inkscape:window-y="25"
   inkscape:window-maximized="1"
   inkscape:current-layer="Capa_1"
   inkscape:snap-smooth-nodes="true" />


<g
   id="g6"
   transform="translate(0,-464)">
</g>
<g
   id="g8"
   transform="translate(0,-464)">
</g>
<g
   id="g10"
   transform="translate(0,-464)">
</g>
<g
   id="g12"
   transform="translate(0,-464)">
</g>
<g
   id="g14"
   transform="translate(0,-464)">
</g>
<g
   id="g16"
   transform="translate(0,-464)">
</g>
<g
   id="g18"
   transform="translate(0,-464)">
</g>
<g
   id="g20"
   transform="translate(0,-464)">
</g>
<g
   id="g22"
   transform="translate(0,-464)">
</g>
<g
   id="g24"
   transform="translate(0,-464)">
</g>
<g
   id="g26"
   transform="translate(0,-464)">
</g>
<g
   id="g28"
   transform="translate(0,-464)">
</g>
<g
   id="g30"
   transform="translate(0,-464)">
</g>
<g
   id="g32"
   transform="translate(0,-464)">
</g>
<g
   id="g34"
   transform="translate(0,-464)">
</g>
<text
   xml:space="preserve"
   style="font-style:normal;font-variant:normal;font-weight:normal;font-stretch:normal;font-size:5.33333349px;line-height:1.25;font-family:sans-serif;-inkscape-font-specification:sans-serif;letter-spacing:0px;word-spacing:0px;fill:#000000;fill-opacity:1;stroke:none;"
   x="13.798768"
   y="19.909651"
   id="text1012"><tspan
     sodipodi:role="line"
     id="tspan1010"
     x="13.798768"
     y="24.517403" /></text>



<g
   id="g924"><path
     id="path850"
     d="m 24.000976,0.3457035 c -5.833461,0 -10.522199,1.1203776 -13.935547,3.3320313 -4.1011925,2.6574037 -6.2695305,6.9015122 -6.2695305,12.2714832 0,7.226706 5.806265,16.88549 7.5859365,19.673828 2.031747,3.183082 4.250107,6.079783 6.246094,8.15625 2.542362,2.644284 4.56815,3.875 6.373047,3.875 1.804991,0 3.829009,-1.230625 6.371093,-3.875 1.995894,-2.076376 4.214348,-4.973077 6.246094,-8.15625 C 38.397835,32.8348 44.204101,23.175924 44.204101,15.949219 44.204193,10.57934 42.037899,6.3352307 37.936523,3.6777348 34.523359,1.4660811 29.834346,0.3457035 24.000976,0.3457035 Z"
     style="fill:#447821;stroke-width:0.0924025" /><path
     id="path848-3"
     d="m 23.862305,6.3515631 c 9.830033,0 17.777343,5.3973869 17.777343,12.0742179 0,6.392711 -6.484091,13.77949 -16.732422,17.046875 v -4.970703 h -1.044922 c -9.830031,0 -17.779296,-5.399341 -17.779296,-12.076172 0,-6.676831 7.949265,-12.0742179 17.779297,-12.0742179 z"
     style="fill:#000000;stroke-width:0.0924025;opacity:0.5"
     inkscape:connector-curvature="0" /><path
     id="path848"
     d="m 23.862304,2.3515629 c 9.830033,0 17.777343,5.397387 17.777343,12.0742181 0,6.392711 -6.48409,13.77949 -16.732421,17.046875 v -4.970703 h -1.044922 c -9.830032,0 -17.7792965,-5.399341 -17.7792965,-12.076172 0,-6.676831 7.9492645,-12.0742181 17.7792965,-12.0742181 z"
     style="fill:#ffffff;stroke-width:0.0924025" /><path
     inkscape:connector-curvature="0"
     id="path875"
     d="m 29.15625,29.546875 c 0.874947,-0.427125 1.895448,-0.731699 2.689453,-1.216797 2.049055,-1.251873 3.820452,-2.681881 5.271485,-4.208984 1.302773,-1.371072 2.252113,-2.833984 3.007812,-4.304688 L 31.181641,10.875 25.970703,14.029297 22.814453,10.875 l -6.273437,4.261719 2.419922,2.419922 -1.375,0.421875 z"
     style="fill:url(#linearGradient909);fill-opacity:1;stroke:none;stroke-width:1px;stroke-linecap:butt;stroke-linejoin:miter;stroke-opacity:1;opacity:0.4" /><path
     id="path846"
     d="m 16.541991,10.875 v 4.261718 h 3.136719 l -2.091797,2.841797 h 3.136719 l 2.091797,-2.841796 v -4.261718 z"
     style="fill:#483737;stroke-width:0.0924025" /><path
     id="path2"
     d="m 24.907226,10.875 v 4.261718 h 3.136718 l -2.091797,2.841797 h 3.138672 l 2.091797,-2.841796 v -4.261718 z"
     style="fill:#483737;stroke-width:0.0924025" /><path
     inkscape:connector-curvature="0"
     id="path879"
     d="m 3.9248037,14.736328 c -0.02737,0.413032 -0.128906,0.785353 -0.128906,1.21289 0,7.226706 5.808219,16.885489 7.5878893,19.673828 2.031748,3.183082 4.248156,6.079783 6.244142,8.15625 2.542362,2.644284 4.568149,3.875 6.373047,3.875 1.804991,0 3.829008,-1.230626 6.371093,-3.875 1.995895,-2.076377 4.214348,-4.973078 6.246094,-8.15625 C 38.397834,32.8348 44.2041,23.175923 44.2041,15.949218 c 7e-6,-0.427554 -0.101563,-0.799842 -0.128906,-1.21289 -0.08351,1.592146 -0.311141,3.248004 -0.804688,4.94336 -0.572145,1.965341 -1.354393,3.938189 -2.191406,5.771483 -1.674026,3.666588 -3.571102,6.777752 -4.460937,8.171875 -2.031746,3.183172 -4.2502,6.079873 -6.246094,8.15625 -1.271043,1.322187 -2.411549,2.291484 -3.460938,2.929687 -1.049388,0.638205 -2.00766,0.945313 -2.910156,0.945313 -0.902449,0 -1.858349,-0.307097 -2.908203,-0.945313 -1.049854,-0.638214 -2.193663,-1.607545 -3.464844,-2.929687 -1.995986,-2.076467 -4.212393,-4.973168 -6.244141,-8.15625 -0.889835,-1.39417 -2.7869113,-4.505299 -4.4609363,-8.171875 -0.837013,-1.833288 -1.619261,-3.806149 -2.191406,-5.771483 -0.493552,-1.695364 -0.723139,-3.351202 -0.806641,-4.94336 z"
     style="opacity:0.5;fill:#000000;stroke-width:0.0924025" /></g></svg>