<?xml version="1.0" encoding="UTF-8" standalone="no"?>
<!-- Generator: Adobe Illustrator 19.0.0, SVG Export Plug-In . SVG Version: 6.00 Build 0)  -->

<svg
   xmlns:dc="http://purl.org/dc/elements/1.1/"
   xmlns:cc="http://creativecommons.org/ns#"
   xmlns:rdf="http://www.w3.org/1999/02/22-rdf-syntax-ns#"
   xmlns:svg="http://www.w3.org/2000/svg"
   xmlns="http://www.w3.org/2000/svg"
   xmlns:xlink="http://www.w3.org/1999/xlink"
   xmlns:sodipodi="http://sodipodi.sourceforge.net/DTD/sodipodi-0.dtd"
   xmlns:inkscape="http://www.inkscape.org/namespaces/inkscape"
   version="1.1"
   id="Capa_1"
   x="0px"
   y="0px"
   viewBox="0 0 48 48"
   xml:space="preserve"
   sodipodi:docname="image-viewer.svg"
   width="48"
   height="48"
   inkscape:version="0.92.3 (2405546, 2018-03-11)"><metadata
   id="metadata41"><rdf:RDF><cc:Work
       rdf:about=""><dc:format>image/svg+xml</dc:format><dc:type
         rdf:resource="http://purl.org/dc/dcmitype/StillImage" /><dc:title /></cc:Work></rdf:RDF></metadata><defs
   id="defs39"><linearGradient
     inkscape:collect="always"
     id="linearGradient1010"><stop
       style="stop-color:#000000;stop-opacity:1;"
       offset="0"
       id="stop1006" /><stop
       style="stop-color:#000000;stop-opacity:0;"
       offset="1"
       id="stop1008" /></linearGradient><linearGradient
     inkscape:collect="always"
     id="linearGradient873"><stop
       style="stop-color:#ececec;stop-opacity:1"
       offset="0"
       id="stop869" /><stop
       id="stop877"
       offset="0.51366955"
       style="stop-color:#ffffff;stop-opacity:1" /><stop
       style="stop-color:#e6e6e6;stop-opacity:1"
       offset="1"
       id="stop871" /></linearGradient><linearGradient
     inkscape:collect="always"
     xlink:href="#linearGradient873"
     id="linearGradient875"
     x1="16.107996"
     y1="21.001047"
     x2="32.571322"
     y2="21.001047"
     gradientUnits="userSpaceOnUse" /><linearGradient
     inkscape:collect="always"
     xlink:href="#linearGradient1010"
     id="linearGradient1032"
     gradientUnits="userSpaceOnUse"
     x1="10.258823"
     y1="24.673302"
     x2="40.387974"
     y2="44.908596" /></defs><sodipodi:namedview
   pagecolor="#ffffff"
   bordercolor="#666666"
   borderopacity="1"
   objecttolerance="10"
   gridtolerance="10"
   guidetolerance="10"
   inkscape:pageopacity="0"
   inkscape:pageshadow="2"
   inkscape:window-width="1366"
   inkscape:window-height="719"
   id="namedview37"
   showgrid="false"
   showguides="true"
   inkscape:guide-bbox="true"
   inkscape:zoom="3.7565048"
   inkscape:cx="24"
   inkscape:cy="24"
   inkscape:window-x="0"
   inkscape:window-y="25"
   inkscape:window-maximized="1"
   inkscape:current-layer="Capa_1"
   inkscape:snap-global="true"
   inkscape:snap-smooth-nodes="true" />


<g
   id="g6"
   transform="translate(0,-464)">
</g>
<g
   id="g8"
   transform="translate(0,-464)">
</g>
<g
   id="g10"
   transform="translate(0,-464)">
</g>
<g
   id="g12"
   transform="translate(0,-464)">
</g>
<g
   id="g14"
   transform="translate(0,-464)">
</g>
<g
   id="g16"
   transform="translate(0,-464)">
</g>
<g
   id="g18"
   transform="translate(0,-464)">
</g>
<g
   id="g20"
   transform="translate(0,-464)">
</g>
<g
   id="g22"
   transform="translate(0,-464)">
</g>
<g
   id="g24"
   transform="translate(0,-464)">
</g>
<g
   id="g26"
   transform="translate(0,-464)">
</g>
<g
   id="g28"
   transform="translate(0,-464)">
</g>
<g
   id="g30"
   transform="translate(0,-464)">
</g>
<g
   id="g32"
   transform="translate(0,-464)">
</g>
<g
   id="g34"
   transform="translate(0,-464)">
</g>
<g
   id="g872"><path
     id="path868"
     d="m 24.000976,0.3457035 c -5.833461,0 -10.522198,1.1203776 -13.935546,3.3320313 -4.1011933,2.6574037 -6.2695315,6.9015122 -6.2695315,12.2714832 0,7.226706 5.8062658,16.88549 7.5859375,19.673828 2.031747,3.183082 4.250107,6.079783 6.246093,8.15625 2.542362,2.644284 4.56815,3.875 6.373047,3.875 1.804991,0 3.829009,-1.230625 6.371093,-3.875 1.995894,-2.076376 4.214349,-4.973077 6.246094,-8.15625 C 38.397835,32.8348 44.204101,23.175924 44.204101,15.949219 44.204193,10.57934 42.037899,6.3352307 37.936523,3.6777348 34.523359,1.4660811 29.834346,0.3457035 24.000976,0.3457035 Z"
     style="fill:#ff2a2a;stroke-width:0.0924025"
     inkscape:connector-curvature="0" /><path
     inkscape:connector-curvature="0"
     id="path1004"
     d="m 26.296875,46.908203 c 0.213438,-0.105395 0.392,-0.06464 0.613281,-0.199219 1.049389,-0.638203 2.189895,-1.6075 3.460938,-2.929687 1.995894,-2.076377 4.214348,-4.973078 6.246094,-8.15625 0.889835,-1.394123 2.786912,-4.505287 4.460932,-8.171875 0.83702,-1.833294 1.61927,-3.806143 2.19141,-5.771484 0.13612,-0.467586 0.11229,-0.898407 0.22266,-1.363282 L 32.193359,9.0175781 l -1.134765,6.5117189 2.917968,7.152344 -2.917968,3.294921 -9.128906,5.552735 -0.564454,10.447265 z"
     style="opacity:0.7;fill:url(#linearGradient1032);fill-opacity:1;stroke:none;stroke-width:1px;stroke-linecap:butt;stroke-linejoin:miter;stroke-opacity:1" /><path
     inkscape:connector-curvature="0"
     id="path4588"
     d="m 24.000977,0.3457035 c -5.833461,0 -10.522199,1.1203783 -13.935547,3.3320313 -4.101193,2.657404 -6.269532,6.9015122 -6.269532,12.2714832 0,7.226706 5.806266,16.88549 7.585938,19.673828 2.031747,3.183082 4.250107,6.079783 6.246094,8.15625 2.542362,2.644284 4.56815,3.875 6.373047,3.875 1.804991,0 3.829009,-1.230625 6.371093,-3.875 1.995894,-2.076376 4.214348,-4.973077 6.246094,-8.15625 C 38.397835,32.8348 44.204102,23.175924 44.204102,15.94922 44.204194,10.57934 42.037898,6.3352309 37.936524,3.6777348 34.52336,1.4660818 29.834346,0.3457035 24.000977,0.3457035 Z m 0,0.14453126 c 2.112445,0.084873 4.119293,0.27168527 5.875,0.69140624 1.164035,0.2782756 2.252954,0.6269196 3.263671,1.0429688 1.010718,0.4160492 1.943585,0.9002116 2.796876,1.453125 1.025343,0.6643739 1.929139,1.4277032 2.708984,2.2832031 0.779844,0.8554999 1.435774,1.803713 1.96289,2.8359375 0.527119,1.0322245 0.926199,2.1492026 1.19336,3.3437496 0.267161,1.194547 0.402367,2.466124 0.402344,3.808593 0,1.806677 -0.363402,3.765127 -0.935547,5.730469 -0.572145,1.965342 -1.352441,3.93819 -2.189453,5.771484 -1.674026,3.66659 -3.571102,6.777752 -4.460938,8.171875 -2.031746,3.183173 -4.2502,6.079876 -6.246094,8.15625 -1.271042,1.322188 -2.413501,2.291486 -3.46289,2.929688 -0.319034,0.194026 -0.618451,0.306539 -0.910156,0.390625 -0.291517,-0.08404 -0.58956,-0.196919 -0.908204,-0.390625 -1.049854,-0.638215 -2.191709,-1.607546 -3.46289,-2.929688 -1.995987,-2.076467 -4.214347,-4.973168 -6.246094,-8.15625 C 12.492,34.228877 10.594924,31.117748 8.920898,27.451171 8.083886,25.617883 7.30359,23.645021 6.731445,21.679687 6.159301,19.714353 5.795899,17.755895 5.795898,15.949218 c 0,-1.342492 0.134981,-2.614034 0.402344,-3.808593 C 6.465605,10.946066 6.866188,9.8291 7.393555,8.7968754 7.920922,7.7646508 8.576433,6.8164264 9.356445,5.9609379 10.136457,5.1054494 11.040132,4.3420858 12.06543,3.6777348 c 0.853337,-0.5529133 1.786156,-1.0370759 2.796875,-1.453125 1.010719,-0.4160492 2.099654,-0.7646932 3.263672,-1.0429688 1.755679,-0.41972098 3.762539,-0.60653321 5.875,-0.69140624 z"
     style="opacity:0.2;fill:#000000;stroke-width:0.0924025" /><path
     id="path839"
     d="m 24.339657,15.85533 c 0.403877,0 0.809426,0.02307 1.210598,0.06988 3.023497,0.298297 5.770878,2.319092 7.021065,5.076707 -0.45552,1.007971 -1.130996,1.9099 -1.919694,2.682227 -0.501207,0.469556 -1.166343,0.936067 -1.720325,1.296924 -1.743369,0.981344 -3.81697,1.3241 -5.800189,1.099611 -3.023394,-0.298501 -5.773035,-2.321045 -7.023118,-5.078762 0.45552,-1.008072 1.131006,-1.907855 1.919694,-2.680172 0.501207,-0.469555 1.166322,-0.936068 1.720324,-1.296924 1.38992,-0.787731 2.995934,-1.151894 4.591645,-1.167437 z"
     style="fill:#ff2a2a;stroke-width:0.09723862"
     inkscape:connector-curvature="0" /><path
     id="path837"
     d="m 24.339657,17.914787 c -1.324787,-0.01564 -2.565449,0.909346 -2.945311,2.174556 -0.594739,1.718674 0.674358,3.748307 2.482857,3.960654 1.790597,0.339556 3.602558,-1.230112 3.549584,-3.048079 0.03118,-1.644896 -1.43359,-3.123763 -3.08713,-3.087131 z"
     style="fill:#ff2a2a;stroke-width:0.09723862"
     inkscape:connector-curvature="0" /><path
     id="path2"
     d="m 24.339657,19.972189 v 0.0021 a 1.0289605,1.0291663 0 0 1 1.029728,1.027674 1.0289605,1.0291663 0 0 1 -1.029728,1.029729 1.0289605,1.0291663 0 0 1 -1.027674,-1.029729 1.0289605,1.0291663 0 0 1 1.027674,-1.029729 z"
     style="fill:#ff2a2a;stroke-width:0.09723862"
     inkscape:connector-curvature="0" /><path
     id="path867"
     d="m 24.267719,1.8933591 c -0.260152,0.00428 -0.491139,0.1316544 -0.692652,0.4234014 -0.806054,1.1669882 -1.139881,4.9473224 -2.112895,6.3654094 -0.973014,1.4180871 -2.583073,0.4731951 -4.139468,0.361741 -1.556397,-0.1114531 -3.058263,0.6121016 -3.475592,1.6689411 -0.41733,1.056838 0.249808,2.444722 0,3.695514 -0.249807,1.250792 -1.417288,2.363503 -1.751155,3.253614 -0.333867,0.89011 0.165862,1.556936 0.499449,2.863097 0.333587,1.306161 0.500695,3.252193 1.362695,5.337735 0.862,2.085544 2.417119,4.307511 3.52903,6.920353 1.111912,2.61284 1.77913,5.614474 2.64112,7.477351 0.861992,1.862878 1.919085,2.585707 2.308155,0.889965 0.389069,-1.695741 0.110626,-5.809459 0.388459,-6.949126 0.277835,-1.139666 1.111276,0.694311 1.80665,1.138662 0.695375,0.444351 1.252142,-0.500329 1.724436,-1.389415 0.472293,-0.889086 0.861015,-1.723359 1.305146,-1.362694 0.44413,0.360662 0.945399,1.917761 1.835424,1.138662 0.890025,-0.7791 2.168158,-3.890595 3.391323,-5.863905 1.223163,-1.97331 2.390994,-2.808345 2.863098,-3.808558 C 36.223044,23.053896 36.000268,21.8873 35.555684,20.720335 35.111099,19.55337 34.444702,18.384388 33.888797,17.244744 33.332892,16.105099 32.887821,14.993469 32.832349,13.631445 32.77688,12.269419 33.109831,10.656192 32.193136,9.017191 31.276441,7.3781911 29.107186,5.7089549 27.383625,4.1521851 26.090955,2.9846078 25.048173,1.8805231 24.267719,1.8933591 Z"
     style="fill:#333333;fill-opacity:1;stroke:none;stroke-width:0.8478204px;stroke-linecap:butt;stroke-linejoin:miter;stroke-opacity:1"
     inkscape:connector-curvature="0" /><path
     inkscape:connector-curvature="0"
     id="path865-6"
     d="m 24.339659,16.923613 c 0.403877,0 0.809426,0.02307 1.210598,0.06988 3.023497,0.298297 5.770878,2.319092 7.021065,5.076707 -0.45552,1.007971 -1.130995,1.9099 -1.919693,2.682227 -0.501208,0.469556 -1.166344,0.936067 -1.720326,1.296924 -1.743369,0.98134 -3.81697,1.324096 -5.800189,1.099607 -3.023394,-0.298501 -5.773035,-2.321045 -7.023118,-5.078762 0.45552,-1.008072 1.131006,-1.907855 1.919694,-2.680172 0.501207,-0.469555 1.166322,-0.936068 1.720324,-1.296924 1.38992,-0.787732 2.995934,-1.151894 4.591645,-1.167437 z"
     style="opacity:0.43999999;fill:#000000;fill-opacity:1;stroke:none;stroke-width:0.8478204px;stroke-linecap:butt;stroke-linejoin:miter;stroke-opacity:1" /><path
     inkscape:connector-curvature="0"
     id="path865"
     d="m 24.339659,15.85533 c 0.403877,0 0.809426,0.02307 1.210598,0.06988 3.023497,0.298297 5.770878,2.319092 7.021065,5.076707 -0.45552,1.007971 -1.130995,1.9099 -1.919693,2.682227 -0.501208,0.469556 -1.166344,0.936067 -1.720326,1.296924 -1.743369,0.98134 -3.81697,1.324096 -5.800189,1.099607 -3.023394,-0.298501 -5.773035,-2.321045 -7.023118,-5.078762 0.45552,-1.008072 1.131006,-1.907855 1.919694,-2.680172 0.501207,-0.469555 1.166322,-0.936068 1.720324,-1.296924 1.38992,-0.787732 2.995934,-1.151894 4.591645,-1.167437 z"
     style="fill:url(#linearGradient875);fill-opacity:1;stroke:none;stroke-width:0.8478204px;stroke-linecap:butt;stroke-linejoin:miter;stroke-opacity:1" /><path
     id="path863"
     d="m 24.339659,17.914787 c -1.324787,-0.01564 -2.565449,0.909346 -2.945311,2.174556 -0.594739,1.718674 0.674358,3.748307 2.482857,3.960654 1.790596,0.339556 3.602558,-1.230112 3.549584,-3.048079 0.03118,-1.644896 -1.43359,-3.123763 -3.08713,-3.087131 z"
     style="fill:#1a1a1a;fill-opacity:1;stroke:none;stroke-width:0.8478204px;stroke-linecap:butt;stroke-linejoin:miter;stroke-opacity:1"
     inkscape:connector-curvature="0" /><path
     id="path834"
     d="m 24.339659,19.972189 v 0.0021 a 1.0289605,1.0291663 0 0 1 1.029728,1.027674 1.0289605,1.0291663 0 0 1 -1.029728,1.029729 1.0289605,1.0291663 0 0 1 -1.027674,-1.029729 1.0289605,1.0291663 0 0 1 1.027674,-1.029729 z"
     style="fill:#ffffff;fill-opacity:1;stroke:none;stroke-width:0.8478204px;stroke-linecap:butt;stroke-linejoin:miter;stroke-opacity:1"
     inkscape:connector-curvature="0" /><path
     inkscape:connector-curvature="0"
     id="path865-7"
     d="m 24.339844,15.853516 v 0.002 c -1.595711,0.01554 -3.201877,0.380236 -4.591797,1.167969 -0.554002,0.360855 -1.219496,0.82732 -1.720703,1.296874 C 17.238656,19.09263 16.562942,19.991928 16.107422,21 c 0.45552,1.008072 1.131234,1.90737 1.919922,2.679688 0.501207,0.469554 1.166701,0.936019 1.720703,1.296874 1.38992,0.787733 2.996086,1.152429 4.591797,1.167969 v 0.002 c 0.403877,1e-6 0.809765,-0.0235 1.210937,-0.07031 3.023497,-0.298297 5.771298,-2.318557 7.021485,-5.076172 -1.250187,-2.757615 -3.997988,-4.777875 -7.021485,-5.076172 -0.401172,-0.04681 -0.80706,-0.07031 -1.210937,-0.07031 z m 0,1.068359 c 0.403877,0 0.809765,0.0235 1.210937,0.07031 0.755875,0.07457 1.493032,0.256764 2.195313,0.53125 0.70228,0.274484 1.369942,0.64039 1.980468,1.083984 0.610529,0.443594 1.163915,0.964975 1.644532,1.546875 0.216002,0.261522 0.391899,0.551041 0.560547,0.845703 -0.168648,0.294662 -0.344545,0.584181 -0.560547,0.845703 -0.480617,0.5819 -1.034003,1.103281 -1.644532,1.546875 -0.610526,0.443594 -1.278188,0.8095 -1.980468,1.083984 -0.702281,0.274486 -1.439438,0.45668 -2.195313,0.53125 -0.401172,0.04681 -0.80706,0.07031 -1.210937,0.07031 v -0.002 C 23.541988,25.068319 22.741504,24.9746 21.966797,24.78315 21.19209,24.5917 20.443007,24.302016 19.748047,23.90815 19.194045,23.547294 18.528551,23.08083 18.027344,22.611275 17.544351,22.138361 17.163372,21.578891 16.8125,21 c 0.350872,-0.578891 0.731851,-1.138361 1.214844,-1.611328 0.501207,-0.469555 1.166701,-0.936019 1.720703,-1.296875 0.69496,-0.393866 1.444043,-0.68355 2.21875,-0.875 0.774707,-0.19145 1.575191,-0.285197 2.373047,-0.292969 z"
     style="opacity:0.23999999;fill:#666666;fill-opacity:1;stroke:none;stroke-width:0.8478204px;stroke-linecap:butt;stroke-linejoin:miter;stroke-opacity:1" /></g></svg>