<svg xmlns="http://www.w3.org/2000/svg" xmlns:xlink="http://www.w3.org/1999/xlink" width="48" height="48"><defs><linearGradient id="b"><stop offset="0" stop-color="#00000a"/><stop offset="1" stop-color="#050000" stop-opacity="0"/></linearGradient><linearGradient id="a"><stop offset="0" stop-color="#fff"/><stop offset="1" stop-color="#d3eefc"/></linearGradient><linearGradient xlink:href="#b" id="c" gradientUnits="userSpaceOnUse" x1="-.6" y1="2.08" x2="49.41" y2="42.52"/></defs><path d="M24 .35c-5.83 0-10.52 1.12-13.93 3.33-4.1 2.66-6.27 6.9-6.27 12.27 0 7.23 5.8 16.88 7.58 19.67a54.48 54.48 0 0 0 6.25 8.16c2.54 2.64 4.57 3.87 6.37 3.87 1.8 0 3.83-1.23 6.37-3.87 2-2.08 4.22-4.97 6.25-8.16 1.78-2.79 7.58-12.44 7.58-19.67 0-5.37-2.16-9.61-6.26-12.27C34.52 1.47 29.84.35 24 .35z" fill="#3771c8"/><path d="M28.81 45.1c.53-.46.99-.73 1.56-1.32 2-2.08 4.22-4.97 6.25-8.16.89-1.4 2.78-4.5 4.46-8.17a43.2 43.2 0 0 0 2.19-5.77c.25-.85.25-1.64.4-2.48l-7.62-7.62-1.46 1.83-5.6-5.6-3.95 1.04-13.75 1.13 3.53 3.53-3.53.47 3.23 3.22-3.23.78 9.89 9.88-4.27 5.33z" opacity=".6" fill="url(#c)"/><path d="M34.6 10.8c.35 0 .7.14.96.4l3.14 3.14c.52.52.52 1.38 0 1.9l-2.46 2.46-5.04-5.04 2.46-2.46c.26-.26.6-.4.95-.4z" fill="#999"/><rect ry=".42" y="15.81" x="11.29" height="2.16" width="17.69" fill="#1a1a1a"/><path d="M31.78 13.08l5.04 5.04L21.95 33l-5.04-5.04z" fill="#999"/><path d="M16.91 28.15l5.04 5.04h-5.04z" fill="#f95"/><path d="M16.91 33.2l1.38-.02-1.36-1.5z" fill="#191918"/><rect ry=".42" y="7.81" x="11.29" height="2.16" width="17.69" fill="#1a1a1a"/><rect ry=".42" y="11.81" x="11.29" height="2.16" width="17.69" fill="#1a1a1a"/><path d="M3.92 14.74c-.02.4-.12.78-.12 1.2 0 7.24 5.8 16.9 7.58 19.68a54.48 54.48 0 0 0 6.25 8.16c2.54 2.64 4.57 3.87 6.37 3.87 1.8 0 3.83-1.23 6.37-3.87 2-2.08 4.22-4.97 6.25-8.16 1.78-2.79 7.58-12.44 7.58-19.67 0-.43-.1-.8-.12-1.21a21.6 21.6 0 0 1-.81 4.94 43.2 43.2 0 0 1-2.2 5.77 69.59 69.59 0 0 1-4.45 8.17 54.47 54.47 0 0 1-6.25 8.16 17.98 17.98 0 0 1-3.46 2.93c-1.05.64-2 .94-2.9.94-.91 0-1.87-.3-2.92-.94-1.05-.64-2.2-1.6-3.46-2.93-2-2.08-4.21-4.97-6.25-8.16a69.6 69.6 0 0 1-4.46-8.17 43.2 43.2 0 0 1-2.19-5.77 21.6 21.6 0 0 1-.8-4.94z" opacity=".5"/></svg>