<svg xmlns="http://www.w3.org/2000/svg" xmlns:xlink="http://www.w3.org/1999/xlink" width="48" height="48" viewBox="0 0 12.7 12.7"><defs><linearGradient id="a"><stop offset="0" stop-color="#1a1a1a"/><stop offset="1" stop-color="#1a1a1a" stop-opacity="0"/></linearGradient><linearGradient xlink:href="#a" id="b" gradientUnits="userSpaceOnUse" x1="1.24" y1="285.09" x2="11.68" y2="294.23"/></defs><g transform="translate(0 -284.3)"><path d="M6.35 284.4c-1.54 0-2.78.29-3.69.87A3.67 3.67 0 0 0 1 288.52c0 1.91 1.54 4.47 2.01 5.2.54.85 1.13 1.61 1.65 2.16.68.7 1.21 1.03 1.69 1.03s1.01-.33 1.69-1.03c.52-.55 1.11-1.31 1.65-2.15.47-.74 2-3.3 2-5.21 0-1.42-.57-2.54-1.65-3.25a6.75 6.75 0 0 0-3.69-.88z" fill="#d3bc5f"/><path d="M7.25 296.55c.24-.17.5-.37.79-.67.52-.55 1.11-1.31 1.65-2.15.23-.37.74-1.2 1.18-2.17.22-.48.43-1 .58-1.52.15-.52.25-1.04.25-1.52 0-.13-.03-.24-.04-.36l-1.46-1.46-.39.64-.97.1-1.9-1.9-.49.65.05 3.26-.62.7-.68.67-1 .6-.4-.39-1.02 1.06z" fill="url(#b)" opacity=".5"/><g opacity=".7"><g transform="translate(10.76 .16)" fill="#1a1a1a"><path d="M-4.23 286.3h.25v8.64h-.25z"/><ellipse ry=".66" rx=".64" cy="294.75" cx="-4.11"/><ellipse ry=".66" rx=".64" cy="286.02" cx="-4.11"/><path d="M-4.49 289.46c0 .22.17.4.38.4a.4.4 0 0 0 .39-.4.4.4 0 0 0-.39-.4.4.4 0 0 0-.38.4zM-7.8 291.03h1.03v1.06H-7.8zM-1.41 286.7h1.03v1.06h-1.03z"/></g><path d="M3.06 291.74c3.47.13 3.72-4.37 6.93-4.24" fill="none" stroke="#1a1a1a" stroke-width=".26"/></g><path d="M1.04 288.2c0 .1-.04.2-.04.32 0 1.91 1.54 4.47 2.01 5.2.54.85 1.13 1.61 1.65 2.16.68.7 1.21 1.03 1.69 1.03s1.01-.33 1.69-1.03c.52-.55 1.11-1.31 1.65-2.15.47-.74 2-3.3 2-5.21 0-.11-.02-.21-.03-.32-.02.42-.08.86-.21 1.3-.15.53-.36 1.05-.58 1.53-.44.97-.95 1.8-1.18 2.17-.54.84-1.13 1.6-1.65 2.15-.34.35-.64.61-.92.78-.28.17-.53.25-.77.25s-.5-.08-.77-.25a4.76 4.76 0 0 1-.92-.78 14.41 14.41 0 0 1-1.65-2.15c-.23-.37-.74-1.2-1.18-2.17-.22-.48-.43-1-.58-1.52-.13-.45-.19-.89-.21-1.31z" opacity=".5"/><path d="M2.89 291.58c3.46.13 3.72-4.37 6.92-4.24" fill="none" stroke="#b3b3b3" stroke-width=".26"/><path d="M6.36 286.3h.24v8.64h-.24z" fill="#f9f9f9"/><ellipse ry=".66" rx=".64" cy="294.75" cx="6.48" fill="teal"/><ellipse ry=".66" rx=".64" cy="286.02" cx="6.48" fill="teal"/><path d="M6.1 289.46c0 .22.17.4.38.4a.4.4 0 0 0 .38-.4.4.4 0 0 0-.38-.4.4.4 0 0 0-.39.4z" fill="#c83737"/><path fill="#6c5d53" d="M2.78 291.03h1.03v1.06H2.78z"/><path fill="#917c6f" d="M9.17 286.7h1.03v1.06H9.17z"/></g></svg>