<?xml version="1.0" encoding="UTF-8" standalone="no"?>
<!-- Generator: Adobe Illustrator 19.0.0, SVG Export Plug-In . SVG Version: 6.00 Build 0)  -->

<svg
   xmlns:dc="http://purl.org/dc/elements/1.1/"
   xmlns:cc="http://creativecommons.org/ns#"
   xmlns:rdf="http://www.w3.org/1999/02/22-rdf-syntax-ns#"
   xmlns:svg="http://www.w3.org/2000/svg"
   xmlns="http://www.w3.org/2000/svg"
   xmlns:xlink="http://www.w3.org/1999/xlink"
   xmlns:sodipodi="http://sodipodi.sourceforge.net/DTD/sodipodi-0.dtd"
   xmlns:inkscape="http://www.inkscape.org/namespaces/inkscape"
   version="1.1"
   id="Capa_1"
   x="0px"
   y="0px"
   viewBox="0 0 48 48"
   xml:space="preserve"
   sodipodi:docname="linssid48.svg"
   width="48"
   height="48"
   inkscape:version="0.92.3 (2405546, 2018-03-11)"><metadata
   id="metadata41"><rdf:RDF><cc:Work
       rdf:about=""><dc:format>image/svg+xml</dc:format><dc:type
         rdf:resource="http://purl.org/dc/dcmitype/StillImage" /><dc:title /></cc:Work></rdf:RDF></metadata><defs
   id="defs39"><linearGradient
     inkscape:collect="always"
     id="linearGradient845"><stop
       style="stop-color:#000000;stop-opacity:1;"
       offset="0"
       id="stop841" /><stop
       style="stop-color:#000000;stop-opacity:0;"
       offset="1"
       id="stop843" /></linearGradient><linearGradient
     inkscape:collect="always"
     xlink:href="#linearGradient845"
     id="linearGradient847"
     x1="9.9075937"
     y1="3.9169176"
     x2="43.696449"
     y2="36.293388"
     gradientUnits="userSpaceOnUse" /></defs><sodipodi:namedview
   pagecolor="#ffffff"
   bordercolor="#666666"
   borderopacity="1"
   objecttolerance="10"
   gridtolerance="10"
   guidetolerance="10"
   inkscape:pageopacity="0"
   inkscape:pageshadow="2"
   inkscape:window-width="1366"
   inkscape:window-height="719"
   id="namedview37"
   showgrid="false"
   showguides="true"
   inkscape:guide-bbox="true"
   inkscape:zoom="7.5130096"
   inkscape:cx="24"
   inkscape:cy="24"
   inkscape:window-x="0"
   inkscape:window-y="25"
   inkscape:window-maximized="1"
   inkscape:current-layer="Capa_1"
   inkscape:snap-smooth-nodes="true" />


<g
   id="g6"
   transform="translate(0,-464)">
</g>
<g
   id="g8"
   transform="translate(0,-464)">
</g>
<g
   id="g10"
   transform="translate(0,-464)">
</g>
<g
   id="g12"
   transform="translate(0,-464)">
</g>
<g
   id="g14"
   transform="translate(0,-464)">
</g>
<g
   id="g16"
   transform="translate(0,-464)">
</g>
<g
   id="g18"
   transform="translate(0,-464)">
</g>
<g
   id="g20"
   transform="translate(0,-464)">
</g>
<g
   id="g22"
   transform="translate(0,-464)">
</g>
<g
   id="g24"
   transform="translate(0,-464)">
</g>
<g
   id="g26"
   transform="translate(0,-464)">
</g>
<g
   id="g28"
   transform="translate(0,-464)">
</g>
<g
   id="g30"
   transform="translate(0,-464)">
</g>
<g
   id="g32"
   transform="translate(0,-464)">
</g>
<g
   id="g34"
   transform="translate(0,-464)">
</g>
<g
   id="g863"><path
     id="path859"
     d="m 23.712891,0.49414062 c -5.833461,0 -10.522199,1.12037758 -13.9355472,3.33203128 -4.1011931,2.6574037 -6.2695313,6.9015131 -6.2695313,12.2714841 0,7.226706 5.8062658,16.88549 7.5859375,19.673828 2.031747,3.183081 4.250107,6.079782 6.246094,8.15625 2.542362,2.644283 4.56815,3.875 6.373047,3.875 1.804991,0 3.829009,-1.230625 6.371093,-3.875 1.995894,-2.076376 4.214348,-4.973077 6.246094,-8.15625 C 38.10975,32.983238 43.916016,23.324362 43.916016,16.097656 43.916108,10.727777 41.749814,6.4836678 37.648438,3.8261719 34.235274,1.6145182 29.546261,0.49414062 23.712891,0.49414062 Z"
     style="fill:#c83737;stroke-width:0.0924025"
     inkscape:connector-curvature="0" /><path
     inkscape:connector-curvature="0"
     id="path839"
     d="m 27.660156,45.978516 c 0.775593,-0.587002 1.534141,-1.125294 2.423828,-2.050782 1.995894,-2.076376 4.214349,-4.973077 6.246094,-8.15625 0.889836,-1.394123 2.786912,-4.505287 4.460938,-8.171875 0.837012,-1.833294 1.617308,-3.806142 2.189453,-5.771484 0.389804,-1.338994 0.489761,-2.617449 0.636719,-3.904297 L 35.669922,9.9765625 29.6875,9.1914062 l 8.042969,8.0429688 -0.271485,2.90625 -6.30664,-6.304687 -4.126953,0.679687 4.783203,4.783203 -0.470703,2.34961 -15.117188,-15.117188 -2.949219,3.822266 -4.423828,8 3.763672,12.517578 9.517578,9.699218 z"
     style="opacity:0.75;fill:url(#linearGradient847);fill-opacity:1;stroke:none;stroke-width:1px;stroke-linecap:butt;stroke-linejoin:miter;stroke-opacity:1" /><path
     id="path857"
     d="M 31.023438,6.5195312 29.6875,9.1914062 a 11.917027,11.917027 0 0 1 6.59375,10.6484378 11.917027,11.917027 0 0 1 -6.589844,10.654297 l 1.326172,2.652343 A 14.896283,14.896283 0 0 0 39.259766,19.839844 14.896283,14.896283 0 0 0 31.023438,6.5195312 Z M 16.220703,6.53125 A 14.896283,14.896283 0 0 0 7.9785156,19.839844 14.896283,14.896283 0 0 0 16.214844,33.158203 l 1.333984,-2.669922 A 11.917027,11.917027 0 0 1 10.957031,19.839844 11.917027,11.917027 0 0 1 17.546875,9.1855469 Z m 12.136719,5.316406 -1.332031,2.667969 a 5.9585134,5.9585134 0 0 1 3.296875,5.324219 5.9585134,5.9585134 0 0 1 -3.292969,5.326172 l 1.326172,2.65625 a 8.93777,8.93777 0 0 0 4.945312,-7.982422 8.93777,8.93777 0 0 0 -4.943359,-7.992188 z m -9.47461,0.0078 a 8.93777,8.93777 0 0 0 -4.947265,7.984375 8.93777,8.93777 0 0 0 4.943359,7.992187 l 1.332032,-2.667969 a 5.9585134,5.9585134 0 0 1 -3.294922,-5.324218 5.9585134,5.9585134 0 0 1 3.292968,-5.328125 z m 4.736329,4.259765 a 3.7240708,3.7240708 0 0 0 -3.72461,3.72461 3.7240708,3.7240708 0 0 0 2.234375,3.410156 v 17.320312 a 14.896283,20.521403 0 0 0 1.490235,0.123047 14.896283,20.521403 0 0 0 1.490234,-0.101562 V 23.25 h -0.0059 a 3.7240708,3.7240708 0 0 0 2.240234,-3.410156 3.7240708,3.7240708 0 0 0 -3.724609,-3.72461 z"
     style="fill:#e6e6e6;stroke-width:0.0924025"
     inkscape:connector-curvature="0" /><path
     id="path918"
     d="m 23.09375,40.650392 a 14.896283,20.521403 0 0 0 0.525391,0.04297 14.896283,20.521403 0 0 0 1.490234,-0.101562 V 23.250001 h -0.0059 a 3.7240708,3.7240708 0 0 0 2.240234,-3.410156 3.7240708,3.7240708 0 0 0 -3.724609,-3.724611 3.7240708,3.7240708 0 0 0 -0.572266,0.04883 3.7240708,3.7240708 0 0 1 0.04883,0.0059 3.7240708,3.7240708 0 0 1 0.363282,0.08203 3.7240708,3.7240708 0 0 1 0.351562,0.117188 3.7240708,3.7240708 0 0 1 0.339844,0.152344 3.7240708,3.7240708 0 0 1 0.324218,0.183594 3.7240708,3.7240708 0 0 1 0.302735,0.216797 3.7240708,3.7240708 0 0 1 0.279297,0.246094 3.7240708,3.7240708 0 0 1 0.253906,0.273437 3.7240708,3.7240708 0 0 1 0.224609,0.294922 3.7240708,3.7240708 0 0 1 0.195313,0.31836 3.7240708,3.7240708 0 0 1 0.162109,0.333984 3.7240708,3.7240708 0 0 1 0.126953,0.351562 3.7240708,3.7240708 0 0 1 0.0918,0.359375 3.7240708,3.7240708 0 0 1 0.05469,0.369141 3.7240708,3.7240708 0 0 1 0.01953,0.371094 3.7240708,3.7240708 0 0 1 -0.0078,0.220703 3.7240708,3.7240708 0 0 1 -0.04102,0.371094 3.7240708,3.7240708 0 0 1 -0.07813,0.363281 3.7240708,3.7240708 0 0 1 -0.113281,0.355469 3.7240708,3.7240708 0 0 1 -0.148438,0.339843 3.7240708,3.7240708 0 0 1 -0.18164,0.326172 3.7240708,3.7240708 0 0 1 -0.214844,0.304688 3.7240708,3.7240708 0 0 1 -0.242188,0.28125 3.7240708,3.7240708 0 0 1 -0.269531,0.255859 3.7240708,3.7240708 0 0 1 -0.294922,0.228516 3.7240708,3.7240708 0 0 1 -0.314421,0.197224 3.7240708,3.7240708 0 0 1 -0.333984,0.166016 h 0.0059 v 17.341797 a 14.896283,20.521403 0 0 1 -0.0039,0 14.896283,20.521403 0 0 1 -0.853516,0.05859 z"
     style="opacity:0.25;fill:#000000;stroke-width:0.0924025"
     inkscape:connector-curvature="0" /><path
     id="path914"
     d="m 17.980469,27.312501 a 8.93777,8.93777 0 0 0 0.898437,0.519531 l 1.332032,-2.667969 a 5.9585134,5.9585134 0 0 1 -3.294922,-5.324218 5.9585134,5.9585134 0 0 1 3.292969,-5.328126 l -1.326172,-2.65625 a 8.93777,8.93777 0 0 0 -0.896485,0.521484 l 1.064453,2.134766 a 5.9585134,5.9585134 0 0 0 -0.03711,0.01758 5.9585134,5.9585134 0 0 0 -0.515625,0.296875 5.9585134,5.9585134 0 0 0 -0.484375,0.345703 5.9585134,5.9585134 0 0 0 -0.447266,0.394531 5.9585134,5.9585134 0 0 0 -0.40625,0.435547 5.9585134,5.9585134 0 0 0 -0.361328,0.472656 5.9585134,5.9585134 0 0 0 -0.310547,0.507814 5.9585134,5.9585134 0 0 0 -0.259765,0.537109 5.9585134,5.9585134 0 0 0 -0.205078,0.558594 5.9585134,5.9585134 0 0 0 -0.146485,0.578125 5.9585134,5.9585134 0 0 0 -0.08984,0.587891 5.9585134,5.9585134 0 0 0 -0.0293,0.595703 5.9585134,5.9585134 0 0 0 0,0.03711 5.9585134,5.9585134 0 0 0 0.03516,0.595703 5.9585134,5.9585134 0 0 0 0.0918,0.587891 5.9585134,5.9585134 0 0 0 0.152343,0.576172 5.9585134,5.9585134 0 0 0 0.208985,0.558593 5.9585134,5.9585134 0 0 0 0.261719,0.533204 5.9585134,5.9585134 0 0 0 0.316406,0.505859 5.9585134,5.9585134 0 0 0 0.363281,0.472656 5.9585134,5.9585134 0 0 0 0.408203,0.431641 5.9585134,5.9585134 0 0 0 0.451172,0.390625 5.9585134,5.9585134 0 0 0 0.486328,0.341797 5.9585134,5.9585134 0 0 0 0.519532,0.292968 z"
     style="opacity:0.25;fill:#000000;stroke-width:0.0924025"
     inkscape:connector-curvature="0" /><path
     id="path910"
     d="m 28.09375,27.298829 0.261719,0.523438 a 8.93777,8.93777 0 0 0 4.945312,-7.982422 8.93777,8.93777 0 0 0 -4.943359,-7.992189 l -0.259766,0.519532 a 8.93777,8.93777 0 0 1 0.660157,0.472656 8.93777,8.93777 0 0 1 0.671875,0.589844 8.93777,8.93777 0 0 1 0.609375,0.652343 8.93777,8.93777 0 0 1 0.541015,0.710938 8.93777,8.93777 0 0 1 0.466797,0.761719 8.93777,8.93777 0 0 1 0.388672,0.804687 8.93777,8.93777 0 0 1 0.306641,0.839845 8.93777,8.93777 0 0 1 0.220703,0.865234 8.93777,8.93777 0 0 1 0.134765,0.882813 8.93777,8.93777 0 0 1 0.04492,0.892578 8.93777,8.93777 0 0 1 0,0.05469 8.93777,8.93777 0 0 1 -0.05273,0.892578 8.93777,8.93777 0 0 1 -0.138672,0.882813 8.93777,8.93777 0 0 1 -0.228516,0.863281 8.93777,8.93777 0 0 1 -0.3125,0.835938 8.93777,8.93777 0 0 1 -0.394531,0.802734 8.93777,8.93777 0 0 1 -0.472656,0.757813 8.93777,8.93777 0 0 1 -0.546875,0.707031 8.93777,8.93777 0 0 1 -0.613281,0.648437 8.93777,8.93777 0 0 1 -0.675782,0.583985 8.93777,8.93777 0 0 1 -0.613281,0.429687 z"
     style="opacity:0.25;fill:#000000;stroke-width:0.0924025"
     inkscape:connector-curvature="0" /><path
     id="path906"
     d="m 15.3125,32.646485 a 14.896283,14.896283 0 0 0 0.902344,0.511719 l 1.333984,-2.669922 A 11.917027,11.917027 0 0 1 10.957031,19.839845 11.917027,11.917027 0 0 1 17.546875,9.1855474 L 16.220703,6.5312505 a 14.896283,14.896283 0 0 0 -0.904297,0.5097656 l 1.072266,2.1445313 a 11.917027,11.917027 0 0 0 -0.07227,0.037109 11.917027,11.917027 0 0 0 -1.035156,0.5917966 11.917027,11.917027 0 0 0 -0.96875,0.693359 11.917027,11.917027 0 0 0 -0.894531,0.785157 11.917027,11.917027 0 0 0 -0.8125,0.871093 11.917027,11.917027 0 0 0 -0.722656,0.947266 11.917027,11.917027 0 0 0 -0.623047,1.015625 11.917027,11.917027 0 0 0 -0.517578,1.072266 11.917027,11.917027 0 0 0 -0.410157,1.11914 11.917027,11.917027 0 0 0 -0.294922,1.154297 11.917027,11.917027 0 0 0 -0.177734,1.177735 11.917027,11.917027 0 0 0 -0.06055,1.189453 11.917027,11.917027 0 0 0 0,0.07813 11.917027,11.917027 0 0 0 0.06836,1.1875 11.917027,11.917027 0 0 0 0.1875,1.177734 11.917027,11.917027 0 0 0 0.302734,1.152344 11.917027,11.917027 0 0 0 0.417969,1.115234 11.917027,11.917027 0 0 0 0.52539,1.06836 11.917027,11.917027 0 0 0 0.63086,1.011718 11.917027,11.917027 0 0 0 0.728515,0.941407 11.917027,11.917027 0 0 0 0.81836,0.865234 11.917027,11.917027 0 0 0 0.90039,0.78125 11.917027,11.917027 0 0 0 0.97461,0.685547 11.917027,11.917027 0 0 0 1.037109,0.583984 z"
     style="opacity:0.25;fill:#000000;stroke-width:0.0924025"
     inkscape:connector-curvature="0" /><path
     id="path902"
     d="m 30.763672,32.63672 0.253906,0.509765 A 14.896283,14.896283 0 0 0 39.259767,19.839845 14.896283,14.896283 0 0 0 31.023438,6.5195317 l -0.25586,0.5117188 A 14.896283,14.896283 0 0 1 31.25,7.3066411 a 14.896283,14.896283 0 0 1 1.210938,0.8652344 14.896283,14.896283 0 0 1 1.11914,0.9824219 14.896283,14.896283 0 0 1 1.015625,1.0898436 14.896283,14.896283 0 0 1 0.902344,1.185547 14.896283,14.896283 0 0 1 0.777344,1.269531 14.896283,14.896283 0 0 1 0.648437,1.339843 14.896283,14.896283 0 0 1 0.511719,1.398438 14.896283,14.896283 0 0 1 0.369141,1.44336 14.896283,14.896283 0 0 1 0.222656,1.472657 14.896283,14.896283 0 0 1 0.07422,1.486328 14.896283,14.896283 0 0 1 0,0.09375 14.896283,14.896283 0 0 1 -0.08594,1.486328 14.896283,14.896283 0 0 1 -0.234375,1.470703 14.896283,14.896283 0 0 1 -0.378906,1.439453 14.896283,14.896283 0 0 1 -0.521485,1.396484 14.896283,14.896283 0 0 1 -0.658203,1.333985 14.896283,14.896283 0 0 1 -0.789062,1.263672 14.896283,14.896283 0 0 1 -0.910156,1.179687 14.896283,14.896283 0 0 1 -1.023438,1.080078 14.896283,14.896283 0 0 1 -1.125,0.97461 14.896283,14.896283 0 0 1 -1.21875,0.857422 14.896283,14.896283 0 0 1 -0.392577,0.220703 z"
     style="opacity:0.25;fill:#000000;stroke-width:0.0924025"
     inkscape:connector-curvature="0" /><path
     style="opacity:0.2;fill:#000000;stroke-width:0.0924025"
     d="m 23.712891,0.4941406 c -5.833461,0 -10.522199,1.1203783 -13.935547,3.3320313 -4.101193,2.657404 -6.269532,6.9015121 -6.269532,12.2714831 0,7.226706 5.806266,16.88549 7.585938,19.673828 2.031747,3.183082 4.250107,6.079783 6.246094,8.15625 2.542362,2.644284 4.56815,3.875 6.373047,3.875 1.804991,0 3.829009,-1.230625 6.371093,-3.875 1.995894,-2.076376 4.214348,-4.973077 6.246094,-8.15625 1.779671,-2.788246 7.585938,-12.447122 7.585938,-19.673826 9.2e-5,-5.36988 -2.166204,-9.613989 -6.267578,-12.2714851 C 34.235274,1.6145189 29.54626,0.4941406 23.712891,0.4941406 Z m 0,0.14453126 c 2.112445,0.084873 4.119293,0.27168527 5.875,0.69140624 1.164035,0.2782756 2.252954,0.6269196 3.263671,1.0429688 1.010718,0.4160492 1.943585,0.9002116 2.796876,1.453125 1.025343,0.6643739 1.929139,1.4277032 2.708984,2.2832031 0.779844,0.8554999 1.435774,1.803713 1.96289,2.8359375 0.527119,1.0322245 0.926199,2.1492025 1.19336,3.3437495 0.267161,1.194547 0.402367,2.466124 0.402344,3.808593 0,1.806677 -0.363402,3.765127 -0.935547,5.730469 -0.572145,1.965342 -1.352441,3.93819 -2.189453,5.771484 -1.674026,3.66659 -3.571102,6.777752 -4.460938,8.171875 -2.031746,3.183173 -4.2502,6.079876 -6.246094,8.15625 -1.271042,1.322188 -2.413501,2.291486 -3.46289,2.929688 -0.319034,0.194026 -0.618451,0.306539 -0.910156,0.390625 -0.291517,-0.08404 -0.58956,-0.196919 -0.908204,-0.390625 C 21.75288,46.219206 20.611025,45.249875 19.339844,43.927733 17.343857,41.851266 15.125497,38.954565 13.09375,35.771483 12.203914,34.377314 10.306838,31.266185 8.632812,27.599608 7.7958,25.76632 7.015504,23.793458 6.443359,21.828124 5.871215,19.86279 5.507813,17.904332 5.507812,16.097655 c 0,-1.342492 0.134981,-2.614034 0.402344,-3.808593 C 6.177519,11.094503 6.578102,9.9775371 7.105469,8.9453125 7.632836,7.9130879 8.288347,6.9648635 9.068359,6.109375 9.848371,5.2538865 10.752046,4.4905229 11.777344,3.8261719 12.630681,3.2732586 13.5635,2.789096 14.574219,2.3730469 15.584938,1.9569977 16.673873,1.6083537 17.837891,1.3300781 19.59357,0.91035712 21.60043,0.72354489 23.712891,0.63867186 Z"
     id="path4588"
     inkscape:connector-curvature="0" /></g></svg>