<?xml version="1.0" encoding="UTF-8" standalone="no"?>
<!-- Generator: Adobe Illustrator 19.0.0, SVG Export Plug-In . SVG Version: 6.00 Build 0)  -->

<svg
   xmlns:dc="http://purl.org/dc/elements/1.1/"
   xmlns:cc="http://creativecommons.org/ns#"
   xmlns:rdf="http://www.w3.org/1999/02/22-rdf-syntax-ns#"
   xmlns:svg="http://www.w3.org/2000/svg"
   xmlns="http://www.w3.org/2000/svg"
   xmlns:xlink="http://www.w3.org/1999/xlink"
   xmlns:sodipodi="http://sodipodi.sourceforge.net/DTD/sodipodi-0.dtd"
   xmlns:inkscape="http://www.inkscape.org/namespaces/inkscape"
   version="1.1"
   id="Capa_1"
   x="0px"
   y="0px"
   viewBox="0 0 48 48"
   xml:space="preserve"
   sodipodi:docname="lmms.svg"
   width="48"
   height="48"
   inkscape:version="0.92.3 (2405546, 2018-03-11)"><metadata
   id="metadata41"><rdf:RDF><cc:Work
       rdf:about=""><dc:format>image/svg+xml</dc:format><dc:type
         rdf:resource="http://purl.org/dc/dcmitype/StillImage" /><dc:title /></cc:Work></rdf:RDF></metadata><defs
   id="defs39"><linearGradient
     inkscape:collect="always"
     id="linearGradient955"><stop
       style="stop-color:#162d50;stop-opacity:1;"
       offset="0"
       id="stop951" /><stop
       style="stop-color:#162d50;stop-opacity:0;"
       offset="1"
       id="stop953" /></linearGradient><linearGradient
     inkscape:collect="always"
     id="linearGradient947"><stop
       style="stop-color:#162d50;stop-opacity:1;"
       offset="0"
       id="stop943" /><stop
       style="stop-color:#162d50;stop-opacity:0;"
       offset="1"
       id="stop945" /></linearGradient><linearGradient
     inkscape:collect="always"
     id="linearGradient905"><stop
       style="stop-color:#000000;stop-opacity:1;"
       offset="0"
       id="stop901" /><stop
       style="stop-color:#000000;stop-opacity:0;"
       offset="1"
       id="stop903" /></linearGradient><linearGradient
     inkscape:collect="always"
     xlink:href="#linearGradient905"
     id="linearGradient927"
     gradientUnits="userSpaceOnUse"
     x1="11.142946"
     y1="9.8633337"
     x2="45.784893"
     y2="44.686863" /><linearGradient
     inkscape:collect="always"
     xlink:href="#linearGradient947"
     id="linearGradient949"
     x1="29.830355"
     y1="24.247507"
     x2="29.733404"
     y2="30.835743"
     gradientUnits="userSpaceOnUse" /><linearGradient
     inkscape:collect="always"
     xlink:href="#linearGradient955"
     id="linearGradient957"
     x1="17.163603"
     y1="24.319164"
     x2="16.914751"
     y2="31.377987"
     gradientUnits="userSpaceOnUse" /></defs><sodipodi:namedview
   pagecolor="#ffffff"
   bordercolor="#666666"
   borderopacity="1"
   objecttolerance="10"
   gridtolerance="10"
   guidetolerance="10"
   inkscape:pageopacity="0"
   inkscape:pageshadow="2"
   inkscape:window-width="1366"
   inkscape:window-height="719"
   id="namedview37"
   showgrid="false"
   showguides="true"
   inkscape:guide-bbox="true"
   inkscape:zoom="3.7565048"
   inkscape:cx="24"
   inkscape:cy="24"
   inkscape:window-x="0"
   inkscape:window-y="25"
   inkscape:window-maximized="1"
   inkscape:current-layer="Capa_1" />


<g
   id="g6"
   transform="translate(0,-464)">
</g>
<g
   id="g8"
   transform="translate(0,-464)">
</g>
<g
   id="g10"
   transform="translate(0,-464)">
</g>
<g
   id="g12"
   transform="translate(0,-464)">
</g>
<g
   id="g14"
   transform="translate(0,-464)">
</g>
<g
   id="g16"
   transform="translate(0,-464)">
</g>
<g
   id="g18"
   transform="translate(0,-464)">
</g>
<g
   id="g20"
   transform="translate(0,-464)">
</g>
<g
   id="g22"
   transform="translate(0,-464)">
</g>
<g
   id="g24"
   transform="translate(0,-464)">
</g>
<g
   id="g26"
   transform="translate(0,-464)">
</g>
<g
   id="g28"
   transform="translate(0,-464)">
</g>
<g
   id="g30"
   transform="translate(0,-464)">
</g>
<g
   id="g32"
   transform="translate(0,-464)">
</g>
<g
   id="g34"
   transform="translate(0,-464)">
</g>
<g
   id="g972"><path
     id="path843"
     d="m 23.712891,0.49414062 c -5.833461,0 -10.522199,1.12037758 -13.9355472,3.33203128 -4.1011931,2.6574037 -6.2695313,6.9015131 -6.2695313,12.2714841 0,7.226706 5.8062658,16.88549 7.5859375,19.673828 2.031747,3.183081 4.250107,6.079782 6.246094,8.15625 2.542362,2.644283 4.56815,3.875 6.373047,3.875 1.804991,0 3.829009,-1.230625 6.371093,-3.875 1.995894,-2.076376 4.214348,-4.973077 6.246094,-8.15625 C 38.10975,32.983238 43.916016,23.324362 43.916016,16.097656 43.916108,10.727777 41.749814,6.4836678 37.648438,3.8261719 34.235274,1.6145182 29.546261,0.49414062 23.712891,0.49414062 Z"
     style="fill:#214478;stroke-width:0.0924025"
     inkscape:connector-curvature="0" /><path
     inkscape:connector-curvature="0"
     id="path899"
     d="m 27.886719,45.787109 c 0.711819,-0.56023 1.390688,-1.020341 2.197265,-1.859375 1.995894,-2.076376 4.214349,-4.973077 6.246094,-8.15625 0.889836,-1.394123 2.786912,-4.505287 4.460938,-8.171875 0.837012,-1.833294 1.617308,-3.806142 2.189453,-5.771484 0.0903,-0.310185 0.06917,-0.595015 0.148437,-0.904297 L 36.449219,14.244141 25.318359,9.6933594 15.529297,14.306641 11.048828,28.949219 Z"
     style="opacity:0.7;fill:url(#linearGradient927);fill-opacity:1;stroke:none;stroke-width:1px;stroke-linecap:butt;stroke-linejoin:miter;stroke-opacity:1" /><path
     id="path2"
     d="m 23.748047,6.2226562 12.701172,8.0214848 v 14.705078 l -4.234375,2.005859 -4.455078,-2.005859 v -4.677735 l 3.341796,-3.34375 v -4.009765 l -7.353515,-5.347657 -8.019531,5.347657 v 4.009765 l 4.009765,3.34375 v 4.677735 L 15.28125,30.955078 11.048828,28.949219 11.060547,18.75 11.048828,13.910156 Z"
     style="fill:#ffffff;stroke-width:0.0924025"
     inkscape:connector-curvature="0" /><path
     inkscape:connector-curvature="0"
     id="path893"
     d="m 23.707031,11.597656 0.04102,-0.02734 7.353515,5.347657 v 4.009765 l -3.341796,3.34375 v 4.677735 l 4.455078,2.005859 4.234375,-2.005859 V 14.244141 l -12.701172,-8.0214848 -0.03906,0.023438 z"
     style="fill:#aaaaff;fill-opacity:1;stroke:none;stroke-width:1px;stroke-linecap:butt;stroke-linejoin:miter;stroke-opacity:1" /><path
     inkscape:connector-curvature="0"
     id="path937-3"
     d="m 31.992228,26.208984 -4.226562,-1.892578 -0.0059,4.632813 4.232422,2.005859 z"
     style="fill:url(#linearGradient949);fill-opacity:1;stroke-width:0.0924025" /><path
     inkscape:connector-curvature="0"
     id="path932"
     d="m 19.738281,24.271484 -4.457031,1.9375 v 4.746094 l 4.457031,-2.005859 z"
     style="fill:url(#linearGradient957);fill-opacity:1;stroke-width:0.0924025" /><path
     inkscape:connector-curvature="0"
     id="path4588"
     d="m 23.712891,0.34960936 c -5.833461,0 -10.522199,1.12037834 -13.935547,3.33203134 -4.101193,2.657404 -6.269532,6.9015123 -6.269532,12.2714833 0,7.226706 5.806266,16.88549 7.585938,19.673828 2.031747,3.183082 4.250107,6.079783 6.246094,8.15625 2.542362,2.644284 4.56815,3.875 6.373047,3.875 1.804991,0 3.829009,-1.230625 6.371093,-3.875 1.995894,-2.076376 4.214348,-4.973077 6.246094,-8.15625 1.779671,-2.788246 7.585938,-12.447122 7.585938,-19.673826 9.2e-5,-5.36988 -2.166204,-9.6139892 -6.267578,-12.2714853 C 34.235274,1.4699877 29.54626,0.34960936 23.712891,0.34960936 Z m 0,0.14453126 c 2.112445,0.084873 4.119293,0.27168527 5.875,0.69140628 1.164035,0.2782756 2.252954,0.6269196 3.263671,1.0429688 1.010718,0.4160492 1.943585,0.9002116 2.796876,1.453125 1.025343,0.6643739 1.929139,1.4277032 2.708984,2.2832031 0.779844,0.8554999 1.435774,1.803713 1.96289,2.8359375 0.527119,1.0322245 0.926199,2.1492027 1.19336,3.3437497 0.267161,1.194547 0.402367,2.466124 0.402344,3.808593 0,1.806677 -0.363402,3.765127 -0.935547,5.730469 -0.572145,1.965342 -1.352441,3.93819 -2.189453,5.771484 -1.674026,3.66659 -3.571102,6.777752 -4.460938,8.171875 -2.031746,3.183173 -4.2502,6.079876 -6.246094,8.15625 -1.271042,1.322188 -2.413501,2.291486 -3.46289,2.929688 -0.319034,0.194026 -0.618451,0.306539 -0.910156,0.390625 -0.291517,-0.08404 -0.58956,-0.196919 -0.908204,-0.390625 C 21.75288,46.074675 20.611025,45.105344 19.339844,43.783202 17.343857,41.706735 15.125497,38.810034 13.09375,35.626952 12.203914,34.232783 10.306838,31.121654 8.632812,27.455077 7.7958,25.621789 7.015504,23.648927 6.443359,21.683593 5.871215,19.718259 5.507813,17.759801 5.507812,15.953124 c 0,-1.342492 0.134981,-2.614034 0.402344,-3.808593 C 6.177519,10.949972 6.578102,9.8330059 7.105469,8.8007813 7.632836,7.7685567 8.288347,6.8203323 9.068359,5.9648438 9.848371,5.1093553 10.752046,4.3459917 11.777344,3.6816407 12.630681,3.1287274 13.5635,2.6445648 14.574219,2.2285157 15.584938,1.8124665 16.673873,1.4638225 17.837891,1.1855469 19.59357,0.76582588 21.60043,0.57901365 23.712891,0.49414062 Z"
     style="opacity:0.2;fill:#000000;stroke-width:0.0924025" /></g></svg>