<?xml version="1.0" encoding="UTF-8" standalone="no"?>
<!-- Generator: Adobe Illustrator 19.0.0, SVG Export Plug-In . SVG Version: 6.00 Build 0)  -->

<svg
   xmlns:dc="http://purl.org/dc/elements/1.1/"
   xmlns:cc="http://creativecommons.org/ns#"
   xmlns:rdf="http://www.w3.org/1999/02/22-rdf-syntax-ns#"
   xmlns:svg="http://www.w3.org/2000/svg"
   xmlns="http://www.w3.org/2000/svg"
   xmlns:sodipodi="http://sodipodi.sourceforge.net/DTD/sodipodi-0.dtd"
   xmlns:inkscape="http://www.inkscape.org/namespaces/inkscape"
   version="1.1"
   id="Capa_1"
   x="0px"
   y="0px"
   viewBox="0 0 48 48"
   xml:space="preserve"
   sodipodi:docname="meld.svg"
   width="48"
   height="48"
   inkscape:version="0.92.3 (2405546, 2018-03-11)"><metadata
   id="metadata41"><rdf:RDF><cc:Work
       rdf:about=""><dc:format>image/svg+xml</dc:format><dc:type
         rdf:resource="http://purl.org/dc/dcmitype/StillImage" /><dc:title /></cc:Work></rdf:RDF></metadata><defs
   id="defs39"><linearGradient
     id="linearGradient5132"><stop
       id="stop5134"
       offset="0"
       style="stop-color:#ffd89b;stop-opacity:1;" /><stop
       id="stop5136"
       offset="1"
       style="stop-color:white;stop-opacity:0;" /></linearGradient><linearGradient
     id="linearGradient3259"><stop
       style="stop-color:#729fcf;stop-opacity:1;"
       offset="0"
       id="stop3261" /><stop
       style="stop-color:#3f7ab9;stop-opacity:1;"
       offset="1"
       id="stop3263" /></linearGradient></defs><sodipodi:namedview
   pagecolor="#ffffff"
   bordercolor="#666666"
   borderopacity="1"
   objecttolerance="10"
   gridtolerance="10"
   guidetolerance="10"
   inkscape:pageopacity="0"
   inkscape:pageshadow="2"
   inkscape:window-width="1366"
   inkscape:window-height="690"
   id="namedview37"
   showgrid="false"
   showguides="true"
   inkscape:guide-bbox="true"
   inkscape:zoom="5.0729166"
   inkscape:cx="12.769571"
   inkscape:cy="20.485401"
   inkscape:window-x="0"
   inkscape:window-y="28"
   inkscape:window-maximized="1"
   inkscape:current-layer="Capa_1" />
<path
   style="fill:#008080;stroke-width:0.0924025"
   d="M 23.712891 0.49414062 C 17.87943 0.49414062 13.190692 1.6145182 9.7773438 3.8261719 C 5.6761507 6.4835756 3.5078125 10.727685 3.5078125 16.097656 C 3.5078125 23.324362 9.314078 32.983146 11.09375 35.771484 C 13.125497 38.954565 15.343857 41.851266 17.339844 43.927734 C 19.882206 46.572017 21.907994 47.802734 23.712891 47.802734 C 25.517882 47.802734 27.5419 46.572109 30.083984 43.927734 C 32.079878 41.851358 34.298332 38.954657 36.330078 35.771484 C 38.10975 32.983238 43.916016 23.324362 43.916016 16.097656 C 43.916108 10.727777 41.749814 6.4836678 37.648438 3.8261719 C 34.235274 1.6145182 29.546261 0.49414062 23.712891 0.49414062 z M 12.564453 6.078125 L 34.765625 6.078125 C 35.938049 6.078125 36.882812 7.0225683 36.882812 8.1972656 L 36.882812 30.427734 C 36.882812 31.602432 35.938049 32.546875 34.765625 32.546875 L 12.564453 32.546875 C 11.39203 32.546875 10.449219 31.602432 10.449219 30.427734 L 10.449219 8.1972656 C 10.449219 7.0225683 11.39203 6.078125 12.564453 6.078125 z M 13.558594 7.2617188 C 12.491088 7.2617188 11.630859 8.1237836 11.630859 9.1933594 L 11.630859 29.431641 C 11.630859 30.501216 12.491088 31.363281 13.558594 31.363281 L 33.773438 31.363281 C 34.840943 31.363281 35.699219 30.501216 35.699219 29.431641 L 35.699219 9.1933594 C 35.699219 8.1237836 34.840943 7.2617188 33.773438 7.2617188 L 13.558594 7.2617188 z M 13.148438 8.7792969 L 19.261719 8.7792969 C 16.629489 11.489531 15.459804 14.032729 15.447266 17.091797 C 15.430048 21.290275 18.300975 24.966069 22.255859 24.984375 C 25.050723 24.997321 27.208984 22.885269 27.208984 20.251953 C 27.208978 19.297548 26.877018 18.446153 26.207031 17.835938 C 25.725973 17.397805 25.143825 17.078847 24.484375 17.025391 C 24.436812 17.021534 24.394624 17.040187 24.347656 17.039062 C 24.662644 16.930026 24.913292 16.769531 25.298828 16.769531 C 25.863104 16.769531 26.569463 17.142705 27.138672 17.875 C 27.706469 18.605478 28.10238 19.662101 28.101562 20.722656 C 28.099328 23.64336 25.392781 26.11805 21.828125 26.330078 C 19.335147 26.47835 17.309571 25.799026 14.261719 23.728516 C 14.260115 23.727427 14.257463 23.725698 14.255859 23.724609 L 13.148438 22.917969 C 13.148444 18.150218 13.148438 13.53341 13.148438 8.7792969 z M 26.40625 12.277344 C 28.496456 12.349317 30.406459 13.087311 33.072266 14.898438 C 33.072266 14.898438 33.074219 14.898438 33.074219 14.898438 L 34.183594 15.707031 C 34.1836 20.474794 34.183594 25.091597 34.183594 29.845703 C 32.7911 29.845703 29.942741 29.845709 28.070312 29.845703 C 30.702543 27.135481 31.872228 24.592265 31.884766 21.533203 C 31.901984 17.334737 29.031062 13.656978 25.076172 13.638672 C 22.281326 13.625726 20.123047 15.739725 20.123047 18.373047 C 20.123047 19.327458 20.455007 20.178853 21.125 20.789062 C 21.606064 21.22722 22.188212 21.546153 22.847656 21.599609 C 22.895219 21.603466 22.937407 21.582859 22.984375 21.583984 C 22.669387 21.693021 22.418733 21.855469 22.033203 21.855469 C 21.468927 21.855469 20.762568 21.482295 20.193359 20.75 C 19.625563 20.019522 19.229652 18.962899 19.230469 17.902344 C 19.232692 14.981646 21.939268 12.506944 25.503906 12.294922 C 25.828146 12.275635 26.120495 12.267502 26.40625 12.277344 z "
   id="path2" />

<g
   id="g6"
   transform="translate(0,-464)">
</g>
<g
   id="g8"
   transform="translate(0,-464)">
</g>
<g
   id="g10"
   transform="translate(0,-464)">
</g>
<g
   id="g12"
   transform="translate(0,-464)">
</g>
<g
   id="g14"
   transform="translate(0,-464)">
</g>
<g
   id="g16"
   transform="translate(0,-464)">
</g>
<g
   id="g18"
   transform="translate(0,-464)">
</g>
<g
   id="g20"
   transform="translate(0,-464)">
</g>
<g
   id="g22"
   transform="translate(0,-464)">
</g>
<g
   id="g24"
   transform="translate(0,-464)">
</g>
<g
   id="g26"
   transform="translate(0,-464)">
</g>
<g
   id="g28"
   transform="translate(0,-464)">
</g>
<g
   id="g30"
   transform="translate(0,-464)">
</g>
<g
   id="g32"
   transform="translate(0,-464)">
</g>
<g
   id="g34"
   transform="translate(0,-464)">
</g>
</svg>