<?xml version="1.0" encoding="UTF-8" standalone="no"?>
<!-- Generator: Adobe Illustrator 19.0.0, SVG Export Plug-In . SVG Version: 6.00 Build 0)  -->

<svg
   xmlns:dc="http://purl.org/dc/elements/1.1/"
   xmlns:cc="http://creativecommons.org/ns#"
   xmlns:rdf="http://www.w3.org/1999/02/22-rdf-syntax-ns#"
   xmlns:svg="http://www.w3.org/2000/svg"
   xmlns="http://www.w3.org/2000/svg"
   xmlns:sodipodi="http://sodipodi.sourceforge.net/DTD/sodipodi-0.dtd"
   xmlns:inkscape="http://www.inkscape.org/namespaces/inkscape"
   version="1.1"
   id="Capa_1"
   x="0px"
   y="0px"
   viewBox="0 0 48 48"
   xml:space="preserve"
   sodipodi:docname="menu-editor.svg"
   width="48"
   height="48"
   inkscape:version="0.92.3 (2405546, 2018-03-11)"><metadata
   id="metadata41"><rdf:RDF><cc:Work
       rdf:about=""><dc:format>image/svg+xml</dc:format><dc:type
         rdf:resource="http://purl.org/dc/dcmitype/StillImage" /><dc:title /></cc:Work></rdf:RDF></metadata><defs
   id="defs39" /><sodipodi:namedview
   pagecolor="#ffffff"
   bordercolor="#666666"
   borderopacity="1"
   objecttolerance="10"
   gridtolerance="10"
   guidetolerance="10"
   inkscape:pageopacity="0"
   inkscape:pageshadow="2"
   inkscape:window-width="1366"
   inkscape:window-height="690"
   id="namedview37"
   showgrid="false"
   showguides="true"
   inkscape:guide-bbox="true"
   inkscape:zoom="2.5364583"
   inkscape:cx="42.212754"
   inkscape:cy="20.924361"
   inkscape:window-x="0"
   inkscape:window-y="28"
   inkscape:window-maximized="1"
   inkscape:current-layer="Capa_1" />
<path
   style="fill:#71c837;stroke-width:0.0924025"
   d="M 23.712891 0.49414062 C 17.87943 0.49414062 13.190692 1.6145182 9.7773438 3.8261719 C 5.6761507 6.4835756 3.5078125 10.727685 3.5078125 16.097656 C 3.5078125 23.324362 9.314078 32.983146 11.09375 35.771484 C 13.125497 38.954565 15.343857 41.851266 17.339844 43.927734 C 19.882206 46.572017 21.907994 47.802734 23.712891 47.802734 C 25.517882 47.802734 27.5419 46.572109 30.083984 43.927734 C 32.079878 41.851358 34.298332 38.954657 36.330078 35.771484 C 36.799795 35.035571 37.554321 33.801437 38.404297 32.279297 L 12.789062 32.351562 L 12.789062 16.566406 L 43.896484 16.525391 C 43.900765 16.383733 43.916016 16.237558 43.916016 16.097656 C 43.916108 10.727777 41.749814 6.4836678 37.648438 3.8261719 C 34.235274 1.6145182 29.546261 0.49414062 23.712891 0.49414062 z M 43.896484 16.525391 C 43.888371 16.793861 43.88017 17.061863 43.857422 17.335938 C 43.86118 17.264576 43.87134 17.188464 43.873047 17.119141 L 43.902344 16.525391 L 43.896484 16.525391 z M 43.857422 17.335938 C 43.854106 17.398895 43.850505 17.463014 43.845703 17.527344 C 43.8518 17.462886 43.852095 17.400119 43.857422 17.335938 z M 43.845703 17.527344 C 43.80445 17.963494 43.744197 18.404863 43.669922 18.851562 C 43.749768 18.397848 43.813826 17.954433 43.845703 17.527344 z M 43.669922 18.851562 C 43.61875 19.142338 43.560613 19.4271 43.5 19.708984 C 43.559131 19.422589 43.622807 19.134915 43.669922 18.851562 z M 43.5 19.708984 C 43.470292 19.852873 43.446617 19.996146 43.414062 20.140625 C 43.417147 20.125679 43.420794 20.110653 43.423828 20.095703 C 43.451898 19.972688 43.472668 19.836092 43.5 19.708984 z M 43.414062 20.140625 C 43.374965 20.330103 43.323798 20.518129 43.277344 20.707031 C 43.324424 20.517727 43.371583 20.329155 43.414062 20.140625 z M 43.277344 20.707031 C 43.214781 20.958588 43.14824 21.210508 43.078125 21.462891 C 43.15052 21.211308 43.215269 20.959456 43.277344 20.707031 z M 43.078125 21.462891 C 42.84188 22.283877 42.564039 23.101095 42.291016 23.917969 C 42.584109 23.102654 42.850197 22.283327 43.078125 21.462891 z M 42.291016 23.917969 C 42.209699 24.144172 42.132106 24.370936 42.046875 24.595703 C 42.083222 24.499908 42.126615 24.406598 42.162109 24.310547 C 42.20506 24.179881 42.247345 24.04863 42.291016 23.917969 z M 42.046875 24.595703 C 41.804791 25.233739 41.549611 25.86683 41.277344 26.494141 C 41.54525 25.870875 41.803388 25.237814 42.046875 24.595703 z M 41.277344 26.494141 C 41.221075 26.625046 41.162517 26.75302 41.105469 26.882812 C 41.162905 26.753108 41.220861 26.624278 41.277344 26.494141 z M 41.105469 26.882812 C 40.931053 27.276685 40.749366 27.666568 40.568359 28.056641 C 40.750216 27.667808 40.929044 27.284202 41.105469 26.882812 z M 40.568359 28.056641 C 40.236029 28.767204 39.900495 29.468072 39.564453 30.123047 C 39.772823 29.715766 39.9818 29.309131 40.181641 28.900391 C 40.313718 28.621764 40.438214 28.337106 40.568359 28.056641 z M 39.564453 30.123047 C 39.537077 30.176556 39.509959 30.229722 39.482422 30.283203 C 39.509776 30.230238 39.537057 30.176445 39.564453 30.123047 z M 39.482422 30.283203 C 39.113656 30.997237 38.752058 31.656525 38.404297 32.279297 L 38.414062 32.279297 C 38.786168 31.616984 39.138884 30.950405 39.482422 30.283203 z M 17.642578 19.654297 L 17.642578 20.935547 L 30.554688 20.935547 L 30.554688 19.654297 L 17.642578 19.654297 z M 17.642578 23.654297 L 17.642578 24.935547 L 30.554688 24.935547 L 30.554688 23.654297 L 17.642578 23.654297 z M 17.642578 27.654297 L 17.642578 28.935547 L 30.554688 28.935547 L 30.554688 27.654297 L 17.642578 27.654297 z "
   id="path2" />

<g
   id="g6"
   transform="translate(0,-464)">
</g>
<g
   id="g8"
   transform="translate(0,-464)">
</g>
<g
   id="g10"
   transform="translate(0,-464)">
</g>
<g
   id="g12"
   transform="translate(0,-464)">
</g>
<g
   id="g14"
   transform="translate(0,-464)">
</g>
<g
   id="g16"
   transform="translate(0,-464)">
</g>
<g
   id="g18"
   transform="translate(0,-464)">
</g>
<g
   id="g20"
   transform="translate(0,-464)">
</g>
<g
   id="g22"
   transform="translate(0,-464)">
</g>
<g
   id="g24"
   transform="translate(0,-464)">
</g>
<g
   id="g26"
   transform="translate(0,-464)">
</g>
<g
   id="g28"
   transform="translate(0,-464)">
</g>
<g
   id="g30"
   transform="translate(0,-464)">
</g>
<g
   id="g32"
   transform="translate(0,-464)">
</g>
<g
   id="g34"
   transform="translate(0,-464)">
</g>
</svg>