<?xml version="1.0" encoding="UTF-8" standalone="no"?>
<!-- Created with Inkscape (http://www.inkscape.org/) -->

<svg
   xmlns:dc="http://purl.org/dc/elements/1.1/"
   xmlns:cc="http://creativecommons.org/ns#"
   xmlns:rdf="http://www.w3.org/1999/02/22-rdf-syntax-ns#"
   xmlns:svg="http://www.w3.org/2000/svg"
   xmlns="http://www.w3.org/2000/svg"
   xmlns:xlink="http://www.w3.org/1999/xlink"
   xmlns:sodipodi="http://sodipodi.sourceforge.net/DTD/sodipodi-0.dtd"
   xmlns:inkscape="http://www.inkscape.org/namespaces/inkscape"
   width="48"
   height="48"
   viewBox="0 0 12.7 12.7"
   version="1.1"
   id="svg829"
   inkscape:version="0.92.3 (2405546, 2018-03-11)"
   sodipodi:docname="menu-editor.svg">
  <defs
     id="defs823">
    <linearGradient
       inkscape:collect="always"
       id="linearGradient952">
      <stop
         style="stop-color:#000007;stop-opacity:1;"
         offset="0"
         id="stop948" />
      <stop
         style="stop-color:#000007;stop-opacity:0;"
         offset="1"
         id="stop950" />
    </linearGradient>
    <linearGradient
       inkscape:collect="always"
       xlink:href="#linearGradient952"
       id="linearGradient954"
       x1="1.9562116"
       y1="286.62747"
       x2="12.970278"
       y2="294.42633"
       gradientUnits="userSpaceOnUse"
       gradientTransform="matrix(3.7795276,0,0,3.7795276,60,-1074.5197)" />
    <linearGradient
       inkscape:collect="always"
       xlink:href="#linearGradient952"
       id="linearGradient974"
       gradientUnits="userSpaceOnUse"
       x1="1.9562116"
       y1="286.62747"
       x2="12.970278"
       y2="294.42633" />
  </defs>
  <sodipodi:namedview
     id="base"
     pagecolor="#ffffff"
     bordercolor="#666666"
     borderopacity="1.0"
     inkscape:pageopacity="0.0"
     inkscape:pageshadow="2"
     inkscape:zoom="3.7565048"
     inkscape:cx="24"
     inkscape:cy="36.766193"
     inkscape:document-units="mm"
     inkscape:current-layer="layer1"
     showgrid="false"
     showguides="true"
     inkscape:guide-bbox="true"
     inkscape:window-width="1366"
     inkscape:window-height="719"
     inkscape:window-x="0"
     inkscape:window-y="25"
     inkscape:window-maximized="1"
     scale-x="1.9"
     units="px"
     inkscape:snap-global="true"
     inkscape:snap-smooth-nodes="true" />
  <metadata
     id="metadata826">
    <rdf:RDF>
      <cc:Work
         rdf:about="">
        <dc:format>image/svg+xml</dc:format>
        <dc:type
           rdf:resource="http://purl.org/dc/dcmitype/StillImage" />
        <dc:title></dc:title>
      </cc:Work>
    </rdf:RDF>
  </metadata>
  <g
     inkscape:label="Capa 1"
     inkscape:groupmode="layer"
     id="layer1"
     transform="translate(0,-284.3)">
    <path
       inkscape:connector-curvature="0"
       style="opacity:1;fill:#1a1a1a;fill-opacity:1;stroke:none;stroke-width:0.0263895"
       d="m 54.450447,341.5109 c -0.699603,0 -1.262802,0.5632 -1.262802,1.26281 0,0.6996 0.563199,1.26286 1.262802,1.26286 h 2.915902 v 4.54958 h 2.621599 v -4.54958 h 2.678879 c 0.699604,0 1.262802,-0.56326 1.262802,-1.26286 0,-0.69961 -0.563198,-1.26281 -1.262802,-1.26281 z m 2.915902,7.07525 h -3.762466 c -0.505822,0 -0.987151,0.40041 -1.079176,0.89779 l -1.570602,8.48895 c -0.09203,0.49738 0.241128,0.89779 0.746949,0.89779 h 4.58579 v 0.032 h 4.539768 v -0.032 h 4.597049 c 0.505821,0 0.838974,-0.40041 0.746949,-0.89779 l -1.570668,-8.48895 c -0.09202,-0.49738 -0.573289,-0.89779 -1.07911,-0.89779 h -3.489167 l -0.0068,3.70486 2.545423,0.002 -3.981976,3.2663 -3.815203,-3.25385 2.593287,0.009 z"
       id="rect827" />
    <g
       id="g994">
      <path
         id="path844"
         d="m 6.3502584,284.39147 c -1.5434366,0 -2.7839982,0.29643 -3.6871132,0.8816 -1.0851074,0.7031 -1.6588136,1.82603 -1.6588136,3.24683 0,1.91207 1.5362412,4.46762 2.0071127,5.20537 0.5375664,0.84219 1.1245074,1.60861 1.6526121,2.158 0.6726666,0.69964 1.2086563,1.02527 1.686202,1.02527 0.4775705,0 1.013092,-0.32561 1.685685,-1.02527 0.5280803,-0.54937 1.1150465,-1.31579 1.6526124,-2.158 0.4708712,-0.73773 2.0071122,-3.2933 2.0071122,-5.20537 2.4e-5,-1.42078 -0.573141,-2.5437 -1.658296,-3.24683 -0.9030664,-0.58517 -2.1437011,-0.8816 -3.6871136,-0.8816 z"
         style="fill:#2ca089;stroke-width:0.02444816"
         inkscape:connector-curvature="0" />
      <path
         inkscape:connector-curvature="0"
         id="path946"
         d="m 7.5447583,296.29875 c 0.162148,-0.13474 0.311114,-0.22789 0.491443,-0.41548 0.52808,-0.54937 1.115047,-1.3158 1.652612,-2.15801 0.235436,-0.36886 0.7368537,-1.19202 1.1797717,-2.16214 0.221461,-0.48506 0.428432,-1.00704 0.57981,-1.52704 0.151022,-0.51876 0.246558,-1.03549 0.247013,-1.51257 l -2.4468777,-2.41949 -5.9143677,5.94899 z"
         style="fill:url(#linearGradient974);fill-opacity:1;stroke:none;stroke-width:0.26458332px;stroke-linecap:butt;stroke-linejoin:miter;stroke-opacity:1;opacity:0.5" />
      <path
         inkscape:connector-curvature="0"
         id="path4588"
         d="m 6.3502587,284.39147 c -1.5434366,0 -2.7839985,0.29643 -3.6871135,0.8816 -1.0851073,0.7031 -1.6588137,1.82603 -1.6588137,3.24683 0,1.91207 1.5362412,4.46762 2.0071128,5.20537 0.5375664,0.84219 1.1245074,1.60861 1.6526123,2.158 0.6726666,0.69964 1.2086564,1.02527 1.6862021,1.02527 0.4775705,0 1.0130919,-0.32561 1.685685,-1.02527 0.5280803,-0.54937 1.1150462,-1.31579 1.6526123,-2.158 0.470871,-0.73773 2.007112,-3.2933 2.007112,-5.20537 2.5e-5,-1.42078 -0.573141,-2.5437 -1.658296,-3.24683 -0.9030662,-0.58517 -2.1437011,-0.8816 -3.6871133,-0.8816 z m 0,0.0382 c 0.5589177,0.0225 1.0898962,0.0719 1.554427,0.18294 0.3079843,0.0736 0.5960941,0.16587 0.863513,0.27595 0.2674191,0.11008 0.5142402,0.23818 0.7400068,0.38447 0.2712886,0.17578 0.5104175,0.37775 0.7167515,0.6041 0.206334,0.22635 0.379882,0.47723 0.519348,0.75034 0.139467,0.27311 0.245057,0.56864 0.315743,0.8847 0.07069,0.31606 0.10646,0.6525 0.106454,1.00769 0,0.47802 -0.09615,0.99619 -0.24753,1.51619 -0.15138,0.51999 -0.357833,1.04198 -0.579293,1.52704 -0.4429192,0.97011 -0.9448538,1.79328 -1.1802896,2.16214 -0.5375662,0.84221 -1.1245321,1.60863 -1.6526124,2.158 -0.3362965,0.34983 -0.6385721,0.60629 -0.916223,0.77515 -0.084411,0.0513 -0.1636318,0.0811 -0.2408121,0.10335 -0.07713,-0.0222 -0.1559877,-0.0521 -0.2402956,-0.10335 -0.2777739,-0.16886 -0.5798897,-0.42533 -0.916223,-0.77515 -0.5281049,-0.54939 -1.115046,-1.31581 -1.6526124,-2.158 -0.2354357,-0.36888 -0.7373704,-1.19203 -1.1802898,-2.16215 -0.2214594,-0.48505 -0.4279128,-1.00704 -0.5792928,-1.52703 -0.1513798,-0.52 -0.2475299,-1.03817 -0.2475301,-1.51619 0,-0.3552 0.035714,-0.69163 0.1064535,-1.00769 0.07074,-0.31606 0.1767274,-0.61159 0.3162599,-0.8847 0.1395325,-0.27311 0.3129698,-0.52399 0.519348,-0.75034 0.2063781,-0.22635 0.4454755,-0.42832 0.7167522,-0.6041 0.2257788,-0.14629 0.4725871,-0.27439 0.7400066,-0.38447 0.2674194,-0.11008 0.5555334,-0.20233 0.8635132,-0.27595 0.4645234,-0.11106 0.9955051,-0.16048 1.5544271,-0.18294 z"
         style="opacity:0.2;fill:#000000;stroke-width:0.02444816" />
      <rect
         ry="0.40090415"
         y="286.07736"
         x="3.2901716"
         height="6.1694608"
         width="6.1694608"
         id="rect872"
         style="opacity:1;fill:#cccccc;fill-opacity:1;stroke:none;stroke-width:0.24051574;stroke-miterlimit:4;stroke-dasharray:none;stroke-opacity:0" />
      <rect
         ry="0.11610446"
         y="288.31854"
         x="3.2901719"
         height="1.7867162"
         width="6.1694613"
         id="rect872-0"
         style="opacity:0.4;fill:#008080;fill-opacity:1;stroke:none;stroke-width:0.1294338;stroke-miterlimit:4;stroke-dasharray:none;stroke-opacity:0" />
      <g
         style="fill:#1a1a1a"
         transform="matrix(0.92100372,0,0,0.92100372,-2.5582027,20.239672)"
         id="g925">
        <ellipse
           style="opacity:1;fill:#1a1a1a;fill-opacity:1;stroke:none;stroke-width:0.26499999;stroke-miterlimit:4;stroke-dasharray:none;stroke-opacity:0"
           id="path822-6"
           cx="7.3087258"
           cy="290.0025"
           rx="0.70970589"
           ry="0.68480396" />
        <rect
           style="opacity:1;fill:#1a1a1a;fill-opacity:1;stroke:none;stroke-width:0.26499999;stroke-miterlimit:4;stroke-dasharray:none;stroke-opacity:0"
           id="rect824-2"
           width="4.1835294"
           height="0.89647061"
           x="8.6409807"
           y="289.54181"
           ry="0.4482353" />
        <ellipse
           style="opacity:1;fill:#1a1a1a;fill-opacity:1;stroke:none;stroke-width:0.26499999;stroke-miterlimit:4;stroke-dasharray:none;stroke-opacity:0"
           id="path822-7-9"
           cx="7.3087258"
           cy="292.1192"
           rx="0.70970589"
           ry="0.68480396" />
        <rect
           style="opacity:1;fill:#1a1a1a;fill-opacity:1;stroke:none;stroke-width:0.26499999;stroke-miterlimit:4;stroke-dasharray:none;stroke-opacity:0"
           id="rect824-5-1"
           width="4.1835294"
           height="0.89647061"
           x="8.6409807"
           y="291.65851"
           ry="0.4482353" />
        <ellipse
           style="opacity:1;fill:#1a1a1a;fill-opacity:1;stroke:none;stroke-width:0.26499999;stroke-miterlimit:4;stroke-dasharray:none;stroke-opacity:0"
           id="path822-7-3-2"
           cx="7.3087258"
           cy="294.2359"
           rx="0.70970589"
           ry="0.68480396" />
        <rect
           style="opacity:1;fill:#1a1a1a;fill-opacity:1;stroke:none;stroke-width:0.26499999;stroke-miterlimit:4;stroke-dasharray:none;stroke-opacity:0"
           id="rect824-5-5-7"
           width="4.1835294"
           height="0.89647061"
           x="8.6409807"
           y="293.77521"
           ry="0.4482353" />
      </g>
      <ellipse
         ry="0.63070697"
         rx="0.65364176"
         cy="287.16104"
         cx="4.1616936"
         id="path822"
         style="opacity:1;fill:#374845;fill-opacity:1;stroke:none;stroke-width:0.24406597;stroke-miterlimit:4;stroke-dasharray:none;stroke-opacity:0" />
      <rect
         ry="0.41282639"
         y="286.73676"
         x="5.3887053"
         height="0.82565278"
         width="3.8530462"
         id="rect824"
         style="opacity:1;fill:#374845;fill-opacity:1;stroke:none;stroke-width:0.24406597;stroke-miterlimit:4;stroke-dasharray:none;stroke-opacity:0" />
      <ellipse
         ry="0.63070697"
         rx="0.65364176"
         cy="289.11053"
         cx="4.1616936"
         id="path822-7"
         style="opacity:1;fill:#374845;fill-opacity:1;stroke:none;stroke-width:0.24406597;stroke-miterlimit:4;stroke-dasharray:none;stroke-opacity:0" />
      <rect
         ry="0.41282639"
         y="288.68622"
         x="5.3887053"
         height="0.82565278"
         width="3.8530462"
         id="rect824-5"
         style="opacity:1;fill:#374845;fill-opacity:1;stroke:none;stroke-width:0.24406597;stroke-miterlimit:4;stroke-dasharray:none;stroke-opacity:0" />
      <ellipse
         ry="0.63070697"
         rx="0.65364176"
         cy="291.06003"
         cx="4.1616936"
         id="path822-7-3"
         style="opacity:1;fill:#374845;fill-opacity:1;stroke:none;stroke-width:0.24406597;stroke-miterlimit:4;stroke-dasharray:none;stroke-opacity:0" />
      <rect
         ry="0.41282639"
         y="290.63571"
         x="5.3887053"
         height="0.82565278"
         width="3.8530462"
         id="rect824-5-5"
         style="opacity:1;fill:#374845;fill-opacity:1;stroke:none;stroke-width:0.24406597;stroke-miterlimit:4;stroke-dasharray:none;stroke-opacity:0" />
    </g>
  </g>
</svg>
