<?xml version="1.0" encoding="UTF-8" standalone="no"?>
<!-- Generator: Adobe Illustrator 19.0.0, SVG Export Plug-In . SVG Version: 6.00 Build 0)  -->

<svg
   xmlns:dc="http://purl.org/dc/elements/1.1/"
   xmlns:cc="http://creativecommons.org/ns#"
   xmlns:rdf="http://www.w3.org/1999/02/22-rdf-syntax-ns#"
   xmlns:svg="http://www.w3.org/2000/svg"
   xmlns="http://www.w3.org/2000/svg"
   xmlns:xlink="http://www.w3.org/1999/xlink"
   xmlns:sodipodi="http://sodipodi.sourceforge.net/DTD/sodipodi-0.dtd"
   xmlns:inkscape="http://www.inkscape.org/namespaces/inkscape"
   version="1.1"
   id="Capa_1"
   x="0px"
   y="0px"
   viewBox="0 0 48 48"
   xml:space="preserve"
   sodipodi:docname="ooo-gulls.svg"
   width="48"
   height="48"
   inkscape:version="0.92.3 (2405546, 2018-03-11)"><metadata
   id="metadata41"><rdf:RDF><cc:Work
       rdf:about=""><dc:format>image/svg+xml</dc:format><dc:type
         rdf:resource="http://purl.org/dc/dcmitype/StillImage" /><dc:title /></cc:Work></rdf:RDF></metadata><defs
   id="defs39"><linearGradient
     x1="-83.756935"
     y1="-7.8379993"
     x2="-92.222527"
     y2="27.521217"
     id="linearGradient5588"
     xlink:href="#linearGradient3202"
     gradientUnits="userSpaceOnUse"
     gradientTransform="matrix(0.5857566,-0.140767,0.1402401,0.5879573,74.307775,0.1578927)" /><linearGradient
     id="linearGradient3202"><stop
       id="stop3204"
       style="stop-color:white;stop-opacity:1"
       offset="0" /><stop
       id="stop3206"
       style="stop-color:#d3eefc;stop-opacity:1"
       offset="1" /></linearGradient><clipPath
     clipPathUnits="userSpaceOnUse"
     id="clipPath3983"><path
       d="m 184.57422,701.48438 a 2.2362916,2.2362916 0 0 0 -1.91602,0.92187 c 0,0 -3.3369,4.7843 -4.0332,11.1875 -5.02253,-4.03579 -10.76562,-5.08203 -10.76562,-5.08203 a 2.2362916,2.2362916 0 0 0 -2.56641,2.56445 c 0,0 1.04033,5.74739 5.08008,10.76758 -6.41248,0.69558 -11.21289,4.03125 -11.21289,4.03125 a 2.2362916,2.2362916 0 0 0 0.006,3.63086 c 0,0 4.79953,3.30549 11.20507,3.99609 -4.03825,5.01968 -5.07812,10.76563 -5.07812,10.76563 a 2.2362916,2.2362916 0 0 0 2.56641,2.56445 c 0,0 5.74309,-1.04624 10.76562,-5.08203 0.69532,6.40824 4.0293,11.21484 4.0293,11.21484 a 2.2362916,2.2362916 0 0 0 3.63281,-0.008 c 0,0 3.31369,-4.81511 3.99805,-11.22851 5.02892,4.05475 10.79296,5.10351 10.79296,5.10351 a 2.2362916,2.2362916 0 0 0 2.56446,-2.57422 c 0,0 -1.06513,-5.74008 -5.10547,-10.75586 6.40959,-0.69012 11.22851,-3.99218 11.22851,-3.99218 a 2.2362916,2.2362916 0 0 0 0.008,-3.63868 c 0,0 -4.82176,-3.33225 -11.23828,-4.02734 4.04183,-5.01629 5.10742,-10.75781 5.10742,-10.75781 a 2.2362916,2.2362916 0 0 0 -2.56446,-2.57422 c 0,0 -5.76404,1.04876 -10.79296,5.10351 -0.68533,-6.40839 -4.00196,-11.20312 -4.00196,-11.20312 a 2.2362916,2.2362916 0 0 0 -1.70898,-0.92773 z"
       id="path3985"
       style="color:#000000;display:inline;overflow:visible;visibility:visible;fill:#eeeeec;fill-opacity:1;fill-rule:evenodd;stroke:none;stroke-width:0.30022803;marker:none;enable-background:new"
       inkscape:original="M 184.46875 703.71875 C 184.46875 703.71875 180.59375 709.06256 180.59375 715.6875 C 180.59375 716.89696 180.75838 718.0867 180.96875 719.1875 C 180.33528 718.25414 179.58087 717.32975 178.71875 716.46875 C 174.02816 711.78421 167.5 710.71875 167.5 710.71875 C 167.5 710.71875 168.55941 717.25296 173.25 721.9375 C 174.11212 722.7985 175.03419 723.55485 175.96875 724.1875 C 174.85826 723.9742 173.69012 723.8125 172.46875 723.8125 C 165.83526 723.8125 160.46875 727.6875 160.46875 727.6875 C 160.46875 727.6875 165.83526 731.53125 172.46875 731.53125 C 173.69012 731.53125 174.85826 731.4008 175.96875 731.1875 C 175.03456 731.81999 174.11178 732.54558 173.25 733.40625 C 168.55941 738.09078 167.5 744.625 167.5 744.625 C 167.5 744.625 174.02816 743.55954 178.71875 738.875 C 179.58087 738.014 180.33528 737.08961 180.96875 736.15625 C 180.75518 737.2653 180.59375 738.43646 180.59375 739.65625 C 180.59375 746.28119 184.46875 751.65625 184.46875 751.65625 C 184.46875 751.65625 188.3125 746.28119 188.3125 739.65625 C 188.3125 738.43646 188.18232 737.2653 187.96875 736.15625 C 188.60222 737.08961 189.35663 738.014 190.21875 738.875 C 194.90934 743.55954 201.4375 744.625 201.4375 744.625 C 201.4375 744.625 200.34684 738.09078 195.65625 733.40625 C 194.79906 732.55017 193.89785 731.849 192.96875 731.21875 C 194.06956 731.42831 195.22825 731.53125 196.4375 731.53125 C 203.07099 731.53125 208.46875 727.6875 208.46875 727.6875 C 208.46875 727.6875 203.07099 723.8125 196.4375 723.8125 C 195.22647 723.8125 194.07098 723.9774 192.96875 724.1875 C 193.90331 723.55485 194.79413 722.7985 195.65625 721.9375 C 200.34684 717.25296 201.4375 710.71875 201.4375 710.71875 C 201.4375 710.71875 194.90934 711.78421 190.21875 716.46875 C 189.35663 717.32975 188.60222 718.25414 187.96875 719.1875 C 188.17912 718.0867 188.3125 716.89696 188.3125 715.6875 C 188.3125 709.06256 184.46875 703.71875 184.46875 703.71875 z "
       inkscape:radius="2.236068"
       sodipodi:type="inkscape:offset" /></clipPath><clipPath
     clipPathUnits="userSpaceOnUse"
     id="clipPath4169"><path
       inkscape:connector-curvature="0"
       sodipodi:nodetypes="csssc"
       id="path4171"
       d="m 471.43078,685.92888 c 0,22.09674 -12.84202,40.00973 -12.84202,40.00973 0,0 -12.84203,-17.91299 -12.84203,-40.00973 0,-22.09678 12.84203,-40.00974 12.84203,-40.00974 0,0 12.84202,17.91296 12.84202,40.00974 z"
       style="color:#000000;display:inline;overflow:visible;visibility:visible;fill:#edd400;fill-opacity:1;fill-rule:evenodd;stroke:none;stroke-width:12;marker:none;enable-background:new" /></clipPath><clipPath
     clipPathUnits="userSpaceOnUse"
     id="clipPath4145"><path
       inkscape:connector-curvature="0"
       style="color:#000000;display:inline;overflow:visible;visibility:visible;fill:#3465a4;fill-opacity:1;fill-rule:evenodd;stroke:none;stroke-width:12;marker:none;enable-background:new"
       d="m 401.43078,865.80173 c 0,22.09677 -12.84202,40.00973 -12.84202,40.00973 0,0 -12.84203,-17.91296 -12.84203,-40.00973 0,-22.09675 12.84203,-40.00974 12.84203,-40.00974 0,0 12.84202,17.91299 12.84202,40.00974 z"
       id="path4147"
       sodipodi:nodetypes="csssc" /></clipPath><clipPath
     clipPathUnits="userSpaceOnUse"
     id="clipPath4181"><path
       inkscape:connector-curvature="0"
       sodipodi:nodetypes="csssc"
       id="path4183"
       d="m 348.71074,698.72614 c -22.06442,0 -39.95118,-12.86084 -39.95118,-12.86084 0,0 17.88676,-12.86084 39.95118,-12.86084 22.06446,0 39.95119,12.86084 39.95119,12.86084 0,0 -17.88673,12.86084 -39.95119,12.86084 z"
       style="color:#000000;display:inline;overflow:visible;visibility:visible;fill:#ef2929;fill-opacity:1;fill-rule:evenodd;stroke:none;stroke-width:12;marker:none;enable-background:new" /></clipPath><clipPath
     clipPathUnits="userSpaceOnUse"
     id="clipPath4197"><path
       inkscape:connector-curvature="0"
       style="color:#000000;display:inline;overflow:visible;visibility:visible;fill:#75507b;fill-opacity:1;fill-rule:evenodd;stroke:none;stroke-width:12;marker:none;enable-background:new"
       d="m 299.47143,763.19859 c -15.60192,15.62478 -37.33043,19.19718 -37.33043,19.19718 0,0 3.56716,-21.76037 19.16908,-37.38511 15.60192,-15.62479 37.33043,-19.19719 37.33043,-19.19719 0,0 -3.56717,21.76037 -19.16908,37.38512 z"
       id="path4199"
       sodipodi:nodetypes="csssc" /></clipPath><clipPath
     clipPathUnits="userSpaceOnUse"
     id="clipPath4133"><path
       inkscape:connector-curvature="0"
       style="color:#000000;display:inline;overflow:visible;visibility:visible;fill:#65c808;fill-opacity:1;fill-rule:evenodd;stroke:none;stroke-width:12;marker:none;enable-background:new"
       d="m 538.46677,738.72614 c -22.06443,0 -39.95119,-12.86084 -39.95119,-12.86084 0,0 17.88676,-12.86084 39.95119,-12.86084 22.06442,0 39.95119,12.86084 39.95119,12.86084 0,0 -17.88677,12.86084 -39.95119,12.86084 z"
       id="path4135"
       sodipodi:nodetypes="csssc" /></clipPath><clipPath
     clipPathUnits="userSpaceOnUse"
     id="clipPath4071"><path
       inkscape:connector-curvature="0"
       sodipodi:nodetypes="csssc"
       id="path4073"
       d="m 515.86743,706.71995 c -15.60192,15.62478 -37.33043,19.19718 -37.33043,19.19718 0,0 3.56717,-21.76037 19.16909,-37.38511 15.60192,-15.62478 37.33043,-19.19719 37.33043,-19.19719 0,0 -3.56717,21.76034 -19.16909,37.38512 z"
       style="color:#000000;display:inline;overflow:visible;visibility:visible;fill:#afea2c;fill-opacity:1;fill-rule:evenodd;stroke:none;stroke-width:12;marker:none;enable-background:new" /></clipPath><clipPath
     clipPathUnits="userSpaceOnUse"
     id="clipPath4083"><path
       inkscape:connector-curvature="0"
       sodipodi:nodetypes="csssc"
       id="path4085"
       d="m 515.86743,745.01066 c 15.60192,15.62474 19.16909,37.38511 19.16909,37.38511 0,0 -21.72851,-3.5724 -37.33043,-19.19718 -15.60192,-15.62475 -19.16909,-37.38512 -19.16909,-37.38512 0,0 21.72851,3.5724 37.33043,19.19719 z"
       style="color:#000000;display:inline;overflow:visible;visibility:visible;fill:#729fcf;fill-opacity:1;fill-rule:evenodd;stroke:none;stroke-width:12;marker:none;enable-background:new" /></clipPath><clipPath
     clipPathUnits="userSpaceOnUse"
     id="clipPath4157"><path
       inkscape:connector-curvature="0"
       style="color:#000000;display:inline;overflow:visible;visibility:visible;fill:#f57900;fill-opacity:1;fill-rule:evenodd;stroke:none;stroke-width:12;marker:none;enable-background:new"
       d="m 269.47143,688.53202 c 15.60191,15.62474 19.16908,37.38511 19.16908,37.38511 0,0 -21.72851,-3.5724 -37.33043,-19.19718 -15.60192,-15.62478 -19.16908,-37.38512 -19.16908,-37.38512 0,0 21.72851,3.57241 37.33043,19.19719 z"
       id="path4159"
       sodipodi:nodetypes="csssc" /></clipPath></defs><sodipodi:namedview
   pagecolor="#ffffff"
   bordercolor="#666666"
   borderopacity="1"
   objecttolerance="10"
   gridtolerance="10"
   guidetolerance="10"
   inkscape:pageopacity="0"
   inkscape:pageshadow="2"
   inkscape:window-width="1366"
   inkscape:window-height="690"
   id="namedview37"
   showgrid="false"
   showguides="true"
   inkscape:guide-bbox="true"
   inkscape:zoom="7.1741873"
   inkscape:cx="20.276814"
   inkscape:cy="23.122281"
   inkscape:window-x="0"
   inkscape:window-y="28"
   inkscape:window-maximized="1"
   inkscape:current-layer="Capa_1" />
<path
   style="fill:#668000;stroke-width:0.0924025"
   d="m 23.712891,0.49414062 c -5.833461,0 -10.522199,1.12037758 -13.935547,3.33203128 -4.101193,2.6574037 -6.269531,6.9015131 -6.269531,12.2714841 0,7.226706 5.806265,16.88549 7.585937,19.673828 2.031747,3.183081 4.250107,6.079782 6.246094,8.15625 2.542362,2.644283 4.56815,3.875 6.373047,3.875 1.804991,0 3.829009,-1.230625 6.371093,-3.875 1.995894,-2.076376 4.214348,-4.973077 6.246094,-8.15625 1.779672,-2.788246 7.585938,-12.447122 7.585938,-19.673828 1e-4,-5.369879 -2.166205,-9.6139882 -6.267578,-12.2714841 C 34.235274,1.6145182 29.546261,0.49414062 23.712891,0.49414062 Z M 12.792969,9.1015625 h 4.429687 v 0.2207031 h -4.429687 z m 0,0.3710937 h 4.429687 v 0.2207032 h -4.429687 z m 0,0.3632813 h 4.429687 v 0.2207035 h -4.429687 z m 7.5,0.2832035 c 1.20814,0 2.188638,0.955834 2.236328,2.152343 h 0.0059 c 0,0.01512 -0.0035,0.0298 -0.0039,0.04492 8e-4,0.01473 0.0039,0.02941 0.0039,0.04492 h -0.0059 c -0.04769,1.196121 -1.028187,2.152344 -2.236328,2.152344 -1.207365,0 -2.190592,-0.956223 -2.238281,-2.152344 h -0.0039 c 0,-0.01551 0.0019,-0.03019 0.0019,-0.04492 0,-0.01512 -0.0019,-0.0298 -0.0019,-0.04492 h 0.0039 c 0.04769,-1.196509 1.030141,-2.152343 2.238281,-2.152343 z m -7.5,0.08594 h 4.429687 v 0.220703 h -4.429687 z m 12.863281,0.527341 c 0.16481,0.01787 0.327474,0.05786 0.488281,0.123047 3.389462,1.373697 5.884607,3.79984 7.115235,7.273437 0.13958,0.392762 0.143831,0.801732 0.05078,1.189453 0.165557,0.914636 -0.353943,1.987666 -1.558594,2.009766 -3.418928,0.06359 -5.262909,2.093282 -5.787109,5.369141 -0.335767,2.08982 -3.503765,1.200876 -3.171875,-0.873047 0.315218,-1.961483 1.096039,-3.615811 2.236328,-4.892578 -0.194636,0.105072 -0.414268,0.169921 -0.650391,0.169921 -0.762648,10e-7 -1.380859,-0.617033 -1.380859,-1.378906 v -5.839844 c -0.09654,-0.380355 -0.09752,-0.798275 0.02539,-1.246093 0.292439,-1.064926 1.479139,-2.029366 2.632812,-1.904297 z m -12.863281,0.05078 h 4.429687 v 0.332031 h -4.429687 z m 0,0.654297 h 4.429687 v 0.470703 h -4.429687 z m 0,0.677734 h 4.429687 v 0.9375 h -4.429687 z m 21.923828,1.025391 c 0.324135,-0.0442 0.627259,0.191518 0.667969,0.519531 0.03877,0.307851 0.08355,0.622311 0.128906,0.941406 0.133376,0.927043 0.269537,1.885661 0.273437,2.839844 0.497447,5.244322 -1.649718,6.236945 -3.646484,6.580078 v 2.63086 l 1.705078,0.878906 c 0.146168,0.07483 0.204516,0.25501 0.128906,0.402344 -0.05234,0.103518 -0.159404,0.162109 -0.267578,0.162109 -0.04614,0 -0.09291,-0.0096 -0.136719,-0.0332 l -1.779296,-0.916016 -1.941407,0.919922 c -0.04032,0.02018 -0.08391,0.0293 -0.126953,0.0293 -0.112051,0 -0.218741,-0.06252 -0.269531,-0.169922 -0.0725,-0.148497 -0.0086,-0.327487 0.140625,-0.398437 l 1.947266,-0.923828 v -2.492188 c -0.114378,0.01473 -0.226615,0.02823 -0.337891,0.04102 -1.855248,0.225654 -2.747234,0.423428 -2.740234,2.404297 0.0015,0.330727 -0.264978,0.598009 -0.595703,0.599609 h -0.002 c -0.329563,0 -0.595703,-0.26614 -0.595703,-0.595703 -0.01241,-3.131627 2.095107,-3.38787 3.789063,-3.59375 2.153793,-0.2621 4.012054,-0.489799 3.535156,-5.439453 -0.0023,-0.019 -0.002,-0.03725 -0.002,-0.05664 0,-0.87819 -0.132995,-1.80397 -0.261719,-2.699219 -0.04691,-0.325686 -0.09326,-0.647673 -0.132812,-0.96289 -0.04071,-0.327625 0.191519,-0.627259 0.519531,-0.667969 z m -21.923828,0.132813 h 4.429687 v 0.939453 h -4.429687 z m -0.751953,1.552734 h 10.363281 v 2.28125 H 21.208984 V 28.154297 H 13.236328 V 17.107422 h -1.195312 z m 13.716796,1.435547 v 3.460937 c 0,0.228756 -0.05972,0.440877 -0.158203,0.63086 0.713408,-0.655637 1.538548,-1.18061 2.460938,-1.564454 -0.488917,-0.943326 -1.305515,-1.880622 -2.302735,-2.527343 z"
   id="path2"
   inkscape:connector-curvature="0" />

<g
   id="g6"
   transform="translate(0,-464)">
</g>
<g
   id="g8"
   transform="translate(0,-464)">
</g>
<g
   id="g10"
   transform="translate(0,-464)">
</g>
<g
   id="g12"
   transform="translate(0,-464)">
</g>
<g
   id="g14"
   transform="translate(0,-464)">
</g>
<g
   id="g16"
   transform="translate(0,-464)">
</g>
<g
   id="g18"
   transform="translate(0,-464)">
</g>
<g
   id="g20"
   transform="translate(0,-464)">
</g>
<g
   id="g22"
   transform="translate(0,-464)">
</g>
<g
   id="g24"
   transform="translate(0,-464)">
</g>
<g
   id="g26"
   transform="translate(0,-464)">
</g>
<g
   id="g28"
   transform="translate(0,-464)">
</g>
<g
   id="g30"
   transform="translate(0,-464)">
</g>
<g
   id="g32"
   transform="translate(0,-464)">
</g>
<g
   id="g34"
   transform="translate(0,-464)">
</g>

</svg>