<?xml version="1.0" encoding="UTF-8" standalone="no"?>
<!-- Created with Inkscape (http://www.inkscape.org/) -->

<svg
   xmlns:dc="http://purl.org/dc/elements/1.1/"
   xmlns:cc="http://creativecommons.org/ns#"
   xmlns:rdf="http://www.w3.org/1999/02/22-rdf-syntax-ns#"
   xmlns:svg="http://www.w3.org/2000/svg"
   xmlns="http://www.w3.org/2000/svg"
   xmlns:xlink="http://www.w3.org/1999/xlink"
   xmlns:sodipodi="http://sodipodi.sourceforge.net/DTD/sodipodi-0.dtd"
   xmlns:inkscape="http://www.inkscape.org/namespaces/inkscape"
   width="48"
   height="48"
   viewBox="0 0 12.7 12.7"
   version="1.1"
   id="svg829"
   inkscape:version="0.92.3 (2405546, 2018-03-11)"
   sodipodi:docname="orca.svg">
  <defs
     id="defs823">
    <linearGradient
       id="linearGradient980">
      <stop
         offset="0"
         style="stop-color:#1a1a1a;stop-opacity:1"
         id="stop976" />
      <stop
         offset="1"
         style="stop-color:#4d4d4d;stop-opacity:1"
         id="stop978" />
    </linearGradient>
    <linearGradient
       id="linearGradient946">
      <stop
         offset="0"
         style="stop-color:#00000b;stop-opacity:1"
         id="stop942" />
      <stop
         offset="1"
         style="stop-color:#000000;stop-opacity:0.02671756"
         id="stop944" />
    </linearGradient>
    <linearGradient
       id="linearGradient4185"
       x1="5.4861002"
       x2="12.297"
       y1="32.174"
       y2="27.666"
       gradientTransform="matrix(0.34155062,0,0,0.31043562,15.511612,276.0496)"
       gradientUnits="userSpaceOnUse"
       xlink:href="#linearGradient4152" />
    <linearGradient
       id="linearGradient4152">
      <stop
         id="stop4154"
         style="stop-color:#788492"
         offset="0" />
      <stop
         id="stop4156"
         style="stop-color:#fafafa"
         offset="1" />
    </linearGradient>
    <linearGradient
       id="linearGradient4158"
       x1="16.921"
       x2="14.717"
       y1="41.527"
       y2="27.556"
       gradientTransform="matrix(0.26458333,0,0,0.26458333,16.605629,278.40026)"
       gradientUnits="userSpaceOnUse"
       xlink:href="#linearGradient4152" />
    <linearGradient
       id="linearGradient4185-3"
       x1="5.4861002"
       x2="12.297"
       y1="32.174"
       y2="27.666"
       gradientTransform="matrix(0.251381,0,0,0.22848037,0.94333226,281.67774)"
       gradientUnits="userSpaceOnUse"
       xlink:href="#linearGradient4152" />
    <linearGradient
       id="linearGradient4158-5"
       x1="16.921"
       x2="14.717"
       y1="41.527"
       y2="27.556"
       gradientTransform="matrix(0.19473313,0,0,0.19473313,1.748528,283.40783)"
       gradientUnits="userSpaceOnUse"
       xlink:href="#linearGradient4152" />
    <linearGradient
       inkscape:collect="always"
       xlink:href="#linearGradient946"
       id="linearGradient966"
       gradientUnits="userSpaceOnUse"
       x1="3.0283525"
       y1="285.67776"
       x2="11.830089"
       y2="296.06189" />
    <linearGradient
       inkscape:collect="always"
       xlink:href="#linearGradient980"
       id="linearGradient974"
       x1="3.667397"
       y1="286.0928"
       x2="11.348486"
       y2="293.86227"
       gradientUnits="userSpaceOnUse" />
    <linearGradient
       inkscape:collect="always"
       xlink:href="#linearGradient980"
       id="linearGradient988"
       x1="4.013514"
       y1="287.62686"
       x2="6.8775444"
       y2="289.37167"
       gradientUnits="userSpaceOnUse" />
  </defs>
  <sodipodi:namedview
     id="base"
     pagecolor="#ffffff"
     bordercolor="#666666"
     borderopacity="1.0"
     inkscape:pageopacity="0.0"
     inkscape:pageshadow="2"
     inkscape:zoom="10.625"
     inkscape:cx="24"
     inkscape:cy="24"
     inkscape:document-units="mm"
     inkscape:current-layer="layer1"
     showgrid="false"
     showguides="true"
     inkscape:guide-bbox="true"
     inkscape:window-width="1366"
     inkscape:window-height="719"
     inkscape:window-x="0"
     inkscape:window-y="25"
     inkscape:window-maximized="1"
     scale-x="1.9"
     units="px"
     inkscape:snap-global="true"
     inkscape:snap-smooth-nodes="true" />
  <metadata
     id="metadata826">
    <rdf:RDF>
      <cc:Work
         rdf:about="">
        <dc:format>image/svg+xml</dc:format>
        <dc:type
           rdf:resource="http://purl.org/dc/dcmitype/StillImage" />
        <dc:title />
      </cc:Work>
    </rdf:RDF>
  </metadata>
  <g
     inkscape:label="Capa 1"
     inkscape:groupmode="layer"
     id="layer1"
     transform="translate(0,-284.3)">
    <path
       inkscape:connector-curvature="0"
       style="fill:#c87137;stroke-width:0.02444816"
       d="m 6.3502606,284.39147 c -1.5434371,0 -2.7839991,0.29643 -3.6871141,0.8816 -1.085107,0.7031 -1.658813,1.82603 -1.658813,3.24683 0,1.91207 1.536241,4.46762 2.007112,5.20537 0.537567,0.84219 1.1245079,1.60861 1.6526131,2.158 0.6726658,0.69964 1.2086558,1.02527 1.686202,1.02527 0.47757,0 1.013092,-0.32561 1.685685,-1.02527 0.5280801,-0.54937 1.115046,-1.31579 1.6526121,-2.158 0.4708713,-0.73773 2.0071123,-3.2933 2.0071123,-5.20537 2.4e-5,-1.42078 -0.573141,-2.5437 -1.658296,-3.24683 -0.9030665,-0.58517 -2.1437014,-0.8816 -3.6871134,-0.8816 z"
       id="path830" />
    <path
       style="fill:url(#linearGradient966);fill-opacity:1;stroke:none;stroke-width:0.26458332px;stroke-linecap:butt;stroke-linejoin:miter;stroke-opacity:1;opacity:0.5"
       d="m 7.9778073,295.93236 c 0.0211,-0.0215 0.03702,-0.0269 0.05839,-0.0491 0.52808,-0.54937 1.115046,-1.3158 1.652612,-2.15801 0.235436,-0.36886 0.7368537,-1.19202 1.1797717,-2.16214 0.221461,-0.48506 0.428432,-1.00704 0.57981,-1.52704 0.151382,-0.51999 0.247531,-1.03817 0.247531,-1.51618 3e-6,-0.20529 -0.03827,-0.38991 -0.06201,-0.5824 l -2.3977847,-2.39778 -1.441773,0.47852 -1.618505,1.71824 -2.5404137,1.17047 -1.120345,0.69712 -0.482658,0.3824 z"
       id="path932"
       inkscape:connector-curvature="0" />
    <path
       style="opacity:0.5;fill:#000000;stroke-width:0.02444816"
       d="m 1.0384395,288.19898 c -0.0072,0.10928 -0.03411,0.20779 -0.03411,0.32091 0,1.91207 1.536758,4.46762 2.007629,5.20537 0.537567,0.84219 1.123991,1.60861 1.6520961,2.15801 0.6726659,0.69963 1.2086559,1.02526 1.6862021,1.02526 0.47757,0 1.0130909,-0.32561 1.685685,-1.02526 0.52808,-0.54938 1.115046,-1.3158 1.6526121,-2.15801 0.4708712,-0.73773 2.0071122,-3.2933 2.0071122,-5.20537 2e-6,-0.11312 -0.02687,-0.21162 -0.03411,-0.32091 -0.0221,0.42126 -0.08232,0.85937 -0.212907,1.30793 -0.15138,0.52 -0.358349,1.04198 -0.579809,1.52704 -0.442919,0.97012 -0.9448536,1.79328 -1.1802891,2.16214 -0.5375664,0.84222 -1.1245324,1.60863 -1.6526124,2.15801 -0.3362971,0.34983 -0.6380559,0.60629 -0.915707,0.77514 -0.2776498,0.16886 -0.5311929,0.25012 -0.769978,0.25012 -0.238773,0 -0.491689,-0.0813 -0.7694621,-0.25012 -0.2777738,-0.16886 -0.5804069,-0.42532 -0.9167399,-0.77514 -0.528102,-0.5494 -1.114526,-1.31582 -1.652093,-2.15801 -0.235436,-0.36887 -0.737371,-1.19203 -1.18029,-2.16214 -0.221459,-0.48506 -0.428429,-1.00704 -0.579809,-1.52704 -0.130586,-0.44856 -0.191331,-0.88667 -0.213424,-1.30793 z"
       id="path879"
       inkscape:connector-curvature="0" />
    <ellipse
       style="opacity:0.65;fill:#6c5367;fill-opacity:0;fill-rule:nonzero;stroke:none;stroke-width:0.26499999;stroke-miterlimit:4;stroke-dasharray:none;stroke-opacity:1"
       id="path881"
       cx="22.749981"
       cy="285.34326"
       rx="8.7337389"
       ry="7.7828884" />
    <path
       id="path2498"
       d="m 2.0320068,289.98658 c 1.2829992,0.28176 3.1616879,-0.11443 3.9721676,-0.42933 1.5876784,-0.61688 2.2495565,0.22148 2.4668787,0.32816 0.3367328,0.2104 -0.6939898,0.78598 -0.6286567,1.25459 0.036262,0.26014 0.1814916,0.3872 0.1814916,0.3872 0.2843489,-0.58709 1.1831007,-0.34625 1.13136,-0.95713 0.6823666,0.28085 0.8287475,-0.16646 1.620494,-0.0774 -0.111894,-0.12425 -0.256309,-0.30935 -0.566792,-0.40635 -0.33093,-0.0905 -0.8903405,-0.0778 -1.035611,-0.38578 -0.026524,-0.34826 -0.019296,-2.20622 -1.1720992,-2.7741 -0.1684225,-0.24741 0.013328,-0.59993 0.3411143,-0.84075 0.296384,-0.21776 0.7416021,-0.41829 0.8939806,-0.5462 -0.6898616,-0.007 -1.3770554,0.1522 -2.0497607,0.41759 -0.350831,0.13842 -0.6597558,0.33744 -0.8786941,0.41191 -1.9767365,-0.28587 -4.1558007,0.90393 -4.3756539,2.9918 -0.017753,0.16847 -0.014228,0.5736 0.1000479,0.62581 z"
       style="fill:url(#linearGradient974);fill-opacity:1;fill-rule:evenodd;stroke:none;stroke-width:0.166293"
       inkscape:connector-curvature="0" />
    <path
       id="path4148"
       d="m 3.3384844,290.01517 c 1.2441888,0.0358 1.9329701,-0.36707 2.7329455,-0.52934 1.3875411,-0.55367 2.0911658,0.10375 2.3996232,0.39958 0.033746,0.0457 0.033429,-0.31009 -0.3314359,-0.54406 -1.4670415,-0.68827 0.3949388,-0.69442 0.2960528,-0.94715 -0.1137685,-0.29077 -1.3558484,-0.12394 -1.5725479,-0.0494 -0.778952,0.26786 -1.0528441,0.70393 -1.4487754,0.78512 -0.7291972,0.13873 -1.2925801,-0.25514 -1.7536109,0.32057 -0.9113279,0.66729 -0.4069282,0.43649 -0.3222514,0.5647 z"
       style="fill:url(#linearGradient4158-5);fill-rule:evenodd;stroke-width:0.19473313"
       inkscape:connector-curvature="0"
       sodipodi:nodetypes="ccccccccc" />
    <path
       id="path4168"
       d="m 3.2731186,288.34213 c -0.1312067,-0.18661 0.512071,-0.84783 0.7403955,-0.71528 0.1396391,0.20259 -0.4498529,0.95369 -0.7403955,0.71528 z"
       style="fill:url(#linearGradient4185-3);fill-rule:evenodd;stroke-width:0.19473313"
       inkscape:connector-curvature="0" />
    <path
       id="path4275"
       d="m 5.5012559,288.59126 c 0.5293031,0.35299 1.8316398,1.433 1.2132254,1.59409 -2.0682611,-0.0761 -1.7104769,-1.00137 -2.2390414,-1.1443 -0.2850513,-0.289 0.7398309,-0.58375 1.0257177,-0.44979 z"
       style="fill:url(#linearGradient988);fill-opacity:1;fill-rule:evenodd;stroke:none;stroke-width:0.18839267"
       inkscape:connector-curvature="0" />
  </g>
</svg>
