<svg xmlns="http://www.w3.org/2000/svg" xmlns:xlink="http://www.w3.org/1999/xlink" width="48" height="48" viewBox="0 0 12.7 12.7"><defs><radialGradient gradientUnits="userSpaceOnUse" gradientTransform="matrix(.43919 0 0 .4549 -.07 279.51)" r="1.75" cy="23.08" cx="15.07" id="b"><stop offset="0" stop-color="#00000c"/><stop offset="1" stop-opacity="0"/></radialGradient><radialGradient id="d" cx="15.07" cy="23.08" r="1.75" gradientTransform="matrix(.43919 0 0 .4549 -.07 279.51)" gradientUnits="userSpaceOnUse"><stop offset="0" stop-color="#fff"/><stop offset="1" stop-color="#fff" stop-opacity="0"/></radialGradient><linearGradient id="a"><stop offset="0" stop-color="#fff"/><stop offset="1" stop-color="#fff" stop-opacity="0"/></linearGradient><linearGradient xlink:href="#b" id="c" gradientUnits="userSpaceOnUse" x1="4.98" y1="289.22" x2="13.57" y2="295.05"/></defs><g transform="translate(0 -284.3)"><path d="M6.35 284.4c-1.54 0-2.78.29-3.69.87A3.67 3.67 0 0 0 1 288.52c0 1.91 1.54 4.47 2.01 5.2.54.85 1.13 1.61 1.65 2.16.68.7 1.21 1.03 1.69 1.03s1.01-.33 1.69-1.03c.52-.55 1.11-1.31 1.65-2.15.47-.74 2-3.3 2-5.21 0-1.42-.57-2.54-1.65-3.25a6.75 6.75 0 0 0-3.69-.88z" fill="#006680"/><path d="M7.57 296.28c.15-.13.3-.22.47-.4.52-.55 1.11-1.31 1.65-2.15.23-.37.74-1.2 1.18-2.17.22-.48.43-1 .58-1.52.01-.05 0-.1.02-.15l-2.53-2.53-4.18 6.05z" opacity=".65" fill="url(#c)"/><path d="M6.35 284.4c-1.54 0-2.78.29-3.69.87A3.67 3.67 0 0 0 1 288.52c0 1.91 1.54 4.47 2.01 5.2.54.85 1.13 1.61 1.65 2.16.68.7 1.21 1.03 1.69 1.03s1.01-.33 1.69-1.03c.52-.55 1.11-1.31 1.65-2.15.47-.74 2-3.3 2-5.21 0-1.42-.57-2.54-1.65-3.25a6.75 6.75 0 0 0-3.69-.88zm0 .03c.56.02 1.09.07 1.55.18a5.82 5.82 0 0 1 1.6.66 3.65 3.65 0 0 1 1.24 1.36c.14.27.25.57.32.88a4.61 4.61 0 0 1-.14 2.53c-.15.52-.36 1.04-.58 1.52-.44.97-.95 1.8-1.18 2.17-.54.84-1.13 1.6-1.65 2.15-.34.35-.64.61-.92.78a.96.96 0 0 1-.24.1.96.96 0 0 1-.24-.1 4.76 4.76 0 0 1-.92-.78 14.41 14.41 0 0 1-1.65-2.15c-.23-.37-.74-1.2-1.18-2.17-.22-.48-.43-1-.58-1.52a4.6 4.6 0 0 1-.14-2.52 3.73 3.73 0 0 1 .84-1.64 3.65 3.65 0 0 1 1.45-1c.27-.1.56-.2.87-.27.46-.1 1-.16 1.55-.18z" opacity=".2"/><path d="M6.38 286.64a2.4 2.4 0 0 0-.65 4.72 1.2 1.07 0 0 0-.56.92l2.4-.02a1.2 1.07 0 0 0-.56-.9 2.4 2.4 0 0 0-.63-4.72zm0 1.32a1.08 1.08 0 1 1 0 2.16 1.08 1.08 0 0 1 0-2.16zm0 .84c-.13 0-.24.1-.24.24 0 .13.1.24.24.24.13 0 .24-.1.24-.24 0-.13-.1-.24-.24-.24z" fill="#1a1a1a"/><path d="M6.44 291.69c-.93 0-1.68.62-1.68 1.38v.02h3.36v-.02c0-.76-.75-1.38-1.68-1.38z" fill="#b3b3b3"/><path d="M9.72 289.43a3.2 3.2 0 0 1-3.29 3.11 3.2 3.2 0 0 1-3.28-3.11 3.2 3.2 0 0 1 3.28-3.12 3.2 3.2 0 0 1 3.29 3.12z" color="#000" fill="#e6e6e6" fill-rule="evenodd"/><path d="M7.95 289.6a1.51 1.51 0 1 1-3.03 0 1.51 1.51 0 1 1 3.03 0z" color="#000" fill="#1a1d1f" fill-rule="evenodd" stroke="#080a0a" stroke-width=".17" stroke-linecap="round" stroke-miterlimit="4.55"/><path d="M7.27 289.93a.76.79 0 1 1-1.52 0 .76.79 0 1 1 1.52 0z" color="#000" opacity=".38" fill="url(#d)"/><path d="M6.86 289.6a.42.42 0 1 1-.84 0 .42.42 0 1 1 .84 0z" color="#000"/><rect ry=".46" rx=".35" y="292.95" x="4.64" height=".46" width="3.63" fill="#4d4d4d"/></g></svg>