<?xml version="1.0" encoding="UTF-8" standalone="no"?>
<!-- Generator: Adobe Illustrator 19.0.0, SVG Export Plug-In . SVG Version: 6.00 Build 0)  -->

<svg
   xmlns:dc="http://purl.org/dc/elements/1.1/"
   xmlns:cc="http://creativecommons.org/ns#"
   xmlns:rdf="http://www.w3.org/1999/02/22-rdf-syntax-ns#"
   xmlns:svg="http://www.w3.org/2000/svg"
   xmlns="http://www.w3.org/2000/svg"
   xmlns:xlink="http://www.w3.org/1999/xlink"
   xmlns:sodipodi="http://sodipodi.sourceforge.net/DTD/sodipodi-0.dtd"
   xmlns:inkscape="http://www.inkscape.org/namespaces/inkscape"
   version="1.1"
   id="Capa_1"
   x="0px"
   y="0px"
   viewBox="0 0 48 48"
   xml:space="preserve"
   sodipodi:docname="postscript-viewer.svg"
   width="48"
   height="48"
   inkscape:version="0.92.3 (2405546, 2018-03-11)"><metadata
   id="metadata41"><rdf:RDF><cc:Work
       rdf:about=""><dc:format>image/svg+xml</dc:format><dc:type
         rdf:resource="http://purl.org/dc/dcmitype/StillImage" /><dc:title /></cc:Work></rdf:RDF></metadata><defs
   id="defs39"><linearGradient
     inkscape:collect="always"
     id="linearGradient853"><stop
       style="stop-color:#000000;stop-opacity:1;"
       offset="0"
       id="stop849" /><stop
       style="stop-color:#000000;stop-opacity:0;"
       offset="1"
       id="stop851" /></linearGradient><clipPath
     clipPathUnits="userSpaceOnUse"
     id="clipPath1443"><rect
       ry="1.4527029"
       y="3"
       x="2"
       height="43"
       width="43"
       id="rect1445"
       style="fill:#4dc7c9;fill-opacity:1;stroke:none;stroke-width:0.19905733;stroke-linejoin:round;stroke-miterlimit:4;stroke-dasharray:none;stroke-opacity:0" /></clipPath><linearGradient
     inkscape:collect="always"
     xlink:href="#linearGradient853"
     id="linearGradient875"
     gradientUnits="userSpaceOnUse"
     x1="13.741177"
     y1="10.40551"
     x2="42.588234"
     y2="39.676098" /></defs><sodipodi:namedview
   pagecolor="#ffffff"
   bordercolor="#666666"
   borderopacity="1"
   objecttolerance="10"
   gridtolerance="10"
   guidetolerance="10"
   inkscape:pageopacity="0"
   inkscape:pageshadow="2"
   inkscape:window-width="1366"
   inkscape:window-height="719"
   id="namedview37"
   showgrid="false"
   showguides="true"
   inkscape:guide-bbox="true"
   inkscape:zoom="3.7565048"
   inkscape:cx="24"
   inkscape:cy="24"
   inkscape:window-x="0"
   inkscape:window-y="25"
   inkscape:window-maximized="1"
   inkscape:current-layer="Capa_1"
   inkscape:snap-global="true"
   inkscape:snap-smooth-nodes="true" />


<g
   id="g6"
   transform="translate(0,-464)">
</g>
<g
   id="g8"
   transform="translate(0,-464)">
</g>
<g
   id="g10"
   transform="translate(0,-464)">
</g>
<g
   id="g12"
   transform="translate(0,-464)">
</g>
<g
   id="g14"
   transform="translate(0,-464)">
</g>
<g
   id="g16"
   transform="translate(0,-464)">
</g>
<g
   id="g18"
   transform="translate(0,-464)">
</g>
<g
   id="g20"
   transform="translate(0,-464)">
</g>
<g
   id="g22"
   transform="translate(0,-464)">
</g>
<g
   id="g24"
   transform="translate(0,-464)">
</g>
<g
   id="g26"
   transform="translate(0,-464)">
</g>
<g
   id="g28"
   transform="translate(0,-464)">
</g>
<g
   id="g30"
   transform="translate(0,-464)">
</g>
<g
   id="g32"
   transform="translate(0,-464)">
</g>
<g
   id="g34"
   transform="translate(0,-464)">
</g>
<g
   id="g887"><path
     inkscape:connector-curvature="0"
     id="path852-3"
     d="m 24.000976,0.3457035 c -5.833461,0 -10.522199,1.120377 -13.935547,3.332031 -4.101192,2.657404 -6.269531,6.9015125 -6.269531,12.2714835 0,7.226706 5.806266,16.88549 7.585937,19.673829 2.031747,3.183082 4.250107,6.079783 6.246094,8.15625 2.542362,2.644284 4.56815,3.875 6.373047,3.875 1.804991,0 3.829009,-1.230626 6.371093,-3.875 1.995894,-2.076377 4.214348,-4.973078 6.246094,-8.15625 C 38.397835,32.834801 44.2041,23.175923 44.2041,15.949219 44.20419,10.57934 42.0379,6.3352305 37.936523,3.6777345 34.523359,1.4660805 29.834346,0.3457035 24.000976,0.3457035 Z"
     style="fill:#ff2a2a;stroke-width:0.0924025" /><path
     inkscape:connector-curvature="0"
     id="path847"
     d="m 27.845703,45.916016 c 0.803923,-0.597257 1.598118,-1.172134 2.525391,-2.136719 1.995894,-2.076377 4.214347,-4.973078 6.246094,-8.15625 0.889836,-1.394123 2.786912,-4.505287 4.460937,-8.171875 0.546107,-1.196128 0.973601,-2.491781 1.429687,-3.765625 L 24.564453,5.7402344 22.720703,5.5175781 c 0,0 -1.449472,3.3300781 -0.884765,3.3300781 0.564705,0 1.035156,2.9179688 1.035156,2.9179688 l 1.810547,1.5625 -3.78711,8.412109 -0.642578,4.001954 -2.578125,1.255859 -4.121094,1.990234 v 2.634766 z"
     style="fill:url(#linearGradient875);fill-opacity:1;stroke:none;stroke-width:1px;stroke-linecap:butt;stroke-linejoin:miter;stroke-opacity:1;opacity:0.85" /><path
     id="path825"
     d="m 23.766892,5.3428771 c -0.218119,0 -0.810265,0.097715 -1.045759,0.1740268 -0.593076,0.1955695 -0.913536,0.6483831 -1.168693,1.2373467 -0.727517,1.6813719 0.272587,4.5460454 1.299612,6.7551164 -0.878415,3.450547 -2.351661,7.581114 -3.900435,10.933353 -3.903258,1.765996 -5.975761,3.500946 -6.162785,5.155346 -0.06813,0.602248 0.0761,1.485853 1.147938,2.281507 0.293568,0.216889 0.637765,0.330491 0.996264,0.330491 0.90128,0 1.811166,-0.680954 2.864258,-2.144202 0.768671,-1.066361 1.592898,-2.519593 2.453937,-4.323529 2.757794,-1.190749 6.169409,-2.26544 9.090907,-2.869048 1.626507,1.542836 3.082467,2.323019 4.336302,2.323019 0.922769,0 1.712879,-0.417763 2.286296,-1.210205 0.596277,-0.82448 0.733401,-1.564485 0.402338,-2.196889 -0.397825,-0.763645 -1.377829,-1.135164 -2.988792,-1.135164 -0.946546,0 -2.107409,0.121713 -3.458183,0.362422 -1.884868,-1.974509 -3.850553,-4.859071 -5.238367,-7.689113 0.146784,-0.608643 0.285495,-1.219189 0.407126,-1.832868 0.166444,-0.834954 0.310245,-1.6798424 0.381582,-2.5289784 0.07362,-0.8743151 0.0707,-1.7794231 -0.394354,-2.557715 C 24.826415,5.9885707 24.307385,5.3428771 23.766892,5.3428771 Z m -0.368809,1.8360627 c 0.04481,-0.012358 1.076629,1.1208318 0.09899,3.2713852 C 22.02878,8.9664696 23.29703,7.2118748 23.398083,7.1789398 Z m 0.625857,8.6071422 c 1.155979,2.052214 2.545915,4.044584 3.935562,5.63911 -2.196726,0.509375 -4.538202,1.228716 -6.689657,2.053196 1.044863,-2.459199 2.016977,-5.175979 2.754095,-7.692306 z m 9.557106,6.584283 c 0.915454,0 1.084454,0.132218 1.210206,0.199571 -0.02239,0.07138 -0.08219,0.208255 -0.236295,0.421496 -0.317344,0.438069 -1.004807,0.448638 -1.245328,0.448638 -0.550096,0 -0.754293,-0.323699 -1.593383,-0.961139 0.69139,-0.08682 1.343969,-0.108566 1.8648,-0.108566 z m -15.90669,4.628474 c -1.669035,3.042231 -2.56487,3.444835 -2.718971,3.493309 -0.481504,-0.363519 -0.454359,-0.609889 -0.443848,-0.704089 0.06402,-0.566103 0.961522,-1.568749 3.162819,-2.78922 z"
     style="fill:#f9f9f9;fill-opacity:1;stroke-width:0.42929673"
     inkscape:connector-curvature="0" /><path
     inkscape:connector-curvature="0"
     id="path4588"
     d="m 24.000977,0.3457035 c -5.833461,0 -10.522199,1.1203783 -13.935547,3.3320313 -4.101193,2.657404 -6.269532,6.9015122 -6.269532,12.2714832 0,7.226706 5.806266,16.885489 7.585938,19.673828 2.031747,3.183082 4.250107,6.079783 6.246094,8.15625 2.542362,2.644284 4.56815,3.875 6.373047,3.875 1.804991,0 3.829009,-1.230626 6.371093,-3.875 1.995894,-2.076377 4.214348,-4.973078 6.246094,-8.15625 C 38.397835,32.8348 44.204102,23.175923 44.204102,15.94922 44.204194,10.57934 42.037898,6.3352309 37.936524,3.6777348 34.52336,1.4660818 29.834346,0.3457035 24.000977,0.3457035 Z m 0,0.14453126 c 2.112445,0.084873 4.119293,0.27168527 5.875,0.69140624 1.164035,0.2782756 2.252954,0.6269196 3.263671,1.0429688 1.010718,0.4160492 1.943585,0.9002116 2.796876,1.453125 1.025343,0.6643739 1.929139,1.4277032 2.708984,2.2832031 0.779844,0.8554999 1.435774,1.803713 1.96289,2.8359375 0.527119,1.0322245 0.926199,2.1492026 1.19336,3.3437496 0.267161,1.194547 0.402367,2.466124 0.402344,3.808593 0,1.806676 -0.363402,3.765127 -0.935547,5.730469 -0.572145,1.965342 -1.352441,3.93819 -2.189453,5.771484 -1.674026,3.66659 -3.571102,6.777752 -4.460938,8.171875 -2.031746,3.183172 -4.2502,6.079876 -6.246094,8.15625 -1.271042,1.322187 -2.413501,2.291486 -3.46289,2.929688 -0.319034,0.194026 -0.618451,0.306539 -0.910156,0.390625 -0.291517,-0.08404 -0.58956,-0.19692 -0.908204,-0.390625 -1.049854,-0.638216 -2.191709,-1.607546 -3.46289,-2.929688 -1.995987,-2.076467 -4.214347,-4.973168 -6.246094,-8.15625 C 12.492,34.228875 10.594924,31.117747 8.920898,27.45117 8.083886,25.617882 7.30359,23.645019 6.731445,21.679685 6.159301,19.714352 5.795899,17.755894 5.795898,15.949218 c 0,-1.342492 0.134981,-2.614035 0.402344,-3.808593 C 6.465605,10.946066 6.866188,9.8291 7.393555,8.7968754 7.920922,7.7646508 8.576433,6.8164264 9.356445,5.9609379 10.136457,5.1054494 11.040132,4.3420858 12.06543,3.6777348 c 0.853337,-0.5529133 1.786156,-1.0370759 2.796875,-1.453125 1.010719,-0.4160492 2.099654,-0.7646932 3.263672,-1.0429688 1.755679,-0.41972098 3.762539,-0.60653321 5.875,-0.69140624 z"
     style="opacity:0.2;fill:#000000;stroke-width:0.0924025" /></g></svg>