<?xml version="1.0" encoding="UTF-8" standalone="no"?>
<!-- Created with Inkscape (http://www.inkscape.org/) -->

<svg
   xmlns:dc="http://purl.org/dc/elements/1.1/"
   xmlns:cc="http://creativecommons.org/ns#"
   xmlns:rdf="http://www.w3.org/1999/02/22-rdf-syntax-ns#"
   xmlns:svg="http://www.w3.org/2000/svg"
   xmlns="http://www.w3.org/2000/svg"
   xmlns:xlink="http://www.w3.org/1999/xlink"
   xmlns:sodipodi="http://sodipodi.sourceforge.net/DTD/sodipodi-0.dtd"
   xmlns:inkscape="http://www.inkscape.org/namespaces/inkscape"
   width="48"
   height="48"
   viewBox="0 0 12.7 12.7"
   version="1.1"
   id="svg829"
   inkscape:version="0.92.3 (2405546, 2018-03-11)"
   sodipodi:docname="preferences-desktop-locale2.svg">
  <defs
     id="defs823">
    <linearGradient
       id="linearGradient3326"
       x1="32.035999"
       x2="32.035999"
       y1="19"
       y2="47.012001"
       gradientTransform="matrix(0.26458333,0,0,0.26458333,-1.8520569,281.91877)"
       gradientUnits="userSpaceOnUse">
      <stop
         id="stop3311"
         style="stop-color:#f6f6f6"
         offset="0" />
      <stop
         id="stop3313"
         style="stop-color:#d2d2d2"
         offset="1" />
    </linearGradient>
    <linearGradient
       id="linearGradient3328"
       x1="25.923"
       x2="25.923"
       y1="19"
       y2="47.044998"
       gradientTransform="matrix(0.26458333,0,0,0.26458333,-1.8520569,281.91877)"
       gradientUnits="userSpaceOnUse">
      <stop
         id="stop3399"
         style="stop-color:#aaa"
         offset="0" />
      <stop
         id="stop3401"
         style="stop-color:#8c8c8c"
         offset="1" />
    </linearGradient>
    <radialGradient
       id="radialGradient5145"
       cx="23.860001"
       cy="13.067"
       r="18.098"
       gradientTransform="matrix(-0.49046732,0,0,-0.2688524,18.252058,289.78812)"
       gradientUnits="userSpaceOnUse">
      <stop
         id="stop14112"
         style="stop-color:#557695"
         offset="0" />
      <stop
         id="stop14114"
         style="stop-color:#15395c"
         offset="1" />
    </radialGradient>
    <radialGradient
       id="radialGradient5147"
       cx="62.224998"
       cy="-3.4419999"
       r="10.081"
       gradientTransform="matrix(1.3261564,0,0,1.2336199,51.020942,-10.076712)"
       gradientUnits="userSpaceOnUse">
      <stop
         id="stop14118"
         style="stop-color:#9e9e9e"
         offset="0" />
      <stop
         id="stop14120"
         style="stop-color:#9e9e9e;stop-opacity:0"
         offset="1" />
    </radialGradient>
    <radialGradient
       inkscape:collect="always"
       xlink:href="#radialGradient5147"
       id="radialGradient887"
       gradientUnits="userSpaceOnUse"
       gradientTransform="matrix(0.35087888,0,0,0.32639526,-2.3757094,281.63387)"
       cx="62.224998"
       cy="-3.4419999"
       r="10.081" />
    <radialGradient
       inkscape:collect="always"
       xlink:href="#radialGradient5147"
       id="radialGradient889"
       gradientUnits="userSpaceOnUse"
       gradientTransform="matrix(0.35087888,0,0,0.32639526,-2.3757094,281.63387)"
       cx="62.224998"
       cy="-3.4419999"
       r="10.081" />
    <radialGradient
       inkscape:collect="always"
       xlink:href="#radialGradient5147"
       id="radialGradient891"
       gradientUnits="userSpaceOnUse"
       gradientTransform="matrix(0.35087888,0,0,0.32639526,-2.3757094,281.63387)"
       cx="62.224998"
       cy="-3.4419999"
       r="10.081" />
    <radialGradient
       inkscape:collect="always"
       xlink:href="#radialGradient5147"
       id="radialGradient895"
       gradientUnits="userSpaceOnUse"
       gradientTransform="matrix(0.35087888,0,0,0.32639526,-2.3757094,281.63387)"
       cx="62.224998"
       cy="-3.4419999"
       r="10.081" />
    <radialGradient
       inkscape:collect="always"
       xlink:href="#radialGradient5147"
       id="radialGradient899"
       gradientUnits="userSpaceOnUse"
       gradientTransform="matrix(0.35087888,0,0,0.32639526,-2.3757094,281.63387)"
       cx="62.224998"
       cy="-3.4419999"
       r="10.081" />
    <radialGradient
       inkscape:collect="always"
       xlink:href="#radialGradient5147"
       id="radialGradient909"
       gradientUnits="userSpaceOnUse"
       gradientTransform="matrix(0.35087888,0,0,0.32639526,-2.3757094,281.63387)"
       cx="62.224998"
       cy="-3.4419999"
       r="10.081" />
  </defs>
  <sodipodi:namedview
     id="base"
     pagecolor="#ffffff"
     bordercolor="#666666"
     borderopacity="1.0"
     inkscape:pageopacity="0.0"
     inkscape:pageshadow="2"
     inkscape:zoom="3.7565048"
     inkscape:cx="24"
     inkscape:cy="41.434117"
     inkscape:document-units="mm"
     inkscape:current-layer="layer1"
     showgrid="false"
     showguides="true"
     inkscape:guide-bbox="true"
     inkscape:window-width="1366"
     inkscape:window-height="719"
     inkscape:window-x="0"
     inkscape:window-y="25"
     inkscape:window-maximized="1"
     scale-x="1.9"
     units="px"
     inkscape:snap-global="true"
     inkscape:measure-start="32.0941,29.8353"
     inkscape:measure-end="0,0"
     inkscape:snap-smooth-nodes="true" />
  <metadata
     id="metadata826">
    <rdf:RDF>
      <cc:Work
         rdf:about="">
        <dc:format>image/svg+xml</dc:format>
        <dc:type
           rdf:resource="http://purl.org/dc/dcmitype/StillImage" />
        <dc:title></dc:title>
      </cc:Work>
    </rdf:RDF>
  </metadata>
  <g
     inkscape:label="Capa 1"
     inkscape:groupmode="layer"
     id="layer1"
     transform="translate(0,-284.3)">
    <g
       id="g919">
      <path
         inkscape:connector-curvature="0"
         id="path849"
         d="m 6.3501303,284.41058 c -1.543437,0 -2.7839987,0.29643 -3.6871137,0.8816 -1.085108,0.70311 -1.658814,1.82603 -1.658814,3.24683 0,1.91207 1.536241,4.46763 2.007113,5.20538 0.537566,0.84219 1.124507,1.60861 1.652612,2.15801 0.6726667,0.69963 1.2086567,1.02526 1.6862027,1.02526 0.47757,0 1.013091,-0.32561 1.685685,-1.02526 0.52808,-0.54938 1.115046,-1.31581 1.652612,-2.15801 0.4708717,-0.73773 2.0071117,-3.2933 2.0071117,-5.20538 2.5e-5,-1.42077 -0.573141,-2.5437 -1.658296,-3.24682 -0.9030657,-0.58518 -2.1437007,-0.8816 -3.6871127,-0.88161 z"
         style="fill:#3d4970;stroke-width:0.02444816" />
      <path
         inkscape:connector-curvature="0"
         id="path883"
         d="m 7.4145343,285.5976 c -0.03972,0.20907 0.173856,0.32112 0.09767,0.54415 -0.06832,0.24433 -0.08827,0.43818 0.217041,0.29559 0.316913,-0.16274 0.114523,-0.28625 -0.0124,-0.49971 -0.08644,-0.14187 -0.07771,-0.40581 -0.302307,-0.34003 z"
         style="fill:#b7c4c8;stroke:url(#radialGradient909);stroke-width:0.35087892" />
      <path
         inkscape:connector-curvature="0"
         id="path873"
         d="m 9.0433753,294.58671 c 0.218422,-0.29722 0.435112,-0.51362 0.644922,-0.84233 0.235435,-0.36886 0.7373697,-1.19202 1.1802877,-2.16214 0.172143,-0.37704 0.315351,-0.78368 0.45062,-1.187 1.51e-4,-0.009 0.006,-0.017 0.01033,-0.0274 0.03529,-0.1063 0.08786,-0.20617 0.118856,-0.31265 0.09019,-0.3098 0.10499,-0.60288 0.147278,-0.9033 -0.087,-0.0662 -0.163563,-0.1379 -0.156578,-0.24185 -0.04689,-0.33519 0.06867,-0.15022 0.20102,-0.031 0.0092,-0.11081 0.05529,-0.23283 0.05529,-0.34003 8e-6,-0.35519 -0.03577,-0.69164 -0.106453,-1.00769 -0.07069,-0.31606 -0.176276,-0.61159 -0.315743,-0.8847 -0.139467,-0.27311 -0.312497,-0.52399 -0.518832,-0.75035 -0.166793,-0.18297 -0.370449,-0.33817 -0.579808,-0.48834 -0.06053,0.0886 -0.120247,0.19611 -0.1953367,0.18707 -0.147646,-0.15409 -0.422878,-0.36211 -0.03876,-0.29042 0.04602,-0.0135 0.01496,-0.0271 0.04083,-0.0413 -0.170123,-0.10669 -0.356684,-0.19908 -0.549837,-0.28577 -0.04782,-0.0174 -0.09846,-0.0242 -0.146245,-0.0429 v -5.2e-4 c -0.262044,0.054 -0.521703,0.11302 -0.728637,0.29404 0.06187,0.24969 -0.265357,0.28539 -0.408761,0.4222 -0.03827,0.0804 -0.0076,0.58512 0.162781,0.36793 0.184937,-0.24562 0.264649,0.12987 0.45992,0.16743 0.141528,-0.0455 0.159181,-0.3636 0.105937,-0.51004 0.0907,-0.14938 0.238627,-0.35604 0.430464,-0.339 -0.118981,0.18156 -0.25471,0.64613 0.124541,0.4563 0.109757,-0.002 -0.299005,0.23976 -0.323495,0.40463 -0.153446,0.16307 -0.315779,0.28809 -0.537435,0.16175 -0.106059,-0.0897 -0.159739,-0.34964 -0.226859,-0.0563 0.137811,0.23293 -0.346302,0.0153 -0.334347,0.32969 -0.101661,0.1956 -0.285114,0.27528 -0.497127,0.28939 0.07694,0.0605 0.379389,0.42334 0.07958,0.37207 -0.1919,0.0211 -0.472488,0.12941 -0.394808,0.37052 -0.08739,0.30029 0.13499,0.22493 0.271818,0.4129 0.222948,-0.0634 0.365087,-0.19999 0.401526,-0.43305 0.208645,-0.0614 0.233946,-0.29621 0.463021,-0.29146 0.228365,-0.1284 0.281549,0.23413 0.495577,0.26097 0.02244,0.12994 -0.106376,0.40746 0.14521,0.14934 0.243059,-0.1761 -0.252558,-0.40458 -0.09819,-0.44751 0.219714,0.0703 0.298554,0.27894 0.33383,0.48317 0.179035,0.30634 0.223443,0.14136 0.237711,-0.12816 0.278932,-0.12544 0.364591,0.52165 0.7591267,0.36226 0.294687,0.0611 0.191035,0.26413 -0.0057,0.38809 -0.159195,0.14982 -0.4258217,0.055 -0.6128827,-0.004 -0.179563,-0.0882 -0.419768,-0.0788 -0.515731,0.12196 -0.147948,-0.0692 -0.300734,-0.28972 -0.450618,-0.41703 -0.370339,-0.16342 -0.773046,-0.0242 -1.142049,0.076 -0.31658,0.36986 -0.697745,0.7057 -0.834058,1.18804 -0.199615,0.20302 0.172817,0.32036 -0.07751,0.49455 -0.204391,0.16307 0.03423,0.37006 0.07803,0.55759 0.192196,0.23655 0.518566,0.97692 0.817521,0.68213 0.167585,-0.25514 0.260626,0.1956 0.457853,-0.0961 0.157458,-0.12702 0.307917,0.1456 0.536918,0.0455 0.220581,0.13623 0.178309,0.33194 0.08733,0.53847 0.04955,0.17198 0.296277,0.29703 0.200504,0.5302 -0.08701,0.21723 0.18515,0.382 0.130225,0.57206 -0.182769,0.36603 -0.139556,0.81851 0.02997,1.18132 0.0907,0.21948 0.106561,0.45933 0.136943,0.69505 z m 1.3187817,-5.78001 c 0.302654,0.2685 0.405868,0.66595 0.599447,1.00459 0.287534,0.12711 0.01321,0.34336 0.141592,0.49971 0.269949,0.29326 -0.373414,0.078 -0.287837,-0.216 -0.06267,-0.38599 -0.336184,-0.64979 -0.467154,-0.98702 -0.01365,-0.1121 -0.122253,-0.22835 0.01395,-0.30128 z"
         style="fill:#b7c4c8;stroke:url(#radialGradient899);stroke-width:0.35087892" />
      <path
         inkscape:connector-curvature="0"
         id="path869"
         d="m 1.1968256,289.72086 c 0.02756,0.11409 0.02139,0.21967 0.05478,0.33434 0.03668,0.12601 0.09795,0.24434 0.14056,0.37001 0.05131,0.0355 0.119103,0.0448 0.150379,0.11265 0.14368,0.11752 0.298916,0.3498 0.504362,0.27905 0.297822,-0.0289 0.114581,0.27289 0.06356,0.42582 -0.01885,0.19302 -0.256819,0.31606 -0.165364,0.50178 -0.0039,0.0107 -0.004,0.0209 -0.0078,0.0315 0.410433,0.85692 0.85951,1.63255 1.073836,1.96835 0.283582,0.44429 0.576604,0.75706 0.871781,1.13844 0.05763,-0.0824 0.127912,-0.14799 0.269751,-0.14831 0.124293,-0.15192 0.166705,-0.39071 0.259416,-0.5762 -0.135366,-0.1712 0.05336,-0.43538 0.256315,-0.42839 0.2594437,0.0194 0.2495557,-0.28456 0.3529497,-0.45269 -0.0023,-0.24555 -0.123622,-0.52357 0.09715,-0.70797 0.166114,-0.15055 0.148742,-0.37147 0.174666,-0.57567 -0.372342,-0.23033 -0.8618877,-0.34699 -1.1565177,-0.65784 -0.05839,-0.24326 -0.241931,-0.32497 -0.474907,-0.34262 -0.09837,-0.13756 -0.08185,-0.46513 -0.253731,-0.48111 -0.221396,0.0426 -0.440104,0.0766 -0.600997,-0.11575 -0.182546,-0.24665 -0.340394,0.0636 -0.506946,0.17363 -0.156362,0.27236 -0.593875,-0.014 -0.541569,-0.32039 0.153859,-0.42415 -0.522412,0.0471 -0.244946,-0.4532 0.112682,-0.46569 -0.126691,-0.23146 -0.316777,-0.0754 z"
         style="fill:#b7c4c8;stroke:url(#radialGradient895);stroke-width:0.35087892" />
      <path
         inkscape:connector-curvature="0"
         id="path865"
         d="m 2.9615756,285.13716 c -0.09795,0.0532 -0.207577,0.096 -0.298689,0.15503 -0.271277,0.17577 -0.510374,0.37775 -0.716752,0.60409 -0.206379,0.22635 -0.379816,0.47724 -0.519349,0.75035 -0.139532,0.27311 -0.245003,0.56864 -0.315743,0.8847 -0.07074,0.31606 -0.10697,0.65249 -0.10697,1.00769 0,0.12561 0.05259,0.26795 0.06511,0.39842 0.03449,-0.0256 0.06137,-0.0556 0.09767,-0.0801 0.248528,0.0383 0.31147,-0.17855 0.497644,-0.15037 0.234035,-0.0125 0.319679,0.21245 0.452686,0.36121 0.05569,-0.21238 -0.05841,-0.51348 0.176733,-0.632 0.17938,-0.13602 0.361668,-0.27026 0.404626,-0.50591 0.0423,-0.24674 0.409992,-0.1483 0.471806,-0.39791 0.08546,-0.26092 0.480403,-0.0505 0.568958,-0.30799 0.277682,-0.26101 -0.08668,-0.18182 -0.285771,-0.19017 -0.392788,0.0404 0.03928,-0.10437 0.186552,-0.185 0.218152,0.0288 0.419669,-0.0428 0.620117,-0.11989 0.02685,0.27297 0.07822,0.4172 0.217558,0.0982 -0.271612,-0.0643 -0.03718,-0.33067 -0.305408,-0.401 -0.212289,0.0148 0.0021,-0.45124 -0.259416,-0.39998 -0.34013,0.22508 -0.03608,-0.15967 -0.313159,-0.21084 -0.218559,-0.23601 -0.271478,0.15153 -0.390157,0.29197 0.07697,0.26934 -0.251573,0.21143 -0.311609,0.43253 -0.132956,0.39855 -0.07694,-0.0287 -0.235644,-0.13074 -0.196038,-0.0786 -0.432134,-0.12029 -0.433565,-0.37827 0.262827,-0.19242 0.656924,-0.30575 0.826306,-0.60875 0.06013,-0.14378 0.0012,-0.23018 -0.09353,-0.28525 z m 4.2136967,0.80873 c -0.252512,-0.0763 -0.196408,0.46106 -0.03876,0.32195 0.231354,-0.057 0.07545,-0.16721 0.03876,-0.32195 z"
         style="fill:#b7c4c8;stroke:url(#radialGradient891);stroke-width:0.35087892" />
      <path
         inkscape:connector-curvature="0"
         id="path863"
         d="m 4.4638096,284.61058 c -0.0598,0.0126 -0.139039,0.007 -0.197404,0.0212 -0.307979,0.0736 -0.596093,0.16587 -0.863513,0.27595 -0.03624,0.0149 -0.06476,0.0366 -0.100252,0.0522 -0.01433,0.0122 -0.01827,0.0274 -0.03411,0.0393 -0.191279,0.21702 -0.01117,0.41127 0.172599,0.22066 0.01602,-0.0482 0.06508,-0.0826 0.09302,-0.12971 0.129316,0.11753 0.4684,0.29829 0.432015,0.0212 -0.04121,-0.17646 -0.266347,-0.1752 -0.404626,-0.0594 0.13052,-0.19238 0.321635,-0.35042 0.536401,-0.21497 0.280989,0.15406 0.558819,0.52549 0.7927167,0.13022 -0.2259587,-0.0271 -0.3204997,-0.20961 -0.4268477,-0.35656 z"
         style="fill:#b7c4c8;stroke:url(#radialGradient889);stroke-width:0.35087892" />
      <path
         inkscape:connector-curvature="0"
         id="path861"
         d="m 7.0135243,284.48087 c -0.230253,-0.015 -0.417779,-0.0703 -0.663525,-0.0703 -0.570361,0 -1.054062,0.0827 -1.539957,0.1633 0.05902,0.034 0.122659,0.0676 0.157613,0.10335 0.218351,0.0647 0.317147,0.34224 0.118855,0.48576 -0.25495,0.13233 0.01773,0.35002 0.07028,0.53226 0.04079,0.3174 0.317068,0.13764 0.404627,-0.0574 0.126562,-0.35465 0.531946,-0.34231 0.825272,-0.49351 0.320513,-0.16457 0.325827,-0.17047 0.478007,0.0641 0.116898,0.0672 0.507332,-0.17721 0.251148,-0.29507 -0.219262,0.009 -0.363218,0.14591 -0.179317,-0.19379 0.01853,-0.0764 0.03804,-0.15337 0.077,-0.23874 z"
         style="fill:#b7c4c8;stroke:url(#radialGradient887);stroke-width:0.35087892" />
      <path
         inkscape:connector-curvature="0"
         id="path4588"
         d="m 6.3501303,284.41058 c -1.543437,0 -2.7839987,0.29643 -3.6871137,0.8816 -1.085108,0.7031 -1.658814,1.82603 -1.658814,3.24684 0,1.91207 1.536241,4.46762 2.007113,5.20536 0.537566,0.8422 1.124507,1.60862 1.652612,2.15801 0.6726667,0.69963 1.2086567,1.02527 1.6862027,1.02527 0.47757,0 1.013091,-0.32562 1.685685,-1.02527 0.52808,-0.54937 1.115046,-1.31578 1.652612,-2.15801 0.4708707,-0.73772 2.0071117,-3.29329 2.0071117,-5.20536 2.5e-5,-1.42079 -0.573141,-2.54371 -1.658296,-3.24684 -0.9030657,-0.58517 -2.1437007,-0.8816 -3.6871127,-0.8816 z m 0,0.0382 c 0.558917,0.0225 1.089896,0.0719 1.554427,0.18293 0.307984,0.0736 0.596094,0.16587 0.863513,0.27595 0.267419,0.11009 0.51424,0.23818 0.740006,0.38448 0.271289,0.17577 0.5104177,0.37775 0.7167517,0.6041 0.206334,0.22635 0.379882,0.47723 0.519348,0.75034 0.139467,0.27311 0.245057,0.56864 0.315743,0.88471 0.07069,0.31605 0.10646,0.65249 0.106454,1.00769 0,0.47802 -0.09615,0.99618 -0.24753,1.51619 -0.15138,0.51999 -0.357833,1.04197 -0.579293,1.52704 -0.4429187,0.97011 -0.9448537,1.79328 -1.1802897,2.16214 -0.537566,0.84221 -1.124532,1.60863 -1.652612,2.158 -0.336297,0.34983 -0.638572,0.60629 -0.916223,0.77515 -0.08441,0.0513 -0.163632,0.0811 -0.240812,0.10335 -0.07713,-0.0222 -0.155988,-0.0521 -0.240296,-0.10335 -0.277774,-0.16886 -0.57989,-0.42533 -0.916223,-0.77515 -0.5281047,-0.54939 -1.1150457,-1.31581 -1.6526127,-2.158 -0.235435,-0.36888 -0.73737,-1.19203 -1.180289,-2.16214 -0.22146,-0.48507 -0.427913,-1.00705 -0.579293,-1.52704 -0.15138,-0.52001 -0.24753,-1.03817 -0.24753,-1.51619 0,-0.35521 0.03571,-0.69164 0.106453,-1.00769 0.07074,-0.31607 0.176728,-0.6116 0.31626,-0.88471 0.139533,-0.27311 0.31297,-0.52399 0.519348,-0.75034 0.206378,-0.22635 0.445476,-0.42832 0.716752,-0.6041 0.225779,-0.1463 0.472587,-0.27438 0.740007,-0.38448 0.267419,-0.11007 0.555533,-0.20233 0.8635127,-0.27595 0.464524,-0.11106 0.995506,-0.16048 1.554428,-0.18293 z"
         style="opacity:0.2;fill:#000000;stroke-width:0.02444817" />
    </g>
  </g>
</svg>
