<?xml version="1.0" encoding="UTF-8" standalone="no"?>
<!-- Created with Inkscape (http://www.inkscape.org/) -->

<svg
   xmlns:dc="http://purl.org/dc/elements/1.1/"
   xmlns:cc="http://creativecommons.org/ns#"
   xmlns:rdf="http://www.w3.org/1999/02/22-rdf-syntax-ns#"
   xmlns:svg="http://www.w3.org/2000/svg"
   xmlns="http://www.w3.org/2000/svg"
   xmlns:xlink="http://www.w3.org/1999/xlink"
   xmlns:sodipodi="http://sodipodi.sourceforge.net/DTD/sodipodi-0.dtd"
   xmlns:inkscape="http://www.inkscape.org/namespaces/inkscape"
   width="48"
   height="48"
   viewBox="0 0 12.7 12.7"
   version="1.1"
   id="svg829"
   inkscape:version="0.92.3 (2405546, 2018-03-11)"
   sodipodi:docname="preferences-system-time.svg">
  <defs
     id="defs823">
    <linearGradient
       inkscape:collect="always"
       id="linearGradient890">
      <stop
         style="stop-color:#000000;stop-opacity:1;"
         offset="0"
         id="stop886" />
      <stop
         style="stop-color:#000000;stop-opacity:0"
         offset="1"
         id="stop888" />
    </linearGradient>
    <linearGradient
       inkscape:collect="always"
       xlink:href="#linearGradient890"
       id="linearGradient892"
       x1="4.0487375"
       y1="286.52933"
       x2="11.900387"
       y2="294.69717"
       gradientUnits="userSpaceOnUse"
       gradientTransform="matrix(3.7795276,0,0,3.7795276,39.999999,-1074.5197)" />
    <linearGradient
       inkscape:collect="always"
       xlink:href="#linearGradient890"
       id="linearGradient938"
       x1="10.54598"
       y1="289.82126"
       x2="13.732495"
       y2="289.84616"
       gradientUnits="userSpaceOnUse"
       gradientTransform="translate(-5.2916667)" />
    <linearGradient
       inkscape:collect="always"
       xlink:href="#linearGradient890"
       id="linearGradient958"
       gradientUnits="userSpaceOnUse"
       x1="4.0487375"
       y1="286.52933"
       x2="11.900387"
       y2="294.69717" />
  </defs>
  <sodipodi:namedview
     id="base"
     pagecolor="#ffffff"
     bordercolor="#666666"
     borderopacity="1.0"
     inkscape:pageopacity="0.0"
     inkscape:pageshadow="2"
     inkscape:zoom="2.65625"
     inkscape:cx="24"
     inkscape:cy="24"
     inkscape:document-units="mm"
     inkscape:current-layer="layer1"
     showgrid="false"
     showguides="true"
     inkscape:guide-bbox="true"
     inkscape:window-width="1366"
     inkscape:window-height="719"
     inkscape:window-x="0"
     inkscape:window-y="25"
     inkscape:window-maximized="1"
     scale-x="1.9"
     units="px"
     inkscape:measure-start="0,0"
     inkscape:measure-end="0,0"
     inkscape:snap-global="true"
     inkscape:object-nodes="true"
     inkscape:snap-smooth-nodes="true" />
  <metadata
     id="metadata826">
    <rdf:RDF>
      <cc:Work
         rdf:about="">
        <dc:format>image/svg+xml</dc:format>
        <dc:type
           rdf:resource="http://purl.org/dc/dcmitype/StillImage" />
        <dc:title />
      </cc:Work>
    </rdf:RDF>
  </metadata>
  <g
     inkscape:label="Capa 1"
     inkscape:groupmode="layer"
     id="layer1"
     transform="translate(0,-284.3)">
    <g
       id="g978">
      <path
         id="path831"
         d="m 6.3502584,284.39147 c -1.5434366,0 -2.7839984,0.29643 -3.6871134,0.8816 -1.0851074,0.7031 -1.6588135,1.82603 -1.6588135,3.24683 0,1.91207 1.5362412,4.46762 2.0071126,5.20537 0.5375664,0.84219 1.1245076,1.60861 1.6526123,2.158 0.6726666,0.69964 1.2086563,1.02527 1.686202,1.02527 0.4775705,0 1.013092,-0.32561 1.685685,-1.02527 0.5280803,-0.54937 1.1150465,-1.31579 1.6526124,-2.158 0.4708712,-0.73773 2.0071122,-3.2933 2.0071122,-5.20537 2.4e-5,-1.42078 -0.573141,-2.5437 -1.658296,-3.24683 -0.9030664,-0.58517 -2.1437011,-0.8816 -3.6871136,-0.8816 z"
         style="fill:#666ac2;stroke-width:0.02444816"
         inkscape:connector-curvature="0" />
      <path
         inkscape:connector-curvature="0"
         id="path884"
         d="m 6.7696123,296.77211 c 0.117232,-0.0412 0.223962,-0.0368 0.350366,-0.11369 0.277651,-0.16886 0.579927,-0.42532 0.916223,-0.77515 0.528082,-0.54937 1.115047,-1.3158 1.652613,-2.15801 0.235435,-0.36886 0.7368527,-1.19202 1.1797727,-2.16214 0.221459,-0.48506 0.428429,-1.00704 0.579809,-1.52704 0.137141,-0.47108 0.208237,-0.93396 0.224276,-1.37356 l -3.0494257,-3.04994 -1.755965,4.10156 -1.413868,3.35122 -1.5130856,0.87746 z"
         style="fill:url(#linearGradient958);fill-opacity:1;stroke:none;stroke-width:0.26458332px;stroke-linecap:butt;stroke-linejoin:miter;stroke-opacity:1;opacity:0.55" />
      <path
         inkscape:connector-curvature="0"
         id="path2"
         d="M 8.4410391,287.82918 V 285.7494 H 4.2588806 v 2.07978 c 0,0.96336 0.6514292,1.77438 1.5377358,2.01692 -0.8863226,0.24257 -1.5377358,1.05359 -1.5377358,2.01692 v 2.07981 h 4.1821425 v -2.07981 c 0,-0.96333 -0.6514252,-1.77435 -1.5377244,-2.01692 0.8862992,-0.24254 1.5377404,-1.05364 1.5377404,-2.01692 z"
         style="fill:#b4e5ea;stroke-width:0.01653625" />
      <path
         inkscape:connector-curvature="0"
         id="path2-3"
         d="m 6.3499993,285.74952 v 8.1933 h 2.090829 v -2.07997 c 0,-0.96333 -0.651074,-1.77437 -1.537374,-2.01694 0.8863,-0.24254 1.537374,-1.05365 1.537374,-2.01693 v -2.07946 z"
         style="fill:url(#linearGradient938);fill-opacity:1;stroke:none;stroke-width:0.01653625;opacity:0.35" />
      <g
         id="g8"
         transform="matrix(0.01653613,0,0,0.01653613,2.11669,285.61278)">
        <path
           id="path4"
           d="M 390.714,134.029 V 8.258 h -16.516 v 125.771 c 0,53.117 -35.741,99.999 -86.914,114.005 -3.59,0.983 -6.078,4.244 -6.078,7.965 0,3.722 2.488,6.983 6.078,7.965 51.174,14.007 86.914,60.887 86.914,114.004 v 125.773 h 16.516 V 377.969 c 0,-52.745 -30.923,-100.093 -77.465,-121.969 46.542,-21.876 77.465,-69.226 77.465,-121.971 z"
           style="fill:#f9f7f7"
           inkscape:connector-curvature="0" />
        <path
           id="path6"
           d="M 224.719,248.035 C 173.544,234.028 137.803,187.147 137.803,134.03 V 8.258 h -16.516 v 125.771 c 0,52.745 30.923,100.094 77.465,121.971 -46.542,21.876 -77.465,69.225 -77.465,121.969 v 125.773 h 16.516 V 377.969 c 0,-53.117 35.741,-99.997 86.916,-114.004 3.59,-0.983 6.078,-4.244 6.078,-7.965 0,-3.722 -2.488,-6.983 -6.078,-7.965 z"
           style="fill:#f9f7f7"
           inkscape:connector-curvature="0" />
      </g>
      <g
         id="g14"
         transform="matrix(0.01653613,0,0,0.01653613,2.11669,285.61278)">
        <path
           id="path10"
           d="M 393.466,512 H 118.535 c -4.561,0 -8.258,-3.696 -8.258,-8.258 0,-4.562 3.697,-8.258 8.258,-8.258 h 274.931 c 4.561,0 8.258,3.696 8.258,8.258 0,4.562 -3.697,8.258 -8.258,8.258 z"
           style="fill:#463836"
           inkscape:connector-curvature="0" />
        <path
           id="path12"
           d="M 393.466,16.516 H 118.535 c -4.561,0 -8.258,-3.696 -8.258,-8.258 0,-4.562 3.697,-8.258 8.258,-8.258 h 274.931 c 4.561,0 8.258,3.696 8.258,8.258 0,4.562 -3.697,8.258 -8.258,8.258 z"
           style="fill:#463836"
           inkscape:connector-curvature="0" />
      </g>
      <path
         id="path16"
         d="m 6.4865231,291.16209 v -1.79166 c 0.1121978,-0.0107 0.1992609,-0.0323 0.2725675,-0.0512 0.5196402,-0.1355 0.915682,-0.53853 1.0678343,-1.03596 H 4.8730032 c 0.1521517,0.49743 0.5481755,0.90046 1.0678419,1.03596 0.073304,0.0186 0.1603679,0.041 0.2725659,0.0512 v 1.79166 c -0.7891732,0.0693 -1.4082866,0.73134 -1.4082866,1.53853 v 0.69598 h 3.0897029 v -0.69598 c -1.6e-5,-0.80719 -0.6191212,-1.46941 -1.4083042,-1.53853 z"
         style="fill:#609399;stroke-width:0.01653625"
         inkscape:connector-curvature="0" />
      <path
         id="path833-1"
         d="m 6.3499999,284.39147 c -1.5434366,0 -2.7839985,0.29643 -3.6871135,0.8816 -1.0851073,0.7031 -1.6588134,1.82603 -1.6588134,3.24683 0,1.91207 1.5362411,4.46762 2.0071125,5.20537 0.5375664,0.84219 1.1245075,1.60861 1.6526124,2.15801 0.6726666,0.69963 1.2086563,1.02526 1.686202,1.02526 0.4775705,0 1.0130922,-0.32561 1.6856853,-1.02526 0.5280803,-0.54938 1.1150462,-1.3158 1.6526123,-2.15801 0.4708715,-0.73773 2.0076295,-3.2933 2.0076295,-5.20537 2.4e-5,-1.42078 -0.573659,-2.5437 -1.658814,-3.24683 -0.9030659,-0.58517 -2.1437006,-0.8816 -3.6871131,-0.8816 z m 0,0.0382 c 0.5590315,0.0224 1.0903969,0.0719 1.5549438,0.18294 0.3079843,0.0736 0.5955773,0.16587 0.8629965,0.27595 0.2674189,0.11008 0.5142399,0.23818 0.7400065,0.38447 0.2712887,0.17578 0.5109353,0.37775 0.7172683,0.6041 0.206334,0.22635 0.379365,0.47723 0.518832,0.75034 0.139466,0.27311 0.245056,0.56864 0.315743,0.8847 0.07069,0.31606 0.106976,0.6525 0.10697,1.00769 0,0.47802 -0.09615,0.99619 -0.24753,1.51619 -0.15138,0.51999 -0.35835,1.04198 -0.57981,1.52704 -0.4429192,0.97011 -0.9448533,1.79328 -1.1802891,2.16214 -0.5375662,0.84221 -1.1245321,1.60863 -1.6526124,2.15801 -0.3362965,0.34982 -0.6380557,0.60628 -0.9157065,0.77514 -0.084437,0.0513 -0.1635244,0.0811 -0.2408121,0.10335 -0.077023,-0.0222 -0.1560145,-0.0521 -0.2402954,-0.10335 -0.2777739,-0.16886 -0.5804067,-0.42533 -0.91674,-0.77514 -0.5281049,-0.5494 -1.1150459,-1.31582 -1.6526123,-2.15801 -0.2354358,-0.36888 -0.7368535,-1.19203 -1.1797729,-2.16214 -0.2214596,-0.48506 -0.4284295,-1.00705 -0.5798095,-1.52704 -0.1513801,-0.52 -0.2475301,-1.03817 -0.2475301,-1.51619 0,-0.3552 0.03623,-0.69163 0.1069702,-1.00769 0.07074,-0.31606 0.1762104,-0.61159 0.315743,-0.8847 0.1395325,-0.27311 0.31297,-0.52399 0.5193481,-0.75034 0.2063783,-0.22635 0.4454753,-0.42832 0.7167521,-0.6041 0.2257788,-0.14629 0.4731038,-0.27439 0.7405232,-0.38447 0.2674194,-0.11008 0.5550167,-0.20233 0.8629965,-0.27595 0.4645234,-0.11106 0.9955051,-0.16048 1.5544271,-0.18294 z"
         style="opacity:0.3;fill:#280b0b;stroke-width:0.02444816"
         inkscape:connector-curvature="0" />
    </g>
  </g>
</svg>
