<?xml version="1.0" encoding="UTF-8" standalone="no"?>
<!-- Created with Inkscape (http://www.inkscape.org/) -->

<svg
   xmlns:dc="http://purl.org/dc/elements/1.1/"
   xmlns:cc="http://creativecommons.org/ns#"
   xmlns:rdf="http://www.w3.org/1999/02/22-rdf-syntax-ns#"
   xmlns:svg="http://www.w3.org/2000/svg"
   xmlns="http://www.w3.org/2000/svg"
   xmlns:xlink="http://www.w3.org/1999/xlink"
   xmlns:sodipodi="http://sodipodi.sourceforge.net/DTD/sodipodi-0.dtd"
   xmlns:inkscape="http://www.inkscape.org/namespaces/inkscape"
   width="48"
   height="48"
   viewBox="0 0 12.7 12.7"
   version="1.1"
   id="svg829"
   inkscape:version="0.92.3 (2405546, 2018-03-11)"
   sodipodi:docname="preferences-desktop-online-accounts.svg">
  <defs
     id="defs823">
    <linearGradient
       inkscape:collect="always"
       id="linearGradient848">
      <stop
         style="stop-color:#000000;stop-opacity:1"
         offset="0"
         id="stop844" />
      <stop
         style="stop-color:#ffffff;stop-opacity:0"
         offset="1"
         id="stop846" />
    </linearGradient>
    <linearGradient
       inkscape:collect="always"
       id="linearGradient834">
      <stop
         style="stop-color:#5f8dd3;stop-opacity:1"
         offset="0"
         id="stop830" />
      <stop
         style="stop-color:#d7e3f4;stop-opacity:1"
         offset="1"
         id="stop832" />
    </linearGradient>
    <linearGradient
       inkscape:collect="always"
       xlink:href="#linearGradient834"
       id="linearGradient836"
       x1="5.8923907"
       y1="291.59628"
       x2="5.8363972"
       y2="286.41666"
       gradientUnits="userSpaceOnUse" />
    <linearGradient
       inkscape:collect="always"
       xlink:href="#linearGradient848"
       id="linearGradient850"
       x1="3.6022856"
       y1="287.22052"
       x2="14.920061"
       y2="297.19116"
       gradientUnits="userSpaceOnUse"
       gradientTransform="matrix(3.7795276,0,0,3.7795276,39.999999,-1074.5197)" />
    <linearGradient
       inkscape:collect="always"
       xlink:href="#linearGradient848"
       id="linearGradient878"
       gradientUnits="userSpaceOnUse"
       x1="5.3454227"
       y1="288.61502"
       x2="15.268688"
       y2="297.6394" />
  </defs>
  <sodipodi:namedview
     id="base"
     pagecolor="#ffffff"
     bordercolor="#666666"
     borderopacity="1.0"
     inkscape:pageopacity="0.0"
     inkscape:pageshadow="2"
     inkscape:zoom="2.65625"
     inkscape:cx="-17.223529"
     inkscape:cy="24"
     inkscape:document-units="mm"
     inkscape:current-layer="layer1"
     showgrid="false"
     showguides="true"
     inkscape:guide-bbox="true"
     inkscape:window-width="1366"
     inkscape:window-height="719"
     inkscape:window-x="0"
     inkscape:window-y="25"
     inkscape:window-maximized="1"
     scale-x="1.9"
     units="px"
     inkscape:snap-global="true"
     inkscape:snap-smooth-nodes="true" />
  <metadata
     id="metadata826">
    <rdf:RDF>
      <cc:Work
         rdf:about="">
        <dc:format>image/svg+xml</dc:format>
        <dc:type
           rdf:resource="http://purl.org/dc/dcmitype/StillImage" />
        <dc:title />
      </cc:Work>
    </rdf:RDF>
  </metadata>
  <g
     inkscape:label="Capa 1"
     inkscape:groupmode="layer"
     id="layer1"
     transform="translate(0,-284.3)">
    <g
       id="g834">
      <path
         id="path834"
         d="m 6.3502584,284.39147 c -1.5434366,0 -2.7839982,0.29643 -3.6871132,0.8816 -1.0851074,0.7031 -1.6588136,1.82603 -1.6588136,3.24683 0,1.91207 1.5362412,4.46762 2.0071127,5.20537 0.5375664,0.84219 1.1245074,1.60861 1.6526121,2.158 0.6726666,0.69964 1.2086563,1.02527 1.686202,1.02527 0.4775705,0 1.013092,-0.32561 1.685685,-1.02527 0.5280803,-0.54937 1.1150465,-1.31579 1.6526124,-2.158 0.4708712,-0.73773 2.0071122,-3.2933 2.0071122,-5.20537 2.4e-5,-1.42078 -0.573141,-2.5437 -1.658296,-3.24683 -0.9030664,-0.58517 -2.1437011,-0.8816 -3.6871136,-0.8816 z"
         style="fill:#a793ac;fill-opacity:1;stroke-width:0.02444816"
         inkscape:connector-curvature="0" />
      <path
         inkscape:connector-curvature="0"
         id="path842"
         d="m 7.8708373,296.0228 c 0.05837,-0.057 0.10431,-0.0765 0.164848,-0.13953 0.52808,-0.54937 1.115046,-1.3158 1.652612,-2.15801 0.235435,-0.36886 0.7373697,-1.19202 1.1802897,-2.16214 0.221459,-0.48506 0.428429,-1.00704 0.579809,-1.52704 0.0068,-0.0234 0.0048,-0.0448 0.01137,-0.0682 l -3.0928337,-3.07785 -5.7769088,3.78478 z"
         style="opacity:0.5;fill:url(#linearGradient878);fill-opacity:1;stroke:none;stroke-width:0.26458332px;stroke-linecap:butt;stroke-linejoin:miter;stroke-opacity:1" />
      <path
         inkscape:connector-curvature="0"
         id="path4588"
         d="m 6.3502587,284.39147 c -1.5434366,0 -2.7839985,0.29643 -3.6871135,0.8816 -1.0851073,0.7031 -1.6588137,1.82603 -1.6588137,3.24683 0,1.91207 1.5362412,4.46762 2.0071128,5.20537 0.5375664,0.84219 1.1245074,1.60861 1.6526123,2.158 0.6726666,0.69964 1.2086564,1.02527 1.6862021,1.02527 0.4775705,0 1.0130919,-0.32561 1.685685,-1.02527 0.5280803,-0.54937 1.1150462,-1.31579 1.6526123,-2.158 0.470871,-0.73773 2.007112,-3.2933 2.007112,-5.20537 2.5e-5,-1.42078 -0.573141,-2.5437 -1.658296,-3.24683 -0.9030662,-0.58517 -2.1437011,-0.8816 -3.6871133,-0.8816 z m 0,0.0382 c 0.5589177,0.0225 1.0898962,0.0719 1.554427,0.18294 0.3079843,0.0736 0.5960941,0.16587 0.863513,0.27595 0.2674191,0.11008 0.5142402,0.23818 0.7400068,0.38447 0.2712886,0.17578 0.5104175,0.37775 0.7167515,0.6041 0.206334,0.22635 0.379882,0.47723 0.519348,0.75034 0.139467,0.27311 0.245057,0.56864 0.315743,0.8847 0.07069,0.31606 0.10646,0.6525 0.106454,1.00769 0,0.47802 -0.09615,0.99619 -0.24753,1.51619 -0.15138,0.51999 -0.357833,1.04198 -0.579293,1.52704 -0.4429192,0.97011 -0.9448538,1.79328 -1.1802896,2.16214 -0.5375662,0.84221 -1.1245321,1.60863 -1.6526124,2.158 -0.3362965,0.34983 -0.6385721,0.60629 -0.916223,0.77515 -0.084411,0.0513 -0.1636318,0.0811 -0.2408121,0.10335 -0.07713,-0.0222 -0.1559877,-0.0521 -0.2402956,-0.10335 -0.2777739,-0.16886 -0.5798897,-0.42533 -0.916223,-0.77515 -0.5281049,-0.54939 -1.115046,-1.31581 -1.6526124,-2.158 -0.2354357,-0.36888 -0.7373704,-1.19203 -1.1802898,-2.16215 -0.2214594,-0.48505 -0.4279128,-1.00704 -0.5792928,-1.52703 -0.1513798,-0.52 -0.2475299,-1.03817 -0.2475301,-1.51619 0,-0.3552 0.035714,-0.69163 0.1064535,-1.00769 0.07074,-0.31606 0.1767274,-0.61159 0.3162599,-0.8847 0.1395325,-0.27311 0.3129698,-0.52399 0.519348,-0.75034 0.2063781,-0.22635 0.4454755,-0.42832 0.7167522,-0.6041 0.2257788,-0.14629 0.4725871,-0.27439 0.7400066,-0.38447 0.2674194,-0.11008 0.5555334,-0.20233 0.8635132,-0.27595 0.4645234,-0.11106 0.9955051,-0.16048 1.5544271,-0.18294 z"
         style="opacity:0.2;fill:#000000;stroke-width:0.02444816" />
      <path
         inkscape:connector-curvature="0"
         id="path866"
         d="m 7.0010258,286.46135 c -0.7520768,0 -1.4030365,0.35078 -1.725993,0.85977 a 1.3230795,1.0547599 0 0 0 -0.7229533,-0.17137 c -0.7466197,0 -1.3513387,0.49208 -1.3513387,1.09994 0,0.0969 0.018769,0.18995 0.047542,0.27973 a 2.0816053,1.6594572 0 0 0 -0.8919348,1.37143 c 0,0.91435 0.9040915,1.65074 2.0267496,1.65074 h 3.8840007 c 1.122658,0 2.0267497,-0.73639 2.0267497,-1.65074 0,-0.0456 -0.0023,-0.0909 -0.0067,-0.13554 -0.06655,-0.67001 -0.6227023,-1.22407 -1.376143,-1.42911 0.021828,-0.0949 0.032039,-0.19284 0.032039,-0.2929 0,-0.87362 -0.8694475,-1.58195 -1.9420003,-1.58195 z"
         style="fill:url(#linearGradient836);fill-opacity:1;stroke-width:0.12406357" />
    </g>
  </g>
</svg>
