<?xml version="1.0" encoding="UTF-8" standalone="no"?>
<!-- Generator: Adobe Illustrator 19.0.0, SVG Export Plug-In . SVG Version: 6.00 Build 0)  -->

<svg
   xmlns:dc="http://purl.org/dc/elements/1.1/"
   xmlns:cc="http://creativecommons.org/ns#"
   xmlns:rdf="http://www.w3.org/1999/02/22-rdf-syntax-ns#"
   xmlns:svg="http://www.w3.org/2000/svg"
   xmlns="http://www.w3.org/2000/svg"
   xmlns:sodipodi="http://sodipodi.sourceforge.net/DTD/sodipodi-0.dtd"
   xmlns:inkscape="http://www.inkscape.org/namespaces/inkscape"
   version="1.1"
   id="Capa_1"
   x="0px"
   y="0px"
   viewBox="0 0 48 48"
   xml:space="preserve"
   sodipodi:docname="preferences-color.svg"
   width="48"
   height="48"
   inkscape:version="0.92.3 (2405546, 2018-03-11)"><metadata
   id="metadata41"><rdf:RDF><cc:Work
       rdf:about=""><dc:format>image/svg+xml</dc:format><dc:type
         rdf:resource="http://purl.org/dc/dcmitype/StillImage" /><dc:title></dc:title></cc:Work></rdf:RDF></metadata><defs
   id="defs39" /><sodipodi:namedview
   pagecolor="#ffffff"
   bordercolor="#666666"
   borderopacity="1"
   objecttolerance="10"
   gridtolerance="10"
   guidetolerance="10"
   inkscape:pageopacity="0"
   inkscape:pageshadow="2"
   inkscape:window-width="1366"
   inkscape:window-height="690"
   id="namedview37"
   showgrid="false"
   showguides="true"
   inkscape:guide-bbox="true"
   inkscape:zoom="5.1131187"
   inkscape:cx="-5.3110208"
   inkscape:cy="21.337275"
   inkscape:window-x="0"
   inkscape:window-y="28"
   inkscape:window-maximized="1"
   inkscape:current-layer="Capa_1" />
<path
   style="fill:#217844;stroke-width:0.0924025"
   d="M 23.712891 0.49414062 C 17.87943 0.49414062 13.190692 1.6145182 9.7773438 3.8261719 C 5.6761507 6.4835756 3.5078125 10.727685 3.5078125 16.097656 C 3.5078125 23.324362 9.3140783 32.983146 11.09375 35.771484 C 13.125497 38.954565 15.343857 41.851266 17.339844 43.927734 C 19.882206 46.572017 21.907994 47.802734 23.712891 47.802734 C 25.517882 47.802734 27.5419 46.572109 30.083984 43.927734 C 32.079878 41.851358 34.298332 38.954657 36.330078 35.771484 C 38.10975 32.983238 43.916016 23.324362 43.916016 16.097656 C 43.916108 10.727777 41.749814 6.4836678 37.648438 3.8261719 C 34.235274 1.6145182 29.546261 0.49414062 23.712891 0.49414062 z M 34.855469 6.6484375 C 35.757622 6.6485442 36.661394 6.9933969 37.349609 7.6816406 C 38.726097 9.0585265 38.726154 11.289586 37.349609 12.666016 L 36.396484 13.617188 C 36.907601 14.127792 36.907601 14.956078 36.396484 15.466797 C 36.140983 15.722241 35.807386 15.851562 35.472656 15.851562 C 35.137982 15.851562 34.802434 15.722241 34.546875 15.466797 L 34.291016 15.210938 L 20.580078 28.921875 C 20.208693 29.292805 19.71131 29.511706 19.1875 29.535156 L 18.712891 29.556641 L 17.669922 29.601562 L 15.958984 29.677734 C 15.950394 29.678189 15.943247 29.679688 15.935547 29.679688 C 15.794108 29.679688 15.656301 29.623555 15.556641 29.523438 C 15.451004 29.417401 15.396444 29.270958 15.402344 29.121094 L 15.544922 25.894531 L 15.544922 25.892578 L 15.554688 25.701172 C 15.572673 25.300589 15.739876 24.922234 16.023438 24.638672 L 19.589844 21.070312 L 19.591797 21.070312 L 29.869141 10.791016 L 29.5625 10.482422 C 29.051325 9.9717604 29.051325 9.1434744 29.5625 8.6328125 C 30.07356 8.1217523 30.900992 8.1217523 31.412109 8.6328125 L 32.363281 7.6796875 C 33.051952 6.9914722 33.953316 6.6483308 34.855469 6.6484375 z M 30.486328 12.640625 L 22.632812 20.496094 L 27.447266 19.587891 L 32.441406 14.59375 L 30.486328 12.640625 z M 15.601562 30.773438 C 17.628784 30.773437 19.271484 31.294847 19.271484 31.9375 C 19.271484 32.579812 17.628785 33.099609 15.601562 33.099609 C 13.574339 33.099609 11.929688 32.579755 11.929688 31.9375 C 11.929688 31.294904 13.574339 30.773438 15.601562 30.773438 z "
   id="path2" />

<g
   id="g6"
   transform="translate(0,-464)">
</g>
<g
   id="g8"
   transform="translate(0,-464)">
</g>
<g
   id="g10"
   transform="translate(0,-464)">
</g>
<g
   id="g12"
   transform="translate(0,-464)">
</g>
<g
   id="g14"
   transform="translate(0,-464)">
</g>
<g
   id="g16"
   transform="translate(0,-464)">
</g>
<g
   id="g18"
   transform="translate(0,-464)">
</g>
<g
   id="g20"
   transform="translate(0,-464)">
</g>
<g
   id="g22"
   transform="translate(0,-464)">
</g>
<g
   id="g24"
   transform="translate(0,-464)">
</g>
<g
   id="g26"
   transform="translate(0,-464)">
</g>
<g
   id="g28"
   transform="translate(0,-464)">
</g>
<g
   id="g30"
   transform="translate(0,-464)">
</g>
<g
   id="g32"
   transform="translate(0,-464)">
</g>
<g
   id="g34"
   transform="translate(0,-464)">
</g>
</svg>