<svg xmlns="http://www.w3.org/2000/svg" xmlns:xlink="http://www.w3.org/1999/xlink" width="48" height="48"><defs><linearGradient id="b"><stop offset="0" stop-color="#f9f9f9"/><stop offset="1" stop-color="#949485"/></linearGradient><linearGradient id="a"><stop offset="0" stop-color="#fff"/><stop offset="1" stop-color="#979599"/></linearGradient><radialGradient xlink:href="#a" id="d" cx="23.72" cy="17.48" fx="23.72" fy="17.48" r="12.81" gradientTransform="matrix(1.27175 0 0 1.96083 -6.44 -16.8)" gradientUnits="userSpaceOnUse"/><linearGradient xlink:href="#b" id="f" x1="23.73" y1="30.68" x2="23.7" y2="35.95" gradientUnits="userSpaceOnUse"/><filter id="c" x="-.06" width="1.12" y="-.06" height="1.12" color-interpolation-filters="sRGB"><feGaussianBlur stdDeviation=".71"/></filter><filter id="e" x="-.17" width="1.35" y="-.55" height="2.1" color-interpolation-filters="sRGB"><feGaussianBlur stdDeviation=".58"/></filter></defs><path d="M24 .35c-5.83 0-10.52 1.12-13.93 3.33-4.1 2.66-6.27 6.9-6.27 12.27 0 7.23 5.8 16.88 7.58 19.67a54.48 54.48 0 0 0 6.25 8.16c2.54 2.64 4.57 3.87 6.37 3.87 1.8 0 3.83-1.23 6.37-3.87 2-2.08 4.22-4.97 6.25-8.16 1.78-2.79 7.58-12.44 7.58-19.67 0-5.37-2.16-9.61-6.26-12.27C34.52 1.47 29.84.35 24 .35z" fill="#535d6c"/><path d="M23.71 3.03a2.76 2.76 0 0 1 2.76 2.75v2.47a9.65 9.65 0 0 1 6.88 9.23v3.45c0 2.12.58 4.2 1.67 6.02l2.36 3.94a.69.69 0 1 1-.59 1.04H10.64a.68.68 0 0 1-.6-.34.68.68 0 0 1 0-.7l2.37-3.94a11.72 11.72 0 0 0 1.67-6.02v-3.45c0-4.35 2.9-8.04 6.88-9.23V5.78a2.76 2.76 0 0 1 2.75-2.75z" filter="url(#c)" opacity=".75"/><path d="M23.71 4.03a2.57 2.57 0 0 1 2.57 2.56v2.3a8.98 8.98 0 0 1 6.4 8.6v3.2c0 1.98.54 3.92 1.56 5.6l2.2 3.68c.12.2.12.44 0 .64a.64.64 0 0 1-.55.33H11.54a.64.64 0 0 1-.55-.33.64.64 0 0 1 0-.64l2.2-3.67a10.9 10.9 0 0 0 1.56-5.6v-3.22c0-4.05 2.7-7.49 6.4-8.6v-2.3a2.56 2.56 0 0 1 2.56-2.55z" fill="url(#d)"/><path transform="matrix(1.52093 0 0 1.52093 -12.35 -17.45)" d="M19.68 32.22h8.07a4.48 4.48 0 0 1-8.07 0z" filter="url(#e)" opacity=".8"/><path d="M19.68 32.22h8.07a4.48 4.48 0 0 1-8.07 0z" fill="url(#f)"/><path d="M24 .35c-5.83 0-10.52 1.12-13.93 3.33-4.1 2.66-6.27 6.9-6.27 12.27 0 7.23 5.8 16.88 7.58 19.67a54.48 54.48 0 0 0 6.25 8.16c2.54 2.64 4.57 3.87 6.37 3.87 1.8 0 3.83-1.23 6.37-3.87 2-2.08 4.22-4.97 6.25-8.16 1.78-2.79 7.58-12.44 7.58-19.67 0-5.37-2.16-9.61-6.26-12.27C34.52 1.47 29.84.35 24 .35zm0 .14c2.11.09 4.12.27 5.88.7 1.16.27 2.25.62 3.26 1.03 1.01.42 1.94.9 2.8 1.46A12.92 12.92 0 0 1 40.6 8.8c.53 1.03.92 2.15 1.2 3.34.26 1.2.4 2.47.4 3.8 0 1.82-.37 3.77-.94 5.74a43.19 43.19 0 0 1-2.2 5.77 69.59 69.59 0 0 1-4.45 8.17 54.47 54.47 0 0 1-6.25 8.16 17.98 17.98 0 0 1-3.46 2.93c-.32.2-.62.3-.91.39-.3-.08-.6-.2-.9-.4-1.06-.63-2.2-1.6-3.47-2.92-2-2.08-4.22-4.97-6.25-8.16a69.6 69.6 0 0 1-4.46-8.17 43.19 43.19 0 0 1-2.19-5.77 20.93 20.93 0 0 1-.93-5.73c0-1.34.13-2.61.4-3.8.27-1.2.67-2.32 1.2-3.35a12.92 12.92 0 0 1 4.67-5.12 17.1 17.1 0 0 1 2.8-1.46c1-.41 2.1-.76 3.26-1.04C19.88.76 21.89.58 24 .5z" opacity=".2"/></svg>