<svg xmlns="http://www.w3.org/2000/svg" xmlns:xlink="http://www.w3.org/1999/xlink" width="48" height="48"><defs><linearGradient id="a"><stop offset="0"/><stop offset="1" stop-opacity="0"/></linearGradient><linearGradient xlink:href="#a" id="b" gradientUnits="userSpaceOnUse" x1="23.08" y1="9.34" x2="46.12" y2="33.15"/></defs><path d="M24 .35c-5.83 0-10.52 1.12-13.93 3.33-4.1 2.66-6.27 6.9-6.27 12.27 0 7.23 5.8 16.88 7.58 19.67a54.48 54.48 0 0 0 6.25 8.16c2.54 2.64 4.57 3.87 6.37 3.87 1.8 0 3.83-1.23 6.37-3.87 2-2.08 4.22-4.97 6.25-8.16 1.78-2.79 7.58-12.44 7.58-19.67 0-5.37-2.16-9.61-6.26-12.27C34.52 1.47 29.84.35 24 .35z" fill="#6c5353"/><path d="M26.4 46.87c.18-.09.33-.05.51-.16 1.05-.64 2.19-1.6 3.46-2.93 2-2.08 4.22-4.97 6.25-8.16.89-1.4 2.78-4.5 4.46-8.17a43.2 43.2 0 0 0 2.19-5.77c.57-1.97.93-3.92.93-5.73 0-1.18-.14-2.29-.35-3.36L38.25 7 35.5 8.55l-.71.07-.43.44-.3.29-.07 2.23-2.49.33-.22.23.07.94-7.53 8.1-8.47 8.19-2.43 4.53z" fill="url(#b)"/><path d="M38.1 6.98L36 9.08l.7.69 1.77-.88L38.26 7l-.16-.02zm-2.48 2.48l-.43.43 1.01 1.02.43-.43-1.01-1.02zm-.73.73l-2.56 2.56 1.01 1.02 2.57-2.57-1.02-1.01zm-2.78 2.79L12.05 33.04l.86.86 3.68-3.7.8.8 2.21-2.2.02.02 3.35-1.56 8.25-8.25-1.56-1.56 3.46-3.46-1.01-1.01z" fill="#fff"/><path d="M36.37 6.78l-.88 1.77.52.52 2.09-2.09zm-1.6 1.84l-.42.44.84.83.43-.43zm-.72.73l-2.56 2.56.84.84 2.56-2.56zm-2.78 2.79l-3.46 3.45-1.71-1.7-8.26 8.24-1.54 3.31-2.23 2.23.81.82-3.68 3.7.85.85L32.1 12.98z" fill="#ac93a7"/><path d="M24 .35c-5.83 0-10.52 1.12-13.93 3.33-4.1 2.66-6.27 6.9-6.27 12.27 0 7.23 5.8 16.88 7.58 19.67a54.48 54.48 0 0 0 6.25 8.16c2.54 2.64 4.57 3.87 6.37 3.87 1.8 0 3.83-1.23 6.37-3.87 2-2.08 4.22-4.97 6.25-8.16 1.78-2.79 7.58-12.44 7.58-19.67 0-5.37-2.16-9.61-6.26-12.27C34.52 1.47 29.84.35 24 .35zm0 .14c2.11.09 4.12.27 5.88.7 1.16.27 2.25.62 3.26 1.03 1.01.42 1.94.9 2.8 1.46A12.92 12.92 0 0 1 40.6 8.8c.53 1.03.92 2.15 1.2 3.34.26 1.2.4 2.47.4 3.8 0 1.82-.37 3.77-.94 5.74a43.19 43.19 0 0 1-2.2 5.77 69.59 69.59 0 0 1-4.45 8.17 54.47 54.47 0 0 1-6.25 8.16 17.98 17.98 0 0 1-3.46 2.93c-.32.2-.62.3-.91.39-.3-.08-.6-.2-.9-.4-1.06-.63-2.2-1.6-3.47-2.92-2-2.08-4.22-4.97-6.25-8.16a69.6 69.6 0 0 1-4.46-8.17 43.19 43.19 0 0 1-2.19-5.77 20.93 20.93 0 0 1-.93-5.73c0-1.34.13-2.61.4-3.8.27-1.2.67-2.32 1.2-3.35a12.92 12.92 0 0 1 4.67-5.12 17.1 17.1 0 0 1 2.8-1.46c1-.41 2.1-.76 3.26-1.04C19.88.76 21.89.58 24 .5z" opacity=".2"/></svg>