<?xml version="1.0" encoding="UTF-8" standalone="no"?>
<!-- Generator: Adobe Illustrator 19.0.0, SVG Export Plug-In . SVG Version: 6.00 Build 0)  -->

<svg
   xmlns:dc="http://purl.org/dc/elements/1.1/"
   xmlns:cc="http://creativecommons.org/ns#"
   xmlns:rdf="http://www.w3.org/1999/02/22-rdf-syntax-ns#"
   xmlns:svg="http://www.w3.org/2000/svg"
   xmlns="http://www.w3.org/2000/svg"
   xmlns:sodipodi="http://sodipodi.sourceforge.net/DTD/sodipodi-0.dtd"
   xmlns:inkscape="http://www.inkscape.org/namespaces/inkscape"
   version="1.1"
   id="Capa_1"
   x="0px"
   y="0px"
   viewBox="0 0 48 48"
   xml:space="preserve"
   sodipodi:docname="referencer.svg"
   width="48"
   height="48"
   inkscape:version="0.92.3 (2405546, 2018-03-11)"><metadata
   id="metadata41"><rdf:RDF><cc:Work
       rdf:about=""><dc:format>image/svg+xml</dc:format><dc:type
         rdf:resource="http://purl.org/dc/dcmitype/StillImage" /><dc:title></dc:title></cc:Work></rdf:RDF></metadata><defs
   id="defs39"><linearGradient
     id="linearGradient8924"><stop
       id="stop8926"
       offset="0"
       style="stop-color:#cee14b" /><stop
       id="stop8928"
       offset="1"
       style="stop-color:#9db029" /></linearGradient></defs><sodipodi:namedview
   pagecolor="#ffffff"
   bordercolor="#666666"
   borderopacity="1"
   objecttolerance="10"
   gridtolerance="10"
   guidetolerance="10"
   inkscape:pageopacity="0"
   inkscape:pageshadow="2"
   inkscape:window-width="1366"
   inkscape:window-height="690"
   id="namedview37"
   showgrid="false"
   showguides="true"
   inkscape:guide-bbox="true"
   inkscape:zoom="3.5870937"
   inkscape:cx="-25.015014"
   inkscape:cy="20.33599"
   inkscape:window-x="0"
   inkscape:window-y="28"
   inkscape:window-maximized="1"
   inkscape:current-layer="Capa_1" />
<path
   style="fill:#7137c8;stroke-width:0.0924025"
   d="m 23.712891,0.49414062 c -5.833461,0 -10.522199,1.12037758 -13.935547,3.33203128 -4.101193,2.6574037 -6.269531,6.9015131 -6.269531,12.2714841 0,7.226706 5.806265,16.88549 7.585937,19.673828 2.031747,3.183081 4.250107,6.079782 6.246094,8.15625 2.542362,2.644283 4.56815,3.875 6.373047,3.875 1.804991,0 3.829009,-1.230625 6.371093,-3.875 1.995894,-2.076376 4.214348,-4.973077 6.246094,-8.15625 C 38.10975,32.983238 43.916016,23.324362 43.916016,16.097656 43.916108,10.727777 41.749814,6.4836678 37.648438,3.8261719 34.235274,1.6145182 29.546261,0.49414062 23.712891,0.49414062 Z m 0.05859,2.23632818 c 4.788854,0 8.671875,3.8826924 8.671875,8.6718752 0,4.789402 -3.883021,8.671875 -8.671875,8.671875 -4.78929,0 -8.671875,-3.882517 -8.671875,-8.671875 0,-4.7891829 3.882585,-8.6718752 8.671875,-8.6718752 z m 0,0.46875 c -4.517114,-2e-7 -8.177734,3.6842867 -8.177734,8.2285152 0,4.544396 3.66062,8.228516 8.177734,8.228516 4.516703,0 8.179688,-3.684078 8.179688,-8.228516 0,-4.5442285 -3.662985,-8.2285152 -8.179688,-8.2285152 z m 0.09961,1.4941406 0.789062,0.3105468 -0.365234,0.9277344 c -0.01911,0.00884 -0.03761,0.014753 -0.05664,0.023437 l 0.0918,0.027344 0.242188,-0.1386719 0.18164,0.2070312 -0.363281,0.2402344 -0.212891,-0.1386718 0.02539,-0.1816407 C 23.791256,6.1571468 23.395408,6.3104467 22.958984,6.4453125 L 22.65625,6.9277344 22.412109,7.0644531 22.048828,6.34375 22.322266,6.0683594 V 5.7929688 L 21.623047,5.3125 21.802734,5.1367188 c -0.06937,0.02753 -0.142145,0.046637 -0.210937,0.080078 l -0.302735,0.068359 -0.152343,0.1386719 -0.240235,-0.041016 0.0098,0.056641 0.576172,0.070312 0.152344,0.3085938 0.333984,0.1367187 -0.304688,0.2753907 C 21.461529,6.0932552 21.259008,5.9557817 21.056641,5.8183594 L 20.753906,5.7148438 c -0.133393,0.089109 -0.263561,0.1828156 -0.394531,0.2753906 l -0.152344,0.34375 H 19.902344 L 20.054688,5.9550781 20.298828,5.75 l -0.03125,-0.34375 0.06055,-0.1386719 0.152344,0.3105469 0.121093,-0.2402344 0.189454,-0.048828 0.03125,-0.042969 0.132812,-0.0625 0.271484,-0.1289063 0.304688,-0.042969 0.185547,-0.1855469 0.392578,-0.056641 0.121094,0.2070313 c -0.07018,0.022688 -0.134988,0.052976 -0.203125,0.076172 l 0.93164,-0.2558594 z m -4.291016,0.5527344 0.228516,0.03125 0.169922,0.091797 -0.02734,0.3378906 -0.314453,0.2753907 -0.712891,0.3964843 0.08594,0.2753907 0.541015,0.2148437 0.08594,0.3671875 0.199219,-0.3964843 0.314453,-0.1230469 -0.0293,-0.1835938 0.25,-0.4140625 -0.05078,-0.035156 0.244141,-0.171875 0.302735,0.1386718 v 0.240234 h -0.04883 l -0.04102,0.1796875 0.341797,-0.1210937 0.142578,0.2753906 -0.05859,0.1835938 0.199219,0.060547 0.171875,0.1542969 -0.05664,0.1816406 -0.484375,0.1542969 h -0.341797 l -0.484375,0.2148438 h 0.769531 L 20.71875,7.9414062 20.207031,8.0332031 19.978516,8.3378906 19.580078,8.4921875 19.380859,8.9511719 18.839844,9.3789062 18.783203,9.9921875 18.46875,9.625 18.041016,9.5332031 17.984375,9.7167969 h -0.341797 l -0.427734,0.3066411 -0.05664,0.367187 0.0293,0.335937 0.285156,0.152344 0.199219,-0.0918 0.199219,-0.24414 h 0.199218 c -0.02872,0.214345 -0.05741,0.428196 -0.08594,0.642578 l 0.341797,-0.03125 v 0.337891 l 0.115234,0.30664 c 0.138186,0.08066 0.32918,0.08638 0.484375,0.128906 v -0.06836 l 0.511719,-0.427734 0.484375,0.335937 0.570313,-0.06055 0.226562,0.580078 0.427734,0.0918 0.228516,0.429688 c 0.464213,0.226698 0.928783,0.453642 1.396484,0.673828 l -0.05859,0.458984 -0.341797,0.458985 0.05859,0.611328 -0.228516,0.490234 -0.427734,0.0918 -0.199219,0.275391 0.08594,0.183593 -0.285156,0.673828 -0.371094,0.123047 -0.08594,0.214844 -0.226563,0.212891 0.05664,0.152344 c 0,0 -0.04904,0.03742 -0.105469,0.07812 -0.05663,0.03996 -0.94673,-0.42949 -0.96875,-0.5 -0.0218,-0.07051 -0.0078,-0.06641 -0.0078,-0.06641 l 0.169922,-0.705078 -0.169922,-0.367187 0.02734,-0.642579 -0.226562,-0.30664 -0.513672,-0.427734 -0.511719,-0.888672 0.140625,-0.458985 -0.05664,-0.121093 0.171875,-0.246094 0.226562,-0.582032 v -0.04883 l -0.169922,-0.07226 -0.228515,0.0293 -0.398438,-0.275391 -0.255859,-0.306641 -0.597656,-0.152343 -0.59961,-0.335938 c 0,0 -0.251085,-0.374793 -0.265625,-0.439453 0.367216,-2.7890164 1.948185,-4.2668008 2.730469,-4.9511719 0.06125,-0.014361 0.298828,-0.058594 0.298828,-0.058594 z m 7.654297,0.1542968 0.361328,0.1269532 0.669922,0.125 -0.167969,0.1894531 h -0.361328 l 0.361328,0.3789062 0.279297,-0.3144531 0.08398,-0.1386719 c 0,0 1.070696,0.9563066 1.68164,2.0039063 0.610945,1.047945 0.896484,2.2843076 0.896484,2.5351566 l -0.208984,0.236328 c -0.128112,-0.1509 -0.271907,-0.277621 -0.417969,-0.410157 l -0.320312,0.04688 -0.292969,-0.3320318 v 0.4101558 l 0.251953,0.189454 0.166016,0.189453 0.222656,-0.251953 c 0.05619,0.105201 0.11216,0.211205 0.167969,0.316406 v 0.314453 l -0.251953,0.283203 -0.458985,0.316406 -0.320312,0.320313 c 0.156909,-0.01176 0.314129,-0.0169 0.474609,-0.03711 v 0.220703 l -0.335937,0.820312 -0.306641,0.347656 -0.25,0.53711 v 0.882812 l 0.08398,0.345703 -0.140626,0.158204 -0.30664,0.189453 -0.320313,0.267578 0.265625,0.300781 -0.363281,0.314453 0.07031,0.205078 -0.544922,0.615235 h -0.361328 l -0.306641,0.18945 h -0.195313 v -0.251953 l -0.08398,-0.50586 c -0.107897,-0.316753 -0.21972,-0.630821 -0.333984,-0.945312 0,-0.232139 0.01345,-0.461258 0.02734,-0.69336 l 0.140624,-0.316406 -0.197265,-0.378906 0.01563,-0.519531 -0.265625,-0.300782 0.132812,-0.433593 -0.216797,-0.244141 h -0.376953 l -0.125,-0.142578 -0.376953,0.238281 -0.152344,-0.173828 -0.349609,0.298828 c -0.236729,-0.26826 -0.473855,-0.536624 -0.710937,-0.804687 l -0.277344,-0.66211 0.25,-0.378906 L 24,10.921875 24.306641,10.195312 C 24.558375,9.8823186 24.819973,9.582629 25.085938,9.28125 l 0.474609,-0.1269531 0.529297,-0.0625 0.363281,0.09375 0.515625,0.5214843 0.181641,-0.2050781 0.25,-0.03125 0.474609,0.15625 h 0.363281 l 0.25,-0.2207031 0.111328,-0.15625 -0.25,-0.1582031 -0.419921,-0.03125 C 27.813582,8.8995637 27.706213,8.7289781 27.568359,8.5859375 l -0.138671,0.064453 -0.05664,0.4101563 -0.25,-0.2851563 -0.05664,-0.3144531 -0.277344,-0.2207031 h -0.113281 l 0.279297,0.3144531 -0.111328,0.2851563 -0.222656,0.0625 L 26.759766,8.6191406 26.507812,8.4921875 26.287109,8.2402344 25.867188,8.3339844 25.8125,8.4609375 25.560547,8.6191406 25.421875,8.9648438 25.074219,9.1386719 24.919922,8.9648438 H 24.751953 V 8.3984375 l 0.363281,-0.1894531 h 0.279297 L 25.337891,7.9882812 25.115234,7.7675781 25.492188,7.6875 25.701172,7.4511719 25.867188,7.1679688 h 0.30664 l -0.08398,-0.2207032 0.197265,-0.1269531 v 0.2519531 l 0.417969,0.095703 0.417969,-0.3476563 0.02734,-0.1582031 0.361328,-0.2519532 c -0.131103,0.016294 -0.260561,0.027652 -0.388672,0.0625 V 6.1894531 l 0.138672,-0.3164062 h -0.138672 l -0.306641,0.2851562 -0.08398,0.1582031 0.08398,0.2207032 -0.140625,0.3769531 -0.222656,-0.125 L 26.257812,6.5683594 25.951172,6.7890625 25.839844,6.2832031 26.369141,5.9375 V 5.7480469 L 26.705078,5.5273438 Z M 24.96875,6.703125 h 0.181641 c 0.08936,0.1822692 0.170786,0.3587921 0.242187,0.5488281 l 0.212891,0.2070313 -0.242188,0.2402344 -0.333984,0.068359 0.06055,-0.4121093 V 7.046875 L 24.96875,6.9082031 Z M 24.689453,7.1152344 24.810547,7.4238281 24.537109,7.5625 24.476562,7.1835938 Z m -3.482422,0.8554687 0.273438,0.2050781 -0.181641,0.2753907 z m 7.308594,2.0351559 -0.08398,0.0957 0.126953,0.457032 0.236328,0.267578 c 0.135207,0.390132 0.269712,0.763801 0.447266,1.136719 0.09777,0 0.191982,-0.01715 0.287109,-0.02344 l -0.205078,-0.230469 0.111328,-0.283203 -0.222656,-0.251953 -0.375,-0.804687 z m -10.019531,10.875 c 1.640078,-0.01064 3.319378,0.696303 4.685547,2.882813 l 0.146484,14.505859 c -1.247963,-3.103114 -4.86944,-4.987729 -9.181641,-2.339843 -0.128807,0.07909 -0.25672,0.16273 -0.386718,0.25 -0.41639,0.22714 -0.535569,-0.215925 -0.542969,-0.615235 l 0.05078,-11.771484 c 0.01245,-0.870057 0.0693,-1.050854 0.777344,-1.486328 1.210867,-0.685816 2.811095,-1.415142 4.451172,-1.425782 z m 10.482422,0 c 1.640075,0.01064 3.242258,0.739966 4.453125,1.425782 0.708045,0.435474 0.76293,0.616271 0.77539,1.486328 l 0.05078,11.771484 c -0.0074,0.39931 -0.124625,0.842376 -0.541015,0.615235 -0.129998,-0.08727 -0.259862,-0.17091 -0.388672,-0.25 -4.312198,-2.647885 -7.931724,-0.763271 -9.179686,2.339843 l 0.146484,-14.505859 c 1.366167,-2.18651 3.043516,-2.893453 4.683594,-2.882813 z"
   id="path2"
   inkscape:connector-curvature="0" />

<g
   id="g6"
   transform="translate(0,-464)">
</g>
<g
   id="g8"
   transform="translate(0,-464)">
</g>
<g
   id="g10"
   transform="translate(0,-464)">
</g>
<g
   id="g12"
   transform="translate(0,-464)">
</g>
<g
   id="g14"
   transform="translate(0,-464)">
</g>
<g
   id="g16"
   transform="translate(0,-464)">
</g>
<g
   id="g18"
   transform="translate(0,-464)">
</g>
<g
   id="g20"
   transform="translate(0,-464)">
</g>
<g
   id="g22"
   transform="translate(0,-464)">
</g>
<g
   id="g24"
   transform="translate(0,-464)">
</g>
<g
   id="g26"
   transform="translate(0,-464)">
</g>
<g
   id="g28"
   transform="translate(0,-464)">
</g>
<g
   id="g30"
   transform="translate(0,-464)">
</g>
<g
   id="g32"
   transform="translate(0,-464)">
</g>
<g
   id="g34"
   transform="translate(0,-464)">
</g>
</svg>