<?xml version="1.0" encoding="UTF-8" standalone="no"?>
<!-- Created with Inkscape (http://www.inkscape.org/) -->

<svg
   xmlns:dc="http://purl.org/dc/elements/1.1/"
   xmlns:cc="http://creativecommons.org/ns#"
   xmlns:rdf="http://www.w3.org/1999/02/22-rdf-syntax-ns#"
   xmlns:svg="http://www.w3.org/2000/svg"
   xmlns="http://www.w3.org/2000/svg"
   xmlns:xlink="http://www.w3.org/1999/xlink"
   xmlns:sodipodi="http://sodipodi.sourceforge.net/DTD/sodipodi-0.dtd"
   xmlns:inkscape="http://www.inkscape.org/namespaces/inkscape"
   width="48"
   height="48"
   viewBox="0 0 12.7 12.7"
   version="1.1"
   id="svg829"
   inkscape:version="0.92.3 (2405546, 2018-03-11)"
   sodipodi:docname="referencer.svg">
  <defs
     id="defs823">
    <linearGradient
       inkscape:collect="always"
       id="linearGradient980">
      <stop
         style="stop-color:#00000a;stop-opacity:1"
         offset="0"
         id="stop976" />
      <stop
         style="stop-color:#000000;stop-opacity:0"
         offset="1"
         id="stop978" />
    </linearGradient>
    <radialGradient
       collect="always"
       xlink:href="#linearGradient8924"
       id="radialGradient5562"
       gradientUnits="userSpaceOnUse"
       gradientTransform="matrix(0.00802241,0.29701399,-0.20634358,0.00587882,4.7121813,279.76072)"
       cx="24.652573"
       cy="18.94449"
       fx="24.652485"
       fy="18.944481"
       r="8.6174498" />
    <linearGradient
       id="linearGradient8924">
      <stop
         id="stop8926"
         offset="0"
         style="stop-color:#cee14b" />
      <stop
         id="stop8928"
         offset="1"
         style="stop-color:#9db029" />
    </linearGradient>
    <radialGradient
       collect="always"
       xlink:href="#linearGradient8924"
       id="radialGradient5562-5"
       gradientUnits="userSpaceOnUse"
       gradientTransform="matrix(0.00619085,0.22920455,-0.15923454,0.00453666,9.1277796,282.50374)"
       cx="24.652573"
       cy="18.94449"
       fx="24.652485"
       fy="18.944481"
       r="8.6174498" />
    <linearGradient
       inkscape:collect="always"
       xlink:href="#linearGradient980"
       id="linearGradient1002"
       gradientUnits="userSpaceOnUse"
       x1="1.6435294"
       y1="285.93106"
       x2="13.646275"
       y2="295.14481" />
  </defs>
  <sodipodi:namedview
     id="base"
     pagecolor="#ffffff"
     bordercolor="#666666"
     borderopacity="1.0"
     inkscape:pageopacity="0.0"
     inkscape:pageshadow="2"
     inkscape:zoom="2.65625"
     inkscape:cx="24"
     inkscape:cy="24"
     inkscape:document-units="mm"
     inkscape:current-layer="layer1"
     showgrid="false"
     showguides="true"
     inkscape:guide-bbox="true"
     inkscape:window-width="1366"
     inkscape:window-height="719"
     inkscape:window-x="0"
     inkscape:window-y="25"
     inkscape:window-maximized="1"
     scale-x="1.9"
     units="px"
     inkscape:snap-global="true"
     inkscape:measure-start="0,0"
     inkscape:measure-end="0,0"
     inkscape:snap-smooth-nodes="true" />
  <metadata
     id="metadata826">
    <rdf:RDF>
      <cc:Work
         rdf:about="">
        <dc:format>image/svg+xml</dc:format>
        <dc:type
           rdf:resource="http://purl.org/dc/dcmitype/StillImage" />
        <dc:title />
      </cc:Work>
    </rdf:RDF>
  </metadata>
  <g
     inkscape:label="Capa 1"
     inkscape:groupmode="layer"
     id="layer1"
     transform="translate(0,-284.3)">
    <g
       id="g1011">
      <path
         id="path829"
         d="m 6.3502584,284.39147 c -1.543436,0 -2.7839981,0.29643 -3.6871132,0.8816 -1.0851073,0.7031 -1.6588134,1.82603 -1.6588134,3.24683 0,1.91207 1.5362412,4.46762 2.0071127,5.20537 0.5375662,0.84219 1.1245072,1.60861 1.6526121,2.158 0.6726666,0.69964 1.2086567,1.02527 1.6862018,1.02527 0.4775708,0 1.013092,-0.32561 1.6856847,-1.02527 0.5280811,-0.54937 1.1150471,-1.31579 1.6526132,-2.158 0.4708717,-0.73773 2.0071107,-3.2933 2.0071107,-5.20537 2.5e-5,-1.42078 -0.573141,-2.5437 -1.658295,-3.24683 -0.9030667,-0.58517 -2.1437006,-0.8816 -3.6871136,-0.8816 z"
         style="fill:#8a6f91;fill-opacity:1;stroke:none;stroke-width:0.02444816"
         inkscape:connector-curvature="0" />
      <path
         inkscape:connector-curvature="0"
         id="path974"
         d="m 7.5736973,296.27446 c 0.153554,-0.1297 0.292761,-0.21461 0.462504,-0.39119 0.528081,-0.54937 1.115046,-1.3158 1.652612,-2.15801 0.235437,-0.36886 0.7368547,-1.19202 1.1797717,-2.16214 0.221461,-0.48506 0.428432,-1.00704 0.57981,-1.52704 0.139259,-0.47835 0.213472,-0.94931 0.227378,-1.39474 l -1.8892907,-1.87586 -1.767851,-0.27388 -1.544092,0.59738 0.622701,0.6475 -0.324011,0.0496 -1.195276,-1.19527 -0.9709997,0.34881 -1.892391,4.40749 z"
         style="fill:url(#linearGradient1002);fill-opacity:1;stroke:none;stroke-width:0.26458332px;stroke-linecap:butt;stroke-linejoin:miter;stroke-opacity:1;opacity:0.55" />
      <path
         inkscape:connector-curvature="0"
         id="path955"
         d="m 6.3502587,284.39147 c -1.5434366,0 -2.7839985,0.29643 -3.6871135,0.8816 -1.0851073,0.7031 -1.6588137,1.82603 -1.6588137,3.24683 0,1.91207 1.5362412,4.46762 2.0071128,5.20537 0.5375664,0.84219 1.1245077,1.60861 1.6526123,2.158 0.6726666,0.69964 1.2086564,1.02527 1.6862021,1.02527 0.082087,0 0.1786696,-0.0663 0.2645833,-0.0858 -0.1640877,-0.0372 -0.3230544,-0.0535 -0.5053957,-0.16433 -0.2777739,-0.16886 -0.5798897,-0.42533 -0.916223,-0.77515 -0.5281046,-0.54939 -1.115046,-1.31581 -1.6526124,-2.158 -0.2354357,-0.36888 -0.7373702,-1.19203 -1.1802898,-2.16214 -0.2214594,-0.48506 -0.4279128,-1.00705 -0.5792928,-1.52704 -0.1513798,-0.52 -0.2475301,-1.03817 -0.2475301,-1.51619 0,-0.3552 0.035714,-0.69163 0.1064535,-1.00769 0.07074,-0.31606 0.1767274,-0.61159 0.3162599,-0.88471 0.1395325,-0.2731 0.3129698,-0.52399 0.519348,-0.75033 0.2063781,-0.22636 0.4454755,-0.42832 0.7167522,-0.60411 0.2257788,-0.14629 0.4725871,-0.27438 0.7400066,-0.38447 0.2674194,-0.11008 0.5555334,-0.20233 0.8635132,-0.27595 0.5377479,-0.12856 1.1621291,-0.17686 1.8190104,-0.19327 -0.095538,-0.002 -0.166596,-0.0279 -0.2645833,-0.0279 z m 0.2645833,0.0279 c -0.1020757,0.003 -0.1823673,0.0257 -0.2826703,0.03 0.6006397,0.0286 1.1756782,0.0821 1.6758669,0.20464 0.2868774,0.0703 0.5562637,0.15644 0.8066691,0.25941 0.2504051,0.10297 0.4820645,0.22267 0.6934978,0.35967 0.2712886,0.17577 0.5104175,0.37775 0.7167515,0.6041 0.206334,0.22635 0.379882,0.47723 0.519348,0.75034 0.139467,0.27311 0.245057,0.56864 0.315743,0.8847 0.07069,0.31606 0.10646,0.6525 0.106454,1.00769 0,0.47802 -0.09615,0.99619 -0.24753,1.51619 -0.15138,0.51999 -0.357833,1.04198 -0.579293,1.52704 -0.4429192,0.97011 -0.9448536,1.79328 -1.1802896,2.16214 -0.5375659,0.84221 -1.1245321,1.60863 -1.6526124,2.158 -0.2784919,0.2897 -0.5303811,0.50093 -0.7642945,0.65164 -0.1536768,0.099 -0.2907601,0.13752 -0.4314981,0.18914 0.1011344,0.0323 0.205213,0.0763 0.3038576,0.0987 0.4139163,-0.0939 0.8641178,-0.36008 1.4211017,-0.93948 0.5280803,-0.54937 1.1150465,-1.31579 1.6526123,-2.158 0.470872,-0.73773 2.007112,-3.2933 2.007112,-5.20537 2.5e-5,-1.42078 -0.573141,-2.5437 -1.658296,-3.24683 -0.8457328,-0.54802 -2.0132409,-0.81847 -3.42253,-0.85369 z"
         style="opacity:0.2;fill:#000000;fill-opacity:1;stroke-width:0.02444816" />
      <path
         inkscape:connector-curvature="0"
         id="path2555"
         d="m 6.3268966,287.46939 c -0.8823022,0 -1.5973934,0.71858 -1.5973934,1.6052 0,0.88661 0.7150912,1.60769 1.5973934,1.60769 0.8823021,0 1.5999045,-0.72108 1.5999028,-1.60769 0,-0.88661 -0.7176007,-1.6052 -1.5999028,-1.6052 z"
         style="fill:#0088aa;fill-opacity:1;stroke:none;stroke-width:0.09993111;stroke-linecap:round;stroke-linejoin:round;stroke-miterlimit:4;stroke-dasharray:none;stroke-dashoffset:0;stroke-opacity:1" />
      <path
         inkscape:connector-curvature="0"
         d="m 5.7536782,289.45454 -0.04705,-0.0957 -0.088145,-0.0205 -0.047016,-0.12971 -0.1175217,0.0135 -0.099879,-0.0751 -0.1058381,0.0956 v 0.0153 c -0.032022,-0.01 -0.071375,-0.0109 -0.09988,-0.029 l -0.02353,-0.0684 v -0.075 l -0.070508,0.007 c 0.00584,-0.0479 0.011726,-0.0956 0.017652,-0.14341 h -0.041175 l -0.041095,0.0547 -0.041176,0.0203 -0.058783,-0.0339 -0.00591,-0.075 0.011759,-0.0819 0.088189,-0.0682 h 0.070509 l 0.011726,-0.0411 0.088145,0.0203 0.064661,0.0819 0.011759,-0.13669 0.111675,-0.0956 0.041138,-0.1025 0.082269,-0.0341 0.047016,-0.0683 0.1057572,-0.0208 0.052942,-0.0818 c -0.052899,0 -0.1057973,0 -0.1586966,0 l 0.099912,-0.0479 h 0.070463 l 0.099953,-0.0344 0.011759,-0.0408 -0.03529,-0.0343 -0.041138,-0.0137 0.011759,-0.0409 -0.029371,-0.0615 -0.070544,0.0271 0.01176,-0.0547 -0.082268,-0.0479 -0.064623,0.11606 0.00584,0.0411 -0.064623,0.0276 -0.041176,0.0887 -0.017609,-0.0819 -0.1116751,-0.0479 -0.017652,-0.0614 0.1469339,-0.0888 0.064661,-0.0615 0.00591,-0.0751 -0.035254,-0.0206 -0.047016,-0.007 -0.029371,0.0752 c 0,0 -0.049154,0.01 -0.061788,0.0131 -0.1613812,0.15274 -0.4874587,0.4824 -0.563213,1.10482 0.00301,0.0145 0.054913,0.0981 0.054913,0.0981 l 0.1234071,0.075 0.1234061,0.0344 0.052943,0.0684 0.082234,0.0614 0.047016,-0.007 0.035255,0.0165 v 0.0109 l -0.046978,0.12977 -0.03529,0.0547 0.011759,0.0276 -0.029371,0.10233 0.1057985,0.19817 0.1057569,0.0957 0.04705,0.0683 -0.00591,0.14352 0.03529,0.0818 -0.03529,0.15714 c 0,0 -0.00275,-0.003 0.00177,0.0146 0.00459,0.0157 0.1883034,0.12048 0.1999859,0.11156 0.011647,-0.009 0.021595,-0.017 0.021595,-0.017 l -0.011726,-0.034 0.046978,-0.048 0.017653,-0.0479 0.076428,-0.0276 0.058749,-0.15033 -0.01761,-0.0408 0.041059,-0.0615 0.088189,-0.0208 0.04705,-0.1093 -0.011759,-0.13654 0.070508,-0.10249 0.01176,-0.1025 c -0.096484,-0.0492 -0.1921763,-0.0998 -0.2879409,-0.15042 m 0.7672509,-1.92877 -0.1715466,-0.069 -0.1977797,0.023 -0.2441185,0.069 -0.046166,0.046 0.1517032,0.10732 v 0.0613 l -0.059367,0.0613 0.079211,0.16111 0.052634,-0.0306 0.066099,-0.10729 c 0.1018968,-0.0323 0.1932604,-0.069 0.2901127,-0.11505 l 0.079211,-0.20696 m 1.3769105,1.29915 c 0,0.0225 0,0 0,0 l -0.045397,0.0528 c -0.027823,-0.0337 -0.059065,-0.0619 -0.090789,-0.0915 l -0.069642,0.0104 -0.063625,-0.0737 v 0.0914 l 0.054508,0.0425 0.03628,0.0422 0.048491,-0.056 c 0.012201,0.0234 0.024246,0.0469 0.03636,0.0705 v 0.0703 l -0.054596,0.0633 -0.099903,0.0705 -0.07566,0.0776 -0.04848,-0.0564 0.024246,-0.0632 -0.048409,-0.0561 -0.081756,-0.17947 -0.069643,-0.0808 -0.01823,0.0208 0.027337,0.10211 0.051414,0.06 c 0.029371,0.0871 0.058414,0.17028 0.09698,0.25349 0.059799,0 0.1161741,-0.007 0.175564,-0.0142 v 0.0494 l -0.072655,0.18303 -0.06663,0.0775 -0.054508,0.1198 c 0,0.0656 0,0.13135 0,0.19703 l 0.01823,0.0776 -0.030263,0.0352 -0.066709,0.0423 -0.069635,0.06 0.0576,0.0668 -0.078751,0.0707 0.015127,0.0456 -0.1181311,0.13735 h -0.078666 l -0.06663,0.0423 h -0.042475 v -0.0561 l -0.018058,-0.1128 c -0.023433,-0.0708 -0.047837,-0.14087 -0.072655,-0.21105 0,-0.0519 0.00301,-0.10309 0.00602,-0.1549 l 0.03035,-0.0703 -0.042474,-0.0846 0.00309,-0.11616 -0.057601,-0.0668 0.028805,-0.0968 -0.046865,-0.0546 h -0.081834 l -0.027249,-0.0317 -0.081756,0.0529 -0.033276,-0.0387 -0.075748,0.0669 c -0.051414,-0.06 -0.1029188,-0.11965 -0.1544124,-0.17947 l -0.060534,-0.14788 0.054507,-0.0844 -0.030263,-0.0351 0.066551,-0.16201 c 0.054675,-0.0698 0.1117829,-0.13685 0.1695496,-0.20413 l 0.1029941,-0.0282 0.1150405,-0.0141 0.078751,0.021 0.1120252,0.11605 0.039379,-0.0456 0.054427,-0.007 0.1029952,0.0352 h 0.078751 l 0.054507,-0.0494 0.024246,-0.0352 -0.054596,-0.0352 -0.090872,-0.007 c -0.025217,-0.0358 -0.04865,-0.0738 -0.078593,-0.10561 l -0.03035,0.0142 -0.012122,0.0915 -0.054508,-0.0633 -0.012035,-0.0706 -0.060534,-0.0492 H 6.950127 l 0.060605,0.0705 -0.024246,0.0632 -0.04841,0.0141 0.030263,-0.0633 -0.054596,-0.0281 -0.04833,-0.0562 -0.090957,0.0209 -0.012034,0.0281 -0.054508,0.035 -0.030263,0.0776 -0.07566,0.0388 -0.033355,-0.0388 h -0.03628 v -0.12675 l 0.078751,-0.0423 h 0.060534 l -0.012202,-0.0494 -0.04833,-0.0494 0.081685,-0.0178 0.045396,-0.0526 0.03628,-0.0634 h 0.066709 l -0.01823,-0.0494 0.042474,-0.0284 v 0.0562 l 0.09079,0.0209 0.090789,-0.0775 0.0061,-0.0352 0.078665,-0.0562 c -0.028478,0.005 -0.056945,0.007 -0.084779,0.0141 v -0.0634 l 0.030264,-0.0705 H 7.046989 l -0.066514,0.0633 -0.018229,0.0352 0.018229,0.0494 -0.03035,0.0845 -0.048411,-0.0282 -0.042305,-0.0494 -0.066709,0.0494 -0.024246,-0.11257 0.1150406,-0.0775 v -0.0423 l 0.072726,-0.0494 0.1150408,-0.0282 0.078752,0.0282 0.1452981,0.0282 -0.03628,0.0422 h -0.078741 l 0.078752,0.0845 0.060534,-0.0703 0.018386,-0.0308 c 0,0 0.2321893,0.21373 0.3648831,0.44751 0.132696,0.23386 0.1950094,0.50949 0.1950094,0.56546 z"
         style="fill:url(#radialGradient5562-5);fill-opacity:1;fill-rule:nonzero;stroke:none;stroke-width:0.12187627"
         id="path6566" />
      <path
         inkscape:connector-curvature="0"
         id="path886"
         d="m 6.4037636,291.04742 -0.00997,1.00294 c 0.4243456,-1.05514 1.655008,-1.69595 3.1212906,-0.79559 0.043801,0.0269 0.087798,0.0553 0.1319987,0.0849 0.1415852,0.0772 0.1809255,-0.0736 0.1834424,-0.20936 l -0.017142,-4.00261 c -0.00419,-0.29584 -0.02244,-0.3572 -0.2631994,-0.50526 -0.4115695,-0.23309 -0.9567418,-0.48112 -1.5141874,-0.48492 h -4.084e-4 c -0.5497231,-0.003 -1.1115934,0.23513 -1.5723996,0.9543 0.2184616,0.0182 0.435844,0.0449 0.6292824,0.12522 0.2440622,0.10143 0.4638212,0.24811 0.6484247,0.42948 0.1846036,0.18139 0.3342178,0.39705 0.4374669,0.63687 0.1032495,0.2398 0.1603117,0.50366 0.1603117,0.78043 0,0.27674 -0.057063,0.54019 -0.1603117,0.78001 -0.1032491,0.23982 -0.2528633,0.4559 -0.4374669,0.63725 -0.1846035,0.18139 -0.4043625,0.32807 -0.6484247,0.4295 -0.2116882,0.088 -0.4476615,0.12403 -0.6887016,0.13679 z"
         style="fill:#e6e6e6;fill-opacity:1;stroke-width:0.17857355" />
      <path
         inkscape:connector-curvature="0"
         id="path820-6"
         d="m 4.4708528,286.13757 c -0.5576768,0.003 -1.1016564,0.25181 -1.5133893,0.48491 -0.2407569,0.1482 -0.2601612,0.20942 -0.2643947,0.50526 l -0.017148,4.0026 c 0.00254,0.13562 0.04306,0.2866 0.1846376,0.20938 0.044204,-0.0297 0.087806,-0.058 0.1315988,-0.0849 1.4662838,-0.90038 2.6977418,-0.25956 3.1220883,0.79559 l -0.010368,-1.02049 c -0.2071834,-0.0203 -0.4151621,-0.0426 -0.5993744,-0.11925 -0.244021,-0.10142 -0.4634892,-0.24811 -0.6480256,-0.42949 -0.1845358,-0.18137 -0.3338721,-0.39744 -0.4370679,-0.63727 -0.1031958,-0.2398 -0.1603121,-0.50326 -0.1603121,-0.78001 0,-0.27676 0.057114,-0.54061 0.1603121,-0.78042 0.1031958,-0.23983 0.2525321,-0.45549 0.4370679,-0.63686 0.1845364,-0.18138 0.4040046,-0.32807 0.6480256,-0.42949 0.1695024,-0.0705 0.362252,-0.0866 0.5515198,-0.10966 -0.4631209,-0.73371 -1.03062,-0.97346 -1.5851702,-0.96985 z"
         style="fill:#b3b3b3;fill-opacity:1;stroke-width:0.17857355" />
    </g>
  </g>
</svg>
