<svg xmlns="http://www.w3.org/2000/svg" xmlns:xlink="http://www.w3.org/1999/xlink" width="48" height="48" viewBox="0 0 12.7 12.7"><defs><linearGradient id="b"><stop offset="0" stop-color="#babdb6"/><stop offset="1" stop-color="#eeeeec"/></linearGradient><linearGradient id="a"><stop offset="0" stop-opacity=".98"/><stop offset="1" stop-opacity="0"/></linearGradient><linearGradient gradientTransform="translate(-.09 -.22)" xlink:href="#a" id="d" gradientUnits="userSpaceOnUse" x1="3.04" y1="286.09" x2="12.04" y2="293.99"/><linearGradient xlink:href="#b" id="c" gradientUnits="userSpaceOnUse" gradientTransform="matrix(.31498 0 0 .31498 -5.08 278.46)" x1="35.75" y1="18.12" x2="35.75" y2="43.19"/></defs><path d="M54.45 57.21a1.26 1.26 0 1 0 0 2.53h2.92v4.55h2.62v-4.55h2.68a1.26 1.26 0 1 0 0-2.53zm2.92 7.08H53.6c-.5 0-.98.4-1.08.9l-1.57 8.48c-.09.5.25.9.75.9h4.59v.03h4.54v-.03h4.6c.5 0 .83-.4.74-.9l-1.57-8.49c-.1-.5-.57-.9-1.08-.9h-3.49V68h2.54l-3.98 3.27L54.77 68h2.6z" fill="#1a1a1a"/><g transform="translate(0 -284.3)"><path d="M6.35 284.4c-1.54 0-2.78.29-3.69.87A3.67 3.67 0 0 0 1 288.52c0 1.91 1.54 4.47 2.01 5.2.54.85 1.13 1.61 1.65 2.16.68.7 1.21 1.03 1.69 1.03s1.01-.33 1.69-1.03c.52-.55 1.11-1.31 1.65-2.15.47-.74 2-3.3 2-5.21 0-1.42-.57-2.54-1.65-3.25a6.75 6.75 0 0 0-3.69-.88z" fill="#d3bc5f"/><rect ry=".65" rx=".65" y="286.19" x="3.28" height="6.61" width="6.61" style="marker:none" overflow="visible" fill="#1a1a1a" fill-rule="evenodd" opacity=".75"/><rect ry=".65" rx=".65" y="285.86" x="2.95" height="6.61" width="6.61" style="marker:none" overflow="visible" fill="url(#c)" fill-rule="evenodd"/><path d="M4.55 292.48h4.37a.65.65 0 0 0 .65-.65v-4.37l-1.07-1.07-.25.48-.5-.23h-.7l-.43.61-.88-.88-.65.25h-.6l-.3.35-.17.64 1.17 1.2-.87-.1-.5.17.77.78-.65.12.85.85-.05 1.07-.82.15z" opacity=".45" fill="url(#d)"/><text y="288.95" x="3.57" style="-inkscape-font-specification:'Courier 10 Pitch Bold'" font-weight="700" font-size="4.36" font-family="Courier 10 Pitch" fill="#204a87" stroke-width=".16"><tspan y="288.95" x="3.57">SC</tspan></text><text y="291.91" x="3.48" style="-inkscape-font-specification:'Courier 10 Pitch Bold'" font-weight="700" font-size="4.36" font-family="Courier 10 Pitch" stroke-width=".16"><tspan y="291.91" x="3.48">IM</tspan></text><path d="M6.35 284.4c-1.54 0-2.78.29-3.69.87A3.67 3.67 0 0 0 1 288.52c0 1.91 1.54 4.47 2.01 5.2.54.85 1.13 1.61 1.65 2.16.68.7 1.21 1.03 1.69 1.03s1.01-.33 1.69-1.03c.52-.55 1.11-1.31 1.65-2.15.47-.74 2-3.3 2-5.21 0-1.42-.57-2.54-1.65-3.25a6.75 6.75 0 0 0-3.69-.88zm0 .03c.56.02 1.09.07 1.55.18a5.82 5.82 0 0 1 1.6.66 3.65 3.65 0 0 1 1.24 1.36c.14.27.25.57.32.88a4.61 4.61 0 0 1-.14 2.53c-.15.52-.36 1.04-.58 1.52-.44.97-.95 1.8-1.18 2.17-.54.84-1.13 1.6-1.65 2.15-.34.35-.64.61-.92.78a.96.96 0 0 1-.24.1.96.96 0 0 1-.24-.1 4.76 4.76 0 0 1-.92-.78 14.41 14.41 0 0 1-1.65-2.15c-.23-.37-.74-1.2-1.18-2.17-.22-.48-.43-1-.58-1.52a4.6 4.6 0 0 1-.14-2.52 3.73 3.73 0 0 1 .84-1.64 3.65 3.65 0 0 1 1.45-1c.27-.1.56-.2.87-.27.46-.1 1-.16 1.55-.18z" opacity=".4"/></g></svg>