<?xml version="1.0" encoding="UTF-8" standalone="no"?>
<!-- Generator: Adobe Illustrator 19.0.0, SVG Export Plug-In . SVG Version: 6.00 Build 0)  -->

<svg
   xmlns:dc="http://purl.org/dc/elements/1.1/"
   xmlns:cc="http://creativecommons.org/ns#"
   xmlns:rdf="http://www.w3.org/1999/02/22-rdf-syntax-ns#"
   xmlns:svg="http://www.w3.org/2000/svg"
   xmlns="http://www.w3.org/2000/svg"
   xmlns:xlink="http://www.w3.org/1999/xlink"
   xmlns:sodipodi="http://sodipodi.sourceforge.net/DTD/sodipodi-0.dtd"
   xmlns:inkscape="http://www.inkscape.org/namespaces/inkscape"
   version="1.1"
   id="Capa_1"
   x="0px"
   y="0px"
   viewBox="0 0 48 48"
   xml:space="preserve"
   sodipodi:docname="shotwell.svg"
   width="48"
   height="48"
   inkscape:version="0.92.3 (2405546, 2018-03-11)"><metadata
   id="metadata41"><rdf:RDF><cc:Work
       rdf:about=""><dc:format>image/svg+xml</dc:format><dc:type
         rdf:resource="http://purl.org/dc/dcmitype/StillImage" /><dc:title /></cc:Work></rdf:RDF></metadata><defs
   id="defs39"><linearGradient
     inkscape:collect="always"
     id="linearGradient920"><stop
       style="stop-color:#060000;stop-opacity:1"
       offset="0"
       id="stop916" /><stop
       style="stop-color:#070000;stop-opacity:0"
       offset="1"
       id="stop918" /></linearGradient><linearGradient
     inkscape:collect="always"
     id="linearGradient884"><stop
       style="stop-color:#000000;stop-opacity:1"
       offset="0"
       id="stop880" /><stop
       style="stop-color:#000000;stop-opacity:0"
       offset="1"
       id="stop882" /></linearGradient><linearGradient
     x1="-83.756935"
     y1="-7.8379993"
     x2="-92.222527"
     y2="27.521217"
     id="linearGradient5588"
     xlink:href="#linearGradient3202"
     gradientUnits="userSpaceOnUse"
     gradientTransform="matrix(0.5857566,-0.140767,0.1402401,0.5879573,74.307775,0.1578927)" /><linearGradient
     id="linearGradient3202"><stop
       id="stop3204"
       style="stop-color:white;stop-opacity:1"
       offset="0" /><stop
       id="stop3206"
       style="stop-color:#d3eefc;stop-opacity:1"
       offset="1" /></linearGradient><linearGradient
     inkscape:collect="always"
     xlink:href="#linearGradient884"
     id="linearGradient908"
     gradientUnits="userSpaceOnUse"
     x1="11.843586"
     y1="6.9759278"
     x2="55.628517"
     y2="34.661484" /><linearGradient
     inkscape:collect="always"
     xlink:href="#linearGradient920"
     id="linearGradient942"
     gradientUnits="userSpaceOnUse"
     x1="16.636585"
     y1="14.790991"
     x2="54.395439"
     y2="36.061581" /></defs><sodipodi:namedview
   pagecolor="#ffffff"
   bordercolor="#666666"
   borderopacity="1"
   objecttolerance="10"
   gridtolerance="10"
   guidetolerance="10"
   inkscape:pageopacity="0"
   inkscape:pageshadow="2"
   inkscape:window-width="1366"
   inkscape:window-height="719"
   id="namedview37"
   showgrid="false"
   showguides="true"
   inkscape:guide-bbox="true"
   inkscape:zoom="3.7565048"
   inkscape:cx="24"
   inkscape:cy="24"
   inkscape:window-x="0"
   inkscape:window-y="25"
   inkscape:window-maximized="1"
   inkscape:current-layer="Capa_1"
   inkscape:snap-smooth-nodes="true" />


<g
   id="g6"
   transform="translate(0,-464)">
</g>
<g
   id="g8"
   transform="translate(0,-464)">
</g>
<g
   id="g10"
   transform="translate(0,-464)">
</g>
<g
   id="g12"
   transform="translate(0,-464)">
</g>
<g
   id="g14"
   transform="translate(0,-464)">
</g>
<g
   id="g16"
   transform="translate(0,-464)">
</g>
<g
   id="g18"
   transform="translate(0,-464)">
</g>
<g
   id="g20"
   transform="translate(0,-464)">
</g>
<g
   id="g22"
   transform="translate(0,-464)">
</g>
<g
   id="g24"
   transform="translate(0,-464)">
</g>
<g
   id="g26"
   transform="translate(0,-464)">
</g>
<g
   id="g28"
   transform="translate(0,-464)">
</g>
<g
   id="g30"
   transform="translate(0,-464)">
</g>
<g
   id="g32"
   transform="translate(0,-464)">
</g>
<g
   id="g34"
   transform="translate(0,-464)">
</g>
<g
   id="g956"><path
     inkscape:connector-curvature="0"
     id="path2"
     d="M 37.935312,3.6781967 C 34.522149,1.466543 29.833554,0.3449615 24.000184,0.3449615 c -5.833461,0 -10.522148,1.1215815 -13.935496,3.3332352 C 5.9634947,6.3356004 3.79564,10.578722 3.79564,15.948693 c 0,7.226706 5.8068499,16.885816 7.586522,19.674154 2.031747,3.183081 4.250052,6.079808 6.246039,8.156275 2.542362,2.644283 4.567086,3.875917 6.371983,3.875917 1.804991,0 3.829715,-1.231634 6.371799,-3.876008 1.995894,-2.076376 4.214201,-4.973102 6.245947,-8.156275 1.779672,-2.788246 7.58643,-12.447448 7.58643,-19.674154 9.2e-5,-5.369879 -2.167671,-9.6129094 -6.269048,-12.2704053 z"
     style="fill:#2ca089;stroke-width:0.0924025" /><path
     inkscape:connector-curvature="0"
     id="path914"
     d="m 27.744141,46.001953 c 0.831852,-0.606477 1.662387,-1.219278 2.626953,-2.222656 1.995894,-2.076376 4.214348,-4.973077 6.246094,-8.15625 0.889836,-1.394123 2.786788,-4.507159 4.460937,-8.173828 0.837074,-1.833335 1.619215,-3.804159 2.191406,-5.769531 0.376578,-1.293475 0.463743,-2.525222 0.615235,-3.771485 L 35.011719,9.0351562 14.587891,32.847656 Z"
     style="fill:url(#linearGradient942);fill-opacity:1;stroke:none;stroke-width:1px;stroke-linecap:butt;stroke-linejoin:miter;stroke-opacity:1;opacity:0.5" /><ellipse
     ry="15.670588"
     rx="15.57647"
     cy="20.094118"
     cx="23.95294"
     id="path888"
     style="opacity:1;fill:#fbffff;fill-opacity:1;stroke:none;stroke-width:1.18985474;stroke-miterlimit:4;stroke-dasharray:none;stroke-opacity:1" /><path
     inkscape:connector-curvature="0"
     id="path878"
     d="m 18.748047,34.84375 a 15.57647,15.670588 0 0 0 0.601562,0.220703 15.57647,15.670588 0 0 0 1.507813,0.388672 15.57647,15.670588 0 0 0 1.541016,0.232422 15.57647,15.670588 0 0 0 1.554687,0.08008 15.57647,15.670588 0 0 0 1.101563,-0.04102 15.57647,15.670588 0 0 0 1.544921,-0.1875 15.57647,15.670588 0 0 0 1.519532,-0.34375 15.57647,15.670588 0 0 0 1.478515,-0.49414 15.57647,15.670588 0 0 0 1.419922,-0.638672 15.57647,15.670588 0 0 0 1.351563,-0.779297 15.57647,15.670588 0 0 0 1.265625,-0.912109 15.57647,15.670588 0 0 0 1.169922,-1.033203 15.57647,15.670588 0 0 0 1.0625,-1.146485 15.57647,15.670588 0 0 0 0.941406,-1.246094 15.57647,15.670588 0 0 0 0.814453,-1.335937 15.57647,15.670588 0 0 0 0.677734,-1.410156 15.57647,15.670588 0 0 0 0.533203,-1.472657 15.57647,15.670588 0 0 0 0.384766,-1.517578 15.57647,15.670588 0 0 0 0.232422,-1.548828 15.57647,15.670588 0 0 0 0.07813,-1.564453 15.57647,15.670588 0 0 0 -0.03906,-1.107422 15.57647,15.670588 0 0 0 -0.1875,-1.55664 15.57647,15.670588 0 0 0 -0.341796,-1.527344 15.57647,15.670588 0 0 0 -0.462891,-1.404297 l -4.898438,-4.8984376 -1.421875,1.6113286 -5.095703,-5.0957036 -1.576172,0.8496094 -5.589843,9.8261722 -6.400391,-6.398438 -3.464844,12.455078 7.033203,7.033203 -2.402343,0.896485 z"
     style="fill:url(#linearGradient908);fill-opacity:1;stroke:none;stroke-width:1px;stroke-linecap:butt;stroke-linejoin:miter;stroke-opacity:1;opacity:0.55" /><path
     style="fill:#164450;stroke-width:0.71170431"
     id="path2-3"
     d="M 20.299137,17.864887 27.08168,6.114649 C 26.092411,5.8940208 25.060439,5.765914 24,5.765914 c -3.416181,0 -6.540563,1.20278 -8.995942,3.209786 l 5.216792,9.031528 z m 17.280181,-2.135113 c -1.309535,-4.16347 -4.483736,-7.487129 -8.533335,-9.02441 l -5.209675,9.02441 z m 0.370086,1.423409 h -10.66133 l 0.412788,0.711704 6.782542,11.743121 C 36.803561,27.074341 38.234087,23.70798 38.234087,20 c 0,-0.975035 -0.09964,-1.928718 -0.284683,-2.846817 z M 19.067889,20 13.516595,10.391992 C 11.19644,12.925659 9.7659135,16.292021 9.7659135,20 c 0,0.975035 0.09964,1.928719 0.2846825,2.846817 h 10.66133 z m -8.647207,4.270226 c 1.309536,4.16347 4.483737,7.487129 8.533335,9.024411 l 5.209675,-9.024411 z m 16.041816,0 -5.551295,9.615125 C 21.907589,34.10598 22.93956,34.234086 24,34.234086 c 3.416181,0 6.540562,-1.20278 8.995942,-3.209786 l -5.216791,-9.031528 z"
     inkscape:connector-curvature="0" /><path
     inkscape:connector-curvature="0"
     id="path879"
     d="m 3.9231771,14.736119 c -0.027364,0.413027 -0.1289046,0.785349 -0.1289046,1.212889 0,7.226721 5.8082185,16.885492 7.5878895,19.673839 2.031748,3.18308 4.248156,6.079787 6.244142,8.156258 2.542362,2.644271 4.568148,3.874999 6.373047,3.874999 1.804991,0 3.829008,-1.230651 6.371093,-3.874998 1.995894,-2.076397 4.214349,-4.973103 6.246094,-8.156258 1.779671,-2.788272 7.585935,-12.447119 7.585935,-19.67384 8e-6,-0.42754 -0.101556,-0.799824 -0.128919,-1.212888 -0.08353,1.592163 -0.311131,3.248012 -0.804688,4.943357 -0.572145,1.965354 -1.35439,3.938192 -2.191404,5.771489 -1.674025,3.666596 -3.571101,6.777752 -4.460936,8.171869 -2.031746,3.183194 -4.2502,6.079861 -6.246094,8.156258 -1.271043,1.322193 -2.411549,2.291489 -3.460938,2.929663 -1.049388,0.638211 -2.00766,0.945335 -2.910156,0.945335 -0.902449,0 -1.858349,-0.307276 -2.908203,-0.945335 C 20.041281,44.070545 18.897472,43.101247 17.626292,41.779093 15.630317,39.70262 13.41391,36.805915 11.382162,33.622834 10.492326,32.22868 8.595249,29.117524 6.9212238,25.450966 6.0842112,23.617669 5.3019631,21.644831 4.7298178,19.679477 4.2362659,17.984132 4.0066789,16.328283 3.9231771,14.736119 Z"
     style="opacity:0.5;fill:#000000;stroke-width:0.0924025" /></g></svg>