<?xml version="1.0" encoding="UTF-8" standalone="no"?>
<!-- Created with Inkscape (http://www.inkscape.org/) -->

<svg
   xmlns:dc="http://purl.org/dc/elements/1.1/"
   xmlns:cc="http://creativecommons.org/ns#"
   xmlns:rdf="http://www.w3.org/1999/02/22-rdf-syntax-ns#"
   xmlns:svg="http://www.w3.org/2000/svg"
   xmlns="http://www.w3.org/2000/svg"
   xmlns:xlink="http://www.w3.org/1999/xlink"
   xmlns:sodipodi="http://sodipodi.sourceforge.net/DTD/sodipodi-0.dtd"
   xmlns:inkscape="http://www.inkscape.org/namespaces/inkscape"
   width="48"
   height="48"
   viewBox="0 0 12.7 12.7"
   version="1.1"
   id="svg829"
   inkscape:version="0.92.3 (2405546, 2018-03-11)"
   sodipodi:docname="skype.svg">
  <defs
     id="defs823">
    <linearGradient
       id="linearGradient3276">
      <stop
         style="stop-color:#ffffff;stop-opacity:0;"
         offset="0"
         id="stop3278" />
      <stop
         id="stop3292"
         offset="0.09740455"
         style="stop-color:#ffffff;stop-opacity:0;" />
      <stop
         id="stop3323"
         offset="0.8592869"
         style="stop-color:#ffffff;stop-opacity:0.55555558;" />
      <stop
         style="stop-color:#ffffff;stop-opacity:0.62962961;"
         offset="1"
         id="stop3280" />
    </linearGradient>
    <linearGradient
       id="linearGradient3168">
      <stop
         style="stop-color:#216778;stop-opacity:1"
         offset="0"
         id="stop3170" />
      <stop
         id="stop3176"
         offset="0.72000003"
         style="stop-color:#00aff0;stop-opacity:1;" />
      <stop
         style="stop-color:#5fbcd3;stop-opacity:1"
         offset="1"
         id="stop3172" />
    </linearGradient>
    <linearGradient
       id="linearGradient3816">
      <stop
         id="stop3818"
         offset="0"
         style="stop-color:#000000;stop-opacity:1;" />
      <stop
         id="stop3820"
         offset="1"
         style="stop-color:#000000;stop-opacity:0;" />
    </linearGradient>
    <radialGradient
       inkscape:collect="always"
       xlink:href="#linearGradient3276"
       id="radialGradient3418"
       gradientUnits="userSpaceOnUse"
       gradientTransform="matrix(-0.02634044,-0.11975846,0.30616986,-0.06734082,6.5692503,298.57741)"
       cx="84.465523"
       cy="15.70256"
       fx="84.465523"
       fy="15.70256"
       r="21.296875" />
    <linearGradient
       gradientTransform="translate(0.02490035,-0.07299564)"
       inkscape:collect="always"
       xlink:href="#linearGradient3816"
       id="linearGradient1007"
       gradientUnits="userSpaceOnUse"
       x1="2.4755597"
       y1="285.87714"
       x2="11.156078"
       y2="294.02344" />
    <linearGradient
       inkscape:collect="always"
       xlink:href="#linearGradient3168"
       id="linearGradient3421"
       gradientUnits="userSpaceOnUse"
       gradientTransform="matrix(0.16536462,0,0,0.16536462,2.322495,285.20223)"
       x1="46"
       y1="3"
       x2="46"
       y2="47" />
    <linearGradient
       inkscape:collect="always"
       xlink:href="#linearGradient3816"
       id="linearGradient1082"
       gradientUnits="userSpaceOnUse"
       x1="3.0131371"
       y1="286.12408"
       x2="12.052549"
       y2="295.58682" />
  </defs>
  <sodipodi:namedview
     id="base"
     pagecolor="#ffffff"
     bordercolor="#666666"
     borderopacity="1.0"
     inkscape:pageopacity="0.0"
     inkscape:pageshadow="2"
     inkscape:zoom="3.7565048"
     inkscape:cx="24"
     inkscape:cy="24"
     inkscape:document-units="mm"
     inkscape:current-layer="layer1"
     showgrid="false"
     showguides="true"
     inkscape:guide-bbox="true"
     inkscape:window-width="1366"
     inkscape:window-height="719"
     inkscape:window-x="0"
     inkscape:window-y="25"
     inkscape:window-maximized="1"
     scale-x="1.9"
     units="px"
     inkscape:snap-global="true"
     inkscape:snap-smooth-nodes="true" />
  <metadata
     id="metadata826">
    <rdf:RDF>
      <cc:Work
         rdf:about="">
        <dc:format>image/svg+xml</dc:format>
        <dc:type
           rdf:resource="http://purl.org/dc/dcmitype/StillImage" />
        <dc:title />
      </cc:Work>
    </rdf:RDF>
  </metadata>
  <g
     inkscape:label="Capa 1"
     inkscape:groupmode="layer"
     id="layer1"
     transform="translate(0,-284.3)">
    <g
       id="g1090">
      <path
         id="path850"
         d="m 6.3502584,284.39147 c -1.5434366,0 -2.7839982,0.29643 -3.6871132,0.8816 -1.0851074,0.7031 -1.6588136,1.82603 -1.6588136,3.24683 0,1.91207 1.5362412,4.46762 2.0071127,5.20537 0.5375664,0.84219 1.1245074,1.60861 1.6526121,2.158 0.6726666,0.69964 1.2086563,1.02527 1.686202,1.02527 0.4775705,0 1.013092,-0.32561 1.685685,-1.02527 0.5280803,-0.54937 1.1150465,-1.31579 1.6526124,-2.158 0.4708712,-0.73773 2.0071122,-3.2933 2.0071122,-5.20537 2.4e-5,-1.42078 -0.573141,-2.5437 -1.658296,-3.24683 -0.9030664,-0.58517 -2.1437011,-0.8816 -3.6871136,-0.8816 z"
         style="fill:#536c53;stroke-width:0.02444816"
         inkscape:connector-curvature="0" />
      <path
         inkscape:connector-curvature="0"
         id="path1054"
         d="m 7.7452633,296.12925 c 0.100168,-0.0924 0.18418,-0.13492 0.290938,-0.24598 0.52808,-0.54937 1.115047,-1.3158 1.652613,-2.15801 0.235435,-0.36886 0.7368527,-1.19202 1.1797727,-2.16214 0.221459,-0.48506 0.428429,-1.00704 0.579809,-1.52704 0.04406,-0.15134 0.03815,-0.29122 0.07183,-0.44131 l -2.4556637,-2.45618 -1.220598,4.98057 -4.258138,-0.14934 z"
         style="fill:url(#linearGradient1082);fill-opacity:1;stroke:none;stroke-width:0.26458332px;stroke-linecap:butt;stroke-linejoin:miter;stroke-opacity:1;opacity:0.6" />
      <path
         inkscape:connector-curvature="0"
         id="path4588"
         d="m 6.3502587,284.39147 c -1.5434366,0 -2.7839985,0.29643 -3.6871135,0.8816 -1.0851073,0.7031 -1.6588137,1.82603 -1.6588137,3.24683 0,1.91207 1.5362412,4.46762 2.0071128,5.20537 0.5375664,0.84219 1.1245074,1.60861 1.6526123,2.158 0.6726666,0.69964 1.2086564,1.02527 1.6862021,1.02527 0.4775705,0 1.0130919,-0.32561 1.685685,-1.02527 0.5280803,-0.54937 1.1150462,-1.31579 1.6526123,-2.158 0.470871,-0.73773 2.007112,-3.2933 2.007112,-5.20537 2.5e-5,-1.42078 -0.573141,-2.5437 -1.658296,-3.24683 -0.9030662,-0.58517 -2.1437011,-0.8816 -3.6871133,-0.8816 z m 0,0.0382 c 0.5589177,0.0225 1.0898962,0.0719 1.554427,0.18294 0.3079843,0.0736 0.5960941,0.16587 0.863513,0.27595 0.2674191,0.11008 0.5142402,0.23818 0.7400068,0.38447 0.2712886,0.17578 0.5104175,0.37775 0.7167515,0.6041 0.206334,0.22635 0.379882,0.47723 0.519348,0.75034 0.139467,0.27311 0.245057,0.56864 0.315743,0.8847 0.07069,0.31606 0.10646,0.6525 0.106454,1.00769 0,0.47802 -0.09615,0.99619 -0.24753,1.51619 -0.15138,0.51999 -0.357833,1.04198 -0.579293,1.52704 -0.4429192,0.97011 -0.9448538,1.79328 -1.1802896,2.16214 -0.5375662,0.84221 -1.1245321,1.60863 -1.6526124,2.158 -0.3362965,0.34983 -0.6385721,0.60629 -0.916223,0.77515 -0.084411,0.0513 -0.1636318,0.0811 -0.2408121,0.10335 -0.07713,-0.0222 -0.1559877,-0.0521 -0.2402956,-0.10335 -0.2777739,-0.16886 -0.5798897,-0.42533 -0.916223,-0.77515 -0.5281049,-0.54939 -1.115046,-1.31581 -1.6526124,-2.158 -0.2354357,-0.36888 -0.7373704,-1.19203 -1.1802898,-2.16215 -0.2214594,-0.48505 -0.4279128,-1.00704 -0.5792928,-1.52703 -0.1513798,-0.52 -0.2475299,-1.03817 -0.2475301,-1.51619 0,-0.3552 0.035714,-0.69163 0.1064535,-1.00769 0.07074,-0.31606 0.1767274,-0.61159 0.3162599,-0.8847 0.1395325,-0.27311 0.3129698,-0.52399 0.519348,-0.75034 0.2063781,-0.22635 0.4454755,-0.42832 0.7167522,-0.6041 0.2257788,-0.14629 0.4725871,-0.27439 0.7400066,-0.38447 0.2674194,-0.11008 0.5555334,-0.20233 0.8635132,-0.27595 0.4645234,-0.11106 0.9955051,-0.16048 1.5544271,-0.18294 z"
         style="opacity:0.2;fill:#000000;stroke-width:0.02444816" />
      <path
         id="path3225"
         d="m 4.389553,285.53295 c -1.141016,0 -2.067058,0.92603 -2.067058,2.06708 0,0.35239 0.08714,0.68623 0.242879,0.97665 -0.052,0.2448 -0.07751,0.4995 -0.07751,0.75965 0,2.00818 1.629833,3.63805 3.6380217,3.63805 0.2601791,0 0.5148871,-0.0255 0.7596431,-0.0774 0.2914499,0.15715 0.622567,0.24289 0.976685,0.24289 1.1410149,0 2.0670546,-0.92603 2.0670556,-2.06705 0,-0.35414 -0.08574,-0.68523 -0.2428786,-0.97668 0.05198,-0.24476 0.0775,-0.49947 0.0775,-0.75965 0,-2.00819 -1.629832,-3.63802 -3.6380201,-3.63802 -0.260241,0 -0.5148328,0.0308 -0.7596428,0.0827 -0.2904821,-0.15575 -0.6242161,-0.24803 -0.9766848,-0.24803 z"
         style="display:inline;fill:url(#linearGradient3421);fill-opacity:1;fill-rule:nonzero;stroke:none;stroke-width:0.16536464;stroke-opacity:1"
         inkscape:connector-curvature="0" />
      <path
         inkscape:connector-curvature="0"
         id="path944"
         d="m 6.4033217,292.94583 c 0.1622139,-0.0119 0.3267991,-0.0162 0.482141,-0.0491 0.2914501,0.15715 0.6225672,0.24288 0.976685,0.24288 0.2852531,0 0.55733,-0.0576 0.8046021,-0.16226 0.2472709,-0.10464 0.4697389,-0.2558 0.656807,-0.44287 0.1870689,-0.18706 0.3387389,-0.41005 0.443384,-0.65732 0.1046446,-0.24727 0.1622636,-0.51883 0.1622636,-0.80409 0,-0.35414 -0.08574,-0.68523 -0.2428787,-0.97668 0.02585,-0.12172 0.025881,-0.25166 0.03876,-0.37776 l -2.304252,-2.30425 -1.3621912,-0.37517 -0.9787509,0.54932 -0.6475057,1.41955 2.2789308,2.27842 -2.1791958,-0.21136 z"
         style="fill:url(#linearGradient1007);fill-opacity:1;stroke:none;stroke-width:0.26458332px;stroke-linecap:butt;stroke-linejoin:miter;stroke-opacity:1;opacity:0.6" />
      <path
         id="path3337"
         d="m 6.0587016,287.03933 c -1.1368819,0 -1.8086756,0.51159 -1.8086756,1.39006 0,0.95564 1.2456659,1.20249 2.0153808,1.30742 0.720466,0.19305 0.744142,0.30541 0.744142,0.62013 0,0.39223 -0.4953151,0.54264 -0.831991,0.54264 -1.0165131,0 -0.9414582,-0.73902 -1.4831148,-0.73902 -0.279053,0 -0.413411,0.093 -0.413411,0.44442 0,0.35144 0.7234696,1.0284 1.8603517,1.0284 1.136882,0 1.8603521,-0.43927 1.8603521,-1.31775 0,-0.90442 -0.748292,-1.17189 -1.736329,-1.43663 -0.6572051,-0.15953 -1.0231932,-0.27442 -1.0231932,-0.58912 0,-0.39225 0.4178001,-0.54257 0.7544761,-0.54257 1.016513,0 0.791596,0.6511 1.3332531,0.6511 0.2790521,0 0.449584,-0.0567 0.449584,-0.40823 0,-0.35144 -0.5839442,-0.95085 -1.7208252,-0.95085 z"
         style="display:inline;fill:#ffffff;fill-opacity:1;fill-rule:evenodd;stroke:none;stroke-width:0.16536464px;stroke-linecap:butt;stroke-linejoin:miter;stroke-opacity:1"
         inkscape:connector-curvature="0" />
    </g>
  </g>
</svg>
