<?xml version="1.0" encoding="UTF-8" standalone="no"?>
<!-- Generator: Adobe Illustrator 19.0.0, SVG Export Plug-In . SVG Version: 6.00 Build 0)  -->

<svg
   xmlns:dc="http://purl.org/dc/elements/1.1/"
   xmlns:cc="http://creativecommons.org/ns#"
   xmlns:rdf="http://www.w3.org/1999/02/22-rdf-syntax-ns#"
   xmlns:svg="http://www.w3.org/2000/svg"
   xmlns="http://www.w3.org/2000/svg"
   xmlns:xlink="http://www.w3.org/1999/xlink"
   xmlns:sodipodi="http://sodipodi.sourceforge.net/DTD/sodipodi-0.dtd"
   xmlns:inkscape="http://www.inkscape.org/namespaces/inkscape"
   version="1.1"
   id="Capa_1"
   x="0px"
   y="0px"
   viewBox="0 0 48 48"
   xml:space="preserve"
   sodipodi:docname="system-config-boot.svg"
   width="48"
   height="48"
   inkscape:version="0.92.3 (2405546, 2018-03-11)"><metadata
   id="metadata41"><rdf:RDF><cc:Work
       rdf:about=""><dc:format>image/svg+xml</dc:format><dc:type
         rdf:resource="http://purl.org/dc/dcmitype/StillImage" /><dc:title /></cc:Work></rdf:RDF></metadata><defs
   id="defs39"><linearGradient
     x1="-83.756935"
     y1="-7.8379993"
     x2="-92.222527"
     y2="27.521217"
     id="linearGradient5588"
     xlink:href="#linearGradient3202"
     gradientUnits="userSpaceOnUse"
     gradientTransform="matrix(0.5857566,-0.140767,0.1402401,0.5879573,74.307775,0.1578927)" /><linearGradient
     id="linearGradient3202"><stop
       id="stop3204"
       style="stop-color:white;stop-opacity:1"
       offset="0" /><stop
       id="stop3206"
       style="stop-color:#d3eefc;stop-opacity:1"
       offset="1" /></linearGradient></defs><sodipodi:namedview
   pagecolor="#ffffff"
   bordercolor="#666666"
   borderopacity="1"
   objecttolerance="10"
   gridtolerance="10"
   guidetolerance="10"
   inkscape:pageopacity="0"
   inkscape:pageshadow="2"
   inkscape:window-width="1366"
   inkscape:window-height="690"
   id="namedview37"
   showgrid="false"
   showguides="true"
   inkscape:guide-bbox="true"
   inkscape:zoom="7.1741876"
   inkscape:cx="24.503133"
   inkscape:cy="23.527135"
   inkscape:window-x="0"
   inkscape:window-y="28"
   inkscape:window-maximized="1"
   inkscape:current-layer="Capa_1" />
<path
   style="fill:#00aa88;stroke-width:0.0924025"
   d="m 23.712891,0.49414062 c -5.833461,0 -10.522199,1.12037758 -13.935547,3.33203128 -4.101193,2.6574037 -6.269531,6.9015131 -6.269531,12.2714841 0,7.226706 5.806265,16.88549 7.585937,19.673828 2.031747,3.183081 4.250107,6.079782 6.246094,8.15625 2.542362,2.644283 4.56815,3.875 6.373047,3.875 1.804991,0 3.829009,-1.230625 6.371093,-3.875 1.995894,-2.076376 4.214348,-4.973077 6.246094,-8.15625 C 38.10975,32.983238 43.916016,23.324362 43.916016,16.097656 43.916108,10.727777 41.749813,6.4836678 37.648438,3.8261719 34.235273,1.6145182 29.546261,0.49414062 23.712891,0.49414062 Z M 21.138672,4.0566406 c 0.195905,-0.00258 0.437108,0.1073943 0.701172,0.34375 l 3.779297,3.3828125 c 0.70417,0.630282 1.635805,0.4584856 2.070312,-0.3808593 l 1.03125,-1.9921876 c 0.434508,-0.8393449 1.030271,-0.7927576 1.324219,0.1054688 l 1.576172,4.818359 c 0.293948,0.898226 1.184883,1.215078 1.980468,0.705078 l 1.894532,-1.2148432 c 0.795699,-0.5101138 1.288035,-0.1710114 1.09375,0.7539062 l -1.041016,4.960937 c -0.194285,0.924919 0.419233,1.646816 1.363281,1.603516 l 2.242188,-0.103516 c 0.944048,-0.0433 1.200937,0.497231 0.570312,1.201172 l -3.382812,3.775391 c -0.630511,0.703941 -0.460554,1.636263 0.378906,2.070313 l 1.996094,1.03125 c 0.839574,0.434049 0.790919,1.02866 -0.107422,1.322265 l -4.820313,1.576172 c -0.898226,0.293605 -1.215535,1.185113 -0.705078,1.980469 l 1.214844,1.892578 c 0.510457,0.795356 0.171012,1.287806 -0.753906,1.09375 l -4.964844,-1.041016 c -0.924917,-0.194056 -1.644862,0.419233 -1.601562,1.363282 l 0.101562,2.240234 c 0.0433,0.944048 -0.497002,1.200594 -1.201172,0.570312 l -3.777344,-3.380859 c -0.70417,-0.630282 -1.635804,-0.460439 -2.070312,0.378906 l -1.033203,1.994141 C 18.56354,35.946767 17.967776,35.898227 17.673828,35 l -1.576172,-4.816406 c -0.293834,-0.898226 -1.184885,-1.217146 -1.980468,-0.707032 l -1.894532,1.214844 c -0.795585,0.510114 -1.287921,0.171012 -1.09375,-0.753906 l 1.042969,-4.958984 C 12.36616,24.053598 11.752642,23.3317 10.808594,23.375 L 8.564453,23.478516 C 7.62029,23.521816 7.363515,22.981285 7.994141,22.277344 L 11.378906,18.5 c 0.630511,-0.703941 0.4586,-1.63431 -0.380859,-2.068359 L 9.001953,15.400391 C 8.162379,14.966342 8.211034,14.369777 9.109375,14.076172 L 13.929688,12.5 c 0.898341,-0.293719 1.215535,-1.185114 0.705078,-1.980469 L 13.421875,8.6269531 C 12.911418,7.8315972 13.24891,7.3411001 14.173828,7.5351562 l 4.964844,1.0410157 c 0.924917,0.1939417 1.646932,-0.419233 1.603516,-1.3632813 L 20.638672,4.9726562 c -0.02714,-0.59003 0.173491,-0.9117097 0.5,-0.9160156 z m 2.55664,7.8847654 c -4.632719,0 -8.40039,3.768123 -8.40039,8.398438 0,0.09098 0.01079,0.179238 0.01367,0.269531 h -2.69336 l 3.66211,3.662109 c 1.412966,2.654171 4.206082,4.466797 7.417968,4.466797 4.552581,0 8.263827,-3.641281 8.390626,-8.162109 h 2.732421 l -3.314453,-3.314453 c -1.232103,-3.110471 -4.264002,-5.320138 -7.808594,-5.320313 z m 0,1.71875 c 2.857053,1.78e-4 5.293728,1.804532 6.248047,4.330078 l -2.583984,2.585938 h 3.007813 c -0.126049,3.573507 -3.066373,6.443359 -6.671876,6.443359 -2.709314,0 -5.041455,-1.622332 -6.089843,-3.943359 l 2.466797,-2.466797 h -3.046875 c -0.0036,-0.09015 -0.01367,-0.178503 -0.01367,-0.269531 0,-3.683289 2.998014,-6.679688 6.683593,-6.679688 z m 0,4.753906 c -1.063987,0 -1.925781,0.862826 -1.925781,1.925782 0,1.064217 0.861794,1.925781 1.925781,1.925781 1.064217,0 1.927735,-0.861678 1.927735,-1.925781 0,-1.063071 -0.863518,-1.925781 -1.927735,-1.925782 z"
   id="path2"
   inkscape:connector-curvature="0" />

<g
   id="g6"
   transform="translate(0,-464)">
</g>
<g
   id="g8"
   transform="translate(0,-464)">
</g>
<g
   id="g10"
   transform="translate(0,-464)">
</g>
<g
   id="g12"
   transform="translate(0,-464)">
</g>
<g
   id="g14"
   transform="translate(0,-464)">
</g>
<g
   id="g16"
   transform="translate(0,-464)">
</g>
<g
   id="g18"
   transform="translate(0,-464)">
</g>
<g
   id="g20"
   transform="translate(0,-464)">
</g>
<g
   id="g22"
   transform="translate(0,-464)">
</g>
<g
   id="g24"
   transform="translate(0,-464)">
</g>
<g
   id="g26"
   transform="translate(0,-464)">
</g>
<g
   id="g28"
   transform="translate(0,-464)">
</g>
<g
   id="g30"
   transform="translate(0,-464)">
</g>
<g
   id="g32"
   transform="translate(0,-464)">
</g>
<g
   id="g34"
   transform="translate(0,-464)">
</g>
</svg>