<?xml version="1.0" encoding="UTF-8" standalone="no"?>
<!-- Generator: Adobe Illustrator 19.0.0, SVG Export Plug-In . SVG Version: 6.00 Build 0)  -->

<svg
   xmlns:dc="http://purl.org/dc/elements/1.1/"
   xmlns:cc="http://creativecommons.org/ns#"
   xmlns:rdf="http://www.w3.org/1999/02/22-rdf-syntax-ns#"
   xmlns:svg="http://www.w3.org/2000/svg"
   xmlns="http://www.w3.org/2000/svg"
   xmlns:xlink="http://www.w3.org/1999/xlink"
   xmlns:sodipodi="http://sodipodi.sourceforge.net/DTD/sodipodi-0.dtd"
   xmlns:inkscape="http://www.inkscape.org/namespaces/inkscape"
   version="1.1"
   id="Capa_1"
   x="0px"
   y="0px"
   viewBox="0 0 48 48"
   xml:space="preserve"
   sodipodi:docname="transmission.svg"
   width="48"
   height="48"
   inkscape:version="0.92.3 (2405546, 2018-03-11)"><metadata
   id="metadata41"><rdf:RDF><cc:Work
       rdf:about=""><dc:format>image/svg+xml</dc:format><dc:type
         rdf:resource="http://purl.org/dc/dcmitype/StillImage" /><dc:title /></cc:Work></rdf:RDF></metadata><defs
   id="defs39"><linearGradient
     inkscape:collect="always"
     id="linearGradient841"><stop
       style="stop-color:#afe9af;stop-opacity:1"
       offset="0"
       id="stop837" /><stop
       style="stop-color:#dee3db;stop-opacity:1"
       offset="1"
       id="stop839" /></linearGradient><linearGradient
     inkscape:collect="always"
     id="linearGradient851"><stop
       style="stop-color:#000000;stop-opacity:1;"
       offset="0"
       id="stop847" /><stop
       style="stop-color:#000000;stop-opacity:0;"
       offset="1"
       id="stop849" /></linearGradient><linearGradient
     inkscape:collect="always"
     xlink:href="#linearGradient851"
     id="linearGradient873"
     gradientUnits="userSpaceOnUse"
     x1="17.350096"
     y1="9.8426504"
     x2="43.876709"
     y2="34.487476" /><linearGradient
     inkscape:collect="always"
     xlink:href="#linearGradient841"
     id="linearGradient843"
     x1="10.652344"
     y1="20.936524"
     x2="38.828125"
     y2="20.936524"
     gradientUnits="userSpaceOnUse" /></defs><sodipodi:namedview
   pagecolor="#ffffff"
   bordercolor="#666666"
   borderopacity="1"
   objecttolerance="10"
   gridtolerance="10"
   guidetolerance="10"
   inkscape:pageopacity="0"
   inkscape:pageshadow="2"
   inkscape:window-width="1366"
   inkscape:window-height="719"
   id="namedview37"
   showgrid="false"
   showguides="true"
   inkscape:guide-bbox="true"
   inkscape:zoom="10.625"
   inkscape:cx="24"
   inkscape:cy="24"
   inkscape:window-x="0"
   inkscape:window-y="25"
   inkscape:window-maximized="1"
   inkscape:current-layer="Capa_1" />


<g
   id="g6"
   transform="translate(0,-464)">
</g>
<g
   id="g8"
   transform="translate(0,-464)">
</g>
<g
   id="g10"
   transform="translate(0,-464)">
</g>
<g
   id="g12"
   transform="translate(0,-464)">
</g>
<g
   id="g14"
   transform="translate(0,-464)">
</g>
<g
   id="g16"
   transform="translate(0,-464)">
</g>
<g
   id="g18"
   transform="translate(0,-464)">
</g>
<g
   id="g20"
   transform="translate(0,-464)">
</g>
<g
   id="g22"
   transform="translate(0,-464)">
</g>
<g
   id="g24"
   transform="translate(0,-464)">
</g>
<g
   id="g26"
   transform="translate(0,-464)">
</g>
<g
   id="g28"
   transform="translate(0,-464)">
</g>
<g
   id="g30"
   transform="translate(0,-464)">
</g>
<g
   id="g32"
   transform="translate(0,-464)">
</g>
<g
   id="g34"
   transform="translate(0,-464)">
</g>
<g
   id="g849"><path
     inkscape:connector-curvature="0"
     id="path829"
     d="m 23.712891,0.49414062 c -5.833461,0 -10.522199,1.12037758 -13.935547,3.33203128 -4.101193,2.6574037 -6.269532,6.9015131 -6.269532,12.2714841 0,7.226706 5.806266,16.88549 7.585938,19.673828 2.031747,3.183081 4.250107,6.079782 6.246094,8.15625 2.542362,2.644283 4.56815,3.875 6.373047,3.875 1.804991,0 3.829009,-1.230625 6.371093,-3.875 1.995894,-2.076376 4.214348,-4.973077 6.246094,-8.15625 C 38.10975,32.983238 43.916016,23.324362 43.916016,16.097656 43.916108,10.727777 41.749814,6.4836678 37.648438,3.8261719 34.235274,1.6145182 29.546261,0.49414062 23.712891,0.49414062 Z"
     style="fill:#a05a2c;stroke-width:0.0924025" /><path
     inkscape:connector-curvature="0"
     id="path837"
     d="m 27.908203,45.769531 c 0.70577,-0.557435 1.376981,-1.010854 2.175781,-1.841797 1.995894,-2.076376 4.214348,-4.973077 6.246094,-8.15625 0.889836,-1.394123 2.786912,-4.505287 4.460938,-8.171875 0.837012,-1.833294 1.617308,-3.806142 2.189453,-5.771484 0.370503,-1.272696 0.452186,-2.483295 0.605469,-3.710937 L 32.582031,7.1132812 l 1.017578,7.9453128 -9.222656,0.09375 -0.796875,10.492187 -6.68164,-6.68164 -2.404297,7.671875 2.404297,8.125 z"
     style="fill:url(#linearGradient873);fill-opacity:1;stroke:none;stroke-width:1px;stroke-linecap:butt;stroke-linejoin:miter;stroke-opacity:1" /><path
     id="path2"
     d="m 32.582031,7.1132812 6.246094,7.9003908 -6.246094,7.898437 v -5.923828 h -4.710937 v 7.898438 3.949219 h -6.261719 -4.710937 v 5.923828 l -6.246094,-7.898438 6.246094,-7.898437 v 5.923828 h 4.710937 v -7.898438 -3.951172 h 6.261719 4.710937 z"
     style="fill:url(#linearGradient843);stroke-width:0.0924025;fill-opacity:1" /><path
     inkscape:connector-curvature="0"
     id="path4588"
     d="m 23.712891,0.34960936 c -5.833461,0 -10.522199,1.12037834 -13.935547,3.33203134 -4.101193,2.657404 -6.269532,6.9015123 -6.269532,12.2714833 0,7.226706 5.806266,16.88549 7.585938,19.673828 2.031747,3.183082 4.250107,6.079783 6.246094,8.15625 2.542362,2.644284 4.56815,3.875 6.373047,3.875 1.804991,0 3.829009,-1.230625 6.371093,-3.875 1.995894,-2.076376 4.214348,-4.973077 6.246094,-8.15625 C 38.109749,32.838706 43.916016,23.17983 43.916016,15.953125 43.916108,10.583246 41.749812,6.3391368 37.648438,3.6816407 34.235274,1.4699877 29.54626,0.34960936 23.712891,0.34960936 Z m 0,0.14453126 c 2.112445,0.084873 4.119293,0.27168527 5.875,0.69140628 1.164035,0.2782756 2.252954,0.6269196 3.263671,1.0429688 1.010718,0.4160492 1.943585,0.9002116 2.796876,1.453125 1.025343,0.6643739 1.929139,1.4277032 2.708984,2.2832031 0.779844,0.8554999 1.435774,1.803713 1.96289,2.8359375 0.527119,1.0322245 0.926199,2.1492027 1.19336,3.3437497 0.267161,1.194547 0.402367,2.466124 0.402344,3.808593 0,1.806677 -0.363402,3.765127 -0.935547,5.730469 -0.572145,1.965342 -1.352441,3.93819 -2.189453,5.771484 -1.674026,3.666589 -3.571102,6.777752 -4.460938,8.171875 -2.031746,3.183173 -4.2502,6.079875 -6.246094,8.15625 -1.271042,1.322188 -2.413501,2.291486 -3.46289,2.929688 -0.319034,0.194026 -0.618451,0.306539 -0.910156,0.390625 -0.291517,-0.08404 -0.58956,-0.196919 -0.908204,-0.390625 C 21.75288,46.074675 20.611025,45.105344 19.339844,43.783202 17.343857,41.706735 15.125497,38.810034 13.09375,35.626952 12.203914,34.232783 10.306838,31.121654 8.632812,27.455077 7.7958,25.621789 7.015504,23.648927 6.443359,21.683593 5.871215,19.718259 5.507813,17.759801 5.507812,15.953124 c 0,-1.342492 0.134981,-2.614034 0.402344,-3.808593 C 6.177519,10.949972 6.578102,9.8330059 7.105469,8.8007813 7.632836,7.7685567 8.288347,6.8203323 9.068359,5.9648438 9.848371,5.1093553 10.752046,4.3459917 11.777344,3.6816407 12.630681,3.1287274 13.5635,2.6445648 14.574219,2.2285157 15.584938,1.8124665 16.673873,1.4638225 17.837891,1.1855469 19.59357,0.76582588 21.60043,0.57901365 23.712891,0.49414062 Z"
     style="opacity:0.2;fill:#000000;stroke-width:0.0924025" /></g></svg>