<?xml version="1.0" encoding="UTF-8" standalone="no"?>
<!-- Generator: Adobe Illustrator 19.0.0, SVG Export Plug-In . SVG Version: 6.00 Build 0)  -->

<svg
   xmlns:dc="http://purl.org/dc/elements/1.1/"
   xmlns:cc="http://creativecommons.org/ns#"
   xmlns:rdf="http://www.w3.org/1999/02/22-rdf-syntax-ns#"
   xmlns:svg="http://www.w3.org/2000/svg"
   xmlns="http://www.w3.org/2000/svg"
   xmlns:xlink="http://www.w3.org/1999/xlink"
   xmlns:sodipodi="http://sodipodi.sourceforge.net/DTD/sodipodi-0.dtd"
   xmlns:inkscape="http://www.inkscape.org/namespaces/inkscape"
   version="1.1"
   id="Capa_1"
   x="0px"
   y="0px"
   viewBox="0 0 48 48"
   xml:space="preserve"
   sodipodi:docname="utilities-system-monitor.svg"
   width="48"
   height="48"
   inkscape:version="0.92.3 (2405546, 2018-03-11)"><metadata
   id="metadata41"><rdf:RDF><cc:Work
       rdf:about=""><dc:format>image/svg+xml</dc:format><dc:type
         rdf:resource="http://purl.org/dc/dcmitype/StillImage" /><dc:title></dc:title></cc:Work></rdf:RDF></metadata><defs
   id="defs39"><linearGradient
     id="linearGradient2898"
     x1="30"
     x2="30"
     y1="3.0411"
     y2="27.957001"
     gradientUnits="userSpaceOnUse"
     xlink:href="#linearGradient3341"
     gradientTransform="matrix(1.0045,0,0,1.0034,-6.1353502,-0.60785674)" /><linearGradient
     id="linearGradient3341"><stop
       id="stop3343"
       style="stop-color:#fff"
       offset="0" /><stop
       id="stop3345"
       style="stop-color:#fff;stop-opacity:0"
       offset="1" /></linearGradient><radialGradient
     id="radialGradient2896"
     cx="30"
     cy="33.188"
     r="4.6875"
     gradientTransform="matrix(1.528,-7.0647e-7,2.1309e-7,0.46087,-21.838749,14.148502)"
     gradientUnits="userSpaceOnUse"
     xlink:href="#linearGradient5060" /><linearGradient
     id="linearGradient5060"><stop
       id="stop5062"
       offset="0" /><stop
       id="stop5064"
       style="stop-opacity:0"
       offset="1" /></linearGradient><linearGradient
     id="linearGradient2894"
     x1="38"
     x2="43"
     y1="39"
     y2="38.599998"
     gradientUnits="userSpaceOnUse"
     xlink:href="#linearGradient5060"
     gradientTransform="translate(-5.9997502,-0.55649774)" /><linearGradient
     id="linearGradient2892"
     x1="22"
     x2="17"
     y1="39"
     y2="37.438"
     gradientUnits="userSpaceOnUse"
     xlink:href="#linearGradient5060"
     gradientTransform="translate(-5.9997502,-0.55649774)" /><radialGradient
     id="radialGradient2888"
     cx="26.375999"
     cy="12.313"
     r="8"
     gradientTransform="matrix(1.6402,-0.13258,0.12811,1.5849,-24.395749,-5.7838982)"
     gradientUnits="userSpaceOnUse"
     xlink:href="#linearGradient6954" /><linearGradient
     id="linearGradient6954"><stop
       id="stop6960"
       style="stop-color:#f5f5f5"
       offset="0" /><stop
       id="stop6962"
       style="stop-color:#d2d2d2"
       offset="1" /></linearGradient><linearGradient
     id="linearGradient2890"
     x1="30"
     x2="30"
     y1="5"
     y2="44.679001"
     gradientUnits="userSpaceOnUse"
     xlink:href="#linearGradient3785"
     gradientTransform="translate(-5.9997502,-0.55649774)" /><linearGradient
     id="linearGradient3785"><stop
       id="stop3787"
       style="stop-color:#bdbdbd"
       offset="0" /><stop
       id="stop3789"
       style="stop-color:#8c8c8c"
       offset="1" /></linearGradient><linearGradient
     id="linearGradient2886"
     x1="24.787001"
     x2="24.875"
     y1="53.868999"
     y2="83.5"
     gradientUnits="userSpaceOnUse"
     xlink:href="#linearGradient3341"
     gradientTransform="translate(-1.8747502,-40.056498)" /><radialGradient
     id="radialGradient2882"
     cx="25"
     cy="28.66"
     r="16"
     gradientTransform="matrix(1.3125,0,0,0.37327,-13.812249,19.745502)"
     gradientUnits="userSpaceOnUse"
     xlink:href="#linearGradient6954" /><linearGradient
     id="linearGradient2884"
     x1="30"
     x2="30"
     y1="25.084999"
     y2="45"
     gradientUnits="userSpaceOnUse"
     xlink:href="#linearGradient3785"
     gradientTransform="translate(-5.9997502,-0.55649774)" /></defs><sodipodi:namedview
   pagecolor="#ffffff"
   bordercolor="#666666"
   borderopacity="1"
   objecttolerance="10"
   gridtolerance="10"
   guidetolerance="10"
   inkscape:pageopacity="0"
   inkscape:pageshadow="2"
   inkscape:window-width="1366"
   inkscape:window-height="690"
   id="namedview37"
   showgrid="false"
   showguides="true"
   inkscape:guide-bbox="true"
   inkscape:zoom="7.5277409"
   inkscape:cx="16.988045"
   inkscape:cy="28.817332"
   inkscape:window-x="0"
   inkscape:window-y="28"
   inkscape:window-maximized="1"
   inkscape:current-layer="Capa_1" />
<path
   style="fill:#440055;stroke-width:0.0924025"
   d="M 23.712891 0.49414062 C 17.87943 0.49414062 13.190692 1.6145182 9.7773438 3.8261719 C 5.6761507 6.4835756 3.5078125 10.727685 3.5078125 16.097656 C 3.5078125 23.324362 9.3140783 32.983146 11.09375 35.771484 C 13.125497 38.954565 15.343857 41.851266 17.339844 43.927734 C 19.882206 46.572017 21.907994 47.802734 23.712891 47.802734 C 25.517882 47.802734 27.5419 46.572109 30.083984 43.927734 C 32.079878 41.851358 34.298332 38.954657 36.330078 35.771484 C 38.10975 32.983238 43.916016 23.324362 43.916016 16.097656 C 43.916108 10.727777 41.749814 6.4836678 37.648438 3.8261719 C 34.235274 1.6145182 29.546261 0.49414062 23.712891 0.49414062 z M 22.087891 5.7070312 C 22.33372 5.7410072 22.530996 5.8841231 22.65625 6.0761719 C 22.831778 6.2171816 22.952704 6.4248182 22.972656 6.6679688 L 24.117188 20.630859 L 24.957031 14.472656 C 24.990768 14.225022 25.128479 14.023571 25.318359 13.892578 C 25.437865 13.691297 25.632938 13.537084 25.882812 13.496094 C 26.332149 13.422383 26.752461 13.726445 26.826172 14.175781 L 27.214844 16.544922 L 28.449219 11.068359 C 28.524271 10.735202 28.788187 10.495979 29.103516 10.439453 C 29.208625 10.420611 29.320588 10.422248 29.431641 10.447266 L 29.568359 10.478516 C 29.819975 10.535199 30.007089 10.704676 30.113281 10.917969 C 30.327467 11.022092 30.499462 11.208056 30.558594 11.458984 L 32.751953 20.771484 L 39.605469 20.771484 C 40.060811 20.771484 40.427734 21.138407 40.427734 21.59375 L 40.427734 21.640625 C 40.427734 22.095968 40.060811 22.462891 39.605469 22.462891 L 32.091797 22.462891 C 31.848869 22.462891 31.636539 22.35399 31.486328 22.1875 C 31.290876 22.079293 31.137547 21.897692 31.082031 21.662109 L 29.451172 14.742188 L 28.166016 20.441406 C 28.110331 20.688589 27.946133 20.872982 27.738281 20.980469 C 27.618683 21.181345 27.423637 21.335974 27.173828 21.376953 C 26.724491 21.450664 26.304179 21.146602 26.230469 20.697266 L 26.029297 19.470703 L 24.892578 27.820312 C 24.858756 28.068574 24.717978 28.269456 24.527344 28.400391 C 24.38639 28.583454 24.177205 28.711951 23.927734 28.732422 L 23.751953 28.748047 C 23.282053 28.786606 22.872544 28.43865 22.833984 27.96875 L 21.71875 14.376953 L 20.300781 24.638672 C 20.268964 24.868884 20.145681 25.06273 19.972656 25.189453 C 19.840054 25.365918 19.642825 25.489906 19.404297 25.505859 L 19.25 25.515625 C 18.815045 25.544715 18.441199 25.218158 18.412109 24.783203 L 17.847656 16.335938 L 17.167969 19.798828 C 17.120164 20.042232 16.972352 20.235522 16.777344 20.355469 C 16.621955 20.525335 16.401767 20.634766 16.152344 20.634766 L 6.7734375 20.634766 C 6.301958 20.634766 5.921875 20.254683 5.921875 19.783203 C 5.921875 19.311724 6.301958 18.931641 6.7734375 18.931641 L 15.603516 18.931641 L 17.304688 10.267578 C 17.395551 9.8049373 17.842046 9.506793 18.304688 9.5976562 C 18.53819 9.6435164 18.728488 9.7797182 18.849609 9.9628906 C 19.03892 10.094508 19.174754 10.297894 19.191406 10.546875 L 19.648438 17.365234 L 21.101562 6.8476562 L 21.099609 6.8222656 C 21.088913 6.6919119 21.113184 6.5694882 21.15625 6.4550781 L 21.162109 6.4101562 C 21.224449 5.9591014 21.636836 5.6446916 22.087891 5.7070312 z "
   id="path2" />

<g
   id="g6"
   transform="translate(0,-464)">
</g>
<g
   id="g8"
   transform="translate(0,-464)">
</g>
<g
   id="g10"
   transform="translate(0,-464)">
</g>
<g
   id="g12"
   transform="translate(0,-464)">
</g>
<g
   id="g14"
   transform="translate(0,-464)">
</g>
<g
   id="g16"
   transform="translate(0,-464)">
</g>
<g
   id="g18"
   transform="translate(0,-464)">
</g>
<g
   id="g20"
   transform="translate(0,-464)">
</g>
<g
   id="g22"
   transform="translate(0,-464)">
</g>
<g
   id="g24"
   transform="translate(0,-464)">
</g>
<g
   id="g26"
   transform="translate(0,-464)">
</g>
<g
   id="g28"
   transform="translate(0,-464)">
</g>
<g
   id="g30"
   transform="translate(0,-464)">
</g>
<g
   id="g32"
   transform="translate(0,-464)">
</g>
<g
   id="g34"
   transform="translate(0,-464)">
</g>
</svg>