<?xml version="1.0" encoding="UTF-8" standalone="no"?>
<!-- Generator: Adobe Illustrator 19.0.0, SVG Export Plug-In . SVG Version: 6.00 Build 0)  -->

<svg
   xmlns:dc="http://purl.org/dc/elements/1.1/"
   xmlns:cc="http://creativecommons.org/ns#"
   xmlns:rdf="http://www.w3.org/1999/02/22-rdf-syntax-ns#"
   xmlns:svg="http://www.w3.org/2000/svg"
   xmlns="http://www.w3.org/2000/svg"
   xmlns:sodipodi="http://sodipodi.sourceforge.net/DTD/sodipodi-0.dtd"
   xmlns:inkscape="http://www.inkscape.org/namespaces/inkscape"
   version="1.1"
   id="Capa_1"
   x="0px"
   y="0px"
   viewBox="0 0 48 48"
   xml:space="preserve"
   sodipodi:docname="vidcutter.svg"
   width="48"
   height="48"
   inkscape:version="0.92.3 (2405546, 2018-03-11)"><metadata
   id="metadata41"><rdf:RDF><cc:Work
       rdf:about=""><dc:format>image/svg+xml</dc:format><dc:type
         rdf:resource="http://purl.org/dc/dcmitype/StillImage" /><dc:title /></cc:Work></rdf:RDF></metadata><defs
   id="defs39" /><sodipodi:namedview
   pagecolor="#ffffff"
   bordercolor="#666666"
   borderopacity="1"
   objecttolerance="10"
   gridtolerance="10"
   guidetolerance="10"
   inkscape:pageopacity="0"
   inkscape:pageshadow="2"
   inkscape:window-width="1366"
   inkscape:window-height="719"
   id="namedview37"
   showgrid="false"
   showguides="true"
   inkscape:guide-bbox="true"
   inkscape:zoom="5.2708333"
   inkscape:cx="24"
   inkscape:cy="31.588933"
   inkscape:window-x="0"
   inkscape:window-y="25"
   inkscape:window-maximized="1"
   inkscape:current-layer="Capa_1"
   inkscape:snap-global="true"
   inkscape:snap-smooth-nodes="true" />


<g
   id="g6"
   transform="translate(0,-464)">
</g>
<g
   id="g8"
   transform="translate(0,-464)">
</g>
<g
   id="g10"
   transform="translate(0,-464)">
</g>
<g
   id="g12"
   transform="translate(0,-464)">
</g>
<g
   id="g14"
   transform="translate(0,-464)">
</g>
<g
   id="g16"
   transform="translate(0,-464)">
</g>
<g
   id="g18"
   transform="translate(0,-464)">
</g>
<g
   id="g20"
   transform="translate(0,-464)">
</g>
<g
   id="g22"
   transform="translate(0,-464)">
</g>
<g
   id="g24"
   transform="translate(0,-464)">
</g>
<g
   id="g26"
   transform="translate(0,-464)">
</g>
<g
   id="g28"
   transform="translate(0,-464)">
</g>
<g
   id="g30"
   transform="translate(0,-464)">
</g>
<g
   id="g32"
   transform="translate(0,-464)">
</g>
<g
   id="g34"
   transform="translate(0,-464)">
</g>
<text
   xml:space="preserve"
   style="font-style:normal;font-variant:normal;font-weight:normal;font-stretch:normal;font-size:5.33333349px;line-height:1.25;font-family:sans-serif;-inkscape-font-specification:sans-serif;letter-spacing:0px;word-spacing:0px;fill:#000000;fill-opacity:1;stroke:none;"
   x="13.798768"
   y="19.909651"
   id="text1012"><tspan
     sodipodi:role="line"
     id="tspan1010"
     x="13.798768"
     y="24.517403" /></text>



<g
   id="g841"><path
     inkscape:connector-curvature="0"
     id="path855"
     d="m 24.000975,0.3457035 c -5.833461,0 -10.522199,1.1203776 -13.935547,3.3320313 -4.101193,2.6574037 -6.269532,6.9015122 -6.269532,12.2714832 0,7.226706 5.806266,16.88549 7.585938,19.673828 2.031747,3.183082 4.250107,6.079783 6.246094,8.15625 2.542362,2.644284 4.56815,3.875 6.373047,3.875 1.804991,0 3.829009,-1.230625 6.371093,-3.875 1.995894,-2.076376 4.214348,-4.973077 6.246094,-8.15625 1.779672,-2.788246 7.585942,-12.447122 7.585942,-19.673827 9e-5,-5.369879 -2.16621,-9.6139883 -6.267582,-12.2714842 C 34.523358,1.4660811 29.834345,0.3457035 24.000975,0.3457035 Z"
     style="fill:#2ca089;stroke-width:0.0924025" /><path
     inkscape:connector-curvature="0"
     id="path853"
     d="m 5.662109,24.130859 c 0.149032,0.401323 0.291227,0.796053 0.451172,1.191407 l 2.535157,-1.359375 1.523437,2.832031 -2.791016,1.498047 c 0.884415,1.834292 1.545654,2.924096 2.310547,4.234375 l 2.759766,-1.478516 1.521484,2.832031 -2.740234,1.470703 c 0.03175,0.05009 0.118862,0.225146 0.148437,0.271485 0.260128,0.407535 0.533441,0.647896 0.798829,1.044922 L 43.57227,19.824219 c 0.28435,-1.31574 0.63085,-2.65333 0.63085,-3.875 1e-5,-0.245115 -0.06521,-0.454933 -0.07421,-0.695313 l -0.5,-0.935547 0.38086,-0.205078 C 43.9426,13.45393 43.93916,12.759359 43.80078,12.140625 43.57341,11.124002 43.2012,10.194753 42.78516,9.2949219 L 41.3457,10.068359 39.826172,7.2324219 41.06445,6.5664062 C 40.90942,6.3755506 40.81289,6.1434884 40.64648,5.9609375 40.52054,5.8227699 40.34142,5.7251366 40.20898,5.5917969 Z m 31.330079,-15.3769528 1.521484,2.8339848 -2.835938,1.519531 -1.519531,-2.833984 z m -5.669922,3.0410158 1.521484,2.833984 -2.833984,1.521485 -1.521485,-2.833985 z m -5.666016,3.042969 1.517578,2.833984 -2.832031,1.519531 -1.521485,-2.832031 z m 15.13672,1.001953 1.52344,2.832031 -2.835941,1.521484 -1.521485,-2.833984 z m -20.806642,2.037109 1.521484,2.835938 -2.835937,1.521484 -1.519531,-2.835937 z m 15.138672,1.003906 1.521484,2.833985 -2.835937,1.521484 -1.521485,-2.835937 z m -20.808594,2.039063 1.521485,2.833984 -2.835938,1.521485 -1.517578,-2.833985 z m 15.140625,1.003906 1.519531,2.833984 -2.832031,1.519532 -1.521484,-2.832032 z m -5.667969,3.039063 1.521485,2.835937 -2.835938,1.519531 -1.521484,-2.833984 z m -5.669921,3.042968 1.521484,2.833985 -2.835937,1.521484 -1.517579,-2.833984 z"
     style="opacity:0.73999999;fill:#000000;stroke-width:0.12106485" /><path
     inkscape:connector-curvature="0"
     id="path853-3"
     d="m 5.220703,22.972656 c 0.510754,1.521779 1.051639,3.05586 1.701172,4.478516 1.674025,3.666576 3.569148,6.777705 4.458984,8.171875 0.01406,0.02203 0.02889,0.03464 0.04297,0.05664 L 43.82031,18.296875 c 0.11126,-0.781209 0.38281,-1.607481 0.38281,-2.347656 3e-5,-1.34247 -0.13518,-2.614046 -0.40234,-3.808594 C 43.53362,10.946077 43.13454,9.8290996 42.60742,8.796875 42.0803,7.7646504 41.42633,6.8164375 40.64648,5.9609375 40.23018,5.5042444 39.685966,5.1453707 39.199219,4.7421875 Z M 37.914062,6.8632812 39.433594,9.6992188 36.599609,11.220703 35.080078,8.3867188 Z m -5.667968,3.0449219 1.521484,2.8320309 -2.833984,1.521485 -1.521485,-2.835938 z m -5.669922,3.0390629 1.521484,2.833984 -2.833984,1.521484 -1.521484,-2.833984 z m 15.138668,1.001953 1.52149,2.835937 -2.83399,1.521485 -1.519528,-2.833985 z m -20.804684,2.041015 1.517578,2.833985 -2.832031,1.519531 -1.521484,-2.832031 z m 15.138672,1.001954 1.521484,2.833984 -2.835937,1.519531 -1.521484,-2.833984 z m -20.808594,2.039062 1.521485,2.833984 -2.833985,1.521485 -1.521484,-2.835938 z m 15.138672,1.001953 1.521485,2.833985 -2.835938,1.521484 -1.519531,-2.833984 z M 9.570312,22.072266 11.091797,24.908203 8.257812,26.429688 6.738281,23.59375 Z m 15.140626,1.003906 1.519531,2.833984 -2.832031,1.519532 -1.521485,-2.832032 z m -5.667969,3.039062 1.521484,2.835938 -2.835937,1.521484 -1.521485,-2.835937 z m -5.669922,3.042969 1.521484,2.833985 -2.835937,1.521484 -1.517578,-2.833984 z"
     style="opacity:1;fill:#a793ac;stroke-width:0.12106485" /><path
     inkscape:connector-curvature="0"
     id="path879"
     d="m 3.924803,14.736328 c -0.02737,0.413032 -0.128906,0.785353 -0.128906,1.21289 0,7.226706 5.808219,16.885489 7.587889,19.673828 2.031748,3.183082 4.248156,6.079783 6.244142,8.15625 2.542362,2.644284 4.568149,3.875 6.373047,3.875 1.804991,0 3.829008,-1.230626 6.371093,-3.875 1.995895,-2.076377 4.214348,-4.973078 6.246094,-8.15625 1.779671,-2.788246 7.585937,-12.447123 7.585937,-19.673828 7e-6,-0.427554 -0.101563,-0.799842 -0.128906,-1.21289 -0.08351,1.592146 -0.311141,3.248004 -0.804688,4.94336 -0.572145,1.965341 -1.354393,3.938189 -2.191406,5.771483 -1.674026,3.666588 -3.571102,6.777752 -4.460937,8.171875 -2.031746,3.183172 -4.2502,6.079873 -6.246094,8.15625 -1.271043,1.322187 -2.411549,2.291484 -3.460938,2.929687 -1.049388,0.638205 -2.00766,0.945313 -2.910156,0.945313 -0.902449,0 -1.858349,-0.307097 -2.908203,-0.945313 -1.049854,-0.638214 -2.193663,-1.607545 -3.464844,-2.929687 -1.995986,-2.076467 -4.212393,-4.973168 -6.244141,-8.15625 C 10.493951,32.228876 8.596875,29.117747 6.92285,25.451171 6.085837,23.617883 5.303589,21.645022 4.731444,19.679688 4.237892,17.984324 4.008305,16.328486 3.924803,14.736328 Z"
     style="opacity:0.5;fill:#000000;stroke-width:0.0924025" /></g></svg>