<svg xmlns="http://www.w3.org/2000/svg" xmlns:xlink="http://www.w3.org/1999/xlink" width="48" height="48"><defs><linearGradient id="b"><stop offset="0"/><stop offset="1" stop-opacity="0"/></linearGradient><linearGradient id="a"><stop offset="0" stop-color="#ec8181"/><stop offset="1" stop-color="#d22"/></linearGradient><radialGradient xlink:href="#a" id="d" gradientUnits="userSpaceOnUse" gradientTransform="matrix(.00664 1.41005 -1.3679 .00644 24.22 -2.52)" spreadMethod="pad" cx="8.31" cy="9.94" fx="8.31" fy="9.94" r="20"/><linearGradient xlink:href="#b" id="c" gradientUnits="userSpaceOnUse" x1="9.39" y1="6.65" x2="46.54" y2="43.82"/></defs><path d="M23.71.5C17.88.5 13.2 1.6 9.78 3.82 5.68 6.48 3.5 10.73 3.5 16.1c0 7.22 5.8 16.88 7.58 19.67a54.48 54.48 0 0 0 6.25 8.16c2.54 2.64 4.57 3.87 6.37 3.87 1.8 0 3.83-1.23 6.37-3.87 2-2.08 4.22-4.98 6.25-8.16 1.78-2.79 7.59-12.45 7.59-19.67 0-5.37-2.17-9.62-6.27-12.27C34.24 1.6 29.55.49 23.7.49z" fill="#4d4d4d"/><path d="M9.55 8.92l10.08 28.94h8.96l.2-.6-.13-.1c-.4-.3-.84-.59-1.07-1.02-.57-1.06-.45-2.16.93-3.09-1.1-.75-2.5-1.02-2.6-2.48-.13-1.87 1.76-2.1 2.9-2.49-.82-1.38-1.13-2.08-.07-3.13 1.25-1.24 2.05-.68 3.53.23.29-1.68.03-2.16 1.44-2.3l4.76-13.96H30.1l-5.92 20.84-6-20.84z" font-weight="400" font-size="40" font-family="Bitstream Vera Sans" fill="#fff"/><path d="M27.7 45.94c.77-.58 1.51-1.1 2.38-2.01 2-2.08 4.22-4.98 6.25-8.16.89-1.4 2.79-4.5 4.46-8.17.84-1.83 1.62-3.8 2.19-5.77.57-1.97.94-3.93.94-5.73 0-.69-.14-1.3-.2-1.95l-6.03-6.02-8.21 12.09-12.09-12.1 3.32 24.07-1.88 4.88z" fill="url(#c)" opacity=".7"/><path d="M8.75 8.13l10.08 28.94h8.97l.2-.6-.13-.1c-.4-.3-.84-.59-1.07-1.02-.57-1.06-.46-2.16.93-3.09-1.1-.75-2.5-1.02-2.6-2.49-.13-1.86 1.76-2.1 2.9-2.48-.82-1.39-1.13-2.08-.07-3.14 1.25-1.24 2.05-.67 3.53.24.28-1.68.02-2.16 1.44-2.3l4.76-13.96H29.3l-5.93 20.83L17.4 8.13z" font-weight="400" font-size="40" font-family="Bitstream Vera Sans" fill="url(#d)"/><path d="M3.64 14.88c-.03.42-.13.79-.13 1.22 0 7.22 5.8 16.88 7.59 19.67a54.47 54.47 0 0 0 6.24 8.16c2.54 2.64 4.57 3.87 6.37 3.87 1.8 0 3.83-1.23 6.37-3.87 2-2.08 4.22-4.98 6.25-8.16 1.78-2.79 7.59-12.45 7.59-19.67 0-.43-.1-.8-.13-1.22a21.6 21.6 0 0 1-.8 4.95 43.2 43.2 0 0 1-2.2 5.77 69.59 69.59 0 0 1-4.46 8.17 54.47 54.47 0 0 1-6.25 8.16 17.98 17.98 0 0 1-3.46 2.93c-1.05.64-2 .94-2.9.94-.91 0-1.87-.3-2.92-.94-1.05-.64-2.19-1.61-3.46-2.93-2-2.08-4.21-4.98-6.24-8.16a69.6 69.6 0 0 1-4.47-8.17 43.2 43.2 0 0 1-2.19-5.77 21.6 21.6 0 0 1-.8-4.95z" opacity=".5"/></svg>