<svg xmlns="http://www.w3.org/2000/svg" xmlns:xlink="http://www.w3.org/1999/xlink" width="48" height="48" version="1"><defs><linearGradient id="c"><stop offset="0" stop-color="#1c65c2"/><stop offset=".47" stop-color="#1c65c2" stop-opacity=".392"/><stop offset="1" stop-color="#1c65c2" stop-opacity=".992"/></linearGradient><linearGradient id="b"><stop offset="0" stop-color="#1c65c2"/><stop offset="1" stop-color="#1c65c2" stop-opacity=".392"/></linearGradient><linearGradient id="a"><stop offset="0"/><stop offset="1" stop-color="#010000" stop-opacity="0"/></linearGradient><linearGradient xlink:href="#a" id="d" gradientUnits="userSpaceOnUse" x1=".524" y1="1.444" x2="51.461" y2="47.729"/><linearGradient xlink:href="#b" id="e" x1="10.67" y1="29.134" x2="30.14" y2="29.134" gradientUnits="userSpaceOnUse"/><linearGradient xlink:href="#c" id="f" x1="24.269" y1="11.801" x2="26.107" y2="23.379" gradientUnits="userSpaceOnUse"/></defs><path d="M24.001.346c-5.833 0-10.522 1.12-13.936 3.332-4.1 2.657-6.27 6.901-6.27 12.271 0 7.227 5.807 16.886 7.587 19.674 2.032 3.183 4.25 6.08 6.246 8.156 2.542 2.645 4.568 3.875 6.373 3.875 1.805 0 3.829-1.23 6.371-3.875 1.996-2.076 4.214-4.973 6.246-8.156 1.78-2.788 7.586-12.447 7.586-19.674 0-5.37-2.166-9.614-6.267-12.271C34.523 1.466 29.834.346 24 .346z" fill="#4d4d4d"/><path d="M28.734 45.166c.548-.47 1.036-.761 1.637-1.387 1.996-2.076 4.214-4.973 6.246-8.156.89-1.394 2.787-4.505 4.461-8.172.837-1.833 1.62-3.806 2.192-5.771.306-1.053.339-2.042.501-3.069L32.591 7.434l-3.19 9.498L24.27 11.8l-1.461.246L15.715 19l-5.858-2.766 4.526 4.526-3.365 2.787 4.074 4.074-4.422-.517z" fill="url(#d)" opacity=".45"/><path d="M24.001.346c-5.833 0-10.522 1.12-13.936 3.332-4.1 2.657-6.27 6.901-6.27 12.271 0 7.227 5.807 16.886 7.587 19.674 2.032 3.183 4.25 6.08 6.246 8.156 2.542 2.645 4.568 3.875 6.373 3.875 1.805 0 3.829-1.23 6.371-3.875 1.996-2.076 4.214-4.973 6.246-8.156 1.78-2.788 7.586-12.447 7.586-19.674 0-5.37-2.166-9.614-6.267-12.271C34.523 1.466 29.834.346 24 .346zm0 .144c2.112.085 4.12.272 5.875.692 1.164.278 2.253.627 3.264 1.043 1.01.416 1.943.9 2.797 1.453a13.801 13.801 0 0 1 2.709 2.283c.78.855 1.435 1.804 1.962 2.836.528 1.032.927 2.15 1.194 3.344.267 1.194.402 2.466.402 3.808 0 1.807-.363 3.765-.935 5.73-.573 1.966-1.353 3.939-2.19 5.772-1.674 3.667-3.571 6.778-4.46 8.172-2.033 3.183-4.251 6.08-6.247 8.156-1.271 1.322-2.413 2.292-3.463 2.93a3.63 3.63 0 0 1-.91.39 3.626 3.626 0 0 1-.908-.39c-1.05-.638-2.192-1.608-3.463-2.93-1.996-2.076-4.214-4.973-6.246-8.156-.89-1.394-2.787-4.505-4.461-8.172-.837-1.833-1.617-3.806-2.19-5.771-.572-1.966-.935-3.924-.935-5.73 0-1.343.135-2.615.402-3.81a14.089 14.089 0 0 1 1.196-3.343A12.918 12.918 0 0 1 9.356 5.96a13.807 13.807 0 0 1 2.71-2.283 17.099 17.099 0 0 1 2.796-1.453c1.011-.416 2.1-.765 3.264-1.043 1.756-.42 3.763-.607 5.875-.692z" opacity=".2"/><path d="M10.67 27.103h18.85l.62 4.062z" fill="url(#e)"/><path d="M26.107 5.978l6.486 1.455 3.264 20.39-5.717 3.342z" fill="#2996dd"/><path d="M20.34 10.853l3.93.948 1.837 11.578-3.446 2.099z" fill="url(#f)"/><path d="M9.857 16.235l12.804 9.243 3.446-2.1-14.454-7.735z" fill="#2996dd"/><path d="M11.018 23.548l9.322-12.695 3.93.948-11.36 11.764z" fill="#2996dd"/></svg>