<svg xmlns="http://www.w3.org/2000/svg" xmlns:xlink="http://www.w3.org/1999/xlink" width="48" height="48"><defs><linearGradient id="c"><stop offset="0"/><stop offset="1" stop-opacity="0"/></linearGradient><linearGradient id="a"><stop offset="0" stop-color="#fff"/><stop offset="1" stop-color="#d3eefc"/></linearGradient><linearGradient xlink:href="#b" id="e" gradientUnits="userSpaceOnUse" gradientTransform="matrix(.2365 0 0 .24128 12.24 12.28)" x1="40.78" y1="100.34" x2="44.38" y2="125.32"/><linearGradient id="b"><stop offset="0" stop-color="#e26400"/><stop offset="1" stop-color="#ffb900"/></linearGradient><linearGradient xlink:href="#b" id="f" x1="12.18" y1="21.85" x2="35.84" y2="21.85" gradientUnits="userSpaceOnUse"/><linearGradient xlink:href="#b" id="g" gradientUnits="userSpaceOnUse" gradientTransform="matrix(.15643 0 0 .1596 16.22 10.44)" x1="40.78" y1="100.34" x2="44.38" y2="125.32"/><linearGradient xlink:href="#b" id="i" x1="12.18" y1="21.85" x2="35.84" y2="21.85" gradientUnits="userSpaceOnUse" gradientTransform="matrix(.66148 0 0 .66148 8.12 2.31)"/><linearGradient xlink:href="#c" id="d" gradientUnits="userSpaceOnUse" x1="12.8" y1="10.02" x2="41.51" y2="38.64"/><linearGradient xlink:href="#c" id="j" x1="-11.73" y1="10.18" x2="35.84" y2="21.85" gradientUnits="userSpaceOnUse" gradientTransform="matrix(.66148 0 0 .66148 8.12 2.31)"/><linearGradient xlink:href="#c" id="h" gradientUnits="userSpaceOnUse" gradientTransform="matrix(.15643 0 0 .1596 16.22 10.44)" x1="-122.27" y1="18.96" x2="44.38" y2="125.32"/></defs><path d="M24 .35c-5.83 0-10.52 1.12-13.93 3.33-4.1 2.66-6.27 6.9-6.27 12.27 0 7.23 5.8 16.88 7.58 19.67a54.48 54.48 0 0 0 6.25 8.16c2.54 2.64 4.57 3.87 6.37 3.87 1.8 0 3.83-1.23 6.37-3.87 2-2.08 4.22-4.97 6.25-8.16 1.78-2.79 7.58-12.44 7.58-19.67 0-5.37-2.16-9.61-6.26-12.27C34.52 1.47 29.84.35 24 .35z" fill="#ff7f2a"/><path d="M27.08 46.56a18 18 0 0 0 3.3-2.78c1.99-2.08 4.2-4.97 6.24-8.16.89-1.4 2.78-4.5 4.46-8.17a44.63 44.63 0 0 0 1.96-5.17L25.44 4.82l4.02 19.46 3.76 4.33-21.08 3.01z" fill="url(#d)" opacity=".5"/><g fill-rule="evenodd"><path d="M12.5 29.97s-.4.42-.5.76c-.07.23-.1.59.03.8.1.15.22.3.4.3l22.71.04c.2 0 .6-.04.76-.27.17-.23.16-.76.05-1.02-.12-.28-.7-.4-.7-.4z" fill="#cb5600"/><path d="M10.99 29.26c-.55 0-1.11.42-1.27.94l-3.8 12.58c-.15.53.16.95.7.95h35.04c.42 0 .66-.32.54-.72l-3.94-13.04c-.12-.4-.55-.71-.97-.71z" fill="url(#e)" transform="matrix(.66148 0 0 .66148 8.12 2.31)"/><path d="M23.97 3.32c-.9 0-1.43.06-1.96.46-.25.18-.44.62-.55.93l-9.28 30.63s.21 1.38 1.53 2.64a8.54 8.54 0 0 0 3.61 1.7 28.9 28.9 0 0 0 14.79-.54c3.62-1.03 3.73-3.93 3.73-3.93L26.3 4.14a.71.71 0 0 0-.21-.3c-.57-.53-1.43-.51-2.12-.52z" fill="url(#f)" transform="matrix(.66148 0 0 .66148 8.12 2.31)"/><path d="M18.42 18.3l-1.4 4.62A10.9 10.9 0 0 0 24 25.26c2.8 0 5.3-.91 7-2.36l-1.4-4.6A9.1 9.1 0 0 1 24 20c-2.27 0-4.29-.66-5.59-1.7zM26.53 8.34c-.66.23-1.57.36-2.56.36s-1.88-.13-2.54-.35l-1.48 4.9c1 .51 2.45.84 4.08.84a9.2 9.2 0 0 0 4.02-.82z" fill="#e6e6e6"/></g><path d="M12.5 29.97s-.4.42-.5.76c-.07.23-.1.59.03.8.1.15.22.3.4.3l22.71.04c.2 0 .6-.04.76-.27.17-.23.16-.76.05-1.02-.12-.28-.7-.4-.7-.4z" fill="#cb5600" fill-rule="evenodd"/><path d="M15.4 21.67a.93.93 0 0 0-.84.62l-2.52 8.32c-.1.35.1.63.46.63h23.18c.28 0 .44-.21.36-.48l-2.6-8.62a.7.7 0 0 0-.65-.47z" fill="url(#g)" fill-rule="evenodd"/><path d="M15.4 21.67a.93.93 0 0 0-.84.62l-2.52 8.32c-.1.35.1.63.46.63h23.18c.28 0 .44-.21.36-.48l-2.6-8.62a.7.7 0 0 0-.65-.47z" fill="url(#h)" fill-rule="evenodd"/><path d="M23.98 4.51c-.6 0-.95.04-1.3.3-.16.12-.29.41-.36.62l-6.14 20.26s.14.91 1.01 1.74c.59.57 1.7.98 2.4 1.13a19.12 19.12 0 0 0 9.78-.36c2.39-.68 2.46-2.6 2.46-2.6l-6.3-20.55a.47.47 0 0 0-.15-.2c-.37-.35-.94-.34-1.4-.34z" fill="url(#i)" fill-rule="evenodd"/><path d="M18.42 18.3l-1.4 4.62A10.9 10.9 0 0 0 24 25.26c2.8 0 5.3-.91 7-2.36l-1.4-4.6A9.1 9.1 0 0 1 24 20c-2.27 0-4.29-.66-5.59-1.7zM26.53 8.34c-.66.23-1.57.36-2.56.36s-1.88-.13-2.54-.35l-1.48 4.9c1 .51 2.45.84 4.08.84a9.2 9.2 0 0 0 4.02-.82z" fill="#e6e6e6" fill-rule="evenodd"/><path d="M23.98 4.51c-.6 0-.95.04-1.3.3-.16.12-.29.41-.36.62l-6.14 20.26s.14.91 1.01 1.74c.59.57 1.7.98 2.4 1.13a19.12 19.12 0 0 0 9.78-.36c2.39-.68 2.46-2.6 2.46-2.6l-6.3-20.55a.47.47 0 0 0-.15-.2c-.37-.35-.94-.34-1.4-.34z" fill="url(#j)" fill-rule="evenodd"/><path d="M24 .35c-5.83 0-10.52 1.12-13.93 3.33-4.1 2.66-6.27 6.9-6.27 12.27 0 7.23 5.8 16.88 7.58 19.67a54.48 54.48 0 0 0 6.25 8.16c2.54 2.64 4.57 3.87 6.37 3.87 1.8 0 3.83-1.23 6.37-3.87 2-2.08 4.22-4.97 6.25-8.16 1.78-2.79 7.58-12.44 7.58-19.67 0-5.37-2.16-9.61-6.26-12.27C34.52 1.47 29.84.35 24 .35zm0 .14c2.11.09 4.12.27 5.88.7 1.16.27 2.25.62 3.26 1.03 1.01.42 1.94.9 2.8 1.46A12.92 12.92 0 0 1 40.6 8.8c.53 1.03.92 2.15 1.2 3.34.26 1.2.4 2.47.4 3.8 0 1.82-.37 3.77-.94 5.74a43.19 43.19 0 0 1-2.2 5.77 69.59 69.59 0 0 1-4.45 8.17 54.47 54.47 0 0 1-6.25 8.16 17.98 17.98 0 0 1-3.46 2.93c-.32.2-.62.3-.91.39-.3-.08-.6-.2-.9-.4-1.06-.63-2.2-1.6-3.47-2.92-2-2.08-4.22-4.97-6.25-8.16a69.6 69.6 0 0 1-4.46-8.17 43.19 43.19 0 0 1-2.19-5.77 20.93 20.93 0 0 1-.93-5.73c0-1.34.13-2.61.4-3.8.27-1.2.67-2.32 1.2-3.35a12.92 12.92 0 0 1 4.67-5.12 17.1 17.1 0 0 1 2.8-1.46c1-.41 2.1-.76 3.26-1.04C19.88.76 21.89.58 24 .5z" opacity=".2"/></svg>