<?xml version="1.0" encoding="UTF-8" standalone="no"?>
<!-- Generator: Adobe Illustrator 19.0.0, SVG Export Plug-In . SVG Version: 6.00 Build 0)  -->

<svg
   xmlns:dc="http://purl.org/dc/elements/1.1/"
   xmlns:cc="http://creativecommons.org/ns#"
   xmlns:rdf="http://www.w3.org/1999/02/22-rdf-syntax-ns#"
   xmlns:svg="http://www.w3.org/2000/svg"
   xmlns="http://www.w3.org/2000/svg"
   xmlns:xlink="http://www.w3.org/1999/xlink"
   xmlns:sodipodi="http://sodipodi.sourceforge.net/DTD/sodipodi-0.dtd"
   xmlns:inkscape="http://www.inkscape.org/namespaces/inkscape"
   version="1.1"
   id="Capa_1"
   x="0px"
   y="0px"
   viewBox="0 0 48 48"
   xml:space="preserve"
   sodipodi:docname="vmware-workstation.svg"
   width="48"
   height="48"
   inkscape:version="0.92.3 (2405546, 2018-03-11)"><metadata
   id="metadata41"><rdf:RDF><cc:Work
       rdf:about=""><dc:format>image/svg+xml</dc:format><dc:type
         rdf:resource="http://purl.org/dc/dcmitype/StillImage" /><dc:title /></cc:Work></rdf:RDF></metadata><defs
   id="defs39"><linearGradient
     id="linearGradient2898"
     x1="30"
     x2="30"
     y1="3.0411"
     y2="27.957001"
     gradientUnits="userSpaceOnUse"
     xlink:href="#linearGradient3341"
     gradientTransform="matrix(1.0045,0,0,1.0034,-6.1353502,-0.60785674)" /><linearGradient
     id="linearGradient3341"><stop
       id="stop3343"
       style="stop-color:#fff"
       offset="0" /><stop
       id="stop3345"
       style="stop-color:#fff;stop-opacity:0"
       offset="1" /></linearGradient><radialGradient
     id="radialGradient2896"
     cx="30"
     cy="33.188"
     r="4.6875"
     gradientTransform="matrix(1.528,-7.0647e-7,2.1309e-7,0.46087,-21.838749,14.148502)"
     gradientUnits="userSpaceOnUse"
     xlink:href="#linearGradient5060" /><linearGradient
     id="linearGradient5060"><stop
       id="stop5062"
       offset="0" /><stop
       id="stop5064"
       style="stop-opacity:0"
       offset="1" /></linearGradient><linearGradient
     id="linearGradient2894"
     x1="38"
     x2="43"
     y1="39"
     y2="38.599998"
     gradientUnits="userSpaceOnUse"
     xlink:href="#linearGradient5060"
     gradientTransform="translate(-5.9997502,-0.55649774)" /><linearGradient
     id="linearGradient2892"
     x1="22"
     x2="17"
     y1="39"
     y2="37.438"
     gradientUnits="userSpaceOnUse"
     xlink:href="#linearGradient5060"
     gradientTransform="translate(-5.9997502,-0.55649774)" /><radialGradient
     id="radialGradient2888"
     cx="26.375999"
     cy="12.313"
     r="8"
     gradientTransform="matrix(1.6402,-0.13258,0.12811,1.5849,-24.395749,-5.7838982)"
     gradientUnits="userSpaceOnUse"
     xlink:href="#linearGradient6954" /><linearGradient
     id="linearGradient6954"><stop
       id="stop6960"
       style="stop-color:#f5f5f5"
       offset="0" /><stop
       id="stop6962"
       style="stop-color:#d2d2d2"
       offset="1" /></linearGradient><linearGradient
     id="linearGradient2890"
     x1="30"
     x2="30"
     y1="5"
     y2="44.679001"
     gradientUnits="userSpaceOnUse"
     xlink:href="#linearGradient3785"
     gradientTransform="translate(-5.9997502,-0.55649774)" /><linearGradient
     id="linearGradient3785"><stop
       id="stop3787"
       style="stop-color:#bdbdbd"
       offset="0" /><stop
       id="stop3789"
       style="stop-color:#8c8c8c"
       offset="1" /></linearGradient><linearGradient
     id="linearGradient2886"
     x1="24.787001"
     x2="24.875"
     y1="53.868999"
     y2="83.5"
     gradientUnits="userSpaceOnUse"
     xlink:href="#linearGradient3341"
     gradientTransform="translate(-1.8747502,-40.056498)" /><radialGradient
     id="radialGradient2882"
     cx="25"
     cy="28.66"
     r="16"
     gradientTransform="matrix(1.3125,0,0,0.37327,-13.812249,19.745502)"
     gradientUnits="userSpaceOnUse"
     xlink:href="#linearGradient6954" /><linearGradient
     id="linearGradient2884"
     x1="30"
     x2="30"
     y1="25.084999"
     y2="45"
     gradientUnits="userSpaceOnUse"
     xlink:href="#linearGradient3785"
     gradientTransform="translate(-5.9997502,-0.55649774)" /><radialGradient
     cx="23.187857"
     cy="10.205709"
     r="11.171996"
     fx="23.187857"
     fy="10.205709"
     id="radialGradient5106"
     xlink:href="#linearGradient5108"
     gradientUnits="userSpaceOnUse"
     gradientTransform="matrix(7.4497636e-8,2.7894857,-2.4028247,6.4171241e-8,60.457203,-34.488678)" /><linearGradient
     id="linearGradient5108"><stop
       id="stop5110"
       style="stop-color:#ffed8c;stop-opacity:1"
       offset="0" /><stop
       id="stop5112"
       style="stop-color:#fb9858;stop-opacity:1"
       offset="0.60000002" /><stop
       id="stop5114"
       style="stop-color:#dc572a;stop-opacity:1"
       offset="1" /></linearGradient><radialGradient
     cx="20.248743"
     cy="4.9115634"
     r="23"
     fx="20.248743"
     fy="4.9115634"
     id="radialGradient2897-479-547-107-90"
     xlink:href="#linearGradient2867-449-88-871-390-598-476-591-434-148-905-902-285-933"
     gradientUnits="userSpaceOnUse"
     gradientTransform="matrix(0,1.7703635,-1.4881952,0,42.033842,-6.4677338)" /><linearGradient
     id="linearGradient2867-449-88-871-390-598-476-591-434-148-905-902-285-933"><stop
       id="stop4146"
       style="stop-color:#ffffff;stop-opacity:1"
       offset="0" /><stop
       id="stop4148"
       style="stop-color:#ffffff;stop-opacity:1"
       offset="0.26238" /><stop
       id="stop4150"
       style="stop-color:#cfd3d6;stop-opacity:1"
       offset="0.704952" /><stop
       id="stop4152"
       style="stop-color:#919dab;stop-opacity:1"
       offset="1" /></linearGradient><linearGradient
     x1="18.138792"
     y1="45.21809"
     x2="18.138792"
     y2="2.9999995"
     id="linearGradient2899-145-663-74-244"
     xlink:href="#linearGradient3707-319-631-477-589-201-606"
     gradientUnits="userSpaceOnUse"
     gradientTransform="translate(11.867333,26.391312)" /><linearGradient
     id="linearGradient3707-319-631-477-589-201-606"><stop
       id="stop4156"
       style="stop-color:#898989;stop-opacity:1"
       offset="0" /><stop
       id="stop4158"
       style="stop-color:#aaaaaa;stop-opacity:1"
       offset="0.5" /><stop
       id="stop4160"
       style="stop-color:#d2d2d2;stop-opacity:1"
       offset="1" /></linearGradient></defs><sodipodi:namedview
   pagecolor="#ffffff"
   bordercolor="#666666"
   borderopacity="1"
   objecttolerance="10"
   gridtolerance="10"
   guidetolerance="10"
   inkscape:pageopacity="0"
   inkscape:pageshadow="2"
   inkscape:window-width="1366"
   inkscape:window-height="690"
   id="namedview37"
   showgrid="false"
   showguides="true"
   inkscape:guide-bbox="true"
   inkscape:zoom="5.3229166"
   inkscape:cx="18.684987"
   inkscape:cy="28.763592"
   inkscape:window-x="0"
   inkscape:window-y="28"
   inkscape:window-maximized="1"
   inkscape:current-layer="Capa_1" />
<path
   style="fill:#550022;stroke-width:0.0924025"
   d="M 23.712891 0.49414062 C 17.87943 0.49414062 13.190692 1.6145182 9.7773438 3.8261719 C 5.6761507 6.4835756 3.5078125 10.727685 3.5078125 16.097656 C 3.5078125 23.324362 9.3140783 32.983146 11.09375 35.771484 C 13.125497 38.954565 15.343857 41.851266 17.339844 43.927734 C 19.882206 46.572017 21.907994 47.802734 23.712891 47.802734 C 25.517882 47.802734 27.5419 46.572109 30.083984 43.927734 C 32.079878 41.851358 34.298332 38.954657 36.330078 35.771484 C 38.10975 32.983238 43.916016 23.324362 43.916016 16.097656 C 43.916108 10.727777 41.749814 6.4836678 37.648438 3.8261719 C 34.235274 1.6145182 29.546261 0.49414062 23.712891 0.49414062 z M 15.578125 4.8808594 L 33.707031 4.8808594 C 33.802026 4.8808594 33.878906 4.9577344 33.878906 5.0527344 L 33.878906 8.46875 L 38.355469 8.46875 C 38.450464 8.46875 38.527344 8.545625 38.527344 8.640625 L 38.527344 26.121094 C 38.527344 26.216089 38.450469 26.292969 38.355469 26.292969 L 28.896484 26.292969 L 28.896484 32.029297 C 28.896484 32.124292 28.819609 32.201172 28.724609 32.201172 L 10.595703 32.201172 C 10.500708 32.201172 10.423828 32.124287 10.423828 32.029297 L 10.423828 14.548828 C 10.423828 14.453833 10.500703 14.376953 10.595703 14.376953 L 15.40625 14.376953 L 15.40625 5.0527344 C 15.40625 4.9577394 15.483125 4.8808594 15.578125 4.8808594 z M 17.078125 6.3359375 C 16.997604 6.3359375 16.933594 6.3999488 16.933594 6.4804688 L 16.933594 14.376953 L 20.054688 14.376953 L 20.054688 8.640625 C 20.054687 8.54563 20.131563 8.46875 20.226562 8.46875 L 32.501953 8.46875 L 32.501953 6.4804688 C 32.501953 6.3999474 32.437942 6.3359375 32.357422 6.3359375 L 17.078125 6.3359375 z M 21.726562 9.9238281 C 21.646041 9.9238281 21.582031 9.9878394 21.582031 10.068359 L 21.582031 14.376953 L 28.724609 14.376953 C 28.819604 14.376953 28.896484 14.453828 28.896484 14.548828 L 28.896484 21.443359 L 32.357422 21.443359 C 32.437933 21.443359 32.501953 21.377395 32.501953 21.296875 L 32.501953 9.9238281 L 21.726562 9.9238281 z M 33.878906 9.9238281 L 33.878906 22.533203 C 33.878906 22.628198 33.802031 22.705078 33.707031 22.705078 L 28.896484 22.705078 L 28.896484 25.03125 L 37.005859 25.03125 C 37.086371 25.03125 37.150391 24.965286 37.150391 24.884766 L 37.150391 10.068359 C 37.150391 9.9878385 37.086379 9.9238281 37.005859 9.9238281 L 33.878906 9.9238281 z M 12.095703 15.832031 C 12.015182 15.832031 11.951172 15.896043 11.951172 15.976562 L 11.951172 30.792969 C 11.951172 30.873483 12.015183 30.939453 12.095703 30.939453 L 27.375 30.939453 C 27.455511 30.939453 27.519531 30.873489 27.519531 30.792969 L 27.519531 26.292969 L 20.226562 26.292969 C 20.131569 26.292969 20.054688 26.216084 20.054688 26.121094 L 20.054688 22.705078 L 15.578125 22.705078 C 15.48313 22.705078 15.40625 22.628193 15.40625 22.533203 L 15.40625 15.832031 L 12.095703 15.832031 z M 16.933594 15.832031 L 16.933594 21.296875 C 16.933594 21.377389 16.997605 21.443359 17.078125 21.443359 L 20.054688 21.443359 L 20.054688 15.832031 L 16.933594 15.832031 z M 21.582031 15.832031 L 21.582031 21.443359 L 27.519531 21.443359 L 27.519531 15.976562 C 27.519531 15.896041 27.45552 15.832031 27.375 15.832031 L 21.582031 15.832031 z M 21.582031 22.705078 L 21.582031 24.884766 C 21.582031 24.96528 21.646043 25.03125 21.726562 25.03125 L 27.519531 25.03125 L 27.519531 22.705078 L 21.582031 22.705078 z "
   id="path2" />

<g
   id="g6"
   transform="translate(0,-464)">
</g>
<g
   id="g8"
   transform="translate(0,-464)">
</g>
<g
   id="g10"
   transform="translate(0,-464)">
</g>
<g
   id="g12"
   transform="translate(0,-464)">
</g>
<g
   id="g14"
   transform="translate(0,-464)">
</g>
<g
   id="g16"
   transform="translate(0,-464)">
</g>
<g
   id="g18"
   transform="translate(0,-464)">
</g>
<g
   id="g20"
   transform="translate(0,-464)">
</g>
<g
   id="g22"
   transform="translate(0,-464)">
</g>
<g
   id="g24"
   transform="translate(0,-464)">
</g>
<g
   id="g26"
   transform="translate(0,-464)">
</g>
<g
   id="g28"
   transform="translate(0,-464)">
</g>
<g
   id="g30"
   transform="translate(0,-464)">
</g>
<g
   id="g32"
   transform="translate(0,-464)">
</g>
<g
   id="g34"
   transform="translate(0,-464)">
</g>
</svg>