<?xml version="1.0" encoding="UTF-8" standalone="no"?>
<!-- Created with Inkscape (http://www.inkscape.org/) -->

<svg
   xmlns:dc="http://purl.org/dc/elements/1.1/"
   xmlns:cc="http://creativecommons.org/ns#"
   xmlns:rdf="http://www.w3.org/1999/02/22-rdf-syntax-ns#"
   xmlns:svg="http://www.w3.org/2000/svg"
   xmlns="http://www.w3.org/2000/svg"
   xmlns:xlink="http://www.w3.org/1999/xlink"
   xmlns:sodipodi="http://sodipodi.sourceforge.net/DTD/sodipodi-0.dtd"
   xmlns:inkscape="http://www.inkscape.org/namespaces/inkscape"
   width="48"
   height="48"
   viewBox="0 0 12.7 12.7"
   version="1.1"
   id="svg829"
   inkscape:version="0.92.3 (2405546, 2018-03-11)"
   sodipodi:docname="ccsm.svg">
  <defs
     id="defs823">
    <linearGradient
       id="linearGradient904">
      <stop
         offset="0"
         style="stop-color:#1a1a1a;stop-opacity:1"
         id="stop900" />
      <stop
         offset="1"
         style="stop-color:#4d4d4d;stop-opacity:1"
         id="stop902" />
    </linearGradient>
    <linearGradient
       x1="302.29202"
       y1="58.442768"
       x2="308.64914"
       y2="60.767513"
       id="linearGradient6782"
       xlink:href="#linearGradient6432"
       gradientUnits="userSpaceOnUse"
       gradientTransform="matrix(0.31250453,0,0,0.31232779,-88.734145,269.81609)" />
    <linearGradient
       id="linearGradient6432">
      <stop
         id="stop6434"
         style="stop-color:white;stop-opacity:1"
         offset="0" />
      <stop
         id="stop6436"
         style="stop-color:black;stop-opacity:1"
         offset="1" />
    </linearGradient>
    <linearGradient
       x1="304.76227"
       y1="64.295265"
       x2="335.30014"
       y2="81.926315"
       id="linearGradient6778"
       xlink:href="#linearGradient6432"
       gradientUnits="userSpaceOnUse"
       gradientTransform="matrix(0.31250453,0,0,0.31232779,-88.734145,269.81609)" />
    <linearGradient
       inkscape:collect="always"
       xlink:href="#linearGradient936"
       id="linearGradient930"
       x1="11.65778"
       y1="4.3422203"
       x2="41.682606"
       y2="33.538837"
       gradientUnits="userSpaceOnUse"
       gradientTransform="matrix(0.26458333,0,0,0.26458333,3.6666667e-7,284.3)" />
    <linearGradient
       inkscape:collect="always"
       id="linearGradient936">
      <stop
         style="stop-color:#000000;stop-opacity:1;"
         offset="0"
         id="stop932" />
      <stop
         style="stop-color:#000000;stop-opacity:0;"
         offset="1"
         id="stop934" />
    </linearGradient>
    <linearGradient
       inkscape:collect="always"
       xlink:href="#linearGradient904"
       id="linearGradient898"
       x1="3.35813"
       y1="288.23746"
       x2="10.548691"
       y2="295.3345"
       gradientUnits="userSpaceOnUse" />
    <linearGradient
       inkscape:collect="always"
       xlink:href="#linearGradient936"
       id="linearGradient922"
       x1="1.5530571"
       y1="289.991"
       x2="9.6531582"
       y2="290.09061"
       gradientUnits="userSpaceOnUse" />
  </defs>
  <sodipodi:namedview
     id="base"
     pagecolor="#ffffff"
     bordercolor="#666666"
     borderopacity="1.0"
     inkscape:pageopacity="0.0"
     inkscape:pageshadow="2"
     inkscape:zoom="3.7565048"
     inkscape:cx="24"
     inkscape:cy="24"
     inkscape:document-units="mm"
     inkscape:current-layer="layer1"
     showgrid="false"
     showguides="true"
     inkscape:guide-bbox="true"
     inkscape:window-width="1366"
     inkscape:window-height="719"
     inkscape:window-x="0"
     inkscape:window-y="25"
     inkscape:window-maximized="1"
     scale-x="1.9"
     units="px"
     inkscape:snap-global="false" />
  <metadata
     id="metadata826">
    <rdf:RDF>
      <cc:Work
         rdf:about="">
        <dc:format>image/svg+xml</dc:format>
        <dc:type
           rdf:resource="http://purl.org/dc/dcmitype/StillImage" />
        <dc:title></dc:title>
      </cc:Work>
    </rdf:RDF>
  </metadata>
  <g
     inkscape:label="Capa 1"
     inkscape:groupmode="layer"
     id="layer1"
     transform="translate(0,-284.3)">
    <g
       id="g942">
      <path
         id="path834"
         d="m 6.3502585,284.39147 c -1.5434365,0 -2.7839982,0.29643 -3.6871131,0.8816 -1.0851074,0.7031 -1.6588136,1.82602 -1.6588136,3.24683 0,1.91206 1.5362412,4.46762 2.0071126,5.20536 0.5375664,0.84219 1.1245075,1.60861 1.6526121,2.15801 0.6726666,0.69964 1.2086564,1.02526 1.686202,1.02526 0.4775705,0 1.013092,-0.3256 1.685685,-1.02526 0.5280803,-0.54937 1.1150465,-1.31579 1.6526124,-2.15801 0.4708711,-0.73772 2.0071131,-3.2933 2.0071131,-5.20536 2.4e-5,-1.42078 -0.573141,-2.5437 -1.658297,-3.24683 -0.9030663,-0.58517 -2.143701,-0.8816 -3.6871135,-0.8816 z"
         style="fill:#217867;stroke-width:0.02444816"
         inkscape:connector-curvature="0" />
      <rect
         y="287.35565"
         x="2.8854103"
         height="4.3978744"
         width="6.902297"
         id="rect873"
         style="opacity:0.87999998;fill:#e6e6e6;fill-opacity:1;stroke:none;stroke-width:0.29196432;stroke-opacity:1" />
      <path
         inkscape:connector-curvature="0"
         id="rect883"
         d="m 2.7610721,286.22598 v 5.67304 h 7.1778563 v -5.67304 z m 0.2857707,1.29036 h 6.606315 v 4.15634 h -6.606315 z"
         style="opacity:1;fill:#1a1a1a;fill-opacity:1;stroke:none;stroke-width:0.26754856;stroke-opacity:1" />
      <path
         inkscape:connector-curvature="0"
         id="path922"
         d="m 7.3370202,296.47497 c 0.2211197,-0.16074 0.4420283,-0.32473 0.6986654,-0.5917 0.5280802,-0.54937 1.1150462,-1.31579 1.6526123,-2.15801 0.2354355,-0.36886 0.7373701,-1.19202 1.1802891,-2.16214 0.22146,-0.48506 0.42843,-1.00704 0.57981,-1.52704 0.15138,-0.51999 0.247013,-1.03817 0.247013,-1.51618 4e-6,-0.21185 -0.03828,-0.4028 -0.06356,-0.601 l -1.6929196,-1.69292 -0.1514117,5.52731 -7.0264446,0.14573 z"
         style="fill:url(#linearGradient930);fill-opacity:1;stroke:none;stroke-width:0.26458332px;stroke-linecap:butt;stroke-linejoin:miter;stroke-opacity:1" />
      <path
         sodipodi:nodetypes="ccccccccccc"
         inkscape:connector-curvature="0"
         id="path914"
         d="m 3.7708421,289.13169 1.8728397,0.008 -0.7499533,-0.61955 4.7433301,-0.0118 0.0161,3.16425 -2.3817852,-0.002 -2.004953,-1.08289 -0.6887098,-0.11645 -0.2198667,-0.17027 -0.3735292,-0.32373 z"
         style="fill:url(#linearGradient922);fill-opacity:1;stroke:none;stroke-width:0.26458332px;stroke-linecap:butt;stroke-linejoin:miter;stroke-opacity:1;opacity:0.3" />
      <path
         inkscape:connector-curvature="0"
         id="path6912"
         d="m 9.0340733,294.58051 c 0.200916,-0.2728 0.39901,-0.47441 0.593245,-0.77463 l -3.231844,-3.20859 c -0.263198,-0.26129 -0.40106,-0.48511 -0.471805,-0.66198 0.06138,-0.24452 0.03615,-0.50539 -0.09302,-0.73638 -0.163103,-0.29168 -0.505453,-0.54963 -0.868164,-0.67542 -0.03112,-0.0115 -0.06513,-0.004 -0.0863,0.0222 -0.02117,0.0248 -0.02482,0.0608 -0.0083,0.0894 l 0.443901,0.79581 c 0.03989,0.0714 0.01933,0.16352 -0.04496,0.25735 -0.0649,0.0947 -0.172931,0.18933 -0.311092,0.26458 -0.138188,0.0754 -0.2767117,0.1165 -0.3922237,0.12041 -0.114829,0.006 -0.204956,-0.0283 -0.244946,-0.0997 l -0.446485,-0.79996 c -0.01246,-0.0223 -0.0346,-0.0368 -0.05995,-0.0398 -0.02535,-0.005 -0.05079,0.006 -0.0677,0.0243 v 5.2e-4 c -0.0091,0.01 -0.01548,0.0217 -0.0186,0.0346 -0.08603,0.37052 -0.04535,0.79598 0.117822,1.08779 0.222838,0.39852 0.686555,0.58894 1.1410157,0.5085 0.185705,0.0623 0.432023,0.20005 0.723987,0.48989 z"
         style="display:inline;fill:url(#linearGradient898);fill-opacity:1;fill-rule:evenodd;stroke:none;stroke-width:0.1673886;stroke-linecap:round;stroke-linejoin:round;stroke-miterlimit:4;stroke-dasharray:none;stroke-dashoffset:0.3612;stroke-opacity:1;enable-background:new" />
      <path
         d="m 4.9377803,288.591 c 0.0037,0.002 0.0014,0.006 0,0.006 l 0.444838,0.79655 c 0.06001,0.10732 0.01673,0.23406 -0.05561,0.33962 -0.07305,0.10663 -0.186239,0.20994 -0.333629,0.29024 -0.147706,0.0804 -0.3026317,0.1191 -0.4324817,0.12346 -0.129564,0.006 -0.251179,-0.0326 -0.308915,-0.13583 l -0.444839,-0.80272 c -0.0026,-4.1e-4 -0.0066,3.9e-4 -0.0062,0 0.0041,-0.006 7.81e-4,0.005 0,0.006 -0.08203,0.35331 -0.03949,0.76169 0.11121,1.03119 0.206132,0.36864 0.636497,0.54472 1.0626697,0.46928 0.424172,-0.0759 0.786862,-0.44522 0.87732,-0.79654 0.05712,-0.22755 0.03279,-0.47209 -0.0865,-0.68541 -0.150286,-0.26877 -0.480894,-0.52187 -0.827894,-0.64218 z"
         id="path7379"
         style="display:inline;fill:#4d4d4d;fill-opacity:1;fill-rule:evenodd;stroke:none;stroke-width:0.19765005;enable-background:new"
         inkscape:connector-curvature="0" />
      <path
         inkscape:connector-curvature="0"
         id="path4588"
         d="m 6.3502588,284.39147 c -1.5434366,0 -2.7839985,0.29643 -3.6871134,0.8816 -1.0851073,0.7031 -1.6588137,1.82602 -1.6588137,3.24683 0,1.91206 1.5362412,4.46762 2.0071127,5.20536 0.5375664,0.84219 1.1245075,1.60861 1.6526124,2.15801 0.6726666,0.69964 1.2086563,1.02526 1.686202,1.02526 0.4775705,0 1.0130919,-0.3256 1.685685,-1.02526 0.5280803,-0.54937 1.1150462,-1.31579 1.6526123,-2.15801 0.4708709,-0.73772 2.0071129,-3.2933 2.0071129,-5.20536 2.4e-5,-1.42078 -0.573142,-2.5437 -1.658297,-3.24683 -0.9030661,-0.58517 -2.143701,-0.8816 -3.6871132,-0.8816 z m 0,0.0382 c 0.5589177,0.0224 1.0898962,0.0719 1.554427,0.18293 0.3079843,0.0736 0.5960941,0.16587 0.863513,0.27595 0.2674191,0.11008 0.5142402,0.23819 0.7400068,0.38448 0.2712886,0.17578 0.5104184,0.37774 0.7167524,0.60409 0.206333,0.22636 0.379881,0.47724 0.519348,0.75035 0.139466,0.27311 0.245056,0.56864 0.315743,0.8847 0.07069,0.31605 0.106459,0.65249 0.106453,1.00769 0,0.47801 -0.09615,0.99619 -0.24753,1.51618 -0.15138,0.52 -0.357833,1.04198 -0.579293,1.52704 -0.4429191,0.97012 -0.9448538,1.79328 -1.1802895,2.16214 -0.5375661,0.84222 -1.1245321,1.60864 -1.6526124,2.15801 -0.3362965,0.34983 -0.6385721,0.60629 -0.9162229,0.77515 -0.084411,0.0513 -0.1636319,0.0811 -0.2408121,0.10335 -0.077131,-0.0222 -0.1559878,-0.0521 -0.2402957,-0.10335 -0.2777739,-0.16886 -0.5798897,-0.42533 -0.916223,-0.77515 -0.5281048,-0.5494 -1.1150459,-1.31582 -1.6526123,-2.15801 -0.2354358,-0.36887 -0.7373705,-1.19202 -1.1802898,-2.16214 -0.2214595,-0.48506 -0.4279128,-1.00704 -0.5792928,-1.52704 -0.1513798,-0.51999 -0.2475299,-1.03817 -0.2475301,-1.51618 0,-0.3552 0.035714,-0.69163 0.1064535,-1.00769 0.07074,-0.31606 0.1767274,-0.61159 0.3162599,-0.8847 0.1395325,-0.27311 0.3129698,-0.524 0.5193479,-0.75035 0.2063782,-0.22634 0.4454756,-0.42832 0.7167523,-0.60409 0.2257788,-0.14629 0.4725871,-0.2744 0.7400065,-0.38448 0.2674194,-0.11008 0.5555335,-0.20232 0.8635132,-0.27595 0.4645234,-0.11105 0.9955051,-0.16048 1.5544271,-0.18293 z"
         style="opacity:0.2;fill:#000000;stroke-width:0.02444816" />
    </g>
  </g>
</svg>
