<?xml version="1.0" encoding="UTF-8" standalone="no"?>
<!-- Generator: Adobe Illustrator 19.0.0, SVG Export Plug-In . SVG Version: 6.00 Build 0)  -->

<svg
   xmlns:dc="http://purl.org/dc/elements/1.1/"
   xmlns:cc="http://creativecommons.org/ns#"
   xmlns:rdf="http://www.w3.org/1999/02/22-rdf-syntax-ns#"
   xmlns:svg="http://www.w3.org/2000/svg"
   xmlns="http://www.w3.org/2000/svg"
   xmlns:xlink="http://www.w3.org/1999/xlink"
   xmlns:sodipodi="http://sodipodi.sourceforge.net/DTD/sodipodi-0.dtd"
   xmlns:inkscape="http://www.inkscape.org/namespaces/inkscape"
   version="1.1"
   id="Capa_1"
   x="0px"
   y="0px"
   viewBox="0 0 48 48"
   xml:space="preserve"
   sodipodi:docname="xfburn.svg"
   width="48"
   height="48"
   inkscape:version="0.92.3 (2405546, 2018-03-11)"><metadata
   id="metadata41"><rdf:RDF><cc:Work
       rdf:about=""><dc:format>image/svg+xml</dc:format><dc:type
         rdf:resource="http://purl.org/dc/dcmitype/StillImage" /><dc:title /></cc:Work></rdf:RDF></metadata><defs
   id="defs39"><linearGradient
     inkscape:collect="always"
     id="linearGradient4619"><stop
       style="stop-color:#ffd42a;stop-opacity:1"
       offset="0"
       id="stop4615" /><stop
       style="stop-color:#ff7f2a;stop-opacity:1"
       offset="1"
       id="stop4617" /></linearGradient><linearGradient
     inkscape:collect="always"
     id="linearGradient4562"><stop
       style="stop-color:#000000;stop-opacity:1;"
       offset="0"
       id="stop4558" /><stop
       style="stop-color:#000000;stop-opacity:0;"
       offset="1"
       id="stop4560" /></linearGradient><linearGradient
     inkscape:collect="always"
     xlink:href="#linearGradient4562"
     id="linearGradient4564"
     x1="14.775759"
     y1="13.536408"
     x2="40.228855"
     y2="36.971703"
     gradientUnits="userSpaceOnUse" /><radialGradient
     inkscape:collect="always"
     xlink:href="#linearGradient4619"
     id="radialGradient4621"
     cx="23.543153"
     cy="21.90918"
     fx="23.543153"
     fy="21.90918"
     r="11.421513"
     gradientTransform="matrix(1,0,0,1.4951739,0,-10.848854)"
     gradientUnits="userSpaceOnUse" /></defs><sodipodi:namedview
   pagecolor="#ffffff"
   bordercolor="#666666"
   borderopacity="1"
   objecttolerance="10"
   gridtolerance="10"
   guidetolerance="10"
   inkscape:pageopacity="0"
   inkscape:pageshadow="2"
   inkscape:window-width="1366"
   inkscape:window-height="719"
   id="namedview37"
   showgrid="false"
   showguides="false"
   inkscape:guide-bbox="true"
   inkscape:zoom="10.625"
   inkscape:cx="24"
   inkscape:cy="24"
   inkscape:window-x="0"
   inkscape:window-y="25"
   inkscape:window-maximized="1"
   inkscape:current-layer="Capa_1" />
<path
   style="fill:#447821;stroke-width:0.0924025"
   d="m 23.712891,0.49414062 c -5.833461,0 -10.522199,1.12037758 -13.935547,3.33203128 -4.101193,2.6574037 -6.269531,6.9015131 -6.269531,12.2714841 0,7.226706 5.806265,16.88549 7.585937,19.673828 2.031747,3.183081 4.250107,6.079782 6.246094,8.15625 2.542362,2.644283 4.56815,3.875 6.373047,3.875 1.804991,0 3.829009,-1.230625 6.371093,-3.875 1.995894,-2.076376 4.214348,-4.973077 6.246094,-8.15625 C 38.10975,32.983238 43.916016,23.324362 43.916016,16.097656 43.916108,10.727777 41.749814,6.4836678 37.648438,3.8261719 34.235274,1.6145182 29.546261,0.49414062 23.712891,0.49414062 Z"
   id="path4532" /><path
   style="fill:url(#linearGradient4564);fill-opacity:1;stroke:none;stroke-width:1px;stroke-linecap:butt;stroke-linejoin:miter;stroke-opacity:1"
   d="m 26.101562,47.025391 c 0.181709,-0.09301 0.332161,-0.05402 0.519532,-0.167969 1.049389,-0.638203 2.191848,-1.6075 3.46289,-2.929688 1.995894,-2.076376 4.214348,-4.973077 6.246094,-8.15625 0.889836,-1.394123 2.786911,-4.505287 4.460942,-8.171875 0.32488,-0.711578 0.55047,-1.495363 0.8496,-2.240234 L 24.1875,7.90625 l -3.763672,6.023438 -5.742187,16.1875 3.380859,8.86914 z"
   id="path4538"
   inkscape:connector-curvature="0" /><path
   style="fill:url(#radialGradient4621);stroke-width:0.0924025;fill-opacity:1"
   d="m 19.888672,4.8320312 c 0,10e-8 8.150843,3.7940919 8.855469,12.7910158 0.500603,6.409313 -0.354268,9.175332 -0.886719,10.240234 -0.09554,0.206013 -0.218897,0.39718 -0.367188,0.56836 2.96381,-3.359913 4.475782,-7.758879 4.205078,-12.230469 10e-7,0 4.491908,6.344358 2.945313,12.662109 -1.548586,6.317752 -6.466797,10.121094 -6.466797,10.121094 0,0 1.404297,-5.199328 1.404297,-7.587891 0,0 -2.663275,1.967686 -4.058594,2.388672 0,0 -3.793735,-5.200918 -3.232422,-11.876953 0,0 -8.02143,4.567028 -4.224609,17.078125 0,0 -9.449042,-6.602669 -4.513672,-17.005859 4.93537,-10.405181 7.04248,-11.666683 6.339844,-17.1484378 z"
   id="path2" />

<g
   id="g6"
   transform="translate(0,-464)">
</g>
<g
   id="g8"
   transform="translate(0,-464)">
</g>
<g
   id="g10"
   transform="translate(0,-464)">
</g>
<g
   id="g12"
   transform="translate(0,-464)">
</g>
<g
   id="g14"
   transform="translate(0,-464)">
</g>
<g
   id="g16"
   transform="translate(0,-464)">
</g>
<g
   id="g18"
   transform="translate(0,-464)">
</g>
<g
   id="g20"
   transform="translate(0,-464)">
</g>
<g
   id="g22"
   transform="translate(0,-464)">
</g>
<g
   id="g24"
   transform="translate(0,-464)">
</g>
<g
   id="g26"
   transform="translate(0,-464)">
</g>
<g
   id="g28"
   transform="translate(0,-464)">
</g>
<g
   id="g30"
   transform="translate(0,-464)">
</g>
<g
   id="g32"
   transform="translate(0,-464)">
</g>
<g
   id="g34"
   transform="translate(0,-464)">
</g>
<path
   style="opacity:0.2;fill:#000000;stroke-width:0.0924025"
   d="m 23.712891,0.49414062 c -5.833461,0 -10.522199,1.12037828 -13.935547,3.33203128 -4.101193,2.657404 -6.269532,6.9015131 -6.269532,12.2714841 0,7.226706 5.806266,16.88549 7.585938,19.673828 2.031747,3.183081 4.250107,6.079782 6.246094,8.15625 2.542362,2.644283 4.56815,3.875 6.373047,3.875 1.804991,0 3.829009,-1.230625 6.371093,-3.875 1.995894,-2.076376 4.214348,-4.973077 6.246094,-8.15625 1.779671,-2.788246 7.585938,-12.447122 7.585938,-19.673828 C 43.916108,10.727777 41.749812,6.483668 37.648438,3.8261719 34.235274,1.6145189 29.54626,0.49414062 23.712891,0.49414062 Z m 0,0.14453126 c 2.112445,0.084873 4.119293,0.27168527 5.875,0.69140622 1.164035,0.2782756 2.252954,0.6269196 3.263671,1.0429688 1.010718,0.4160492 1.943585,0.9002116 2.796876,1.453125 1.025343,0.6643739 1.929139,1.4277032 2.708984,2.2832031 0.779844,0.8554999 1.435774,1.803713 1.96289,2.8359375 0.527119,1.0322245 0.926199,2.1492035 1.19336,3.3437495 0.267161,1.194548 0.402367,2.466125 0.402344,3.808594 0,1.806677 -0.363402,3.765127 -0.935547,5.730469 -0.572145,1.965342 -1.352441,3.93819 -2.189453,5.771484 -1.674026,3.666588 -3.571102,6.777752 -4.460938,8.171875 -2.031746,3.183173 -4.2502,6.079874 -6.246094,8.15625 -1.271042,1.322188 -2.413501,2.291485 -3.46289,2.929688 -0.319034,0.194025 -0.618451,0.306538 -0.910156,0.390625 -0.291517,-0.08404 -0.58956,-0.196919 -0.908204,-0.390625 C 21.75288,46.219207 20.611025,45.249876 19.339844,43.927734 17.343857,41.851266 15.125497,38.954565 13.09375,35.771484 12.203914,34.377315 10.306838,31.266186 8.632812,27.599609 7.7958,25.766321 7.015504,23.793459 6.443359,21.828125 5.871215,19.862791 5.507813,17.904333 5.507812,16.097656 c 0,-1.342493 0.134981,-2.614034 0.402344,-3.808594 C 6.177519,11.094504 6.578102,9.9775371 7.105469,8.9453125 7.632836,7.9130879 8.288347,6.9648635 9.068359,6.109375 9.848371,5.2538865 10.752046,4.4905229 11.777344,3.8261719 12.630681,3.2732586 13.5635,2.789096 14.574219,2.3730469 15.584938,1.9569977 16.673873,1.6083537 17.837891,1.3300781 19.59357,0.91035714 21.60043,0.72354491 23.712891,0.63867188 Z"
   id="path4588"
   inkscape:connector-curvature="0" /></svg>