<svg xmlns="http://www.w3.org/2000/svg" xmlns:xlink="http://www.w3.org/1999/xlink" width="48" height="48" viewBox="0 0 12.7 12.7"><defs><linearGradient id="b"><stop offset="0"/><stop offset="1" stop-opacity="0"/></linearGradient><clipPath id="a"/><linearGradient xlink:href="#b" id="c" gradientUnits="userSpaceOnUse" x1="6.39" y1="287.24" x2="6.33" y2="295.55"/></defs><path d="M6.35.1C4.81.1 3.57.38 2.66.96A3.67 3.67 0 0 0 1 4.22c0 1.91 1.54 4.47 2.01 5.2.54.85 1.13 1.61 1.65 2.16.68.7 1.21 1.03 1.69 1.03s1.01-.33 1.69-1.03c.52-.55 1.11-1.31 1.65-2.15.47-.74 2-3.3 2-5.21 0-1.42-.57-2.54-1.65-3.25A6.75 6.75 0 0 0 6.35.1z" fill="#7c6f91"/><path d="M1.2 289.76c.03.1.02.18.05.28.15.52.36 1.04.58 1.52.44.97.95 1.8 1.18 2.17.54.84 1.13 1.6 1.65 2.15.34.35.64.61.92.78.28.17.53.25.77.25s.5-.08.77-.25c.28-.17.58-.43.92-.78.52-.55 1.11-1.31 1.65-2.15.23-.37.74-1.2 1.18-2.17.22-.48.43-1 .58-1.52.03-.12.03-.23.05-.34z" opacity=".8" fill="url(#c)" transform="translate(0 -284.3)"/><path d="M1.37 2.48A3.72 3.72 0 0 0 1 4.22c0 .48.1 1 .25 1.52.1.36.26.71.4 1.07h9.4c.14-.36.3-.7.4-1.07a4.61 4.61 0 0 0 .14-2.52c-.06-.27-.16-.5-.26-.74z" fill="#006680"/><path d="M2.15 3.3v3.19h1.18l.07-.01a.26.26 0 0 0 .1-.06.26.26 0 0 0 .07-.17V3.53a.26.26 0 0 0-.08-.16.26.26 0 0 0-.09-.06.25.25 0 0 0-.07-.02H2.15zm1.97 0h-.04a.26.26 0 0 0-.1.07.26.26 0 0 0-.07.17v2.71a.26.26 0 0 0 .07.17c.03.02.06.05.1.06h6.4V3.3H4.12z" fill="#333"/><path d="M2.15 3.04v3.2h1.18l.07-.02a.26.26 0 0 0 .1-.06.26.26 0 0 0 .07-.17V3.29a.26.26 0 0 0-.08-.17.26.26 0 0 0-.09-.06.25.25 0 0 0-.07-.01H2.15zm1.97 0l-.04.01a.26.26 0 0 0-.1.06.26.26 0 0 0-.07.17V6a.26.26 0 0 0 .07.16c.03.03.06.05.1.06l.07.01h6.33V3.04H4.12z" fill="#ececec"/><path d="M6.35.1C4.81.1 3.57.38 2.66.96A3.67 3.67 0 0 0 1 4.22c0 1.91 1.54 4.47 2.01 5.2.54.85 1.13 1.61 1.65 2.16.68.7 1.21 1.03 1.69 1.03s1.01-.33 1.69-1.03c.52-.55 1.11-1.31 1.65-2.15.47-.74 2-3.3 2-5.21 0-1.42-.57-2.54-1.65-3.25A6.75 6.75 0 0 0 6.35.1zm0 .03C6.91.15 7.44.2 7.9.31a5.82 5.82 0 0 1 1.6.66 3.65 3.65 0 0 1 1.24 1.36c.14.27.25.57.32.88a4.61 4.61 0 0 1-.14 2.53c-.15.52-.36 1.04-.58 1.52-.44.97-.95 1.8-1.18 2.17-.54.84-1.13 1.6-1.65 2.15-.34.35-.64.61-.92.78a.96.96 0 0 1-.24.1.96.96 0 0 1-.24-.1 4.76 4.76 0 0 1-.92-.78 14.41 14.41 0 0 1-1.65-2.15c-.23-.37-.74-1.2-1.18-2.17-.22-.48-.43-1-.58-1.52a4.6 4.6 0 0 1-.14-2.52 3.73 3.73 0 0 1 .84-1.64 3.65 3.65 0 0 1 1.45-1c.27-.1.56-.2.87-.27.46-.1 1-.16 1.55-.18z" opacity=".2"/><path d="M4.15 3.28v.01c.02.03.2.14.47.27a3.92 3.92 0 0 1 1.13.82l-.05.1-.1.2a1 1 0 0 0-.06.41v.28l-.06.06c-.1.1-.14.15-.14.2 0 .06.03.07.14.03l.11-.03c.03.02.02.07-.02.22a.5.5 0 0 0-.03.15c0 .02.01.03.02.03 0 0 .1-.06.2-.15l.23-.18c.04-.03.05-.03.28.02a5.41 5.41 0 0 0 1.2.04l.1-.01.21.1c.27.12.42.17.46.16.08-.02.06-.12-.08-.3-.1-.13-.08-.14.12-.08.2.06.26.07.28.04.03-.03 0-.1-.1-.22-.18-.22-.18-.27.06-.38.31-.14.56-.28.66-.37.08-.07.1-.1.1-.15 0-.24-.22-.4-.79-.53a1.85 1.85 0 0 1-.22-.06l-.03-.15c-.01-.26-.06-.37-.17-.4-.05 0-.07 0-.11.04-.07.07-.1.2-.06.34.04.14.04.16 0 .16l-.1-.14c-.1-.23-.17-.28-.26-.24-.08.04-.12.22-.08.38.02.06.01.08-.06.2l-.08.14h-.15c-.1 0-.26-.02-.5-.06-.45-.1-.52-.1-.66-.03-.06.03-.12.05-.14.04l-.18-.16a2.52 2.52 0 0 0-.96-.56 5.4 5.4 0 0 1-.58-.24zm5.17.53l-.03.01a.89.89 0 0 0-.14.28c0 .04.05-.02.13-.16.05-.09.06-.13.04-.13zm-.25.08c-.02 0-.04.06-.04.12s.03.02.05-.06V3.9zm-.71.29c.03 0 .06.03.05.1 0 .05-.01.06-.05.06-.09.01-.12-.1-.05-.14a.1.1 0 0 1 .05-.02zm-.21.14s.02 0 .05.05l.09.06c.02 0 .05.02.05.03l-.07.01c-.05 0-.06-.01-.1-.06-.02-.05-.03-.08-.02-.09zm.43.34c.01 0 .02 0 .02.02s-.04.04-.1.06c-.16.07-.18.03-.02-.05a.36.36 0 0 1 .1-.03zm.07.12c.02 0 .02.05-.02.08-.06.06-.14.1-.16.08 0-.02.1-.13.15-.16h.03z" fill="#006680"/></svg>