<svg xmlns="http://www.w3.org/2000/svg" xmlns:xlink="http://www.w3.org/1999/xlink" width="48" height="48" version="1"><defs><linearGradient xlink:href="#a" id="b" gradientUnits="userSpaceOnUse" x1="2.762" y1="4.024" x2="53.619" y2="43.357"/><linearGradient id="a"><stop offset="0" stop-color="#040000"/><stop offset="1" stop-opacity="0"/></linearGradient></defs><path d="M24.001.346c-5.833 0-10.522 1.12-13.935 3.332-4.101 2.657-6.27 6.901-6.27 12.271 0 7.227 5.807 16.886 7.586 19.674 2.032 3.183 4.25 6.08 6.246 8.156 2.543 2.645 4.569 3.875 6.373 3.875 1.805 0 3.83-1.23 6.372-3.875 1.995-2.076 4.214-4.973 6.246-8.156 1.78-2.788 7.586-12.447 7.586-19.674 0-5.37-2.167-9.614-6.268-12.271C34.524 1.466 29.835.346 24.001.346z" fill="#2086e7"/><path d="M8.712 4.657c-.403.349-.801.717-1.154 1.105-.78.855-1.476 1.692-2.004 2.725-.527 1.032-.958 1.927-1.225 3.121-.267 1.195-.534 2.557-.534 3.9 0 1.806.283 3.846.855 5.811a42.004 42.004 0 0 0 2.099 5.71c1.231 2.896 2.378 4.884 3.372 6.515l13.88-13.64z" fill="#cf4f8c"/><path d="M37.875 33.577c.988-1.635 1.94-3.36 3.204-6.126.837-1.833 1.619-3.806 2.191-5.771.572-1.966.934-3.924.934-5.73 0-1.343-.136-2.615-.403-3.81a14.087 14.087 0 0 0-1.193-3.343A12.907 12.907 0 0 0 39.3 4.684l-15.3 15.22z" fill="#6655e4"/><path d="M3.925 14.736c-.027.413-.129.786-.129 1.213 0 7.227 5.809 16.886 7.588 19.674 2.032 3.183 4.248 6.08 6.244 8.156 2.543 2.645 4.569 3.875 6.373 3.875 1.805 0 3.83-1.23 6.372-3.875 1.995-2.076 4.214-4.973 6.246-8.156 1.78-2.788 7.586-12.447 7.586-19.674 0-.427-.102-.8-.13-1.213-.083 1.592-.31 3.248-.804 4.944-.572 1.965-1.354 3.938-2.191 5.771-1.674 3.667-3.572 6.778-4.461 8.172-2.032 3.183-4.25 6.08-6.246 8.156-1.271 1.322-2.412 2.292-3.461 2.93-1.05.638-2.008.945-2.91.945-.903 0-1.859-.307-2.909-.945-1.05-.638-2.193-1.608-3.465-2.93-1.996-2.076-4.212-4.973-6.244-8.156-.89-1.394-2.787-4.505-4.46-8.172-.838-1.833-1.62-3.806-2.192-5.771-.494-1.696-.723-3.352-.807-4.944z" opacity=".5"/><path d="M26.758 46.758c.055-.032.098-.016.153-.049 1.049-.638 2.19-1.608 3.46-2.93 1.996-2.076 4.215-4.973 6.247-8.156.89-1.394 2.787-4.505 4.46-8.172.838-1.833 1.62-3.806 2.192-5.771.55-1.89.872-3.763.898-5.512L36 8 12 32z" opacity=".5" fill="url(#b)"/><path fill="#3f3f3f" d="M12 8h24v24H12z"/><rect width="7.891" height="1.534" x="15.444" y="23.843" rx="0" ry="0" fill="#1a1a1a"/><rect width="7.891" height="1.534" x="14.682" y="23.081" rx="0" ry="0" fill="#fff"/><path fill="#ccc" d="M12 8h24v.929H12z"/><path fill="#1a1a1a" d="M12 31.071h24V32H12z"/><text style="line-height:1.25;-inkscape-font-specification:squealer" x="14.074" y="21.621" font-weight="400" font-size="12.038" font-family="squealer" letter-spacing="0" word-spacing="0" fill="#1a1a1a" stroke-width=".903"><tspan x="14.074" y="21.621">YT</tspan></text><text style="line-height:1.25;-inkscape-font-specification:squealer" x="13.779" y="20.79" font-weight="400" font-size="12.038" font-family="squealer" letter-spacing="0" word-spacing="0" fill="#fff" stroke-width=".903"><tspan x="13.779" y="20.79">YT</tspan></text></svg>