<svg xmlns="http://www.w3.org/2000/svg" xmlns:xlink="http://www.w3.org/1999/xlink" viewBox="0 0 48 48"><defs><linearGradient id="b"><stop offset="0"/><stop offset="1" stop-opacity="0"/></linearGradient><linearGradient id="a"><stop offset="0"/><stop offset="1" stop-opacity="0"/></linearGradient><linearGradient xlink:href="#b" id="c" gradientUnits="userSpaceOnUse" x1="1.64" y1="3.89" x2="62.81" y2="44.51"/></defs><path fill="#c83737" d="M3.59 3.85H44.4v34.59H3.59z"/><path d="M32.48 10.89l-1.03 10.2L44.4 34.07V22.8L32.48 10.9zm-15.9.13l-1.23 9.95 4.97 4.97-1.46.74-4.63 3.21-.6 1.32 7.24 7.23H44L16.58 11.02z" fill="url(#c)" opacity=".5"/><path d="M34.57 31.27c-.07 0-.1 0-.17-.06-6.6-6.41-13.5-7.27-20.77 0-.23.26-.23-.27-.23-.63 0-.33 0-.33.23-.63 6.94-7.03 13.87-6.9 20.8 0 .2.26.14.36.14.73 0 .26.07.56 0 .6z" fill="#e6e6e6"/><ellipse cx="16" cy="16" rx="1.83" ry="5.22" fill="#e6e6e6"/><ellipse cx="32" cy="16" rx="1.83" ry="5.22" fill="#e6e6e6"/></svg>