<svg xmlns="http://www.w3.org/2000/svg" xmlns:xlink="http://www.w3.org/1999/xlink" viewBox="0 0 48 48"><defs><linearGradient id="b"><stop offset="0" stop-color="#483737"/><stop offset="1" stop-color="#6c6753" stop-opacity=".99"/></linearGradient><linearGradient id="a"><stop offset="0"/><stop offset="1" stop-opacity="0"/></linearGradient><linearGradient xlink:href="#a" id="d" gradientUnits="userSpaceOnUse" x1="-1.27" y1="20.37" x2="60.19" y2="36.25" gradientTransform="translate(0 5.62)"/><linearGradient xlink:href="#b" id="c" x1="3.22" y1="43.53" x2="3.52" y2="4.27" gradientUnits="userSpaceOnUse"/></defs><path d="M22.6 4.64v5.58h2.8V4.64h-2.8zm-5.64.45l-2.62.98 1.96 5.23 2.62-.98-1.96-5.23zm14.08 0l-1.96 5.23 2.62.98 1.96-5.23-2.62-.98zM9.2 8.36l-1.97 1.98 3.94 3.95 1.98-1.98L9.2 8.36zm29.62 0l-3.95 3.95 1.98 1.98 3.94-3.95-1.97-1.98zm-33.34 7.5c-1.14 0-2.06.89-2.06 1.97V41.4c0 1.08.92 1.96 2.06 1.96h37.07a2 2 0 0 0 2.05-1.96V17.83a2 2 0 0 0-2.05-1.96H5.47z" fill="url(#c)"/><path d="M10.13 20.65l-3.24 2.4 5.7 5.7-2.52 2.2 5.16 5.18-6.32 2.16 5.07 5.07h28.56a2.1 2.1 0 0 0 1.45-.57c.37-.36.6-.85.6-1.4v-11l-9.65-9.65-3.13 2.51 5.3 5.31h-.55l-7.77-7.78-3.22 2.39 5.6 5.59-.76-.16-7.88-7.89-3.2 2.41 5.56 5.56-.56-.05-7.96-7.96-3.17 2.52 5.2 5.2-.14.39zm30.99.03l-2.93 2.81 6.4 6.4v-5.73z" opacity=".51" fill="url(#d)"/><path d="M8.56 19.92a2.06 1.96 0 0 0-2.06 1.96 2.06 1.96 0 0 0 2.06 1.97 2.06 1.96 0 0 0 2.05-1.97 2.06 1.96 0 0 0-2.05-1.96zm6.17 0a2.06 1.96 0 0 0-2.06 1.96 2.06 1.96 0 0 0 2.06 1.97 2.06 1.96 0 0 0 2.06-1.97 2.06 1.96 0 0 0-2.06-1.96zm6.18 0a2.06 1.96 0 0 0-2.06 1.96 2.06 1.96 0 0 0 2.06 1.97 2.06 1.96 0 0 0 2.06-1.97 2.06 1.96 0 0 0-2.06-1.96zm6.18 0a2.06 1.96 0 0 0-2.06 1.96 2.06 1.96 0 0 0 2.06 1.97 2.06 1.96 0 0 0 2.06-1.97 2.06 1.96 0 0 0-2.06-1.96zm6.18 0a2.06 1.96 0 0 0-2.06 1.96 2.06 1.96 0 0 0 2.06 1.97 2.06 1.96 0 0 0 2.06-1.97 2.06 1.96 0 0 0-2.06-1.96zm6.18 0a2.06 1.96 0 0 0-2.06 1.96 2.06 1.96 0 0 0 2.06 1.97 2.06 1.96 0 0 0 2.05-1.97 2.06 1.96 0 0 0-2.05-1.96zm-27.8 7.85a2.06 1.96 0 0 0-2.07 1.96 2.06 1.96 0 0 0 2.07 1.97 2.06 1.96 0 0 0 2.05-1.97 2.06 1.96 0 0 0-2.05-1.96zm6.17 0a2.06 1.96 0 0 0-2.06 1.96 2.06 1.96 0 0 0 2.06 1.97 2.06 1.96 0 0 0 2.06-1.97 2.06 1.96 0 0 0-2.06-1.96zm6.18 0a2.06 1.96 0 0 0-2.06 1.96A2.06 1.96 0 0 0 24 31.7a2.06 1.96 0 0 0 2.06-1.97A2.06 1.96 0 0 0 24 27.77zm6.18 0a2.06 1.96 0 0 0-2.06 1.96 2.06 1.96 0 0 0 2.06 1.97 2.06 1.96 0 0 0 2.06-1.97 2.06 1.96 0 0 0-2.06-1.96zm6.17 0a2.06 1.96 0 0 0-2.05 1.96 2.06 1.96 0 0 0 2.05 1.97 2.06 1.96 0 0 0 2.07-1.97 2.06 1.96 0 0 0-2.07-1.96zM9.6 34.64a1 1 0 0 0-1.03.99v1.96a1 1 0 0 0 1.03.98h28.8a1 1 0 0 0 1.04-.98v-1.96a1 1 0 0 0-1.03-.99z" fill="#e6e6e6"/></svg>