<svg xmlns="http://www.w3.org/2000/svg" xmlns:xlink="http://www.w3.org/1999/xlink" height="48" width="48"><defs><linearGradient id="b"><stop offset="0" stop-color="#c83737"/><stop offset="1" stop-color="#782121"/></linearGradient><linearGradient id="a"><stop offset="0" stop-color="#502d16"/><stop offset="1" stop-color="#d38d5f"/></linearGradient><linearGradient xlink:href="#a" id="c" x1="5.79" y1="2.03" x2="42.48" y2="46.24" gradientUnits="userSpaceOnUse"/><linearGradient xlink:href="#b" id="d" x1="24" y1="7" x2="24" y2="41" gradientUnits="userSpaceOnUse"/></defs><path d="M24 2c-9.47 1.75-9.2 7.04-18 8-2.29 21.36 5.8 31.01 18 36 12.2-4.99 20.29-14.64 18-36-8.8-.96-8.53-6.25-18-8z" fill="url(#c)"/><path d="M24 7c-7.32 1.35-7.11 5.44-13.9 6.18C8.31 29.68 14.56 37.15 24 41c9.43-3.85 15.68-11.31 13.9-27.82C31.12 12.44 31.33 8.35 24 7z" fill="url(#d)"/></svg>