<svg xmlns="http://www.w3.org/2000/svg" viewBox="0 0 24 24"><path d="M11.294 1.37v.022a10.63 10.63 0 0 0-9.902 9.902H1.37v1.412h.022a10.63 10.63 0 0 0 9.902 9.902v.022h1.412v-.022a10.619 10.619 0 0 0 9.89-9.902h.034v-1.412h-.033a10.619 10.619 0 0 0-9.89-9.902V1.37H12zm0 1.512v4.162H7.805c.762-2.208 2.02-3.775 3.478-4.162zm1.412 0c1.458.387 2.716 1.954 3.478 4.162h-3.478zm-4.68.806c-.684.905-1.258 2.053-1.667 3.356H4.23a9.272 9.272 0 0 1 3.797-3.356zm7.948 0a9.272 9.272 0 0 1 3.786 3.356h-2.12a11.237 11.237 0 0 0-1.655-3.356zM3.5 8.457h2.484c-.188.894-.309 1.843-.353 2.837H2.816c.077-.994.31-1.954.673-2.837zm3.92 0h3.863v2.837H7.055c.044-.994.165-1.954.364-2.837zm5.297 0h3.864c.199.883.331 1.832.364 2.837h-4.239zm5.299 0h2.495c.364.883.596 1.832.673 2.837h-2.815a17.634 17.634 0 0 0-.353-2.837zm-15.2 4.25h2.826c.033.993.154 1.942.342 2.836H3.5a9.14 9.14 0 0 1-.673-2.837zm4.239 0h4.239v2.836H7.419a15.199 15.199 0 0 1-.364-2.837zm5.651 0h4.24a16.317 16.317 0 0 1-.365 2.836h-3.864zm5.663 0h2.815a9.355 9.355 0 0 1-.673 2.836h-2.495c.188-.894.309-1.843.353-2.837zM4.24 16.956h2.12c.408 1.302.982 2.45 1.655 3.355a9.261 9.261 0 0 1-3.786-3.356zm3.576 0h3.478v4.16c-1.458-.386-2.716-1.953-3.478-4.16zm4.89 0h3.478c-.773 2.207-2.02 3.774-3.478 4.16zm4.935 0h2.119a9.261 9.261 0 0 1-3.786 3.355c.684-.905 1.258-2.053 1.667-3.356z" style="text-indent:0;text-decoration-line:none;text-transform:none" color="#000" fill="#1a1a1a"/></svg>