<?xml version="1.0" encoding="UTF-8" standalone="no"?>
<svg
   xmlns:dc="http://purl.org/dc/elements/1.1/"
   xmlns:cc="http://creativecommons.org/ns#"
   xmlns:rdf="http://www.w3.org/1999/02/22-rdf-syntax-ns#"
   xmlns:svg="http://www.w3.org/2000/svg"
   xmlns="http://www.w3.org/2000/svg"
   xmlns:xlink="http://www.w3.org/1999/xlink"
   xmlns:sodipodi="http://sodipodi.sourceforge.net/DTD/sodipodi-0.dtd"
   xmlns:inkscape="http://www.inkscape.org/namespaces/inkscape"
   width="48"
   height="48"
   version="1.1"
   id="svg259"
   sodipodi:docname="camera-video.svg"
   inkscape:version="0.92.4 (5da689c313, 2019-01-14)">
  <sodipodi:namedview
     pagecolor="#ffffff"
     bordercolor="#666666"
     borderopacity="1"
     objecttolerance="10"
     gridtolerance="10"
     guidetolerance="10"
     inkscape:pageopacity="0"
     inkscape:pageshadow="2"
     inkscape:window-width="1112"
     inkscape:window-height="480"
     id="namedview261"
     showgrid="false"
     inkscape:zoom="4.9166667"
     inkscape:cx="2.1355932"
     inkscape:cy="24"
     inkscape:window-x="0"
     inkscape:window-y="25"
     inkscape:window-maximized="0"
     inkscape:current-layer="svg259" />
  <metadata
     id="metadata2">
    <rdf:RDF>
      <cc:Work>
        <dc:format>image/svg+xml</dc:format>
        <dc:type
           rdf:resource="http://purl.org/dc/dcmitype/StillImage" />
        <dc:title></dc:title>
      </cc:Work>
    </rdf:RDF>
  </metadata>
  <defs
     id="defs213">
    <linearGradient
       id="E">
      <stop
         offset="0"
         stop-color="#87aade"
         id="stop4" />
      <stop
         offset="1"
         stop-color="#87aade"
         stop-opacity="0"
         id="stop6" />
    </linearGradient>
    <linearGradient
       id="D">
      <stop
         offset="0"
         stop-color="#d5e5ff"
         id="stop9" />
      <stop
         offset="1"
         stop-color="#d5e5ff"
         stop-opacity="0"
         id="stop11" />
    </linearGradient>
    <linearGradient
       id="C">
      <stop
         offset="0"
         stop-color="#aef"
         stop-opacity=".59"
         id="stop14" />
      <stop
         offset="1"
         stop-color="#5f8dd3"
         stop-opacity="0"
         id="stop16" />
    </linearGradient>
    <linearGradient
       id="A">
      <stop
         stop-color="#87aade"
         offset="0"
         id="stop19" />
      <stop
         stop-color="#162d50"
         offset="1"
         id="stop21" />
    </linearGradient>
    <linearGradient
       id="B">
      <stop
         offset="0"
         id="stop24" />
      <stop
         offset="1"
         stop-opacity="0"
         id="stop26" />
    </linearGradient>
    <linearGradient
       id="v">
      <stop
         offset="0"
         stop-color="#1c2422"
         id="stop29" />
      <stop
         offset="1"
         stop-color="#1c2422"
         stop-opacity="0"
         id="stop31" />
    </linearGradient>
    <linearGradient
       id="i">
      <stop
         offset="0"
         stop-color="#1c2422"
         id="stop34" />
      <stop
         offset="1"
         stop-color="#1c2422"
         stop-opacity="0"
         id="stop36" />
    </linearGradient>
    <linearGradient
       id="j">
      <stop
         offset="0"
         stop-color="#1c2422"
         stop-opacity=".63"
         id="stop39" />
      <stop
         offset=".5"
         stop-color="#1c2422"
         stop-opacity=".59"
         id="stop41" />
      <stop
         offset=".74"
         stop-color="#1c2422"
         stop-opacity="0"
         id="stop43" />
      <stop
         offset="1"
         stop-color="#1c2422"
         stop-opacity=".39"
         id="stop45" />
    </linearGradient>
    <linearGradient
       id="k">
      <stop
         offset="0"
         stop-color="#1c2422"
         id="stop48" />
      <stop
         offset="1"
         stop-color="#1c2422"
         stop-opacity="0"
         id="stop50" />
    </linearGradient>
    <linearGradient
       id="h">
      <stop
         offset="0"
         stop-color="#1c2422"
         id="stop53" />
      <stop
         offset="1"
         stop-color="#1c2422"
         stop-opacity="0"
         id="stop55" />
    </linearGradient>
    <linearGradient
       id="a">
      <stop
         stop-color="#241c1c"
         offset="0"
         id="stop58" />
      <stop
         stop-opacity="0"
         stop-color="#1a1a1a"
         offset="1"
         id="stop60" />
    </linearGradient>
    <linearGradient
       id="g">
      <stop
         offset="0"
         stop-color="#1c2422"
         stop-opacity=".71"
         id="stop63" />
      <stop
         offset=".32"
         stop-color="#1c2422"
         stop-opacity=".78"
         id="stop65" />
      <stop
         offset=".52"
         stop-color="#1c2422"
         stop-opacity=".86"
         id="stop67" />
      <stop
         offset=".75"
         stop-color="#1c2422"
         stop-opacity=".94"
         id="stop69" />
      <stop
         offset="1"
         stop-color="#1c2422"
         id="stop71" />
    </linearGradient>
    <linearGradient
       id="f">
      <stop
         offset="0"
         stop-color="#1c2422"
         stop-opacity=".33"
         id="stop74" />
      <stop
         offset=".14"
         stop-color="#1c2422"
         stop-opacity=".71"
         id="stop76" />
      <stop
         offset=".32"
         stop-color="#1c2422"
         stop-opacity=".78"
         id="stop78" />
      <stop
         offset=".59"
         stop-color="#1c2422"
         stop-opacity=".9"
         id="stop80" />
      <stop
         offset="1"
         stop-color="#1c2422"
         id="stop82" />
    </linearGradient>
    <linearGradient
       id="e">
      <stop
         offset="0"
         stop-color="#1c2422"
         id="stop85" />
      <stop
         offset=".54"
         stop-color="#1c2422"
         id="stop87" />
      <stop
         offset="1"
         stop-color="#fff"
         id="stop89" />
    </linearGradient>
    <linearGradient
       id="d">
      <stop
         offset="0"
         stop-color="#00000a"
         id="stop92" />
      <stop
         offset="1"
         stop-color="#000004"
         stop-opacity="0"
         id="stop94" />
    </linearGradient>
    <linearGradient
       id="c">
      <stop
         offset="0"
         stop-color="#fff"
         stop-opacity=".33"
         id="stop97" />
      <stop
         offset="1"
         stop-color="#fff"
         stop-opacity=".6"
         id="stop99" />
    </linearGradient>
    <linearGradient
       id="b">
      <stop
         offset="0"
         stop-color="#1c2422"
         id="stop102" />
      <stop
         offset="1"
         stop-color="#1c2422"
         stop-opacity="0"
         id="stop104" />
    </linearGradient>
    <linearGradient
       gradientTransform="matrix(-1,0,0,1,47.99,-0.03)"
       xlink:href="#b"
       id="K"
       x1="17.01"
       y1="39.68"
       x2="17.1"
       y2="45.57"
       gradientUnits="userSpaceOnUse" />
    <radialGradient
       xlink:href="#e"
       id="F"
       cx="24.14"
       cy="26.11"
       fx="24.14"
       fy="26.11"
       r="17.71"
       gradientTransform="matrix(1.46138,-0.00512,0.00345,0.98428,-11.23,0.47)"
       gradientUnits="userSpaceOnUse" />
    <radialGradient
       xlink:href="#f"
       id="I"
       gradientUnits="userSpaceOnUse"
       gradientTransform="matrix(0.36777,0,0,0.5503,18.66,16.54)"
       cx="14.9"
       cy="45.58"
       fx="14.9"
       fy="45.58"
       r="12.64" />
    <radialGradient
       xlink:href="#g"
       id="L"
       gradientUnits="userSpaceOnUse"
       gradientTransform="matrix(-0.04676,-0.37688,-0.5122,0.06355,42.39,39.05)"
       cx="20.27"
       cy="43.52"
       fx="20.27"
       fy="43.52"
       r="12.64" />
    <linearGradient
       id="l">
      <stop
         offset="0"
         stop-color="#fff"
         id="stop111" />
      <stop
         offset="1"
         stop-color="#fff"
         stop-opacity=".05"
         id="stop113" />
    </linearGradient>
    <linearGradient
       xlink:href="#h"
       id="J"
       x1="16.75"
       y1="39.38"
       x2="16.73"
       y2="45.46"
       gradientUnits="userSpaceOnUse" />
    <radialGradient
       xlink:href="#i"
       id="M"
       cx="9.97"
       cy="39.63"
       fx="9.97"
       fy="39.63"
       r="4.55"
       gradientTransform="matrix(1.01328,-0.28794,0.4997,1.75851,-19.94,-26.88)"
       gradientUnits="userSpaceOnUse" />
    <radialGradient
       xlink:href="#j"
       id="S"
       cx="24.17"
       cy="43.47"
       fx="24.17"
       fy="43.47"
       r="16.61"
       gradientTransform="matrix(1.47548,0,0,1.13984,-11.5,-8.18)"
       gradientUnits="userSpaceOnUse" />
    <radialGradient
       xlink:href="#k"
       id="P"
       cx="9.97"
       cy="39.63"
       fx="9.97"
       fy="39.63"
       r="4.55"
       gradientTransform="matrix(-1.01328,-0.28794,-0.4997,1.75851,67.94,-26.88)"
       gradientUnits="userSpaceOnUse" />
    <radialGradient
       xlink:href="#l"
       id="Q"
       cx="24"
       cy="12"
       fx="24"
       fy="12"
       r="9.99"
       gradientTransform="matrix(1.4544,0,0,1.07407,-10.9,1.11)"
       gradientUnits="userSpaceOnUse" />
    <filter
       id="O"
       x="-.11"
       width="1.22"
       y="-.05"
       height="1.1"
       color-interpolation-filters="sRGB">
      <feGaussianBlur
         stdDeviation=".41"
         id="feGaussianBlur121" />
    </filter>
    <filter
       id="N"
       x="-.12"
       width="1.23"
       y="-.05"
       height="1.1"
       color-interpolation-filters="sRGB">
      <feGaussianBlur
         stdDeviation=".41"
         id="feGaussianBlur124" />
    </filter>
    <linearGradient
       id="m">
      <stop
         offset="0"
         stop-color="#ccc"
         id="stop127" />
      <stop
         offset="1"
         stop-color="#fff"
         id="stop129" />
    </linearGradient>
    <linearGradient
       id="n">
      <stop
         offset="0"
         stop-color="#020000"
         id="stop132" />
      <stop
         offset="1"
         stop-color="#020000"
         stop-opacity="0"
         id="stop134" />
    </linearGradient>
    <linearGradient
       id="o">
      <stop
         offset="0"
         stop-color="#1a1a1a"
         id="stop137" />
      <stop
         stop-color="#333"
         offset=".23"
         id="stop139" />
      <stop
         offset=".51"
         stop-color="#666"
         id="stop141" />
      <stop
         stop-color="#333"
         offset=".71"
         id="stop143" />
      <stop
         offset="1"
         stop-color="#1a1a1a"
         id="stop145" />
    </linearGradient>
    <linearGradient
       id="p">
      <stop
         offset="0"
         stop-color="#22241c"
         id="stop148" />
      <stop
         offset="1"
         stop-color="#1a1a1a"
         stop-opacity="0"
         id="stop150" />
    </linearGradient>
    <linearGradient
       id="q">
      <stop
         offset="0"
         stop-color="#000008"
         id="stop153" />
      <stop
         offset="1"
         stop-opacity="0"
         id="stop155" />
    </linearGradient>
    <filter
       id="H"
       x="-.04"
       width="1.09"
       y="-.09"
       height="1.18"
       color-interpolation-filters="sRGB">
      <feGaussianBlur
         stdDeviation=".47"
         id="feGaussianBlur158" />
    </filter>
    <linearGradient
       id="r">
      <stop
         offset="0"
         stop-color="#1a1a1a"
         id="stop161" />
      <stop
         offset="1"
         stop-color="#4d4d4d"
         id="stop163" />
    </linearGradient>
    <linearGradient
       id="s">
      <stop
         offset="0"
         stop-color="#000008"
         id="stop166" />
      <stop
         offset="1"
         stop-color="#0b0000"
         stop-opacity="0"
         id="stop168" />
    </linearGradient>
    <linearGradient
       id="t">
      <stop
         offset="0"
         id="stop171" />
      <stop
         offset="1"
         stop-color="#010000"
         stop-opacity="0"
         id="stop173" />
    </linearGradient>
    <radialGradient
       xlink:href="#g"
       id="R"
       gradientUnits="userSpaceOnUse"
       gradientTransform="matrix(0.04676,-0.37688,0.5122,0.06355,5.61,39.05)"
       cx="20.27"
       cy="43.52"
       fx="20.27"
       fy="43.52"
       r="12.64" />
    <linearGradient
       id="u">
      <stop
         offset="0"
         stop-color="#3e4837"
         id="stop177" />
      <stop
         offset="1"
         stop-color="#447821"
         id="stop179" />
    </linearGradient>
    <linearGradient
       xlink:href="#v"
       id="G"
       x1="10.05"
       y1="26.45"
       x2="10.43"
       y2="39.39"
       gradientUnits="userSpaceOnUse" />
    <linearGradient
       id="w">
      <stop
         offset="0"
         stop-color="#d5e5ff"
         id="stop183" />
      <stop
         offset="1"
         stop-color="#d5e5ff"
         stop-opacity=".09"
         id="stop185" />
    </linearGradient>
    <linearGradient
       id="x">
      <stop
         offset="0"
         stop-color="#5f8dd3"
         id="stop188" />
      <stop
         offset="1"
         stop-color="#5f8dd3"
         stop-opacity=".11"
         id="stop190" />
    </linearGradient>
    <linearGradient
       id="y">
      <stop
         offset="0"
         stop-color="#ef2929"
         id="stop193" />
      <stop
         offset="1"
         stop-color="#c00"
         id="stop195" />
    </linearGradient>
    <linearGradient
       id="z">
      <stop
         offset="0"
         stop-color="#eef9f9"
         id="stop198" />
      <stop
         offset=".26"
         stop-color="#f2fdfe"
         id="stop200" />
      <stop
         offset=".51"
         stop-color="#cbeae7"
         id="stop202" />
      <stop
         offset=".77"
         stop-color="#8bcdc9"
         id="stop204" />
      <stop
         offset="1"
         stop-color="#43aea4"
         id="stop206" />
    </linearGradient>
    <linearGradient
       xlink:href="#B"
       id="T"
       gradientUnits="userSpaceOnUse"
       x1="12.81"
       y1="3.69"
       x2="52.6"
       y2="26.28" />
    <linearGradient
       xlink:href="#C"
       id="V"
       x1="9.9"
       y1="27.59"
       x2="9.9"
       y2="24.89"
       gradientUnits="userSpaceOnUse" />
    <linearGradient
       xlink:href="#D"
       id="W"
       x1="10.08"
       y1="20.33"
       x2="10.08"
       y2="23.65"
       gradientUnits="userSpaceOnUse" />
    <radialGradient
       xlink:href="#E"
       id="U"
       cx="24"
       cy="10.01"
       fx="24"
       fy="10.01"
       r="4.45"
       gradientTransform="matrix(1,0,0,0.99775,0,0.02)"
       gradientUnits="userSpaceOnUse" />
  </defs>
  <path
     d="M 6.3,15.44 A 24.96,24.96 0 0 0 24,39.33 24.96,24.96 0 0 0 41.7,15.45 H 6.3 Z"
     id="path215"
     style="fill:url(#F)"
     inkscape:connector-curvature="0" />
  <path
     d="M 21.01,0.13 C 16.88,0.25 8.36,2.16 6.3,15.44 a 9.62,9.62 0 0 0 2.66,6.66 4.06,4.06 0 0 1 0.54,5.01 l -0.01,0.02 a 2.85,2.85 0 0 0 -0.43,1.75 c 0.07,0.95 0.86,2.57 -0.05,2.85 -0.61,0.2 -0.5,-1.58 -1.13,-1.52 -0.4,0.04 -0.38,0.63 -0.46,1.08 a 1.7,1.7 0 0 0 0,0.57 19.98,19.98 0 0 0 3.02,7.53 0.8,0.8 0 0 0 0.77,0.34 20.28,20.28 0 0 1 3.94,-0.07 c 0.91,0.07 1.53,0.97 1.3,1.85 l -0.62,2.3 c -0.54,2.02 1.34,1.41 2.81,2.89 1.4,1.4 3.38,1.15 5.37,1.15 1.96,0 3.94,0.28 5.37,-1.15 1.48,-1.48 3.35,-0.86 2.82,-2.88 l -0.62,-2.31 a 1.47,1.47 0 0 1 1.3,-1.85 20.25,20.25 0 0 1 3.94,0.07 0.8,0.8 0 0 0 0.77,-0.34 19.98,19.98 0 0 0 3,-7.53 1.69,1.69 0 0 0 0,-0.56 c -0.07,-0.46 -0.05,-1.05 -0.44,-1.09 -0.63,-0.06 -0.53,1.71 -1.14,1.52 -0.91,-0.28 -0.12,-1.9 -0.05,-2.85 a 2.85,2.85 0 0 0 -0.43,-1.75 l -0.01,-0.02 a 4.07,4.07 0 0 1 0.54,-5.02 9.62,9.62 0 0 0 2.66,-6.65 c -2.77,-17.7 -17,-15.2 -17,-15.2 h -1.44 c 0,0 -0.89,-0.15 -2.27,-0.1 z"
     id="path217"
     inkscape:connector-curvature="0"
     style="fill:#b7c8c4" />
  <path
     d="m 17.97,26.38 c -0.22,0 -0.45,0.02 -0.7,0.05 0,0 -3.95,0 -5.71,3.8 -0.74,2.65 0.73,4.7 1.76,4.55 1.02,-0.15 6.6,-1.17 7.18,-3.66 0.55,-2.34 0.71,-4.8 -2.53,-4.74 z m 12.06,0 c -3.24,-0.07 -3.08,2.4 -2.53,4.74 0.59,2.49 6.16,3.51 7.19,3.66 1.02,0.15 2.49,-1.9 1.75,-4.54 -1.76,-3.82 -5.71,-3.81 -5.71,-3.81 a 7.7,7.7 0 0 0 -0.7,-0.05 z m -6.3,4.37 c 0,0 -4.62,6.6 -1.98,8.14 h 4.83 C 29.21,37.35 24.6,30.75 24.6,30.75 Z"
     id="path219"
     style="opacity:0.75;fill:url(#G);filter:url(#H)"
     inkscape:connector-curvature="0" />
  <path
     d="m 24.6,32.12 c 0,0 4.61,6.6 1.97,8.14 h -4.83 c -2.63,-1.54 1.98,-8.14 1.98,-8.14 z"
     id="path221"
     style="fill:url(#I)"
     inkscape:connector-curvature="0" />
  <path
     d="m 15.48,39.68 c 0.3,0.1 0.55,0.38 0.72,0.63 0.24,0.34 0.34,0.78 0.22,1.22 l -0.62,2.31 c -0.13,0.5 -0.12,0.84 0,1.1 0.13,0.24 0.36,0.4 0.65,0.54 0.58,0.28 1.4,0.51 2.12,1.22 h 0.06 c -0.35,-3.62 0.44,-6.6 -3.15,-7.02 z"
     id="path223"
     style="opacity:0.97000002;fill:url(#J)"
     inkscape:connector-curvature="0" />
  <path
     d="m 32.5,39.66 c -0.3,0.1 -0.54,0.37 -0.72,0.62 a 1.48,1.48 0 0 0 -0.21,1.23 l 0.61,2.3 c 0.14,0.5 0.12,0.85 0,1.1 -0.13,0.25 -0.36,0.4 -0.65,0.55 -0.57,0.27 -1.39,0.5 -2.12,1.21 h -0.05 c 0.35,-3.62 -0.44,-6.6 3.15,-7.01 z"
     id="path225"
     style="fill:url(#K)"
     inkscape:connector-curvature="0" />
  <path
     d="m 17.27,27.8 c 0,0 -3.96,0 -5.71,3.8 -0.74,2.65 0.73,4.7 1.75,4.55 1.03,-0.15 6.6,-1.17 7.19,-3.66 0.58,-2.5 0.73,-5.14 -3.23,-4.7 z"
     id="path227"
     style="fill:url(#L)"
     inkscape:connector-curvature="0" />
  <path
     d="m 7.57,30.54 c -0.08,0.22 -0.11,0.5 -0.16,0.75 a 1.7,1.7 0 0 0 0,0.57 19.98,19.98 0 0 0 3.02,7.53 0.8,0.8 0 0 0 0.77,0.34 20.28,20.28 0 0 1 3.94,-0.07 c 0.47,0.04 0.84,0.3 1.08,0.65 l 0.21,-0.8 a 1.48,1.48 0 0 0 -1.29,-1.85 20.28,20.28 0 0 0 -1.92,-0.06 20.28,20.28 0 0 0 -2.02,0.13 0.8,0.8 0 0 1 -0.09,0 0.8,0.8 0 0 1 -0.08,0 0.8,0.8 0 0 1 -0.08,0 0.8,0.8 0 0 1 -0.08,-0.02 0.8,0.8 0 0 1 -0.07,-0.03 0.8,0.8 0 0 1 -0.08,-0.03 0.8,0.8 0 0 1 -0.07,-0.04 0.8,0.8 0 0 1 -0.06,-0.05 0.8,0.8 0 0 1 -0.06,-0.05 0.8,0.8 0 0 1 -0.06,-0.06 0.8,0.8 0 0 1 -0.04,-0.06 19.98,19.98 0 0 1 -0.1,-0.15 19.98,19.98 0 0 1 -1,-1.72 A 19.98,19.98 0 0 1 8.5,33.7 19.98,19.98 0 0 1 7.86,31.8 19.98,19.98 0 0 1 7.57,30.54 Z"
     id="path229"
     style="opacity:0.5;fill:url(#M)"
     inkscape:connector-curvature="0" />
  <path
     d="m 32.57,23.96 c 0.79,0.1 1.47,0.3 2.24,0.61 a 12.4,12.4 0 0 1 3.14,1.87 4.01,4.01 0 0 1 -0.32,-1.9 c 0.09,-0.8 0.44,-1.6 1.04,-2.22 l 0.02,-0.02 a 8.79,8.79 0 0 0 2.4,-6.02 V 16.27 A 23.52,23.52 0 0 0 39.83,11.53 C 39.67,11.11 39.5,10.75 39.33,10.37 38.9,9.44 38.43,8.6 37.93,7.87 37.73,7.59 37.54,7.29 37.33,7.03 37.09,6.73 36.81,6.53 36.56,6.26 l 0.03,0.09 a 17.9,17.9 0 0 1 0.83,5.52 18.85,18.85 0 0 1 -0.97,5.93 17.04,17.04 0 0 1 -1.92,3.88 14.48,14.48 0 0 1 -1.76,2.12 c -0.1,0.1 0.1,-0.09 0,0 z"
     id="path231"
     inkscape:connector-curvature="0"
     style="opacity:0.25;fill:#374845;filter:url(#N)" />
  <path
     d="m 11.94,5.65 c -0.32,0.3 -0.65,0.53 -0.95,0.88 -0.62,0.7 -1.2,1.5 -1.72,2.44 -0.53,0.93 -1,2 -1.4,3.2 a 25.3,25.3 0 0 0 -0.97,4.07 8.8,8.8 0 0 0 2.42,6.07 c 0.6,0.63 0.96,1.41 1.05,2.22 0.07,0.6 -0.07,1.33 -0.32,1.92 A 12.2,12.2 0 0 1 15.7,23.89 C 15.51,23.72 15.45,23.7 15.26,23.52 a 13.88,13.88 0 0 1 -2.43,-3.43 16.53,16.53 0 0 1 -1.5,-4.17 18.45,18.45 0 0 1 -0.2,-7.12 18.33,18.33 0 0 1 0.81,-3.15 z"
     id="path233"
     inkscape:connector-curvature="0"
     style="opacity:0.25;fill:#374845;filter:url(#O)" />
  <path
     d="m 40.43,30.54 c 0.08,0.22 0.12,0.5 0.16,0.75 0.03,0.2 0.03,0.38 0,0.57 a 19.98,19.98 0 0 1 -3.01,7.53 0.8,0.8 0 0 1 -0.77,0.34 20.28,20.28 0 0 0 -3.95,-0.07 c -0.47,0.03 -0.84,0.3 -1.08,0.65 l -0.21,-0.8 a 1.48,1.48 0 0 1 1.29,-1.85 20.28,20.28 0 0 1 1.92,-0.06 20.28,20.28 0 0 1 2.03,0.13 0.8,0.8 0 0 0 0.08,0 0.8,0.8 0 0 0 0.08,0 0.8,0.8 0 0 0 0.08,0 0.8,0.8 0 0 0 0.08,-0.02 0.8,0.8 0 0 0 0.08,-0.03 0.8,0.8 0 0 0 0.07,-0.03 0.8,0.8 0 0 0 0.07,-0.04 0.8,0.8 0 0 0 0.06,-0.05 0.8,0.8 0 0 0 0.06,-0.05 0.8,0.8 0 0 0 0.06,-0.06 0.8,0.8 0 0 0 0.05,-0.07 19.98,19.98 0 0 0 0.09,-0.14 19.98,19.98 0 0 0 1,-1.72 19.98,19.98 0 0 0 0.83,-1.82 19.98,19.98 0 0 0 0.64,-1.9 19.98,19.98 0 0 0 0.3,-1.26 z"
     id="path235"
     style="opacity:0.5;fill:url(#P)"
     inkscape:connector-curvature="0" />
  <ellipse
     cx="24"
     cy="14"
     rx="14.53"
     ry="10.73"
     id="ellipse237"
     style="opacity:0.62000002;fill:url(#Q)" />
  <path
     d="m 30.73,27.8 c 0,0 3.96,0 5.71,3.8 0.74,2.65 -0.73,4.7 -1.75,4.55 -1.03,-0.15 -6.6,-1.17 -7.19,-3.66 -0.58,-2.5 -0.73,-5.14 3.23,-4.7 z"
     id="path239"
     style="fill:url(#R)"
     inkscape:connector-curvature="0" />
  <path
     d="M 9.6,26.62 C 9.53,26.78 9.59,26.96 9.49,27.11 L 9.48,27.13 A 2.85,2.85 0 0 0 9.05,28.88 C 9.12,29.83 9.91,31.45 9,31.73 8.39,31.92 8.49,30.15 7.86,30.21 c -0.39,0.04 -0.37,0.63 -0.45,1.08 -0.03,0.2 -0.03,0.38 0,0.57 a 19.98,19.98 0 0 0 3.01,7.53 0.8,0.8 0 0 0 0.77,0.34 20.28,20.28 0 0 1 3.95,-0.07 c 0.91,0.07 1.53,0.97 1.29,1.85 l -0.62,2.3 c -0.53,2.02 1.34,1.41 2.82,2.89 1.4,1.4 3.38,1.15 5.37,1.15 1.96,0 3.94,0.28 5.37,-1.15 1.47,-1.48 3.35,-0.86 2.81,-2.88 l -0.61,-2.31 a 1.47,1.47 0 0 1 1.29,-1.85 20.25,20.25 0 0 1 3.95,0.07 0.8,0.8 0 0 0 0.77,-0.34 19.98,19.98 0 0 0 3,-7.53 1.69,1.69 0 0 0 0,-0.56 c -0.07,-0.46 -0.05,-1.05 -0.45,-1.09 -0.62,-0.06 -0.52,1.71 -1.13,1.52 -0.91,-0.28 -0.12,-1.9 -0.05,-2.85 a 2.85,2.85 0 0 0 -0.43,-1.75 l -0.01,-0.02 c -0.07,-0.1 -0.03,-0.23 -0.08,-0.34 l -0.17,-0.14 a 13.62,13.62 0 0 0 -3.45,-2.06 10.16,10.16 0 0 0 -3.72,-0.78 8.08,8.08 0 0 0 -5.36,1.94 c -0.55,0.45 -1.07,1 -1.56,1.63 -0.5,-0.64 -1.02,-1.18 -1.58,-1.63 A 8.52,8.52 0 0 0 17.08,23.8 c -1.3,0 -2.6,0.28 -3.84,0.77 -1.24,0.49 -2.43,1.2 -3.5,2.06 z"
     id="path241"
     style="opacity:0.4;fill:url(#S)"
     inkscape:connector-curvature="0" />
  <path
     d="m 37.92,38.82 a 19.98,19.98 0 0 0 0.68,-1.15 19.98,19.98 0 0 0 0.84,-1.81 19.98,19.98 0 0 0 0.65,-1.9 19.98,19.98 0 0 0 0.47,-1.93 19.98,19.98 0 0 0 0.03,-0.17 1.69,1.69 0 0 0 0.02,-0.17 1.69,1.69 0 0 0 0,-0.17 1.69,1.69 0 0 0 -0.01,-0.16 1.69,1.69 0 0 0 -0.01,-0.06 c -0.04,-0.23 -0.05,-0.5 -0.1,-0.7 -0.06,-0.21 -0.16,-0.37 -0.35,-0.39 -0.32,-0.03 -0.45,0.4 -0.58,0.81 -0.13,0.41 -0.26,0.8 -0.56,0.71 A 0.56,0.56 0 0 1 38.6,31.3 c -0.05,-0.2 -0.04,-0.46 0,-0.74 0.1,-0.56 0.32,-1.2 0.35,-1.68 a 2.85,2.85 0 0 0 0,-0.28 2.85,2.85 0 0 0 -0.01,-0.29 2.85,2.85 0 0 0 -0.05,-0.28 2.85,2.85 0 0 0 -0.07,-0.27 2.85,2.85 0 0 0 -0.1,-0.27 2.85,2.85 0 0 0 -0.13,-0.25 2.85,2.85 0 0 0 -0.07,-0.1 l -0.01,-0.03 c -0.51,-0.8 -0.7,-1.7 -0.6,-2.59 0.1,-0.88 0.5,-1.74 1.14,-2.43 a 9.62,9.62 0 0 0 0.63,-0.72 9.62,9.62 0 0 0 0.55,-0.8 9.62,9.62 0 0 0 0.48,-0.83 9.62,9.62 0 0 0 0.38,-0.88 9.62,9.62 0 0 0 0.3,-0.92 9.62,9.62 0 0 0 0.2,-0.94 L 30.33,5.73 l -12.11,9.2 4.49,4.49 v 1.72 l -1.42,-1.4 -1.28,1.16 z"
     id="path243"
     style="opacity:0.57999998;fill:url(#T)"
     inkscape:connector-curvature="0" />
  <path
     d="m 24,2.44 a 7.56,7.56 0 1 0 0,15.12 7.56,7.56 0 0 0 0,-15.12 z m 0,1.54 A 6.02,6.02 0 1 1 24.01,16.01 6.02,6.02 0 0 1 24,3.98 Z"
     style="color:#000000;overflow:visible;fill:#374845;fill-rule:evenodd;marker:none"
     overflow="visible"
     id="path245"
     inkscape:connector-curvature="0" />
  <path
     style="color:#000000;overflow:visible;fill:#1a1a1a;fill-rule:evenodd;marker:none"
     d="M 30.27,10 A 6.27,6.27 0 0 1 24,16.27 6.27,6.27 0 0 1 17.73,10 6.27,6.27 0 0 1 24,3.74 6.27,6.27 0 0 1 30.27,10 Z"
     overflow="visible"
     id="path247"
     inkscape:connector-curvature="0" />
  <path
     d="M 28.45,10 A 4.45,4.45 0 0 1 24,14.45 4.45,4.45 0 0 1 19.55,10 4.45,4.45 0 0 1 24,5.57 a 4.45,4.45 0 0 1 4.45,4.44 z"
     style="color:#000000;overflow:visible;fill:url(#U);fill-rule:evenodd;marker:none"
     overflow="visible"
     id="path249"
     inkscape:connector-curvature="0" />
  <ellipse
     transform="rotate(-45)"
     style="color:#000000;overflow:visible;fill:url(#V);fill-rule:evenodd;marker:none"
     cx="9.8999996"
     cy="26.24"
     rx="1.98"
     ry="1.35"
     overflow="visible"
     id="ellipse251" />
  <ellipse
     style="color:#000000;overflow:visible;fill:url(#W);fill-rule:evenodd;marker:none"
     transform="rotate(-45)"
     cx="10.08"
     cy="21.99"
     rx="2.04"
     ry="1.66"
     overflow="visible"
     id="ellipse253" />
  <path
     d="m 23,20.14 h 0.16 q 0.24,0 0.35,-0.09 0.12,-0.08 0.12,-0.25 0,-0.16 -0.12,-0.24 -0.12,-0.07 -0.36,-0.07 H 23 Z m 0,0.4 v 0.91 h -0.5 v -2.37 h 0.68 q 0.48,0 0.71,0.18 0.23,0.17 0.23,0.53 0,0.21 -0.11,0.37 -0.12,0.17 -0.33,0.26 l 0.7,1.03 h -0.56 l -0.56,-0.9 z m 3.05,0.91 h -1.36 v -2.37 h 1.36 v 0.41 h -0.86 v 0.52 h 0.8 v 0.42 h -0.8 v 0.6 h 0.86 z m 1.5,-1.98 q -0.28,0 -0.43,0.21 -0.16,0.21 -0.16,0.6 0,0.8 0.6,0.8 0.24,0 0.6,-0.14 v 0.42 q -0.3,0.12 -0.65,0.12 -0.52,0 -0.8,-0.3 -0.27,-0.32 -0.27,-0.9 0,-0.38 0.14,-0.66 0.13,-0.28 0.38,-0.42 0.26,-0.15 0.6,-0.15 0.34,0 0.69,0.16 l -0.16,0.41 -0.27,-0.1 q -0.14,-0.05 -0.27,-0.05 z"
     style="font-weight:700;font-size:16px;font-family:'Open Sans';letter-spacing:0;word-spacing:0;fill:#ff2a2a;stroke-width:4.82000017"
     font-weight="700"
     font-size="16"
     letter-spacing="0"
     word-spacing="0"
     id="path255"
     inkscape:connector-curvature="0" />
  <circle
     r="0.88"
     cy="20.27"
     cx="20.629999"
     style="color:#000000;overflow:visible;fill:#ff2a2a;marker:none"
     overflow="visible"
     id="circle257" />
</svg>
