<?xml version="1.0" encoding="UTF-8" standalone="no"?>
<svg
   xmlns:dc="http://purl.org/dc/elements/1.1/"
   xmlns:cc="http://creativecommons.org/ns#"
   xmlns:rdf="http://www.w3.org/1999/02/22-rdf-syntax-ns#"
   xmlns:svg="http://www.w3.org/2000/svg"
   xmlns="http://www.w3.org/2000/svg"
   xmlns:xlink="http://www.w3.org/1999/xlink"
   xmlns:sodipodi="http://sodipodi.sourceforge.net/DTD/sodipodi-0.dtd"
   xmlns:inkscape="http://www.inkscape.org/namespaces/inkscape"
   width="48"
   height="48"
   version="1.1"
   id="svg275"
   sodipodi:docname="camera-web.svg"
   inkscape:version="0.92.4 (5da689c313, 2019-01-14)">
  <sodipodi:namedview
     pagecolor="#ffffff"
     bordercolor="#666666"
     borderopacity="1"
     objecttolerance="10"
     gridtolerance="10"
     guidetolerance="10"
     inkscape:pageopacity="0"
     inkscape:pageshadow="2"
     inkscape:window-width="1112"
     inkscape:window-height="480"
     id="namedview277"
     showgrid="false"
     inkscape:zoom="4.9166667"
     inkscape:cx="2.1355932"
     inkscape:cy="24"
     inkscape:window-x="0"
     inkscape:window-y="25"
     inkscape:window-maximized="0"
     inkscape:current-layer="svg275" />
  <metadata
     id="metadata2">
    <rdf:RDF>
      <cc:Work>
        <dc:format>image/svg+xml</dc:format>
        <dc:type
           rdf:resource="http://purl.org/dc/dcmitype/StillImage" />
        <dc:title></dc:title>
      </cc:Work>
    </rdf:RDF>
  </metadata>
  <defs
     id="defs223">
    <linearGradient
       id="F">
      <stop
         offset="0"
         stop-color="#999"
         id="stop4" />
      <stop
         offset=".45"
         stop-color="gray"
         id="stop6" />
      <stop
         offset="1"
         stop-color="#666"
         id="stop8" />
    </linearGradient>
    <linearGradient
       id="E">
      <stop
         offset="0"
         stop-color="#87cdde"
         id="stop11" />
      <stop
         offset="1"
         stop-color="#87cdde"
         stop-opacity="0"
         id="stop13" />
    </linearGradient>
    <linearGradient
       id="D">
      <stop
         offset="0"
         stop-opacity="0"
         id="stop16" />
      <stop
         offset=".56"
         stop-opacity=".2"
         id="stop18" />
      <stop
         offset="1"
         stop-opacity=".44"
         id="stop20" />
    </linearGradient>
    <linearGradient
       id="C">
      <stop
         offset="0"
         stop-color="#5fbcd3"
         id="stop23" />
      <stop
         offset="1"
         stop-color="#87cdde"
         stop-opacity="0"
         id="stop25" />
    </linearGradient>
    <linearGradient
       id="B">
      <stop
         offset="0"
         stop-color="#a4fff7"
         id="stop28" />
      <stop
         offset="1"
         stop-color="#a4fff7"
         stop-opacity="0"
         id="stop30" />
    </linearGradient>
    <linearGradient
       id="i">
      <stop
         offset="0"
         stop-color="#1a1a1a"
         id="stop33" />
      <stop
         offset="1"
         stop-color="#1a1a1a"
         stop-opacity="0"
         id="stop35" />
    </linearGradient>
    <linearGradient
       id="j">
      <stop
         offset="0"
         stop-color="#1a1a1a"
         stop-opacity=".63"
         id="stop38" />
      <stop
         offset=".5"
         stop-color="#1a1a1a"
         stop-opacity=".59"
         id="stop40" />
      <stop
         offset=".74"
         stop-color="#1a1a1a"
         stop-opacity="0"
         id="stop42" />
      <stop
         offset="1"
         stop-color="#1a1a1a"
         stop-opacity=".39"
         id="stop44" />
    </linearGradient>
    <linearGradient
       id="k">
      <stop
         offset="0"
         stop-color="#1a1a1a"
         id="stop47" />
      <stop
         offset="1"
         stop-color="#1a1a1a"
         stop-opacity="0"
         id="stop49" />
    </linearGradient>
    <linearGradient
       id="h">
      <stop
         offset="0"
         stop-color="#1a1a1a"
         id="stop52" />
      <stop
         offset="1"
         stop-color="#1a1a1a"
         stop-opacity="0"
         id="stop54" />
    </linearGradient>
    <linearGradient
       id="a">
      <stop
         stop-color="#241c1c"
         offset="0"
         id="stop57" />
      <stop
         stop-opacity="0"
         stop-color="#1a1a1a"
         offset="1"
         id="stop59" />
    </linearGradient>
    <linearGradient
       id="g">
      <stop
         offset="0"
         stop-color="#1a1a1a"
         stop-opacity=".71"
         id="stop62" />
      <stop
         offset=".32"
         stop-color="#1a1a1a"
         stop-opacity=".78"
         id="stop64" />
      <stop
         offset=".52"
         stop-color="#1a1a1a"
         stop-opacity=".86"
         id="stop66" />
      <stop
         offset=".75"
         stop-color="#1a1a1a"
         stop-opacity=".94"
         id="stop68" />
      <stop
         offset="1"
         stop-color="#1a1a1a"
         id="stop70" />
    </linearGradient>
    <linearGradient
       id="f">
      <stop
         offset="0"
         stop-color="#1a1a1a"
         stop-opacity=".31"
         id="stop73" />
      <stop
         offset=".14"
         stop-color="#1a1a1a"
         stop-opacity=".71"
         id="stop75" />
      <stop
         offset=".32"
         stop-color="#1a1a1a"
         stop-opacity=".78"
         id="stop77" />
      <stop
         offset=".59"
         stop-color="#1a1a1a"
         stop-opacity=".9"
         id="stop79" />
      <stop
         offset="1"
         stop-color="#1a1a1a"
         id="stop81" />
    </linearGradient>
    <linearGradient
       id="e">
      <stop
         offset="0"
         stop-color="#1a1a1a"
         id="stop84" />
      <stop
         offset=".54"
         stop-color="#1a1a1a"
         id="stop86" />
      <stop
         offset="1"
         stop-color="#fff"
         id="stop88" />
    </linearGradient>
    <linearGradient
       id="d">
      <stop
         offset="0"
         stop-color="#00000a"
         id="stop91" />
      <stop
         offset="1"
         stop-color="#000004"
         stop-opacity="0"
         id="stop93" />
    </linearGradient>
    <linearGradient
       id="c">
      <stop
         offset="0"
         stop-color="#fff"
         stop-opacity=".33"
         id="stop96" />
      <stop
         offset="1"
         stop-color="#fff"
         stop-opacity=".6"
         id="stop98" />
    </linearGradient>
    <linearGradient
       id="b">
      <stop
         offset="0"
         stop-color="#1a1a1a"
         id="stop101" />
      <stop
         offset="1"
         stop-color="#1a1a1a"
         stop-opacity="0"
         id="stop103" />
    </linearGradient>
    <linearGradient
       gradientTransform="matrix(-1,0,0,1,47.99,-0.03)"
       xlink:href="#b"
       id="L"
       x1="17.01"
       y1="39.68"
       x2="17.1"
       y2="45.57"
       gradientUnits="userSpaceOnUse" />
    <radialGradient
       xlink:href="#e"
       id="G"
       cx="24.14"
       cy="26.11"
       fx="24.14"
       fy="26.11"
       r="17.71"
       gradientTransform="matrix(1.46138,-0.00512,0.00345,0.98428,-11.23,0.47)"
       gradientUnits="userSpaceOnUse" />
    <radialGradient
       xlink:href="#f"
       id="J"
       gradientUnits="userSpaceOnUse"
       gradientTransform="matrix(0.36777,0,0,0.5503,18.66,16.54)"
       cx="14.9"
       cy="45.58"
       fx="14.9"
       fy="45.58"
       r="12.64" />
    <radialGradient
       xlink:href="#g"
       id="M"
       gradientUnits="userSpaceOnUse"
       gradientTransform="matrix(-0.04676,-0.37688,-0.5122,0.06355,42.39,39.05)"
       cx="20.27"
       cy="43.52"
       fx="20.27"
       fy="43.52"
       r="12.64" />
    <linearGradient
       id="l">
      <stop
         offset="0"
         stop-color="#fff"
         id="stop110" />
      <stop
         offset="1"
         stop-color="#fff"
         stop-opacity=".05"
         id="stop112" />
    </linearGradient>
    <linearGradient
       xlink:href="#h"
       id="K"
       x1="16.75"
       y1="39.38"
       x2="16.73"
       y2="45.46"
       gradientUnits="userSpaceOnUse" />
    <radialGradient
       xlink:href="#i"
       id="N"
       cx="9.97"
       cy="39.63"
       fx="9.97"
       fy="39.63"
       r="4.55"
       gradientTransform="matrix(1.01328,-0.28794,0.4997,1.75851,-19.94,-26.88)"
       gradientUnits="userSpaceOnUse" />
    <radialGradient
       xlink:href="#j"
       id="I"
       cx="24.17"
       cy="43.47"
       fx="24.17"
       fy="43.47"
       r="16.61"
       gradientTransform="matrix(1.47548,0,0,1.13984,-11.5,-8.18)"
       gradientUnits="userSpaceOnUse" />
    <radialGradient
       xlink:href="#k"
       id="Q"
       cx="9.97"
       cy="39.63"
       fx="9.97"
       fy="39.63"
       r="4.55"
       gradientTransform="matrix(-1.01328,-0.28794,-0.4997,1.75851,67.94,-26.88)"
       gradientUnits="userSpaceOnUse" />
    <radialGradient
       xlink:href="#l"
       id="R"
       cx="24"
       cy="12"
       fx="24"
       fy="12"
       r="9.99"
       gradientTransform="matrix(1.4544,0,0,1.07407,-10.9,1.11)"
       gradientUnits="userSpaceOnUse" />
    <filter
       id="P"
       x="-.11"
       width="1.22"
       y="-.05"
       height="1.1"
       color-interpolation-filters="sRGB">
      <feGaussianBlur
         stdDeviation=".41"
         id="feGaussianBlur120" />
    </filter>
    <filter
       id="O"
       x="-.12"
       width="1.23"
       y="-.05"
       height="1.1"
       color-interpolation-filters="sRGB">
      <feGaussianBlur
         stdDeviation=".41"
         id="feGaussianBlur123" />
    </filter>
    <linearGradient
       id="m">
      <stop
         offset="0"
         stop-color="#ccc"
         id="stop126" />
      <stop
         offset="1"
         stop-color="#fff"
         id="stop128" />
    </linearGradient>
    <linearGradient
       id="n">
      <stop
         offset="0"
         stop-color="#020000"
         id="stop131" />
      <stop
         offset="1"
         stop-color="#020000"
         stop-opacity="0"
         id="stop133" />
    </linearGradient>
    <linearGradient
       id="o">
      <stop
         offset="0"
         stop-color="#1a1a1a"
         id="stop136" />
      <stop
         stop-color="#333"
         offset=".23"
         id="stop138" />
      <stop
         offset=".51"
         stop-color="#666"
         id="stop140" />
      <stop
         stop-color="#333"
         offset=".71"
         id="stop142" />
      <stop
         offset="1"
         stop-color="#1a1a1a"
         id="stop144" />
    </linearGradient>
    <linearGradient
       id="p">
      <stop
         offset="0"
         stop-color="#22241c"
         id="stop147" />
      <stop
         offset="1"
         stop-color="#1a1a1a"
         stop-opacity="0"
         id="stop149" />
    </linearGradient>
    <linearGradient
       id="q">
      <stop
         offset="0"
         stop-color="#000008"
         id="stop152" />
      <stop
         offset="1"
         stop-opacity="0"
         id="stop154" />
    </linearGradient>
    <filter
       id="H"
       x="-.04"
       width="1.09"
       y="-.09"
       height="1.18"
       color-interpolation-filters="sRGB">
      <feGaussianBlur
         stdDeviation=".47"
         id="feGaussianBlur157" />
    </filter>
    <linearGradient
       id="r">
      <stop
         offset="0"
         stop-color="#4d4d4d"
         id="stop160" />
      <stop
         offset="1"
         stop-color="#4d4d4d"
         id="stop162" />
    </linearGradient>
    <linearGradient
       id="s">
      <stop
         offset="0"
         stop-color="#4d4d4d"
         id="stop165" />
      <stop
         offset="1"
         stop-color="#1a1a1a"
         id="stop167" />
    </linearGradient>
    <linearGradient
       id="t">
      <stop
         offset="0"
         stop-color="#1a1a1a"
         id="stop170" />
      <stop
         offset="1"
         stop-color="#1a1a1a"
         stop-opacity="0"
         id="stop172" />
    </linearGradient>
    <radialGradient
       xlink:href="#g"
       id="S"
       gradientUnits="userSpaceOnUse"
       gradientTransform="matrix(0.04676,-0.37688,0.5122,0.06355,5.61,39.05)"
       cx="20.27"
       cy="43.52"
       fx="20.27"
       fy="43.52"
       r="12.64" />
    <linearGradient
       id="u">
      <stop
         offset="0"
         stop-color="#fff"
         id="stop176" />
      <stop
         offset="1"
         stop-opacity="0"
         id="stop178" />
    </linearGradient>
    <linearGradient
       id="v">
      <stop
         offset="0"
         stop-color="#afafaf"
         id="stop181" />
      <stop
         offset="1"
         stop-color="#5a5a5a"
         id="stop183" />
    </linearGradient>
    <linearGradient
       id="w">
      <stop
         stop-opacity="0"
         offset="0"
         id="stop186" />
      <stop
         stop-opacity=".23"
         offset=".58"
         id="stop188" />
      <stop
         stop-opacity=".52"
         offset="1"
         id="stop190" />
    </linearGradient>
    <radialGradient
       id="x"
       cx="43.7"
       cy="45.8"
       r="24"
       gradientTransform="translate(20.57 21.79) scale(.3273)"
       gradientUnits="userSpaceOnUse">
      <stop
         stop-color="#5400a7"
         offset="0"
         id="stop193" />
      <stop
         stop-color="#5400a7"
         stop-opacity="0"
         offset="1"
         id="stop195" />
    </radialGradient>
    <linearGradient
       id="y">
      <stop
         stop-color="#fff"
         stop-opacity=".35"
         offset="0"
         id="stop198" />
      <stop
         stop-color="#fff"
         stop-opacity="0"
         offset="1"
         id="stop200" />
    </linearGradient>
    <radialGradient
       id="z"
       cx="43.7"
       cy="45.8"
       r="24"
       gradientTransform="translate(20.57 21.79) scale(.3273)"
       gradientUnits="userSpaceOnUse">
      <stop
         stop-color="#87cdde"
         offset="0"
         id="stop203" />
      <stop
         stop-color="#87cdde"
         stop-opacity="0"
         offset="1"
         id="stop205" />
    </radialGradient>
    <radialGradient
       id="A"
       cx="43.7"
       cy="45.8"
       r="24"
       gradientTransform="translate(20.57 21.79) scale(.3273)"
       gradientUnits="userSpaceOnUse">
      <stop
         stop-color="#87cdde"
         offset="0"
         id="stop208" />
      <stop
         stop-color="#87cdde"
         stop-opacity="0"
         offset="1"
         id="stop210" />
    </radialGradient>
    <radialGradient
       id="Y"
       cx="31.37"
       cy="48.32"
       r="24"
       gradientTransform="matrix(0.26412,0,0,0.17972,-2.5,-16.67)"
       gradientUnits="userSpaceOnUse">
      <stop
         stop-color="#fff"
         offset="0"
         id="stop213" />
      <stop
         stop-color="#fff"
         stop-opacity="0"
         offset="1"
         id="stop215" />
    </radialGradient>
    <radialGradient
       xlink:href="#B"
       id="X"
       cx="2.19"
       cy="30.55"
       fx="2.19"
       fy="30.55"
       r="4.59"
       gradientUnits="userSpaceOnUse"
       gradientTransform="translate(0,-20)" />
    <radialGradient
       xlink:href="#C"
       id="W"
       cx="5.54"
       cy="34.73"
       fx="5.54"
       fy="34.73"
       r="5.52"
       gradientUnits="userSpaceOnUse"
       gradientTransform="matrix(1.40898,0.0243,-0.02349,1.36188,-1.45,-32.7)" />
    <radialGradient
       xlink:href="#D"
       id="V"
       cx="24"
       cy="32.46"
       fx="24"
       fy="32.46"
       r="6.16"
       gradientUnits="userSpaceOnUse"
       gradientTransform="translate(-20,-20)" />
    <radialGradient
       xlink:href="#E"
       id="U"
       cx="1.19"
       cy="30.73"
       fx="1.19"
       fy="30.73"
       r="6.16"
       gradientUnits="userSpaceOnUse"
       gradientTransform="matrix(1.2678,0.16206,-0.1268,0.99193,3.58,-19.94)" />
    <radialGradient
       xlink:href="#F"
       id="T"
       cx="9.35"
       cy="37.18"
       fx="9.35"
       fy="37.18"
       r="8.57"
       gradientUnits="userSpaceOnUse"
       gradientTransform="translate(0,-20)" />
  </defs>
  <path
     d="M 6.3,15.44 A 24.96,24.96 0 0 0 24,39.33 24.96,24.96 0 0 0 41.7,15.45 H 6.3 Z"
     id="path225"
     style="fill:url(#G)"
     inkscape:connector-curvature="0" />
  <path
     d="M 21.01,0.13 C 16.88,0.25 8.36,2.16 6.3,15.44 A 9.62,9.62 0 0 0 8.96,22.1 4.06,4.06 0 0 1 9.5,27.11 L 9.49,27.13 A 2.85,2.85 0 0 0 9.06,28.88 C 9.13,29.83 9.92,31.45 9.01,31.73 8.4,31.93 8.5,30.15 7.87,30.21 7.48,30.25 7.5,30.84 7.42,31.29 a 1.7,1.7 0 0 0 0,0.57 19.98,19.98 0 0 0 3.01,7.53 0.8,0.8 0 0 0 0.77,0.34 20.28,20.28 0 0 1 3.95,-0.07 c 0.91,0.07 1.53,0.97 1.29,1.85 l -0.61,2.3 c -0.54,2.02 1.33,1.41 2.81,2.89 1.4,1.4 3.38,1.15 5.37,1.15 1.96,0 3.94,0.28 5.37,-1.15 1.47,-1.48 3.35,-0.86 2.81,-2.88 l -0.61,-2.31 a 1.47,1.47 0 0 1 1.29,-1.85 20.25,20.25 0 0 1 3.95,0.07 0.8,0.8 0 0 0 0.77,-0.34 19.98,19.98 0 0 0 3,-7.53 1.69,1.69 0 0 0 0,-0.56 c -0.07,-0.46 -0.05,-1.05 -0.45,-1.09 -0.62,-0.06 -0.52,1.71 -1.13,1.52 -0.91,-0.28 -0.12,-1.9 -0.05,-2.85 a 2.85,2.85 0 0 0 -0.43,-1.75 l -0.01,-0.02 a 4.07,4.07 0 0 1 0.54,-5.02 9.62,9.62 0 0 0 2.66,-6.65 c -2.77,-17.7 -17,-15.2 -17,-15.2 h -1.44 c 0,0 -0.89,-0.14 -2.28,-0.09 z"
     id="path227"
     inkscape:connector-curvature="0"
     style="fill:#b3b3b3" />
  <path
     d="m 17.97,26.38 c -0.22,0 -0.45,0.02 -0.7,0.05 0,0 -3.95,0 -5.71,3.8 -0.74,2.65 0.73,4.7 1.76,4.55 1.02,-0.15 6.6,-1.17 7.18,-3.66 0.55,-2.34 0.71,-4.8 -2.53,-4.74 z m 12.06,0 c -3.24,-0.07 -3.08,2.4 -2.53,4.74 0.59,2.49 6.16,3.51 7.19,3.66 1.02,0.15 2.49,-1.9 1.75,-4.54 -1.76,-3.82 -5.71,-3.81 -5.71,-3.81 a 7.7,7.7 0 0 0 -0.7,-0.05 z m -6.3,4.37 c 0,0 -4.62,6.6 -1.98,8.14 h 4.83 C 29.21,37.35 24.6,30.75 24.6,30.75 Z"
     id="path229"
     inkscape:connector-curvature="0"
     style="opacity:0.75;fill:#1a1a1a;fill-opacity:0.98999999;filter:url(#H)" />
  <path
     d="M 9.6,26.62 C 9.53,26.78 9.59,26.96 9.49,27.11 L 9.48,27.13 A 2.85,2.85 0 0 0 9.05,28.88 C 9.12,29.83 9.91,31.45 9,31.73 8.39,31.92 8.49,30.15 7.86,30.21 c -0.39,0.04 -0.37,0.63 -0.45,1.08 -0.03,0.2 -0.03,0.38 0,0.57 a 19.98,19.98 0 0 0 3.01,7.53 0.8,0.8 0 0 0 0.77,0.34 20.28,20.28 0 0 1 3.95,-0.07 c 0.91,0.07 1.53,0.97 1.29,1.85 l -0.62,2.3 c -0.53,2.02 1.34,1.41 2.82,2.89 1.4,1.4 3.38,1.15 5.37,1.15 1.96,0 3.94,0.28 5.37,-1.15 1.47,-1.48 3.35,-0.86 2.81,-2.88 l -0.61,-2.31 a 1.47,1.47 0 0 1 1.29,-1.85 20.25,20.25 0 0 1 3.95,0.07 0.8,0.8 0 0 0 0.77,-0.34 19.98,19.98 0 0 0 3,-7.53 1.69,1.69 0 0 0 0,-0.56 c -0.07,-0.46 -0.05,-1.05 -0.45,-1.09 -0.62,-0.06 -0.52,1.71 -1.13,1.52 -0.91,-0.28 -0.12,-1.9 -0.05,-2.85 a 2.85,2.85 0 0 0 -0.43,-1.75 l -0.01,-0.02 c -0.07,-0.1 -0.03,-0.23 -0.08,-0.34 l -0.17,-0.14 a 13.62,13.62 0 0 0 -3.45,-2.06 10.16,10.16 0 0 0 -3.72,-0.78 8.08,8.08 0 0 0 -5.36,1.94 c -0.55,0.45 -1.07,1 -1.56,1.63 -0.5,-0.64 -1.02,-1.18 -1.58,-1.63 A 8.52,8.52 0 0 0 17.08,23.8 c -1.3,0 -2.6,0.28 -3.84,0.77 -1.24,0.49 -2.43,1.2 -3.5,2.06 z"
     id="path231"
     style="opacity:0.4;fill:url(#I)"
     inkscape:connector-curvature="0" />
  <path
     d="m 24.6,32.12 c 0,0 4.61,6.6 1.97,8.14 h -4.83 c -2.63,-1.54 1.98,-8.14 1.98,-8.14 z"
     id="path233"
     style="fill:url(#J)"
     inkscape:connector-curvature="0" />
  <path
     d="m 15.48,39.68 c 0.3,0.1 0.55,0.38 0.72,0.63 0.24,0.34 0.34,0.78 0.22,1.22 l -0.62,2.31 c -0.13,0.5 -0.12,0.84 0,1.1 0.13,0.24 0.36,0.4 0.65,0.54 0.58,0.28 1.4,0.51 2.12,1.22 h 0.06 c -0.35,-3.62 0.44,-6.6 -3.15,-7.02 z"
     id="path235"
     style="fill:url(#K)"
     inkscape:connector-curvature="0" />
  <path
     d="m 32.5,39.66 c -0.3,0.1 -0.54,0.37 -0.72,0.62 a 1.48,1.48 0 0 0 -0.21,1.23 l 0.61,2.3 c 0.14,0.5 0.12,0.85 0,1.1 -0.13,0.25 -0.36,0.4 -0.65,0.55 -0.57,0.27 -1.39,0.5 -2.12,1.21 h -0.05 c 0.35,-3.62 -0.44,-6.6 3.15,-7.01 z"
     id="path237"
     style="fill:url(#L)"
     inkscape:connector-curvature="0" />
  <path
     d="m 17.27,27.8 c 0,0 -3.96,0 -5.71,3.8 -0.74,2.65 0.73,4.7 1.75,4.55 1.03,-0.15 6.6,-1.17 7.19,-3.66 0.58,-2.5 0.73,-5.14 -3.23,-4.7 z"
     id="path239"
     style="fill:url(#M)"
     inkscape:connector-curvature="0" />
  <path
     d="m 7.57,30.54 c -0.08,0.22 -0.11,0.5 -0.16,0.75 a 1.7,1.7 0 0 0 0,0.57 19.98,19.98 0 0 0 3.02,7.53 0.8,0.8 0 0 0 0.77,0.34 20.28,20.28 0 0 1 3.94,-0.07 c 0.47,0.04 0.84,0.3 1.08,0.65 l 0.21,-0.8 a 1.48,1.48 0 0 0 -1.29,-1.85 20.28,20.28 0 0 0 -1.92,-0.06 20.28,20.28 0 0 0 -2.02,0.13 0.8,0.8 0 0 1 -0.09,0 0.8,0.8 0 0 1 -0.08,0 0.8,0.8 0 0 1 -0.08,0 0.8,0.8 0 0 1 -0.08,-0.02 0.8,0.8 0 0 1 -0.07,-0.03 0.8,0.8 0 0 1 -0.08,-0.03 0.8,0.8 0 0 1 -0.07,-0.04 0.8,0.8 0 0 1 -0.06,-0.05 0.8,0.8 0 0 1 -0.06,-0.05 0.8,0.8 0 0 1 -0.06,-0.06 0.8,0.8 0 0 1 -0.04,-0.06 19.98,19.98 0 0 1 -0.1,-0.15 19.98,19.98 0 0 1 -1,-1.72 A 19.98,19.98 0 0 1 8.5,33.7 19.98,19.98 0 0 1 7.86,31.8 19.98,19.98 0 0 1 7.57,30.54 Z"
     id="path241"
     style="opacity:0.5;fill:url(#N)"
     inkscape:connector-curvature="0" />
  <path
     d="m 32.57,23.96 c 0.79,0.1 1.47,0.3 2.24,0.61 a 12.4,12.4 0 0 1 3.14,1.87 4.01,4.01 0 0 1 -0.32,-1.9 c 0.09,-0.8 0.44,-1.6 1.04,-2.22 l 0.02,-0.02 a 8.79,8.79 0 0 0 2.4,-6.02 V 16.27 A 23.52,23.52 0 0 0 39.83,11.53 C 39.67,11.11 39.5,10.75 39.33,10.37 38.9,9.44 38.43,8.6 37.93,7.87 37.73,7.59 37.54,7.29 37.33,7.03 37.09,6.73 36.81,6.53 36.56,6.26 l 0.03,0.09 a 17.9,17.9 0 0 1 0.83,5.52 18.85,18.85 0 0 1 -0.97,5.93 17.04,17.04 0 0 1 -1.92,3.88 14.48,14.48 0 0 1 -1.76,2.12 c -0.1,0.1 0.1,-0.09 0,0 z"
     id="path243"
     inkscape:connector-curvature="0"
     style="opacity:0.25;fill:#333333;filter:url(#O)" />
  <path
     d="m 11.94,5.65 c -0.32,0.3 -0.65,0.53 -0.95,0.88 -0.62,0.7 -1.2,1.5 -1.72,2.44 -0.53,0.93 -1,2 -1.4,3.2 a 25.3,25.3 0 0 0 -0.97,4.07 8.8,8.8 0 0 0 2.42,6.07 c 0.6,0.63 0.96,1.41 1.05,2.22 0.07,0.6 -0.07,1.33 -0.32,1.92 A 12.2,12.2 0 0 1 15.7,23.89 C 15.51,23.72 15.45,23.7 15.26,23.52 a 13.88,13.88 0 0 1 -2.43,-3.43 16.53,16.53 0 0 1 -1.5,-4.17 18.45,18.45 0 0 1 -0.2,-7.12 18.33,18.33 0 0 1 0.81,-3.15 z"
     id="path245"
     inkscape:connector-curvature="0"
     style="opacity:0.25;fill:#333333;filter:url(#P)" />
  <path
     d="m 40.43,30.54 c 0.08,0.22 0.12,0.5 0.16,0.75 0.03,0.2 0.03,0.38 0,0.57 a 19.98,19.98 0 0 1 -3.01,7.53 0.8,0.8 0 0 1 -0.77,0.34 20.28,20.28 0 0 0 -3.95,-0.07 c -0.47,0.03 -0.84,0.3 -1.08,0.65 l -0.21,-0.8 a 1.48,1.48 0 0 1 1.29,-1.85 20.28,20.28 0 0 1 1.92,-0.06 20.28,20.28 0 0 1 2.03,0.13 0.8,0.8 0 0 0 0.08,0 0.8,0.8 0 0 0 0.08,0 0.8,0.8 0 0 0 0.08,0 0.8,0.8 0 0 0 0.08,-0.02 0.8,0.8 0 0 0 0.08,-0.03 0.8,0.8 0 0 0 0.07,-0.03 0.8,0.8 0 0 0 0.07,-0.04 0.8,0.8 0 0 0 0.06,-0.05 0.8,0.8 0 0 0 0.06,-0.05 0.8,0.8 0 0 0 0.06,-0.06 0.8,0.8 0 0 0 0.05,-0.07 19.98,19.98 0 0 0 0.09,-0.14 19.98,19.98 0 0 0 1,-1.72 19.98,19.98 0 0 0 0.83,-1.82 19.98,19.98 0 0 0 0.64,-1.9 19.98,19.98 0 0 0 0.3,-1.26 z"
     id="path247"
     style="opacity:0.5;fill:url(#Q)"
     inkscape:connector-curvature="0" />
  <ellipse
     ry="10.73"
     rx="14.53"
     cy="14"
     cx="24"
     id="ellipse249"
     style="opacity:0.62000002;fill:url(#R)" />
  <path
     d="m 30.73,27.8 c 0,0 3.96,0 5.71,3.8 0.74,2.65 -0.73,4.7 -1.75,4.55 -1.03,-0.15 -6.6,-1.17 -7.19,-3.66 -0.58,-2.5 -0.73,-5.14 3.23,-4.7 z"
     id="path251"
     style="fill:url(#S)"
     inkscape:connector-curvature="0" />
  <g
     transform="translate(20)"
     id="g273">
    <path
       d="M 4,3.89 A 8.57,8.57 0 1 0 4,21.03 8.57,8.57 0 0 0 4,3.89 Z M 4,5.63 A 6.82,6.82 0 1 1 4.02,19.26 6.82,6.82 0 0 1 4,5.63 Z"
       id="path253"
       style="color:#000000;fill:url(#T);fill-rule:evenodd"
       inkscape:connector-curvature="0" />
    <circle
       r="7.3000002"
       cy="12.46"
       cx="4"
       id="circle255"
       style="color:#000000;fill:#333333;fill-rule:evenodd" />
    <circle
       r="6.1599998"
       cy="12.46"
       cx="4"
       id="circle257"
       style="color:#000000;fill:url(#U);fill-rule:evenodd" />
    <circle
       r="6.1599998"
       cy="12.46"
       cx="4"
       id="circle259"
       style="color:#000000;fill:url(#V);fill-rule:evenodd" />
    <circle
       r="5.52"
       cy="12.46"
       cx="4"
       id="circle261"
       style="color:#000000;fill:url(#W);fill-rule:evenodd" />
    <circle
       r="4.5900002"
       cy="12.46"
       cx="4"
       id="circle263"
       style="color:#000000;fill:url(#X);fill-rule:evenodd" />
    <ellipse
       transform="rotate(135)"
       cx="5.9499998"
       cy="-9.6800003"
       rx="2.52"
       ry="1.71"
       id="ellipse265"
       style="color:#000000;fill:url(#Y);fill-rule:evenodd" />
    <circle
       cx="2.6400001"
       cy="11.16"
       r="0.97000003"
       id="circle267"
       style="fill:#ffffff;fill-opacity:0.75" />
    <circle
       cx="5.27"
       cy="13.8"
       r="0.51999998"
       id="circle269"
       style="fill:#808080;fill-opacity:0.52999998" />
    <circle
       cx="6.0300002"
       cy="14.55"
       r="0.28"
       id="circle271"
       style="fill:#ffffff;fill-opacity:0.25" />
  </g>
</svg>
