<?xml version="1.0" encoding="UTF-8" standalone="no"?>
<svg
   xmlns:dc="http://purl.org/dc/elements/1.1/"
   xmlns:cc="http://creativecommons.org/ns#"
   xmlns:rdf="http://www.w3.org/1999/02/22-rdf-syntax-ns#"
   xmlns:svg="http://www.w3.org/2000/svg"
   xmlns="http://www.w3.org/2000/svg"
   xmlns:xlink="http://www.w3.org/1999/xlink"
   xmlns:sodipodi="http://sodipodi.sourceforge.net/DTD/sodipodi-0.dtd"
   xmlns:inkscape="http://www.inkscape.org/namespaces/inkscape"
   width="48"
   height="48"
   version="1.1"
   id="svg209"
   sodipodi:docname="drive-multidisk.svg"
   inkscape:version="0.92.4 (5da689c313, 2019-01-14)">
  <sodipodi:namedview
     pagecolor="#ffffff"
     bordercolor="#666666"
     borderopacity="1"
     objecttolerance="10"
     gridtolerance="10"
     guidetolerance="10"
     inkscape:pageopacity="0"
     inkscape:pageshadow="2"
     inkscape:window-width="1112"
     inkscape:window-height="480"
     id="namedview211"
     showgrid="false"
     inkscape:zoom="4.9166667"
     inkscape:cx="2.1355932"
     inkscape:cy="24"
     inkscape:window-x="0"
     inkscape:window-y="25"
     inkscape:window-maximized="0"
     inkscape:current-layer="svg209" />
  <metadata
     id="metadata2">
    <rdf:RDF>
      <cc:Work>
        <dc:format>image/svg+xml</dc:format>
        <dc:type
           rdf:resource="http://purl.org/dc/dcmitype/StillImage" />
        <dc:title></dc:title>
      </cc:Work>
    </rdf:RDF>
  </metadata>
  <defs
     id="defs175">
    <linearGradient
       id="y">
      <stop
         offset="0"
         stop-color="#1a1a1a"
         id="stop4" />
      <stop
         offset="1"
         stop-color="#4d4d4d"
         id="stop6" />
    </linearGradient>
    <linearGradient
       id="x">
      <stop
         offset="0"
         stop-opacity=".52"
         id="stop9" />
      <stop
         offset="1"
         stop-opacity="0"
         id="stop11" />
    </linearGradient>
    <linearGradient
       id="w">
      <stop
         offset="0"
         stop-color="#241c22"
         id="stop14" />
      <stop
         offset="1"
         stop-color="#241c22"
         stop-opacity="0"
         id="stop16" />
    </linearGradient>
    <linearGradient
       id="t">
      <stop
         offset="0"
         stop-color="#241c22"
         stop-opacity=".71"
         id="stop19" />
      <stop
         offset=".32"
         stop-color="#241c22"
         stop-opacity=".78"
         id="stop21" />
      <stop
         offset=".52"
         stop-color="#241c22"
         stop-opacity=".86"
         id="stop23" />
      <stop
         offset=".75"
         stop-color="#241c22"
         stop-opacity=".94"
         id="stop25" />
      <stop
         offset="1"
         stop-color="#241c22"
         id="stop27" />
    </linearGradient>
    <linearGradient
       id="h">
      <stop
         offset="0"
         stop-color="#241c22"
         id="stop30" />
      <stop
         offset="1"
         stop-color="#241c22"
         stop-opacity="0"
         id="stop32" />
    </linearGradient>
    <linearGradient
       id="i">
      <stop
         offset="0"
         stop-color="#241c22"
         stop-opacity=".63"
         id="stop35" />
      <stop
         offset=".5"
         stop-color="#241c22"
         stop-opacity=".59"
         id="stop37" />
      <stop
         offset=".74"
         stop-color="#241c22"
         stop-opacity="0"
         id="stop39" />
      <stop
         offset="1"
         stop-color="#241c22"
         stop-opacity=".39"
         id="stop41" />
    </linearGradient>
    <linearGradient
       id="j">
      <stop
         offset="0"
         stop-color="#241c22"
         id="stop44" />
      <stop
         offset="1"
         stop-color="#241c22"
         stop-opacity="0"
         id="stop46" />
    </linearGradient>
    <linearGradient
       id="g">
      <stop
         offset="0"
         stop-color="#241c22"
         id="stop49" />
      <stop
         offset="1"
         stop-color="#241c22"
         stop-opacity="0"
         id="stop51" />
    </linearGradient>
    <linearGradient
       id="a">
      <stop
         stop-color="#241c1c"
         offset="0"
         id="stop54" />
      <stop
         stop-opacity="0"
         stop-color="#1a1a1a"
         offset="1"
         id="stop56" />
    </linearGradient>
    <linearGradient
       id="f">
      <stop
         offset="0"
         stop-color="#241c22"
         stop-opacity=".31"
         id="stop59" />
      <stop
         offset=".14"
         stop-color="#241c22"
         stop-opacity=".71"
         id="stop61" />
      <stop
         offset=".32"
         stop-color="#241c22"
         stop-opacity=".78"
         id="stop63" />
      <stop
         offset=".59"
         stop-color="#241c22"
         stop-opacity=".9"
         id="stop65" />
      <stop
         offset="1"
         stop-color="#241c22"
         id="stop67" />
    </linearGradient>
    <linearGradient
       id="e">
      <stop
         offset="0"
         stop-color="#241c22"
         id="stop70" />
      <stop
         offset=".54"
         stop-color="#241c22"
         id="stop72" />
      <stop
         offset="1"
         stop-color="#fff"
         id="stop74" />
    </linearGradient>
    <linearGradient
       id="d">
      <stop
         offset="0"
         stop-color="#00000a"
         id="stop77" />
      <stop
         offset="1"
         stop-color="#000004"
         stop-opacity="0"
         id="stop79" />
    </linearGradient>
    <linearGradient
       id="c">
      <stop
         offset="0"
         stop-color="#fff"
         stop-opacity=".33"
         id="stop82" />
      <stop
         offset="1"
         stop-color="#fff"
         stop-opacity=".6"
         id="stop84" />
    </linearGradient>
    <linearGradient
       id="b">
      <stop
         offset="0"
         stop-color="#241c22"
         id="stop87" />
      <stop
         offset="1"
         stop-color="#241c22"
         stop-opacity="0"
         id="stop89" />
    </linearGradient>
    <linearGradient
       gradientTransform="matrix(-1,0,0,1,47.99,-0.03)"
       xlink:href="#b"
       id="F"
       x1="17.01"
       y1="39.68"
       x2="17.1"
       y2="45.57"
       gradientUnits="userSpaceOnUse" />
    <radialGradient
       xlink:href="#e"
       id="z"
       cx="24.14"
       cy="26.11"
       fx="24.14"
       fy="26.11"
       r="17.71"
       gradientTransform="matrix(1.46138,-0.00512,0.00345,0.98428,-11.23,0.47)"
       gradientUnits="userSpaceOnUse" />
    <radialGradient
       xlink:href="#f"
       id="D"
       gradientUnits="userSpaceOnUse"
       gradientTransform="matrix(0.36777,0,0,0.5503,18.66,16.54)"
       cx="14.9"
       cy="45.58"
       fx="14.9"
       fy="45.58"
       r="12.64" />
    <linearGradient
       id="k">
      <stop
         offset="0"
         stop-color="#fff"
         id="stop95" />
      <stop
         offset="1"
         stop-color="#fff"
         stop-opacity=".05"
         id="stop97" />
    </linearGradient>
    <linearGradient
       xlink:href="#g"
       id="E"
       x1="16.75"
       y1="39.38"
       x2="16.73"
       y2="45.46"
       gradientUnits="userSpaceOnUse" />
    <radialGradient
       xlink:href="#h"
       id="G"
       cx="9.97"
       cy="39.63"
       fx="9.97"
       fy="39.63"
       r="4.55"
       gradientTransform="matrix(1.01328,-0.28794,0.4997,1.75851,-19.94,-26.88)"
       gradientUnits="userSpaceOnUse" />
    <radialGradient
       xlink:href="#i"
       id="C"
       cx="24.17"
       cy="43.47"
       fx="24.17"
       fy="43.47"
       r="16.61"
       gradientTransform="matrix(1.47548,0,0,1.13984,-11.5,-8.18)"
       gradientUnits="userSpaceOnUse" />
    <radialGradient
       xlink:href="#j"
       id="J"
       cx="9.97"
       cy="39.63"
       fx="9.97"
       fy="39.63"
       r="4.55"
       gradientTransform="matrix(-1.01328,-0.28794,-0.4997,1.75851,67.94,-26.88)"
       gradientUnits="userSpaceOnUse" />
    <radialGradient
       xlink:href="#k"
       id="K"
       cx="24"
       cy="12"
       fx="24"
       fy="12"
       r="9.99"
       gradientTransform="matrix(1.4544,0,0,1.07407,-10.9,1.11)"
       gradientUnits="userSpaceOnUse" />
    <filter
       id="I"
       x="-.11"
       width="1.22"
       y="-.05"
       height="1.1"
       color-interpolation-filters="sRGB">
      <feGaussianBlur
         stdDeviation=".41"
         id="feGaussianBlur105" />
    </filter>
    <filter
       id="H"
       x="-.12"
       width="1.23"
       y="-.05"
       height="1.1"
       color-interpolation-filters="sRGB">
      <feGaussianBlur
         stdDeviation=".41"
         id="feGaussianBlur108" />
    </filter>
    <linearGradient
       id="l">
      <stop
         offset="0"
         stop-color="#ccc"
         id="stop111" />
      <stop
         offset="1"
         stop-color="#fff"
         id="stop113" />
    </linearGradient>
    <linearGradient
       id="m">
      <stop
         offset="0"
         stop-color="#020000"
         id="stop116" />
      <stop
         offset="1"
         stop-color="#020000"
         stop-opacity="0"
         id="stop118" />
    </linearGradient>
    <linearGradient
       id="n">
      <stop
         offset="0"
         stop-color="#1a1a1a"
         id="stop121" />
      <stop
         stop-color="#333"
         offset=".23"
         id="stop123" />
      <stop
         offset=".51"
         stop-color="#666"
         id="stop125" />
      <stop
         stop-color="#333"
         offset=".71"
         id="stop127" />
      <stop
         offset="1"
         stop-color="#1a1a1a"
         id="stop129" />
    </linearGradient>
    <linearGradient
       id="o">
      <stop
         offset="0"
         stop-color="#22241c"
         id="stop132" />
      <stop
         offset="1"
         stop-color="#1a1a1a"
         stop-opacity="0"
         id="stop134" />
    </linearGradient>
    <linearGradient
       id="p">
      <stop
         offset="0"
         stop-color="#000008"
         id="stop137" />
      <stop
         offset="1"
         stop-opacity="0"
         id="stop139" />
    </linearGradient>
    <filter
       id="B"
       x="-.04"
       width="1.09"
       y="-.09"
       height="1.18"
       color-interpolation-filters="sRGB">
      <feGaussianBlur
         stdDeviation=".47"
         id="feGaussianBlur142" />
    </filter>
    <linearGradient
       id="q">
      <stop
         offset="0"
         stop-color="#4d4d4d"
         id="stop145" />
      <stop
         offset="1"
         stop-color="#4d4d4d"
         id="stop147" />
    </linearGradient>
    <linearGradient
       id="r">
      <stop
         offset="0"
         stop-color="#4d4d4d"
         id="stop150" />
      <stop
         offset="1"
         stop-color="#1a1a1a"
         id="stop152" />
    </linearGradient>
    <linearGradient
       id="s">
      <stop
         offset="0"
         stop-color="#1a1a1a"
         id="stop155" />
      <stop
         offset="1"
         stop-color="#1a1a1a"
         stop-opacity="0"
         id="stop157" />
    </linearGradient>
    <radialGradient
       xlink:href="#t"
       id="L"
       gradientUnits="userSpaceOnUse"
       gradientTransform="matrix(0.04676,-0.37688,0.5122,0.06355,5.61,39.05)"
       cx="20.27"
       cy="43.52"
       fx="20.27"
       fy="43.52"
       r="12.64" />
    <linearGradient
       id="u">
      <stop
         offset="0"
         stop-color="#fff"
         id="stop161" />
      <stop
         offset="1"
         stop-opacity="0"
         id="stop163" />
    </linearGradient>
    <linearGradient
       id="v">
      <stop
         offset="0"
         stop-color="#afafaf"
         id="stop166" />
      <stop
         offset="1"
         stop-color="#5a5a5a"
         id="stop168" />
    </linearGradient>
    <radialGradient
       xlink:href="#t"
       id="M"
       gradientUnits="userSpaceOnUse"
       gradientTransform="matrix(-0.04676,-0.37688,-0.5122,0.06355,42.39,39.05)"
       cx="20.27"
       cy="43.52"
       fx="20.27"
       fy="43.52"
       r="12.64" />
    <linearGradient
       xlink:href="#w"
       id="A"
       x1="-.07"
       y1="25.83"
       x2=".08"
       y2="40.53"
       gradientUnits="userSpaceOnUse"
       gradientTransform="translate(20)" />
    <linearGradient
       xlink:href="#x"
       id="N"
       gradientUnits="userSpaceOnUse"
       x1="10.83"
       y1="4.13"
       x2="48.59"
       y2="23.91" />
    <linearGradient
       xlink:href="#y"
       id="O"
       x1="14.51"
       y1="24.21"
       x2="14.45"
       y2="2.57"
       gradientUnits="userSpaceOnUse" />
  </defs>
  <path
     d="M 6.3,15.44 A 24.96,24.96 0 0 0 24,39.33 24.96,24.96 0 0 0 41.7,15.45 H 6.3 Z"
     id="path177"
     style="fill:url(#z)"
     inkscape:connector-curvature="0" />
  <path
     d="M 21.01,0.13 C 16.88,0.25 8.36,2.16 6.3,15.44 A 9.62,9.62 0 0 0 8.96,22.1 4.06,4.06 0 0 1 9.5,27.11 L 9.49,27.13 A 2.85,2.85 0 0 0 9.06,28.88 C 9.13,29.83 9.92,31.45 9.01,31.73 8.4,31.93 8.5,30.15 7.87,30.21 7.48,30.25 7.5,30.84 7.42,31.29 a 1.7,1.7 0 0 0 0,0.57 19.98,19.98 0 0 0 3.01,7.53 0.8,0.8 0 0 0 0.77,0.34 20.28,20.28 0 0 1 3.95,-0.07 c 0.91,0.07 1.53,0.97 1.29,1.85 l -0.61,2.3 c -0.54,2.02 1.33,1.41 2.81,2.89 1.4,1.4 3.38,1.15 5.37,1.15 1.96,0 3.94,0.28 5.37,-1.15 1.47,-1.48 3.35,-0.86 2.81,-2.88 l -0.61,-2.31 a 1.47,1.47 0 0 1 1.29,-1.85 20.25,20.25 0 0 1 3.95,0.07 0.8,0.8 0 0 0 0.77,-0.34 19.98,19.98 0 0 0 3,-7.53 1.69,1.69 0 0 0 0,-0.56 c -0.07,-0.46 -0.05,-1.05 -0.45,-1.09 -0.62,-0.06 -0.52,1.71 -1.13,1.52 -0.91,-0.28 -0.12,-1.9 -0.05,-2.85 a 2.85,2.85 0 0 0 -0.43,-1.75 l -0.01,-0.02 a 4.07,4.07 0 0 1 0.54,-5.02 9.62,9.62 0 0 0 2.66,-6.65 c -2.77,-17.7 -17,-15.2 -17,-15.2 h -1.44 c 0,0 -0.89,-0.14 -2.28,-0.09 z"
     id="path179"
     inkscape:connector-curvature="0"
     style="fill:#ac93a7" />
  <path
     d="m 17.97,26.38 c -0.22,0 -0.45,0.02 -0.7,0.05 0,0 -3.95,0 -5.71,3.8 -0.74,2.65 0.73,4.7 1.76,4.55 1.02,-0.15 6.6,-1.17 7.18,-3.66 0.55,-2.34 0.71,-4.8 -2.53,-4.74 z m 12.06,0 c -3.24,-0.07 -3.08,2.4 -2.53,4.74 0.59,2.49 6.16,3.51 7.19,3.66 1.02,0.15 2.49,-1.9 1.75,-4.54 -1.76,-3.82 -5.71,-3.81 -5.71,-3.81 a 7.7,7.7 0 0 0 -0.7,-0.05 z m -6.3,4.37 c 0,0 -4.62,6.6 -1.98,8.14 h 4.83 C 29.21,37.35 24.6,30.75 24.6,30.75 Z"
     id="path181"
     style="opacity:0.75;fill:url(#A);filter:url(#B)"
     inkscape:connector-curvature="0" />
  <path
     d="M 9.6,26.62 C 9.53,26.78 9.59,26.96 9.49,27.11 L 9.48,27.13 A 2.85,2.85 0 0 0 9.05,28.88 C 9.12,29.83 9.91,31.45 9,31.73 8.39,31.92 8.49,30.15 7.86,30.21 c -0.39,0.04 -0.37,0.63 -0.45,1.08 -0.03,0.2 -0.03,0.38 0,0.57 a 19.98,19.98 0 0 0 3.01,7.53 0.8,0.8 0 0 0 0.77,0.34 20.28,20.28 0 0 1 3.95,-0.07 c 0.91,0.07 1.53,0.97 1.29,1.85 l -0.62,2.3 c -0.53,2.02 1.34,1.41 2.82,2.89 1.4,1.4 3.38,1.15 5.37,1.15 1.96,0 3.94,0.28 5.37,-1.15 1.47,-1.48 3.35,-0.86 2.81,-2.88 l -0.61,-2.31 a 1.47,1.47 0 0 1 1.29,-1.85 20.25,20.25 0 0 1 3.95,0.07 0.8,0.8 0 0 0 0.77,-0.34 19.98,19.98 0 0 0 3,-7.53 1.69,1.69 0 0 0 0,-0.56 c -0.07,-0.46 -0.05,-1.05 -0.45,-1.09 -0.62,-0.06 -0.52,1.71 -1.13,1.52 -0.91,-0.28 -0.12,-1.9 -0.05,-2.85 a 2.85,2.85 0 0 0 -0.43,-1.75 l -0.01,-0.02 c -0.07,-0.1 -0.03,-0.23 -0.08,-0.34 l -0.17,-0.14 a 13.62,13.62 0 0 0 -3.45,-2.06 10.16,10.16 0 0 0 -3.72,-0.78 8.08,8.08 0 0 0 -5.36,1.94 c -0.55,0.45 -1.07,1 -1.56,1.63 -0.5,-0.64 -1.02,-1.18 -1.58,-1.63 A 8.52,8.52 0 0 0 17.08,23.8 c -1.3,0 -2.6,0.28 -3.84,0.77 -1.24,0.49 -2.43,1.2 -3.5,2.06 z"
     id="path183"
     style="opacity:0.4;fill:url(#C)"
     inkscape:connector-curvature="0" />
  <path
     d="m 24.6,32.12 c 0,0 4.61,6.6 1.97,8.14 h -4.83 c -2.63,-1.54 1.98,-8.14 1.98,-8.14 z"
     id="path185"
     style="fill:url(#D)"
     inkscape:connector-curvature="0" />
  <path
     d="m 15.48,39.68 c 0.3,0.1 0.55,0.38 0.72,0.63 0.24,0.34 0.34,0.78 0.22,1.22 l -0.62,2.31 c -0.13,0.5 -0.12,0.84 0,1.1 0.13,0.24 0.36,0.4 0.65,0.54 0.58,0.28 1.4,0.51 2.12,1.22 h 0.06 c -0.35,-3.62 0.44,-6.6 -3.15,-7.02 z"
     id="path187"
     style="fill:url(#E)"
     inkscape:connector-curvature="0" />
  <path
     d="m 32.5,39.66 c -0.3,0.1 -0.54,0.37 -0.72,0.62 a 1.48,1.48 0 0 0 -0.21,1.23 l 0.61,2.3 c 0.14,0.5 0.12,0.85 0,1.1 -0.13,0.25 -0.36,0.4 -0.65,0.55 -0.57,0.27 -1.39,0.5 -2.12,1.21 h -0.05 c 0.35,-3.62 -0.44,-6.6 3.15,-7.01 z"
     id="path189"
     style="fill:url(#F)"
     inkscape:connector-curvature="0" />
  <path
     d="m 7.57,30.54 c -0.08,0.22 -0.11,0.5 -0.16,0.75 a 1.7,1.7 0 0 0 0,0.57 19.98,19.98 0 0 0 3.02,7.53 0.8,0.8 0 0 0 0.77,0.34 20.28,20.28 0 0 1 3.94,-0.07 c 0.47,0.04 0.84,0.3 1.08,0.65 l 0.21,-0.8 a 1.48,1.48 0 0 0 -1.29,-1.85 20.28,20.28 0 0 0 -1.92,-0.06 20.28,20.28 0 0 0 -2.02,0.13 0.8,0.8 0 0 1 -0.09,0 0.8,0.8 0 0 1 -0.08,0 0.8,0.8 0 0 1 -0.08,0 0.8,0.8 0 0 1 -0.08,-0.02 0.8,0.8 0 0 1 -0.07,-0.03 0.8,0.8 0 0 1 -0.08,-0.03 0.8,0.8 0 0 1 -0.07,-0.04 0.8,0.8 0 0 1 -0.06,-0.05 0.8,0.8 0 0 1 -0.06,-0.05 0.8,0.8 0 0 1 -0.06,-0.06 0.8,0.8 0 0 1 -0.04,-0.06 19.98,19.98 0 0 1 -0.1,-0.15 19.98,19.98 0 0 1 -1,-1.72 A 19.98,19.98 0 0 1 8.5,33.7 19.98,19.98 0 0 1 7.86,31.8 19.98,19.98 0 0 1 7.57,30.54 Z"
     id="path191"
     style="opacity:0.5;fill:url(#G)"
     inkscape:connector-curvature="0" />
  <path
     d="m 32.57,23.96 c 0.79,0.1 1.47,0.3 2.24,0.61 a 12.4,12.4 0 0 1 3.14,1.87 4.01,4.01 0 0 1 -0.32,-1.9 c 0.09,-0.8 0.44,-1.6 1.04,-2.22 l 0.02,-0.02 a 8.79,8.79 0 0 0 2.4,-6.02 V 16.27 A 23.52,23.52 0 0 0 39.83,11.53 C 39.67,11.11 39.5,10.75 39.33,10.37 38.9,9.44 38.43,8.6 37.93,7.87 37.73,7.59 37.54,7.29 37.33,7.03 37.09,6.73 36.81,6.53 36.56,6.26 l 0.03,0.09 a 17.9,17.9 0 0 1 0.83,5.52 18.85,18.85 0 0 1 -0.97,5.93 17.04,17.04 0 0 1 -1.92,3.88 14.48,14.48 0 0 1 -1.76,2.12 c -0.1,0.1 0.1,-0.09 0,0 z"
     id="path193"
     inkscape:connector-curvature="0"
     style="opacity:0.25;fill:#483745;filter:url(#H)" />
  <path
     d="m 11.94,5.65 c -0.32,0.3 -0.65,0.53 -0.95,0.88 -0.62,0.7 -1.2,1.5 -1.72,2.44 -0.53,0.93 -1,2 -1.4,3.2 a 25.3,25.3 0 0 0 -0.97,4.07 8.8,8.8 0 0 0 2.42,6.07 c 0.6,0.63 0.96,1.41 1.05,2.22 0.07,0.6 -0.07,1.33 -0.32,1.92 A 12.2,12.2 0 0 1 15.7,23.89 C 15.51,23.72 15.45,23.7 15.26,23.52 a 13.88,13.88 0 0 1 -2.43,-3.43 16.53,16.53 0 0 1 -1.5,-4.17 18.45,18.45 0 0 1 -0.2,-7.12 18.33,18.33 0 0 1 0.81,-3.15 z"
     id="path195"
     inkscape:connector-curvature="0"
     style="opacity:0.25;fill:#483745;filter:url(#I)" />
  <path
     d="m 40.43,30.54 c 0.08,0.22 0.12,0.5 0.16,0.75 0.03,0.2 0.03,0.38 0,0.57 a 19.98,19.98 0 0 1 -3.01,7.53 0.8,0.8 0 0 1 -0.77,0.34 20.28,20.28 0 0 0 -3.95,-0.07 c -0.47,0.03 -0.84,0.3 -1.08,0.65 l -0.21,-0.8 a 1.48,1.48 0 0 1 1.29,-1.85 20.28,20.28 0 0 1 1.92,-0.06 20.28,20.28 0 0 1 2.03,0.13 0.8,0.8 0 0 0 0.08,0 0.8,0.8 0 0 0 0.08,0 0.8,0.8 0 0 0 0.08,0 0.8,0.8 0 0 0 0.08,-0.02 0.8,0.8 0 0 0 0.08,-0.03 0.8,0.8 0 0 0 0.07,-0.03 0.8,0.8 0 0 0 0.07,-0.04 0.8,0.8 0 0 0 0.06,-0.05 0.8,0.8 0 0 0 0.06,-0.05 0.8,0.8 0 0 0 0.06,-0.06 0.8,0.8 0 0 0 0.05,-0.07 19.98,19.98 0 0 0 0.09,-0.14 19.98,19.98 0 0 0 1,-1.72 19.98,19.98 0 0 0 0.83,-1.82 19.98,19.98 0 0 0 0.64,-1.9 19.98,19.98 0 0 0 0.3,-1.26 z"
     id="path197"
     style="opacity:0.5;fill:url(#J)"
     inkscape:connector-curvature="0" />
  <ellipse
     ry="10.73"
     rx="14.53"
     cy="14"
     cx="24"
     id="ellipse199"
     style="opacity:0.62000002;fill:url(#K)" />
  <path
     d="m 30.73,27.8 c 0,0 3.96,0 5.71,3.8 0.74,2.65 -0.73,4.7 -1.75,4.55 -1.03,-0.15 -6.6,-1.17 -7.19,-3.66 -0.58,-2.5 -0.73,-5.14 3.23,-4.7 z"
     id="path201"
     style="fill:url(#L)"
     inkscape:connector-curvature="0" />
  <path
     d="m 17.27,27.8 c 0,0 -3.96,0 -5.71,3.8 -0.74,2.65 0.73,4.7 1.75,4.55 1.03,-0.15 6.6,-1.17 7.19,-3.66 0.58,-2.5 0.73,-5.14 -3.23,-4.7 z"
     id="path203"
     style="fill:url(#M)"
     inkscape:connector-curvature="0" />
  <path
     d="m 34.29,39.64 a 20.25,20.25 0 0 1 0.6,-0.02 20.25,20.25 0 0 1 1.93,0.13 0.8,0.8 0 0 0 0.08,0.01 0.8,0.8 0 0 0 0.08,0 0.8,0.8 0 0 0 0.08,-0.01 0.8,0.8 0 0 0 0.08,-0.02 0.8,0.8 0 0 0 0.07,-0.02 0.8,0.8 0 0 0 0.08,-0.04 0.8,0.8 0 0 0 0.07,-0.04 0.8,0.8 0 0 0 0.06,-0.04 0.8,0.8 0 0 0 0.06,-0.05 0.8,0.8 0 0 0 0.06,-0.07 0.8,0.8 0 0 0 0.05,-0.06 19.98,19.98 0 0 0 1.02,-1.72 19.98,19.98 0 0 0 0.84,-1.81 19.98,19.98 0 0 0 0.65,-1.89 19.98,19.98 0 0 0 0.47,-1.94 19.98,19.98 0 0 0 0.03,-0.17 1.69,1.69 0 0 0 0.02,-0.17 1.69,1.69 0 0 0 0,-0.17 1.69,1.69 0 0 0 -0.01,-0.16 1.69,1.69 0 0 0 -0.01,-0.06 c -0.04,-0.23 -0.05,-0.5 -0.1,-0.7 -0.06,-0.21 -0.16,-0.37 -0.35,-0.39 -0.32,-0.03 -0.45,0.4 -0.58,0.81 -0.13,0.41 -0.25,0.8 -0.56,0.71 a 0.56,0.56 0 0 1 -0.4,-0.43 c -0.05,-0.2 -0.04,-0.46 0,-0.74 0.1,-0.56 0.32,-1.2 0.35,-1.68 a 2.85,2.85 0 0 0 0,-0.28 2.85,2.85 0 0 0 -0.01,-0.28 2.85,2.85 0 0 0 -0.05,-0.29 2.85,2.85 0 0 0 -0.07,-0.27 2.85,2.85 0 0 0 -0.1,-0.27 2.85,2.85 0 0 0 -0.13,-0.25 2.85,2.85 0 0 0 -0.07,-0.1 l -0.01,-0.03 c -0.51,-0.8 -0.7,-1.7 -0.6,-2.59 0.1,-0.88 0.5,-1.74 1.14,-2.42 a 9.62,9.62 0 0 0 0.63,-0.73 9.62,9.62 0 0 0 0.55,-0.79 9.62,9.62 0 0 0 0.47,-0.84 9.62,9.62 0 0 0 0.39,-0.88 9.62,9.62 0 0 0 0.3,-0.92 9.62,9.62 0 0 0 0.2,-0.94 9.62,9.62 0 0 0 0.07,-0.66 L 29.04,3.72 26.59,4.36 21.41,3.99 l -5.8,1.73 -0.42,12.57 3.27,3.27 -0.4,1.85 z"
     id="path205"
     style="opacity:0.61000001;fill:url(#N)"
     inkscape:connector-curvature="0" />
  <path
     d="m 17.27,2.67 a 3.17,3.06 0 0 0 -3.14,3.04 v 10.48 a 3.12,3.12 0 0 0 3.14,3.03 h 9.46 a 3.17,3.06 0 0 0 3.14,-3.03 V 5.7 A 3.12,3.12 0 0 0 26.73,2.66 Z m 4.98,2.64 a 5.4,5.4 0 0 1 5.38,5.37 5.4,5.4 0 0 1 -5.38,5.38 h -5.39 l 0.01,-5.38 A 5.38,5.38 0 0 1 22.25,5.31 Z M 30.8,7.55 V 21.2 c 0,0.18 -0.1,0.26 -0.29,0.26 H 20.33 c -0.19,0 -0.29,-0.08 -0.29,-0.26 v -1.13 h -3.07 v 1.13 c 0,1.67 1.51,3.04 3.36,3.04 H 30.51 A 3.38,3.06 0 0 0 33.87,21.2 V 10.6 c 0,-1.59 -1.36,-2.92 -3.07,-3.05 z m -8.55,0.83 a 2.28,2.28 0 0 0 -2.3,2.3 c 0,1.3 1,2.31 2.3,2.31 a 2.28,2.28 0 0 0 2.3,-2.3 2.28,2.28 0 0 0 -2.3,-2.3 z"
     id="path207"
     style="fill:url(#O)"
     inkscape:connector-curvature="0" />
</svg>
