<?xml version="1.0" encoding="UTF-8" standalone="no"?>
<svg
   xmlns:dc="http://purl.org/dc/elements/1.1/"
   xmlns:cc="http://creativecommons.org/ns#"
   xmlns:rdf="http://www.w3.org/1999/02/22-rdf-syntax-ns#"
   xmlns:svg="http://www.w3.org/2000/svg"
   xmlns="http://www.w3.org/2000/svg"
   xmlns:xlink="http://www.w3.org/1999/xlink"
   xmlns:sodipodi="http://sodipodi.sourceforge.net/DTD/sodipodi-0.dtd"
   xmlns:inkscape="http://www.inkscape.org/namespaces/inkscape"
   width="48"
   height="48"
   version="1.1"
   id="svg270"
   sodipodi:docname="media-floppy.svg"
   inkscape:version="0.92.4 (5da689c313, 2019-01-14)">
  <sodipodi:namedview
     pagecolor="#ffffff"
     bordercolor="#666666"
     borderopacity="1"
     objecttolerance="10"
     gridtolerance="10"
     guidetolerance="10"
     inkscape:pageopacity="0"
     inkscape:pageshadow="2"
     inkscape:window-width="1112"
     inkscape:window-height="480"
     id="namedview272"
     showgrid="false"
     inkscape:zoom="4.9166667"
     inkscape:cx="2.1355932"
     inkscape:cy="24"
     inkscape:window-x="0"
     inkscape:window-y="25"
     inkscape:window-maximized="0"
     inkscape:current-layer="svg270" />
  <metadata
     id="metadata2">
    <rdf:RDF>
      <cc:Work>
        <dc:format>image/svg+xml</dc:format>
        <dc:type
           rdf:resource="http://purl.org/dc/dcmitype/StillImage" />
        <dc:title></dc:title>
      </cc:Work>
    </rdf:RDF>
  </metadata>
  <defs
     id="defs218">
    <linearGradient
       id="v">
      <stop
         offset="0"
         stop-color="#1c2422"
         id="stop4" />
      <stop
         offset="1"
         stop-color="#1c2422"
         stop-opacity="0"
         id="stop6" />
    </linearGradient>
    <linearGradient
       id="i">
      <stop
         offset="0"
         stop-color="#1c2422"
         id="stop9" />
      <stop
         offset="1"
         stop-color="#1c2422"
         stop-opacity="0"
         id="stop11" />
    </linearGradient>
    <linearGradient
       id="j">
      <stop
         offset="0"
         stop-color="#1c2422"
         stop-opacity=".63"
         id="stop14" />
      <stop
         offset=".5"
         stop-color="#1c2422"
         stop-opacity=".59"
         id="stop16" />
      <stop
         offset=".74"
         stop-color="#1c2422"
         stop-opacity="0"
         id="stop18" />
      <stop
         offset="1"
         stop-color="#1c2422"
         stop-opacity=".39"
         id="stop20" />
    </linearGradient>
    <linearGradient
       id="k">
      <stop
         offset="0"
         stop-color="#1c2422"
         id="stop23" />
      <stop
         offset="1"
         stop-color="#1c2422"
         stop-opacity="0"
         id="stop25" />
    </linearGradient>
    <linearGradient
       id="h">
      <stop
         offset="0"
         stop-color="#1c2422"
         id="stop28" />
      <stop
         offset="1"
         stop-color="#1c2422"
         stop-opacity="0"
         id="stop30" />
    </linearGradient>
    <linearGradient
       id="a">
      <stop
         stop-color="#241c1c"
         offset="0"
         id="stop33" />
      <stop
         stop-opacity="0"
         stop-color="#1a1a1a"
         offset="1"
         id="stop35" />
    </linearGradient>
    <linearGradient
       id="g">
      <stop
         offset="0"
         stop-color="#1c2422"
         stop-opacity=".71"
         id="stop38" />
      <stop
         offset=".32"
         stop-color="#1c2422"
         stop-opacity=".78"
         id="stop40" />
      <stop
         offset=".52"
         stop-color="#1c2422"
         stop-opacity=".86"
         id="stop42" />
      <stop
         offset=".75"
         stop-color="#1c2422"
         stop-opacity=".94"
         id="stop44" />
      <stop
         offset="1"
         stop-color="#1c2422"
         id="stop46" />
    </linearGradient>
    <linearGradient
       id="f">
      <stop
         offset="0"
         stop-color="#1c2422"
         stop-opacity=".33"
         id="stop49" />
      <stop
         offset=".14"
         stop-color="#1c2422"
         stop-opacity=".71"
         id="stop51" />
      <stop
         offset=".32"
         stop-color="#1c2422"
         stop-opacity=".78"
         id="stop53" />
      <stop
         offset=".59"
         stop-color="#1c2422"
         stop-opacity=".9"
         id="stop55" />
      <stop
         offset="1"
         stop-color="#1c2422"
         id="stop57" />
    </linearGradient>
    <linearGradient
       id="e">
      <stop
         offset="0"
         stop-color="#1c2422"
         id="stop60" />
      <stop
         offset=".54"
         stop-color="#1c2422"
         id="stop62" />
      <stop
         offset="1"
         stop-color="#fff"
         id="stop64" />
    </linearGradient>
    <linearGradient
       id="d">
      <stop
         offset="0"
         stop-color="#00000a"
         id="stop67" />
      <stop
         offset="1"
         stop-color="#000004"
         stop-opacity="0"
         id="stop69" />
    </linearGradient>
    <linearGradient
       id="c">
      <stop
         offset="0"
         stop-color="#fff"
         stop-opacity=".33"
         id="stop72" />
      <stop
         offset="1"
         stop-color="#fff"
         stop-opacity=".6"
         id="stop74" />
    </linearGradient>
    <linearGradient
       id="b">
      <stop
         offset="0"
         stop-color="#1c2422"
         id="stop77" />
      <stop
         offset="1"
         stop-color="#1c2422"
         stop-opacity="0"
         id="stop79" />
    </linearGradient>
    <linearGradient
       gradientTransform="matrix(-1,0,0,1,47.99,-0.03)"
       xlink:href="#b"
       id="H"
       x1="17.01"
       y1="39.68"
       x2="17.1"
       y2="45.57"
       gradientUnits="userSpaceOnUse" />
    <radialGradient
       xlink:href="#e"
       id="C"
       cx="24.14"
       cy="26.11"
       fx="24.14"
       fy="26.11"
       r="17.71"
       gradientTransform="matrix(1.46138,-0.00512,0.00345,0.98428,-11.23,0.47)"
       gradientUnits="userSpaceOnUse" />
    <radialGradient
       xlink:href="#f"
       id="F"
       gradientUnits="userSpaceOnUse"
       gradientTransform="matrix(0.36777,0,0,0.5503,18.66,16.54)"
       cx="14.9"
       cy="45.58"
       fx="14.9"
       fy="45.58"
       r="12.64" />
    <radialGradient
       xlink:href="#g"
       id="I"
       gradientUnits="userSpaceOnUse"
       gradientTransform="matrix(-0.04676,-0.37688,-0.5122,0.06355,42.39,39.05)"
       cx="20.27"
       cy="43.52"
       fx="20.27"
       fy="43.52"
       r="12.64" />
    <linearGradient
       id="l">
      <stop
         offset="0"
         stop-color="#fff"
         id="stop86" />
      <stop
         offset="1"
         stop-color="#fff"
         stop-opacity=".05"
         id="stop88" />
    </linearGradient>
    <linearGradient
       xlink:href="#h"
       id="G"
       x1="16.75"
       y1="39.38"
       x2="16.73"
       y2="45.46"
       gradientUnits="userSpaceOnUse" />
    <radialGradient
       xlink:href="#i"
       id="J"
       cx="9.97"
       cy="39.63"
       fx="9.97"
       fy="39.63"
       r="4.55"
       gradientTransform="matrix(1.01328,-0.28794,0.4997,1.75851,-19.94,-26.88)"
       gradientUnits="userSpaceOnUse" />
    <radialGradient
       xlink:href="#j"
       id="O"
       cx="24.17"
       cy="43.47"
       fx="24.17"
       fy="43.47"
       r="16.61"
       gradientTransform="matrix(1.47548,0,0,1.13984,-11.5,-8.18)"
       gradientUnits="userSpaceOnUse" />
    <radialGradient
       xlink:href="#k"
       id="M"
       cx="9.97"
       cy="39.63"
       fx="9.97"
       fy="39.63"
       r="4.55"
       gradientTransform="matrix(-1.01328,-0.28794,-0.4997,1.75851,67.94,-26.88)"
       gradientUnits="userSpaceOnUse" />
    <radialGradient
       xlink:href="#l"
       id="B"
       cx="24"
       cy="12"
       fx="24"
       fy="12"
       r="9.99"
       gradientTransform="matrix(1.4544,0,0,1.07407,29.1,1.11)"
       gradientUnits="userSpaceOnUse" />
    <filter
       id="L"
       x="-.11"
       width="1.22"
       y="-.05"
       height="1.1"
       color-interpolation-filters="sRGB">
      <feGaussianBlur
         stdDeviation=".41"
         id="feGaussianBlur96" />
    </filter>
    <filter
       id="K"
       x="-.12"
       width="1.23"
       y="-.05"
       height="1.1"
       color-interpolation-filters="sRGB">
      <feGaussianBlur
         stdDeviation=".41"
         id="feGaussianBlur99" />
    </filter>
    <linearGradient
       id="m">
      <stop
         offset="0"
         stop-color="#ccc"
         id="stop102" />
      <stop
         offset="1"
         stop-color="#fff"
         id="stop104" />
    </linearGradient>
    <linearGradient
       id="n">
      <stop
         offset="0"
         stop-color="#020000"
         id="stop107" />
      <stop
         offset="1"
         stop-color="#020000"
         stop-opacity="0"
         id="stop109" />
    </linearGradient>
    <linearGradient
       id="o">
      <stop
         offset="0"
         stop-color="#1a1a1a"
         id="stop112" />
      <stop
         stop-color="#333"
         offset=".23"
         id="stop114" />
      <stop
         offset=".51"
         stop-color="#666"
         id="stop116" />
      <stop
         stop-color="#333"
         offset=".71"
         id="stop118" />
      <stop
         offset="1"
         stop-color="#1a1a1a"
         id="stop120" />
    </linearGradient>
    <linearGradient
       id="p">
      <stop
         offset="0"
         stop-color="#22241c"
         id="stop123" />
      <stop
         offset="1"
         stop-color="#1a1a1a"
         stop-opacity="0"
         id="stop125" />
    </linearGradient>
    <linearGradient
       id="q">
      <stop
         offset="0"
         stop-color="#000008"
         id="stop128" />
      <stop
         offset="1"
         stop-opacity="0"
         id="stop130" />
    </linearGradient>
    <filter
       id="E"
       x="-.04"
       width="1.09"
       y="-.09"
       height="1.18"
       color-interpolation-filters="sRGB">
      <feGaussianBlur
         stdDeviation=".47"
         id="feGaussianBlur133" />
    </filter>
    <linearGradient
       id="r">
      <stop
         offset="0"
         stop-color="#1a1a1a"
         id="stop136" />
      <stop
         offset="1"
         stop-color="#4d4d4d"
         id="stop138" />
    </linearGradient>
    <linearGradient
       id="s">
      <stop
         offset="0"
         stop-color="#000008"
         id="stop141" />
      <stop
         offset="1"
         stop-color="#0b0000"
         stop-opacity="0"
         id="stop143" />
    </linearGradient>
    <linearGradient
       id="t">
      <stop
         offset="0"
         id="stop146" />
      <stop
         offset="1"
         stop-color="#010000"
         stop-opacity="0"
         id="stop148" />
    </linearGradient>
    <radialGradient
       xlink:href="#g"
       id="N"
       gradientUnits="userSpaceOnUse"
       gradientTransform="matrix(0.04676,-0.37688,0.5122,0.06355,5.61,39.05)"
       cx="20.27"
       cy="43.52"
       fx="20.27"
       fy="43.52"
       r="12.64" />
    <linearGradient
       id="u">
      <stop
         offset="0"
         stop-color="#3e4837"
         id="stop152" />
      <stop
         offset="1"
         stop-color="#447821"
         id="stop154" />
    </linearGradient>
    <linearGradient
       xlink:href="#v"
       id="D"
       x1="10.05"
       y1="26.45"
       x2="10.43"
       y2="39.39"
       gradientUnits="userSpaceOnUse" />
    <linearGradient
       id="Q"
       x1="3.63"
       x2="41.97"
       y1="2.58"
       y2="40.93"
       gradientTransform="matrix(-0.50673,0,0,-0.50673,35.32,25.58)"
       gradientUnits="userSpaceOnUse">
      <stop
         offset="0"
         stop-color="#040404"
         id="stop158" />
      <stop
         offset="1"
         stop-color="#606060"
         id="stop160" />
    </linearGradient>
    <linearGradient
       id="S"
       x1="10"
       x2="31"
       y1="28"
       y2="42"
       gradientTransform="matrix(-0.52125,0,0,-0.4999,36.07,25.29)"
       gradientUnits="userSpaceOnUse">
      <stop
         offset="0"
         stop-color="#d4d4dc"
         id="stop163" />
      <stop
         offset="1"
         stop-color="#848489"
         id="stop165" />
    </linearGradient>
    <linearGradient
       id="T"
       x1="21.88"
       x2="21.88"
       y1="7.61"
       y2="18.51"
       gradientTransform="matrix(0.51232,0,0,0.51958,12.4,-25.61)"
       gradientUnits="userSpaceOnUse">
      <stop
         offset="0"
         stop-color="#eeeeec"
         id="stop168" />
      <stop
         offset="1"
         stop-color="#fff"
         id="stop170" />
    </linearGradient>
    <linearGradient
       xlink:href="#w"
       id="P"
       gradientUnits="userSpaceOnUse"
       x1="4.82"
       y1="6.93"
       x2="54.53"
       y2="41.91"
       gradientTransform="translate(-0.08,0.17)" />
    <linearGradient
       id="w">
      <stop
         offset="0"
         stop-color="#000006"
         id="stop174" />
      <stop
         offset="1"
         stop-color="#040000"
         stop-opacity="0"
         id="stop176" />
    </linearGradient>
    <clipPath
       id="U">
      <rect
         width="8"
         height="12"
         x="12"
         y="12"
         rx="1.08"
         ry="1.08"
         opacity=".18"
         stroke-width=".1"
         stroke-linecap="round"
         stroke-linejoin="round"
         stroke-dashoffset="4.15"
         id="rect179" />
    </clipPath>
    <filter
       id="V"
       x="-.15"
       width="1.29"
       y="-.1"
       height="1.2">
      <feGaussianBlur
         stdDeviation=".55"
         id="feGaussianBlur182" />
    </filter>
    <radialGradient
       xlink:href="#x"
       id="X"
       gradientUnits="userSpaceOnUse"
       gradientTransform="matrix(1,0,0,1.5,0,-9)"
       cx="16"
       cy="18"
       fx="16"
       fy="18"
       r="4" />
    <linearGradient
       id="x">
      <stop
         offset="0"
         stop-color="#7a7a7a"
         id="stop186" />
      <stop
         offset="1"
         stop-opacity=".49"
         id="stop188" />
    </linearGradient>
    <linearGradient
       xlink:href="#y"
       id="Y"
       gradientUnits="userSpaceOnUse"
       x1="16"
       y1="1.6"
       x2="16"
       y2="18.76" />
    <linearGradient
       id="y">
      <stop
         offset="0"
         id="stop192" />
      <stop
         offset="1"
         stop-opacity="0"
         id="stop194" />
    </linearGradient>
    <clipPath
       id="W">
      <rect
         width="8"
         height="12"
         x="12"
         y="12"
         rx="1.08"
         ry="1.08"
         opacity=".18"
         stroke-width=".1"
         stroke-linecap="round"
         stroke-linejoin="round"
         stroke-dashoffset="4.15"
         id="rect197" />
    </clipPath>
    <radialGradient
       xlink:href="#z"
       id="Z"
       gradientUnits="userSpaceOnUse"
       gradientTransform="matrix(1.10629,0,0,1.10629,0.55,-2.3)"
       cx="14"
       cy="19.7"
       fx="14"
       fy="18.84"
       r="2.15" />
    <linearGradient
       id="z">
      <stop
         offset="0"
         stop-color="#868385"
         id="stop201" />
      <stop
         offset="1"
         stop-color="#4a4949"
         id="stop203" />
    </linearGradient>
    <linearGradient
       xlink:href="#A"
       id="aa"
       gradientUnits="userSpaceOnUse"
       gradientTransform="matrix(1.10629,0,0,1.10629,0.55,-2.3)"
       x1="11.92"
       y1="17.56"
       x2="11.92"
       y2="20.04" />
    <linearGradient
       id="A">
      <stop
         offset="0"
         stop-color="#fff"
         id="stop207" />
      <stop
         offset="1"
         id="stop209" />
    </linearGradient>
    <filter
       id="ab">
      <feGaussianBlur
         stdDeviation=".04"
         id="feGaussianBlur212" />
    </filter>
    <filter
       id="R"
       x="-.03"
       width="1.06"
       y="-.05"
       height="1.09"
       color-interpolation-filters="sRGB">
      <feGaussianBlur
         stdDeviation=".13"
         id="feGaussianBlur215" />
    </filter>
  </defs>
  <ellipse
     cx="64"
     cy="14"
     rx="14.53"
     ry="10.73"
     id="ellipse220"
     style="opacity:0.62000002;fill:url(#B)" />
  <path
     d="M 6.3,15.44 A 24.96,24.96 0 0 0 24,39.33 24.96,24.96 0 0 0 41.7,15.45 H 6.3 Z"
     id="path222"
     style="fill:url(#C)"
     inkscape:connector-curvature="0" />
  <path
     d="M 21.01,0.13 C 16.88,0.25 8.36,2.16 6.3,15.44 a 9.62,9.62 0 0 0 2.66,6.66 4.06,4.06 0 0 1 0.54,5.01 l -0.01,0.02 a 2.85,2.85 0 0 0 -0.43,1.75 c 0.07,0.95 0.86,2.57 -0.05,2.85 -0.61,0.2 -0.5,-1.58 -1.13,-1.52 -0.4,0.04 -0.38,0.63 -0.46,1.08 a 1.7,1.7 0 0 0 0,0.57 19.98,19.98 0 0 0 3.02,7.53 0.8,0.8 0 0 0 0.77,0.34 20.28,20.28 0 0 1 3.94,-0.07 c 0.91,0.07 1.53,0.97 1.3,1.85 l -0.62,2.3 c -0.54,2.02 1.34,1.41 2.81,2.89 1.4,1.4 3.38,1.15 5.37,1.15 1.96,0 3.94,0.28 5.37,-1.15 1.48,-1.48 3.35,-0.86 2.82,-2.88 l -0.62,-2.31 a 1.47,1.47 0 0 1 1.3,-1.85 20.25,20.25 0 0 1 3.94,0.07 0.8,0.8 0 0 0 0.77,-0.34 19.98,19.98 0 0 0 3,-7.53 1.69,1.69 0 0 0 0,-0.56 c -0.07,-0.46 -0.05,-1.05 -0.44,-1.09 -0.63,-0.06 -0.53,1.71 -1.14,1.52 -0.91,-0.28 -0.12,-1.9 -0.05,-2.85 a 2.85,2.85 0 0 0 -0.43,-1.75 l -0.01,-0.02 a 4.07,4.07 0 0 1 0.54,-5.02 9.62,9.62 0 0 0 2.66,-6.65 c -2.77,-17.7 -17,-15.2 -17,-15.2 h -1.44 c 0,0 -0.89,-0.15 -2.27,-0.1 z"
     id="path224"
     inkscape:connector-curvature="0"
     style="fill:#b7c8c4" />
  <path
     d="m 17.97,26.38 c -0.22,0 -0.45,0.02 -0.7,0.05 0,0 -3.95,0 -5.71,3.8 -0.74,2.65 0.73,4.7 1.76,4.55 1.02,-0.15 6.6,-1.17 7.18,-3.66 0.55,-2.34 0.71,-4.8 -2.53,-4.74 z m 12.06,0 c -3.24,-0.07 -3.08,2.4 -2.53,4.74 0.59,2.49 6.16,3.51 7.19,3.66 1.02,0.15 2.49,-1.9 1.75,-4.54 -1.76,-3.82 -5.71,-3.81 -5.71,-3.81 a 7.7,7.7 0 0 0 -0.7,-0.05 z m -6.3,4.37 c 0,0 -4.62,6.6 -1.98,8.14 h 4.83 C 29.21,37.35 24.6,30.75 24.6,30.75 Z"
     id="path226"
     style="opacity:0.75;fill:url(#D);filter:url(#E)"
     inkscape:connector-curvature="0" />
  <path
     d="m 24.6,32.12 c 0,0 4.61,6.6 1.97,8.14 h -4.83 c -2.63,-1.54 1.98,-8.14 1.98,-8.14 z"
     id="path228"
     style="fill:url(#F)"
     inkscape:connector-curvature="0" />
  <path
     d="m 15.48,39.68 c 0.3,0.1 0.55,0.38 0.72,0.63 0.24,0.34 0.34,0.78 0.22,1.22 l -0.62,2.31 c -0.13,0.5 -0.12,0.84 0,1.1 0.13,0.24 0.36,0.4 0.65,0.54 0.58,0.28 1.4,0.51 2.12,1.22 h 0.06 c -0.35,-3.62 0.44,-6.6 -3.15,-7.02 z"
     id="path230"
     style="opacity:0.97000002;fill:url(#G)"
     inkscape:connector-curvature="0" />
  <path
     d="m 32.5,39.66 c -0.3,0.1 -0.54,0.37 -0.72,0.62 a 1.48,1.48 0 0 0 -0.21,1.23 l 0.61,2.3 c 0.14,0.5 0.12,0.85 0,1.1 -0.13,0.25 -0.36,0.4 -0.65,0.55 -0.57,0.27 -1.39,0.5 -2.12,1.21 h -0.05 c 0.35,-3.62 -0.44,-6.6 3.15,-7.01 z"
     id="path232"
     style="fill:url(#H)"
     inkscape:connector-curvature="0" />
  <path
     d="m 17.27,27.8 c 0,0 -3.96,0 -5.71,3.8 -0.74,2.65 0.73,4.7 1.75,4.55 1.03,-0.15 6.6,-1.17 7.19,-3.66 0.58,-2.5 0.73,-5.14 -3.23,-4.7 z"
     id="path234"
     style="fill:url(#I)"
     inkscape:connector-curvature="0" />
  <path
     d="m 7.57,30.54 c -0.08,0.22 -0.11,0.5 -0.16,0.75 a 1.7,1.7 0 0 0 0,0.57 19.98,19.98 0 0 0 3.02,7.53 0.8,0.8 0 0 0 0.77,0.34 20.28,20.28 0 0 1 3.94,-0.07 c 0.47,0.04 0.84,0.3 1.08,0.65 l 0.21,-0.8 a 1.48,1.48 0 0 0 -1.29,-1.85 20.28,20.28 0 0 0 -1.92,-0.06 20.28,20.28 0 0 0 -2.02,0.13 0.8,0.8 0 0 1 -0.09,0 0.8,0.8 0 0 1 -0.08,0 0.8,0.8 0 0 1 -0.08,0 0.8,0.8 0 0 1 -0.08,-0.02 0.8,0.8 0 0 1 -0.07,-0.03 0.8,0.8 0 0 1 -0.08,-0.03 0.8,0.8 0 0 1 -0.07,-0.04 0.8,0.8 0 0 1 -0.06,-0.05 0.8,0.8 0 0 1 -0.06,-0.05 0.8,0.8 0 0 1 -0.06,-0.06 0.8,0.8 0 0 1 -0.04,-0.06 19.98,19.98 0 0 1 -0.1,-0.15 19.98,19.98 0 0 1 -1,-1.72 A 19.98,19.98 0 0 1 8.5,33.7 19.98,19.98 0 0 1 7.86,31.8 19.98,19.98 0 0 1 7.57,30.54 Z"
     id="path236"
     style="opacity:0.5;fill:url(#J)"
     inkscape:connector-curvature="0" />
  <path
     d="m 32.57,23.96 c 0.79,0.1 1.47,0.3 2.24,0.61 a 12.4,12.4 0 0 1 3.14,1.87 4.01,4.01 0 0 1 -0.32,-1.9 c 0.09,-0.8 0.44,-1.6 1.04,-2.22 l 0.02,-0.02 a 8.79,8.79 0 0 0 2.4,-6.02 V 16.27 A 23.52,23.52 0 0 0 39.83,11.53 C 39.67,11.11 39.5,10.75 39.33,10.37 38.9,9.44 38.43,8.6 37.93,7.87 37.73,7.59 37.54,7.29 37.33,7.03 37.09,6.73 36.81,6.53 36.56,6.26 l 0.03,0.09 a 17.9,17.9 0 0 1 0.83,5.52 18.85,18.85 0 0 1 -0.97,5.93 17.04,17.04 0 0 1 -1.92,3.88 14.48,14.48 0 0 1 -1.76,2.12 c -0.1,0.1 0.1,-0.09 0,0 z"
     id="path238"
     inkscape:connector-curvature="0"
     style="opacity:0.25;fill:#374845;filter:url(#K)" />
  <path
     d="m 11.94,5.65 c -0.32,0.3 -0.65,0.53 -0.95,0.88 -0.62,0.7 -1.2,1.5 -1.72,2.44 -0.53,0.93 -1,2 -1.4,3.2 a 25.3,25.3 0 0 0 -0.97,4.07 8.8,8.8 0 0 0 2.42,6.07 c 0.6,0.63 0.96,1.41 1.05,2.22 0.07,0.6 -0.07,1.33 -0.32,1.92 A 12.2,12.2 0 0 1 15.7,23.89 C 15.51,23.72 15.45,23.7 15.26,23.52 a 13.88,13.88 0 0 1 -2.43,-3.43 16.53,16.53 0 0 1 -1.5,-4.17 18.45,18.45 0 0 1 -0.2,-7.12 18.33,18.33 0 0 1 0.81,-3.15 z"
     id="path240"
     inkscape:connector-curvature="0"
     style="opacity:0.25;fill:#374845;filter:url(#L)" />
  <path
     d="m 40.43,30.54 c 0.08,0.22 0.12,0.5 0.16,0.75 0.03,0.2 0.03,0.38 0,0.57 a 19.98,19.98 0 0 1 -3.01,7.53 0.8,0.8 0 0 1 -0.77,0.34 20.28,20.28 0 0 0 -3.95,-0.07 c -0.47,0.03 -0.84,0.3 -1.08,0.65 l -0.21,-0.8 a 1.48,1.48 0 0 1 1.29,-1.85 20.28,20.28 0 0 1 1.92,-0.06 20.28,20.28 0 0 1 2.03,0.13 0.8,0.8 0 0 0 0.08,0 0.8,0.8 0 0 0 0.08,0 0.8,0.8 0 0 0 0.08,0 0.8,0.8 0 0 0 0.08,-0.02 0.8,0.8 0 0 0 0.08,-0.03 0.8,0.8 0 0 0 0.07,-0.03 0.8,0.8 0 0 0 0.07,-0.04 0.8,0.8 0 0 0 0.06,-0.05 0.8,0.8 0 0 0 0.06,-0.05 0.8,0.8 0 0 0 0.06,-0.06 0.8,0.8 0 0 0 0.05,-0.07 19.98,19.98 0 0 0 0.09,-0.14 19.98,19.98 0 0 0 1,-1.72 19.98,19.98 0 0 0 0.83,-1.82 19.98,19.98 0 0 0 0.64,-1.9 19.98,19.98 0 0 0 0.3,-1.26 z"
     id="path242"
     style="opacity:0.5;fill:url(#M)"
     inkscape:connector-curvature="0" />
  <path
     d="m 30.73,27.8 c 0,0 3.96,0 5.71,3.8 0.74,2.65 -0.73,4.7 -1.75,4.55 -1.03,-0.15 -6.6,-1.17 -7.19,-3.66 -0.58,-2.5 -0.73,-5.14 3.23,-4.7 z"
     id="path244"
     style="fill:url(#N)"
     inkscape:connector-curvature="0" />
  <path
     d="M 9.6,26.62 C 9.53,26.78 9.59,26.96 9.49,27.11 L 9.48,27.13 A 2.85,2.85 0 0 0 9.05,28.88 C 9.12,29.83 9.91,31.45 9,31.73 8.39,31.92 8.49,30.15 7.86,30.21 c -0.39,0.04 -0.37,0.63 -0.45,1.08 -0.03,0.2 -0.03,0.38 0,0.57 a 19.98,19.98 0 0 0 3.01,7.53 0.8,0.8 0 0 0 0.77,0.34 20.28,20.28 0 0 1 3.95,-0.07 c 0.91,0.07 1.53,0.97 1.29,1.85 l -0.62,2.3 c -0.53,2.02 1.34,1.41 2.82,2.89 1.4,1.4 3.38,1.15 5.37,1.15 1.96,0 3.94,0.28 5.37,-1.15 1.47,-1.48 3.35,-0.86 2.81,-2.88 l -0.61,-2.31 a 1.47,1.47 0 0 1 1.29,-1.85 20.25,20.25 0 0 1 3.95,0.07 0.8,0.8 0 0 0 0.77,-0.34 19.98,19.98 0 0 0 3,-7.53 1.69,1.69 0 0 0 0,-0.56 c -0.07,-0.46 -0.05,-1.05 -0.45,-1.09 -0.62,-0.06 -0.52,1.71 -1.13,1.52 -0.91,-0.28 -0.12,-1.9 -0.05,-2.85 a 2.85,2.85 0 0 0 -0.43,-1.75 l -0.01,-0.02 c -0.07,-0.1 -0.03,-0.23 -0.08,-0.34 l -0.17,-0.14 a 13.62,13.62 0 0 0 -3.45,-2.06 10.16,10.16 0 0 0 -3.72,-0.78 8.08,8.08 0 0 0 -5.36,1.94 c -0.55,0.45 -1.07,1 -1.56,1.63 -0.5,-0.64 -1.02,-1.18 -1.58,-1.63 A 8.52,8.52 0 0 0 17.08,23.8 c -1.3,0 -2.6,0.28 -3.84,0.77 -1.24,0.49 -2.43,1.2 -3.5,2.06 z"
     id="path246"
     style="opacity:0.4;fill:url(#O)"
     inkscape:connector-curvature="0" />
  <path
     d="m 31.64,40.84 c 0.05,-0.13 0,-0.3 0.08,-0.41 0.24,-0.35 0.62,-0.59 1.07,-0.63 a 20.25,20.25 0 0 1 3.95,0.08 0.8,0.8 0 0 0 0.77,-0.35 20.11,20.11 0 0 0 1.87,-3.57 20,20 0 0 0 1.14,-3.96 1.68,1.68 0 0 0 0,-0.57 c -0.04,-0.23 -0.05,-0.49 -0.1,-0.7 -0.06,-0.2 -0.16,-0.36 -0.35,-0.38 -0.32,-0.03 -0.45,0.4 -0.58,0.8 -0.13,0.42 -0.25,0.81 -0.56,0.72 a 0.56,0.56 0 0 1 -0.4,-0.43 c -0.06,-0.2 -0.04,-0.46 0,-0.74 0.1,-0.56 0.32,-1.2 0.35,-1.68 a 2.85,2.85 0 0 0 -0.43,-1.75 l -0.01,-0.02 a 3.93,3.93 0 0 1 -0.6,-2.6 4.24,4.24 0 0 1 1.14,-2.42 9.62,9.62 0 0 0 2.66,-6.65 c -0.1,-0.62 -0.3,-1.04 -0.43,-1.6 L 31.77,4.53 14.38,23.57 Z"
     id="path248"
     style="opacity:0.5;fill:url(#P)"
     inkscape:connector-curvature="0" />
  <path
     d="M 33.16,23.8 H 14.68 c -0.42,0 -0.39,0.03 -0.39,-0.4 V 4.94 c 0,-0.42 -0.03,-0.39 0.39,-0.39 h 17.1 l 1.77,1.78 V 23.4 c 0,0.42 0.03,0.39 -0.4,0.39 z"
     id="path250"
     style="fill:url(#Q)"
     inkscape:connector-curvature="0" />
  <path
     d="m 30.3,11.45 a 0.84,0.88 0 0 0 0.43,-0.2 0.75,0.79 0 0 0 0.26,-0.58 V 4.66 H 20.56 v 6 c 0,0.44 0.35,0.79 0.78,0.79 z M 28.67,10.4 H 26.6 A 0.32,0.33 0 0 1 26.37,10.29 0.29,0.3 0 0 1 26.31,10.11 V 6.5 A 0.29,0.3 0 0 1 26.42,6.28 0.32,0.33 0 0 1 26.6,6.21 h 2.02 a 0.32,0.33 0 0 1 0.23,0.12 0.29,0.3 0 0 1 0.06,0.18 v 3.59 a 0.29,0.3 0 0 1 -0.11,0.23 c -0.04,0.02 -0.07,0.05 -0.12,0.06 z"
     id="path252"
     inkscape:connector-curvature="0"
     style="fill:#1a1a1a;filter:url(#R)" />
  <path
     d="m 29.92,11.04 a 0.84,0.84 0 0 0 0.42,-0.19 0.75,0.75 0 0 0 0.26,-0.56 V 4.54 H 20.18 v 5.75 c 0,0.42 0.35,0.75 0.78,0.75 z m -1.63,-1 H 26.2 A 0.32,0.32 0 0 1 25.98,9.94 0.29,0.29 0 0 1 25.91,9.76 V 6.32 A 0.29,0.29 0 0 1 26.02,6.1 0.32,0.32 0 0 1 26.2,6.04 h 2.02 a 0.32,0.32 0 0 1 0.23,0.11 0.29,0.29 0 0 1 0.07,0.17 V 9.76 A 0.29,0.29 0 0 1 28.4,9.98 c -0.03,0.02 -0.07,0.05 -0.11,0.06 z"
     id="path254"
     style="fill:url(#S)"
     inkscape:connector-curvature="0" />
  <rect
     transform="scale(1,-1)"
     x="16.74"
     y="-23.790001"
     width="14.35"
     height="10.91"
     rx="0.1"
     ry="0.1"
     id="rect256"
     style="fill:url(#T)" />
  <path
     d="M 16.98,19.81 H 30.89"
     id="path258"
     inkscape:connector-curvature="0"
     style="fill:none;stroke:#d3d7cf;stroke-width:0.41999999;stroke-linecap:round;stroke-linejoin:round" />
  <path
     d="M 16.99,15.89 H 30.86"
     id="path260"
     inkscape:connector-curvature="0"
     style="fill:#1a1a1a;stroke:#d3d7cf;stroke-width:0.41999999;stroke-linecap:round;stroke-linejoin:round" />
  <g
     transform="matrix(-0.23683,0,0,-0.24013,36.13,26.1)"
     id="g268"
     style="opacity:0.79000005;stroke-width:4.9000001;stroke-linecap:round;stroke-linejoin:round;stroke-dashoffset:4.1500001">
    <rect
       transform="matrix(0.69421,0,0,0.69421,4.9,5.5)"
       clip-path="url(#U)"
       width="8"
       height="12"
       x="12"
       y="12"
       rx="5.29"
       ry="5.29"
       id="rect262"
       style="fill:none;stroke:#000000;filter:url(#V)" />
    <rect
       transform="matrix(0.69421,0,0,0.69421,4.9,5.5)"
       clip-path="url(#W)"
       ry="5.29"
       rx="5.29"
       y="12"
       x="12"
       height="12"
       width="8"
       id="rect264"
       style="fill:url(#X);stroke:url(#Y);filter:url(#V)" />
    <rect
       ry="2.22"
       rx="2.22"
       y="18.030001"
       x="13.9"
       height="3.6800001"
       width="4.3499999"
       id="rect266"
       style="fill:url(#Z);stroke:url(#aa);stroke-width:1.63;filter:url(#ab)" />
  </g>
</svg>
