<svg xmlns="http://www.w3.org/2000/svg" xmlns:xlink="http://www.w3.org/1999/xlink" width="48" height="48"><defs><linearGradient id="j" x1="30" x2="30" y1="3.04" y2="27.96" gradientUnits="userSpaceOnUse" xlink:href="#a" gradientTransform="matrix(1.0045 0 0 1.0034 -6.14 -.6)"/><linearGradient id="a"><stop offset="0" stop-color="#fff"/><stop offset="1" stop-color="#fff" stop-opacity="0"/></linearGradient><radialGradient id="i" cx="30" cy="33.19" r="4.69" gradientTransform="matrix(1.528 0 0 .46087 -21.84 14.15)" gradientUnits="userSpaceOnUse" xlink:href="#b"/><linearGradient id="b"><stop offset="0"/><stop offset="1" stop-opacity="0"/></linearGradient><linearGradient id="h" x1="38" x2="43" y1="39" y2="38.6" gradientUnits="userSpaceOnUse" xlink:href="#b" gradientTransform="translate(-6 -.56)"/><linearGradient id="g" x1="22" x2="17" y1="39" y2="37.44" gradientUnits="userSpaceOnUse" xlink:href="#b" gradientTransform="translate(-6 -.56)"/><radialGradient id="f" cx="26.38" cy="12.31" r="8" gradientTransform="matrix(1.6402 -.13258 .12811 1.5849 -24.4 -5.78)" gradientUnits="userSpaceOnUse" xlink:href="#c"/><linearGradient id="c"><stop offset="0" stop-color="#f5f5f5"/><stop offset="1" stop-color="#d2d2d2"/></linearGradient><linearGradient id="d"><stop offset="0" stop-color="#bdbdbd"/><stop offset="1" stop-color="#8c8c8c"/></linearGradient><radialGradient id="e" cx="25" cy="28.66" r="16" gradientTransform="matrix(1.3125 0 0 .37327 -13.81 19.75)" gradientUnits="userSpaceOnUse" xlink:href="#c"/></defs><path d="M34.7 32.85l-.62-1.39a6.47 6.47 0 0 0 3.25-3.1c.52-1.06.6-1.94.6-1.95l1.5.11a8.03 8.03 0 0 1-4.73 6.32z" fill="#ccc"/><path d="M41.77 26.49l-1.26-6.02a.76.76 0 0 0-1.4-.25L35.9 25.5a.76.76 0 0 0 .52 1.15l4.5.78a.76.76 0 0 0 .87-.95z" fill="#ececec"/><path d="M19.5 19.94c.46 2.18.72 3.83.34 6-2.9 2.42-10.35 3.5-10.34 6l-1 7.5c0 2.49 6.94 4.5 15.5 4.5 8.56 0 15.5-2.01 15.5-4.5l-1-7.5c-.01-2.14-7.5-3.5-10.38-6-.24-2.02-.05-3.98.38-6h-9z" fill="url(#e)" transform="translate(-.07 2.53) scale(.98865)"/><path d="M20.35 23.24c.3 1.67.5 3.23.18 5.1a1 1 0 0 1-.37.62c-1.7 1.4-4.3 2.22-6.45 3.08-1.08.44-2.05.86-2.66 1.27-.61.4-.74.68-.74.8a1 1 0 0 1 0 .13l-.99 7.29v.03c0 .16.15.47.77.9.64.43 1.68.88 3 1.26C15.73 44.5 19.5 45 23.66 45c4.15 0 7.92-.5 10.56-1.27 1.32-.38 2.36-.83 3-1.26.62-.43.77-.74.77-.9v-.03l-.99-7.3a1 1 0 0 1 0-.12c0 .03.02 0-.09-.12-.1-.12-.33-.3-.65-.5a22.9 22.9 0 0 0-2.72-1.3c-2.18-.89-4.78-1.8-6.45-3.27a1 1 0 0 1-.34-.61 17.9 17.9 0 0 1 .21-5.07h-6.61z" fill="none"/><path d="M24 4.94c-4.14 0-7.5 3.14-7.5 7 .03 1.43.15 3.13 1 7 .5 1.5 4.96 5.5 5 6 .97.5 2.5.5 3.5 0 0-.5 4-4.5 4.5-6 .95-4.02.95-5.5 1-7 0-3.86-3.36-7-7.5-7z" fill="url(#f)" transform="translate(-.07 2.53) scale(.98865)"/><path d="M15 42.64c-2.36-1.98-1.24-6.38-1-9.2-1 2-1 8-3 8 1.36.46 2.75.97 4 1.2z" opacity=".3" fill="url(#g)" transform="translate(-.07 2.53) scale(.98865)"/><path d="M33 42.64c2.35-1.74 1.16-6.48 1-9.2 1 2 1 8 3 8-1.36.46-2.75.97-4 1.2z" opacity=".3" fill="url(#h)" transform="translate(-.07 2.53) scale(.98865)"/><path d="M19.31 26.44c.69 1.75 2.52 3 4.69 3 2.17 0 4-1.25 4.69-3z" opacity=".2" fill="url(#i)" transform="translate(-.07 2.53) scale(.98865)"/><path d="M24 5.95c-3.63 0-6.48 2.68-6.5 5.95v.03c.03 1.38.16 3 .97 6.75.05.1.34.58.79 1.13.46.56 1.04 1.2 1.63 1.81l1.63 1.73c.23.24.41.46.57.66l.03.06c.58.23 1.6.23 2.23 0 .14-.2.3-.44.5-.69.4-.5.92-1.07 1.45-1.7.52-.62 1.08-1.28 1.5-1.84a7 7 0 0 0 .72-1.13v-.03c.93-3.93.93-5.23.98-6.75v-.03c-.02-3.27-2.87-5.95-6.5-5.95z" opacity=".7" fill="none" stroke="url(#j)" transform="translate(-.07 2.53) scale(.98865)"/><path d="M25.92 25.42c-.11-.22-.3-.36-.51-.36h-3.6c-.2 0-.4.14-.5.36a.95.95 0 0 0-.03.74l1.8 4.57c.1.26.3.43.53.43.23 0 .44-.17.54-.43l1.8-4.57a.94.94 0 0 0-.03-.74z" fill="#434a54"/><path d="M19.27 7.65c-3.39-.6-5.53-4.96-5.55-5a.77.77 0 0 0-1.44.17c0 .06-.34 1.68-.1 3.6.32 2.63 1.55 4.57 3.55 5.6a3.3 3.3 0 0 0 3.89-.58 3.3 3.3 0 0 0 1-1.97c.08-.95-.45-1.66-1.35-1.82z" fill="#e6e6e6"/><path d="M17.81 7.14a6.7 6.7 0 0 1-1.28-.87c-.28.68-1.3 2.89-3.26 3.46.29.47.62.89 1 1.25 2-.85 3.1-2.83 3.54-3.84z" fill="#434a54"/><path d="M27.77 7.65c3.39-.6 5.53-4.96 5.55-5a.76.76 0 0 1 1.43.17c.02.06.35 1.68.11 3.6-.32 2.63-1.55 4.57-3.56 5.6-.5.27-1.03.4-1.57.4a3.3 3.3 0 0 1-2.3-.98 3.3 3.3 0 0 1-1-1.97c-.09-.95.44-1.66 1.34-1.82z" fill="#e6e6e6"/><path d="M29.23 7.14a7.2 7.2 0 0 0 1.28-.87c.28.68 1.3 2.89 3.26 3.46-.29.47-.62.89-1 1.25-2-.85-3.1-2.83-3.54-3.84z" fill="#434a54"/></svg>