<svg xmlns="http://www.w3.org/2000/svg" width="24" height="24" viewBox="0 0 6.35 6.35"><defs><linearGradient id="b"><stop offset="0"/><stop offset="1" stop-color="#fff" stop-opacity=".95"/></linearGradient><linearGradient id="a"><stop offset="0" stop-color="#000007"/><stop offset="1" stop-opacity="0"/></linearGradient></defs><path d="M3.17.59a.74.74 0 0 0 0 1.47.74.74 0 0 0 .71-.9 1.36 1.36 0 0 1 1.38 2.26l-.49-.73-.3 1.4 1.43.3-.38-.58A1.81 1.81 0 0 0 4.32.64c-.23 0-.45.04-.67.13a.74.74 0 0 0-.48-.18zM.44 1.97l.38.58a1.81 1.81 0 0 0 1.86 3.03.74.74 0 0 0 .48.18.74.74 0 0 0 .01-1.47.74.74 0 0 0-.72.9 1.36 1.36 0 0 1-1.38-2.26l.5.74.3-1.42z" fill="#1a1a1a"/></svg>