<?xml version="1.0" encoding="UTF-8" standalone="no"?>
<svg
   xmlns:dc="http://purl.org/dc/elements/1.1/"
   xmlns:cc="http://creativecommons.org/ns#"
   xmlns:rdf="http://www.w3.org/1999/02/22-rdf-syntax-ns#"
   xmlns:svg="http://www.w3.org/2000/svg"
   xmlns="http://www.w3.org/2000/svg"
   xmlns:sodipodi="http://sodipodi.sourceforge.net/DTD/sodipodi-0.dtd"
   xmlns:inkscape="http://www.inkscape.org/namespaces/inkscape"
   width="24"
   height="24"
   version="1.1"
   id="svg11"
   sodipodi:docname="gajim.svg"
   inkscape:version="0.92.4 (5da689c313, 2019-01-14)">
  <metadata
     id="metadata15">
    <rdf:RDF>
      <cc:Work
         rdf:about="">
        <dc:format>image/svg+xml</dc:format>
        <dc:type
           rdf:resource="http://purl.org/dc/dcmitype/StillImage" />
        <dc:title></dc:title>
      </cc:Work>
    </rdf:RDF>
  </metadata>
  <sodipodi:namedview
     pagecolor="#ffffff"
     bordercolor="#666666"
     borderopacity="1"
     objecttolerance="10"
     gridtolerance="10"
     guidetolerance="10"
     inkscape:pageopacity="0"
     inkscape:pageshadow="2"
     inkscape:window-width="1138"
     inkscape:window-height="480"
     id="namedview13"
     showgrid="false"
     inkscape:zoom="9.8333333"
     inkscape:cx="1.0677966"
     inkscape:cy="12"
     inkscape:window-x="0"
     inkscape:window-y="25"
     inkscape:window-maximized="0"
     inkscape:current-layer="svg11" />
  <defs
     id="defs7">
    <linearGradient
       id="a">
      <stop
         offset="0"
         id="stop2" />
      <stop
         offset="1"
         stop-opacity="0"
         id="stop4" />
    </linearGradient>
  </defs>
  <path
     style="color:#000000;overflow:visible;fill:#1a1a1a;marker:none"
     d="M 12,1.2 A 4.34,4.34 0 0 0 9.39,9.02 0.46,0.46 0 0 1 9.56,9.28 l 0.19,0.75 a 0.46,0.46 0 0 1 0.32,-0.14 h 3.86 a 0.46,0.46 0 0 1 0.33,0.14 L 14.44,9.28 A 0.46,0.46 0 0 1 14.61,9.02 4.34,4.34 0 0 0 12,1.19 Z M 8.74,9.31 c -3.45,0 -6.22,1.45 -7.9,3.72 1.5,0.44 3.03,0.82 4.65,0.93 l 0.47,7.9 c 1.64,0.45 3.32,0.94 6.04,0.94 2.72,0 4.4,-0.5 6.04,-0.93 l 0.47,-7.9 c 1.62,-0.12 3.14,-0.5 4.65,-0.94 -1.68,-2.27 -4.45,-3.72 -7.9,-3.72 l -0.31,0.01 h -0.01 l -0.05,0.05 -0.46,1.86 h 0.46 c 0.14,0 0.28,-0.03 0.4,-0.06 1.47,0 2.74,0.3 3.8,0.83 -0.24,0.03 -0.47,0.08 -0.71,0.1 -0.9,0.06 -1.68,0.85 -1.73,1.74 l -0.38,6.54 c -1.2,0.3 -2.43,0.56 -4.27,0.56 -1.84,0 -3.08,-0.26 -4.27,-0.56 L 7.35,13.84 A 1.92,1.92 0 0 0 5.62,12.1 C 5.38,12.08 5.15,12.03 4.91,12 a 8.64,8.64 0 0 1 3.76,-0.81 c 0.14,0.03 0.3,0.04 0.44,0.04 H 9.57 L 9.11,9.37 9.06,9.32 Z m 1.44,2.45 0.3,1.23 0.74,0.73 h 1.56 l 0.73,-0.73 0.3,-1.23 z"
     overflow="visible"
     id="path9"
     inkscape:connector-curvature="0" />
</svg>
