<?xml version="1.0" encoding="UTF-8" standalone="no"?>
<svg
   xmlns:dc="http://purl.org/dc/elements/1.1/"
   xmlns:cc="http://creativecommons.org/ns#"
   xmlns:rdf="http://www.w3.org/1999/02/22-rdf-syntax-ns#"
   xmlns:svg="http://www.w3.org/2000/svg"
   xmlns="http://www.w3.org/2000/svg"
   xmlns:sodipodi="http://sodipodi.sourceforge.net/DTD/sodipodi-0.dtd"
   xmlns:inkscape="http://www.inkscape.org/namespaces/inkscape"
   width="24"
   height="24"
   version="1.1"
   id="svg21"
   sodipodi:docname="geany.svg"
   inkscape:version="0.92.4 (5da689c313, 2019-01-14)">
  <metadata
     id="metadata25">
    <rdf:RDF>
      <cc:Work
         rdf:about="">
        <dc:format>image/svg+xml</dc:format>
        <dc:type
           rdf:resource="http://purl.org/dc/dcmitype/StillImage" />
        <dc:title></dc:title>
      </cc:Work>
    </rdf:RDF>
  </metadata>
  <sodipodi:namedview
     pagecolor="#ffffff"
     bordercolor="#666666"
     borderopacity="1"
     objecttolerance="10"
     gridtolerance="10"
     guidetolerance="10"
     inkscape:pageopacity="0"
     inkscape:pageshadow="2"
     inkscape:window-width="1138"
     inkscape:window-height="480"
     id="namedview23"
     showgrid="false"
     inkscape:zoom="9.8333333"
     inkscape:cx="1.0677966"
     inkscape:cy="12"
     inkscape:window-x="0"
     inkscape:window-y="25"
     inkscape:window-maximized="0"
     inkscape:current-layer="svg21" />
  <defs
     id="defs17">
    <linearGradient
       id="c">
      <stop
         offset="0"
         id="stop2" />
      <stop
         offset="1"
         stop-opacity="0"
         id="stop4" />
    </linearGradient>
    <linearGradient
       id="a">
      <stop
         offset="0"
         stop-color="#483e37"
         id="stop7" />
      <stop
         offset="1"
         stop-color="#ff7f2a"
         stop-opacity="0"
         id="stop9" />
    </linearGradient>
    <linearGradient
       id="b">
      <stop
         offset="0"
         stop-color="#a80"
         id="stop12" />
      <stop
         offset="1"
         stop-color="#ffe680"
         id="stop14" />
    </linearGradient>
  </defs>
  <path
     d="M 12.5,6.68 A 1.18,1.18 0 0 0 12.11,6.76 3,3 0 0 0 11.26,7.58 L 7.86,9.2 H 6.15 C 3.19,9.29 2.38,6.3 0.18,6.76 c 2.64,2.05 0,4.96 1.71,6.51 2.61,2.37 6,4.38 9.38,4.8 v 0.5 L 7,20.2 h 11.1 l -4.28,-1.62 v -0.52 c 2.44,-0.34 4.77,-1.7 6.69,-4.58 4.73,1.93 3.65,-5.07 1.3,-4.9 -0.37,0.03 -0.77,0.26 -1.18,0.7 L 20.65,9.21 H 18.09 L 13.82,7.58 c 0,0 -0.47,-0.67 -0.85,-0.82 A 1.18,1.18 0 0 0 12.51,6.68 Z m 9.42,3.41 a 0.65,1.23 0 0 1 0.05,0 0.65,1.23 0 0 1 0.62,1.28 0.65,1.23 0 0 1 -0.68,1.17 0.65,1.23 0 0 1 -0.61,-1.27 0.65,1.23 0 0 1 0.62,-1.18 z"
     id="path19"
     inkscape:connector-curvature="0"
     style="fill:#1a1a1a" />
</svg>
