<?xml version="1.0" encoding="UTF-8" standalone="no"?>
<svg
   xmlns:dc="http://purl.org/dc/elements/1.1/"
   xmlns:cc="http://creativecommons.org/ns#"
   xmlns:rdf="http://www.w3.org/1999/02/22-rdf-syntax-ns#"
   xmlns:svg="http://www.w3.org/2000/svg"
   xmlns="http://www.w3.org/2000/svg"
   xmlns:sodipodi="http://sodipodi.sourceforge.net/DTD/sodipodi-0.dtd"
   xmlns:inkscape="http://www.inkscape.org/namespaces/inkscape"
   width="24"
   height="24"
   viewBox="0 0 6.35 6.35"
   version="1.1"
   id="svg16"
   sodipodi:docname="gnome-inhibit-applet.svg"
   inkscape:version="0.92.4 (5da689c313, 2019-01-14)">
  <metadata
     id="metadata20">
    <rdf:RDF>
      <cc:Work
         rdf:about="">
        <dc:format>image/svg+xml</dc:format>
        <dc:type
           rdf:resource="http://purl.org/dc/dcmitype/StillImage" />
        <dc:title></dc:title>
      </cc:Work>
    </rdf:RDF>
  </metadata>
  <sodipodi:namedview
     pagecolor="#ffffff"
     bordercolor="#666666"
     borderopacity="1"
     objecttolerance="10"
     gridtolerance="10"
     guidetolerance="10"
     inkscape:pageopacity="0"
     inkscape:pageshadow="2"
     inkscape:window-width="1138"
     inkscape:window-height="480"
     id="namedview18"
     showgrid="false"
     inkscape:zoom="9.8333333"
     inkscape:cx="1.0677966"
     inkscape:cy="12"
     inkscape:window-x="0"
     inkscape:window-y="25"
     inkscape:window-maximized="0"
     inkscape:current-layer="svg16" />
  <defs
     id="defs12">
    <linearGradient
       id="b">
      <stop
         offset="0"
         stop-color="#000005"
         id="stop2" />
      <stop
         offset="1"
         stop-opacity="0"
         id="stop4" />
    </linearGradient>
    <linearGradient
       id="a">
      <stop
         offset="0"
         stop-color="#2d5016"
         id="stop7" />
      <stop
         offset="1"
         stop-color="#71c837"
         id="stop9" />
    </linearGradient>
  </defs>
  <path
     d="m 0.45,0.41 v 3.3 L 2.33,4.53 2.35,4.5 A 0.43,0.43 0 0 1 2.69,4.34 c 0.24,0 0.44,0.2 0.44,0.44 0,0.24 -0.2,0.44 -0.44,0.44 A 0.44,0.44 0 0 1 2.26,4.84 V 4.8 L 0.44,4 V 5.94 H 5.9 V 0.41 H 5.04 v 1.67 l 0.02,0.03 c 0.12,0.07 0.19,0.2 0.19,0.34 A 0.4,0.4 0 0 1 4.85,2.86 0.41,0.41 0 0 1 4.43,2.46 c 0,-0.19 0.11,-0.34 0.28,-0.4 L 4.76,2.04 V 0.41 H 1.82 V 2.24 H 2.71 L 2.73,2.2 A 0.41,0.41 0 0 1 3.12,1.92 c 0.23,0 0.42,0.19 0.42,0.43 0,0.24 -0.18,0.43 -0.42,0.43 A 0.42,0.42 0 0 1 2.75,2.55 L 2.73,2.51 H 1.56 V 0.4 Z M 3.6,3.24 H 5.45 V 3.48 L 3.96,5.32 H 5.48 V 5.58 H 3.57 V 5.34 L 5.05,3.5 H 3.6 Z"
     id="path14"
     inkscape:connector-curvature="0"
     style="fill:#1a1a1a" />
</svg>
