<?xml version="1.0" encoding="UTF-8" standalone="no"?>
<svg
   xmlns:dc="http://purl.org/dc/elements/1.1/"
   xmlns:cc="http://creativecommons.org/ns#"
   xmlns:rdf="http://www.w3.org/1999/02/22-rdf-syntax-ns#"
   xmlns:svg="http://www.w3.org/2000/svg"
   xmlns="http://www.w3.org/2000/svg"
   xmlns:sodipodi="http://sodipodi.sourceforge.net/DTD/sodipodi-0.dtd"
   xmlns:inkscape="http://www.inkscape.org/namespaces/inkscape"
   width="24"
   height="24"
   version="1.1"
   id="svg11"
   sodipodi:docname="gnome-mines.svg"
   inkscape:version="0.92.4 (5da689c313, 2019-01-14)">
  <metadata
     id="metadata15">
    <rdf:RDF>
      <cc:Work
         rdf:about="">
        <dc:format>image/svg+xml</dc:format>
        <dc:type
           rdf:resource="http://purl.org/dc/dcmitype/StillImage" />
        <dc:title></dc:title>
      </cc:Work>
    </rdf:RDF>
  </metadata>
  <sodipodi:namedview
     pagecolor="#ffffff"
     bordercolor="#666666"
     borderopacity="1"
     objecttolerance="10"
     gridtolerance="10"
     guidetolerance="10"
     inkscape:pageopacity="0"
     inkscape:pageshadow="2"
     inkscape:window-width="1138"
     inkscape:window-height="480"
     id="namedview13"
     showgrid="false"
     inkscape:zoom="9.8333333"
     inkscape:cx="1.0677966"
     inkscape:cy="12"
     inkscape:window-x="0"
     inkscape:window-y="25"
     inkscape:window-maximized="0"
     inkscape:current-layer="svg11" />
  <defs
     id="defs7">
    <linearGradient
       id="a">
      <stop
         offset="0"
         id="stop2" />
      <stop
         offset="1"
         stop-opacity="0"
         id="stop4" />
    </linearGradient>
  </defs>
  <path
     d="M 10.8,0.72 10.56,3.89 A 8.28,8.3 0 0 0 9.85,4.06 8.28,8.3 0 0 0 9.05,4.31 8.28,8.3 0 0 0 8.3,4.65 8.28,8.3 0 0 0 7.59,5.06 8.28,8.3 0 0 0 7.31,5.26 L 4.89,3.17 3.17,4.87 5.27,7.3 A 8.28,8.3 0 0 0 5.25,7.33 8.28,8.32 0 0 0 3.95,10.54 H 3.92 a 8.28,8.3 0 0 0 0,0.02 l -3.2,0.23 v 2.42 l 3.17,0.22 a 8.28,8.3 0 0 0 0,0.04 8.28,8.3 0 0 0 0.02,0.06 h 0.03 a 8.28,8.32 0 0 0 1.31,3.2 l -2.07,2.4 1.7,1.7 2.35,-2.04 a 8.28,8.3 0 0 0 0.14,0.1 8.28,8.32 0 0 0 3.21,1.32 l 0.22,3.07 h 2.42 l 0.22,-3.04 a 8.28,8.3 0 0 0 0.03,0 8.28,8.3 0 0 0 0.66,-0.15 8.28,8.32 0 0 0 0.17,-0.04 8.28,8.3 0 0 0 0.54,-0.19 8.28,8.32 0 0 0 0.26,-0.08 8.28,8.3 0 0 0 0.52,-0.24 8.28,8.32 0 0 0 0.22,-0.1 8.28,8.3 0 0 0 0.45,-0.25 8.28,8.32 0 0 0 0.29,-0.18 8.28,8.3 0 0 0 0.26,-0.19 l 2.27,1.97 1.71,-1.72 -1.97,-2.26 a 8.28,8.3 0 0 0 0.05,-0.06 8.28,8.3 0 0 0 0.43,-0.71 8.28,8.3 0 0 0 0.36,-0.75 8.28,8.3 0 0 0 0.29,-0.78 8.28,8.3 0 0 0 0.2,-0.81 8.28,8.3 0 0 0 0.05,-0.32 l 3.04,-0.22 V 10.74 L 20.2,10.53 A 8.28,8.3 0 0 0 20.04,9.83 8.28,8.3 0 0 0 19.78,9.04 8.28,8.3 0 0 0 19.44,8.29 8.28,8.3 0 0 0 19.04,7.56 8.28,8.3 0 0 0 18.79,7.23 L 20.84,4.88 19.12,3.17 16.76,5.22 A 8.28,8.3 0 0 0 16.74,5.2 8.28,8.3 0 0 0 16.04,4.77 8.28,8.3 0 0 0 15.29,4.4 8.28,8.3 0 0 0 14.51,4.12 8.28,8.3 0 0 0 13.71,3.92 8.28,8.3 0 0 0 13.44,3.88 L 13.2,0.72 h -2.42 z m 3.33,10.71 a 2.82,2.82 0 0 1 2.82,2.82 2.82,2.82 0 0 1 -2.82,2.82 2.82,2.82 0 0 1 -2.82,-2.82 2.82,2.82 0 0 1 2.82,-2.82 z"
     id="path9"
     inkscape:connector-curvature="0"
     style="fill:#1a1a1a" />
</svg>
