<?xml version="1.0" encoding="UTF-8" standalone="no"?>
<svg
   xmlns:dc="http://purl.org/dc/elements/1.1/"
   xmlns:cc="http://creativecommons.org/ns#"
   xmlns:rdf="http://www.w3.org/1999/02/22-rdf-syntax-ns#"
   xmlns:svg="http://www.w3.org/2000/svg"
   xmlns="http://www.w3.org/2000/svg"
   xmlns:sodipodi="http://sodipodi.sourceforge.net/DTD/sodipodi-0.dtd"
   xmlns:inkscape="http://www.inkscape.org/namespaces/inkscape"
   width="24"
   height="24"
   id="svg7"
   version="1.1"
   sodipodi:docname="grip.svg"
   inkscape:version="0.92.4 (5da689c313, 2019-01-14)">
  <metadata
     id="metadata8">
    <rdf:RDF>
      <cc:Work
         rdf:about="">
        <dc:format>image/svg+xml</dc:format>
        <dc:type
           rdf:resource="http://purl.org/dc/dcmitype/StillImage" />
        <dc:title></dc:title>
      </cc:Work>
    </rdf:RDF>
  </metadata>
  <sodipodi:namedview
     pagecolor="#ffffff"
     bordercolor="#666666"
     borderopacity="1"
     objecttolerance="10"
     gridtolerance="10"
     guidetolerance="10"
     inkscape:pageopacity="0"
     inkscape:pageshadow="2"
     inkscape:window-width="1138"
     inkscape:window-height="480"
     id="namedview6"
     showgrid="false"
     inkscape:zoom="9.8333333"
     inkscape:cx="1.0677966"
     inkscape:cy="12"
     inkscape:window-x="0"
     inkscape:window-y="25"
     inkscape:window-maximized="0"
     inkscape:current-layer="svg7" />
  <defs
     id="defs3">
    <style
       id="current-color-scheme" />
  </defs>
  <path
     style="color:#bebebe;font-weight:400;font-family:sans-serif;font-variant-ligatures:normal;font-variant-position:normal;font-variant-caps:normal;font-variant-numeric:normal;font-variant-alternates:normal;font-feature-settings:normal;text-indent:0;text-decoration:none;text-decoration-line:none;text-decoration-style:solid;text-decoration-color:#000000;text-transform:none;text-orientation:mixed;white-space:normal;shape-padding:0;overflow:visible;isolation:auto;mix-blend-mode:normal;fill:#1a1a1a;stroke-width:1.70000005"
     d="m 11.64,0.54 c -5.84,0 -10.63,4.8 -10.63,10.64 0,5.84 4.8,10.64 10.64,10.64 0.7,0 1.32,-0.27 1.98,-0.4 L 8.92,16.7 h 4.57 v -1.35 a 4.6,4.6 0 0 1 -1.84,0.38 c -2.56,0 -4.56,-2 -4.56,-4.56 0,-2.55 2,-4.56 4.55,-4.56 a 4.46,4.46 0 0 1 4.3,3.24 h 6.08 c -0.7,-5.2 -5,-9.32 -10.38,-9.32 z m 0,7.6 a 3.05,3.05 0 0 0 -3.03,3.04 3.05,3.05 0 0 0 3.03,3.04 3.05,3.05 0 0 0 3.05,-3.04 3.05,3.05 0 0 0 -3.05,-3.04 z m 0,1.52 c 0.85,0 1.53,0.67 1.53,1.52 a 1.5,1.5 0 0 1 -1.53,1.52 1.5,1.5 0 0 1 -1.51,-1.52 c 0,-0.85 0.67,-1.52 1.51,-1.52 z m 3.69,1.95 v 6.49 h -3.05 l 5.36,5.36 5.35,-5.36 h -3.06 v -4.59 h -0.01 v -1.9 z"
     id="path2"
     font-weight="400"
     overflow="visible"
     inkscape:connector-curvature="0" />
</svg>
