<svg xmlns="http://www.w3.org/2000/svg" width="24" height="24" version="1"><g transform="matrix(.045 0 0 .045 .6 .6)" fill="#1a1a1a"><path d="M254.26 0C113.85 0 0 113.84 0 254.26s113.84 254.26 254.26 254.26 254.26-113.84 254.26-254.26C508.52 113.85 394.68 0 254.26 0zm0 476.74c-122.68 0-222.48-99.83-222.48-222.48 0-122.68 99.8-222.48 222.48-222.48 122.65 0 222.48 99.8 222.48 222.48 0 122.65-99.83 222.48-222.48 222.48z"/><path d="M254.26 95.35a31.8 31.8 0 0 0-31.78 31.78v158.91a31.8 31.8 0 0 0 63.56 0V127.13a31.8 31.8 0 0 0-31.78-31.78z"/><circle cx="254.26" cy="380.88" r="31.78"/></g></svg>