<?xml version="1.0" encoding="UTF-8" standalone="no"?>
<svg
   xmlns:dc="http://purl.org/dc/elements/1.1/"
   xmlns:cc="http://creativecommons.org/ns#"
   xmlns:rdf="http://www.w3.org/1999/02/22-rdf-syntax-ns#"
   xmlns:svg="http://www.w3.org/2000/svg"
   xmlns="http://www.w3.org/2000/svg"
   xmlns:sodipodi="http://sodipodi.sourceforge.net/DTD/sodipodi-0.dtd"
   xmlns:inkscape="http://www.inkscape.org/namespaces/inkscape"
   width="24"
   height="24"
   viewBox="0 0 6.35 6.35"
   version="1.1"
   id="svg21"
   sodipodi:docname="jokosher.svg"
   inkscape:version="0.92.4 (5da689c313, 2019-01-14)">
  <metadata
     id="metadata25">
    <rdf:RDF>
      <cc:Work
         rdf:about="">
        <dc:format>image/svg+xml</dc:format>
        <dc:type
           rdf:resource="http://purl.org/dc/dcmitype/StillImage" />
        <dc:title></dc:title>
      </cc:Work>
    </rdf:RDF>
  </metadata>
  <sodipodi:namedview
     pagecolor="#ffffff"
     bordercolor="#666666"
     borderopacity="1"
     objecttolerance="10"
     gridtolerance="10"
     guidetolerance="10"
     inkscape:pageopacity="0"
     inkscape:pageshadow="2"
     inkscape:window-width="1138"
     inkscape:window-height="480"
     id="namedview23"
     showgrid="false"
     inkscape:zoom="9.8333333"
     inkscape:cx="1.0677966"
     inkscape:cy="12"
     inkscape:window-x="0"
     inkscape:window-y="25"
     inkscape:window-maximized="0"
     inkscape:current-layer="svg21" />
  <defs
     id="defs17">
    <linearGradient
       id="c">
      <stop
         offset="0"
         id="stop2" />
      <stop
         offset="1"
         stop-opacity=".02"
         id="stop4" />
    </linearGradient>
    <linearGradient
       id="a">
      <stop
         offset="0"
         stop-color="#fff"
         id="stop7" />
      <stop
         offset="1"
         stop-color="#1a1a1a"
         id="stop9" />
    </linearGradient>
    <linearGradient
       id="b">
      <stop
         offset="0"
         stop-color="#917c6f"
         id="stop12" />
      <stop
         offset="1"
         stop-color="#f4e3d7"
         id="stop14" />
    </linearGradient>
  </defs>
  <path
     d="m 5.38,0.2 c 0,0 -1.1,0.33 -2.21,0.33 -1.1,0 -2.2,-0.31 -2.21,-0.31 -0.17,0 -0.3,0.07 -0.3,0.23 v 3.3 A 2.46,2.46 0 0 0 3.18,6.15 2.47,2.47 0 0 0 5.7,3.75 V 0.44 C 5.7,0.28 5.56,0.2 5.38,0.2 Z M 0.96,0.23 Z M 5,0.83 v 3.1 c 0,0.4 -0.13,0.7 -0.4,0.9 -0.25,0.2 -0.64,0.3 -1.17,0.3 H 3.23 V 4.49 h 0.16 c 0.2,0 0.35,-0.04 0.46,-0.14 0.1,-0.1 0.16,-0.24 0.16,-0.42 v -2.9 z"
     id="path19"
     inkscape:connector-curvature="0"
     style="fill:#1a1a1a;stroke-width:0.79000002" />
</svg>
