<?xml version="1.0" encoding="UTF-8" standalone="no"?>
<svg
   xmlns:dc="http://purl.org/dc/elements/1.1/"
   xmlns:cc="http://creativecommons.org/ns#"
   xmlns:rdf="http://www.w3.org/1999/02/22-rdf-syntax-ns#"
   xmlns:svg="http://www.w3.org/2000/svg"
   xmlns="http://www.w3.org/2000/svg"
   xmlns:sodipodi="http://sodipodi.sourceforge.net/DTD/sodipodi-0.dtd"
   xmlns:inkscape="http://www.inkscape.org/namespaces/inkscape"
   width="24"
   height="24"
   version="1.1"
   id="svg4"
   sodipodi:docname="kdiff3.svg"
   inkscape:version="0.92.4 (5da689c313, 2019-01-14)">
  <metadata
     id="metadata10">
    <rdf:RDF>
      <cc:Work
         rdf:about="">
        <dc:format>image/svg+xml</dc:format>
        <dc:type
           rdf:resource="http://purl.org/dc/dcmitype/StillImage" />
        <dc:title></dc:title>
      </cc:Work>
    </rdf:RDF>
  </metadata>
  <defs
     id="defs8" />
  <sodipodi:namedview
     pagecolor="#ffffff"
     bordercolor="#666666"
     borderopacity="1"
     objecttolerance="10"
     gridtolerance="10"
     guidetolerance="10"
     inkscape:pageopacity="0"
     inkscape:pageshadow="2"
     inkscape:window-width="1138"
     inkscape:window-height="480"
     id="namedview6"
     showgrid="false"
     inkscape:zoom="9.8333333"
     inkscape:cx="1.0677966"
     inkscape:cy="12"
     inkscape:window-x="0"
     inkscape:window-y="25"
     inkscape:window-maximized="0"
     inkscape:current-layer="svg4" />
  <path
     d="m 22.73,1.36 -2.67,2.67 h 0.08 a 0.635,0.635 0 1 1 0,1.27 H 18.8 l -2.4,2.4 h 3.75 a 0.635,0.635 0 1 1 0,1.27 h -5.02 l -2.4,2.4 h 7.42 a 0.63,0.63 0 1 1 0,1.26 h -8.68 l 1.26,-1.26 H 3.86 A 0.63,0.63 0 0 0 3.22,12 c 0,0.35 0.29,0.63 0.64,0.63 h 7.6 l -2.4,2.4 h 11.08 c 0.35,0 0.64,0.29 0.64,0.64 0,0.35 -0.29,0.63 -0.64,0.63 H 7.8 l 1.26,-1.26 h -5.2 a 0.63,0.63 0 0 0 -0.63,0.63 c 0,0.35 0.29,0.63 0.64,0.63 H 7.8 l -2.4,2.4 h 14.75 a 0.635,0.635 0 1 1 0,1.27 H 4.12 L 5.38,18.7 H 3.86 a 0.63,0.63 0 0 0 -0.64,0.64 c 0,0.35 0.29,0.63 0.64,0.63 H 4.12 L 1.4,22.7 c 0.16,0.1 0.31,0.21 0.52,0.21 h 20.16 c 0.55,0 0.99,-0.44 0.99,-0.98 V 2.08 c 0,-0.3 -0.14,-0.54 -0.34,-0.72 z m -7.6,7.6 1.26,-1.26 H 3.86 A 0.63,0.63 0 0 0 3.22,8.33 c 0,0.35 0.29,0.64 0.64,0.64 H 15.12 Z M 18.79,5.3 20.06,4.03 H 3.86 A 0.63,0.63 0 0 0 3.22,4.66 c 0,0.36 0.29,0.64 0.64,0.64 z"
     id="path2"
     inkscape:connector-curvature="0"
     style="opacity:0.98999999;fill:#1a1a1a;fill-rule:evenodd" />
</svg>
