<?xml version="1.0" encoding="UTF-8" standalone="no"?>
<svg
   xmlns:dc="http://purl.org/dc/elements/1.1/"
   xmlns:cc="http://creativecommons.org/ns#"
   xmlns:rdf="http://www.w3.org/1999/02/22-rdf-syntax-ns#"
   xmlns:svg="http://www.w3.org/2000/svg"
   xmlns="http://www.w3.org/2000/svg"
   xmlns:sodipodi="http://sodipodi.sourceforge.net/DTD/sodipodi-0.dtd"
   xmlns:inkscape="http://www.inkscape.org/namespaces/inkscape"
   width="24"
   height="24"
   version="1.1"
   id="svg18"
   sodipodi:docname="klines.svg"
   inkscape:version="0.92.4 (5da689c313, 2019-01-14)">
  <metadata
     id="metadata22">
    <rdf:RDF>
      <cc:Work
         rdf:about="">
        <dc:format>image/svg+xml</dc:format>
        <dc:type
           rdf:resource="http://purl.org/dc/dcmitype/StillImage" />
        <dc:title></dc:title>
      </cc:Work>
    </rdf:RDF>
  </metadata>
  <sodipodi:namedview
     pagecolor="#ffffff"
     bordercolor="#666666"
     borderopacity="1"
     objecttolerance="10"
     gridtolerance="10"
     guidetolerance="10"
     inkscape:pageopacity="0"
     inkscape:pageshadow="2"
     inkscape:window-width="1138"
     inkscape:window-height="480"
     id="namedview20"
     showgrid="false"
     inkscape:zoom="9.8333333"
     inkscape:cx="1.0677966"
     inkscape:cy="12"
     inkscape:window-x="0"
     inkscape:window-y="25"
     inkscape:window-maximized="0"
     inkscape:current-layer="svg18" />
  <defs
     id="defs12">
    <linearGradient
       id="a">
      <stop
         offset="0"
         stop-color="#2c89a0"
         id="stop2" />
      <stop
         offset="1"
         stop-color="#2c89a0"
         stop-opacity="0"
         id="stop4" />
    </linearGradient>
    <linearGradient
       id="b">
      <stop
         stop-color="#3daefd"
         id="stop7" />
      <stop
         offset="1"
         stop-color="#24a058"
         id="stop9" />
    </linearGradient>
  </defs>
  <path
     d="m 6.626,2.944 a 3.68,3.68 0 0 0 -3.683,3.678 3.68,3.68 0 0 0 7.357,0 3.674,3.674 0 0 0 -3.674,-3.678 z m 10.753,0 a 3.68,3.68 0 0 0 -3.682,3.678 3.68,3.68 0 0 0 7.36,0 3.675,3.675 0 0 0 -3.678,-3.678 z M 6.626,13.704 a 3.68,3.68 0 0 0 -3.683,3.674 3.68,3.68 0 0 0 3.683,3.677 3.677,3.677 0 0 0 0,-7.352 z"
     id="path14"
     inkscape:connector-curvature="0"
     style="fill:#666666" />
  <path
     d="m 17.38,13.702 a 3.672,3.672 0 0 1 3.676,3.676 3.68,3.68 0 0 1 -7.358,0 3.68,3.68 0 0 1 3.682,-3.676 z m 0,0"
     id="path16"
     inkscape:connector-curvature="0"
     style="fill:#1a1a1a" />
</svg>
