<?xml version="1.0" encoding="UTF-8" standalone="no"?>
<svg
   xmlns:dc="http://purl.org/dc/elements/1.1/"
   xmlns:cc="http://creativecommons.org/ns#"
   xmlns:rdf="http://www.w3.org/1999/02/22-rdf-syntax-ns#"
   xmlns:svg="http://www.w3.org/2000/svg"
   xmlns="http://www.w3.org/2000/svg"
   xmlns:sodipodi="http://sodipodi.sourceforge.net/DTD/sodipodi-0.dtd"
   xmlns:inkscape="http://www.inkscape.org/namespaces/inkscape"
   width="24"
   height="24"
   version="1.1"
   id="svg16"
   sodipodi:docname="kronometer.svg"
   inkscape:version="0.92.4 (5da689c313, 2019-01-14)">
  <metadata
     id="metadata20">
    <rdf:RDF>
      <cc:Work
         rdf:about="">
        <dc:format>image/svg+xml</dc:format>
        <dc:type
           rdf:resource="http://purl.org/dc/dcmitype/StillImage" />
        <dc:title></dc:title>
      </cc:Work>
    </rdf:RDF>
  </metadata>
  <sodipodi:namedview
     pagecolor="#ffffff"
     bordercolor="#666666"
     borderopacity="1"
     objecttolerance="10"
     gridtolerance="10"
     guidetolerance="10"
     inkscape:pageopacity="0"
     inkscape:pageshadow="2"
     inkscape:window-width="1138"
     inkscape:window-height="480"
     id="namedview18"
     showgrid="false"
     inkscape:zoom="9.8333333"
     inkscape:cx="1.0677966"
     inkscape:cy="12"
     inkscape:window-x="0"
     inkscape:window-y="25"
     inkscape:window-maximized="0"
     inkscape:current-layer="svg16" />
  <defs
     id="defs12">
    <linearGradient
       id="a">
      <stop
         offset="0"
         stop-color="#2c89a0"
         id="stop2" />
      <stop
         offset="1"
         stop-color="#2c89a0"
         stop-opacity="0"
         id="stop4" />
    </linearGradient>
    <linearGradient
       id="b">
      <stop
         stop-color="#3daefd"
         id="stop7" />
      <stop
         offset="1"
         stop-color="#24a058"
         id="stop9" />
    </linearGradient>
  </defs>
  <path
     d="m 11.313,1 c -0.35,0 -0.692,0.027 -1.032,0.063 v 2.072 c 0.34,-0.041 0.68,-0.072 1.031,-0.072 0.35,0 0.693,0.023 1.032,0.062 V 1.051 A 11.208,11.208 0 0 0 11.313,1 Z m 1.835,0.164 -0.537,2.002 a 8.924,8.924 0 0 1 1.994,0.525 l 0.538,-1.996 a 10.935,10.935 0 0 0 -1.995,-0.53 z m 2.747,0.838 -1.036,1.789 c 0.64,0.275 1.233,0.63 1.784,1.04 L 17.682,3.029 A 10.931,10.931 0 0 0 15.895,2.002 Z m -6.057,0.5 A 9.625,9.625 0 0 0 7.842,3.035 L 8.02,3.693 A 8.938,8.938 0 0 1 10.016,3.166 Z M 7.424,3.203 A 9.625,9.625 0 0 0 5.64,4.238 L 5.985,4.836 A 8.938,8.938 0 0 1 7.77,3.805 L 7.423,3.203 Z m 10.91,0.317 -1.47,1.472 a 8.929,8.929 0 0 1 1.456,1.46 L 19.793,4.979 A 11.003,11.003 0 0 0 18.334,3.519 Z M 5.281,4.51 A 9.625,9.625 0 0 0 3.818,5.963 L 4.312,6.457 A 8.938,8.938 0 0 1 5.764,4.992 L 5.28,4.51 Z m 15.002,1.12 -1.8,1.04 c 0.408,0.55 0.763,1.143 1.038,1.781 l 1.79,-1.033 A 10.931,10.931 0 0 0 20.283,5.631 Z M 3.551,6.328 A 9.625,9.625 0 0 0 2.52,8.113 L 3.111,8.457 A 8.938,8.938 0 0 1 4.151,6.674 Z M 21.617,8.17 19.621,8.707 c 0.25,0.633 0.425,1.3 0.525,1.994 l 2.002,-0.535 A 10.935,10.935 0 0 0 21.618,8.17 Z M 2.336,8.527 a 9.625,9.625 0 0 0 -0.527,1.994 l 0.671,0.18 A 8.938,8.938 0 0 1 3.012,8.707 Z M 1.754,10.969 A 9.625,9.625 0 0 0 1.687,12 c 0.002,0.344 0.02,0.689 0.06,1.031 h 0.7 A 8.938,8.938 0 0 1 2.375,12 8.93,8.93 0 0 1 2.441,10.969 Z m 18.434,0 c 0.038,0.339 0.062,0.681 0.062,1.031 0,0.35 -0.024,0.692 -0.063,1.031 h 2.075 c 0.03,-0.34 0.05,-0.682 0.05,-1.031 0,-0.348 -0.02,-0.692 -0.05,-1.031 h -2.075 z m -17.71,2.33 -0.664,0.178 a 9.625,9.625 0 0 0 0.534,1.994 L 3.006,15.293 A 8.938,8.938 0 0 1 2.479,13.299 Z m 17.668,0 a 8.901,8.901 0 0 1 -0.525,1.994 l 1.996,0.537 c 0.237,-0.64 0.416,-1.304 0.531,-1.994 z M 3.117,15.54 2.516,15.888 a 9.625,9.625 0 0 0 1.035,1.783 L 4.148,17.325 A 8.938,8.938 0 0 1 3.118,15.54 Z m 16.404,0.006 a 8.877,8.877 0 0 1 -1.039,1.783 l 1.801,1.04 a 10.931,10.931 0 0 0 1.028,-1.788 z M 4.307,17.549 3.822,18.031 a 9.625,9.625 0 0 0 1.455,1.463 L 5.771,19 A 8.938,8.938 0 0 1 4.307,17.549 Z m 14.013,0 a 8.929,8.929 0 0 1 -1.457,1.459 l 1.471,1.472 c 0.53,-0.44 1.02,-0.928 1.459,-1.459 L 18.32,17.55 Z m -12.338,1.62 -1.037,1.794 a 11,11 0 0 0 1.784,1.039 L 7.768,20.203 A 8.927,8.927 0 0 1 5.982,19.17 Z m 10.66,0 c -0.55,0.41 -1.143,0.765 -1.78,1.04 l 1.033,1.789 a 10.931,10.931 0 0 0 1.787,-1.027 L 16.642,19.17 Z M 8.02,20.306 7.48,22.312 c 0.638,0.237 1.304,0.42 1.993,0.535 l 0.539,-2.008 A 8.867,8.867 0 0 1 8.02,20.306 Z m 6.585,0.004 a 8.904,8.904 0 0 1 -1.996,0.525 l 0.537,2.002 a 10.935,10.935 0 0 0 1.995,-0.531 z m -4.324,0.562 v 2.078 c 0.34,0.032 0.684,0.051 1.031,0.051 0.35,0 0.692,-0.02 1.032,-0.05 v -2.075 a 9.108,9.108 0 0 1 -1.031,0.063 c -0.35,0 -0.693,-0.028 -1.032,-0.067 z"
     id="path14"
     inkscape:connector-curvature="0"
     style="fill:#1a1a1a" />
</svg>
