<?xml version="1.0" encoding="UTF-8" standalone="no"?>
<svg
   xmlns:dc="http://purl.org/dc/elements/1.1/"
   xmlns:cc="http://creativecommons.org/ns#"
   xmlns:rdf="http://www.w3.org/1999/02/22-rdf-syntax-ns#"
   xmlns:svg="http://www.w3.org/2000/svg"
   xmlns="http://www.w3.org/2000/svg"
   xmlns:sodipodi="http://sodipodi.sourceforge.net/DTD/sodipodi-0.dtd"
   xmlns:inkscape="http://www.inkscape.org/namespaces/inkscape"
   width="24"
   height="24"
   version="1"
   id="svg4"
   sodipodi:docname="preferences-system-details.svg"
   inkscape:version="0.92.4 (5da689c313, 2019-01-14)">
  <metadata
     id="metadata10">
    <rdf:RDF>
      <cc:Work
         rdf:about="">
        <dc:format>image/svg+xml</dc:format>
        <dc:type
           rdf:resource="http://purl.org/dc/dcmitype/StillImage" />
        <dc:title></dc:title>
      </cc:Work>
    </rdf:RDF>
  </metadata>
  <defs
     id="defs8" />
  <sodipodi:namedview
     pagecolor="#ffffff"
     bordercolor="#666666"
     borderopacity="1"
     objecttolerance="10"
     gridtolerance="10"
     guidetolerance="10"
     inkscape:pageopacity="0"
     inkscape:pageshadow="2"
     inkscape:window-width="1138"
     inkscape:window-height="480"
     id="namedview6"
     showgrid="false"
     inkscape:zoom="9.8333333"
     inkscape:cx="1.0677966"
     inkscape:cy="12"
     inkscape:window-x="0"
     inkscape:window-y="25"
     inkscape:window-maximized="0"
     inkscape:current-layer="svg4" />
  <path
     d="M 11.92,0.68 A 11.47,11.47 0 1 0 11.91,23.61 11.47,11.47 0 0 0 11.92,0.68 Z m 0,1.8 a 9.6700013,9.6700013 0 1 1 0.01,19.34 9.675,9.675 0 0 1 0,-19.35 z M 13.84,4.5 C 12.51,4.43 11.81,6.58 13.08,7.17 14.11,7.59 15.23,6.54 14.98,5.48 14.9,4.93 14.41,4.48 13.84,4.5 Z m -0.57,4.74 c -0.21,-0.01 -0.46,0.06 -0.73,0.27 -1.32,0.56 -2.41,1.5 -3.56,2.33 0.15,0.39 0.31,0.7 0.65,0.28 0.43,-0.26 1.86,-1.37 1.72,-0.28 -0.46,2 -1.02,4 -1.44,6.03 -0.45,1.1 0.56,2.1 1.62,1.39 1.12,-0.47 2.09,-1.22 3.07,-1.91 -0.13,-0.33 -0.22,-0.8 -0.6,-0.37 -0.48,0.22 -1.55,1.26 -1.75,0.4 0.41,-2.18 1.17,-4.28 1.66,-6.45 0.34,-0.75 0,-1.64 -0.64,-1.7 z"
     id="path2"
     inkscape:connector-curvature="0"
     style="fill:#1a1a1a" />
</svg>
