<svg xmlns="http://www.w3.org/2000/svg" width="24" height="24" version="1"><path d="M3 2c-.554 0-1 .446-1 1v4.053l4.008 1.85 8.586-4.817c.143-.066.3-.098.457-.092 1.066.04 1.337 1.5.355 1.92l-9 5a.998.998 0 0 1-.824-.006L2 9.256v1.797l4.008 1.85 8.586-4.817a1 1 0 0 1 .457-.092c1.066.04 1.337 1.5.355 1.92l-9 5a.998.998 0 0 1-.824-.006L2 13.256v1.797l4.008 1.85 8.586-4.817c.143-.066.3-.098.457-.092v.002c1.066.04 1.337 1.499.355 1.918l-9 5a.998.998 0 0 1-.824-.006L2 17.256V21c0 .554.446 1 1 1h18c.554 0 1-.446 1-1V3c0-.554-.446-1-1-1z" fill="#1a1a1a"/></svg>