<?xml version="1.0" encoding="UTF-8" standalone="no"?>
<svg
   xmlns:dc="http://purl.org/dc/elements/1.1/"
   xmlns:cc="http://creativecommons.org/ns#"
   xmlns:rdf="http://www.w3.org/1999/02/22-rdf-syntax-ns#"
   xmlns:svg="http://www.w3.org/2000/svg"
   xmlns="http://www.w3.org/2000/svg"
   xmlns:sodipodi="http://sodipodi.sourceforge.net/DTD/sodipodi-0.dtd"
   xmlns:inkscape="http://www.inkscape.org/namespaces/inkscape"
   width="24"
   height="24"
   version="1.1"
   id="svg11"
   sodipodi:docname="tor.svg"
   inkscape:version="0.92.4 (5da689c313, 2019-01-14)">
  <metadata
     id="metadata15">
    <rdf:RDF>
      <cc:Work
         rdf:about="">
        <dc:format>image/svg+xml</dc:format>
        <dc:type
           rdf:resource="http://purl.org/dc/dcmitype/StillImage" />
        <dc:title></dc:title>
      </cc:Work>
    </rdf:RDF>
  </metadata>
  <sodipodi:namedview
     pagecolor="#ffffff"
     bordercolor="#666666"
     borderopacity="1"
     objecttolerance="10"
     gridtolerance="10"
     guidetolerance="10"
     inkscape:pageopacity="0"
     inkscape:pageshadow="2"
     inkscape:window-width="1138"
     inkscape:window-height="480"
     id="namedview13"
     showgrid="false"
     inkscape:zoom="9.8333333"
     inkscape:cx="1.0677966"
     inkscape:cy="12"
     inkscape:window-x="0"
     inkscape:window-y="25"
     inkscape:window-maximized="0"
     inkscape:current-layer="svg11" />
  <defs
     id="defs7">
    <linearGradient
       id="a">
      <stop
         offset="0"
         id="stop2" />
      <stop
         offset="1"
         stop-opacity="0"
         id="stop4" />
    </linearGradient>
  </defs>
  <path
     d="m 21.43,10.37 c 0,0 -0.97,-5.45 -8.48,-6.12 0,0 -0.34,-0.84 -0.63,-1 0,0 1.51,-1.67 0.31,-2.32 0,0 0.4,0.76 -0.3,1.01 0,0 -0.35,-0.78 0,-1.22 0,0 -0.51,0.26 -0.6,0.67 L 11.57,0.72 c 0,0 -0.56,0.26 -0.56,0.76 L 10.77,1.1 c 0,0 -0.84,0.34 -0.89,1.64 0,0 0.05,1.5 -0.5,1.88 0,0 -6.85,1.56 -7.21,8.23 0,0 -0.55,5.92 6.63,8.35 l 1.59,0.84 c 0,0 -0.33,0.84 0.5,0.76 0,0 1.01,0.58 1.8,0.46 0,0 0.01,-0.28 -0.54,-0.2 0,0 -0.62,-0.14 -0.58,-0.56 0,0 2,0.55 1.98,0.14 0,0 1.25,0.2 0.78,-0.35 0,0 1.98,0.2 2.65,-0.46 0,0 0.17,-0.36 -0.5,0.04 0,0 -1.01,0.25 -1.48,-0.04 0,0 1.06,-0.33 0.42,-0.54 0,0 2.99,-0.3 4.12,-1.93 0,0 -0.05,-0.56 -0.5,0.17 0,0 -1.1,1.28 -3.49,1.36 l -0.2,-0.2 1.42,-0.82 c 0,0 6.8,-2.95 4.66,-9.5 z M 3.36,13.14 c -0.56,-5.52 6.7,-8.1 6.7,-8.1 -12.97,7.56 0,16 0,16 -7,-3.24 -6.7,-7.9 -6.7,-7.9 z m 7.36,-7.75 c -5.54,5.36 0.34,15.4 0.34,15.4 C 2.82,9.94 10.72,5.39 10.72,5.39 Z m 1.73,15.27 c -1.7,-10.7 -0.92,-15.4 -0.92,-15.4 2.34,6.75 0.92,15.4 0.92,15.4 z m 1.84,-0.5 c 0,0 5.77,-10.41 -1.84,-15.2 0,0 9.06,3.27 1.84,15.2 z m 0.89,-0.13 c 0,0 11.02,-9.4 -2.18,-15.4 0,0 7.13,1.52 7.34,6.91 0,0 0.92,4.45 -5.17,8.5 z"
     id="path9"
     inkscape:connector-curvature="0"
     style="fill:#1a1a1a" />
</svg>
