<svg xmlns="http://www.w3.org/2000/svg" width="24" height="24"><path d="M15.425 4.85c-.781 0-1.707.003-2.277.006l-.056.039v.41c0 .05.02.085.062.115a.22.22 0 0 0 .132.052l.18.019c.466.02.685.145.749.224.111.14.163.294-.106.897L12.5 9.905l-1.454-3.056c-.477-.977-.594-1.282.125-1.34l.287-.037c.138 0 .206-.05.206-.148v-.43l-.106-.038-3.925.007-.056.038v.43c0 .095.099.122.287.147.673.091.657.162 1.323 1.518.1.203.393.814.393.814l1.516 3.062.443 1.006-2.202 4.51-.125-.032S5.79 8.95 4.8 6.471c-.102-.257-.15-.446-.15-.564 0-.251.22-.385.662-.403l.518-.026c.136 0 .206-.054.206-.167v-.403l-.05-.045s-4.095-.005-4.942 0l-.044.046v.423c0 .077.09.126.282.146.52.03.865.115 1.03.257.163.144.337.505.567 1.07 1.244 3.067 3.886 8.543 5.172 11.66.371.85.833.984 1.398-.026.61-1.161 1.676-3.403 2.54-5.234.012-.178.012.164.168.058.807 1.823 1.78 4.019 2.321 5.163.42.888.894.973 1.379.026 1.266-2.892 4.974-11.59 4.974-11.59.16-.427.38-.755.667-.993.286-.237.727-.37 1.323-.397.122 0 .181-.056.181-.167v-.41l-.044-.044h-4.548l-.057.044v.41c0 .049.022.085.063.115a.217.217 0 0 0 .132.052l.38.019c.466.02.593.115.773.275.18.166.203.444.062.84l-4.024 9.808-.156-.045-2.558-5.362.062-.128 2.09-4.017c.244-.424.48-.804.6-.98.218-.323.34-.382.936-.41.12 0 .18-.055.18-.167v-.403l-.044-.046s-.64-.005-1.422-.005z" fill="#1a1a1a"/></svg>