<svg xmlns="http://www.w3.org/2000/svg" width="24" height="24" version="1"><defs><linearGradient id="b"><stop offset="0"/><stop offset="1" stop-opacity="0"/></linearGradient><linearGradient id="a"><stop offset="0" stop-color="#edb763"/><stop offset=".5" stop-color="#de7f32"/><stop offset="1" stop-color="#d24413"/></linearGradient><linearGradient id="c"><stop offset="0" stop-color="#f6b2ee"/><stop offset=".262" stop-color="#d979cd"/><stop offset="1" stop-color="#753da6"/></linearGradient></defs><path d="M20.95 8.045l-1.14-.292.436-.804c.078-.141.134-.638-.33-.756L6.307 2.705C4.9 2.313 4 3.287 3.758 4.21l-.793 3.087a2.092 2.092 0 0 0 1.505 2.542l3.84.982a2.306 2.306 0 0 0 1.192 2.086l-1.882 4.51H3.563V14.96a.522.522 0 1 0-1.045 0v5.96a.522.522 0 1 0 1.045 0v-2.458H7.97a.52.52 0 0 0 .482-.322l2.064-4.944c.17.045.941-.103 1.305-.318.381-.226.681-.549.882-.934l3.839.982c.348.07.496-.085.589-.256l.563-1.034s2.276.578 2.316.578a.525.525 0 0 0 .508-.392l.808-3.143a.518.518 0 0 0-.374-.634z" fill="#1a1a1a"/></svg>