<svg xmlns="http://www.w3.org/2000/svg" xmlns:xlink="http://www.w3.org/1999/xlink" width="48" height="48"><defs><linearGradient id="b"><stop offset="0"/><stop offset="1" stop-color="#020000" stop-opacity="0"/></linearGradient><linearGradient id="a"><stop offset="0" stop-color="#fff"/><stop offset="1" stop-color="#d3eefc"/></linearGradient><linearGradient xlink:href="#b" id="c" gradientUnits="userSpaceOnUse" x1="1.88" y1="3.01" x2="49.22" y2="36.33"/></defs><path d="M24 .35c-5.83 0-10.52 1.12-13.93 3.33-4.1 2.66-6.27 6.9-6.27 12.27 0 7.23 5.8 16.88 7.58 19.67a54.48 54.48 0 0 0 6.25 8.16c2.54 2.64 4.57 3.87 6.37 3.87 1.8 0 3.83-1.23 6.37-3.87 2-2.08 4.22-4.97 6.25-8.16 1.78-2.79 7.58-12.44 7.58-19.67 0-5.37-2.16-9.61-6.26-12.27C34.52 1.47 29.84.35 24 .35z" fill="#0a8"/><path d="M27.09 46.56a18 18 0 0 0 3.28-2.78c2-2.08 4.22-4.97 6.25-8.16.89-1.4 2.78-4.5 4.46-8.17a43.2 43.2 0 0 0 2.19-5.77c.38-1.3.47-2.55.62-3.81l-6.43-6.39-2.07-.47-3.1.28-5.75-5.92-1.5-.38-1.04-.1-1.98 1.13-2.35 4.9-.66 1.31-3.67-.94-2.54-.1-1.88.58-.66 1.5.56 2.17L13.27 19l1.7 1.7-1.98 1.88-2.26 3.57-.19 3.68z" opacity=".5" fill="url(#c)"/><path d="M24.1 4.28c-.84 0-2.06.42-3.25 2.36h-.24a1.92 1.92 0 0 0-1.2 3.42c-.15.47-.29.95-.4 1.46-4.33-1.44-7.7-1.34-8.85.53-.92 1.48-.24 3.76 1.92 6.4.64.78 1.32 1.52 2.04 2.22a25 25 0 0 0-2.04 2.19c-2.16 2.66-2.84 4.94-1.92 6.4.44.72 1.43 1.51 3.65 1.51h.55a1.92 1.92 0 0 0 3.68-.68l.93-.28c1.07 4.42 2.91 7.23 5.12 7.23 2.2 0 4.04-2.8 5.11-7.2 1.65.57 3.38.9 5.12.95 1.75 0 3.07-.5 3.7-1.52.74-1.16.45-2.85-.8-4.85.26-.33.4-.73.4-1.14a1.93 1.93 0 0 0-2.7-1.75l-.85-.85c.72-.69 1.4-1.42 2.04-2.19 2.16-2.66 2.84-4.94 1.92-6.4-1.16-1.86-4.5-1.96-8.82-.58-1.08-4.43-2.93-7.23-5.12-7.23zm0 1.15c1.45 0 3.02 2.44 3.98 6.44a37.4 37.4 0 0 0-3.99 1.8 37.4 37.4 0 0 0-3.98-1.77c.12-.5.24-.98.38-1.43h.13a1.93 1.93 0 0 0 1.3-3.35c.7-1.1 1.46-1.69 2.18-1.69zm10.34 6.28c1.3 0 2.21.33 2.6.95.61 1-.07 2.91-1.84 5.08-.62.74-1.28 1.45-1.98 2.12-1-.9-2.05-1.74-3.14-2.53-.1-1.56-.31-3.12-.61-4.65 1.97-.67 3.67-.98 4.97-.97zm-20.68.02c1.3 0 3 .3 4.96.95-.3 1.53-.5 3.09-.6 4.65-1.1.79-2.15 1.64-3.15 2.54-.7-.67-1.37-1.37-1.98-2.12-1.75-2.18-2.46-4.07-1.84-5.07.38-.62 1.3-.95 2.6-.95zm14.57 1.32c.21 1.06.38 2.2.5 3.41a40.38 40.38 0 0 0-3.47-2.12c1.03-.5 2.02-.94 2.97-1.3zm-8.48.01c.95.36 1.95.79 2.98 1.29a46.52 46.52 0 0 0-3.47 2.12c.11-1.2.28-2.33.5-3.41zm4.24 1.92a41.65 41.65 0 0 1 4.86 2.98 44.35 44.35 0 0 1 0 5.4v.01a46.04 46.04 0 0 1-4.86 2.98 41.68 41.68 0 0 1-4.85-2.98 44.17 44.17 0 0 1 0-5.4 43.36 43.36 0 0 1 4.85-2.99zm-6.06 3.87c0 .58-.04 1.2-.04 1.82 0 .6.01 1.21.04 1.8-.78-.59-1.51-1.2-2.2-1.8.68-.62 1.42-1.22 2.2-1.82zm12.13 0c.78.6 1.5 1.23 2.2 1.82a36.9 36.9 0 0 1-2.2 1.8 46.19 46.19 0 0 0 0-3.61zm-15.2 2.62c1 .9 2.05 1.74 3.14 2.53.1 1.56.31 3.12.61 4.65-.32.13-.64.23-.96.32a1.93 1.93 0 0 0-3.53.65c-1.56.07-2.65-.26-3.08-.95-.62-1 .07-2.91 1.84-5.08a24 24 0 0 1 1.98-2.12zm18.26.02c.29.27.56.55.82.82-.18.3-.28.64-.29.99 0 1.07.87 1.93 1.94 1.93.2 0 .4-.04.58-.1.96 1.52 1.22 2.78.77 3.54-.77 1.24-3.66 1.3-7.57 0 .3-1.53.5-3.1.6-4.66a38.71 38.71 0 0 0 3.15-2.52zm-13.86 3.37c.5.34 1 .67 1.53 1l1.93 1.16c-1 .49-2 .91-2.97 1.28a35.72 35.72 0 0 1-.5-3.44zm9.47 0a34.02 34.02 0 0 1-.5 3.41c-.95-.35-1.94-.78-2.97-1.28a50.62 50.62 0 0 0 3.47-2.12zm-4.74 2.8c1.3.67 2.63 1.26 4 1.77-.98 4.05-2.54 6.46-4 6.46s-3.02-2.44-3.98-6.47a37.9 37.9 0 0 0 3.98-1.77z" fill="#f9f9f9"/><path d="M24.1 17.96a2.7 2.7 0 1 0 0 5.41 2.7 2.7 0 0 0 0-5.41z" fill="#373e48"/><ellipse ry="1.93" rx="1.95" cy="8.55" cx="20.64" fill="maroon"/><ellipse ry="1.93" rx="1.92" cy="29.98" cx="16.11" fill="maroon"/><ellipse ry="2.17" rx="2.18" cy="23.25" cx="35.67" fill="#373e48"/><path d="M24 .35c-5.83 0-10.52 1.12-13.93 3.33-4.1 2.66-6.27 6.9-6.27 12.27 0 7.23 5.8 16.88 7.58 19.67a54.48 54.48 0 0 0 6.25 8.16c2.54 2.64 4.57 3.87 6.37 3.87 1.8 0 3.83-1.23 6.37-3.87 2-2.08 4.22-4.97 6.25-8.16 1.78-2.79 7.58-12.44 7.58-19.67 0-5.37-2.16-9.61-6.26-12.27C34.52 1.47 29.84.35 24 .35zm0 .14c2.11.09 4.12.27 5.88.7 1.16.27 2.25.62 3.26 1.03 1.01.42 1.94.9 2.8 1.46A12.92 12.92 0 0 1 40.6 8.8c.53 1.03.92 2.15 1.2 3.34.26 1.2.4 2.47.4 3.8 0 1.82-.37 3.77-.94 5.74a43.19 43.19 0 0 1-2.2 5.77 69.59 69.59 0 0 1-4.45 8.17 54.47 54.47 0 0 1-6.25 8.16 17.98 17.98 0 0 1-3.46 2.93c-.32.2-.62.3-.91.39-.3-.08-.6-.2-.9-.4-1.06-.63-2.2-1.6-3.47-2.92-2-2.08-4.22-4.97-6.25-8.16a69.6 69.6 0 0 1-4.46-8.17 43.19 43.19 0 0 1-2.19-5.77 20.93 20.93 0 0 1-.93-5.73c0-1.34.13-2.61.4-3.8.27-1.2.67-2.32 1.2-3.35a12.92 12.92 0 0 1 4.67-5.12 17.1 17.1 0 0 1 2.8-1.46c1-.41 2.1-.76 3.26-1.04C19.88.76 21.89.58 24 .5z" opacity=".2"/></svg>