<svg xmlns="http://www.w3.org/2000/svg" xmlns:xlink="http://www.w3.org/1999/xlink" width="48" height="48"><defs><linearGradient id="a"><stop offset="0" stop-color="#000006"/><stop offset="1" stop-color="#060000" stop-opacity="0"/></linearGradient><linearGradient xlink:href="#a" id="b" gradientUnits="userSpaceOnUse" x1="11.81" y1="9.46" x2="51.36" y2="32.33"/></defs><path d="M24 .35c-5.83 0-10.52 1.12-13.93 3.33-4.1 2.66-6.27 6.9-6.27 12.27 0 7.23 5.8 16.88 7.58 19.67a54.48 54.48 0 0 0 6.25 8.16c2.54 2.64 4.57 3.87 6.37 3.87 1.8 0 3.83-1.23 6.37-3.87 2-2.08 4.22-4.97 6.25-8.16 1.78-2.79 7.58-12.44 7.58-19.67 0-5.37-2.16-9.61-6.26-12.27C34.52 1.47 29.84.35 24 .35z" fill="#a02c5a"/><path d="M27.08 46.57a18 18 0 0 0 3.3-2.8c1.99-2.07 4.2-4.96 6.24-8.15.89-1.4 2.78-4.5 4.46-8.17a43.2 43.2 0 0 0 2.19-5.77c.54-1.87.86-3.73.89-5.46l-8.53-8.53-4.76 5.96-8-8-3.43-.11 3.05 4.15-9.16 3.37 2.22 4.12-3.32 11.34 1.63 4.84z" fill="url(#b)" opacity=".5"/><path d="M28.65 5.5c-3.07 0-6.14.02-9.21.04 1.21-.05 2.34 1.05 3.44 2.68a48.3 48.3 0 0 1 2.69 5.26l-3.23 1.85 9.35.9 3.94-8.54-3.26 1.87c-.88-1.8-2.01-3.3-3.72-4.07z" fill="#fff"/><path d="M19.4 6.15h-.46c-.43.09-.78.28-1.04.56a23.47 23.47 0 0 0-4.57 6.35l6.09 3.5 4.15-5.83c-.39-.73-.79-1.46-1.21-2.18-.54-.8-1.57-2.2-2.63-2.38zM35.75 16.18l-6.02 3.59.3.64.03-.05v.13l2.4 5.1c.97.04 1.95.05 2.92.04 1-.09 2.88-.32 3.46-1.28l.06-.1.23-.42c0-.2-.02-.39-.08-.57a23.49 23.49 0 0 0-3.3-7.08z" fill="#333"/><path d="M15.55 17.18l-9.25 1.7 3.4 1.58c-.96 1.76-1.53 3.54-1.18 5.38l5.34 7.52c-.73-.97-.48-2.53.22-4.37.8-1.75 1.7-3.5 2.75-5.22l3.37 1.57zM29.47 22.28L24.1 30l5.52 7.62-.04-3.75c2 .11 3.86-.14 5.37-1.25l4.48-8.06c-.56 1.08-2.08 1.53-4.04 1.69-1.93.03-3.9-.03-5.9-.24z" fill="#fff"/><path d="M15.84 26.77c-.42.81-.82 1.63-1.2 2.47-.36.94-.96 2.73-.34 3.67l.06.1.3.4c.24.17.5.27.78.31 2.98.56 5.47.41 7.82.08l-.65-6.98z" fill="#333"/><path d="M36.85 3.03c4.04 2.79 6.17 7.1 6.17 12.54 0 7.53-6.05 17.6-7.9 20.5a56.77 56.77 0 0 1-6.52 8.5 19.88 19.88 0 0 1-3.23 2.8c1.45-.46 3.06-1.65 4.96-3.63 2-2.07 4.22-4.97 6.25-8.15 1.78-2.8 7.59-12.45 7.59-19.68 0-5.37-2.17-9.61-6.27-12.27-.34-.22-.7-.41-1.05-.6zm-25.74.04l-1.04.6c-4.1 2.67-6.27 6.9-6.27 12.28 0 7.23 5.8 16.88 7.58 19.67a54.48 54.48 0 0 0 6.25 8.16c1.9 1.98 3.51 3.16 4.96 3.64-.99-.66-2.05-1.58-3.23-2.8a56.77 56.77 0 0 1-6.51-8.5c-1.86-2.91-7.9-12.98-7.9-20.51 0-5.43 2.13-9.76 6.16-12.54z" opacity=".2"/></svg>