<svg xmlns="http://www.w3.org/2000/svg" xmlns:xlink="http://www.w3.org/1999/xlink" width="48" height="48"><defs><linearGradient id="c"><stop offset="0"/><stop offset="1" stop-opacity="0"/></linearGradient><linearGradient xlink:href="#a" id="j" x1="12.74" y1="15.33" x2="15.39" y2="15.33" gradientUnits="userSpaceOnUse" gradientTransform="matrix(1.35532 0 0 1.35532 -8.53 -9.82)"/><linearGradient id="a"><stop offset="0" stop-color="#483e37"/><stop offset="1" stop-color="#ff7f2a" stop-opacity="0"/></linearGradient><linearGradient xlink:href="#b" id="i" x1="24.08" y1="30.07" x2="23.93" y2="34.79" gradientUnits="userSpaceOnUse" gradientTransform="matrix(1.35532 0 0 1.35532 -8.53 -9.82)"/><linearGradient id="b"><stop offset="0" stop-color="#a80"/><stop offset="1" stop-color="#ffe680"/></linearGradient><linearGradient xlink:href="#b" id="h" x1="23.85" y1="20.43" x2="24.11" y2="13.84" gradientUnits="userSpaceOnUse" gradientTransform="matrix(1.35532 0 0 1.35532 -8.53 -4.4)"/><linearGradient xlink:href="#b" id="g" x1="29.79" y1="23.72" x2="44.76" y2="23.82" gradientUnits="userSpaceOnUse" gradientTransform="matrix(1.35532 0 0 1.35532 -8.53 -9.82)"/><linearGradient xlink:href="#b" id="f" x1="23.25" y1="30.13" x2="22.84" y2="14.22" gradientUnits="userSpaceOnUse" gradientTransform="matrix(1.35532 0 0 1.35532 -8.53 -9.82)"/><linearGradient xlink:href="#c" id="d" gradientUnits="userSpaceOnUse" x1="15.34" y1="14.36" x2="45.55" y2="42.5"/><filter id="e" x="-.11" width="1.23" y="-.25" height="1.5" color-interpolation-filters="sRGB"><feGaussianBlur stdDeviation="1.41"/></filter></defs><path d="M24 .35c-5.83 0-10.52 1.12-13.93 3.33-4.1 2.66-6.27 6.9-6.27 12.27 0 7.23 5.8 16.88 7.58 19.67a54.48 54.48 0 0 0 6.25 8.16c2.54 2.64 4.57 3.87 6.37 3.87 1.8 0 3.83-1.23 6.37-3.87 2-2.08 4.22-4.97 6.25-8.16 1.78-2.79 7.58-12.44 7.58-19.67 0-5.37-2.16-9.61-6.26-12.27C34.52 1.47 29.84.35 24 .35z" fill="#89a02c"/><path d="M28.7 45.19c.56-.48 1.06-.77 1.67-1.41 2-2.08 4.22-4.97 6.25-8.16.89-1.4 2.78-4.5 4.46-8.17.6-1.3 1.07-2.71 1.56-4.1l-4.71-4.72-2.64 1.04-9.03 5.84-13.46-1.23-1.5.94 8.37 8.38-2.36.2z" opacity=".55" fill="url(#d)"/><path d="M23.89 17.04c-.17 0-.35.03-.5.09-.44.17-1 .95-1 .95l-3.98 1.9h-2c-3.46.1-4.41-3.37-6.98-2.85 3.08 2.4.01 5.8 2 7.6 3.39 3.09 7.9 5.65 12.28 5.72l.57-.01c3.32-.12 6.53-1.72 9.08-5.7 8.33 4.23 6.66-7.52 2.87-7.23-.88.07-1.86.78-2.87 2.47h-2.99l-4.99-1.9s-.56-.78-1-.95a1.36 1.36 0 0 0-.5-.1zm12.51 2.8a1 1.9 0 0 1 .08 0 1 1.9 0 0 1 .95 1.98v.02a1 1.9 0 0 1-1.05 1.8 1 1.9 0 0 1-.94-1.98 1 1.9 0 0 1 .96-1.82z" filter="url(#e)"/><path d="M33.27 20.48h-3c-1.03.52-2.06.93-3.08 1.22-1.02.29-2.02.45-3.02.46-1 .02-1.99-.1-2.96-.38-.98-.27-1.94-.7-2.9-1.3h-2c-3.46.1-4.4-3.38-6.97-2.86 3.08 2.4 0 5.8 2 7.61 3.39 3.08 7.9 5.65 12.28 5.71h.57c3.32-.13 6.52-1.73 9.08-5.7-.1-.66-.3-1.19-.38-1.88-.07-.7-.02-1.56.38-2.88z" fill="url(#f)"/><path d="M36.13 18c-.87.07-1.86.78-2.86 2.48a7.16 7.16 0 0 0-.38 2.88c.07.7.27 1.22.38 1.87 8.33 4.23 6.65-7.51 2.86-7.22zm.18 2.34a1 1.9 0 0 1 .07 0 1 1.9 0 0 1 .96 1.98v.01a1 1.9 0 0 1-1.05 1.81 1 1.9 0 0 1-.95-1.98 1 1.9 0 0 1 .97-1.82z" fill="url(#g)"/><path d="M18.31 20.48c.96.6 1.92 1.03 2.9 1.3.97.28 1.96.4 2.96.38 1-.01 2-.17 3.02-.46 1.02-.29 2.05-.7 3.09-1.22l-4.99-1.9s-.56-.79-1-.96a1.38 1.38 0 0 0-1 0c-.43.17-1 .95-1 .95z" fill="url(#h)"/><path d="M24.2 30.93l-.58.01-.59.03h-.73v.92l-4.99 1.9h12.97l-4.99-1.9v-.95h-1.17.07z" fill="url(#i)"/><path d="M10.33 6.2c-4.26 3 1.57 5.72 0 9.52 3.02-2.04 2.28-5.49 0-9.52z" fill="url(#j)"/><path d="M24 .35c-5.83 0-10.52 1.12-13.93 3.33-4.1 2.66-6.27 6.9-6.27 12.27 0 7.23 5.8 16.88 7.58 19.67a54.48 54.48 0 0 0 6.25 8.16c2.54 2.64 4.57 3.87 6.37 3.87 1.8 0 3.83-1.23 6.37-3.87 2-2.08 4.22-4.97 6.25-8.16 1.78-2.79 7.58-12.44 7.58-19.67 0-5.37-2.16-9.61-6.26-12.27C34.52 1.47 29.84.35 24 .35zm0 .14c2.11.09 4.12.27 5.88.7 1.16.27 2.25.62 3.26 1.03 1.01.42 1.94.9 2.8 1.46A12.92 12.92 0 0 1 40.6 8.8c.53 1.03.92 2.15 1.2 3.34.26 1.2.4 2.47.4 3.8 0 1.82-.37 3.77-.94 5.74a43.19 43.19 0 0 1-2.2 5.77 69.59 69.59 0 0 1-4.45 8.17 54.47 54.47 0 0 1-6.25 8.16 17.98 17.98 0 0 1-3.46 2.93c-.32.2-.62.3-.91.39-.3-.08-.6-.2-.9-.4-1.06-.63-2.2-1.6-3.47-2.92-2-2.08-4.22-4.97-6.25-8.16a69.6 69.6 0 0 1-4.46-8.17 43.19 43.19 0 0 1-2.19-5.77 20.93 20.93 0 0 1-.93-5.73c0-1.34.13-2.61.4-3.8.27-1.2.67-2.32 1.2-3.35a12.92 12.92 0 0 1 4.67-5.12 17.1 17.1 0 0 1 2.8-1.46c1-.41 2.1-.76 3.26-1.04C19.88.76 21.89.58 24 .5z" opacity=".2"/></svg>