<svg xmlns="http://www.w3.org/2000/svg" xmlns:xlink="http://www.w3.org/1999/xlink" width="48" height="48"><defs><linearGradient id="c"><stop offset="0" stop-color="#060000"/><stop offset="1" stop-color="#070000" stop-opacity="0"/></linearGradient><linearGradient id="b"><stop offset="0"/><stop offset="1" stop-opacity="0"/></linearGradient><linearGradient id="a"><stop offset="0" stop-color="#fff"/><stop offset="1" stop-color="#d3eefc"/></linearGradient><linearGradient xlink:href="#b" id="e" gradientUnits="userSpaceOnUse" x1="11.84" y1="6.98" x2="55.63" y2="34.66"/><linearGradient xlink:href="#c" id="d" gradientUnits="userSpaceOnUse" x1="16.64" y1="14.79" x2="54.4" y2="36.06"/></defs><path d="M37.94 3.68C34.52 1.47 29.84.34 24 .34c-5.83 0-10.52 1.13-13.94 3.34-4.1 2.66-6.26 6.9-6.26 12.27 0 7.23 5.8 16.88 7.58 19.67a54.48 54.48 0 0 0 6.25 8.16c2.54 2.64 4.57 3.88 6.37 3.88 1.8 0 3.83-1.24 6.37-3.88 2-2.08 4.22-4.97 6.25-8.16 1.78-2.79 7.58-12.44 7.58-19.67 0-5.37-2.16-9.61-6.26-12.27z" fill="#2ca089"/><path d="M27.74 46a18.1 18.1 0 0 0 2.63-2.22c2-2.08 4.22-4.97 6.25-8.16.89-1.4 2.78-4.5 4.46-8.17.84-1.83 1.62-3.8 2.19-5.77.38-1.3.46-2.53.61-3.77l-8.87-8.87-20.42 23.8z" fill="url(#d)" opacity=".5"/><ellipse ry="15.67" rx="15.58" cy="20.09" cx="23.95" fill="#fbffff"/><path d="M18.75 34.84a15.58 15.67 0 0 0 .6.22 15.58 15.67 0 0 0 1.5.4 15.58 15.67 0 0 0 1.55.23 15.58 15.67 0 0 0 1.55.08 15.58 15.67 0 0 0 1.1-.05 15.58 15.67 0 0 0 1.55-.18 15.58 15.67 0 0 0 1.52-.35 15.58 15.67 0 0 0 1.48-.5 15.58 15.67 0 0 0 1.42-.63 15.58 15.67 0 0 0 1.35-.78 15.58 15.67 0 0 0 1.26-.91 15.58 15.67 0 0 0 1.17-1.03 15.58 15.67 0 0 0 1.07-1.15 15.58 15.67 0 0 0 .94-1.25 15.58 15.67 0 0 0 .81-1.33 15.58 15.67 0 0 0 .68-1.41 15.58 15.67 0 0 0 .53-1.48 15.58 15.67 0 0 0 .39-1.51 15.58 15.67 0 0 0 .23-1.55 15.58 15.67 0 0 0 .08-1.57 15.58 15.67 0 0 0-.04-1.1 15.58 15.67 0 0 0-.19-1.56 15.58 15.67 0 0 0-.34-1.53 15.58 15.67 0 0 0-.46-1.4l-4.9-4.9-1.42 1.61-5.1-5.1-1.57.85-5.6 9.83-6.4-6.4-3.46 12.46 7.03 7.03-2.4.9z" fill="url(#e)" opacity=".55"/><path d="M20.3 17.86l6.78-11.75A14.15 14.15 0 0 0 15 8.98L20.22 18zm17.28-2.13a14.26 14.26 0 0 0-8.53-9.02l-5.21 9.02zm.37 1.42H27.29l.41.71 6.78 11.75a14.18 14.18 0 0 0 3.47-12.46zM19.07 20l-5.55-9.6a14.18 14.18 0 0 0-3.47 12.45h10.66zm-8.65 4.27a14.26 14.26 0 0 0 8.53 9.02l5.21-9.02zm16.04 0l-5.55 9.62A14.15 14.15 0 0 0 33 31.03l-5.21-9.04z" fill="#164450"/><path d="M3.92 14.74c-.02.4-.13.78-.13 1.2 0 7.24 5.81 16.9 7.6 19.68a54.48 54.48 0 0 0 6.24 8.16c2.54 2.64 4.56 3.87 6.37 3.87 1.8 0 3.83-1.23 6.37-3.87 2-2.08 4.21-4.97 6.25-8.16 1.78-2.79 7.58-12.44 7.58-19.67 0-.43-.1-.8-.13-1.21a21.6 21.6 0 0 1-.8 4.94 43.2 43.2 0 0 1-2.2 5.77 69.59 69.59 0 0 1-4.45 8.17 54.47 54.47 0 0 1-6.25 8.16 17.98 17.98 0 0 1-3.46 2.93c-1.05.64-2 .94-2.91.94-.9 0-1.86-.3-2.9-.94-1.06-.64-2.2-1.6-3.47-2.93-2-2.08-4.22-4.97-6.25-8.16a69.6 69.6 0 0 1-4.46-8.17 43.2 43.2 0 0 1-2.19-5.77 21.6 21.6 0 0 1-.8-4.94z" opacity=".5"/></svg>