<?xml version="1.0" encoding="UTF-8" standalone="no"?><svg xmlns:dc="http://purl.org/dc/elements/1.1/" xmlns:cc="http://creativecommons.org/ns#" xmlns:rdf="http://www.w3.org/1999/02/22-rdf-syntax-ns#" xmlns="http://www.w3.org/2000/svg" xmlns:xlink="http://www.w3.org/1999/xlink" width="48" height="48"><metadata><rdf:RDF><cc:Work><dc:format>image/svg+xml</dc:format><dc:type rdf:resource="http://purl.org/dc/dcmitype/StillImage"/><dc:title/></cc:Work></rdf:RDF></metadata><defs><linearGradient id="v"><stop offset="0" stop-color="#1c2422"/><stop offset="1" stop-color="#1c2422" stop-opacity="0"/></linearGradient><linearGradient id="i"><stop offset="0" stop-color="#1c2422"/><stop offset="1" stop-color="#1c2422" stop-opacity="0"/></linearGradient><linearGradient id="j"><stop offset="0" stop-color="#1c2422" stop-opacity=".63"/><stop offset=".5" stop-color="#1c2422" stop-opacity=".59"/><stop offset=".74" stop-color="#1c2422" stop-opacity="0"/><stop offset="1" stop-color="#1c2422" stop-opacity=".39"/></linearGradient><linearGradient id="k"><stop offset="0" stop-color="#1c2422"/><stop offset="1" stop-color="#1c2422" stop-opacity="0"/></linearGradient><linearGradient id="h"><stop offset="0" stop-color="#1c2422"/><stop offset="1" stop-color="#1c2422" stop-opacity="0"/></linearGradient><linearGradient id="a"><stop stop-color="#241c1c" offset="0"/><stop stop-opacity="0" stop-color="#1a1a1a" offset="1"/></linearGradient><linearGradient id="g"><stop offset="0" stop-color="#1c2422" stop-opacity=".71"/><stop offset=".32" stop-color="#1c2422" stop-opacity=".78"/><stop offset=".52" stop-color="#1c2422" stop-opacity=".86"/><stop offset=".75" stop-color="#1c2422" stop-opacity=".94"/><stop offset="1" stop-color="#1c2422"/></linearGradient><linearGradient id="f"><stop offset="0" stop-color="#1c2422" stop-opacity=".33"/><stop offset=".14" stop-color="#1c2422" stop-opacity=".71"/><stop offset=".32" stop-color="#1c2422" stop-opacity=".78"/><stop offset=".59" stop-color="#1c2422" stop-opacity=".9"/><stop offset="1" stop-color="#1c2422"/></linearGradient><linearGradient id="e"><stop offset="0" stop-color="#1c2422"/><stop offset=".54" stop-color="#1c2422"/><stop offset="1" stop-color="#fff"/></linearGradient><linearGradient id="d"><stop offset="0" stop-color="#00000a"/><stop offset="1" stop-color="#000004" stop-opacity="0"/></linearGradient><linearGradient id="c"><stop offset="0" stop-color="#fff" stop-opacity=".33"/><stop offset="1" stop-color="#fff" stop-opacity=".6"/></linearGradient><linearGradient id="b"><stop offset="0" stop-color="#1c2422"/><stop offset="1" stop-color="#1c2422" stop-opacity="0"/></linearGradient><linearGradient gradientTransform="matrix(-1 0 0 1 47.99 -.03)" xlink:href="#b" id="C" x1="17.01" y1="39.68" x2="17.1" y2="45.57" gradientUnits="userSpaceOnUse"/><radialGradient xlink:href="#e" id="x" cx="24.14" cy="26.11" fx="24.14" fy="26.11" r="17.71" gradientTransform="matrix(1.46138 -.00512 .00345 .98428 -11.23 .47)" gradientUnits="userSpaceOnUse"/><radialGradient xlink:href="#f" id="A" gradientUnits="userSpaceOnUse" gradientTransform="matrix(.36777 0 0 .5503 18.66 16.54)" cx="14.9" cy="45.58" fx="14.9" fy="45.58" r="12.64"/><radialGradient xlink:href="#g" id="D" gradientUnits="userSpaceOnUse" gradientTransform="matrix(-.04676 -.37688 -.5122 .06355 42.39 39.05)" cx="20.27" cy="43.52" fx="20.27" fy="43.52" r="12.64"/><linearGradient id="l"><stop offset="0" stop-color="#fff"/><stop offset="1" stop-color="#fff" stop-opacity=".05"/></linearGradient><linearGradient xlink:href="#h" id="B" x1="16.75" y1="39.38" x2="16.73" y2="45.46" gradientUnits="userSpaceOnUse"/><radialGradient xlink:href="#i" id="E" cx="9.97" cy="39.63" fx="9.97" fy="39.63" r="4.55" gradientTransform="matrix(1.01328 -.28794 .4997 1.75851 -19.94 -26.88)" gradientUnits="userSpaceOnUse"/><radialGradient xlink:href="#j" id="K" cx="24.17" cy="43.47" fx="24.17" fy="43.47" r="16.61" gradientTransform="matrix(1.47548 0 0 1.13984 -11.5 -8.18)" gradientUnits="userSpaceOnUse"/><radialGradient xlink:href="#k" id="H" cx="9.97" cy="39.63" fx="9.97" fy="39.63" r="4.55" gradientTransform="matrix(-1.01328 -.28794 -.4997 1.75851 67.94 -26.88)" gradientUnits="userSpaceOnUse"/><radialGradient xlink:href="#l" id="I" cx="24" cy="12" fx="24" fy="12" r="9.99" gradientTransform="matrix(1.4544 0 0 1.07407 -10.9 1.11)" gradientUnits="userSpaceOnUse"/><filter id="G" x="-.11" width="1.22" y="-.05" height="1.1" color-interpolation-filters="sRGB"><feGaussianBlur stdDeviation=".41"/></filter><filter id="F" x="-.12" width="1.23" y="-.05" height="1.1" color-interpolation-filters="sRGB"><feGaussianBlur stdDeviation=".41"/></filter><linearGradient id="m"><stop offset="0" stop-color="#ccc"/><stop offset="1" stop-color="#fff"/></linearGradient><linearGradient id="n"><stop offset="0" stop-color="#020000"/><stop offset="1" stop-color="#020000" stop-opacity="0"/></linearGradient><linearGradient id="o"><stop offset="0" stop-color="#1a1a1a"/><stop stop-color="#333" offset=".23"/><stop offset=".51" stop-color="#666"/><stop stop-color="#333" offset=".71"/><stop offset="1" stop-color="#1a1a1a"/></linearGradient><linearGradient id="p"><stop offset="0" stop-color="#22241c"/><stop offset="1" stop-color="#1a1a1a" stop-opacity="0"/></linearGradient><linearGradient id="q"><stop offset="0" stop-color="#000008"/><stop offset="1" stop-opacity="0"/></linearGradient><filter id="z" x="-.04" width="1.09" y="-.09" height="1.18" color-interpolation-filters="sRGB"><feGaussianBlur stdDeviation=".47"/></filter><linearGradient id="r"><stop offset="0" stop-color="#1a1a1a"/><stop offset="1" stop-color="#4d4d4d"/></linearGradient><linearGradient id="s"><stop offset="0" stop-color="#000008"/><stop offset="1" stop-color="#0b0000" stop-opacity="0"/></linearGradient><linearGradient id="t"><stop offset="0"/><stop offset="1" stop-color="#010000" stop-opacity="0"/></linearGradient><radialGradient xlink:href="#g" id="J" gradientUnits="userSpaceOnUse" gradientTransform="matrix(.04676 -.37688 .5122 .06355 5.61 39.05)" cx="20.27" cy="43.52" fx="20.27" fy="43.52" r="12.64"/><linearGradient id="u"><stop offset="0" stop-color="#3e4837"/><stop offset="1" stop-color="#447821"/></linearGradient><linearGradient xlink:href="#v" id="y" x1="10.05" y1="26.45" x2="10.43" y2="39.39" gradientUnits="userSpaceOnUse"/><linearGradient xlink:href="#w" id="M" y1="58" y2="36" gradientUnits="userSpaceOnUse" x2="0" gradientTransform="matrix(-.57692 0 0 .57692 55.55 -2.65)"/><linearGradient id="w"><stop stop-color="#2a2c2f"/><stop offset="1" stop-color="#424649"/></linearGradient><linearGradient xlink:href="#w" id="L" y1="58" y2="36" x2="0" gradientUnits="userSpaceOnUse" gradientTransform="matrix(.57692 0 0 .57692 -10.8 -2.65)"/></defs><path d="M6.3 15.44A24.96 24.96 0 0 0 24 39.33a24.96 24.96 0 0 0 17.7-23.88H6.3z" fill="url(#x)"/><path d="M21.01.13C16.88.25 8.36 2.16 6.3 15.44a9.62 9.62 0 0 0 2.66 6.66 4.06 4.06 0 0 1 .54 5.01l-.01.02a2.85 2.85 0 0 0-.43 1.75c.07.95.86 2.57-.05 2.85-.61.2-.5-1.58-1.13-1.52-.4.04-.38.63-.46 1.08a1.7 1.7 0 0 0 0 .57 19.98 19.98 0 0 0 3.02 7.53.8.8 0 0 0 .77.34 20.28 20.28 0 0 1 3.94-.07c.91.07 1.53.97 1.3 1.85l-.62 2.3c-.54 2.02 1.34 1.41 2.81 2.89 1.4 1.4 3.38 1.15 5.37 1.15 1.96 0 3.94.28 5.37-1.15 1.48-1.48 3.35-.86 2.82-2.88l-.62-2.31a1.47 1.47 0 0 1 1.3-1.85 20.25 20.25 0 0 1 3.94.07.8.8 0 0 0 .77-.34 19.98 19.98 0 0 0 3-7.53 1.69 1.69 0 0 0 0-.56c-.07-.46-.05-1.05-.44-1.09-.63-.06-.53 1.71-1.14 1.52-.91-.28-.12-1.9-.05-2.85a2.85 2.85 0 0 0-.43-1.75l-.01-.02a4.07 4.07 0 0 1 .54-5.02 9.62 9.62 0 0 0 2.66-6.65C38.95-2.26 24.72.24 24.72.24h-1.44s-.89-.15-2.27-.1z" fill="#b7c8c4"/><path d="M17.97 26.38c-.22 0-.45.02-.7.05 0 0-3.95 0-5.71 3.8-.74 2.65.73 4.7 1.76 4.55 1.02-.15 6.6-1.17 7.18-3.66.55-2.34.71-4.8-2.53-4.74zm12.06 0c-3.24-.07-3.08 2.4-2.53 4.74.59 2.49 6.16 3.51 7.19 3.66 1.02.15 2.49-1.9 1.75-4.54-1.76-3.82-5.71-3.81-5.71-3.81a7.7 7.7 0 0 0-.7-.05zm-6.3 4.37s-4.62 6.6-1.98 8.14h4.83c2.63-1.54-1.98-8.14-1.98-8.14z" opacity=".75" fill="url(#y)" filter="url(#z)"/><path d="M24.6 32.12s4.61 6.6 1.97 8.14h-4.83c-2.63-1.54 1.98-8.14 1.98-8.14z" fill="url(#A)"/><path d="M15.48 39.68c.3.1.55.38.72.63.24.34.34.78.22 1.22l-.62 2.31c-.13.5-.12.84 0 1.1.13.24.36.4.65.54.58.28 1.4.51 2.12 1.22h.06c-.35-3.62.44-6.6-3.15-7.02z" opacity=".97" fill="url(#B)"/><path d="M32.5 39.66c-.3.1-.54.37-.72.62a1.48 1.48 0 0 0-.21 1.23l.61 2.3c.14.5.12.85 0 1.1-.13.25-.36.4-.65.55-.57.27-1.39.5-2.12 1.21h-.05c.35-3.62-.44-6.6 3.15-7.01z" fill="url(#C)"/><path d="M17.27 27.8s-3.96 0-5.71 3.8c-.74 2.65.73 4.7 1.75 4.55 1.03-.15 6.6-1.17 7.19-3.66.58-2.5.73-5.14-3.23-4.7z" fill="url(#D)"/><path d="M7.57 30.54c-.08.22-.11.5-.16.75a1.7 1.7 0 0 0 0 .57 19.98 19.98 0 0 0 3.02 7.53.8.8 0 0 0 .77.34 20.28 20.28 0 0 1 3.94-.07c.47.04.84.3 1.08.65l.21-.8a1.48 1.48 0 0 0-1.29-1.85 20.28 20.28 0 0 0-1.92-.06 20.28 20.28 0 0 0-2.02.13.8.8 0 0 1-.09 0 .8.8 0 0 1-.08 0 .8.8 0 0 1-.08 0 .8.8 0 0 1-.08-.02.8.8 0 0 1-.07-.03.8.8 0 0 1-.08-.03.8.8 0 0 1-.07-.04.8.8 0 0 1-.06-.05.8.8 0 0 1-.06-.05.8.8 0 0 1-.06-.06.8.8 0 0 1-.04-.06 19.98 19.98 0 0 1-.1-.15 19.98 19.98 0 0 1-1-1.72 19.98 19.98 0 0 1-.83-1.82 19.98 19.98 0 0 1-.64-1.9 19.98 19.98 0 0 1-.29-1.26z" opacity=".5" fill="url(#E)"/><path d="M32.57 23.96c.79.1 1.47.3 2.24.61a12.4 12.4 0 0 1 3.14 1.87 4.01 4.01 0 0 1-.32-1.9c.09-.8.44-1.6 1.04-2.22l.02-.02a8.79 8.79 0 0 0 2.4-6.02v-.01a23.52 23.52 0 0 0-1.26-4.74c-.16-.42-.33-.78-.5-1.16-.43-.93-.9-1.77-1.4-2.5-.2-.28-.39-.58-.6-.84-.24-.3-.52-.5-.77-.77l.03.09a17.9 17.9 0 0 1 .83 5.52 18.85 18.85 0 0 1-.97 5.93 17.04 17.04 0 0 1-1.92 3.88 14.48 14.48 0 0 1-1.76 2.12c-.1.1.1-.09 0 0z" opacity=".25" fill="#374845" filter="url(#F)"/><path d="M11.94 5.65c-.32.3-.65.53-.95.88-.62.7-1.2 1.5-1.72 2.44-.53.93-1 2-1.4 3.2a25.3 25.3 0 0 0-.97 4.07 8.8 8.8 0 0 0 2.42 6.07c.6.63.96 1.41 1.05 2.22.07.6-.07 1.33-.32 1.92a12.2 12.2 0 0 1 5.65-2.56c-.19-.17-.25-.19-.44-.37a13.88 13.88 0 0 1-2.43-3.43 16.53 16.53 0 0 1-1.5-4.17 18.45 18.45 0 0 1-.2-7.12 18.33 18.33 0 0 1 .81-3.15z" opacity=".25" fill="#374845" filter="url(#G)"/><path d="M40.43 30.54c.08.22.12.5.16.75.03.2.03.38 0 .57a19.98 19.98 0 0 1-3.01 7.53.8.8 0 0 1-.77.34 20.28 20.28 0 0 0-3.95-.07c-.47.03-.84.3-1.08.65l-.21-.8a1.48 1.48 0 0 1 1.29-1.85 20.28 20.28 0 0 1 1.92-.06 20.28 20.28 0 0 1 2.03.13.8.8 0 0 0 .08 0 .8.8 0 0 0 .08 0 .8.8 0 0 0 .08 0 .8.8 0 0 0 .08-.02.8.8 0 0 0 .08-.03.8.8 0 0 0 .07-.03.8.8 0 0 0 .07-.04.8.8 0 0 0 .06-.05.8.8 0 0 0 .06-.05.8.8 0 0 0 .06-.06.8.8 0 0 0 .05-.07 19.98 19.98 0 0 0 .09-.14 19.98 19.98 0 0 0 1-1.72 19.98 19.98 0 0 0 .83-1.82 19.98 19.98 0 0 0 .64-1.9 19.98 19.98 0 0 0 .3-1.26z" opacity=".5" fill="url(#H)"/><ellipse ry="10.73" rx="14.53" cy="14" cx="24" opacity=".62" fill="url(#I)"/><path d="M30.73 27.8s3.96 0 5.71 3.8c.74 2.65-.73 4.7-1.75 4.55-1.03-.15-6.6-1.17-7.19-3.66-.58-2.5-.73-5.14 3.23-4.7z" fill="url(#J)"/><path d="M9.6 26.62c-.07.16-.01.34-.11.49l-.01.02a2.85 2.85 0 0 0-.43 1.75c.07.95.86 2.57-.05 2.85-.61.19-.51-1.58-1.14-1.52-.39.04-.37.63-.45 1.08-.03.2-.03.38 0 .57a19.98 19.98 0 0 0 3.01 7.53.8.8 0 0 0 .77.34 20.28 20.28 0 0 1 3.95-.07c.91.07 1.53.97 1.29 1.85l-.62 2.3c-.53 2.02 1.34 1.41 2.82 2.89 1.4 1.4 3.38 1.15 5.37 1.15 1.96 0 3.94.28 5.37-1.15 1.47-1.48 3.35-.86 2.81-2.88l-.61-2.31a1.47 1.47 0 0 1 1.29-1.85 20.25 20.25 0 0 1 3.95.07.8.8 0 0 0 .77-.34 19.98 19.98 0 0 0 3-7.53 1.69 1.69 0 0 0 0-.56c-.07-.46-.05-1.05-.45-1.09-.62-.06-.52 1.71-1.13 1.52-.91-.28-.12-1.9-.05-2.85a2.85 2.85 0 0 0-.43-1.75l-.01-.02c-.07-.1-.03-.23-.08-.34l-.17-.14a13.62 13.62 0 0 0-3.45-2.06 10.16 10.16 0 0 0-3.72-.78 8.08 8.08 0 0 0-5.36 1.94c-.55.45-1.07 1-1.56 1.63-.5-.64-1.02-1.18-1.58-1.63a8.52 8.52 0 0 0-5.51-1.93c-1.3 0-2.6.28-3.84.77-1.24.49-2.43 1.2-3.5 2.06z" opacity=".4" fill="url(#K)"/><path d="M24.18 0C11.9 0 2 6.74 2 15.08v4.39c0 .35.4.63.92.63h1.85c.51 0 .92-.28.92-.63V13.81c0-6.95 8.25-12.55 18.5-12.55 10.23 0 18.48 5.6 18.48 12.55V19.46c0 .35.41.63.92.63h1.85c.51 0 .93-.28.93-.63v-4.39C46.37 6.73 36.47 0 24.18 0z" fill="#2c5aa0"/><g transform="translate(8.85 .72)"><rect width="1.15" x="-5.6" y="19.28" rx="0" height="2.31" fill="#8ca5ad"/><path d="M-1.56 18.12s-1.73 0-1.73 1.16c0 0-1.16 2.88-2.89 2.88a.58.58 0 0 0-.57.58v3.46c0 .32.25.58.57.58 1.73 0 2.89 2.88 2.89 2.88 0 1.15 1.73 1.15 1.73 1.15H-1s1.74 0 1.74-1.15V19.28C.75 18.12-1 18.12-1 18.12z" fill="url(#L)"/><rect width="1.15" x="-5.6" y="21.01" rx="1" height="7.5" ry="1" fill="#afc0c6"/><circle cx="-5.02" cy="24.47" r=".58" fill="#2b2d30"/><path d="M-2.72 18.4c-.31.16-.57.43-.57.88v10.38c0 .44.26.72.57.88V18.41v-.02z" fill="#afc0c6"/></g><g transform="translate(-5.76 .73)"><path d="M46.32 18.12s1.73 0 1.73 1.16c0 0 1.16 2.88 2.89 2.88.32 0 .57.26.57.58v3.46c0 .32-.25.58-.57.58-1.73 0-2.89 2.88-2.89 2.88 0 1.15-1.73 1.15-1.73 1.15h-.57s-1.74 0-1.74-1.15V19.28c0-1.16 1.74-1.16 1.74-1.16z" fill="url(#M)"/><rect width="1.15" x="-50.94" y="19.28" rx="0" height="2.31" transform="scale(-1 1)" fill="#8ca5ad"/><rect width="1.15" x="-50.94" y="21.01" rx="1" height="7.5" transform="scale(-1 1)" ry="1" fill="#afc0c6"/><circle cx="-50.36" cy="24.47" r=".58" transform="scale(-1 1)" fill="#2b2d30"/><path d="M47.48 18.4c.32.16.57.43.57.88v10.38c0 .44-.25.72-.57.88V18.41v-.02z" fill="#afc0c6"/></g></svg>