<?xml version="1.0" encoding="UTF-8" standalone="no"?>
<!-- Generator: Adobe Illustrator 19.0.0, SVG Export Plug-In . SVG Version: 6.00 Build 0)  -->

<svg
   xmlns:dc="http://purl.org/dc/elements/1.1/"
   xmlns:cc="http://creativecommons.org/ns#"
   xmlns:rdf="http://www.w3.org/1999/02/22-rdf-syntax-ns#"
   xmlns:svg="http://www.w3.org/2000/svg"
   xmlns="http://www.w3.org/2000/svg"
   xmlns:xlink="http://www.w3.org/1999/xlink"
   xmlns:sodipodi="http://sodipodi.sourceforge.net/DTD/sodipodi-0.dtd"
   xmlns:inkscape="http://www.inkscape.org/namespaces/inkscape"
   version="1.1"
   id="Capa_1"
   x="0px"
   y="0px"
   viewBox="0 0 48 48"
   xml:space="preserve"
   sodipodi:docname="ardour.svg"
   width="48"
   height="48"
   inkscape:version="0.92.3 (2405546, 2018-03-11)"><metadata
   id="metadata41"><rdf:RDF><cc:Work
       rdf:about=""><dc:format>image/svg+xml</dc:format><dc:type
         rdf:resource="http://purl.org/dc/dcmitype/StillImage" /><dc:title /></cc:Work></rdf:RDF></metadata><defs
   id="defs39"><linearGradient
     id="linearGradient914"
     inkscape:collect="always"><stop
       id="stop910"
       offset="0"
       style="stop-color:#008080;stop-opacity:0.506" /><stop
       id="stop912"
       offset="1"
       style="stop-color:#008080;stop-opacity:0;" /></linearGradient><linearGradient
     inkscape:collect="always"
     id="linearGradient893"><stop
       style="stop-color:#17280b;stop-opacity:1;"
       offset="0"
       id="stop889" /><stop
       style="stop-color:#17280b;stop-opacity:0;"
       offset="1"
       id="stop891" /></linearGradient><linearGradient
     inkscape:collect="always"
     xlink:href="#linearGradient893"
     id="linearGradient895"
     x1="16.544922"
     y1="25.792969"
     x2="43.916016"
     y2="25.792969"
     gradientUnits="userSpaceOnUse" /><linearGradient
     inkscape:collect="always"
     xlink:href="#linearGradient914"
     id="linearGradient901"
     x1="23.166525"
     y1="26.23044"
     x2="23.184908"
     y2="30.158495"
     gradientUnits="userSpaceOnUse"
     gradientTransform="matrix(0.95234791,0,0,0.90663796,0.62794651,2.6841587)" /><linearGradient
     inkscape:collect="always"
     xlink:href="#linearGradient914"
     id="linearGradient903"
     x1="4.7547169"
     y1="10.203773"
     x2="41.615093"
     y2="29.04151"
     gradientUnits="userSpaceOnUse" /></defs><sodipodi:namedview
   pagecolor="#ffffff"
   bordercolor="#666666"
   borderopacity="1"
   objecttolerance="10"
   gridtolerance="10"
   guidetolerance="10"
   inkscape:pageopacity="0"
   inkscape:pageshadow="2"
   inkscape:window-width="1366"
   inkscape:window-height="719"
   id="namedview37"
   showgrid="false"
   showguides="false"
   inkscape:guide-bbox="true"
   inkscape:zoom="10.541667"
   inkscape:cx="24"
   inkscape:cy="24"
   inkscape:window-x="0"
   inkscape:window-y="25"
   inkscape:window-maximized="1"
   inkscape:current-layer="Capa_1"
   inkscape:snap-global="true"
   inkscape:object-paths="true" />


<g
   id="g6"
   transform="translate(0,-464)">
</g>
<g
   id="g8"
   transform="translate(0,-464)">
</g>
<g
   id="g10"
   transform="translate(0,-464)">
</g>
<g
   id="g12"
   transform="translate(0,-464)">
</g>
<g
   id="g14"
   transform="translate(0,-464)">
</g>
<g
   id="g16"
   transform="translate(0,-464)">
</g>
<g
   id="g18"
   transform="translate(0,-464)">
</g>
<g
   id="g20"
   transform="translate(0,-464)">
</g>
<g
   id="g22"
   transform="translate(0,-464)">
</g>
<g
   id="g24"
   transform="translate(0,-464)">
</g>
<g
   id="g26"
   transform="translate(0,-464)">
</g>
<g
   id="g28"
   transform="translate(0,-464)">
</g>
<g
   id="g30"
   transform="translate(0,-464)">
</g>
<g
   id="g32"
   transform="translate(0,-464)">
</g>
<g
   id="g34"
   transform="translate(0,-464)">
</g>
<path
   style="fill:#165044;fill-opacity:1;stroke-width:0.0924025"
   d="m 23.712891,0.49414062 c -5.833461,0 -10.522199,1.12037698 -13.935547,3.33203098 C 5.676151,6.483576 3.507813,10.727685 3.507813,16.097656 c 0,7.226706 5.806265,16.88549 7.585937,19.673828 2.031747,3.183081 4.250107,6.079782 6.246094,8.15625 2.542362,2.644283 4.56815,3.875 6.373047,3.875 1.804991,0 3.829009,-1.230625 6.371093,-3.875 1.995894,-2.076376 4.214348,-4.973077 6.246094,-8.15625 C 38.10975,32.983238 43.916016,23.324362 43.916016,16.097656 43.916108,10.727777 41.749814,6.483668 37.648438,3.8261716 34.235274,1.6145176 29.546261,0.49414062 23.712891,0.49414062 Z"
   id="path24-3-6"
   inkscape:connector-curvature="0" /><path
   style="fill:#000000;fill-opacity:1;stroke:none;stroke-width:1px;stroke-linecap:butt;stroke-linejoin:miter;stroke-opacity:1;opacity:0.2"
   d="m 29.833984,44.138672 c 0.09033,-0.09168 0.158342,-0.115591 0.25,-0.210938 1.995894,-2.076376 4.214348,-4.973077 6.246094,-8.15625 0.889836,-1.394123 2.786912,-4.505286 4.460938,-8.171875 0.837012,-1.833294 1.617308,-3.806142 2.189453,-5.771484 0.525919,-1.806554 0.806395,-3.585164 0.859375,-5.267578 L 24,3.25 15.757812,22.732422 12,28.75 Z"
   id="path857"
   inkscape:connector-curvature="0" /><path
   inkscape:connector-curvature="0"
   style="fill:#f9f9f9;stroke-width:0.07248753"
   d="m 20.026455,23.473084 c -0.309238,0.02209 -0.620363,0.05356 -0.944908,0.155829 V 28.75 h 0.944908 z m 0.915147,0.06905 v 5.207856 h 0.915146 V 23.825463 C 21.570735,23.65944 21.253733,23.610154 20.941602,23.542137 Z m -2.866345,0.547172 c -0.304928,0.16002 -0.604532,0.274248 -0.915147,0.488739 V 28.75 h 0.915147 z m 4.787781,0.159374 V 28.75 h 0.974668 v -4.086954 c -0.324869,-0.145183 -0.650089,-0.247631 -0.974668,-0.414362 z m 1.921437,0.816329 V 28.75 h 0.913285 v -3.295415 c -0.304839,-0.111657 -0.608532,-0.268214 -0.913285,-0.389572 z m -8.569272,0.407279 c -0.316981,0.274172 -0.627596,0.690936 -0.944908,1.019972 V 28.75 h 0.944908 z m 10.459086,0.396654 V 28.75 h 0.944908 v -2.4844 c -0.315261,-0.10946 -0.629556,-0.286773 -0.944908,-0.396654 z m 1.921437,0.763205 V 28.75 h 0.915146 v -1.772548 c -0.304934,-0.119585 -0.609957,-0.234673 -0.915146,-0.345301 z m 1.889815,0.740184 V 28.75 h 0.915147 1.68707 c -0.560764,-0.366206 -1.124455,-0.610605 -1.68707,-0.892471 -0.305349,-0.152979 -0.60937,-0.3506 -0.915147,-0.485194 z M 14.264006,27.577745 C 13.902617,28.019997 13.531182,28.242173 13.177734,28.75 h 1.086272 z"
   id="path927" /><path
   inkscape:connector-curvature="0"
   style="fill:#f9f9f9;stroke-width:0.0924025"
   d="m 24,3.25 12,25.5 C 31.527853,25.483855 27.000881,25.124617 22.507812,22.125 19.665161,20.227217 15.612465,22.945463 12,28.75 Z"
   id="path2-6" /><path
   inkscape:connector-curvature="0"
   style="opacity:1;fill:url(#linearGradient901);fill-opacity:1;stroke-width:0.07248753"
   d="m 20.026455,23.473084 c -0.309238,0.02209 -0.620363,0.05356 -0.944908,0.155829 V 28.75 h 0.944908 z m 0.915147,0.06905 v 5.207856 h 0.915146 V 23.825463 C 21.570735,23.65944 21.253733,23.610154 20.941602,23.542137 Z m -2.866345,0.547172 c -0.304928,0.16002 -0.604532,0.274248 -0.915147,0.488739 V 28.75 h 0.915147 z m 4.787781,0.159374 V 28.75 h 0.974668 v -4.086954 c -0.324869,-0.145183 -0.650089,-0.247631 -0.974668,-0.414362 z m 1.921437,0.816329 V 28.75 h 0.913285 v -3.295415 c -0.304839,-0.111657 -0.608532,-0.268214 -0.913285,-0.389572 z m -8.569272,0.407279 c -0.316981,0.274172 -0.627596,0.690936 -0.944908,1.019972 V 28.75 h 0.944908 z m 10.459086,0.396654 V 28.75 h 0.944908 v -2.4844 c -0.315261,-0.10946 -0.629556,-0.286773 -0.944908,-0.396654 z m 1.921437,0.763205 V 28.75 h 0.915146 v -1.772548 c -0.304934,-0.119585 -0.609957,-0.234673 -0.915146,-0.345301 z m 1.889815,0.740184 V 28.75 h 0.915147 1.68707 c -0.560764,-0.366206 -1.124455,-0.610605 -1.68707,-0.892471 -0.305349,-0.152979 -0.60937,-0.3506 -0.915147,-0.485194 z M 14.264006,27.577745 C 13.902617,28.019997 13.531182,28.242173 13.177734,28.75 h 1.086272 z"
   id="path927-6" /><path
   inkscape:connector-curvature="0"
   style="opacity:0.5;fill:url(#linearGradient903);fill-opacity:1.0;stroke-width:0.0924025"
   d="m 24,3.25 12,25.5 C 31.527853,25.483855 27.000881,25.124617 22.507812,22.125 19.665161,20.227217 15.612465,22.945463 12,28.75 Z"
   id="path2-6-7" /><path
   style="opacity:0.3;fill:#000000;fill-opacity:1;stroke-width:0.0924025"
   d="M 23.712891 0.49414062 C 23.031122 0.49414062 22.369015 0.51239294 21.71875 0.54296875 C 21.71684 0.54305854 21.7148 0.54287875 21.712891 0.54296875 C 16.801687 0.77447968 12.790595 1.8737574 9.7773438 3.8261719 C 5.6761507 6.4835759 3.5078125 10.727685 3.5078125 16.097656 C 3.5078125 23.324362 9.314078 32.983146 11.09375 35.771484 C 13.125497 38.954565 15.343857 41.851266 17.339844 43.927734 C 18.988407 45.642387 20.418119 46.752347 21.712891 47.328125 C 22.002481 47.456904 22.28372 47.554047 22.560547 47.628906 C 22.66691 47.658448 22.772284 47.685307 22.876953 47.707031 C 22.955907 47.722834 23.035244 47.740583 23.113281 47.751953 C 23.315492 47.782695 23.516509 47.802734 23.712891 47.802734 C 23.909283 47.802734 24.11026 47.782696 24.3125 47.751953 C 24.390526 47.740584 24.469891 47.722833 24.548828 47.707031 C 24.65351 47.685307 24.758866 47.658448 24.865234 47.628906 C 25.141984 47.55405 25.423416 47.4569 25.712891 47.328125 C 27.007142 46.752367 28.435602 45.642446 30.083984 43.927734 C 32.079878 41.851358 34.298332 38.954657 36.330078 35.771484 C 38.10975 32.983238 43.916016 23.324362 43.916016 16.097656 C 43.916108 10.727777 41.749811 6.4836679 37.648438 3.8261719 C 34.635348 1.8737574 30.62408 0.77447968 25.712891 0.54296875 C 25.710901 0.54306255 25.709021 0.54287467 25.707031 0.54296875 C 25.056745 0.51240858 24.394648 0.49414062 23.712891 0.49414062 z M 23.712891 0.6953125 C 27.720201 1.1027901 31.05619 2.1464544 33.648438 3.8261719 C 37.749812 6.4836679 39.916108 10.727777 39.916016 16.097656 C 39.916016 23.324362 34.10975 32.983238 32.330078 35.771484 C 30.298332 38.954657 28.079878 41.851358 26.083984 43.927734 C 25.239171 44.806543 24.45371 45.521198 23.712891 46.091797 C 22.971285 45.521037 22.185236 44.807018 21.339844 43.927734 C 19.343857 41.851266 17.125497 38.954565 15.09375 35.771484 C 13.314078 32.983146 7.5078135 23.324362 7.5078125 16.097656 C 7.5078125 10.727685 9.6761508 6.4835759 13.777344 3.8261719 C 16.369729 2.1464544 19.705604 1.1027901 23.712891 0.6953125 z "
   id="path876" /></svg>