<?xml version="1.0" encoding="UTF-8" standalone="no"?>
<!-- Generator: Adobe Illustrator 19.0.0, SVG Export Plug-In . SVG Version: 6.00 Build 0)  -->

<svg
   xmlns:dc="http://purl.org/dc/elements/1.1/"
   xmlns:cc="http://creativecommons.org/ns#"
   xmlns:rdf="http://www.w3.org/1999/02/22-rdf-syntax-ns#"
   xmlns:svg="http://www.w3.org/2000/svg"
   xmlns="http://www.w3.org/2000/svg"
   xmlns:xlink="http://www.w3.org/1999/xlink"
   xmlns:sodipodi="http://sodipodi.sourceforge.net/DTD/sodipodi-0.dtd"
   xmlns:inkscape="http://www.inkscape.org/namespaces/inkscape"
   version="1.1"
   id="Capa_1"
   x="0px"
   y="0px"
   viewBox="0 0 48 48"
   xml:space="preserve"
   sodipodi:docname="ardour.svg"
   width="48"
   height="48"
   inkscape:version="0.92.3 (2405546, 2018-03-11)"><metadata
   id="metadata41"><rdf:RDF><cc:Work
       rdf:about=""><dc:format>image/svg+xml</dc:format><dc:type
         rdf:resource="http://purl.org/dc/dcmitype/StillImage" /><dc:title /></cc:Work></rdf:RDF></metadata><defs
   id="defs39"><linearGradient
     id="linearGradient914"
     inkscape:collect="always"><stop
       id="stop910"
       offset="0"
       style="stop-color:#008080;stop-opacity:0.506" /><stop
       id="stop912"
       offset="1"
       style="stop-color:#008080;stop-opacity:0;" /></linearGradient><linearGradient
     inkscape:collect="always"
     id="linearGradient893"><stop
       style="stop-color:#17280b;stop-opacity:1;"
       offset="0"
       id="stop889" /><stop
       style="stop-color:#17280b;stop-opacity:0;"
       offset="1"
       id="stop891" /></linearGradient><linearGradient
     inkscape:collect="always"
     xlink:href="#linearGradient893"
     id="linearGradient895"
     x1="16.544922"
     y1="25.792969"
     x2="43.916016"
     y2="25.792969"
     gradientUnits="userSpaceOnUse" /><linearGradient
     inkscape:collect="always"
     xlink:href="#linearGradient914"
     id="linearGradient901"
     x1="23.166525"
     y1="26.23044"
     x2="23.184908"
     y2="30.158495"
     gradientUnits="userSpaceOnUse"
     gradientTransform="matrix(0.95234791,0,0,0.90663796,0.62794651,2.6841587)" /><linearGradient
     inkscape:collect="always"
     xlink:href="#linearGradient914"
     id="linearGradient903"
     x1="4.7547169"
     y1="10.203773"
     x2="41.615093"
     y2="29.04151"
     gradientUnits="userSpaceOnUse" /></defs><sodipodi:namedview
   pagecolor="#ffffff"
   bordercolor="#666666"
   borderopacity="1"
   objecttolerance="10"
   gridtolerance="10"
   guidetolerance="10"
   inkscape:pageopacity="0"
   inkscape:pageshadow="2"
   inkscape:window-width="1366"
   inkscape:window-height="719"
   id="namedview37"
   showgrid="false"
   showguides="false"
   inkscape:guide-bbox="true"
   inkscape:zoom="3.7565048"
   inkscape:cx="24"
   inkscape:cy="24"
   inkscape:window-x="0"
   inkscape:window-y="25"
   inkscape:window-maximized="1"
   inkscape:current-layer="Capa_1"
   inkscape:snap-global="true"
   inkscape:object-paths="true" />


<g
   id="g6"
   transform="translate(0,-464)">
</g>
<g
   id="g8"
   transform="translate(0,-464)">
</g>
<g
   id="g10"
   transform="translate(0,-464)">
</g>
<g
   id="g12"
   transform="translate(0,-464)">
</g>
<g
   id="g14"
   transform="translate(0,-464)">
</g>
<g
   id="g16"
   transform="translate(0,-464)">
</g>
<g
   id="g18"
   transform="translate(0,-464)">
</g>
<g
   id="g20"
   transform="translate(0,-464)">
</g>
<g
   id="g22"
   transform="translate(0,-464)">
</g>
<g
   id="g24"
   transform="translate(0,-464)">
</g>
<g
   id="g26"
   transform="translate(0,-464)">
</g>
<g
   id="g28"
   transform="translate(0,-464)">
</g>
<g
   id="g30"
   transform="translate(0,-464)">
</g>
<g
   id="g32"
   transform="translate(0,-464)">
</g>
<g
   id="g34"
   transform="translate(0,-464)">
</g>
<g
   id="g893"><path
     inkscape:connector-curvature="0"
     id="path24-3-6"
     d="m 23.712891,0.49414062 c -5.833461,0 -10.522199,1.12037698 -13.935547,3.33203098 C 5.676151,6.483576 3.507813,10.727685 3.507813,16.097656 c 0,7.226706 5.806265,16.88549 7.585937,19.673828 2.031747,3.183081 4.250107,6.079782 6.246094,8.15625 2.542362,2.644283 4.56815,3.875 6.373047,3.875 1.804991,0 3.829009,-1.230625 6.371093,-3.875 1.995894,-2.076376 4.214348,-4.973077 6.246094,-8.15625 C 38.10975,32.983238 43.916016,23.324362 43.916016,16.097656 43.916108,10.727777 41.749814,6.483668 37.648438,3.8261716 34.235274,1.6145176 29.546261,0.49414062 23.712891,0.49414062 Z"
     style="fill:#165044;fill-opacity:1;stroke-width:0.0924025" /><path
     inkscape:connector-curvature="0"
     id="path857"
     d="m 29.833984,44.138672 c 0.09033,-0.09168 0.158342,-0.115591 0.25,-0.210938 1.995894,-2.076376 4.214348,-4.973077 6.246094,-8.15625 0.889836,-1.394123 2.786912,-4.505286 4.460938,-8.171875 0.837012,-1.833294 1.617308,-3.806142 2.189453,-5.771484 0.525919,-1.806554 0.806395,-3.585164 0.859375,-5.267578 L 24,3.25 15.757812,22.732422 12,28.75 Z"
     style="fill:#000000;fill-opacity:1;stroke:none;stroke-width:1px;stroke-linecap:butt;stroke-linejoin:miter;stroke-opacity:1;opacity:0.2" /><path
     id="path927"
     d="m 20.026455,23.473084 c -0.309238,0.02209 -0.620363,0.05356 -0.944908,0.155829 V 28.75 h 0.944908 z m 0.915147,0.06905 v 5.207856 h 0.915146 V 23.825463 C 21.570735,23.65944 21.253733,23.610154 20.941602,23.542137 Z m -2.866345,0.547172 c -0.304928,0.16002 -0.604532,0.274248 -0.915147,0.488739 V 28.75 h 0.915147 z m 4.787781,0.159374 V 28.75 h 0.974668 v -4.086954 c -0.324869,-0.145183 -0.650089,-0.247631 -0.974668,-0.414362 z m 1.921437,0.816329 V 28.75 h 0.913285 v -3.295415 c -0.304839,-0.111657 -0.608532,-0.268214 -0.913285,-0.389572 z m -8.569272,0.407279 c -0.316981,0.274172 -0.627596,0.690936 -0.944908,1.019972 V 28.75 h 0.944908 z m 10.459086,0.396654 V 28.75 h 0.944908 v -2.4844 c -0.315261,-0.10946 -0.629556,-0.286773 -0.944908,-0.396654 z m 1.921437,0.763205 V 28.75 h 0.915146 v -1.772548 c -0.304934,-0.119585 -0.609957,-0.234673 -0.915146,-0.345301 z m 1.889815,0.740184 V 28.75 h 0.915147 1.68707 c -0.560764,-0.366206 -1.124455,-0.610605 -1.68707,-0.892471 -0.305349,-0.152979 -0.60937,-0.3506 -0.915147,-0.485194 z M 14.264006,27.577745 C 13.902617,28.019997 13.531182,28.242173 13.177734,28.75 h 1.086272 z"
     style="fill:#f9f9f9;stroke-width:0.07248753"
     inkscape:connector-curvature="0" /><path
     id="path2-6"
     d="m 24,3.25 12,25.5 C 31.527853,25.483855 27.000881,25.124617 22.507812,22.125 19.665161,20.227217 15.612465,22.945463 12,28.75 Z"
     style="fill:#f9f9f9;stroke-width:0.0924025"
     inkscape:connector-curvature="0" /><path
     id="path927-6"
     d="m 20.026455,23.473084 c -0.309238,0.02209 -0.620363,0.05356 -0.944908,0.155829 V 28.75 h 0.944908 z m 0.915147,0.06905 v 5.207856 h 0.915146 V 23.825463 C 21.570735,23.65944 21.253733,23.610154 20.941602,23.542137 Z m -2.866345,0.547172 c -0.304928,0.16002 -0.604532,0.274248 -0.915147,0.488739 V 28.75 h 0.915147 z m 4.787781,0.159374 V 28.75 h 0.974668 v -4.086954 c -0.324869,-0.145183 -0.650089,-0.247631 -0.974668,-0.414362 z m 1.921437,0.816329 V 28.75 h 0.913285 v -3.295415 c -0.304839,-0.111657 -0.608532,-0.268214 -0.913285,-0.389572 z m -8.569272,0.407279 c -0.316981,0.274172 -0.627596,0.690936 -0.944908,1.019972 V 28.75 h 0.944908 z m 10.459086,0.396654 V 28.75 h 0.944908 v -2.4844 c -0.315261,-0.10946 -0.629556,-0.286773 -0.944908,-0.396654 z m 1.921437,0.763205 V 28.75 h 0.915146 v -1.772548 c -0.304934,-0.119585 -0.609957,-0.234673 -0.915146,-0.345301 z m 1.889815,0.740184 V 28.75 h 0.915147 1.68707 c -0.560764,-0.366206 -1.124455,-0.610605 -1.68707,-0.892471 -0.305349,-0.152979 -0.60937,-0.3506 -0.915147,-0.485194 z M 14.264006,27.577745 C 13.902617,28.019997 13.531182,28.242173 13.177734,28.75 h 1.086272 z"
     style="opacity:1;fill:url(#linearGradient901);fill-opacity:1;stroke-width:0.07248753"
     inkscape:connector-curvature="0" /><path
     id="path2-6-7"
     d="m 24,3.25 12,25.5 C 31.527853,25.483855 27.000881,25.124617 22.507812,22.125 19.665161,20.227217 15.612465,22.945463 12,28.75 Z"
     style="opacity:0.5;fill:url(#linearGradient903);fill-opacity:1.0;stroke-width:0.0924025"
     inkscape:connector-curvature="0" /><path
     inkscape:connector-curvature="0"
     id="path864"
     d="m 23.712891,0.49414062 c -5.833461,0 -10.522199,1.12037738 -13.935547,3.33203128 -4.101193,2.6574044 -6.269532,6.9015131 -6.269532,12.2714841 0,7.226706 5.806266,16.88549 7.585938,19.673828 2.031747,3.183081 4.250107,6.079782 6.246094,8.15625 2.542362,2.644283 4.56815,3.875 6.373047,3.875 1.804991,0 3.829009,-1.230625 6.371093,-3.875 1.995894,-2.076376 4.214348,-4.973077 6.246094,-8.15625 1.779671,-2.788246 7.585938,-12.447122 7.585938,-19.673828 9e-5,-5.369879 -2.166207,-9.6139877 -6.267578,-12.2714841 C 34.235272,1.6145179 29.54626,0.49414062 23.712891,0.49414062 Z m 0,0.14453126 c 2.112445,0.084873 4.119293,0.27168535 5.875,0.69140622 1.164035,0.2782755 2.252954,0.6269196 3.263671,1.0429688 1.010718,0.4160492 1.943585,0.9002115 2.796876,1.453125 1.025344,0.6643741 1.929139,1.4277031 2.708984,2.2832031 0.779844,0.8555 1.435776,1.8037129 1.96289,2.8359375 0.52712,1.0322246 0.9262,2.1492035 1.19336,3.3437495 0.26716,1.194548 0.402364,2.466125 0.402344,3.808594 0,1.806677 -0.363407,3.765127 -0.935547,5.730469 -0.57215,1.965342 -1.352441,3.93819 -2.189453,5.771484 -1.674026,3.666588 -3.571102,6.777752 -4.460938,8.171875 -2.031746,3.183173 -4.2502,6.079874 -6.246094,8.15625 -1.271042,1.322188 -2.413501,2.291485 -3.46289,2.929688 -0.319034,0.194025 -0.618451,0.306538 -0.910156,0.390625 -0.291517,-0.08404 -0.58956,-0.196919 -0.908204,-0.390625 C 21.75288,46.219207 20.611025,45.249876 19.339844,43.927734 17.343857,41.851266 15.125497,38.954565 13.09375,35.771484 12.203914,34.377315 10.306838,31.266186 8.632812,27.599609 7.7958,25.766321 7.015504,23.793459 6.443359,21.828125 5.871215,19.862791 5.507813,17.904333 5.507812,16.097656 c 0,-1.342492 0.134981,-2.614034 0.402344,-3.808594 C 6.177519,11.094504 6.578102,9.977537 7.105469,8.9453125 7.632836,7.913088 8.288347,6.9648634 9.068359,6.109375 9.848371,5.2538866 10.752046,4.490523 11.777344,3.8261719 12.630681,3.2732584 13.5635,2.7890961 14.574219,2.3730469 15.584938,1.9569977 16.673873,1.6083536 17.837891,1.3300781 19.59357,0.91035723 21.60043,0.7235449 23.712891,0.63867188 Z"
     style="fill:#000000;fill-opacity:1;stroke-width:0.0924025;opacity:0.2" /></g></svg>