<?xml version="1.0" encoding="UTF-8" standalone="no"?>
<!-- Generator: Adobe Illustrator 19.0.0, SVG Export Plug-In . SVG Version: 6.00 Build 0)  -->

<svg
   xmlns:dc="http://purl.org/dc/elements/1.1/"
   xmlns:cc="http://creativecommons.org/ns#"
   xmlns:rdf="http://www.w3.org/1999/02/22-rdf-syntax-ns#"
   xmlns:svg="http://www.w3.org/2000/svg"
   xmlns="http://www.w3.org/2000/svg"
   xmlns:xlink="http://www.w3.org/1999/xlink"
   xmlns:sodipodi="http://sodipodi.sourceforge.net/DTD/sodipodi-0.dtd"
   xmlns:inkscape="http://www.inkscape.org/namespaces/inkscape"
   version="1.1"
   id="Capa_1"
   x="0px"
   y="0px"
   viewBox="0 0 48 48"
   xml:space="preserve"
   sodipodi:docname="blender.svg"
   width="48"
   height="48"
   inkscape:version="0.92.3 (2405546, 2018-03-11)"><metadata
   id="metadata41"><rdf:RDF><cc:Work
       rdf:about=""><dc:format>image/svg+xml</dc:format><dc:type
         rdf:resource="http://purl.org/dc/dcmitype/StillImage" /><dc:title /></cc:Work></rdf:RDF></metadata><defs
   id="defs39"><linearGradient
     inkscape:collect="always"
     id="linearGradient1102"><stop
       style="stop-color:#ffb380;stop-opacity:1"
       offset="0"
       id="stop1098" /><stop
       id="stop1108"
       offset="0.96963555"
       style="stop-color:#ff7f2a;stop-opacity:1" /><stop
       style="stop-color:#ffb380;stop-opacity:1"
       offset="1"
       id="stop1100" /></linearGradient><linearGradient
     inkscape:collect="always"
     id="linearGradient1052"><stop
       style="stop-color:#000000;stop-opacity:1;"
       offset="0"
       id="stop1048" /><stop
       style="stop-color:#000000;stop-opacity:0;"
       offset="1"
       id="stop1050" /></linearGradient><radialGradient
     gradientUnits="userSpaceOnUse"
     gradientTransform="matrix(1.2313102,0,0,1.0002369,-10.723221,-11.23911)"
     r="22.135635"
     fy="37.477009"
     fx="32.475037"
     cy="37.477009"
     cx="32.475037"
     id="radialGradient5453"
     xlink:href="#linearGradient5447"
     inkscape:collect="always" /><linearGradient
     id="linearGradient5447"
     inkscape:collect="always"><stop
       id="stop5449"
       offset="0"
       style="stop-color:#ff830a;stop-opacity:1" /><stop
       id="stop5451"
       offset="1"
       style="stop-color:#d06700;stop-opacity:1" /></linearGradient><linearGradient
     y2="34.375"
     x2="29.875"
     y1="18.875"
     x1="31.1875"
     gradientUnits="userSpaceOnUse"
     id="linearGradient5350"
     xlink:href="#linearGradient39155"
     inkscape:collect="always"
     gradientTransform="matrix(0.62824706,0,0,0.64192271,8.9246056,2.6552787)" /><linearGradient
     id="linearGradient39155"><stop
       style="stop-color:white;stop-opacity:1;"
       offset="0"
       id="stop39157" /><stop
       style="stop-color:#dadada;stop-opacity:1;"
       offset="1"
       id="stop39159" /></linearGradient><radialGradient
     gradientUnits="userSpaceOnUse"
     gradientTransform="matrix(1,0,0,0.8055409,0,4.4643372)"
     r="21.275852"
     fy="44.23357"
     fx="34.8689"
     cy="44.23357"
     cx="34.8689"
     id="radialGradient6101"
     xlink:href="#linearGradient3564"
     inkscape:collect="always" /><linearGradient
     inkscape:collect="always"
     id="linearGradient3564"><stop
       style="stop-color:white;stop-opacity:1;"
       offset="0"
       id="stop3566" /><stop
       style="stop-color:white;stop-opacity:0;"
       offset="1"
       id="stop3568" /></linearGradient><filter
     id="filter6103"
     inkscape:collect="always"><feGaussianBlur
       id="feGaussianBlur6105"
       stdDeviation="0.19207211"
       inkscape:collect="always" /></filter><radialGradient
     inkscape:collect="always"
     xlink:href="#linearGradient9792"
     id="radialGradient9798"
     cx="31.857779"
     cy="22.970091"
     fx="31.857779"
     fy="22.970091"
     r="5.8577785"
     gradientTransform="matrix(0.95528534,0,0,0.69756062,-1.6416289,1.3749436)"
     gradientUnits="userSpaceOnUse" /><linearGradient
     inkscape:collect="always"
     id="linearGradient9792"><stop
       style="stop-color:#1064aa;stop-opacity:1"
       offset="0"
       id="stop9794" /><stop
       style="stop-color:#0d528b;stop-opacity:1"
       offset="1"
       id="stop9796" /></linearGradient><radialGradient
     r="20.278975"
     fy="16.789225"
     fx="26.441687"
     cy="16.789225"
     cx="26.441687"
     gradientTransform="matrix(1.2595374,0,0,0.96950663,-7.40039,-4.746977)"
     gradientUnits="userSpaceOnUse"
     id="radialGradient6168"
     xlink:href="#linearGradient3564"
     inkscape:collect="always" /><clipPath
     id="clipPath6085"
     clipPathUnits="userSpaceOnUse"><path
       inkscape:connector-curvature="0"
       style="fill:none;fill-rule:evenodd;stroke:#954900;stroke-width:0.2076302;stroke-linecap:round;stroke-linejoin:round;stroke-miterlimit:4;stroke-dasharray:none;stroke-opacity:1"
       id="path6087"
       d="m 16.048489,28.093447 c 0.0098,0.576682 0.196474,1.697902 0.471116,2.577425 0.581566,1.854137 1.56684,3.572658 2.939126,5.086496 1.407488,1.553118 3.138519,2.803227 5.139315,3.68976 2.105357,0.931573 4.384795,1.407488 6.750134,1.403741 2.365339,-0.005 4.644601,-0.488686 6.74896,-1.427017 2.00002,-0.895288 3.731043,-2.148391 5.13754,-3.705517 1.369207,-1.519844 2.352576,-3.241114 2.934089,-5.096258 0.294262,-0.938353 0.476921,-1.889392 0.553238,-2.845308 0.07331,-0.939306 0.04204,-1.883511 -0.09183,-2.823792 -0.259981,-1.835599 -0.896294,-3.556847 -1.872652,-5.12758 -0.895541,-1.441699 -2.047808,-2.70454 -3.417268,-3.766975 0,0 0.002,-0.002 0.002,-0.002 0,0 -13.828458,-10.6197195 -13.828458,-10.6197195 -0.01176,-0.00978 -0.02252,-0.019551 -0.03529,-0.028344 -0.909003,-0.6959264 -2.434775,-0.6939758 -3.431728,0.00488 -1.01067,0.7057021 -1.091821,1.8092613 -0.195527,2.5482146 1.899775,1.4997633 3.792068,3.0680401 5.702368,4.5676191 0,0 -17.551681,-0.01171 -17.551681,-0.01171 -1.994685,0 -3.1682604,0.947915 -3.4153942,2.333683 -0.2180771,1.222836 0.7479213,2.738129 2.4800212,2.738129 2.956573,0.0039 5.942111,-0.0069 8.909215,-0.01272 0,0 -15.901723,11.764162 -15.901723,11.764162 -0.020527,0.01564 -0.041053,0.02933 -0.06158,0.04497 -1.4974197,1.148389 -1.9831951,3.059322 -1.0399808,4.268393 0.9598323,1.22959 2.9977653,1.230588 4.5147288,0.006 0,0 8.6775931,-7.102098 8.6775931,-7.102098 0,0 -0.12511,0.959824 -0.116333,1.535532 z"
       sodipodi:nodetypes="csssssssssscccsscccscccssccc" /></clipPath><filter
     id="filter5467"
     inkscape:collect="always"><feGaussianBlur
       id="feGaussianBlur5469"
       stdDeviation="0.20058598"
       inkscape:collect="always" /></filter><radialGradient
     gradientUnits="userSpaceOnUse"
     gradientTransform="matrix(1,0,0,0.8095091,0,4.3545041)"
     r="21.804205"
     fy="13.112802"
     fx="22.436661"
     cy="13.112802"
     cx="22.436661"
     id="radialGradient6121"
     xlink:href="#linearGradient3564"
     inkscape:collect="always" /><filter
     id="filter6127"
     inkscape:collect="always"><feGaussianBlur
       id="feGaussianBlur6129"
       stdDeviation="0.098637264"
       inkscape:collect="always" /></filter><radialGradient
     gradientUnits="userSpaceOnUse"
     gradientTransform="matrix(1.1062168,0,0,0.7160758,-16.531813,35.180186)"
     r="113.01414"
     fy="58.663204"
     fx="155.64211"
     cy="58.663204"
     cx="155.64211"
     id="radialGradient6166"
     xlink:href="#linearGradient6160"
     inkscape:collect="always" /><linearGradient
     id="linearGradient6160"
     inkscape:collect="always"><stop
       id="stop6162"
       offset="0"
       style="stop-color:#eeeeec;stop-opacity:1;" /><stop
       id="stop6164"
       offset="1"
       style="stop-color:#eeeeec;stop-opacity:0;" /></linearGradient><filter
     id="filter6156"
     inkscape:collect="always"><feGaussianBlur
       id="feGaussianBlur6158"
       stdDeviation="0.93085205"
       inkscape:collect="always" /></filter><radialGradient
     gradientUnits="userSpaceOnUse"
     gradientTransform="matrix(2.0461723,0,0,2.2699636,-34.350196,-238.66924)"
     r="7.4158325"
     fy="188.28326"
     fx="32.834167"
     cy="188.28326"
     cx="32.834167"
     id="radialGradient5463"
     xlink:href="#linearGradient3564"
     inkscape:collect="always" /><filter
     height="1.348965"
     y="-0.17448251"
     width="1.3871316"
     x="-0.19356579"
     id="filter5489"
     inkscape:collect="always"><feGaussianBlur
       id="feGaussianBlur5491"
       stdDeviation="1.1962095"
       inkscape:collect="always" /></filter><linearGradient
     inkscape:collect="always"
     xlink:href="#linearGradient1052"
     id="linearGradient1096"
     gradientUnits="userSpaceOnUse"
     x1="10.203815"
     y1="5.5310159"
     x2="43.969166"
     y2="37.441128" /><linearGradient
     inkscape:collect="always"
     xlink:href="#linearGradient1102"
     id="linearGradient1106"
     gradientUnits="userSpaceOnUse"
     x1="44.042301"
     y1="17.023552"
     x2="3.0117631"
     y2="12.894116" /></defs><sodipodi:namedview
   pagecolor="#ffffff"
   bordercolor="#666666"
   borderopacity="1"
   objecttolerance="10"
   gridtolerance="10"
   guidetolerance="10"
   inkscape:pageopacity="0"
   inkscape:pageshadow="2"
   inkscape:window-width="1366"
   inkscape:window-height="719"
   id="namedview37"
   showgrid="false"
   showguides="true"
   inkscape:guide-bbox="true"
   inkscape:zoom="5.3125"
   inkscape:cx="24"
   inkscape:cy="24"
   inkscape:window-x="0"
   inkscape:window-y="25"
   inkscape:window-maximized="1"
   inkscape:current-layer="Capa_1" />


<g
   id="g6"
   transform="translate(0,-464)">
</g>
<g
   id="g8"
   transform="translate(0,-464)">
</g>
<g
   id="g10"
   transform="translate(0,-464)">
</g>
<g
   id="g12"
   transform="translate(0,-464)">
</g>
<g
   id="g14"
   transform="translate(0,-464)">
</g>
<g
   id="g16"
   transform="translate(0,-464)">
</g>
<g
   id="g18"
   transform="translate(0,-464)">
</g>
<g
   id="g20"
   transform="translate(0,-464)">
</g>
<g
   id="g22"
   transform="translate(0,-464)">
</g>
<g
   id="g24"
   transform="translate(0,-464)">
</g>
<g
   id="g26"
   transform="translate(0,-464)">
</g>
<g
   id="g28"
   transform="translate(0,-464)">
</g>
<g
   id="g30"
   transform="translate(0,-464)">
</g>
<g
   id="g32"
   transform="translate(0,-464)">
</g>
<g
   id="g34"
   transform="translate(0,-464)">
</g>
<g
   id="g922"><path
     id="path887"
     d="m 23.712891,0.49414081 c -5.833461,0 -10.522199,1.12037799 -13.9355469,3.33203099 -4.1011931,2.657404 -6.2695313,6.9015132 -6.2695313,12.2714842 0,7.226706 5.8062658,16.88549 7.5859372,19.673828 2.031747,3.183081 4.250108,6.079782 6.246094,8.15625 2.542362,2.644283 4.56815,3.875 6.373047,3.875 1.804991,0 3.829009,-1.230625 6.371093,-3.875 1.995894,-2.076376 4.214349,-4.973077 6.246094,-8.15625 C 38.10975,32.983238 43.916016,23.324362 43.916016,16.097656 43.916108,10.727777 41.749814,6.4836678 37.648438,3.8261718 34.235274,1.6145188 29.546261,0.49414081 23.712891,0.49414081 Z"
     style="fill:url(#linearGradient1106);fill-opacity:1;stroke-width:0.0924025"
     inkscape:connector-curvature="0" /><path
     inkscape:connector-curvature="0"
     id="path1046"
     d="m 27.410156,46.189453 c 0.844139,-0.609996 1.692482,-1.240884 2.673828,-2.261719 1.995894,-2.076376 4.214349,-4.973077 6.246094,-8.15625 0.889836,-1.394123 2.786911,-4.505287 4.460942,-8.171875 0.83701,-1.833294 1.6173,-3.806142 2.18945,-5.771484 0.26695,-0.916972 0.27531,-1.774517 0.43555,-2.673828 l -5.662114,-5.662109 -13.595703,-9.1972661 -1.894531,1.0351562 5.101562,5.1015629 -15.955078,2.041015 5.007813,5.007813 -9.738281,7.978515 z"
     style="opacity:0.7;fill:url(#linearGradient1096);fill-opacity:1;stroke:none;stroke-width:1px;stroke-linecap:butt;stroke-linejoin:miter;stroke-opacity:1" /><path
     inkscape:connector-curvature="0"
     sodipodi:nodetypes="csssssssssscccsscccscccssccc"
     d="m 16.703172,21.167848 c 0.0075,0.440956 0.150233,1.298289 0.360236,1.970811 0.44469,1.417753 1.198074,2.731809 2.247383,3.889355 1.076226,1.187582 2.399848,2.143469 3.929743,2.821351 1.609848,0.712321 3.352805,1.076226 5.161446,1.073361 1.80864,-0.0038 3.551463,-0.37367 5.160547,-1.091159 1.529302,-0.684576 2.852917,-1.642753 3.928386,-2.833399 1.046955,-1.162139 1.798882,-2.478296 2.243532,-3.89682 0.225005,-0.717505 0.364674,-1.444711 0.42303,-2.175646 0.05606,-0.718234 0.03214,-1.440214 -0.07022,-2.159194 -0.198792,-1.403578 -0.685345,-2.719719 -1.431911,-3.92077 -0.684769,-1.102386 -1.565842,-2.068009 -2.612991,-2.880392 0,0 0.0015,-0.0015 0.0015,-0.0015 0,0 -10.573839,-8.120298 -10.573839,-8.120298 -0.009,-0.00748 -0.01722,-0.01495 -0.02698,-0.021673 -0.695063,-0.5321355 -1.861734,-0.530644 -2.624048,0.00373 -0.772802,0.5396104 -0.834854,1.3834396 -0.149508,1.9484754 1.45265,1.1467841 2.899579,2.3459564 4.360278,3.4925995 0,0 -13.420777,-0.00895 -13.420777,-0.00895 -1.525223,0 -2.422589,0.7248169 -2.611559,1.7844351 -0.166751,0.935033 0.571893,2.093692 1.896332,2.093692 2.260724,0.003 4.543596,-0.0053 6.812372,-0.0097 0,0 -12.1591468,8.995388 -12.1591468,8.995388 -0.015696,0.01196 -0.031391,0.02243 -0.047087,0.03439 -1.1449921,0.878108 -1.516437,2.339291 -0.7952145,3.263799 0.7339294,0.940198 2.2922214,0.940961 3.4521583,0.0046 0,0 6.635264,-5.430573 6.635264,-5.430573 0,0 -0.09567,0.733923 -0.08895,1.174135 z"
     id="path5338"
     style="fill:url(#radialGradient5453);fill-opacity:1;fill-rule:evenodd;stroke:none;stroke-width:0.76464337" /><ellipse
     ry="6.4994674"
     rx="7.2641068"
     cy="19.184788"
     cx="28.518061"
     id="path5340"
     style="display:inline;overflow:visible;visibility:visible;fill:url(#linearGradient5350);fill-opacity:1;fill-rule:nonzero;stroke:none;stroke-width:0.63504809;marker:none;enable-background:accumulate" /><path
     transform="matrix(0.76464338,0,0,0.76464338,4.4318012,-0.31362053)"
     inkscape:connector-curvature="0"
     sodipodi:nodetypes="cssssscscczccsccssssccscccccscssc"
     id="path5342"
     d="m 25.796988,6.0267804 c -0.404852,5.53e-4 -0.818619,0.1256944 -1.095272,0.3196267 -7.14e-4,7.142e-4 -0.0014,0.00143 -0.0021,0.00213 -0.280209,0.1956525 -0.336859,0.3680061 -0.345206,0.4602725 -0.0083,0.092266 -0.01324,0.1672776 0.189655,0.3345475 0.01899,0.015735 0.03747,0.032076 0.0554,0.049009 0.124258,0.1010285 5.704394,4.6389489 5.704394,4.6389489 0.373658,0.304091 0.51584,0.810232 0.355197,1.264415 -0.160635,0.454191 -0.589422,0.382732 -1.071174,0.384283 -5.634142,0.05114 -17.60967,0.01918 -17.60967,0.01918 -0.952967,6.38e-4 -2.3472795,0.516793 -2.4135719,1.585761 -0.063562,1.024947 0.9093059,1.457499 1.5782589,1.457499 0,0 8.830403,-0.01705 8.830403,-0.01705 0.488364,-5.91e-4 0.922857,0.221532 1.080466,0.683755 0.15761,0.462231 0.0033,0.53156 -0.383664,0.829439 0,0 -15.9006939,12.205735 -15.9006939,12.205735 -0.00142,0.0014 -0.00284,0.0028 -0.00426,0.0043 -0.064038,0.04879 -0.084772,0.06226 -0.061795,0.04476 -0.5536756,0.424618 -0.8961097,0.98072 -1.0185711,1.476701 -0.1224537,0.495981 -0.04659,0.882548 0.1875202,1.182646 0.4788333,0.613413 1.8577618,0.820499 2.9863998,-0.09061 0,0 8.672724,-7.09799 8.672724,-7.09799 0.361955,-0.295752 0.77937,-0.340606 1.187723,-0.113169 0.408345,0.227437 0.548124,0.592694 0.487243,1.05613 0,0 -0.112502,0.980045 -0.10655,1.370159 0.192357,2.636407 1.448328,5.003383 3.115366,7.003128 2.877746,3.172809 6.937778,4.644674 11.130659,4.808308 4.20342,-0.04394 8.318367,-1.795011 11.174847,-4.89086 C 47.739634,28.611968 46.32987,21.589741 40.640807,16.960414 36.14442,13.301596 31.42752,9.8792042 26.81986,6.3400569 c -0.0043,-0.00352 -0.0086,-0.00707 -0.01279,-0.010651 -0.0072,-0.00489 -0.01427,-0.00987 -0.02131,-0.014921 -0.210578,-0.1612268 -0.584681,-0.288265 -0.988772,-0.2877045 z"
     style="opacity:0.4857143;fill:none;stroke:url(#radialGradient6101);stroke-width:0.36511794;stroke-linecap:butt;stroke-linejoin:miter;stroke-miterlimit:4;stroke-dasharray:none;stroke-opacity:1;filter:url(#filter6103)" /><path
     inkscape:connector-curvature="0"
     d="m 24.178707,18.728998 c 0.06073,-1.109985 0.602873,-2.089773 1.417865,-2.783427 0.802031,-0.681883 1.879023,-1.098235 3.055473,-1.098235 1.175702,0 2.252694,0.416352 3.054537,1.098235 0.815892,0.693654 1.357385,1.672707 1.41882,2.782692 0.06294,1.142356 -0.39371,2.20306 -1.194055,2.988665 -0.815893,0.800312 -1.979231,1.302719 -3.279302,1.302719 -1.300819,0 -2.464158,-0.502407 -3.280012,-1.302719 -0.801169,-0.785605 -1.256241,-1.846309 -1.193326,-2.98793 z"
     id="path5344"
     style="fill:url(#radialGradient9798);fill-opacity:1;fill-rule:evenodd;stroke:none;stroke-width:0.76464337" /><path
     inkscape:connector-curvature="0"
     sodipodi:nodetypes="cccczscccssssscsscsss"
     id="path5346"
     d="m 23.237249,5.1822538 c 0,0 4.372805,3.5603707 4.372805,3.5603707 0.378942,0.309614 0.107422,0.9654043 -0.597378,0.9558042 -4.308109,0.039104 -13.285679,-0.023895 -13.285679,-0.023895 -0.6372,0 -1.792133,0.4419443 -1.792133,1.2903353 0,0.848392 0.515979,0.961024 1.02749,0.956508 1e-6,0 6.73842,0 6.73842,0 1.112739,0.02333 1.23657,0.938518 0.525692,1.552478 0,0 -12.138714,9.342987 -12.138714,9.342987 -0.0011,0.0011 -0.02281,-0.0011 -0.02389,0 -0.04897,0.03731 -0.04146,0.03728 -0.0239,0.02389 -0.423364,0.324682 -0.694899,0.767716 -0.788538,1.146965 -0.09363,0.379248 -0.03564,0.654651 0.143371,0.884119 0.366136,0.469042 1.325446,0.239268 2.188452,-0.457404 0,1e-6 6.551358,-5.390396 6.551358,-5.390396 0.631209,-0.522773 1.9647,-0.09047 1.849118,1.058881 -0.172497,1.715299 0.0742,2.539545 0.705075,3.863115 1.73986,3.650235 7.518585,-9.431021 20.071367,-8.178231 C 38.111864,14.63032 37.203185,13.355089 36.060018,12.424868 32.621887,9.6271816 25.542072,4.368122 25.542072,4.368122 24.499549,3.5925525 22.266268,4.2371077 23.237249,5.1822538 Z"
     style="opacity:0.51999996;fill:url(#radialGradient6168);fill-opacity:1;fill-rule:evenodd;stroke:none;stroke-width:0.76464337" /><path
     transform="matrix(0.76464338,0,0,0.76464338,4.4318012,-0.31362053)"
     inkscape:connector-curvature="0"
     style="opacity:0.69791667;fill:none;stroke:#954900;stroke-width:0.73023587;stroke-linecap:round;stroke-linejoin:round;stroke-miterlimit:4;stroke-dasharray:none;stroke-opacity:1;filter:url(#filter5467)"
     id="path6081"
     d="m 16.048489,28.093447 c 0.0098,0.576682 0.196474,1.697902 0.471116,2.577425 0.581566,1.854137 1.56684,3.572658 2.939126,5.086496 1.407488,1.553118 3.138519,2.803227 5.139315,3.68976 2.105357,0.931573 4.384795,1.407488 6.750134,1.403741 2.365339,-0.005 4.644601,-0.488686 6.74896,-1.427017 2.00002,-0.895288 3.731043,-2.148391 5.13754,-3.705517 1.369207,-1.519844 2.352576,-3.241114 2.934089,-5.096258 0.294262,-0.938353 0.476921,-1.889392 0.553238,-2.845308 0.07331,-0.939306 0.04204,-1.883511 -0.09183,-2.823792 -0.259981,-1.835599 -0.896294,-3.556847 -1.872652,-5.12758 -0.895541,-1.441699 -2.047808,-2.70454 -3.417268,-3.766975 0,0 0.002,-0.002 0.002,-0.002 0,0 -13.828458,-10.6197195 -13.828458,-10.6197195 -0.01176,-0.00978 -0.02252,-0.019551 -0.03529,-0.028344 -0.909003,-0.6959264 -2.434775,-0.6939758 -3.431728,0.00488 -1.01067,0.7057021 -1.091821,1.8092613 -0.195527,2.5482146 1.899775,1.4997633 3.792068,3.0680399 5.702368,4.5676189 0,0 -17.551681,-0.01171 -17.551681,-0.01171 -1.994685,0 -3.1682604,0.947915 -3.4153942,2.333683 -0.2180771,1.222836 0.7479213,2.738129 2.4800212,2.738129 2.956573,0.0039 5.942111,-0.0069 8.909215,-0.01272 0,0 -15.901723,11.764162 -15.901723,11.764162 -0.020527,0.01564 -0.041053,0.02933 -0.06158,0.04497 -1.4974197,1.148389 -1.9831951,3.059322 -1.0399808,4.268393 0.9598323,1.22959 2.9977653,1.230588 4.5147288,0.006 0,0 8.677593,-7.102098 8.677593,-7.102098 0,0 -0.12511,0.959824 -0.116333,1.535532 z"
     sodipodi:nodetypes="csssssssssscccsscccscccssccc"
     clip-path="url(#clipPath6085)" /><path
     sodipodi:type="inkscape:offset"
     inkscape:radius="-0.43277135"
     inkscape:original="M 24.15625 3.4238281 C 23.68241 3.4244808 23.199516 3.5589849 22.818359 3.8261719 C 22.045557 4.3657823 21.984576 5.2084017 22.669922 5.7734375 C 24.122572 6.9202216 25.568598 8.120935 27.029297 9.2675781 L 13.609375 9.2578125 C 12.084152 9.2578125 11.187017 9.9833505 10.998047 11.042969 C 10.831296 11.978002 11.570092 13.136719 12.894531 13.136719 C 15.155255 13.139719 17.438255 13.131353 19.707031 13.126953 L 7.546875 22.121094 C 7.531179 22.133054 7.515696 22.14429 7.5 22.15625 C 6.3550079 23.034358 5.9838556 24.495414 6.7050781 25.419922 C 7.4390075 26.36012 8.9963131 26.360189 10.15625 25.423828 L 16.792969 19.994141 C 16.792969 19.994141 16.696405 20.727757 16.703125 21.167969 C 16.710625 21.608925 16.852497 22.46615 17.0625 23.138672 C 17.50719 24.556425 18.261238 25.869798 19.310547 27.027344 C 20.386773 28.214926 21.710339 29.171727 23.240234 29.849609 C 24.850082 30.56193 26.593703 30.92474 28.402344 30.921875 C 30.210984 30.918075 31.953416 30.54952 33.5625 29.832031 C 35.091802 29.147455 36.414765 28.188693 37.490234 26.998047 C 38.537189 25.835908 39.289725 24.520087 39.734375 23.101562 C 39.95938 22.384058 40.099847 21.656716 40.158203 20.925781 C 40.214263 20.207547 40.190251 19.484605 40.087891 18.765625 C 39.889099 17.362047 39.402816 16.046754 38.65625 14.845703 C 37.971481 13.743317 37.090118 12.777227 36.042969 11.964844 L 36.042969 11.962891 L 25.470703 3.84375 C 25.461703 3.83627 25.453119 3.8289886 25.443359 3.8222656 C 25.095828 3.5561979 24.63009 3.4231754 24.15625 3.4238281 z "
     xlink:href="#path5338"
     style="opacity:0.43678164;fill:none;stroke:url(#radialGradient6121);stroke-width:0.18255897;stroke-linecap:round;stroke-linejoin:round;stroke-miterlimit:4;stroke-dasharray:none;stroke-opacity:1;filter:url(#filter6127)"
     id="path6113"
     inkscape:href="#path5338"
     d="m 24.15625,3.8574219 c -0.392348,5.404e-4 -0.793469,0.1145104 -1.089844,0.3222656 a 0.43281463,0.43281463 0 0 1 0,0.00195 c -0.304087,0.2123297 -0.422561,0.441613 -0.4375,0.640625 -0.01494,0.199012 0.06006,0.4058463 0.316406,0.6171875 1.45574,1.1494291 2.89971,2.3485822 4.351563,3.4882813 a 0.43281463,0.43281463 0 0 1 -0.267578,0.7734375 l -13.419922,-0.00977 c -0.693989,0 -1.205283,0.1640251 -1.554687,0.4140628 -0.349405,0.250037 -0.55416,0.583588 -0.63086,1.013672 -0.117112,0.656691 0.398678,1.583984 1.470703,1.583984 2.25927,0.003 4.543223,-0.0054 6.8125,-0.0098 a 0.43281463,0.43281463 0 0 1 0.257813,0.78125 L 7.8046875,22.46875 c -0.017499,0.01325 -0.031541,0.02406 -0.041016,0.03125 -0.4984407,0.38226 -0.8215434,0.889337 -0.9414063,1.375 -0.1198628,0.485663 -0.045851,0.932604 0.2246094,1.279297 0.5508165,0.705622 1.8236778,0.751131 2.8359375,-0.06445 l 0.00195,-0.002 6.6347654,-5.427735 a 0.43281463,0.43281463 0 0 1 0.703125,0.390625 c 0,0 -0.09158,0.741719 -0.08594,1.111328 0.0063,0.358377 0.144698,1.222715 0.339843,1.847657 h -0.002 c 0.425721,1.357276 1.147053,2.613265 2.15625,3.726562 1.035337,1.142462 2.308636,2.062565 3.785157,2.716797 1.553832,0.687535 3.236003,1.037929 4.986328,1.035156 1.749793,-0.0037 3.429599,-0.358666 4.982422,-1.050781 1.475842,-0.660645 2.748939,-1.584066 3.783203,-2.728516 1.00725,-1.118066 1.728485,-2.3779 2.154297,-3.736328 0.215211,-0.686273 0.348421,-1.381997 0.404296,-2.080078 v -0.002 c 0.05337,-0.685576 0.03149,-1.37685 -0.06641,-2.064453 C 39.469842,17.48245 39.005324,16.226517 38.289062,15.074219 37.63232,14.016952 36.786125,13.089258 35.777344,12.306641 A 0.43281463,0.43281463 0 0 1 35.609375,11.96875 c 0,0.06901 -6.934896,-5.1184896 -10.402344,-7.78125 a 0.43281463,0.43281463 0 0 1 -0.0098,-0.00977 c -0.01283,-0.00884 -0.01505,-0.011216 -0.0039,-0.00195 a 0.43281463,0.43281463 0 0 1 -0.01367,-0.00977 C 24.925059,3.9710734 24.548704,3.8568813 24.15625,3.8574219 Z"
     transform="translate(-0.1038151,0.1038151)" /><path
     inkscape:connector-curvature="0"
     style="fill:url(#radialGradient6166);fill-opacity:1;fill-rule:evenodd;stroke:none;filter:url(#filter6156)"
     d="m 153.40625,38.03125 c -5.56523,0.01098 -10.69216,2.532873 -9.5,6.0625 1.49885,-4.120535 12.31419,-5.870121 18.0625,-1.59375 0,0 50.71398,37.676904 75.34375,57.71875 7.49621,6.09984 13.55477,14.25472 18.09375,21.84375 0.41707,0.0374 0.83082,0.0519 1.25,0.0937 C 252.012,114.00782 245.50181,104.88259 237.3125,98.21875 212.68273,78.176911 161.96875,40.5 161.96875,40.5 c -2.33385,-1.736235 -5.52342,-2.474747 -8.5625,-2.46875 z m 24.4375,37.34375 c -0.52291,1.766542 -2.397,3.352638 -5.34375,3.3125 -30.86204,0.280116 -95.1875,-0.15625 -95.1875,-0.15625 -4.564714,-10e-7 -12.84375,3.141119 -12.84375,9.21875 0,0.379852 0.03453,0.753994 0.0625,1.09375 0.781053,-5.477136 8.452586,-8.3125 12.78125,-8.3125 0,0 64.32546,0.436359 95.1875,0.15625 4.0631,0.05534 6.11164,-2.970588 5.34375,-5.3125 z m -50.90625,25.46875 c -0.30408,1.66026 -1.32885,3.40896 -3.0625,4.90625 0,0 -86.96875,66.90625 -86.96875,66.90625 -0.0078,0.008 -0.148468,-0.008 -0.15625,0 -0.350777,0.26728 -0.313357,0.28336 -0.1875,0.1875 -3.032861,2.32594 -4.954195,5.50192 -5.625,8.21875 -0.306372,1.24091 -0.375948,2.3112 -0.25,3.28125 0.05246,-0.4134 0.138206,-0.82845 0.25,-1.28125 0.670805,-2.71683 2.592139,-5.89281 5.625,-8.21875 -0.125857,0.0959 -0.163277,0.0798 0.1875,-0.1875 0.0078,-0.008 0.148469,0.008 0.15625,0 0,0 86.96875,-66.90625 86.96875,-66.90625 2.45227,-2.11794 3.50673,-4.74191 3.0625,-6.90625 z m -19.125,52.34375 c -0.30179,3.03149 -0.43687,5.65829 -0.375,8.0625 0.026,-1.8868 0.1482,-3.90098 0.375,-6.15625 0.067,-0.66645 0.0608,-1.30801 0,-1.90625 z"
     transform="matrix(0.14206294,0,0,0.14206294,2.5793772,-1.5608214)"
     id="path6151" /><path
     inkscape:connector-curvature="0"
     style="opacity:0.54819282;fill:url(#radialGradient5463);fill-opacity:1;fill-rule:evenodd;stroke:none;filter:url(#filter5489)"
     d="m 29.75,176 c -2.614996,11.18132 0.641128,17.71466 14,16.25 -9.13081,-1.29592 -13.534207,-6.9556 -14,-16.25 z"
     id="path5455"
     transform="matrix(0.13959253,0,0,0.13959253,2.9342242,-1.286149)"
     sodipodi:nodetypes="ccc" /><path
     inkscape:connector-curvature="0"
     id="path887-6"
     d="m 23.712891,0.49414062 c -5.833461,0 -10.522199,1.12037828 -13.935547,3.33203128 -4.101193,2.657404 -6.269532,6.9015131 -6.269532,12.2714841 0,7.226706 5.806267,16.88549 7.585938,19.673828 2.031747,3.183081 4.250108,6.079782 6.246094,8.15625 2.542362,2.644283 4.56815,3.875 6.373047,3.875 1.804991,0 3.829009,-1.230625 6.371093,-3.875 1.995894,-2.076376 4.214349,-4.973077 6.246094,-8.15625 C 38.10975,32.983238 43.91602,23.324362 43.91602,16.097656 43.91611,10.727777 41.74981,6.4836679 37.648438,3.8261719 34.235274,1.6145189 29.546261,0.49414063 23.712891,0.49414062 Z m 0,0.99999998 c 5.58676,0 10.076832,1.0732523 13.345703,3.1914063 3.927986,2.5451487 6.003986,6.6090891 6.003906,11.7519531 0,6.921192 -5.561189,16.171425 -7.265625,18.841797 -1.945851,3.048602 -4.070906,5.823904 -5.982422,7.8125 -2.434616,2.532582 -4.372878,3.710937 -6.101562,3.710937 -1.728594,0 -3.668634,-1.178443 -6.103516,-3.710937 -1.911604,-1.988684 -4.036569,-4.763986 -5.982422,-7.8125 C 9.922518,32.608837 4.361328,23.358692 4.361328,16.4375 c 0,-5.142952 2.078047,-9.2068925 6.00586,-11.7519531 3.269047,-2.118154 7.758855,-3.1914063 13.345703,-3.1914063 z"
     style="opacity:0.3;fill:#000000;stroke-width:0.0924025" /></g></svg>