<?xml version="1.0" encoding="UTF-8" standalone="no"?>
<!-- Generator: Adobe Illustrator 19.0.0, SVG Export Plug-In . SVG Version: 6.00 Build 0)  -->

<svg
   xmlns:dc="http://purl.org/dc/elements/1.1/"
   xmlns:cc="http://creativecommons.org/ns#"
   xmlns:rdf="http://www.w3.org/1999/02/22-rdf-syntax-ns#"
   xmlns:svg="http://www.w3.org/2000/svg"
   xmlns="http://www.w3.org/2000/svg"
   xmlns:xlink="http://www.w3.org/1999/xlink"
   xmlns:sodipodi="http://sodipodi.sourceforge.net/DTD/sodipodi-0.dtd"
   xmlns:inkscape="http://www.inkscape.org/namespaces/inkscape"
   version="1.1"
   id="Capa_1"
   x="0px"
   y="0px"
   viewBox="0 0 48 48"
   xml:space="preserve"
   sodipodi:docname="bluetooth.svg"
   width="48"
   height="48"
   inkscape:version="0.92.3 (2405546, 2018-03-11)"><metadata
   id="metadata41"><rdf:RDF><cc:Work
       rdf:about=""><dc:format>image/svg+xml</dc:format><dc:type
         rdf:resource="http://purl.org/dc/dcmitype/StillImage" /><dc:title /></cc:Work></rdf:RDF></metadata><defs
   id="defs39"><linearGradient
     inkscape:collect="always"
     id="linearGradient1056"><stop
       style="stop-color:#000000;stop-opacity:1;"
       offset="0"
       id="stop1052" /><stop
       style="stop-color:#000000;stop-opacity:0;"
       offset="1"
       id="stop1054" /></linearGradient><linearGradient
     inkscape:collect="always"
     id="linearGradient1048"><stop
       style="stop-color:#000000;stop-opacity:1;"
       offset="0"
       id="stop1044" /><stop
       style="stop-color:#000000;stop-opacity:0;"
       offset="1"
       id="stop1046" /></linearGradient><linearGradient
     inkscape:collect="always"
     id="linearGradient1040"><stop
       style="stop-color:#000000;stop-opacity:1;"
       offset="0"
       id="stop1036" /><stop
       style="stop-color:#000000;stop-opacity:0;"
       offset="1"
       id="stop1038" /></linearGradient><linearGradient
     inkscape:collect="always"
     id="linearGradient1030"><stop
       style="stop-color:#000000;stop-opacity:1;"
       offset="0"
       id="stop1026" /><stop
       style="stop-color:#000000;stop-opacity:0;"
       offset="1"
       id="stop1028" /></linearGradient><linearGradient
     inkscape:collect="always"
     id="linearGradient917"><stop
       style="stop-color:#000000;stop-opacity:1;"
       offset="0"
       id="stop913" /><stop
       style="stop-color:#000000;stop-opacity:0;"
       offset="1"
       id="stop915" /></linearGradient><linearGradient
     inkscape:collect="always"
     xlink:href="#linearGradient917"
     id="linearGradient919"
     x1="14.990234"
     y1="14.359375"
     x2="36.236122"
     y2="35.830479"
     gradientUnits="userSpaceOnUse" /><linearGradient
     inkscape:collect="always"
     xlink:href="#linearGradient1030"
     id="linearGradient1032"
     x1="31.990234"
     y1="15.359375"
     x2="27.025528"
     y2="15.359375"
     gradientUnits="userSpaceOnUse" /><linearGradient
     inkscape:collect="always"
     xlink:href="#linearGradient1030"
     id="linearGradient1034"
     x1="31.990234"
     y1="27.359375"
     x2="27.025528"
     y2="27.406433"
     gradientUnits="userSpaceOnUse" /><linearGradient
     inkscape:collect="always"
     xlink:href="#linearGradient1040"
     id="linearGradient1042"
     x1="25.990234"
     y1="21.359375"
     x2="18.870588"
     y2="21.364706"
     gradientUnits="userSpaceOnUse"
     gradientTransform="matrix(0.66666667,0,0,0.66666667,7.3300787,7.1197917)" /><linearGradient
     inkscape:collect="always"
     xlink:href="#linearGradient1048"
     id="linearGradient1050"
     x1="26.990234"
     y1="12.359375"
     x2="21.960423"
     y2="12.392997"
     gradientUnits="userSpaceOnUse"
     gradientTransform="matrix(0.72226796,0,0,1,6.1073925,0)" /><linearGradient
     inkscape:collect="always"
     xlink:href="#linearGradient1056"
     id="linearGradient1058"
     x1="26.990234"
     y1="30.359375"
     x2="21.999981"
     y2="30.513988"
     gradientUnits="userSpaceOnUse"
     gradientTransform="matrix(0.72226796,0,0,1,6.1073925,0)" /><linearGradient
     inkscape:collect="always"
     xlink:href="#linearGradient1056"
     id="linearGradient1067"
     gradientUnits="userSpaceOnUse"
     gradientTransform="matrix(0.72226796,0,0,1,6.1073925,0)"
     x1="26.990234"
     y1="30.359375"
     x2="21.999981"
     y2="30.513988" /><linearGradient
     inkscape:collect="always"
     xlink:href="#linearGradient1048"
     id="linearGradient1069"
     gradientUnits="userSpaceOnUse"
     gradientTransform="matrix(0.72226796,0,0,1,6.1073925,0)"
     x1="26.990234"
     y1="12.359375"
     x2="21.960423"
     y2="12.392997" /></defs><sodipodi:namedview
   pagecolor="#ffffff"
   bordercolor="#666666"
   borderopacity="1"
   objecttolerance="10"
   gridtolerance="10"
   guidetolerance="10"
   inkscape:pageopacity="0"
   inkscape:pageshadow="2"
   inkscape:window-width="1366"
   inkscape:window-height="719"
   id="namedview37"
   showgrid="false"
   showguides="true"
   inkscape:guide-bbox="true"
   inkscape:zoom="5.3125"
   inkscape:cx="24"
   inkscape:cy="24"
   inkscape:window-x="0"
   inkscape:window-y="25"
   inkscape:window-maximized="1"
   inkscape:current-layer="Capa_1" />


<g
   id="g6"
   transform="translate(0,-464)">
</g>
<g
   id="g8"
   transform="translate(0,-464)">
</g>
<g
   id="g10"
   transform="translate(0,-464)">
</g>
<g
   id="g12"
   transform="translate(0,-464)">
</g>
<g
   id="g14"
   transform="translate(0,-464)">
</g>
<g
   id="g16"
   transform="translate(0,-464)">
</g>
<g
   id="g18"
   transform="translate(0,-464)">
</g>
<g
   id="g20"
   transform="translate(0,-464)">
</g>
<g
   id="g22"
   transform="translate(0,-464)">
</g>
<g
   id="g24"
   transform="translate(0,-464)">
</g>
<g
   id="g26"
   transform="translate(0,-464)">
</g>
<g
   id="g28"
   transform="translate(0,-464)">
</g>
<g
   id="g30"
   transform="translate(0,-464)">
</g>
<g
   id="g32"
   transform="translate(0,-464)">
</g>
<g
   id="g34"
   transform="translate(0,-464)">
</g>
<g
   id="g872"><path
     id="path833-5"
     d="m 23.712891,0.49414062 c -5.833461,0 -10.522199,1.12037698 -13.935547,3.33203118 -4.101193,2.6574037 -6.269531,6.9015132 -6.269531,12.2714842 0,7.226706 5.806266,16.88549 7.585937,19.673828 2.031748,3.183081 4.250108,6.079782 6.246094,8.15625 2.542362,2.644283 4.56815,3.875 6.373047,3.875 1.804991,0 3.829009,-1.230625 6.371093,-3.875 1.995894,-2.076376 4.214349,-4.973077 6.246094,-8.15625 C 38.10975,32.983238 43.91602,23.324362 43.91602,16.097656 43.91611,10.727777 41.74981,6.4836677 37.648438,3.8261718 34.235274,1.6145176 29.546261,0.49414062 23.712891,0.49414062 Z"
     style="fill:#5599ff;fill-opacity:1;stroke-width:0.0924025"
     inkscape:connector-curvature="0" /><path
     sodipodi:nodetypes="ccssccccccccc"
     inkscape:connector-curvature="0"
     id="path893"
     d="m 29.134766,44.730469 c 0.329661,-0.309742 0.60087,-0.440369 0.949218,-0.802735 1.995894,-2.076376 4.214349,-4.973077 6.246094,-8.15625 0.889836,-1.394123 2.786912,-4.505287 4.460938,-8.171875 0.38179,-0.836228 0.653979,-1.752663 0.998046,-2.632812 L 22.921295,6.4650612 l -0.342232,0.3585092 0.856484,16.8932266 -6.117188,3.671875 -0.328125,2.970703 5.636719,5.794922 -0.636719,1.205078 z"
     style="opacity:0.5;fill:url(#linearGradient919);fill-opacity:1;stroke:none;stroke-width:1px;stroke-linecap:butt;stroke-linejoin:miter;stroke-opacity:1" /><g
     id="g908"><path
       style="fill:#f9f9f9;stroke-width:0.0924025"
       d="m 21.990234,5.359375 v 12 l -5,-5 -2,2 7,7 -7,7 2,2 5,-5 v 12 l 10,-10 -6,-6 6,-6 z m 3,7 3,3 -3,3 z m 0,12 3,3 -3,3 z"
       id="path831"
       inkscape:connector-curvature="0" /><path
       style="fill:url(#linearGradient1034);fill-opacity:1;stroke-width:0.0924025"
       d="m 26.990234,28.359375 v 2 l 3,-3 -3,-3 v 2 l 1,1 z"
       id="path1006"
       inkscape:connector-curvature="0" /><path
       style="fill:url(#linearGradient1032);fill-opacity:1;stroke-width:0.0924025"
       d="m 26.990234,16.359375 v 2 l 3,-3 -3,-3 v 2 l 1,1 z"
       id="path1004"
       inkscape:connector-curvature="0" /><path
       style="fill:url(#linearGradient1042);fill-opacity:1;stroke-width:0.06160167"
       d="m 19.323569,26.692708 -0.666667,-0.666667 4.666666,-4.666666 -4.666666,-4.666666 0.666667,-0.666667 -0.666667,-0.666667 -1.333334,1.333334 4.666666,4.666666 -4.666666,4.666666 1.333334,1.333334 z"
       id="path1002"
       inkscape:connector-curvature="0" /><path
       style="fill:url(#linearGradient1067);fill-opacity:1;stroke-width:0.08602477"
       d="m 23.458804,35.857816 -0.02326,-12.141019 -1.445313,1.642578 v 12 z"
       id="path1000"
       inkscape:connector-curvature="0"
       sodipodi:nodetypes="ccccc" /><path
       style="fill:url(#linearGradient1069);fill-opacity:1;stroke-width:0.08602477"
       d="m 21.990234,5.359375 v 12 l 1.444536,1.568109 V 6.8276578 Z"
       id="path831-5"
       inkscape:connector-curvature="0"
       sodipodi:nodetypes="ccccc" /></g><path
     inkscape:connector-curvature="0"
     id="path833-5-3"
     d="m 23.712891,0.49414062 c -5.833461,0 -10.522199,1.12037628 -13.935547,3.33203128 -4.101193,2.6574033 -6.269532,6.9015131 -6.269532,12.2714841 0,7.226706 5.806267,16.88549 7.585938,19.673828 2.031748,3.183081 4.250108,6.079782 6.246094,8.15625 2.542362,2.644283 4.56815,3.875 6.373047,3.875 1.804897,0 3.830685,-1.230717 6.373047,-3.875 1.995986,-2.076468 4.214345,-4.973169 6.246093,-8.15625 1.779671,-2.788338 7.585938,-12.447122 7.585938,-19.673828 0,-5.369971 -2.168339,-9.6140804 -6.269531,-12.2714841 C 34.235089,1.6145176 29.546352,0.49414062 23.712891,0.49414062 Z m 0,0.14453126 c 2.11246,0.084873 4.11932,0.27168534 5.875,0.69140622 1.164018,0.2782755 2.252953,0.6269196 3.263671,1.0429688 1.010719,0.4160492 1.943539,0.9002114 2.796876,1.453125 1.025298,0.6643509 1.928972,1.4277146 2.708984,2.2832031 0.780012,0.8554885 1.435524,1.8037129 1.96289,2.8359375 0.527367,1.0322246 0.92795,2.1491905 1.195313,3.3437495 0.267363,1.19456 0.402344,2.466102 0.402344,3.808594 0,1.806677 -0.363403,3.765135 -0.935547,5.730469 -0.572145,1.965334 -1.352441,3.938196 -2.189453,5.771484 -1.674026,3.666577 -3.571103,6.777706 -4.460938,8.171875 -2.031748,3.183081 -4.250107,6.079782 -6.246093,8.15625 -1.271181,1.322142 -2.413037,2.291473 -3.462891,2.929688 -0.319276,0.19409 -0.618094,0.306547 -0.910156,0.390625 -0.292063,-0.08408 -0.59088,-0.196535 -0.910157,-0.390625 C 21.75288,46.219207 20.611025,45.249876 19.339844,43.927734 17.343858,41.851266 15.125498,38.954565 13.09375,35.771484 12.203915,34.377315 10.306838,31.266186 8.632812,27.599609 7.7958,25.766321 7.015504,23.793459 6.443359,21.828125 5.871215,19.862791 5.507813,17.904333 5.507812,16.097656 c 0,-1.342492 0.134981,-2.614034 0.402344,-3.808594 C 6.177519,11.094504 6.578102,9.977537 7.105469,8.9453125 7.632836,7.913088 8.288347,6.9648634 9.068359,6.109375 9.848371,5.2538866 10.752046,4.4905227 11.777344,3.8261719 12.630681,3.2732581 13.5635,2.7890962 14.574219,2.3730469 15.584938,1.9569975 16.673873,1.6083537 17.837891,1.3300781 19.59357,0.91035714 21.60043,0.72354488 23.712891,0.63867188 Z"
     style="opacity:0.2;fill:#1c1f24;fill-opacity:1;stroke-width:0.0924025" /></g></svg>