<?xml version="1.0" encoding="UTF-8" standalone="no"?>
<!-- Created with Inkscape (http://www.inkscape.org/) -->

<svg
   xmlns:dc="http://purl.org/dc/elements/1.1/"
   xmlns:cc="http://creativecommons.org/ns#"
   xmlns:rdf="http://www.w3.org/1999/02/22-rdf-syntax-ns#"
   xmlns:svg="http://www.w3.org/2000/svg"
   xmlns="http://www.w3.org/2000/svg"
   xmlns:xlink="http://www.w3.org/1999/xlink"
   xmlns:sodipodi="http://sodipodi.sourceforge.net/DTD/sodipodi-0.dtd"
   xmlns:inkscape="http://www.inkscape.org/namespaces/inkscape"
   width="48"
   height="48"
   viewBox="0 0 12.7 12.7"
   version="1.1"
   id="svg829"
   inkscape:version="0.92.3 (2405546, 2018-03-11)"
   sodipodi:docname="mirage.svg">
  <defs
     id="defs823">
    <linearGradient
       inkscape:collect="always"
       id="linearGradient969">
      <stop
         style="stop-color:#000000;stop-opacity:1"
         offset="0"
         id="stop965" />
      <stop
         style="stop-color:#060000;stop-opacity:0"
         offset="1"
         id="stop967" />
    </linearGradient>
    <linearGradient
       inkscape:collect="always"
       xlink:href="#linearGradient969"
       id="linearGradient963"
       x1="3.4115686"
       y1="285.69449"
       x2="11.55451"
       y2="293.91217"
       gradientUnits="userSpaceOnUse"
       gradientTransform="matrix(3.7795276,0,0,3.7795276,39.999999,-1074.5197)" />
    <linearGradient
       inkscape:collect="always"
       xlink:href="#linearGradient969"
       id="linearGradient907"
       gradientUnits="userSpaceOnUse"
       x1="1.2373159"
       y1="290.8313"
       x2="13.978437"
       y2="290.60718" />
  </defs>
  <sodipodi:namedview
     id="base"
     pagecolor="#ffffff"
     bordercolor="#666666"
     borderopacity="1.0"
     inkscape:pageopacity="0.0"
     inkscape:pageshadow="2"
     inkscape:zoom="1.8782524"
     inkscape:cx="24"
     inkscape:cy="24"
     inkscape:document-units="mm"
     inkscape:current-layer="layer1"
     showgrid="false"
     showguides="true"
     inkscape:guide-bbox="true"
     inkscape:window-width="1366"
     inkscape:window-height="719"
     inkscape:window-x="0"
     inkscape:window-y="25"
     inkscape:window-maximized="1"
     scale-x="1.9"
     units="px"
     inkscape:snap-global="true"
     inkscape:snap-smooth-nodes="true" />
  <metadata
     id="metadata826">
    <rdf:RDF>
      <cc:Work
         rdf:about="">
        <dc:format>image/svg+xml</dc:format>
        <dc:type
           rdf:resource="http://purl.org/dc/dcmitype/StillImage" />
        <dc:title />
      </cc:Work>
    </rdf:RDF>
  </metadata>
  <g
     inkscape:label="Capa 1"
     inkscape:groupmode="layer"
     id="layer1"
     transform="translate(0,-284.3)">
    <g
       id="g894">
      <path
         inkscape:connector-curvature="0"
         id="path892"
         d="m 6.3502581,284.39147 c -1.5434365,0 -2.7839982,0.29643 -3.6871132,0.8816 -1.0851073,0.7031 -1.6588134,1.82603 -1.6588134,3.24683 0,1.91207 1.5362409,4.46762 2.0071125,5.20537 0.5375664,0.84219 1.1245075,1.60861 1.6526121,2.158 0.6726666,0.69964 1.2086564,1.02527 1.686202,1.02527 0.4775706,0 1.013092,-0.32561 1.685685,-1.02527 0.5280803,-0.54937 1.1150466,-1.31579 1.6526124,-2.158 0.4708715,-0.73773 2.0071125,-3.2933 2.0071125,-5.20537 2.4e-5,-1.42078 -0.573141,-2.5437 -1.658296,-3.24683 -0.9030667,-0.58517 -2.1437014,-0.8816 -3.6871139,-0.8816 z"
         style="fill:#e3dbde;stroke-width:0.02444816" />
      <path
         sodipodi:nodetypes="ccccccccsccscsccccccc"
         inkscape:connector-curvature="0"
         id="path905"
         d="m 7.1194523,296.65779 c 0.238785,0 -0.277642,0.16944 9e-6,6.3e-4 0.277651,-0.16886 0.579927,-0.42532 0.916223,-0.77515 0.528081,-0.54937 1.115047,-1.3158 1.652613,-2.15801 0.235435,-0.36886 0.7373697,-1.19202 1.1802877,-2.16214 0.221461,-0.48506 0.427913,-1.00704 0.579295,-1.52704 0.151378,-0.51999 0.247528,-1.03817 0.247528,-1.51618 8e-6,-0.3552 -0.03577,-0.69164 -0.106453,-1.00769 -0.07069,-0.31606 -0.176276,-0.61159 -0.315743,-0.8847 -0.139467,-0.27311 -0.313012,-0.52399 -0.519348,-0.75035 -0.206333,-0.22635 -0.445463,-0.42831 -0.716752,-0.60409 -0.2257657,-0.1463 -0.4725867,-0.2744 -0.7400057,-0.38448 -0.267419,-0.11008 -0.555529,-0.20232 -0.863513,-0.27595 -0.615969,-0.14725 -1.311887,-0.22117 -2.083594,-0.22117 -0.07848,0 -0.134961,0.0212 -0.211873,0.0227 l -0.03721,0.8568 v 1.41955 l 0.24908,3.7853 0.149345,2.16628 -0.149345,2.46548 z"
         style="opacity:0.4;fill:url(#linearGradient907);fill-opacity:1;stroke:none;stroke-width:0.26458332px;stroke-linecap:butt;stroke-linejoin:miter;stroke-opacity:1" />
      <path
         inkscape:connector-curvature="0"
         id="path877"
         d="m 6.3485147,290.9164 -1.8616403,-1.25376 1.4057287,-1.44374 2.2795595,0.15212 0.7598537,0.94982 0.075984,1.48171 z"
         style="fill:#fbfdfd;fill-opacity:1;stroke:none;stroke-width:0.40367204px;stroke-linecap:butt;stroke-linejoin:miter;stroke-opacity:1" />
      <path
         inkscape:connector-curvature="0"
         id="path886"
         d="m 6.3499993,284.39147 c -0.228156,0 -0.401175,0.0527 -0.615983,0.0656 -0.0016,0.0122 -0.01654,0.0489 -0.01654,0.0574 0,0.0795 -0.02148,0.21147 -0.04341,0.29507 -0.02641,0.0834 -0.05731,0.31119 -0.06615,0.50488 -0.01317,0.21134 -0.06653,0.47171 -0.128157,0.65215 -0.06162,0.16803 -0.09715,0.32947 -0.08837,0.36019 0.03521,0.0833 -0.368579,0.35687 -0.434599,0.29094 -0.06602,-0.0666 -0.119372,-0.0606 -0.119372,0.006 0,0.0666 -0.3002607,0.24184 -0.4190957,0.24184 -0.03521,0 -0.06511,0.0225 -0.06511,0.0481 0,0.0314 -0.04328,0.039 -0.104903,0.0227 -0.07921,-0.0196 -0.122677,-0.002 -0.15348,0.0481 -0.03959,0.074 -0.04451,0.0742 -0.128157,-0.002 -0.05283,-0.0444 -0.106182,-0.15895 -0.119372,-0.25993 -0.01778,-0.0963 -0.06994,-0.26026 -0.109555,-0.35708 -0.06602,-0.14996 -0.08527,-0.16317 -0.08527,-0.0739 -0.0045,0.0574 0.02811,0.2117 0.0677,0.33486 0.114429,0.35655 -4.38e-4,0.60717 -0.299723,0.65113 -0.127636,0.006 -0.203235,-0.002 -0.396875,-0.12351 -0.462134,-0.29053 -0.470315,-0.30831 -0.571541,-0.95963 -0.044,-0.2861 -0.09651,-0.36534 -0.149345,-0.22893 -0.03081,0.074 0.04351,0.76543 0.109554,1.07797 0.05721,0.25089 0.202669,0.55476 0.286287,0.5855 0.03521,0.0196 0.08857,0.10167 0.119373,0.19378 0.02643,0.0925 0.09112,0.22066 0.139526,0.28216 0.044,0.0666 0.09273,0.21482 0.105937,0.32917 0.01317,0.11857 0.07093,0.35674 0.128158,0.53279 0.06602,0.18887 0.104903,0.41876 0.104903,0.57722 0,0.18884 0.02261,0.28979 0.08423,0.36897 0.04843,0.0574 0.10641,0.18504 0.132809,0.27751 0.02643,0.0963 0.104255,0.23362 0.174666,0.29972 0.08364,0.0833 0.136912,0.18879 0.154513,0.31678 0.01778,0.10169 0.06657,0.22827 0.110587,0.28112 0.04843,0.0537 0.09273,0.1985 0.105937,0.35243 0.01778,0.14968 0.08666,0.38751 0.157096,0.54157 0.08364,0.17613 0.123561,0.31641 0.105937,0.39119 -0.01778,0.0888 0.0083,0.14061 0.118339,0.22893 0.18926,0.16295 0.238559,0.1505 0.207739,-0.0383 -0.04843,-0.29495 0.07467,-0.38359 0.1979207,-0.14107 0.118851,0.24655 0.177064,0.42238 0.146244,0.47077 -0.01333,0.0259 0.01679,0.18044 0.06511,0.34365 0.05283,0.16766 0.104876,0.45752 0.113689,0.65112 0.03521,0.58985 0.136469,1.37306 0.237711,1.84847 0.02641,0.11861 0.06638,0.39544 0.08837,0.60668 0.0131,0.1471 0.04074,0.21476 0.06511,0.29921 0.0054,0.003 0.01223,0.0117 0.01757,0.015 0.121,0.0736 0.222828,0.0682 0.33538,0.10904 0.08936,-0.0667 0.196049,-0.12358 0.216524,-0.22893 0.01333,-0.0795 -0.02237,-0.41813 -0.07958,-0.75706 -0.06162,-0.33893 -0.100523,-0.62477 -0.08733,-0.64234 0.0089,-0.0196 -0.0058,-0.0924 -0.03204,-0.1757 -0.06602,-0.2197 -0.171565,-1.15714 -0.171565,-1.5136 0,-0.45335 0.141468,-0.62489 0.339514,-0.40928 0.180469,0.20299 0.219253,0.47473 0.276469,1.83917 0.07008,1.67054 0.09049,1.76863 0.133325,1.97662 0.194044,-0.0271 0.389084,-0.0643 0.608748,-0.19792 0.08814,-0.0536 0.197567,-0.17455 0.290938,-0.24598 5.58e-4,-0.0144 0.0021,-0.0203 0.0026,-0.0346 0.03083,-0.91105 0.06087,-1.386 0.113689,-1.65003 0.02641,-0.11858 0.0532,-0.39127 0.06201,-0.60255 0.01778,-0.39614 0.114528,-0.69504 0.220142,-0.69504 0.03521,0 0.07077,0.0533 0.07958,0.11833 0.044,0.25528 0.02596,0.89747 -0.03566,1.24954 -0.03962,0.20237 -0.08857,0.77909 -0.119373,1.27641 l -0.0036,0.0677 c 0.105028,-0.0962 0.193621,-0.14207 0.305924,-0.25889 0.173095,-0.18007 0.359635,-0.48571 0.541569,-0.70745 0.04872,-0.4488 0.121463,-1.29711 0.160197,-1.38907 0.03521,-0.0833 0.05146,-0.18183 0.03824,-0.21704 -0.02641,-0.0704 0.08062,-0.29038 0.225826,-0.46199 0.05721,-0.0704 0.11804,-0.17894 0.131258,-0.24081 0.04843,-0.19368 0.185258,-0.31739 0.326078,-0.29094 0.105617,0.0226 0.122934,0.004 0.149345,-0.11575 0.01317,-0.0795 0.02636,-0.18804 0.02636,-0.2496 0,-0.0574 0.05361,-0.21611 0.115238,-0.34365 0.06162,-0.13156 0.09586,-0.25988 0.08268,-0.28628 -0.01333,-0.0259 0.0056,-0.10912 0.04548,-0.18449 0.07483,-0.15382 0.1614827,-0.65136 0.1570957,-0.92862 0,-0.0888 -0.06137,-0.32962 -0.1317737,-0.52762 -0.123231,-0.33451 -0.132593,-0.39697 -0.110588,-0.7183 0.01778,-0.18927 0.04904,-0.37384 0.07545,-0.40463 0.05721,-0.074 8.97e-4,-0.12759 -0.06511,-0.061 -0.09683,0.0963 -0.164089,0.0514 -0.278536,-0.1726 -0.105631,-0.19805 -0.126684,-0.21892 -0.227893,-0.19223 -0.06162,0.0196 -0.136358,0.002 -0.171566,-0.0227 -0.03081,-0.0314 -0.07928,-0.0387 -0.101285,-0.0258 -0.02643,0.006 -0.100898,-0.0573 -0.166915,-0.15761 -0.06602,-0.1055 -0.155182,-0.23009 -0.19482,-0.27854 -0.03962,-0.0481 -0.09632,-0.16991 -0.127125,-0.27595 -0.03962,-0.15384 -0.08825,-0.21623 -0.286287,-0.3483 -0.132042,-0.0888 -0.241845,-0.18512 -0.241845,-0.21549 0,-0.0703 -0.07098,-0.0834 -0.110588,-0.0196 -0.05281,0.0833 -0.113307,0.0448 -0.179317,-0.1142 l -0.06615,-0.15917 -0.07545,0.14625 c -0.06162,0.12359 -0.09644,0.14902 -0.202054,0.14004 -0.136425,-0.004 -0.422197,-0.25118 -0.422197,-0.35243 0,-0.0351 -0.03145,-0.10543 -0.06666,-0.15813 -0.03962,-0.0611 -0.06589,-0.21959 -0.07028,-0.38241 -0.0045,-0.16267 -0.03118,-0.30375 -0.06201,-0.33021 -0.07923,-0.0666 -0.168234,-0.82367 -0.15503,-1.34307 4.68e-4,-0.0265 -4.31e-4,-0.0477 0,-0.0754 -0.08936,-0.002 -0.155521,-0.0263 -0.247013,-0.0263 z m 0.206189,5.00744 a 0.25007068,0.22506361 0 0 1 0.001,0 0.25007068,0.22506361 0 0 1 0.01809,0 0.25007068,0.22506361 0 0 1 0.249597,0.22428 0.25007068,0.22506361 0 0 1 -0.249597,0.22583 0.25007068,0.22506361 0 0 1 -0.251147,-0.22583 0.25007068,0.22506361 0 0 1 0.232027,-0.22428 z m 1.00614,0.0367 v 0.008 c 0.0045,-0.002 0.03094,0.001 0.06615,0.006 0.03518,0.0196 0.144603,0.19348 0.250114,0.39997 l 0.185518,0.37672 -0.132808,0.11938 c -0.132042,0.11859 -0.572737,0.29024 -0.621151,0.24184 -0.01778,-0.006 -0.0029,-0.0609 0.0279,-0.0997 0.132042,-0.18485 0.196612,-0.40453 0.209807,-0.71262 0.0087,-0.18035 0.01447,-0.33507 0.01447,-0.33952 z m -2.04742,0.13901 v 5.2e-4 c 0.02531,0.006 0.02687,0.0535 0.02687,0.13126 0,0.0795 0.0389,0.25195 0.08733,0.38395 0.105617,0.28611 0.111246,0.34694 0.02325,0.37776 -0.07923,0.0314 -0.718342,-0.22439 -0.828373,-0.33021 -0.07483,-0.074 -0.0745,-0.0796 0.01344,-0.19379 0.09683,-0.12385 0.264359,-0.2282 0.506429,-0.32504 0.09683,-0.0379 0.14574,-0.0548 0.171049,-0.0444 z"
         style="fill:#1a1a1a;stroke:none;stroke-width:0.00440122" />
      <path
         inkscape:connector-curvature="0"
         id="path1027"
         d="m 1.0386961,288.19899 c -0.00724,0.10929 -0.034106,0.20778 -0.034106,0.32091 0,1.91207 1.536241,4.46762 2.0071125,5.20537 0.5375664,0.84219 1.123991,1.60861 1.6520957,2.158 0.6726666,0.69964 1.2086563,1.02527 1.686202,1.02527 0.4775705,0 1.0130922,-0.32561 1.6856853,-1.02527 0.5280803,-0.54937 1.1150462,-1.31579 1.6526123,-2.158 0.4708711,-0.73773 2.0071101,-3.2933 2.0071101,-5.20537 3e-6,-0.11312 -0.02687,-0.21162 -0.03411,-0.32091 -0.0221,0.42126 -0.08232,0.85937 -0.212907,1.30793 -0.151379,0.52 -0.358349,1.04198 -0.57981,1.52704 -0.442918,0.97012 -0.9448515,1.79328 -1.1802881,2.16214 -0.5375645,0.84221 -1.1245331,1.60863 -1.6526123,2.15801 -0.3362973,0.34983 -0.638056,0.60629 -0.9157065,0.77514 -0.2776503,0.16886 -0.5306769,0.25012 -0.7694621,0.25012 -0.2387732,0 -0.4922046,-0.0812 -0.7699788,-0.25012 -0.2777741,-0.16886 -0.5804066,-0.42533 -0.9167399,-0.77514 -0.5281047,-0.5494 -1.1145293,-1.31582 -1.6520957,-2.15801 -0.2354357,-0.36887 -0.7373704,-1.19203 -1.1802896,-2.16214 -0.2214596,-0.48506 -0.4284297,-1.00705 -0.5798095,-1.52704 -0.1305843,-0.44856 -0.1908127,-0.88668 -0.212907,-1.30793 z"
         style="opacity:0.5;fill:#000000;stroke-width:0.02444816" />
    </g>
  </g>
</svg>
