<?xml version="1.0" encoding="UTF-8" standalone="no"?>
<!-- Generator: Adobe Illustrator 19.0.0, SVG Export Plug-In . SVG Version: 6.00 Build 0)  -->

<svg
   xmlns:dc="http://purl.org/dc/elements/1.1/"
   xmlns:cc="http://creativecommons.org/ns#"
   xmlns:rdf="http://www.w3.org/1999/02/22-rdf-syntax-ns#"
   xmlns:svg="http://www.w3.org/2000/svg"
   xmlns="http://www.w3.org/2000/svg"
   xmlns:xlink="http://www.w3.org/1999/xlink"
   xmlns:sodipodi="http://sodipodi.sourceforge.net/DTD/sodipodi-0.dtd"
   xmlns:inkscape="http://www.inkscape.org/namespaces/inkscape"
   version="1.1"
   id="Capa_1"
   x="0px"
   y="0px"
   viewBox="0 0 48 48"
   xml:space="preserve"
   sodipodi:docname="openbox.svg"
   width="48"
   height="48"
   inkscape:version="0.92.3 (2405546, 2018-03-11)"><metadata
   id="metadata41"><rdf:RDF><cc:Work
       rdf:about=""><dc:format>image/svg+xml</dc:format><dc:type
         rdf:resource="http://purl.org/dc/dcmitype/StillImage" /><dc:title /></cc:Work></rdf:RDF></metadata><defs
   id="defs39"><linearGradient
     id="linearGradient969"
     inkscape:collect="always"><stop
       id="stop965"
       offset="0"
       style="stop-color:#666666;stop-opacity:1" /><stop
       id="stop967"
       offset="1"
       style="stop-color:#ffffff;stop-opacity:1" /></linearGradient><linearGradient
     inkscape:collect="always"
     id="linearGradient895"><stop
       style="stop-color:#000000;stop-opacity:1;"
       offset="0"
       id="stop891" /><stop
       style="stop-color:#000000;stop-opacity:0"
       offset="1"
       id="stop893" /></linearGradient><linearGradient
     inkscape:collect="always"
     id="linearGradient877"><stop
       style="stop-color:#2ca089;stop-opacity:1"
       offset="0"
       id="stop873" /><stop
       id="stop881"
       offset="0.4482595"
       style="stop-color:#5fd3bc;stop-opacity:1" /><stop
       style="stop-color:#87decd;stop-opacity:1"
       offset="0.75995833"
       id="stop883" /><stop
       style="stop-color:#afe9dd;stop-opacity:1"
       offset="1"
       id="stop875" /></linearGradient><clipPath
     clipPathUnits="userSpaceOnUse"
     id="clipPath1443"><rect
       ry="1.4527029"
       y="3"
       x="2"
       height="43"
       width="43"
       id="rect1445"
       style="fill:#4dc7c9;fill-opacity:1;stroke:none;stroke-width:0.19905733;stroke-linejoin:round;stroke-miterlimit:4;stroke-dasharray:none;stroke-opacity:0" /></clipPath><linearGradient
     x1="24"
     y1="13"
     x2="24"
     y2="40"
     id="linearGradient5587"
     xlink:href="#linearGradient6457"
     gradientUnits="userSpaceOnUse"
     gradientTransform="matrix(0.62006564,0,0,0.60185175,9.118424,4.0821807)" /><linearGradient
     id="linearGradient6457"><stop
       id="stop6459"
       style="stop-color:white;stop-opacity:0.94117647"
       offset="0" /><stop
       id="stop6461"
       style="stop-color:white;stop-opacity:0.70588237"
       offset="1" /></linearGradient><linearGradient
     x1="21.866402"
     y1="8.5763302"
     x2="21.780495"
     y2="39.923653"
     id="linearGradient5593"
     xlink:href="#linearGradient2781"
     gradientUnits="userSpaceOnUse"
     gradientTransform="matrix(0.78787698,0,0,0.74590089,4.303062,-0.08809268)" /><linearGradient
     id="linearGradient2781"><stop
       id="stop2783"
       style="stop-color:#0b1728;stop-opacity:1"
       offset="0" /><stop
       id="stop6301"
       style="stop-color:#214478;stop-opacity:1"
       offset="0.13216467" /><stop
       id="stop2785"
       style="stop-color:#5f8dd3;stop-opacity:1"
       offset="1" /></linearGradient><linearGradient
     inkscape:collect="always"
     xlink:href="#linearGradient877"
     id="linearGradient879"
     x1="19.419428"
     y1="-0.94117647"
     x2="27.827631"
     y2="47.152943"
     gradientUnits="userSpaceOnUse" /><linearGradient
     inkscape:collect="always"
     xlink:href="#linearGradient895"
     id="linearGradient930"
     gradientUnits="userSpaceOnUse"
     x1="11.594533"
     y1="7.8335004"
     x2="48.59602"
     y2="44.25703" /><linearGradient
     inkscape:collect="always"
     xlink:href="#linearGradient969"
     id="linearGradient963"
     x1="33.684807"
     y1="8.2694292"
     x2="33.697826"
     y2="10.04043"
     gradientUnits="userSpaceOnUse" /><linearGradient
     gradientTransform="translate(-1.9999981)"
     inkscape:collect="always"
     xlink:href="#linearGradient969"
     id="linearGradient963-2"
     x1="33.684807"
     y1="8.2694292"
     x2="33.697826"
     y2="10.04043"
     gradientUnits="userSpaceOnUse" /><linearGradient
     gradientTransform="translate(-3.999998)"
     inkscape:collect="always"
     xlink:href="#linearGradient969"
     id="linearGradient963-2-7"
     x1="33.684807"
     y1="8.2694292"
     x2="33.697826"
     y2="10.04043"
     gradientUnits="userSpaceOnUse" /></defs><sodipodi:namedview
   pagecolor="#ffffff"
   bordercolor="#666666"
   borderopacity="1"
   objecttolerance="10"
   gridtolerance="10"
   guidetolerance="10"
   inkscape:pageopacity="0"
   inkscape:pageshadow="2"
   inkscape:window-width="1366"
   inkscape:window-height="719"
   id="namedview37"
   showgrid="false"
   showguides="true"
   inkscape:guide-bbox="true"
   inkscape:zoom="3.7565048"
   inkscape:cx="24"
   inkscape:cy="24"
   inkscape:window-x="0"
   inkscape:window-y="25"
   inkscape:window-maximized="1"
   inkscape:current-layer="Capa_1"
   inkscape:snap-global="true"
   inkscape:snap-smooth-nodes="true" />


<g
   id="g6"
   transform="translate(0,-464)">
</g>
<g
   id="g8"
   transform="translate(0,-464)">
</g>
<g
   id="g10"
   transform="translate(0,-464)">
</g>
<g
   id="g12"
   transform="translate(0,-464)">
</g>
<g
   id="g14"
   transform="translate(0,-464)">
</g>
<g
   id="g16"
   transform="translate(0,-464)">
</g>
<g
   id="g18"
   transform="translate(0,-464)">
</g>
<g
   id="g20"
   transform="translate(0,-464)">
</g>
<g
   id="g22"
   transform="translate(0,-464)">
</g>
<g
   id="g24"
   transform="translate(0,-464)">
</g>
<g
   id="g26"
   transform="translate(0,-464)">
</g>
<g
   id="g28"
   transform="translate(0,-464)">
</g>
<g
   id="g30"
   transform="translate(0,-464)">
</g>
<g
   id="g32"
   transform="translate(0,-464)">
</g>
<g
   id="g34"
   transform="translate(0,-464)">
</g>
<g
   id="g878"><path
     id="path834"
     d="m 24.000976,0.3457035 c -5.833461,0 -10.522198,1.1203776 -13.935546,3.3320313 -4.1011933,2.6574037 -6.2695315,6.9015122 -6.2695315,12.2714832 0,7.226706 5.8062658,16.88549 7.5859375,19.673828 2.031747,3.183082 4.250107,6.079783 6.246093,8.15625 2.542362,2.644284 4.56815,3.875 6.373047,3.875 1.804991,0 3.829009,-1.230625 6.371093,-3.875 1.995894,-2.076376 4.214349,-4.973077 6.246094,-8.15625 C 38.397835,32.8348 44.204101,23.175924 44.204101,15.949219 44.204193,10.57934 42.037899,6.3352307 37.936523,3.6777348 34.523359,1.4660811 29.834346,0.3457035 24.000976,0.3457035 Z"
     style="fill:url(#linearGradient879);fill-opacity:1;stroke-width:0.0924025"
     inkscape:connector-curvature="0" /><path
     inkscape:connector-curvature="0"
     id="path4588"
     d="m 24.000977,0.3457035 c -5.833461,0 -10.522199,1.1203783 -13.935547,3.3320313 -4.101193,2.657404 -6.269532,6.9015122 -6.269532,12.2714832 0,7.226706 5.806266,16.885489 7.585938,19.673828 2.031747,3.183082 4.250107,6.079783 6.246094,8.15625 2.542362,2.644284 4.56815,3.875 6.373047,3.875 1.804991,0 3.829009,-1.230626 6.371093,-3.875 1.995894,-2.076377 4.214348,-4.973078 6.246094,-8.15625 C 38.397835,32.8348 44.204102,23.175923 44.204102,15.94922 44.204194,10.57934 42.037898,6.3352309 37.936524,3.6777348 34.52336,1.4660818 29.834346,0.3457035 24.000977,0.3457035 Z m 0,0.14453126 c 2.112445,0.084873 4.119293,0.27168527 5.875,0.69140624 1.164035,0.2782756 2.252954,0.6269196 3.263671,1.0429688 1.010718,0.4160492 1.943585,0.9002116 2.796876,1.453125 1.025343,0.6643739 1.929139,1.4277032 2.708984,2.2832031 0.779844,0.8554999 1.435774,1.803713 1.96289,2.8359375 0.527119,1.0322245 0.926199,2.1492026 1.19336,3.3437496 0.267161,1.194547 0.402367,2.466124 0.402344,3.808593 0,1.806676 -0.363402,3.765127 -0.935547,5.730469 -0.572145,1.965342 -1.352441,3.93819 -2.189453,5.771484 -1.674026,3.66659 -3.571102,6.777752 -4.460938,8.171875 -2.031746,3.183172 -4.2502,6.079876 -6.246094,8.15625 -1.271042,1.322187 -2.413501,2.291486 -3.46289,2.929688 -0.319034,0.194026 -0.618451,0.306539 -0.910156,0.390625 -0.291517,-0.08404 -0.58956,-0.19692 -0.908204,-0.390625 -1.049854,-0.638216 -2.191709,-1.607546 -3.46289,-2.929688 -1.995987,-2.076467 -4.214347,-4.973168 -6.246094,-8.15625 C 12.492,34.228876 10.594924,31.117747 8.920898,27.45117 8.083886,25.617882 7.30359,23.64502 6.731445,21.679686 6.159301,19.714352 5.795899,17.755894 5.795898,15.949218 c 0,-1.342492 0.134981,-2.614035 0.402344,-3.808593 C 6.465605,10.946066 6.866188,9.8291 7.393555,8.7968754 7.920922,7.7646508 8.576433,6.8164264 9.356445,5.9609379 10.136457,5.1054494 11.040132,4.3420858 12.06543,3.6777348 c 0.853337,-0.5529133 1.786156,-1.0370759 2.796875,-1.453125 1.010719,-0.4160492 2.099654,-0.7646932 3.263672,-1.0429688 1.755679,-0.41972098 3.762539,-0.60653321 5.875,-0.69140624 z"
     style="opacity:0.2;fill:#000000;stroke-width:0.0924025" /><path
     inkscape:connector-curvature="0"
     id="path889"
     d="m 28.15625,45.654297 c 0.71714,-0.562653 1.40141,-1.028835 2.214844,-1.875 1.995894,-2.076377 4.214348,-4.973078 6.246094,-8.15625 0.889835,-1.394123 2.786911,-4.505287 4.460937,-8.171875 0.837013,-1.833294 1.619261,-3.806143 2.191406,-5.771484 0.572145,-1.965342 0.933594,-3.923793 0.933594,-5.730469 7e-6,-0.41924 -0.09871,-0.784157 -0.125,-1.189453 L 36.705078,7.3417969 11.482422,28.894531 Z"
     style="opacity:0.4;fill:url(#linearGradient930);fill-opacity:1;stroke:none;stroke-width:1px;stroke-linecap:butt;stroke-linejoin:miter;stroke-opacity:1" /><rect
     style="fill:url(#linearGradient5593);fill-opacity:1;stroke:none;stroke-width:0.81252801;stroke-miterlimit:4;stroke-dasharray:none;stroke-opacity:1"
     id="rect1887"
     y="6.6250172"
     x="11.000019"
     ry="1.6249996"
     rx="1.6249996"
     height="22.749966"
     width="25.999964" /><rect
     style="fill:url(#linearGradient5587);fill-opacity:1;stroke:none;stroke-width:0.81249982"
     id="rect6287"
     y="11.906252"
     x="12.21875"
     ry="0.40624991"
     rx="0.40624991"
     height="16.249994"
     width="23.562494" /><rect
     y="8.4078512"
     x="32.930492"
     height="1.5597504"
     width="1.4888527"
     id="rect932"
     style="opacity:0.4;fill:url(#linearGradient963);fill-opacity:1;stroke:none;stroke-width:0.76550132;stroke-miterlimit:4;stroke-dasharray:none;stroke-opacity:1" /><rect
     y="8.4078512"
     x="30.930492"
     height="1.5597504"
     width="1.4888527"
     id="rect932-2"
     style="opacity:0.4;fill:url(#linearGradient963-2);fill-opacity:1;stroke:none;stroke-width:0.76550132;stroke-miterlimit:4;stroke-dasharray:none;stroke-opacity:1" /><rect
     y="8.4078512"
     x="28.930492"
     height="1.5597504"
     width="1.4888527"
     id="rect932-2-3"
     style="opacity:0.4;fill:url(#linearGradient963-2-7);fill-opacity:1;stroke:none;stroke-width:0.76550132;stroke-miterlimit:4;stroke-dasharray:none;stroke-opacity:1" /></g></svg>