<?xml version="1.0" encoding="UTF-8" standalone="no"?>
<!-- Generator: Adobe Illustrator 19.0.0, SVG Export Plug-In . SVG Version: 6.00 Build 0)  -->

<svg
   xmlns:dc="http://purl.org/dc/elements/1.1/"
   xmlns:cc="http://creativecommons.org/ns#"
   xmlns:rdf="http://www.w3.org/1999/02/22-rdf-syntax-ns#"
   xmlns:svg="http://www.w3.org/2000/svg"
   xmlns="http://www.w3.org/2000/svg"
   xmlns:xlink="http://www.w3.org/1999/xlink"
   xmlns:sodipodi="http://sodipodi.sourceforge.net/DTD/sodipodi-0.dtd"
   xmlns:inkscape="http://www.inkscape.org/namespaces/inkscape"
   version="1.1"
   id="Capa_1"
   x="0px"
   y="0px"
   viewBox="0 0 48 48"
   xml:space="preserve"
   sodipodi:docname="pitivi.svg"
   width="48"
   height="48"
   inkscape:version="0.92.3 (2405546, 2018-03-11)"><metadata
   id="metadata41"><rdf:RDF><cc:Work
       rdf:about=""><dc:format>image/svg+xml</dc:format><dc:type
         rdf:resource="http://purl.org/dc/dcmitype/StillImage" /><dc:title /></cc:Work></rdf:RDF></metadata><defs
   id="defs39"><linearGradient
     inkscape:collect="always"
     id="linearGradient4149"><stop
       style="stop-color:#e3dbde;stop-opacity:1;"
       offset="0"
       id="stop4145" /><stop
       id="stop4153"
       offset="0.14256871"
       style="stop-color:#b3b3b3;stop-opacity:1" /><stop
       style="stop-color:#c8beb7;stop-opacity:1"
       offset="0.47503427"
       id="stop4155" /><stop
       id="stop4159"
       offset="0.62028819"
       style="stop-color:#e3d7f4;stop-opacity:1" /><stop
       id="stop4157"
       offset="0.79483205"
       style="stop-color:#c8b7c4;stop-opacity:1" /><stop
       style="stop-color:#d5d5ff;stop-opacity:1"
       offset="1"
       id="stop4147" /></linearGradient><linearGradient
     id="linearGradient4109"><stop
       offset="0"
       style="stop-color:#070000;stop-opacity:1"
       id="stop4105" /><stop
       offset="1"
       style="stop-color:#070000;stop-opacity:0"
       id="stop4107" /></linearGradient><linearGradient
     x1="-41.965721"
     y1="123.15611"
     x2="3.90625"
     y2="-33.343899"
     id="linearGradient3039"
     xlink:href="#linearGradient3014"
     gradientUnits="userSpaceOnUse" /><linearGradient
     id="linearGradient3014"><stop
       id="stop3016"
       style="stop-color:#000000;stop-opacity:1"
       offset="0" /><stop
       id="stop3018"
       style="stop-color:#000000;stop-opacity:0"
       offset="1" /></linearGradient><linearGradient
     x1="100.12177"
     y1="29.36578"
     x2="28.87278"
     y2="57.11578"
     id="linearGradient3826"
     xlink:href="#linearGradient3812"
     gradientUnits="userSpaceOnUse"
     gradientTransform="matrix(0.24022488,0,0,0.24022488,10.553603,4.1770862)" /><linearGradient
     id="linearGradient3812"><stop
       id="stop3814"
       style="stop-color:#7e7e7e;stop-opacity:1"
       offset="0" /><stop
       id="stop3816"
       style="stop-color:#2b2b2b;stop-opacity:1"
       offset="1" /></linearGradient><linearGradient
     x1="74.732681"
     y1="3.8115842"
     x2="24.228485"
     y2="45.311584"
     id="linearGradient3818"
     xlink:href="#linearGradient3812"
     gradientUnits="userSpaceOnUse"
     gradientTransform="matrix(0.24022488,0,0,0.24022488,10.553603,4.1770862)" /><linearGradient
     x1="14.107679"
     y1="53.226318"
     x2="10.708"
     y2="59.976318"
     id="linearGradient3810"
     xlink:href="#linearGradient3804"
     gradientUnits="userSpaceOnUse"
     gradientTransform="matrix(0.24022488,0,0,0.24022488,10.553603,4.1770862)" /><linearGradient
     id="linearGradient3804"><stop
       id="stop3806"
       style="stop-color:#333333;stop-opacity:1"
       offset="0" /><stop
       id="stop3808"
       style="stop-color:#383838;stop-opacity:1"
       offset="1" /></linearGradient><linearGradient
     x1="12.71875"
     y1="37.015629"
     x2="12.503466"
     y2="37.42733"
     id="linearGradient2894"
     xlink:href="#linearGradient2888"
     gradientUnits="userSpaceOnUse"
     gradientTransform="matrix(0.25006624,0,0,0.25006624,9.710704,3.3387446)" /><linearGradient
     id="linearGradient2888"><stop
       id="stop2890"
       style="stop-color:#2b2b2b;stop-opacity:1"
       offset="0" /><stop
       id="stop2892"
       style="stop-color:#2b2b2b;stop-opacity:0"
       offset="1" /></linearGradient><linearGradient
     x1="6.5647802"
     y1="1.5813398"
     x2="63.755363"
     y2="103.61256"
     id="linearGradient3857"
     xlink:href="#linearGradient3859"
     gradientUnits="userSpaceOnUse"
     gradientTransform="matrix(0.24283232,0,0,0.24283232,10.400696,3.8370511)" /><linearGradient
     id="linearGradient3859"><stop
       id="stop3861"
       style="stop-color:#7e7e7e;stop-opacity:1"
       offset="0" /><stop
       id="stop3863"
       style="stop-color:#1a1a1a;stop-opacity:1"
       offset="1" /></linearGradient><radialGradient
     cx="56.922096"
     cy="105.72437"
     r="43.487068"
     fx="24.57196"
     fy="102.10045"
     id="radialGradient2872"
     xlink:href="#linearGradient2866"
     gradientUnits="userSpaceOnUse"
     gradientTransform="matrix(0.21146702,-0.04515471,0,0.00568941,13.164304,32.48482)" /><linearGradient
     id="linearGradient2866"><stop
       id="stop2868"
       style="stop-color:#ffffff;stop-opacity:1"
       offset="0" /><stop
       id="stop2870"
       style="stop-color:#ffffff;stop-opacity:0"
       offset="1" /></linearGradient><linearGradient
     x1="35.375"
     y1="82.03125"
     x2="35.375"
     y2="84.04483"
     id="linearGradient2874"
     xlink:href="#linearGradient1970"
     gradientUnits="userSpaceOnUse"
     gradientTransform="matrix(0.21146702,-0.03987506,0,0.23326579,13.276449,8.4546673)" /><linearGradient
     id="linearGradient1970"><stop
       id="stop1972"
       style="stop-color:#888a85;stop-opacity:1"
       offset="0" /><stop
       id="stop1974"
       style="stop-color:#2e3436;stop-opacity:0"
       offset="1" /></linearGradient><radialGradient
     cx="9.9878836"
     cy="32.805748"
     r="4.7729707"
     fx="6.2754078"
     fy="31.510815"
     id="radialGradient3784"
     xlink:href="#linearGradient2866"
     gradientUnits="userSpaceOnUse"
     gradientTransform="matrix(0.12308372,0.05225288,-0.01102649,0.03922735,12.089447,10.81809)" /><radialGradient
     cx="95.391907"
     cy="0.32776174"
     r="1.4867874"
     fx="94.426888"
     fy="0.28557318"
     id="radialGradient2868"
     xlink:href="#linearGradient2866"
     gradientUnits="userSpaceOnUse"
     gradientTransform="matrix(0.26990675,0.13809783,-0.0236767,0.04627551,7.8315713,-9.1638022)" /><linearGradient
     x1="17.636654"
     y1="107.08839"
     x2="94.177834"
     y2="154.20468"
     id="linearGradient2914"
     xlink:href="#linearGradient3014"
     gradientUnits="userSpaceOnUse"
     gradientTransform="matrix(0.24283257,-0.04835081,0,0.24283257,10.400696,3.8370508)" /><linearGradient
     inkscape:collect="always"
     xlink:href="#linearGradient4109"
     id="linearGradient4129"
     gradientUnits="userSpaceOnUse"
     x1="11.331525"
     y1="9.265151"
     x2="49.98439"
     y2="32.135738" /><linearGradient
     inkscape:collect="always"
     xlink:href="#linearGradient4149"
     id="linearGradient4151"
     x1="22.901781"
     y1="0"
     x2="34.321747"
     y2="45.458824"
     gradientUnits="userSpaceOnUse" /><radialGradient
     cx="56.922096"
     cy="105.72437"
     r="43.487068"
     fx="24.57196"
     fy="102.10045"
     id="radialGradient2872-0"
     xlink:href="#linearGradient2866"
     gradientUnits="userSpaceOnUse"
     gradientTransform="matrix(0.21146702,-0.04515471,0,0.00568941,13.164304,32.48482)" /><radialGradient
     cx="9.9878836"
     cy="32.805748"
     r="4.7729707"
     fx="6.2754078"
     fy="31.510815"
     id="radialGradient3784-9"
     xlink:href="#linearGradient2866"
     gradientUnits="userSpaceOnUse"
     gradientTransform="matrix(0.12308372,0.05225288,-0.01102649,0.03922735,12.089447,10.81809)" /><radialGradient
     cx="95.391907"
     cy="0.32776174"
     r="1.4867874"
     fx="94.426888"
     fy="0.28557318"
     id="radialGradient2868-2"
     xlink:href="#linearGradient2866"
     gradientUnits="userSpaceOnUse"
     gradientTransform="matrix(0.26990675,0.13809783,-0.0236767,0.04627551,7.8315713,-9.1638022)" /></defs><sodipodi:namedview
   pagecolor="#ffffff"
   bordercolor="#666666"
   borderopacity="1"
   objecttolerance="10"
   gridtolerance="10"
   guidetolerance="10"
   inkscape:pageopacity="0"
   inkscape:pageshadow="2"
   inkscape:window-width="1366"
   inkscape:window-height="719"
   id="namedview37"
   showgrid="false"
   showguides="true"
   inkscape:guide-bbox="true"
   inkscape:zoom="10.625"
   inkscape:cx="24"
   inkscape:cy="24"
   inkscape:window-x="0"
   inkscape:window-y="25"
   inkscape:window-maximized="1"
   inkscape:current-layer="Capa_1"
   inkscape:snap-smooth-nodes="true" />


<g
   id="g6"
   transform="translate(0,-464)">
</g>
<g
   id="g8"
   transform="translate(0,-464)">
</g>
<g
   id="g10"
   transform="translate(0,-464)">
</g>
<g
   id="g12"
   transform="translate(0,-464)">
</g>
<g
   id="g14"
   transform="translate(0,-464)">
</g>
<g
   id="g16"
   transform="translate(0,-464)">
</g>
<g
   id="g18"
   transform="translate(0,-464)">
</g>
<g
   id="g20"
   transform="translate(0,-464)">
</g>
<g
   id="g22"
   transform="translate(0,-464)">
</g>
<g
   id="g24"
   transform="translate(0,-464)">
</g>
<g
   id="g26"
   transform="translate(0,-464)">
</g>
<g
   id="g28"
   transform="translate(0,-464)">
</g>
<g
   id="g30"
   transform="translate(0,-464)">
</g>
<g
   id="g32"
   transform="translate(0,-464)">
</g>
<g
   id="g34"
   transform="translate(0,-464)">
</g>
<path
   inkscape:connector-curvature="0"
   style="fill:url(#linearGradient4151);fill-opacity:1;stroke-width:0.0924025"
   d="m 24.000976,0.3457035 c -5.833461,0 -10.522198,1.1203776 -13.935546,3.3320313 -4.101193,2.6574037 -6.269532,6.9015122 -6.269532,12.2714832 0,7.226706 5.806266,16.88549 7.585938,19.673828 2.031747,3.183082 4.250107,6.079783 6.246093,8.15625 2.542362,2.644284 4.56815,3.875 6.373047,3.875 1.804991,0 3.829009,-1.230625 6.371093,-3.875 1.995894,-2.076376 4.214349,-4.973077 6.246094,-8.15625 C 38.397835,32.8348 44.2041,23.175924 44.2041,15.949219 44.20419,10.57934 42.0379,6.3352307 37.936523,3.6777348 34.523359,1.4660811 29.834346,0.3457035 24.000976,0.3457035 Z"
   id="path860" /><path
   style="opacity:0.35;fill:url(#linearGradient4129);fill-opacity:1;stroke:none;stroke-width:1px;stroke-linecap:butt;stroke-linejoin:miter;stroke-opacity:1"
   d="m 26.298828,46.908203 c 0.21272,-0.105128 0.390818,-0.06511 0.611328,-0.199219 1.049389,-0.638203 2.189895,-1.6075 3.460938,-2.929687 1.995894,-2.076377 4.214348,-4.973078 6.246094,-8.15625 0.889835,-1.394123 2.786912,-4.505287 4.460932,-8.171875 0.83702,-1.833294 1.61927,-3.806143 2.19141,-5.771484 0.57215,-1.965342 0.93359,-3.923793 0.93359,-5.730469 2e-5,-0.599636 -0.12599,-1.130254 -0.17968,-1.701172 L 33.923828,4.1894531 14.927734,13.746094 14.191406,34.800781 Z"
   id="path4095"
   inkscape:connector-curvature="0" /><path
   style="opacity:0.25;fill:#000000;stroke-width:0.0924025"
   d="m 24.000977,0.3457035 c -5.833461,0 -10.522199,1.1203783 -13.935547,3.3320313 -4.101193,2.6574041 -6.269532,6.9015122 -6.269532,12.2714832 0,7.226706 5.806267,16.88549 7.585938,19.673828 2.031747,3.183082 4.250108,6.079783 6.246094,8.15625 2.542362,2.644284 4.56815,3.875 6.373047,3.875 1.804991,0 3.829009,-1.230625 6.371093,-3.875 1.995894,-2.076376 4.214349,-4.973077 6.246094,-8.15625 C 38.397836,32.8348 44.2041,23.175924 44.2041,15.949219 44.20419,10.57934 42.0379,6.3352303 37.936524,3.6777348 34.523359,1.4660808 29.834347,0.3457035 24.000977,0.3457035 Z m 0,0.14453126 c 2.112445,0.084873 4.119293,0.27168527 5.875,0.69140624 1.164035,0.2782756 2.252955,0.6269196 3.263671,1.0429688 1.010719,0.4160492 1.943584,0.9002115 2.796876,1.453125 1.025342,0.6643739 1.929141,1.4277032 2.708984,2.2832031 0.77985,0.8554999 1.435772,1.803713 1.962892,2.8359375 0.52712,1.0322245 0.9262,2.1492026 1.19336,3.3437496 0.26716,1.194547 0.40236,2.466124 0.40234,3.808593 0,1.806677 -0.3634,3.765127 -0.93554,5.730469 -0.57215,1.965342 -1.352448,3.93819 -2.189458,5.771484 -1.674031,3.666589 -3.571102,6.777752 -4.460938,8.171875 -2.031745,3.183173 -4.2502,6.079875 -6.246094,8.15625 -1.271042,1.322188 -2.413501,2.291486 -3.46289,2.929688 -0.319034,0.194026 -0.618451,0.306539 -0.910156,0.390625 -0.291517,-0.08404 -0.58956,-0.196919 -0.908204,-0.390625 -1.049854,-0.638215 -2.191709,-1.607546 -3.46289,-2.929688 -1.995986,-2.076467 -4.214347,-4.973168 -6.246094,-8.15625 C 12.492,34.228877 10.594924,31.117748 8.920898,27.451171 8.083886,25.617883 7.30359,23.645021 6.731445,21.679687 6.159301,19.714353 5.795899,17.755895 5.795898,15.949218 c 0,-1.342492 0.134981,-2.614034 0.402344,-3.808593 C 6.465605,10.946066 6.866188,9.8291 7.393555,8.7968754 7.920922,7.7646508 8.576433,6.8164263 9.356445,5.9609379 10.136457,5.1054495 11.040131,4.3420857 12.06543,3.6777348 12.918767,3.1248214 13.851586,2.640659 14.862305,2.2246098 15.873024,1.8085606 16.961959,1.4599166 18.125977,1.181641 c 1.755679,-0.41972097 3.762539,-0.60653322 5.875,-0.69140624 z"
   id="path848-6"
   inkscape:connector-curvature="0" /><g
   id="g1249"><path
     d="m 14.269391,15.207952 0.05491,-0.91717 20.474021,-2.03148 0.951007,0.383256 -4.281149,4.426288 -15.60631,-0.926638 z"
     id="path2888"
     style="fill:url(#linearGradient3826);fill-opacity:1;fill-rule:evenodd;stroke:none;stroke-width:0.25006625"
     inkscape:connector-curvature="0" /><path
     d="m 13.335136,12.811783 -0.932411,-0.466436 c 0.06608,-0.107113 0.145946,-0.200576 0.269225,-0.240498 L 33.231486,3.8934854 c 0.05269,-0.02254 0.0826,-0.018473 0.10851,-0.00937 L 34.07113,4.2530956 29.812002,8.7030148 14.927616,13.746038 Z"
     id="path2882"
     style="fill:url(#linearGradient3818);fill-opacity:1;fill-rule:evenodd;stroke:none;stroke-width:0.25006625"
     inkscape:connector-curvature="0" /><path
     d="m 13.913414,13.04622 -1.509348,-0.702215 c -0.07855,0.153372 -0.06131,0.275982 -0.02718,0.403256 l 0.934884,2.988585 -0.167731,18.298229 1.101639,0.801018 0.681939,-21.089055 z"
     id="path2878"
     style="fill:url(#linearGradient3810);fill-opacity:1;fill-rule:evenodd;stroke:none;stroke-width:0.25006625"
     inkscape:connector-curvature="0" /><path
     d="m 12.42529,12.316709 1.149719,0.505016 -0.07228,0.364355 -1.143857,-0.707219 c -7.9e-5,-0.02744 0.03551,-0.132604 0.06642,-0.162152 z"
     id="rect1999"
     style="fill:url(#linearGradient2894);fill-opacity:1;fill-rule:nonzero;stroke:none;stroke-width:0.25006625"
     inkscape:connector-curvature="0" /><path
     d="M 18.377755,13.961043 35.028425,6.8916095 34.130803,4.3160712 C 34.106714,4.26118 34.037133,4.20884 33.937546,4.2524706 L 13.837797,12.610939 c -0.225912,0.115261 -0.4427,0.33623 -0.36866,0.654856 l 0.776308,3.07034 V 34.834142 L 35.755788,30.13532 V 12.640353 l -17.381357,1.694042 0.0033,-0.373352 z"
     id="polygon3115"
     style="fill:url(#linearGradient3857);fill-opacity:1;stroke-width:0.25006625"
     inkscape:connector-curvature="0" /><rect
     width="18.546757"
     height="0.32871956"
     x="16.19364"
     y="22.637558"
     transform="matrix(0.99138567,-0.13097498,0,1,0,0)"
     id="rect2876"
     style="fill:#ffffff;fill-opacity:1;fill-rule:nonzero;stroke:none;stroke-width:0.25006625" /><path
     d="m 33.984061,15.511229 -1.846492,0.198829 0.717906,-2.176716 1.845298,-0.198701 -0.716712,2.176588 m -8.680214,-1.164732 1.845298,-0.1987 -0.717907,2.176716 -1.845894,0.198765 0.718503,-2.176781 m 3.775665,-0.406562 1.846491,-0.198828 -0.718503,2.17678 -1.845296,0.198701 0.717308,-2.176653 m -7.551628,0.813156 1.845893,-0.198765 -0.717309,2.176652 -1.847984,0.19899 z"
     id="path3119"
     style="fill:#ffffff;stroke-width:0.25006625"
     inkscape:connector-curvature="0" /><path
     d="m 15.785629,17.064226 c 0,0.331144 0.222167,0.55136 0.496469,0.491441 0.272938,-0.05962 0.495105,-0.376901 0.495105,-0.708045 0,-0.331519 -0.222167,-0.552113 -0.495105,-0.49249 -0.274302,0.05992 -0.496469,0.377575 -0.496469,0.709094 z"
     id="path3121"
     style="fill:#ffffff;stroke-width:0.25006625"
     inkscape:connector-curvature="0" /><path
     d="M 20.787628,12.125363 22.522036,11.41405 21.12051,9.9108047 19.386669,10.622044 20.787628,12.125363 M 28.211841,7.000329 26.478565,7.7114951 27.879446,9.2157334 29.613367,8.5035742 28.211841,7.000329 m -3.545537,1.4553728 -1.733894,0.711853 1.402092,1.5031712 1.732709,-0.7110926 -1.400907,-1.5039316 m 7.091331,-2.9104757 -1.733868,0.7115465 1.401473,1.5038576 1.735362,-0.7126508 z"
     id="path3123"
     style="fill:#ffffff;stroke-width:0.25006625"
     inkscape:connector-curvature="0" /><path
     d="m 16.042756,27.069798 18.915541,-3.553361 v 4.875016 l -18.915541,4.039025 z"
     id="rect3294"
     style="fill:#ffffff;fill-opacity:1;fill-rule:nonzero;stroke:none;stroke-width:0.25006625"
     inkscape:connector-curvature="0" /><path
     d="M 23.43754,4.1592859 V 3.4604237 Z"
     id="path2276"
     style="fill:#ffffff;fill-opacity:0.75688076;fill-rule:nonzero;stroke:none;stroke-width:0.25006625"
     inkscape:connector-curvature="0" /><path
     d="m 34.397529,28.552381 a 0.24195739,9.4035352 77.938501 1 1 -18.39216,3.927293 0.24195739,9.4035352 77.938501 1 1 18.39216,-3.927293 z"
     id="path1978"
     style="opacity:0.83196722;fill:url(#radialGradient2872);fill-opacity:1;fill-rule:nonzero;stroke:none;stroke-width:0.22209913"
     inkscape:connector-curvature="0" /><path
     d="m 16.045348,27.067653 v 0.634191 L 34.958439,24.135522 V 23.50133 Z"
     id="rect1956"
     style="opacity:0.83196722;fill:url(#linearGradient2874);fill-opacity:1;fill-rule:nonzero;stroke:none;stroke-width:0.25006625"
     inkscape:connector-curvature="0" /><path
     d="m 13.541682,12.865998 a 0.63172338,0.24128298 21.849277 1 1 -1.169238,-0.478259 0.63172338,0.24128298 21.849277 1 1 1.169238,0.478259 z"
     id="path2890"
     style="opacity:0.63999999;fill:url(#radialGradient3784);fill-opacity:1;fill-rule:nonzero;stroke:none;stroke-width:0.16966839"
     inkscape:connector-curvature="0" /><path
     d="m 33.299008,3.8884061 c -0.01678,6.426e-4 -0.03332,0.00379 -0.05886,0.014715 0.04724,0.043989 0.130682,0.1516794 0.279953,0.2251106 0.19903,0.097908 0.407434,0.1174875 0.419007,0.091261 0.0029,-0.00656 0.001,-0.014767 -0.01471,-0.02943 L 33.343153,3.8957635 c -0.01256,-0.00441 -0.02737,-0.008 -0.04415,-0.00736 z"
     id="path2857"
     style="opacity:0.61885244;fill:url(#radialGradient2868);fill-opacity:1;fill-rule:evenodd;stroke:none;stroke-width:0.25006625"
     inkscape:connector-curvature="0" /></g></svg>