<?xml version="1.0" encoding="UTF-8" standalone="no"?>
<!-- Generator: Adobe Illustrator 19.0.0, SVG Export Plug-In . SVG Version: 6.00 Build 0)  -->

<svg
   xmlns:dc="http://purl.org/dc/elements/1.1/"
   xmlns:cc="http://creativecommons.org/ns#"
   xmlns:rdf="http://www.w3.org/1999/02/22-rdf-syntax-ns#"
   xmlns:svg="http://www.w3.org/2000/svg"
   xmlns="http://www.w3.org/2000/svg"
   xmlns:xlink="http://www.w3.org/1999/xlink"
   xmlns:sodipodi="http://sodipodi.sourceforge.net/DTD/sodipodi-0.dtd"
   xmlns:inkscape="http://www.inkscape.org/namespaces/inkscape"
   version="1.1"
   id="Capa_1"
   x="0px"
   y="0px"
   viewBox="0 0 48 48"
   xml:space="preserve"
   sodipodi:docname="paprefs.svg"
   width="48"
   height="48"
   inkscape:version="0.92.3 (2405546, 2018-03-11)"><metadata
   id="metadata41"><rdf:RDF><cc:Work
       rdf:about=""><dc:format>image/svg+xml</dc:format><dc:type
         rdf:resource="http://purl.org/dc/dcmitype/StillImage" /><dc:title /></cc:Work></rdf:RDF></metadata><defs
   id="defs39"><linearGradient
     inkscape:collect="always"
     id="linearGradient1227"><stop
       style="stop-color:#000000;stop-opacity:1;"
       offset="0"
       id="stop1223" /><stop
       style="stop-color:#000000;stop-opacity:0;"
       offset="1"
       id="stop1225" /></linearGradient><linearGradient
     inkscape:collect="always"
     id="linearGradient1114"><stop
       style="stop-color:#000000;stop-opacity:1;"
       offset="0"
       id="stop1110" /><stop
       style="stop-color:#000000;stop-opacity:0;"
       offset="1"
       id="stop1112" /></linearGradient><linearGradient
     inkscape:collect="always"
     id="linearGradient1091"><stop
       style="stop-color:#000000;stop-opacity:1;"
       offset="0"
       id="stop1087" /><stop
       style="stop-color:#000000;stop-opacity:0;"
       offset="1"
       id="stop1089" /></linearGradient><linearGradient
     inkscape:collect="always"
     id="linearGradient1064"><stop
       style="stop-color:#000000;stop-opacity:1;"
       offset="0"
       id="stop1060" /><stop
       style="stop-color:#000000;stop-opacity:0;"
       offset="1"
       id="stop1062" /></linearGradient><linearGradient
     inkscape:collect="always"
     id="linearGradient1041"><stop
       style="stop-color:#000000;stop-opacity:1;"
       offset="0"
       id="stop1037" /><stop
       style="stop-color:#000000;stop-opacity:0;"
       offset="1"
       id="stop1039" /></linearGradient><linearGradient
     inkscape:collect="always"
     id="linearGradient1002"><stop
       style="stop-color:#000000;stop-opacity:1;"
       offset="0"
       id="stop998" /><stop
       style="stop-color:#000000;stop-opacity:0;"
       offset="1"
       id="stop1000" /></linearGradient><linearGradient
     inkscape:collect="always"
     id="linearGradient979"><stop
       style="stop-color:#000000;stop-opacity:1;"
       offset="0"
       id="stop975" /><stop
       style="stop-color:#000000;stop-opacity:0;"
       offset="1"
       id="stop977" /></linearGradient><linearGradient
     inkscape:collect="always"
     id="linearGradient948"><stop
       style="stop-color:#000000;stop-opacity:1;"
       offset="0"
       id="stop944" /><stop
       style="stop-color:#000000;stop-opacity:0;"
       offset="1"
       id="stop946" /></linearGradient><linearGradient
     inkscape:collect="always"
     id="linearGradient940"><stop
       style="stop-color:#000000;stop-opacity:1;"
       offset="0"
       id="stop936" /><stop
       style="stop-color:#000000;stop-opacity:0;"
       offset="1"
       id="stop938" /></linearGradient><linearGradient
     x1="-83.756935"
     y1="-7.8379993"
     x2="-92.222527"
     y2="27.521217"
     id="linearGradient5588"
     xlink:href="#linearGradient3202"
     gradientUnits="userSpaceOnUse"
     gradientTransform="matrix(0.5857566,-0.140767,0.1402401,0.5879573,74.307775,0.1578927)" /><linearGradient
     id="linearGradient3202"><stop
       id="stop3204"
       style="stop-color:white;stop-opacity:1"
       offset="0" /><stop
       id="stop3206"
       style="stop-color:#d3eefc;stop-opacity:1"
       offset="1" /></linearGradient><linearGradient
     inkscape:collect="always"
     xlink:href="#linearGradient940"
     id="linearGradient942"
     x1="23.224609"
     y1="21.847656"
     x2="28.251953"
     y2="5.5292969"
     gradientUnits="userSpaceOnUse"
     gradientTransform="translate(-0.141176,0.65882353)" /><linearGradient
     inkscape:collect="always"
     xlink:href="#linearGradient948"
     id="linearGradient950"
     x1="23.224609"
     y1="21.847656"
     x2="16.929459"
     y2="38.104012"
     gradientUnits="userSpaceOnUse" /><linearGradient
     inkscape:collect="always"
     xlink:href="#linearGradient979"
     id="linearGradient981"
     x1="19.342949"
     y1="21.467801"
     x2="31.124185"
     y2="21.467801"
     gradientUnits="userSpaceOnUse" /><linearGradient
     inkscape:collect="always"
     xlink:href="#linearGradient1002"
     id="linearGradient1004"
     x1="28.579481"
     y1="21.518581"
     x2="16.743694"
     y2="21.773901"
     gradientUnits="userSpaceOnUse" /><linearGradient
     inkscape:collect="always"
     xlink:href="#linearGradient1041"
     id="linearGradient1043"
     x1="29.445829"
     y1="6.7177467"
     x2="28.817883"
     y2="9.1135912"
     gradientUnits="userSpaceOnUse" /><linearGradient
     inkscape:collect="always"
     xlink:href="#linearGradient1064"
     id="linearGradient1066"
     x1="18.675196"
     y1="6.8332953"
     x2="19.110531"
     y2="9.0570755"
     gradientUnits="userSpaceOnUse" /><linearGradient
     inkscape:collect="always"
     xlink:href="#linearGradient1091"
     id="linearGradient1093"
     x1="36.559227"
     y1="7.2961526"
     x2="36.709572"
     y2="18.371868"
     gradientUnits="userSpaceOnUse" /><linearGradient
     inkscape:collect="always"
     xlink:href="#linearGradient1114"
     id="linearGradient1116"
     x1="11.343533"
     y1="7.2773223"
     x2="11.233043"
     y2="18.194969"
     gradientUnits="userSpaceOnUse" /><filter
     inkscape:collect="always"
     style="color-interpolation-filters:sRGB"
     id="filter1154"
     x="-0.010988736"
     width="1.0219775"
     y="-0.013216256"
     height="1.0264325"><feGaussianBlur
       inkscape:collect="always"
       stdDeviation="0.1756606"
       id="feGaussianBlur1156" /></filter><linearGradient
     inkscape:collect="always"
     xlink:href="#linearGradient1227"
     id="linearGradient1310"
     gradientUnits="userSpaceOnUse"
     x1="4.3788271"
     y1="5.5878363"
     x2="43.380619"
     y2="46.529015" /></defs><sodipodi:namedview
   pagecolor="#ffffff"
   bordercolor="#666666"
   borderopacity="1"
   objecttolerance="10"
   gridtolerance="10"
   guidetolerance="10"
   inkscape:pageopacity="0"
   inkscape:pageshadow="2"
   inkscape:window-width="1366"
   inkscape:window-height="719"
   id="namedview37"
   showgrid="false"
   showguides="true"
   inkscape:guide-bbox="true"
   inkscape:zoom="2.65625"
   inkscape:cx="24"
   inkscape:cy="24"
   inkscape:window-x="0"
   inkscape:window-y="25"
   inkscape:window-maximized="1"
   inkscape:current-layer="Capa_1"
   inkscape:snap-smooth-nodes="true" />
<path
   style="fill:#b7c8b7;stroke-width:0.0924025"
   d="m 23.712891,0.49414062 c -5.833461,0 -10.522199,1.12037758 -13.935547,3.33203128 -4.101193,2.6574037 -6.269532,6.9015131 -6.269532,12.2714841 0,7.226706 5.806266,16.88549 7.585938,19.673828 2.031747,3.183081 4.250107,6.079782 6.246094,8.15625 2.542362,2.644283 4.56815,3.875 6.373047,3.875 1.804991,0 3.829009,-1.230625 6.371093,-3.875 1.995894,-2.076376 4.214348,-4.973077 6.246094,-8.15625 C 38.10975,32.983238 43.916016,23.324362 43.916016,16.097656 43.916108,10.727777 41.749814,6.4836678 37.648438,3.8261719 34.235274,1.6145182 29.546261,0.49414062 23.712891,0.49414062 Z"
   id="path846"
   inkscape:connector-curvature="0" /><path
   style="opacity:0.2;fill:url(#linearGradient1310);fill-opacity:1;stroke:none;stroke-width:1px;stroke-linecap:butt;stroke-linejoin:miter;stroke-opacity:1"
   d="m 26.652344,46.830078 c 1.041458,-0.638359 2.172232,-1.592258 3.43164,-2.902344 1.995894,-2.076376 4.214348,-4.973077 6.246094,-8.15625 0.889836,-1.394123 2.786912,-4.505287 4.460938,-8.171875 0.837012,-1.833294 1.617308,-3.806142 2.189453,-5.771484 0.339907,-1.167596 0.396659,-2.271877 0.55664,-3.404297 L 43.296875,18.183594 37.685547,12.572266 32,9.2226562 28.251953,5.5292969 27.294922,9.9765625 27.011719,12.046875 20.787109,5.9550781 20.035156,7.4355469 16,8.8476562 10.917969,11.765625 6.023438,15.8125 4.662109,18.132812 19.716797,33.365234 16.833984,36.837891 Z"
   id="path1221"
   inkscape:connector-curvature="0" /><path
   style="fill:#000000;stroke-width:0.0924025;opacity:0.2;filter:url(#filter1154)"
   d="m 20.035156,7.4355469 c 0.335841,-0.013405 0.659375,0.211044 0.736328,0.5703125 0.498098,2.3198966 1.830673,8.3048256 3.214844,13.3632816 C 25.36535,16.321347 26.69112,10.368536 27.1875,8.0566406 27.290105,7.577616 27.829302,7.3372335 28.253906,7.5820312 c 0.180969,0.1043891 0.303833,0.2794969 0.345703,0.4746094 0.02086,0.097219 0.0217,0.2010295 0,0.3027344 -0.03216,0.152766 -0.07112,0.3361998 -0.117187,0.5488281 0.241797,0.075928 0.765317,0.2487406 1.476562,0.5136719 3.516674,1.311087 11.638693,4.908155 13.203125,10.652344 -1.978699,-2.603985 -8.451394,-6.807146 -13.777343,-7.771485 0.04383,-0.198148 0.15518,-0.748931 0.269531,-1.326171 l -1.505859,-0.53125 C 27.412627,13.786866 26.05951,19.643344 24.75,24.107422 c 9.35e-4,0.0031 0.003,0.0067 0.0039,0.0098 2.53683,8.339244 6.1875,14.408203 6.1875,14.408203 l -1.3164,0.759731 c 0,0 -3.153239,-5.29149 -5.636719,-12.748047 -2.486007,7.483495 -5.654297,12.796875 -5.654297,12.796875 l -1.316406,-0.757812 c 0,0 3.648717,-6.068959 6.185547,-14.408203 0.006,-0.01964 0.0116,-0.04474 0.01758,-0.06445 -1.313593,-4.469315 -2.671887,-10.356255 -3.410158,-13.708988 l -1.505859,0.53125 c 0.11435,0.577241 0.225704,1.128024 0.269531,1.326172 C 13.24827,13.216292 6.775574,17.419453 4.796875,20.023438 6.361307,14.279248 14.483326,10.682181 18,9.3710938 c 0.711245,-0.2649314 1.234765,-0.4377444 1.476562,-0.5136719 -0.04607,-0.2126283 -0.08699,-0.3960621 -0.11914,-0.5488281 -0.0217,-0.1017049 -0.02086,-0.2055155 0,-0.3027344 0.04187,-0.1951125 0.164734,-0.3702203 0.345703,-0.4746094 0.106151,-0.061199 0.220084,-0.091235 0.332031,-0.095703 z"
   id="path2"
   inkscape:connector-curvature="0" />

<g
   id="g6"
   transform="translate(0,-464)">
</g>
<g
   id="g8"
   transform="translate(0,-464)">
</g>
<g
   id="g10"
   transform="translate(0,-464)">
</g>
<g
   id="g12"
   transform="translate(0,-464)">
</g>
<g
   id="g14"
   transform="translate(0,-464)">
</g>
<g
   id="g16"
   transform="translate(0,-464)">
</g>
<g
   id="g18"
   transform="translate(0,-464)">
</g>
<g
   id="g20"
   transform="translate(0,-464)">
</g>
<g
   id="g22"
   transform="translate(0,-464)">
</g>
<g
   id="g24"
   transform="translate(0,-464)">
</g>
<g
   id="g26"
   transform="translate(0,-464)">
</g>
<g
   id="g28"
   transform="translate(0,-464)">
</g>
<g
   id="g30"
   transform="translate(0,-464)">
</g>
<g
   id="g32"
   transform="translate(0,-464)">
</g>
<g
   id="g34"
   transform="translate(0,-464)">
</g>
<path
   inkscape:connector-curvature="0"
   style="fill:#cccccc;stroke-width:0.05813364"
   d="M 19.820108,8.370707 18.299392,8.911539 C 18.231172,8.5720731 17.004149,9.008799 16.9466,8.717621 16.89575,8.4604434 18.011845,7.4629353 17.987992,7.339489 c 0.718485,-0.2691283 1.247267,-0.4440664 1.49154,-0.5212516 0.047,0.2163877 0.934561,0.3042483 0.994067,0.5758598 0.05516,0.2514743 -0.71851,0.6831333 -0.653491,0.9766125 z"
   id="path2-3" /><path
   inkscape:connector-curvature="0"
   style="fill:#cccccc;stroke-width:0.05813364"
   d="M 28.138877,8.421488 29.659593,8.96232 C 29.727813,8.6228541 30.954836,9.05958 31.012385,8.768402 31.063235,8.5112244 29.94714,7.5137163 29.970993,7.39027 29.252508,7.1211417 28.723726,6.9462036 28.479453,6.8690184 c -0.047,0.2163877 -0.934561,0.3042483 -0.994067,0.5758598 -0.05516,0.2514743 0.71851,0.6831333 0.653491,0.9766125 z"
   id="path2-3-7" /><g
   id="g1070"
   style="opacity:0.5"><path
     id="path2-3-70"
     d="m 19.820059,8.3706584 -1.520716,0.540832 c -0.06822,-0.3394659 -1.295243,0.09726 -1.352792,-0.193918 -0.05085,-0.2571776 1.065245,-1.2546857 1.041392,-1.378132 0.718485,-0.2691283 1.247267,-0.4440664 1.49154,-0.5212516 0.047,0.2163877 0.934561,0.3042483 0.994067,0.5758598 0.05516,0.2514743 -0.71851,0.6831333 -0.653491,0.9766125 z"
     style="fill:url(#linearGradient1066);stroke-width:0.05813364;fill-opacity:1"
     inkscape:connector-curvature="0" /><path
     id="path2-3-7-2"
     d="M 28.138877,8.421488 29.659593,8.96232 C 29.727813,8.6228541 30.954836,9.05958 31.012385,8.768402 31.063235,8.5112244 29.94714,7.5137163 29.970993,7.39027 29.252508,7.1211417 28.723726,6.9462036 28.479453,6.8690184 c -0.047,0.2163877 -0.934561,0.3042483 -0.994067,0.5758598 -0.05516,0.2514743 0.71851,0.6831333 0.653491,0.9766125 z"
     style="fill:url(#linearGradient1043);stroke-width:0.05813364;fill-opacity:1"
     inkscape:connector-curvature="0" /></g><path
   inkscape:connector-curvature="0"
   style="fill:#e6e6e6;stroke-width:0.05813364"
   d="M 18.574219,10.251953 C 13.192169,11.236676 6.6565578,15.496871 4.6611802,18.132851 6.2319838,12.323299 14.435459,8.671294 17.987943,7.3394404 c 0.05093,0.2630529 0.183033,0.9328032 0.311461,1.5720296 0.116673,0.583272 0.230141,1.140233 0.274815,1.340483 z"
   id="path6" /><path
   inkscape:connector-curvature="0"
   style="fill:#b27214;stroke-width:0.05813364"
   d="m 28.138877,8.4214879 c 0.13529,-0.6102569 0.25006,-1.1356881 0.34062,-1.5525568 0.04696,-0.2148139 0.08723,-0.4006004 0.120014,-0.5549454 0.02215,-0.1027473 0.02166,-0.2067901 7.65e-4,-0.3051293 C 28.558346,5.8115945 28.434119,5.63445 28.251378,5.5286143 27.822599,5.2803484 27.276191,5.5216543 27.171578,6.0057191 26.569648,8.7842399 24.774994,16.863316 23.115056,22.284793 20.535152,30.709992 16.8348,36.838595 16.8348,36.838595 l 1.32851,0.768845 c 0,0 3.700373,-6.128478 6.280032,-14.55433 1.402178,-4.579634 2.901351,-11.056228 3.695534,-14.6316229 z"
   id="path4-5-2" /><path
   style="opacity:0.45;fill:url(#linearGradient942);fill-opacity:1;stroke-width:0.05813364"
   d="m 24.606871,22.50648 c 1.296349,-4.459299 2.661859,-10.144894 3.390625,-13.4257815 0.13529,-0.6102569 0.251237,-1.1358657 0.341797,-1.5527344 0.04696,-0.2148139 0.08636,-0.4003425 0.11914,-0.5546875 0.02215,-0.1027473 0.02089,-0.2063483 0,-0.3046875 -0.04193,-0.1972619 -0.164915,-0.374633 -0.347656,-0.4804687 -0.428779,-0.2482659 -0.975465,-0.0075 -1.080078,0.4765625 -0.47273,2.1821317 -1.837455,8.0369641 -3.138488,12.9028041 0.311225,1.162191 0.401924,1.898185 0.71466,2.938993 z"
   id="path926"
   inkscape:connector-curvature="0"
   sodipodi:nodetypes="ccccccccc" /><path
   style="opacity:0.45;fill:url(#linearGradient950);fill-opacity:1;stroke-width:0.05813364"
   d="m 23.224609,21.847656 c -0.04479,0.149414 -0.06476,0.291772 -0.109375,0.4375 -2.579904,8.425199 -6.28125,14.552735 -6.28125,14.552735 l 1.330078,0.769531 c 0,0 3.518958,-6.030619 6.059513,-13.744026 -0.153748,-0.465532 -0.560615,-0.380208 -0.70795,-0.861443 -0.110612,-0.36127 -0.17959,-0.771773 -0.291016,-1.154297 z"
   id="path924"
   inkscape:connector-curvature="0"
   sodipodi:nodetypes="ccccccc" /><path
   inkscape:connector-curvature="0"
   style="fill:#e6e6e6;stroke-width:0.05813364"
   d="m 29.384766,10.302734 c 5.38205,0.984723 11.917661,5.244918 13.913039,7.880898 C 41.727001,12.37408 33.523526,8.722075 29.971042,7.3902214 29.920112,7.6532743 29.788009,8.3230246 29.659581,8.962251 29.542908,9.545523 29.42944,10.102484 29.384766,10.302734 Z"
   id="path6-3" /><path
   inkscape:connector-curvature="0"
   style="fill:url(#linearGradient1004);stroke-width:0.05813364;fill-opacity:1;opacity:0.49999996"
   d="m 28.138877,8.421488 c 0.13529,-0.6102569 0.25006,-1.1356881 0.34062,-1.5525568 0.04696,-0.2148139 0.08723,-0.4006004 0.120014,-0.5549454 0.02215,-0.1027473 0.02166,-0.2067901 7.65e-4,-0.3051293 C 28.558346,5.8115946 28.434119,5.6344501 28.251378,5.5286144 27.822599,5.2803485 27.276191,5.5216544 27.171578,6.0057192 26.569648,8.78424 24.774994,16.863316 23.115056,22.284793 20.535152,30.709992 16.8348,36.838595 16.8348,36.838595 l 1.32851,0.768845 c 0,0 3.700373,-6.128478 6.280032,-14.55433 1.402178,-4.579634 2.901351,-11.056228 3.695534,-14.6316228 z"
   id="path4-5-2-1" /><path
   inkscape:connector-curvature="0"
   style="fill:#a96c13;stroke-width:0.05813364;fill-opacity:1"
   d="m 19.820108,8.3707073 c -0.13529,-0.6102569 -0.25006,-1.1356881 -0.34062,-1.5525568 -0.04696,-0.2148139 -0.08723,-0.4006004 -0.120014,-0.5549454 -0.02215,-0.1027473 -0.02166,-0.2067901 -7.65e-4,-0.3051293 0.04193,-0.1972619 0.166157,-0.3744064 0.348898,-0.4802421 0.428779,-0.2482659 0.975187,-0.00696 1.0798,0.4771048 0.60193,2.7785208 2.396584,10.8575965 4.056522,16.2790735 2.579904,8.425199 6.280256,14.553802 6.280256,14.553802 l -1.32851,0.768845 c 0,0 -3.700373,-6.128478 -6.280032,-14.55433 C 22.113465,18.422695 20.614292,11.946101 19.820109,8.3707065 Z"
   id="path4-56" /><path
   inkscape:connector-curvature="0"
   style="fill:url(#linearGradient981);fill-opacity:1;stroke-width:0.05813364;opacity:0.49999998"
   d="m 19.820108,8.3707071 c -0.13529,-0.6102569 -0.25006,-1.1356881 -0.34062,-1.5525568 -0.04696,-0.2148139 -0.08723,-0.4006004 -0.120014,-0.5549454 -0.02215,-0.1027473 -0.02166,-0.2067901 -7.65e-4,-0.3051293 0.04193,-0.1972619 0.166157,-0.3744064 0.348898,-0.4802421 0.428779,-0.2482659 0.975187,-0.00696 1.0798,0.4771048 0.60193,2.7785208 2.396584,10.8575967 4.056522,16.2790737 2.579904,8.425199 6.280256,14.553802 6.280256,14.553802 l -1.32851,0.768845 c 0,0 -3.700373,-6.128478 -6.280032,-14.55433 C 22.113465,18.422695 20.614292,11.946101 19.820109,8.3707063 Z"
   id="path4-56-9" /><path
   inkscape:connector-curvature="0"
   style="fill:url(#linearGradient1093);stroke-width:0.05813364;fill-opacity:1;opacity:0.1"
   d="m 29.384766,10.302734 c 5.38205,0.984723 11.91766,5.244918 13.913039,7.880898 C 41.727001,12.37408 33.523526,8.722075 29.971042,7.390221 c -0.05093,0.263053 -0.183033,0.932803 -0.311461,1.57203 -0.116673,0.583272 -0.230141,1.140233 -0.274815,1.340483 z"
   id="path6-3-9" /><path
   inkscape:connector-curvature="0"
   style="opacity:0.1;fill:url(#linearGradient1116);fill-opacity:1;stroke-width:0.05813364"
   d="M 18.574219,10.251953 C 13.192169,11.236676 6.656557,15.496871 4.66118,18.132851 6.231983,12.323299 14.435459,8.671294 17.987943,7.3394404 c 0.05093,0.2630529 0.183033,0.9328032 0.311461,1.5720296 0.116673,0.583272 0.230141,1.140233 0.274815,1.340483 z"
   id="path6-36" /><path
   style="fill:#000000;stroke-width:0.0924025;opacity:0.2"
   d="m 3.636719,14.882812 c -0.02746,0.413688 -0.128907,0.786603 -0.128907,1.214844 0,7.226706 5.806266,16.88549 7.585938,19.673828 2.031747,3.183081 4.250107,6.079782 6.246094,8.15625 2.542362,2.644283 4.56815,3.875 6.373047,3.875 1.804991,0 3.829009,-1.230625 6.371093,-3.875 1.995894,-2.076376 4.214348,-4.973077 6.246094,-8.15625 1.779672,-2.788246 7.585938,-12.447122 7.585938,-19.673828 7e-6,-0.428234 -0.101476,-0.801162 -0.128907,-1.214844 -0.08334,1.592697 -0.312899,3.249291 -0.80664,4.945313 -0.572145,1.965342 -1.352441,3.93819 -2.189453,5.771484 -1.674026,3.666588 -3.571102,6.777752 -4.460938,8.171875 -2.031746,3.183173 -4.2502,6.079874 -6.246094,8.15625 -1.271042,1.322188 -2.413501,2.291485 -3.46289,2.929688 -1.049389,0.638203 -2.005708,0.945312 -2.908203,0.945312 -0.902449,0 -1.860302,-0.307097 -2.910157,-0.945312 C 19.75288,44.219207 18.611025,43.249876 17.339844,41.927734 15.343857,39.851266 13.125497,36.954565 11.09375,33.771484 10.203914,32.377315 8.306838,29.266186 6.632812,25.599609 5.7958,23.766321 5.015504,21.793459 4.443359,19.828125 3.949618,18.132109 3.720057,16.475508 3.636719,14.882812 Z"
   id="path1343"
   inkscape:connector-curvature="0" /></svg>