<?xml version="1.0" encoding="UTF-8" standalone="no"?>
<!-- Generator: Adobe Illustrator 19.0.0, SVG Export Plug-In . SVG Version: 6.00 Build 0)  -->

<svg
   xmlns:dc="http://purl.org/dc/elements/1.1/"
   xmlns:cc="http://creativecommons.org/ns#"
   xmlns:rdf="http://www.w3.org/1999/02/22-rdf-syntax-ns#"
   xmlns:svg="http://www.w3.org/2000/svg"
   xmlns="http://www.w3.org/2000/svg"
   xmlns:xlink="http://www.w3.org/1999/xlink"
   xmlns:sodipodi="http://sodipodi.sourceforge.net/DTD/sodipodi-0.dtd"
   xmlns:inkscape="http://www.inkscape.org/namespaces/inkscape"
   version="1.1"
   id="Capa_1"
   x="0px"
   y="0px"
   viewBox="0 0 48 48"
   xml:space="preserve"
   sodipodi:docname="preferences-system-power.svg"
   width="48"
   height="48"
   inkscape:version="0.92.3 (2405546, 2018-03-11)"><metadata
   id="metadata41"><rdf:RDF><cc:Work
       rdf:about=""><dc:format>image/svg+xml</dc:format><dc:type
         rdf:resource="http://purl.org/dc/dcmitype/StillImage" /><dc:title></dc:title></cc:Work></rdf:RDF></metadata><defs
   id="defs39"><linearGradient
     id="linearGradient890"
     inkscape:collect="always"><stop
       id="stop886"
       offset="0"
       style="stop-color:#1c1f24;stop-opacity:1" /><stop
       id="stop888"
       offset="1"
       style="stop-color:#d7f4d7;stop-opacity:0.00381679" /></linearGradient><linearGradient
     inkscape:collect="always"
     id="linearGradient854"><stop
       style="stop-color:#1c1f24;stop-opacity:1"
       offset="0"
       id="stop849" /><stop
       style="stop-color:#d7f4d7;stop-opacity:1"
       offset="1"
       id="stop852" /></linearGradient><linearGradient
     inkscape:collect="always"
     id="linearGradient863"><stop
       style="stop-color:#17280b;stop-opacity:1;"
       offset="0"
       id="stop859" /><stop
       style="stop-color:#17280b;stop-opacity:0;"
       offset="1"
       id="stop861" /></linearGradient><linearGradient
     inkscape:collect="always"
     id="linearGradient855"><stop
       style="stop-color:#112b00;stop-opacity:1;"
       offset="0"
       id="stop851" /><stop
       style="stop-color:#112b00;stop-opacity:0;"
       offset="1"
       id="stop853" /></linearGradient><linearGradient
     inkscape:collect="always"
     id="linearGradient847"><stop
       style="stop-color:#112b00;stop-opacity:1;"
       offset="0"
       id="stop843" /><stop
       style="stop-color:#112b00;stop-opacity:0;"
       offset="1"
       id="stop845" /></linearGradient><linearGradient
     inkscape:collect="always"
     id="linearGradient893"><stop
       style="stop-color:#17280b;stop-opacity:1;"
       offset="0"
       id="stop889" /><stop
       style="stop-color:#17280b;stop-opacity:0;"
       offset="1"
       id="stop891" /></linearGradient><linearGradient
     inkscape:collect="always"
     xlink:href="#linearGradient893"
     id="linearGradient895"
     x1="16.544922"
     y1="25.792969"
     x2="43.916016"
     y2="25.792969"
     gradientUnits="userSpaceOnUse" /><linearGradient
     inkscape:collect="always"
     xlink:href="#linearGradient847"
     id="linearGradient849"
     x1="22.160017"
     y1="21.466816"
     x2="27.929747"
     y2="25.632853"
     gradientUnits="userSpaceOnUse" /><linearGradient
     inkscape:collect="always"
     xlink:href="#linearGradient855"
     id="linearGradient857"
     x1="24.556253"
     y1="11.645802"
     x2="30.804474"
     y2="15.35901"
     gradientUnits="userSpaceOnUse" /><linearGradient
     inkscape:collect="always"
     xlink:href="#linearGradient863"
     id="linearGradient865"
     x1="15.179688"
     y1="21.362452"
     x2="21.374389"
     y2="21.362452"
     gradientUnits="userSpaceOnUse" /><radialGradient
     inkscape:collect="always"
     xlink:href="#linearGradient854"
     id="radialGradient858"
     cx="23.711914"
     cy="24.148438"
     fx="23.711914"
     fy="24.148438"
     r="20.204102"
     gradientTransform="matrix(1,0,0,1.1707671,0,-4.1237579)"
     gradientUnits="userSpaceOnUse" /><linearGradient
     inkscape:collect="always"
     xlink:href="#linearGradient890"
     id="linearGradient884"
     x1="23.901127"
     y1="-4.6823301"
     x2="23.680721"
     y2="8.3366728"
     gradientUnits="userSpaceOnUse" /></defs><sodipodi:namedview
   pagecolor="#ffffff"
   bordercolor="#666666"
   borderopacity="1"
   objecttolerance="10"
   gridtolerance="10"
   guidetolerance="10"
   inkscape:pageopacity="0"
   inkscape:pageshadow="2"
   inkscape:window-width="1366"
   inkscape:window-height="719"
   id="namedview37"
   showgrid="false"
   showguides="false"
   inkscape:guide-bbox="true"
   inkscape:zoom="2.65625"
   inkscape:cx="-58.447059"
   inkscape:cy="24"
   inkscape:window-x="0"
   inkscape:window-y="25"
   inkscape:window-maximized="1"
   inkscape:current-layer="Capa_1"
   inkscape:snap-global="true" />


<g
   id="g6"
   transform="translate(0,-464)">
</g>
<g
   id="g8"
   transform="translate(0,-464)">
</g>
<g
   id="g10"
   transform="translate(0,-464)">
</g>
<g
   id="g12"
   transform="translate(0,-464)">
</g>
<g
   id="g14"
   transform="translate(0,-464)">
</g>
<g
   id="g16"
   transform="translate(0,-464)">
</g>
<g
   id="g18"
   transform="translate(0,-464)">
</g>
<g
   id="g20"
   transform="translate(0,-464)">
</g>
<g
   id="g22"
   transform="translate(0,-464)">
</g>
<g
   id="g24"
   transform="translate(0,-464)">
</g>
<g
   id="g26"
   transform="translate(0,-464)">
</g>
<g
   id="g28"
   transform="translate(0,-464)">
</g>
<g
   id="g30"
   transform="translate(0,-464)">
</g>
<g
   id="g32"
   transform="translate(0,-464)">
</g>
<g
   id="g34"
   transform="translate(0,-464)">
</g>
<g
   id="g950"><path
     inkscape:connector-curvature="0"
     id="path24-3-6"
     d="m 23.712891,0.49414062 c -5.833461,0 -10.522199,1.12037698 -13.935547,3.33203098 C 5.676151,6.483576 3.507813,10.727685 3.507813,16.097656 c 0,7.226706 5.806265,16.88549 7.585937,19.673828 2.031747,3.183081 4.250107,6.079782 6.246094,8.15625 2.542362,2.644283 4.56815,3.875 6.373047,3.875 1.804991,0 3.829009,-1.230625 6.371093,-3.875 1.995894,-2.076376 4.214348,-4.973077 6.246094,-8.15625 C 38.10975,32.983238 43.916016,23.324362 43.916016,16.097656 43.916108,10.727777 41.749814,6.483668 37.648438,3.8261716 34.235274,1.6145176 29.546261,0.49414062 23.712891,0.49414062 Z"
     style="fill:url(#radialGradient858);fill-opacity:1;stroke-width:0.0924025" /><path
     inkscape:connector-curvature="0"
     id="path853"
     d="m 28.246094,45.482422 c 0.607183,-0.506026 1.163337,-0.852991 1.83789,-1.554688 1.995894,-2.076376 4.214348,-4.973077 6.246094,-8.15625 0.889836,-1.394123 2.786912,-4.505286 4.460938,-8.171875 0.837012,-1.833294 1.617308,-3.806142 2.189453,-5.771484 0.572145,-1.965342 0.935547,-3.923792 0.935547,-5.730469 2.3e-5,-1.342469 -0.135183,-2.614046 -0.402344,-3.808594 -0.0768,-0.343383 -0.245259,-0.630543 -0.34375,-0.960937 l -12.09375,-5.2246094 -7.800781,13.3691404 2.988281,1.810547 -9.71875,12.613281 z"
     style="opacity:0.2;fill:url(#linearGradient895);fill-opacity:1;stroke:none;stroke-width:1px;stroke-linecap:butt;stroke-linejoin:miter;stroke-opacity:1" /><path
     id="path2"
     d="M 31.076171,6.103516 26.923828,18.09375 h 5.896484 L 16.544921,33.896484 21.076171,21.90625 h -5.896483 z"
     style="fill:#ffffff;stroke-width:0.0924025"
     inkscape:connector-curvature="0" /><path
     sodipodi:nodetypes="ccccc"
     inkscape:connector-curvature="0"
     id="path902"
     d="M 26.923828,18.09375 31.076172,6.1035156 29.896964,7.2720069 22.819799,18.15779 Z"
     style="opacity:0.7;fill:url(#linearGradient857);fill-opacity:1;stroke-width:0.09757864" /><path
     sodipodi:nodetypes="ccccc"
     inkscape:connector-curvature="0"
     id="path900"
     d="M 17.449219,31.503906 16.544922,33.896484 32.820312,18.09375 H 28.922311 Z"
     style="opacity:0.73999999;fill:url(#linearGradient849);fill-opacity:1;stroke-width:0.0924025" /><path
     sodipodi:nodetypes="ccccc"
     inkscape:connector-curvature="0"
     id="path898"
     d="m 17.363493,19.641296 -2.183805,2.264954 h 5.896483 l 3.117819,-2.272877 z"
     style="opacity:0.7;fill:url(#linearGradient865);fill-opacity:1;stroke-width:0.13475983" /><path
     inkscape:connector-curvature="0"
     id="path24-3-6-5"
     d="m 23.712891,0.49414062 c -5.833461,0 -10.522199,1.12037698 -13.935547,3.33203098 -4.101193,2.6574041 -6.269531,6.9015124 -6.269531,12.2714834 0,7.226706 5.806265,16.885491 7.585937,19.673829 2.031747,3.183081 4.250107,6.079782 6.246094,8.15625 2.542362,2.644283 4.56815,3.875 6.373047,3.875 1.804991,0 3.829009,-1.230625 6.371093,-3.875 1.995894,-2.076376 4.214348,-4.973077 6.246094,-8.15625 C 38.10975,32.983238 43.916016,23.324361 43.916016,16.097655 43.916108,10.727776 41.749814,6.4836677 37.648438,3.8261716 34.235274,1.6145176 29.546261,0.49414062 23.712891,0.49414062 Z"
     style="fill:url(#linearGradient884);fill-opacity:1;stroke-width:0.0924025" /><path
     inkscape:connector-curvature="0"
     id="path933"
     d="m 23.712891,0.49414062 c -5.833461,0 -10.522199,1.12037728 -13.935547,3.33203128 -4.101193,2.6574036 -6.269532,6.9015131 -6.269532,12.2714841 0,7.226705 5.806266,16.88549 7.585938,19.673828 2.031747,3.183081 4.250107,6.079782 6.246094,8.15625 2.542362,2.644283 4.56815,3.875 6.373047,3.875 1.804991,0 3.829009,-1.230625 6.371093,-3.875 1.995894,-2.076376 4.214348,-4.973077 6.246094,-8.15625 C 38.10975,32.983238 43.916016,23.324362 43.916016,16.097656 43.916108,10.727777 41.749813,6.4836675 37.648437,3.8261719 34.235274,1.6145179 29.546261,0.49414062 23.712891,0.49414062 Z m 0,0.14453126 c 2.112445,0.084873 4.119293,0.27168535 5.875,0.69140622 1.164035,0.2782755 2.252953,0.6269196 3.263672,1.0429688 1.010717,0.4160492 1.943584,0.9002115 2.796875,1.453125 1.025342,0.6643739 1.929139,1.4277033 2.708984,2.2832031 0.779844,0.8554998 1.435773,1.8037132 1.96289,2.8359375 0.527117,1.0322243 0.926199,2.1492035 1.19336,3.3437495 0.267161,1.194548 0.402367,2.466125 0.402344,3.808594 0,1.806677 -0.363402,3.765127 -0.935547,5.730469 -0.572145,1.965342 -1.352441,3.93819 -2.189453,5.771484 -1.674026,3.666589 -3.571102,6.777752 -4.460938,8.171875 -2.031746,3.183173 -4.2502,6.079874 -6.246094,8.15625 -1.271042,1.322188 -2.413501,2.291485 -3.46289,2.929688 -0.319034,0.194025 -0.618451,0.306538 -0.910156,0.390625 -0.291517,-0.08404 -0.58956,-0.196919 -0.908204,-0.390625 C 21.75288,46.219207 20.611025,45.249876 19.339844,43.927734 17.343857,41.851266 15.125497,38.954565 13.09375,35.771484 12.203914,34.377315 10.306839,31.266186 8.632812,27.599609 7.7958,25.766321 7.015504,23.79346 6.443359,21.828125 5.871215,19.86279 5.507812,17.904333 5.507812,16.097656 c 0,-1.342492 0.134981,-2.614034 0.402344,-3.808594 C 6.177519,11.094504 6.578102,9.9775368 7.105469,8.9453125 7.632836,7.9130882 8.288347,6.9648632 9.068359,6.109375 9.848371,5.2538868 10.752046,4.4905228 11.777344,3.8261719 12.630681,3.2732585 13.5635,2.789096 14.574219,2.3730469 15.584938,1.9569977 16.673873,1.6083536 17.837891,1.3300781 19.59357,0.91035728 21.60043,0.72354491 23.712891,0.63867188 Z"
     style="fill:#000000;fill-opacity:1;stroke-width:0.0924025;opacity:0.2" /></g></svg>