<svg xmlns="http://www.w3.org/2000/svg" width="24" height="24"><defs><linearGradient id="d"><stop offset="0" stop-color="#00000a"/><stop offset="1" stop-color="#000004" stop-opacity="0"/></linearGradient><linearGradient id="a"><stop offset="0" stop-color="#000008"/><stop offset="1" stop-color="#0b0000" stop-opacity="0"/></linearGradient><linearGradient id="c"><stop offset="0" stop-color="#d7eef4"/><stop offset="1" stop-color="#6f8a91"/></linearGradient><linearGradient id="b"><stop offset="0" stop-color="gray"/><stop offset=".129" stop-color="#333"/><stop offset=".89" stop-color="#333"/><stop offset="1" stop-color="#666"/></linearGradient></defs><path d="M7.424 2.829L5.59 4.662H3.756c-2.255-.02-2.75 0-2.75 1.706v12.97c0 1.834.99 1.833 3.117 1.833H19.86c2.458 0 3.135.001 3.135-1.833V6.498c0-1.834-.66-1.834-2.75-1.834h-1.835l-1.833-1.835zm4.408 4.58a5.502 5.502 0 1 1 0 11.003 5.502 5.502 0 0 1 0-11.002zm0 2.2a3.302 3.302 0 0 0 0 6.605 3.302 3.302 0 0 0 0-6.604z" fill="#1a1a1a"/></svg>