<svg xmlns="http://www.w3.org/2000/svg" width="24" height="24" viewBox="0 0 12.7 12.7"><defs><linearGradient id="c"><stop offset="0" stop-color="#000008"/><stop offset="1" stop-color="#0b0000" stop-opacity="0"/></linearGradient><linearGradient id="b"><stop offset="0" stop-color="#1a1a1a"/><stop offset="1" stop-color="#666"/></linearGradient><linearGradient id="a"><stop offset="0" stop-color="#000008"/><stop offset="1" stop-color="#0b0000" stop-opacity="0"/></linearGradient></defs><path d="M2.147.538a.296.296 0 0 0-.297.297v11.03c0 .164.132.297.297.297h8.406a.296.296 0 0 0 .297-.297V.835a.296.296 0 0 0-.297-.297H2.147zm.57.788h1.8v1.825h-1.8V1.326zm2.732 0h1.8v1.825h-1.8V1.326zm2.733 0h1.802v1.825H8.182V1.326zM2.716 4.082h1.8v1.826h-1.8V4.082zm2.733 0h1.8v1.826h-1.8V4.082zm2.733 0h1.802v1.826H8.182V4.082zm-5.466 2.71h1.8v1.826h-1.8V6.79zm2.733 0h1.8v1.826h-1.8V6.79zm2.733 0h1.802v1.826H8.182V6.79zM5.45 9.55h1.8v1.825h-1.8V9.55z" fill="#1a1a1a"/></svg>