<?xml version="1.0" encoding="UTF-8" standalone="no"?>
<svg
   xmlns:dc="http://purl.org/dc/elements/1.1/"
   xmlns:cc="http://creativecommons.org/ns#"
   xmlns:rdf="http://www.w3.org/1999/02/22-rdf-syntax-ns#"
   xmlns:svg="http://www.w3.org/2000/svg"
   xmlns="http://www.w3.org/2000/svg"
   xmlns:sodipodi="http://sodipodi.sourceforge.net/DTD/sodipodi-0.dtd"
   xmlns:inkscape="http://www.inkscape.org/namespaces/inkscape"
   width="24"
   height="24"
   version="1"
   id="svg6"
   sodipodi:docname="disk-quota-low.svg"
   inkscape:version="0.92.4 (5da689c313, 2019-01-14)">
  <metadata
     id="metadata12">
    <rdf:RDF>
      <cc:Work
         rdf:about="">
        <dc:format>image/svg+xml</dc:format>
        <dc:type
           rdf:resource="http://purl.org/dc/dcmitype/StillImage" />
        <dc:title></dc:title>
      </cc:Work>
    </rdf:RDF>
  </metadata>
  <defs
     id="defs10" />
  <sodipodi:namedview
     pagecolor="#ffffff"
     bordercolor="#666666"
     borderopacity="1"
     objecttolerance="10"
     gridtolerance="10"
     guidetolerance="10"
     inkscape:pageopacity="0"
     inkscape:pageshadow="2"
     inkscape:window-width="1136"
     inkscape:window-height="480"
     id="namedview8"
     showgrid="false"
     inkscape:zoom="9.8333333"
     inkscape:cx="12"
     inkscape:cy="12"
     inkscape:window-x="0"
     inkscape:window-y="25"
     inkscape:window-maximized="0"
     inkscape:current-layer="svg6" />
  <path
     d="M 11.929688 2.4199219 C 8.8306875 2.4260782 4.679275 5.4235375 4.609375 7.9609375 C 4.539375 10.710938 4.3392187 15.699697 4.1992188 19.529297 L 2.3007812 19.529297 L 2.3007812 22.029297 L 21.669922 22.029297 L 21.669922 19.529297 L 19.640625 19.529297 C 19.500625 15.069297 19.340469 9.9305375 19.230469 7.9609375 C 19.080619 5.3236375 15.028253 2.4259219 11.939453 2.4199219 L 11.929688 2.4199219 z M 11.939453 3.8496094 C 14.259453 3.8496094 17.820312 6.5107813 17.820312 8.8007812 C 17.790312 10.360781 17.869375 13.949231 17.859375 19.519531 L 5.9804688 19.519531 C 5.9504687 13.519531 6.0800781 8.7402344 6.0800781 8.7402344 C 6.0800781 6.5302344 9.6094531 3.8496094 11.939453 3.8496094 z M 12 9.5 C 9.8698 9.5 8.1425781 10.075086 8.1425781 10.785156 L 8.1425781 17.214844 C 8.1425781 17.924924 9.8698 18.5 12 18.5 C 14.1302 18.5 15.857422 17.924914 15.857422 17.214844 L 15.857422 10.785156 C 15.857422 10.075076 14.1302 9.5 12 9.5 z M 12 10.785156 C 12.95038 10.786256 13.866966 10.904878 14.572266 11.117188 L 14.572266 11.742188 C 13.865786 11.953587 12.9494 12.071836 12 12.072266 C 11.04962 12.071147 10.133034 11.952544 9.4277344 11.740234 L 9.4277344 11.115234 C 10.134214 10.903834 11.0506 10.785586 12 10.785156 z M 9.4277344 13.027344 C 10.134214 13.238744 11.0506 13.356992 12 13.357422 C 12.94939 13.356992 13.865866 13.238754 14.572266 13.027344 L 14.572266 14.314453 C 13.865786 14.525853 12.9494 14.642148 12 14.642578 C 11.04962 14.641478 10.133034 14.522857 9.4277344 14.310547 L 9.4277344 13.027344 z "
     id="path2"
     style="fill:#ff7f2a" />
</svg>
