<svg xmlns="http://www.w3.org/2000/svg" xmlns:xlink="http://www.w3.org/1999/xlink" width="24" height="24"><defs><linearGradient id="b"><stop offset="0" stop-color="#4d4d4d"/><stop offset="1" stop-color="#ececec"/></linearGradient><linearGradient id="a"><stop offset="0" stop-color="#f95"/><stop offset="1" stop-color="#fd5"/></linearGradient><linearGradient xlink:href="#b" id="d" x1="7.994" y1="23.073" x2="7.974" y2="13.331" gradientUnits="userSpaceOnUse" gradientTransform="matrix(.85714 0 0 .85714 2.728 3.414)"/><radialGradient xlink:href="#a" id="c" cx="12" cy="12" fx="12" fy="12" r="8.25" gradientUnits="userSpaceOnUse"/></defs><path style="marker:none" d="M12 1l-.687 1.418c.227-.016.456-.043.687-.043.231 0 .46.027.688.043z" color="#bebebe" overflow="visible" fill="#f60"/><path style="marker:none" d="M12 3.75a8.25 8.25 0 100 16.5 8.25 8.25 0 000-16.5z" color="#bebebe" overflow="visible" fill="url(#c)"/><path style="marker:none" d="M4.223 4.223l.515 1.504c.3-.346.643-.69.989-.989zM19.777 4.223l-1.504.515c.346.3.69.643.989.989zM2.418 11.313L1 12l1.418.688c-.016-.228-.043-.457-.043-.688 0-.231.027-.46.043-.688zM21.582 11.313c.016.227.043.456.043.687 0 .231-.027.46-.043.688L23 12zM4.738 18.273l-.515 1.504 1.504-.515c-.346-.3-.69-.643-.989-.989zM19.262 18.273c-.3.346-.643.69-.989.989l1.504.515zM11.313 21.582L12 23l.688-1.418c-.228.016-.457.043-.688.043-.231 0-.46-.027-.687-.043z" color="#bebebe" overflow="visible" fill="#f60"/><path d="M15.662 14.673c-1.574 0-2.886 1.03-3.375 2.438a2.992 2.992 0 00-2.625 2.962 3 3 0 003 3h6.6a2.4 2.4 0 100-4.8 3.6 3.6 0 00-3.6-3.6z" fill="url(#d)"/></svg>