<svg xmlns="http://www.w3.org/2000/svg" xmlns:xlink="http://www.w3.org/1999/xlink" width="24" height="24"><defs><radialGradient xlink:href="#a" id="b" cx="12" cy="12" fx="12" fy="12" r="8.25" gradientUnits="userSpaceOnUse"/><linearGradient id="a"><stop offset="0" stop-color="#f95"/><stop offset="1" stop-color="#fd5"/></linearGradient></defs><path style="marker:none" d="M12 1l-.687 1.418c.227-.016.456-.043.687-.043.231 0 .46.027.688.043z" color="#bebebe" overflow="visible" fill="#f60"/><path style="marker:none" d="M12 3.75a8.25 8.25 0 100 16.5 8.25 8.25 0 000-16.5z" color="#bebebe" overflow="visible" fill="url(#b)"/><path style="marker:none" d="M4.223 4.223l.515 1.504c.3-.346.643-.69.989-.989zM19.777 4.223l-1.504.515c.346.3.69.643.989.989zM2.418 11.313L1 12l1.418.688c-.016-.228-.043-.457-.043-.688 0-.231.027-.46.043-.688zM21.582 11.313c.016.227.043.456.043.687 0 .231-.027.46-.043.688L23 12zM4.738 18.273l-.515 1.504 1.504-.515c-.346-.3-.69-.643-.989-.989zM19.262 18.273c-.3.346-.643.69-.989.989l1.504.515zM11.313 21.582L12 23l.688-1.418c-.228.016-.457.043-.688.043-.231 0-.46-.027-.687-.043z" color="#bebebe" overflow="visible" fill="#f60"/></svg>