<svg xmlns="http://www.w3.org/2000/svg" width="24" height="24" viewBox="0 0 6.35 6.35"><path d="M3.9.37c.3 0 .6.1.74.29C4.99.3 5.32.2 5.6.2c.45 0 .6.3.6.48 0 .25-.16.42-.39.42-.25 0-.13-.58-.48-.58-.3 0-.54.77-.66 1.44h.63c.07 0 .09.05.09.1 0 .16-.07.29-.2.29H4.6s-.29 1.34-.5 2.18c-.28 1.13-1.15 1.45-1.7 1.45a1 1 0 0 1-.7-.28c-.25.25-.63.45-1.03.45-.2 0-.52-.13-.52-.38 0-.14.14-.35.3-.35.26 0 .29.28.59.28.14 0 .24-.04.36-.47.26-.94.66-2.88.66-2.88h-.47c-.07 0-.08-.05-.08-.1 0-.13.05-.29.21-.29h.44c.24-.82.77-1.59 1.74-1.59zM3.63.7c-.46 0-.67.76-.78 1.26h1.1c.08-.3.2-.6.35-.86a.84.84 0 0 0-.67-.4zm-.99 4.88c.26 0 .46-.08.59-.53.3-1.06.62-2.7.62-2.7H2.78c-.16.72-.33 1.5-.48 2.09-.1.4-.2.62-.28.81.18.22.43.33.63.33z" clip-rule="evenodd" fill="#1a1a1a"/></svg>