<svg xmlns="http://www.w3.org/2000/svg" xmlns:xlink="http://www.w3.org/1999/xlink" width="24" height="24" viewBox="0 0 6.35 6.35"><defs><clipPath id="a"><use width="100%" height="100%" overflow="visible" xlink:href="#SVGID_6_"/></clipPath></defs><path clip-path="url(#a)" transform="translate(1.92 -5.5) scale(.18493)" d="M24 24l-.03-.05.01.05z" fill="#ffb300"/><path clip-path="url(#a)" transform="translate(1.92 -5.5) scale(.18493)" d="M24 24h.02z" fill="#ff8700"/><path clip-path="url(#a)" transform="translate(1.92 -5.5) scale(.18493)" d="M23.88 23.97l.03.03.02-.02z" fill="#ffb300"/><path clip-path="url(#a)" transform="translate(1.92 -5.5) scale(.18493)" d="M23.93 23.98h.01z" fill="#ff8700"/><g stroke-width="1.2"><path d="M3.17.26c-.74 0-1.48.3-2.06.86l1.24 1.23a1.17 1.17 0 0 1 .01-.01 1.17 1.17 0 0 1 .09-.07 1.17 1.17 0 0 1 .1-.08 1.17 1.17 0 0 1 .1-.05 1.17 1.17 0 0 1 .1-.05 1.17 1.17 0 0 1 .11-.04 1.17 1.17 0 0 1 .12-.02 1.17 1.17 0 0 1 .1-.01 1.17 1.17 0 0 1 .1 0z" fill="#1a1a1a"/><path d="M3.17.26v1.76a1.17 1.17 0 0 1 .12 0 1.17 1.17 0 0 1 .11.02 1.17 1.17 0 0 1 .12.03 1.17 1.17 0 0 1 .11.03 1.17 1.17 0 0 1 .1.06 1.17 1.17 0 0 1 .1.05 1.17 1.17 0 0 1 .1.08 1.17 1.17 0 0 1 .07.07l1.23-1.25A2.9 2.9 0 0 0 3.17.26z" fill="#4d4d4d"/><path d="M1.11 1.12a2.9 2.9 0 0 0-.85 2.06h1.75a1.17 1.17 0 0 1 0-.12 1.17 1.17 0 0 1 .02-.11 1.17 1.17 0 0 1 .03-.12 1.17 1.17 0 0 1 .04-.11 1.17 1.17 0 0 1 .06-.1 1.17 1.17 0 0 1 .05-.1 1.17 1.17 0 0 1 .08-.1 1.17 1.17 0 0 1 .06-.07z" fill="#b3b3b3"/><path d="M2 3.18H.27c0 .74.29 1.48.85 2.06L2.35 4A1.17 1.17 0 0 1 2.34 4a1.17 1.17 0 0 1-.07-.09 1.17 1.17 0 0 1-.08-.1 1.17 1.17 0 0 1-.06-.1 1.17 1.17 0 0 1-.04-.1 1.17 1.17 0 0 1-.04-.11 1.17 1.17 0 0 1-.03-.12 1.17 1.17 0 0 1-.01-.1 1.17 1.17 0 0 1 0-.1zM5.23 1.12L4 2.35a1.17 1.17 0 0 1 .01.02 1.17 1.17 0 0 1 .07.09 1.17 1.17 0 0 1 .08.1 1.17 1.17 0 0 1 .05.09 1.17 1.17 0 0 1 .05.1 1.17 1.17 0 0 1 .04.12 1.17 1.17 0 0 1 .02.1 1.17 1.17 0 0 1 .01.12 1.17 1.17 0 0 1 0 .09H6.1c0-.75-.29-1.5-.86-2.06z" fill="gray"/><path d="M4 4l1.23 1.24a2.9 2.9 0 0 0 .86-2.06H4.33a1.17 1.17 0 0 1 0 .11 1.17 1.17 0 0 1-.02.12 1.17 1.17 0 0 1-.03.11 1.17 1.17 0 0 1-.03.11 1.17 1.17 0 0 1-.06.1 1.17 1.17 0 0 1-.05.1 1.17 1.17 0 0 1-.08.1A1.17 1.17 0 0 1 4 4z" fill="#666"/><path d="M2.35 4L1.1 5.24a2.9 2.9 0 0 0 2.06.85V4.34a1.17 1.17 0 0 1-.11 0 1.17 1.17 0 0 1-.11-.02 1.17 1.17 0 0 1-.12-.03 1.17 1.17 0 0 1-.11-.04 1.17 1.17 0 0 1-.1-.05 1.17 1.17 0 0 1-.1-.06 1.17 1.17 0 0 1-.1-.08A1.17 1.17 0 0 1 2.36 4z" fill="#333"/><path d="M3.17 4.34V6.1a2.9 2.9 0 0 0 2.06-.85L4 4a1.17 1.17 0 0 1-.02.01 1.17 1.17 0 0 1-.09.07 1.17 1.17 0 0 1-.1.08 1.17 1.17 0 0 1-.09.06 1.17 1.17 0 0 1-.1.04 1.17 1.17 0 0 1-.12.04 1.17 1.17 0 0 1-.1.03 1.17 1.17 0 0 1-.12.01 1.17 1.17 0 0 1-.09 0z" fill="#b3b3b3"/></g></svg>