<svg xmlns="http://www.w3.org/2000/svg" width="24" height="24" version="1">
  <defs>
    <linearGradient id="a">
      <stop offset="0"/>
      <stop offset="1" stop-opacity="0"/>
    </linearGradient>
  </defs>
  <g fill="gray">
    <path d="M5.30451482 2.38867196c-.35483747 0-.64272508.28633706-.64272508.64111023 0 .3549018.28795193.64272507.64272508.64272507h1.1368806v2.0299133c0 2.03475295 1.11579144 3.90447912 3.14257059 5.26614723.25651441.17240237.41664086.54413008.41664086.96893234 0 .42480143-.16019077.79497885-.41664086.96731755-2.02684348 1.3617961-3.14257059 3.23313797-3.14257059 5.26776234v2.02829836h-1.1368806c-.35483747 0-.64272508.2878871-.64272508.6427245 0 .35490187.28795193.64272532.64272508.64272532h13.18393965c.35483738 0 .6427245-.28788794.6427245-.64272533 0-.35483738-.2879516-.6427245-.6427245-.6427245h-1.13688061v-2.02829835c0-2.03455988-1.11740646-3.9060944-3.14418595-5.26776234-.2564505-.17246685-.41502591-.54257978-.41502591-.96731755 0-.42473694.1587044-.79497886.41502591-.96731755 2.02690847-1.36186052 3.14405696-3.23313764 3.14418595-5.26776201v-2.0299133h1.1368806c.3548374 0 .6427245-.28788761.6427245-.64272508 0-.35483747-.2879516-.64111024-.6427245-.64111023zm2.42233084 1.2838353h8.33927755v2.0299133c0 2.1493453-1.61405627 3.55418049-2.57574481 4.20032166-.61610992.41419132-.98346622 1.17492973-.98346622 2.0347579 0 .85982819.36722732 1.62037403.98346622 2.03475833.96155956.64607643 2.57561583 2.0511046 2.57574481 4.20032157v2.02829836h-.2131647c-.52826914-1.98568725-3.22393047-4.14363216-3.56082664-4.40702797-.23252805-.1818546-.55883098-.1817256-.79129454 0-.33689617.26333214-3.03255733 2.42134072-3.56082656 4.40702797h-.21316511v-2.02829836c0-2.14940963 1.61257088-3.5543733 2.57413028-4.20032157.61623898-.41419083.9834663-1.17480199.9834663-2.03475832 0-.85995716-.36716283-1.62050218-.9834663-2.0347579-.96149507-.64601253-2.57413028-2.05091203-2.57413028-4.20032166z"/>
    <path d="M11.89592526 14.67119032c.1689942 0 .33477371-.068742.45425366-.18828562.1201224-.11947995.18828562-.28532396.18828562-.45425367 0-.16893053-.06816322-.33477454-.18828562-.45431816-.11947995-.11941546-.28525946-.18822195-.45425366-.18822195-.16899503 0-.33477455.068742-.45425367.18822195-.11954445.11954362-.18828645.28538763-.18828645.45431816 0 .16892971.06867586.33477372.18828645.45425367.11947912.11947913.28525864.18828562.45425367.18828562zM11.8961179 11.26332331c.35490188 0 .64254012-.28770272.64254012-.64254011V9.48489197c0-.35483747-.28770273-.64260436-.64254012-.64260436-.35483738 0-.64254011.28776689-.64254011.64260436v1.13589123c0 .35483739.28763824.64254011.64254011.64254011z"/>
  </g>
</svg>
