<svg xmlns="http://www.w3.org/2000/svg" width="24" height="24" version="1">
  <path fill="gray" d="M12.248398 8.6662403c0-.8476034.693465-1.5410686 1.541068-1.5410686.847604 0 1.541068.6934652 1.541068 1.5410686v6.5495247c0 .851066-.690003 1.541069-1.541068 1.541069-.761313 0-1.541068-.616805-1.541068-1.541069zm-3.8526398 0c0-.8476034.6934655-1.5410686 1.5410683-1.5410686.8476035 0 1.5410685.6934652 1.5410685 1.5410686v4.8300867c-.409168-.366747-.948117-.592133-1.5410685-.592133H8.3957582zM4.5431181 2.1167147c0-.8498692.6911364-1.54106854 1.5410683-1.54106854.849933 0 1.5410694.69113644 1.5410694 1.54106854V12.904131H6.084124c-.5913774 0-1.1311451.226896-1.5410683.596035 0 0 0-11.3834513.0000624-11.3834513zM19.183174 16.756771c0 3.823751-3.111026 6.934777-6.934776 6.934777h-.770503c-3.8237506 0-6.9347769-3.111026-6.9347769-6.934777v-1.541069c0-.847603.6934655-1.541069 1.5410683-1.541069H9.9368265c.1336825 0 .2615765.02272.3852515.05469v.523214c0 .106306-.08629.192657-.192657.192657H8.5883525c-.1063057 0-.1926568.08629-.1926568.192657 0 .106306.086292.192658.1926568.192658h1.7336625c.212672 0 .385251-.172579.385251-.385252v-.555942c.439191.255784.738908.718514.76358 1.256331.03814.882283-.659163 1.611182-1.5329498 1.611182H8.0115767c-.2126717 0-.3852511.17258-.3852511.385252 0 .212671.1725794.385252.3852511.385252h1.8292677c.8221756 0 1.5741746-.413009 2.0118536-1.048318.441519.665332 1.20705 1.048318 1.936706 1.048318 1.274457 0 2.31157-1.037114 2.31157-2.311572V4.428349c0-.8498693.691137-1.5410686 1.54107-1.5410686.849868 0 1.541068.6911364 1.541068 1.5410686v12.328422z"/>
</svg>
