<svg xmlns="http://www.w3.org/2000/svg" width="24" height="24" version="1">
  <path fill="gray" d="M11.707968 1.2965173c-.153918.00328-.293525.013523-.405252.031105-2.395159.3765661-4.1423448 2.5507488-3.9716469 4.9456734.030241.4469095.1358071.984185.2363965 1.2353076.045256.1153621.03015.1707398-.1253079.4016969-.6476187.9791671-.5323868 2.2095608.2861646 3.0482768.1807803.185704.7280316.501679 1.0042432.582105.075269.02509.085316.0951.085316.582105 0 .672943.064777.873845.3208244.979359.2612054.110438 5.4729891.110438 5.7339591 0 .251123-.105514.321714-.305732.321714-.953586 0-.461916.01046-.532133.09065-.557222.587593-.195785 1.194738-.728209 1.455708-1.280631.396731-.8335567.306524-1.8427919-.225732-2.5408231l-.16619-.2159559.100424-.3163816c.497086-1.5616014.029676-3.3694003-1.180208-4.5795244-.56227-.5622706-1.38538-1.0339542-2.158677-1.2299748-.350306-.0902123-.940631-.1414548-1.402386-.1315299zm2.466171 6.5693477c.27583-.010384.644679.050007.844275.1555249.3013.1505332.572571.426247.733187.7376288.100354.1857048.120864.3017248.120864.6532028 0 .366484-.02061.461246-.135973.6771965-.160614.301301-.436738.572336-.742961.733186-.185705.100355-.301725.120865-.653203.120865-.351477 0-.466609-.02051-.652314-.120865-.306223-.160615-.582346-.431885-.742961-.733186-.115362-.2159495-.135973-.3107125-.135973-.6771965 0-.351478.02051-.467498.120865-.6532028.211027-.4068131.577019-.7178091 1.008686-.8584939.06149-.020103.143565-.031196.235508-.034663zm-4.5190917.1039793c.275357-.026082.5948937.035938.8096147.1715206.818551.5071696.878266 1.5771316.119976 2.1595661-.567429.431902-1.3504724.311204-1.8023052-.276389-.5221752-.6827905-.2107451-1.6924847.6176535-1.9987093.07655-.028839.163275-.047295.255061-.055986zM20.006746 10.793277c-.182011-.01633-.361059.03805-.494123.166188-.150532.145609-.301273.501953-.301273.712746 0 .160615-.110308.362121-.286165.527894-.07527.07527-1.100146.597261-2.275099 1.159767-1.174952.56743-2.716087 1.315569-3.424201 1.661889l-1.295739.631873-1.290408-.631873c-.7130377-.34655-2.254581-1.095349-3.4295339-1.662777-1.174953-.562271-2.1989431-1.084267-2.2742097-1.159767-.1908626-.180781-.2861646-.37162-.2861646-.57233-.0049143-.210792-.1506079-.532171-.3163807-.687862-.1906287-.170697-.5573292-.195376-.7882863-.04977-.3664847.230958-.4722431.481423-.4319138 1.05401.02509.391572.014734.45229-.075542.567886-.060263.07527-.1855743.175555-.2861646.225732-.6778657.34632-.8134689 1.180281-.2612806 1.551689.230958.155691.5831397.134878.9446993-.05599.401655-.210792.627343-.185666 1.315291.130641 1.3156377.612682 4.9207902 2.364828 4.9207902 2.395074 0 .01501-1.2149364.618251-2.6963479 1.331288-3.0629427 1.471329-3.0328713 1.460963-3.5299577 1.199759-.3716419-.195786-.7235169-.216121-.9544749-.06044-.5423399.361561-.4059213 1.119613.2719453 1.546357.1556914.09543.296216.221052.3163807.276389.015007.05533.02448.286098.019557.511897-.00491.281136.01487.467019.07021.602545.2009449.476922.6482903.693055 1.0300155.492346.2560469-.130603.3609872-.336287.4763492-.94381.070346-.366485.2064971-.441762 3.8267871-2.194226l3.4286444-1.656557 1.441488.697638c4.66464 2.25424 5.428108 2.63626 5.553552 2.75678.195787.185704.286164.371721.286164.587437 0 .617607.642753 1.033495 1.104668.717189.09543-.06519.23093-.220744.301272-.341264.110437-.200945.125309-.28641.125309-.718078 0-.492163.000241-.496828.160856-.627429.08535-.07527.230317-.181061.320824-.236398.260971-.15569.467462-.536855.467462-.853162 0-.652777-.592509-.913623-1.275299-.557222-.497086.260971-.46684.271336-3.524626-1.199758-1.486335-.713038-2.70168-1.316281-2.70168-1.331289 0-.03001 3.605388-1.782391 4.920791-2.395074.698031-.321465.888791-.341332 1.365947-.115533.386649.185704.662605.196162.898487.03555.547264-.361559.406911-1.200518-.255949-1.541912-.331313-.170698-.366221-.245671-.356373-.767846.0049-.502246-.05039-.723549-.246172-.924259-.143148-.153112-.32811-.239624-.51012-.255949zm-8.681812.329711c.09857.0038.193911.03661.254171.09687.125445.125443.135629.44668.01511.597213l-.09065.1102-.175965-.150192c-.100356-.08043-.220164-.225801-.2755-.326157-.09543-.175621-.09543-.181161 0-.251505.0728-.05522.174267-.08021.272834-.07643zm1.412161 0c.09857-.0038.200029.02121.272833.07643.09543.07034.09543.07565 0 .251504-.05533.100356-.176033.245733-.276389.326158l-.175964.150192-.08532-.110201c-.125445-.150532-.11478-.47177.01067-.597213.06026-.06026.155604-.09309.25417-.09687z"/>
</svg>
