<svg xmlns="http://www.w3.org/2000/svg" width="24" height="24"><path fill="gray" d="M20.358 3.845A11.457 11.457 0 0 0 12.203.468c-3.08 0-5.976 1.2-8.154 3.377A11.457 11.457 0 0 0 .67 12c0 3.08 1.2 5.976 3.378 8.155a11.457 11.457 0 0 0 8.154 3.377c3.08 0 5.977-1.2 8.155-3.377A11.457 11.457 0 0 0 23.736 12c0-3.08-1.2-5.976-3.378-8.155zm-8.155-1.873c1.823 0 3.534.489 5.008 1.342l-5.008 3.639-5.007-3.639a9.967 9.967 0 0 1 5.007-1.342zm3.521 7.539l-2.241-1.629 3.626-2.634zm.791 2.434l3.626 2.634H15.66zM8.683 9.51L7.297 5.248l3.627 2.634zm.065 5.068H4.265l3.627-2.634zm3.455-5.767l3.032 2.203-1.158 3.564H10.33L9.17 11.015zM2.175 12c0-2.95 1.281-5.607 3.316-7.444l1.912 5.884-5.01 3.64A10.034 10.034 0 0 1 2.175 12zm.87 4.083h6.192l1.913 5.89c-3.621-.38-6.675-2.695-8.105-5.89zm7.773 0h2.77l-1.385 4.263zm2.438 5.89l1.914-5.89h6.192c-1.43 3.195-4.484 5.51-8.106 5.89zm3.748-11.533l1.912-5.884a10.005 10.005 0 0 1 3.098 9.524z"/></svg>