<svg xmlns="http://www.w3.org/2000/svg" width="24" height="24">
  <g fill="gray">
    <path d="M14.45168196 1.33243212l-.2479487 1.70321322c-.08837025-.0466978-.18043839-.0933956-.27108426-.1364429L10.9708709.4733349h-.96472431l.69724313 1.76669378c-.15957846.00592611-.31915692.01403304-.47603307.0308158l-3.26955685-.61882876-.8504688.45559981 1.3283034 1.10301617c-.17546045.10472633-.34589555.21580545-.51092604.3350389L3.7612527 4.63735605l-.5123009.81737736 1.69733451.29692213c-.13193905.23258821-.25387482.47105513-.35860114.71947792L2.46291174 9.0212124l-.0154079.96472431 1.60939095-.62560824c.0063528.22438647.02266147.44654472.0498742.66505247l-.55677048 3.2962955.4719559.84141369 1.07532935-1.35011151c.11245398.1800117.2325882.3540973.3604501.52230418l.18043838 1.1918605h9.87390526l2.78897253-1.04811662.49006611-.83098373-1.70231245-.24979765c.08614203-.16185409.16593126-.32731125.2394151-.49684559l2.14975793-2.53832152.02313556-.96425023-1.61299403.61200188c-.00365048-.1799643-.01000328-.35950191-.02721272-.53586313l.64964456-3.2623033-.4470188-.85454596-1.1138728 1.31744676c-.1464462-.2511251-.30825287-.49096688-.4841874-.72033128l-1.18185722-3.13311396zm-3.48081105 8.7895208c-.53263933 0-.96472431-.43203757-.96472431-.96472431s.43203757-.96472432.96472431-.96472432.96477173.43203758.96477173.96472432c-.00004741.53268674-.43208499.96472431-.96477173.96472431zM.92833209 15.43379167v8.16030948h19.9473073v-8.16030948H5.7755159zM19.68558042 11.75035485l2.83344212-2.23680072-1.26757257-.59659398zM23.05626053 12.08809607l-3.04654525 1.09486183 3.60502245.18996758z"/>
  </g>
</svg>
