<svg xmlns="http://www.w3.org/2000/svg" width="24" height="24" viewBox="0 0 6.35 6.35"><path style="line-height:1.25;-inkscape-font-specification:sans-serif" d="M1.27 1.32a2.05 2.05 0 0 0-1.14.34v.51c.17-.15.34-.26.53-.34.18-.07.37-.1.58-.1.4 0 .72.12.94.37.21.24.32.6.32 1.08 0 .47-.1.83-.32 1.08-.22.24-.53.37-.94.37-.2 0-.4-.04-.58-.11a1.7 1.7 0 0 1-.53-.34v.5a1.96 1.96 0 0 0 1.14.35c.54 0 .96-.17 1.28-.5.3-.33.46-.78.46-1.35a1.9 1.9 0 0 0-.46-1.36c-.32-.33-.74-.5-1.28-.5zm3.81 0c-.54 0-.96.17-1.28.5a1.9 1.9 0 0 0-.46 1.36c0 .57.15 1.02.46 1.35.32.33.74.5 1.28.5a2.04 2.04 0 0 0 1.14-.35v-.5a1.7 1.7 0 0 1-.53.34c-.18.07-.37.1-.58.1-.4 0-.72-.12-.94-.36-.21-.25-.32-.61-.32-1.08 0-.48.1-.84.32-1.08.22-.25.53-.38.94-.38.2 0 .4.04.58.11.19.08.36.2.53.34v-.5a2.05 2.05 0 0 0-1.13-.34z" font-weight="400" font-size="4.04" font-family="sans-serif" letter-spacing="0" word-spacing="0" fill="#e6e6e6"/></svg>
