<svg xmlns="http://www.w3.org/2000/svg" xmlns:xlink="http://www.w3.org/1999/xlink" width="48" height="48" viewBox="0 0 12.7 12.7"><defs><linearGradient id="a"><stop offset="0" stop-color="#216778"/><stop offset="1" stop-color="#5fbcd3"/></linearGradient><linearGradient xlink:href="#a" id="e" x1="6.34" y1="293.99" x2="6.23" y2="284.36" gradientUnits="userSpaceOnUse"/><linearGradient id="b"><stop offset="0" stop-color="#fff"/><stop offset="1" stop-color="#fff" stop-opacity="0"/></linearGradient><linearGradient id="c"><stop offset="0"/><stop offset="1" stop-opacity="0"/></linearGradient><linearGradient id="d"><stop offset="0" stop-color="#f5f5f5"/><stop offset="1" stop-color="#d2d2d2"/></linearGradient></defs><path d="M6.23 284.36c-1.52.01-3.09.72-4.73 2.31V294h9.69v-7.32c-1.6-1.46-3.24-2.33-4.96-2.31z" fill="url(#e)" transform="translate(0 -284.3)"/><path fill="#164450" d="M1.03 9.68h10.7v1.27H1.03z"/><path fill="#216778" d="M-.03 10.93h12.76v1.76H-.03z"/><path d="M2.74 1.33h-.02c-.4.3-.81.64-1.22 1.04v7.31h-.47v1.25H-.03v1.77h3.4v-1.77h-.4V9.68h-.23zm7.14 0v8.35h-.1v1.25h-.44v1.77h3.39v-1.77h-1V9.68h-.54V2.37c-.43-.4-.87-.74-1.31-1.04z" opacity=".5"/><path d="M6.33 3.12l-.15.01c-.57.07-1.03.45-1.17.96-.03.1-.03.14-.04.64v.52h.46v-.47c0-.4 0-.5.02-.56a.82.82 0 0 1 .45-.54c.16-.08.26-.1.45-.1.18 0 .28.02.43.1.25.1.41.3.47.53.02.07.02.18.02.56v.48h.46v-.53c0-.5-.01-.54-.04-.64-.16-.53-.61-.9-1.19-.95l-.17-.01zm-.6 2.2h-1a.27.27 0 0 0-.11.1 15 15 0 0 0-.02 1.5c0 1.43 0 1.46.03 1.5.01.03.04.06.07.08.04.02.07.02 1.64.02 1.79 0 1.66.01 1.73-.1l.03-.04V6.92c0-1.6 0-1.51-.08-1.58-.04-.02-.06-.02-1.66-.03h-.63zm.63.67c.05 0 .1.01.14.03.08.04.16.13.2.2.05.15.02.3-.09.4l-.07.07v.3c0 .28 0 .32-.02.36a.18.18 0 0 1-.17.09.18.18 0 0 1-.17-.1c-.02-.03-.02-.07-.02-.35v-.31l-.05-.04C6 6.56 5.96 6.4 6 6.26c.04-.17.2-.27.36-.27z" fill="#1c1f24"/></svg>