<svg xmlns="http://www.w3.org/2000/svg" xmlns:xlink="http://www.w3.org/1999/xlink" width="48" height="48"><defs><linearGradient id="a"><stop offset="0"/><stop offset="1" stop-opacity="0"/></linearGradient><linearGradient xlink:href="#a" id="d" gradientUnits="userSpaceOnUse" x1="9.62" y1="28.92" x2="52.59" y2="28.92"/><linearGradient xlink:href="#b" id="c" x1="1.09" y1="1" x2="46.91" y2="47" gradientUnits="userSpaceOnUse"/><linearGradient id="b"><stop offset="0" stop-color="#37abc8"/><stop offset="1" stop-color="#87cdde"/></linearGradient></defs><rect width="45.83" height="46" x="1.09" y="1" ry="5.05" fill="url(#c)" fill-rule="evenodd"/><path d="M26.16 47h15.7a5.06 5.06 0 0 0 5.05-5.05V20.82L35.62 9.52l-5.56 3.71-17.77 4.31-1.7 1.16-.97 4.19 9.13 9.13-1.3 6.27z" opacity=".5" fill="url(#d)"/><path d="M36.25 12l-1.09.22c.2-.58.46-1.43.63-2a.87.87 0 0 0-.08-.66.66.66 0 0 0-.5-.35 4.52 4.52 0 0 0-4.4 2.58l-.75 1.44-17.21 3.4c-2.38.47-3.86 3.14-3.3 5.95.08.4.41.68.75.61l14.78-2.92c.34-.06.55-.43.47-.83 0-.02.13-.42 1.6-1-2.69 4.64-6.48 10.47-10.23 14.15a3.51 3.51 0 0 0-.97 2.66 3.94 3.94 0 0 0 1.18 2.7c.71.68 1.61.97 2.48.8.5-.1.96-.34 1.34-.74 3.26-3.3 9.07-11.5 12.64-21.08a205.56 205.56 0 0 1 3.49-.58h.04c.49-.1.9-.42 1.16-.9.27-.47.35-1.06.24-1.63-.25-1.2-1.25-2-2.26-1.81zm-15.5 22c-.34.05-.68-.22-.75-.62-.08-.4.12-.78.47-.86.34-.06.68.22.76.62.07.4-.13.78-.48.85zm7.04-9.73c-.34.06-.68-.2-.76-.6-.07-.4.13-.79.47-.85.35-.07.69.2.76.6.08.4-.12.79-.47.85zm.47-7.75c-1.82.5-3.58 1.18-3.92 2.38l-13.65 2.7c-.04-1.72.95-3.22 2.45-3.51l16.01-3.16zm4.1-1.47c-.35.08-.69-.2-.76-.6-.09-.4.12-.78.46-.85.34-.06.68.2.76.61.08.4-.13.78-.47.84zm4.83-.45a.56.56 0 0 1-.37.3l.13.73-.15-.73-1.63.27-1.03.17.48-1.5 1.9-.37c.35-.06.67.2.76.6a.88.88 0 0 1-.09.53z" fill="#1a1a1a"/></svg>