<svg xmlns="http://www.w3.org/2000/svg" xmlns:xlink="http://www.w3.org/1999/xlink" width="48" height="48" version="1"><defs><linearGradient id="b"><stop offset="0"/><stop offset="1" stop-opacity="0"/></linearGradient><linearGradient id="a"><stop offset="0" stop-color="#37abc8"/><stop offset="1" stop-color="#162d50"/></linearGradient><linearGradient xlink:href="#b" id="e" gradientUnits="userSpaceOnUse" x1="7.74" y1="30.02" x2="51.75" y2="30.02"/><linearGradient xlink:href="#c" id="d" x1="1.09" y1="1" x2="46.91" y2="47" gradientUnits="userSpaceOnUse"/><linearGradient id="c"><stop offset="0" stop-color="#37abc8"/><stop offset="1" stop-color="#87cdde"/></linearGradient></defs><rect width="45.83" height="46" x="1.09" y="1" ry="5.05" fill="url(#d)" fill-rule="evenodd"/><path d="M28.32 47h13.54a5.06 5.06 0 0 0 5.05-5.05v-14.1l-13.7-13.69-1.02.08L30 12.07l-.95-.06-.82-.4-.97.15-.5 1.07-1.74.32-.94-.76-1.77.47-.28 1 .06.6-1.45 1.17-1.6-.45-2.13 2.1-4 .22-3.3 2.76-1.34 3.96 2.47 5.21z" opacity=".5" fill="url(#e)"/><path d="M39.89 29.4a7.28 7.28 0 0 0-3.99-6.46v-2.62a1.07 1.07 0 0 0-1.06-1.06h-1.97V17.6c.3-.08.56-.23.74-.45a1.26 1.26 0 0 0 .26-.98l-.18-1.2a1.34 1.34 0 0 0-1.58-1.07 1.47 1.47 0 0 0-.64.3l-1.3-.81v-.03c.1-.34.07-.72-.1-1.03a1.24 1.24 0 0 0-.78-.64l-1.19-.32a1.35 1.35 0 0 0-1.6 1l-.02.2-1.23.2c-.32-.66-1.1-.98-1.73-.69l-1.14.5c-.62.29-.88 1.04-.62 1.7l-.93.97-1.51-1.07a1.07 1.07 0 0 0-1.47.27l-1.48 2.16a7.28 7.28 0 0 0-5.62 12.83l.82-1.19a5.84 5.84 0 0 1 7.16-9.23 5.85 5.85 0 1 1-6.35 9.82l-.81 1.18a7.28 7.28 0 0 0 10.23-9.6l1.5-2.15a1.07 1.07 0 0 0-.27-1.47l-1.57-1.11.75-.78a1.34 1.34 0 0 0 .84.32c.17 0 .35-.04.5-.12l1.13-.5a1.27 1.27 0 0 0 .7-1.07l1.2-.19.05.12c.17.3.44.5.76.59l1.18.3a1.34 1.34 0 0 0 .32.06 1.2 1.2 0 0 0 .87-.37l1.24.77a1.23 1.23 0 0 0-.07.58l.2 1.2c.08.52.48.9 1 1.03v1.63h-1.81a1.07 1.07 0 0 0-1.07 1.05v2.62A7.28 7.28 0 0 0 32 36.66v-1.44a5.84 5.84 0 0 1 .58-11.67 5.87 5.87 0 0 1 .44 11.68v1.45a7.28 7.28 0 0 0 6.87-7.26zM20.37 17.78a.64.64 0 1 1-1.05-.74c.16-.2.39-.25.61-.22l.6-.85.45.32-.6.85c.12.2.14.44 0 .64zm4.01-3.81l-1.12.52c-.17.08-.39.04-.56-.08l.25-.27a.37.37 0 1 0-.53-.5l-.03.02a.6.6 0 0 1 .3-.43l1.1-.5a.53.53 0 0 1 .23-.06c.18 0 .32.1.44.23l-.16.03a.4.4 0 0 0 .07.77h.05l.2-.03a.5.5 0 0 1-.25.3zm4.99-1.07a.4.4 0 0 0-.54.12.39.39 0 0 0 .14.53l.15.1a.53.53 0 0 1-.37.05l-1.18-.32c-.09-.01-.14-.1-.2-.13l.3-.06a.4.4 0 0 0 .32-.45c-.02-.21-.22-.38-.44-.32l-.32.05c.1-.27.32-.44.56-.44l.14.01 1.19.32c.13.04.26.14.34.3.04.1.02.2.03.3zm2.46 3.6l-.2-1.2.01-.08.1.06c.06.05.14.07.2.07.14 0 .28-.07.34-.2a.4.4 0 0 0-.13-.53c.03 0 .04-.02.07-.04h.13c.32 0 .6.2.64.48l.2 1.2a.55.55 0 0 1-.13.45c-.04.05-.14.07-.18.1v-.26a.37.37 0 0 0-.37-.38.37.37 0 0 0-.37.38v.33a.53.53 0 0 1-.31-.39zm.75 5.75a.64.64 0 0 1-.64-.65c0-.24.17-.41.37-.53v-1.03h.55v1.03c.2.12.36.29.36.53 0 .35-.28.64-.64.64z" fill="#1a1a1a"/></svg>