<svg xmlns="http://www.w3.org/2000/svg" xmlns:xlink="http://www.w3.org/1999/xlink" width="64" height="64" version="1"><defs><linearGradient id="e"><stop offset="0" stop-color="#0b2228"/><stop offset="1" stop-color="#0b2228" stop-opacity="0"/></linearGradient><linearGradient id="d"><stop offset="0" stop-color="#0b2228"/><stop offset="1" stop-color="#0b2228" stop-opacity="0"/></linearGradient><linearGradient id="b"><stop offset="0" stop-color="#216778"/><stop offset=".27" stop-color="#164450"/><stop offset=".29" stop-color="#216778"/><stop offset=".49" stop-color="#2c89a0"/><stop offset=".71" stop-color="#216778"/><stop offset=".73" stop-color="#164450"/><stop offset="1" stop-color="#216778"/></linearGradient><linearGradient id="a"><stop offset="0" stop-color="#216778"/><stop offset=".18" stop-color="#164450"/><stop offset=".19" stop-color="#216778"/><stop offset=".49" stop-color="#2c89a0"/><stop offset=".8" stop-color="#216778"/><stop offset=".81" stop-color="#164450"/><stop offset="1" stop-color="#216778"/></linearGradient><linearGradient id="f"><stop offset="0" stop-color="#0b2228"/><stop offset="1" stop-color="#0b2228" stop-opacity="0"/></linearGradient><linearGradient id="c"><stop offset="0" stop-color="#216778"/><stop offset=".12" stop-color="#164450"/><stop offset=".15" stop-color="#2c89a0"/><stop offset=".49" stop-color="#37abc8"/><stop offset=".85" stop-color="#2c89a0"/><stop offset=".88" stop-color="#164450"/><stop offset="1" stop-color="#216778"/></linearGradient><linearGradient xlink:href="#a" id="h" x1="5.27" y1="51.93" x2="59.12" y2="51.93" gradientUnits="userSpaceOnUse"/><linearGradient xlink:href="#b" id="g" x1="-.04" y1="59.46" x2="64.18" y2="59.46" gradientUnits="userSpaceOnUse"/><linearGradient xlink:href="#c" id="i" x1="7.65" y1="24.52" x2="56.44" y2="24.52" gradientUnits="userSpaceOnUse"/><linearGradient xlink:href="#d" id="j" x1="13.48" y1="63.47" x2="13.48" y2="26.47" gradientUnits="userSpaceOnUse"/><linearGradient xlink:href="#e" id="k" x1="5.27" y1="55.14" x2="5.27" y2="48.73" gradientUnits="userSpaceOnUse"/><linearGradient xlink:href="#f" id="l" x1="-.04" y1="63.9" x2="-.04" y2="55.02" gradientUnits="userSpaceOnUse"/></defs><path d="M-.04 55.02h64.22v8.88H-.04z" fill="url(#g)"/><path d="M5.27 48.73h53.86v6.42H5.27z" fill="url(#h)"/><path d="M31.46.28C23.83.35 15.93 3.9 7.66 11.94v36.83h48.76V20.21h.02v-8.27C48.4 4.58 40.11.19 31.46.28z" fill="url(#i)"/><path d="M31.44.28C23.8.35 15.9 3.9 7.64 11.94v36.83h48.75V20.21h.03v-8.27C48.37 4.58 40.09.19 31.44.28z" fill="url(#j)"/><path d="M5.27 48.73h53.86v6.42H5.27z" fill="url(#k)"/><path d="M-.04 55.02h64.22v8.88H-.04z" fill="url(#l)"/><g fill="#1d2a2e"><path d="M42.1 17.84c-.46.03-.52.08-.56.54-.01.17-.03.21-.09.24s-.07.05-.08.48c0 .43 0 .45.06.47.06.02.07.04.06.22 0 .11 0 .22.02.24.02.03.01.04 0 .02-.04-.02-.05.03-.05.16a243.97 243.97 0 0 1-.17 4.84c-.02.75-.03.9-.1 1.08-.07.2-.42.72-.75 1.1-.66.75-.99 1.37-1.25 2.31l-.1.38v17.92l.09.19c.08.16.13.21.27.3.3.17.39.21.64.28a5.45 5.45 0 0 0 1.07.16l.9.06c.84.03 1.23.02 2.72-.06 1.12-.07 1.5-.23 1.77-.76l.1-.21.01-5.28a98.67 98.67 0 0 0-.03-5.36c.03.02.04-.54.04-2.75a26.66 26.66 0 0 0-.04-2.76c.05-.05.06-1.46 0-1.8a5.33 5.33 0 0 0-1.4-2.65 2.93 2.93 0 0 1-.7-1.17l-.07-1.38c-.07-2-.08-2.2-.1-2.38a63.72 63.72 0 0 1-.09-2.4c-.02-.3-.01-.32.05-.32.06 0 .06-.01.06-.48s0-.5-.06-.52c-.06-.01-.07-.04-.06-.29 0-.16 0-.28-.03-.3-.1-.1-.32-.13-1.07-.14-.42 0-.9 0-1.07.02zm1.59 1.13v.36H43.4v-.36c0-.35 0-.37.07-.37h.15c.06 0 .07.02.07.37zm-.02.59c.02.02.09 6.68.07 6.74-.02.04-.07.05-.23.05h-.2V24.1l.02-3.42v-1.16h.16l.18.04zm.69 8.44a3.69 3.69 0 0 1 .7 1.65c.05.46.14 3 .17 4.8a5 5 0 0 0 .07 1.38c.05.05.05.05 0 .02-.05-.04-.05.14-.07 2.05 0 1.15-.03 2.62-.05 3.28l-.17 6.2c-.01.36-.02.4-.1.56-.14.24-.4.5-.54.52a1.5 1.5 0 0 1-.53-.06l.13-.18c.07-.1.2-.32.28-.5l.15-.34v-5.25c0-5.63 0-6.53-.05-8.56-.06-2.99-.1-4.13-.13-4.27a3.5 3.5 0 0 0-.32-.78 3.03 3.03 0 0 1-.17-.42c-.02-.08 0-.1.07-.13.11-.04.44-.02.56.03zM28.89 29.53l-.2.52a9.21 9.21 0 0 0-.67 3.05c0 1.12.4 2.29 1.12 3.23.3.4.9.98 1.3 1.25.1.07.46.25.74.36.3.12.8.38.96.5.1.07.18.16.23.28l.08.16-.01 3.72-.01 3.7-.1.23c-.12.24-.23.34-.43.37-.18.04-.62.09-.86.1-.3.03-.6.09-.92.21-.22.08-.32.14-.46.27-.36.32-.39.66-.08.9.14.11.2.14.56.24.63.18 1.62.28 3.02.28 1 0 1.07 0 1.56-.08.56-.1 1.17-.25 1.33-.33.16-.08.37-.24.46-.34.23-.25.13-.54-.26-.76-.17-.1-.7-.23-1.47-.37-.69-.12-.82-.17-1-.33-.24-.23-.27-.3-.28-.9 0-.27 0-1.9.02-3.63l.02-3.13.08-.16c.04-.08.18-.26.3-.38.21-.21.27-.25.88-.55.35-.17.68-.35.72-.38.07-.06.07-.07.03-.12-.04-.05-.03-.05.03-.01s.09.03.29-.14a5.25 5.25 0 0 0 1.7-2.53c.18-.52.3-1.24.3-1.75 0-.96-.24-1.92-.9-3.6l-.05-.08h-7.96zm8.25 1.68c.15.48.26 1.2.26 1.64 0 1-.48 2.34-1.14 3.15a6 6 0 0 1-1.24 1.12c-.16.12-.86.6-.88.6a89.9 89.9 0 0 0 1.16-1.58c.24-.3.57-.72.7-.91.4-.61.76-1.66.86-2.53.05-.46.02-1.43-.08-2.43-.01-.15 0-.13.11.17l.25.77zm-2.13 16.5c.06.04.1.09.1.1-.03.07-.63.32-.88.37-.36.07-1.08.09-1.77.05-.96-.06-1.35-.14-1.52-.33l-.1-.1.08.03.5.1c.35.06.55.07 1.4.09 1.3.03 1.72-.03 1.94-.25a.63.63 0 0 1 .13-.12l.12.07z"/></g></svg>