<?xml version="1.0" encoding="UTF-8" standalone="no"?>
<svg
   xmlns:dc="http://purl.org/dc/elements/1.1/"
   xmlns:cc="http://creativecommons.org/ns#"
   xmlns:rdf="http://www.w3.org/1999/02/22-rdf-syntax-ns#"
   xmlns:svg="http://www.w3.org/2000/svg"
   xmlns="http://www.w3.org/2000/svg"
   xmlns:xlink="http://www.w3.org/1999/xlink"
   xmlns:sodipodi="http://sodipodi.sourceforge.net/DTD/sodipodi-0.dtd"
   xmlns:inkscape="http://www.inkscape.org/namespaces/inkscape"
   width="64"
   height="64"
   version="1"
   id="svg84"
   sodipodi:docname="folder-tar.svg"
   inkscape:version="0.92.4 (5da689c313, 2019-01-14)">
  <metadata
     id="metadata88">
    <rdf:RDF>
      <cc:Work
         rdf:about="">
        <dc:format>image/svg+xml</dc:format>
        <dc:type
           rdf:resource="http://purl.org/dc/dcmitype/StillImage" />
        <dc:title></dc:title>
      </cc:Work>
    </rdf:RDF>
  </metadata>
  <sodipodi:namedview
     pagecolor="#ffffff"
     bordercolor="#666666"
     borderopacity="1"
     objecttolerance="10"
     gridtolerance="10"
     guidetolerance="10"
     inkscape:pageopacity="0"
     inkscape:pageshadow="2"
     inkscape:window-width="1112"
     inkscape:window-height="480"
     id="namedview86"
     showgrid="false"
     inkscape:zoom="3.6875"
     inkscape:cx="2.8474576"
     inkscape:cy="32"
     inkscape:window-x="0"
     inkscape:window-y="25"
     inkscape:window-maximized="0"
     inkscape:current-layer="svg84" />
  <defs
     id="defs68">
    <linearGradient
       id="e">
      <stop
         offset="0"
         stop-color="#0b2228"
         id="stop2" />
      <stop
         offset="1"
         stop-color="#0b2228"
         stop-opacity="0"
         id="stop4" />
    </linearGradient>
    <linearGradient
       id="d">
      <stop
         offset="0"
         stop-color="#0b2228"
         id="stop7" />
      <stop
         offset="1"
         stop-color="#0b2228"
         stop-opacity="0"
         id="stop9" />
    </linearGradient>
    <linearGradient
       id="b">
      <stop
         offset="0"
         stop-color="#216778"
         id="stop12" />
      <stop
         offset=".27"
         stop-color="#164450"
         id="stop14" />
      <stop
         offset=".29"
         stop-color="#216778"
         id="stop16" />
      <stop
         offset=".49"
         stop-color="#2c89a0"
         id="stop18" />
      <stop
         offset=".71"
         stop-color="#216778"
         id="stop20" />
      <stop
         offset=".73"
         stop-color="#164450"
         id="stop22" />
      <stop
         offset="1"
         stop-color="#216778"
         id="stop24" />
    </linearGradient>
    <linearGradient
       id="a">
      <stop
         offset="0"
         stop-color="#216778"
         id="stop27" />
      <stop
         offset=".18"
         stop-color="#164450"
         id="stop29" />
      <stop
         offset=".19"
         stop-color="#216778"
         id="stop31" />
      <stop
         offset=".49"
         stop-color="#2c89a0"
         id="stop33" />
      <stop
         offset=".8"
         stop-color="#216778"
         id="stop35" />
      <stop
         offset=".81"
         stop-color="#164450"
         id="stop37" />
      <stop
         offset="1"
         stop-color="#216778"
         id="stop39" />
    </linearGradient>
    <linearGradient
       id="f">
      <stop
         offset="0"
         stop-color="#0b2228"
         id="stop42" />
      <stop
         offset="1"
         stop-color="#0b2228"
         stop-opacity="0"
         id="stop44" />
    </linearGradient>
    <linearGradient
       id="c">
      <stop
         offset="0"
         stop-color="#216778"
         id="stop47" />
      <stop
         offset=".12"
         stop-color="#164450"
         id="stop49" />
      <stop
         offset=".15"
         stop-color="#2c89a0"
         id="stop51" />
      <stop
         offset=".49"
         stop-color="#37abc8"
         id="stop53" />
      <stop
         offset=".85"
         stop-color="#2c89a0"
         id="stop55" />
      <stop
         offset=".88"
         stop-color="#164450"
         id="stop57" />
      <stop
         offset="1"
         stop-color="#216778"
         id="stop59" />
    </linearGradient>
    <linearGradient
       xlink:href="#a"
       id="h"
       x1="5.27"
       y1="51.93"
       x2="59.12"
       y2="51.93"
       gradientUnits="userSpaceOnUse" />
    <linearGradient
       xlink:href="#b"
       id="g"
       x1="-.04"
       y1="59.46"
       x2="64.18"
       y2="59.46"
       gradientUnits="userSpaceOnUse" />
    <linearGradient
       xlink:href="#c"
       id="i"
       x1="7.65"
       y1="24.52"
       x2="56.44"
       y2="24.52"
       gradientUnits="userSpaceOnUse" />
    <linearGradient
       xlink:href="#d"
       id="j"
       x1="13.48"
       y1="63.47"
       x2="13.48"
       y2="26.47"
       gradientUnits="userSpaceOnUse" />
    <linearGradient
       xlink:href="#e"
       id="k"
       x1="5.27"
       y1="55.14"
       x2="5.27"
       y2="48.73"
       gradientUnits="userSpaceOnUse" />
    <linearGradient
       xlink:href="#f"
       id="l"
       x1="-.04"
       y1="63.9"
       x2="-.04"
       y2="55.02"
       gradientUnits="userSpaceOnUse" />
  </defs>
  <path
     d="M -0.04,55.02 H 64.18 V 63.9 H -0.04 Z"
     id="path70"
     style="fill:url(#g)"
     inkscape:connector-curvature="0" />
  <path
     d="m 5.27,48.73 h 53.86 v 6.42 H 5.27 Z"
     id="path72"
     style="fill:url(#h)"
     inkscape:connector-curvature="0" />
  <path
     d="M 31.46,0.28 C 23.83,0.35 15.93,3.9 7.66,11.94 V 48.77 H 56.42 V 20.21 h 0.02 V 11.94 C 48.4,4.58 40.11,0.19 31.46,0.28 Z"
     id="path74"
     style="fill:url(#i)"
     inkscape:connector-curvature="0" />
  <path
     d="M 31.44,0.28 C 23.8,0.35 15.9,3.9 7.64,11.94 V 48.77 H 56.39 V 20.21 h 0.03 V 11.94 C 48.37,4.58 40.09,0.19 31.44,0.28 Z"
     id="path76"
     style="fill:url(#j)"
     inkscape:connector-curvature="0" />
  <path
     d="m 5.27,48.73 h 53.86 v 6.42 H 5.27 Z"
     id="path78"
     style="fill:url(#k)"
     inkscape:connector-curvature="0" />
  <path
     d="M -0.04,55.02 H 64.18 V 63.9 H -0.04 Z"
     id="path80"
     style="fill:url(#l)"
     inkscape:connector-curvature="0" />
  <path
     d="m 8.26,10.12 a 1.05,1.05 0 0 0 -0.18,0.02 1.05,1.05 0 0 0 -0.67,0.48 1.05,1.05 0 0 0 0.32,1.43 l 2.2,1.42 a 2.74,2.74 0 0 0 0.86,3.74 l 6.3,4.03 c 1.24,0.8 2.91,0.45 3.74,-0.78 a 2.74,2.74 0 0 0 0.87,3.71 L 28,28.2 c 1.22,0.8 2.83,0.45 3.67,-0.7 a 2.74,2.74 0 0 0 0.92,3.64 l 6.3,4.02 c 1.24,0.8 2.9,0.45 3.73,-0.78 a 2.74,2.74 0 0 0 0.87,3.72 l 6.3,4.02 c 1.26,0.81 2.94,0.44 3.75,-0.8 l 2.21,1.4 a 1.05,1.05 0 0 0 1.12,-1.76 L 54.66,39.55 A 2.74,2.74 0 0 0 53.81,35.8 l -6.3,-4.01 a 2.74,2.74 0 0 0 -3.77,0.83 2.74,2.74 0 0 0 -0.84,-3.78 l -6.28,-4.02 a 2.72,2.72 0 0 0 -3.75,0.8 2.74,2.74 0 0 0 -0.85,-3.74 l -6.3,-4.01 A 2.74,2.74 0 0 0 21.94,18.7 2.74,2.74 0 0 0 21.11,14.92 L 14.82,10.9 a 2.72,2.72 0 0 0 -3.75,0.8 L 8.86,10.3 a 1.05,1.05 0 0 0 -0.6,-0.17 z m 5.08,2.48 a 0.75,0.75 0 0 1 0.42,0.11 l 6.14,3.9 a 0.75,0.75 0 0 1 0.27,0.95 L 19.92,17.4 a 1.05,1.05 0 0 0 -1.46,0.32 h 0.02 a 1.05,1.05 0 0 0 0.32,1.44 l 0.24,0.16 a 0.75,0.75 0 0 1 -0.91,0.1 L 12,15.5 a 0.75,0.75 0 0 1 -0.31,-0.9 l 0.44,0.27 a 1.05,1.05 0 0 0 1.13,-1.77 l -0.43,-0.27 a 0.75,0.75 0 0 1 0.36,-0.21 0.75,0.75 0 0 1 0.14,-0.02 z m 10.91,6.96 a 0.75,0.75 0 0 1 0.42,0.11 l 6.14,3.91 a 0.75,0.75 0 0 1 0.3,0.9 l -0.43,-0.27 a 1.05,1.05 0 0 0 -0.4,-0.15 1.05,1.05 0 0 0 -0.1,-0.01 1.05,1.05 0 0 0 -0.3,0 1.05,1.05 0 0 0 -0.67,0.49 1.05,1.05 0 0 0 0.31,1.43 l 0.45,0.29 a 0.75,0.75 0 0 1 -0.95,0.1 l -6.1,-3.9 a 0.75,0.75 0 0 1 -0.3,-0.87 l 0.6,0.39 a 1.05,1.05 0 0 0 1.11,-1.76 l -0.62,-0.4 a 0.75,0.75 0 0 1 0.4,-0.24 0.75,0.75 0 0 1 0.14,-0.02 z m 10.89,6.96 a 0.75,0.75 0 0 1 0.42,0.1 l 6.13,3.92 a 0.75,0.75 0 0 1 0.28,0.94 l -0.25,-0.16 a 1.05,1.05 0 0 0 -1.46,0.32 h 0.02 a 1.05,1.05 0 0 0 0.32,1.43 l 0.24,0.17 a 0.75,0.75 0 0 1 -0.92,0.1 L 33.8,29.42 a 0.75,0.75 0 0 1 -0.3,-0.9 l 0.44,0.27 a 1.05,1.05 0 0 0 1.14,-1.76 h -0.01 l -0.44,-0.29 a 0.75,0.75 0 0 1 0.36,-0.2 0.75,0.75 0 0 1 0.15,-0.02 z m 10.9,6.96 a 0.75,0.75 0 0 1 0.42,0.11 l 6.14,3.9 a 0.75,0.75 0 0 1 0.3,0.92 l -0.43,-0.28 a 1.05,1.05 0 0 0 -1.46,0.32 1.05,1.05 0 0 0 0.32,1.44 l 0.44,0.27 a 0.75,0.75 0 0 1 -0.95,0.13 l -6.11,-3.9 a 0.75,0.75 0 0 1 -0.3,-0.88 l 0.6,0.39 a 1.05,1.05 0 0 0 1.12,-1.77 l -0.63,-0.4 a 0.75,0.75 0 0 1 0.4,-0.23 0.75,0.75 0 0 1 0.14,-0.02 z"
     id="path82"
     inkscape:connector-curvature="0"
     style="fill:#1a1a1a;stroke-width:1.07000005" />
</svg>
