<svg xmlns="http://www.w3.org/2000/svg" xmlns:xlink="http://www.w3.org/1999/xlink" width="64" height="64" version="1"><defs><linearGradient id="e"><stop offset="0" stop-color="#0b2228"/><stop offset="1" stop-color="#0b2228" stop-opacity="0"/></linearGradient><linearGradient id="d"><stop offset="0" stop-color="#0b2228"/><stop offset="1" stop-color="#0b2228" stop-opacity="0"/></linearGradient><linearGradient id="b"><stop offset="0" stop-color="#216778"/><stop offset=".27" stop-color="#164450"/><stop offset=".29" stop-color="#216778"/><stop offset=".49" stop-color="#2c89a0"/><stop offset=".71" stop-color="#216778"/><stop offset=".73" stop-color="#164450"/><stop offset="1" stop-color="#216778"/></linearGradient><linearGradient id="a"><stop offset="0" stop-color="#216778"/><stop offset=".18" stop-color="#164450"/><stop offset=".19" stop-color="#216778"/><stop offset=".49" stop-color="#2c89a0"/><stop offset=".8" stop-color="#216778"/><stop offset=".81" stop-color="#164450"/><stop offset="1" stop-color="#216778"/></linearGradient><linearGradient id="f"><stop offset="0" stop-color="#0b2228"/><stop offset="1" stop-color="#0b2228" stop-opacity="0"/></linearGradient><linearGradient id="c"><stop offset="0" stop-color="#216778"/><stop offset=".12" stop-color="#164450"/><stop offset=".15" stop-color="#2c89a0"/><stop offset=".49" stop-color="#37abc8"/><stop offset=".85" stop-color="#2c89a0"/><stop offset=".88" stop-color="#164450"/><stop offset="1" stop-color="#216778"/></linearGradient><linearGradient xlink:href="#a" id="h" x1="5.27" y1="51.93" x2="59.12" y2="51.93" gradientUnits="userSpaceOnUse"/><linearGradient xlink:href="#b" id="g" x1="-.04" y1="59.46" x2="64.18" y2="59.46" gradientUnits="userSpaceOnUse"/><linearGradient xlink:href="#c" id="i" x1="7.65" y1="24.52" x2="56.44" y2="24.52" gradientUnits="userSpaceOnUse"/><linearGradient xlink:href="#d" id="l" x1="13.48" y1="63.47" x2="13.48" y2="26.47" gradientUnits="userSpaceOnUse"/><linearGradient xlink:href="#e" id="j" x1="5.27" y1="55.14" x2="5.27" y2="48.73" gradientUnits="userSpaceOnUse"/><linearGradient xlink:href="#f" id="k" x1="-.04" y1="63.9" x2="-.04" y2="55.02" gradientUnits="userSpaceOnUse"/></defs><path d="M-.04 55.02h64.22v8.88H-.04z" fill="url(#g)"/><path d="M5.27 48.73h53.86v6.42H5.27z" fill="url(#h)"/><path d="M31.46.28C23.83.35 15.93 3.9 7.66 11.94v36.83h48.76V20.21h.02v-8.27C48.4 4.58 40.11.19 31.46.28z" fill="url(#i)"/><path d="M5.27 48.73h53.86v6.42H5.27z" fill="url(#j)"/><path d="M-.04 55.02h64.22v8.88H-.04z" fill="url(#k)"/><path d="M32.63.42v.27c.02.27-.05.46-.2.59-.29.25-.4.66-.54 1.85a6.77 6.77 0 0 0 .23 3.09c.2.4.98 1 1.16.88.06-.03.23-.03.38.01.27.07.27.08.27 1.25 0 1.14-.15 2.02-.35 2.02-.04 0-.08-.07-.08-.16 0-.1-.09-.2-.19-.23-.3-.12-.33-.23-.27-1.49l.05-1.2-.39-.23-.39-.23v.56c0 .31-.04.66-.07.78-.03.12-.06.43-.04.7v1.04c0 .31.04.57.07.57.03 0 .15-.1.27-.25.18-.21.18-.19-.01.17-.16.27-.26.72-.33 1.43-.06.57-.12 1.06-.15 1.1a8.7 8.7 0 0 0 .27 2.13c.08.17.25.48.4.68.2.29.3.33.54.28.16-.05.38-.15.48-.24.22-.2.2-.2.42.35.12.32.16.73.12 1.51-.03.97-.08 1.24-.34 1.77-.14.28-.3.23-.37-.1-.05-.26-.13-.32-.33-.32-.49 0-.71.82-.9 3.19v.6c-.73.3-1.46.82-1.84 1.43-.5.78-.62 1.57-.58 3.84.02 1.15.01 2.34 0 2.65a2.1 2.1 0 0 1-.17.82l-.74.01c-.07.02-.11 2.1-.09 4.94l.06 5.04c.02.26 8.38.48 8.62.21.06-.05.09-.22.08-.38-.06-1.13-.1-7.1-.05-8.77.01-.47-.02-.9-.08-.95-.05-.05-.4-.07-.82-.08a2.8 2.8 0 0 1-.1-.65c-.02-.3-.03-1.5 0-2.65.03-2.26-.1-3.06-.59-3.84-.35-.56-1-1.05-1.68-1.36-.03-.18-.04-.49-.02-1.08 0-.8-.02-1.36-.08-1.36s-.23.06-.38.15c-.24.12-.28.22-.29.82 0 .5-.02.8-.05.98h-.42c-.02-.12 0-.21.1-.29.17-.12.25-.32.1-.23-.08.06-.1-.23-.04-1.48.01-.31.01-.31.14-.09.11.2.16.22.35.12.33-.2.92-.86 1.08-1.24.24-.53.22-3.4 0-4-.11-.24-.23-.44-.28-.44-.04 0-.11-.09-.16-.2-.05-.15-.04-.16.07-.05.07.07.18.14.22.14.1 0 .12-2.94.02-3.44-.08-.42-.14-.42-.43 0-.21.3-.23.47-.21 1.66l.01 1.33-.38.06c-.72.12-.72.12-.8-.6-.07-.55-.06-.66.11-.79.15-.1.18-.17.08-.29-.13-.15-.1-.96.03-1.17.03-.07.16-.09.3-.06.23.06.81-.48 1.1-1.04.17-.32.27-3.53.12-4.11-.08-.33-.08-.33.07-.07l.15.26.13-.4c.09-.26.15-1.1.16-2.2v-1.8l-.3-.48c-.24-.35-.33-.43-.41-.3-.07.09-.08-.1-.04-.58l.02-.15c-.6-.07-1.2-.19-1.8-.21zm1.66 1.13c.02 0 .05.29.05.62 0 .34 0 1.3.03 2.1.04 1.3.02 1.45-.12 1.32-.42-.36-1-.27-1.17.2-.09.2-.11.18-.23-.25-.15-.56.01-3.18.22-3.38.08-.09.1-.08.05.05-.09.23-.01.27.52.36.24.04.4.02.4-.06 0-.05-.06-.07-.13-.03-.09.06-.1-.03-.06-.33.08-.49.16-.6.3-.38.08.14.1.13.1-.03 0-.1.02-.19.04-.19zM32.3 15.5c-.05-.03-.14.06-.2.2-.1.27-.23 1.77-.22 2.5.01.9.24 1.88.43 1.88.15 0 .22-.47.28-1.99.04-.83.08-1.57.1-1.64.05-.17-.24-.85-.39-.95zm.17 8.6c.1.48.25.83.4.83.06 0 .09-.1.09-.25 0-.03.08 0 .09-.03l-.06-.04c-.02-.1.02-.18.42-.35.24-.1.35 0 .48-.02v-.03h.05c.53.25.76.51 1.14 1.33.3.63.3.7.26 4.02-.01 1.13-.03 1.7-.07 2a86.7 86.7 0 0 1-3.63-.06h-.32c-.08-.17-.1-.68-.12-2.13-.04-3.33-.03-3.4.27-4.03.34-.74.57-1.02 1-1.25z" fill="#1d2a2e"/><path d="M31.44.28C23.8.35 15.9 3.9 7.64 11.94v36.83h48.75V20.21h.03v-8.27C48.37 4.58 40.09.19 31.44.28z" fill="url(#l)"/></svg>