<?xml version="1.0" encoding="UTF-8" standalone="no"?>
<svg
   xmlns:dc="http://purl.org/dc/elements/1.1/"
   xmlns:cc="http://creativecommons.org/ns#"
   xmlns:rdf="http://www.w3.org/1999/02/22-rdf-syntax-ns#"
   xmlns:svg="http://www.w3.org/2000/svg"
   xmlns="http://www.w3.org/2000/svg"
   xmlns:xlink="http://www.w3.org/1999/xlink"
   xmlns:sodipodi="http://sodipodi.sourceforge.net/DTD/sodipodi-0.dtd"
   xmlns:inkscape="http://www.inkscape.org/namespaces/inkscape"
   width="64"
   height="64"
   version="1"
   id="svg84"
   sodipodi:docname="folder-cloud.svg"
   inkscape:version="0.92.4 (5da689c313, 2019-01-14)">
  <metadata
     id="metadata88">
    <rdf:RDF>
      <cc:Work
         rdf:about="">
        <dc:format>image/svg+xml</dc:format>
        <dc:type
           rdf:resource="http://purl.org/dc/dcmitype/StillImage" />
        <dc:title></dc:title>
      </cc:Work>
    </rdf:RDF>
  </metadata>
  <sodipodi:namedview
     pagecolor="#ffffff"
     bordercolor="#666666"
     borderopacity="1"
     objecttolerance="10"
     gridtolerance="10"
     guidetolerance="10"
     inkscape:pageopacity="0"
     inkscape:pageshadow="2"
     inkscape:window-width="1112"
     inkscape:window-height="480"
     id="namedview86"
     showgrid="false"
     inkscape:zoom="3.6875"
     inkscape:cx="2.8474576"
     inkscape:cy="32"
     inkscape:window-x="0"
     inkscape:window-y="25"
     inkscape:window-maximized="0"
     inkscape:current-layer="svg84" />
  <defs
     id="defs68">
    <linearGradient
       id="e">
      <stop
         offset="0"
         stop-color="#0b2228"
         id="stop2" />
      <stop
         offset="1"
         stop-color="#0b2228"
         stop-opacity="0"
         id="stop4" />
    </linearGradient>
    <linearGradient
       id="d">
      <stop
         offset="0"
         stop-color="#0b2228"
         id="stop7" />
      <stop
         offset="1"
         stop-color="#0b2228"
         stop-opacity="0"
         id="stop9" />
    </linearGradient>
    <linearGradient
       id="b">
      <stop
         offset="0"
         stop-color="#216778"
         id="stop12" />
      <stop
         offset=".27"
         stop-color="#164450"
         id="stop14" />
      <stop
         offset=".29"
         stop-color="#216778"
         id="stop16" />
      <stop
         offset=".49"
         stop-color="#2c89a0"
         id="stop18" />
      <stop
         offset=".71"
         stop-color="#216778"
         id="stop20" />
      <stop
         offset=".73"
         stop-color="#164450"
         id="stop22" />
      <stop
         offset="1"
         stop-color="#216778"
         id="stop24" />
    </linearGradient>
    <linearGradient
       id="a">
      <stop
         offset="0"
         stop-color="#216778"
         id="stop27" />
      <stop
         offset=".18"
         stop-color="#164450"
         id="stop29" />
      <stop
         offset=".19"
         stop-color="#216778"
         id="stop31" />
      <stop
         offset=".49"
         stop-color="#2c89a0"
         id="stop33" />
      <stop
         offset=".8"
         stop-color="#216778"
         id="stop35" />
      <stop
         offset=".81"
         stop-color="#164450"
         id="stop37" />
      <stop
         offset="1"
         stop-color="#216778"
         id="stop39" />
    </linearGradient>
    <linearGradient
       id="f">
      <stop
         offset="0"
         stop-color="#0b2228"
         id="stop42" />
      <stop
         offset="1"
         stop-color="#0b2228"
         stop-opacity="0"
         id="stop44" />
    </linearGradient>
    <linearGradient
       id="c">
      <stop
         offset="0"
         stop-color="#216778"
         id="stop47" />
      <stop
         offset=".12"
         stop-color="#164450"
         id="stop49" />
      <stop
         offset=".15"
         stop-color="#2c89a0"
         id="stop51" />
      <stop
         offset=".49"
         stop-color="#37abc8"
         id="stop53" />
      <stop
         offset=".85"
         stop-color="#2c89a0"
         id="stop55" />
      <stop
         offset=".88"
         stop-color="#164450"
         id="stop57" />
      <stop
         offset="1"
         stop-color="#216778"
         id="stop59" />
    </linearGradient>
    <linearGradient
       xlink:href="#a"
       id="h"
       x1="5.27"
       y1="51.93"
       x2="59.12"
       y2="51.93"
       gradientUnits="userSpaceOnUse" />
    <linearGradient
       xlink:href="#b"
       id="g"
       x1="-.04"
       y1="59.46"
       x2="64.18"
       y2="59.46"
       gradientUnits="userSpaceOnUse" />
    <linearGradient
       xlink:href="#c"
       id="i"
       x1="7.65"
       y1="24.52"
       x2="56.44"
       y2="24.52"
       gradientUnits="userSpaceOnUse" />
    <linearGradient
       xlink:href="#d"
       id="j"
       x1="13.48"
       y1="63.47"
       x2="13.48"
       y2="26.47"
       gradientUnits="userSpaceOnUse" />
    <linearGradient
       xlink:href="#e"
       id="k"
       x1="5.27"
       y1="55.14"
       x2="5.27"
       y2="48.73"
       gradientUnits="userSpaceOnUse" />
    <linearGradient
       xlink:href="#f"
       id="l"
       x1="-.04"
       y1="63.9"
       x2="-.04"
       y2="55.02"
       gradientUnits="userSpaceOnUse" />
  </defs>
  <path
     d="M -0.04,55.02 H 64.18 V 63.9 H -0.04 Z"
     id="path70"
     style="fill:url(#g)"
     inkscape:connector-curvature="0" />
  <path
     d="m 5.27,48.73 h 53.86 v 6.42 H 5.27 Z"
     id="path72"
     style="fill:url(#h)"
     inkscape:connector-curvature="0" />
  <path
     d="M 31.46,0.28 C 23.83,0.35 15.93,3.9 7.66,11.94 V 48.77 H 56.42 V 20.21 h 0.02 V 11.94 C 48.4,4.58 40.11,0.19 31.46,0.28 Z"
     id="path74"
     style="fill:url(#i)"
     inkscape:connector-curvature="0" />
  <path
     d="M 31.44,0.28 C 23.8,0.35 15.9,3.9 7.64,11.94 V 48.77 H 56.39 V 20.21 h 0.03 V 11.94 C 48.37,4.58 40.09,0.19 31.44,0.28 Z"
     id="path76"
     style="fill:url(#j)"
     inkscape:connector-curvature="0" />
  <path
     d="m 5.27,48.73 h 53.86 v 6.42 H 5.27 Z"
     id="path78"
     style="fill:url(#k)"
     inkscape:connector-curvature="0" />
  <path
     d="M -0.04,55.02 H 64.18 V 63.9 H -0.04 Z"
     id="path80"
     style="fill:url(#l)"
     inkscape:connector-curvature="0" />
  <path
     d="m 32.11,8 c -1,0.2 -1.36,0.33 -1.85,0.64 a 2.6,2.6 0 0 0 -1.1,1.41 l -0.12,0.41 -0.35,-0.25 c -1.38,-1.01 -3.13,-1.08 -5,-0.19 a 3.83,3.83 0 0 0 -1.94,2.02 c -0.06,0.16 -0.13,0.3 -0.17,0.31 -0.04,0.02 -0.5,0.07 -1.03,0.14 -1.26,0.15 -1.46,0.21 -1.9,0.66 a 2.96,2.96 0 0 0 -0.78,2.95 l 0.14,0.4 -0.2,0.4 c -0.41,0.78 -0.56,2.1 -0.34,2.93 a 3.28,3.28 0 0 0 2.69,2.29 c 0.59,0.09 0.75,0.06 2.14,-0.37 0.76,-0.24 1.43,-0.3 1.57,-0.13 0.04,0.04 0.1,0.18 0.13,0.3 0.08,0.32 0.53,0.75 0.9,0.85 0.52,0.14 1.68,0.06 2.42,-0.16 1.1,-0.33 2.78,-0.44 2.78,-0.18 0,0.05 -0.35,1.06 -0.78,2.24 -1.06,2.95 -1.12,3.14 -1.06,3.18 a 5,5 0 0 0 0.76,-0.08 c 1.24,-0.19 1.25,-0.32 -0.17,2.1 A 78.36,78.36 0 0 0 27.6,32 c 0,0.04 0.41,0.06 0.92,0.06 0.5,0 0.91,0.01 0.91,0.04 l -0.43,0.82 -0.74,1.37 -0.55,1.02 a 3.1,3.1 0 0 0 -0.28,0.66 c -0.07,0.27 -0.1,0.3 0.8,-0.76 a 98.87,98.87 0 0 0 3.9,-4.69 c 0,-0.1 -0.07,-0.1 -0.98,0.08 -0.44,0.08 -0.8,0.13 -0.83,0.1 -0.01,0 0.3,-0.43 0.69,-0.92 0.4,-0.48 0.92,-1.14 1.16,-1.44 l 0.93,-1.15 c 0.62,-0.76 1.23,-1.56 1.23,-1.63 0,-0.03 -0.52,0.02 -1.15,0.1 -0.63,0.1 -1.23,0.17 -1.32,0.17 -0.15,0.01 -0.08,-0.11 0.54,-1.03 l 1.4,-2.07 c 0.4,-0.56 0.82,-1.19 0.96,-1.39 l 0.27,-0.39 c 0.02,-0.01 0.23,0.12 0.49,0.3 0.57,0.4 0.78,0.52 1.37,0.7 0.92,0.3 2.08,0.33 3.11,0.09 0.62,-0.15 1.5,-0.62 2.09,-1.11 0.8,-0.68 0.96,-0.74 2.04,-0.8 1.01,-0.05 1.31,-0.15 1.74,-0.58 0.26,-0.27 0.57,-0.88 0.67,-1.32 0.12,-0.5 0.1,-1.6 -0.03,-2.03 a 2.65,2.65 0 0 0 -1.26,-1.38 c -0.37,-0.19 -0.5,-0.2 -1.12,-0.2 -0.38,0 -0.95,0.02 -1.25,0.06 l -0.56,0.06 -0.26,-0.52 c -0.58,-1.14 -1.24,-1.38 -3.4,-1.18 -0.43,0.04 -0.79,0.05 -0.8,0.04 A 3.7,3.7 0 0 1 37.76,12.4 C 37.66,11.47 37.36,10.2 37.12,9.7 36.6,8.6 35.32,7.94 33.6,7.88 c -0.64,-0.03 -1,0 -1.5,0.11 z"
     id="path82"
     inkscape:connector-curvature="0"
     style="fill:#1d2a2e" />
</svg>
