<?xml version="1.0" encoding="UTF-8" standalone="no"?>
<!--Created with Inkscape (http://www.inkscape.org/)-->

<svg
   xmlns:dc="http://purl.org/dc/elements/1.1/"
   xmlns:cc="http://creativecommons.org/ns#"
   xmlns:rdf="http://www.w3.org/1999/02/22-rdf-syntax-ns#"
   xmlns:svg="http://www.w3.org/2000/svg"
   xmlns="http://www.w3.org/2000/svg"
   xmlns:xlink="http://www.w3.org/1999/xlink"
   xmlns:sodipodi="http://sodipodi.sourceforge.net/DTD/sodipodi-0.dtd"
   xmlns:inkscape="http://www.inkscape.org/namespaces/inkscape"
   width="64"
   height="64"
   version="1"
   id="svg94"
   sodipodi:docname="folder-download.svg"
   inkscape:version="0.92.4 (5da689c313, 2019-01-14)">
  <sodipodi:namedview
     pagecolor="#ffffff"
     bordercolor="#666666"
     borderopacity="1"
     objecttolerance="10"
     gridtolerance="10"
     guidetolerance="10"
     inkscape:pageopacity="0"
     inkscape:pageshadow="2"
     inkscape:window-width="1112"
     inkscape:window-height="480"
     id="namedview96"
     showgrid="false"
     inkscape:zoom="3.6875"
     inkscape:cx="2.8474576"
     inkscape:cy="32"
     inkscape:window-x="0"
     inkscape:window-y="25"
     inkscape:window-maximized="0"
     inkscape:current-layer="svg94" />
  <metadata
     id="metadata2">
    <rdf:RDF>
      <cc:Work>
        <dc:format>image/svg+xml</dc:format>
        <dc:type
           rdf:resource="http://purl.org/dc/dcmitype/StillImage" />
        <dc:title></dc:title>
      </cc:Work>
    </rdf:RDF>
  </metadata>
  <defs
     id="defs70">
    <linearGradient
       id="e">
      <stop
         offset="0"
         stop-color="#0b2228"
         id="stop4" />
      <stop
         offset="1"
         stop-color="#0b2228"
         stop-opacity="0"
         id="stop6" />
    </linearGradient>
    <linearGradient
       id="d">
      <stop
         offset="0"
         stop-color="#0b2228"
         id="stop9" />
      <stop
         offset="1"
         stop-color="#0b2228"
         stop-opacity="0"
         id="stop11" />
    </linearGradient>
    <linearGradient
       id="b">
      <stop
         offset="0"
         stop-color="#216778"
         id="stop14" />
      <stop
         offset=".27"
         stop-color="#164450"
         id="stop16" />
      <stop
         offset=".29"
         stop-color="#216778"
         id="stop18" />
      <stop
         offset=".49"
         stop-color="#2c89a0"
         id="stop20" />
      <stop
         offset=".71"
         stop-color="#216778"
         id="stop22" />
      <stop
         offset=".73"
         stop-color="#164450"
         id="stop24" />
      <stop
         offset="1"
         stop-color="#216778"
         id="stop26" />
    </linearGradient>
    <linearGradient
       id="a">
      <stop
         offset="0"
         stop-color="#216778"
         id="stop29" />
      <stop
         offset=".18"
         stop-color="#164450"
         id="stop31" />
      <stop
         offset=".19"
         stop-color="#216778"
         id="stop33" />
      <stop
         offset=".49"
         stop-color="#2c89a0"
         id="stop35" />
      <stop
         offset=".8"
         stop-color="#216778"
         id="stop37" />
      <stop
         offset=".81"
         stop-color="#164450"
         id="stop39" />
      <stop
         offset="1"
         stop-color="#216778"
         id="stop41" />
    </linearGradient>
    <linearGradient
       id="f">
      <stop
         offset="0"
         stop-color="#0b2228"
         id="stop44" />
      <stop
         offset="1"
         stop-color="#0b2228"
         stop-opacity="0"
         id="stop46" />
    </linearGradient>
    <linearGradient
       id="c">
      <stop
         offset="0"
         stop-color="#216778"
         id="stop49" />
      <stop
         offset=".12"
         stop-color="#164450"
         id="stop51" />
      <stop
         offset=".15"
         stop-color="#2c89a0"
         id="stop53" />
      <stop
         offset=".49"
         stop-color="#37abc8"
         id="stop55" />
      <stop
         offset=".85"
         stop-color="#2c89a0"
         id="stop57" />
      <stop
         offset=".88"
         stop-color="#164450"
         id="stop59" />
      <stop
         offset="1"
         stop-color="#216778"
         id="stop61" />
    </linearGradient>
    <linearGradient
       xlink:href="#a"
       id="h"
       x1="5.27"
       y1="51.93"
       x2="59.12"
       y2="51.93"
       gradientUnits="userSpaceOnUse" />
    <linearGradient
       xlink:href="#b"
       id="g"
       x1="-.04"
       y1="59.46"
       x2="64.18"
       y2="59.46"
       gradientUnits="userSpaceOnUse" />
    <linearGradient
       xlink:href="#c"
       id="i"
       x1="7.65"
       y1="24.52"
       x2="56.44"
       y2="24.52"
       gradientUnits="userSpaceOnUse" />
    <linearGradient
       xlink:href="#d"
       id="j"
       x1="13.48"
       y1="63.47"
       x2="13.48"
       y2="26.47"
       gradientUnits="userSpaceOnUse" />
    <linearGradient
       xlink:href="#e"
       id="k"
       x1="5.27"
       y1="55.14"
       x2="5.27"
       y2="48.73"
       gradientUnits="userSpaceOnUse" />
    <linearGradient
       xlink:href="#f"
       id="l"
       x1="-.04"
       y1="63.9"
       x2="-.04"
       y2="55.02"
       gradientUnits="userSpaceOnUse" />
  </defs>
  <path
     d="M -0.04,55.02 H 64.18 V 63.9 H -0.04 Z"
     id="path72"
     style="fill:url(#g)"
     inkscape:connector-curvature="0" />
  <path
     d="m 5.27,48.73 h 53.86 v 6.42 H 5.27 Z"
     id="path74"
     style="fill:url(#h)"
     inkscape:connector-curvature="0" />
  <path
     d="M 31.46,0.28 C 23.83,0.35 15.93,3.9 7.66,11.94 V 48.77 H 56.42 V 20.21 h 0.02 V 11.94 C 48.4,4.58 40.11,0.19 31.46,0.28 Z"
     id="path76"
     style="fill:url(#i)"
     inkscape:connector-curvature="0" />
  <path
     d="M 31.44,0.28 C 23.8,0.35 15.9,3.9 7.64,11.94 V 48.77 H 56.39 V 20.21 h 0.03 V 11.94 C 48.37,4.58 40.09,0.19 31.44,0.28 Z"
     id="path78"
     style="fill:url(#j)"
     inkscape:connector-curvature="0" />
  <path
     d="m 5.27,48.73 h 53.86 v 6.42 H 5.27 Z"
     id="path80"
     style="fill:url(#k)"
     inkscape:connector-curvature="0" />
  <path
     d="M -0.04,55.02 H 64.18 V 63.9 H -0.04 Z"
     id="path82"
     style="fill:url(#l)"
     inkscape:connector-curvature="0" />
  <g
     id="g90"
     style="fill:#1a1a1a">
    <path
       d="m 37.39,21.65 c -0.56,0.43 -0.6,0.48 -0.54,1.12 0.04,0.44 0.02,0.68 -0.06,0.79 -0.1,0.13 -0.1,0.13 0.05,0.02 0.14,-0.1 0.16,-0.23 0.11,-0.79 l -0.07,-0.64 0.42,-0.33 c 0.06,-0.05 0.04,-0.13 0.09,-0.17 z m 0.26,-0.53 c -0.07,0.16 -0.11,0.4 -0.26,0.53 l 0.08,-0.08 c 0.09,-0.07 0.13,-0.3 0.18,-0.45 z m -6.1,18.65 c 0.03,0.07 -0.04,0.18 0.03,0.24 0.13,0.1 0.14,0.1 0.05,-0.01 -0.04,-0.05 -0.05,-0.15 -0.08,-0.23 z m -0.02,-0.2 -0.03,0.03 c 0,0.06 0.04,0.1 0.05,0.17 a 0.43,0.43 0 0 1 -0.02,-0.2 z m 1.09,-1.44 c -0.06,0.1 -0.1,0.19 -0.22,0.28 -0.6,0.44 -0.83,0.83 -0.87,1.16 0.01,-0.24 0.2,-0.46 1.07,-1.19 0.08,-0.06 -0.02,-0.17 0.02,-0.25 z m 2.2,-6.83 c -0.03,0.12 -0.16,0.15 -0.17,0.3 -0.03,0.51 -0.2,0.94 -0.57,1.48 -0.22,0.3 -0.94,1.76 -0.9,1.81 0.02,0.01 0.06,0.22 0.1,0.45 0.06,0.4 0.05,0.43 -0.43,0.9 -0.54,0.55 -0.6,0.84 -0.29,1.25 0.07,0.08 0.05,0.14 0.08,0.21 -0.03,-0.1 0.1,-0.16 0.02,-0.3 -0.28,-0.45 -0.24,-0.57 0.27,-1.05 0.45,-0.43 0.45,-0.43 0.43,-1.01 -0.02,-0.47 0.02,-0.68 0.24,-1.11 0.21,-0.43 0.28,-0.48 0.34,-0.35 0.05,0.12 0.06,0.07 0.03,-0.13 -0.02,-0.18 0,-0.34 0.04,-0.37 0.05,-0.03 0.24,-0.32 0.43,-0.63 a 2,2 0 0 0 0.36,-1.17 z m 0.34,-0.58 -0.33,0.25 -0.01,0.34 c 0.05,-0.23 0.18,-0.43 0.34,-0.59 z m 4.8,5.06 c -0.2,0.37 -0.44,0.66 -0.44,1.34 0,0.5 -0.09,1.27 -0.18,1.74 -0.1,0.53 -0.15,0.89 -0.09,0.98 0.14,0.26 0,0.68 -0.35,1.09 -0.17,0.2 -0.35,0.46 -0.38,0.56 -0.08,0.23 0.15,1.09 0.53,1.86 0.33,0.7 0.34,0.77 0.08,1.57 -0.12,0.37 -0.17,0.73 -0.13,0.93 0.06,0.3 -0.12,0.7 -0.62,1.37 -0.17,0.24 -0.21,0.4 -0.18,0.72 l 0.04,0.42 v -0.4 c 0.03,-0.3 0.13,-0.57 0.46,-1.04 0.39,-0.56 0.43,-0.7 0.43,-1.16 0,-0.3 0.1,-0.76 0.2,-1.06 l 0.21,-0.54 -0.4,-0.9 a 7.3,7.3 0 0 1 -0.45,-1.37 c -0.06,-0.41 -0.04,-0.48 0.22,-0.76 0.44,-0.46 0.53,-0.68 0.52,-1.3 -0.01,-0.3 0.05,-0.87 0.13,-1.23 0.09,-0.38 0.15,-1.09 0.15,-1.59 0,-0.75 0.02,-0.89 0.15,-0.84 0.12,0.04 0.13,0.02 0.02,-0.14 -0.06,-0.1 0.04,-0.18 0.08,-0.25 z m 0.05,-0.18 v 0.01 c -0.09,0.08 -0.03,0.12 -0.06,0.17 0.03,-0.05 0.03,-0.13 0.06,-0.17 z m 2.84,-12.69 c 0.24,0.09 0.32,0.27 0.54,0.27 0.14,0 0.38,0.1 0.53,0.2 0.21,0.18 0.25,0.27 0.22,0.58 -0.02,0.2 0,0.34 0.04,0.32 0.05,-0.03 0.08,0.02 0.08,0.1 0,0.28 0.45,0.51 1.15,0.58 0.9,0.08 1.55,0.3 1.84,0.63 0.26,0.29 0.6,0.49 0.8,0.49 0.06,-0.01 -0.01,-0.07 -0.18,-0.13 a 1.5,1.5 0 0 1 -0.5,-0.4 2.35,2.35 0 0 0 -1.03,-0.58 C 44.78,24.79 44.47,24.69 44.4,24.36 44.18,23.29 44.05,23.14 43.2,23.04 43.06,23.03 42.98,22.95 42.85,22.91 Z"
       id="path84"
       inkscape:connector-curvature="0" />
    <path
       d="M 42.3,2.65 C 42.11,2.57 41.92,2.52 41.72,2.44 c 0.12,0.23 0.22,0.46 0.22,0.5 0,0.04 0.13,0.28 0.3,0.53 0.18,0.3 0.27,0.54 0.24,0.65 -0.04,0.1 0.02,0.28 0.14,0.44 0.1,0.13 0.16,0.3 0.13,0.4 -0.03,0.08 0.03,0.3 0.14,0.5 l 0.2,0.34 -0.28,0.33 c -0.16,0.18 -0.32,0.46 -0.35,0.6 -0.1,0.38 -0.3,0.78 -0.58,1.07 -0.12,0.14 -0.29,0.43 -0.37,0.64 l -0.27,0.77 c -0.12,0.36 -0.16,0.4 -0.5,0.4 -0.28,0 -0.42,0.05 -0.6,0.26 a 0.95,0.95 0 0 0 -0.23,0.5 c 0,0.22 -0.3,0.72 -0.74,1.24 -0.12,0.16 -0.23,0.4 -0.23,0.54 a 0.7,0.7 0 0 1 -0.11,0.39 c -0.08,0.09 -0.08,0.1 -0.02,0.08 0.06,-0.04 0.14,0 0.17,0.08 0.13,0.34 0.04,0.83 -0.24,1.4 -0.16,0.33 -0.33,0.78 -0.35,0.97 -0.05,0.31 -0.1,0.38 -0.33,0.43 -0.15,0.03 -0.3,0.1 -0.33,0.15 -0.03,0.05 0.06,0.04 0.2,0 0.4,-0.16 0.4,-0.06 -0.01,0.44 -0.43,0.53 -0.47,0.92 -0.15,1.62 0.1,0.23 0.17,0.45 0.13,0.48 -0.03,0.03 0,0.06 0.06,0.06 0.19,0 0.24,0.82 0.08,1.37 -0.07,0.29 -0.19,0.8 -0.25,1.15 -0.03,0.2 -0.1,0.23 -0.14,0.35 0.1,-0.2 0.28,-0.28 0.33,-0.65 0.04,-0.29 0.13,-0.74 0.19,-1 0.14,-0.54 0,-1.43 -0.25,-1.71 a 1.6,1.6 0 0 1 -0.2,-0.69 c -0.05,-0.44 -0.02,-0.56 0.13,-0.71 0.1,-0.1 0.27,-0.31 0.37,-0.46 0.13,-0.2 0.2,-0.24 0.25,-0.14 0.07,0.1 0.09,0.1 0.09,0 0,-0.07 0.12,-0.12 0.28,-0.12 0.22,0 0.29,-0.05 0.32,-0.27 0.07,-0.35 0,-0.4 -0.08,-0.08 -0.05,0.22 -0.1,0.26 -0.32,0.24 -0.21,-0.03 -0.25,-0.08 -0.24,-0.33 0,-0.17 0.17,-0.65 0.36,-1.08 0.34,-0.75 0.34,-0.77 0.24,-1.4 -0.1,-0.63 -0.1,-0.68 0.1,-0.93 0.43,-0.53 0.8,-1.14 0.88,-1.47 0.13,-0.44 0.32,-0.61 0.61,-0.53 0.22,0.04 0.23,0.07 0.16,0.53 -0.08,0.48 -0.3,1.01 -0.48,1.12 -0.05,0.03 -0.1,0.21 -0.1,0.4 0,0.18 -0.08,0.5 -0.2,0.73 -0.1,0.21 -0.18,0.47 -0.15,0.57 0.03,0.1 -0.04,0.24 -0.14,0.34 a 0.66,0.66 0 0 0 -0.18,0.42 c 0,0.15 -0.1,0.35 -0.24,0.48 -0.14,0.13 -0.24,0.32 -0.24,0.43 0.02,0.2 0.02,0.2 0.06,0 a 0.98,0.98 0 0 1 0.28,-0.44 c 0.13,-0.11 0.23,-0.3 0.23,-0.42 0,-0.2 0.25,-0.62 0.32,-0.53 0.28,0.35 0.64,1.03 0.7,1.3 0.03,0.17 0.14,0.39 0.24,0.49 0.16,0.14 0.2,0.3 0.2,0.8 0,0.6 0,0.63 0.4,0.98 0.38,0.35 0.39,0.37 0.28,0.74 -0.06,0.2 -0.1,0.5 -0.1,0.65 0,0.14 -0.11,0.53 -0.25,0.87 a 5.3,5.3 0 0 0 -0.29,1.1 c -0.03,0.42 -0.1,0.59 -0.33,0.83 l -0.77,0.81 c -0.56,0.6 -0.63,0.77 -0.54,1.37 0.04,0.25 0.07,0.69 0.06,0.98 -0.01,0.29 0.03,0.83 0.08,1.2 0.13,0.78 0.14,0.76 -0.72,1.24 -0.47,0.27 -0.6,0.4 -0.7,0.7 -0.07,0.2 -0.23,0.5 -0.36,0.65 a 0.99,0.99 0 0 0 -0.24,0.51 c 0,0.33 -0.58,0.47 -0.87,0.21 -0.12,-0.1 -0.12,-0.08 -0.01,0.05 0.06,0.1 0.2,0.18 0.29,0.19 0.08,0 -0.04,0.1 -0.28,0.22 -0.25,0.11 -0.6,0.36 -0.78,0.53 -0.18,0.18 -0.5,0.42 -0.7,0.55 -0.13,0.09 -0.1,0.24 -0.18,0.33 l 0.45,-0.35 c 0.42,-0.33 0.8,-0.57 0.86,-0.54 0.05,0.03 0.06,0 0.02,-0.07 -0.05,-0.06 0.08,-0.18 0.36,-0.3 0.48,-0.21 0.74,-0.18 0.53,0.06 -0.1,0.12 -0.08,0.13 0.05,0.08 0.19,-0.07 0.2,-0.3 0.04,-0.35 -0.07,-0.03 -0.04,-0.09 0.1,-0.16 a 0.4,0.4 0 0 0 0.21,-0.33 c 0,-0.13 0.09,-0.32 0.2,-0.44 0.1,-0.1 0.3,-0.43 0.42,-0.72 0.15,-0.36 0.31,-0.55 0.47,-0.6 0.11,-0.04 0.33,-0.16 0.48,-0.25 0.36,-0.26 0.37,-0.23 0.17,0.22 -0.26,0.57 -0.24,0.99 0.05,1.41 l 0.24,0.36 -0.2,0.15 c -0.15,0.1 -0.19,0.2 -0.13,0.3 0.05,0.07 0.12,0.37 0.15,0.66 l 0.06,0.53 0.02,-0.46 c 0,-0.26 -0.04,-0.56 -0.1,-0.67 -0.09,-0.15 -0.08,-0.22 0.02,-0.28 0.23,-0.14 0.32,-0.04 0.47,0.62 0.1,0.38 0.25,0.73 0.37,0.84 0.15,0.14 0.2,0.26 0.14,0.51 -0.04,0.25 0.01,0.39 0.22,0.64 0.24,0.28 0.26,0.34 0.16,0.67 -0.06,0.2 -0.12,0.63 -0.12,0.98 a 2.7,2.7 0 0 1 -0.7,1.86 c -0.13,0.17 -0.07,0.37 -0.16,0.52 0.13,-0.12 0.3,-0.32 0.38,-0.45 0.28,-0.48 0.68,-1.3 0.69,-1.44 0,-0.13 0,-0.13 0.06,0 0.03,0.07 0.18,0.29 0.32,0.46 0.16,0.17 0.28,0.41 0.3,0.53 0,0.5 0.1,0.72 0.4,0.97 0.82,0.7 0.8,0.62 0.59,1.58 -0.05,0.24 -0.01,0.4 0.14,0.63 0.11,0.17 0.2,0.27 0.2,0.22 a 0.77,0.77 0 0 0 -0.14,-0.28 c -0.14,-0.19 -0.2,-0.64 -0.08,-0.75 0.1,-0.1 0.49,0.36 0.6,0.71 0.07,0.2 0.19,0.41 0.27,0.48 0.2,0.16 0.42,0.62 0.42,0.85 0,0.1 0.14,0.32 0.3,0.46 l 0.28,0.27 -0.2,0.5 -0.21,0.5 0.2,0.29 c 0.11,0.15 0.33,0.32 0.47,0.36 0.48,0.11 0.54,0.24 0.27,0.49 -0.13,0.13 -0.24,0.28 -0.23,0.35 0,0.07 0.05,0.03 0.1,-0.09 0.11,-0.23 0.34,-0.35 0.48,-0.26 0.05,0.03 0.09,0.33 0.09,0.68 a 3,3 0 0 0 0.74,1.91 c 0.17,0.2 0.22,0.37 0.2,0.53 -0.1,0.5 -0.3,1.23 -0.48,1.68 -0.1,0.26 -0.16,0.53 -0.13,0.58 0.02,0.07 0.04,0.06 0.04,-0.03 0.01,-0.07 0.12,-0.34 0.26,-0.6 0.13,-0.25 0.24,-0.56 0.24,-0.68 0,-0.14 0.07,-0.43 0.14,-0.65 0.19,-0.53 0.2,-0.52 -0.12,-0.89 A 2.97,2.97 0 0 1 45.89,42.5 c -0.03,-0.6 0,-0.87 0.1,-0.98 0.1,-0.14 0.1,-0.25 -0.1,-0.7 a 1.93,1.93 0 0 0 -0.25,-0.5 c -0.03,0.03 0.06,0.28 0.17,0.55 0.22,0.5 0.22,0.51 0.04,0.64 -0.15,0.11 -0.2,0.11 -0.34,-0.01 -0.08,-0.08 -0.2,-0.15 -0.26,-0.15 -0.2,0 -0.6,-0.4 -0.6,-0.6 a 0.9,0.9 0 0 1 0.19,-0.46 c 0.26,-0.34 0.24,-0.62 -0.05,-0.77 a 0.67,0.67 0 0 1 -0.3,-0.38 9.46,9.46 0 0 0 -0.1,-0.44 c -0.05,-0.12 -0.02,-0.15 0.06,-0.1 0.07,0.04 -0.06,-0.11 -0.27,-0.33 a 1.87,1.87 0 0 1 -0.45,-0.7 1.18,1.18 0 0 0 -0.24,-0.45 C 43.39,37.03 43.29,36.79 43.26,36.6 43.19,36.16 43,35.88 42.5,35.53 c -0.3,-0.2 -0.37,-0.33 -0.37,-0.56 0,-0.38 -0.21,-0.87 -0.47,-1.1 -0.3,-0.27 -0.25,-0.35 0.16,-0.28 0.51,0.08 1,0.3 1.15,0.51 0.08,0.11 0.26,0.26 0.42,0.34 0.17,0.1 0.29,0.24 0.32,0.4 l 0.04,0.28 0.01,-0.26 c 0.01,-0.2 -0.06,-0.31 -0.25,-0.44 -0.15,-0.1 -0.38,-0.29 -0.52,-0.42 -0.22,-0.25 -0.55,-0.37 -1.27,-0.53 -0.27,-0.04 -0.26,-0.05 -0.26,-0.85 0,-0.43 0.05,-0.96 0.13,-1.16 0.14,-0.4 0.09,-0.73 -0.2,-1.17 a 3.1,3.1 0 0 1 -0.18,-0.66 c -0.06,-0.43 -0.08,-0.48 -0.5,-0.68 -0.46,-0.21 -0.46,-0.21 -0.5,-0.74 -0.01,-0.44 0,-0.5 0.1,-0.39 0.07,0.09 0.3,0.28 0.5,0.43 0.19,0.15 0.38,0.37 0.41,0.5 0.03,0.12 0.15,0.25 0.24,0.28 0.1,0.04 0.19,0.1 0.19,0.13 0,0.03 0.08,0.07 0.17,0.08 a 13,13 0 0 1 2.22,0.64 c 0.1,0.07 0.12,0.22 0.08,0.45 -0.04,0.24 -0.03,0.3 0.04,0.2 0.3,-0.49 -0.02,-0.84 -1.03,-1.08 -1.4,-0.32 -1.99,-0.67 -1.75,-1.08 0.13,-0.26 0.05,-0.4 -0.5,-0.76 a 1.96,1.96 0 0 1 -0.49,-0.39 c 0,-0.04 0.09,-0.12 0.2,-0.17 a 0.4,0.4 0 0 0 0.19,-0.34 c 0,-0.13 0.07,-0.4 0.16,-0.6 0.18,-0.34 0.18,-0.34 -0.14,-0.92 -0.3,-0.55 -0.31,-0.58 -0.16,-0.87 0.13,-0.24 0.15,-0.46 0.09,-1.19 -0.05,-0.7 -0.03,-0.96 0.09,-1.24 0.13,-0.33 0.44,-0.49 0.44,-0.23 0,0.08 0.1,0.24 0.24,0.36 0.14,0.13 0.24,0.28 0.24,0.34 0,0.07 0.27,0.1 0.34,0.17 -0.18,-0.18 -0.34,-0.38 -0.34,-0.62 0,-0.14 -0.04,-0.3 -0.1,-0.32 -0.19,-0.12 -0.03,-1.6 0.23,-2.24 0.13,-0.3 0.27,-0.83 0.31,-1.15 l 0.07,-0.58 0.23,0.27 c 0.28,0.33 0.3,0.2 0.04,-0.15 -0.1,-0.14 -0.2,-0.3 -0.2,-0.4 0,-0.08 -0.18,-0.33 -0.4,-0.55 -0.39,-0.38 -0.39,-0.4 -0.34,-0.89 0.06,-0.41 0.03,-0.53 -0.13,-0.7 -0.11,-0.1 -0.28,-0.43 -0.38,-0.7 a 6.2,6.2 0 0 0 -0.49,-1 l -0.3,-0.47 0.2,-0.35 c 0.11,-0.18 0.2,-0.47 0.2,-0.64 0,-0.17 0.1,-0.46 0.25,-0.66 0.15,-0.21 0.27,-0.57 0.32,-0.89 C 41.29,10.2 41.4,9.85 41.48,9.72 41.58,9.58 41.7,9.26 41.75,9 41.82,8.75 42.04,8.32 42.25,8.04 42.46,7.75 42.69,7.33 42.77,7.08 42.84,6.84 43.06,6.46 43.24,6.26 A 2,2 0 0 0 43.58,5.8 C 43.58,5.76 43.49,5.59 43.38,5.42 43.28,5.24 43.2,5 43.2,4.88 A 0.83,0.83 0 0 0 43.05,4.47 0.91,0.91 0 0 1 42.9,4 C 42.9,3.83 42.76,3.47 42.57,3.18 42.45,2.98 42.38,2.82 42.31,2.65 Z m -1.76,19.46 0.08,0.92 c 0.07,0.78 0.06,0.97 -0.07,1.26 -0.17,0.34 -0.17,0.35 0.14,0.88 0.3,0.53 0.3,0.54 0.15,0.94 -0.1,0.23 -0.16,0.5 -0.16,0.6 0,0.24 -0.32,0.45 -0.55,0.37 -0.23,-0.1 0.3,0.35 0.82,0.68 0.38,0.23 0.51,0.47 0.34,0.57 -0.14,0.09 -0.82,-0.43 -0.94,-0.71 -0.06,-0.16 -0.14,-0.26 -0.17,-0.24 -0.03,0.03 -0.1,0 -0.16,-0.07 -0.08,-0.1 -0.07,-0.24 0.04,-0.6 0.09,-0.24 0.13,-0.54 0.1,-0.66 -0.04,-0.12 -0.1,-0.9 -0.15,-1.76 l -0.1,-1.54 0.32,-0.32 z M 45.39,5.65 c 0.04,0.05 -0.02,0.22 0.08,0.25 0.6,0.16 1.33,0.32 2,0.41 0.21,0.04 0.4,0.12 0.42,0.2 0.03,0.07 -0.11,0.43 -0.33,0.8 -0.22,0.36 -0.46,0.84 -0.55,1.06 -0.18,0.44 -0.22,0.48 -0.43,0.28 -0.08,-0.05 -0.06,-0.02 0.04,0.1 0.16,0.2 0.16,0.22 0.01,0.28 -0.08,0.03 -0.12,0.1 -0.1,0.15 0.04,0.04 -0.14,0.27 -0.38,0.5 a 2,2 0 0 0 -0.44,0.52 c 0,0.06 0.15,0.36 0.34,0.67 0.25,0.41 0.33,0.66 0.33,1 0,0.83 0.13,1.06 1.26,2.2 1.08,1.1 1.23,1.34 1.12,1.9 -0.18,0.97 -0.18,1.06 0.05,1.27 l 0.23,0.19 -0.18,-0.21 c -0.18,-0.23 -0.18,-0.49 0.02,-1.3 0.12,-0.51 -0.04,-0.8 -1.16,-1.95 a 9.4,9.4 0 0 1 -1.06,-1.2 2.47,2.47 0 0 1 -0.08,-0.7 c 0,-0.34 -0.09,-0.64 -0.34,-1.12 -0.18,-0.37 -0.34,-0.7 -0.34,-0.73 0,-0.03 0.22,-0.28 0.5,-0.56 0.38,-0.4 0.54,-0.5 0.72,-0.46 0.12,0.01 0.23,0 0.23,-0.04 0,-0.1 -0.13,-0.13 -0.36,-0.1 C 46.91,9.07 46.91,8.99 47.01,8.75 47.14,8.45 47.74,7.28 48,6.81 48.2,6.46 47.96,6.23 47.3,6.13 46.82,6.06 45.54,5.73 45.39,5.65 Z M 45.37,5.57 c 0,0.02 -0.04,0.06 -0.03,0.07 l 0.05,0.01 C 45.37,5.63 45.38,5.59 45.37,5.57 Z"
       id="path86"
       inkscape:connector-curvature="0" />
    <path
       d="M 44.23,3.37 C 44.19,3.36 44.16,3.33 44.13,3.31 l -0.08,-0.02 0.28,0.6 c 0.12,0.33 0.3,0.57 0.52,0.72 L 45.18,4.85 44.8,4.79 c -0.2,-0.04 -0.35,-0.03 -0.31,0 0.03,0.03 0.22,0.09 0.42,0.11 0.3,0.06 0.35,0.1 0.32,0.25 -0.06,0.3 0.08,0.3 0.14,0.42 C 45.36,5.44 45.46,5.12 45.52,5.15 45.56,5.18 45.54,5.1 45.49,4.96 A 1.34,1.34 0 0 0 45.02,4.54 C 44.74,4.38 44.62,4.22 44.47,3.78 44.39,3.57 44.31,3.56 44.23,3.38 Z M 19.81,3.1 19.78,3.12 c -0.66,0.31 -1.33,0.82 -1.99,1.2 -0.04,0.15 -0.1,0.11 -0.14,0.3 -0.33,1.23 -0.6,1.89 -0.77,1.89 -0.3,0 -2.8,2.42 -2.8,2.7 0,0.25 -0.74,0.86 -1.38,1.13 -0.3,0.13 -0.85,0.43 -1.2,0.66 -0.35,0.24 -1.04,0.54 -1.54,0.65 -0.57,0.13 -0.83,0.34 -1.04,0.52 0.19,-0.16 0.23,-0.06 0.12,0.76 -0.05,0.55 -0.1,1.14 -0.1,1.3 0,0.17 -0.48,0.48 -1.3,0.83 v 0.3 c 0.04,-0.02 0.1,-0.1 0.16,-0.1 1.02,-0.2 1.28,-0.51 1.4,-1.67 0.2,-1.49 0.32,-1.69 1.18,-1.83 a 3,3 0 0 0 1.25,-0.54 c 0.77,-0.64 2.11,-1.1 2.31,-0.8 0.11,0.14 0.13,0.12 0.06,-0.1 -0.15,-0.45 0.22,-1.02 1.45,-2.27 1.34,-1.34 1.69,-1.52 1.85,-0.9 0.15,0.59 0.15,1.61 -0.02,2.75 -0.09,0.75 -0.03,1.16 0.35,2.17 0.26,0.68 0.48,1.45 0.48,1.7 0,0.6 0.38,1.33 0.99,1.9 0.42,0.38 0.44,0.49 0.22,0.73 -0.15,0.16 -0.3,0.46 -0.33,0.66 -0.04,0.26 -0.31,0.44 -0.88,0.6 -0.46,0.13 -1.03,0.33 -1.29,0.46 -0.6,0.3 -1.26,1.95 -1.28,3.14 0,0.57 -0.13,1.12 -0.37,1.49 -0.17,0.27 -0.04,0.4 -0.05,0.56 l 0.24,-0.47 c 0.18,-0.37 0.38,-1.08 0.44,-1.6 0.2,-2.16 0.78,-3.06 2.16,-3.3 0.8,-0.11 1.25,-0.46 1.25,-0.96 0,-0.18 0.13,-0.45 0.3,-0.58 0.27,-0.22 0.36,-0.19 0.69,0.3 0.22,0.29 0.7,0.87 1.08,1.3 0.6,0.67 0.64,0.78 0.39,1 -0.17,0.13 -0.66,0.75 -1.1,1.38 -0.81,1.14 -0.83,1.18 -0.77,2.42 0.03,0.72 0.1,1.25 0.16,1.21 0.07,-0.03 0.17,0.6 0.2,1.4 0.06,0.93 0.19,1.58 0.37,1.78 0.15,0.18 0.37,0.62 0.5,0.97 0.1,0.35 0.55,0.99 0.97,1.41 l 0.77,0.8 -0.77,0.65 c -0.45,0.38 -0.71,1.07 -1.09,1.78 0.42,-0.8 1.28,-1.89 1.62,-1.89 0.07,0 0.13,0.52 0.11,1.16 a 6.29,6.29 0 0 1 -0.83,2.73 8.34,8.34 0 0 0 -0.75,1.93 c 0,0.22 0.06,0.16 0.17,-0.15 0.07,-0.27 0.46,-1.05 0.84,-1.74 0.63,-1.1 0.7,-1.41 0.77,-2.8 0.06,-1.1 0.19,-1.73 0.4,-2.05 0.54,-0.77 0.56,-1.24 0.12,-1.8 a 6.76,6.76 0 0 1 -0.72,-1.06 c -0.27,-0.51 -0.28,-0.6 0.02,-1 0.31,-0.48 0.79,-0.89 1,-0.9 0.08,0 0.14,0.42 0.14,0.91 0,0.86 0.03,0.95 0.64,1.3 0.64,0.39 0.64,0.39 0.51,1.45 -0.14,1.47 0,1.9 0.8,2.32 0.74,0.38 0.98,0.86 0.98,1.92 0,0.7 0.11,0.86 1,1.6 0.16,0.13 0.29,0.42 0.29,0.66 0,0.24 0.16,0.9 0.36,1.5 0.22,0.6 0.4,1.3 0.42,1.58 0.04,0.28 0.2,0.66 0.4,0.86 0.23,0.28 0.3,0.52 0.21,0.88 -0.3,1.14 -0.33,1.71 -0.13,1.71 0.11,0 0.37,0.17 0.55,0.35 0.28,0.27 0.35,0.51 0.26,1 -0.06,0.38 0.02,0.82 0.2,1.18 0.17,0.32 0.3,0.98 0.3,1.45 0,0.48 0.07,1 0.16,1.12 0.26,0.42 0,-1.87 -0.3,-2.57 a 2.7,2.7 0 0 1 -0.18,-1.17 c 0.13,-0.68 -0.13,-1.3 -0.58,-1.45 -0.46,-0.15 -0.48,-0.42 -0.1,-1.27 0.3,-0.6 0.3,-0.66 -0.09,-1.26 a 2.9,2.9 0 0 1 -0.38,-1.09 c 0,-0.25 -0.13,-0.71 -0.28,-1.02 -0.16,-0.31 -0.35,-1 -0.4,-1.53 A 2.2,2.2 0 0 0 27.71,34.11 C 27.19,33.59 27.1,33.37 27.1,32.66 27.1,31.96 27,31.7 26.59,31.32 a 5.23,5.23 0 0 0 -0.83,-0.68 c -0.39,-0.22 -0.4,-0.5 -0.22,-2.04 l 0.13,-1.12 -0.66,-0.38 c -0.64,-0.39 -0.66,-0.43 -0.66,-1.55 v -1.13 l 0.6,0.55 0.59,0.53 -0.57,-0.64 C 24.29,24.12 24.24,23.94 23.98,22.18 A 9.63,9.63 0 0 0 23.25,19.7 l -0.55,-1.16 0.56,-0.58 c 0.32,-0.33 0.57,-0.77 0.57,-1.03 -0.05,-2.04 0,-2.79 0.17,-3.12 0.16,-0.31 0.05,-0.51 -0.74,-1.43 -0.88,-1.01 -0.91,-1.1 -0.71,-1.56 0.2,-0.44 0.18,-0.53 -0.2,-0.84 A 1.5,1.5 0 0 0 21.71,9.63 c -0.48,0 -1.58,-1.53 -1.58,-2.19 0,-0.07 0.16,-0.33 0.36,-0.56 0.5,-0.57 0.46,-1 -0.1,-1.45 C 19.94,5.08 19.92,5 20.11,4.51 20.31,4.05 20.27,3.91 19.85,3.28 19.77,3.16 19.86,3.18 19.81,3.1 Z m -1.5,1.72 0.59,0.46 c 0.46,0.35 0.6,0.6 0.64,1.16 0.04,0.4 0.15,0.78 0.24,0.87 0.09,0.11 0.16,0.4 0.16,0.63 0,0.26 0.33,0.84 0.76,1.36 l 0.77,0.9 -0.26,0.77 c -0.15,0.42 -0.4,0.91 -0.57,1.08 -0.42,0.42 -0.42,0.8 0.04,1.38 0.2,0.25 0.36,0.56 0.36,0.67 0,0.2 0.74,0.94 0.92,0.9 0.57,-0.07 1.76,1.27 1.54,1.75 -0.07,0.16 -0.14,0.42 -0.18,0.55 -0.06,0.33 -0.66,0.99 -0.77,0.86 -0.06,-0.05 0.09,-0.3 0.33,-0.55 0.24,-0.26 0.35,-0.46 0.25,-0.46 -0.09,0 -0.27,0.17 -0.4,0.37 -0.13,0.2 -0.3,0.36 -0.42,0.36 -0.27,0 -1,-0.78 -1.34,-1.44 -0.15,-0.28 -0.6,-0.74 -0.99,-1.01 a 3,3 0 0 1 -0.92,-1 17.09,17.09 0 0 1 -1,-4.25 c 0.03,-0.75 0.03,-2.06 0,-3.67 a 3.6,3.6 0 0 1 0.12,-1.16 z m 3.65,5.17 c 0.2,0.11 0.39,0.26 0.46,0.35 0.05,0.1 0,0.39 -0.13,0.64 -0.16,0.4 -0.16,0.52 0.1,0.72 0.64,0.5 1.55,1.9 1.39,2.17 -0.1,0.14 -0.17,0.56 -0.17,0.93 0,0.39 -0.05,0.7 -0.13,0.68 -0.42,-0.02 -2.16,-1.45 -2.5,-2.04 l -0.36,-0.67 0.59,-1.12 c 0.35,-0.63 0.57,-1.29 0.51,-1.49 -0.07,-0.28 -0.03,-0.31 0.24,-0.17 z m 0.1,9.36 c 0.25,-0.4 0.98,1.38 1.3,3.12 0.12,0.8 0.29,1.65 0.36,1.9 0.08,0.36 0,0.52 -0.36,0.76 -0.26,0.17 -0.65,0.59 -0.87,0.94 l -0.38,0.62 0.38,0.63 c 0.22,0.34 0.52,0.71 0.66,0.84 0.35,0.3 0.35,1.1 0.02,1.58 -0.26,0.33 -0.27,0.33 -0.84,-0.2 -0.9,-0.85 -1.69,-2.7 -1.84,-4.32 -0.1,-1.15 -0.09,-1.41 0.17,-1.6 0.26,-0.18 0.26,-0.2 -0.07,-0.18 -0.3,0.04 -0.39,-0.12 -0.52,-0.8 -0.14,-0.8 -0.11,-0.92 0.46,-1.78 0.33,-0.5 0.73,-1 0.88,-1.09 0.24,-0.16 0.28,-0.07 0.24,0.57 l -0.04,0.76 0.13,-0.74 c 0.07,-0.4 0.22,-0.86 0.31,-1 z"
       id="path88"
       inkscape:connector-curvature="0" />
  </g>
  <path
     d="M 35.28,0.73 34.75,0.67 C 34.9,1.74 35.07,2.9 35.03,3.19 34.95,3.61 34.93,3.64 34.64,3.6 34.27,3.57 33.9,3.88 33.58,4.5 a 3.48,3.48 0 0 1 -1.27,1.33 c -0.13,0.04 -0.4,0.18 -0.59,0.33 -0.31,0.23 -0.36,0.33 -0.53,1.05 -0.15,0.63 -0.26,0.9 -0.56,1.3 a 4.2,4.2 0 0 1 -1.48,1.3 c -0.43,0.18 -0.97,0.8 -0.98,1.12 0,0.13 -0.12,0.31 -0.27,0.44 -0.2,0.16 -0.22,0.2 -0.09,0.15 0.18,-0.07 0.18,-0.01 0.06,0.36 -0.14,0.42 -0.18,0.44 -0.75,0.56 -0.34,0.05 -0.68,0.2 -0.76,0.29 a 0.66,0.66 0 0 1 -0.42,0.22 c -0.19,0.01 -0.22,0.04 -0.1,0.08 0.21,0.07 0.59,-0.1 0.66,-0.31 a 0.15,0.15 0 0 1 0.18,-0.1 c 0.08,0.02 0.38,-0.03 0.67,-0.13 0.48,-0.16 0.55,-0.15 0.64,0.04 0.06,0.11 0.1,0.26 0.07,0.33 -0.02,0.07 0.08,0.3 0.22,0.51 l 0.23,0.4 -0.37,0.34 c -0.3,0.3 -0.38,0.44 -0.48,0.93 -0.1,0.46 -0.19,0.64 -0.48,0.94 -0.19,0.2 -0.38,0.41 -0.4,0.49 -0.02,0.07 -0.24,0.2 -0.49,0.3 -0.34,0.13 -0.47,0.26 -0.64,0.6 -0.1,0.24 -0.26,0.51 -0.33,0.62 -0.06,0.1 -0.02,0.06 0.12,-0.08 0.14,-0.15 0.3,-0.4 0.37,-0.58 0.08,-0.25 0.21,-0.37 0.56,-0.49 0.25,-0.09 0.48,-0.24 0.5,-0.32 0.04,-0.08 0.22,-0.3 0.42,-0.51 0.29,-0.3 0.38,-0.47 0.48,-0.95 0.1,-0.49 0.17,-0.63 0.45,-0.88 0.19,-0.15 0.34,-0.27 0.35,-0.24 0,0.03 -0.03,0.31 -0.1,0.64 l -0.17,0.94 a 1.1,1.1 0 0 1 -0.4,0.7 c -0.28,0.29 -0.34,0.42 -0.33,0.7 0,0.26 -0.06,0.44 -0.25,0.7 -0.26,0.33 -0.46,0.82 -1,2.3 -0.12,0.34 -0.32,0.78 -0.44,0.98 -0.14,0.25 -0.22,0.54 -0.23,0.86 -0.02,0.35 -0.1,0.63 -0.28,0.94 -0.14,0.24 -0.23,0.5 -0.22,0.62 0.03,0.12 -0.1,0.26 -0.39,0.47 -0.25,0.16 -0.44,0.3 -0.45,0.31 l -0.28,0.54 c -0.24,0.44 -0.28,0.56 -0.18,0.76 0.07,0.16 0.06,0.35 -0.06,0.57 -0.1,0.18 -0.17,0.59 -0.18,0.92 v 0.28 c 0,-0.08 0.14,-0.12 0.13,-0.22 a 7.1,7.1 0 0 1 0.44,-2.1 c 0.14,-0.47 0.23,-0.6 0.63,-0.86 0.38,-0.25 0.48,-0.37 0.5,-0.65 0.01,-0.19 0.14,-0.48 0.28,-0.66 0.22,-0.28 0.25,-0.4 0.24,-0.88 -0.03,-0.53 0,-0.6 0.3,-1 0.24,-0.32 0.32,-0.54 0.34,-0.81 0.01,-0.28 0.08,-0.45 0.26,-0.62 0.17,-0.16 0.27,-0.4 0.33,-0.7 0.05,-0.3 0.18,-0.6 0.38,-0.85 0.22,-0.3 0.31,-0.51 0.33,-0.8 0,-0.31 0.07,-0.46 0.28,-0.66 0.2,-0.21 0.3,-0.43 0.41,-0.97 0.08,-0.39 0.2,-0.85 0.26,-1.01 0.05,-0.17 0.07,-0.42 0.03,-0.57 a 3.18,3.18 0 0 1 -0.02,-0.88 c 0.03,-0.33 0.02,-0.75 -0.02,-0.91 -0.06,-0.24 -0.04,-0.34 0.13,-0.5 0.14,-0.13 0.26,-0.4 0.32,-0.8 0.12,-0.53 0.18,-0.63 0.58,-0.97 C 30,9.53 30.43,9.1 30.71,8.76 31.16,8.22 31.23,8.08 31.4,7.33 l 0.19,-0.82 0.63,-0.35 c 0.75,-0.43 1.03,-0.7 1.54,-1.5 0.42,-0.67 0.73,-0.91 1.03,-0.81 0.19,0.06 0.19,0.14 -0.13,1.01 a 21,21 0 0 0 -0.53,1.82 c -0.18,0.84 -0.2,0.88 -0.87,1.67 l -0.69,0.8 -0.9,2.77 c -1,3.03 -0.97,2.81 -0.59,4.19 0.11,0.38 0.15,0.82 0.1,0.97 a 7.9,7.9 0 0 1 -1.26,1.45 c -0.64,0.62 -1.21,1.23 -1.26,1.34 -0.2,0.39 -0.13,0.79 0.2,1.21 0.48,0.64 0.48,0.75 -0.06,1.92 -0.46,1.01 -0.48,1.03 -1.48,1.84 -1.26,1.02 -1.34,1.18 -0.98,2.36 0.43,1.47 0.16,2.34 -1.12,3.64 a 29.08,29.08 0 0 0 -2.54,2.74 c -0.13,0.16 -0.44,0.7 -0.67,1.22 a 14.9,14.9 0 0 1 -0.55,1.1 c -0.1,0.12 -0.07,0.68 -0.16,1.03 0.23,-0.76 1.04,-2.49 1.5,-3.13 A 9.73,9.73 0 0 1 25,31.6 c 0.23,-0.12 0.45,-0.33 0.49,-0.46 0.04,-0.12 0.29,-0.46 0.55,-0.74 0.38,-0.42 0.53,-0.68 0.72,-1.25 0.24,-0.76 0.2,-1.32 -0.14,-2.4 -0.18,-0.53 -0.1,-0.85 0.34,-1.12 0.19,-0.12 0.67,-0.5 1.07,-0.84 0.66,-0.59 0.76,-0.72 1.15,-1.61 0.24,-0.54 0.45,-1.11 0.46,-1.27 0.03,-0.16 -0.1,-0.54 -0.32,-0.86 -0.2,-0.33 -0.36,-0.67 -0.37,-0.78 a 9.84,9.84 0 0 1 1.85,-2 c 0.16,-0.15 0.42,-0.46 0.58,-0.7 0.26,-0.4 0.29,-0.5 0.24,-0.95 A 6.05,6.05 0 0 0 31.4,15.65 c -0.23,-0.76 -0.2,-1.25 0.22,-2.3 L 32,12.41 c 0.04,-0.09 0.75,0.98 0.87,1.32 0.09,0.24 0.32,0.57 0.52,0.77 0.4,0.36 0.4,0.33 0.12,1.1 -0.14,0.38 -0.16,0.59 -0.06,0.78 0.2,0.42 0.5,1.81 0.38,1.9 -0.06,0.06 -0.05,0.08 0.03,0.06 0.22,-0.05 0.08,0.26 -0.3,0.64 -0.58,0.57 -0.61,1.01 -0.22,2.18 0.2,0.6 0.2,0.73 0.02,1.3 l -0.2,0.63 0.38,0.61 c 0.48,0.8 0.89,2.2 0.79,2.77 -0.09,0.52 -0.63,1.3 -1.14,1.65 -0.4,0.28 -0.54,0.58 -0.45,0.95 0.05,0.19 0,0.3 -0.24,0.56 -0.24,0.26 -0.3,0.4 -0.3,0.75 a 1.3,1.3 0 0 1 -0.24,0.75 c -0.13,0.18 -0.38,0.68 -0.57,1.13 -0.36,0.87 -0.35,1.03 0.17,1.53 0.1,0.1 0.23,0.34 0.3,0.54 0.1,0.3 0.1,0.38 -0.09,0.58 -0.12,0.13 -0.16,0.22 -0.1,0.2 0.07,-0.02 0.13,0.05 0.13,0.12 0,0.08 0.08,-0.04 0.16,-0.28 0.12,-0.35 0.11,-0.5 -0.08,-0.83 l -0.43,-0.75 -0.2,-0.36 0.51,-1.1 c 0.28,-0.6 0.53,-1.28 0.57,-1.51 0.06,-0.3 0.16,-0.52 0.38,-0.72 0.29,-0.27 0.3,-0.3 0.22,-0.65 -0.12,-0.5 -0.03,-0.7 0.15,-0.37 a 0.7,0.7 0 0 1 0.08,0.47 c -0.03,0.13 -0.03,0.37 0.01,0.54 0.05,0.2 0.07,0.23 0.07,0.08 0,-0.13 0,-0.36 0.02,-0.51 a 0.95,0.95 0 0 0 -0.06,-0.5 c -0.1,-0.22 -0.05,-0.3 0.45,-0.8 0.63,-0.64 0.94,-1.2 0.93,-1.73 -0.01,-0.34 0,-0.35 0.21,-0.25 0.15,0.07 0.2,0.18 0.15,0.33 -0.04,0.12 -0.06,0.26 -0.04,0.3 0.07,0.12 0.19,-0.37 0.14,-0.55 -0.03,-0.08 -0.15,-0.19 -0.3,-0.24 -0.2,-0.06 -0.29,-0.22 -0.38,-0.66 a 4,4 0 0 0 -0.7,-1.6 c -0.3,-0.46 -0.3,-0.5 -0.09,-1.07 0.21,-0.57 0.2,-0.65 -0.08,-1.5 -0.33,-1.04 -0.26,-1.42 0.34,-1.96 0.33,-0.28 0.4,-0.4 0.34,-0.6 l -0.16,-0.85 c -0.07,-0.33 -0.2,-0.83 -0.3,-1.11 -0.17,-0.43 -0.18,-0.58 -0.03,-0.82 0.1,-0.16 0.2,-0.38 0.23,-0.5 0.07,-0.24 -0.13,-0.68 -0.34,-0.75 A 2.95,2.95 0 0 1 33.01,13.5 c -0.25,-0.48 -0.5,-0.83 -0.59,-0.82 -0.09,0 -0.14,-0.03 -0.12,-0.06 0.04,-0.04 0.01,-0.21 -0.03,-0.39 -0.1,-0.4 0.39,-2.3 0.72,-2.82 0.13,-0.21 0.48,-0.64 0.77,-0.96 0.52,-0.6 0.52,-0.6 1.04,-2.37 0.66,-2.24 0.88,-3.79 0.63,-4.44 -0.04,-0.1 -0.09,-0.39 -0.1,-0.6 0,-0.12 -0.03,-0.2 -0.05,-0.31 z"
     id="path92"
     inkscape:connector-curvature="0"
     style="fill:#1a1a1a" />
</svg>
