<svg xmlns="http://www.w3.org/2000/svg" xmlns:xlink="http://www.w3.org/1999/xlink" width="64" height="64" version="1"><defs><linearGradient id="e"><stop offset="0" stop-color="#0b2228"/><stop offset="1" stop-color="#0b2228" stop-opacity="0"/></linearGradient><linearGradient id="d"><stop offset="0" stop-color="#0b2228"/><stop offset="1" stop-color="#0b2228" stop-opacity="0"/></linearGradient><linearGradient id="b"><stop offset="0" stop-color="#216778"/><stop offset=".27" stop-color="#164450"/><stop offset=".29" stop-color="#216778"/><stop offset=".49" stop-color="#2c89a0"/><stop offset=".71" stop-color="#216778"/><stop offset=".73" stop-color="#164450"/><stop offset="1" stop-color="#216778"/></linearGradient><linearGradient id="a"><stop offset="0" stop-color="#216778"/><stop offset=".18" stop-color="#164450"/><stop offset=".19" stop-color="#216778"/><stop offset=".49" stop-color="#2c89a0"/><stop offset=".8" stop-color="#216778"/><stop offset=".81" stop-color="#164450"/><stop offset="1" stop-color="#216778"/></linearGradient><linearGradient id="f"><stop offset="0" stop-color="#0b2228"/><stop offset="1" stop-color="#0b2228" stop-opacity="0"/></linearGradient><linearGradient id="c"><stop offset="0" stop-color="#216778"/><stop offset=".12" stop-color="#164450"/><stop offset=".15" stop-color="#2c89a0"/><stop offset=".49" stop-color="#37abc8"/><stop offset=".85" stop-color="#2c89a0"/><stop offset=".88" stop-color="#164450"/><stop offset="1" stop-color="#216778"/></linearGradient><linearGradient xlink:href="#a" id="h" x1="5.27" y1="51.93" x2="59.12" y2="51.93" gradientUnits="userSpaceOnUse"/><linearGradient xlink:href="#b" id="g" x1="-.04" y1="59.46" x2="64.18" y2="59.46" gradientUnits="userSpaceOnUse"/><linearGradient xlink:href="#c" id="i" x1="7.65" y1="24.52" x2="56.44" y2="24.52" gradientUnits="userSpaceOnUse"/><linearGradient xlink:href="#d" id="j" x1="13.48" y1="63.47" x2="13.48" y2="26.47" gradientUnits="userSpaceOnUse"/><linearGradient xlink:href="#e" id="k" x1="5.27" y1="55.14" x2="5.27" y2="48.73" gradientUnits="userSpaceOnUse"/><linearGradient xlink:href="#f" id="l" x1="-.04" y1="63.9" x2="-.04" y2="55.02" gradientUnits="userSpaceOnUse"/></defs><path d="M-.04 55.02h64.22v8.88H-.04z" fill="url(#g)"/><path d="M5.27 48.73h53.86v6.42H5.27z" fill="url(#h)"/><path fill="url(#i)" d="M31.46.28C23.83.35 15.93 3.9 7.66 11.94v36.83h48.76V20.21h.02v-8.27C48.4 4.58 40.11.19 31.46.28z"/><path fill="url(#j)" d="M31.44.28C23.8.35 15.9 3.9 7.64 11.94v36.83h48.75V20.21h.03v-8.27C48.37 4.58 40.09.19 31.44.28z"/><path d="M5.27 48.73h53.86v6.42H5.27z" fill="url(#k)"/><path d="M-.04 55.02h64.22v8.88H-.04z" fill="url(#l)"/><path style="line-height:1;-inkscape-font-specification:'URW Chancery L';text-align:center" d="M40.37 11.13l-.14.1-.2.18a3.07 3.07 0 0 1-.32.22c.06.21.15.37.36.67.28-.25.3-.26.63-.51l-.13-.23c-.06-.11-.07-.12-.14-.3a1.58 1.58 0 0 1-.06-.13zm-11.6.38c-.17 0-.34.02-.5.05-.26.07-.72.4-1.1.78-.48.48-.64.93-1.02 2.71-.26 1.24-.5 1.6-1.11 1.6-.08 0-.2 0-.3-.02-.13.14-.2.2-.34.39l.95-.03 1.47.05c1.58.07 1.64.07 1.9.07.5 0 .7-.1.88-.46.11-.22.41-.88.55-1.25l-.1-.18c-.63 1.32-.73 1.37-2.39 1.36h-1.81l.26-.25c.5-.47.57-.6.81-1.6.28-1.18.42-1.71.54-2.09.15-.4.4-.59.8-.59l.57.02.37-.53-.42-.03zm-12.49.03l-.34.25.87.05-.14.65-.2.79-.77 2.96-.14.5-.57.08-.34.24.76-.01h1.5l.34-.23-.9-.07c.19-.85.8-3.25 1.25-4.9l.56-.06.33-.25h-.32l-1.15.01h-.74zm21.9 1.31c-.24.07-.35.12-.65.26.11.26.15.42.15.67 0 .58-.17 1.2-.5 1.76-.37.63-.9 1.1-1.26 1.1-.21 0-.38-.26-.38-.58 0-.45.15-.98.42-1.47.2-.33.38-.58.83-1.1a.22.22 0 0 0 0-.07.3.3 0 0 0-.01-.1h-.1c-.1.12-.21.15-.52.15h-.23l-.77-.03c-.18 0-.28.03-.34.1-.12.16-.27.56-.47 1.25l.17.2c.04-.15.1-.28.1-.33.21-.6.28-.66.8-.65.38-.01.5-.02.72-.07-.56.62-.72.83-.85 1.05a3 3 0 0 0-.45 1.48c0 .44.2.71.52.71.76 0 1.76-.8 2.43-1.93.37-.64.63-1.4.63-1.88a.6.6 0 0 0-.25-.52zm-18.3.25c-.1 0-.8.36-1.51.78l-.06.25c.61-.28.65-.29.74-.29.07 0 .11.06.11.14 0 .2-.18 1-.42 1.87l-.22.78-.14.52.73-.28.56-2.26c1.2-.76 1.24-.77 1.37-.77.07 0 .1.05.1.13 0 .14-.07.5-.35 1.6a5.87 5.87 0 0 0-.25 1.2c0 .14.04.27.14.44.45-.2 1.11-.62 1.78-1.12l.07-.27c-.96.55-1 .57-1.1.57-.1 0-.15-.1-.15-.26 0-.2.07-.52.25-1.18.45-1.62.45-1.62.45-1.68 0-.11-.06-.17-.19-.17-.14 0-.36.09-.7.31l-1.32.82c.09-.32.23-.92.23-1a.13.13 0 0 0-.12-.13zm13.24 0c-.39 0-1 .28-1.57.7-.61.47-1.05 1.47-1.05 2.42 0 .59.33.96.84.96.27 0 .54-.1.98-.33.48-.27.8-.5.97-.74.39-.52.7-1.46.7-2.12 0-.52-.36-.89-.87-.89zm6.94 0c-.16 0-.73.32-1.52.85l-.02.27c.57-.3.62-.33.7-.33.08 0 .12.06.12.17 0 .13-.03.26-.17.81-.46 1.69-.46 1.69-.46 1.93 0 .23.1.38.24.38.16 0 .42-.12.93-.45l.55-.36.27-.16.03-.27c-.9.49-.93.5-1.05.5-.11 0-.18-.1-.18-.27 0-.1.03-.28.09-.49.49-2.02.59-2.4.59-2.48 0-.06-.05-.1-.12-.1zm2.34 0c-.1 0-.8.36-1.5.78l-.07.25c.62-.28.66-.29.74-.29.07 0 .12.06.12.14 0 .2-.18 1-.42 1.87l-.23.78-.13.52.72-.28.57-2.26c1.2-.76 1.23-.77 1.36-.77.07 0 .11.05.11.13 0 .14-.08.5-.36 1.6a5.87 5.87 0 0 0-.25 1.2c0 .14.04.27.15.44.44-.2 1.1-.62 1.78-1.12l.06-.27c-.96.55-1 .57-1.1.57-.09 0-.15-.1-.15-.26 0-.2.07-.52.25-1.18.46-1.62.46-1.62.46-1.68 0-.11-.07-.17-.2-.17-.14 0-.35.09-.7.31l-1.32.82c.1-.32.24-.92.24-1a.13.13 0 0 0-.13-.13zm6.71.01l-1.11.02c-.59.01-.75.04-1.04.21a3.8 3.8 0 0 0-1 .82 4.93 4.93 0 0 0-.63 2.13c0 .24.06.41.21.62l-1.1.95c-.48.43-.7.74-.7 1.01 0 .36.42.56 1.15.56.89 0 1.58-.25 2.22-.8.42-.36.51-.56.71-1.52l.48-2.16.13-.55.14-.54.05-.21c.18-.05.19-.05.5-.54zm-16.5.44c.4 0 .63.38.63.96 0 .4-.13.9-.37 1.37-.27.55-.62.85-.98.85-.4 0-.65-.36-.65-.9 0-1.12.7-2.28 1.38-2.28zm15.3.1h.56c-.04.03-.1.08-.15.1-.3.23-.37.31-.46.54l-.32 1.13-1.23.9a.7.7 0 0 1-.24-.55c0-.33.23-1.17.44-1.63.19-.4.4-.49 1.1-.49h.3zm-.45 2.12l-.42 1.82c-.12.57-.2.8-.38.98-.21.24-.6.36-1.17.36-.63 0-.96-.17-.96-.48 0-.4.26-.63 2.93-2.68zm-20.99 4.46c-.25 0-.46.08-.8.28-.54.3-.64.4-.98.88l-1.3 1.81-1.1 1.58-.23.34a65.46 65.46 0 0 0-.5-4.25l-.3.24a5.29 5.29 0 0 0-.78-.06 1.8 1.8 0 0 0-1.48.63c-.52.52-.83 1.14-.83 1.63 0 .28.06.53.22.88l.73-.5c-.23-.5-.3-.75-.3-1.03 0-.62.47-.97 1.3-.97a4 4 0 0 1 .7.06 31.68 31.68 0 0 1-1.12 3.83c-.18.33-.42.48-.83.48-.17 0-.17 0-.72-.05l-.44.66.41.01c.76 0 1.26-.22 1.67-.73.3-.4.42-.63.65-1.42l.63-2.36c.33 3.48.34 3.55.36 4.32l.48-.36c.33-.72.98-1.73 2.56-3.99l-.1.43c-.02.14-.1.43-.21.85l-.7 2.57c-.07.22-.12.42-.12.56 0 .13.1.25.23.25l.18-.02.9-.15.46-.06.23-.04.2-.24c-.16 0-.32.02-.36.03l-.4.02c-.3 0-.48-.15-.48-.39 0-.25.01-.3.26-1.32.41-1.68.44-1.8.63-2.45.38-1.34.43-1.44.68-1.44.08 0 .21.01.34.04l.25.05.4-.54a1.27 1.27 0 0 0-.39-.06zm19.28 2.45l-.27.15-.34.16-.2.1-.6 2.34c-.96.6-1 .63-1.17.63-.12 0-.21-.14-.21-.31 0-.21.09-.65.27-1.34.24-.95.37-1.49.37-1.57 0-.07-.04-.12-.1-.12-.1 0-.7.32-1.48.78l.22-.7a1.13 1.13 0 0 0-.36-.08c-.17 0-.37.09-.63.27l-.57.41.03-.15c.08-.32.09-.38.09-.42 0-.06-.06-.1-.13-.1-.12 0-.97.4-1.55.76l-.03.26c.52-.27.57-.29.69-.29s.18.07.18.2a6 6 0 0 1-.21 1l-.58 2.11.74-.28.72-2.74c.33-.24.55-.34.81-.34.21 0 .34.08.5.3v.08c.45-.23.56-.28.66-.28.1 0 .15.06.15.14 0 .18-.07.47-.3 1.31a5.01 5.01 0 0 0-.28 1.3c0 .3.15.54.34.54.18 0 .95-.46 1.8-1.08-.36 1.76-.36 1.76-.48 2.12-.15.49-.46.67-1.08.67-.28 0-.5-.04-1.06-.17l-.39.65c.3.04.73.07 1.06.07.68 0 1.06-.18 1.6-.77.57-.6.6-.7.94-2.27.34-1.55.52-2.27.85-3.34zm-17.5.04c-.22 0-.37.05-.6.17-.36.22-.69.47-.89.7a4.3 4.3 0 0 0-.7 2.29c0 .56.3.92.8.92.56 0 1.27-.4 2.03-1.17v-.27c-.72.62-1.19.9-1.55.9a.53.53 0 0 1-.51-.42 1.94 1.94 0 0 1-.05-.54c.43-.27.72-.47 1.29-.9.52-.39.72-.7.72-1.14 0-.34-.21-.54-.55-.54zm2.6 0c-.12 0-.88.41-1.5.8l-.07.28c.53-.26.6-.29.71-.29.09 0 .14.08.14.18 0 .16-.34 1.58-.75 3.08l.69-.26.61-2.34a4.38 4.38 0 0 1 1.17-.66c.07 0 .12.09.12.21 0 .29-.36 1.75-.77 3.05l.73-.26.6-2.4a5.42 5.42 0 0 1 1.2-.65c.07 0 .12.07.12.18 0 .22-.09.61-.35 1.64-.15.6-.2.84-.2 1.06 0 .2.06.3.23.43a8.76 8.76 0 0 0 1.64-1.05v-.22l-.33.2c-.35.22-.51.3-.63.3-.1 0-.17-.1-.17-.26 0-.2.13-.76.32-1.43.29-1 .36-1.3.36-1.44 0-.1-.05-.15-.15-.15-.17 0-.77.3-1.94 1 .03-.1.03-.18.04-.22.12-.48.15-.62.15-.67 0-.07-.05-.1-.13-.1-.14 0-.64.26-1.6.88l-.31.19c.17-.7.21-.88.21-.94 0-.08-.06-.14-.14-.14zm7.06 0c-.39 0-1 .28-1.57.7-.62.47-1.05 1.47-1.05 2.42 0 .58.33.96.84.96.27 0 .54-.1.98-.33.48-.27.8-.5.97-.74.39-.52.7-1.46.7-2.12 0-.52-.36-.89-.87-.89zm-10.08.4c.16 0 .27.17.27.4 0 .48-.26.77-1.3 1.43.17-1.03.61-1.82 1.03-1.82zm9.58.05c.38 0 .62.38.62.95 0 .4-.13.9-.37 1.38-.27.55-.62.85-.98.85-.4 0-.65-.36-.65-.9 0-1.12.7-2.28 1.38-2.28zm-10.48 10.2l-.55.27-.19.22-.61.7c-.19.2-.4.46-.65.77l-.65.8c-.21.26-.23.3-.38.62l1.42.03.28-.01-.33 1.3c.07.06.08.07.16.09.22-.1.48-.2.65-.24l.02-.05a.48.48 0 0 1-.09-.3c0-.16.03-.33.13-.8H26.6l.29-.4h-.65l.4-1.8c.16-.73.19-.83.29-1.2zm-7.15.03l-.26.14c-.54.3-.56.3-.81.42l-.77.34.24.12c.19-.06.28-.1.42-.16l.24-.1.21-.07-.74 3.2c-.08.33-.09.35-.34.38l-.62.08-.23.21h2.57l.19-.21c-.24 0-.66-.06-.81-.09-.13-.03-.2-.11-.2-.23a63.76 63.76 0 0 0 .27-1.33c.34-1.49.52-2.23.64-2.7zm22.85 0l-.26.14c-.55.3-.56.3-.81.42l-.77.34.24.12.42-.16.23-.1.22-.07-.74 3.2c-.08.33-.09.35-.34.38l-.62.08-.23.21h2.57l.19-.21c-.24 0-.66-.06-.81-.09-.13-.03-.2-.11-.2-.23 0-.09.01-.2.05-.33l.22-1c.34-1.49.52-2.23.64-2.7zm-19.78.05c-.39 0-.87.18-1.28.48-.44.33-.68.74-.68 1.18 0 .56.38.95.9.95.29 0 .45-.07 1.23-.54-.1.6-.19.89-.34 1.2-.32.6-.77.96-1.25.96-.24 0-.45-.06-.8-.25l-.38.41c.28.14.49.18.75.18.7 0 1.55-.5 2.02-1.19.38-.54.66-1.49.66-2.2 0-.75-.3-1.18-.83-1.18zm16 0c-.55 0-1.19.39-1.57.97a4.87 4.87 0 0 0-.66 2.31c0 .85.31 1.29.9 1.29.68 0 1.3-.42 1.65-1.13.32-.6.54-1.53.54-2.19 0-.83-.29-1.25-.85-1.25zm-8.86.03c-.83 0-1.6.63-1.6 1.3 0 .29.1.52.38.84-.31.2-.32.2-.87.51-.35.36-.5.7-.5 1.11 0 .47.35.8.84.8.4 0 .95-.19 1.34-.46.4-.27.66-.73.66-1.16 0-.16-.05-.3-.14-.44-.08-.13-.1-.14-.46-.43l-.17-.14c.3-.17.38-.2.8-.49.3-.34.4-.56.4-.83 0-.36-.27-.61-.68-.61zm5.3 0c-.4 0-.82.15-1.14.41-.29.22-.43.5-.43.83 0 .06 0 .1.02.18l.55.07c-.07-.21-.09-.32-.09-.46 0-.44.26-.72.65-.72.37 0 .64.32.64.77 0 .24-.08.52-.2.71-.17.27-.37.48-.97 1.04a11.51 11.51 0 0 0-1.51 1.56l.03.22c.33-.36.43-.43.62-.43.08 0 .19.02.31.05.58.13 1.35.27 1.47.27.07 0 .1 0 .18-.03l.7-1.04-.07-.18c-.5.64-.56.69-.77.69-.04 0-.09 0-.16-.02-.54-.1-1.01-.17-1.4-.23l.96-.9.7-.65.39-.36c.23-.35.32-.61.32-.96 0-.5-.32-.82-.8-.82zm10.66 0c-.83 0-1.6.63-1.6 1.3 0 .29.1.52.39.84-.32.2-.33.2-.87.51-.36.36-.51.7-.51 1.11 0 .47.35.8.84.8.4 0 .95-.19 1.34-.46.4-.27.66-.73.66-1.16 0-.16-.05-.3-.14-.44-.08-.13-.1-.14-.45-.43-.03-.01-.1-.07-.18-.14.3-.17.39-.2.8-.49.3-.34.41-.56.41-.83 0-.36-.28-.61-.7-.61zm-16.28.25c.24 0 .4.2.4.48 0 .44-.28.83-.76 1.08a1.1 1.1 0 0 1-.32-.75c0-.43.32-.81.68-.81zm15.96 0c.24 0 .4.2.4.48 0 .44-.28.83-.75 1.08a1.1 1.1 0 0 1-.32-.75c0-.43.3-.81.67-.81zm-7.15.05c.35 0 .55.41.55 1.16a5.8 5.8 0 0 1-.41 2.04c-.2.48-.46.74-.72.74-.35 0-.6-.44-.6-1.07 0-.43.15-1.3.3-1.82.22-.7.52-1.05.88-1.05zm-16.15.04c.46 0 .75.39.75 1l-.03.4c-.3.26-.63.4-.9.4-.37 0-.66-.35-.66-.8 0-.59.35-1 .84-1zm3.9.32l-.53 2.22h-.6l-.4-.02-.25-.01c.3-.4.42-.56 1.77-2.2zm2.7 1.63l.35.34c.2.2.28.4.28.65 0 .5-.44.99-.9.99-.36 0-.58-.3-.58-.76 0-.47.23-.85.67-1.12l.18-.1zm15.96 0l.35.34c.2.2.28.4.28.65 0 .5-.44.99-.9.99-.36 0-.58-.3-.58-.76 0-.47.23-.85.67-1.12l.18-.1zm-13 .33l-.36.01c-.11.11-.24.28-.38.5h.07l.7-.02.33.02c.1-.18.23-.35.35-.5h-.71z" font-weight="400" font-size="9.62" font-family="URW Chancery L" letter-spacing="0" word-spacing="0" text-anchor="middle" fill="#1a1a1a"/></svg>