<?xml version="1.0" encoding="UTF-8" standalone="no"?><!--Created with Inkscape (http://www.inkscape.org/)--><svg xmlns:dc="http://purl.org/dc/elements/1.1/" xmlns:cc="http://creativecommons.org/ns#" xmlns:rdf="http://www.w3.org/1999/02/22-rdf-syntax-ns#" xmlns="http://www.w3.org/2000/svg" xmlns:xlink="http://www.w3.org/1999/xlink" width="64" height="64" version="1"><metadata><rdf:RDF><cc:Work><dc:format>image/svg+xml</dc:format><dc:type rdf:resource="http://purl.org/dc/dcmitype/StillImage"/><dc:title/></cc:Work></rdf:RDF></metadata><defs><linearGradient id="e"><stop offset="0" stop-color="#0b2228"/><stop offset="1" stop-color="#0b2228" stop-opacity="0"/></linearGradient><linearGradient id="d"><stop offset="0" stop-color="#0b2228"/><stop offset="1" stop-color="#0b2228" stop-opacity="0"/></linearGradient><linearGradient id="b"><stop offset="0" stop-color="#216778"/><stop offset=".27" stop-color="#164450"/><stop offset=".29" stop-color="#216778"/><stop offset=".49" stop-color="#2c89a0"/><stop offset=".71" stop-color="#216778"/><stop offset=".73" stop-color="#164450"/><stop offset="1" stop-color="#216778"/></linearGradient><linearGradient id="a"><stop offset="0" stop-color="#216778"/><stop offset=".18" stop-color="#164450"/><stop offset=".19" stop-color="#216778"/><stop offset=".49" stop-color="#2c89a0"/><stop offset=".8" stop-color="#216778"/><stop offset=".81" stop-color="#164450"/><stop offset="1" stop-color="#216778"/></linearGradient><linearGradient id="f"><stop offset="0" stop-color="#0b2228"/><stop offset="1" stop-color="#0b2228" stop-opacity="0"/></linearGradient><linearGradient id="c"><stop offset="0" stop-color="#216778"/><stop offset=".12" stop-color="#164450"/><stop offset=".15" stop-color="#2c89a0"/><stop offset=".49" stop-color="#37abc8"/><stop offset=".85" stop-color="#2c89a0"/><stop offset=".88" stop-color="#164450"/><stop offset="1" stop-color="#216778"/></linearGradient><linearGradient xlink:href="#a" id="h" x1="5.27" y1="51.93" x2="59.12" y2="51.93" gradientUnits="userSpaceOnUse"/><linearGradient xlink:href="#b" id="g" x1="-.04" y1="59.46" x2="64.18" y2="59.46" gradientUnits="userSpaceOnUse"/><linearGradient xlink:href="#c" id="i" x1="7.65" y1="24.52" x2="56.44" y2="24.52" gradientUnits="userSpaceOnUse"/><linearGradient xlink:href="#d" id="j" x1="13.48" y1="63.47" x2="13.48" y2="26.47" gradientUnits="userSpaceOnUse"/><linearGradient xlink:href="#e" id="k" x1="5.27" y1="55.14" x2="5.27" y2="48.73" gradientUnits="userSpaceOnUse"/><linearGradient xlink:href="#f" id="l" x1="-.04" y1="63.9" x2="-.04" y2="55.02" gradientUnits="userSpaceOnUse"/></defs><path d="M-.04 55.02h64.22v8.88H-.04z" fill="url(#g)"/><path d="M5.27 48.73h53.86v6.42H5.27z" fill="url(#h)"/><path fill="url(#i)" d="M31.46.28C23.83.35 15.93 3.9 7.66 11.94v36.83h48.76V20.21h.02v-8.27C48.4 4.58 40.11.19 31.46.28z"/><path fill="url(#j)" d="M31.44.28C23.8.35 15.9 3.9 7.64 11.94v36.83h48.75V20.21h.03v-8.27C48.37 4.58 40.09.19 31.44.28z"/><path d="M5.27 48.73h53.86v6.42H5.27z" fill="url(#k)"/><path d="M-.04 55.02h64.22v8.88H-.04z" fill="url(#l)"/><path d="M21.16 7.04c-.24-.04-.45.24-.46.8l-.03 1.04c-.02.31-.01 1 0 1.55 0 .12.03.2.07.28l-.03.19c.02.12-.05.5-.13.86-.17.68-.17.75.1 2.62.1.66.11.8-.09 1.4-.12.36-.24.86-.27 1.11-.09.93-.4 1.3-1.26 1.46-.3.05-.45.16-.68.46-.34.44-.5.52-.53.24-.03-.2-.28-.23-.32-.04-.02.1-.07.1-.24.03-.3-.12-.31-.11-.26.3.04.35.03.4-.23.55-.44.25-1.23 1.38-1.2 1.68.06.46-.01.68-.28.83-.26.15-.3.26-.13.34.17.08.14.36-.04.51-.19.15-.22.35-.03.26.08-.05.14.12.22.65l.16.96a1 1 0 0 1 0 .4c-.05.12 0 .16.17.17.19 0 .23.06.36.57.08.35.11.65.07.8a2 2 0 0 1-.38.78c-.09.08-.07.16.07.43.15.26.23.33.38.3.14-.05.23.03.4.35.15.28.26.4.4.37.1 0 .27.02.37.05.12.05.25.04.35-.02.23-.16.39-.08.43.22.02.2.08.26.2.25.11-.02.28.1.4.26.25.31.28.71.17 2.13l-.1 1.62-.11 2.02c-.07.95-.06 1.17.07 1.43.23.47.38.58.74.54.59-.08.66-.52.7-4.54.03-.9.23-2.05.39-2.1.09-.05.12.01.1.31-.01.43.16 1.07.27.97.04-.03.06-.24.03-.47-.05-.35-.01-.46.26-.79.32-.4.6-.55.87-.5.13.04.16.14.17.55 0 .9-.1 2.09-.18 2.23-.05.09-.04.32.02.63.1.45.15 1.12.2 3.26 0 .5.03 1.39.04 1.98.02.6.03 1.36 0 1.7-.01 1.33.01 1.86.14 2.12.06.14.14.37.17.5.09.3.3.44.7.44.28.02.36-.02.55-.27.28-.39.32-.58.32-1.28 0-.3 0-1.08.03-1.74l.04-2.28c0-.6.04-1.25.05-1.43.18-1.41.24-4.87.12-5.93-.1-.7.12-1.34.3-.94a1 1 0 0 1 .03.5 16 16 0 0 0 .12 2.08c.08.96.14 1.8.12 1.85-.03.05 0 .57.04 1.14.05.58.06 1.33.03 1.66-.1.9.03 1.73.3 1.96.27.23.36.22.75-.14.4-.36.5-.85.5-2.66a34 34 0 0 1 .04-2c.03-.86-.01-3.03-.1-3.65a2.69 2.69 0 0 1 0-.76c.04-.1.1-.5.14-.89.1-.88.2-1.14.53-1.22.2-.04.26-.12.25-.3a3 3 0 0 1-.02-.34c0-.07.08-.13.2-.13.2 0 .21-.04.17-.4-.04-.3 0-.45.18-.68.12-.17.2-.37.2-.47-.02-.1.05-.2.15-.24.21-.08.5-.67.95-1.96.16-.46.32-.72.5-.85.34-.23.33-.5-.02-.37-.22.1-.23.09-.2-.23 0-.2.11-.44.26-.6.13-.15.24-.33.23-.42-.04-.33.2-1.68.33-1.93.2-.37.17-.5-.14-.72-.27-.2-.37-.47-.21-.6.05-.03.06-.26.03-.49-.06-.44-.02-.81.17-1.5.1-.38 0-.6-.15-.3-.04.1-.21.41-.37.69-.15.27-.3.59-.32.7-.05.23-.88.63-1.24.58-.22-.03-.25-.05-.17-.23a.52.52 0 0 0 0-.35c-.08-.13-.1-.12-.14.05-.04.16-.12.2-.3.2-.16-.01-.28.06-.37.2-.21.31-.55.33-.66.04-.11-.28-.25-.28-.25 0 0 .32-.2.34-.4.06-.15-.24-.15-.27 0-.47.1-.12.14-.26.11-.3-.14-.18-.6-.06-.71.16-.1.18-.16.2-.44.15-.27-.04-.36-.02-.49.13-.12.14-.2.16-.4.1-.26-.08-.29-.2-.24-.8.02-.37 0-.4-.22-.35-.22.03-.25 0-.32-.37a3.5 3.5 0 0 1-.05-.82c.04-.35.02-.44-.1-.5-.11-.04-.22-.32-.36-.92a7.3 7.3 0 0 1-.28-2.56c.04-.31.02-.69-.04-.84a4.77 4.77 0 0 1-.16-.72v-.01c0-.16-.02-.31-.07-.43-.17-.43-.27-.5-.3-.7a3.25 3.25 0 0 0-.27-.77c-.14-.27-.3-.41-.44-.43zm20.02 1.85c-.15.02-.3.17-.44.44a3.1 3.1 0 0 0-.27.77c-.04.2-.2.7-.37 1.14-.17.43-.31.92-.31 1.08a3 3 0 0 1-.1.63c-.05.18-.12.67-.14 1.08-.03.45-.14 1-.27 1.39-.13.36-.2.7-.19.77.08.18-.79.76-.93.62s-.25-.13-.25.04c0 .14-.64.52-.9.52-.07 0-.14.04-.14.1 0 .07-.1.08-.22.05-.17-.04-.27-.01-.33.1-.09.16-.1.16-.27-.01a.99.99 0 0 1-.26-.55 5.62 5.62 0 0 0-.23-.77c-.14-.31-.18-.34-.18-.16 0 .13.05.46.14.72.24.76 0 1.3-.64 1.39-.27.04-.43 0-.85-.26-.98-.62-1-.66-1.22-2.05-.1-.61-.2-.78-.32-.5-.06.17.1 1.64.24 2.31.12.54.43 1.19.6 1.25.08.03.2.22.26.42.06.2.2.47.3.6.1.14.2.46.23.7.03.26.15.76.27 1.14.14.4.23.9.23 1.23 0 .4.04.62.18.79.1.12.22.4.28.6.05.2.22.49.37.63.18.18.3.4.33.68.04.2.14.5.24.6.1.11.2.42.22.75.04.32.2.83.34 1.16.18.37.26.67.23.83-.04.2.02.3.25.5.4.34.5.3.44-.1-.1-.62.16-.8.43-.3.25.53.37.9.3 1.01-.02.06.04.4.15.74.1.35.22.97.24 1.39.08 1.26.3 2.93.5 3.94.06.26.15.85.2 1.3.08.95.25 1.24.65 1.15a1 1 0 0 0 .7-.74 9 9 0 0 0-.17-1.61 8.41 8.41 0 0 1-.19-1.37 20.36 20.36 0 0 1-.43-3.6c0-.98.3-1.35.72-.9.39.45.47 1.03.6 3.94.17 4.26.2 4.56.33 5.04.13.4.14.53.04.7a9 9 0 0 0-.12 2.18c-.01 1.83 0 1.97.2 2.21.25.35.57.45.92.3.33-.17.4-.42.13-.5a.24.24 0 0 1-.19-.24c0-.22.28-.4.47-.3.08.06.17.07.2.05.12-.08.1-.93-.05-1.71a7.24 7.24 0 0 1 .12-2.6c.06-.27.13-1.13.15-1.93.07-1.95.14-2.96.25-3.53.06-.25.1-.83.13-1.28.04-.85.24-1.5.47-1.5.08 0 .15.12.17.26.1.55.06 1.92-.08 2.67-.08.44-.18 1.67-.25 2.73l-.1 1.93.2.35c.2.31.26.35.56.32.53-.04.7-.47.86-2.1.39-4.27.47-5.03.62-5.39.08-.18.12-.38.09-.46-.06-.15.17-.62.48-.99.12-.15.25-.38.28-.51.1-.42.4-.68.7-.62.22.04.26.02.31-.25a4 4 0 0 0 .06-.53c0-.13.11-.46.25-.74.13-.28.2-.55.17-.6-.02-.06.01-.24.1-.4.16-.33.35-1.4.34-2 0-.17-.14-.69-.29-1.11a2.7 2.7 0 0 1-.23-1.54c.04-.4.1-.8.16-.86.12-.16 0-.27-.14-.13-.2.2-.35.11-.6-.37-.22-.42-.27-.47-.48-.41-.13.03-.3 0-.37-.05-.07-.06-.17-.08-.22-.05-.05.03-.21-.13-.35-.34a7.2 7.2 0 0 0-.42-.6 2.2 2.2 0 0 1-.27-.59c-.08-.33-.2-.46-.61-.74-.28-.19-.52-.4-.52-.46 0-.15-.15-.18-.23-.04-.11.18-.25.1-.39-.24l-.14-.34-.16.3c-.13.27-.2.33-.43.31-.3-.02-.9-.54-.9-.75a.81.81 0 0 0-.14-.34 2 2 0 0 1-.15-.82c0-.35-.07-.65-.14-.7-.16-.14-.35-1.76-.32-2.87v-1.55l-.03-1.04c-.02-.56-.22-.85-.46-.8zM24.82 22.13v.01c.46-.03.6 0 .76.17.12.1.3.2.42.17.3-.04 1 .43.88.6-.12.2-1.78 1.4-1.95 1.43-.08 0-.3.12-.47.25-.42.3-.7.34-.63.1A7.3 7.3 0 0 0 24 22.8c-.07-.6-.07-.62.82-.67zm-3.08.5a.3.5 76.05 0 1 .36.2.3.5 76.05 0 1-.41.4.3.5 76.05 0 1-.55-.17.3.5 76.05 0 1 .4-.4.3.5 76.05 0 1 .2-.03zm19.89 0a.5.3 13.95 0 1 .24.03.5.3 13.95 0 1 .4.4.5.3 13.95 0 1-.55.17.5.3 13.95 0 1-.4-.4.5.3 13.95 0 1 .3-.2zm2.1.22l.14.02c.07.03.3.42.53.86l.4.8-.29.26c-.28.25-1.22.62-1.32.52-.04-.03-.01-.13.05-.22.29-.4.43-.86.46-1.52zm-4.38.28c.06.02.06.11.06.28 0 .17.08.54.19.82.22.6.23.74.05.8a4.92 4.92 0 0 1-1.77-.7c-.16-.16-.16-.17.03-.41.2-.27.56-.5 1.08-.7.2-.08.31-.12.36-.1zm-19.78.9c.03 0 .2.13.4.29.2.14.44.4.55.54a.6.6 0 0 0 .46.3c.31.02.49.28.35.51-.08.12-.17.13-.55-.02a10.8 10.8 0 0 0-.82-.23c-.46-.08-.8-.33-.75-.56.05-.23.31-.81.36-.82z" fill="#1a1a1a"/></svg>