<svg xmlns="http://www.w3.org/2000/svg" xmlns:xlink="http://www.w3.org/1999/xlink" width="64" height="64" version="1"><defs><linearGradient id="e"><stop offset="0" stop-color="#0b2228"/><stop offset="1" stop-color="#0b2228" stop-opacity="0"/></linearGradient><linearGradient id="d"><stop offset="0" stop-color="#0b2228"/><stop offset="1" stop-color="#0b2228" stop-opacity="0"/></linearGradient><linearGradient id="b"><stop offset="0" stop-color="#216778"/><stop offset=".27" stop-color="#164450"/><stop offset=".29" stop-color="#216778"/><stop offset=".49" stop-color="#2c89a0"/><stop offset=".71" stop-color="#216778"/><stop offset=".73" stop-color="#164450"/><stop offset="1" stop-color="#216778"/></linearGradient><linearGradient id="a"><stop offset="0" stop-color="#216778"/><stop offset=".18" stop-color="#164450"/><stop offset=".19" stop-color="#216778"/><stop offset=".49" stop-color="#2c89a0"/><stop offset=".8" stop-color="#216778"/><stop offset=".81" stop-color="#164450"/><stop offset="1" stop-color="#216778"/></linearGradient><linearGradient id="f"><stop offset="0" stop-color="#0b2228"/><stop offset="1" stop-color="#0b2228" stop-opacity="0"/></linearGradient><linearGradient id="c"><stop offset="0" stop-color="#216778"/><stop offset=".12" stop-color="#164450"/><stop offset=".15" stop-color="#2c89a0"/><stop offset=".49" stop-color="#37abc8"/><stop offset=".85" stop-color="#2c89a0"/><stop offset=".88" stop-color="#164450"/><stop offset="1" stop-color="#216778"/></linearGradient><linearGradient xlink:href="#a" id="h" x1="5.27" y1="51.93" x2="59.12" y2="51.93" gradientUnits="userSpaceOnUse"/><linearGradient xlink:href="#b" id="g" x1="-.04" y1="59.46" x2="64.18" y2="59.46" gradientUnits="userSpaceOnUse"/><linearGradient xlink:href="#c" id="i" x1="7.65" y1="24.52" x2="56.44" y2="24.52" gradientUnits="userSpaceOnUse"/><linearGradient xlink:href="#d" id="j" x1="13.48" y1="63.47" x2="13.48" y2="26.47" gradientUnits="userSpaceOnUse"/><linearGradient xlink:href="#e" id="k" x1="5.27" y1="55.14" x2="5.27" y2="48.73" gradientUnits="userSpaceOnUse"/><linearGradient xlink:href="#f" id="l" x1="-.04" y1="63.9" x2="-.04" y2="55.02" gradientUnits="userSpaceOnUse"/></defs><path fill="url(#g)" d="M-.04 55.02h64.22v8.88H-.04z"/><path fill="url(#h)" d="M5.27 48.73h53.86v6.42H5.27z"/><path fill="url(#i)" d="M31.46.28C23.83.35 15.93 3.9 7.66 11.94v36.83h48.76V20.21h.02v-8.27C48.4 4.58 40.11.19 31.46.28z"/><path d="M31.44.28C23.8.35 15.9 3.9 7.64 11.94v36.83h48.75V20.21h.03v-8.27C48.37 4.58 40.09.19 31.44.28z" fill="url(#j)"/><path fill="url(#k)" d="M5.27 48.73h53.86v6.42H5.27z"/><path fill="url(#l)" d="M-.04 55.02h64.22v8.88H-.04z"/><path d="M28 15.72c-.1 0-.36 0-.55.02l-2.37.05c-2.16.04-2.64.05-2.7.1-.04.03-.04.03-.02 0a17.06 17.06 0 0 0-2.18.15 9.6 9.6 0 0 1-.97.08c-.4 0-.59.03-.61.06-.06.06 0 .08.24.1.11.02.23.05.26.07.05.04.03.04-.17.05-.4 0-.44.04-.47.42a.9.9 0 0 0 .03.37c.03.06.05.17.05.23 0 .28.12.57.29.7.08.06.1.09.07.12-.07.08-.06.22.03.36.06.1.08.17.1.34 0 .18.04.27.16.5.14.28.15.3.27.32.14.03.16.06.16.2 0 .1-.03.14-.14.28-.14.16-.15.17-.15.37 0 .25-.08.44-.28.7l-.12.17.1.11c.13.15.22.4.27.66.03.19.02.24-.02.35-.06.14-.06.25-.02.27l.06.18.15.44c.07.18.12.35.12.43 0 .09.03.17.09.27.12.18.12.23 0 .23-.18 0-.2.03-.12.21.07.15.07.2.08.9.01.66.02.77.07.85.03.05.06.18.07.3a.8.8 0 0 0 .06.27c.05.06.04.08-.05.23l-.1.16v.44c0 .34.01.5-.02.63-.06.19-.04.23.08.35.15.13.15.17.05.28-.09.1-.1.12-.1.43v.43l-.05.12c0 .02 0 .13.03.14l.02.01.01.04-.01.03a.44.44 0 0 1-.13.09l-.09.03v.52c0 .46 0 .53.06.63.06.1.06.1 0 .34a5.6 5.6 0 0 0-.07.7c-.04.74-.15 1.17-.37 1.5-.04.06-.06.12-.05.13.03.03-.17 0-.4-.07a4.72 4.72 0 0 0-.67-.12c-.51-.05-.58-.04-.82.1-.13.09-.14.1-.14.2 0 .07-.05.16-.12.28-.07.1-.15.24-.18.32l-.15.33a1 1 0 0 1-.16.26c-.12.1-.15.25-.16.58 0 .22 0 .3-.04.32-.04.02-.03.04.02.1.1.1.08.12-.02.05-.12-.1-.14-.06-.05.05.1.12.1.18 0 .3l-.1.1.08.08c.08.06.08.06.03.12-.04.04-.07.05-.1.03-.02-.02-.03 0-.02.06 0 .06-.02.11-.1.2a.58.58 0 0 0-.1.14l.1.05c.1.05.12.12.06.14-.02.01-.07-.02-.12-.06-.04-.04-.1-.08-.14-.08-.06 0-.06 0 0 .08l.13.09c.03 0 .07.04.07.08.02.03.04.05.05.04.02-.01.1.03.2.1.13.1.15.12.12.16-.04.05-.05.04-.19-.05a1.08 1.08 0 0 1-.2-.15.13.13 0 0 0-.06-.05.19.19 0 0 1-.1-.05.72.72 0 0 0-.23-.16c-.05 0 .05.1.2.2.25.16.42.29.47.33.03.04.03.05-.03.11-.06.07-.08.07-.14.05-.08-.03-.08-.03-.03.03.06.06.06.07-.04.18-.15.2-.11.25.06.08l.15-.15.1.05c.22.12.21.14.03.35-.09.1-.16.2-.16.22 0 .02.1-.06.2-.17.19-.18.22-.2.27-.17.08.04.08.05-.03.2-.11.13-.04.09.2-.15.1-.09.18-.14.2-.13.03 0 .05 0 .04-.03 0-.06.1-.09.15-.04.04.03.03.05-.04.13-.15.15-.48.57-.48.6l.24-.25a1.76 1.76 0 0 1 .35-.33c.02-.03.05-.05.08-.04.06.02.06.08 0 .13l-.05.06c0 .05.06.03.12-.03l.06-.07.25.16c.32.2.36.24.34.3 0 .04 0 .04.1.04.06-.01.13.01.29.1l.25.17c.02.03.06.05.08.05l.14.04.1.05-.07-.06c-.08-.07-.1-.1 0-.15.04-.02.08-.02.17.03.07.03.13.06.14.05v-.02a.35.35 0 0 1-.13-.07l-.1-.07.11-.08c.1-.07.12-.08.18-.05.04.02.07.05.07.07 0 .03.01.05.03.04.01-.01.06 0 .1.01.1.04.14.01.07-.04-.05-.04-.05-.05-.01-.08s.07-.02.2.05c.08.04.16.07.18.06.03 0-.03-.05-.11-.1a.52.52 0 0 1-.16-.1c0-.05.06-.06.1-.02.09.06.29.17.32.17.03 0 0-.04-.04-.1-.1-.1-.08-.14.04-.14.07 0 .09-.01.08-.05 0-.03.05-.09.14-.15.09-.06.23-.17.31-.25a.7.7 0 0 1 .22-.15c.1 0 .1.07-.02.2-.12.11-.1.11.05.01a.32.32 0 0 1 .15-.06c.04 0 .3.15.59.35.7.47.74.4.04-.1l-.4-.27-.12-.08.13-.1c.17-.17.2-.19.26-.16.03.02.03.05-.02.15-.09.16-.08.17.05.06a.42.42 0 0 1 .14-.1.4.4 0 0 1 .13.1c.09.07.1.1.07.12-.09.1-.02.09.11-.01l.18-.1s.07.03.12.08l.1.1-.06.05c-.09.07-.09.1 0 .05.09-.06.16-.06.26 0l.08.05-.07-.08c-.04-.04-.07-.1-.06-.1.02-.07.36-.34.4-.33.02 0 .04 0 .04-.02 0-.05.12-.14.19-.14.1 0 .09.09-.02.21-.17.18-.14.2.07.03a.63.63 0 0 1 .14-.1l.2.17.17.15-.04.1a.35.35 0 0 0-.04.09c.01.02.2-.17.2-.2 0-.06.36-.42.4-.42.06 0 .06.04-.01.13-.1.12-.07.16.04.06.05-.06.13-.1.16-.1a.4.4 0 0 0 .16-.05l.13-.03c.03.01.05 0 .05-.04.02-.1.1-.14.15-.1.03.03.02.05 0 .1-.04.06-.03.06.03.05.1-.03.1-.03.17 0 .04 0 .1 0 .17-.03.11-.05.14-.04.14.05 0 .05.02.04.11-.06l.12-.14.09.07c.05.03.1.08.1.1l-.1.15a3.2 3.2 0 0 0-.16.2c-.05.1-.05.1 0 .06.07-.05.36-.36.43-.45.03-.05.05-.05.1-.03.03.02.05.05.04.06-.04.07.03.03.15-.1.13-.1.14-.11.2-.06.04.05.05.06 0 .11-.06.1-.04.12.05.05.1-.06.15-.06.15.02 0 .02-.06.14-.14.25a.84.84 0 0 0-.12.23s.08-.06.16-.16l.23-.27.1-.1.08.07c.13.09.22.18.2.2 0 .02.02.03.05.03.03 0 .08.03.12.06.1.08.12.06.04-.06-.09-.12-.06-.14.1-.08.14.06.17.06.15.01-.02-.05.24-.23.3-.2.06.01.06.04.01.09-.06.06 0 .03.15-.06.17-.1.22-.11.22-.03 0 .06.02.06.06.05.04-.01.09 0 .13.05.05.05.07.06.1.03.11-.08.19-.1.26-.1l.08.03-.13.15c-.24.26-.14.23.18-.06.26-.23.36-.25.2-.04-.1.14-.04.13.14-.03.16-.15.18-.16.24-.1.03.04.03.06 0 .1-.09.1 0 .1.11 0 .14-.12.24-.13.2-.02 0 .08.05.08.13 0 .05-.05.07-.05.12-.01.03.02.06.06.06.1 0 .02 0 .03.02.02.02 0 .06 0 .11.03.09.04.1.05.06-.01-.05-.09-.04-.13.01-.13a1.8 1.8 0 0 0 .42.33c.01-.02-.03-.08-.1-.15-.08-.1-.1-.12-.05-.14a.2.2 0 0 1 .12.05c.1.1.13.06.06-.06-.06-.1-.04-.1.1-.03l.1.07v-.08c0-.08.04-.1.15-.05a20.49 20.49 0 0 1 2 .17c.14.02.14.04.04.11-.13.08-.23.17-.21.2.01 0 .11-.05.23-.13.15-.1.23-.14.3-.13.04 0 .07.02.07.03 0 .02-.17.15-.37.3-.22.15-.16.13-.17.15 0 0-.15.1-.1.08.02 0 .09-.05.12-.07l.26-.17c.17-.12.32-.2.34-.2.04 0 .1.12.06.14l-.46.35-.22.15.25-.14.14-.07c.2-.13.39-.23.4-.23.08 0 0 .08-.26.27l-.14.12-.12.08.14-.07c.1-.04.22-.1.35-.18.15-.1.17-.1.21-.06.05.05.03.07-.2.28-.25.25-.24.26.06.02a1.95 1.95 0 0 1 .4-.26c.04-.03.05-.03.07 0l.03.07-.49.39-.22.17c-.02 0-.03.03-.03.04l.29-.2a5 5 0 0 0 .48-.3c.1-.08.1-.08.14-.03l.05.08s-.2.18-.44.36l-.02.02c-.22.18-.41.34-.41.36 0 .02.14-.07.32-.2.17-.12.08-.04.18-.1.25-.19.46-.34.49-.3.03.04.03.05 0 .07-.06.03-.2.16-.38.3l-.46.36c0 .02.27-.17.51-.33l.24-.16c.2-.14.2-.14.25-.08.05.06.05.06 0 .12-.07.07-.04.1.04.06.06-.03.12-.02.12.02a.7.7 0 0 1-.16.16c-.2.16-.17.2.04.05a.7.7 0 0 1 .2-.1l.08-.07c.08-.1.2-.11.25-.04.06.07.05.08-.05.14-.08.04-.1.05-.14.01-.04-.03-.04-.03-.03 0 0 .03-.02.1-.06.13l-.06.1.23-.12.22-.13.14.12c.1.1.12.12.11.07-.02-.05 0-.08.04-.1.1-.05.15-.04.18.06.03.08.12.12.12.05 0-.01.03-.02.06-.01.04 0 .06 0 .07-.05.01-.06.02-.06.07-.02.03.02.08.1.13.16.05.09.08.1.08.07.01-.03-.02-.1-.07-.17-.08-.12-.07-.12-.02-.17.08-.05.1-.05.12.01 0 .03.05.1.1.13l.1.06-.04-.06c-.03-.06-.03-.08 0-.12.06-.04.07-.04.17.07.06.08.1.1.1.07 0-.02.06-.1.14-.14l.14-.1.06.08c.08.11.1.1.1-.06-.03-.1-.01-.13 0-.13.02 0 .14-.07.25-.15.2-.14.33-.2.33-.13l-.17.13c-.17.1-.3.25-.16.18l.57-.35c.06-.04.26-.1.5-.16.44-.1.76-.2 1.18-.33.25-.1.27-.1.33-.24l.11-.24c.02-.06.1-.16.16-.23a.95.95 0 0 0 .23-.44.3.3 0 0 0-.05-.13c-.06-.08-.06-.16-.04-1.22.02-1.1.02-1.14.08-1.24.1-.15.08-.18 0-.09l-.09.07.08-.1c.1-.1.08-.16-.05-.25-.06-.04-.07-.08-.1-.3-.01-.21-.03-.28-.1-.4a2.4 2.4 0 0 0-.74-.58 7.09 7.09 0 0 1-.47-.29c-.4-.27-.66-.66-.7-1.02 0-.17 0-.2.06-.27.1-.11.15-.3.13-.4l-.03-.15c-.02-.1-.26-.25-.54-.32a1.36 1.36 0 0 1-.26-.08c-.03-.03.05-.37.1-.41.03-.04.31.02.54.1.2.09.23.08.1-.01-.09-.05-.09-.05 0-.04.11.04.32.2.42.32.05.07.1.1.1.1.01-.05-.1-.22-.2-.32a.43.43 0 0 1-.1-.1c0-.02.15-.04.33-.05.37-.01.8-.13.92-.26.12-.1.05-.1-.18-.02-.33.13-.57.18-1 .18-.34 0-.67-.04-.62-.09 0 0 .17-.03.38-.04.6-.05 1.21-.23 1.55-.46.27-.18.71-.56.74-.63.07-.14 0-.14-.14 0a1.3 1.3 0 0 1-.83.34l-.45.05c-.1.01-.16 0-.17-.01-.01-.02-.1-.04-.2-.04s-.18-.01-.18-.03c0-.04 0-.03.38-.03.32 0 .3-.05-.03-.05a.75.75 0 0 1-.25-.05c-.08-.04-.07-.04.1-.1.3-.07.28-.13 0-.07-.08.02-.13.02-.15 0-.02-.02 0-.03.04-.03a.2.2 0 0 0 .12-.06c.06-.06.07-.06.34-.03.15.02.36.07.47.1.2.06.4.07.38.03-.01-.02-.08-.04-.16-.05-.08-.01-.2-.05-.3-.08-.07-.03-.28-.1-.45-.13a2.41 2.41 0 0 1-.33-.1l.11-.02c.14-.02.28-.01.77.07.33.06.52.06.78-.02.2-.06.35-.19.28-.23l-.27.07c-.3.11-.5.12-1 .03-.53-.08-.52-.12.06-.16.13-.02.32-.05.42-.08.18-.06.48-.23.45-.26l-.24.08c-.22.1-.57.17-.67.15-.04 0-.03-.02.05-.04.05-.01.1-.04.1-.05 0-.03-.07-.03-.73.02-.18.02-.18.02-.12-.02.05-.03.34-.14.67-.24.67-.23.85-.3 1.1-.5.22-.16.54-.5.54-.57 0-.03.03-.1.07-.15.06-.06.08-.11.06-.16-.01-.06.03-.14.24-.42.31-.42.53-.62.86-.81.23-.13.26-.15.23-.2-.03-.04-.03-.04 0 0 .05.03.08.03.15-.01.17-.09.17-.18 0-.1l-.17.07a1.6 1.6 0 0 0-.27.14c-.25.15-.78.36-.78.3 0-.01.1-.1.24-.19.28-.19.39-.28.39-.35 0-.03.02-.07.04-.1.03-.03.05-.08.03-.1-.01-.04-.04-.03-.17.09l-.46.3c-.4.18-1.4.5-1.8.57a2.8 2.8 0 0 0-.46.11c-.18.08-.22.06-.11-.06a1 1 0 0 1 .47-.26c.2-.03.6-.18.93-.34.42-.2.5-.24.76-.3.24-.07.42-.15.57-.25.07-.05.07-.07.04-.11-.03-.05-.03-.05.01-.01.04.03.08 0 .27-.16a1 1 0 0 1 .23-.17c.01.04-.07.19-.2.37-.07.1-.1.16-.07.18.04.04 0 .08.32-.38l.32-.46c.03-.04.05-.1.05-.14 0-.05.11-.18.33-.42.2-.2.33-.36.32-.38-.01-.03.03-.08.1-.15a.6.6 0 0 0 .15-.12c0-.03 0-.03-.31.17-.48.3-.54.33-.28.12.24-.2.69-.8.6-.8-.04 0-.1.07-.35.36-.16.2-.3.31-.46.42-.23.15-.43.25-.56.3-.14.06-.08.01.11-.09.21-.1.22-.1.2-.13-.01 0-.21.04-.45.12-.37.11-.95.24-.98.21l.1-.07c.17-.1.12-.12-.1-.05-.12.05-.27.08-.35.08-.09 0-.13.02-.12.05.01.02 0 .03-.03 0-.06-.01-.05-.01.04-.09.07-.07.08-.08.02-.08-.04 0 0-.03.1-.08l.17-.1c.08 0 1.23-.4 1.27-.43a5.68 5.68 0 0 1-.79.15 2.37 2.37 0 0 1 .75-.23c.13 0 .56-.15.84-.3l.37-.15.27-.1c.2-.1.52-.4.59-.52.03-.06.1-.13.17-.16.14-.08.14-.13 0-.11a4 4 0 0 1-.3.04h-.17l.32-.1.47-.18c.18-.08.75-.5.75-.56 0-.03.08-.12.18-.22.1-.09.18-.18.18-.2 0-.07.16-.2.34-.26.24-.09.37-.17.64-.42.23-.22.65-.54.8-.63.07-.03.1-.07.1-.11v-.06c-.1 0-.57-.12-.8-.2a3.22 3.22 0 0 0-1.05-.22l.2-.1a.6.6 0 0 0 .19-.08c0-.07-.09-.08-.27-.04-.28.05-.62.1-1.05.13-.87.06-1.18.15-2.17.65a9.37 9.37 0 0 0-1.72.99 16.1 16.1 0 0 1-.76.82c-.45.47-.64.7-.89 1.06-.13.2-.18.25-.24.25-.05 0-.13.06-.24.17-.23.24-.25.28-.34.62-.1.4-.1.71.04 1.24.1.43.1.55 0 .3a2.76 2.76 0 0 1-.07-1.82c.1-.22.09-.21.03-.21-.05 0-.23.2-.5.55-.23.31-.3.55-.3.93 0 .42.11.83.4 1.47.1.22.14.34.15.47 0 .09 0 .16-.01.15l-.03.01-.12.3-.12.26-.07-.2a1.6 1.6 0 0 0-.34-.6 3.7 3.7 0 0 1-.24-.33c-.04-.06-.08-.1-.1-.1-.03 0 .05.2.12.31.12.17.34.56.38.69.06.13.06.13.12.08.06-.06.06-.05 0 .01-.04.06-.05.08-.02.18.05.16.04.32 0 .38-.05.06-.05.06-.06 0l-.04-.15c-.02-.09-.09-.19-.12-.16l.05.2c.1.3.1.39-.21 1.3-.38 1.14-.34 1.06-.43.88a1.82 1.82 0 0 0-.28-.43l.03.13.05.12-.1-.12a2.87 2.87 0 0 1-.25-.37c-.15-.25-.23-.33-.15-.15.07.16.15.31.29.53.17.29.3.69.3.92.01.22-.06.5-.1.48a1.99 1.99 0 0 1-.21-.62l-.02-.13.06.07.06.11c0 .02.01.04.03.04.04 0 .04-.05-.02-.24-.06-.2-.17-.42-.4-.78a1.82 1.82 0 0 1-.34-1.07c.02 0 .06.06.12.14.2.33.52.7.57.65 0 0-.08-.2-.2-.43a3.81 3.81 0 0 1-.26-.58c-.08-.3-.09-.92-.01-.92.01 0 .03.06.04.13.03.17.08.32.11.32.02 0 .02-.03.01-.07-.05-.23-.1-.62-.08-.66.03-.1.06-.04.1.23.07.3.15.52.17.43l-.05-.3c-.1-.45-.13-.68-.1-.72.04-.04.04-.04.13.42.09.49.35 1.25.49 1.43a6.91 6.91 0 0 1-.38-1.44l-.02-.14.05.1.13.32c.05.12.1.24.13.27.08.1.08.02.01-.16a4.65 4.65 0 0 1-.32-1.45c0-.17.19-.84.3-1.1l.07-.14.04.28c.03.24.07.36.22.7.18.4.29.57.54.87.27.3.25.16-.02-.16l-.12-.17.27.23c.19.18.25.23.26.2.03-.06-.2-.36-.4-.5a2.5 2.5 0 0 1-.58-1.1c-.06-.2-.1-.42-.1-.5-.01-.12-.05-.34-.06-.26 0 .03-.02.07-.05.1-.02.02-.09.14-.14.25l-.02.04c0-.18-.03-.31-.11-.33a.89.89 0 0 0-.37.04c-.06.01-.06.01-.03-.05a.19.19 0 0 1 .11-.08c.33-.07.45-.16.5-.4 0-.07.04-.29.08-.48.07-.43.07-.7 0-.98a2.2 2.2 0 0 1 .12-1.38l.09-.23c0-.05-.38.02-.56.1-.22.1-.34.13-.24.05l.17-.1.25-.13c.16-.1.16-.1.07-.34-.07-.18-.03-.34.15-.65.12-.2.2-.27.26-.3a.47.47 0 0 0 .15-.1c.07-.09.1-.33.05-.54-.04-.2-.03-.26.1-.4.05-.08.06-.12.06-.53 0-.24.01-.51.03-.6.03-.22.02-.23-.35-.27a2.57 2.57 0 0 0-.9.01 1.1 1.1 0 0 0-.63.31c-.16.15-.2.16-.2.06 0-.03-.05-.07-.15-.12-.32-.15-.57-.18-.8-.1-.2.08-.52.08-1.39.02a9.66 9.66 0 0 0-.81-.03c0 .01-.02.04-.05.06-.04.04-.04.03-.01 0 .05-.07.02-.1-.12-.1l-.8-.07c-1.65-.17-2.77-.17-3.13-.01-.12.05-.13.05-.13 0 0-.08-.1-.23-.22-.3-.1-.06-.15-.07-.37-.07H28zm.47.15c.33.02.39.11.14.22-.13.05-.13.08-.01.12.1.04.15.13.14.25 0 .07-.03.1-.1.13a.28.28 0 0 0-.13.07c-.04.06-.04.15 0 .15.02 0 .03-.02.03-.05 0-.07.11-.13.26-.13.07 0 .11-.03.19-.12.13-.16.24-.2.61-.25.47-.06.69-.05 1.19.03.34.05.5.1.68.18.26.12.66.25.75.25.03 0 .07-.02.1-.04.01-.03.06-.04.12-.04.1.01.1 0 .09.15v.14c.02 0 .15-.11.3-.26l.16-.14c-.1.1-.1.13-.07.14.13.05-.01.22-.15.2-.07-.02-.1-.01-.14.03-.06.07-.05.08.13.12.28.08.52.22.75.45.12.13.28.31.36.42.17.22.16.22.25-.17.08-.34.4-.84.62-.99.1-.07.16-.08.36-.08.26 0 .25 0 .32-.17.02-.06.06-.1.16-.12.15-.04.29-.02.57.07l.2.07.06.2c.05.15.05.22.03.26-.01.03-.14.16-.27.29-.26.23-.2.24.09 0 .2-.16.26-.24.3-.41.03-.2.1-.28.27-.37.14-.07.72-.22.85-.22.04 0 .05.01.03.09 0 .07 0 .08.03.08s.06 0 .07-.04c.02-.06.11-.1.17-.1.03.03.04.04 0 .09 0 .03-.05.05-.08.05s-.04.02-.03.06c0 .03-.03.1-.1.18a7.3 7.3 0 0 0-.7 1.05c.02 0 .15-.17.31-.39.26-.34.3-.38.35-.36.07.04.07.07.02.12-.05.05 0 .08.05.03.04-.03.06-.03.1 0 .04.06.04.07 0 .14l-.06.08.14.14c.18.2.2.36.01.22-.08-.07-.17-.1-.17-.07l.15.17c.12.12.15.16.15.25 0 .13-.04.2-.26.42a1.5 1.5 0 0 0-.34.57.4.4 0 0 1-.07.14.42.42 0 0 1-.14-.06c-.17-.11-.18-.1-.05.03.07.08.1.13.1.17-.03.06-.06.06-.14.02-.06-.03-.06-.03-.03.02.04.07.04.18 0 .2a.4.4 0 0 1-.15-.07c-.17-.11-.2-.09-.05.04.08.07.11.11.1.15-.03.07-.06.06-.25-.1-.1-.08-.18-.14-.19-.13l.16.2c.15.14.17.17.14.21-.05.06-.08.06-.19-.02-.14-.1-.12-.04.02.1.08.06.13.13.13.14-.03.05-.25.12-.47.15-.35.04-.6.18-.76.4 0-.02.03-.02.03-.04 0-.05-.02-.1-.07-.11h-.01c-.05 0-.08.04-.09.1l.02.07c.01.03.03.04.06.04h.01a1 1 0 0 1-.17.18c-.15.1-.1.1.06 0 .08-.03.15-.09.16-.12.05-.16.43-.33.78-.35.15-.02.25 0 .25 0 0 .02-.07.12-.14.23-.25.33-.28.42-.06.21l.1-.1.07.06.07.06-.13.18c-.15.22-.1.25.08.04.1-.12.13-.13.17-.1.03.03.02.05-.03.1-.04.02-.07.06-.07.08 0 .02-.06.1-.13.2-.2.23-.17.27.04.04.14-.15.2-.18.21-.16.03.03.02.06-.04.14-.12.16-.13.18-.07.16.04-.01.1.04.24.2l.33.29c.15.12.2.18.12.2-.03.01-.12-.05-.24-.16a2.14 2.14 0 0 0-.47-.33l.28.3c.3.32.33.35.3.4l-.05.07-.1-.06c-.12-.1-.15-.05-.05.06.07.07.08.1.05.14-.03.07-.01.12.08.23l.07.07-.08.11c-.1.13-.16.14-.38.02a.5.5 0 0 0-.3-.07c-.16 0-.17 0-.08.04.1.03.33.37.33.5 0 .16.09.3.18.26.02 0 .07.01.1.05.08.06.08.07.03.12-.05.05-.05.06.02.13.09.1.06.18-.05.14-.11-.05-.12-.04-.04.04.1.1.04.16-.07.07-.11-.08-.14-.04-.04.06l.08.1-.06.1c-.07.1-.03.12.05 0 .05-.05.13-.06.13-.01 0 .06-.12.24-.33.52-.22.3-.27.42-.1.23l.12-.13.11.15.14.14c-.04.12-.06.25-.12.4-.09.27-.2.65-.27 1.02-.18.84-.17.87.16 1.52l.26.52c0 .06-.2-.1-.4-.32-.23-.24-.48-.4-.63-.41-.08 0-.05.07.06.13.05.03.1.06.08.07 0 0-.1.02-.21 0-.18 0-.17.01.1.05.32.04.4.07.54.2.13.12.13.16 0 .13-.16-.03-.13 0 .07.08.1.03.2.08.2.1.03.02.07.04.11.04.06 0 .25.17.22.2-.01.01-.08 0-.15-.04-.07-.04-.2-.08-.3-.1-.15-.03-.2-.02-.28.03-.06.03-.1.07-.1.08 0 .02.03.02.05.02.08-.04.37-.04.47 0 .12.03.25.12.29.2.03.05.02.05-.12 0-.2-.08-.26-.05-.08.04.18.1.26.18.38.5s.12.37 0 .25c-.17-.14-.22-.18-.3-.2-.04-.02.02.05.17.2l.23.22-.04.22c-.05.34-.03.32-.5.34-.34.01-.47.03-.71.1-.41.12-.48.16-.54.3-.07.2-.06.4.04.6a.8.8 0 0 1-.07.86c-.12.15-.4.37-.74.56-.83.48-.91.54-1.02.75a.6.6 0 0 0-.05.21.3.3 0 0 1-.08.2c-.1.1-.1.2 0 .33.06.1.06.12.05 1.26v1.15l-.08.08a.44.44 0 0 0-.1.17l-.02.1-.16-.14a.73.73 0 0 0-.18-.12c0 .01.26.35.3.38.05.02 0 .08-.05.08-.04 0-.04 0-.02-.04.05-.05.01-.08-.06-.04-.03 0-.08.02-.1.01-.03 0-.04 0 0 .04 0 .03.03.07.05.08.04.02.03.06-.02.08-.03.02-.1-.01-.16-.07-.16-.12-.2-.11-.1.02.06.06.1.13.1.16l-.01.06a91.07 91.07 0 0 1-4.14-.94l-.97-.22-.08-.02-.05.06c-.06.07-.06.07.06.1l2.2.53c1.12.26 1.42.34 1.03.3l-.57-.05-.66-.06a214.91 214.91 0 0 0-2.48-.22c-.13-.02-.16 0-.23.05-.07.06-.07.06-.02 0l.05-.06-.35-.02-1.12-.08c-.41-.03-1.09-.07-1.5-.07a4 4 0 0 1-1.3-.11c-.02.06-.19.04-.39-.06-.15-.07-.18-.07-.15-.03.08.08.07.1-.04.08h-.2c-.08.02-.1.03-.06.07.02.03 0 .02-.05-.02l-.08-.08.06-.06c.1-.1.08-.12-.03-.05l-.09.07-.23-.13c-.16-.08-.2-.1-.15-.05.08.07.1.13.06.16-.03.02-.56-.23-.6-.28 0-.03-.03-.03-.09 0-.08.07-.18.07-.25.01-.05-.03-.07-.03-.14 0-.08.05-.09.05-.27-.09-.22-.17-.24-.13-.03.05.15.13.17.2.07.25-.05 0-.23-.09-.4-.23-.11-.1-.18-.11-.18-.05 0 .07-.16.14-.22.1-.05-.02-.05-.02-.02.04.02.04 0 .07-.03.1-.05.05-.07.05-.1.02-.07-.05-.06-.07.03-.2.1-.12.07-.13-.07 0-.09.07-.11.08-.15.05-.06-.05-.05-.08.06-.21.16-.2.16-.23 0-.08-.08.08-.17.14-.2.14a.44.44 0 0 1-.15-.1c-.13-.1-.15-.06-.02.06.1.1.12.16.05.18-.05.02-.33-.18-.4-.29-.06-.07-.12-.07-.16.01-.03.06-.03.07.01.03.04-.03.06-.02.17.07.07.06.12.12.12.13l-.1.1c-.13.07-.2.04-.1-.05.08-.08.06-.12-.03-.05-.09.06-.1.06-.14 0-.03-.03-.04-.07-.03-.08 0-.03 0-.04-.04-.04a.09.09 0 0 0-.08.06c-.03.09-.1.08-.22-.03-.13-.12-.16-.1-.04.03.05.06.1.12.1.14 0 .1-.08.07-.27-.1-.18-.18-.33-.26-.19-.11.08.08.06.15-.04.12-.06 0-.07 0-.06.04.02.07-.06.13-.12.1a.07.07 0 0 1-.04-.05c0-.05-.01-.05-.07 0-.15.1-.15.03-.01-.16.06-.07.1-.14.09-.15 0 0-.08.04-.15.11-.11.11-.14.13-.2.1-.06-.04-.06-.04 0-.1.04-.05.05-.05.1-.02l-.04-.07.05-.1c.05-.1.05-.1 0-.04-.08.07-.09.07-.22-.05-.12-.11-.15-.18-.1-.2.03 0-.02-.1-.1-.18-.1-.13-.13-.2-.13-.28 0-.11.06-.29.13-.34.04-.04.05-.03.09.01.04.06.04.06.11 0a.54.54 0 0 1 .2-.1c.13-.03.14-.03.23.05.17.17.62.25.82.15.05-.03.1-.04.1-.02 0 0 .07.03.15.04.11.02.15.01.14-.02-.02-.06-.22-.1-.38-.1-.08.02-.22.02-.32.02-.2.01-.25-.01-.54-.26a1.28 1.28 0 0 0-.3-.18.58.58 0 0 1-.2-.1c0-.04.14-.32.25-.44.08-.1.1-.1.22-.1.1 0 .14.01.16.06.05.08.14.13.23.1.1-.01.1-.07.02-.07-.03 0-.1-.04-.14-.09a.6.6 0 0 0-.17-.12c-.08-.04-.08-.04-.04-.12.02-.05.07-.1.1-.1a3.86 3.86 0 0 1 1.41.16c.34.1.37.1.34.06 0-.02.02 0 .07.03.08.06.1.06.15.03.03-.03.04-.03.04 0-.01.04.04.06.93.3.48.14 1.7.56 1.8.63.06.03.3.1.53.16.72.18 1.6.46 2.16.67.17.07.5.18.75.25l.76.22a11.12 11.12 0 0 0 1.4.38c.1.03.12.03.18-.02l.06-.06a20.18 20.18 0 0 1-2.06-.58 8.37 8.37 0 0 1-.93-.3c-.08-.03-.08-.04-.03-.11l.05-.07-.1.04c-.08.05-.2.06-.24.03-.01-.02.01-.06.06-.1.08-.1.05-.12-.07-.04-.05.03-.08.03-.13 0-.08-.03-.1-.03-.1.03 0 .03 0 .04-.04.02a.33.33 0 0 0-.06-.01l.06-.1c.1-.13.1-.13-.05-.06-.1.05-.11.04-.17 0-.06-.06-.06-.06.01-.14.09-.09.08-.12-.02-.05-.1.07-.15.06-.28-.04-.12-.1-.17-.12-.15-.06.02.08-.07.05-.24-.1-.2-.17-.25-.2-.25-.14 0 .02-.05.05-.1.08-.11.04-.1.04-.26-.1a.77.77 0 0 1-.15-.14l.13-.12c.15-.13.09-.15-.12-.03-.07.04-.15.07-.19.06-.04 0-.06 0-.06.03 0 .1-.14.02-.38-.21l-.16-.15.1-.1c.08-.1.06-.09-.07-.03-.08.05-.1.05-.18 0-.09-.04-.09-.04-.06.02.07.13-.06.17-.15.05a.48.48 0 0 0-.12-.1c-.05-.04-.06-.04-.04.01a.09.09 0 0 1-.13.1 2.29 2.29 0 0 0-.2-.1l-.17-.08.07-.09c.07-.1.06-.1-.07-.04-.08.04-.09.04-.1 0-.02-.04.02-.1.1-.19.17-.15.14-.17-.06-.02-.14.1-.14.1-.22.05-.06-.04-.07-.06-.06-.12.02-.06.01-.07-.04-.04a.22.22 0 0 0-.08.06c-.03.04-.13.04-.13 0 0-.03.05-.1.12-.17.16-.15.12-.17-.07-.02-.09.07-.16.1-.2.1-.04-.01-.05 0-.04.04.02.07-.05.06-.09-.01-.02-.04 0-.08.05-.16.05-.06.08-.1.06-.1-.07 0-.07-.01-.02-.09.04-.07.02-.05-.14.07l-.2.17c-.02.04-.1.02-.1-.02 0-.02.04-.08.1-.13.1-.14.09-.16-.06-.05-.08.06-.11.07-.14.05-.02-.03-.01-.07.04-.16.07-.13.05-.16-.05-.05a.54.54 0 0 1-.11.09c-.05.03-.06.02-.04-.07.02-.08.1-.19.37-.45.36-.36.4-.44.14-.24-.2.15-.3.22-.33.2l.02-.1c.02-.07.04-.3.05-.54l.03-.44.14-.08.27-.13c.19-.05.16-.11-.06-.13l-.27-.06c-.09-.03-.1-.04-.11-.26l-.02-.48c0-.24 0-.25.07-.29a.18.18 0 0 0 .1-.1c0-.03.04-.1.07-.11.05-.05.06-.05.1 0 .04.07.14.13.21.13.02 0 .1-.03.15-.07a.85.85 0 0 1 .15-.09c.02 0 .02-.02.01-.03 0-.02-.13 0-.24.06-.12.04-.18-.3-.1-.54a.6.6 0 0 0 .03-.23c-.02-.14.04-.2.15-.15.12.05.13.04.05-.04-.08-.09-.2-.1-.25-.03-.07.1-.22.23-.36.37.03-.16.05-.28.09-.35.02-.05.1-.12.17-.16.13-.08.2-.15.2-.23 0-.02-.04 0-.08.05a.37.37 0 0 1-.1.07c-.02 0-.04-.06-.06-.14a.53.53 0 0 0-.11-.23l-.08-.07.06-.3a1 1 0 0 0 0-.53l-.05-.25.08-.2c.1-.26.19-.35.57-.6l.15-.09c.02.01.05.01.07 0l.03-.05a.49.49 0 0 1 .23-.05c.15 0 .4-.06.4-.1h-.27l-.27-.01.03-.05a6.25 6.25 0 0 1 .3-.55.47.47 0 0 1 .2-.17c.14-.06.22-.02.25.12.02.07.02.14 0 .23a1.2 1.2 0 0 1-.15.46.36.36 0 0 1-.13.12c-.05.03-.06.07-.05.13 0 .03.01.05.03.06.02.02.04.02.06 0l.07-.01c.07-.02.14-.13.22-.32.05-.12.09-.24.1-.37.05-.3 0-.5-.16-.63a.13.13 0 0 0-.13-.02.86.86 0 0 1-.13.02c-.09 0-.18.07-.27.2-.12.2-.25.41-.36.66v-.2a1.7 1.7 0 0 0-.01-.6c-.03-.06-.07-.08-.11-.05l-.04.03-.02.08c0 .04.02.07.04.09a22.55 22.55 0 0 0-.02.55c0 .1.02.16.03.24a2.4 2.4 0 0 0-.3.13l-.36.17s-.02-.04-.02-.1c0-.14-.05-.28-.13-.33-.07-.04-.08-.06-.1-.73a2.88 2.88 0 0 0-.07-.87l-.06-.2c0-.04.13 0 .19.05.09.07.17.07.3 0 .06-.03.13-.03.27-.02.24.03.29-.02.08-.07-.2-.04-.29-.04-.39.01l-.09.04-.03-.14a.73.73 0 0 0-.13-.23c-.08-.1-.1-.14-.11-.35a6.4 6.4 0 0 0-.15-.96c-.03-.06-.03-.1.03-.2a.84.84 0 0 0 .06-.27c0-.18-.09-.47-.17-.53-.4-.29-.4-.3-.2-.6.18-.26.27-.46.32-.72a.73.73 0 0 1 .1-.26l.17-.09c.1-.03.16-.08.2-.15l.06-.1.05.1c.04.07.1.1.25.16.25.09.28.07.06-.04a.51.51 0 0 1-.23-.2.35.35 0 0 0-.1-.14.55.55 0 0 1-.15-.11c-.06-.06-.2-.13-.32-.18l-.29-.1c-.1-.05-.15-.15-.23-.5-.05-.2-.08-.29-.16-.37l-.1-.1.11.1c.06.05.12.1.14.1a5.99 5.99 0 0 0 .78-.35c0 .02.03.02.13 0a16.9 16.9 0 0 1 3.61-.4c.06.02.08.02.1 0l.11-.04c.07 0 .07 0 .03.07-.16.22-.1.23.13.04.15-.13.24-.17.24-.11a1 1 0 0 1-.17.2c-.26.3-.11.23.2-.07.1-.1.2-.16.2-.15 0 .01 0 .04-.02.06a.12.12 0 0 0-.03.07c0 .07.07.04.16-.05.05-.05.12-.09.16-.09.06 0 .07 0 .04.04-.03.04-.04.14 0 .14l.12-.09c.15-.12.27-.12.16 0-.06.07-.03.12.04.07l.18-.1c.13-.07.17-.06.96-.05.46.01 1 .03 1.22.05.82.07.74.07.82-.02.07-.08.27-.37.27-.4a4.2 4.2 0 0 1-.4-.04c-.14-.02-.17 0-.2.03-.02.05-.03.04-.07-.05a3.27 3.27 0 0 1-.28-.86c0-.07.01-.11.03-.1l.05-.05c.02-.05.01-.08-.05-.17a.63.63 0 0 1-.07-.12H28l.05-.11c.07-.14.13-.16.43-.13zm-4.96.28c.03 0 .06.02.06.04l-.06.12c-.07.1-.03.11.1.02l.11-.06.1.06c.1.08.11.08.09 0-.02-.07.04-.1.1-.05.04.04.03.06-.07.2-.12.18-.08.2.1.05.08-.07.15-.1.18-.1.04.02.03.05-.05.15-.17.23-.25.35-.23.38a2 2 0 0 0 .43-.42l.12-.15.07.06c.1.08.15.08.15 0 0-.07.08-.12.16-.08.04.03.05.02.03-.04l.01-.1c.05-.03.27.14.3.22 0 .03.02.06.03.06.04 0 .12-.07.2-.18.08-.12.17-.15.17-.08a.8.8 0 0 1-.12.21c-.14.2-.14.2-.07.2.03 0 .1-.06.17-.15.13-.15.16-.17.18-.1.01.02-.06.14-.18.29-.2.25-.3.4-.26.4.04 0 .1-.05.34-.32.22-.25.28-.3.28-.2-.01.09.06.06.22-.08.11-.1.17-.14.21-.13.05 0 .06 0 .05-.07 0-.07.01-.1.04-.1s.05.03.05.08c0 .08 0 .08.07.07.05-.01.1-.04.13-.07.05-.04.06-.04.13.02l.07.08-.15.16c-.18.17-.14.2.08.08.11-.06.13-.07.16-.03.03.04-.01.1-.23.32-.24.25-.46.52-.46.58 0 .01.2-.16.4-.37.28-.27.42-.4.45-.38.08.03.06.06-.12.25-.18.2-.17.23.04.08.3-.2.31-.2.13 0-.14.16-.11.23.04.08.06-.06.1-.07.12-.04.02.02 0 .06-.1.18-.2.18-.2.24-.01.14l.13-.07.14.17c.1.13.12.17.08.18-.02 0-.4 0-.85-.03a26.9 26.9 0 0 0-5.84.32c-.69.12-.8.15-.88.22-.05.04-.05.04-.02 0 .03-.04-.06-.03-.43.06-.51.13-.52.13-.52.1a1 1 0 0 1 .24-.14c.19-.08.24-.12.24-.17 0-.09-.07-.1-.29-.06-.32.06-.5-.04-.57-.35-.05-.22-.05-.2.02-.23.05 0 .06-.04.05-.13 0-.2.17-.38.21-.22.01.04.05.06.13.07.1 0 .12 0 .1-.07-.02-.11.01-.11.25.03.3.17.34.19.34.15a.58.58 0 0 0-.15-.12c-.15-.1-.17-.14-.12-.2.04-.04.04-.04.5.27.15.11.3.2.3.19.01 0-.02-.05-.06-.08a10.62 10.62 0 0 1-.5-.4c-.1-.06-.12-.14-.05-.14l.2.11.18.1.16-.15c.16-.15.17-.15.23-.1.07.04.08.04.17-.05.1-.1.09-.1.17-.03l.09.05-.06-.1c-.04-.07-.05-.1-.02-.13.06-.06.2.03.17.12-.01.06.03.1.06.03.01-.02.04-.02.07-.01.03 0 .04 0 .03-.03-.01-.02 0-.07.02-.1.04-.05.06-.06.11-.04.05.03.05.05.02.1-.02.03-.02.07-.02.07.02.02.3-.21.33-.27.03-.05.11-.06.11-.02l-.14.24-.14.2s.1-.07.2-.18l.18-.2.12.08c.11.07.12.07.1.02-.02-.05 0-.07.05-.1.08-.03.11 0 .11.07 0 .08.06.07.17-.04.08-.07.1-.1.14-.06.02.02.01.06-.04.14-.07.12-.04.12.09 0 .06-.05.07-.05.12 0 .05.04.05.05 0 .13-.05.1-.05.1 0 .06.04-.01.14-.11.23-.2.2-.2.26-.2.16 0-.06.11-.06.11 0 .11.03 0 .08-.03.12-.07.03-.04.08-.08.1-.08.03 0 .04-.02.03-.06-.01-.04 0-.06.05-.08.04 0 .06-.03.06-.08s.02-.08.06-.08zm10.43.93c.02 0 .06.02.09.05.02.03.05.07.05.1 0 .04 0 .03.06-.02.11-.1.12-.08.03.1l-.13.32-.05.14c-.02 0-.26-.3-.32-.38-.03-.06.07-.16.16-.16.04 0 .06-.01.05-.03-.03-.05 0-.12.06-.12zm13.25 1.56c.2 0 .39.03.5.08l.14.07-.21.02-.57.02c-.33 0-.83.04-1.08.08-.08.01-.08 0 .03-.04a.8.8 0 0 1 .23-.08l.37-.1c.18-.04.4-.06.59-.05zm-1.48.05c.04 0 .04 0-.04.05l-.38.23a12.57 12.57 0 0 0-3 2.48c-.55.6-.7.8-1.03 1.29-.25.36-.29.4-.34.35-.02-.02 0-.1.1-.26.3-.56.76-1.13 1.66-2.04a8.4 8.4 0 0 1 3.03-2.1zM33.9 20.38c-.02-.01-.05 0-.08.03l-.07.22a5.14 5.14 0 0 1-.25.71c-.06-.07-.1-.11-.13-.11-.01 0-.03 0-.04.02a.61.61 0 0 1-.06.04.13.13 0 0 0-.06.06c-.12.2-.2.38-.25.53-.08.25-.09.44-.02.58.03.05.07.05.1.02.16-.12.32-.38.49-.78l-.02.28c0 .13.02.23.08.31.02.05.05.08.09.1.04.02.07.03.11.03.04 0 .08-.02.11-.03l.1-.04a.11.11 0 0 0 .05-.13.1.1 0 0 0-.03-.05c-.02-.02-.04-.02-.06-.02a.32.32 0 0 0-.08.03.47.47 0 0 1-.1.02c-.04 0-.07-.02-.09-.07a.51.51 0 0 1-.03-.17 3.36 3.36 0 0 1 .26-1.19c.03-.09.04-.19.04-.3-.01-.06-.03-.09-.06-.1zm-4.73.09c-.06 0-.08.04-.08.1l.01.07c.01.03.03.04.06.04h.02c.04-.01.07-.05.07-.1s-.02-.1-.07-.11h-.01zm12.41.04l-.04.26c-.15.66-.22 1-.23 1.16-.03.26-.1.25-.12-.02-.03-.35.06-.82.21-1.13l.18-.27zm-20.22.16l-.31.04h-.02c-.05 0-.08.04-.08.1 0 .02 0 .05.02.07.01.02.03.04.06.04h.08v.34c.02.45 0 .8-.06 1.05a.23.23 0 0 0-.12.07c-.03.03-.04.07-.02.12.02.05.05.06.1.05 0 .04.02.07.05.08.03.01.06 0 .08-.05a.45.45 0 0 0 .02-.06 5.07 5.07 0 0 0 .24-.03c.04-.02.07-.05.07-.1 0-.06-.03-.1-.07-.12h-.08a.6.6 0 0 0-.1.01 4.67 4.67 0 0 0 .05-1.05v-.34h.04c.08 0 .12-.04.12-.11 0-.05-.02-.09-.07-.11zm19.84.1c.03 0 .02.05-.02.14-.03.07-.08.26-.1.4-.04.18-.08.28-.1.28-.02 0-.04 0-.04.03 0 0-.01.03-.03.03l-.04-.1c0-.16-.04.28-.05.57 0 .15-.01.28-.03.28-.03 0-.06-.18-.06-.35 0-.1-.01-.13-.04-.12-.02 0-.03.1-.04.28 0 .38 0 .4-.04.34a1.02 1.02 0 0 1-.03-.3c0-.13-.01-.25-.03-.26-.05-.03-.04-.13.05-.38.08-.24.16-.37.41-.66.1-.1.16-.16.19-.17zm-15.06.16c-.13-.05-.27.01-.4.18l-.02.03c-.06.07-.12.18-.18.34l-.07.2-.05.2a.45.45 0 0 0 .05.34c.06.11.13.16.22.14a.92.92 0 0 0 .37-.14c.14-.08.23-.2.3-.35.08-.22.1-.42.04-.61a.53.53 0 0 0-.1-.21.35.35 0 0 0-.16-.12zm5.3.12a.27.27 0 0 0-.13.03.81.81 0 0 0-.25.2c-.09.1-.16.22-.22.34-.07.13-.11.25-.13.36a.5.5 0 0 0 .04.3c.04.1.13.15.26.16.2.03.47-.02.78-.14a.11.11 0 0 0 .05-.13c-.02-.06-.05-.08-.1-.07-.13.06-.27.1-.44.13-.22.04-.36.02-.43-.06s-.03-.23.1-.45c.18-.03.3-.07.39-.13.06-.04.1-.09.15-.15a.38.38 0 0 0 .07-.2c0-.08-.01-.13-.04-.16a.18.18 0 0 0-.1-.03zm3.43 0a.27.27 0 0 0-.13.03.81.81 0 0 0-.25.2c-.08.1-.16.22-.22.34-.07.13-.1.25-.13.36a.5.5 0 0 0 .04.3c.04.1.13.15.26.16.21.03.47-.02.78-.14a.11.11 0 0 0 .05-.13c-.02-.06-.05-.08-.1-.07-.13.06-.27.1-.43.13-.23.04-.37.02-.44-.06-.06-.08-.03-.23.11-.45.17-.03.3-.07.38-.13.06-.04.1-.09.15-.15a.38.38 0 0 0 .07-.2c0-.08 0-.13-.04-.16a.18.18 0 0 0-.1-.03zm-6.62 0c-.1-.01-.23.08-.41.28a2.41 2.41 0 0 0-.37.54l-.02.06V21.5c0-.14-.02-.24-.07-.29-.03-.02-.05-.02-.09-.01-.03.01-.07.05-.12.12a.9.9 0 0 0-.13.26l-.08.33a5.06 5.06 0 0 0-.09-.63c-.07-.17-.2-.2-.36-.09-.04.05-.05.1-.03.14 0 .02.02.04.03.05l.05.01.07-.05c.03-.02.06-.03.08-.01.05.04.09.23.1.56a21.25 21.25 0 0 1 .04.65c.02.07.06.1.12.05a.85.85 0 0 0 .09-.26 10.14 10.14 0 0 0 .11-.6c.03-.11.07-.2.13-.28l-.01.44v.45c0 .05.02.08.04.1l.09-.01a.7.7 0 0 0 .12-.23l.06-.19a1.46 1.46 0 0 1 .49-.66c.2-.15.3-.1.33.13.02.14.01.29-.04.44-.06.16-.15.27-.25.3-.05.03-.06.08-.05.14.01.06.04.08.1.07.14-.04.25-.17.33-.4.04-.1.06-.2.07-.3.02-.11.01-.21 0-.3a.57.57 0 0 0-.1-.25.33.33 0 0 0-.23-.13zm-2.21.08c.06-.02.12 0 .17.07.04.06.07.15.07.27 0 .12-.02.22-.06.3a.74.74 0 0 1-.34.33.33.33 0 0 1-.16.04.17.17 0 0 1-.08-.02.19.19 0 0 0-.04-.03.39.39 0 0 0-.02-.08v-.08c.01-.14.05-.29.12-.44.08-.17.17-.26.27-.28.03-.01.06-.04.07-.08zm-3.57.04a.84.84 0 0 1-.13.02c-.08 0-.17.07-.26.2-.13.2-.25.41-.37.66v-.2c.03-.28.03-.49-.01-.6-.03-.06-.07-.07-.1-.04l-.04.02c-.02.02-.03.05-.02.09 0 .04.01.06.04.08a22 22 0 0 0-.02.55c0 .16.01.3.04.4.04.05.07.06.12.02l.14-.25a6.34 6.34 0 0 1 .3-.55.46.46 0 0 1 .2-.17c.14-.06.22-.02.26.13a.7.7 0 0 1 0 .22 1.21 1.21 0 0 1-.16.46.36.36 0 0 1-.13.13c-.04.02-.06.06-.05.12 0 .03.02.05.03.06.02.02.04.02.07 0l.07-.01c.06-.02.13-.13.22-.32.05-.12.08-.24.1-.37.04-.3-.02-.5-.17-.63a.13.13 0 0 0-.13-.02zm2.46 0a.84.84 0 0 1-.13.02c-.09 0-.18.07-.27.2-.13.2-.25.41-.36.66v-.2c.03-.28.02-.49-.02-.6-.03-.06-.06-.07-.1-.04l-.04.02c-.02.02-.02.05-.02.09 0 .04.02.06.04.08a22 22 0 0 0-.02.55c0 .16.01.3.05.4.03.05.07.06.11.02l.15-.25a6.33 6.33 0 0 1 .29-.55.46.46 0 0 1 .2-.17c.14-.06.23-.02.26.13a.7.7 0 0 1 0 .22 1.21 1.21 0 0 1-.16.46.36.36 0 0 1-.12.13c-.05.02-.07.06-.05.12 0 .03.01.05.03.06.02.02.04.02.06 0l.07-.01c.06-.02.14-.13.22-.32.05-.12.08-.24.1-.37.04-.3-.01-.5-.17-.63a.13.13 0 0 0-.12-.02zm4.14 0c-.03-.02-.07 0-.09.06-.03.11-.05.23-.06.35l-.05.36-.04.22-.04.21c-.02.08 0 .12.04.14.05.02.08 0 .1-.07l.1-.57.1-.58c0-.06-.01-.1-.06-.12zm1.16 0a.86.86 0 0 1-.13.02c-.09 0-.18.07-.27.2-.12.2-.24.41-.36.66v-.2c.03-.28.03-.49-.01-.6-.03-.06-.07-.07-.11-.04l-.04.02c-.02.02-.02.05-.02.09 0 .04.02.06.04.08a22 22 0 0 0-.02.55c0 .16.02.3.05.4.03.05.07.06.11.02.06-.07.1-.16.15-.25a6.33 6.33 0 0 1 .29-.55.46.46 0 0 1 .2-.17c.15-.06.23-.02.26.13a.7.7 0 0 1 0 .22 1.2 1.2 0 0 1-.15.46.36.36 0 0 1-.13.13c-.05.02-.06.06-.05.12 0 .03.02.05.03.06.02.02.04.02.06 0l.07-.01c.07-.02.14-.13.22-.32.05-.12.09-.24.1-.37.05-.3 0-.5-.16-.63a.13.13 0 0 0-.13-.02zm5.31 0c-.04-.02-.07 0-.1.06l-.05.35-.05.36-.04.22-.04.21c-.02.08 0 .12.04.14.05.02.08 0 .1-.07l.1-.57c.02-.2.06-.39.1-.58 0-.06-.02-.1-.06-.12zm-4.14.1a.45.45 0 0 1-.23.2c.1-.12.19-.19.23-.2zm3.43 0a.45.45 0 0 1-.23.2c.11-.12.19-.19.23-.2zm-1.46.2l.03.03.02.01-.02.04-.05.14c-.14.3-.23.49-.3.54l.04-.2c.07-.28.16-.46.28-.56zm6.91.36c.02 0 .02.1 0 .22-.01.28.05.31.08.03.02-.24.07-.25.07-.01 0 .1.02.29.05.42.03.16.04.3.03.4-.03.22-.07.18-.12-.1l-.05-.23.02.32c0 .17.03.36.05.4.03.1.02.11-.06.23a.6.6 0 0 1-.12.14c-.03 0-.16-.34-.16-.44 0-.04 0-.07-.03-.08-.07-.04-.02.33.08.56l-.01.05c-.05 0-.25-.4-.28-.58a5.76 5.76 0 0 1-.04-.45c-.02-.28-.02-.3.05-.4.07-.1.07-.12.12-.07.02.03.02.04 0 .03-.03-.02-.04.01-.04.14 0 .09.02.17.03.18.02.01.03-.01.03-.06l.03-.2a2 2 0 0 1 .27-.5zm-1.17.94s0 .12-.03.24c-.03.23-.02.42.04.87.04.3.1.47.28.76l.14.22-.1.21c-.15.32-.14.32-.26.14-.3-.5-.51-1.1-.51-1.47 0-.26.1-.52.28-.8.08-.1.15-.18.16-.17zm4.58.77a5.77 5.77 0 0 0-.32.4c-.2.26-.8.8-1.07.98-.06.04-.36.17-.65.3a7.3 7.3 0 0 0-.62.25c-.17.08-.13.02.04-.08l.27-.18c.05-.05.2-.12.31-.17l.24-.1c.02-.04-.03-.03-.18.03-.16.07-1.07.34-1.1.32l.15-.1c.08-.04.14-.08.14-.1 0 0-.16.07-.33.17l-.32.15a4.66 4.66 0 0 1 1.8-.82 5.33 5.33 0 0 0-1.47.4c0-.02 0-.03.02-.04l.28-.17c.13-.1.27-.17.31-.19.03 0 .1-.04.14-.08.05-.05.17-.1.37-.14.17-.04.28-.08.24-.08-.1-.02-.67.11-1.03.23a1.7 1.7 0 0 1-.35.11l.22-.13c.26-.14.55-.22.87-.28.14-.02.21-.04.2-.06-.01-.02 0-.03.02-.01.09.06.33 0 .84-.18.67-.25.65-.24.8-.34.1-.07.16-.1.18-.1zm-1.03.24c.07 0 .08 0 .08.02 0 .05-.33.15-.7.22a.9.9 0 0 0-.22.05 2.6 2.6 0 0 1-.78-.02c-.14-.04-.17-.1-.06-.1.04 0 .09-.01.1-.03.04-.03.04-.03.03 0-.03.04.01.04.22.02.14-.01.32-.02.4-.01.08 0 .28-.03.46-.06l.47-.1zm-17.94.65h-.05l-.04.05a2.45 2.45 0 0 0-.02.17l-.07.37a3.6 3.6 0 0 0-.07.4l-.25.1c-.04.03-.05.07-.04.13.01.06.04.08.1.07l.16-.07c-.02.2-.05.39-.09.57-.03.18-.07.36-.14.55 0 .06 0 .1.04.13s.07.01.1-.04c.07-.2.12-.41.16-.62l.1-.64.27-.07c.04-.01.06-.03.07-.06a.13.13 0 0 0 .02-.07.11.11 0 0 0-.03-.07.07.07 0 0 0-.06-.02l-.25.07.02-.07a18.8 18.8 0 0 1 .13-.75v-.02c0-.06-.02-.1-.06-.11zm6.32 0h-.05l-.04.05a2.45 2.45 0 0 0-.02.17l-.07.37c-.04.14-.06.28-.07.4l-.25.1c-.04.03-.06.07-.05.13.02.06.05.08.1.07l.17-.07-.09.57c0 .05-.03.1-.04.16a.78.78 0 0 1-.34.05c-.06-.02-.1-.06-.1-.13a.7.7 0 0 1 .01-.26l.09-.36c0-.04 0-.07-.02-.1-.02-.02-.04-.03-.07-.02a.1.1 0 0 0-.06.03l-.05.05c.02-.08 0-.14-.04-.18a.1.1 0 0 0-.08-.02c-.03 0-.07.03-.14.09a3.58 3.58 0 0 0-.37.45l-.07.16a.62.62 0 0 0-.03.19c0 .06 0 .11.04.15.03.03.06.05.1.06.05 0 .1 0 .14-.03a.23.23 0 0 0 .1-.05l.06-.09a4.94 4.94 0 0 0 .26-.37.96.96 0 0 0-.01.45c.02.06.05.1.1.14.05.04.12.06.2.05.08 0 .15-.02.22-.03l-.04.16c-.01.06 0 .1.04.13.03.03.07.01.1-.04.07-.2.12-.41.15-.62l.1-.64.27-.07c.04-.01.07-.03.08-.06a.13.13 0 0 0 .02-.07.11.11 0 0 0-.03-.07.07.07 0 0 0-.06-.02l-.25.07.02-.07.06-.37c.03-.13.05-.25.06-.38l.01-.02c0-.06-.02-.1-.06-.11zm-4.5.3c-.05 0-.08.04-.08.1 0 .03 0 .05.02.07.01.02.03.04.06.04h.01c.05-.01.07-.05.07-.1 0-.06-.02-.1-.06-.11h-.02zm2.35.29l-.21.02c-.3 0-.5.1-.6.27a.33.33 0 0 0-.03.1l-.01.08c0 .03 0 .07.03.1.08.08.26.18.55.3.25.11.4.2.43.28-.06.15-.2.23-.44.23a3.9 3.9 0 0 1-.58-.06c-.02 0-.03.01-.06.04v.12c.02.04.06.07.14.08a.4.4 0 0 0 .1.01 1.53 1.53 0 0 0 .6-.01c.23-.06.36-.19.4-.4.01-.08-.02-.16-.09-.24a.5.5 0 0 0-.09-.08 1.47 1.47 0 0 0-.27-.13l-.27-.1c-.12-.05-.21-.1-.29-.17v-.01c.11-.1.22-.15.33-.18a.6.6 0 0 1 .16-.02l.2-.02c.04 0 .07-.04.07-.1a.12.12 0 0 0-.07-.11zm-6.09.17c-.13-.05-.26.01-.4.18l-.01.03c-.07.07-.13.18-.2.34l-.05.2-.06.2a.45.45 0 0 0 .05.34c.06.11.14.16.22.14a.91.91 0 0 0 .38-.14c.13-.09.23-.2.28-.35.1-.22.11-.42.06-.61a.52.52 0 0 0-.1-.21.35.35 0 0 0-.17-.12zm-.1.2c.07-.02.12 0 .17.07.05.06.07.15.07.27 0 .12-.02.22-.06.3a.75.75 0 0 1-.33.33.33.33 0 0 1-.16.04.17.17 0 0 1-.08-.02.18.18 0 0 0-.05-.03.39.39 0 0 0-.02-.08.2.2 0 0 1 0-.09c.01-.14.06-.28.13-.43.08-.17.17-.26.27-.28.03-.01.05-.04.06-.08zm2.48.03c-.02 0-.03.01-.05.04-.03.03-.03.07-.01.13.04.07.05.27.02.6a25.09 25.09 0 0 1-.05.76c0 .07.03.1.08.11.04-.01.07-.04.08-.08a1.56 1.56 0 0 1 .42-.82c.11-.12.3-.25.58-.39a.11.11 0 0 0 .04-.13c-.01-.05-.04-.08-.09-.07-.2.1-.37.22-.53.34-.16.13-.29.3-.39.5l.01-.18v-.06l.01-.14.01-.27a.57.57 0 0 0-.07-.3c-.02-.03-.04-.04-.06-.04zm1.27 0c-.04-.01-.07.01-.1.07l-.06.35a8.95 8.95 0 0 1-.1.58l-.03.21c-.01.08 0 .12.05.14.04.02.07 0 .1-.07l.1-.57c.02-.2.06-.39.1-.58 0-.07-.02-.1-.06-.12zm7.03 0a.86.86 0 0 1-.13.03c-.1 0-.18.07-.27.2-.13.2-.25.41-.36.66v-.2a1.7 1.7 0 0 0-.02-.6c-.03-.06-.06-.08-.1-.05l-.04.03c-.02.02-.03.05-.02.08 0 .04.02.07.04.09a22.53 22.53 0 0 0-.02.55l.02.18c-.09.02-.18.05-.23.04a.15.15 0 0 1-.11-.13.7.7 0 0 1 .02-.26l.09-.36c0-.04 0-.07-.02-.1-.02-.02-.04-.03-.07-.02a.1.1 0 0 0-.06.03l-.05.05c.02-.08 0-.14-.04-.18a.1.1 0 0 0-.07-.02c-.04 0-.08.03-.15.09a3.58 3.58 0 0 0-.37.45l-.07.16a.62.62 0 0 0-.03.19c0 .06 0 .11.04.15.03.03.07.05.1.06.05 0 .1 0 .14-.03a.24.24 0 0 0 .1-.05l.06-.09a5.87 5.87 0 0 0 .26-.37.96.96 0 0 0-.01.45c.02.06.05.1.1.14.05.04.12.06.2.05.07 0 .13-.02.2-.03.03.05.07.05.1.02.06-.07.11-.16.16-.25a6.25 6.25 0 0 1 .29-.55.47.47 0 0 1 .2-.17c.14-.06.23-.02.26.12v.23a1.2 1.2 0 0 1-.16.46.36.36 0 0 1-.13.12c-.04.03-.06.07-.04.13 0 .03 0 .05.02.06.02.02.04.02.07 0l.07-.01c.06-.02.14-.13.22-.32.05-.12.08-.24.1-.37.04-.3-.01-.5-.17-.63a.13.13 0 0 0-.12-.02zm1.08.02c-.03 0-.08.03-.15.09a3.36 3.36 0 0 0-.37.45l-.07.16a.62.62 0 0 0-.03.19c0 .06.01.11.04.15.03.03.07.05.1.06.05 0 .1 0 .14-.03a.24.24 0 0 0 .1-.05l.06-.09a4.94 4.94 0 0 0 .26-.37.96.96 0 0 0-.01.45c.02.06.05.1.1.14.05.04.11.05.2.05-.02.01-.05.02-.05.05-.01.05 0 .1.05.12.14.04.3.04.46-.01a1 1 0 0 0 .42-.24.25.25 0 0 0 .03-.1.5.5 0 0 0-.2-.31.64.64 0 0 0-.16-.1.65.65 0 0 1-.15-.1c.07-.06.16-.11.26-.16.06-.03.12-.03.17 0 .04.02.08 0 .1-.08 0-.03 0-.07-.04-.11-.16-.08-.36-.01-.62.21a.15.15 0 0 0-.04.12c.01.08.04.14.07.19a.74.74 0 0 0 .3.21l.14.1a.45.45 0 0 1-.15.1c-.1.05-.2.05-.3.06.03-.01.06-.03.07-.05a.13.13 0 0 0 .01-.08.11.11 0 0 0-.02-.06.07.07 0 0 0-.07-.02.77.77 0 0 1-.33.05.15.15 0 0 1-.12-.13.7.7 0 0 1 .03-.26l.08-.36c0-.04 0-.07-.02-.1-.02-.02-.04-.03-.07-.02a.1.1 0 0 0-.06.03l-.05.05c.02-.08 0-.14-.03-.18a.1.1 0 0 0-.08-.02zm-10.7.13c-.14 0-.3.08-.5.24a.15.15 0 0 0-.03.12c.01.08.03.14.07.19a.74.74 0 0 0 .3.21l.14.1a.92.92 0 0 1-.71.17c-.05.01-.08.04-.09.1 0 .04.01.08.05.11.14.04.3.04.47-.01a1 1 0 0 0 .42-.24.25.25 0 0 0 .03-.1.5.5 0 0 0-.2-.31.64.64 0 0 0-.16-.1.65.65 0 0 1-.15-.1c.07-.06.15-.11.26-.16.06-.03.12-.03.17 0 .04.02.07 0 .1-.08 0-.03 0-.07-.04-.11a.3.3 0 0 0-.13-.03zm6 .2c.01.03.03.04.06.04l.06-.02-.1.2c-.14.25-.26.36-.37.32a.72.72 0 0 1 .14-.3c.07-.1.14-.17.2-.24zm2.06 0c.01.03.03.04.06.04l.06-.02-.1.2c-.14.25-.26.36-.37.32a.72.72 0 0 1 .14-.3c.07-.1.14-.17.2-.24zm2.52 0c.01.03.04.04.06.04l.07-.02-.12.2c-.13.25-.25.36-.35.32a.73.73 0 0 1 .14-.3c.07-.1.13-.17.2-.24zm7.82.14c0 .02-.02.05-.1.11-.07.07-.25.18-.4.25-.14.08-.24.14-.2.14.03 0 .15-.05.27-.1a.9.9 0 0 1 .22-.1c0 .02-.11.18-.25.37-.22.3-.27.37-.47.5a5 5 0 0 1-2 .7l.15-.1c.18-.13.15-.17-.04-.07a.52.52 0 0 1-.13.05c-.02-.02.11-.15.3-.3.31-.22.18-.17-.27.11-.1.06-.09.06.01-.06.16-.16.46-.35.95-.58.45-.22.54-.3.21-.18a4.1 4.1 0 0 0-1.27.76c-.1.08-.16.12-.16.1 0-.08.35-.5.53-.64.22-.17.16-.17-.11.01l-.23.14v-.08a2.69 2.69 0 0 1 1.91-.78 5.4 5.4 0 0 0 1.08-.25zm-3.22.77c.03.01-.01.2-.12.53l-.28.89-.32 1c-.19.66-.24.8-.28.76a4.5 4.5 0 0 1 .28-1.1l.23-.73c.15-.51.39-1.21.44-1.3l.05-.05zm-13.4 1.79c-.04-.02-.06 0-.1.02-.12.3-.25.65-.36 1.07a2.6 2.6 0 0 1-.22.35l-.09.12c-.05.07-.1.11-.13.12-.04.03-.06.06-.05.12 0 .05.03.08.07.09.06-.01.1-.04.15-.1.05-.05.1-.1.13-.15l-.02.08-.02.08a.99.99 0 0 0-.1.07.12.12 0 0 0-.04.13c.02.05.04.07.08.06l-.1.47a15.51 15.51 0 0 1-.22 1.04c-.03.2-.09.38-.16.55-.03.04-.03.08-.02.15v.01c.03.03.05.04.08.04.02 0 .04-.02.06-.05a5.36 5.36 0 0 0 .25-.92l.07-.36a19.53 19.53 0 0 0 .23-1.04.9.9 0 0 1 .28-.09c.1-.01.18-.03.24-.05.06-.01.1-.04.1-.06a.13.13 0 0 0 .02-.08.11.11 0 0 0-.03-.06.06.06 0 0 0-.06-.02l-.25.05-.24.07a12.2 12.2 0 0 0 .12-.49 3 3 0 0 0 .37-1.1l.01-.03c0-.05-.03-.08-.06-.1zm8.8.52c-.02-.01-.05 0-.07.05l-.05.15a1.76 1.76 0 0 1-.1.3l-.23.54-.25.59-.05.1-.04.1c-.02 0-.03 0-.05.03v.11c.02.06.05.08.1.07.05-.02.1-.08.13-.19l.05-.13.04-.1c.04-.08.07-.14.08-.19-.03.3-.02.56.04.8.02.06.06.08.1.06.05-.03.06-.08.05-.15-.03-.1-.05-.22-.05-.34a3.2 3.2 0 0 1 .21-1.17l.03-.09a.64.64 0 0 0 .03-.06l.02-.06c.05-.12.08-.24.09-.34-.01-.05-.04-.08-.07-.08zm-9.95 0c-.05.01-.08.05-.08.1 0 .04 0 .06.02.08.01.02.03.04.06.04h.01c.05-.01.07-.05.07-.1s-.02-.1-.06-.11h-.02zm3.75 0c-.05.01-.08.05-.08.1 0 .04 0 .06.02.08.01.02.03.04.06.04h.01c.05-.01.07-.05.07-.1s-.02-.1-.06-.11h-.02zm7.73 0c-.05.01-.08.05-.08.1l.01.08c.02.02.04.04.07.04h.01c.05-.01.07-.05.07-.1s-.02-.1-.07-.11h-.01zm-14.87.14c-.04-.02-.07 0-.1.06a13.95 13.95 0 0 0-.18 1.1c-.03.22-.1.46-.2.74-.02.05-.02.09 0 .12.02.04.05.05.1.04l.15-.1a.96.96 0 0 1 .45-.12h.08c.18 0 .28-.02.3-.07.04-.05.04-.1.01-.15-.03-.05-.07-.05-.11 0h-.07c-.3 0-.53.03-.69.1.08-.25.13-.52.17-.79l.14-.8c0-.07-.01-.11-.05-.13zm5.32.45a.27.27 0 0 0-.12.03.81.81 0 0 0-.26.2c-.08.1-.15.22-.22.34-.06.12-.1.24-.12.36-.02.12-.01.22.03.3.04.1.13.14.26.16.21.03.48-.02.79-.14.04-.03.05-.08.04-.13-.01-.06-.04-.08-.09-.07-.13.06-.28.1-.44.13-.22.04-.37.02-.43-.06-.07-.08-.03-.23.1-.45.17-.03.3-.07.38-.13a.52.52 0 0 0 .15-.15.38.38 0 0 0 .07-.2c0-.08 0-.13-.03-.16a.18.18 0 0 0-.11-.03zm3.77 0a.27.27 0 0 0-.12.03.81.81 0 0 0-.26.2c-.08.1-.15.22-.22.34-.06.12-.1.24-.12.36-.02.12 0 .22.03.3.05.1.14.14.27.16.2.03.47-.02.78-.14a.11.11 0 0 0 .04-.13c0-.06-.04-.08-.09-.07-.13.06-.28.1-.44.13-.22.04-.36.02-.43-.06s-.03-.23.1-.45c.17-.03.3-.07.38-.13.06-.04.11-.09.15-.15a.38.38 0 0 0 .07-.2c0-.08 0-.13-.03-.16a.18.18 0 0 0-.1-.03zm3.06 0a.27.27 0 0 0-.12.03.81.81 0 0 0-.25.2c-.09.1-.16.22-.23.34-.06.12-.1.24-.12.36v.1c0-.01-.01-.02-.03-.02l-.15.05-.22.05c-.19.03-.3 0-.36-.1 0-.07.03-.13.06-.2.08-.17.2-.3.33-.38.03.02.06.02.1 0a.33.33 0 0 0 .03-.08v-.1a.1.1 0 0 0-.06-.05c-.1 0-.2.06-.33.2-.13.13-.21.28-.26.44-.05.17-.03.31.07.4.1.1.25.13.42.1l.42-.13v-.02l.01.05c.05.08.14.13.27.15.2.03.47-.02.78-.14a.11.11 0 0 0 .04-.13c0-.06-.04-.08-.09-.07-.13.06-.28.1-.44.13-.22.04-.36.02-.43-.06s-.03-.23.1-.45c.18-.03.3-.07.38-.13a.52.52 0 0 0 .15-.15.38.38 0 0 0 .07-.2c.01-.08 0-.13-.03-.16a.18.18 0 0 0-.1-.03zm-6.37.11c-.02 0-.03.01-.05.04-.02.03-.03.07-.01.13.04.07.05.28.02.61 0 .14-.02.27-.03.41a5.6 5.6 0 0 0-.02.34c0 .07.03.1.08.11a.12.12 0 0 0 .08-.08 1.57 1.57 0 0 1 .42-.82c.11-.12.3-.24.58-.39a.11.11 0 0 0 .04-.13c-.01-.05-.04-.08-.09-.07-.2.1-.37.22-.53.34-.16.13-.29.3-.39.5l.01-.18a.57.57 0 0 0-.05-.78l-.06-.03zm-2.48 0c-.04-.01-.07 0-.1.07l-.06.35c0 .12-.02.24-.04.35v.01l-.03.15-.01-.01c-.02-.02-.04-.03-.07-.02l-.15.05-.22.05c-.19.03-.3 0-.36-.1 0-.07.03-.13.06-.2.08-.17.2-.3.34-.38.02.02.05.02.09 0a.33.33 0 0 0 .03-.08v-.1a.1.1 0 0 0-.06-.05c-.1 0-.2.06-.33.2-.13.13-.21.28-.26.44l-.01.15-.02-.02c-.02 0-.04 0-.08.03a3.67 3.67 0 0 1-.43.27c-.04.02-.06.02-.08 0a.23.23 0 0 1-.02-.12l.03-.18.06-.27c.02-.11.03-.2.01-.24-.02-.04-.05-.06-.08-.05a.32.32 0 0 0-.11.13c-.04.06-.1.2-.18.4-.11.29-.23.4-.35.36-.03-.1-.01-.25.05-.46l.08-.25.07-.18v-.1c0-.03-.02-.05-.03-.06-.05-.02-.08 0-.1.06a4.98 4.98 0 0 0-.23.8.5.5 0 0 0 0 .22c.04.15.12.21.23.2.13-.01.26-.17.4-.47 0 .15.01.27.06.36.05.1.17.1.37 0l.36-.26v-.04c.02.04.03.09.07.12.1.1.25.13.42.1l.41-.13-.02.11c0 .08 0 .12.05.14.04.02.08 0 .1-.07l.1-.58c.02-.19.06-.38.1-.57 0-.07-.02-.1-.06-.12zm3.75 0c-.04-.01-.07 0-.1.07l-.06.35c0 .12-.03.24-.05.35v.01c0 .07-.02.14-.04.22l-.04.21c0 .08 0 .12.05.14.04.02.08 0 .1-.07l.1-.58c.02-.19.05-.38.1-.57 0-.07-.02-.1-.06-.12zm7.73 0c-.04-.01-.07 0-.1.07l-.06.35-.05.35v.01l-.04.22-.04.21c-.01.08 0 .12.05.14.04.02.07 0 .1-.07l.09-.58.1-.57c0-.07-.01-.1-.05-.12zm-9.5.1a.44.44 0 0 1-.22.2c.1-.11.18-.18.23-.2zm3.78 0a.44.44 0 0 1-.23.2c.1-.11.18-.18.23-.2zm3.06 0a.44.44 0 0 1-.23.2c.1-.11.18-.18.23-.2zm-2.5.04c-.04 0-.07.04-.08.1v.04c0 .07.03.1.06.12l.05.12.05.13.02.04.03.04c-.1.2-.2.36-.3.47-.03.06-.02.1 0 .14.03.04.07.05.1.02.12-.12.21-.27.3-.46.1.12.22.27.39.45.05.02.08.01.1-.04a.12.12 0 0 0 .02-.08.12.12 0 0 0-.03-.07l-.14-.14a3.63 3.63 0 0 1-.25-.31 17.8 17.8 0 0 0 .19-.42c.02-.06 0-.11-.04-.15-.02-.02-.05-.01-.1.03l-.07.18-.08.18a4.47 4.47 0 0 0-.04-.12c-.05-.17-.11-.26-.18-.27zm4.54 0c-.13 0-.3.08-.49.25a.15.15 0 0 0-.04.12.4.4 0 0 0 .07.2l.14.11.16.1c.05.02.1.06.14.1a.92.92 0 0 1-.71.16c-.04.01-.07.04-.08.1-.01.04 0 .09.05.11a1.01 1.01 0 0 0 .89-.25.25.25 0 0 0 .02-.1.5.5 0 0 0-.2-.31.64.64 0 0 0-.15-.1.65.65 0 0 1-.16-.1c.07-.06.16-.1.26-.16.06-.02.12-.02.17 0 .05.02.08 0 .1-.08.01-.03 0-.07-.04-.11a.3.3 0 0 0-.13-.03zm1.79 1.29c.17 0 .31.01.3.03 0 .02-.1.04-.24.04-.25 0-.5.03-.59.06-.07.03-.05.15.04.2.1.05.72.14.96.14.31 0 .68-.1.73-.19.02-.05.01-.07-.07-.15l-.1-.1.14.03c.2.02.45.12.49.17.04.07-.02.14-.16.16l-.1.03.18.18.17.18-.19-.18-.18-.17-.26.05a5.4 5.4 0 0 1-1.27.08c-.4-.05-.99-.21-.99-.27 0-.09.35-.23.65-.27.12-.02.32-.02.49-.02zm.72 1.16c.05 0 .06 0 .05.07-.03.1 0 .1.1 0 .13-.1.14-.07.03.09-.12.16-.06.18.09.03.15-.16.19-.08.05.1-.16.2-.14.26.01.08.15-.16.24-.17.16-.02-.06.12-.06.13.02.1.08-.05.1-.02.06.07-.07.13 0 .12.13-.01s.2-.14.2-.04c0 .06-.06.12-.12.12-.02 0-.1.04-.17.1-.12.08-.13.08-.24.04-.15-.07-.22-.06-.33.02-.12.1-.07.16.1.11.2-.05.21-.03.09.1-.11.14-.23.2-.35.2-.07 0-.1-.02-.15-.1a.63.63 0 0 1-.06-.12s.05-.02.12-.02c.1 0 .12 0 .12-.05l.04-.12c.1-.1.05-.14-.05-.04-.06.05-.1.1-.12.1-.04 0-.02-.1.04-.14.08-.07.07-.1 0-.1-.1.01-.11-.06-.07-.26.04-.18.15-.31.25-.31zm-2.05.83l.02.08c.01.06.07.12.15.17.08.05.16.08.23.08.13 0 .2.05.14.12-.08.11-.46.3-.74.37-.35.1-.7.15-.85.14-.1-.01-.12-.02-.13-.08 0-.06.04-.1.26-.24l.6-.4.32-.24zm3.1 1.5c.02.02 0 .04-.02.08-.07.1-.03.12.1.03a.64.64 0 0 1 .11-.08c.03 0 0 .06-.05.12-.1.12-.06.16.05.06.12-.1.14-.1.2-.04l.12.09c.07.04.1.04.16 0 .06-.05.08-.05.09-.01l.01.07c-.01.07.01.07.1 0 .07-.07.1-.08.12-.06.03.03.02.05-.03.1-.08.08-.1.08-.66.03a2.5 2.5 0 0 0-1.02.1c-.12.02-.22.05-.23.04-.02-.02.33-.35.37-.35.03 0 0 .04-.07.12-.07.08-.1.12-.07.13.02.02.04.02.05 0 .04-.05.42-.37.44-.37.01 0 0 .04-.03.08-.1.15.02.12.18-.05a.46.46 0 0 1 .09-.08zm-4.86.03l.38.15c.5.2.5.2.85.48.25.2.3.25.27.28-.04.06-.08.06-.17-.01-.15-.1-.83-.45-1.1-.56a1.27 1.27 0 0 1-.3-.15c-.06-.07-.05-.15.01-.17l.06-.02zm1.33.06c.03 0 .09.05.15.11a.6.6 0 0 1 .17.46c0 .2-.03.19-.25 0-.27-.24-.26-.22-.18-.3.07-.07.1-.15.05-.15l-.11.07c-.05.04-.11.06-.13.05-.04-.02.24-.24.3-.24zm-.32.89c.02 0 .04.02.04.03a.7.7 0 0 1-.12.15c-.15.15-.1.17.06.04.1-.09.18-.12.18-.07l-.12.13c-.17.15-.13.17.06.04.12-.08.17-.1.2-.07.02.02-.02.08-.18.22-.23.22-.22.22.06.04.13-.1.17-.11.2-.08.03.06.03.1-.03.11-.06.02-.39.36-.35.36a.8.8 0 0 0 .16-.1c.1-.07.14-.1.17-.07.02.02-.03.1-.2.24-.2.2-.2.23.01.08l.1-.06.05.06c.05.07.05.08.01.11a.12.12 0 0 0-.05.09c0 .05.02.06.1.01.04-.02.05-.02.05.02 0 .02.03.06.06.08.04.02.06.07.06.11 0 .07 0 .07-.06.02-.07-.07-.08-.01-.01.1.02.04.04.1.04.14 0 .06 0 .05-.06 0-.08-.1-.1-.08-.04.04.04.09.04.1-.05.2-.05.05-.08.1-.07.1.02 0 .06-.02.09-.06.06-.06.13-.08.13-.03 0 .02-.04.08-.1.14-.06.07-.07.1-.04.1.08 0 .06.06-.02.1-.04 0-.08.03-.08.05 0 .07-.12.01-.46-.22-.3-.2-.36-.25-.35-.31 0-.06 0-.07-.07-.05-.09.02-.1 0-.03-.08.08-.09.04-.13-.05-.06-.1.09-.14.06-.07-.05.11-.15.12-.17 0-.07-.12.12-.16.1-.1-.03.03-.08.03-.1-.01-.12-.05-.03-.05-.04 0-.12.04-.08.04-.09-.03-.08h-.07v-.59l.01-.58c.01 0 .06.06.11.15.1.17.14.18.1.05 0-.1 0-.1.07-.05s.07.05.07-.04c0-.05.02-.1.04-.1.02-.01.04 0 .04.04 0 .03.02.07.05.09a.1.1 0 0 1 .06.09c0 .04.02.03.12-.02a.47.47 0 0 0 .13-.11c.02-.03.06-.04.09-.04s.05-.02.05-.05c0-.02.02-.03.05-.02zm1.32.08c.4.01.51.03.55.07.04.04.04.05-.01.09a3.3 3.3 0 0 1-1.04 0c-.1-.06-.12-.12-.05-.15.02-.01.26-.02.55 0v-.01zm.03.4c.25 0 .37.02.4.05.03.04.03.06-.07.16a1.8 1.8 0 0 0-.2.23c-.07.12-.12.12-.12-.02 0-.05-.01-.08-.04-.08s-.05.04-.06.15l-.04.46a4 4 0 0 1-.22.87c-.28.83-.3.82-.27-.56 0-.61.02-1.14.04-1.17.04-.09.2-.1.58-.1zm.84.15c.02.07.04.4.05 1.2.02.79 0 1.17 0 1.17-.03 0-.04-.05-.05-.1a43.9 43.9 0 0 1-.03-2.26c0-.03.02-.04.03 0zm-3.26 1.23l.3.25c.44.38 1.02.8 1.18.87.1.04.14.08.14.12 0 .05 0 .05-.08 0a21.12 21.12 0 0 0-1.17-.8c-.41-.26-.5-.36-.42-.41a.33.33 0 0 1 .05-.03zm4.82 1.04c.13-.02.22-.01.2.01-.04.06-1.42.44-1.5.4-.05-.01-.05-.07 0-.14.05-.08.9-.24 1.3-.27z" fill="#1a1a1a"/></svg>