<?xml version="1.0" encoding="UTF-8" standalone="no"?>
<!--Created with Inkscape (http://www.inkscape.org/)-->

<svg
   xmlns:dc="http://purl.org/dc/elements/1.1/"
   xmlns:cc="http://creativecommons.org/ns#"
   xmlns:rdf="http://www.w3.org/1999/02/22-rdf-syntax-ns#"
   xmlns:svg="http://www.w3.org/2000/svg"
   xmlns="http://www.w3.org/2000/svg"
   xmlns:xlink="http://www.w3.org/1999/xlink"
   xmlns:sodipodi="http://sodipodi.sourceforge.net/DTD/sodipodi-0.dtd"
   xmlns:inkscape="http://www.inkscape.org/namespaces/inkscape"
   width="64"
   height="64"
   version="1"
   id="svg122"
   sodipodi:docname="gnome-fs-directory-accept.svg"
   inkscape:version="0.92.4 (5da689c313, 2019-01-14)">
  <sodipodi:namedview
     pagecolor="#ffffff"
     bordercolor="#666666"
     borderopacity="1"
     objecttolerance="10"
     gridtolerance="10"
     guidetolerance="10"
     inkscape:pageopacity="0"
     inkscape:pageshadow="2"
     inkscape:window-width="1112"
     inkscape:window-height="480"
     id="namedview124"
     showgrid="false"
     inkscape:zoom="3.6875"
     inkscape:cx="2.8474576"
     inkscape:cy="32"
     inkscape:window-x="0"
     inkscape:window-y="25"
     inkscape:window-maximized="0"
     inkscape:current-layer="svg122" />
  <metadata
     id="metadata2">
    <rdf:RDF>
      <cc:Work>
        <dc:format>image/svg+xml</dc:format>
        <dc:type
           rdf:resource="http://purl.org/dc/dcmitype/StillImage" />
        <dc:title></dc:title>
      </cc:Work>
    </rdf:RDF>
  </metadata>
  <defs
     id="defs100">
    <linearGradient
       id="h">
      <stop
         offset="0"
         stop-color="#0b2228"
         id="stop4" />
      <stop
         offset="1"
         stop-color="#0b2228"
         stop-opacity="0"
         id="stop6" />
    </linearGradient>
    <linearGradient
       id="g">
      <stop
         offset="0"
         stop-color="#0b2228"
         id="stop9" />
      <stop
         offset="1"
         stop-color="#0b2228"
         stop-opacity="0"
         id="stop11" />
    </linearGradient>
    <linearGradient
       id="c">
      <stop
         offset="0"
         stop-color="#216778"
         id="stop14" />
      <stop
         offset=".27"
         stop-color="#164450"
         id="stop16" />
      <stop
         offset=".29"
         stop-color="#216778"
         id="stop18" />
      <stop
         offset=".49"
         stop-color="#2c89a0"
         id="stop20" />
      <stop
         offset=".71"
         stop-color="#216778"
         id="stop22" />
      <stop
         offset=".73"
         stop-color="#164450"
         id="stop24" />
      <stop
         offset="1"
         stop-color="#216778"
         id="stop26" />
    </linearGradient>
    <linearGradient
       id="b">
      <stop
         offset="0"
         stop-color="#216778"
         id="stop29" />
      <stop
         offset=".18"
         stop-color="#164450"
         id="stop31" />
      <stop
         offset=".19"
         stop-color="#216778"
         id="stop33" />
      <stop
         offset=".49"
         stop-color="#2c89a0"
         id="stop35" />
      <stop
         offset=".8"
         stop-color="#216778"
         id="stop37" />
      <stop
         offset=".81"
         stop-color="#164450"
         id="stop39" />
      <stop
         offset="1"
         stop-color="#216778"
         id="stop41" />
    </linearGradient>
    <linearGradient
       id="i">
      <stop
         offset="0"
         stop-color="#0b2228"
         id="stop44" />
      <stop
         offset="1"
         stop-color="#0b2228"
         stop-opacity="0"
         id="stop46" />
    </linearGradient>
    <linearGradient
       id="f">
      <stop
         offset="0"
         stop-color="#216778"
         id="stop49" />
      <stop
         offset=".12"
         stop-color="#164450"
         id="stop51" />
      <stop
         offset=".15"
         stop-color="#2c89a0"
         id="stop53" />
      <stop
         offset=".49"
         stop-color="#37abc8"
         id="stop55" />
      <stop
         offset=".85"
         stop-color="#2c89a0"
         id="stop57" />
      <stop
         offset=".88"
         stop-color="#164450"
         id="stop59" />
      <stop
         offset="1"
         stop-color="#216778"
         id="stop61" />
    </linearGradient>
    <linearGradient
       id="a">
      <stop
         offset="0"
         stop-color="#333"
         id="stop64" />
      <stop
         offset=".09"
         stop-color="#333"
         id="stop66" />
      <stop
         offset=".11"
         stop-color="#666"
         id="stop68" />
      <stop
         offset=".49"
         stop-color="#4d4d4d"
         id="stop70" />
      <stop
         offset=".88"
         stop-color="#4d4d4d"
         id="stop72" />
      <stop
         offset=".9"
         stop-color="#333"
         id="stop74" />
      <stop
         offset="1"
         stop-color="#333"
         id="stop76" />
    </linearGradient>
    <linearGradient
       xlink:href="#b"
       id="l"
       x1="5.27"
       y1="51.93"
       x2="59.12"
       y2="51.93"
       gradientUnits="userSpaceOnUse" />
    <linearGradient
       xlink:href="#c"
       id="k"
       x1="-.04"
       y1="59.46"
       x2="64.18"
       y2="59.46"
       gradientUnits="userSpaceOnUse" />
    <linearGradient
       id="d">
      <stop
         offset="0"
         stop-color="#f7f7f3"
         id="stop81" />
      <stop
         offset="1"
         stop-color="#e1e1d7"
         id="stop83" />
    </linearGradient>
    <linearGradient
       id="e">
      <stop
         offset="0"
         stop-color="#2e3033"
         id="stop86" />
      <stop
         offset="1"
         stop-color="#424548"
         id="stop88" />
    </linearGradient>
    <linearGradient
       xlink:href="#f"
       id="m"
       x1="7.65"
       y1="24.52"
       x2="56.44"
       y2="24.52"
       gradientUnits="userSpaceOnUse" />
    <linearGradient
       xlink:href="#g"
       id="n"
       x1="13.48"
       y1="63.47"
       x2="13.48"
       y2="26.47"
       gradientUnits="userSpaceOnUse" />
    <linearGradient
       xlink:href="#h"
       id="o"
       x1="5.27"
       y1="55.14"
       x2="5.27"
       y2="48.73"
       gradientUnits="userSpaceOnUse" />
    <linearGradient
       xlink:href="#i"
       id="p"
       x1="-.04"
       y1="63.9"
       x2="-.04"
       y2="55.02"
       gradientUnits="userSpaceOnUse" />
    <linearGradient
       id="j">
      <stop
         offset="0"
         stop-color="#216778"
         id="stop95" />
      <stop
         offset="1"
         stop-color="#5fbcd3"
         id="stop97" />
    </linearGradient>
  </defs>
  <path
     d="M -0.04,55.02 H 64.18 V 63.9 H -0.04 Z"
     id="path102"
     style="fill:url(#k)"
     inkscape:connector-curvature="0" />
  <path
     d="m 5.27,48.73 h 53.86 v 6.42 H 5.27 Z"
     id="path104"
     style="fill:url(#l)"
     inkscape:connector-curvature="0" />
  <path
     d="M 31.46,0.28 C 23.83,0.35 15.93,3.9 7.66,11.94 V 48.77 H 56.42 V 20.21 h 0.02 V 11.94 C 48.4,4.58 40.11,0.19 31.46,0.28 Z"
     id="path106"
     style="fill:url(#m)"
     inkscape:connector-curvature="0" />
  <path
     d="M 31.44,0.28 C 23.8,0.35 15.9,3.9 7.64,11.94 V 48.77 H 56.39 V 20.21 h 0.03 V 11.94 C 48.37,4.58 40.09,0.19 31.44,0.28 Z"
     id="path108"
     style="fill:url(#n)"
     inkscape:connector-curvature="0" />
  <path
     d="m 5.27,48.73 h 53.86 v 6.42 H 5.27 Z"
     id="path110"
     style="fill:url(#o)"
     inkscape:connector-curvature="0" />
  <path
     d="M -0.04,55.02 H 64.18 V 63.9 H -0.04 Z"
     id="path112"
     style="fill:url(#p)"
     inkscape:connector-curvature="0" />
  <g
     id="g120"
     style="fill:#1a1a1a">
    <path
       d="m 38.95,22.17 c -0.18,0.36 -0.19,0.48 -0.07,0.8 0.14,0.39 0.03,0.76 -0.24,0.86 -0.08,0.03 -0.1,0.1 -0.04,0.2 0.05,0.08 0.1,0.3 0.13,0.5 0.01,0.2 0.09,0.69 0.16,1.08 0.15,0.78 0.1,1.24 -0.17,1.77 -0.23,0.42 -0.22,0.47 0.08,0.75 0.13,0.13 0.2,0.23 0.12,0.23 -0.18,0 -0.3,0.89 -0.16,1.07 0.32,0.37 0.22,3.3 -0.13,4.22 -0.15,0.38 -0.16,0.58 -0.03,0.9 0.08,0.18 0.1,0.18 0.25,-0.04 0.1,-0.13 0.14,-0.28 0.1,-0.32 -0.02,-0.05 0,-0.26 0.05,-0.48 l 0.1,-0.4 -0.02,0.48 c -0.01,0.56 0.07,0.68 0.3,0.48 0.16,-0.15 0.12,-0.6 -0.04,-0.5 -0.04,0.03 -0.03,-0.16 0.03,-0.44 0.18,-0.78 0.12,-3.47 -0.08,-3.79 -0.23,-0.35 -0.23,-0.34 0.21,-0.33 0.37,0.01 0.39,-0.01 0.39,-0.3 -0.01,-0.26 -0.07,-0.32 -0.26,-0.32 -0.15,0 -0.3,-0.08 -0.33,-0.19 -0.12,-0.3 -0.07,-0.34 0.1,-0.12 0.13,0.17 0.23,0.2 0.54,0.12 l 0.37,-0.08 -0.4,-0.09 a 8.4,8.4 0 0 0 -0.67,-0.15 c -0.49,-0.1 -0.42,-0.21 0.1,-0.14 0.29,0.03 0.62,0.02 0.74,-0.04 0.13,-0.05 0.16,-0.1 0.1,-0.1 a 0.17,0.17 0 0 1 -0.15,-0.17 c 0,-0.1 -0.1,-0.34 -0.23,-0.55 a 2.7,2.7 0 0 1 -0.29,-0.82 6.88,6.88 0 0 0 -0.23,-0.89 c -0.18,-0.49 -0.22,-1.11 -0.07,-1.11 0.13,0.01 0.54,0.4 0.7,0.65 0.06,0.13 0.13,0.49 0.13,0.8 l 0.02,0.54 0.08,-0.63 c 0.03,-0.34 0.03,-0.64 -0.01,-0.68 a 0.84,0.84 0 0 1 -0.16,-0.37 c -0.06,-0.22 -0.16,-0.31 -0.32,-0.31 -0.28,0 -0.12,-0.2 0.2,-0.25 0.17,-0.02 0.22,0.02 0.2,0.13 -0.03,0.13 -0.01,0.14 0.1,0.04 0.1,-0.1 0.07,-0.18 -0.11,-0.37 -0.2,-0.2 -0.24,-0.21 -0.33,-0.04 -0.06,0.09 -0.17,0.16 -0.25,0.12 -0.18,-0.05 -0.17,-1.42 0,-1.64 0.07,-0.06 0.08,-0.17 0.03,-0.22 -0.04,-0.06 -0.02,-0.05 0.06,0.02 0.21,0.18 0.28,0.75 0.11,0.85 -0.1,0.07 -0.1,0.1 0,0.1 0.06,0 0.1,0.12 0.07,0.26 -0.04,0.24 -0.04,0.25 0.06,0.03 0.17,-0.35 0.15,-1 -0.06,-1.29 -0.26,-0.37 -0.56,-0.31 -0.78,0.17 z M 35.4,23.3 c -0.14,0.2 -0.17,0.41 -0.11,0.89 0.07,0.49 0.05,0.68 -0.1,0.91 -0.15,0.23 -0.17,0.42 -0.12,0.83 0.07,0.51 0.1,1.29 0.08,3.38 0,0.5 0.04,1 0.1,1.12 0.06,0.11 0.17,0.8 0.23,1.51 0.1,1.13 0.1,1.38 -0.06,1.88 -0.29,0.86 -0.22,1 0.56,1.06 0.14,0.01 0.23,-0.04 0.23,-0.15 0,-0.1 -0.08,-0.16 -0.23,-0.13 l -0.33,0.05 c -0.18,0.04 -0.18,-0.58 0,-0.64 0.1,-0.04 0.14,-0.02 0.1,0.04 -0.03,0.07 0.03,0.11 0.14,0.13 0.16,0 0.16,0.02 -0.04,0.1 -0.15,0.06 -0.26,0.16 -0.26,0.23 0,0.06 0.14,0.04 0.36,-0.07 0.33,-0.17 0.34,-0.2 0.17,-0.33 -0.15,-0.12 -0.17,-0.2 -0.09,-0.42 0.06,-0.15 0.1,-0.94 0.11,-1.75 0.02,-2.53 0.05,-2.83 0.33,-2.96 0.3,-0.12 0.31,-0.24 0.1,-0.76 a 4.32,4.32 0 0 1 -0.1,-2.12 c 0.06,-0.35 0.06,-0.62 0,-0.67 a 0.79,0.79 0 0 1 -0.2,-0.3 l -0.1,-0.25 v 0.26 c -0.01,0.18 -0.08,0.26 -0.23,0.26 -0.3,0 -0.33,-0.14 -0.18,-1.16 0.13,-0.9 0.11,-1.02 -0.15,-0.76 -0.08,0.08 -0.14,0.1 -0.14,0.03 0,-0.06 0.1,-0.17 0.24,-0.25 0.2,-0.13 0.26,-0.13 0.4,0.05 0.08,0.12 0.16,0.15 0.16,0.08 0,-0.18 -0.25,-0.38 -0.48,-0.38 -0.11,0 -0.28,0.12 -0.39,0.28 z"
       id="path114"
       inkscape:connector-curvature="0" />
    <path
       d="m 43.67,23.52 c -0.1,0.11 -0.11,0.32 -0.06,0.6 0.12,0.6 0.08,0.95 -0.11,1.16 -0.26,0.29 -0.33,0.87 -0.16,1.28 0.2,0.45 0.16,0.72 -0.2,1.72 a 2.8,2.8 0 0 0 -0.23,1 c 0.03,0.13 0,0.22 -0.05,0.22 -0.17,0 -0.24,0.5 -0.11,0.82 0.08,0.21 0.07,0.62 -0.05,1.4 -0.09,0.62 -0.17,1.28 -0.17,1.49 0,0.2 -0.12,0.77 -0.28,1.27 A 6.11,6.11 0 0 0 41.97,36 c 0.02,1.22 -0.21,3.47 -0.43,4.15 -0.28,0.9 -0.52,1.42 -0.63,1.42 -0.05,0 -0.09,0.04 -0.09,0.1 0,0.06 -0.09,0.3 -0.19,0.53 -0.22,0.48 -0.23,0.54 -0.25,0.93 0,0.13 -0.11,0.3 -0.24,0.37 -0.22,0.12 -0.22,0.1 -0.06,-0.34 0.15,-0.42 0.14,-0.5 -0.06,-0.48 -0.05,0.01 -0.15,-0.13 -0.22,-0.33 -0.2,-0.46 -0.08,-2.78 0.17,-3.36 0.22,-0.53 0.14,-0.87 -0.13,-0.54 -0.15,0.19 -0.17,0.19 -0.1,0 0.02,-0.1 0,-0.19 -0.05,-0.19 -0.1,0 -0.29,-0.64 -0.26,-0.86 0.02,-0.08 -0.04,-0.16 -0.13,-0.2 -0.22,-0.09 -0.12,-0.47 0.13,-0.5 0.1,0 0.31,-0.03 0.46,-0.08 0.26,-0.05 0.26,-0.03 0.2,0.43 -0.05,0.26 -0.1,0.57 -0.14,0.69 -0.04,0.13 -0.01,0.18 0.05,0.14 0.06,-0.04 0.14,-0.32 0.19,-0.63 0.1,-0.78 0.32,-0.89 0.28,-0.14 -0.02,0.32 0.01,0.62 0.06,0.66 0.04,0.05 0.07,-0.28 0.05,-0.74 0,-0.45 -0.06,-0.85 -0.12,-0.88 -0.05,-0.04 -0.1,0 -0.1,0.05 0,0.07 -0.05,0.13 -0.12,0.13 -0.05,0 -0.09,-0.05 -0.04,-0.1 0.03,-0.07 -0.13,-0.15 -0.36,-0.2 -0.36,-0.07 -0.45,-0.03 -0.74,0.28 -0.3,0.3 -0.31,0.38 -0.2,0.67 0.38,0.99 0.47,3.23 0.18,4.19 a 5,5 0 0 1 -0.59,1.42 c -0.14,0 -0.46,-0.8 -0.52,-1.3 -0.07,-0.44 -0.08,-0.37 -0.05,0.3 0.06,1.04 -0.11,1.2 -0.23,0.23 -0.12,-1 -0.25,-1.06 -0.27,-0.16 -0.02,0.93 -0.14,1.35 -0.4,1.35 -0.14,0 -0.15,-0.04 -0.04,-0.23 0.06,-0.13 0.09,-0.62 0.04,-1.32 -0.11,-1.66 -0.1,-3.18 0.01,-3.84 0.1,-0.47 0.08,-0.57 -0.04,-0.53 -0.08,0.04 -0.16,0.17 -0.16,0.3 l -0.04,0.44 c -0.02,0.37 -0.15,0.3 -0.28,-0.14 -0.07,-0.25 -0.17,-0.45 -0.23,-0.45 -0.12,0 -0.08,-0.58 0.08,-0.88 0.08,-0.13 0.14,-0.36 0.14,-0.5 0,-0.2 0.04,-0.24 0.33,-0.18 0.46,0.09 0.52,-0.03 0.16,-0.33 -0.27,-0.2 -0.3,-0.29 -0.17,-0.41 0.19,-0.2 0.54,0.02 0.5,0.3 -0.03,0.1 0.04,0.3 0.14,0.4 0.1,0.12 0.16,0.29 0.12,0.37 -0.04,0.08 0,0.06 0.09,-0.06 0.22,-0.26 0.12,-0.77 -0.13,-0.68 -0.1,0.04 -0.14,0.02 -0.1,-0.05 0.04,-0.05 0,-0.21 -0.1,-0.35 -0.23,-0.33 -0.9,-0.35 -1,-0.03 -0.03,0.13 -0.16,0.24 -0.37,0.26 -0.32,0.03 -0.33,0.07 -0.36,0.68 -0.02,0.51 0.04,0.84 0.37,1.68 0.55,1.4 0.73,2.23 0.81,3.66 0.07,0.98 0.05,1.28 -0.1,1.56 -0.1,0.2 -0.15,0.47 -0.11,0.6 0.05,0.22 0.03,0.24 -0.15,0.18 a 3.37,3.37 0 0 0 -0.57,-0.19 c -0.73,-0.17 -2,-1.26 -2.55,-2.2 -0.2,-0.33 -0.24,-0.53 -0.18,-0.88 0.06,-0.41 0.04,-0.47 -0.3,-0.67 -0.3,-0.19 -0.4,-0.2 -0.55,-0.07 -0.09,0.08 -0.24,0.12 -0.31,0.1 -0.08,-0.03 -0.22,0.01 -0.31,0.08 -0.26,0.22 -0.22,-0.07 0.05,-0.42 0.13,-0.16 0.23,-0.24 0.23,-0.16 0,0.07 0.06,0.13 0.13,0.13 0.05,0 0.08,-0.06 0.03,-0.14 -0.06,-0.1 -0.02,-0.1 0.12,-0.06 0.45,0.17 0.08,-0.2 -0.54,-0.55 -0.98,-0.53 -1.32,-0.92 -1.46,-1.65 a 8.27,8.27 0 0 1 -0.11,-0.86 c 0,-0.13 -0.16,-0.39 -0.37,-0.57 -0.26,-0.24 -0.3,-0.25 -0.13,-0.06 l 0.23,0.28 -0.25,-0.14 C 29.3,35.28 28.96,34.71 29,34.48 c 0.03,-0.08 -0.03,-0.13 -0.1,-0.11 -0.09,0.01 -0.15,-0.03 -0.13,-0.11 0.03,-0.33 -0.03,-0.44 -0.37,-0.6 -0.65,-0.35 -0.93,0.1 -0.39,0.62 0.35,0.32 0.52,0.88 0.52,1.67 0,0.33 0.05,0.6 0.11,0.6 0.07,0 0.11,0.1 0.11,0.2 0,0.11 0.35,0.67 0.78,1.25 a 35.5,35.5 0 0 1 1.62,2.53 c 0.48,0.84 0.95,1.53 1.1,1.6 0.14,0.05 0.63,0.6 1.1,1.22 0.97,1.28 1.8,2.13 2.02,2.06 0.16,-0.05 0.25,-0.43 0.1,-0.43 -0.07,0 -0.11,0.07 -0.11,0.14 0,0.1 -0.05,0.08 -0.12,-0.02 a 4.7,4.7 0 0 0 -0.5,-0.62 C 34.5,44.24 34.2,43.78 34.03,43.46 A 13,13 0 0 0 33.41,42.4 2.38,2.38 0 0 1 33.08,41.82 c 0,-0.06 -0.1,-0.14 -0.23,-0.17 -0.14,-0.04 -0.22,-0.16 -0.24,-0.36 -0.02,-0.38 -0.03,-0.44 -0.13,-0.6 -0.05,-0.07 -0.04,-0.25 0.02,-0.4 0.1,-0.25 0.1,-0.25 0.18,-0.03 l 0.2,0.5 0.1,0.33 c -0.01,0 0.06,0.1 0.15,0.2 0.09,0.1 0.14,0.24 0.11,0.33 -0.05,0.1 -0.01,0.17 0.06,0.17 0.07,0 0.2,0.17 0.28,0.38 0.08,0.22 0.3,0.56 0.5,0.77 0.19,0.22 0.39,0.5 0.47,0.65 0.08,0.14 0.18,0.23 0.23,0.2 0.05,-0.04 0.13,0.02 0.17,0.12 0.06,0.14 0.02,0.17 -0.13,0.12 -0.16,-0.07 -0.17,-0.05 -0.07,0.05 0.07,0.07 0.1,0.2 0.07,0.3 -0.05,0.14 0,0.16 0.17,0.1 0.19,-0.06 0.24,-0.02 0.29,0.18 0.02,0.15 0.04,0.04 0.04,-0.22 0,-0.31 0.08,-0.57 0.2,-0.69 0.17,-0.17 0.18,-0.17 0.18,0.07 0,0.14 0.06,0.25 0.13,0.25 0.05,0 0.09,0.05 0.05,0.1 -0.03,0.06 0.04,0.23 0.16,0.4 0.32,0.39 0.3,0.64 -0.07,0.64 h -0.28 l 0.24,0.35 0.25,0.34 0.25,-0.52 c 0.14,-0.28 0.27,-0.5 0.3,-0.49 0.03,0.02 0.02,-0.01 -0.03,-0.07 a 0.6,0.6 0 0 1 -0.09,-0.34 c 0.01,-0.18 0.07,-0.14 0.29,0.22 0.19,0.3 0.25,0.53 0.2,0.74 -0.08,0.34 -0.3,0.51 -0.35,0.28 -0.05,-0.21 -0.2,-0.21 -0.29,0 -0.03,0.08 0.12,0.24 0.39,0.39 0.25,0.14 0.51,0.39 0.6,0.56 0.1,0.17 0.29,0.42 0.44,0.54 0.35,0.33 1.21,0.76 1.37,0.69 0.08,-0.03 0.04,-0.06 -0.08,-0.06 -0.21,-0.01 -0.21,-0.02 -0.02,-0.16 0.17,-0.12 0.17,-0.15 -0.11,-0.17 -0.42,-0.03 -0.5,-0.13 -0.17,-0.22 0.26,-0.06 0.26,-0.06 -0.06,-0.21 l -0.33,-0.15 0.34,0.06 c 0.76,0.12 1.31,0.3 1.45,0.46 0.11,0.15 0.09,0.22 -0.14,0.4 L 39.86,48.09 40.14,48 a 0.77,0.77 0 0 0 0.37,-0.22 c 0.06,-0.09 0.09,-0.09 0.09,0 0,0.08 0.08,0.16 0.17,0.2 0.13,0.05 0.14,0.03 0.02,-0.16 -0.11,-0.2 -0.1,-0.25 0.06,-0.34 0.1,-0.06 0.27,-0.2 0.37,-0.29 0.1,-0.1 0.25,-0.15 0.34,-0.11 0.1,0.03 0.17,0 0.17,-0.06 0,-0.07 0.15,-0.02 0.33,0.08 0.29,0.17 0.31,0.23 0.21,0.4 -0.08,0.12 -0.28,0.28 -0.48,0.39 -0.18,0.09 -0.26,0.17 -0.17,0.17 0.27,0 0.67,-0.32 0.87,-0.72 0.25,-0.49 0.73,-1 0.94,-1 0.29,0 0.67,-0.37 0.75,-0.7 0.07,-0.25 0.01,-0.37 -0.26,-0.66 -0.42,-0.4 -0.51,-0.42 -0.75,-0.05 -0.17,0.26 -0.17,0.27 0.01,0.2 0.11,-0.03 0.04,0.1 -0.18,0.3 -0.23,0.2 -0.33,0.35 -0.23,0.35 0.14,0 0.14,0.02 -0.01,0.11 -0.24,0.15 -0.07,0.14 0.27,0 0.16,-0.09 0.26,-0.19 0.23,-0.24 -0.03,-0.05 -0.01,-0.1 0.06,-0.1 0.05,0 0.12,-0.14 0.15,-0.32 0.04,-0.44 0.25,-0.38 0.3,0.1 0.04,0.32 0.06,0.36 0.13,0.16 0.1,-0.22 0.1,-0.22 0.1,0 0.01,0.33 -0.3,0.74 -0.51,0.67 -0.15,-0.06 -0.15,-0.1 0.01,-0.27 0.12,-0.13 0.17,-0.34 0.14,-0.59 l -0.05,-0.37 -0.01,0.34 c -0.01,0.2 -0.16,0.5 -0.36,0.71 -0.19,0.2 -0.35,0.43 -0.35,0.47 0,0.05 -0.11,0.2 -0.25,0.32 -0.21,0.2 -0.3,0.22 -0.54,0.11 -0.23,-0.09 -0.25,-0.12 -0.1,-0.16 0.1,-0.02 0.18,-0.1 0.14,-0.2 a 0.2,0.2 0 0 1 0.06,-0.23 c 0.07,-0.03 0.09,-0.12 0.06,-0.2 -0.05,-0.06 -0.03,-0.08 0.04,-0.04 0.07,0.04 0.16,0.01 0.2,-0.05 a 0.18,0.18 0 0 0 -0.05,-0.22 c -0.1,-0.05 -0.02,-0.13 0.2,-0.23 0.38,-0.15 0.47,-0.34 0.19,-0.34 -0.1,0 -0.17,0.05 -0.17,0.1 0,0.05 -0.29,0.18 -0.63,0.3 -0.34,0.12 -0.74,0.32 -0.88,0.45 -0.15,0.14 -0.53,0.4 -0.86,0.57 -0.65,0.36 -0.95,0.32 -1.04,-0.12 -0.03,-0.2 0,-0.18 0.26,0.06 0.16,0.15 0.33,0.23 0.38,0.2 0.03,-0.05 0.02,-0.08 -0.05,-0.08 -0.18,0 -0.4,-0.64 -0.32,-0.9 A 0.75,0.75 0 0 0 39.46,45.32 C 39.39,45.2 39.38,45.1 39.43,45.1 c 0.06,0 0.1,-0.13 0.08,-0.28 -0.02,-0.21 0.02,-0.26 0.15,-0.21 0.12,0.04 0.15,0.02 0.1,-0.06 -0.1,-0.15 0.32,-0.62 0.45,-0.5 0.04,0.04 0.04,-0.04 0.01,-0.18 -0.05,-0.2 -0.02,-0.25 0.11,-0.2 l 0.22,0.06 c 0.03,0 0.02,0.05 -0.01,0.11 -0.03,0.06 0.03,0.12 0.17,0.12 0.2,0 0.22,0.03 0.11,0.21 -0.18,0.35 -0.12,0.45 0.07,0.13 l 0.17,-0.29 -0.07,0.35 c -0.08,0.34 -0.26,0.54 -0.4,0.44 -0.13,-0.08 0.03,0.46 0.19,0.6 0.08,0.08 0.16,0.2 0.18,0.28 0.07,0.19 0.93,-0.1 1.1,-0.38 0.08,-0.12 0.12,-0.25 0.1,-0.27 -0.08,-0.1 -0.43,0.09 -0.37,0.18 0.04,0.06 -0.04,0.14 -0.18,0.17 -0.25,0.08 -0.44,-0.08 -0.44,-0.39 0,-0.09 0.06,-0.12 0.18,-0.08 0.15,0.06 0.17,0.03 0.12,-0.16 -0.03,-0.12 0,-0.2 0.05,-0.15 0.1,0.05 0.15,-0.1 0.11,-0.4 0,-0.07 0.05,-0.13 0.13,-0.1 0.27,0.05 0.87,-0.27 0.8,-0.44 -0.1,-0.26 0.07,-0.18 0.42,0.2 0.33,0.37 0.33,0.38 0.11,0.59 -0.23,0.21 -0.28,0.42 -0.11,0.42 0.16,0 0.7,-0.73 0.7,-0.92 0,-0.1 -0.07,-0.24 -0.13,-0.33 -0.1,-0.14 -0.12,-0.1 -0.07,0.14 0.02,0.17 0.03,0.31 0,0.31 -0.14,0 -0.6,-0.62 -0.6,-0.83 0,-0.46 0.13,-0.76 0.32,-0.75 0.12,0 0.13,0.02 0.05,0.07 -0.1,0.03 -0.02,0.14 0.18,0.33 0.23,0.2 0.32,0.36 0.3,0.56 -0.01,0.15 0.02,0.28 0.08,0.28 0.07,0 0.08,0.08 0.04,0.18 -0.04,0.12 0,0.16 0.07,0.14 0.1,-0.04 0.17,-0.38 0.2,-0.96 0.05,-0.59 0.14,-1 0.28,-1.22 0.23,-0.33 0.16,-0.4 -0.11,-0.13 -0.1,0.09 -0.21,0.42 -0.24,0.74 -0.04,0.3 -0.12,0.57 -0.17,0.57 -0.14,0 0.05,-1.83 0.21,-2.09 0.04,-0.07 0.08,-0.32 0.1,-0.58 0.07,-0.8 0.4,-1.66 0.65,-1.66 0.19,0 0.2,-0.03 0.08,-0.17 -0.11,-0.14 -0.11,-0.2 0,-0.33 0.1,-0.13 0.1,-0.18 0,-0.25 -0.09,-0.05 -0.11,-0.04 -0.07,0.04 0.14,0.22 -0.17,0.29 -0.33,0.07 -0.15,-0.23 0,-0.43 0.23,-0.3 0.06,0.04 0.05,0 -0.03,-0.1 -0.12,-0.16 -0.12,-0.22 0.03,-0.37 0.24,-0.23 0.56,-0.24 0.74,-0.01 0.13,0.14 0.12,0.17 -0.07,0.16 a 2.5,2.5 0 0 0 -0.5,0 c -0.21,0.03 -0.17,0.05 0.17,0.11 0.25,0.05 0.52,0.03 0.6,-0.02 0.09,-0.06 0.14,-0.01 0.18,0.17 0.04,0.24 0.04,0.24 0.07,-0.04 0,-0.17 0.09,-0.36 0.18,-0.44 0.12,-0.1 0.17,-0.37 0.17,-0.89 0,-0.9 -0.1,-0.89 -0.14,0.01 0,0.36 -0.07,0.65 -0.11,0.65 a 0.09,0.09 0 0 1 -0.1,-0.09 c 0,-0.05 -0.13,-0.15 -0.3,-0.23 -0.25,-0.11 -0.34,-0.11 -0.47,0.03 -0.13,0.13 -0.11,0.14 0.12,0.1 0.17,-0.04 0.34,0.03 0.48,0.18 0.2,0.22 0.2,0.23 -0.04,0.2 -0.14,0 -0.24,-0.05 -0.24,-0.1 0,-0.04 -0.2,-0.09 -0.45,-0.09 -0.54,0 -0.6,-0.16 -0.12,-0.33 0.2,-0.06 0.34,-0.2 0.34,-0.28 0,-0.1 0.13,-0.41 0.29,-0.73 0.35,-0.7 0.65,-1.85 0.52,-2 -0.14,-0.2 -0.24,-0.99 -0.11,-0.99 0.06,0 0.1,0.12 0.11,0.26 0,0.14 0.04,0.19 0.07,0.1 0.02,-0.06 0.1,-0.1 0.16,-0.06 0.15,0.1 0.13,-0.11 -0.03,-0.27 -0.12,-0.12 -0.12,-0.17 -0.01,-0.23 0.06,-0.05 0.17,-0.24 0.2,-0.42 0.05,-0.2 0.24,-0.62 0.42,-0.95 0.26,-0.45 0.3,-0.65 0.22,-0.74 a 0.57,0.57 0 0 1 -0.13,-0.34 c 0,-0.18 0.04,-0.2 0.17,-0.08 0.1,0.08 0.15,0.18 0.12,0.23 -0.04,0.06 -0.01,0.12 0.05,0.17 0.06,0.03 0.12,0.18 0.12,0.32 0,0.2 0.04,0.17 0.17,-0.14 0.22,-0.48 0.22,-0.7 0.02,-0.7 -0.09,0 -0.27,-0.1 -0.42,-0.22 -0.3,-0.26 -0.16,-0.3 0.18,-0.06 0.12,0.1 0.24,0.17 0.28,0.17 0.03,0 0.05,-0.34 0.06,-0.76 0,-0.44 -0.03,-0.67 -0.08,-0.53 a 2,2 0 0 0 -0.09,0.58 c 0,0.2 -0.05,0.37 -0.11,0.37 -0.14,0 -0.14,-1.61 0,-1.83 0.1,-0.14 0.12,-0.14 0.22,0.01 0.09,0.14 0.11,0.1 0.09,-0.17 -0.05,-0.52 -0.46,-0.52 -0.7,-0.02 -0.21,0.45 -0.24,0.71 -0.08,0.82 0.18,0.11 0.14,0.65 -0.08,0.89 -0.15,0.15 -0.2,0.42 -0.21,0.96 a 2,2 0 0 1 -0.4,1.4 c -0.53,0.82 -0.67,1.3 -0.62,1.97 0.06,0.7 -0.24,1.53 -0.93,2.53 -0.4,0.58 -0.49,0.81 -0.41,0.95 0.08,0.12 0.06,0.26 -0.1,0.46 -0.17,0.24 -0.2,0.36 -0.1,0.62 0.19,0.5 0.14,0.97 -0.22,2.13 -0.32,1.01 -0.89,2.04 -1.14,2.04 -0.06,0 -0.22,0.2 -0.34,0.46 -0.2,0.37 -0.22,0.54 -0.13,0.79 0.12,0.33 0.01,0.45 -0.4,0.45 -0.14,0 -0.14,-0.02 0,-0.18 0.1,-0.09 0.19,-0.28 0.19,-0.42 0,-0.14 0.03,-0.38 0.06,-0.54 l 0.06,-0.28 -0.17,0.28 -0.18,0.29 -0.07,-0.26 c -0.1,-0.3 -0.27,-0.33 -0.28,-0.06 l -0.04,0.47 c -0.02,0.15 0.01,0.28 0.07,0.32 0.17,0.11 0.1,0.27 -0.2,0.4 -0.23,0.1 -0.31,0.1 -0.5,-0.07 -0.13,-0.12 -0.23,-0.32 -0.22,-0.45 0,-0.21 0,-0.21 0.09,-0.03 0.14,0.35 0.26,0.27 0.4,-0.23 0.09,-0.27 0.11,-0.45 0.05,-0.42 -0.19,0.11 -0.1,-0.14 0.12,-0.32 0.2,-0.16 0.64,-1.17 0.74,-1.66 0,-0.12 0.1,-0.35 0.17,-0.54 l 0.3,-0.74 c 0.15,-0.45 0.9,-1.89 0.8,-1.53 -0.08,0.21 -0.06,0.21 0.13,0.03 0.15,-0.16 0.17,-0.23 0.06,-0.34 -0.2,-0.2 -0.16,-0.6 0.08,-0.74 0.27,-0.17 0.26,-0.58 0,-0.73 -0.1,-0.05 -0.35,-0.11 -0.54,-0.13 -0.32,-0.02 -0.33,-0.04 -0.22,-0.26 0.07,-0.12 0.12,-0.26 0.1,-0.3 0,-0.04 0.2,0.03 0.45,0.15 0.52,0.25 0.85,0.2 0.73,-0.11 A 4.6,4.6 0 0 1 43.9,34.62 L 43.82,33.99 43.8,34.7 c -0.02,0.47 0.03,0.72 0.13,0.75 0.07,0.04 0,0.07 -0.18,0.07 -0.4,0.01 -0.93,-0.48 -0.82,-0.76 0.05,-0.1 0.11,-0.57 0.15,-1.03 0.02,-0.44 0.09,-0.82 0.14,-0.82 0.04,0 0.05,-0.11 0.03,-0.26 -0.02,-0.14 0.03,-0.58 0.12,-0.98 0.13,-0.55 0.14,-0.78 0.05,-0.89 -0.07,-0.09 -0.1,-0.18 -0.05,-0.22 0.04,-0.04 0.07,-0.02 0.07,0.05 0,0.08 0.05,0.14 0.12,0.14 0.06,0 0.06,-0.1 0,-0.29 -0.08,-0.2 -0.07,-0.27 0.03,-0.25 0.08,0.02 0.13,-0.03 0.11,-0.11 -0.02,-0.08 0.15,-0.17 0.37,-0.22 0.22,-0.03 0.39,-0.1 0.37,-0.14 l 0.03,-0.19 0.05,-1.42 c 0.07,-2 0.08,-2.63 0.07,-3.19 L 44.6,24 c 0.02,-0.28 -0.04,-0.48 -0.14,-0.55 -0.25,-0.15 -0.63,-0.13 -0.79,0.07 z"
       id="path116"
       inkscape:connector-curvature="0" />
    <path
       d="m 40.25,32.86 c -0.04,0.38 0.03,0.9 0.13,1.03 0.06,0.07 0.07,0.15 0.03,0.2 -0.03,0.03 0,0.17 0.07,0.3 0.1,0.18 0.1,0.24 -0.05,0.3 -0.1,0.04 -0.24,0.02 -0.32,-0.04 -0.22,-0.18 -0.97,-0.15 -1.15,0.03 -0.2,0.2 -0.36,1.08 -0.25,1.49 l 0.08,0.3 0.31,-0.38 c 0.27,-0.3 0.38,-0.35 0.63,-0.29 0.2,0.05 0.29,0.04 0.24,-0.04 -0.03,-0.06 -0.2,-0.11 -0.34,-0.11 -0.24,0 -0.4,-0.2 -0.4,-0.48 0,-0.07 0.07,-0.07 0.17,0.02 0.14,0.11 0.2,0.11 0.34,0 0.1,-0.1 0.17,-0.1 0.17,-0.02 0,0.16 0.56,0.82 0.7,0.82 0.05,0 0.1,-0.1 0.1,-0.24 0,-0.16 -0.06,-0.22 -0.16,-0.18 -0.11,0.04 -0.2,-0.05 -0.24,-0.28 -0.04,-0.18 -0.12,-0.33 -0.18,-0.33 a 0.1,0.1 0 0 1 -0.1,-0.1 c 0,-0.06 0.09,-0.08 0.2,-0.05 0.12,0.03 0.29,-0.03 0.37,-0.13 0.12,-0.16 0.13,-0.28 0,-0.66 a 16.1,16.1 0 0 1 -0.23,-0.94 c -0.05,-0.25 -0.1,-0.35 -0.12,-0.22 z"
       id="path118"
       inkscape:connector-curvature="0" />
  </g>
</svg>
