<?xml version="1.0" encoding="UTF-8" standalone="no"?>
<!--Created with Inkscape (http://www.inkscape.org/)-->

<svg
   xmlns:dc="http://purl.org/dc/elements/1.1/"
   xmlns:cc="http://creativecommons.org/ns#"
   xmlns:rdf="http://www.w3.org/1999/02/22-rdf-syntax-ns#"
   xmlns:svg="http://www.w3.org/2000/svg"
   xmlns="http://www.w3.org/2000/svg"
   xmlns:xlink="http://www.w3.org/1999/xlink"
   xmlns:sodipodi="http://sodipodi.sourceforge.net/DTD/sodipodi-0.dtd"
   xmlns:inkscape="http://www.inkscape.org/namespaces/inkscape"
   width="64"
   height="64"
   version="1"
   id="svg86"
   sodipodi:docname="gnome-fs-web.svg"
   inkscape:version="0.92.4 (5da689c313, 2019-01-14)">
  <sodipodi:namedview
     pagecolor="#ffffff"
     bordercolor="#666666"
     borderopacity="1"
     objecttolerance="10"
     gridtolerance="10"
     guidetolerance="10"
     inkscape:pageopacity="0"
     inkscape:pageshadow="2"
     inkscape:window-width="1112"
     inkscape:window-height="480"
     id="namedview88"
     showgrid="false"
     inkscape:zoom="3.6875"
     inkscape:cx="2.8474576"
     inkscape:cy="32"
     inkscape:window-x="0"
     inkscape:window-y="25"
     inkscape:window-maximized="0"
     inkscape:current-layer="svg86" />
  <metadata
     id="metadata2">
    <rdf:RDF>
      <cc:Work>
        <dc:format>image/svg+xml</dc:format>
        <dc:type
           rdf:resource="http://purl.org/dc/dcmitype/StillImage" />
        <dc:title></dc:title>
      </cc:Work>
    </rdf:RDF>
  </metadata>
  <defs
     id="defs70">
    <linearGradient
       id="e">
      <stop
         offset="0"
         stop-color="#0b2228"
         id="stop4" />
      <stop
         offset="1"
         stop-color="#0b2228"
         stop-opacity="0"
         id="stop6" />
    </linearGradient>
    <linearGradient
       id="d">
      <stop
         offset="0"
         stop-color="#0b2228"
         id="stop9" />
      <stop
         offset="1"
         stop-color="#0b2228"
         stop-opacity="0"
         id="stop11" />
    </linearGradient>
    <linearGradient
       id="b">
      <stop
         offset="0"
         stop-color="#216778"
         id="stop14" />
      <stop
         offset=".27"
         stop-color="#164450"
         id="stop16" />
      <stop
         offset=".29"
         stop-color="#216778"
         id="stop18" />
      <stop
         offset=".49"
         stop-color="#2c89a0"
         id="stop20" />
      <stop
         offset=".71"
         stop-color="#216778"
         id="stop22" />
      <stop
         offset=".73"
         stop-color="#164450"
         id="stop24" />
      <stop
         offset="1"
         stop-color="#216778"
         id="stop26" />
    </linearGradient>
    <linearGradient
       id="a">
      <stop
         offset="0"
         stop-color="#216778"
         id="stop29" />
      <stop
         offset=".18"
         stop-color="#164450"
         id="stop31" />
      <stop
         offset=".19"
         stop-color="#216778"
         id="stop33" />
      <stop
         offset=".49"
         stop-color="#2c89a0"
         id="stop35" />
      <stop
         offset=".8"
         stop-color="#216778"
         id="stop37" />
      <stop
         offset=".81"
         stop-color="#164450"
         id="stop39" />
      <stop
         offset="1"
         stop-color="#216778"
         id="stop41" />
    </linearGradient>
    <linearGradient
       id="f">
      <stop
         offset="0"
         stop-color="#0b2228"
         id="stop44" />
      <stop
         offset="1"
         stop-color="#0b2228"
         stop-opacity="0"
         id="stop46" />
    </linearGradient>
    <linearGradient
       id="c">
      <stop
         offset="0"
         stop-color="#216778"
         id="stop49" />
      <stop
         offset=".12"
         stop-color="#164450"
         id="stop51" />
      <stop
         offset=".15"
         stop-color="#2c89a0"
         id="stop53" />
      <stop
         offset=".49"
         stop-color="#37abc8"
         id="stop55" />
      <stop
         offset=".85"
         stop-color="#2c89a0"
         id="stop57" />
      <stop
         offset=".88"
         stop-color="#164450"
         id="stop59" />
      <stop
         offset="1"
         stop-color="#216778"
         id="stop61" />
    </linearGradient>
    <linearGradient
       xlink:href="#a"
       id="h"
       x1="5.27"
       y1="51.93"
       x2="59.12"
       y2="51.93"
       gradientUnits="userSpaceOnUse" />
    <linearGradient
       xlink:href="#b"
       id="g"
       x1="-.04"
       y1="59.46"
       x2="64.18"
       y2="59.46"
       gradientUnits="userSpaceOnUse" />
    <linearGradient
       xlink:href="#c"
       id="i"
       x1="7.65"
       y1="24.52"
       x2="56.44"
       y2="24.52"
       gradientUnits="userSpaceOnUse" />
    <linearGradient
       xlink:href="#d"
       id="j"
       x1="13.48"
       y1="63.47"
       x2="13.48"
       y2="26.47"
       gradientUnits="userSpaceOnUse" />
    <linearGradient
       xlink:href="#e"
       id="k"
       x1="5.27"
       y1="55.14"
       x2="5.27"
       y2="48.73"
       gradientUnits="userSpaceOnUse" />
    <linearGradient
       xlink:href="#f"
       id="l"
       x1="-.04"
       y1="63.9"
       x2="-.04"
       y2="55.02"
       gradientUnits="userSpaceOnUse" />
  </defs>
  <path
     d="M -0.04,55.02 H 64.18 V 63.9 H -0.04 Z"
     id="path72"
     style="fill:url(#g)"
     inkscape:connector-curvature="0" />
  <path
     d="m 5.27,48.73 h 53.86 v 6.42 H 5.27 Z"
     id="path74"
     style="fill:url(#h)"
     inkscape:connector-curvature="0" />
  <path
     d="M 31.46,0.28 C 23.83,0.35 15.93,3.9 7.66,11.94 V 48.77 H 56.42 V 20.21 h 0.02 V 11.94 C 48.4,4.58 40.11,0.19 31.46,0.28 Z"
     id="path76"
     style="fill:url(#i)"
     inkscape:connector-curvature="0" />
  <path
     d="M 31.44,0.28 C 23.8,0.35 15.9,3.9 7.64,11.94 V 48.77 H 56.39 V 20.21 h 0.03 V 11.94 C 48.37,4.58 40.09,0.19 31.44,0.28 Z"
     id="path78"
     style="fill:url(#j)"
     inkscape:connector-curvature="0" />
  <path
     d="m 5.27,48.73 h 53.86 v 6.42 H 5.27 Z"
     id="path80"
     style="fill:url(#k)"
     inkscape:connector-curvature="0" />
  <path
     d="M -0.04,55.02 H 64.18 V 63.9 H -0.04 Z"
     id="path82"
     style="fill:url(#l)"
     inkscape:connector-curvature="0" />
  <path
     d="m 33.12,10.98 c 0.27,-0.18 0.66,-0.4 0.86,-0.48 l 0.91,-0.48 c 0.58,-0.33 2.9,-1.41 3.55,-1.64 0.83,-0.3 0.32,0.1 -0.77,0.6 -0.78,0.35 -1.6,0.76 -2.87,1.43 -0.91,0.48 -1.54,0.98 -1.7,1.36 a 61.6,61.6 0 0 0 -3,5.54 c -0.02,0.12 0.02,0.37 0.08,0.56 0.07,0.2 0.15,0.56 0.17,0.82 0.03,0.26 0.19,1.03 0.36,1.71 0.35,1.43 0.58,2.59 0.57,2.92 0,0.13 0.03,0.37 0.08,0.53 0.08,0.29 0.17,0.36 0.3,0.26 l 0.14,-0.09 c 0.03,-0.02 0.1,0 0.16,0.06 0.06,0.06 0.2,0.13 0.31,0.15 0.22,0.05 0.42,0.3 0.4,0.5 0,0.2 0.16,0.3 0.23,0.15 0.04,-0.08 0.18,-0.27 0.33,-0.43 0.19,-0.2 0.34,-0.52 0.52,-1.03 0.71,-2.2 1.7,-4.06 2.71,-5.17 0.28,-0.3 0.69,-0.83 0.9,-1.16 a 34,34 0 0 1 1.26,-1.7 10,10 0 0 1 1.77,-1.88 30.56,30.56 0 0 1 4.16,-3.03 l 0.9,-0.56 c 0.58,-0.37 0.82,-0.49 0.93,-0.44 0.12,0.08 -0.27,0.42 -0.8,0.7 -0.23,0.13 -0.69,0.4 -1.02,0.62 l -0.81,0.53 c -1.08,0.7 -2.8,2.22 -3.2,2.83 -0.14,0.22 -0.45,0.6 -0.68,0.86 a 55.57,55.57 0 0 0 -1.5,1.75 c -0.25,0.3 -1.39,2.07 -2,3.14 l -0.6,1.02 c -0.18,0.28 -0.36,0.69 -0.41,0.9 -0.13,0.5 -0.58,1.67 -0.88,2.22 -0.36,0.67 -0.49,1.02 -0.39,1.07 0.05,0.03 0.3,-0.11 0.55,-0.3 l 0.64,-0.46 c 1.18,-0.78 1.5,-0.97 1.87,-1.15 l 0.7,-0.4 c 0.14,-0.1 0.3,-0.16 0.33,-0.15 0.05,0.01 0.14,-0.03 0.2,-0.08 0.17,-0.16 0.32,-0.09 0.22,0.11 -0.08,0.16 -0.07,0.17 0.1,0.16 0.12,0 0.14,-0.02 0.08,-0.06 -0.06,-0.04 -0.08,-0.13 -0.06,-0.21 0.03,-0.12 0.42,-0.26 1.7,-0.6 0.93,-0.25 1.84,-0.48 2.02,-0.52 l 0.61,-0.11 c 0.3,-0.06 0.4,0.1 0.13,0.22 -0.09,0.05 -0.63,0.2 -1.19,0.32 -1.76,0.41 -2.68,0.73 -3.04,1.06 -0.17,0.16 -0.69,0.5 -1.16,0.74 a 16.3,16.3 0 0 0 -1.91,1.22 c -0.36,0.24 -0.72,0.58 -1.08,0.98 -0.9,1.02 -1.4,1.45 -1.75,1.5 -0.43,0.08 -0.48,0.16 -0.24,0.42 0.15,0.16 0.2,0.3 0.18,0.53 -0.02,0.29 0.04,0.4 0.42,0.95 0.24,0.34 0.57,0.75 0.72,0.92 0.2,0.22 0.28,0.35 0.23,0.42 -0.03,0.07 -0.08,0.1 -0.12,0.09 -0.04,-0.02 -0.06,0.04 -0.07,0.13 0,0.15 0.02,0.15 0.16,-0.01 0.15,-0.18 0.17,-0.17 0.38,0.06 0.2,0.23 1.13,1.46 1.46,1.93 0.25,0.38 0.37,0.66 0.3,0.77 -0.04,0.08 -0.18,-0.06 -0.78,-0.78 a 29.71,29.71 0 0 0 -1.78,-1.97 9.9,9.9 0 0 1 -1.06,-1.37 c -0.13,-0.24 -0.19,-0.03 -0.15,0.48 0.02,0.29 0.01,0.93 0,1.45 -0.02,0.52 0,1.12 0.05,1.34 0.05,0.23 0.11,0.7 0.15,1.05 0.03,0.36 0.07,0.74 0.1,0.84 0.03,0.1 0.04,0.26 0.04,0.37 -0.01,0.29 0.02,0.6 0.08,1.01 a 21.07,21.07 0 0 1 0.3,2.8 61.16,61.16 0 0 0 0.7,4.49 c 0.12,0.58 0.16,1.02 0.2,2.04 0.02,0.45 -0.16,0.22 -0.3,-0.36 -0.07,-0.3 -0.2,-1.02 -0.29,-1.6 A 14.9,14.9 0 0 0 33.4,41.77 c -0.1,-0.3 -0.25,-1 -0.34,-1.53 -0.09,-0.54 -0.25,-1.26 -0.35,-1.6 -0.16,-0.54 -0.36,-1.74 -0.43,-2.6 -0.06,-0.67 -0.14,-1.32 -0.3,-2.35 a 10.82,10.82 0 0 1 -0.16,-2.36 c 0,-0.75 -0.15,-1.7 -0.3,-1.85 -0.21,-0.24 -0.34,-0.02 -0.46,0.8 a 3.88,3.88 0 0 1 -0.86,2.1 c -0.72,0.98 -1.6,1.54 -2.3,1.5 a 4.14,4.14 0 0 1 -1.85,-0.9 5.3,5.3 0 0 1 -0.95,-3.4 c 0.05,-0.44 -0.02,-0.56 -0.31,-0.56 -0.26,0 -1.72,0.58 -1.93,0.76 -0.24,0.21 -0.95,1.04 -1.18,1.38 l -0.62,0.8 c -0.42,0.5 -1.32,1.82 -1.51,2.2 -0.14,0.28 0.12,1.77 0.58,3.29 0.22,0.7 0.4,1.46 0.41,1.69 0.03,0.57 -0.15,0.54 -0.35,-0.06 l -0.4,-1.26 -0.36,-1.08 a 8.13,8.13 0 0 1 -0.6,-2.9 c 0.04,-0.33 0.53,-1.08 1.55,-2.35 a 16,16 0 0 0 0.88,-1.18 c 0.6,-0.91 1.66,-1.8 2.3,-1.93 0.17,-0.03 0.35,-0.1 0.4,-0.14 0.1,-0.09 -0.09,-0.8 -0.26,-0.98 -0.05,-0.05 -0.1,-0.21 -0.09,-0.35 0,-0.27 -0.03,-0.23 1.07,-0.91 0.82,-0.5 1.12,-0.51 2.62,-0.12 0.8,0.21 1.5,0.37 1.85,0.42 0.05,0 0.2,-0.18 0.34,-0.41 l 0.26,-0.43 -0.43,-0.4 c -0.24,-0.24 -0.75,-0.66 -1.15,-0.95 -1.61,-1.17 -2,-1.5 -2.08,-1.72 -0.06,-0.23 0.03,-2.3 0.14,-3.25 0.05,-0.37 0.12,-0.62 0.23,-0.73 0.22,-0.2 1.84,-0.68 2.38,-0.7 0.48,0 0.53,-0.09 0.64,-0.88 0.06,-0.4 0.4,-1.04 0.57,-1.07 0.04,0 0.3,-0.42 0.57,-0.92 l 0.95,-1.69 c 0.26,-0.43 0.57,-1 0.7,-1.29 0.14,-0.27 0.27,-0.52 0.3,-0.53 z m -6.21,8.6 c -0.12,0.99 -0.16,1.5 -0.15,2 0,0.37 0.02,0.39 0.47,0.8 0.25,0.23 0.8,0.64 1.2,0.92 1.18,0.77 1.38,0.94 1.61,1.27 0.12,0.18 0.26,0.32 0.32,0.32 0.17,0 0.36,-0.6 0.29,-0.95 a 1.65,1.65 0 0 1 -0.05,-0.5 c 0,-0.09 -0.06,-0.34 -0.14,-0.54 -0.09,-0.2 -0.2,-0.54 -0.23,-0.75 -0.05,-0.2 -0.17,-0.67 -0.29,-1.03 -0.1,-0.36 -0.22,-0.95 -0.27,-1.33 a 7.63,7.63 0 0 0 -0.32,-1.7 c -0.06,-0.07 -0.62,0.01 -1.28,0.2 a 5.6,5.6 0 0 1 -0.61,0.13 c -0.3,0 -0.46,0.33 -0.55,1.16 z m -2.7,7.9 c 0.06,0.62 0.1,0.65 0.87,0.5 0.67,-0.14 0.69,-0.15 1.06,-0.56 0.25,-0.28 0.47,-0.46 0.7,-0.56 0.42,-0.18 0.39,-0.3 -0.08,-0.4 -0.76,-0.18 -1.09,-0.13 -1.81,0.25 l -0.73,0.4 c -0.03,0.01 -0.04,0.18 -0.02,0.36 z"
     id="path84"
     inkscape:connector-curvature="0"
     style="fill:#1a1a1a" />
</svg>
