<?xml version="1.0" encoding="UTF-8" standalone="no"?>
<!--Created with Inkscape (http://www.inkscape.org/)-->

<svg
   xmlns:dc="http://purl.org/dc/elements/1.1/"
   xmlns:cc="http://creativecommons.org/ns#"
   xmlns:rdf="http://www.w3.org/1999/02/22-rdf-syntax-ns#"
   xmlns:svg="http://www.w3.org/2000/svg"
   xmlns="http://www.w3.org/2000/svg"
   xmlns:xlink="http://www.w3.org/1999/xlink"
   xmlns:sodipodi="http://sodipodi.sourceforge.net/DTD/sodipodi-0.dtd"
   xmlns:inkscape="http://www.inkscape.org/namespaces/inkscape"
   width="64"
   height="64"
   version="1"
   id="svg90"
   sodipodi:docname="user-desktop.svg"
   inkscape:version="0.92.4 (5da689c313, 2019-01-14)">
  <sodipodi:namedview
     pagecolor="#ffffff"
     bordercolor="#666666"
     borderopacity="1"
     objecttolerance="10"
     gridtolerance="10"
     guidetolerance="10"
     inkscape:pageopacity="0"
     inkscape:pageshadow="2"
     inkscape:window-width="1112"
     inkscape:window-height="480"
     id="namedview92"
     showgrid="false"
     inkscape:zoom="3.6875"
     inkscape:cx="2.8474576"
     inkscape:cy="32"
     inkscape:window-x="0"
     inkscape:window-y="25"
     inkscape:window-maximized="0"
     inkscape:current-layer="svg90" />
  <metadata
     id="metadata2">
    <rdf:RDF>
      <cc:Work>
        <dc:format>image/svg+xml</dc:format>
        <dc:type
           rdf:resource="http://purl.org/dc/dcmitype/StillImage" />
        <dc:title></dc:title>
      </cc:Work>
    </rdf:RDF>
  </metadata>
  <defs
     id="defs70">
    <linearGradient
       id="e">
      <stop
         offset="0"
         stop-color="#0b2228"
         id="stop4" />
      <stop
         offset="1"
         stop-color="#0b2228"
         stop-opacity="0"
         id="stop6" />
    </linearGradient>
    <linearGradient
       id="d">
      <stop
         offset="0"
         stop-color="#0b2228"
         id="stop9" />
      <stop
         offset="1"
         stop-color="#0b2228"
         stop-opacity="0"
         id="stop11" />
    </linearGradient>
    <linearGradient
       id="b">
      <stop
         offset="0"
         stop-color="#216778"
         id="stop14" />
      <stop
         offset=".27"
         stop-color="#164450"
         id="stop16" />
      <stop
         offset=".29"
         stop-color="#216778"
         id="stop18" />
      <stop
         offset=".49"
         stop-color="#2c89a0"
         id="stop20" />
      <stop
         offset=".71"
         stop-color="#216778"
         id="stop22" />
      <stop
         offset=".73"
         stop-color="#164450"
         id="stop24" />
      <stop
         offset="1"
         stop-color="#216778"
         id="stop26" />
    </linearGradient>
    <linearGradient
       id="a">
      <stop
         offset="0"
         stop-color="#216778"
         id="stop29" />
      <stop
         offset=".18"
         stop-color="#164450"
         id="stop31" />
      <stop
         offset=".19"
         stop-color="#216778"
         id="stop33" />
      <stop
         offset=".49"
         stop-color="#2c89a0"
         id="stop35" />
      <stop
         offset=".8"
         stop-color="#216778"
         id="stop37" />
      <stop
         offset=".81"
         stop-color="#164450"
         id="stop39" />
      <stop
         offset="1"
         stop-color="#216778"
         id="stop41" />
    </linearGradient>
    <linearGradient
       id="f">
      <stop
         offset="0"
         stop-color="#0b2228"
         id="stop44" />
      <stop
         offset="1"
         stop-color="#0b2228"
         stop-opacity="0"
         id="stop46" />
    </linearGradient>
    <linearGradient
       id="c">
      <stop
         offset="0"
         stop-color="#216778"
         id="stop49" />
      <stop
         offset=".12"
         stop-color="#164450"
         id="stop51" />
      <stop
         offset=".15"
         stop-color="#2c89a0"
         id="stop53" />
      <stop
         offset=".49"
         stop-color="#37abc8"
         id="stop55" />
      <stop
         offset=".85"
         stop-color="#2c89a0"
         id="stop57" />
      <stop
         offset=".88"
         stop-color="#164450"
         id="stop59" />
      <stop
         offset="1"
         stop-color="#216778"
         id="stop61" />
    </linearGradient>
    <linearGradient
       xlink:href="#a"
       id="h"
       x1="5.27"
       y1="51.93"
       x2="59.12"
       y2="51.93"
       gradientUnits="userSpaceOnUse" />
    <linearGradient
       xlink:href="#b"
       id="g"
       x1="-.04"
       y1="59.46"
       x2="64.18"
       y2="59.46"
       gradientUnits="userSpaceOnUse" />
    <linearGradient
       xlink:href="#c"
       id="i"
       x1="7.65"
       y1="24.52"
       x2="56.44"
       y2="24.52"
       gradientUnits="userSpaceOnUse" />
    <linearGradient
       xlink:href="#d"
       id="j"
       x1="13.48"
       y1="63.47"
       x2="13.48"
       y2="26.47"
       gradientUnits="userSpaceOnUse" />
    <linearGradient
       xlink:href="#e"
       id="k"
       x1="5.27"
       y1="55.14"
       x2="5.27"
       y2="48.73"
       gradientUnits="userSpaceOnUse" />
    <linearGradient
       xlink:href="#f"
       id="l"
       x1="-.04"
       y1="63.9"
       x2="-.04"
       y2="55.02"
       gradientUnits="userSpaceOnUse" />
  </defs>
  <path
     d="M -0.04,55.02 H 64.18 V 63.9 H -0.04 Z"
     id="path72"
     style="fill:url(#g)"
     inkscape:connector-curvature="0" />
  <path
     d="m 5.27,48.73 h 53.86 v 6.42 H 5.27 Z"
     id="path74"
     style="fill:url(#h)"
     inkscape:connector-curvature="0" />
  <path
     d="M 31.46,0.28 C 23.83,0.35 15.93,3.9 7.66,11.94 V 48.77 H 56.42 V 20.21 h 0.02 V 11.94 C 48.4,4.58 40.11,0.19 31.46,0.28 Z"
     id="path76"
     style="fill:url(#i)"
     inkscape:connector-curvature="0" />
  <path
     d="M 31.44,0.28 C 23.8,0.35 15.9,3.9 7.64,11.94 V 48.77 H 56.39 V 20.21 h 0.03 V 11.94 C 48.37,4.58 40.09,0.19 31.44,0.28 Z"
     id="path78"
     style="fill:url(#j)"
     inkscape:connector-curvature="0" />
  <path
     d="m 5.27,48.73 h 53.86 v 6.42 H 5.27 Z"
     id="path80"
     style="fill:url(#k)"
     inkscape:connector-curvature="0" />
  <path
     d="M -0.04,55.02 H 64.18 V 63.9 H -0.04 Z"
     id="path82"
     style="fill:url(#l)"
     inkscape:connector-curvature="0" />
  <g
     id="g88"
     style="fill:#1a1a1a">
    <path
       d="m 40.15,15.41 c 0,0.13 -0.06,0.18 -0.2,0.18 -0.11,0 -0.38,0.13 -0.61,0.28 -0.52,0.35 -0.83,0.48 -0.9,0.36 -0.03,-0.05 -0.44,0.2 -0.9,0.55 -0.66,0.47 -0.93,0.62 -1.16,0.62 -0.23,0 -0.44,0.1 -0.86,0.47 -0.95,0.78 -1.62,0.97 -2.2,0.61 a 1.43,1.43 0 0 1 -0.47,-0.53 7.64,7.64 0 0 1 -0.46,-2.28 c 0,-0.47 -0.14,-0.44 -0.27,0.05 -0.1,0.33 -0.1,0.54 0.03,1.2 0.08,0.43 0.15,0.96 0.15,1.17 v 0.36 h -0.83 c -0.68,0 -0.92,0.03 -1.2,0.18 -0.34,0.18 -0.95,0.37 -1.5,0.46 -0.16,0.02 -0.33,-0.05 -0.56,-0.24 -0.57,-0.45 -1.06,-0.63 -2.9,-1.09 a 12.53,12.53 0 0 1 -2.3,-0.72 l -0.55,-0.3 -0.32,0.2 c -0.45,0.28 -0.67,0.75 -1.04,2.22 -0.3,1.18 -0.33,1.26 -0.52,1.24 -0.13,-0.02 -0.2,0.01 -0.2,0.1 0,0.2 0.62,1.5 1.39,2.92 l 0.64,1.18 0.63,0.07 c 0.35,0.02 1,0.12 1.44,0.21 l 0.82,0.16 -0.01,0.29 c -0.02,0.31 0.1,0.39 0.19,0.11 0.05,-0.18 0.55,-0.43 0.75,-0.38 0.2,0.04 0.88,-0.42 1.33,-0.92 0.6,-0.66 1.72,-2.61 1.68,-2.95 -0.02,-0.19 0.02,-0.29 0.16,-0.36 0.1,-0.05 0.19,-0.19 0.19,-0.3 0,-0.31 0.31,-0.91 0.66,-1.25 0.2,-0.22 0.29,-0.36 0.22,-0.42 -0.05,-0.05 -0.03,-0.1 0.05,-0.13 0.09,-0.04 0.15,0.01 0.18,0.13 0.03,0.15 0.09,0.17 0.21,0.12 0.88,-0.39 2,0.2 1.91,1 -0.03,0.2 0.02,0.32 0.13,0.39 0.25,0.15 0.45,0.71 0.33,0.93 -0.07,0.13 -0.07,0.2 0,0.28 0.07,0.07 0.1,0.05 0.1,-0.05 0,-0.09 0.06,-0.16 0.13,-0.16 0.17,0 0.17,0.05 0.06,0.26 -0.07,0.13 -0.03,0.24 0.17,0.48 0.3,0.36 0.63,1.08 0.63,1.35 0,0.1 0.12,0.24 0.27,0.33 0.15,0.1 0.36,0.3 0.46,0.44 0.44,0.56 0.75,0.84 0.98,0.84 0.17,0 0.2,-0.02 0.12,-0.1 -0.16,-0.16 -0.14,-0.3 0.01,-0.18 0.11,0.1 0.19,0.09 0.38,-0.04 0.26,-0.17 0.68,-0.14 1.13,0.09 0.27,0.13 0.28,0.13 0.24,-0.04 -0.06,-0.21 0.09,-0.23 0.54,-0.04 0.4,0.17 0.39,0.17 0.39,-0.04 0,-0.22 0.46,-0.61 0.86,-0.72 0.31,-0.08 0.6,-0.3 1.23,-0.94 0.24,-0.23 0.36,-0.45 0.4,-0.7 0.04,-0.2 0.1,-0.38 0.14,-0.41 0.04,-0.03 0.08,-0.13 0.08,-0.23 0,-0.1 0.14,-0.5 0.32,-0.87 0.18,-0.38 0.34,-0.84 0.35,-1.01 0.03,-0.27 0.23,-0.85 0.38,-1.11 0.03,-0.05 -0.03,-0.03 -0.13,0.03 -0.25,0.16 -0.32,0.08 -0.21,-0.2 0.05,-0.16 0.03,-0.3 -0.09,-0.53 l -0.56,-1.17 c -0.4,-0.88 -0.8,-1.36 -1.26,-1.53 -0.22,-0.08 -0.25,-0.07 -0.25,0.08 z"
       id="path84"
       inkscape:connector-curvature="0" />
    <path
       d="m 32.88,22.46 c 0.03,0.04 -0.02,0.09 -0.11,0.09 -0.1,0 -0.2,0.08 -0.23,0.18 -0.03,0.1 -0.17,0.22 -0.33,0.28 -0.23,0.08 -0.26,0.13 -0.22,0.33 0.05,0.3 -0.1,0.58 -0.23,0.39 -0.05,-0.08 -0.1,-0.1 -0.13,-0.02 -0.13,0.2 -0.33,0.1 -0.33,-0.16 0,-0.36 -0.47,-0.86 -0.72,-0.78 -0.26,0.08 -0.36,0.4 -0.36,1.18 0,0.88 -0.04,0.98 -0.33,0.79 -0.12,-0.08 -0.23,-0.13 -0.24,-0.1 -0.02,0.01 -0.16,0.6 -0.33,1.3 -0.22,0.9 -0.31,1.47 -0.31,2.01 l -0.01,0.77 0.3,0.2 c 0.16,0.12 0.58,0.32 0.92,0.44 0.34,0.14 0.76,0.36 0.91,0.5 0.25,0.24 0.34,0.27 0.89,0.27 0.34,0 0.8,-0.06 1.04,-0.13 0.25,-0.08 0.46,-0.11 0.5,-0.1 0.03,0.02 0.25,-0.06 0.5,-0.18 0.27,-0.13 0.52,-0.2 0.65,-0.17 0.22,0.07 0.29,0.22 0.09,0.22 -0.07,0 -0.2,0.15 -0.28,0.33 -0.11,0.24 -0.18,0.3 -0.23,0.22 -0.13,-0.2 -0.41,-0.07 -0.42,0.2 -0.01,0.29 0.1,0.32 0.17,0.04 0.03,-0.1 0.08,-0.17 0.12,-0.14 0.1,0.12 -0.06,0.5 -0.24,0.55 -0.13,0.04 -0.18,0.13 -0.19,0.4 0,0.3 -0.02,0.31 -0.08,0.13 a 0.63,0.63 0 0 1 -0.04,-0.32 c 0.03,-0.08 -0.02,-0.16 -0.14,-0.2 -0.23,-0.06 -0.33,0 -0.2,0.16 0.05,0.07 0.24,0.48 0.43,0.92 0.31,0.76 0.32,0.82 0.16,0.9 -0.25,0.16 -1.2,0.32 -1.26,0.22 a 5.46,5.46 0 0 1 -0.1,-1.03 c -0.05,-1.03 -0.12,-1.13 -0.51,-0.66 -0.25,0.3 -0.25,0.3 -0.24,0.9 0,0.57 -0.24,0.86 -0.68,0.78 a 1.98,1.98 0 0 1 -0.63,-0.24 l -0.3,-0.19 0.05,-0.62 a 2.1,2.1 0 0 0 -0.06,-0.9 C 30.07,31.06 30,30.95 29.98,30.97 a 7.2,7.2 0 0 0 -0.13,0.79 c -0.14,1.13 -0.4,1.47 -1.02,1.31 -0.25,-0.06 -0.33,-0.27 -0.33,-0.98 0,-0.55 -0.14,-0.73 -0.4,-0.51 -0.17,0.14 -0.17,0.5 -0.01,0.97 0.12,0.35 0.12,0.36 -0.14,0.55 -0.23,0.18 -0.29,0.18 -0.51,0.08 -0.22,-0.1 -0.25,-0.17 -0.22,-0.51 0.02,-0.28 0,-0.38 -0.09,-0.34 -0.08,0.01 -0.12,0.21 -0.12,0.58 0,0.53 0,0.56 -0.27,0.7 a 0.94,0.94 0 0 1 -0.54,0.11 c -0.22,-0.02 -0.27,-0.08 -0.34,-0.38 -0.12,-0.56 0,-1.56 0.34,-2.78 0.39,-1.37 0.39,-1.44 0.05,-1.12 L 25.99,29.7 25.84,29.47 A 1,1 0 0 1 25.71,28.92 0.6,0.6 0 0 0 25.55,28.4 c -0.1,-0.12 -0.23,-0.31 -0.3,-0.43 -0.1,-0.2 -0.14,-0.2 -0.68,-0.16 -0.33,0.04 -0.68,0.02 -0.8,-0.03 -0.18,-0.06 -0.22,-0.04 -0.26,0.11 -0.04,0.11 -0.1,0.16 -0.17,0.14 -0.08,-0.03 -0.14,0.03 -0.15,0.19 -0.03,0.46 -0.18,0.44 -0.64,-0.06 -0.3,-0.32 -0.5,-0.47 -0.66,-0.47 -0.16,0 -0.26,-0.08 -0.36,-0.3 -0.17,-0.36 -0.7,-0.79 -0.7,-0.56 0,0.29 -0.2,0.23 -0.34,-0.1 -0.14,-0.33 -0.15,-0.33 -0.19,-0.12 -0.05,0.34 -0.2,0.44 -0.2,0.13 0,-0.27 0,-0.27 -0.18,0.09 -0.13,0.26 -0.18,0.52 -0.16,0.94 0.01,0.56 0.01,0.57 0.07,0.2 l 0.05,-0.41 0.07,0.58 c 0.04,0.33 0.08,1.02 0.11,1.54 0.04,0.75 0.03,0.88 -0.04,0.59 -0.14,-0.52 -0.19,-0.63 -0.25,-0.55 -0.1,0.1 -0.02,1.05 0.15,1.61 0.15,0.46 0.94,1.96 1.03,1.96 a 6.25,6.25 0 0 1 -0.04,-2.2 c 0.07,-0.72 0.1,-1.65 0.07,-2.08 -0.06,-0.93 0.04,-1.33 0.34,-1.3 0.15,0.02 0.19,0.06 0.16,0.22 -0.03,0.13 0.03,0.23 0.15,0.3 0.11,0.06 0.34,0.4 0.5,0.76 l 0.32,0.67 v 1.4 c 0,1.28 0.02,1.41 0.24,1.87 0.12,0.27 0.38,0.7 0.56,0.95 0.19,0.24 0.56,0.81 0.83,1.24 0.49,0.79 0.93,1.25 1.34,1.37 0.15,0.05 0.2,0.03 0.2,-0.08 0,-0.11 0.04,-0.14 0.14,-0.1 l 0.17,0.05 c 0.02,0 0.12,0.15 0.23,0.32 0.14,0.22 0.23,0.3 0.3,0.23 0.13,-0.1 0.24,-0.03 0.45,0.28 0.15,0.25 0.42,0.35 0.42,0.17 0,-0.06 -0.1,-0.27 -0.24,-0.47 a 4.43,4.43 0 0 1 -0.75,-1.86 v -0.38 h 0.58 c 0.47,0 0.59,0.02 0.59,0.13 0,0.08 0.1,0.4 0.25,0.72 0.17,0.41 0.28,0.57 0.37,0.55 0.08,-0.03 0.25,0.06 0.4,0.2 0.35,0.35 0.3,0.1 -0.12,-0.51 -0.43,-0.62 -0.5,-1.13 -0.14,-1.04 0.12,0.03 0.24,0 0.27,-0.04 0.12,-0.2 0.23,-0.1 0.23,0.17 0,0.14 0.1,0.5 0.23,0.77 0.13,0.28 0.23,0.63 0.23,0.75 0,0.28 0.14,0.46 0.37,0.46 0.14,0 0.14,-0.05 -0.07,-0.63 -0.27,-0.8 -0.28,-1.18 -0.02,-1.4 0.18,-0.16 0.2,-0.16 0.14,-0.03 -0.07,0.2 0,0.21 0.22,0.02 0.15,-0.13 0.17,-0.13 0.25,0.07 0.05,0.11 0.14,0.45 0.19,0.73 0.1,0.56 0.35,0.95 0.53,0.85 0.07,-0.05 0.08,-0.28 0.05,-0.77 -0.07,-0.81 0.02,-1.1 0.37,-1.1 0.12,0 0.22,0.04 0.22,0.08 0,0.03 0.12,0.12 0.27,0.17 0.27,0.1 0.25,0.06 0.38,1.11 0.02,0.18 -0.01,0.23 -0.24,0.28 -0.14,0.04 -0.2,0.06 -0.1,0.07 0.08,0 0.27,0.1 0.42,0.21 0.26,0.19 0.28,0.2 0.37,0.05 0.09,-0.16 0.4,-0.2 0.78,-0.1 0.14,0.03 0.2,0.12 0.2,0.27 0,0.36 0.37,0.24 0.59,-0.18 0.13,-0.27 0.27,-0.4 0.52,-0.47 0.3,-0.11 0.33,-0.1 0.33,0.04 0,0.1 -0.08,0.2 -0.18,0.22 -0.12,0.03 -0.18,0.12 -0.18,0.3 0,0.2 0.03,0.22 0.11,0.14 0.07,-0.06 0.18,-0.1 0.27,-0.1 0.1,0 0.18,-0.1 0.22,-0.22 0.07,-0.28 0.46,-0.37 0.59,-0.14 0.04,0.1 0.17,0.17 0.27,0.17 0.16,0 0.18,0.04 0.13,0.23 -0.1,0.39 0.1,0.24 0.35,-0.26 0.2,-0.43 0.3,-0.8 0.46,-1.71 0.06,-0.39 0.16,-0.43 0.37,-0.1 0.14,0.2 0.14,0.27 0,0.94 -0.15,0.67 -0.15,0.74 -0.02,1.01 l 0.15,0.29 -0.52,0.48 c -0.33,0.3 -0.45,0.47 -0.34,0.44 l 0.63,-0.1 c 0.57,-0.08 1.4,-0.39 1.4,-0.52 0,-0.07 0.02,-0.07 0.1,0 0.18,0.18 0.01,0.57 -0.23,0.57 -0.12,0 -0.3,0.08 -0.42,0.18 l -0.22,0.18 0.2,0.05 c 0.17,0.05 0.19,0.08 0.1,0.18 -0.05,0.07 -0.15,0.13 -0.2,0.13 -0.06,0 -0.15,0.08 -0.22,0.19 -0.06,0.1 -0.19,0.17 -0.27,0.15 -0.15,-0.03 -0.53,0.34 -0.43,0.44 0.08,0.09 -0.91,1.22 -1.3,1.49 -0.2,0.13 -0.57,0.3 -0.82,0.36 -0.25,0.06 -0.45,0.17 -0.45,0.23 0,0.06 -0.02,0.1 -0.06,0.1 -0.17,-0.02 -0.3,0.03 -0.3,0.12 0,0.13 0.75,0.02 1.24,-0.2 0.48,-0.2 1.11,-0.79 1.47,-1.36 0.16,-0.24 0.49,-0.58 0.72,-0.75 0.47,-0.35 0.96,-0.89 1.92,-2.13 0.32,-0.43 0.74,-0.88 0.92,-1.02 0.32,-0.25 0.56,-0.57 0.48,-0.66 -0.03,-0.02 -0.22,0.12 -0.43,0.32 -0.34,0.33 -0.54,0.45 -0.54,0.33 0,-0.03 0.18,-0.38 0.4,-0.8 0.51,-0.94 0.84,-1.8 0.95,-2.5 0.05,-0.32 0.15,-0.63 0.22,-0.71 0.07,-0.08 0.17,-0.33 0.2,-0.54 0.05,-0.31 0.04,-0.38 -0.09,-0.38 -0.13,0 -0.14,-0.11 -0.14,-0.79 0,-1.4 0.29,-2.56 0.78,-3.17 l 0.25,-0.3 -0.02,2.34 a 40.65,40.65 0 0 1 -0.12,3.07 c -0.12,0.88 -0.54,1.89 -0.76,1.8 -0.1,-0.04 -0.13,0.02 -0.13,0.23 v 0.3 l 0.26,-0.37 c 0.74,-1 1.52,-3.04 1.9,-5 0.18,-0.84 0.18,-0.94 0.06,-1.01 -0.2,-0.11 -0.18,-0.25 0.02,-0.2 0.16,0.04 0.17,0 0.13,-0.35 -0.05,-0.48 0.12,-2.14 0.3,-3 0.12,-0.5 0.13,-0.65 0.03,-0.82 -0.07,-0.12 -0.15,-0.22 -0.18,-0.22 -0.03,0 -0.13,0.37 -0.22,0.82 -0.15,0.78 -0.4,1.34 -0.65,1.42 -0.07,0.02 -0.12,-0.06 -0.12,-0.2 0,-0.13 -0.02,-0.23 -0.04,-0.23 -0.03,0 -0.37,0.31 -0.75,0.7 a 6.9,6.9 0 0 1 -1.01,0.87 l -0.31,0.18 0.2,-0.26 c 0.19,-0.24 0.19,-0.27 0.05,-0.43 -0.2,-0.22 -0.3,-0.2 -0.23,0.04 0.04,0.2 0.03,0.2 -0.14,0.04 -0.23,-0.2 -0.36,-0.2 -0.5,0.03 a 0.44,0.44 0 0 1 -0.36,0.18 c -0.18,0 -0.35,0.13 -0.71,0.54 -0.26,0.3 -0.54,0.54 -0.63,0.54 -0.12,0 -0.17,0.07 -0.17,0.22 0,0.12 -0.06,0.24 -0.13,0.26 -0.06,0.03 -0.14,0.2 -0.18,0.37 -0.04,0.18 -0.08,0.33 -0.1,0.33 -0.04,0 -0.19,-0.1 -0.35,-0.23 A 1.12,1.12 0 0 0 37.26,28.6 c -0.2,0 -0.02,0.6 0.35,1.15 0.43,0.62 0.51,0.85 0.37,1.1 -0.07,0.14 -0.07,0.18 0.01,0.18 0.08,0 0.09,0.1 0.05,0.28 -0.04,0.2 -0.01,0.32 0.09,0.42 0.12,0.13 0.12,0.15 0,0.29 -0.07,0.08 -0.16,0.32 -0.2,0.54 -0.04,0.22 -0.13,0.47 -0.23,0.57 -0.31,0.3 -0.76,0.13 -0.6,-0.24 0.03,-0.1 0.06,-0.41 0.06,-0.7 0.01,-0.38 -0.02,-0.53 -0.16,-0.65 -0.23,-0.2 -0.3,-0.1 -0.35,0.69 -0.05,0.68 -0.15,0.8 -0.53,0.63 -0.27,-0.13 -0.28,-0.43 -0.03,-1.21 l 0.18,-0.6 c 0,-0.09 -0.64,-0.27 -0.81,-0.22 -0.18,0.04 -0.2,0.09 -0.15,0.51 l 0.11,0.8 c 0.05,0.28 0.02,0.37 -0.18,0.56 a 0.7,0.7 0 0 1 -0.5,0.23 c -0.26,0 -0.28,-0.02 -0.19,-0.18 0.08,-0.14 0.07,-0.22 -0.04,-0.33 -0.2,-0.2 -0.17,-0.34 0.15,-1.04 0.22,-0.48 0.35,-0.65 0.55,-0.74 0.26,-0.1 0.26,-0.12 0.12,-0.26 a 0.65,0.65 0 0 1 -0.14,-0.4 c 0,-0.2 0.01,-0.23 0.09,-0.12 0.06,0.1 0.09,0.1 0.09,0.02 0,-0.06 0.12,-0.24 0.29,-0.38 0.27,-0.26 0.3,-0.5 0.02,-0.27 -0.1,0.09 -0.14,0.08 -0.19,-0.04 -0.07,-0.18 -0.3,-0.19 -0.54,0 -0.22,0.16 -0.58,0.16 -0.58,0 0,-0.13 0.2,-0.23 0.45,-0.23 0.25,0 0.37,-0.4 0.37,-1.22 0,-0.75 0,-0.76 -0.56,-1.78 a 8.82,8.82 0 0 0 -0.8,-1.3 c -0.22,-0.22 -0.3,-0.42 -0.4,-1.01 -0.12,-0.7 -0.36,-1.28 -0.53,-1.28 -0.04,0 -0.04,0.03 -0.02,0.09 z m 0.47,12.14 c 0.18,0.13 0.2,0.2 0.18,0.86 l -0.02,0.72 h -0.5 c -0.3,0 -0.44,-0.04 -0.36,-0.08 0.1,-0.06 0.09,-0.12 -0.04,-0.32 -0.2,-0.3 -0.13,-0.8 0.15,-1.1 0.23,-0.25 0.33,-0.26 0.6,-0.08 z"
       id="path86"
       inkscape:connector-curvature="0" />
  </g>
</svg>
