<?xml version="1.0" encoding="UTF-8"?>
<svg width="24" height="24" version="1" xmlns="http://www.w3.org/2000/svg">
 <path d="m11.93 2.4199c-3.099 0.0061563-7.2504 3.0036-7.3203 5.541-0.07 2.75-0.27016 7.7384-0.41016 11.568h-1.8984v2.5h19.369v-2.5h-2.0293c-0.14-4.46-0.30016-9.5984-0.41016-11.568-0.14985-2.6373-4.2022-5.535-7.291-5.541h-0.009765zm0.009765 1.4297c2.32 0 5.8809 2.6612 5.8809 4.9512-0.03 1.56 0.049063 5.1487 0.039063 10.719h-11.879c-0.03-6 0.099609-10.779 0.099609-10.779 0-2.21 3.5294-4.8906 5.8594-4.8906zm0.060547 5.6504c-2.1302 0-3.8574 0.57508-3.8574 1.2852v6.4297c0 0.71008 1.7272 1.2852 3.8574 1.2852 2.1302 0 3.8574-0.57508 3.8574-1.2852v-6.4297c0-0.71008-1.7272-1.2852-3.8574-1.2852zm0 1.2852c0.95038 0.0011 1.8669 0.11972 2.5723 0.33203v0.625c-0.70648 0.2114-1.6229 0.32965-2.5723 0.33008-0.95038-0.001119-1.8669-0.11972-2.5723-0.33203v-0.625c0.70648-0.2114 1.6229-0.32965 2.5723-0.33008z" fill="#c83737"/>
</svg>
