<?xml version="1.0" encoding="UTF-8" standalone="no"?>
<svg
   xmlns:x="adobe:ns:meta/"
   xmlns:dc="http://purl.org/dc/elements/1.1/"
   xmlns:cc="http://creativecommons.org/ns#"
   xmlns:rdf="http://www.w3.org/1999/02/22-rdf-syntax-ns#"
   xmlns:svg="http://www.w3.org/2000/svg"
   xmlns="http://www.w3.org/2000/svg"
   xmlns:sodipodi="http://sodipodi.sourceforge.net/DTD/sodipodi-0.dtd"
   xmlns:inkscape="http://www.inkscape.org/namespaces/inkscape"
   width="22"
   height="22"
   version="1.1"
   id="svg10"
   sodipodi:docname="megasynching.svg"
   inkscape:version="0.92.4 (5da689c313, 2019-01-14)">
  <defs
     id="defs14" />
  <sodipodi:namedview
     pagecolor="#ffffff"
     bordercolor="#666666"
     borderopacity="1"
     objecttolerance="10"
     gridtolerance="10"
     guidetolerance="10"
     inkscape:pageopacity="0"
     inkscape:pageshadow="2"
     inkscape:window-width="1112"
     inkscape:window-height="480"
     id="namedview12"
     showgrid="false"
     inkscape:zoom="10.727273"
     inkscape:cx="11"
     inkscape:cy="11"
     inkscape:window-x="0"
     inkscape:window-y="25"
     inkscape:window-maximized="0"
     inkscape:current-layer="svg10" />
  <metadata
     id="metadata2">
<?xpacket begin="$"W5M0MpCehiHzreSzNTczkc9d"?>    <x:xmpmeta
       x:xmptk="Adobe XMP Core 5.6-c138 79.159824, 2016/09/14-01:09:01">
      <metadata>
        <rdf:RDF>
          <rdf:Description />
          <cc:Work>
            <dc:format>image/svg+xml</dc:format>
            <dc:type
               rdf:resource="http://purl.org/dc/dcmitype/StillImage" />
            <dc:title></dc:title>
          </cc:Work>
        </rdf:RDF>
      </metadata>
    </x:xmpmeta>
<?xpacket end="w"?>  </metadata>
  <path
     d="M 16.92,2.25 A 1.06,1.06 0 0 0 16.16,2.56 L 10.2,8.61 a 0.26,0.26 0 0 1 -0.38,0 L 3.85,2.57 A 1.06,1.06 0 0 0 3.09,2.25 H 1.54 A 0.54,0.54 0 0 0 1,2.79 v 12.42 a 0.54,0.54 0 0 0 0.54,0.54 H 3.79 A 0.54,0.54 0 0 0 4.33,15.21 V 8.15 A 0.07,0.07 0 0 1 4.45,8.1 l 4.79,4.86 a 1.06,1.06 0 0 0 1.5,0 l 4.8,-4.86 a 0.07,0.07 0 0 1 0.12,0.05 v 2 a 6.26,6.26 0 0 1 0.12,-0.02 6.26,6.26 0 0 1 0.63,-0.03 6.26,6.26 0 0 1 0.44,0.02 6.26,6.26 0 0 1 0.62,0.07 6.26,6.26 0 0 1 0.61,0.14 6.26,6.26 0 0 1 0.6,0.2 6.26,6.26 0 0 1 0.32,0.14 V 2.79 A 0.54,0.54 0 0 0 18.46,2.25 Z"
     id="path4"
     inkscape:connector-curvature="0"
     style="fill:#800000;fill-rule:evenodd" />
  <path
     style="opacity:0.7;fill-rule:evenodd"
     d="m 16.4,10.86 a 5.5,5.5 0 1 0 5.5,5.5 5.5,5.5 0 0 0 -5.5,-5.5 z"
     id="path818" />
  <path
     style="opacity:1;fill-rule:evenodd;fill:#f2f2f2"
     d="M 16.419922 12.859375 A 3.49 3.49 0 0 0 12.970703 15.859375 L 14.140625 15.859375 A 2.33 2.33 0 0 1 16.419922 14.029297 A 2.3 2.3 0 0 1 18.060547 14.720703 L 17 15.779297 L 19.900391 15.779297 L 19.919922 12.859375 L 18.880859 13.900391 A 3.45 3.45 0 0 0 16.419922 12.859375 z M 18.679688 16.849609 A 2.33 2.33 0 0 1 16.410156 18.689453 A 2.3 2.3 0 0 1 14.759766 18 L 15.820312 16.949219 L 12.910156 16.949219 L 12.910156 19.859375 L 13.939453 18.830078 A 3.45 3.45 0 0 0 16.400391 19.859375 L 16.410156 19.849609 A 3.49 3.49 0 0 0 19.859375 16.849609 L 18.679688 16.849609 z "
     id="path816" />
</svg>
