<?xml version="1.0" encoding="UTF-8" standalone="no"?>
<svg
   xmlns:dc="http://purl.org/dc/elements/1.1/"
   xmlns:cc="http://creativecommons.org/ns#"
   xmlns:rdf="http://www.w3.org/1999/02/22-rdf-syntax-ns#"
   xmlns:svg="http://www.w3.org/2000/svg"
   xmlns="http://www.w3.org/2000/svg"
   xmlns:sodipodi="http://sodipodi.sourceforge.net/DTD/sodipodi-0.dtd"
   xmlns:inkscape="http://www.inkscape.org/namespaces/inkscape"
   width="24"
   height="24"
   version="1.1"
   id="svg6"
   sodipodi:docname="nm-vpn-standalone-lock.svg"
   inkscape:version="0.92.4 (5da689c313, 2019-01-14)">
  <metadata
     id="metadata12">
    <rdf:RDF>
      <cc:Work
         rdf:about="">
        <dc:format>image/svg+xml</dc:format>
        <dc:type
           rdf:resource="http://purl.org/dc/dcmitype/StillImage" />
        <dc:title></dc:title>
      </cc:Work>
    </rdf:RDF>
  </metadata>
  <defs
     id="defs10" />
  <sodipodi:namedview
     pagecolor="#ffffff"
     bordercolor="#666666"
     borderopacity="1"
     objecttolerance="10"
     gridtolerance="10"
     guidetolerance="10"
     inkscape:pageopacity="0"
     inkscape:pageshadow="2"
     inkscape:window-width="1112"
     inkscape:window-height="480"
     id="namedview8"
     showgrid="false"
     inkscape:zoom="9.8333333"
     inkscape:cx="1.0677966"
     inkscape:cy="12"
     inkscape:window-x="0"
     inkscape:window-y="25"
     inkscape:window-maximized="0"
     inkscape:current-layer="svg6" />
  <path
     d="m 12,1.37 a 10.63,10.63 0 1 0 0,21.26 10.63,10.63 0 0 0 0,-21.26 z m 0,19.37 a 8.74,8.74 0 0 1 0,-17.48 8.74,8.74 0 0 1 0,17.48 z"
     id="path2"
     inkscape:connector-curvature="0"
     style="fill:#ff2a2a" />
  <path
     d="M 7.49,9.44 H 5.3 A 7.11,7.11 0 0 0 4.87,11.22 H 7.31 C 7.34,10.61 7.4,10.02 7.49,9.44 Z M 6.14,7.88 H 7.83 A 10.68,10.68 0 0 1 8.75,5.61 7.22,7.22 0 0 0 6.14,7.88 Z m 10.37,6.68 h 2.19 a 7.1,7.1 0 0 0 0.43,-1.78 h -2.44 c -0.03,0.61 -0.09,1.2 -0.18,1.78 z m 0.19,-3.34 h 2.43 A 7.1,7.1 0 0 0 18.7,9.44 h -2.2 c 0.1,0.57 0.15,1.17 0.18,1.78 z m -1.22,6.75 c -0.07,0.15 -0.15,0.28 -0.23,0.42 a 7.22,7.22 0 0 0 2.61,-2.27 h -1.69 a 10.7,10.7 0 0 1 -0.7,1.85 z M 16.17,7.88 h 1.7 A 7.22,7.22 0 0 0 15.25,5.61 c 0.08,0.14 0.16,0.27 0.23,0.42 0.27,0.56 0.5,1.18 0.7,1.85 z M 7.83,16.12 H 6.13 A 7.22,7.22 0 0 0 8.75,18.39 10.67,10.67 0 0 1 7.83,16.12 Z M 7.3,12.78 H 4.88 C 4.95,13.4 5.09,14 5.31,14.56 H 7.5 C 7.4,13.99 7.35,13.39 7.32,12.78 Z m 5.48,-7.69 v 2.79 h 1.77 C 14.1,6.51 13.45,5.53 12.78,5.08 Z M 9.45,7.88 h 1.77 V 5.08 C 10.54,5.53 9.9,6.51 9.45,7.88 Z m 1.77,11.03 V 16.12 H 9.45 c 0.45,1.37 1.1,2.35 1.77,2.8 z m 1.56,0 c 0.68,-0.44 1.32,-1.42 1.77,-2.79 H 12.78 Z M 12.06,8.63 c -0.87,0 -1.58,0.7 -1.58,1.58 v 0.63 H 9.53 v 3.79 c 0,0.35 0.28,0.63 0.63,0.63 h 3.79 c 0.35,0 0.63,-0.28 0.63,-0.63 l 0.04,-3.77 -0.67,-0.02 h -0.32 v -0.63 c 0,-0.87 -0.7,-1.58 -1.57,-1.58 z m 0,0.6 c 0.54,0 0.97,0.44 0.97,0.98 v 0.63 h -1.95 v -0.63 c 0,-0.54 0.44,-0.98 0.98,-0.98 z"
     id="path4"
     inkscape:connector-curvature="0"
     style="fill:#ff2a2a" />
</svg>
