<?xml version="1.0" encoding="UTF-8" standalone="no"?>
<svg
   xmlns:dc="http://purl.org/dc/elements/1.1/"
   xmlns:cc="http://creativecommons.org/ns#"
   xmlns:rdf="http://www.w3.org/1999/02/22-rdf-syntax-ns#"
   xmlns:svg="http://www.w3.org/2000/svg"
   xmlns="http://www.w3.org/2000/svg"
   xmlns:xlink="http://www.w3.org/1999/xlink"
   xmlns:sodipodi="http://sodipodi.sourceforge.net/DTD/sodipodi-0.dtd"
   xmlns:inkscape="http://www.inkscape.org/namespaces/inkscape"
   width="24"
   height="24"
   version="1.1"
   id="svg20"
   sodipodi:docname="weather-few-clouds-night.svg"
   inkscape:version="0.92.4 (5da689c313, 2019-01-14)">
  <metadata
     id="metadata24">
    <rdf:RDF>
      <cc:Work
         rdf:about="">
        <dc:format>image/svg+xml</dc:format>
        <dc:type
           rdf:resource="http://purl.org/dc/dcmitype/StillImage" />
        <dc:title></dc:title>
      </cc:Work>
    </rdf:RDF>
  </metadata>
  <sodipodi:namedview
     pagecolor="#ffffff"
     bordercolor="#666666"
     borderopacity="1"
     objecttolerance="10"
     gridtolerance="10"
     guidetolerance="10"
     inkscape:pageopacity="0"
     inkscape:pageshadow="2"
     inkscape:window-width="1112"
     inkscape:window-height="480"
     id="namedview22"
     showgrid="false"
     inkscape:zoom="9.8333333"
     inkscape:cx="1.0677966"
     inkscape:cy="12"
     inkscape:window-x="0"
     inkscape:window-y="25"
     inkscape:window-maximized="0"
     inkscape:current-layer="svg20" />
  <defs
     id="defs14">
    <linearGradient
       id="a">
      <stop
         offset="0"
         stop-color="#4d4d4d"
         id="stop2" />
      <stop
         offset="1"
         stop-color="#ececec"
         id="stop4" />
    </linearGradient>
    <linearGradient
       xlink:href="#a"
       id="d"
       x1="7.994"
       y1="23.073"
       x2="7.974"
       y2="13.331"
       gradientUnits="userSpaceOnUse"
       gradientTransform="matrix(0.85714,0,0,0.85714,2.728,3.414)" />
    <linearGradient
       xlink:href="#b"
       id="c"
       x1="3.489"
       y1="21.362"
       x2="20.939"
       y2="7.295"
       gradientUnits="userSpaceOnUse" />
    <linearGradient
       id="b">
      <stop
         offset="0"
         stop-color="#1a1a1a"
         id="stop9" />
      <stop
         offset="1"
         stop-color="#ccc"
         id="stop11" />
    </linearGradient>
  </defs>
  <path
     d="m 12.93,2.009 c -3.948,0.145 -7.586,2.579 -9.02,6.52 -1.89,5.192 0.747,10.972 5.94,12.862 3.94,1.435 8.202,0.207 10.851,-2.724 -1.897,0.612 -4.01,0.645 -6.029,-0.09 C 9.852,16.823 7.38,11.474 9.135,6.653 9.869,4.635 11.242,3.069 12.931,2.009 Z"
     style="color:#bebebe;overflow:visible;fill:url(#c);marker:none"
     overflow="visible"
     id="path16"
     inkscape:connector-curvature="0" />
  <path
     d="m 15.662,14.673 c -1.574,0 -2.886,1.03 -3.375,2.438 a 2.992,2.992 0 0 0 -2.625,2.962 3,3 0 0 0 3,3 h 6.6 a 2.4,2.4 0 1 0 0,-4.8 3.6,3.6 0 0 0 -3.6,-3.6 z"
     id="path18"
     style="fill:url(#d)"
     inkscape:connector-curvature="0" />
</svg>
