<?xml version="1.0" encoding="UTF-8" standalone="no"?>
<svg
   xmlns:dc="http://purl.org/dc/elements/1.1/"
   xmlns:cc="http://creativecommons.org/ns#"
   xmlns:rdf="http://www.w3.org/1999/02/22-rdf-syntax-ns#"
   xmlns:svg="http://www.w3.org/2000/svg"
   xmlns="http://www.w3.org/2000/svg"
   xmlns:sodipodi="http://sodipodi.sourceforge.net/DTD/sodipodi-0.dtd"
   xmlns:inkscape="http://www.inkscape.org/namespaces/inkscape"
   viewBox="0 0 24 24"
   version="1.1"
   id="svg4"
   sodipodi:docname="package-new.svg"
   inkscape:version="0.92.3 (2405546, 2018-03-11)"
   width="24"
   height="24"
   style="fill:#000000">
  <metadata
     id="metadata10">
    <rdf:RDF>
      <cc:Work
         rdf:about="">
        <dc:format>image/svg+xml</dc:format>
        <dc:type
           rdf:resource="http://purl.org/dc/dcmitype/StillImage" />
        <dc:title></dc:title>
      </cc:Work>
    </rdf:RDF>
  </metadata>
  <defs
     id="defs8" />
  <sodipodi:namedview
     pagecolor="#ffffff"
     bordercolor="#666666"
     borderopacity="1"
     objecttolerance="10"
     gridtolerance="10"
     guidetolerance="10"
     inkscape:pageopacity="0"
     inkscape:pageshadow="2"
     inkscape:window-width="1366"
     inkscape:window-height="717"
     id="namedview6"
     showgrid="false"
     inkscape:zoom="20.625"
     inkscape:cx="11.151515"
     inkscape:cy="12"
     inkscape:window-x="0"
     inkscape:window-y="25"
     inkscape:window-maximized="1"
     inkscape:current-layer="svg4"
     showguides="true"
     inkscape:guide-bbox="true"
     inkscape:snap-global="false" />
  <path
     style="fill:#333333;stroke-width:0.5"
     d="m 4.9767351,2.9709347 c -1.105,0 -2,0.895 -2,2 V 18.970935 c 0,1.105 0.895,2 2,2 H 18.976735 c 1.105,0 2,-0.895 2,-2 V 4.9709347 c 0,-1.105 -0.895,-2 -2,-2 z m 6.9990229,2.805664 c 1.135055,0 2.19996,0.304472 3.118164,0.835937 l -3.118164,2.265625 -3.1181639,-2.265625 c 0.918205,-0.531437 1.9831089,-0.835937 3.1181639,-0.835937 z m -4.1796869,1.609375 1.190429,3.6650393 -3.120117,2.266601 c -0.08853,-0.418131 -0.135742,-0.85179 -0.135742,-1.295898 0,-1.837364 0.798245,-3.4920473 2.06543,-4.6357423 z m 8.3593749,0 c 1.267156,1.143751 2.065429,2.7984073 2.065429,4.6357423 0,0.444108 -0.04718,0.877795 -0.135742,1.295898 l -3.120117,-2.267578 z m -7.2353519,0.430664 2.2587889,1.640625 -1.3955079,1.0146483 z m 6.1103519,0 -0.862305,2.6552733 -1.395508,-1.0146483 z m -3.054688,2.2197263 1.887696,1.372071 -0.720704,2.219726 h -2.333984 l -0.721679,-2.219726 z m -2.6855459,1.951172 0.533202,1.640625 h -2.791015 z m 5.3701169,0 2.258789,1.640625 h -2.791993 z m -8.3876959,2.577149 h 3.8554689 l 1.191406,3.667969 C 9.0642701,17.996223 7.1631501,16.554096 6.2726331,14.564685 Z m 4.8408209,0 h 1.724609 l -0.862305,2.654297 z m 2.70996,0 h 3.855469 c -0.890488,1.989411 -2.792553,3.431538 -5.047851,3.667969 z"
     id="path2"
     inkscape:connector-curvature="0" />
</svg>
