<?xml version="1.0" encoding="UTF-8" standalone="no"?>
<svg
   xmlns:dc="http://purl.org/dc/elements/1.1/"
   xmlns:cc="http://creativecommons.org/ns#"
   xmlns:rdf="http://www.w3.org/1999/02/22-rdf-syntax-ns#"
   xmlns:svg="http://www.w3.org/2000/svg"
   xmlns="http://www.w3.org/2000/svg"
   xmlns:sodipodi="http://sodipodi.sourceforge.net/DTD/sodipodi-0.dtd"
   xmlns:inkscape="http://www.inkscape.org/namespaces/inkscape"
   viewBox="0 0 24 24"
   version="1.1"
   id="svg4"
   sodipodi:docname="window-close.svg"
   inkscape:version="0.92.3 (2405546, 2018-03-11)"
   width="24"
   height="24"
   style="fill:#000000">
  <metadata
     id="metadata10">
    <rdf:RDF>
      <cc:Work
         rdf:about="">
        <dc:format>image/svg+xml</dc:format>
        <dc:type
           rdf:resource="http://purl.org/dc/dcmitype/StillImage" />
        <dc:title></dc:title>
      </cc:Work>
    </rdf:RDF>
  </metadata>
  <defs
     id="defs8" />
  <sodipodi:namedview
     pagecolor="#ffffff"
     bordercolor="#666666"
     borderopacity="1"
     objecttolerance="10"
     gridtolerance="10"
     guidetolerance="10"
     inkscape:pageopacity="0"
     inkscape:pageshadow="2"
     inkscape:window-width="1366"
     inkscape:window-height="717"
     id="namedview6"
     showgrid="false"
     inkscape:zoom="20.625"
     inkscape:cx="2.5212121"
     inkscape:cy="12"
     inkscape:window-x="0"
     inkscape:window-y="25"
     inkscape:window-maximized="1"
     inkscape:current-layer="svg4"
     showguides="true"
     inkscape:guide-bbox="true" />
  <path
     style="fill:#333333;stroke-width:0.05148441"
     d="M 4.102711,3.1375249 C 3.785305,3.1170469 3.492658,3.1870309 3.29607,3.3836186 2.77184,3.9078497 3.15109,5.1019199 3.73357,5.6843999 4.112182,6.0630099 4.666025,6.2091 5.132008,6.092603 5.161134,6.12173 5.220065,6.178712 5.249195,6.2078374 L 10.73357,12.024242 3.51482,18.82893 c -0.465984,0.465984 -0.465984,1.22347 0,1.689453 0.465983,0.465985 1.22347,0.465984 1.689453,0 l 6.767579,-7.179687 6.732421,7.140625 c 0.465983,0.465984 1.22347,0.465984 1.689454,0 0.465984,-0.465985 0.465984,-1.22347 0,-1.689454 l -7.179688,-6.767578 5.445313,-5.7753891 c 0.02912,-0.029117 0.08806,-0.088063 0.117187,-0.1171875 0.465984,0.1164985 0.988749,0.00149 1.396484,-0.40625 0.582482,-0.58248 0.961734,-1.7765482 0.4375,-2.3007812 -0.52423,-0.5242305 -1.718301,-0.1469332 -2.300781,0.4355468 -0.378615,0.378613 -0.5247,0.9324545 -0.408203,1.3984375 -0.02913,0.029129 -0.08611,0.088063 -0.115234,0.1171875 L 11.975758,10.852367 6.122242,5.3347905 C 6.093126,5.3056715 6.034185,5.246728 6.005055,5.217603 6.121553,4.751619 6.004588,4.2288552 5.596852,3.8211186 5.232802,3.4570686 4.63172,3.1716543 4.102711,3.1375249 Z"
     id="path2-3"
     inkscape:connector-curvature="0" />
</svg>
