<svg xmlns="http://www.w3.org/2000/svg" xmlns:xlink="http://www.w3.org/1999/xlink" height="48" width="48"><defs><linearGradient id="a"><stop offset="0"/><stop offset="1" stop-opacity="0"/></linearGradient><linearGradient xlink:href="#a" id="b" x1="10.49" y1="29.22" x2="45.56" y2="29.22" gradientUnits="userSpaceOnUse"/></defs><path d="M23.79 2.44A21.77 21.86 0 0 0 2.02 24.3a21.77 21.86 0 0 0 21.77 21.87A21.77 21.86 0 0 0 45.56 24.3 21.77 21.86 0 0 0 23.79 2.44z" fill="#f95" fill-opacity=".99" paint-order="markers fill stroke"/><g fill="url(#b)"><path d="M36.62 41.94a21.77 21.86 0 0 0 1.2-.91 21.77 21.86 0 0 0 1.58-1.5 21.77 21.86 0 0 0 1.44-1.63 21.77 21.86 0 0 0 1.27-1.78 21.77 21.86 0 0 0 1.08-1.9 21.77 21.86 0 0 0 .89-2 21.77 21.86 0 0 0 .69-2.07 21.77 21.86 0 0 0 .47-2.13 21.77 21.86 0 0 0 .26-2.17 21.77 21.86 0 0 0 .06-1.55 21.77 21.86 0 0 0-.11-2.18 21.77 21.86 0 0 0-.2-1.33l-8.52-8.52-15.17 14.62zM20.2 45.87a21.77 21.86 0 0 0 2.05.25 21.77 21.86 0 0 0 1.54.05 21.77 21.86 0 0 0 2.17-.1 21.77 21.86 0 0 0 2.15-.34 21.77 21.86 0 0 0 2.11-.54 21.77 21.86 0 0 0 2.05-.75 21.77 21.86 0 0 0 1.95-.95 21.77 21.86 0 0 0 1.23-.75L20.49 27.78l-10 8.38z" opacity=".5"/></g><path d="M35.65 11.2l1.8 1.79L24.5 25.97l3.69 3.63-1.87 1.9-9.23-9.07 1.87-1.9 3.73 3.66z" fill="#fff" paint-order="markers fill stroke"/><path d="M22.7 24.2l-.05.03 1.8 1.8.06-.06z" fill="#ccc" fill-opacity=".95" paint-order="markers fill stroke"/><path d="M16.02 23.31l9.57 9.58-4.88 4.88c-.98 1.64 3.98 1.8 6.05 2.67l-9.4.68c-3.76-1.4-10.32-7.64-9-10.14z" fill="#fff" paint-order="markers fill stroke"/></svg>