<?xml version="1.0" encoding="UTF-8" standalone="no"?>
<svg
   xmlns:dc="http://purl.org/dc/elements/1.1/"
   xmlns:cc="http://creativecommons.org/ns#"
   xmlns:rdf="http://www.w3.org/1999/02/22-rdf-syntax-ns#"
   xmlns:svg="http://www.w3.org/2000/svg"
   xmlns="http://www.w3.org/2000/svg"
   xmlns:sodipodi="http://sodipodi.sourceforge.net/DTD/sodipodi-0.dtd"
   xmlns:inkscape="http://www.inkscape.org/namespaces/inkscape"
   fill="#000000"
   height="48"
   viewBox="0 0 48 48"
   width="48"
   version="1.1"
   id="svg4"
   sodipodi:docname="aptdaemon-delete.svg"
   inkscape:version="0.92.3 (2405546, 2018-03-11)">
  <metadata
     id="metadata10">
    <rdf:RDF>
      <cc:Work
         rdf:about="">
        <dc:format>image/svg+xml</dc:format>
        <dc:type
           rdf:resource="http://purl.org/dc/dcmitype/StillImage" />
        <dc:title />
      </cc:Work>
    </rdf:RDF>
  </metadata>
  <defs
     id="defs8" />
  <sodipodi:namedview
     pagecolor="#ffffff"
     bordercolor="#666666"
     borderopacity="1"
     objecttolerance="10"
     gridtolerance="10"
     guidetolerance="10"
     inkscape:pageopacity="0"
     inkscape:pageshadow="2"
     inkscape:window-width="1366"
     inkscape:window-height="690"
     id="namedview6"
     showgrid="false"
     inkscape:zoom="4.9166667"
     inkscape:cx="24"
     inkscape:cy="24"
     inkscape:window-x="0"
     inkscape:window-y="28"
     inkscape:window-maximized="1"
     inkscape:current-layer="svg4"
     showguides="true"
     inkscape:guide-bbox="true" />
  <path
     style="opacity:1;fill:#cccccc;fill-opacity:0.95373667;fill-rule:nonzero;stroke:none;stroke-width:0.27330509;stroke-linecap:butt;stroke-linejoin:round;stroke-miterlimit:4;stroke-dasharray:none;stroke-dashoffset:0;stroke-opacity:1;paint-order:markers fill stroke"
     d="M 23.787109 2.4414062 A 21.771761 21.864407 0 0 0 2.015625 24.304688 A 21.771761 21.864407 0 0 0 23.787109 46.169922 A 21.771761 21.864407 0 0 0 45.558594 24.304688 A 21.771761 21.864407 0 0 0 23.787109 2.4414062 z M 23.898438 7.1054688 C 33.326102 7.1054687 40.996094 14.774938 40.996094 24.203125 C 40.996094 33.631312 33.326625 41.300781 23.898438 41.300781 C 14.470252 41.300781 6.8007812 33.631312 6.8007812 24.203125 C 6.8007813 14.774938 14.470773 7.1054688 23.898438 7.1054688 z M 23.898438 10.236328 C 16.197326 10.236328 9.9316406 16.502013 9.9316406 24.203125 C 9.9316406 27.672931 11.207681 30.849669 13.310547 33.294922 L 32.990234 13.615234 C 30.54498 11.512368 27.368244 10.236328 23.898438 10.236328 z M 35.125 15.908203 L 15.601562 35.431641 C 17.923118 37.151408 20.793983 38.169922 23.898438 38.169922 C 31.599551 38.169922 37.865756 31.903715 37.865234 24.203125 C 37.865234 21.098671 36.844767 18.229758 35.125 15.908203 z "
     id="path812" />
</svg>
