<svg xmlns="http://www.w3.org/2000/svg" xmlns:xlink="http://www.w3.org/1999/xlink" width="48" height="48"><defs><linearGradient id="k"><stop offset="0" stop-color="#c83737"/><stop offset="1" stop-color="#d35f5f"/></linearGradient><linearGradient id="j"><stop offset="0" stop-color="#c83737"/><stop offset="1" stop-color="#d35f5f"/></linearGradient><linearGradient id="i"><stop offset="0" stop-color="#c83737"/><stop offset="1" stop-color="#d35f5f"/></linearGradient><linearGradient id="h"><stop offset="0" stop-color="#c83737"/><stop offset="1" stop-color="#d35f5f"/></linearGradient><linearGradient id="g"><stop offset="0" stop-color="#a02c2c"/><stop offset="1" stop-color="#d35f5f"/></linearGradient><linearGradient id="e"><stop offset="0" stop-color="#d35f5f"/><stop offset="1" stop-color="#a02c2c"/></linearGradient><linearGradient id="f"><stop offset="0" stop-color="#a02c2c"/><stop offset="1" stop-color="#d35f5f"/></linearGradient><linearGradient id="a"><stop offset="0" stop-color="#fff"/><stop offset="1" stop-color="#fff" stop-opacity="0"/></linearGradient><linearGradient id="b"><stop offset="0"/><stop offset="1" stop-opacity="0"/></linearGradient><linearGradient id="c"><stop offset="0" stop-color="#f5f5f5"/><stop offset="1" stop-color="#d2d2d2"/></linearGradient><linearGradient id="s" x1="30" x2="30" y1="5" y2="44.68" gradientUnits="userSpaceOnUse" xlink:href="#d" gradientTransform="matrix(.98865 0 0 .98865 -6.37 2.17)"/><linearGradient id="d"><stop offset="0" stop-color="#d35f5f"/><stop offset="1" stop-color="#8c8c8c"/></linearGradient><linearGradient id="o" x1="30" x2="30" y1="18.25" y2="45" gradientUnits="userSpaceOnUse" xlink:href="#e" gradientTransform="matrix(.98865 0 0 .98865 -6.37 2.17)"/><linearGradient xlink:href="#f" id="n" gradientUnits="userSpaceOnUse" x1="23.66" y1="46.47" x2="23.66" y2="20.03" gradientTransform="translate(-.36 .19)"/><linearGradient xlink:href="#g" id="r" gradientUnits="userSpaceOnUse" x1="23.39" y1="27.75" x2="23.66" y2="6.93" gradientTransform="translate(-.36 .19)"/><linearGradient xlink:href="#h" id="q" gradientUnits="userSpaceOnUse" x1="34.66" y1="2.41" x2="26.7" y2="12.61" gradientTransform="translate(-.36 .19)"/><linearGradient xlink:href="#i" id="p" gradientUnits="userSpaceOnUse" x1="11.94" y1="2.41" x2="20.76" y2="12.61" gradientTransform="translate(-.36 .19)"/><linearGradient xlink:href="#j" id="m" gradientUnits="userSpaceOnUse" x1="41.5" y1="20.22" x2="34.71" y2="32.85" gradientTransform="translate(-.36 .19)"/><linearGradient xlink:href="#k" id="l" gradientUnits="userSpaceOnUse" x1="34.08" y1="31.46" x2="41.8" y2="24.09" gradientTransform="translate(-.36 .19)"/></defs><path d="M34.35 33.03l-.63-1.38a6.47 6.47 0 0 0 3.24-3.1c.52-1.07.6-1.94.6-1.95l1.51.11a8.03 8.03 0 0 1-4.73 6.32z" fill="url(#l)"/><path d="M41.4 26.67l-1.25-6.02a.76.76 0 0 0-1.4-.24l-3.23 5.28a.76.76 0 0 0 .52 1.15l4.5.78a.76.76 0 0 0 .87-.95z" fill="url(#m)"/><path d="M18.84 22.44c.46 2.15.71 3.78.34 5.93-2.88 2.39-10.24 3.46-10.22 5.93l-1 7.42c0 2.45 6.87 4.45 15.33 4.45s15.33-2 15.33-4.45l-1-7.42c0-2.11-7.4-3.46-10.25-5.93-.24-2-.05-3.93.37-5.93h-8.9z" fill="url(#n)"/><path d="M18.9 7.84c-3.38-.6-5.52-4.97-5.54-5.01a.77.77 0 0 0-1.44.17c-.01.07-.34 1.68-.1 3.6.32 2.63 1.55 4.58 3.55 5.62.51.26 1.04.4 1.57.4.84 0 1.67-.36 2.31-1a3.3 3.3 0 0 0 1-1.97c.09-.94-.44-1.66-1.34-1.81z" fill="url(#p)"/><path d="M27.4 7.84c3.4-.6 5.54-4.97 5.56-5.01a.76.76 0 0 1 1.43.17c.02.07.34 1.68.1 3.6-.32 2.63-1.54 4.58-3.55 5.62-.51.26-1.04.4-1.57.4a3.3 3.3 0 0 1-2.31-1 3.3 3.3 0 0 1-1-1.97c-.08-.94.44-1.66 1.34-1.81z" fill="url(#q)"/><path d="M23.3 7.6c-4.1 0-7.42 3.1-7.42 6.93.03 1.41.15 3.1.99 6.92.49 1.48 4.9 5.44 4.94 5.93.96.5 2.47.5 3.46 0 0-.5 3.95-4.45 4.45-5.93.94-3.98.94-5.44.99-6.92 0-3.82-3.32-6.92-7.42-6.92z" fill="url(#r)"/></svg>