<?xml version="1.0" encoding="UTF-8" standalone="no"?>
<svg
   xmlns:dc="http://purl.org/dc/elements/1.1/"
   xmlns:cc="http://creativecommons.org/ns#"
   xmlns:rdf="http://www.w3.org/1999/02/22-rdf-syntax-ns#"
   xmlns:svg="http://www.w3.org/2000/svg"
   xmlns="http://www.w3.org/2000/svg"
   xmlns:sodipodi="http://sodipodi.sourceforge.net/DTD/sodipodi-0.dtd"
   xmlns:inkscape="http://www.inkscape.org/namespaces/inkscape"
   fill="#000000"
   height="48"
   viewBox="0 0 48 48"
   width="48"
   version="1.1"
   id="svg4"
   sodipodi:docname="dialog-password.svg"
   inkscape:version="0.92.3 (2405546, 2018-03-11)">
  <metadata
     id="metadata10">
    <rdf:RDF>
      <cc:Work
         rdf:about="">
        <dc:format>image/svg+xml</dc:format>
        <dc:type
           rdf:resource="http://purl.org/dc/dcmitype/StillImage" />
        <dc:title></dc:title>
      </cc:Work>
    </rdf:RDF>
  </metadata>
  <defs
     id="defs8">
    <marker
       inkscape:stockid="DotL"
       orient="auto"
       refY="0.0"
       refX="0.0"
       id="DotL"
       style="overflow:visible"
       inkscape:isstock="true">
      <path
         id="path963"
         d="M -2.5,-1.0 C -2.5,1.7600000 -4.7400000,4.0 -7.5,4.0 C -10.260000,4.0 -12.5,1.7600000 -12.5,-1.0 C -12.5,-3.7600000 -10.260000,-6.0 -7.5,-6.0 C -4.7400000,-6.0 -2.5,-3.7600000 -2.5,-1.0 z "
         style="fill-rule:evenodd;stroke:#ffffff;stroke-width:1pt;stroke-opacity:1;fill:#fffffe;fill-opacity:1"
         transform="scale(0.8) translate(7.4, 1)" />
    </marker>
    <marker
       inkscape:stockid="Arrow1Lstart"
       orient="auto"
       refY="0.0"
       refX="0.0"
       id="Arrow1Lstart"
       style="overflow:visible"
       inkscape:isstock="true">
      <path
         id="path902"
         d="M 0.0,0.0 L 5.0,-5.0 L -12.5,0.0 L 5.0,5.0 L 0.0,0.0 z "
         style="fill-rule:evenodd;stroke:#ffffff;stroke-width:1pt;stroke-opacity:1;fill:#fffffe;fill-opacity:1"
         transform="scale(0.8) translate(12.5,0)" />
    </marker>
  </defs>
  <sodipodi:namedview
     pagecolor="#ffffff"
     bordercolor="#666666"
     borderopacity="1"
     objecttolerance="10"
     gridtolerance="10"
     guidetolerance="10"
     inkscape:pageopacity="0"
     inkscape:pageshadow="2"
     inkscape:window-width="1366"
     inkscape:window-height="686"
     id="namedview6"
     showgrid="false"
     inkscape:zoom="9.8333333"
     inkscape:cx="17.194042"
     inkscape:cy="25.334931"
     inkscape:window-x="0"
     inkscape:window-y="28"
     inkscape:window-maximized="1"
     inkscape:current-layer="svg4" />
  <path
     id="path4"
     style="fill:#ff6600;fill-opacity:1;stroke:#ffffff;stroke-width:0.4;stroke-miterlimit:4;stroke-dasharray:none;stroke-opacity:1;stroke-linejoin:round;stroke-linecap:butt;stroke-dashoffset:0"
     d="m 28.918709,30.462262 v -0.797928 h -5.186534 v -0.185119 l 4.448451,-2.568532 -0.398964,-0.691005 6.910059,-3.989642 c 0.572115,-0.330343 1.305411,-0.133653 1.635355,0.438063 l 0.691006,-0.398965 C 36.468309,21.317206 35.245483,20.989656 34.292757,21.53903 l -6.910059,3.989642 -0.398965,-0.691006 -3.251558,1.877126 v -0.09016 l -0.744865,-0.372233 1.980856,-3.430693 -0.691006,-0.398965 2.3112,-4.003206 1.315784,-0.352684 -0.584483,-2.17994 0.864556,-0.2314 1.079995,-1.871141 -0.691005,-0.398965 -0.914825,1.585085 -1.315784,0.352286 0.584482,2.179939 -0.864555,0.231798 -2.476371,4.289664 -0.691404,-0.398965 -0.758431,1.313789 v -8.036335 h 1.595856 v -3.989648 h -7.580319 c -1.099944,0 -1.994821,0.894877 -1.994821,1.994821 v 22.740958 h 4.78757 c 2.226221,0 4.096564,-1.52923 4.62998,-3.590677 h 5.344124 v -0.797929 h 9.974105 v -0.797929 z m -5.186534,-2.825862 2.959517,-1.709163 0.398964,0.691006 -3.358481,1.939763 z m -0.544984,-4.921223 0.691006,0.398963 -1.605831,2.780781 -0.136047,-0.06783 v -1.291843 z m -0.252944,8.14605 c 0,2.199889 -1.789753,3.989641 -3.989642,3.989641 H 14.954964 V 12.907839 c 0,-0.659887 0.537005,-1.196892 1.196892,-1.196892 h 6.782391 v 2.393785 h -1.595856 v 12.215484 l 1.595856,0.797929 z m 5.186534,0.398964 h -4.408953 c 0.01117,-0.132057 0.02034,-0.264513 0.02034,-0.398964 v -0.398965 h 4.388607 z m -9.390477,-3.590678 c -1.536639,0 -2.786922,1.250283 -2.786922,2.786923 0,1.536638 1.250283,2.786921 2.786922,2.786921 1.536639,0 2.786922,-1.250283 2.786922,-2.786921 0,-1.53664 -1.250283,-2.786923 -2.786922,-2.786923 z m 0,4.877114 c -1.15274,0 -2.090191,-0.937451 -2.090191,-2.090191 0,-1.152741 0.937451,-2.090193 2.090191,-2.090193 1.152741,0 2.090192,0.937452 2.090192,2.090193 0,1.15274 -0.937451,2.090191 -2.090192,2.090191 z M 6.9504824,13.901008 14.053551,6.7979392 c 5.72378,-5.7237804 14.939687,-5.7237804 20.663467,1e-7 l 7.044365,7.0443647 c 5.72378,5.72378 5.72378,14.939687 0,20.663467 l -7.103068,7.103069 c -5.723781,5.72378 -14.939687,5.72378 -20.663468,-10e-7 L 6.9504828,34.564475 c -5.7237805,-5.723781 -5.7237805,-14.939687 -4e-7,-20.663467 z" />
</svg>
