<svg xmlns="http://www.w3.org/2000/svg" xmlns:xlink="http://www.w3.org/1999/xlink" height="48" width="48"><defs><linearGradient id="a"><stop offset="0"/><stop offset="1" stop-color="#333"/></linearGradient><linearGradient id="b"><stop offset="0" stop-color="#030000"/><stop offset="1" stop-opacity=".17"/></linearGradient><linearGradient xlink:href="#b" id="c" gradientUnits="userSpaceOnUse" gradientTransform="matrix(1.00927 0 0 .99076 -.27 2.94)" x1="11.97" y1="30.17" x2="42.48" y2="30.97"/><radialGradient xlink:href="#a" id="d" cx="24" cy="38.89" fx="24" fy="38.89" r=".71" gradientTransform="matrix(.9045 0 0 .90479 8.63 3.69)" gradientUnits="userSpaceOnUse"/><radialGradient xlink:href="#a" id="e" cx="24" cy="38.89" fx="24" fy="38.89" r=".71" gradientTransform="matrix(.9045 0 0 .90479 4.81 5.37)" gradientUnits="userSpaceOnUse"/><radialGradient xlink:href="#a" id="f" cx="24" cy="38.89" fx="24" fy="38.89" r=".71" gradientTransform="matrix(.9045 0 0 .90479 .24 4.64)" gradientUnits="userSpaceOnUse"/><radialGradient xlink:href="#a" id="g" cx="24" cy="38.89" fx="24" fy="38.89" r=".71" gradientTransform="matrix(.9045 0 0 .90479 -4.09 5.69)" gradientUnits="userSpaceOnUse"/></defs><g transform="matrix(1.09977 0 0 1.09977 -2.44 -2.34)"><rect ry="3.77" y="3.91" x="11.74" height="40.09" width="24.6" fill="#ff7f2a"/><path d="M18.32 43.82h14.22a3.87 3.87 0 0 0 2.7-1.1 3.72 3.72 0 0 0 1.1-2.63V11.33l-5.78-5.69-.26.83.5 2.12-1.17 1.62-.2 1.09.57 1.36-5.33-5.25-.14.3-2.7-2.64.18.77-.65 1.59.28 2.57-.09.83-3.92-3.86.15 1.53-.57 21.02-.54 12.68z" opacity=".5" fill="url(#c)"/><path d="M17.23 7.05c-.07.87-.28 22.9-.23 22.93l.76.08c.67.02.7 0 .7-.54l-.2-10.17c-.18-7.9-.15-9.73.13-10.34.4-.83.15-1.5-.66-1.97-.4-.24-.49-.24-.5.02zm4.5-1.38c0 .57-.18 1.18-.47 1.46-.28.28-.33 4.56-.09 12.03.33 11.3.33 11.55 1.22 10.89.9-.62.9-.9.18-9.68-.4-5.82-.5-9.4-.23-9.95.3-.57.23-1.22-.14-1.97-.47-.8-.47-1.27-.09-1.7.33-.42.33-.9.1-1.31-.39-.56-.48-.52-.48.23zm1.95 1.25c-.28.19 2.3 2.27 2.2 8.94-.09 6.06-.23 11.65-.42 12.35-.24 1.27-.15 1.32.85 1.03a9.1 9.1 0 0 0 1.17-.41l-.24-12.36c-.18-8.08-3.22-9.8-3.56-9.55zm6.11-.51c-.02.2.1.77.27 1.3.22.85.2 1.03-.43 1.9-.87 1.14-.89 1.42-.23 2.64.34.63.52 1.33.5 2.12 0 1.18-.25 8.65-.44 13.3a17.19 17.19 0 0 0 .02 2.59c.1.13 1.28.12 1.45 0 .06-.07.1-2.6.08-13.54 0-3.07-.07-3.55-.58-4.46a5.82 5.82 0 0 1-.59-1.26c-.02-.15.28-.73.65-1.26.7-.96.76-1.72.27-2.35a2 2 0 0 1-.17-.92c0-.38-.03-.74-.07-.8-.14-.17-.72.4-.73.73z" fill="#1a1a1a"/><path d="M30.5 20.88a1.1 1.1 0 0 0-.48.06c-.28.08-.57.23-.66.36-.1.1-.2.34-.25.5-.04.25-.09 4.56-.04 5.39l.02 4.02v2.94c.02.68.02 1.8.03 2.46 0 3.55 0 3.55.36 3.97.54.56 1.54.47 1.96-.2.21-.31.22-.67.21-5.52a2649.28 2649.28 0 0 1-.03-6.21c0-4.75-.05-6.6-.15-6.98-.08-.3-.2-.42-.53-.61a.96.96 0 0 0-.45-.18zm-.17 17.52a.48.48 0 0 1 .47.48.48.48 0 0 1-.47.47.48.48 0 0 1-.48-.47.48.48 0 0 1 .48-.48z" fill="#ac9393"/><circle cy="22.69" cx="30.3" r=".64" fill="#1a1a1a"/><circle cy="22.49" cx="30.31" r=".64" fill="#ccc"/><path d="M30.3 38.23a.64.64 0 0 0-.6.64.64.64 0 0 0 .63.65.64.64 0 0 0 .64-.64.64.64 0 0 0-.64-.65.64.64 0 0 0-.04 0zm.03.17a.48.48 0 0 1 .47.48.48.48 0 0 1-.47.47.48.48 0 0 1-.48-.47.48.48 0 0 1 .48-.48z" fill="url(#d)"/><path d="M26.68 22.55a1.1 1.1 0 0 0-.47.07c-.28.08-.57.23-.66.36-.1.1-.2.34-.25.5-.04.25-.09 4.56-.04 5.39l.02 4.02v2.94c.02.68.02 1.8.03 2.46 0 3.55 0 3.55.36 3.97.54.56 1.54.47 1.96-.2.21-.31.22-.67.21-5.52a2649.28 2649.28 0 0 1-.03-6.21c0-4.75-.05-6.6-.15-6.98-.08-.3-.2-.42-.53-.61a.96.96 0 0 0-.45-.18zm-.16 17.53a.48.48 0 0 1 .47.48.48.48 0 0 1-.47.47.48.48 0 0 1-.48-.47.48.48 0 0 1 .48-.48z" fill="#ac9393"/><circle cy="24.37" cx="26.49" r=".64" fill="#1a1a1a"/><circle cy="24.17" cx="26.5" r=".64" fill="#ccc"/><path d="M26.48 39.9a.64.64 0 0 0-.6.65.64.64 0 0 0 .64.65.64.64 0 0 0 .64-.64.64.64 0 0 0-.64-.65.64.64 0 0 0-.04 0zm.04.18a.48.48 0 0 1 .47.48.48.48 0 0 1-.47.47.48.48 0 0 1-.48-.47.48.48 0 0 1 .48-.48z" fill="url(#e)"/><path d="M22.11 21.83a1.1 1.1 0 0 0-.47.06c-.28.08-.57.23-.66.36-.1.1-.2.34-.25.5-.04.25-.09 4.56-.04 5.39l.02 4.02v2.94c.02.68.02 1.8.03 2.46 0 3.55 0 3.55.36 3.97.54.56 1.54.47 1.96-.2.21-.31.22-.67.21-5.52a2649.28 2649.28 0 0 1-.03-6.21c0-4.75-.05-6.6-.15-6.98-.08-.3-.2-.42-.53-.61a.96.96 0 0 0-.45-.18zm-.16 17.52a.48.48 0 0 1 .47.48.48.48 0 0 1-.47.47.48.48 0 0 1-.48-.47.48.48 0 0 1 .48-.48z" fill="#ac9393"/><circle cy="23.64" cx="21.92" r=".64" fill="#1a1a1a"/><circle cy="23.44" cx="21.93" r=".64" fill="#ccc"/><path d="M21.91 39.18a.64.64 0 0 0-.6.64.64.64 0 0 0 .64.65.64.64 0 0 0 .64-.64.64.64 0 0 0-.64-.65.64.64 0 0 0-.04 0zm.04.17a.48.48 0 0 1 .47.48.48.48 0 0 1-.47.47.48.48 0 0 1-.48-.47.48.48 0 0 1 .48-.48z" fill="url(#f)"/><path d="M17.78 22.88a1.1 1.1 0 0 0-.47.06c-.28.08-.57.23-.66.36-.1.1-.2.34-.25.5-.04.25-.09 4.56-.04 5.39l.02 4.02v2.94c.02.68.02 1.8.03 2.46 0 3.55 0 3.55.36 3.97.54.56 1.54.47 1.96-.2.21-.31.22-.67.21-5.52a2649.28 2649.28 0 0 1-.03-6.21c0-4.75-.05-6.6-.15-6.98-.08-.3-.2-.42-.53-.61a.96.96 0 0 0-.45-.18zm-.16 17.52a.48.48 0 0 1 .47.48.48.48 0 0 1-.47.47.48.48 0 0 1-.48-.47.48.48 0 0 1 .48-.48z" fill="#ac9393"/><circle cy="24.69" cx="17.59" r=".64" fill="#1a1a1a"/><circle cy="24.49" cx="17.6" r=".64" fill="#ccc"/><path d="M17.58 40.23a.64.64 0 0 0-.6.64.64.64 0 0 0 .64.65.64.64 0 0 0 .64-.64.64.64 0 0 0-.64-.65.64.64 0 0 0-.04 0zm.04.17a.48.48 0 0 1 .47.48.48.48 0 0 1-.47.47.48.48 0 0 1-.48-.47.48.48 0 0 1 .48-.48z" fill="url(#g)"/></g></svg>