<?xml version="1.0" encoding="UTF-8" standalone="no"?>
<svg
   xmlns:dc="http://purl.org/dc/elements/1.1/"
   xmlns:cc="http://creativecommons.org/ns#"
   xmlns:rdf="http://www.w3.org/1999/02/22-rdf-syntax-ns#"
   xmlns:svg="http://www.w3.org/2000/svg"
   xmlns="http://www.w3.org/2000/svg"
   xmlns:sodipodi="http://sodipodi.sourceforge.net/DTD/sodipodi-0.dtd"
   xmlns:inkscape="http://www.inkscape.org/namespaces/inkscape"
   fill="#000000"
   height="48"
   version="1.1"
   viewBox="0 0 48 48"
   width="48"
   id="svg10"
   sodipodi:docname="printer-error.svg"
   inkscape:version="0.92.3 (2405546, 2018-03-11)">
  <metadata
     id="metadata16">
    <rdf:RDF>
      <cc:Work
         rdf:about="">
        <dc:format>image/svg+xml</dc:format>
        <dc:type
           rdf:resource="http://purl.org/dc/dcmitype/StillImage" />
        <dc:title></dc:title>
      </cc:Work>
    </rdf:RDF>
  </metadata>
  <defs
     id="defs14" />
  <sodipodi:namedview
     pagecolor="#ffffff"
     bordercolor="#666666"
     borderopacity="1"
     objecttolerance="10"
     gridtolerance="10"
     guidetolerance="10"
     inkscape:pageopacity="0"
     inkscape:pageshadow="2"
     inkscape:window-width="1366"
     inkscape:window-height="690"
     id="namedview12"
     showgrid="false"
     inkscape:zoom="3.4969791"
     inkscape:cx="28.258252"
     inkscape:cy="14.87455"
     inkscape:window-x="0"
     inkscape:window-y="28"
     inkscape:window-maximized="1"
     inkscape:current-layer="svg10"
     showguides="true"
     inkscape:guide-bbox="true" />
  <path
     style="opacity:1;fill:#ff2a2a;fill-opacity:1;stroke:none;stroke-width:5.33300018;stroke-linecap:butt;stroke-linejoin:round;stroke-miterlimit:4;stroke-dasharray:none;stroke-dashoffset:0;stroke-opacity:1;paint-order:markers fill stroke"
     d="M 12.1875,4 C 12.083422,4 12,4.0834217 12,4.1875 v 7.625 C 12,11.916578 12.083422,12 12.1875,12 h 23.625 C 35.916578,12 36,11.916578 36,11.8125 V 4.1875 C 36,4.0834217 35.916578,4 35.8125,4 Z m -8,10.203125 C 4.083422,14.203125 4,14.286545 4,14.390625 V 31.8125 C 4,31.916578 4.08342,32 4.1875,32 h 5.882812 V 42.001953 H 38.314453 V 32 h 5.632813 c 0.104078,0 0.1875,-0.08342 0.1875,-0.1875 V 14.390625 c 0,-0.104078 -0.08342,-0.1875 -0.1875,-0.1875 z m 33.007812,2.644531 a 2.7711864,2.7711864 0 0 1 2.771485,2.771485 2.7711864,2.7711864 0 0 1 -2.771485,2.771484 2.7711864,2.7711864 0 0 1 -2.771484,-2.771484 2.7711864,2.7711864 0 0 1 2.771484,-2.771485 z M 12.511719,32.056641 h 23.089843 v 7.148437 H 12.511719 Z"
     id="rect812"
     inkscape:connector-curvature="0" />
</svg>
