<?xml version="1.0" encoding="UTF-8" standalone="no"?>
<!-- Created with Inkscape (http://www.inkscape.org/) -->

<svg
   xmlns:dc="http://purl.org/dc/elements/1.1/"
   xmlns:cc="http://creativecommons.org/ns#"
   xmlns:rdf="http://www.w3.org/1999/02/22-rdf-syntax-ns#"
   xmlns:svg="http://www.w3.org/2000/svg"
   xmlns="http://www.w3.org/2000/svg"
   xmlns:xlink="http://www.w3.org/1999/xlink"
   xmlns:sodipodi="http://sodipodi.sourceforge.net/DTD/sodipodi-0.dtd"
   xmlns:inkscape="http://www.inkscape.org/namespaces/inkscape"
   width="48"
   height="48"
   viewBox="0 0 12.7 12.7"
   version="1.1"
   id="svg822"
   inkscape:version="0.92.3 (2405546, 2018-03-11)"
   sodipodi:docname="folder-github.svg">
  <defs
     id="defs816">
    <linearGradient
       inkscape:collect="always"
       id="linearGradient909">
      <stop
         style="stop-color:#216778;stop-opacity:1"
         offset="0"
         id="stop905" />
      <stop
         style="stop-color:#5fbcd3;stop-opacity:1"
         offset="1"
         id="stop907" />
    </linearGradient>
    <linearGradient
       inkscape:collect="always"
       xlink:href="#linearGradient909"
       id="linearGradient911"
       x1="6.3435984"
       y1="293.99127"
       x2="6.2297163"
       y2="284.35654"
       gradientUnits="userSpaceOnUse" />
  </defs>
  <sodipodi:namedview
     id="base"
     pagecolor="#ffffff"
     bordercolor="#666666"
     borderopacity="1.0"
     inkscape:pageopacity="0.0"
     inkscape:pageshadow="2"
     inkscape:zoom="3.7049449"
     inkscape:cx="24"
     inkscape:cy="24"
     inkscape:document-units="mm"
     inkscape:current-layer="g828"
     showgrid="false"
     units="px"
     inkscape:snap-smooth-nodes="true"
     inkscape:object-nodes="true"
     inkscape:snap-midpoints="true"
     showguides="true"
     inkscape:guide-bbox="true"
     inkscape:window-width="1366"
     inkscape:window-height="714"
     inkscape:window-x="0"
     inkscape:window-y="25"
     inkscape:window-maximized="1"
     inkscape:snap-global="true" />
  <metadata
     id="metadata819">
    <rdf:RDF>
      <cc:Work
         rdf:about="">
        <dc:format>image/svg+xml</dc:format>
        <dc:type
           rdf:resource="http://purl.org/dc/dcmitype/StillImage" />
        <dc:title />
      </cc:Work>
    </rdf:RDF>
  </metadata>
  <g
     inkscape:label="Capa 1"
     inkscape:groupmode="layer"
     id="layer1"
     transform="translate(0,-284.29998)">
    <g
       id="g828">
      <g
         id="g833">
        <path
           style="fill:url(#linearGradient911);fill-opacity:1;stroke:none;stroke-width:0.19860323px;stroke-linecap:butt;stroke-linejoin:miter;stroke-opacity:1"
           d="m 6.2297163,284.35653 c -1.515538,0.0144 -3.0867147,0.71884 -4.7298927,2.31644 v 0.6204 1.02246 5.67543 h 9.6875494 v -5.67543 h 0.0041 v -1.64286 c -1.5983817,-1.46262 -3.2443167,-2.33279 -4.9619277,-2.31644 z"
           id="path877-6"
           inkscape:connector-curvature="0" />
        <rect
           id="rect4"
           height="1.2745087"
           width="10.699533"
           style="opacity:1;fill:#164450;fill-opacity:1;stroke-width:0.15927376"
           y="293.98154"
           x="1.0251139" />
        <rect
           id="rect2"
           height="1.7647533"
           width="12.757987"
           style="opacity:1;fill:#216778;fill-opacity:1;stroke-width:0.15927376"
           y="295.23206"
           x="-0.028991858" />
        <path
           inkscape:connector-curvature="0"
           style="opacity:0.5;fill:#000000;fill-opacity:1;stroke:none;stroke-width:0.19860323px;stroke-linecap:butt;stroke-linejoin:miter;stroke-opacity:1"
           d="m 2.7393677,285.62703 c -0.0068,0.005 -0.013404,0.007 -0.020153,0.0119 -0.4020506,0.29093 -0.8087704,0.63464 -1.2195643,1.03404 v 0.62064 1.02216 5.6658 h -0.47439 v 1.25057 h -1.0541992 v 1.76475 h 3.3904906 v -1.76475 H 2.9631267 v -1.25057 h -0.223759 z m 7.1406493,0.003 v 8.35091 H 9.786483 v 1.25109 H 9.338448 v 1.76475 h 3.390491 v -1.76475 h -1.004073 v -1.25109 h -0.537435 v -5.66528 h 0.0041 v -1.6428 c -0.433208,-0.39641 -0.870876,-0.73931 -1.311549,-1.04283 z"
           id="path877" />
        <path
           id="path2-3"
           d="m 3.638947,289.85216 c -0.029239,5.4e-4 -0.043366,0.006 -0.043366,0.006 -0.1463677,0.37054 -0.053824,0.6441 -0.02607,0.71216 -0.1721394,0.18818 -0.2772278,0.42826 -0.2772278,0.72199 0,1.03118 0.6283106,1.26223 1.2258418,1.33013 -0.076984,0.0672 -0.1464299,0.18576 -0.1708794,0.35956 -0.1533063,0.0689 -0.5431185,0.18765 -0.7831552,-0.22353 0,0 -0.1421246,-0.25825 -0.4122279,-0.27723 0,0 -0.2626591,-0.003 -0.018327,0.16338 0,0 0.1764964,0.0827 0.2989102,0.39366 0,0 0.1577565,0.52342 0.9062816,0.36086 0.00132,0.22451 0.00361,0.39389 0.00361,0.45766 0,0.0616 -0.036823,0.13174 -0.1334514,0.13396 v 5e-4 h 1.6055457 c -0.1007904,5e-4 -0.1378392,-0.0715 -0.1378392,-0.13449 0,-0.0882 0.00335,-0.37835 0.00335,-0.73798 0,-0.25111 -0.08611,-0.41535 -0.1827534,-0.49844 0.5995143,-0.0666 1.228682,-0.29424 1.228682,-1.32807 0,-0.29372 -0.1042416,-0.53381 -0.2767113,-0.72198 0.027754,-0.0681 0.1202762,-0.34162 -0.026587,-0.71217 0,0 -0.2254994,-0.0724 -0.7392739,0.27595 -0.214926,-0.0599 -0.4452366,-0.0896 -0.6737094,-0.0906 -0.2288031,5.2e-4 -0.4591138,0.0308 -0.6737095,0.0906 -0.3855785,-0.26119 -0.6092232,-0.28589 -0.6969408,-0.28188 z"
           style="fill:#1c1f24;stroke-width:0.26432133;stroke-opacity:0.54117587"
           inkscape:connector-curvature="0" />
      </g>
    </g>
  </g>
</svg>
