<?xml version="1.0" encoding="UTF-8" standalone="no"?>
<!-- Created with Inkscape (http://www.inkscape.org/) -->

<svg
   xmlns:dc="http://purl.org/dc/elements/1.1/"
   xmlns:cc="http://creativecommons.org/ns#"
   xmlns:rdf="http://www.w3.org/1999/02/22-rdf-syntax-ns#"
   xmlns:svg="http://www.w3.org/2000/svg"
   xmlns="http://www.w3.org/2000/svg"
   xmlns:sodipodi="http://sodipodi.sourceforge.net/DTD/sodipodi-0.dtd"
   xmlns:inkscape="http://www.inkscape.org/namespaces/inkscape"
   width="48"
   height="48"
   viewBox="0 0 12.7 12.7"
   version="1.1"
   id="svg822"
   inkscape:version="0.92.3 (2405546, 2018-03-11)"
   sodipodi:docname="folder-pictures.svg">
  <defs
     id="defs816" />
  <sodipodi:namedview
     id="base"
     pagecolor="#ffffff"
     bordercolor="#666666"
     borderopacity="1.0"
     inkscape:pageopacity="0.0"
     inkscape:pageshadow="2"
     inkscape:zoom="7.5130096"
     inkscape:cx="24"
     inkscape:cy="24"
     inkscape:document-units="mm"
     inkscape:current-layer="layer1"
     showgrid="false"
     units="px"
     inkscape:snap-smooth-nodes="true"
     inkscape:object-nodes="true"
     inkscape:snap-midpoints="true"
     showguides="false"
     inkscape:guide-bbox="true"
     inkscape:window-width="1366"
     inkscape:window-height="719"
     inkscape:window-x="0"
     inkscape:window-y="25"
     inkscape:window-maximized="1" />
  <metadata
     id="metadata819">
    <rdf:RDF>
      <cc:Work
         rdf:about="">
        <dc:format>image/svg+xml</dc:format>
        <dc:type
           rdf:resource="http://purl.org/dc/dcmitype/StillImage" />
        <dc:title />
      </cc:Work>
    </rdf:RDF>
  </metadata>
  <g
     inkscape:label="Capa 1"
     inkscape:groupmode="layer"
     id="layer1"
     transform="translate(0,-284.29998)">
    <g
       id="g875">
      <rect
         x="1.0251139"
         y="293.98154"
         style="opacity:1;fill:#2b1100;fill-opacity:1;stroke-width:0.15927376"
         width="10.699533"
         height="1.2745087"
         id="rect4" />
      <rect
         x="-0.028991858"
         y="295.23206"
         style="opacity:1;fill:#552200;fill-opacity:1;stroke-width:0.15927376"
         width="12.757987"
         height="1.7647533"
         id="rect2" />
      <path
         inkscape:connector-curvature="0"
         id="path877"
         d="m 6.2297163,284.35653 c -1.515539,0.0144 -3.0867147,0.71884 -4.7298927,2.31644 v 0.6204 1.02246 5.67543 h 9.6875494 v -5.67543 h 0.0041 v -1.64286 c -1.5983807,-1.46262 -3.2443157,-2.33279 -4.9619267,-2.31644 z"
         style="fill:#ff7f2a;fill-opacity:1;stroke:none;stroke-width:0.19860323px;stroke-linecap:butt;stroke-linejoin:miter;stroke-opacity:1" />
      <path
         inkscape:connector-curvature="0"
         id="path935"
         d="m 5.6327293,293.99138 h 5.5546997 v -5.24051 l -2.8530547,-2.86649 0.18035,0.42323 0.161748,0.40463 0.293005,1.16427 -1.120862,-1.11466 0.336415,0.91518 -0.0124,1.02113 -0.80305,-0.79685 0.04961,0.12454 0.167947,0.49196 0.0248,0.63459 -3.2866207,-3.28042 -0.274402,0.57877 -0.398425,1.82418 0.716235,1.51877 -0.846976,0.35502 -0.522966,-0.52297 0.06873,0.44184 0.361218,0.57929 -0.448551,0.31729 v 0.39223 z"
         style="opacity:0.5;fill:#784421;fill-opacity:1;stroke:none;stroke-width:0.26458332px;stroke-linecap:butt;stroke-linejoin:miter;stroke-opacity:1" />
      <path
         inkscape:connector-curvature="0"
         id="path868"
         d="m 4.5065167,289.52608 0.995446,0.43392 0.2807672,0.56153 -0.6125822,0.40839 h -1.174115 l -0.306291,-0.43391 0.510484,-0.58707 z"
         style="fill:#ffffff;fill-opacity:1;stroke:none;stroke-width:0.27119508px;stroke-linecap:butt;stroke-linejoin:miter;stroke-opacity:1" />
      <path
         inkscape:connector-curvature="0"
         id="path870"
         d="m 8.0913202,291.15964 0.944398,-0.38286 -0.4083878,-1.14861 -1.1996405,0.25525 -0.3062901,0.15314 -0.1020979,0.61259 z"
         style="fill:#feffff;fill-opacity:1;stroke:none;stroke-width:0.27119508px;stroke-linecap:butt;stroke-linejoin:miter;stroke-opacity:1" />
      <path
         d="m 8.346114,285.91264 c 0,0.004 0.00978,0.0259 0.023233,0.0525 0.012234,0.0259 0.037897,0.0917 0.056234,0.14549 0.018336,0.0539 0.039112,0.10271 0.044003,0.1088 0.00626,0.007 0.010988,0.0218 0.010988,0.0344 0,0.0119 0.00492,0.0316 0.012229,0.044 0.00626,0.0109 0.030566,0.0892 0.055026,0.17359 0.023233,0.0845 0.047677,0.16874 0.053792,0.18952 0.022013,0.0672 0.074578,0.34724 0.1112594,0.59296 0.034219,0.22498 0.028116,0.70302 -0.012234,0.99034 -0.010983,0.0833 -0.057455,0.29343 -0.066021,0.30198 -0.0023,0.004 -0.013475,-0.038 -0.02444,-0.0904 -0.020779,-0.099 -0.033002,-0.14917 -0.088019,-0.34601 -0.01712,-0.0636 -0.034223,-0.12958 -0.037897,-0.14669 -0.00232,-0.0174 -0.00978,-0.0414 -0.014662,-0.0552 -0.00626,-0.0134 -0.028126,-0.0819 -0.050136,-0.15285 -0.039116,-0.12592 -0.051352,-0.15893 -0.089253,-0.2445 -0.010991,-0.0232 -0.03057,-0.0749 -0.04524,-0.11493 -0.025676,-0.0672 -0.062346,-0.14182 -0.1503826,-0.30076 -0.019551,-0.037 -0.040344,-0.0694 -0.045238,-0.0735 -0.00369,-0.007 -0.024449,-0.0304 -0.045235,-0.0609 -0.036677,-0.0539 -0.1650561,-0.18338 -0.1809489,-0.18338 -0.00488,0 -0.00608,0.007 -0.00246,0.0174 0.022005,0.0585 0.085581,0.42792 0.1063683,0.61863 0.013462,0.12593 0.018336,0.7617 0.00608,0.78125 -0.00246,0.007 -0.010996,0.076 -0.018336,0.1553 -0.00608,0.0805 -0.017108,0.17849 -0.024455,0.21882 -0.040343,0.2372 -0.05257,0.29955 -0.061132,0.29955 -0.00608,0 -0.013435,-0.0184 -0.018336,-0.0402 -0.00369,-0.0206 -0.012224,-0.0498 -0.017105,-0.0636 -0.00608,-0.0133 -0.025675,-0.0707 -0.044014,-0.12839 -0.019574,-0.0576 -0.044011,-0.12592 -0.055018,-0.15282 -0.085585,-0.19684 -0.1161497,-0.26285 -0.1247066,-0.26285 -0.00488,0 -0.00978,-0.0109 -0.00978,-0.0245 0,-0.0134 -0.00369,-0.0245 -0.00856,-0.0245 -0.00608,0 -0.024456,-0.026 -0.042792,-0.0585 -0.055017,-0.0978 -0.2029505,-0.24699 -0.2457427,-0.24699 -0.00608,0 0.00246,0.0272 0.039126,0.11617 0.040344,0.0978 0.1088136,0.36311 0.1271524,0.49515 0.015902,0.10637 0.017105,0.45482 0.00369,0.54406 -0.013462,0.0819 -0.063575,0.23352 -0.09292,0.28489 -0.013462,0.0218 -0.024453,0.0478 -0.024453,0.0575 0,0.008 -0.00488,0.0184 -0.00978,0.0206 -0.00488,0.003 -0.029344,0.0305 -0.053793,0.0622 -0.04524,0.0585 -0.1430459,0.14307 -0.167499,0.14307 -0.0073,0 -0.013459,0.007 -0.013459,0.0109 0,0.0174 -0.1088133,0.0498 -0.166275,0.0498 -0.02935,0 -0.07091,-0.008 -0.09292,-0.0196 -0.04524,-0.0206 -0.132043,-0.1357 -0.132043,-0.17481 0,-0.0133 -0.0049,-0.0272 -0.010999,-0.0305 -0.0049,-0.007 -0.017111,-0.0413 -0.02567,-0.0831 l -0.014671,-0.0771 -0.03056,0.0672 c -0.017111,0.037 -0.03546,0.0759 -0.04034,0.0881 -0.04646,0.0868 -0.07336,0.33992 -0.05013,0.46461 0.014671,0.0805 0.06235,0.23108 0.0758,0.24209 0.0037,0.007 0.019571,0.0293 0.03423,0.0575 0.013459,0.0283 0.05257,0.0805 0.08681,0.11614 0.03301,0.0357 0.05991,0.0695 0.05991,0.0771 0,0.007 -0.015899,0.0832 -0.03668,0.17116 -0.05257,0.22254 -0.0648,0.31056 -0.0648,0.4646 0,0.13694 0.0073,0.20539 0.03179,0.29343 0.022,0.0832 0.07336,0.2323 0.08314,0.24453 0.0049,0.007 0.012221,0.20784 0.0171,0.44626 0.0037,0.23841 0.012221,0.60764 0.018341,0.81916 0.0061,0.2115 0.012221,0.40712 0.013449,0.43402 0.00119,0.0782 0.020791,0.0245 0.02934,-0.0856 0.010999,-0.12715 0.04279,-0.38511 0.05257,-0.41568 0.0037,-0.012 0.010999,-0.0539 0.015899,-0.0917 0.0098,-0.0695 0.04646,-0.25552 0.07825,-0.39124 0.02445,-0.10638 0.09659,-0.30443 0.1430468,-0.39614 0.042783,-0.0845 0.1088072,-0.15404 0.1662702,-0.1736 0.041571,-0.0161 0.3056538,-0.0146 0.4132456,0 0.114926,0.016 0.3117675,0.0833 0.3117675,0.10638 0,0.007 0.00734,0.0109 0.017108,0.0109 0.02568,0 0.1344882,0.12469 0.1650529,0.18828 0.052573,0.11247 0.058691,0.27751 0.018336,0.47561 -0.024447,0.12223 -0.024447,0.12468 0.023233,0.0917 0.099031,-0.0708 0.3325524,-0.30079 0.3447777,-0.34113 0.00487,-0.0134 0.012242,-0.0231 0.015891,-0.0231 0.013465,0 0.1088133,-0.18949 0.1406014,-0.28119 0.015894,-0.044 0.046462,-0.1345 0.068485,-0.2017 0.034219,-0.1064 0.108811,-0.24821 0.139377,-0.26046 0.00487,-0.004 0.0086,-0.0109 0.0086,-0.0196 0,-0.008 0.04036,-0.0552 0.089248,-0.1027 0.1161489,-0.11369 0.1430454,-0.13691 0.2249611,-0.18584 0.056242,-0.0343 0.084358,-0.0428 0.1503839,-0.0467 0.073384,-0.007 0.084358,-0.004 0.119815,0.0283 0.042776,0.0357 0.075801,0.12473 0.075801,0.20419 0,0.0623 0.015893,0.0511 0.036692,-0.026 0.0086,-0.0342 0.02078,-0.0586 0.026913,-0.0552 0.0049,0.007 0.0098,-0.0161 0.0098,-0.0427 0,-0.0258 0.0049,-0.0499 0.01224,-0.0525 0.01465,-0.007 0.03669,-0.15162 0.03669,-0.25065 0,-0.099 -0.024421,-0.26164 -0.03789,-0.25308 -0.0063,0.007 -0.01098,-0.0134 -0.01098,-0.037 0,-0.0245 -0.0049,-0.0441 -0.01224,-0.0441 -0.0063,0 -0.012229,-0.0104 -0.012229,-0.0217 0,-0.0119 -0.022024,-0.0651 -0.048888,-0.1186 l -0.050149,-0.0965 0.03546,-0.0794 c 0.019558,-0.0441 0.042776,-0.10638 0.052555,-0.13939 0.0086,-0.0316 0.02078,-0.0576 0.02568,-0.0576 0.0049,0 0.0098,-0.0343 0.0098,-0.0771 0,-0.0539 0.0035,-0.0706 0.01224,-0.0576 0.0086,0.0133 0.01224,0.004 0.01224,-0.0402 0,-0.037 -0.0049,-0.0565 -0.01224,-0.0511 -0.0075,0.007 -0.01224,-0.0148 -0.01224,-0.0498 0,-0.0315 -0.0035,-0.0539 -0.0075,-0.0498 -0.0049,0.007 -0.01715,-0.01 -0.029319,-0.0304 -0.010983,-0.0218 -0.02568,-0.0402 -0.031802,-0.0428 -0.0063,-0.003 -0.03547,0.0467 -0.066012,0.10759 -0.03058,0.0608 -0.067225,0.12106 -0.081913,0.13328 -0.01588,0.0119 -0.028116,0.0293 -0.028116,0.038 0,0.008 -0.00209,0.0119 -0.0063,0.008 -0.00353,-0.007 -0.026913,0.0134 -0.052555,0.038 -0.1039254,0.0978 -0.2041787,0.093 -0.3166594,-0.0174 -0.062344,-0.0609 -0.064808,-0.065 -0.064808,-0.1296 0,-0.0685 0.017126,-0.15772 0.03547,-0.20053 0.018354,-0.039 0.058687,-0.17603 0.080691,-0.26894 0.00977,-0.0478 0.022013,-0.0966 0.02568,-0.11005 0.00745,-0.0271 0.019569,-0.0942 0.041573,-0.23842 0.017132,-0.11615 0.017132,-0.50005 -0.00106,-0.63576 -0.023235,-0.18462 -0.032995,-0.2482 -0.052554,-0.35455 -0.025681,-0.13082 -0.078255,-0.35334 -0.091702,-0.38514 -0.0063,-0.0134 -0.03057,-0.0904 -0.056242,-0.17116 -0.024439,-0.0805 -0.053797,-0.17484 -0.066012,-0.20784 -0.039118,-0.10637 -0.1320435,-0.34356 -0.1516044,-0.38635 -0.010992,-0.0231 -0.036673,-0.0832 -0.057445,-0.13327 -0.022004,-0.0499 -0.052546,-0.12226 -0.069688,-0.15894 -0.04036,-0.0892 -0.2041845,-0.42059 -0.2115204,-0.4279 -0.00357,-0.007 -0.034223,-0.0623 -0.067229,-0.13084 -0.034226,-0.0685 -0.064805,-0.12594 -0.069696,-0.12594 -0.00623,0 -0.00978,0.003 -0.00978,0.007 z m -0.057453,4.18259 c 0.1723906,0.0414 0.3313317,0.14916 0.3631198,0.24696 0.023236,0.0672 -0.017124,0.13326 -0.1137054,0.18706 -0.025675,0.0147 -0.053792,0.0259 -0.063591,0.0259 -0.00978,0 -0.018336,0.007 -0.018336,0.0119 0,0.007 -0.013462,0.012 -0.030566,0.012 -0.017116,0 -0.030578,0.007 -0.030578,0.0109 0,0.007 -0.018336,0.0134 -0.039116,0.0174 -0.022013,0.007 -0.081913,0.0133 -0.1320423,0.023 -0.053788,0.008 -0.1809456,0.0161 -0.3056549,0.0161 -0.124706,0 -0.2518598,-0.007 -0.3056543,-0.0161 -0.050128,-0.0104 -0.110036,-0.0196 -0.1308201,-0.023 -0.022011,-0.007 -0.040343,-0.0109 -0.040343,-0.0174 0,-0.007 -0.013454,-0.0109 -0.030565,-0.0109 -0.017105,0 -0.030565,-0.007 -0.030565,-0.0104 0,-0.007 -0.023233,-0.0185 -0.052571,-0.0305 -0.07947,-0.0328 -0.1442691,-0.099 -0.1430472,-0.14548 0.00119,-0.038 0.4169134,-0.20051 0.7396855,-0.28976 0.1027004,-0.0283 0.2653083,-0.0316 0.3643405,-0.008 z"
         id="path8"
         inkscape:connector-curvature="0"
         style="fill:#1a1a1a;stroke:none;stroke-width:0.00122261" />
      <path
         d="m 4.3128997,285.94647 c -0.05382,0.0967 -0.313137,0.61283 -0.313137,0.62262 0,0.007 -0.02446,0.0598 -0.05382,0.12231 -0.1210949,0.25563 -0.289895,0.72046 -0.3681779,1.0128 -0.1039711,0.38531 -0.1284351,0.55288 -0.1369971,0.9174 -0.0049,0.22871 -0.0024,0.31802 0.01467,0.43423 0.0208,0.15534 0.05994,0.33881 0.07951,0.37918 0.01957,0.0414 0.08685,0.29601 0.09418,0.3596 0.0049,0.0467 0.0012,0.0707 -0.0208,0.11375 -0.02569,0.0539 -0.03669,0.0623 -0.1186491,0.10887 -0.1455602,0.0819 -0.3033511,-0.0342 -0.4440171,-0.32413 l -0.02813,-0.0598 -0.02691,0.0328 c -0.01589,0.0196 -0.03425,0.0553 -0.04159,0.0806 -0.03669,0.12478 0.0061,0.36939 0.09296,0.52107 l 0.02813,0.0498 -0.05382,0.10887 c -0.0685,0.13712 -0.1174261,0.33038 -0.1174261,0.46614 0,0.10399 0.03303,0.28011 0.07462,0.40123 0.03792,0.10886 0.04281,0.11252 0.04404,0.0272 0.0024,-0.0905 0.03792,-0.17981 0.08562,-0.21039 0.01957,-0.0134 0.05505,-0.0206 0.102748,-0.0196 0.116203,0 0.2336291,0.072 0.398759,0.24464 0.04281,0.0441 0.07706,0.0833 0.07706,0.0881 0,0.007 0.0073,0.0174 0.0159,0.0258 0.0477,0.0489 0.1210961,0.20181 0.152899,0.31801 0.04526,0.16392 0.152898,0.40243 0.196933,0.43792 0.0049,0.007 0.01835,0.0218 0.03058,0.0427 0.03792,0.0587 0.178584,0.19938 0.271547,0.27034 0.0477,0.037 0.08929,0.0662 0.09296,0.0662 0.0037,0 -0.0037,-0.0454 -0.01713,-0.10156 -0.03181,-0.12721 -0.04159,-0.31314 -0.02202,-0.38042 0.0526,-0.17491 0.09908,-0.24095 0.233629,-0.32657 0.0526,-0.0357 0.1688001,-0.0707 0.2984571,-0.0942 0.08685,-0.0146 0.41466,-0.0104 0.4342309,0.007 0.0098,0.008 0.03548,0.0293 0.05627,0.0468 0.04893,0.0392 0.151676,0.24586 0.18837,0.37918 0.015899,0.0539 0.03792,0.13333 0.05015,0.17739 0.03669,0.13209 0.07706,0.36447 0.1149795,0.66662 0.03914,0.30212 0.04281,0.32781 0.04893,0.33392 0.0037,0.007 0.0061,-0.0402 0.0073,-0.0967 0,-0.0565 0.00249,-0.11619 0.0049,-0.13332 0.00249,-0.0174 0.01102,-0.36328 0.019569,-0.7706 0.013459,-0.68989 0.015902,-0.74371 0.03914,-0.79508 0.05627,-0.12967 0.08318,-0.25931 0.09052,-0.43177 0.0086,-0.19328 -0.0061,-0.32417 -0.05871,-0.53211 -0.019569,-0.0771 -0.03548,-0.15045 -0.03548,-0.16268 0,-0.0134 0.018341,-0.0402 0.04036,-0.0587 0.020799,-0.0196 0.05871,-0.0674 0.08195,-0.10763 0.023241,-0.0392 0.04648,-0.0735 0.05137,-0.0771 0.0037,-0.007 0.023241,-0.05 0.04159,-0.10397 0.02691,-0.0806 0.03425,-0.12479 0.03914,-0.25076 0.0061,-0.1798 -0.020799,-0.31681 -0.08685,-0.44891 l -0.03914,-0.0794 -0.0086,0.0565 c -0.015899,0.11622 -0.05749,0.21162 -0.1162036,0.27033 -0.08562,0.0845 -0.171246,0.0893 -0.309467,0.0161 -0.1418855,-0.0749 -0.2788825,-0.26054 -0.3351475,-0.45378 -0.0526,-0.18473 -0.05627,-0.53333 -0.0086,-0.76818 0.02324,-0.11377 0.116203,-0.43545 0.13822,-0.4795 0.0061,-0.012 0.0086,-0.0259 0.0049,-0.0293 -0.01222,-0.0119 -0.125989,0.0845 -0.173692,0.148 -0.02569,0.0344 -0.05015,0.0651 -0.05505,0.0685 -0.05015,0.0402 -0.267878,0.55287 -0.30702,0.72044 -0.0073,0.0343 -0.01713,0.0623 -0.02202,0.0623 -0.01102,0 -0.04648,-0.17004 -0.06728,-0.31804 -0.07706,-0.56511 -0.05382,-1.28679 0.05505,-1.67945 0.01346,-0.0478 0.02446,-0.0893 0.02446,-0.0917 0,-0.0133 -0.05993,0.033 -0.112533,0.0868 -0.05382,0.0565 -0.156568,0.19203 -0.156568,0.20917 0,0.007 -0.01589,0.0293 -0.03425,0.0587 -0.01957,0.0293 -0.05137,0.0905 -0.07217,0.13821 -0.0208,0.0467 -0.05015,0.11253 -0.06483,0.14431 -0.01346,0.0316 -0.04159,0.10644 -0.06238,0.16515 -0.0208,0.0587 -0.04404,0.12232 -0.05382,0.1431 -0.03058,0.0664 -0.181031,0.63728 -0.207941,0.78285 l -0.0086,0.0489 -0.02324,-0.0735 c -0.1051941,-0.34004 -0.1113101,-1.08499 -0.0098,-1.54732 0.04159,-0.19206 0.112534,-0.48195 0.12232,-0.50154 0.0049,-0.0104 0.03303,-0.0905 0.06116,-0.17736 0.02691,-0.0881 0.05993,-0.18101 0.07217,-0.20795 0.0685,-0.15288 0.07706,-0.192 0.01957,-0.0881 z m 0.594469,4.18085 c 0.09541,0.0283 0.183477,0.0565 0.193264,0.0609 0.02691,0.0147 0.173692,0.072 0.1859241,0.072 0.01467,0 0.2177269,0.0991 0.223844,0.11007 0.0098,0.016 -0.03303,0.0979 -0.05137,0.0979 -0.0086,0 -0.0159,0.007 -0.0159,0.012 0,0.007 -0.02569,0.0231 -0.05749,0.038 -0.03303,0.0133 -0.07461,0.0328 -0.09418,0.0427 -0.01957,0.0104 -0.04893,0.0174 -0.06483,0.0174 -0.01469,0 -0.02813,0.007 -0.02813,0.0109 0,0.0132 -0.05627,0.0218 -0.266656,0.0402 -0.124764,0.0104 -0.200602,0.0104 -0.318028,-0.003 -0.2128351,-0.0196 -0.259315,-0.0271 -0.259315,-0.0392 0,-0.007 -0.01834,-0.0109 -0.04159,-0.0109 -0.02324,0 -0.04404,-0.007 -0.04648,-0.0104 -0.0012,-0.007 -0.03303,-0.0217 -0.0685,-0.038 -0.07217,-0.0343 -0.144338,-0.0991 -0.151677,-0.13944 -0.01835,-0.0979 0.09663,-0.21896 0.271547,-0.28499 0.08562,-0.0316 0.154123,-0.0402 0.289897,-0.0357 0.1003,0.007 0.1565681,0.0148 0.2996801,0.0565 z"
         id="path6"
         inkscape:connector-curvature="0"
         style="fill:#1a1a1a;stroke:none;stroke-width:0.00122317" />
      <ellipse
         ry="0.2982676"
         rx="0.28996941"
         cy="290.34296"
         cx="4.693995"
         id="path876"
         style="opacity:1;fill:#000000;fill-opacity:1;fill-rule:nonzero;stroke:none;stroke-width:1.41465473;stroke-linejoin:round;stroke-miterlimit:4;stroke-dasharray:none;stroke-opacity:1" />
      <ellipse
         ry="0.087985784"
         rx="0.097009979"
         cy="290.18378"
         cx="4.6533885"
         id="path878"
         style="opacity:1;fill:#ffffff;fill-opacity:1;fill-rule:nonzero;stroke:none;stroke-width:0.8298943;stroke-linejoin:round;stroke-miterlimit:4;stroke-dasharray:none;stroke-opacity:1" />
      <ellipse
         transform="scale(-1,1)"
         ry="0.2982676"
         rx="0.28996941"
         cy="290.35553"
         cx="-8.0211315"
         id="path876-3"
         style="opacity:1;fill:#000000;fill-opacity:1;fill-rule:nonzero;stroke:none;stroke-width:1.41465473;stroke-linejoin:round;stroke-miterlimit:4;stroke-dasharray:none;stroke-opacity:1" />
      <ellipse
         transform="scale(-1,1)"
         ry="0.087985799"
         rx="0.097009979"
         cy="290.19635"
         cx="-8.061739"
         id="path878-6"
         style="opacity:1;fill:#ffffff;fill-opacity:1;fill-rule:nonzero;stroke:none;stroke-width:0.8298943;stroke-linejoin:round;stroke-miterlimit:4;stroke-dasharray:none;stroke-opacity:1" />
      <path
         id="path877-3"
         d="m 2.7393096,285.62714 c -0.0068,0.005 -0.013404,0.007 -0.020153,0.0119 -0.4020506,0.29093 -0.8087704,0.63464 -1.2195643,1.03404 v 0.62064 1.02216 5.6658 h -0.47439 v 1.25057 H -0.028997 v 1.76475 h 3.3904907 v -1.76475 H 2.9630685 v -1.25057 H 2.7393096 Z m 7.1406493,0.003 v 8.35091 H 9.786425 v 1.25109 H 9.3383899 v 1.76475 h 3.3904911 v -1.76475 h -1.004073 v -1.25109 h -0.537435 v -5.66528 h 0.0041 v -1.6428 c -0.433209,-0.39641 -0.870877,-0.73931 -1.31155,-1.04283 z"
         style="opacity:0.5;fill:#000000;fill-opacity:1;stroke:none;stroke-width:0.19860323px;stroke-linecap:butt;stroke-linejoin:miter;stroke-opacity:1"
         inkscape:connector-curvature="0" />
    </g>
  </g>
</svg>
