<?xml version="1.0" encoding="UTF-8" standalone="no"?>
<!-- Created with Inkscape (http://www.inkscape.org/) -->

<svg
   xmlns:dc="http://purl.org/dc/elements/1.1/"
   xmlns:cc="http://creativecommons.org/ns#"
   xmlns:rdf="http://www.w3.org/1999/02/22-rdf-syntax-ns#"
   xmlns:svg="http://www.w3.org/2000/svg"
   xmlns="http://www.w3.org/2000/svg"
   xmlns:sodipodi="http://sodipodi.sourceforge.net/DTD/sodipodi-0.dtd"
   xmlns:inkscape="http://www.inkscape.org/namespaces/inkscape"
   width="48"
   height="48"
   viewBox="0 0 12.7 12.7"
   version="1.1"
   id="svg822"
   inkscape:version="0.92.3 (2405546, 2018-03-11)"
   sodipodi:docname="network-server.svg">
  <defs
     id="defs816" />
  <sodipodi:namedview
     id="base"
     pagecolor="#ffffff"
     bordercolor="#666666"
     borderopacity="1.0"
     inkscape:pageopacity="0.0"
     inkscape:pageshadow="2"
     inkscape:zoom="3.7565048"
     inkscape:cx="24"
     inkscape:cy="24"
     inkscape:document-units="mm"
     inkscape:current-layer="layer1"
     showgrid="false"
     units="px"
     inkscape:snap-smooth-nodes="true"
     inkscape:object-nodes="true"
     inkscape:snap-midpoints="true"
     showguides="true"
     inkscape:guide-bbox="true"
     inkscape:window-width="1366"
     inkscape:window-height="719"
     inkscape:window-x="0"
     inkscape:window-y="25"
     inkscape:window-maximized="1"
     inkscape:snap-global="true" />
  <metadata
     id="metadata819">
    <rdf:RDF>
      <cc:Work
         rdf:about="">
        <dc:format>image/svg+xml</dc:format>
        <dc:type
           rdf:resource="http://purl.org/dc/dcmitype/StillImage" />
        <dc:title></dc:title>
      </cc:Work>
    </rdf:RDF>
  </metadata>
  <g
     inkscape:label="Capa 1"
     inkscape:groupmode="layer"
     id="layer1"
     transform="translate(0,-284.29998)">
    <g
       id="g1093">
      <path
         inkscape:connector-curvature="0"
         id="path877-6"
         d="m 6.2297163,284.35653 c -1.515538,0.0144 -3.0867147,0.71884 -4.7298927,2.31644 v 0.6204 1.02246 5.67543 h 9.6875494 v -5.67543 h 0.0041 v -1.64286 c -1.5983817,-1.46262 -3.2443167,-2.33279 -4.9619277,-2.31644 z"
         style="fill:#ff7f2a;fill-opacity:1;stroke:none;stroke-width:0.19860323px;stroke-linecap:butt;stroke-linejoin:miter;stroke-opacity:1" />
      <path
         inkscape:connector-curvature="0"
         id="path1024"
         d="m 6.1376093,293.99138 h 5.0498197 v -2.74247 l -2.2644607,-2.26084 -0.04858,0.87591 -1.236617,-1.24127 -0.08372,0.82786 -1.197343,-1.19734 -0.422713,1.44642 0.414962,0.41445 -0.566374,0.50074 0.706417,0.7059 -0.74104,1.49087 0.485241,0.47283 -0.413411,0.38758 z"
         style="opacity:0.5;fill:#784421;fill-opacity:1;stroke:none;stroke-width:0.26458332px;stroke-linecap:butt;stroke-linejoin:miter;stroke-opacity:1" />
      <rect
         x="1.0251139"
         y="293.98154"
         style="opacity:1;fill:#2b1100;fill-opacity:1;stroke-width:0.15927376"
         width="10.699533"
         height="1.2745087"
         id="rect4" />
      <rect
         x="-0.028991858"
         y="295.23206"
         style="opacity:1;fill:#552200;fill-opacity:1;stroke-width:0.15927376"
         width="12.757987"
         height="1.7647533"
         id="rect2" />
      <path
         id="path877"
         d="m 2.7393677,285.62703 c -0.0068,0.005 -0.013404,0.007 -0.020153,0.0119 -0.4020506,0.29093 -0.8087704,0.63464 -1.2195643,1.03404 v 0.62064 1.02216 5.6658 h -0.47439 v 1.25057 h -1.05419923 v 1.76475 H 3.3615518 v -1.76475 H 2.9631267 v -1.25057 h -0.223759 z m 7.1406493,0.003 v 8.35091 H 9.786483 v 1.25109 H 9.338448 v 1.76475 h 3.390491 v -1.76475 h -1.004073 v -1.25109 h -0.537435 v -5.66528 h 0.0041 v -1.6428 c -0.433208,-0.39641 -0.870876,-0.73931 -1.311549,-1.04283 z"
         style="opacity:0.5;fill:#000000;fill-opacity:1;stroke:none;stroke-width:0.19860323px;stroke-linecap:butt;stroke-linejoin:miter;stroke-opacity:1"
         inkscape:connector-curvature="0" />
      <path
         id="path870"
         d="m 6.2969986,288.23507 c 0.040369,0 0.076168,0.0266 0.087792,0.0653 l 0.1166556,0.38925 c 0.09848,0.32832 0.1501908,0.66758 0.1583473,1.00983 h -0.725591 c 0.00814,-0.34225 0.059867,-0.68151 0.1583475,-1.00983 l 0.1166556,-0.38925 c 0.011623,-0.0388 0.047337,-0.0653 0.087792,-0.0653 z"
         style="fill:#1a1a1a;stroke-width:0.19265419"
         inkscape:connector-curvature="0" />
      <path
         id="path868"
         d="m 7.5782074,288.60107 c 0.040369,0 0.076168,0.0266 0.087792,0.0653 l 0.1166558,0.38924 c 0.098491,0.32833 0.1502007,0.66761 0.1583471,1.00984 h -0.725591 c 0.00814,-0.34223 0.059865,-0.68151 0.1583469,-1.00984 l 0.1170567,-0.38924 c 0.011623,-0.0388 0.046935,-0.0653 0.087392,-0.0653 z"
         style="fill:#1a1a1a;stroke-width:0.19265419"
         inkscape:connector-curvature="0" />
      <path
         id="path866"
         d="m 8.8598172,288.96709 c 0.040369,0 0.076168,0.0265 0.087793,0.0653 l 0.1166556,0.38926 c 0.09848,0.32833 0.1501907,0.66802 0.1583474,1.01022 H 8.4970219 c 0.00814,-0.34221 0.059866,-0.6819 0.1583471,-1.01022 l 0.1166557,-0.38926 c 0.011626,-0.0388 0.047337,-0.0653 0.087793,-0.0653 z"
         style="fill:#1a1a1a;stroke-width:0.19265419"
         inkscape:connector-curvature="0" />
      <path
         id="path864"
         d="m 5.930996,289.88269 h 0.732005 v 0.43575 l 0.1483252,0.29625 H 5.7826709 l 0.1483251,-0.29625 z"
         style="fill:#1a1a1a;stroke-width:0.19265419"
         inkscape:connector-curvature="0" />
      <path
         id="path862"
         d="m 7.2122051,290.24869 h 0.7324055 v 0.43615 l 0.1479243,0.29587 H 7.0642808 l 0.1479243,-0.29587 z"
         style="fill:#1a1a1a;stroke-width:0.19265419"
         inkscape:connector-curvature="0" />
      <path
         id="path860"
         d="m 8.4934138,290.61469 h 0.7324059 v 0.43617 l 0.1479242,0.29624 H 8.3454895 l 0.1479243,-0.29624 z"
         style="fill:#1a1a1a;stroke-width:0.19265419"
         inkscape:connector-curvature="0" />
      <path
         id="path858"
         d="m 5.7477944,290.79789 h 1.0984082 v 2.01362 H 5.7477944 Z"
         style="fill:#1a1a1a;stroke-width:0.19265419"
         inkscape:connector-curvature="0" />
      <path
         id="path856"
         d="m 7.0290034,291.16388 h 1.0984079 v 1.64763 H 7.0290034 Z"
         style="fill:#1a1a1a;stroke-width:0.19265419"
         inkscape:connector-curvature="0" />
      <path
         id="path854"
         d="m 8.3106131,291.52991 h 1.0984082 v 1.2816 H 8.3106131 Z"
         style="fill:#1a1a1a;stroke-width:0.19265419"
         inkscape:connector-curvature="0" />
      <path
         id="path852"
         d="m 5.7678384,292.99433 h 1.0583202 l -0.053718,0.21406 c -0.00203,0.007 -0.00478,0.0153 -0.00762,0.0228 0.049331,0.0413 0.081388,0.10281 0.081377,0.172 v 0.0978 c 0,0.12439 -0.101403,0.22571 -0.2256949,0.22571 H 5.9734938 c -0.1243784,1e-5 -0.2256949,-0.10125 -0.2256949,-0.22566 v -0.0978 c 0,-0.0691 0.032134,-0.13061 0.081378,-0.17198 -0.00294,-0.007 -0.006,-0.0151 -0.00802,-0.0228 z"
         style="fill:#1a1a1a;stroke-width:0.19265419"
         inkscape:connector-curvature="0" />
      <path
         id="path850"
         d="m 7.0490473,292.99433 h 1.0583202 l -0.053315,0.21406 c -0.00203,0.007 -0.00518,0.0153 -0.00802,0.0228 0.049332,0.0413 0.081398,0.10281 0.081377,0.172 v 0.0978 c 0,0.12439 -0.1010025,0.22571 -0.2252938,0.22571 H 7.2546986 c -0.1243786,0 -0.2256948,-0.10125 -0.2256948,-0.22571 v -0.0978 c 0,-0.0691 0.032134,-0.13062 0.081379,-0.172 -0.00294,-0.007 -0.00561,-0.0151 -0.00762,-0.0228 z"
         style="fill:#1a1a1a;stroke-width:0.19265419"
         inkscape:connector-curvature="0" />
      <path
         id="path6"
         d="m 8.3306571,292.99433 h 1.0579193 l -0.053317,0.21406 c -0.00203,0.007 -0.00478,0.0153 -0.00762,0.0228 0.049342,0.0413 0.081399,0.10281 0.081377,0.172 v 0.0978 c 0,0.12439 -0.1014031,0.22571 -0.2256948,0.22571 H 8.5359084 c -0.1243783,0 -0.225294,-0.10125 -0.225294,-0.22571 v -0.0978 c 0,-0.0691 0.032134,-0.13062 0.081378,-0.172 -0.00294,-0.007 -0.006,-0.0151 -0.00802,-0.0228 z"
         style="fill:#1a1a1a;stroke-width:0.19265419"
         inkscape:connector-curvature="0" />
    </g>
  </g>
</svg>
