<svg xmlns="http://www.w3.org/2000/svg" width="24" height="24"><defs><linearGradient id="a"><stop offset="0" stop-color="#22241c"/><stop offset="1" stop-color="#e6e6e6" stop-opacity="0"/></linearGradient><linearGradient id="b"><stop offset="0" stop-color="#333"/><stop offset="1" stop-color="#666"/></linearGradient><linearGradient id="c"><stop offset="0" stop-color="#a0892c"/><stop offset="1" stop-color="#d3bc5f"/></linearGradient></defs><path d="M4.187 2.447l-.002 17.367c0 1.737 1.736 1.739 1.736 1.739h12.16s1.734-.002 1.734-1.739V5.867l-.054-.054-3.31-3.311-.054-.055zm8.61 1.252h1.507a.085.085 0 0 1 .086.086v5.248a.085.085 0 0 1-.086.086h-1.506a.085.085 0 0 1-.086-.086v-5.25a.085.085 0 0 1 .086-.084zm2.524.846h1.506a.086.086 0 0 1 .086.086v5.248a.086.086 0 0 1-.086.086h-1.506a.086.086 0 0 1-.086-.086V4.63a.086.086 0 0 1 .086-.086zM7.66 16.342h8.684v1.736H7.659z" fill="#e6e6e6"/></svg>
