<svg xmlns="http://www.w3.org/2000/svg" width="24" height="24"><defs><linearGradient id="d"><stop offset="0" stop-color="#2c89a0"/><stop offset="1" stop-color="#afdde9"/></linearGradient><linearGradient id="c"><stop offset="0" stop-color="#1a1a1a"/><stop offset="1" stop-color="#333"/></linearGradient><linearGradient id="a"><stop offset="0" stop-color="#fff"/><stop offset="1" stop-color="#fff" stop-opacity="0"/></linearGradient><linearGradient id="b"><stop offset="0"/><stop offset="1" stop-opacity="0"/></linearGradient></defs><path d="M2.57 1.06A2.27 2.27 0 0 0 .29 3.33v4.85h4.65l2.4 7.9L11.3 2.64l2.37 8.7 3.16-7.9 3.97 11.08h2.92V3.33a2.27 2.27 0 0 0-2.3-2.26zm8.74 7.12L7.35 21.62 3.4 9.77H.3v10.9c0 1.26 1.01 2.27 2.27 2.27h18.85a2.27 2.27 0 0 0 2.28-2.27v-4.59h-4.5l-2.37-7.9-3.17 7.9-2.36-7.9z" fill="#1a1a1a"/></svg>