<svg xmlns="http://www.w3.org/2000/svg" height="24" width="24"><path d="M8.8 9a1 .98 0 0 0-1 .98 1 .98 0 0 0 1 .98 1 .98 0 0 0 1-.98 1 .98 0 0 0-1-.97zm6.4 0a1 .98 0 0 0-1 .98 1 .98 0 0 0 1 .98 1 .98 0 0 0 1-.98 1 .98 0 0 0-1-.97zm-9.6.02a1 .98 0 0 0-1 1 1 .98 0 0 0 1 .97 1 .98 0 0 0 1-.98 1 .98 0 0 0-1-1zm6.4 0a1 .98 0 0 0-1 1 1 .98 0 0 0 1 .97 1 .98 0 0 0 1-.98 1 .98 0 0 0-1-1zm6.4 0a1 .98 0 0 0-1 1 1 .98 0 0 0 1 .97 1 .98 0 0 0 1-.98 1 .98 0 0 0-1-1zm1.16 3.76a2.65 2.65 0 0 0-2.65 2.66v1.06h-1.59v6.36c0 .59.48 1.06 1.06 1.06h6.37c.58 0 1.05-.47 1.06-1.06l.07-6.34-1.13-.02h-.53v-1.06a2.65 2.65 0 0 0-2.66-2.66zm0 1c.91 0 1.65.75 1.65 1.66v1.06h-3.29v-1.06c0-.91.74-1.65 1.64-1.65z" fill="teal"/></svg>