<?xml version="1.0" encoding="UTF-8" standalone="no"?>
<svg
   xmlns:dc="http://purl.org/dc/elements/1.1/"
   xmlns:cc="http://creativecommons.org/ns#"
   xmlns:rdf="http://www.w3.org/1999/02/22-rdf-syntax-ns#"
   xmlns:svg="http://www.w3.org/2000/svg"
   xmlns="http://www.w3.org/2000/svg"
   xmlns:xlink="http://www.w3.org/1999/xlink"
   xmlns:sodipodi="http://sodipodi.sourceforge.net/DTD/sodipodi-0.dtd"
   xmlns:inkscape="http://www.inkscape.org/namespaces/inkscape"
   width="48"
   height="48"
   viewBox="0 0 12.7 12.7"
   version="1.1"
   id="svg46"
   sodipodi:docname="application-x-rpm.svg"
   inkscape:version="0.92.4 (5da689c313, 2019-01-14)">
  <metadata
     id="metadata50">
    <rdf:RDF>
      <cc:Work
         rdf:about="">
        <dc:format>image/svg+xml</dc:format>
        <dc:type
           rdf:resource="http://purl.org/dc/dcmitype/StillImage" />
        <dc:title></dc:title>
      </cc:Work>
    </rdf:RDF>
  </metadata>
  <sodipodi:namedview
     pagecolor="#ffffff"
     bordercolor="#666666"
     borderopacity="1"
     objecttolerance="10"
     gridtolerance="10"
     guidetolerance="10"
     inkscape:pageopacity="0"
     inkscape:pageshadow="2"
     inkscape:window-width="1112"
     inkscape:window-height="480"
     id="namedview48"
     showgrid="false"
     inkscape:zoom="4.9166667"
     inkscape:cx="2.1355932"
     inkscape:cy="24"
     inkscape:window-x="0"
     inkscape:window-y="25"
     inkscape:window-maximized="0"
     inkscape:current-layer="svg46" />
  <defs
     id="defs24">
    <linearGradient
       id="b">
      <stop
         offset="0"
         id="stop2" />
      <stop
         offset="1"
         stop-opacity="0"
         id="stop4" />
    </linearGradient>
    <linearGradient
       gradientTransform="matrix(0.26458,0,0,0.26458,0,-0.0094168)"
       xlink:href="#a"
       id="c"
       x1="18.18"
       y1="-1.47"
       x2="26.95"
       y2="48.32"
       gradientUnits="userSpaceOnUse" />
    <linearGradient
       id="a">
      <stop
         offset="0"
         stop-color="#53536c"
         id="stop8" />
      <stop
         offset=".2"
         stop-color="#9393ac"
         id="stop10" />
      <stop
         offset=".33"
         stop-color="#8d8da8"
         id="stop12" />
      <stop
         offset=".44"
         stop-color="#6f6f91"
         id="stop14" />
      <stop
         offset=".57"
         stop-color="#53536c"
         id="stop16" />
      <stop
         offset=".76"
         stop-color="#6f6f91"
         id="stop18" />
      <stop
         offset="1"
         stop-color="#b7b7c8"
         id="stop20" />
    </linearGradient>
    <linearGradient
       xlink:href="#b"
       id="d"
       gradientUnits="userSpaceOnUse"
       x1="3.14"
       y1="2.57"
       x2="10.7"
       y2="8.51" />
  </defs>
  <path
     d="M 10.821322,4.5995668 8.7496606,12.67984 H 3.955471 L 1.8838096,4.5995668 3.4448316,-0.0041252 H 9.2603 Z"
     id="path26"
     style="fill:url(#c);stroke-width:0.26458001"
     inkscape:connector-curvature="0" />
  <path
     d="m 4.84,11.58 -0.88,1.1 h 4.79 l -0.88,-1.1 z"
     id="path28"
     inkscape:connector-curvature="0"
     style="fill:#1c1c24;fill-opacity:0.1" />
  <path
     d="M 3.44,0 4.26,1.1 H 8.44 L 9.26,0 Z"
     id="path30"
     inkscape:connector-curvature="0"
     style="fill:#1c1c24;fill-opacity:0.35" />
  <path
     d="M 4.83,11.58 3.95,12.68 1.88,4.6 3.05,4.64 Z"
     id="path32"
     inkscape:connector-curvature="0"
     style="fill:#1c1c24;fill-opacity:0.47000002" />
  <path
     d="M 1.88,4.6 3.44,0 4.26,1.1 3.06,4.64 Z m 8.94,0 L 9.26,0 8.44,1.1 9.64,4.64 Z"
     id="path34"
     inkscape:connector-curvature="0"
     style="fill:#1c1c24;fill-opacity:0.70999995" />
  <path
     d="M 7.87,11.58 8.75,12.68 10.82,4.6 9.65,4.64 Z"
     id="path36"
     inkscape:connector-curvature="0"
     style="fill:#1c1c24;fill-opacity:0.47000002" />
  <path
     d="M 6.12,3.41 5.45,3.51 4.65,3.87 3.95,4.72 4.35,5.12 3.92,5.9 8.22,10.2 8.68,8.4 9.48,5.25 8.28,4.03 7.51,3.71 6.78,3.47 Z"
     id="path38"
     style="opacity:0.57999998;fill:url(#d)"
     inkscape:connector-curvature="0" />
  <g
     id="g44"
     style="fill:#dbdee3;stroke-width:1.98000002">
    <path
       d="M 6.26,3.37 C 5.36,3.37 4.53,3.7 4.16,4.2 4.03,4.38 3.94,4.6 3.94,4.72 a 0.26,0.26 0 0 0 0,0.09 23.82,23.82 0 0 0 0.73,-0.12 c 0.01,0 0.02,-0.09 0.02,-0.2 0,-0.14 0.01,-0.2 0.05,-0.3 0.3,-0.58 1.4,-0.89 2.25,-0.6 L 7.16,3.64 7.26,3.51 7.16,3.48 A 3.69,3.69 0 0 0 6.26,3.37 Z m 0,0.97 A 0.16,0.16 0 0 0 6.24,4.34 0.45,0.45 0 0 1 6.1,4.36 H 6.03 L 6.1,4.39 6.22,4.45 a 7.31,7.31 0 0 1 1.3,0.2 C 8.76,4.87 8.81,4.87 8.77,4.84 L 8.37,4.74 C 6.47,4.42 6.35,4.4 6.32,4.36 A 0.05,0.05 0 0 0 6.27,4.34 Z M 5.06,4.93 V 6.15 L 5.21,6.14 C 5.47,6.11 5.48,6.1 5.48,6 V 5.9 L 5.66,5.88 C 5.88,5.84 6.14,5.72 6.22,5.61 A 0.3,0.3 0 0 0 6.29,5.41 C 6.29,5.29 6.28,5.27 6.18,5.18 6.02,5.02 5.81,4.96 5.38,4.94 Z m 0.42,0.1 0.05,0.02 c 0.09,0.03 0.2,0.1 0.27,0.2 0.12,0.14 0.07,0.34 -0.14,0.47 L 5.51,5.8 C 5.49,5.8 5.48,5.71 5.48,5.41 Z M 6.59,4.93 V 5.89 H 7.02 V 5.04 H 7.2 c 0.13,0 0.17,0 0.18,0.04 C 7.39,5.1 7.4,5.28 7.4,5.5 V 5.9 H 7.8 V 5.04 H 8.17 V 5.48 L 8.18,5.89 H 8.61 V 5.04 L 8.51,5 a 3.6,3.6 0 0 0 -1,-0.06 z M 4.32,4.95 H 3.93 L 3.92,5.42 V 5.89 H 4.35 V 5.12 L 4.42,5.1 a 0.43,0.43 0 0 1 0.16,0.01 c 0.08,0.03 0.1,0.02 0.2,-0.03 L 4.88,5.01 4.8,4.98 A 1.53,1.53 0 0 0 4.32,4.95 Z"
       id="path40"
       inkscape:connector-curvature="0" />
    <path
       d="M 7.26,3.5 7.16,3.64 C 7.45,3.77 7.67,3.96 7.78,4.17 7.84,4.29 7.85,4.5 7.84,4.57 V 4.69 L 8.62,4.82 8.6,4.66 A 1.34,1.34 0 0 0 8.27,4.06 2.05,2.05 0 0 0 7.26,3.51 Z"
       id="path42"
       inkscape:connector-curvature="0"
       style="opacity:0.75" />
  </g>
</svg>
