<?xml version="1.0" encoding="UTF-8" standalone="no"?>
<svg
   xmlns:dc="http://purl.org/dc/elements/1.1/"
   xmlns:cc="http://creativecommons.org/ns#"
   xmlns:rdf="http://www.w3.org/1999/02/22-rdf-syntax-ns#"
   xmlns:svg="http://www.w3.org/2000/svg"
   xmlns="http://www.w3.org/2000/svg"
   xmlns:sodipodi="http://sodipodi.sourceforge.net/DTD/sodipodi-0.dtd"
   xmlns:inkscape="http://www.inkscape.org/namespaces/inkscape"
   width="48"
   height="48"
   version="1"
   id="svg44"
   sodipodi:docname="application-x-fictionbook.svg"
   inkscape:version="0.92.4 (5da689c313, 2019-01-14)">
  <metadata
     id="metadata48">
    <rdf:RDF>
      <cc:Work
         rdf:about="">
        <dc:format>image/svg+xml</dc:format>
        <dc:type
           rdf:resource="http://purl.org/dc/dcmitype/StillImage" />
        <dc:title></dc:title>
      </cc:Work>
    </rdf:RDF>
  </metadata>
  <sodipodi:namedview
     pagecolor="#ffffff"
     bordercolor="#666666"
     borderopacity="1"
     objecttolerance="10"
     gridtolerance="10"
     guidetolerance="10"
     inkscape:pageopacity="0"
     inkscape:pageshadow="2"
     inkscape:window-width="1136"
     inkscape:window-height="480"
     id="namedview46"
     showgrid="false"
     inkscape:zoom="4.9166667"
     inkscape:cx="2.1355932"
     inkscape:cy="24"
     inkscape:window-x="0"
     inkscape:window-y="25"
     inkscape:window-maximized="0"
     inkscape:current-layer="svg44" />
  <defs
     id="defs20">
    <linearGradient
       id="d"
       x1="29.423"
       x2="26.389"
       y1="52.775"
       y2="-23.699"
       gradientUnits="userSpaceOnUse">
      <stop
         stop-color="#c8ab37"
         offset="0"
         id="stop2" />
      <stop
         stop-color="#ffd42a"
         offset=".2"
         id="stop4" />
      <stop
         stop-color="#e6cb5f"
         offset=".45"
         id="stop6" />
      <stop
         stop-color="#c8ab37"
         offset=".65"
         id="stop8" />
      <stop
         stop-color="#fd5"
         offset=".76"
         id="stop10" />
      <stop
         stop-color="#c8ab37"
         offset="1"
         id="stop12" />
    </linearGradient>
    <linearGradient
       id="linearGradient866"
       x1="-3.5361"
       x2="39.491"
       y1="10.165"
       y2="22.785"
       gradientUnits="userSpaceOnUse">
      <stop
         offset="0"
         id="stop15" />
      <stop
         stop-opacity="0"
         offset="1"
         id="stop17" />
    </linearGradient>
  </defs>
  <path
     d="M 40.89,17.42 33.06,47.97 H 14.94 L 7.11,17.42 13.01,0.03 H 35 Z"
     id="path22"
     style="fill:url(#d)"
     inkscape:connector-curvature="0" />
  <path
     d="m 15.118,26.412 0.44163,-9.5584 -1.4416,-1.4416 1.3958,-0.55196 0.07283,-3.7874 2.5313,-0.66062 1.3043,1.3043 0.69568,-1.3043 8.8442,8.8442 6.1558,-0.84423 0.91315,0.91315 -3.1826,12.214 -2.4778,10.125 z"
     id="path24"
     style="opacity:0.4;fill:url(#linearGradient866)"
     inkscape:connector-curvature="0" />
  <path
     d="m 30.118,13.412 -5,5 5,5 5,-5 z"
     id="path26"
     inkscape:connector-curvature="0"
     style="fill:#ff9900" />
  <path
     class="ColorScheme-Text"
     d="m 15.618,10.412 a 0.5,0.5 0 0 0 -0.5,0.5 v 3.5 h -1 v 1 h 1 v 11 h 1 v -11 h 2 v -1 h -2 v -3 h 2 v -1 z m 3.5,0 v 16 h 4.5 a 0.5,0.5 0 0 0 0.5,-0.5 v -11 a 0.5,0.5 0 0 0 -0.5,-0.5 h -3.5 v -4 z m 1,5 h 3 v 10 h -3 z"
     id="path28"
     inkscape:connector-curvature="0"
     style="fill:#1a1a1a" />
  <g
     id="g42"
     style="fill:#554400">
    <path
       d="m 18.28,43.82 -3.34,4.15 h 18.12 l -3.34,-4.15 z"
       id="path30"
       inkscape:connector-curvature="0"
       style="fill-opacity:0.1" />
    <path
       d="m 29.72,43.82 3.34,4.15 7.83,-30.55 -4.44,0.16 z"
       id="path32"
       inkscape:connector-curvature="0"
       style="fill-opacity:0.47000002" />
    <path
       d="m 13.01,0.03 3.08,4.15 h 15.8 l 3.1,-4.15 z"
       id="path34"
       inkscape:connector-curvature="0"
       style="fill-opacity:0.35" />
    <path
       d="M 40.89,17.42 34.99,0.03 31.9,4.18 36.45,17.58 Z"
       id="path36"
       inkscape:connector-curvature="0"
       style="fill-opacity:0.70999995" />
    <path
       d="m 18.28,43.82 -3.34,4.15 -7.83,-30.55 4.44,0.16 z"
       id="path38"
       inkscape:connector-curvature="0"
       style="fill-opacity:0.47000002" />
    <path
       d="m 7.11,17.42 5.9,-17.39 3.09,4.15 -4.55,13.4 z"
       id="path40"
       inkscape:connector-curvature="0"
       style="fill-opacity:0.70999995" />
  </g>
</svg>
