<svg xmlns="http://www.w3.org/2000/svg" xmlns:xlink="http://www.w3.org/1999/xlink" width="48" height="48" version="1"><defs><linearGradient id="c"><stop offset="0"/><stop offset="1" stop-opacity="0"/></linearGradient><linearGradient id="a"><stop offset="0"/><stop offset="1" stop-opacity="0"/></linearGradient><linearGradient gradientTransform="translate(.01)" xlink:href="#b" id="d" x1="7.11" y1="24" x2="35.45" y2="40.15" gradientUnits="userSpaceOnUse"/><linearGradient id="b"><stop offset="0" stop-color="#d38d5f"/><stop offset=".2" stop-color="#a6653a"/><stop offset=".33" stop-color="#bc6a34"/><stop offset=".44" stop-color="#b67143"/><stop offset=".57" stop-color="#d49163"/><stop offset=".76" stop-color="#c87137"/><stop offset="1" stop-color="#d38d5f"/></linearGradient><linearGradient xlink:href="#c" id="e" gradientUnits="userSpaceOnUse" x1="14.07" y1="15.71" x2="41.67" y2="33.32"/></defs><path d="M40.9 17.42l-7.83 30.55H14.95L7.12 17.42 13.02.03h21.99z" fill="url(#d)"/><path d="M18.29 43.82l-3.34 4.15h18.12l-3.34-4.15z" fill="#28170b" fill-opacity=".1"/><path d="M29.73 43.82l3.34 4.15 7.83-30.55-4.44.16z" fill="#28170b" fill-opacity=".47"/><path d="M13.02.03l3.08 4.15h15.8L35 .03z" fill="#28170b" fill-opacity=".35"/><path d="M40.9 17.42L35 .03l-3.09 4.15 4.55 13.4z" fill="#28170b" fill-opacity=".71"/><path d="M18.29 43.82l-3.34 4.15-7.83-30.55 4.44.16z" fill="#28170b" fill-opacity=".47"/><path d="M7.12 17.42L13.02.03l3.09 4.15-4.55 13.4z" fill="#28170b" fill-opacity=".71"/><path d="M30.232 42.309l5.347-21.02-7.349-7.709-4.74-.9-3.82 3.16 3.72 6.9.66 8.76-.08 4.68z" opacity=".56" fill="url(#e)"/><path style="line-height:normal;text-indent:0;text-align:start;text-decoration-line:none;text-transform:none;marker:none" d="M28.23 13.57a5.97 5.97 0 0 0-8.44-.01 5.97 5.97 0 0 0-.02 8.45c.54.55 1.14.95 1.74 1.24l-.01 4.48 1.49 1.5-1.5 1.48 1.5 1.5-1.5 1.49 2.48 2.48 2.49-2.47.02-10.44a7.37 7.37 0 0 0 1.74-1.24 5.97 5.97 0 0 0 0-8.45zm-3.2.71c.59.58.59 1.48 0 2.06a1.43 1.43 0 0 1-2.05 0 1.43 1.43 0 0 1 0-2.06 1.42 1.42 0 0 1 2.06 0z" fill="#fff"/></svg>