<svg xmlns="http://www.w3.org/2000/svg" xmlns:xlink="http://www.w3.org/1999/xlink" viewBox="0 0 48 48"><defs><linearGradient id="b"><stop offset="0"/><stop offset="1" stop-opacity="0"/></linearGradient><linearGradient xlink:href="#a" id="c" x1="11.7" y1="41.83" x2="38.49" y2="7.06" gradientUnits="userSpaceOnUse"/><linearGradient id="a"><stop offset="0" stop-color="#a00"/><stop offset=".21" stop-color="#ff2a2a"/><stop offset=".33" stop-color="#d72b2b"/><stop offset=".62" stop-color="#ff5252"/><stop offset=".76" stop-color="#ff2a2a"/><stop offset=".89" stop-color="#ff2a2a"/><stop offset="1" stop-color="#ff2a2a"/></linearGradient><linearGradient xlink:href="#b" id="d" gradientUnits="userSpaceOnUse" x1="13.43" y1="11.93" x2="40.84" y2="32.62" gradientTransform="translate(0 .2)"/></defs><path d="M40.89 17.42l-7.83 30.55H14.94L7.11 17.42 13.01.03H35z" fill="url(#c)" transform="translate(.01 .2)"/><path d="M18.29 44.02l-3.34 4.15h18.12l-3.34-4.15z" fill="#280b0b" fill-opacity=".1"/><path d="M13.02.23l3.08 4.15h15.8L35 .23z" fill="#280b0b" fill-opacity=".35"/><path d="M18.28 44.02l-3.34 4.15-7.83-30.55 4.44.16z" fill="#280b0b" fill-opacity=".47"/><path d="M7.11 17.62L13.01.23l3.09 4.15-4.55 13.4zm33.79 0L35 .23l-3.09 4.15 4.55 13.4z" fill="#280b0b" fill-opacity=".71"/><path d="M29.73 44.02l3.34 4.15 7.83-30.55-4.44.16z" fill="#280b0b" fill-opacity=".47"/><path d="M31.49 37.14l3.85-15.04-6.98-6.98-4.95-1.94-6.08 5.53-.54 3.72z" opacity=".67" fill="url(#d)"/><path d="M24 25.88l-5.67-5.67L24 14.54l1.89 1.9-3.78 3.76L24 22.1l5.67-5.68-4.91-4.9a1.02 1.02 0 0 0-1.52 0l-7.93 7.93c-.38.45-.38 1.1 0 1.5l7.93 7.94c.42.42 1.1.42 1.52 0l7.93-7.93c.38-.42.38-1.06 0-1.5l-1.13-1.15z" class="ColorScheme-Text" fill="#f4d7d7"/></svg>