<svg xmlns="http://www.w3.org/2000/svg" xmlns:xlink="http://www.w3.org/1999/xlink" width="48" height="48" viewBox="0 0 12.7 12.7"><defs><linearGradient gradientTransform="matrix(.26458 0 0 .26458 .001 0)" xlink:href="#a" id="b" x1="3.381" y1="9.094" x2="45.804" y2="27.018" gradientUnits="userSpaceOnUse"/><linearGradient id="a"><stop offset="0" stop-color="#374548"/><stop offset=".203" stop-color="#53676c"/><stop offset=".335" stop-color="#a4b5ba"/><stop offset=".445" stop-color="#6f8a91"/><stop offset=".567" stop-color="#415155"/><stop offset=".764" stop-color="#6f8a91"/><stop offset="1" stop-color="#53676c"/></linearGradient></defs><path d="M10.82 4.61L8.75 12.691H3.954L1.883 4.61 3.443.008h5.819z" fill="url(#b)"/><path d="M4.838 11.594l-.884 1.098H8.75l-.884-1.098z" fill="none"/><path d="M3.444.008l.815 1.098h4.18l.82-1.098z" fill="#1c2224" fill-opacity=".353"/><path d="M4.838 11.594l-.884 1.098L1.883 4.61l1.174.042z" fill="#1c2224" fill-opacity=".471"/><path d="M1.88 4.61L3.44.007l.818 1.098-1.204 3.545zM10.82 4.61L9.26.007l-.818 1.098 1.204 3.545z" fill="#1c2224" fill-opacity=".706"/><path d="M7.865 11.594l.884 1.098L10.82 4.61l-1.174.042z" fill="#1c2224" fill-opacity=".471"/><path d="M4.838 11.594l-.884 1.098H8.75l-.884-1.098z" fill="#1c2224" fill-opacity=".098"/><path style="line-height:1.25;-inkscape-font-specification:'Electric Guitar Icons'" d="M5.722 1.085c-.001.149-.01.503-.01.612a6.835 6.835 0 0 0-.022.32c.015 0 .023.007.023.022H5.69a313.1 313.1 0 0 0-.011 1.755l-.012.148.023.012c.023 0 .034-.012.034-.034v-.183c0-.023-.011-.034-.034-.034l.034-.046v-.136l.023-.115c-.015 0-.023-.007-.023-.022h.034l-.011.194v.08c0 .014.008.022.023.022h.068c.023 0 .034-.008.034-.023V3.6l-.022-.022-.023.01c-.023 0-.034-.01-.034-.033v-.046a.185.185 0 0 0 .045-.011v.011c.023 0 .034-.011.034-.034v-.011a.123.123 0 0 0-.022-.069l.022-.034v-.24h.012v.24l.023.034c-.016 0-.023.004-.023.011v.251c0 .015.011.023.034.023h.045c.023 0 .035-.008.035-.023v-.273h.068v.011c-.03 0-.045.011-.045.034v.228c0 .015.007.023.022.023h.069l.034-.012v.012h.296v.023h-.376c-.03 0-.045.027-.045.08h-.023c0-.053-.012-.08-.035-.08h-.045l-.034.011v.183h-.012v-.16c0-.023-.01-.034-.034-.034H5.77c-.015 0-.023.011-.023.034v.183c0 .022.008.034.023.034h.08l.034-.012c0 .008.007.012.023.012h.535v.022h-.285l-.034.012c0-.008-.004-.012-.011-.012h-.069c-.015 0-.022.02-.022.057h-.023c0-.038-.012-.057-.035-.057h-.056l-.035.012c0-.008-.007-.012-.022-.012h-.08c-.015 0-.023.008-.023.023v.308h-.023c0-.038-.015-.057-.045-.057v-.023c.03 0 .045-.011.045-.034v-.194c0-.015-.011-.023-.034-.023-.015 0-.023.008-.023.023v.923h.012c.022 0 .034-.011.034-.034V4.74c0-.015-.012-.027-.034-.034.022-.016.034-.073.034-.171h.011c0 .106.011.16.034.16h.069c.015 0 .023-.012.023-.035v-.148c0-.015-.008-.023-.023-.023h-.069c-.015 0-.026.008-.034.023-.03-.015-.045-.03-.045-.046.03 0 .045-.026.045-.08h.023c0 .054.008.08.023.08h.057c.015 0 .023-.057.023-.17h.022c0 .113.012.17.035.17h.558v.023H6.18c-.023 0-.034.008-.034.023L6.1 4.489h-.193c-.023 0-.035.008-.035.023v.16l.012.034c-.008 0-.012.007-.012.022v.16l.012.034h.581v.012h-.558c-.023 0-.035.01-.035.034v.125c0 .023.012.034.035.034h.535c.023 0 .035-.011.035-.034v-.832l-.012-.034h.012l-.012-.114v-.707l-.023-.022c.016 0 .023-.008.023-.023v-.25l-.023-.035h.023c0-.03-.007-.133-.023-.308 0-.185-.008-1.06-.013-1.683h-.397v.1c0 .022.011.034.034.034h.354v.01c-.107 0-.16.008-.16.024 0-.016-.007-.023-.023-.023h-.08l-.034.023c0-.016-.004-.023-.011-.023h-.046c-.023 0-.034.011-.034.034v.342l.011.023h.377v.023h-.354c-.023 0-.034.01-.034.034V1.8c.053 0 .08.007.08.023v.022L6.1 1.88l-.08-.022v-.171c0-.023-.01-.034-.033-.034h-.058c-.015 0-.022.01-.022.034v.285c0 .023.003.045.01.068a.126.126 0 0 0-.01.057v.274l.01.034h.514v.011H5.93l-.022.023v.285h-.023v-.274c0-.015-.011-.026-.034-.034h-.046c-.023 0-.034.023-.034.069h-.012c0-.046-.015-.069-.045-.069v-.011c.03 0 .045-.011.045-.034v-.308c0-.015-.011-.023-.034-.023 0-.023.011-.034.034-.034v-.308h.012v.285a.11.11 0 0 0 .023.057.077.077 0 0 0-.023.057v.274c0 .023.011.034.034.034h.046c.022 0 .034-.011.034-.034v-.32H5.85v-.034h.034v-.33c0-.023-.011-.034-.034-.034h-.046c-.015 0-.026.01-.034.034l-.046-.034c.03-.03.046-.148.046-.353v-.035c0-.023-.015-.034-.046-.034v-.011c.03 0 .046-.012.046-.035v-.099zm.07 0v.1c0 .022.012.034.035.034h.045c.023 0 .035-.012.035-.035v-.099zm.126 0v.1c0 .022.011.034.034.034h.035c.022 0 .034-.012.034-.035v-.099zm.205.088h.023v.034h-.023zm-.296.057c-.023 0-.034.011-.034.034v.342c0 .015.011.023.034.023h.023c.023 0 .034-.027.034-.08h.023c0 .053.007.08.022.08h.058c.022 0 .034-.008.034-.023v-.342c0-.015-.012-.027-.034-.034h-.058l-.022.023c0-.016-.008-.023-.023-.023zm.125.786h.035v.034c-.023 0-.035-.01-.035-.034zm.046 0h.034v.034h-.034zm.045 0h.023v.034h-.023zm.057 0h.012v.034H6.1zm.023 0h.057v.034h-.057zm.068 0h.012v.034h-.012zm.046 0h.046c0 .023-.008.034-.023.034h-.023zm.068 0h.012v.034h-.012zm.057 0h.058c0 .023-.012.034-.035.034h-.023zm-.615.502h.011v.205h-.011zm.353.034h.012v.046c0 .023-.012.034-.034.034h-.012c-.03-.023-.045-.042-.045-.058v-.01zm-.102.137h.023v.034h-.023zm-.24.045c.023 0 .046.008.069.023l.023-.023.08.023c0-.015.007-.023.022-.023v.023a.123.123 0 0 0 .069-.023.077.077 0 0 0 .057.023h.034l.034-.023c0 .015.004.023.011.023h.046c.03 0 .053-.008.068-.023.023.015.038.023.046.023l.08-.023c0 .015.011.023.034.023v.011h-.638c-.023 0-.035.012-.035.035v.24c0 .022.012.033.035.033h.045c.023 0 .034-.023.034-.068h.012c0 .045.011.068.034.068h.045c.023 0 .035-.011.035-.034.008 0 .023.011.045.034H6.1c.016 0 .023-.011.023-.034.023 0 .034.011.034.034h.274v.012h-.479l-.08.022c0-.015-.015-.022-.045-.022h-.034l-.035.022v.251h-.011v-.24c0-.022-.019-.033-.057-.033v-.012c.038 0 .057-.011.057-.034v-.24l-.034-.045c.007 0 .022-.008.045-.023zm.16.65h.069v.011h-.07zm.194 0h.034v.022h-.034zm.08 0h.09l-.01.022a.197.197 0 0 0-.08-.01zm.113 0h.035v.011h-.035zm.046 0h.08v.011a.188.188 0 0 0-.046.011c0-.007-.011-.01-.034-.01zm-.034.114c0 .008.015.015.045.023-.007.038-.026.06-.057.068 0-.008-.01-.011-.034-.011v-.069a.186.186 0 0 0 .046-.011zm-.194.25h.023v.035h-.023zm-.125.046h.023v.103h-.023zm-1.371.065c-.03.023-.19.475-.478 1.356l.022.035c.395.592.593 1.067.593 1.424 0 .268-.322.83-.79 1.528l.069.266c.21-.3.233-.353.698-.985.19-.334.285-.57.285-.706 0-.138-.032-.276-.083-.415.052.14.117.29.117.392v.023c0 .258-.277.748-.832 1.47-.118.15-.087.133-.177.252l.77 3c.174-.314.354-.642.478-.837.487-.524.863-.786 1.129-.786a.834.834 0 0 1 .193.069c.152.174.339.474.559.9.251.498.267.514.394.76h.3l.564-2.196c-.039-.076-.025-.054-.073-.148-.502-.889-.752-1.474-.752-1.755 0-.122.053-.292.16-.513 0-.015.148-.239.444-.672a1.457 1.457 0 0 1-.034-.171c-.114-.623-.182-.935-.205-.935h-.012c-.167.752-.479 1.129-.934 1.129a.337.337 0 0 1-.171-.035.633.633 0 0 1-.353-.592v-.148l-.023-.023h.023c0-.068-.008-.167-.023-.296l.023-.058-.035-.022H6.03l-.034.022c0-.015-.008-.022-.023-.022h-.08l-.034.022c0-.015-.004-.022-.011-.022h-.092l-.034.022c0-.015-.015-.022-.045-.022v-.012c.03 0 .045-.011.045-.034V5c0-.016-.023-.03-.068-.046v.183c-.107.098-.209.148-.308.148h-.057c-.106 0-.212-.065-.319-.194a2.5 2.5 0 0 1-.32-1.22v-.01zM6.123 4h.023v.034h-.023zm-.125.057h.023v.137h-.023zm-.148.16l.08.011h.057l.034-.011c0 .007.004.011.011.011h.08l.034-.011c0 .007.004.011.011.011a.185.185 0 0 0-.011.046L6.1 4.25h-.25zm.387 0v.034H6.18v-.023a.129.129 0 0 0 .057-.011zm.023 0c.008 0 .011.004.011.011h.171v.023H6.26zm-.502.011h.08v.023h-.08zm.365.068h.023v.046h-.023zm-.08.012l.069.023v.023c0 .022-.012.034-.034.034h-.046V4.34zm-1.382.316h.012v.034H4.66zm1.485.049c0 .015.004.022.011.022h.285v.012c-.007 0-.023.007-.046.022 0-.015-.003-.022-.01-.022H6.34c-.03 0-.053.007-.069.022-.015-.015-.037-.022-.068-.022h-.046l-.034.022c0-.015-.004-.022-.011-.022h-.046a.122.122 0 0 0-.068.022c-.015-.015-.046-.022-.091-.022v-.012h.205zm-1.473.008h.023c.129.478.337.718.626.718.008 0 .038-.004.092-.012h.034v.012l-.149.01c-.304 0-.513-.238-.626-.717zm1.085.026c-.015 0-.026.01-.034.034v.148c0 .023.011.034.034.034h.069c.015 0 .023-.011.023-.034V4.74c0-.015-.008-.027-.023-.034zm.285.068l.069.012v.034c0 .023-.012.034-.034.034h-.046v-.046zm-.276.19c-.016 0-.027.012-.035.035v.125c0 .023.012.034.035.034h.068c.015 0 .023-.011.023-.034V5c0-.023-.008-.034-.023-.034zm-.046.24h.011v.046h-.011zm.137 0h.023v.08h-.023zm.194.011l.068.023v.035c0 .015-.011.022-.034.022H6.04V5.25zm-.331.058h.011v.022h-.011zm-1.379.045h.012c.294.403.463.717.573.99a3.651 3.651 0 0 0-.585-.956zm1.379.011a.078.078 0 0 0 .057.023h.695v.011h-.182c0 .016-.004.023-.011.023 0-.015-.004-.023-.012-.023h-.103l-.034.023c0-.015-.003-.023-.011-.023h-.091l-.034.023c0-.015-.008-.023-.023-.023h-.046a.122.122 0 0 0-.068.023.077.077 0 0 0-.057-.023h-.046c-.023 0-.034.012-.034.035v.114c0 .009.003.015.007.02-.01.006-.015.014-.015.028v.092c0 .023.011.034.034.034h.205c.023 0 .035-.011.035-.034V5.56a.034.034 0 0 0-.007-.02l.026-.017c0 .015.008.023.023.023h.091l.034-.023v.023h.32v.011h-.422c-.03 0-.046.012-.046.034v.092c0 .023.012.034.034.034h.08l.034-.011v.01h.32v.012h-.422c-.03 0-.046.012-.046.034v.08c0 .023.012.034.034.034h.228l.023-.011v.011h.194v.012H6.04c-.015 0-.026.011-.034.034v.08c0 .022.012.034.034.034h.228l.023-.012v.012h.194v.023H6.04c-.015 0-.026.007-.034.022v.069c0 .023.012.034.034.034h.308v-.023l-.034-.045c0-.015.011-.027.034-.035h.045v.024l-.022.08h.114v.01h-.171l-.034.023c0-.015-.004-.023-.012-.023H6.04c-.022 0-.034.054-.034.16h-.011c0-.106-.012-.16-.035-.16h-.068c-.015 0-.026.012-.034.035v.114c0 .017.008.025.02.03-.019.01-.033.067-.04.178.008 0 .012.004.012.011v.057h-.012c0-.023-.027-.049-.08-.08l.08-.068v-.068c0-.012-.008-.02-.02-.028.018-.002.029-.011.029-.032V6.23c0-.016-.012-.027-.034-.035h-.046l-.054.016v-.012h-.034l.002.008c-.005-.007-.013-.012-.028-.012v-.01c.015 0 .03-.008.045-.024a.122.122 0 0 0 .069.023h.011V6.15h-.023v-.034c0-.022.03-.033.087-.034-.013.017-.016.016-.038.048v.023c.023 0 .034-.011.034-.034l.046.034h.068c.023 0 .035-.011.035-.034V6.05c0-.015-.012-.022-.035-.022h-.068c-.004 0-.026.033-.039.05-.002-.013-.012-.02-.032-.02h-.058c-.023 0-.034.031-.034.092h-.023c0-.06-.015-.091-.045-.091v-.023c.03 0 .045-.012.045-.034v-.08c0-.023-.015-.034-.045-.034v-.012c.03 0 .045-.011.045-.034v-.08c0-.022-.015-.034-.045-.034v-.011c.03 0 .045-.011.045-.034V5.59c0-.022-.007-.034-.022-.034l.022-.045v-.114l-.022-.046c.007 0 .022-.007.045-.023zm-.262.034h.034v.023H5.46zm.388.126h.011c0 .02.003.035.01.044a.053.053 0 0 0-.018.027l-.027-.02c.014-.006.024-.02.024-.051zm-.009.083h.012v.034h-.012zm0 .045h.012v.058h-.012zm-.091.08c-.023 0-.034.012-.034.034v.08c0 .023.011.034.034.034h.057c.023 0 .034-.011.034-.034v-.08c0-.015-.011-.026-.034-.034zm.137 0c-.015 0-.027.012-.034.034v.08c0 .023.011.034.034.034h.068c.023 0 .035-.011.035-.034v-.08c0-.015-.012-.026-.035-.034zm-.137.16c-.023 0-.034.011-.034.034v.08c0 .022.011.034.034.034h.057c.023 0 .034-.012.034-.034v-.08c0-.015-.011-.026-.034-.034zm.137 0c-.015 0-.027.011-.034.034v.08c0 .022.011.034.034.034h.068c.023 0 .035-.012.035-.034v-.08c0-.015-.012-.026-.035-.034zm1.945.054h.023v.011c-.22.395-.467.592-.74.592a.86.86 0 0 1-.286-.08v-.01h.012a.487.487 0 0 0 .24.056H7.1c.274 0 .517-.19.73-.57zm-2.394.467h.123c-.04.008-.068.022-.073.048v.514c0 .015.011.022.034.022h.126c.022 0 .034-.007.034-.022v-.07c0-.022-.023-.033-.069-.033V6.78c.046 0 .069-.011.069-.034v-.148L5.61 6.54v-.034c.046 0 .069-.012.069-.035v-.068l-.01-.026h.035a.066.066 0 0 0-.014.026v.536c0 .015.011.022.034.022h.069c.023 0 .034-.007.034-.022v-.07l-.069-.067c0-.016.012-.023.035-.023h.045v.16c0 .015.012.022.034.022h.673c.023 0 .034-.007.034-.022v-.514c-.01-.026-.024-.04-.038-.048h.092c-.006.006-.009.014-.009.026 0 .023.012.034.035.034h.011c.023 0 .034-.011.034-.034 0-.01-.007-.02-.018-.026H6.7c.016 0 .023.007.023.023v.592c0 .012-.008.012-.011.017v-.028c0-.015-.012-.027-.034-.035h-.012c-.023 0-.034.012-.034.035 0 .023.011.034.034.034h.042c-.003.003-.003.011-.008.011h-.387l-.034.023c0-.015-.004-.023-.012-.023H6.03l-.034.023c0-.015-.008-.023-.023-.023h-.114l-.02.02v-.016h-.011v.001a.023.023 0 0 0-.014-.005h-.08c-.023 0-.035.046-.035.137h-.011c0-.091-.011-.137-.034-.137h-.285v-.626c0-.003.002-.004.003-.007v.044h.034c.023 0 .034-.011.034-.034v-.012c0-.006-.002-.01-.004-.014zm.188 0h.026a.023.023 0 0 0-.004.014zm.34 0h.058c-.014.009-.023.03-.023.071h-.011c0-.042-.01-.062-.024-.071zm.124 0h.08c-.015.003-.03.005-.044.014-.01-.01-.023-.01-.036-.014zm.177 0h.03l-.023.014c0-.01-.004-.01-.007-.014zm.112 0h.08c-.013.003-.027.005-.036.014-.015-.01-.03-.01-.044-.014zm-.378.094a.218.218 0 0 1-.011.069l.011.022v.08h-.011c0-.046-.023-.08-.07-.102 0-.016.028-.039.081-.07zm.285.011c0 .015.007.035.022.058-.015 0-.022.007-.022.022H6.26c-.023 0-.034-.007-.034-.022 0-.023.019-.043.057-.058zm-.205.024h.068v.056h-.068zm.307 0h.057v.034c0 .015-.007.022-.022.022-.023 0-.035-.007-.035-.022zm-.558.159h.023v.011h-.023zm.136 0h.035v.011h-.035zm.149 0h.034v.011h-.034zm-.194.114h.069v.057h-.07zm.16 0h.034c.022 0 .034.007.034.023 0 .022-.011.034-.034.034h-.034zm.182 0h.023v.057H6.26c-.023 0-.034-.012-.034-.034 0-.016.011-.023.034-.023zm.125 0h.057v.057h-.057zm-.98.125c-.015 0-.026.012-.034.035v.011c0 .023.011.034.034.034h.023c.015 0 .023-.011.023-.034-.015-.03-.03-.046-.046-.046zm.27.384h.012v.354c0 .015.011.023.034.023h.046a.217.217 0 0 0 .068-.012.126.126 0 0 0 .057.012h.034a.217.217 0 0 0 .069-.012.126.126 0 0 0 .057.012h.023a.126.126 0 0 0 .056-.012.214.214 0 0 0 .069.012h.034a.126.126 0 0 0 .057-.012.214.214 0 0 0 .068.012h.046l.034-.012c0 .008.004.012.012.012h.182c-.006.005-.009.014-.009.025v.012c0 .023.012.034.035.034h.011c.023 0 .034-.011.034-.034V7.69c0-.01-.002-.02-.008-.025h.028v.592l-.008-.004V8.25l-.005.001-.032-.016h-.012c-.023 0-.034.008-.034.023v.023l.011.034h-.17l-.035.012c0-.008-.003-.012-.011-.012h-.069a.214.214 0 0 0-.068.012.126.126 0 0 0-.057-.012H6.2a.214.214 0 0 0-.069.012.126.126 0 0 0-.056-.012h-.046c-.023 0-.034.038-.034.114h-.023c0-.076-.012-.114-.034-.114h-.046a.126.126 0 0 0-.057.012.217.217 0 0 0-.068-.012h-.069c-.015 0-.022.008-.022.023v.114h.137v-.114h.022v.034c0 .068.042.102.125.102l.012-.034.034.012H6.2c.022 0 .046.007.068.022a.077.077 0 0 1 .057-.022h.24c.022 0 .034.011.034.034v.046l-.012.08h-.034c0-.008.004-.012.011-.012 0-.015-.01-.027-.034-.034h-.057v.068h.046V8.6h.011v.194h-.957V8.6h.023v.034h.045v-.068h-.068c-.015 0-.027.011-.034.034-.016 0-.023-.011-.023-.034v-.092c.091-.015.137-.03.137-.045v-.091c0-.015-.011-.023-.034-.023h-.183l.023-.057c0-.015-.007-.023-.023-.023h-.022c-.016 0-.027.008-.035.023v.023l.023.034h-.034v-.65h.273l.035-.01zm.297.251h.023v.034h-.023zm0 .068h.023v.035h-.023zm-.453.06c-.015 0-.027.012-.034.035v.512c0 .023.011.035.034.035h.126v-.103l-.035-.045v-.034c.038 0 .057-.027.057-.08h.012v.057l-.012.16c.008.014.012.03.012.045h.125v-.046h.023c0 .038.034.057.102.057l.034-.046V8.17l-.045-.068V8.09c0-.022.015-.034.045-.034v-.114h.024v.285l.011.034.08-.01c.045 0 .08.003.102.01l.091-.01h.274c.023 0 .034-.013.034-.036v-.512c0-.015-.011-.027-.034-.034h-.832c-.023 0-.034.011-.034.034v.273h-.034l.022-.034v-.057c0-.023-.019-.034-.057-.034v-.034l.057-.069v-.045c0-.015-.011-.027-.034-.034zm-.105.02c-.016 0-.027.012-.035.034v.012c0 .023.012.034.035.034.022 0 .034-.011.034-.034v-.012c0-.022-.012-.034-.034-.034zm.413.003h.011v.08h-.011zm.16.057v.183h-.024c0-.053-.015-.08-.045-.08v-.034c.03-.046.053-.069.069-.069zm-.217.034h.034l.034.023-.011.058h-.023l-.046-.035a.104.104 0 0 0 .012-.046zm.308 0h.034c.022 0 .034.012.034.035v.011l-.023.035-.057-.035a.103.103 0 0 0 .012-.046zm.182 0h.023c0 .016.007.031.022.046-.015 0-.022.012-.022.035-.038-.016-.057-.03-.057-.046 0-.015.011-.027.034-.035zm.16 0c.015 0 .022.012.022.035v.034h-.057v-.034c0-.015.012-.027.035-.035zm-.582.16v.034h-.034c0-.015.012-.026.034-.034zm-.034.068h.023a.24.24 0 0 0 .011.092c-.007 0-.011.011-.011.034h-.023l-.046-.034c.03-.046.046-.076.046-.092zm.308.046c.023 0 .034.012.034.034v.012c0 .023-.011.034-.034.034-.015 0-.027-.011-.034-.034V8.09c0-.022.01-.034.034-.034zm.148 0h.023c0 .016.007.03.022.046-.015 0-.022.011-.022.034H6.27c-.03-.015-.045-.03-.045-.046 0-.022.011-.034.034-.034zm.16 0c.015 0 .022.012.022.034v.035h-.057V8.09c0-.022.012-.034.035-.034zm-.616.091h.023v.034h-.023zm-.47.305c.023 0 .034.011.034.034v.08c-.03.068-.053.102-.069.102V8.6l.023-.08c-.015 0-.023-.003-.023-.011 0-.038.012-.057.035-.057zm1.413 0h.057v.262c0 .069-.042.114-.125.137l.022.08h-.057c0-.008.008-.024.023-.046 0-.03-.012-.046-.034-.046H5.448c-.06 0-.068-.054-.091-.09h.022c0-.024-.01-.035-.034-.035v.023c-.01-.021-.046-.015-.046-.046V8.68l.103-.012v-.034h-.034v-.023c0-.022.03-.038.091-.045.046.03.068.053.068.068v.034l-.034-.023H5.46l-.023.023c0 .015.027.023.08.023v.035a.428.428 0 0 1-.137.022c0 .015.012.023.035.023h.022c.03 0 .065-.015.103-.045 0 .068.011.102.034.102h.98a.673.673 0 0 1 .068-.228l.046.034v-.023l-.034-.045H6.7c.038.03.057.053.057.068v.046c0 .022-.011.034-.034.034-.015 0-.023-.015-.023-.046h-.034v.012c.015.03.03.046.046.046L6.7 8.76h.023c.046-.016.068-.054.068-.115v-.01a.182.182 0 0 1-.045-.115zm.467.034h.045c.054.038.08.065.08.08v.068c0 .06-.041.103-.125.126-.046 0-.09-.031-.136-.092v-.057c0-.083.045-.125.136-.125zm-1.538.08v.068h.045V8.6h.034v.126c0 .022.008.034.023.034h.069c.022 0 .034-.012.034-.034h-.114c0-.008.004-.012.011-.012l-.011-.08H5.8v-.068zm.182 0c-.015 0-.023.011-.023.034 0 .023.008.034.023.034h.023V8.6h.034v.034h.045v-.068zm.137 0v.068h.045V8.6h.035v.034h.045v-.068zm.16 0v.068H6.2V8.6h.034v.034h.046v-.068H6.21l-.023.023c0-.016-.007-.023-.023-.023zm.159 0v.068h.045v-.023h.08v-.045zm-.718.16c0 .022.007.034.023.034h.068c.023 0 .034-.012.034-.034zm.319 0c0 .022.007.034.023.034h.068c.023 0 .034-.012.034-.034zm.16 0c0 .022.01.034.034.034h.056c.023 0 .035-.012.035-.034zm.16 0c0 .022.01.034.033.034h.057c.023 0 .034-.012.034-.034zm.158 0c0 .022.012.034.035.034h.057c.023 0 .034-.012.034-.034zm.228.022c0 .015.008.023.023.023h.023v-.023zm-1.185.103h.012l.011.08h-.045zm1.994.216h.023c.038.023.058.042.058.057v.035h-.035c0-.054-.019-.08-.057-.08.007-.001.004-.012.011-.012zm-.01.046h.01v.034c-.022 0-.034.015-.034.046l-.022-.012v.012l.056.068c-.053 0-.09-.026-.113-.08 0-.022.027-.018.034-.034h.023zm-3.876.308c.016.038.03.056.046.056-.015-.038-.03-.056-.046-.056zm4.114.205h.012c.09 0 .137.041.137.125v.034c-.03.06-.076.091-.137.091h-.012c-.068 0-.11-.034-.125-.102 0-.1.042-.148.125-.148zm-1.253.09c.023 0 .087.012.194.035v.023h-.012l-.102-.023h-.126c-.152 0-.364.118-.638.353h-.034v-.011h.011c.266-.25.502-.376.707-.376z" font-weight="400" font-size="23.339" font-family="Electric Guitar Icons" letter-spacing="0" word-spacing="0" fill="#1a1a1a"/></svg>