<?xml version="1.0" encoding="UTF-8" standalone="no"?>
<svg
   xmlns:dc="http://purl.org/dc/elements/1.1/"
   xmlns:cc="http://creativecommons.org/ns#"
   xmlns:rdf="http://www.w3.org/1999/02/22-rdf-syntax-ns#"
   xmlns:svg="http://www.w3.org/2000/svg"
   xmlns="http://www.w3.org/2000/svg"
   xmlns:xlink="http://www.w3.org/1999/xlink"
   xmlns:sodipodi="http://sodipodi.sourceforge.net/DTD/sodipodi-0.dtd"
   xmlns:inkscape="http://www.inkscape.org/namespaces/inkscape"
   viewBox="0 0 48 48"
   version="1.1"
   id="svg34"
   sodipodi:docname="image-png.svg"
   inkscape:version="0.92.4 (5da689c313, 2019-01-14)">
  <metadata
     id="metadata38">
    <rdf:RDF>
      <cc:Work
         rdf:about="">
        <dc:format>image/svg+xml</dc:format>
        <dc:type
           rdf:resource="http://purl.org/dc/dcmitype/StillImage" />
        <dc:title></dc:title>
      </cc:Work>
    </rdf:RDF>
  </metadata>
  <sodipodi:namedview
     pagecolor="#ffffff"
     bordercolor="#666666"
     borderopacity="1"
     objecttolerance="10"
     gridtolerance="10"
     guidetolerance="10"
     inkscape:pageopacity="0"
     inkscape:pageshadow="2"
     inkscape:window-width="1112"
     inkscape:window-height="480"
     id="namedview36"
     showgrid="false"
     inkscape:zoom="4.9166667"
     inkscape:cx="2.1355932"
     inkscape:cy="24"
     inkscape:window-x="0"
     inkscape:window-y="25"
     inkscape:window-maximized="0"
     inkscape:current-layer="svg34" />
  <defs
     id="defs16">
    <linearGradient
       xlink:href="#a"
       id="b"
       x1="9.71"
       y1="32"
       x2="28.58"
       y2=".86"
       gradientUnits="userSpaceOnUse" />
    <linearGradient
       id="a">
      <stop
         offset="0"
         stop-color="#2d5016"
         id="stop3" />
      <stop
         offset=".33"
         stop-color="#447821"
         id="stop5" />
      <stop
         offset=".5"
         stop-color="#64b131"
         id="stop7" />
      <stop
         offset=".63"
         stop-color="#57992a"
         id="stop9" />
      <stop
         offset=".76"
         stop-color="#71c837"
         id="stop11" />
      <stop
         offset="1"
         stop-color="#447821"
         id="stop13" />
    </linearGradient>
  </defs>
  <path
     d="M 40.89,17.42 33.06,47.97 H 14.94 L 7.11,17.42 13.01,0.03 H 35 Z"
     id="path18"
     style="fill:url(#b)"
     inkscape:connector-curvature="0" />
  <path
     d="m 18.28,43.82 -3.34,4.15 h 18.12 l -3.34,-4.15 z"
     id="path20"
     inkscape:connector-curvature="0"
     style="fill:#17280b;fill-opacity:0.1" />
  <path
     d="m 13.01,0.03 3.08,4.15 h 15.8 l 3.1,-4.15 z"
     id="path22"
     inkscape:connector-curvature="0"
     style="fill:#17280b;fill-opacity:0.35" />
  <path
     d="M 18.27,43.82 14.93,47.97 7.1,17.42 11.54,17.58 Z"
     id="path24"
     inkscape:connector-curvature="0"
     style="fill:#17280b;fill-opacity:0.47000002" />
  <path
     d="M 7.1,17.42 13,0.03 l 3.09,4.15 -4.55,13.4 z m 33.79,0 -5.9,-17.39 -3.09,4.15 4.55,13.4 z"
     id="path26"
     inkscape:connector-curvature="0"
     style="fill:#17280b;fill-opacity:0.70999995" />
  <path
     d="m 29.72,43.82 3.34,4.15 7.83,-30.55 -4.44,0.16 z"
     id="path28"
     inkscape:connector-curvature="0"
     style="fill:#17280b;fill-opacity:0.47000002" />
  <path
     d="m 18.4,18.92 6.45,-2.18 5.18,2.23 1.24,3.74 -5.03,1.97 -4.93,-0.75 -3,-2.24 -0.19,-1.35 z"
     id="path30"
     inkscape:connector-curvature="0"
     style="fill:#ffffff" />
  <path
     d="m 23,3.98 -0.01,0.06 a 6.32,6.32 0 0 0 -0.41,1.4 3.9,3.9 0 0 1 -0.12,0.82 c -0.07,0.23 -0.16,0.88 -0.19,1.4 a 7.94,7.94 0 0 1 -0.35,1.82 c -0.17,0.47 -0.26,0.92 -0.25,1 0.1,0.23 -1.02,0.99 -1.21,0.82 -0.18,-0.2 -0.32,-0.18 -0.32,0.05 0,0.18 -0.83,0.67 -1.17,0.67 -0.1,0 -0.18,0.05 -0.18,0.13 0,0.1 -0.14,0.1 -0.29,0.06 -0.22,-0.05 -0.36,0 -0.44,0.14 -0.11,0.2 -0.12,0.2 -0.34,-0.01 a 1.28,1.28 0 0 1 -0.34,-0.72 7.32,7.32 0 0 0 -0.3,-1.02 c -0.18,-0.4 -0.24,-0.43 -0.24,-0.2 0,0.17 0.07,0.61 0.18,0.95 0.32,0.99 0,1.68 -0.82,1.8 -0.36,0.05 -0.56,0 -1.13,-0.34 -0.79,-0.5 -1.08,-0.87 -1.26,-1.41 l -0.4,1.15 c 0.18,0.7 0.55,1.5 0.77,1.58 0.1,0.04 0.25,0.29 0.33,0.54 0.09,0.27 0.27,0.61 0.4,0.79 0.12,0.18 0.26,0.6 0.3,0.91 0.03,0.34 0.2,1 0.34,1.48 0.19,0.52 0.31,1.17 0.31,1.6 0,0.52 0.04,0.82 0.22,1.03 0.14,0.15 0.29,0.52 0.37,0.79 0.06,0.25 0.29,0.63 0.48,0.81 0.23,0.24 0.4,0.52 0.44,0.89 0.05,0.26 0.17,0.65 0.3,0.78 0.14,0.15 0.27,0.54 0.29,0.98 a 7,7 0 0 0 0.45,1.51 c 0.23,0.48 0.33,0.87 0.3,1.08 -0.06,0.26 0.02,0.39 0.32,0.64 0.52,0.45 0.65,0.4 0.57,-0.12 -0.12,-0.81 0.2,-1.05 0.56,-0.4 0.33,0.7 0.48,1.18 0.39,1.33 -0.02,0.07 0.06,0.5 0.2,0.96 0.13,0.46 0.29,1.26 0.3,1.8 0.11,1.64 0.4,3.82 0.66,5.14 0.08,0.34 0.2,1.1 0.27,1.7 0.1,1.23 0.32,1.6 0.84,1.49 a 1.3,1.3 0 0 0 0.92,-0.97 11.72,11.72 0 0 0 -0.23,-2.1 10.95,10.95 0 0 1 -0.25,-1.77 26.5,26.5 0 0 1 -0.56,-4.7 c 0,-1.27 0.4,-1.76 0.94,-1.16 0.5,0.58 0.61,1.33 0.78,5.12 0.22,5.55 0.26,5.94 0.43,6.57 0.17,0.5 0.18,0.68 0.05,0.9 a 11.72,11.72 0 0 0 -0.16,2.64 h 2.2 v -0.04 a 9.43,9.43 0 0 1 0.15,-3.39 c 0.08,-0.35 0.17,-1.47 0.2,-2.5 0.09,-2.56 0.18,-3.86 0.32,-4.6 0.08,-0.33 0.13,-1.08 0.17,-1.68 0.05,-1.1 0.31,-1.94 0.6,-1.94 0.11,0 0.21,0.15 0.23,0.33 a 13.25,13.25 0 0 1 -0.1,3.48 c -0.1,0.57 -0.23,2.17 -0.33,3.56 l -0.13,2.5 0.27,0.46 c 0.25,0.41 0.33,0.45 0.72,0.41 0.7,-0.04 0.92,-0.61 1.12,-2.73 0.51,-5.56 0.61,-6.55 0.82,-7.01 0.1,-0.24 0.15,-0.5 0.1,-0.6 -0.07,-0.2 0.23,-0.81 0.63,-1.29 0.15,-0.2 0.33,-0.5 0.37,-0.66 0.12,-0.55 0.5,-0.89 0.92,-0.82 0.27,0.06 0.32,0.03 0.4,-0.31 a 5.2,5.2 0 0 0 0.07,-0.7 3.06,3.06 0 0 1 0.32,-0.96 c 0.17,-0.36 0.27,-0.7 0.23,-0.78 a 0.89,0.89 0 0 1 0.13,-0.52 c 0.2,-0.43 0.45,-1.83 0.44,-2.61 0,-0.21 -0.19,-0.9 -0.38,-1.45 a 3.52,3.52 0 0 1 -0.3,-2 c 0.05,-0.52 0.14,-1.04 0.2,-1.12 0.17,-0.2 0,-0.35 -0.18,-0.17 -0.25,0.26 -0.44,0.15 -0.77,-0.48 -0.29,-0.54 -0.36,-0.61 -0.63,-0.53 a 0.7,0.7 0 0 1 -0.48,-0.07 c -0.1,-0.07 -0.23,-0.1 -0.29,-0.06 -0.06,0.04 -0.27,-0.18 -0.45,-0.45 a 9.38,9.38 0 0 0 -0.55,-0.78 2.86,2.86 0 0 1 -0.35,-0.77 c -0.1,-0.43 -0.26,-0.6 -0.8,-0.96 -0.36,-0.24 -0.67,-0.52 -0.67,-0.6 0,-0.2 -0.2,-0.23 -0.3,-0.05 -0.14,0.23 -0.32,0.13 -0.52,-0.3 l -0.17,-0.46 -0.2,0.4 c -0.18,0.35 -0.27,0.43 -0.56,0.4 -0.4,-0.02 -1.18,-0.7 -1.18,-0.98 a 1.05,1.05 0 0 0 -0.18,-0.44 2.6,2.6 0 0 1 -0.2,-1.07 C 25.63,9.59 25.54,9.21 25.45,9.13 25.25,8.96 24.99,6.85 25.03,5.4 V 3.98 Z m 1.96,14.88 h 0.02 a 0.65,0.39 13.95 0 1 0.3,0.04 0.65,0.39 13.95 0 1 0.53,0.53 0.65,0.39 13.95 0 1 -0.71,0.22 0.65,0.39 13.95 0 1 -0.51,-0.51 0.65,0.39 13.95 0 1 0.37,-0.27 z m 2.76,0.3 0.18,0.02 c 0.1,0.04 0.39,0.55 0.7,1.12 l 0.5,1.04 -0.36,0.34 c -0.37,0.33 -1.6,0.8 -1.74,0.68 -0.04,-0.04 0,-0.18 0.07,-0.29 0.38,-0.52 0.56,-1.12 0.62,-1.98 z M 22,19.5 v 0.02 c 0.08,0.02 0.08,0.15 0.08,0.36 0,0.22 0.1,0.71 0.24,1.07 0.3,0.78 0.3,0.97 0.07,1.04 a 6.4,6.4 0 0 1 -2.3,-0.92 c -0.2,-0.2 -0.2,-0.21 0.04,-0.53 a 3.1,3.1 0 0 1 1.4,-0.9 c 0.26,-0.1 0.4,-0.16 0.47,-0.14 z"
     id="path32"
     inkscape:connector-curvature="0"
     style="fill:#241f1c" />
</svg>
