<?xml version="1.0" encoding="UTF-8" standalone="no"?>
<svg
   xmlns:dc="http://purl.org/dc/elements/1.1/"
   xmlns:cc="http://creativecommons.org/ns#"
   xmlns:rdf="http://www.w3.org/1999/02/22-rdf-syntax-ns#"
   xmlns:svg="http://www.w3.org/2000/svg"
   xmlns="http://www.w3.org/2000/svg"
   xmlns:xlink="http://www.w3.org/1999/xlink"
   xmlns:sodipodi="http://sodipodi.sourceforge.net/DTD/sodipodi-0.dtd"
   xmlns:inkscape="http://www.inkscape.org/namespaces/inkscape"
   width="48"
   height="48"
   version="1"
   id="svg54"
   sodipodi:docname="image-tiff.svg"
   inkscape:version="0.92.4 (5da689c313, 2019-01-14)">
  <metadata
     id="metadata58">
    <rdf:RDF>
      <cc:Work
         rdf:about="">
        <dc:format>image/svg+xml</dc:format>
        <dc:type
           rdf:resource="http://purl.org/dc/dcmitype/StillImage" />
        <dc:title></dc:title>
      </cc:Work>
    </rdf:RDF>
  </metadata>
  <sodipodi:namedview
     pagecolor="#ffffff"
     bordercolor="#666666"
     borderopacity="1"
     objecttolerance="10"
     gridtolerance="10"
     guidetolerance="10"
     inkscape:pageopacity="0"
     inkscape:pageshadow="2"
     inkscape:window-width="1112"
     inkscape:window-height="480"
     id="namedview56"
     showgrid="false"
     inkscape:zoom="4.9166667"
     inkscape:cx="2.1355932"
     inkscape:cy="24"
     inkscape:window-x="0"
     inkscape:window-y="25"
     inkscape:window-maximized="0"
     inkscape:current-layer="svg54" />
  <defs
     id="defs34">
    <linearGradient
       id="c">
      <stop
         offset="0"
         stop-color="#2c5aa0"
         id="stop2" />
      <stop
         offset=".2"
         stop-color="#3771c8"
         id="stop4" />
      <stop
         offset=".33"
         stop-color="#2c5aa0"
         id="stop6" />
      <stop
         offset=".44"
         stop-color="#3771c8"
         id="stop8" />
      <stop
         offset=".57"
         stop-color="#3771c8"
         id="stop10" />
      <stop
         offset=".76"
         stop-color="#5f8dd3"
         id="stop12" />
      <stop
         offset="1"
         stop-color="#3771c8"
         id="stop14" />
    </linearGradient>
    <linearGradient
       id="b">
      <stop
         offset="0"
         stop-color="#2c5aa0"
         id="stop17" />
      <stop
         offset=".2"
         stop-color="#3771c8"
         id="stop19" />
      <stop
         offset=".33"
         stop-color="#2c5aa0"
         id="stop21" />
      <stop
         offset=".44"
         stop-color="#3771c8"
         id="stop23" />
      <stop
         offset=".57"
         stop-color="#3771c8"
         id="stop25" />
      <stop
         offset=".76"
         stop-color="#5f8dd3"
         id="stop27" />
      <stop
         offset="1"
         stop-color="#2c5aa0"
         stop-opacity="0"
         id="stop29" />
    </linearGradient>
    <linearGradient
       xlink:href="#b"
       id="a"
       gradientUnits="userSpaceOnUse"
       gradientTransform="translate(-40)"
       x1="8.14"
       y1="13.51"
       x2="36.28"
       y2="35.97" />
    <linearGradient
       xlink:href="#c"
       id="d"
       x1="7.11"
       y1="24"
       x2="35.45"
       y2="40.15"
       gradientUnits="userSpaceOnUse" />
  </defs>
  <path
     d="M 40.89,17.42 33.06,47.97 H 14.94 L 7.11,17.42 13.01,0.03 H 35 Z"
     id="path36"
     style="fill:url(#d)"
     inkscape:connector-curvature="0" />
  <path
     d="m 18.28,43.82 -3.34,4.15 h 18.12 l -3.34,-4.15 z"
     id="path38"
     inkscape:connector-curvature="0"
     style="fill:#162d50;fill-opacity:0.1" />
  <path
     d="m 29.72,43.82 3.34,4.15 7.83,-30.55 -4.44,0.16 z"
     id="path40"
     inkscape:connector-curvature="0"
     style="fill:#162d50;fill-opacity:0.47000002" />
  <path
     d="m 13.01,0.03 3.08,4.15 h 15.8 l 3.1,-4.15 z"
     id="path42"
     inkscape:connector-curvature="0"
     style="fill:#162d50;fill-opacity:0.35" />
  <path
     d="M 40.89,17.42 34.99,0.03 31.9,4.18 36.45,17.58 Z"
     id="path44"
     inkscape:connector-curvature="0"
     style="fill:#162d50;fill-opacity:0.70999995" />
  <path
     d="m 18.28,43.82 -3.34,4.15 -7.83,-30.55 4.44,0.16 z"
     id="path46"
     inkscape:connector-curvature="0"
     style="fill:#162d50;fill-opacity:0.47000002" />
  <path
     d="m 7.11,17.42 5.9,-17.39 3.09,4.15 -4.55,13.4 z"
     id="path48"
     inkscape:connector-curvature="0"
     style="fill:#162d50;fill-opacity:0.70999995" />
  <path
     d="m 18.4,18.74 6.45,-2.18 5.18,2.23 1.24,3.74 -5.03,1.97 -4.93,-0.75 -3,-2.24 -0.19,-1.35 z"
     id="path50"
     inkscape:connector-curvature="0"
     style="fill:#ffffff" />
  <path
     d="m 23,3.8 -0.01,0.06 a 6.32,6.32 0 0 0 -0.41,1.4 3.9,3.9 0 0 1 -0.12,0.82 C 22.39,6.31 22.3,6.96 22.27,7.48 A 7.94,7.94 0 0 1 21.92,9.3 c -0.17,0.47 -0.26,0.92 -0.25,1 0.1,0.23 -1.02,0.99 -1.21,0.81 -0.18,-0.19 -0.32,-0.17 -0.32,0.06 0,0.18 -0.83,0.67 -1.17,0.67 -0.1,0 -0.18,0.05 -0.18,0.13 0,0.1 -0.14,0.1 -0.29,0.06 -0.22,-0.05 -0.36,0 -0.44,0.13 -0.11,0.2 -0.12,0.2 -0.34,0 a 1.28,1.28 0 0 1 -0.34,-0.72 7.32,7.32 0 0 0 -0.3,-1.02 c -0.18,-0.4 -0.24,-0.43 -0.24,-0.2 0,0.17 0.07,0.6 0.18,0.95 0.32,0.98 0,1.68 -0.82,1.8 -0.36,0.05 -0.56,0 -1.13,-0.34 -0.79,-0.5 -1.08,-0.87 -1.26,-1.41 l -0.4,1.15 c 0.18,0.7 0.55,1.5 0.77,1.58 0.1,0.04 0.25,0.28 0.33,0.54 0.09,0.26 0.27,0.61 0.4,0.78 0.12,0.19 0.26,0.6 0.3,0.92 0.03,0.34 0.2,0.99 0.34,1.48 0.19,0.52 0.31,1.17 0.31,1.6 0,0.52 0.04,0.82 0.22,1.03 0.14,0.15 0.29,0.52 0.37,0.78 0.06,0.26 0.29,0.64 0.48,0.82 0.23,0.23 0.4,0.52 0.44,0.89 0.05,0.26 0.17,0.65 0.3,0.78 0.14,0.14 0.27,0.54 0.29,0.98 a 7,7 0 0 0 0.45,1.5 c 0.23,0.49 0.33,0.88 0.3,1.09 -0.06,0.25 0.02,0.39 0.32,0.64 0.52,0.45 0.65,0.4 0.57,-0.12 -0.12,-0.82 0.2,-1.05 0.56,-0.4 0.33,0.7 0.48,1.17 0.39,1.33 -0.02,0.07 0.06,0.5 0.2,0.96 0.13,0.45 0.29,1.26 0.3,1.8 0.11,1.64 0.4,3.82 0.66,5.14 0.08,0.33 0.2,1.1 0.27,1.69 0.1,1.23 0.32,1.61 0.84,1.5 a 1.3,1.3 0 0 0 0.92,-0.97 11.72,11.72 0 0 0 -0.23,-2.1 10.95,10.95 0 0 1 -0.25,-1.77 26.5,26.5 0 0 1 -0.56,-4.7 c 0,-1.27 0.4,-1.76 0.94,-1.17 0.5,0.59 0.61,1.34 0.78,5.13 0.22,5.55 0.26,5.94 0.43,6.57 0.17,0.5 0.18,0.68 0.05,0.9 a 11.72,11.72 0 0 0 -0.16,2.63 h 2.2 v -0.04 a 9.43,9.43 0 0 1 0.15,-3.38 c 0.08,-0.35 0.17,-1.47 0.2,-2.5 0.09,-2.56 0.18,-3.86 0.32,-4.6 0.08,-0.33 0.13,-1.09 0.17,-1.68 0.05,-1.1 0.31,-1.94 0.6,-1.94 0.11,0 0.21,0.15 0.23,0.33 a 13.25,13.25 0 0 1 -0.1,3.48 c -0.1,0.57 -0.23,2.17 -0.33,3.56 l -0.13,2.5 0.27,0.46 c 0.25,0.41 0.33,0.45 0.72,0.41 0.7,-0.04 0.92,-0.61 1.12,-2.73 0.51,-5.56 0.61,-6.55 0.82,-7.02 0.1,-0.23 0.15,-0.5 0.1,-0.6 -0.07,-0.2 0.23,-0.8 0.63,-1.28 0.15,-0.2 0.33,-0.5 0.37,-0.66 0.12,-0.55 0.5,-0.9 0.92,-0.82 0.27,0.06 0.32,0.03 0.4,-0.32 a 5.2,5.2 0 0 0 0.07,-0.69 3.06,3.06 0 0 1 0.32,-0.96 c 0.17,-0.36 0.27,-0.71 0.23,-0.78 a 0.89,0.89 0 0 1 0.13,-0.52 c 0.2,-0.43 0.45,-1.83 0.44,-2.61 0,-0.22 -0.19,-0.9 -0.38,-1.45 a 3.52,3.52 0 0 1 -0.3,-2 c 0.05,-0.52 0.14,-1.04 0.2,-1.12 0.17,-0.2 0,-0.36 -0.18,-0.17 -0.25,0.26 -0.44,0.15 -0.77,-0.48 -0.29,-0.54 -0.36,-0.61 -0.63,-0.53 a 0.7,0.7 0 0 1 -0.48,-0.07 c -0.1,-0.07 -0.23,-0.1 -0.29,-0.06 -0.06,0.04 -0.27,-0.18 -0.45,-0.45 A 9.38,9.38 0 0 0 30.76,14.7 2.86,2.86 0 0 1 30.41,13.93 c -0.1,-0.43 -0.26,-0.6 -0.8,-0.96 -0.36,-0.24 -0.67,-0.52 -0.67,-0.6 0,-0.2 -0.2,-0.24 -0.3,-0.05 -0.14,0.23 -0.32,0.13 -0.52,-0.3 l -0.17,-0.46 -0.2,0.39 c -0.18,0.36 -0.27,0.44 -0.56,0.4 -0.4,-0.01 -1.18,-0.7 -1.18,-0.97 A 1.05,1.05 0 0 0 25.83,10.94 2.6,2.6 0 0 1 25.63,9.87 C 25.63,9.41 25.54,9.02 25.45,8.95 25.25,8.78 24.99,6.67 25.03,5.22 V 3.8 Z m 1.96,14.88 h 0.02 a 0.65,0.39 13.95 0 1 0.3,0.04 0.65,0.39 13.95 0 1 0.53,0.53 0.65,0.39 13.95 0 1 -0.71,0.21 0.65,0.39 13.95 0 1 -0.51,-0.5 0.65,0.39 13.95 0 1 0.37,-0.27 z m 2.76,0.3 0.18,0.01 c 0.1,0.05 0.39,0.56 0.7,1.13 l 0.5,1.04 -0.36,0.34 c -0.37,0.33 -1.6,0.8 -1.74,0.68 -0.04,-0.05 0,-0.18 0.07,-0.29 0.38,-0.52 0.56,-1.12 0.62,-1.98 z m -5.71,0.34 v 0.02 c 0.08,0.02 0.08,0.14 0.08,0.36 0,0.22 0.1,0.71 0.24,1.07 0.3,0.78 0.3,0.97 0.07,1.04 a 6.4,6.4 0 0 1 -2.3,-0.92 c -0.2,-0.2 -0.2,-0.21 0.04,-0.53 a 3.1,3.1 0 0 1 1.4,-0.9 c 0.26,-0.1 0.4,-0.16 0.47,-0.14 z"
     id="path52"
     inkscape:connector-curvature="0"
     style="fill:#241f1c" />
</svg>
