<?xml version="1.0" encoding="UTF-8" standalone="no"?>
<svg
   xmlns:dc="http://purl.org/dc/elements/1.1/"
   xmlns:cc="http://creativecommons.org/ns#"
   xmlns:rdf="http://www.w3.org/1999/02/22-rdf-syntax-ns#"
   xmlns:svg="http://www.w3.org/2000/svg"
   xmlns="http://www.w3.org/2000/svg"
   xmlns:sodipodi="http://sodipodi.sourceforge.net/DTD/sodipodi-0.dtd"
   xmlns:inkscape="http://www.inkscape.org/namespaces/inkscape"
   width="48"
   height="48"
   version="1"
   id="svg44"
   sodipodi:docname="image-svg+xml-compressed.svg"
   inkscape:version="0.92.4 (5da689c313, 2019-01-14)">
  <metadata
     id="metadata48">
    <rdf:RDF>
      <cc:Work
         rdf:about="">
        <dc:format>image/svg+xml</dc:format>
        <dc:type
           rdf:resource="http://purl.org/dc/dcmitype/StillImage" />
        <dc:title></dc:title>
      </cc:Work>
    </rdf:RDF>
  </metadata>
  <sodipodi:namedview
     pagecolor="#ffffff"
     bordercolor="#666666"
     borderopacity="1"
     objecttolerance="10"
     gridtolerance="10"
     guidetolerance="10"
     inkscape:pageopacity="0"
     inkscape:pageshadow="2"
     inkscape:window-width="1136"
     inkscape:window-height="480"
     id="namedview46"
     showgrid="false"
     inkscape:zoom="4.9166667"
     inkscape:cx="2.1355932"
     inkscape:cy="24"
     inkscape:window-x="0"
     inkscape:window-y="25"
     inkscape:window-maximized="0"
     inkscape:current-layer="svg44" />
  <defs
     id="defs22">
    <linearGradient
       id="f"
       x1="10.69"
       x2="38.65"
       y1="24.94"
       y2="36.74"
       gradientTransform="translate(-0.07,0.35)"
       gradientUnits="userSpaceOnUse">
      <stop
         offset="0"
         id="stop2" />
      <stop
         stop-opacity="0"
         offset="1"
         id="stop4" />
    </linearGradient>
    <linearGradient
       id="c-3"
       x1="41.6"
       x2="4.38"
       y1="48.68"
       y2="3.22"
       gradientUnits="userSpaceOnUse">
      <stop
         stop-color="#2c89a0"
         offset="0"
         id="stop7" />
      <stop
         stop-color="#164450"
         offset=".2"
         id="stop9" />
      <stop
         stop-color="#37abc8"
         offset=".33"
         id="stop11" />
      <stop
         stop-color="#5fbcd3"
         offset=".44"
         id="stop13" />
      <stop
         stop-color="#87cdde"
         offset=".57"
         id="stop15" />
      <stop
         stop-color="#2c89a0"
         offset=".76"
         id="stop17" />
      <stop
         stop-color="#37abc8"
         offset="1"
         id="stop19" />
    </linearGradient>
  </defs>
  <path
     d="M 40.89,17.42 33.06,47.97 H 14.94 L 7.11,17.42 13.01,0.03 H 35 Z"
     id="path24"
     style="fill:url(#c-3)"
     inkscape:connector-curvature="0" />
  <g
     id="g32"
     style="fill:#216778">
    <path
       d="m 18.28,43.82 -3.34,4.15 h 18.12 l -3.34,-4.15 z"
       id="path26"
       inkscape:connector-curvature="0"
       style="fill-opacity:0.1" />
    <path
       d="m 29.72,43.82 3.34,4.15 7.83,-30.55 -4.44,0.16 z"
       id="path28"
       inkscape:connector-curvature="0"
       style="fill-opacity:0.47000002" />
    <path
       d="m 13.01,0.03 3.08,4.15 h 15.8 l 3.1,-4.15 z"
       id="path30"
       inkscape:connector-curvature="0"
       style="fill-opacity:0.35" />
  </g>
  <path
     d="M 40.89,17.42 34.99,0.03 31.9,4.18 36.45,17.58 Z"
     id="path34"
     inkscape:connector-curvature="0"
     style="fill:#164450;fill-opacity:0.70999995" />
  <path
     d="m 18.28,43.82 -3.34,4.15 -7.83,-30.55 4.44,0.16 z"
     id="path36"
     inkscape:connector-curvature="0"
     style="fill:#216778;fill-opacity:0.47000002" />
  <path
     d="m 7.11,17.42 5.9,-17.39 3.09,4.15 -4.55,13.4 z"
     id="path38"
     inkscape:connector-curvature="0"
     style="fill:#164450;fill-opacity:0.70999995" />
  <path
     d="m 16.48,31.33 4.67,-1.8 -1.25,-2.13 0.67,-6.24 1.44,-0.88 -1.7,-2.55 -0.52,-2.5 0.07,-2.42 2.08,-1.27 9,9 2.49,-2.85 1.51,-1.07 1.51,0.96 -6.73,26.24 z"
     id="path40"
     style="opacity:0.34000011;fill:url(#f)"
     inkscape:connector-curvature="0" />
  <path
     d="m 34.94,16.62 a 0.4,0.4 0 0 1 0,0.31 l -0.66,1.74 a 0.4,0.4 0 0 1 -0.52,0.23 l -0.55,-0.22 a 8.3,8.3 0 0 1 -2.78,2.68 7.67,7.67 0 0 1 -3.32,1.05 l 0.45,1.25 a 0.4,0.4 0 0 1 -0.06,0.37 l -0.8,1.1 a 0.40106109,0.40106109 0 0 1 -0.65,-0.47 l 0.67,-0.93 -1.4,-3.95 -1.18,3.1 a 1.47,1.47 0 0 1 0.48,1.7 1.47,1.47 0 0 1 -2.74,-1.06 1.47,1.47 0 0 1 1.5,-0.93 l 1.2,-3.1 -3.69,2 -0.6,5.4 3.25,1.24 0.62,-0.85 a 0.40106109,0.40106109 0 0 1 0.65,0.47 l -0.76,1.07 -0.72,1.86 0.74,0.28 a 0.4,0.4 0 0 1 0.23,0.52 l -0.87,2.29 A 0.4,0.4 0 0 1 22.9,34 L 16.83,31.66 A 0.4,0.4 0 0 1 16.6,31.14 l 0.88,-2.28 A 0.4,0.4 0 0 1 18,28.62 l 0.75,0.3 0.71,-1.87 0.65,-5.87 a 0.4,0.4 0 0 1 0.21,-0.3 l 1.17,-0.64 a 7.82,7.82 0 0 1 -1.75,-3 8.27,8.27 0 0 1 -0.27,-3.85 l -0.56,-0.21 a 0.4,0.4 0 0 1 -0.23,-0.52 l 0.67,-1.74 a 0.4,0.4 0 0 1 0.52,-0.23 l 1.73,0.67 a 0.4,0.4 0 0 1 0.24,0.52 l -0.67,1.73 a 0.4,0.4 0 0 1 -0.52,0.24 l -0.41,-0.16 a 7.32,7.32 0 0 0 2,6.15 l 2.91,-1.58 h 0.01 l 0.03,-0.01 0.01,-0.01 h 0.03 l 0.01,-0.01 h 0.03 l 0.01,-0.01 a 0.4,0.4 0 0 1 0.03,0 h 0.13 a 0.42,0.42 0 0 1 0.05,0.02 l 0.04,0.02 a 0.41,0.41 0 0 1 0.04,0.02 0.38,0.38 0 0 1 0.03,0.02 v 0.01 l 0.03,0.02 v 0.01 a 0.7,0.7 0 0 1 0.03,0.02 v 0.01 l 0.02,0.03 0.02,0.03 v 0.02 l 0.02,0.02 v 0.01 l 1.11,3.14 a 7.14,7.14 0 0 0 5.6,-3.23 l -0.4,-0.16 A 0.4,0.4 0 0 1 31.8,17.71 l 0.66,-1.74 a 0.4,0.4 0 0 1 0.52,-0.23 l 1.74,0.67 a 0.4,0.4 0 0 1 0.22,0.21 z"
     font-weight="400"
     overflow="visible"
     style="color:#000000;font-weight:400;text-indent:0;text-decoration:none;text-decoration-line:none;text-transform:none;overflow:visible;fill:#ececec"
     id="path42"
     inkscape:connector-curvature="0" />
</svg>
