<?xml version="1.0" encoding="UTF-8" standalone="no"?>
<svg
   xmlns:dc="http://purl.org/dc/elements/1.1/"
   xmlns:cc="http://creativecommons.org/ns#"
   xmlns:rdf="http://www.w3.org/1999/02/22-rdf-syntax-ns#"
   xmlns:svg="http://www.w3.org/2000/svg"
   xmlns="http://www.w3.org/2000/svg"
   xmlns:xlink="http://www.w3.org/1999/xlink"
   xmlns:sodipodi="http://sodipodi.sourceforge.net/DTD/sodipodi-0.dtd"
   xmlns:inkscape="http://www.inkscape.org/namespaces/inkscape"
   width="48"
   height="48"
   version="1"
   id="svg60"
   sodipodi:docname="libreoffice-oasis-presentation-template.svg"
   inkscape:version="0.92.4 (5da689c313, 2019-01-14)">
  <metadata
     id="metadata64">
    <rdf:RDF>
      <cc:Work
         rdf:about="">
        <dc:format>image/svg+xml</dc:format>
        <dc:type
           rdf:resource="http://purl.org/dc/dcmitype/StillImage" />
        <dc:title></dc:title>
      </cc:Work>
    </rdf:RDF>
  </metadata>
  <sodipodi:namedview
     pagecolor="#ffffff"
     bordercolor="#666666"
     borderopacity="1"
     objecttolerance="10"
     gridtolerance="10"
     guidetolerance="10"
     inkscape:pageopacity="0"
     inkscape:pageshadow="2"
     inkscape:window-width="1112"
     inkscape:window-height="480"
     id="namedview62"
     showgrid="false"
     inkscape:zoom="4.9166667"
     inkscape:cx="2.1355932"
     inkscape:cy="24"
     inkscape:window-x="0"
     inkscape:window-y="25"
     inkscape:window-maximized="0"
     inkscape:current-layer="svg60" />
  <defs
     id="defs38">
    <linearGradient
       id="b">
      <stop
         offset="0"
         id="stop2" />
      <stop
         offset="1"
         stop-opacity="0"
         id="stop4" />
    </linearGradient>
    <linearGradient
       id="a">
      <stop
         offset="0"
         stop-color="#2c5aa0"
         id="stop7" />
      <stop
         offset=".2"
         stop-color="#3771c8"
         id="stop9" />
      <stop
         offset=".33"
         stop-color="#2c5aa0"
         id="stop11" />
      <stop
         offset=".44"
         stop-color="#3771c8"
         id="stop13" />
      <stop
         offset=".57"
         stop-color="#3771c8"
         id="stop15" />
      <stop
         offset=".76"
         stop-color="#5f8dd3"
         id="stop17" />
      <stop
         offset="1"
         stop-color="#2c5aa0"
         stop-opacity="0"
         id="stop19" />
    </linearGradient>
    <linearGradient
       xlink:href="#a"
       id="d"
       gradientUnits="userSpaceOnUse"
       gradientTransform="translate(-40)"
       x1="8.14"
       y1="13.51"
       x2="36.28"
       y2="35.97" />
    <linearGradient
       xlink:href="#b"
       id="f"
       gradientUnits="userSpaceOnUse"
       x1="7.42"
       y1="11.35"
       x2="38.27"
       y2="28.83" />
    <linearGradient
       xlink:href="#c"
       id="e"
       x1="14.94"
       y1="47.97"
       x2="34.08"
       y2="1"
       gradientUnits="userSpaceOnUse"
       gradientTransform="translate(0,-0.05)" />
    <linearGradient
       id="c">
      <stop
         stop-color="#ccc"
         offset="0"
         id="stop25" />
      <stop
         stop-color="#e6e6e6"
         offset=".17"
         id="stop27" />
      <stop
         stop-color="#999"
         offset=".43"
         id="stop29" />
      <stop
         stop-color="#999"
         offset=".51"
         id="stop31" />
      <stop
         stop-color="gray"
         offset=".74"
         id="stop33" />
      <stop
         stop-color="#e6e6e6"
         offset="1"
         id="stop35" />
    </linearGradient>
  </defs>
  <path
     d="M 40.89,17.37 33.06,47.92 H 14.94 L 7.11,17.37 13.01,-0.02 H 35 Z"
     id="path40"
     style="fill:url(#e)"
     inkscape:connector-curvature="0" />
  <path
     d="m 18.28,43.77 -3.34,4.15 h 18.12 l -3.34,-4.15 z"
     id="path42"
     inkscape:connector-curvature="0"
     style="fill:#1a1a1a;fill-opacity:0.1" />
  <path
     d="m 29.72,43.77 3.34,4.15 7.83,-30.55 -4.44,0.16 z"
     id="path44"
     inkscape:connector-curvature="0"
     style="fill:#1a1a1a;fill-opacity:0.47000002" />
  <path
     d="m 13.01,-0.02 3.08,4.15 h 15.8 l 3.1,-4.15 z"
     id="path46"
     inkscape:connector-curvature="0"
     style="fill:#1a1a1a;fill-opacity:0.35" />
  <path
     d="m 40.89,17.37 -5.9,-17.39 -3.09,4.15 4.55,13.4 z"
     id="path48"
     inkscape:connector-curvature="0"
     style="fill:#1a1a1a;fill-opacity:0.70999995" />
  <path
     d="m 18.28,43.77 -3.34,4.15 -7.83,-30.55 4.44,0.16 z"
     id="path50"
     inkscape:connector-curvature="0"
     style="fill:#1a1a1a;fill-opacity:0.47000002" />
  <path
     d="m 7.11,17.37 5.9,-17.39 3.09,4.15 -4.55,13.4 z"
     id="path52"
     inkscape:connector-curvature="0"
     style="fill:#1a1a1a;fill-opacity:0.70999995" />
  <path
     d="m 18.28,43.82 -3.34,4.15 h 18.12 l -3.34,-4.15 z"
     id="path54"
     inkscape:connector-curvature="0"
     style="fill:#28170b;fill-opacity:0.1" />
  <path
     d="m 30.56,40.5 5.88,-22.92 -1.02,-3 L 33,12.16 15.3,12.48 15,24.94 Z"
     id="path56"
     style="opacity:0.47000002;fill:url(#f)"
     inkscape:connector-curvature="0" />
  <path
     d="m 23.13,24.94 v 0.6 l -3.48,2.3 h 1.7 l 2.57,-2.03 h 0.15 l 2.54,2.03 h 1.74 L 24.87,25.52 V 24.94 Z M 15,12.16 V 24.94 H 33 V 12.16 Z m 0.87,0.58 h 16.26 a 0.3,0.3 0 0 1 0.29,0.3 v 11.02 a 0.3,0.3 0 0 1 -0.3,0.3 H 15.88 a 0.29,0.29 0 0 1 -0.29,-0.3 V 13.03 a 0.3,0.3 0 0 1 0.3,-0.29 z m 0.58,0.87 v 1.16 h 15.1 v -1.16 z m 2.9,2.03 v 1.17 h 9.3 v -1.17 z m -0.87,2.33 v 1.16 h 4.36 v -1.16 z m 5.52,0 v 5.22 h 7.55 v -5.22 z m -6.97,0 a 0.58,0.58 0 1 0 0,1.16 0.58,0.58 0 0 0 0,-1.16 z m 7.55,0.58 h 6.39 v 4.06 h -6.39 z m 0.3,0.58 v 0.29 h 5.8 v -0.3 z M 18.48,20 v 1.16 h 4.36 V 20 Z m 6.4,0 v 0.29 h 5.8 V 20 Z m -7.85,0 a 0.58,0.58 0 1 0 0,1.16 0.58,0.58 0 0 0 0,-1.16 z m 7.84,0.87 v 0.3 h 5.8 v -0.3 z m 0,0.87 v 0.3 h 5.8 v -0.3 z m -6.39,0.3 v 1.15 h 4.36 v -1.16 z m -1.45,0 a 0.58,0.58 0 1 0 0,1.15 0.58,0.58 0 0 0 0,-1.16 z"
     id="path58"
     inkscape:connector-curvature="0"
     style="fill:#ffffff" />
</svg>
