<?xml version="1.0" encoding="UTF-8" standalone="no"?>
<svg
   xmlns:dc="http://purl.org/dc/elements/1.1/"
   xmlns:cc="http://creativecommons.org/ns#"
   xmlns:rdf="http://www.w3.org/1999/02/22-rdf-syntax-ns#"
   xmlns:svg="http://www.w3.org/2000/svg"
   xmlns="http://www.w3.org/2000/svg"
   xmlns:xlink="http://www.w3.org/1999/xlink"
   xmlns:sodipodi="http://sodipodi.sourceforge.net/DTD/sodipodi-0.dtd"
   xmlns:inkscape="http://www.inkscape.org/namespaces/inkscape"
   viewBox="0 0 48 48"
   version="1.1"
   id="svg45"
   sodipodi:docname="libreoffice-oasis-database.svg"
   inkscape:version="0.92.4 (5da689c313, 2019-01-14)">
  <metadata
     id="metadata49">
    <rdf:RDF>
      <cc:Work
         rdf:about="">
        <dc:format>image/svg+xml</dc:format>
        <dc:type
           rdf:resource="http://purl.org/dc/dcmitype/StillImage" />
        <dc:title></dc:title>
      </cc:Work>
    </rdf:RDF>
  </metadata>
  <sodipodi:namedview
     pagecolor="#ffffff"
     bordercolor="#666666"
     borderopacity="1"
     objecttolerance="10"
     gridtolerance="10"
     guidetolerance="10"
     inkscape:pageopacity="0"
     inkscape:pageshadow="2"
     inkscape:window-width="1112"
     inkscape:window-height="480"
     id="namedview47"
     showgrid="false"
     inkscape:zoom="4.9166667"
     inkscape:cx="2.1355932"
     inkscape:cy="24"
     inkscape:window-x="0"
     inkscape:window-y="25"
     inkscape:window-maximized="0"
     inkscape:current-layer="svg45" />
  <defs
     id="defs25">
    <linearGradient
       id="a">
      <stop
         offset="0"
         id="stop2" />
      <stop
         offset="1"
         stop-opacity="0"
         id="stop4" />
    </linearGradient>
    <linearGradient
       xlink:href="#a"
       id="c"
       x1="8.53"
       y1="11.04"
       x2="42.93"
       y2="31.46"
       gradientUnits="userSpaceOnUse" />
    <linearGradient
       xlink:href="#b"
       id="d"
       x1="34.99"
       y1=".03"
       x2="14.94"
       y2="47.97"
       gradientUnits="userSpaceOnUse"
       gradientTransform="translate(0,-0.05)" />
    <linearGradient
       id="b">
      <stop
         offset="0"
         stop-color="#ac939d"
         id="stop9" />
      <stop
         offset=".2"
         stop-color="#c8b7be"
         id="stop11" />
      <stop
         offset=".33"
         stop-color="#a78b96"
         id="stop13" />
      <stop
         offset=".44"
         stop-color="#beaab2"
         id="stop15" />
      <stop
         offset=".57"
         stop-color="#ac939d"
         id="stop17" />
      <stop
         offset=".76"
         stop-color="#916f7c"
         id="stop19" />
      <stop
         offset="1"
         stop-color="#c8b7be"
         id="stop21" />
    </linearGradient>
    <linearGradient
       xlink:href="#a"
       id="e"
       gradientUnits="userSpaceOnUse"
       x1="8.53"
       y1="11.04"
       x2="42.93"
       y2="31.46" />
  </defs>
  <path
     d="M 40.89,17.37 33.06,47.92 H 14.94 L 7.11,17.37 13.01,-0.02 H 35 Z"
     id="path27"
     style="fill:url(#d)"
     inkscape:connector-curvature="0" />
  <path
     d="m 18.28,43.77 -3.34,4.15 h 18.12 l -3.34,-4.15 z"
     id="path29"
     inkscape:connector-curvature="0"
     style="fill:#241c1f;fill-opacity:0.1" />
  <path
     d="m 29.72,43.77 3.34,4.15 7.83,-30.55 -4.44,0.16 z"
     id="path31"
     inkscape:connector-curvature="0"
     style="fill:#241c1f;fill-opacity:0.47000002" />
  <path
     d="m 13.01,-0.02 3.08,4.15 h 15.8 l 3.1,-4.15 z"
     id="path33"
     inkscape:connector-curvature="0"
     style="fill:#241c1f;fill-opacity:0.35" />
  <path
     d="m 40.89,17.37 -5.9,-17.39 -3.09,4.15 4.55,13.4 z"
     id="path35"
     inkscape:connector-curvature="0"
     style="fill:#241c1f;fill-opacity:0.70999995" />
  <path
     d="m 18.28,43.77 -3.34,4.15 -7.83,-30.55 4.44,0.16 z"
     id="path37"
     inkscape:connector-curvature="0"
     style="fill:#241c1f;fill-opacity:0.47000002" />
  <path
     d="m 7.11,17.37 5.9,-17.39 3.09,4.15 -4.55,13.4 z"
     id="path39"
     inkscape:connector-curvature="0"
     style="fill:#241c1f;fill-opacity:0.70999995" />
  <path
     d="m 35.96,16.17 -3.2,-3.28 -1.7,-0.76 -4.14,-0.48 -4.72,-0.22 -5.26,0.76 -1.57,1.1 -0.22,13.75 15.02,15.01 6.28,-24.47 h -0.01 z"
     id="path41"
     style="opacity:0.56000001;fill:url(#e)"
     inkscape:connector-curvature="0" />
  <path
     d="m 24,11.01 a 9,2.47 0 0 0 -9,2.48 v 13.05 a 9,2.47 0 0 0 9,2.48 9,2.47 0 0 0 9,-2.48 V 13.46 a 9,2.47 0 0 0 -9,-2.48 m 0,0.84 A 8.2,1.64 0 0 1 32.2,13.46 8.2,1.64 0 0 1 24,15.1 8.2,1.64 0 0 1 15.8,13.46 8.2,1.64 0 0 1 24,11.82 m -8.2,2.66 a 9,2.47 0 0 0 8.2,1.42 9,2.47 0 0 0 8.2,-1.42 v 3.1 a 8.2,1.64 0 0 1 -8.2,1.6 8.2,1.64 0 0 1 -8.2,-1.64 z m 0,4.08 a 9,2.47 0 0 0 8.2,1.46 9,2.47 0 0 0 8.2,-1.46 v 3.9 A 8.2,1.64 0 0 1 24,24.1 8.2,1.64 0 0 1 15.8,22.46 Z m 0,4.92 a 9,2.47 0 0 0 8.2,1.45 9,2.47 0 0 0 8.2,-1.45 v 3.1 a 8.2,1.64 0 0 1 -8.2,1.6 8.2,1.64 0 0 1 -8.2,-1.64 v -0.77 z"
     id="path43"
     inkscape:connector-curvature="0"
     style="color:#4d4d4d;fill:#f4d7e3" />
</svg>
