<svg xmlns="http://www.w3.org/2000/svg" xmlns:xlink="http://www.w3.org/1999/xlink" viewBox="0 0 48 48"><defs><linearGradient xlink:href="#a" id="c" x1="34.32" y1="50.62" x2="9.85" y2="5.71" gradientUnits="userSpaceOnUse"/><linearGradient id="a"><stop offset="0" stop-color="#2d5016"/><stop offset=".22" stop-color="#447821"/><stop offset=".39" stop-color="#64b131"/><stop offset=".52" stop-color="#57992a"/><stop offset=".64" stop-color="#71c837"/><stop offset="1" stop-color="#447821"/></linearGradient><linearGradient id="b"><stop offset="0"/><stop offset="1" stop-color="#010000" stop-opacity="0"/></linearGradient><linearGradient xlink:href="#b" id="d" gradientUnits="userSpaceOnUse" x1="-3.91" y1=".22" x2="51.45" y2="41.83" gradientTransform="translate(-.33 .8)"/></defs><path d="M40.89 17.42l-7.83 30.55H14.94L7.11 17.42 13.01.03H35z" fill="url(#c)"/><path d="M18.28 43.82l-3.34 4.15h18.12l-3.34-4.15z" fill="#17280b" fill-opacity=".1"/><path d="M13.01.03l3.08 4.15h15.8l3.1-4.15z" fill="#17280b" fill-opacity=".35"/><path d="M18.27 43.82l-3.34 4.15L7.1 17.42l4.44.16z" fill="#17280b" fill-opacity=".47"/><path d="M7.1 17.42L13 .03l3.09 4.15-4.55 13.4zm33.79 0L34.99.03 31.9 4.18l4.55 13.4z" fill="#17280b" fill-opacity=".71"/><path d="M29.72 43.82l3.34 4.15 7.83-30.55-4.44.16z" fill="#17280b" fill-opacity=".47"/><path d="M30.495 40.895L36.45 17.58l-3.43-3.92-4.06 2.27-2.88 8.55-7.13-7.13.8 3.73-3.73-3.73-1.6-.98-.17 3.15 5.94 5.94-.63 2.42 2.83 2.84-1.7.37z" opacity=".6" fill="url(#d)"/><path d="M31.2 13.23c1.04 0 1.54.25 1.81.52.27.26.38.6.4 1.08.01.25-.01.5-.05.76-.23-.26-1.17-.98-3.03 2.09-1.48 2.4-2.17 8.82-4.25 11.8-3 4.29-5.57 1.7-6.69.12.32.12.65.18.98.18.94 0 1.87-.5 2.45-1.4.81-1.65 1.3-3.52 1.85-5.4a61.2 61.2 0 0 1 1.67-5.36c.47-.96.88-2.1 1.57-2.93.69-.85 1.56-1.46 3.29-1.46z" fill="#d5f6ff"/><path d="M17.16 15.94a5.84 5.84 0 0 1 3.21 4.4c.51 4.2 1.18 5.3 1.63 5.5-.3.9-.61 2.1-1.63 2.16-.84-.07-1.25-.8-1.32-1.88-.09-.68-.14-1.56-.2-2.5-.1-1.88-.2-4.02-.68-5.75a5.04 5.04 0 0 0-1.01-1.94zm-2.74.43l.24.02c.65.1 1.5.7 1.85 1.97l.1.38c-.45-.4-1.03-.8-1.5-.56-.86.44-.86 1.34-.86 1.34-.45-.63-.93-1.43-.82-2.15.08-.47.25-.7.45-.83.14-.1.33-.17.54-.17z" fill="#d5f6ff"/></svg>