<?xml version="1.0" encoding="UTF-8" standalone="no"?>
<svg
   xmlns:dc="http://purl.org/dc/elements/1.1/"
   xmlns:cc="http://creativecommons.org/ns#"
   xmlns:rdf="http://www.w3.org/1999/02/22-rdf-syntax-ns#"
   xmlns:svg="http://www.w3.org/2000/svg"
   xmlns="http://www.w3.org/2000/svg"
   xmlns:xlink="http://www.w3.org/1999/xlink"
   xmlns:sodipodi="http://sodipodi.sourceforge.net/DTD/sodipodi-0.dtd"
   xmlns:inkscape="http://www.inkscape.org/namespaces/inkscape"
   width="48"
   height="48"
   version="1"
   id="svg60"
   sodipodi:docname="text-x-readme.svg"
   inkscape:version="0.92.4 (5da689c313, 2019-01-14)">
  <metadata
     id="metadata64">
    <rdf:RDF>
      <cc:Work
         rdf:about="">
        <dc:format>image/svg+xml</dc:format>
        <dc:type
           rdf:resource="http://purl.org/dc/dcmitype/StillImage" />
        <dc:title></dc:title>
      </cc:Work>
    </rdf:RDF>
  </metadata>
  <sodipodi:namedview
     pagecolor="#ffffff"
     bordercolor="#666666"
     borderopacity="1"
     objecttolerance="10"
     gridtolerance="10"
     guidetolerance="10"
     inkscape:pageopacity="0"
     inkscape:pageshadow="2"
     inkscape:window-width="1112"
     inkscape:window-height="480"
     id="namedview62"
     showgrid="false"
     inkscape:zoom="4.9166667"
     inkscape:cx="2.1355932"
     inkscape:cy="24"
     inkscape:window-x="0"
     inkscape:window-y="25"
     inkscape:window-maximized="0"
     inkscape:current-layer="svg60" />
  <defs
     id="defs40">
    <linearGradient
       id="c">
      <stop
         offset="0"
         stop-color="#2c5aa0"
         id="stop2" />
      <stop
         offset=".2"
         stop-color="#3771c8"
         id="stop4" />
      <stop
         offset=".33"
         stop-color="#2c5aa0"
         id="stop6" />
      <stop
         offset=".44"
         stop-color="#3771c8"
         id="stop8" />
      <stop
         offset=".57"
         stop-color="#3771c8"
         id="stop10" />
      <stop
         offset=".76"
         stop-color="#5f8dd3"
         id="stop12" />
      <stop
         offset="1"
         stop-color="#3771c8"
         id="stop14" />
    </linearGradient>
    <linearGradient
       id="b">
      <stop
         offset="0"
         stop-color="#2c5aa0"
         id="stop17" />
      <stop
         offset=".2"
         stop-color="#3771c8"
         id="stop19" />
      <stop
         offset=".33"
         stop-color="#2c5aa0"
         id="stop21" />
      <stop
         offset=".44"
         stop-color="#3771c8"
         id="stop23" />
      <stop
         offset=".57"
         stop-color="#3771c8"
         id="stop25" />
      <stop
         offset=".76"
         stop-color="#5f8dd3"
         id="stop27" />
      <stop
         offset="1"
         stop-color="#2c5aa0"
         stop-opacity="0"
         id="stop29" />
    </linearGradient>
    <linearGradient
       xlink:href="#b"
       id="a"
       gradientUnits="userSpaceOnUse"
       gradientTransform="translate(-40)"
       x1="8.14"
       y1="13.51"
       x2="36.28"
       y2="35.97" />
    <linearGradient
       xlink:href="#c"
       id="e"
       x1="18.01"
       y1="44.82"
       x2="28.99"
       y2="2.61"
       gradientUnits="userSpaceOnUse" />
    <linearGradient
       id="d">
      <stop
         offset="0"
         stop-color="#0e0000"
         id="stop34" />
      <stop
         offset="1"
         stop-opacity="0"
         id="stop36" />
    </linearGradient>
    <linearGradient
       gradientTransform="matrix(0.848,0,0,0.848,3.75,3.25)"
       xlink:href="#d"
       id="f"
       gradientUnits="userSpaceOnUse"
       x1="12.11"
       y1="10.35"
       x2="52.35"
       y2="42.02" />
  </defs>
  <path
     d="M 40.89,17.42 33.06,47.97 H 14.94 L 7.11,17.42 13.01,0.03 H 35 Z"
     id="path42"
     style="fill:url(#e)"
     inkscape:connector-curvature="0" />
  <path
     d="m 18.28,43.82 -3.34,4.15 h 18.12 l -3.34,-4.15 z"
     id="path44"
     inkscape:connector-curvature="0"
     style="fill:#162d50;fill-opacity:0.1" />
  <path
     d="m 29.72,43.82 3.34,4.15 7.83,-30.55 -4.44,0.16 z"
     id="path46"
     inkscape:connector-curvature="0"
     style="fill:#162d50;fill-opacity:0.47000002" />
  <path
     d="m 13.01,0.03 3.08,4.15 h 15.8 l 3.1,-4.15 z"
     id="path48"
     inkscape:connector-curvature="0"
     style="fill:#162d50;fill-opacity:0.35" />
  <path
     d="M 40.89,17.42 34.99,0.03 31.9,4.18 36.45,17.58 Z"
     id="path50"
     inkscape:connector-curvature="0"
     style="fill:#162d50;fill-opacity:0.70999995" />
  <path
     d="m 18.28,43.82 -3.34,4.15 -7.83,-30.55 4.44,0.16 z"
     id="path52"
     inkscape:connector-curvature="0"
     style="fill:#162d50;fill-opacity:0.47000002" />
  <path
     d="m 7.11,17.42 5.9,-17.39 3.09,4.15 -4.55,13.4 z"
     id="path54"
     inkscape:connector-curvature="0"
     style="fill:#162d50;fill-opacity:0.70999995" />
  <path
     d="m 31.77,43.93 -1.598,-2.05 5.713,-22.208 -8.135,-8.752 -2.87,3.31 1.34,3.74 -1.13,0.76 -2.95,1.15 -2.68,2.44 3.5,3.66 -2,7.08 z"
     id="path56"
     style="opacity:0.55;fill:url(#f)"
     inkscape:connector-curvature="0" />
  <path
     d="m 26.54,10.55 c -2.03,-0.1 -3.1,3.18 -1.17,4.08 1.57,0.65 3.28,-0.96 2.9,-2.58 a 1.75,1.75 0 0 0 -1.73,-1.5 z m -0.87,7.24 a 1.6,1.6 0 0 0 -1.13,0.4 c -2,0.88 -3.67,2.3 -5.42,3.57 0.22,0.59 0.47,1.07 1,0.42 0.65,-0.4 2.83,-2.09 2.6,-0.42 -0.7,3.07 -1.54,6.12 -2.2,9.2 -0.67,1.7 0.87,3.22 2.48,2.12 1.72,-0.7 3.18,-1.86 4.7,-2.91 -0.21,-0.51 -0.35,-1.23 -0.91,-0.57 -0.75,0.34 -2.38,1.93 -2.68,0.62 0.62,-3.33 1.78,-6.54 2.52,-9.84 0.51,-1.14 0.02,-2.5 -0.96,-2.6 z"
     id="path58"
     inkscape:connector-curvature="0"
     style="fill:#d5fff6" />
</svg>
