<svg xmlns="http://www.w3.org/2000/svg" xmlns:xlink="http://www.w3.org/1999/xlink" viewBox="0 0 48 48"><defs><linearGradient id="b"><stop offset="0"/><stop offset="1" stop-opacity="0"/></linearGradient><linearGradient xlink:href="#a" id="c" x1="9.71" y1="32" x2="28.58" y2=".86" gradientUnits="userSpaceOnUse"/><linearGradient id="a"><stop offset="0" stop-color="#2d5016"/><stop offset=".33" stop-color="#447821"/><stop offset=".5" stop-color="#64b131"/><stop offset=".63" stop-color="#57992a"/><stop offset=".76" stop-color="#71c837"/><stop offset="1" stop-color="#447821"/></linearGradient><linearGradient xlink:href="#b" id="d" gradientUnits="userSpaceOnUse" x1="10.85" y1="14.87" x2="47.3" y2="30.58"/></defs><path d="M40.89 17.42l-7.83 30.55H14.94L7.11 17.42 13.01.03H35z" fill="url(#c)"/><path d="M18.28 43.82l-3.34 4.15h18.12l-3.34-4.15z" fill="#17280b" fill-opacity=".1"/><path d="M13.01.03l3.08 4.15h15.8l3.1-4.15z" fill="#17280b" fill-opacity=".35"/><path d="M18.27 43.82l-3.34 4.15L7.1 17.42l4.44.16z" fill="#17280b" fill-opacity=".47"/><path d="M7.1 17.42L13 .03l3.09 4.15-4.55 13.4zm33.79 0L34.99.03 31.9 4.18l4.55 13.4z" fill="#17280b" fill-opacity=".71"/><path d="M29.72 43.82l3.34 4.15 7.83-30.55-4.44.16z" fill="#17280b" fill-opacity=".47"/><path d="M30.392 41.486l5.592-21.978-6.144-6.388-4.62-1.46-4.7 4.07-.09 10.57 1.45 6.42z" opacity=".5" fill="url(#d)"/><path d="M24.34 10.3c.2 0 .4 0 .6.03 1.65.17 3.25 1.13 4.9 2.8l-2.15 2.15c-1.37-1.37-1.68-1.85-2.3-1.92-.63-.06-1 .1-1.52.72-1.06 1.23-1.9 4.38-1.9 7.6 0 3.2.82 6.46 1.96 7.94.56.73 1.05 1 1.67 1.02.6.02.83-.29 2.16-1.45l2 2.3c-1.69 1.47-3.36 2.25-5 2.2a5.32 5.32 0 0 1-4-2.2c-1.9-2.48-2.6-6.17-2.6-9.82 0-3.66.66-7.27 2.64-9.57a5.02 5.02 0 0 1 3.55-1.8z" fill="#ececec"/></svg>