<svg xmlns="http://www.w3.org/2000/svg" xmlns:xlink="http://www.w3.org/1999/xlink" width="48" height="48" version="1"><defs><linearGradient id="c"><stop offset="0" stop-color="#87a087"/><stop offset=".2" stop-color="#6f916f"/><stop offset=".33" stop-color="#536c53"/><stop offset=".44" stop-color="#6a836a"/><stop offset=".57" stop-color="#87a087"/><stop offset=".76" stop-color="#536c53"/><stop offset="1" stop-color="#6f916f"/></linearGradient><linearGradient id="b"><stop offset="0" stop-color="#2c5aa0"/><stop offset=".2" stop-color="#3771c8"/><stop offset=".33" stop-color="#2c5aa0"/><stop offset=".44" stop-color="#3771c8"/><stop offset=".57" stop-color="#3771c8"/><stop offset=".76" stop-color="#5f8dd3"/><stop offset="1" stop-color="#2c5aa0" stop-opacity="0"/></linearGradient><linearGradient xlink:href="#b" id="a" gradientUnits="userSpaceOnUse" gradientTransform="translate(-40)" x1="8.14" y1="13.51" x2="36.28" y2="35.97"/><linearGradient xlink:href="#c" id="e" x1="9.42" y1="37.6" x2="41.07" y2="20.93" gradientUnits="userSpaceOnUse"/><linearGradient id="d"><stop offset="0"/><stop offset="1" stop-color="#000007" stop-opacity="0"/></linearGradient><linearGradient xlink:href="#d" id="f" gradientUnits="userSpaceOnUse" gradientTransform="translate(-1.14 -1.85) scale(1.07278)" x1="8.05" y1="9.96" x2="46.28" y2="38.32"/></defs><path d="M40.89 17.42l-7.83 30.55H14.94L7.11 17.42 13.01.03H35z" fill="url(#e)"/><path d="M18.28 43.82l-3.34 4.15h18.12l-3.34-4.15z" fill="#1c241c" fill-opacity=".1"/><path d="M29.72 43.82l3.34 4.15 7.83-30.55-4.44.16z" fill="#1c241c" fill-opacity=".47"/><path d="M13.01.03l3.08 4.15h15.8l3.1-4.15z" fill="#1c241c" fill-opacity=".35"/><path d="M40.89 17.42L34.99.03 31.9 4.18l4.55 13.4z" fill="#1c241c" fill-opacity=".71"/><path d="M18.28 43.82l-3.34 4.15-7.83-30.55 4.44.16z" fill="#1c241c" fill-opacity=".47"/><path d="M7.11 17.42L13.01.03l3.09 4.15-4.55 13.4z" fill="#1c241c" fill-opacity=".71"/><path d="M31.76 35.83l3.55-13.85-1.54-1.54-2.68 1.4-9.82-9.82-5.56 6.07 1.66 1.23 3.09 5.2z" opacity=".5" fill="url(#f)"/><path d="M20.46 11.2l1.67 1.72-5.02 4.94 5.02 4.96-1.67 1.72-5.06-5-.03.03-1.67-1.7 1.67-1.71.03.03zm3.83 9.24h9.48v2.38h-9.5z" fill="#dbe3e2"/></svg>