<?xml version="1.0" encoding="UTF-8" standalone="no"?>
<svg
   xmlns:dc="http://purl.org/dc/elements/1.1/"
   xmlns:cc="http://creativecommons.org/ns#"
   xmlns:rdf="http://www.w3.org/1999/02/22-rdf-syntax-ns#"
   xmlns:svg="http://www.w3.org/2000/svg"
   xmlns="http://www.w3.org/2000/svg"
   xmlns:xlink="http://www.w3.org/1999/xlink"
   xmlns:sodipodi="http://sodipodi.sourceforge.net/DTD/sodipodi-0.dtd"
   xmlns:inkscape="http://www.inkscape.org/namespaces/inkscape"
   width="48"
   height="48"
   version="1"
   id="svg42"
   sodipodi:docname="text-x-copying.svg"
   inkscape:version="0.92.4 (5da689c313, 2019-01-14)">
  <metadata
     id="metadata46">
    <rdf:RDF>
      <cc:Work
         rdf:about="">
        <dc:format>image/svg+xml</dc:format>
        <dc:type
           rdf:resource="http://purl.org/dc/dcmitype/StillImage" />
        <dc:title></dc:title>
      </cc:Work>
    </rdf:RDF>
  </metadata>
  <sodipodi:namedview
     pagecolor="#ffffff"
     bordercolor="#666666"
     borderopacity="1"
     objecttolerance="10"
     gridtolerance="10"
     guidetolerance="10"
     inkscape:pageopacity="0"
     inkscape:pageshadow="2"
     inkscape:window-width="1112"
     inkscape:window-height="480"
     id="namedview44"
     showgrid="false"
     inkscape:zoom="4.9166667"
     inkscape:cx="2.1355932"
     inkscape:cy="24"
     inkscape:window-x="0"
     inkscape:window-y="25"
     inkscape:window-maximized="0"
     inkscape:current-layer="svg42" />
  <defs
     id="defs22">
    <linearGradient
       id="b">
      <stop
         offset="0"
         id="stop2" />
      <stop
         offset="1"
         stop-opacity="0"
         id="stop4" />
    </linearGradient>
    <linearGradient
       gradientTransform="matrix(0.99998805,0,0,0.99998805,0,0.02)"
       xlink:href="#a"
       id="c"
       x1="29.07"
       y1="-1.19"
       x2="26"
       y2="46.57"
       gradientUnits="userSpaceOnUse" />
    <linearGradient
       id="a">
      <stop
         offset="0"
         stop-color="#676c53"
         id="stop8" />
      <stop
         offset=".12"
         stop-color="#8a916f"
         id="stop10" />
      <stop
         offset=".33"
         stop-color="#676c53"
         id="stop12" />
      <stop
         offset=".66"
         stop-color="#8a916f"
         id="stop14" />
      <stop
         offset=".78"
         stop-color="#848872"
         id="stop16" />
      <stop
         offset="1"
         stop-color="#676c53"
         id="stop18" />
    </linearGradient>
    <linearGradient
       xlink:href="#b"
       id="d"
       gradientUnits="userSpaceOnUse"
       x1="10.53"
       y1="8.86"
       x2="44.23"
       y2="32.91" />
  </defs>
  <path
     d="M 40.894515,17.405838 33.070887,48.020031 H 14.929144 L 7.1055164,17.405838 13.001583,0.02 h 21.996865 z"
     id="path24"
     style="fill:url(#c);stroke-width:3.77953005"
     inkscape:connector-curvature="0" />
  <path
     d="m 18.3,43.86 -3.37,4.16 h 18.14 l -3.36,-4.16 z"
     id="path26"
     inkscape:connector-curvature="0"
     style="fill:none" />
  <path
     d="m 13,0.02 3.1,4.16 H 31.9 L 35,0.02 Z"
     id="path28"
     inkscape:connector-curvature="0"
     style="fill:#22241c;fill-opacity:0.35" />
  <path
     d="M 18.3,43.86 14.93,48.02 7.1,17.41 11.56,17.6 Z"
     id="path30"
     inkscape:connector-curvature="0"
     style="fill:#22241c;fill-opacity:0.47000002" />
  <path
     d="M 7.1,17.4 13,0.03 16.1,4.19 11.57,17.61 Z m 33.8,0 L 35,0.03 31.9,4.19 36.43,17.61 Z"
     id="path32"
     inkscape:connector-curvature="0"
     style="fill:#22241c;fill-opacity:0.70999995" />
  <path
     d="m 29.7,43.86 3.37,4.16 7.82,-30.61 -4.42,0.19 z"
     id="path34"
     inkscape:connector-curvature="0"
     style="fill:#22241c;fill-opacity:0.47000002" />
  <path
     d="m 18.3,43.86 -3.37,4.16 h 18.14 l -3.36,-4.16 z"
     id="path36"
     inkscape:connector-curvature="0"
     style="fill:#22241c;fill-opacity:0.1" />
  <path
     d="m 23.98,11.01 -5.56,2.78 -2.54,4.54 1.63,8.07 13.27,13.27 5.25,-20.44 -5.36,-5.35 z"
     id="path38"
     style="opacity:0.52999998;fill:url(#d)"
     inkscape:connector-curvature="0" />
  <path
     d="M 23.98,11 A 9.01,9.01 0 0 0 15,19.99 9.01,9.01 0 0 0 23.97,29 9.01,9.01 0 0 0 32.98,19.99 9.01,9.01 0 0 0 23.98,11 Z m 0,1.92 a 7.06,7.06 0 0 1 7.1,7.06 7.06,7.06 0 0 1 -7.1,7.1 7.06,7.06 0 0 1 -7.06,-7.1 7.06,7.06 0 0 1 7.06,-7.06 z m 0,1.91 a 5.15,5.15 0 0 0 -3.66,1.58 l 1.66,1.06 a 3.23,3.23 0 0 1 2,-0.68 3.23,3.23 0 0 1 3.23,3.19 3.23,3.23 0 0 1 -3.23,3.23 3.23,3.23 0 0 1 -2,-0.72 l -1.66,1.1 a 5.15,5.15 0 0 0 3.66,1.53 5.15,5.15 0 0 0 5.14,-5.1 5.15,5.15 0 0 0 -5.1,-5.19 z"
     id="path40"
     inkscape:connector-curvature="0"
     style="fill:#dfe6e4" />
</svg>
