<?xml version="1.0" encoding="UTF-8" standalone="no"?>
<!-- Generator: Adobe Illustrator 18.0.0, SVG Export Plug-In . SVG Version: 6.00 Build 0)  -->

<svg
   xmlns:dc="http://purl.org/dc/elements/1.1/"
   xmlns:cc="http://creativecommons.org/ns#"
   xmlns:rdf="http://www.w3.org/1999/02/22-rdf-syntax-ns#"
   xmlns:svg="http://www.w3.org/2000/svg"
   xmlns="http://www.w3.org/2000/svg"
   xmlns:sodipodi="http://sodipodi.sourceforge.net/DTD/sodipodi-0.dtd"
   xmlns:inkscape="http://www.inkscape.org/namespaces/inkscape"
   version="1.1"
   id="Capa_1"
   x="0px"
   y="0px"
   viewBox="0 0 48 48"
   xml:space="preserve"
   sodipodi:docname="printer.svg"
   inkscape:version="0.92.3 (2405546, 2018-03-11)"
   width="48"
   height="48"><metadata
   id="metadata53"><rdf:RDF><cc:Work
       rdf:about=""><dc:format>image/svg+xml</dc:format><dc:type
         rdf:resource="http://purl.org/dc/dcmitype/StillImage" /><dc:title></dc:title></cc:Work></rdf:RDF></metadata><defs
   id="defs51">
	
	
	
	
	
	
	
</defs><sodipodi:namedview
   pagecolor="#ffffff"
   bordercolor="#666666"
   borderopacity="1"
   objecttolerance="10"
   gridtolerance="10"
   guidetolerance="10"
   inkscape:pageopacity="0"
   inkscape:pageshadow="2"
   inkscape:window-width="1366"
   inkscape:window-height="690"
   id="namedview49"
   showgrid="false"
   inkscape:zoom="5.7372857"
   inkscape:cx="31.675122"
   inkscape:cy="25.066251"
   inkscape:window-x="0"
   inkscape:window-y="28"
   inkscape:window-maximized="1"
   inkscape:current-layer="Capa_1" />
<path
   style="fill:#ff7f2a;stroke:none;stroke-width:0.33796275;stroke-linecap:butt;stroke-linejoin:miter;stroke-miterlimit:4;stroke-dasharray:none;stroke-opacity:1"
   d="M 24.865234 3.515625 C 19.149856 3.5343685 13.460275 4.8562259 9.90625 8.4550781 C 6.8876854 10.879592 6.0129089 14.104453 5.1269531 17.65625 C 4.6012822 19.970156 0.45190209 21.075567 3.609375 24.617188 C 4.1247531 25.03582 3.5884992 26.031947 0.42382812 28.474609 C 5.55592 37.037748 1.6392933 34.54134 0.67578125 35.654297 C 0.93183162 38.726908 2.3007094 38.79741 0.984375 41.695312 C 0.79026886 43.535815 -1.0904086 46.501014 1.8945312 47.283203 C 2.389348 47.896882 14.639599 47.147441 15.232422 45.162109 C 15.86729 40.139117 21.554173 37.367896 24.416016 39.433594 C 27.889115 40.718097 39.592285 39.041242 43.53125 32.324219 C 46.581565 26.317067 51.019054 17.694112 43.777344 9.5351562 C 42.072423 7.0699495 33.781225 3.4863849 24.865234 3.515625 z M 23.640625 8.7988281 L 38.849609 8.7988281 C 38.916613 8.7988281 38.970703 8.8529179 38.970703 8.9199219 L 38.970703 13.828125 C 38.970703 13.895129 38.916609 13.949219 38.849609 13.949219 L 23.640625 13.949219 C 23.573621 13.949219 23.519531 13.895125 23.519531 13.828125 L 23.519531 8.9199219 C 23.519531 8.8529181 23.573625 8.7988281 23.640625 8.7988281 z M 18.490234 15.367188 L 44.087891 15.367188 C 44.154904 15.367187 44.208984 15.421281 44.208984 15.488281 L 44.208984 26.705078 C 44.208984 26.772082 44.154891 26.826172 44.087891 26.826172 L 39.869141 26.826172 L 39.869141 30.875 L 39.869141 32.878906 L 22.746094 32.878906 L 22.746094 30.875 L 22.746094 26.826172 L 18.490234 26.826172 C 18.423224 26.826172 18.371094 26.772078 18.371094 26.705078 L 18.371094 15.488281 C 18.371094 15.421268 18.423234 15.367188 18.490234 15.367188 z M 39.740234 17.070312 A 1.7840401 1.7840401 0 0 0 37.957031 18.855469 A 1.7840401 1.7840401 0 0 0 39.740234 20.638672 A 1.7840401 1.7840401 0 0 0 41.525391 18.855469 A 1.7840401 1.7840401 0 0 0 39.740234 17.070312 z M 11.505859 22.837891 C 12.797617 22.932929 14.967429 23.769277 15.564453 25.105469 C 16.700046 29.404221 14.604068 30.117726 12.970703 30.865234 C 7.2768915 31.636418 7.0405969 29.612292 6.1933594 28.804688 C 5.2866932 27.033618 5.0141151 24.968334 6.4804688 24.341797 C 8.4532039 23.867593 10.51881 23.075213 10.597656 22.998047 C 10.742254 22.85653 11.075273 22.806211 11.505859 22.837891 z M 24.619141 26.826172 L 24.619141 30.875 L 37.996094 30.875 L 37.996094 26.826172 L 24.619141 26.826172 z "
   id="path867" />
<g
   id="g18"
   transform="translate(0,-417.383)">
</g>
<g
   id="g20"
   transform="translate(0,-417.383)">
</g>
<g
   id="g22"
   transform="translate(0,-417.383)">
</g>
<g
   id="g24"
   transform="translate(0,-417.383)">
</g>
<g
   id="g26"
   transform="translate(0,-417.383)">
</g>
<g
   id="g28"
   transform="translate(0,-417.383)">
</g>
<g
   id="g30"
   transform="translate(0,-417.383)">
</g>
<g
   id="g32"
   transform="translate(0,-417.383)">
</g>
<g
   id="g34"
   transform="translate(0,-417.383)">
</g>
<g
   id="g36"
   transform="translate(0,-417.383)">
</g>
<g
   id="g38"
   transform="translate(0,-417.383)">
</g>
<g
   id="g40"
   transform="translate(0,-417.383)">
</g>
<g
   id="g42"
   transform="translate(0,-417.383)">
</g>
<g
   id="g44"
   transform="translate(0,-417.383)">
</g>
<g
   id="g46"
   transform="translate(0,-417.383)">
</g>
</svg>