<?xml version="1.0" encoding="UTF-8" standalone="no"?>
<!-- Created with Inkscape (http://www.inkscape.org/) -->

<svg
   xmlns:dc="http://purl.org/dc/elements/1.1/"
   xmlns:cc="http://creativecommons.org/ns#"
   xmlns:rdf="http://www.w3.org/1999/02/22-rdf-syntax-ns#"
   xmlns:svg="http://www.w3.org/2000/svg"
   xmlns="http://www.w3.org/2000/svg"
   xmlns:sodipodi="http://sodipodi.sourceforge.net/DTD/sodipodi-0.dtd"
   xmlns:inkscape="http://www.inkscape.org/namespaces/inkscape"
   id="svg2906"
   width="64"
   height="64"
   version="1.0"
   sodipodi:docname="folder-system.svg"
   inkscape:version="0.92.3 (2405546, 2018-03-11)">
  <metadata
     id="metadata49">
    <rdf:RDF>
      <cc:Work
         rdf:about="">
        <dc:format>image/svg+xml</dc:format>
        <dc:type
           rdf:resource="http://purl.org/dc/dcmitype/StillImage" />
        <dc:title></dc:title>
      </cc:Work>
    </rdf:RDF>
  </metadata>
  <sodipodi:namedview
     pagecolor="#ffffff"
     bordercolor="#666666"
     borderopacity="1"
     objecttolerance="10"
     gridtolerance="10"
     guidetolerance="10"
     inkscape:pageopacity="0"
     inkscape:pageshadow="2"
     inkscape:window-width="1366"
     inkscape:window-height="686"
     id="namedview47"
     showgrid="false"
     inkscape:zoom="5.3916892"
     inkscape:cx="26.390514"
     inkscape:cy="32.200461"
     inkscape:window-x="0"
     inkscape:window-y="28"
     inkscape:window-maximized="1"
     inkscape:current-layer="svg2906"
     showguides="true"
     inkscape:guide-bbox="true" />
  <defs
     id="defs2908">
    <radialGradient
       id="radialGradient2904"
       cx="3"
       cy="5.0172"
       r="21"
       gradientTransform="matrix(-1.7093e-8 2.28 -2.8952 -1.9417e-8 16.801 2.2898)"
       gradientUnits="userSpaceOnUse">
      <stop
         id="stop3486"
         style="stop-color:#bdbdbd"
         offset="0" />
      <stop
         id="stop3488"
         style="stop-color:#d0d0d0"
         offset="1" />
    </radialGradient>
    <linearGradient
       id="linearGradient2902"
       x1="62.989"
       x2="62.989"
       y1="13.183"
       y2="16.19"
       gradientTransform="matrix(1.3408 0 0 1.33 -68.673 -1.51)"
       gradientUnits="userSpaceOnUse">
      <stop
         id="stop6406"
         style="stop-color:#f9f9f9"
         offset="0" />
      <stop
         id="stop6408"
         style="stop-color:#c9c9c9"
         offset="1" />
    </linearGradient>
    <radialGradient
       id="radialGradient2880"
       cx="605.71"
       cy="486.65"
       r="117.14"
       gradientTransform="matrix(-.03213 0 0 .037059 23.363 25.412)"
       gradientUnits="userSpaceOnUse">
      <stop
         id="stop2681"
         offset="0" />
      <stop
         id="stop2683"
         style="stop-opacity:0"
         offset="1" />
    </radialGradient>
    <radialGradient
       id="radialGradient2878"
       cx="605.71"
       cy="486.65"
       r="117.14"
       gradientTransform="matrix(.03213 0 0 .037059 24.637 25.412)"
       gradientUnits="userSpaceOnUse">
      <stop
         id="stop2675"
         offset="0" />
      <stop
         id="stop2677"
         style="stop-opacity:0"
         offset="1" />
    </radialGradient>
    <linearGradient
       id="linearGradient2876"
       x1="302.86"
       x2="302.86"
       y1="366.65"
       y2="609.51"
       gradientTransform="matrix(.08284 0 0 .037059 -5.9408 25.412)"
       gradientUnits="userSpaceOnUse">
      <stop
         id="stop2667"
         style="stop-opacity:0"
         offset="0" />
      <stop
         id="stop2669"
         offset=".5" />
      <stop
         id="stop2671"
         style="stop-opacity:0"
         offset="1" />
    </linearGradient>
    <linearGradient
       id="linearGradient2895"
       x1="82.453"
       x2="65.34"
       y1="45.114"
       y2="15.944"
       gradientTransform="matrix(1.3408 0 0 1.3265 -72.463 -1.6032)"
       gradientUnits="userSpaceOnUse">
      <stop
         id="stop3624-5"
         style="stop-color:#bb2b12"
         offset="0" />
      <stop
         id="stop3626-7"
         style="stop-color:#cd7233"
         offset="1" />
    </linearGradient>
    <radialGradient
       id="radialGradient2893"
       cx="63.969"
       cy="14.113"
       r="23.097"
       gradientTransform="matrix(2.0979 -1.262e-7 8.2824e-8 1.3475 -115.97 9.3537)"
       gradientUnits="userSpaceOnUse">
      <stop
         id="stop3618-2"
         style="stop-color:#edb763"
         offset="0" />
      <stop
         id="stop2559"
         style="stop-color:#de7f32"
         offset=".5" />
      <stop
         id="stop3620-1"
         style="stop-color:#d24413"
         offset="1" />
    </radialGradient>
    <linearGradient
       id="linearGradient2890"
       x1="22.935"
       x2="22.809"
       y1="49.629"
       y2="36.658"
       gradientTransform="matrix(1.5348 0 0 1.327 -5.0206 -.048542)"
       gradientUnits="userSpaceOnUse">
      <stop
         id="stop2661"
         style="stop-color:#0a0a0a;stop-opacity:.498"
         offset="0" />
      <stop
         id="stop2663"
         style="stop-color:#0a0a0a;stop-opacity:0"
         offset="1" />
    </linearGradient>
    <radialGradient
       id="radialGradient2887"
       cx="7.2647"
       cy="8.3021"
       r="20.98"
       gradientTransform="matrix(0 1.6066 -2.1817 0 34.686 9.2848)"
       gradientUnits="userSpaceOnUse">
      <stop
         id="stop2693"
         style="stop-color:#fff;stop-opacity:.4"
         offset="0" />
      <stop
         id="stop2695"
         style="stop-color:#fff;stop-opacity:0"
         offset="1" />
    </radialGradient>
    <linearGradient
       id="linearGradient2884"
       x1="11.566"
       x2="15.215"
       y1="22.292"
       y2="33.955"
       gradientTransform="matrix(1.3408 0 0 1.33 -.37331 -1.31)"
       gradientUnits="userSpaceOnUse">
      <stop
         id="stop2687"
         style="stop-color:#fff;stop-opacity:.27451"
         offset="0" />
      <stop
         id="stop2689"
         style="stop-color:#fff;stop-opacity:.078431"
         offset="1" />
    </linearGradient>
  </defs>
  <path
     style="fill:#7c916f;stroke-width:0.93863195"
     d="M 27.878906 0.53515625 C 16.856303 0.53515625 7.921875 9.267357 7.921875 20.044922 L 7.921875 52.560547 L 56.707031 52.560547 L 56.707031 20.044922 C 56.707031 9.2682866 47.772599 0.53515625 36.75 0.53515625 L 27.878906 0.53515625 z M 23.947266 6.1503906 C 24.041804 6.1819899 24.148097 6.2477048 24.259766 6.3476562 L 26.65625 8.4921875 C 27.102926 8.8919934 27.69313 8.7824206 27.96875 8.25 L 28.623047 6.9863281 C 28.898667 6.4539076 29.276431 6.4849169 29.462891 7.0546875 L 30.462891 10.109375 C 30.649351 10.679145 31.216041 10.880148 31.720703 10.556641 L 32.921875 9.7871094 C 33.42661 9.4635296 33.738475 9.6789194 33.615234 10.265625 L 32.955078 13.412109 C 32.831838 13.998811 33.221475 14.455204 33.820312 14.427734 L 35.242188 14.363281 C 35.841025 14.335813 36.00354 14.678471 35.603516 15.125 L 33.457031 17.519531 C 33.05708 17.966061 33.166726 18.556701 33.699219 18.832031 L 34.964844 19.488281 C 35.497407 19.763611 35.466327 20.13993 34.896484 20.326172 L 31.837891 21.326172 C 31.26812 21.512414 31.066827 22.077514 31.390625 22.582031 L 32.162109 23.783203 C 32.485907 24.28772 32.270295 24.599657 31.683594 24.476562 L 28.535156 23.816406 C 27.948454 23.693311 27.490108 24.082804 27.517578 24.681641 L 27.583984 26.101562 C 27.611452 26.700399 27.266987 26.86465 26.820312 26.464844 L 24.425781 24.318359 C 23.979106 23.918553 23.386948 24.028127 23.111328 24.560547 L 22.457031 25.824219 C 22.181411 26.356641 21.803648 26.325629 21.617188 25.755859 L 20.617188 22.701172 C 20.430801 22.131401 19.864037 21.930326 19.359375 22.253906 L 18.158203 23.023438 C 17.65354 23.347018 17.341676 23.131624 17.464844 22.544922 L 18.125 19.398438 C 18.248241 18.811736 17.860556 18.355342 17.261719 18.382812 L 15.837891 18.447266 C 15.238982 18.474734 15.076538 18.132077 15.476562 17.685547 L 17.623047 15.291016 C 18.022998 14.844486 17.913352 14.253845 17.380859 13.978516 L 16.115234 13.324219 C 15.582671 13.048889 15.61375 12.670616 16.183594 12.484375 L 19.242188 11.484375 C 19.812032 11.29806 20.01325 10.733033 19.689453 10.228516 L 18.917969 9.0273438 C 18.594172 8.5228268 18.809782 8.2108889 19.396484 8.3339844 L 22.544922 8.9941406 C 23.131623 9.1171634 23.59004 8.7296963 23.5625 8.1308594 L 23.498047 6.7089844 C 23.477391 6.2598568 23.663652 6.0555927 23.947266 6.1503906 z M 25.435547 11.130859 C 22.496879 11.130859 20.107422 13.519889 20.107422 16.457031 C 20.107422 19.394391 22.496951 21.783203 25.435547 21.783203 C 28.373997 21.783203 30.765625 19.394391 30.765625 16.457031 C 30.765625 13.520035 28.373997 11.131004 25.435547 11.130859 z M 25.435547 12.220703 C 27.77327 12.220849 29.675781 14.12076 29.675781 16.457031 C 29.675781 18.793592 27.77327 20.695312 25.435547 20.695312 C 23.097678 20.695312 21.197266 18.793592 21.197266 16.457031 C 21.197266 14.120615 23.097678 12.220703 25.435547 12.220703 z M 25.435547 15.236328 C 24.760629 15.236328 24.214844 15.782767 24.214844 16.457031 C 24.214844 17.132094 24.760629 17.679688 25.435547 17.679688 C 26.11061 17.679687 26.658203 17.132022 26.658203 16.457031 C 26.658203 15.782695 26.11061 15.236328 25.435547 15.236328 z M 34.962891 22.193359 C 35.116312 22.191336 35.30492 22.277791 35.511719 22.462891 L 38.470703 25.111328 C 39.022167 25.604928 39.751517 25.469826 40.091797 24.8125 L 40.900391 23.251953 C 41.240672 22.594626 41.707297 22.6325 41.9375 23.335938 L 43.171875 27.107422 C 43.402078 27.81086 44.099601 28.059558 44.722656 27.660156 L 46.207031 26.708984 C 46.830176 26.309493 47.214653 26.57644 47.0625 27.300781 L 46.246094 31.185547 C 46.093942 31.909889 46.57513 32.473363 47.314453 32.439453 L 49.070312 32.359375 C 49.809636 32.325464 50.011447 32.749496 49.517578 33.300781 L 46.867188 36.257812 C 46.373408 36.809098 46.5086 37.538984 47.166016 37.878906 L 48.728516 38.685547 C 49.386024 39.025469 49.348059 39.492722 48.644531 39.722656 L 44.869141 40.957031 C 44.165702 41.186965 43.916645 41.884937 44.316406 42.507812 L 45.267578 43.990234 C 45.667338 44.61311 45.402075 44.997677 44.677734 44.845703 L 40.791016 44.03125 C 40.066675 43.879276 39.501246 44.358333 39.535156 45.097656 L 39.615234 46.853516 C 39.649146 47.592839 39.225292 47.792427 38.673828 47.298828 L 35.714844 44.650391 C 35.16338 44.156791 34.43403 44.291894 34.09375 44.949219 L 33.285156 46.509766 C 32.944876 47.167093 32.47825 47.129219 32.248047 46.425781 L 31.013672 42.654297 C 30.783559 41.950859 30.085947 41.702072 29.462891 42.101562 L 27.980469 43.052734 C 27.357414 43.452225 26.970984 43.18528 27.123047 42.460938 L 27.939453 38.578125 C 28.091606 37.853784 27.610417 37.288356 26.871094 37.322266 L 25.115234 37.402344 C 24.375821 37.436255 24.1741 37.012223 24.667969 36.460938 L 27.318359 33.503906 C 27.812138 32.952621 27.676946 32.224688 27.019531 31.884766 L 25.457031 31.076172 C 24.799524 30.73625 24.837488 30.268997 25.541016 30.039062 L 29.316406 28.804688 C 30.019933 28.574663 30.268901 27.878735 29.869141 27.255859 L 28.917969 25.773438 C 28.518209 25.150561 28.783472 24.764042 29.507812 24.916016 L 33.396484 25.732422 C 34.120825 25.884306 34.684391 25.403386 34.650391 24.664062 L 34.570312 22.910156 C 34.549062 22.448079 34.707188 22.196732 34.962891 22.193359 z M 36.964844 28.369141 C 33.336769 28.369141 30.384766 31.319122 30.384766 34.945312 C 30.384766 38.571774 33.336858 41.521484 36.964844 41.521484 C 40.59265 41.521484 43.544922 38.571773 43.544922 34.945312 C 43.544922 31.319301 40.59265 28.36932 36.964844 28.369141 z M 36.964844 29.712891 C 39.850995 29.71307 42.199219 32.060957 42.199219 34.945312 C 42.199219 37.830027 39.850995 40.175781 36.964844 40.175781 C 34.078514 40.175781 31.730469 37.830027 31.730469 34.945312 C 31.730469 32.060777 34.078514 29.712891 36.964844 29.712891 z M 36.964844 33.4375 C 36.131592 33.4375 35.455078 34.112868 35.455078 34.945312 C 35.455078 35.778745 36.131592 36.453125 36.964844 36.453125 C 37.798276 36.453125 38.472656 35.778655 38.472656 34.945312 C 38.472656 34.112779 37.798276 33.4375 36.964844 33.4375 z "
     id="path6" />
  <rect
     id="rect2"
     height="8.8831387"
     width="64.219154"
     style="fill:#3e4837;stroke-width:0.80172729"
     y="54.769371"
     x="0.085094213" />
  <rect
     id="rect4"
     height="6.415422"
     width="53.857635"
     style="fill:#1f241c;stroke-width:0.80172729"
     y="48.725147"
     x="5.2658563" />
  <path
     style="opacity:0.51000001;fill:#1c241f;fill-opacity:1;stroke:none;stroke-width:1px;stroke-linecap:butt;stroke-linejoin:miter;stroke-opacity:1"
     d="M 56.754013,48.976879 V 18.559695 C 55.745028,13.181047 54.611934,7.8023987 45.625775,2.4237505 c 2.42686,5.1704343 6.592476,9.4046155 6.120531,16.1359445 v 30.417184 z"
     id="path906"
     inkscape:connector-curvature="0"
     sodipodi:nodetypes="cccccc" />
  <path
     style="opacity:0.51000001;fill:#1c241f;fill-opacity:1;stroke:none;stroke-width:1px;stroke-linecap:butt;stroke-linejoin:miter;stroke-opacity:1"
     d="M 7.888807,48.976878 V 18.559695 C 8.897792,13.181047 10.030886,7.8023992 19.017045,2.4237502 16.590185,7.5941852 12.424569,11.828366 12.896514,18.559695 v 30.417183 z"
     id="path906-7"
     inkscape:connector-curvature="0"
     sodipodi:nodetypes="cccccc" />
</svg>
