<?xml version="1.0" encoding="UTF-8" standalone="no"?>
<!-- Created with Inkscape (http://www.inkscape.org/) -->

<svg
   xmlns:dc="http://purl.org/dc/elements/1.1/"
   xmlns:cc="http://creativecommons.org/ns#"
   xmlns:rdf="http://www.w3.org/1999/02/22-rdf-syntax-ns#"
   xmlns:svg="http://www.w3.org/2000/svg"
   xmlns="http://www.w3.org/2000/svg"
   xmlns:xlink="http://www.w3.org/1999/xlink"
   xmlns:sodipodi="http://sodipodi.sourceforge.net/DTD/sodipodi-0.dtd"
   xmlns:inkscape="http://www.inkscape.org/namespaces/inkscape"
   width="48"
   height="48"
   viewBox="0 0 12.7 12.7"
   version="1.1"
   id="svg822"
   inkscape:version="0.92.3 (2405546, 2018-03-11)"
   sodipodi:docname="folder-music.svg">
  <defs
     id="defs816">
    <linearGradient
       inkscape:collect="always"
       id="linearGradient909">
      <stop
         style="stop-color:#216778;stop-opacity:1"
         offset="0"
         id="stop905" />
      <stop
         style="stop-color:#5fbcd3;stop-opacity:1"
         offset="1"
         id="stop907" />
    </linearGradient>
    <linearGradient
       inkscape:collect="always"
       xlink:href="#linearGradient909"
       id="linearGradient911"
       x1="6.3435984"
       y1="293.99127"
       x2="6.2297163"
       y2="284.35654"
       gradientUnits="userSpaceOnUse" />
  </defs>
  <sodipodi:namedview
     id="base"
     pagecolor="#ffffff"
     bordercolor="#666666"
     borderopacity="1.0"
     inkscape:pageopacity="0.0"
     inkscape:pageshadow="2"
     inkscape:zoom="5.2395833"
     inkscape:cx="24"
     inkscape:cy="24"
     inkscape:document-units="mm"
     inkscape:current-layer="g828"
     showgrid="false"
     units="px"
     inkscape:snap-smooth-nodes="true"
     inkscape:object-nodes="true"
     inkscape:snap-midpoints="true"
     showguides="true"
     inkscape:guide-bbox="true"
     inkscape:window-width="1366"
     inkscape:window-height="714"
     inkscape:window-x="0"
     inkscape:window-y="25"
     inkscape:window-maximized="1"
     inkscape:snap-global="true" />
  <metadata
     id="metadata819">
    <rdf:RDF>
      <cc:Work
         rdf:about="">
        <dc:format>image/svg+xml</dc:format>
        <dc:type
           rdf:resource="http://purl.org/dc/dcmitype/StillImage" />
        <dc:title />
      </cc:Work>
    </rdf:RDF>
  </metadata>
  <g
     inkscape:label="Capa 1"
     inkscape:groupmode="layer"
     id="layer1"
     transform="translate(0,-284.29998)">
    <g
       id="g828">
      <g
         id="g841">
        <path
           style="fill:url(#linearGradient911);fill-opacity:1;stroke:none;stroke-width:0.19860323px;stroke-linecap:butt;stroke-linejoin:miter;stroke-opacity:1"
           d="m 6.2297163,284.35653 c -1.515538,0.0144 -3.0867147,0.71884 -4.7298927,2.31644 v 0.6204 1.02246 5.67543 h 9.6875494 v -5.67543 h 0.0041 v -1.64286 c -1.5983817,-1.46262 -3.2443167,-2.33279 -4.9619277,-2.31644 z"
           id="path877-6"
           inkscape:connector-curvature="0" />
        <rect
           id="rect4"
           height="1.2745087"
           width="10.699533"
           style="opacity:1;fill:#164450;fill-opacity:1;stroke-width:0.15927376"
           y="293.98154"
           x="1.0251139" />
        <rect
           id="rect2"
           height="1.7647533"
           width="12.757987"
           style="opacity:1;fill:#216778;fill-opacity:1;stroke-width:0.15927376"
           y="295.23206"
           x="-0.028991858" />
        <path
           inkscape:connector-curvature="0"
           style="opacity:0.5;fill:#000000;fill-opacity:1;stroke:none;stroke-width:0.19860323px;stroke-linecap:butt;stroke-linejoin:miter;stroke-opacity:1"
           d="m 2.7393677,285.62703 c -0.0068,0.005 -0.013404,0.007 -0.020153,0.0119 -0.4020506,0.29093 -0.8087704,0.63464 -1.2195643,1.03404 v 0.62064 1.02216 5.6658 h -0.47439 v 1.25057 h -1.0541992 v 1.76475 h 3.3904906 v -1.76475 H 2.9631267 v -1.25057 h -0.223759 z m 7.1406493,0.003 v 8.35091 H 9.786483 v 1.25109 H 9.338448 v 1.76475 h 3.390491 v -1.76475 h -1.004073 v -1.25109 h -0.537435 v -5.66528 h 0.0041 v -1.6428 c -0.433208,-0.39641 -0.870876,-0.73931 -1.311549,-1.04283 z"
           id="path877" />
        <path
           id="path852"
           transform="matrix(0.26458333,0,0,0.26458333,0,284.29998)"
           d="M 35.992188 -0.65429688 L 30.154297 3.1621094 C 30.154297 3.1621094 31.0054 3.8078793 30.669922 4.828125 L 23.5625 20.445312 C 23.094586 20.766194 22.586274 20.928197 22.101562 20.708984 C 20.95319 20.186314 21.477283 17.905583 21.794922 16.841797 C 21.886568 16.535655 21.794348 16.47837 21.570312 16.707031 L 19.517578 18.792969 C 19.293932 19.020761 19.159429 19.458288 19.205078 19.775391 C 19.34675 20.752398 19.556008 22.734143 19.113281 23.707031 C 18.615118 24.801356 14.195424 27.511233 12.693359 28.410156 C 12.419015 28.573054 12.283609 28.948962 12.371094 29.255859 C 13.089841 31.783456 12.947234 35.115497 12.851562 36.4375 C 12.828092 36.754602 12.974994 36.818191 13.199219 36.591797 C 16.137612 33.614814 18.950088 33.485892 19.740234 33.845703 C 20.426879 34.158497 20.719553 39.492979 20.798828 41.279297 C 20.813032 41.597911 20.992794 41.663828 21.203125 41.423828 L 25.083984 36.974609 C 25.294202 36.734194 25.425854 36.281946 25.382812 35.964844 C 25.176874 34.446948 24.694536 30.349011 25.285156 29.050781 C 25.796186 27.927959 27.104366 27.165822 27.84375 26.810547 C 28.131662 26.672745 28.414792 26.324222 28.462891 26.009766 L 28.800781 23.826172 C 28.849926 23.511715 28.758266 23.481273 28.568359 23.738281 C 27.993164 24.517998 26.709153 25.910308 25.25 25.246094 C 24.61427 24.956771 24.399738 24.144134 24.398438 23.175781 L 32.421875 5.5488281 C 32.580687 5.2707305 32.999056 4.6391788 33.556641 4.6542969 C 33.556641 4.6542969 34.575507 1.7951412 35.820312 1.3554688 C 35.820313 1.3554688 35.886032 0.24696927 35.992188 -0.65429688 z M 21.011719 24.511719 C 21.086587 24.515498 21.163773 24.538123 21.236328 24.568359 L 21.609375 24.740234 L 23.328125 25.521484 L 23.470703 25.585938 C 23.761446 25.717919 23.891966 26.060539 23.759766 26.351562 L 23.376953 27.191406 C 23.244488 27.482014 22.902261 27.609665 22.611328 27.478516 L 20.373047 26.458984 C 20.082666 26.327117 19.95586 25.985202 20.087891 25.695312 L 20.46875 24.855469 C 20.567898 24.637012 20.784116 24.513799 21.009766 24.517578 L 21.011719 24.511719 z M 19.474609 27.884766 C 19.549489 27.888545 19.62471 27.913123 19.697266 27.943359 L 21.935547 28.960938 C 22.226402 29.09409 22.354498 29.43787 22.222656 29.728516 L 21.839844 30.566406 C 21.707439 30.856296 21.365367 30.982712 21.074219 30.851562 L 18.837891 29.835938 C 18.547038 29.702747 18.418944 29.360517 18.550781 29.068359 L 18.933594 28.230469 C 19.032639 28.013146 19.248983 27.888799 19.474609 27.892578 L 19.474609 27.884766 z "
           style="fill:#1c1f24;stroke-width:0.94312006" />
      </g>
    </g>
  </g>
</svg>
