<?xml version="1.0" encoding="UTF-8" standalone="no"?>
<!-- Created with Inkscape (http://www.inkscape.org/) -->

<svg
   xmlns:dc="http://purl.org/dc/elements/1.1/"
   xmlns:cc="http://creativecommons.org/ns#"
   xmlns:rdf="http://www.w3.org/1999/02/22-rdf-syntax-ns#"
   xmlns:svg="http://www.w3.org/2000/svg"
   xmlns="http://www.w3.org/2000/svg"
   xmlns:xlink="http://www.w3.org/1999/xlink"
   xmlns:sodipodi="http://sodipodi.sourceforge.net/DTD/sodipodi-0.dtd"
   xmlns:inkscape="http://www.inkscape.org/namespaces/inkscape"
   width="48"
   height="48"
   viewBox="0 0 12.7 12.7"
   version="1.1"
   id="svg822"
   inkscape:version="0.92.3 (2405546, 2018-03-11)"
   sodipodi:docname="folder-images.svg">
  <defs
     id="defs816">
    <linearGradient
       inkscape:collect="always"
       id="linearGradient909">
      <stop
         style="stop-color:#216778;stop-opacity:1"
         offset="0"
         id="stop905" />
      <stop
         style="stop-color:#5fbcd3;stop-opacity:1"
         offset="1"
         id="stop907" />
    </linearGradient>
    <linearGradient
       inkscape:collect="always"
       xlink:href="#linearGradient909"
       id="linearGradient911"
       x1="6.3435984"
       y1="293.99127"
       x2="6.2297163"
       y2="284.35654"
       gradientUnits="userSpaceOnUse" />
  </defs>
  <sodipodi:namedview
     id="base"
     pagecolor="#ffffff"
     bordercolor="#666666"
     borderopacity="1.0"
     inkscape:pageopacity="0.0"
     inkscape:pageshadow="2"
     inkscape:zoom="5.2395833"
     inkscape:cx="24"
     inkscape:cy="24"
     inkscape:document-units="mm"
     inkscape:current-layer="g828"
     showgrid="false"
     units="px"
     inkscape:snap-smooth-nodes="true"
     inkscape:object-nodes="true"
     inkscape:snap-midpoints="true"
     showguides="true"
     inkscape:guide-bbox="true"
     inkscape:window-width="1366"
     inkscape:window-height="714"
     inkscape:window-x="0"
     inkscape:window-y="25"
     inkscape:window-maximized="1"
     inkscape:snap-global="false" />
  <metadata
     id="metadata819">
    <rdf:RDF>
      <cc:Work
         rdf:about="">
        <dc:format>image/svg+xml</dc:format>
        <dc:type
           rdf:resource="http://purl.org/dc/dcmitype/StillImage" />
        <dc:title />
      </cc:Work>
    </rdf:RDF>
  </metadata>
  <g
     inkscape:label="Capa 1"
     inkscape:groupmode="layer"
     id="layer1"
     transform="translate(0,-284.29998)">
    <g
       id="g828">
      <g
         id="g850">
        <path
           style="fill:url(#linearGradient911);fill-opacity:1;stroke:none;stroke-width:0.19860323px;stroke-linecap:butt;stroke-linejoin:miter;stroke-opacity:1"
           d="m 6.2297163,284.35653 c -1.515538,0.0144 -3.0867147,0.71884 -4.7298927,2.31644 v 0.6204 1.02246 5.67543 h 9.6875494 v -5.67543 h 0.0041 v -1.64286 c -1.5983817,-1.46262 -3.2443167,-2.33279 -4.9619277,-2.31644 z"
           id="path877-6"
           inkscape:connector-curvature="0" />
        <rect
           id="rect4"
           height="1.2745087"
           width="10.699533"
           style="opacity:1;fill:#164450;fill-opacity:1;stroke-width:0.15927376"
           y="293.98154"
           x="1.0251139" />
        <rect
           id="rect2"
           height="1.7647533"
           width="12.757987"
           style="opacity:1;fill:#216778;fill-opacity:1;stroke-width:0.15927376"
           y="295.23206"
           x="-0.028991858" />
        <path
           inkscape:connector-curvature="0"
           style="opacity:0.5;fill:#000000;fill-opacity:1;stroke:none;stroke-width:0.19860323px;stroke-linecap:butt;stroke-linejoin:miter;stroke-opacity:1"
           d="m 2.7393677,285.62703 c -0.0068,0.005 -0.013404,0.007 -0.020153,0.0119 -0.4020506,0.29093 -0.8087704,0.63464 -1.2195643,1.03404 v 0.62064 1.02216 5.6658 h -0.47439 v 1.25057 h -1.0541992 v 1.76475 h 3.3904906 v -1.76475 H 2.9631267 v -1.25057 h -0.223759 z m 7.1406493,0.003 v 8.35091 H 9.786483 v 1.25109 H 9.338448 v 1.76475 h 3.390491 v -1.76475 h -1.004073 v -1.25109 h -0.537435 v -5.66528 h 0.0041 v -1.6428 c -0.433208,-0.39641 -0.870876,-0.73931 -1.311549,-1.04283 z"
           id="path877" />
        <path
           d="m 8.2707263,285.44917 c 0,0.004 0.0098,0.0259 0.02323,0.0525 0.01223,0.0259 0.0379,0.0917 0.05623,0.14549 0.01834,0.0539 0.03911,0.10271 0.044,0.1088 0.0063,0.007 0.01099,0.0218 0.01099,0.0344 0,0.0119 0.0049,0.0316 0.01223,0.044 0.0063,0.0109 0.03057,0.0892 0.05503,0.17359 0.02323,0.0845 0.04768,0.16874 0.05379,0.18952 0.02201,0.0672 0.07458,0.34724 0.11126,0.59296 0.03422,0.22498 0.02812,0.70302 -0.01223,0.99034 -0.01098,0.0833 -0.05746,0.29343 -0.06602,0.30198 -0.0023,0.004 -0.01348,-0.038 -0.02444,-0.0904 -0.02078,-0.099 -0.033,-0.14917 -0.08802,-0.34601 -0.01712,-0.0636 -0.03422,-0.12958 -0.0379,-0.14669 -0.0023,-0.0174 -0.0098,-0.0414 -0.01466,-0.0552 -0.0063,-0.0134 -0.02813,-0.0819 -0.05014,-0.15285 -0.03912,-0.12592 -0.05135,-0.15893 -0.08925,-0.2445 -0.01099,-0.0232 -0.03057,-0.0749 -0.04524,-0.11493 -0.02568,-0.0672 -0.06235,-0.14182 -0.150383,-0.30076 -0.01955,-0.037 -0.04034,-0.0694 -0.04524,-0.0735 -0.0037,-0.007 -0.02445,-0.0304 -0.04523,-0.0609 -0.03668,-0.0539 -0.165056,-0.18338 -0.180949,-0.18338 -0.0049,0 -0.0061,0.007 -0.0025,0.0174 0.02201,0.0585 0.08558,0.42792 0.106368,0.61863 0.01346,0.12593 0.01834,0.7617 0.0061,0.78125 -0.0025,0.007 -0.011,0.076 -0.01834,0.1553 -0.0061,0.0805 -0.01711,0.17849 -0.02445,0.21882 -0.04034,0.2372 -0.05257,0.29955 -0.06113,0.29955 -0.0061,0 -0.01343,-0.0184 -0.01834,-0.0402 -0.0037,-0.0206 -0.01222,-0.0498 -0.0171,-0.0636 -0.0061,-0.0133 -0.02568,-0.0707 -0.04401,-0.12839 -0.01957,-0.0576 -0.04401,-0.12592 -0.05502,-0.15282 -0.08559,-0.19684 -0.116149,-0.26285 -0.124706,-0.26285 -0.0049,0 -0.0098,-0.0109 -0.0098,-0.0245 0,-0.0134 -0.0037,-0.0245 -0.0086,-0.0245 -0.0061,0 -0.02446,-0.026 -0.04279,-0.0585 -0.05502,-0.0978 -0.202951,-0.24699 -0.245743,-0.24699 -0.0061,0 0.0025,0.0272 0.03913,0.11617 0.04034,0.0978 0.108814,0.36311 0.127153,0.49515 0.0159,0.10637 0.01711,0.45482 0.0037,0.54406 -0.01346,0.0819 -0.06358,0.23352 -0.09292,0.28489 -0.01346,0.0218 -0.02445,0.0478 -0.02445,0.0575 0,0.008 -0.0049,0.0184 -0.0098,0.0206 -0.0049,0.003 -0.02934,0.0305 -0.05379,0.0622 -0.04524,0.0585 -0.143046,0.14307 -0.167499,0.14307 -0.0073,0 -0.01346,0.007 -0.01346,0.0109 0,0.0174 -0.108814,0.0498 -0.166276,0.0498 -0.02935,0 -0.07091,-0.008 -0.09292,-0.0196 -0.04524,-0.0206 -0.132043,-0.1357 -0.132043,-0.17481 0,-0.0133 -0.0049,-0.0272 -0.011,-0.0305 -0.0049,-0.007 -0.01711,-0.0413 -0.02567,-0.0831 l -0.01467,-0.0771 -0.03056,0.0672 c -0.01711,0.037 -0.03546,0.0759 -0.04034,0.0881 -0.04646,0.0868 -0.07336,0.33992 -0.05013,0.46461 0.01467,0.0805 0.06235,0.23108 0.0758,0.24209 0.0037,0.007 0.01957,0.0293 0.03423,0.0575 0.01346,0.0283 0.05257,0.0805 0.08681,0.11614 0.03301,0.0357 0.05991,0.0695 0.05991,0.0771 0,0.007 -0.0159,0.0832 -0.03668,0.17116 -0.05257,0.22254 -0.0648,0.31056 -0.0648,0.4646 0,0.13694 0.0073,0.20539 0.03179,0.29343 0.022,0.0832 0.07336,0.2323 0.08314,0.24453 0.0049,0.007 0.01222,0.20784 0.0171,0.44626 0.0037,0.23841 0.01222,0.60764 0.01834,0.81916 0.0061,0.2115 0.01222,0.40712 0.01345,0.43402 0.0012,0.0782 0.02079,0.0245 0.02934,-0.0856 0.011,-0.12715 0.04279,-0.38511 0.05257,-0.41568 0.0037,-0.012 0.011,-0.0539 0.0159,-0.0917 0.0098,-0.0695 0.04646,-0.25552 0.07825,-0.39124 0.02445,-0.10638 0.09659,-0.30443 0.143047,-0.39614 0.04278,-0.0845 0.108807,-0.15404 0.16627,-0.1736 0.04157,-0.0161 0.305654,-0.0146 0.413246,0 0.114926,0.016 0.311768,0.0833 0.311768,0.10638 0,0.007 0.0073,0.0109 0.01711,0.0109 0.02568,0 0.134488,0.12469 0.165052,0.18828 0.05257,0.11247 0.05869,0.27751 0.01834,0.47561 -0.02445,0.12223 -0.02445,0.12468 0.02323,0.0917 0.09903,-0.0708 0.332553,-0.30079 0.344778,-0.34113 0.0049,-0.0134 0.01224,-0.0231 0.01589,-0.0231 0.01347,0 0.108814,-0.18949 0.140602,-0.28119 0.01589,-0.044 0.04646,-0.1345 0.06848,-0.2017 0.03422,-0.1064 0.108811,-0.24821 0.139377,-0.26046 0.0049,-0.004 0.0086,-0.0109 0.0086,-0.0196 0,-0.008 0.04036,-0.0552 0.08925,-0.1027 0.116149,-0.11369 0.143045,-0.13691 0.224961,-0.18584 0.05624,-0.0343 0.08436,-0.0428 0.150384,-0.0467 0.07338,-0.007 0.08436,-0.004 0.119815,0.0283 0.04278,0.0357 0.0758,0.12473 0.0758,0.20419 0,0.0623 0.01589,0.0511 0.03669,-0.026 0.0086,-0.0342 0.02078,-0.0586 0.02691,-0.0552 0.0049,0.007 0.0098,-0.0161 0.0098,-0.0427 0,-0.0258 0.0049,-0.0499 0.01224,-0.0525 0.01465,-0.007 0.03669,-0.15162 0.03669,-0.25065 0,-0.099 -0.02442,-0.26164 -0.03789,-0.25308 -0.0063,0.007 -0.01098,-0.0134 -0.01098,-0.037 0,-0.0245 -0.0049,-0.0441 -0.01224,-0.0441 -0.0063,0 -0.01223,-0.0104 -0.01223,-0.0217 0,-0.0119 -0.02202,-0.0651 -0.04889,-0.1186 l -0.05015,-0.0965 0.03546,-0.0794 c 0.01956,-0.0441 0.04278,-0.10638 0.05255,-0.13939 0.0086,-0.0316 0.02078,-0.0576 0.02568,-0.0576 0.0049,0 0.0098,-0.0343 0.0098,-0.0771 0,-0.0539 0.0035,-0.0706 0.01224,-0.0576 0.0086,0.0133 0.01224,0.004 0.01224,-0.0402 0,-0.037 -0.0049,-0.0565 -0.01224,-0.0511 -0.0075,0.007 -0.01224,-0.0148 -0.01224,-0.0498 0,-0.0315 -0.0035,-0.0539 -0.0075,-0.0498 -0.0049,0.007 -0.01715,-0.01 -0.02932,-0.0304 -0.01098,-0.0218 -0.02568,-0.0402 -0.0318,-0.0428 -0.0063,-0.003 -0.03547,0.0467 -0.06601,0.10759 -0.03058,0.0608 -0.06722,0.12106 -0.08191,0.13328 -0.01588,0.0119 -0.02812,0.0293 -0.02812,0.038 0,0.008 -0.0021,0.0119 -0.0063,0.008 -0.0035,-0.007 -0.02691,0.0134 -0.05256,0.038 -0.103926,0.0978 -0.204179,0.093 -0.31666,-0.0174 -0.06234,-0.0609 -0.06481,-0.065 -0.06481,-0.1296 0,-0.0685 0.01713,-0.15772 0.03547,-0.20053 0.01835,-0.039 0.05869,-0.17603 0.08069,-0.26894 0.0098,-0.0478 0.02201,-0.0966 0.02568,-0.11005 0.0074,-0.0271 0.01957,-0.0942 0.04157,-0.23842 0.01713,-0.11615 0.01713,-0.50005 -0.0011,-0.63576 -0.02324,-0.18462 -0.033,-0.2482 -0.05256,-0.35455 -0.02568,-0.13082 -0.07825,-0.35334 -0.0917,-0.38514 -0.0063,-0.0134 -0.03057,-0.0904 -0.05624,-0.17116 -0.02444,-0.0805 -0.0538,-0.17484 -0.06601,-0.20784 -0.03912,-0.10637 -0.132043,-0.34356 -0.151604,-0.38635 -0.01099,-0.0231 -0.03667,-0.0832 -0.05745,-0.13327 -0.022,-0.0499 -0.05255,-0.12226 -0.06969,-0.15894 -0.04036,-0.0892 -0.204184,-0.42059 -0.21152,-0.4279 -0.0036,-0.007 -0.03422,-0.0623 -0.06723,-0.13084 -0.03423,-0.0685 -0.0648,-0.12594 -0.0697,-0.12594 -0.0062,0 -0.0098,0.003 -0.0098,0.007 z m -0.05745,4.18259 c 0.172391,0.0414 0.331332,0.14916 0.36312,0.24696 0.02324,0.0672 -0.01712,0.13326 -0.113705,0.18706 -0.02568,0.0147 -0.05379,0.0259 -0.06359,0.0259 -0.0098,0 -0.01834,0.007 -0.01834,0.0119 0,0.007 -0.01346,0.012 -0.03057,0.012 -0.01712,0 -0.03058,0.007 -0.03058,0.0109 0,0.007 -0.01834,0.0134 -0.03912,0.0174 -0.02201,0.007 -0.08191,0.0133 -0.132043,0.023 -0.05379,0.008 -0.180945,0.0161 -0.305654,0.0161 -0.124706,0 -0.25186,-0.007 -0.305655,-0.0161 -0.05013,-0.0104 -0.110036,-0.0196 -0.13082,-0.023 -0.02201,-0.007 -0.04034,-0.0109 -0.04034,-0.0174 0,-0.007 -0.01345,-0.0109 -0.03056,-0.0109 -0.01711,0 -0.03057,-0.007 -0.03057,-0.0104 0,-0.007 -0.02323,-0.0185 -0.05257,-0.0305 -0.07947,-0.0328 -0.144269,-0.099 -0.143047,-0.14548 0.0012,-0.038 0.416913,-0.20051 0.739685,-0.28976 0.102701,-0.0283 0.265309,-0.0316 0.364341,-0.008 z"
           id="path8"
           inkscape:connector-curvature="0"
           style="fill:#1c1f24;stroke:none;stroke-width:0.00122261" />
        <path
           d="m 4.2375126,285.483 c -0.05382,0.0967 -0.313137,0.61283 -0.313137,0.62262 0,0.007 -0.02446,0.0598 -0.05382,0.12231 -0.1210949,0.25563 -0.2898949,0.72046 -0.3681779,1.0128 -0.103971,0.38531 -0.1284351,0.55288 -0.1369971,0.9174 -0.0049,0.22871 -0.0024,0.31802 0.01467,0.43423 0.0208,0.15534 0.05994,0.33881 0.07951,0.37918 0.01957,0.0414 0.08685,0.29601 0.09418,0.3596 0.0049,0.0467 0.0012,0.0707 -0.0208,0.11375 -0.02569,0.0539 -0.03669,0.0623 -0.1186492,0.10887 -0.1455602,0.0819 -0.3033511,-0.0342 -0.4440171,-0.32413 l -0.02813,-0.0598 -0.02691,0.0328 c -0.01589,0.0196 -0.03425,0.0553 -0.04159,0.0806 -0.03669,0.12478 0.0061,0.36939 0.09296,0.52107 l 0.02813,0.0498 -0.05382,0.10887 c -0.0685,0.13712 -0.1174261,0.33038 -0.1174261,0.46614 0,0.10399 0.03303,0.28011 0.07462,0.40123 0.03792,0.10886 0.04281,0.11252 0.04404,0.0272 0.0024,-0.0905 0.03792,-0.17981 0.08562,-0.21039 0.01957,-0.0134 0.05505,-0.0206 0.102748,-0.0196 0.116203,0 0.2336291,0.072 0.398759,0.24464 0.04281,0.0441 0.07706,0.0833 0.07706,0.0881 0,0.007 0.0073,0.0174 0.0159,0.0258 0.0477,0.0489 0.1210962,0.20181 0.152899,0.31801 0.04526,0.16392 0.152898,0.40243 0.196933,0.43792 0.0049,0.007 0.01835,0.0218 0.03058,0.0427 0.03792,0.0587 0.178584,0.19938 0.271547,0.27034 0.0477,0.037 0.08929,0.0662 0.09296,0.0662 0.0037,0 -0.0037,-0.0454 -0.01713,-0.10156 -0.03181,-0.12721 -0.04159,-0.31314 -0.02202,-0.38042 0.0526,-0.17491 0.09908,-0.24095 0.233629,-0.32657 0.0526,-0.0357 0.1688001,-0.0707 0.2984571,-0.0942 0.08685,-0.0146 0.4146601,-0.0104 0.4342309,0.007 0.0098,0.008 0.03548,0.0293 0.05627,0.0468 0.04893,0.0392 0.151676,0.24586 0.18837,0.37918 0.015899,0.0539 0.03792,0.13333 0.05015,0.17739 0.03669,0.13209 0.07706,0.36447 0.1149797,0.66662 0.03914,0.30212 0.04281,0.32781 0.04893,0.33392 0.0037,0.007 0.0061,-0.0402 0.0073,-0.0967 0,-0.0565 0.00249,-0.11619 0.0049,-0.13332 0.00249,-0.0174 0.01102,-0.36328 0.019569,-0.7706 0.013459,-0.68989 0.015901,-0.74371 0.03914,-0.79508 0.05627,-0.12967 0.08318,-0.25931 0.09052,-0.43177 0.0086,-0.19328 -0.0061,-0.32417 -0.05871,-0.53211 -0.019569,-0.0771 -0.03548,-0.15045 -0.03548,-0.16268 0,-0.0134 0.018341,-0.0402 0.04036,-0.0587 0.020799,-0.0196 0.05871,-0.0674 0.08195,-0.10763 0.023241,-0.0392 0.04648,-0.0735 0.05137,-0.0771 0.0037,-0.007 0.023241,-0.05 0.04159,-0.10397 0.02691,-0.0806 0.03425,-0.12479 0.03914,-0.25076 0.0061,-0.1798 -0.020799,-0.31681 -0.08685,-0.44891 l -0.03914,-0.0794 -0.0086,0.0565 c -0.015899,0.11622 -0.05749,0.21162 -0.1162037,0.27033 -0.08562,0.0845 -0.171246,0.0893 -0.309467,0.0161 -0.1418861,-0.0749 -0.2788831,-0.26054 -0.3351481,-0.45378 -0.0526,-0.18473 -0.05627,-0.53333 -0.0086,-0.76818 0.02324,-0.11377 0.116203,-0.43545 0.13822,-0.4795 0.0061,-0.012 0.0086,-0.0259 0.0049,-0.0293 -0.01222,-0.0119 -0.125989,0.0845 -0.173692,0.148 -0.02569,0.0344 -0.05015,0.0651 -0.05505,0.0685 -0.05015,0.0402 -0.267878,0.55287 -0.30702,0.72044 -0.0073,0.0343 -0.01713,0.0623 -0.02202,0.0623 -0.01102,0 -0.04648,-0.17004 -0.06728,-0.31804 -0.07706,-0.56511 -0.05382,-1.28679 0.05505,-1.67945 0.01346,-0.0478 0.02446,-0.0893 0.02446,-0.0917 0,-0.0133 -0.05993,0.033 -0.112533,0.0868 -0.05382,0.0565 -0.156568,0.19203 -0.156568,0.20917 0,0.007 -0.01589,0.0293 -0.03425,0.0587 -0.01957,0.0293 -0.05137,0.0905 -0.07217,0.13821 -0.0208,0.0467 -0.05015,0.11253 -0.06483,0.14431 -0.01346,0.0316 -0.04159,0.10644 -0.06238,0.16515 -0.0208,0.0587 -0.04404,0.12232 -0.05382,0.1431 -0.03058,0.0664 -0.181031,0.63728 -0.207941,0.78285 l -0.0086,0.0489 -0.02324,-0.0735 c -0.1051941,-0.34004 -0.1113101,-1.08499 -0.0098,-1.54732 0.04159,-0.19206 0.112534,-0.48195 0.12232,-0.50154 0.0049,-0.0104 0.03303,-0.0905 0.06116,-0.17736 0.02691,-0.0881 0.05993,-0.18101 0.07217,-0.20795 0.0685,-0.15288 0.07706,-0.192 0.01957,-0.0881 z m 0.594469,4.18085 c 0.09541,0.0283 0.183477,0.0565 0.193264,0.0609 0.02691,0.0147 0.173692,0.072 0.1859241,0.072 0.01467,0 0.2177269,0.0991 0.223844,0.11007 0.0098,0.016 -0.03303,0.0979 -0.05137,0.0979 -0.0086,0 -0.0159,0.007 -0.0159,0.012 0,0.007 -0.02569,0.0231 -0.05749,0.038 -0.03303,0.0133 -0.07461,0.0328 -0.09418,0.0427 -0.01957,0.0104 -0.04893,0.0174 -0.06483,0.0174 -0.01469,0 -0.02813,0.007 -0.02813,0.0109 0,0.0132 -0.05627,0.0218 -0.266656,0.0402 -0.124764,0.0104 -0.200602,0.0104 -0.318028,-0.003 -0.2128352,-0.0196 -0.259315,-0.0271 -0.259315,-0.0392 0,-0.007 -0.01834,-0.0109 -0.04159,-0.0109 -0.02324,0 -0.04404,-0.007 -0.04648,-0.0104 -0.0012,-0.007 -0.03303,-0.0217 -0.0685,-0.038 -0.07217,-0.0343 -0.1443379,-0.0991 -0.151677,-0.13944 -0.01835,-0.0979 0.09663,-0.21896 0.271547,-0.28499 0.08562,-0.0316 0.154123,-0.0402 0.289897,-0.0357 0.1003,0.007 0.1565682,0.0148 0.2996802,0.0565 z"
           id="path6"
           inkscape:connector-curvature="0"
           style="fill:#1c1f24;stroke:none;stroke-width:0.00122317" />
        <ellipse
           ry="0.2982676"
           rx="0.28996941"
           cy="289.87949"
           cx="4.618608"
           id="path876"
           style="opacity:1;fill:#1c2224;fill-opacity:1;fill-rule:nonzero;stroke:none;stroke-width:1.41465473;stroke-linejoin:round;stroke-miterlimit:4;stroke-dasharray:none;stroke-opacity:1" />
        <ellipse
           transform="scale(-1,1)"
           ry="0.2982676"
           rx="0.28996941"
           cy="289.89206"
           cx="-7.945745"
           id="path876-3"
           style="opacity:1;fill:#1c2224;fill-opacity:1;fill-rule:nonzero;stroke:none;stroke-width:1.41465473;stroke-linejoin:round;stroke-miterlimit:4;stroke-dasharray:none;stroke-opacity:1" />
      </g>
    </g>
  </g>
</svg>
