<?xml version="1.0" encoding="UTF-8" standalone="no"?>
<!-- Created with Inkscape (http://www.inkscape.org/) -->

<svg
   xmlns:dc="http://purl.org/dc/elements/1.1/"
   xmlns:cc="http://creativecommons.org/ns#"
   xmlns:rdf="http://www.w3.org/1999/02/22-rdf-syntax-ns#"
   xmlns:svg="http://www.w3.org/2000/svg"
   xmlns="http://www.w3.org/2000/svg"
   xmlns:sodipodi="http://sodipodi.sourceforge.net/DTD/sodipodi-0.dtd"
   xmlns:inkscape="http://www.inkscape.org/namespaces/inkscape"
   id="svg2906"
   width="64"
   height="64"
   version="1.0"
   sodipodi:docname="gnome-fs-directory-accept2.svg"
   inkscape:version="0.92.3 (2405546, 2018-03-11)">
  <metadata
     id="metadata49">
    <rdf:RDF>
      <cc:Work
         rdf:about="">
        <dc:format>image/svg+xml</dc:format>
        <dc:type
           rdf:resource="http://purl.org/dc/dcmitype/StillImage" />
        <dc:title></dc:title>
      </cc:Work>
    </rdf:RDF>
  </metadata>
  <sodipodi:namedview
     pagecolor="#ffffff"
     bordercolor="#666666"
     borderopacity="1"
     objecttolerance="10"
     gridtolerance="10"
     guidetolerance="10"
     inkscape:pageopacity="0"
     inkscape:pageshadow="2"
     inkscape:window-width="1366"
     inkscape:window-height="686"
     id="namedview47"
     showgrid="false"
     inkscape:zoom="2.6958446"
     inkscape:cx="37.329012"
     inkscape:cy="32.200461"
     inkscape:window-x="0"
     inkscape:window-y="28"
     inkscape:window-maximized="1"
     inkscape:current-layer="svg2906"
     showguides="true"
     inkscape:guide-bbox="true" />
  <defs
     id="defs2908">
    <radialGradient
       id="radialGradient2904"
       cx="3"
       cy="5.0172"
       r="21"
       gradientTransform="matrix(-1.7093e-8 2.28 -2.8952 -1.9417e-8 16.801 2.2898)"
       gradientUnits="userSpaceOnUse">
      <stop
         id="stop3486"
         style="stop-color:#bdbdbd"
         offset="0" />
      <stop
         id="stop3488"
         style="stop-color:#d0d0d0"
         offset="1" />
    </radialGradient>
    <linearGradient
       id="linearGradient2902"
       x1="62.989"
       x2="62.989"
       y1="13.183"
       y2="16.19"
       gradientTransform="matrix(1.3408 0 0 1.33 -68.673 -1.51)"
       gradientUnits="userSpaceOnUse">
      <stop
         id="stop6406"
         style="stop-color:#f9f9f9"
         offset="0" />
      <stop
         id="stop6408"
         style="stop-color:#c9c9c9"
         offset="1" />
    </linearGradient>
    <radialGradient
       id="radialGradient2880"
       cx="605.71"
       cy="486.65"
       r="117.14"
       gradientTransform="matrix(-.03213 0 0 .037059 23.363 25.412)"
       gradientUnits="userSpaceOnUse">
      <stop
         id="stop2681"
         offset="0" />
      <stop
         id="stop2683"
         style="stop-opacity:0"
         offset="1" />
    </radialGradient>
    <radialGradient
       id="radialGradient2878"
       cx="605.71"
       cy="486.65"
       r="117.14"
       gradientTransform="matrix(.03213 0 0 .037059 24.637 25.412)"
       gradientUnits="userSpaceOnUse">
      <stop
         id="stop2675"
         offset="0" />
      <stop
         id="stop2677"
         style="stop-opacity:0"
         offset="1" />
    </radialGradient>
    <linearGradient
       id="linearGradient2876"
       x1="302.86"
       x2="302.86"
       y1="366.65"
       y2="609.51"
       gradientTransform="matrix(.08284 0 0 .037059 -5.9408 25.412)"
       gradientUnits="userSpaceOnUse">
      <stop
         id="stop2667"
         style="stop-opacity:0"
         offset="0" />
      <stop
         id="stop2669"
         offset=".5" />
      <stop
         id="stop2671"
         style="stop-opacity:0"
         offset="1" />
    </linearGradient>
    <linearGradient
       id="linearGradient2895"
       x1="82.453"
       x2="65.34"
       y1="45.114"
       y2="15.944"
       gradientTransform="matrix(1.3408 0 0 1.3265 -72.463 -1.6032)"
       gradientUnits="userSpaceOnUse">
      <stop
         id="stop3624-5"
         style="stop-color:#bb2b12"
         offset="0" />
      <stop
         id="stop3626-7"
         style="stop-color:#cd7233"
         offset="1" />
    </linearGradient>
    <radialGradient
       id="radialGradient2893"
       cx="63.969"
       cy="14.113"
       r="23.097"
       gradientTransform="matrix(2.0979 -1.262e-7 8.2824e-8 1.3475 -115.97 9.3537)"
       gradientUnits="userSpaceOnUse">
      <stop
         id="stop3618-2"
         style="stop-color:#edb763"
         offset="0" />
      <stop
         id="stop2559"
         style="stop-color:#de7f32"
         offset=".5" />
      <stop
         id="stop3620-1"
         style="stop-color:#d24413"
         offset="1" />
    </radialGradient>
    <linearGradient
       id="linearGradient2890"
       x1="22.935"
       x2="22.809"
       y1="49.629"
       y2="36.658"
       gradientTransform="matrix(1.5348 0 0 1.327 -5.0206 -.048542)"
       gradientUnits="userSpaceOnUse">
      <stop
         id="stop2661"
         style="stop-color:#0a0a0a;stop-opacity:.498"
         offset="0" />
      <stop
         id="stop2663"
         style="stop-color:#0a0a0a;stop-opacity:0"
         offset="1" />
    </linearGradient>
    <radialGradient
       id="radialGradient2887"
       cx="7.2647"
       cy="8.3021"
       r="20.98"
       gradientTransform="matrix(0 1.6066 -2.1817 0 34.686 9.2848)"
       gradientUnits="userSpaceOnUse">
      <stop
         id="stop2693"
         style="stop-color:#fff;stop-opacity:.4"
         offset="0" />
      <stop
         id="stop2695"
         style="stop-color:#fff;stop-opacity:0"
         offset="1" />
    </radialGradient>
    <linearGradient
       id="linearGradient2884"
       x1="11.566"
       x2="15.215"
       y1="22.292"
       y2="33.955"
       gradientTransform="matrix(1.3408 0 0 1.33 -.37331 -1.31)"
       gradientUnits="userSpaceOnUse">
      <stop
         id="stop2687"
         style="stop-color:#fff;stop-opacity:.27451"
         offset="0" />
      <stop
         id="stop2689"
         style="stop-color:#fff;stop-opacity:.078431"
         offset="1" />
    </linearGradient>
  </defs>
  <path
     style="fill:#800000;stroke-width:0.93863195"
     d="M 27.878906 0.53515625 C 16.856303 0.53515625 7.921875 9.267357 7.921875 20.044922 L 7.921875 52.560547 L 56.707031 52.560547 L 56.707031 20.044922 C 56.707031 9.2682866 47.772599 0.53515625 36.75 0.53515625 L 27.878906 0.53515625 z M 41.21875 17.541016 C 41.584323 17.481439 41.74839 17.862537 41.71875 18.142578 C 41.69265 18.405661 41.561313 18.806132 41.658203 19.050781 C 41.749783 19.280536 42.037736 19.694349 41.6875 19.882812 C 41.33284 20.074078 40.068342 20.052815 40.546875 19.25 C 40.613235 19.139547 40.769166 19.101205 40.853516 18.986328 C 41.00703 18.775007 40.59909 17.640266 41.21875 17.541016 z M 35.265625 17.916016 C 35.479298 17.973238 35.613089 18.220504 35.628906 18.431641 C 35.648226 18.695608 35.59277 19.11352 35.732422 19.333984 C 35.865733 19.542061 36.556363 19.827337 36.078125 20.208984 C 35.761512 20.458942 34.349434 20.610776 34.675781 19.734375 C 34.717957 19.613157 34.869078 19.545529 34.929688 19.417969 C 35.043827 19.181431 34.434228 18.139388 35.027344 17.929688 C 35.115382 17.898166 35.194401 17.896942 35.265625 17.916016 z M 45.925781 19.896484 C 46.292091 19.835433 46.456344 20.215463 46.427734 20.496094 C 46.400744 20.759177 46.270297 21.160975 46.367188 21.404297 C 46.458768 21.634052 46.74672 22.049817 46.396484 22.238281 C 46.041824 22.429546 44.777179 22.408137 45.255859 21.605469 C 45.321335 21.495016 45.47815 21.45579 45.5625 21.341797 C 45.716014 21.131213 45.306122 19.995734 45.925781 19.896484 z M 40.798828 20.361328 C 40.798828 20.361328 42.294568 20.421759 41.820312 21.222656 C 41.638189 21.529832 41.523756 21.431851 41.292969 22.59375 C 41.238111 22.85521 41.060329 23.394426 41.136719 23.644531 C 41.207652 23.882839 41.69881 24.206038 41.269531 24.640625 C 41.269531 24.640625 39.091408 24.674526 40.013672 23.632812 C 40.099498 23.536368 40.215104 23.338894 40.308594 23.232422 C 40.483784 23.034815 40.617355 22.13711 40.394531 21.382812 C 40.394531 21.382813 39.854739 20.237455 40.798828 20.361328 z M 35.789062 20.789062 C 36.122745 20.816786 36.42528 20.956142 36.302734 21.404297 C 36.21071 21.749076 36.073146 21.685381 36.160156 22.867188 C 36.179475 23.131597 36.151364 23.699015 36.291016 23.919922 C 36.424474 24.129473 36.985274 24.312312 36.689453 24.845703 C 36.689453 24.845703 34.600679 25.457594 35.208984 24.208984 C 35.264285 24.093222 35.326999 23.872143 35.386719 23.744141 C 35.501597 23.507898 35.392274 22.608993 34.976562 21.941406 C 34.976563 21.941406 34.147377 20.980046 35.089844 20.845703 C 35.089844 20.845703 35.45538 20.761339 35.789062 20.789062 z M 49.71875 22.597656 C 50.084323 22.537047 50.24839 22.91575 50.21875 23.197266 C 50.19176 23.460496 50.061313 23.861079 50.158203 24.103516 C 50.250803 24.334303 50.538067 24.750842 50.189453 24.939453 C 49.833908 25.130719 48.570147 25.110341 49.048828 24.306641 C 49.113271 24.196188 49.269016 24.155893 49.353516 24.041016 C 49.507915 23.830432 49.098353 22.696906 49.71875 22.597656 z M 45.386719 22.708984 C 45.386719 22.708984 46.671421 22.757923 46.263672 23.371094 C 46.105587 23.60778 46.010071 23.532238 45.810547 24.423828 C 45.766598 24.623205 45.611191 25.03725 45.675781 25.228516 C 45.736836 25.410786 46.161049 25.663407 45.792969 25.996094 C 45.79297 25.996094 43.923679 26.019389 44.714844 25.220703 L 44.96875 24.914062 C 45.11695 24.762317 45.234235 24.0752 45.042969 23.496094 C 45.042969 23.496094 44.575056 22.613724 45.386719 22.708984 z M 40.833984 25.191406 C 41.256811 25.230375 41.624502 25.397411 41.40625 25.910156 C 41.236662 26.303452 41.077041 26.221602 41.019531 27.587891 C 41.005961 27.893297 40.889936 28.54835 41.037109 28.810547 C 41.174401 29.058883 41.861703 29.295848 41.410156 29.896484 C 41.410156 29.896484 38.560921 30.538072 39.507812 29.126953 C 39.596146 28.996296 39.712777 28.769482 39.810547 28.623047 C 39.987066 28.355393 40.021148 26.903547 39.683594 26.320312 C 39.683594 26.320312 38.720081 25.351313 39.933594 25.242188 C 39.933594 25.242188 40.411157 25.152438 40.833984 25.191406 z M 36.572266 25.294922 C 36.996549 25.277723 37.383981 25.395705 37.234375 25.933594 C 37.120381 26.345324 36.946882 26.285834 37.070312 27.648438 C 37.095971 27.95281 37.06869 28.616312 37.246094 28.857422 C 37.417157 29.083342 38.127551 29.228202 37.759766 29.882812 C 37.759766 29.882812 35.02065 30.892741 35.775391 29.367188 C 35.845438 29.226799 35.930543 28.988347 36.007812 28.832031 C 36.148793 28.542405 35.99096 27.098028 35.582031 26.566406 C 35.582031 26.566406 34.496845 25.732351 35.6875 25.464844 C 35.6875 25.464844 36.147982 25.31212 36.572266 25.294922 z M 48.986328 25.554688 C 49.052628 25.555385 49.132109 25.57052 49.228516 25.603516 C 49.228515 25.603516 50.470813 25.927022 49.949219 26.392578 C 49.747188 26.573521 49.669343 26.484128 49.294922 27.246094 C 49.210571 27.418041 48.97478 27.759687 49 27.947266 C 49.0233 28.12467 49.386346 28.444224 48.958984 28.666016 C 48.958984 28.666016 47.126633 28.277355 48.060547 27.726562 C 48.1477 27.677162 48.276897 27.562779 48.373047 27.505859 C 48.549124 27.403074 48.801582 26.802457 48.732422 26.236328 C 48.732422 26.236328 48.522232 25.549805 48.986328 25.554688 z M 44.556641 26.421875 C 44.869678 26.453193 45.190731 26.600617 45.394531 26.921875 C 45.572378 27.197935 45.353946 27.562637 44.945312 27.849609 C 44.478283 28.177873 44.259572 29.494716 44.369141 30.052734 C 44.418541 30.318619 44.852903 30.706889 44.46875 31.130859 C 44.147417 31.48198 43.415479 31.303867 42.939453 30.804688 C 42.743763 30.597643 42.790068 30.179393 43.291016 30.003906 C 43.809073 29.823848 43.867188 27.699219 43.867188 27.699219 C 43.867188 27.699219 43.266299 27.048787 43.765625 26.623047 C 43.938457 26.476021 44.243603 26.390557 44.556641 26.421875 z M 47.544922 28.662109 C 47.631105 28.676585 47.730861 28.712643 47.849609 28.775391 C 47.849609 28.775391 49.400239 29.453209 48.625 29.953125 C 48.326968 30.144391 48.244338 30.011996 47.599609 30.929688 C 47.456123 31.133488 47.080519 31.529191 47.074219 31.779297 C 47.06891 32.01554 47.474569 32.506917 46.873047 32.707031 C 46.873047 32.707031 44.568389 31.830852 45.896484 31.304688 C 46.019472 31.256024 46.212871 31.133908 46.347656 31.080078 C 46.598056 30.977736 47.050039 30.252086 47.074219 29.5 C 47.074219 29.5 46.941642 28.560777 47.544922 28.662109 z M 26.677734 29.28125 C 26.853012 29.249123 27.12678 29.381675 27.537109 29.851562 C 27.842368 30.203126 28.418363 30.679824 28.439453 31.054688 C 28.469978 31.619488 27.588155 32.606824 26.435547 30.001953 C 26.366237 29.843978 26.385604 29.334795 26.677734 29.28125 z M 39.96875 30.5625 C 40.378047 30.544712 40.825704 30.739782 41.060547 30.851562 C 42.233211 31.412383 40.759766 32.955078 40.759766 32.955078 C 40.309989 37.063237 41.162109 37.664062 41.162109 37.664062 C 42.144392 36.869359 42.48666 34.571497 42.3125 33.507812 C 41.916402 31.068547 42.854295 31.605645 43.367188 31.703125 C 45.242832 32.05926 44.03814 32.886452 43.869141 33.255859 C 42.501672 36.250635 42.576465 37.658963 43.015625 37.867188 C 43.650474 38.169055 44.50458 35.42215 44.46875 34.509766 C 44.402242 32.783509 45.062139 32.742879 45.570312 32.755859 C 47.625866 32.807473 45.770894 34.511812 45.771484 34.507812 C 44.417287 35.860239 44.267578 38.515625 44.267578 38.515625 C 44.467839 40.267543 42.414062 39.265625 42.414062 39.265625 C 41.764024 39.016991 39.408203 38.964844 39.408203 38.964844 C 36.251507 39.216424 37.213374 38.060561 37.302734 37.414062 C 37.502995 35.961061 36.954169 33.677038 36.402344 32.705078 C 35.052277 30.327307 36.702657 30.599609 36.853516 30.599609 C 38.872203 30.599609 37.955078 32.455078 37.955078 32.455078 C 37.453982 34.460346 38.955078 37.664062 38.955078 37.664062 C 40.056958 38.264699 39.607422 32.955078 39.607422 32.955078 C 39.206457 32.555145 39.066132 31.924685 39.107422 31.554688 C 39.18934 30.811818 39.559453 30.580288 39.96875 30.5625 z M 29.173828 31.650391 C 29.988523 31.684982 29.490234 32.755859 29.490234 32.755859 L 30.84375 34.410156 C 32.695356 34.410156 31.193359 35.612875 31.193359 35.609375 C 29.54113 36.713762 29.890625 34.859375 29.890625 34.859375 L 28.640625 33.306641 C 28.28803 33.356928 27.787109 33.15625 27.787109 33.15625 C 26.885196 32.505327 28.738281 31.705078 28.738281 31.705078 C 28.913547 31.66152 29.057443 31.645449 29.173828 31.650391 z M 32.564453 35.398438 C 33.38866 35.427186 33.195312 36.615234 33.195312 36.615234 C 35.501561 39.221138 36.152344 38.919922 36.152344 38.919922 C 37.605344 39.321329 35.750947 40.773438 35.748047 40.773438 C 34.697928 41.274533 34.496094 39.671875 34.496094 39.671875 L 32.34375 37.515625 C 31.94367 37.515625 31.443359 37.267578 31.443359 37.267578 C 30.192095 36.516819 32.144531 35.462891 32.144531 35.462891 C 32.307299 35.412844 32.446709 35.394331 32.564453 35.398438 z M 39.841797 39.439453 C 40.856154 39.382899 42.139692 39.571854 43.216797 40.548828 C 43.216797 40.548828 44.742552 42.077845 42.916016 42.654297 C 41.684069 43.040515 39.383367 43.179641 37.806641 42.154297 C 37.806641 42.154297 35.928705 40.773849 38.082031 39.796875 C 38.082031 39.796875 38.82744 39.496007 39.841797 39.439453 z M 37.748047 42.833984 C 38.663221 42.720798 40.410156 43.677734 40.410156 43.677734 C 41.612461 44.780351 39.109375 49.089844 39.109375 49.089844 L 37.503906 48.888672 C 37.40466 47.987201 37.207031 43.378906 37.207031 43.378906 C 37.231843 43.028228 37.442989 42.871713 37.748047 42.833984 z M 42.875 43.554688 C 43.723348 43.568859 43.830742 44.250148 43.917969 48.789062 L 42.214844 48.888672 C 42.214844 48.888672 40.460426 43.784763 42.462891 43.580078 C 42.616442 43.564133 42.753807 43.552663 42.875 43.554688 z "
     id="path6" />
  <rect
     id="rect2"
     height="8.8831387"
     width="64.219154"
     style="fill:#550000;stroke-width:0.80172729"
     y="54.769371"
     x="0.085094213" />
  <rect
     id="rect4"
     height="6.415422"
     width="53.857635"
     style="fill:#2b0000;stroke-width:0.80172729"
     y="48.725147"
     x="5.2658563" />
  <path
     style="opacity:0.51000001;fill:#000000;fill-opacity:1;stroke:none;stroke-width:1px;stroke-linecap:butt;stroke-linejoin:miter;stroke-opacity:1"
     d="M 56.754013,48.976879 V 18.559695 C 55.745028,13.181047 54.611934,7.8023987 45.625775,2.4237505 c 2.42686,5.1704343 6.592476,9.4046155 6.120531,16.1359445 v 30.417184 z"
     id="path906"
     inkscape:connector-curvature="0"
     sodipodi:nodetypes="cccccc" />
  <path
     style="opacity:0.51000001;fill:#000000;fill-opacity:1;stroke:none;stroke-width:1px;stroke-linecap:butt;stroke-linejoin:miter;stroke-opacity:1"
     d="M 7.888807,48.976878 V 18.559695 C 8.897792,13.181047 10.030886,7.8023992 19.017045,2.4237502 16.590185,7.5941852 12.424569,11.828366 12.896514,18.559695 v 30.417183 z"
     id="path906-7"
     inkscape:connector-curvature="0"
     sodipodi:nodetypes="cccccc" />
</svg>
