<svg xmlns="http://www.w3.org/2000/svg" xmlns:xlink="http://www.w3.org/1999/xlink" width="48" height="48" viewBox="0 0 12.7 12.7"><defs><linearGradient id="a"><stop offset="0" stop-color="#216778"/><stop offset="1" stop-color="#5fbcd3"/></linearGradient><linearGradient xlink:href="#a" id="b" x1="6.34" y1="293.99" x2="6.23" y2="284.36" gradientUnits="userSpaceOnUse"/></defs><path d="M6.23 284.36c-1.52.01-3.09.72-4.73 2.31V294h9.69v-7.32c-1.6-1.46-3.24-2.33-4.96-2.31z" fill="url(#b)" transform="translate(0 -284.3)"/><path fill="#164450" d="M1.03 9.68h10.7v1.27H1.03z"/><path fill="#216778" d="M-.03 10.93h12.76v1.76H-.03z"/><path d="M2.74 1.33h-.02c-.4.3-.81.64-1.22 1.04V9.68h-.47v1.25H-.03v1.77h3.4v-1.77h-.4V9.68h-.23zm7.14 0v8.35h-.1v1.25h-.44v1.77h3.39v-1.77h-1V9.68h-.54V2.37c-.43-.4-.87-.74-1.31-1.04z" opacity=".5"/><path d="M6.35 2.49h-.17a2.55 2.55 0 0 0-2.32 2.58v1c0 .35.23.65.56.75.12.03.2.12.23.24l.14.41s.31.63 1.56.63 1.56-.63 1.56-.63l.14-.41c.03-.12.11-.21.23-.24.33-.1.56-.4.56-.75V4.98a2.5 2.5 0 0 0-2.49-2.5zm-1.1 2.49c.44 0 .79.1.79.62s-.35.94-.78.94c-.43 0-.78-.42-.78-.94 0-.51.35-.62.78-.62zm2.2 0c.42 0 .77.1.77.62s-.35.94-.78.94c-.43 0-.78-.42-.78-.94 0-.51.35-.62.78-.62zm-1.1 1.51c.1 0 .2.09.24.21l.07.28c.03.11 0 .23-.06.32a.22.22 0 0 1-.17.09h-.16a.22.22 0 0 1-.17-.1.36.36 0 0 1-.06-.3l.07-.29c.04-.12.13-.2.24-.2z" fill="#1c1f24"/></svg>