<?xml version="1.0" encoding="UTF-8" standalone="no"?><svg xmlns:dc="http://purl.org/dc/elements/1.1/" xmlns:cc="http://creativecommons.org/ns#" xmlns:rdf="http://www.w3.org/1999/02/22-rdf-syntax-ns#" xmlns="http://www.w3.org/2000/svg" xmlns:xlink="http://www.w3.org/1999/xlink" viewBox="0 0 48 48"><metadata><rdf:RDF><cc:Work><dc:format>image/svg+xml</dc:format><dc:type rdf:resource="http://purl.org/dc/dcmitype/StillImage"/><dc:title/></cc:Work></rdf:RDF></metadata><defs><linearGradient id="a"><stop offset="0"/><stop stop-opacity="0" offset="1"/></linearGradient><linearGradient id="d" x1="14.99" x2="36.24" y1="14.36" y2="35.83" gradientUnits="userSpaceOnUse"><stop offset="0"/><stop stop-opacity="0" offset="1"/></linearGradient><linearGradient gradientTransform="translate(.03) scale(3.77953)" xlink:href="#b" id="c" x1="6.34" y1=".09" x2="6.35" y2="12.46" gradientUnits="userSpaceOnUse"/><linearGradient id="b"><stop offset="0" stop-color="#80e5ff"/><stop offset="1" stop-color="#2c5aa0"/></linearGradient></defs><path fill="url(#c)" d="M24.03.38c-5.82 0-10.5 1.06-13.95 3.25a13.87 13.87 0 0 0-6.27 12.32c0 7.22 5.82 16.9 7.6 19.65a55.85 55.85 0 0 0 6.23 8.17c2.57 2.64 4.57 3.89 6.39 3.89 1.81 0 3.82-1.25 6.39-3.9a57.44 57.44 0 0 0 6.23-8.12c1.78-2.8 7.56-12.47 7.56-19.7 0-5.36-2.15-9.6-6.24-12.27A25.51 25.51 0 0 0 24.03.37z"/><path d="M29.14 44.73c.32-.31.6-.44.94-.8 2-2.08 4.22-4.98 6.25-8.16.89-1.4 2.79-4.5 4.46-8.17.38-.84.66-1.75 1-2.63L22.92 6.47l-.34.35.86 16.9-6.12 3.67-.33 2.97 5.64 5.8-.64 1.2z" fill="url(#d)" opacity=".5"/><path d="M21.1 5.36v12l-5-5-2 2 7 7-7 7 2 2 5-5v12l10-10-6-6 6-6zm3 7l3 3-3 3zm0 12l3 3-3 3z" fill="#333"/><path d="M21.99 5.36v12l-5-5-2 2 7 7-7 7 2 2 5-5v12l10-10-6-6 6-6zm3 7l3 3-3 3zm0 12l3 3-3 3z" fill="#f9f9f9"/><path fill="#1c1f24" opacity=".2" d="M24.01.36c-5.83 0-10.51 1.1-13.93 3.32-4.1 2.66-6.28 6.91-6.28 12.28 0 7.22 5.8 16.88 7.58 19.67a54.47 54.47 0 0 0 6.25 8.16c2.54 2.64 4.57 3.87 6.37 3.87 1.8 0 3.83-1.23 6.38-3.87 2-2.08 4.21-4.98 6.24-8.16 1.78-2.79 7.59-12.45 7.59-19.67 0-5.37-2.17-9.62-6.27-12.27C34.53 1.46 29.85.35 24 .35zm0 .14c2.12.08 4.12.27 5.88.69 1.16.28 2.25.63 3.26 1.04 1.01.42 1.95.9 2.8 1.46a13.38 13.38 0 0 1 5.87 8.46c.26 1.2.4 2.47.4 3.8 0 1.81-.37 3.77-.94 5.74a43.18 43.18 0 0 1-2.19 5.77 69.6 69.6 0 0 1-4.46 8.17 54.47 54.47 0 0 1-6.24 8.16 17.98 17.98 0 0 1-3.47 2.93c-.32.2-.61.3-.9.39-.3-.09-.6-.2-.92-.4a17.62 17.62 0 0 1-3.46-2.92c-2-2.08-4.21-4.98-6.25-8.16a69.6 69.6 0 0 1-4.46-8.17 43.2 43.2 0 0 1-2.19-5.77 20.93 20.93 0 0 1-.93-5.73c0-1.34.13-2.62.4-3.81.27-1.2.67-2.31 1.2-3.34a13.06 13.06 0 0 1 4.67-5.12 17.1 17.1 0 0 1 2.8-1.46c1-.41 2.1-.76 3.26-1.04 1.75-.42 3.76-.6 5.87-.7z"/></svg>