<?xml version="1.0" encoding="UTF-8" standalone="no"?><svg xmlns:dc="http://purl.org/dc/elements/1.1/" xmlns:cc="http://creativecommons.org/ns#" xmlns:rdf="http://www.w3.org/1999/02/22-rdf-syntax-ns#" xmlns="http://www.w3.org/2000/svg" xmlns:xlink="http://www.w3.org/1999/xlink" width="48" height="48" viewBox="0 0 12.7 12.7"><metadata><rdf:RDF><cc:Work><dc:format>image/svg+xml</dc:format><dc:type rdf:resource="http://purl.org/dc/dcmitype/StillImage"/><dc:title/></cc:Work></rdf:RDF></metadata><defs><linearGradient id="f"><stop offset="0" stop-color="#fff"/><stop offset="1" stop-color="#fff" stop-opacity=".051"/></linearGradient><linearGradient id="e"><stop offset="0" stop-color="#1a1a1a"/><stop offset="1" stop-opacity=".03"/></linearGradient><linearGradient id="a"><stop offset="0" stop-color="#fff" stop-opacity=".64"/><stop offset=".5" stop-color="#fff" stop-opacity=".21"/><stop offset="1" stop-color="#424289" stop-opacity=".07"/></linearGradient><linearGradient id="b"><stop offset="0" stop-color="#c98cbb"/><stop offset="1" stop-color="#a9b7da"/></linearGradient><linearGradient id="c"><stop offset="0" stop-color="#04034e"/><stop offset="1" stop-color="#c98cbb"/></linearGradient><linearGradient id="d"><stop offset="0" stop-color="#214478"/><stop offset="1" stop-color="#7575b9"/></linearGradient><linearGradient xlink:href="#b" id="h" gradientUnits="userSpaceOnUse" gradientTransform="matrix(.20849 0 0 .27348 -7.926 -6.84)" x1="50.38" y1="47.09" x2="95.4" y2="46.78"/><linearGradient xlink:href="#d" id="g" gradientUnits="userSpaceOnUse" gradientTransform="matrix(.32244 0 0 .32622 -10.611 -9.48)" x1="68.21" y1="63.93" x2="37.32" y2="30"/><radialGradient xlink:href="#f" id="l" cx="2.599" cy="2.827" fx="2.599" fy="2.827" r="5.347" gradientTransform="matrix(1.19497 .66468 -.56947 1.02381 1.103 -2.399)" gradientUnits="userSpaceOnUse"/><linearGradient xlink:href="#b" id="k" gradientUnits="userSpaceOnUse" gradientTransform="matrix(.20849 0 0 .27348 -7.926 -6.84)" x1="50.38" y1="47.09" x2="95.4" y2="46.78"/><linearGradient xlink:href="#b" id="j" gradientUnits="userSpaceOnUse" gradientTransform="matrix(.20849 0 0 .27348 -7.926 -6.84)" x1="50.38" y1="47.09" x2="95.4" y2="46.78"/><linearGradient xlink:href="#b" id="i" gradientUnits="userSpaceOnUse" gradientTransform="matrix(.20849 0 0 .27348 -7.926 -6.84)" x1="50.38" y1="47.09" x2="95.4" y2="46.78"/></defs><path d="M6.82.072a6.75 6.75 0 0 0-.47.008v.01c-.77 0-1.465.072-2.081.217a5.896 5.896 0 0 0-.865.272A4.589 4.589 0 0 0 2.66.96a3.67 3.67 0 0 0-.297.216 3.67 3.67 0 0 0-.274.244 3.67 3.67 0 0 0-.248.27 3.67 3.67 0 0 0-.22.294 3.67 3.67 0 0 0-.189.314 3.67 3.67 0 0 0-.157.331 3.67 3.67 0 0 0-.123.346 3.67 3.67 0 0 0-.089.356 3.67 3.67 0 0 0-.052.363 3.67 3.67 0 0 0-.015.367A3.67 3.67 0 0 0 1 4.21c0 .477.096.995.248 1.515.152.52.359 1.041.58 1.526.445.97.947 1.793 1.182 2.158.54.85 1.13 1.61 1.65 2.16.34.35.642.608.92.778.277.17.53.252.77.252s.492-.082.77-.252c.277-.17.58-.428.92-.778.52-.55 1.11-1.31 1.65-2.15.235-.37.735-1.195 1.176-2.166.22-.486.427-1.008.578-1.528.15-.52.246-1.038.246-1.516a4.63 4.63 0 0 0-.106-1.007 3.739 3.739 0 0 0-.314-.884 3.436 3.436 0 0 0-.517-.751A3.688 3.688 0 0 0 10.04.96a6.75 6.75 0 0 0-.602-.305 6.75 6.75 0 0 0-.63-.243 6.75 6.75 0 0 0-.65-.18A6.75 6.75 0 0 0 7.493.12 6.75 6.75 0 0 0 6.82.072z" fill="url(#g)"/><path d="M11.605 4.722c.012-.093.041-.19.046-.282H2.742v.282z" fill="url(#h)"/><path d="M11.473 5.539c.024-.092.023-.176.043-.267H2.61v.267z" fill="url(#i)"/><path d="M11.197 6.37c.035-.095.074-.187.106-.283H2.67v.283z" fill="url(#j)"/><path d="M10.888 7.185c.04-.09.068-.19.107-.282H2.73v.282z" fill="url(#k)"/><path d="M6.35.1C4.81.1 3.57.39 2.66.97A3.67 3.67 0 0 0 1 4.22c0 1.91 1.54 4.47 2.01 5.2.54.85 1.13 1.61 1.65 2.16.68.7 1.21 1.03 1.69 1.03s1.01-.33 1.69-1.03c.52-.55 1.11-1.31 1.65-2.15.47-.74 2-3.3 2-5.21 0-1.42-.57-2.54-1.65-3.25A6.75 6.75 0 0 0 6.35.09z" opacity=".35" fill="url(#l)"/><path d="M6.35.1C4.81.1 3.57.38 2.66.96A3.67 3.67 0 0 0 1 4.22c0 1.91 1.54 4.47 2.01 5.2.54.85 1.13 1.61 1.65 2.16.68.7 1.21 1.03 1.69 1.03s1.01-.33 1.69-1.03c.52-.55 1.11-1.31 1.65-2.15.47-.74 2-3.3 2-5.21 0-1.42-.57-2.54-1.65-3.25A6.75 6.75 0 0 0 6.35.1zm0 .26c1.48 0 2.67.28 3.53.84a3.51 3.51 0 0 1 1.59 3.11c0 1.83-1.47 4.28-1.92 4.99a13.8 13.8 0 0 1-1.59 2.06c-.64.67-1.15.98-1.61.98-.46 0-.97-.3-1.61-.98A13.8 13.8 0 0 1 3.15 9.3c-.45-.71-1.92-3.16-1.92-5 0-1.36.55-2.44 1.59-3.11A6.46 6.46 0 0 1 6.35.36z" opacity=".35"/></svg>