<?xml version="1.0" encoding="UTF-8" standalone="no"?><svg xmlns:dc="http://purl.org/dc/elements/1.1/" xmlns:cc="http://creativecommons.org/ns#" xmlns:rdf="http://www.w3.org/1999/02/22-rdf-syntax-ns#" xmlns="http://www.w3.org/2000/svg" xmlns:xlink="http://www.w3.org/1999/xlink" width="48" height="48" viewBox="0 0 12.7 12.7"><metadata><rdf:RDF><cc:Work><dc:format>image/svg+xml</dc:format><dc:type rdf:resource="http://purl.org/dc/dcmitype/StillImage"/><dc:title/></cc:Work></rdf:RDF></metadata><defs><linearGradient id="d"><stop offset="0"/><stop offset="1" stop-opacity="0"/></linearGradient><linearGradient id="c"><stop offset="0"/><stop offset="1" stop-opacity="0"/></linearGradient><linearGradient id="a"><stop offset="0"/><stop offset="1" stop-opacity="0"/></linearGradient><linearGradient id="b"><stop offset="0" stop-color="#515151"/><stop offset=".2" stop-color="#2b2b2b"/><stop offset=".53" stop-color="#1b1b1b"/><stop offset="1"/></linearGradient><linearGradient xlink:href="#d" id="f" gradientUnits="userSpaceOnUse" x1="3.29" y1="5.84" x2="11.97" y2="7.81"/><linearGradient gradientTransform="scale(.26458)" id="e" x1="2.65" x2="42.95" y1="18.09" y2="4.95" gradientUnits="userSpaceOnUse"><stop stop-color="#ff2a2a" offset="0"/><stop stop-color="#f55" offset=".1"/><stop stop-color="#ff4242" offset=".3"/><stop stop-color="#ff3636" offset=".42"/><stop stop-color="#ff2a2a" offset=".54"/><stop stop-color="#ff2a2a" offset=".67"/><stop stop-color="#c83737" offset="1"/></linearGradient></defs><path d="M6.35.1C4.81.1 3.57.38 2.66.96a3.67 3.67 0 0 0-1.65 3.25c0 1.91 1.53 4.47 2 5.2a14.41 14.41 0 0 0 1.65 2.16c.68.7 1.21 1.03 1.69 1.03s1.01-.33 1.69-1.03c.52-.55 1.11-1.31 1.65-2.16.47-.73 2-3.29 2-5.2 0-1.42-.57-2.55-1.65-3.25A6.76 6.76 0 0 0 6.35.1z" fill="url(#e)"/><path d="M3.11.73c-.17.07-.3.16-.45.25l2.87 2.87c-.04.1-.08.2-.08.31 0 .33.21.6.5.71v3.61a.75.75 0 1 0 .5 0v-3.6l.07-.04L8.3 6.61l.01-.02a.74.74 0 0 0 .67 1.1.75.75 0 1 0 0-1.52.74.74 0 0 0-.34.1l.02-.02-1.77-1.77c.05-.1.08-.2.08-.32a.75.75 0 0 0-.75-.75.74.74 0 0 0-.32.08z" style="text-indent:0;text-decoration-line:none;text-transform:none" color="#000" fill="#1a1a1a" opacity=".68"/><path d="M7.88 11.7l.16-.13a15.2 15.2 0 0 0 2.75-4.17L6.9 3.52l-.56.66.02 1.53v3.41l-.5.55z" opacity=".5" fill="url(#f)"/><path d="M3.28.65c-.17.07-.3.14-.46.23l2.86 2.85c-.05.1-.08.2-.08.31 0 .33.21.6.5.71v3.61a.75.75 0 1 0 .5 0V4.75c.03 0 .05-.02.07-.03l1.76 1.77.02-.02a.74.74 0 0 0 .67 1.1.75.75 0 1 0 0-1.52.74.74 0 0 0-.34.09l.01-.02-1.76-1.76c.04-.1.08-.2.08-.32a.75.75 0 0 0-.76-.75.74.74 0 0 0-.31.08z" style="text-indent:0;text-decoration-line:none;text-transform:none" color="#000" fill="#ffd5d5"/><path d="M6.35.1C4.81.1 3.57.39 2.66.97A3.67 3.67 0 0 0 1 4.22c0 1.91 1.54 4.47 2.01 5.2.54.85 1.13 1.61 1.65 2.16.68.7 1.21 1.03 1.69 1.03s1.01-.33 1.69-1.03a15.2 15.2 0 0 0 1.65-2.15c.47-.74 2-3.3 2-5.21 0-1.42-.57-2.54-1.65-3.25A6.75 6.75 0 0 0 6.35.09zm0 .03C6.91.15 7.44.2 7.9.31a5.82 5.82 0 0 1 1.6.66 3.65 3.65 0 0 1 1.24 1.36c.14.27.25.57.32.88a4.61 4.61 0 0 1-.14 2.53c-.15.52-.36 1.04-.58 1.52-.44.97-.95 1.8-1.18 2.17a15.2 15.2 0 0 1-1.65 2.15 4.9 4.9 0 0 1-.92.78.96.96 0 0 1-.24.1.96.96 0 0 1-.24-.1 4.76 4.76 0 0 1-.92-.78 14.41 14.41 0 0 1-1.65-2.15 19.2 19.2 0 0 1-1.18-2.17c-.22-.48-.43-1-.58-1.52a4.6 4.6 0 0 1-.14-2.52 3.73 3.73 0 0 1 .84-1.64 3.65 3.65 0 0 1 1.45-1A6.83 6.83 0 0 1 6.35.13z" opacity=".2"/></svg>