<svg xmlns="http://www.w3.org/2000/svg" xmlns:xlink="http://www.w3.org/1999/xlink" width="48" height="48"><defs><linearGradient id="c"><stop offset="0" stop-color="#afdde9"/><stop offset="1" stop-color="#0cf"/></linearGradient><linearGradient id="b"><stop offset="0" stop-color="#170b28"/><stop offset="1" stop-color="#53536c"/></linearGradient><linearGradient id="a"><stop offset="0"/><stop offset="1" stop-opacity="0"/></linearGradient><linearGradient xlink:href="#b" id="d" x1="15.841" y1=".093" x2="24.005" y2="47.105" gradientUnits="userSpaceOnUse"/><linearGradient xlink:href="#c" id="e" x1="23.772" y1="6.567" x2="23.976" y2="35.938" gradientUnits="userSpaceOnUse"/></defs><path d="M24.005.355c-5.83 0-10.51 1.1-13.93 3.32-4.1 2.66-6.28 6.91-6.28 12.28 0 7.22 5.8 16.88 7.58 19.67a54.48 54.48 0 0 0 6.25 8.16c2.54 2.64 4.57 3.87 6.37 3.87 1.8 0 3.83-1.23 6.37-3.87 2-2.08 4.22-4.98 6.25-8.16 1.78-2.79 7.59-12.45 7.59-19.67 0-5.37-2.17-9.62-6.27-12.27-3.4-2.23-8.09-3.34-13.94-3.34z" fill="url(#d)"/><path d="M23.995.345c-5.83 0-10.51 1.12-13.93 3.33-4.1 2.66-6.27 6.9-6.27 12.27 0 7.23 5.8 16.89 7.58 19.68a54.48 54.48 0 0 0 6.25 8.15c2.54 2.65 4.57 3.88 6.37 3.88 1.8 0 3.83-1.23 6.37-3.88 2-2.07 4.22-4.97 6.25-8.15 1.78-2.8 7.59-12.45 7.59-19.68 0-5.37-2.17-9.61-6.27-12.27-3.41-2.21-8.1-3.33-13.95-3.33zm0 .14c2.12.09 4.12.28 5.88.7 1.16.27 2.25.62 3.26 1.04 1.01.41 1.95.9 2.8 1.45a12.92 12.92 0 0 1 4.67 5.12 14.1 14.1 0 0 1 1.2 3.34c.26 1.2.4 2.47.4 3.81 0 1.81-.37 3.77-.94 5.73a43.19 43.19 0 0 1-2.19 5.78 69.59 69.59 0 0 1-4.46 8.17 54.47 54.47 0 0 1-6.25 8.15 17.98 17.98 0 0 1-3.46 2.93c-.32.2-.62.3-.9.4-.3-.1-.6-.2-.92-.4a17.72 17.72 0 0 1-3.46-2.93 54.5 54.5 0 0 1-6.25-8.15 69.6 69.6 0 0 1-4.46-8.17 43.19 43.19 0 0 1-2.19-5.78 20.93 20.93 0 0 1-.93-5.73c0-1.34.13-2.61.4-3.8.27-1.2.67-2.32 1.2-3.35a12.92 12.92 0 0 1 4.67-5.12 17.1 17.1 0 0 1 2.8-1.45c1-.42 2.1-.77 3.26-1.04 1.75-.42 3.76-.61 5.86-.7z" opacity=".2"/><path d="M30.003 6.529a.602.602 0 0 0-.542.339l-.034.3c0 .235.1.435.3.535a11.846 11.846 0 0 1-1.403 21.384v-4.952a1.877 1.877 0 0 0 1.338-1.807c0-.703-.37-1.305-.972-1.64.435-4.25 2.41-3.112 2.41-4.484V15.4c0-2.008-4.685-8.7-6.927-8.833h-.4c-2.21.167-6.928 6.792-6.928 8.833v.804c0 1.339 1.94.234 2.376 4.484a1.874 1.874 0 0 0-.903 1.672c0 .804.569 1.54 1.338 1.775v4.952A11.88 11.88 0 0 1 18.25 7.67a.602.602 0 0 0 .234-.802c-.067-.201-.3-.336-.534-.336a.67.67 0 0 0-.301.068 13.05 13.05 0 0 0 3.246 24.127v-5.555l1.238.334v6.627a14.222 14.222 0 0 1-11.445-19.109c.134-.335 0-.668-.335-.802a.736.736 0 0 0-.2-.033.636.636 0 0 0-.603.401 15.427 15.427 0 0 0 13.786 20.881v-7.83h1.306v7.83a15.427 15.427 0 0 0 13.82-20.848.636.636 0 0 0-.837-.368.636.636 0 0 0-.368.568l.035.201A14.155 14.155 0 0 1 25.88 32.098v-6.625l1.238-.335v5.556a13.05 13.05 0 0 0 2.945-24.162.602.602 0 0 0-.06-.003zm-9.77 14.46a1.238 1.238 0 0 1 .025 0c.335 0 .67.167.87.401.234.235.401.536.401.87-.033.368-.167.67-.401.905a1.238 1.238 0 0 1-.87.368c-.334 0-.67-.134-.904-.368a1.171 1.171 0 0 1-.367-.905c0-.334.132-.669.367-.87a1.238 1.238 0 0 1 .878-.4zm7.487 0c.368 0 .67.167.904.401.235.235.369.536.369.87 0 .368-.134.67-.369.905a1.238 1.238 0 0 1-.904.368c-.335 0-.669-.134-.87-.368a1.238 1.238 0 0 1-.401-.905c0-.334.167-.669.401-.87a1.238 1.238 0 0 1 .87-.4z" fill="url(#e)"/></svg>