<?xml version="1.0" encoding="UTF-8" standalone="no"?><svg xmlns:dc="http://purl.org/dc/elements/1.1/" xmlns:cc="http://creativecommons.org/ns#" xmlns:rdf="http://www.w3.org/1999/02/22-rdf-syntax-ns#" xmlns="http://www.w3.org/2000/svg" xmlns:xlink="http://www.w3.org/1999/xlink" width="48" height="48" viewBox="0 0 12.7 12.7"><metadata><rdf:RDF><cc:Work><dc:format>image/svg+xml</dc:format><dc:type rdf:resource="http://purl.org/dc/dcmitype/StillImage"/><dc:title/></cc:Work></rdf:RDF></metadata><defs><linearGradient id="b"><stop offset="0" stop-color="#0e0000"/><stop offset="1" stop-opacity="0"/></linearGradient><linearGradient id="a"><stop offset="0" stop-color="#feffff"/><stop offset="1" stop-opacity="0"/></linearGradient><radialGradient xlink:href="#c" id="j" cx="8.57" cy="289.08" fx="8.57" fy="289.08" r="5.35" gradientTransform="matrix(-2.18377 2.59732 -1.34426 -1.13022 414.53 306.22)" gradientUnits="userSpaceOnUse"/><linearGradient id="c"><stop offset="0" stop-color="#7c916f"/><stop offset=".4" stop-color="#c4c8b7"/><stop offset=".67" stop-color="#e3f4d7"/><stop offset="1" stop-color="#5d6c53"/></linearGradient><linearGradient id="d"><stop offset="0"/><stop offset="1" stop-opacity="0"/></linearGradient><radialGradient id="e" cx="48" cy="-.21" r="55.15" gradientTransform="matrix(.9792 0 0 .9725 133 20.88)" gradientUnits="userSpaceOnUse"><stop offset="0" stop-color="#1a1a1a"/><stop offset=".52" stop-color="#1a1a1a"/><stop offset=".66" stop-color="#424242"/><stop offset=".76" stop-color="#131313"/><stop offset="1" stop-color="#1a1a1a"/></radialGradient><radialGradient id="f" cx="48" cy="-.21" r="55.15" gradientTransform="matrix(.9792 0 0 .9725 133 20.88)" gradientUnits="userSpaceOnUse"><stop offset="0" stop-color="#878787"/><stop offset=".36" stop-color="#646464"/><stop offset=".62" stop-color="#2d2d2d"/><stop offset=".76" stop-color="#232323"/><stop offset="1" stop-color="#1f1f1f"/></radialGradient><linearGradient id="g"><stop offset="0" stop-color="#ededed"/><stop offset=".25" stop-color="#fff"/><stop offset=".5" stop-color="#f6f6f6"/><stop offset="1" stop-color="#ccc"/></linearGradient><linearGradient id="h"><stop offset="0" stop-color="#fff"/><stop offset=".53" stop-color="#8b8b8b"/><stop offset=".63" stop-color="#a5a5a5"/><stop offset=".7" stop-color="#f4f4f4"/><stop offset=".75" stop-color="#bbb"/><stop offset="1" stop-color="#b1b1b1"/></linearGradient><linearGradient id="i"><stop offset="0" stop-color="#fff"/><stop offset="1" stop-color="#555"/></linearGradient></defs><path d="M6.35.1C4.81.1 3.57.4 2.66.97A3.67 3.67 0 0 0 1 4.22c0 1.91 1.54 4.47 2.01 5.2.54.85 1.13 1.61 1.65 2.16.68.7 1.21 1.03 1.7 1.03.47 0 1-.33 1.68-1.03A15.2 15.2 0 0 0 9.7 9.43c.47-.74 2-3.3 2-5.2 0-1.43-.57-2.55-1.65-3.26A6.75 6.75 0 0 0 6.35.1z" fill="url(#j)"/><path d="M9.57.73l-.14.23.02.02c.01 0 .03 0 .04-.02l.13-.2a6.75 6.75 0 0 0-.05-.03zm.07.04L9.5.98v.04h.02l.02.03.05-.01.13-.23a6.75 6.75 0 0 0-.08-.04zm.1.05l-.14.21c0 .02 0 .04.02.05l.41.25c.02.01.03 0 .05-.01l.12-.21-.16-.14a6.75 6.75 0 0 0-.3-.15zm.08.13l.06.04-.01.03c-.01.02-.03.03-.05.01l-.04-.02zM9.4 1l-.17.28c.02 0 .04 0 .05-.02l.08-.13.08-.09L9.43 1zm.08.07c-.04 0-.09.05-.15.15l-.03.06v.04l.07.04h.04v.02l.05.03h.04v.03l.07.04h.04l.01.03.15.1h.05v.02l.03.02.04-.01.01-.04h.01l.05-.1.07-.1-.01-.05-.02-.01h-.04l-.01-.03H9.9v-.04h-.05v-.02l-.05-.03h-.05l.01-.03-.08-.02h-.02l-.07-.08-.07-.01a.06.06 0 0 0-.04-.01zm.06.03h.01l-.1.17zm-.1.2l-.03.04zm-.22 0c-.01 0-.02 0-.02.02l-.14.21v.04c.02.01.03 0 .04-.01l.13-.22.01-.03-.02-.01zm.06.04l-.03.01-.13.22c-.01.02 0 .03.01.04l.05.03h.04v.03l.06.04h.04v.02l.08.04h.04v.03l.06.04h.04v.02l.06.03h.04v.03l.03.02c.02.01.04 0 .05-.01l.13-.22-.01-.04-.23-.14-.04-.02V1.5l-.08-.05h-.04v-.02L9.4 1.4h-.03c0-.01 0-.02-.02-.03l-.05-.03h-.02zm.03.16l-.02.05h-.01zm.15.07l.04.05c-.03.03-.06.04-.07.03-.02 0-.02-.02-.01-.04l.01-.02zm-.41.01l-.02.02-.12.2-.01.03h.04l.12-.2.01-.04h-.02zm.06.04l-.03.01-.12.2.01.05.54.32c.02.02.04.01.05 0l.12-.2-.01-.05-.54-.33h-.02zm-.22.23c-.01 0-.02 0-.02.02l-.12.18v.04l.04-.01.11-.2.01-.03H8.9zm.06.04h-.03l-.11.2v.04l.04.02c.02.01.05-.03.11-.12H9c-.06.1-.08.16-.06.17h.01l.07.03.06.05.02.01.04.01.01.02.03.02a.2.2 0 0 0 .06.02l.05.05.03.01.04.01s0 .02.04.04l-.01.02-.46-.27c-.02-.02-.03-.01-.04 0l-.1.17c-.01.02 0 .03.01.04l.45.28c.02 0 .04 0 .05-.02l.09-.14.02-.08.03-.01V2.4l.02.01c.06-.13.08-.2.07-.22l-.23-.13h-.05v-.03l-.07-.05h-.04v-.02l-.07-.04h-.04v-.02l-.04-.03h-.02zm-.24.21l-.02.02-.05.07v.04h-.02l-.03.05c-.01.02 0 .03.01.04.02.02.04.01.05 0l.1-.17c0-.02 0-.03-.02-.04h-.02zm.08.05l-.03.01-.1.16c0 .02 0 .04.02.05l.03.02.04-.01.03-.05c-.04-.02-.05-.05-.04-.06l.02-.04.06.03.03-.04-.01-.05-.03-.02H8.8zm-.22.19l-.03.01-.1.16c0 .02 0 .04.02.05l.02.01.12-.18c.01-.02 0-.04-.01-.05h-.02zm.07.05l-.02.01-.1.16.01.05.03.01h.05l.1-.17c0-.02 0-.03-.02-.04l-.02-.02h-.03zm.1.06l-.02.01-.1.16c0 .02 0 .04.02.05l.05.03h.04v.02l.07.05h.04v.02l.07.04h.04v.03l.04.02.08.03v.02c.03.02.06.02.07 0l.1-.16c0-.02 0-.03-.02-.04L9 2.57l-.05-.02v-.01l-.08-.05h-.03v-.02l-.05-.03h-.03zm-.3.12l-.03.01-.08.13v.04h.05l.08-.14v-.04h-.03zm.09.05c-.02-.02-.07.04-.16.16v.03a.12.12 0 0 0-.05.04l-.06.1c-.01.02 0 .04.02.06l.04.02c.02.01.03 0 .04-.01l.08-.13.01-.04h-.03l-.03-.02.01-.03c.05.03.08.03.09.01l.08-.13-.01-.05zm.08.05l-.02.02-.08.13v.05l.46.27c.02.01.04 0 .05-.01l.08-.13-.01-.05-.25-.15H8.8v-.03l-.16-.1h-.02zm-.32.1l-.09.15v.04c.02.01.04 0 .05-.01l.1-.15zm.2.13c-.01 0-.03 0-.04.02l-.07.1c-.01.03 0 .04.01.05l.48.3-.27-.16h-.05v-.03l-.08-.04h-.04V3.1l-.04-.03c-.02 0-.04 0-.05.02l-.07.12v.04l.47.28h.05l.1-.17c.07-.12.1-.2.07-.21l-.13-.08H8.8v-.03L8.72 3 8.68 3v-.02l-.08-.04-.03-.01V2.9a.14.14 0 0 0-.06-.02zm-.28.08c-.02-.02-.07.03-.14.13l.02.04c.02.01.03 0 .05-.01L8.2 3zm.03.03l-.03.02-.06.11c-.02.02 0 .04.02.06l.03.02.05-.01.07-.12v-.05L8.27 3h-.03zm.34.01h.02c.02.01.03.03.02.05l-.03.04-.06-.03.03-.05h.02zm-.52.14l-.05.06-.02.05H8l-.01.02c-.02.02-.01.04 0 .05.02.01.04 0 .05-.01l.07-.12c.01-.01 0-.03-.01-.04zm.07.05l-.03.01-.07.11c-.01.02 0 .04.02.05l.04.03.05-.01.06-.12v-.04l-.05-.03h-.02zm.11.07l-.02.01-.07.12c0 .02 0 .03.02.04l.08.04c0 .01.02.03.05.04l.03.02h.03l.01.03.26.15c.02.01.03 0 .04-.01l.07-.11v-.05l-.04-.02h-.03V3.5l-.08-.04-.04-.01v-.02l-.07-.04-.05-.02v-.01l-.08-.05h-.03V3.3l-.05-.03h-.03zm-.3.07s-.02 0-.02.02l-.15.25c-.02.03-.02.05 0 .06.02.01.04 0 .05-.02l.05-.09v-.04l.05-.03.06-.1c0-.02 0-.03-.02-.04h-.02zm.07.05H8l-.06.1c-.02.03-.01.05.01.06l.03.02c.04 0 .06-.01.07-.02l.05-.09c.01-.02 0-.03-.01-.04l-.04-.03h-.03zm.33 0l.05.04-.03.05-.06-.03zm-.21.07l-.02.01-.05.09v.04l.47.28h.05l.05-.1-.01-.04-.47-.28h-.02zm-.2.1h-.05l-.05.1c-.01.02 0 .04.02.05l.03.03c.02 0 .06-.03.11-.12l.02.01c-.05.1-.07.14-.05.15l.09.03c0 .02.02.04.04.05l.07.02.02.03.26.16v.01l-.49-.29-.04.01-.05.08v.03l.5.31v.02l-.4-.23c-.01-.02-.03-.01-.04 0l-.03-.05-.06-.03-.04.06H7.8c.02-.05.03-.08 0-.1l-.03-.02-.06.01-.03.07c-.02.02 0 .03.02.05l.07.03.05.04.02.01h.04l.03.05.2.11.03.01-.01.01.17.1-.01.02-.6-.36c-.02-.02-.04-.01-.06 0l-.03.06c-.02.02 0 .03.02.05l.6.36-.01.02a.19.19 0 0 0-.07-.03l-.02-.02-.07-.04L8 4.4v-.02l-.07-.04-.04-.01-.01-.02-.04-.02a.15.15 0 0 0-.06-.03.25.25 0 0 0-.13-.07.15.15 0 0 0-.05-.05c-.03-.02-.05-.01-.07.01l-.02-.01c.01-.03 0-.05-.02-.06l.01-.02c.04.02.07.02.08 0l.03-.05c.01-.02 0-.04-.04-.07l.01-.02c.04.03.06.03.08.01l.04-.07c0-.01 0-.03-.02-.04-.18.09-.3.11-.36.07-.35-.1-.56-.1-.63.01L6.1 5.3a.87.87 0 0 1-.35.31c-.3.2-1.18.7-2.62 1.5-.66.36-.87.5-1.04.62.1.21.18.33.28.51a17.6 17.6 0 0 0 2.64.8.2.2 0 0 1-.07.04v.04c.12.06.18.07.2.03.02-.02 0-.05-.04-.09l.01-.03c.52.12.96.17 1.33.17.78.05 1.2.03 1.25-.07a5 5 0 0 0 .14-.65c.17-1.05.3-1.63.36-1.74a.65.65 0 0 1 .1-.12l2.34-2.05c.04-.07.04-.12 0-.18l-.09-.06-1.35.2c-.28.08-.47.08-.56.03-.11-.07-.16-.22-.16-.46a.1.1 0 0 1 .04-.04.82.82 0 0 0 .05-.14.15.15 0 0 0-.06-.02.25.25 0 0 0-.13-.08l-.02-.02a3.16 3.16 0 0 1-.2-.11l-.03-.02-.07-.06a.82.82 0 0 0-.1-.03zm-.19.11l-.02.02-.05.07c0 .02 0 .04.02.05.01.01.03 0 .04-.01l.05-.08-.01-.04h-.03zm.07.05H7.8l-.05.08c-.01.02 0 .04.02.06l.04.02c.02.01.03 0 .04-.01l.05-.08-.01-.04-.04-.03h-.03zm-.33.45l.03.01-.03.05-.02-.02zm-.04.07l.03.02-.08.13.1.06a.9.9 0 0 0 .06-.1l.02.01-.06.1.19.12a.2.2 0 0 1 .05.04.2.2 0 0 1 .06.03l.4.24c.03.01.03.03.02.05l-.06.1a.25.25 0 0 1-.05.05c0 .02 0 .04-.02.06l-.18.3-.03-.02.04-.02.01-.02c.01-.01 0-.03-.01-.04-.02-.01-.03 0-.05.01v.02l-.02.03-.43-.26h-.03c0-.01 0-.02-.02-.03l-.03-.02a.15.15 0 0 0-.07-.03.24.24 0 0 0-.12-.07.15.15 0 0 0-.05-.04l-.03-.02c-.02-.01-.03 0-.04.01l-.36.6v.04l.05.03h.04L7 5.25h.01l-.22.37c-.01.02 0 .04.01.05l.03.02.07.03.05.04.04.02.04.02v.01l.1.05.03.01v.02l.34.2.02.04-.02.03H7.5l.02-.04-.03-.01c-.02-.02-.04-.01-.05 0l-.01.03.06.04-.25.43h-.01c.02-.04.02-.06 0-.07-.02-.01-.04 0-.05.01l-.02.03v.03h-.01a.15.15 0 0 1-.05-.05.24.24 0 0 1-.08-.03L7 6.5a.29.29 0 0 1-.07-.05l-.1-.05-.33-.2h-.05l-.11.2v.04l.06.03.03.01.13-.22.02.01-.12.2v.04c.1.06.2.1.24.14l.31.18c.02-.02 0-.04-.06-.08v-.02l.07.04c.04.02.04.07.03.14h-.05l-.02-.02-.03-.01-.02-.01.03-.02.02-.02-.03-.02c-.02-.01-.03 0-.04.01l-.02.03c-.06 0-.1 0-.26-.1l-.2-.11-.08-.03c0-.01 0-.03-.04-.05l-.02-.01h-.05l-.18.3.1.06.04-.04h.01c-.01.04-.01.06 0 .07L6.3 7l.03.01s0 .02.02.02l.02.02h.04v.02l.03.02h.03v.02l.05.02a.2.2 0 0 0 .05.04l.13.07.02.16a.2.2 0 0 0 .02-.1l.01-.02c.06.03.06.09.02.16h.04l.02-.04.01-.03c.01.03.02.06 0 .07-.04.09-.1.11-.18.07-.03-.02-.04-.04-.05-.06-.03 0-.05 0-.07-.02l-.07-.04a23.64 23.64 0 0 0-.55-.32l-.38-.22c-.03-.05-.03-.1-.01-.13l.06-.06h.02v.04c.04-.03.06-.03.08-.03l.06.04-.14.06-.01-.04c-.01.03-.04.07-.02.08l.02.01-.01-.03.16-.04.02.01-.04.08c-.01.02-.03.02-.07 0l-.01.03.04.05.04-.02.07-.12c.01-.02 0-.04-.03-.06l.14.08.18-.3-.01-.04-.16-.1v-.04l.01-.03.06-.03-.04-.02c0-.01.04-.02.08-.01l.08.04-.01.02c-.06-.04-.1-.05-.11-.03.12.07.19.1.2.06l.12-.19-.01-.04-.2-.12.33-.53.22.13.23-.36.16-.26-.01-.05-.15-.08.03-.02.01-.02c.01-.02 0-.04-.01-.05l-.05.01v.06l-.03-.02.3-.5c.02-.02.03-.03.05-.02l.17.1c.02.02.04.01.05-.01zM5.59 6.72V6.7v.03zm1.17.71h-.04l.02-.02-.03-.02-.03.05-.05-.03c-.01-.04-.01-.06 0-.07v-.02l.05-.06c-.02-.02-.04-.02-.05 0l-.06.1-.01.04a.1.1 0 0 0 .06.01l.01.04c.05.02.09.03.12 0zm.85-3.16l.02.02-.02.02H7.6zm.14 0l.02.02-.02.03-.02-.01zm-.6.01c-.02 0-.02.01-.03.02l-.02.03.03.01h.06V4.3l-.03-.01h-.02zm.57.05h.02l-.06.1h-.02zm-.49 0l-.02.03-.25.41c-.01.04 0 .07.06.1.03.02.04.01.05 0l.05-.08-.01-.05.05-.02.09-.15-.01-.04c.03-.01.06-.04.1-.1l.01.01a.27.27 0 0 0-.04.1l-.09.12-.01.03-.05.09a.29.29 0 0 0-.05.07l-.02.03c-.01.01 0 .03.01.04l.05.03c.02.01.04 0 .07-.06h.01c-.03.06-.03.09-.01.1l.04.03c.02 0 .05-.01.08-.06l.02.01c-.03.05-.04.08-.02.1l.06.03.05.02v.01l.09.05.03.01.01.02.03.02a.2.2 0 0 0 .06.02.2.2 0 0 0 .06.05h.01c.06.04.1.04.12.01l.24-.4v-.06l-.15-.07a1.3 1.3 0 0 1-.09-.07l-.02.02-.04-.05-.03-.03c-.02 0-.04 0-.05.02H7.7V4.6l-.07-.04c-.01 0-.04 0-.06.05l-.02-.01c.02-.04.03-.07 0-.08l-.02-.02c-.02-.01-.04 0-.05.02l-.03-.02c.02-.02.01-.04 0-.05l-.02-.01a.2.2 0 0 0-.07-.03.21.21 0 0 0-.05-.04l-.05-.04h-.03zm.94.57l-.01.03c-.02.01-.01.03 0 .04.03.01.04 0 .05-.01v-.05zm-1.74.57H6.4c0 .03 0 .04.02.05.02.02.03.01.04 0 .01-.03 0-.04-.01-.05h-.02zm.12.07c-.04 0-.06.01-.07.02l-.23.4v.06l.06.03c.01.01.03 0 .04-.01l.05-.09v-.04h.03l.1-.17v-.05h.03l.05-.08-.01-.04zm.1.07l-.01.02-.02.02-.04.1-.06.03-.07.18a.2.2 0 0 0-.08.07c0 .04 0 .06.02.07l.05.03c.02.01.03 0 .04-.01l.03-.05A.12.12 0 0 0 6.53 6a.12.12 0 0 0 .05-.04l.02-.03v-.04h.02l.01-.02.04-.1c.02 0 .04-.03.06-.06V5.7c.02 0 .01-.02 0-.04l-.05-.03h-.02zm.12.08h-.02l-.03.06v.07l-.06.03-.07.11v.07l-.06.04-.04.05.01.05.05.03c.02.01.03 0 .05-.01l.25-.43v-.04l-.06-.03h-.02zm.12.07l-.02.01-.03.05c0 .03 0 .05.02.06l-.08.04-.02.04-.01.04-.02.01-.02.03v.08l-.07.03-.03.05c0 .02 0 .03.02.04l.05.04c.02.01.04 0 .05-.01l.05-.09v-.04h.03l.1-.17v-.05h.03l.04-.08V5.8l-.06-.04h-.03zm.13.08L7 5.85l-.03.05c0 .03 0 .05.02.06L6.91 6l-.07.12.01.07-.07.03-.03.06v.04l.07.04c.01.01.03 0 .04-.01l.02.05.2.12c.03 0 .05 0 .07-.03l.24-.4-.01-.05-.22-.13h-.04v-.03l-.07-.04h-.03zm-.86.07l-.03.02c-.01.02 0 .04.01.05l.05-.01V5.9h-.03zm.9.07h.03c.02.02.02.03.01.05l-.02.04-.04-.02a.1.1 0 0 0 0-.05l.02-.02zm.16.08l.02.04-.02.03c-.01-.01-.03 0-.04.01-.01 0-.02-.02-.01-.05v-.01zm-.89.06l-.02.01-.12.19c0 .02 0 .03.02.04l.06.04c.02.02.04.01.05 0l.11-.2-.01-.04-.07-.04h-.02zm-.37.15l-.02.02-.02.03.03.02.02-.03.03.02-.06.02.03.02c.02 0 .04 0 .05-.02 0-.03 0-.06-.02-.07h-.01l-.03-.01zm.15.21l-.02.02-.18.3h.03l.05.01v.03l.04.03.18-.3c.01-.02 0-.03-.01-.04l-.07-.04h-.02zm1.26 1.09a.3.3 0 0 1 .07.02l.05.02c.05.03.07.1.07.19l-.03.05-.02-.02c.04-.07.03-.14-.05-.2l-.03-.03c-.08-.04-.15-.02-.21.06-.06.12-.04.2.03.24l.03.01c.1.04.17.03.21-.05l.02.01-.02.03c-.03.06-.1.07-.22.02l-.02-.01c-.1-.06-.1-.14-.04-.26a.16.16 0 0 1 .16-.08z" style="line-height:1.25;-inkscape-font-specification:'Electric Guitar Icons'" font-weight="400" font-size="22.59" font-family="Electric Guitar Icons" letter-spacing="0" word-spacing="0" fill="#1a1a1a"/><path d="M6.35.1C4.81.1 3.57.38 2.66.96A3.67 3.67 0 0 0 1 4.22c0 1.91 1.54 4.47 2.01 5.2.54.85 1.13 1.61 1.65 2.16.68.7 1.21 1.03 1.69 1.03.08 0 .18-.07.26-.09-.16-.03-.32-.05-.5-.16a4.76 4.76 0 0 1-.92-.78 14.41 14.41 0 0 1-1.65-2.15 19.2 19.2 0 0 1-1.18-2.17c-.22-.48-.43-1-.58-1.52a4.6 4.6 0 0 1-.14-2.52 3.73 3.73 0 0 1 .84-1.64 3.65 3.65 0 0 1 1.45-1c.27-.1.56-.2.87-.27a9 9 0 0 1 1.8-.2zm.26.02c-.1 0-.18.03-.28.03.6.03 1.18.08 1.68.2a5.67 5.67 0 0 1 1.5.62 3.65 3.65 0 0 1 1.23 1.36c.14.27.25.57.32.88a4.61 4.61 0 0 1-.14 2.53c-.15.52-.36 1.04-.58 1.52-.44.97-.95 1.8-1.18 2.17a15.2 15.2 0 0 1-1.65 2.15c-.28.3-.53.5-.77.65-.15.1-.29.14-.43.2l.3.1c.42-.1.87-.37 1.43-.95a15.2 15.2 0 0 0 1.65-2.15c.47-.74 2-3.3 2-5.21 0-1.42-.57-2.54-1.65-3.25A6.61 6.61 0 0 0 6.6.12z" opacity=".2"/></svg>