<svg xmlns="http://www.w3.org/2000/svg" xmlns:xlink="http://www.w3.org/1999/xlink" width="48" height="48"><defs><linearGradient id="e"><stop offset="0" stop-color="#93a7ac"/><stop offset=".27" stop-color="#b7c8be"/><stop offset=".74" stop-color="#dbe3db"/><stop offset="1" stop-color="#93a7ca"/></linearGradient><linearGradient id="d"><stop offset="0" stop-color="#000200"/><stop offset="1" stop-opacity="0"/></linearGradient><linearGradient id="c"><stop offset="0" stop-color="#1a1a1a"/><stop offset="1" stop-color="#fff"/></linearGradient><linearGradient id="a"><stop offset="0"/><stop offset="1" stop-color="#fff"/></linearGradient><linearGradient id="b"><stop offset="0" stop-color="red"/><stop offset=".69" stop-color="#a00000" stop-opacity=".71"/><stop offset="1" stop-color="#960000" stop-opacity="0"/></linearGradient><radialGradient cx="48.01" cy="208.16" fx="46.45" fy="210.54" id="i" r="6.93" xlink:href="#b" gradientUnits="userSpaceOnUse" gradientTransform="matrix(.33179 0 0 .33179 4.56 -45.61)"/><linearGradient xlink:href="#c" id="h" gradientUnits="userSpaceOnUse" gradientTransform="matrix(.31917 0 0 .26407 5.78 -37.74)" x1="50.57" y1="221.98" x2="62.4" y2="191.44"/><linearGradient xlink:href="#d" id="g" gradientUnits="userSpaceOnUse" x1="4.08" y1="1.69" x2="49.06" y2="38.59"/><linearGradient xlink:href="#e" id="f" x1="3.13" y1="6.66" x2="44.2" y2="24" gradientUnits="userSpaceOnUse"/></defs><path d="M24 .35c-5.83 0-10.52 1.12-13.93 3.33-4.1 2.66-6.27 6.9-6.27 12.27 0 7.23 5.8 16.88 7.58 19.67a54.48 54.48 0 0 0 6.25 8.16c2.54 2.64 4.57 3.87 6.37 3.87 1.8 0 3.83-1.23 6.37-3.87 2-2.08 4.22-4.97 6.25-8.16 1.78-2.79 7.58-12.44 7.58-19.67 0-5.37-2.16-9.61-6.26-12.27C34.52 1.47 29.84.35 24 .35z" fill="url(#f)"/><path d="M28.95 44.98c.48-.43.9-.66 1.42-1.2 2-2.08 4.22-4.97 6.25-8.16.89-1.4 2.78-4.5 4.46-8.17a43.2 43.2 0 0 0 2.19-5.77c.45-1.56.63-3.07.74-4.55l-6.22-6.22-1.58.92-2.34 1.15-4.55-4.55-2.03-1.97-.2.22-.67 1.63-.55 1.37-.6 1.22-.2 3.71-5.36-5.36.12.5 1.7 3L23 17.91l-2.1.24-1.73-1.8-3.47-2.32-.91-.43h-.55l-3.28-.5 5.01 5.01-1.73 1.14L10.66 21l-.45 5.22z" fill="url(#g)" opacity=".65"/><path d="M24 .35c-5.83 0-10.52 1.12-13.93 3.33-4.1 2.66-6.27 6.9-6.27 12.27 0 7.23 5.8 16.88 7.58 19.67a54.47 54.47 0 0 0 6.25 8.16c2.54 2.64 4.57 3.87 6.37 3.87 1.8 0 3.83-1.23 6.37-3.87 2-2.08 4.22-4.97 6.25-8.16 1.78-2.79 7.58-12.44 7.58-19.67 0-5.37-2.16-9.61-6.26-12.27C34.52 1.47 29.84.35 24 .35zm0 .14c2.11.09 4.12.27 5.88.7a22 22 0 0 1 3.26 1.03c1.01.42 1.94.9 2.8 1.46A12.92 12.92 0 0 1 40.6 8.8c.53 1.03.92 2.15 1.2 3.34.26 1.2.4 2.47.4 3.8 0 1.82-.37 3.77-.94 5.74a43.19 43.19 0 0 1-2.2 5.77 69.59 69.59 0 0 1-4.45 8.17 54.47 54.47 0 0 1-6.25 8.16 17.98 17.98 0 0 1-3.46 2.93c-.32.2-.62.3-.91.39-.3-.08-.6-.2-.9-.4-1.06-.63-2.2-1.6-3.47-2.92-2-2.08-4.22-4.97-6.25-8.16a69.6 69.6 0 0 1-4.46-8.17 43.18 43.18 0 0 1-2.19-5.77 20.93 20.93 0 0 1-.93-5.73c0-1.34.13-2.61.4-3.81.27-1.2.67-2.31 1.2-3.34a12.92 12.92 0 0 1 4.67-5.12 17.1 17.1 0 0 1 2.8-1.46c1-.41 2.1-.76 3.26-1.04C19.88.76 21.89.58 24 .5z" opacity=".3"/><path d="M27.16 6.29c-.07-.02-.15 0-.22.1-.66 1.53-.92 2.57-1.8 4.24-.34 2.29-.6 4.51-.92 6.78-.28-.07-.58-.11-.88-.13-.44-1.35-1.22-3.39-1.55-4.63-.64-1-1.08-2.05-1.73-3.05-.43-.47-1.05-.9-1.48-1.37-.1.12.63 1.21 1.02 1.68.37.84 1 2.32 1.8 3.25.4 1.55.7 2.74 1 4.1-.29.01-.56.03-.81.07-.28.05-.55.16-.8.3a1.06 1.06 0 0 0-.3-.53c-.66-.53-.83-.86-1.37-1.5-.96-.08-3.01-1.59-4.08-2.15-1.36-.1-2.73-.23-4.1-.34.37.41.7.2 1.05.32.97.08 1.97.3 2.95.37 1.03.57 1.91 1.28 2.85 2 .67.8 1.63 1.53 2.42 2.24l-.2.18c-.55-.29-2.08-1.54-3.02-1.4-2.33 1.74-3.91 2.72-6.48 3.57-.16.41-.35 4.51-.3 5.84.38-.45.28-.65.36-1 0-1.22.2-2.44.2-3.66 2.68-1.06 4.33-2.72 6.59-4.08.73.34 1.35.9 2.02 1.35l-.25.28a4.8 4.8 0 0 0-1.19 2.8c-.01 1.04.18 3 1.25 3.7 1.19.76 2.93-.14 4.24-.95a6.1 6.1 0 0 0 1.82-2.18l.6.23c-.5 1.6-1.8 4.31-1.47 4.8-.76 2.16-1.68 4.21-2.44 6.36.18.07 2.91-6.2 2.97-6.49.44.1.9-3.65 1.2-5l-.69-.24.1-.2c.53.17 1.14.38 1.61.5 1.02 1.32 2.18 4.56 2.53 4.25.72.99 1.15 3.44 1.07 3.26a9.31 9.31 0 0 0-.8-3.66c.54-.12-1.85-2.53-2.26-4.62-.5-.14-1.25-.17-1.89-.25l.07-.17L30 19.69c1.93.4 4.68.91 6.52 1.66a7.27 7.27 0 0 1 1.72 2.43 6.72 6.72 0 0 0-1.5-2.97l-.4-.28c-1.9-.35-3.7-.67-5.3-1.61l-1.02.02-3.8 1.16.01-.17c.08-.01.15-.06.18-.17 1.32-1.7 2.86-3.6 4.08-5.37 2.94-.49 4.76-2.06 7.22-3.05l2.74 2.61c-.03-.38-1.86-2.27-2.67-3.04-2.56 1.05-4.87 2.27-7.67 2.83a34.9 34.9 0 0 1-4.05 4.98 1.92 1.92 0 0 0-.9-1c-.04-.03-.1-.04-.13-.06l.56-6.92a10.41 10.41 0 0 0 1.43-3.5l.45 3.03c.22-1.44.01-2.88-.2-3.8 0-.1-.06-.16-.12-.18z" fill-rule="evenodd" fill="#1a1a1a"/><path d="M19.8 19.18s.76-1.86 3.57-1.32c2.8.55 2.05 2.37 1.72 2.78-.34.4-7.1 5.18-5.29-1.46z" fill="url(#h)" fill-rule="evenodd"/><circle cx="20.49" cy="23.45" r="2.3" fill="url(#i)" fill-rule="evenodd"/></svg>