<svg xmlns="http://www.w3.org/2000/svg" xmlns:xlink="http://www.w3.org/1999/xlink" width="48" height="48"><defs><linearGradient id="e"><stop offset="0" stop-color="#3d4970"/><stop offset=".37" stop-color="#0a8"/><stop offset="1" stop-color="#aef"/></linearGradient><linearGradient id="a"><stop offset="0"/><stop offset="1" stop-opacity="0"/></linearGradient><linearGradient id="b"><stop offset="0" stop-color="#f6845d"/><stop offset=".26" stop-color="#e7341e"/><stop offset="1" stop-color="#cb121b"/></linearGradient><linearGradient id="c"><stop offset="0" stop-color="#b20909"/><stop offset="1" stop-color="#d71f1f"/></linearGradient><linearGradient x1="34.44" y1="35.45" x2="33.01" y2="22.58" id="h" xlink:href="#c" gradientUnits="userSpaceOnUse" gradientTransform="matrix(1.31836 0 0 1.31836 -10.4 -10.98)"/><linearGradient x1="14.89" y1="25.03" x2="24.34" y2="37.11" id="l" xlink:href="#d" gradientUnits="userSpaceOnUse" gradientTransform="matrix(1.26521 0 0 1.26521 -2.14 -10.4)"/><linearGradient id="d"><stop offset="0" stop-color="#a81212"/><stop offset="1" stop-color="#8e1414"/></linearGradient><linearGradient x1="36.68" y1="18.24" x2="43.45" y2="28" id="i" xlink:href="#d" gradientUnits="userSpaceOnUse" gradientTransform="matrix(1.28717 0 0 1.28717 -10.08 -10.37)"/><linearGradient xlink:href="#b" id="g" gradientUnits="userSpaceOnUse" gradientTransform="matrix(1.21378 0 0 1.21378 -7.38 -8.8)" x1="37.22" y1="7.71" x2="44.47" y2="43.09"/><linearGradient xlink:href="#b" id="j" gradientUnits="userSpaceOnUse" gradientTransform="matrix(1.21378 0 0 1.21378 -1.51 -8.8)" x1="9.59" y1="13.33" x2="17.6" y2="44.68"/><linearGradient xlink:href="#c" id="k" gradientUnits="userSpaceOnUse" gradientTransform="matrix(1.2777 0 0 1.2777 -2.34 -10.73)" x1="12.92" y1="52.85" x2="7.78" y2="24.78"/><linearGradient xlink:href="#e" id="f" x1="7.07" y1="-1.63" x2="40.57" y2="43.76" gradientUnits="userSpaceOnUse"/></defs><path d="M23.71.5C17.88.5 13.2 1.6 9.78 3.82 5.68 6.48 3.5 10.73 3.5 16.1c0 7.22 5.8 16.88 7.58 19.67a54.48 54.48 0 0 0 6.25 8.16c2.54 2.64 4.57 3.87 6.37 3.87 1.8 0 3.83-1.23 6.37-3.87 2-2.08 4.22-4.98 6.25-8.16 1.78-2.79 7.59-12.45 7.59-19.67 0-5.37-2.17-9.62-6.27-12.27C34.24 1.6 29.55.49 23.7.49z" fill="url(#f)"/><path d="M42.2 23.73c.25-.7.57-1.35.77-2.05.58-1.97.94-3.93.94-5.73 0-1.34-.13-2.61-.4-3.8a12.89 12.89 0 0 0-3.01-5.97L34.12 4.1 20.6 7.97l1.52 14 10.48 7.5z" fill="url(#g)"/><path d="M20.6 7.97l1.52 14 10.48 7.5-.3-15.85z" fill="url(#h)"/><path d="M42.29 23.67c.22-.62.51-1.2.7-1.83.57-1.97.93-3.93.93-5.73 0-1.34-.13-2.61-.4-3.8-.23-1.04-.61-2-1.04-2.9L32.3 13.61l.3 15.85z" fill="url(#i)"/><path d="M4.72 22.44c.54 1.7 1.18 3.41 1.9 5a69.63 69.63 0 0 0 4.46 8.18 54.48 54.48 0 0 0 1.5 2.16l7.08 2.1 9-11.47-4.68-12.71-11.8.67z" fill="url(#j)"/><path d="M5.64 24.85c.35.87.61 1.78 1 2.6a69.63 69.63 0 0 0 4.45 8.18 54.48 54.48 0 0 0 1.5 2.15l7.07 2.1-5.84-14.57z" fill="url(#k)"/><path d="M23.98 15.7l4.69 12.7-9.01 11.49-5.79-14.56z" fill="url(#l)"/><path d="M34 5.48a.67 1.9 86.74 0 0-2.1.9.67 1.9 86.74 1 0 3.71-.45.67 1.9 86.74 0 0-1.6-.45zm-3.55.98a.85 2.14 86.19 0 0-2.37 1.14.85 2.14 86.19 1 0 4.18-.57.85 2.14 86.19 0 0-1.8-.57zm10 1.12a.9 2.22 89.6 0 0-.1 0 .9 2.22 89.6 0 0-2.09 1.06.9 2.22 89.6 0 0 4.06.32c-.24-.47-.6-.86-.89-1.29a.9 2.22 89.6 0 0-.98-.09zm-13.77.36a.76 2.3 84.17 0 0-2.7 1.17.76 2.3 84.17 1 0 4.46-.75.76 2.3 84.17 0 0-1.76-.42zm10.2 1.2a.9 2.35 88.39 0 0-2.42 1.13.9 2.35 88.39 0 0 4.61-.44.9 2.35 88.39 0 0-2.2-.69zm-3.83 1.43a1.01 2.54 85.37 0 0-2.8 1.4 1.01 2.54 85.37 1 0 4.96-.75 1.01 2.54 85.37 0 0-2.16-.65zm-10.03.18a2.19 1.32 67.16 0 0-.7.35 2.19 1.32 67.16 1 0 2.42 3.45 2.19 1.32 67.16 0 0-1.72-3.8zm20.04.26a1.22 2.02 32.74 0 0-1.03 3.52 1.22 2.02 32.74 0 0 1.64-.78c-.06-.47-.05-1-.15-1.45-.1-.46-.32-.85-.46-1.29zM29.5 13.53a2.43 1.52 64.45 0 0-.8.4 2.43 1.52 64.45 1 0 2.81 3.78 2.43 1.52 64.45 0 0-2-4.18zm6.81.53a1.52 2.43 39.17 0 0-1.98 4.2 1.52 2.43 39.17 1 0 2.22-4.17 1.52 2.43 39.17 0 0-.24-.03zm-10.07 1.96a2.19 1.32 67.16 0 0-.7.36 2.19 1.32 67.16 1 0 2.43 3.44 2.19 1.32 67.16 0 0-1.73-3.8zm17.37 1.9a1.26 2.1 31.79 0 0-1.58 3.78 1.26 2.1 31.79 0 0 1.02-.25c.33-1.21.44-2.37.58-3.53a1.26 2.1 31.79 0 0-.02 0zm-20.57 1.1a1.14 1.72 4.33 0 0-.11 0 1.14 1.72 4.33 1 0 .06 3.43 1.14 1.72 4.33 0 0 .05-3.43zm-9.19.03a1.28 2.33 69.22 0 0-3.05 2.4 1.28 2.33 69.22 1 0 4.25-1.88 1.28 2.33 69.22 0 0-1.2-.52zm15.52 2.86a2.36 1.24 62.02 0 0-.68.52 2.36 1.24 62.02 1 0 2.93 3.28 2.36 1.24 62.02 0 0-2.25-3.8zm7.07.06a1.61 2.6 36.5 0 0-2.07 4.56A1.61 2.6 36.5 1 0 36.7 22a1.61 2.6 36.5 0 0-.25-.03zM22.17 24.2a1.3 2.26 5.84 1 0-.19 4.5 1.3 2.26 5.84 1 0 .2-4.5zm-1.13 6.28a1.65 2.99 8.06 1 0-.52 5.93 1.65 2.99 8.06 1 0 .52-5.93zm-7.16 3.01a2.77 1.52 42.14 0 0-.84.43 2.77 1.52 42.14 1 0 4.28 3.48 2.77 1.52 42.14 0 0-3.45-3.91z" fill="#d5c2c2"/><path d="M23.71.35C17.88.35 13.2 1.47 9.78 3.68c-4.1 2.66-6.27 6.9-6.27 12.27 0 7.23 5.8 16.89 7.58 19.68a54.48 54.48 0 0 0 6.25 8.15c2.54 2.65 4.57 3.88 6.37 3.88 1.8 0 3.83-1.23 6.37-3.88 2-2.07 4.22-4.97 6.25-8.15 1.78-2.8 7.59-12.45 7.59-19.68 0-5.37-2.17-9.61-6.27-12.27C34.24 1.47 29.55.35 23.7.35zm0 .14c2.12.09 4.12.28 5.88.7 1.16.27 2.25.62 3.26 1.04 1.01.41 1.95.9 2.8 1.45a12.92 12.92 0 0 1 4.67 5.12 14.1 14.1 0 0 1 1.2 3.34c.26 1.2.4 2.47.4 3.81 0 1.81-.37 3.77-.94 5.73a43.19 43.19 0 0 1-2.19 5.78 69.59 69.59 0 0 1-4.46 8.17 54.47 54.47 0 0 1-6.25 8.15 17.98 17.98 0 0 1-3.46 2.93c-.32.2-.62.3-.9.4-.3-.1-.6-.2-.92-.4a17.72 17.72 0 0 1-3.46-2.93 54.5 54.5 0 0 1-6.25-8.15 69.6 69.6 0 0 1-4.46-8.17 43.19 43.19 0 0 1-2.19-5.78 20.93 20.93 0 0 1-.93-5.73c0-1.34.13-2.61.4-3.8.27-1.2.67-2.32 1.2-3.35a12.92 12.92 0 0 1 4.67-5.12 17.1 17.1 0 0 1 2.8-1.45c1-.42 2.1-.77 3.26-1.04C19.59.77 21.6.58 23.7.49z" opacity=".2"/></svg>