<?xml version="1.0" encoding="UTF-8" standalone="no"?><svg xmlns:dc="http://purl.org/dc/elements/1.1/" xmlns:cc="http://creativecommons.org/ns#" xmlns:rdf="http://www.w3.org/1999/02/22-rdf-syntax-ns#" xmlns="http://www.w3.org/2000/svg" xmlns:xlink="http://www.w3.org/1999/xlink" width="48" height="48" viewBox="0 0 12.7 12.7"><metadata><rdf:RDF><cc:Work><dc:format>image/svg+xml</dc:format><dc:type rdf:resource="http://purl.org/dc/dcmitype/StillImage"/><dc:title/></cc:Work></rdf:RDF></metadata><defs><linearGradient id="d"><stop offset="0" stop-color="#93ac9d" stop-opacity=".977"/><stop offset=".468" stop-color="#536c5d"/><stop offset="1" stop-color="#b7c8be"/></linearGradient><linearGradient id="c"><stop offset="0" stop-color="#dbe3e2"/><stop offset=".686" stop-color="#93aca7"/><stop offset="1" stop-color="#6f918a"/></linearGradient><linearGradient id="b"><stop offset="0" stop-color="#fff"/><stop offset="1" stop-color="#0f0" stop-opacity="0"/></linearGradient><radialGradient gradientUnits="userSpaceOnUse" gradientTransform="matrix(.43919 0 0 .4549 -.07 279.51)" r="1.75" cy="23.08" cx="15.07" id="a"><stop offset="0" stop-color="#00000c"/><stop offset="1" stop-opacity="0"/></radialGradient><radialGradient id="i" cx="29.34" cy="31.28" r="4.988" gradientTransform="translate(-2.353 -3.792) scale(.2786)" gradientUnits="userSpaceOnUse"><stop stop-color="#a4fff7" stop-opacity=".686" offset="0"/><stop stop-color="#96e7f1" stop-opacity=".317" offset=".193"/><stop stop-color="#8bd3ec" stop-opacity=".137" offset=".358"/><stop stop-color="#76ffde" stop-opacity="0" offset="1"/></radialGradient><radialGradient id="h" cx="22.92" cy="25.28" r="24" gradientTransform="matrix(.07044 0 0 .07044 4.12 3.098)" gradientUnits="userSpaceOnUse"><stop stop-color="#89ff99" stop-opacity=".505" offset="0"/><stop stop-color="#006ac4" stop-opacity="0" offset="1"/></radialGradient><radialGradient id="g" cx="39.25" cy="42.07" r="11.38" gradientUnits="userSpaceOnUse" gradientTransform="translate(.628 -.788) scale(.17882)"><stop stop-color="#ccc" offset="0"/><stop stop-color="#666" offset=".365"/><stop stop-color="#333" offset="1"/></radialGradient><radialGradient xlink:href="#b" id="j" cx="7.337" cy="9.948" fx="7.337" fy="9.948" r=".406" gradientTransform="matrix(2.00105 .00221 -.00175 1.58451 -7.398 -5.892)" gradientUnits="userSpaceOnUse"/><radialGradient xlink:href="#c" id="e" cx="6.343" cy="5.638" fx="6.343" fy="5.638" r="5.347" gradientTransform="matrix(1.07533 -.00289 .0031 1.1538 -.495 -.97)" gradientUnits="userSpaceOnUse"/><radialGradient xlink:href="#d" id="f" cx="9.224" cy="8.726" fx="9.224" fy="8.726" r="3.383" gradientUnits="userSpaceOnUse" gradientTransform="matrix(2.14791 .00684 -.00767 2.40887 -11.357 -14.276)"/></defs><path d="M6.35.1C4.81.1 3.57.39 2.66.97A3.67 3.67 0 0 0 1 4.22c0 1.91 1.54 4.47 2.01 5.2.54.85 1.13 1.61 1.65 2.16.68.7 1.21 1.03 1.69 1.03s1.01-.33 1.69-1.03a15.2 15.2 0 0 0 1.65-2.15c.47-.74 2-3.3 2-5.21 0-1.42-.57-2.54-1.65-3.25A6.75 6.75 0 0 0 6.35.09z" fill="url(#e)"/><path d="M6.35.1C4.81.1 3.57.39 2.66.97A3.67 3.67 0 0 0 1 4.22c0 1.91 1.54 4.47 2.01 5.2.54.85 1.13 1.61 1.65 2.16.68.7 1.21 1.03 1.69 1.03s1.01-.33 1.69-1.03a15.2 15.2 0 0 0 1.65-2.15c.47-.74 2-3.3 2-5.21 0-1.42-.57-2.54-1.65-3.25A6.75 6.75 0 0 0 6.35.09zm0 .03C6.91.15 7.44.2 7.9.31a5.82 5.82 0 0 1 1.6.66 3.65 3.65 0 0 1 1.24 1.36c.14.27.25.57.32.88a4.61 4.61 0 0 1-.14 2.53c-.15.52-.36 1.04-.58 1.52-.44.97-.95 1.8-1.18 2.17a15.2 15.2 0 0 1-1.65 2.15 4.9 4.9 0 0 1-.92.78.96.96 0 0 1-.24.1.96.96 0 0 1-.24-.1 4.76 4.76 0 0 1-.92-.78 14.41 14.41 0 0 1-1.65-2.15 19.2 19.2 0 0 1-1.18-2.17c-.22-.48-.43-1-.58-1.52a4.6 4.6 0 0 1-.14-2.52 3.73 3.73 0 0 1 .84-1.64 3.65 3.65 0 0 1 1.45-1A6.83 6.83 0 0 1 6.35.13z" opacity=".2"/><path d="M9.993.532v.411l.273-.274z" fill="#d7e3f4"/><path d="M6.35 1.908a3.383 3.383 0 1 0 0 6.767 3.383 3.383 0 0 0 0-6.767z" color="#000" fill="url(#f)" fill-rule="evenodd"/><path d="M6.35 3.436a2.035 2.035 0 1 0 0 4.07 2.035 2.035 0 0 0 0-4.07zm0 .413c.896 0 1.62.724 1.62 1.62 0 .897-.724 1.62-1.62 1.62-.896 0-1.62-.723-1.62-1.62 0-.896.724-1.62 1.62-1.62z" color="#000" fill="url(#g)" fill-rule="evenodd"/><circle cx="6.35" cy="5.47" r="1.734" color="#000" fill="#1a1a1a" fill-rule="evenodd"/><circle cx="6.35" cy="5.47" r="1.464" color="#000" fill="url(#h)" fill-rule="evenodd"/><circle cx="6.35" cy="5.471" r="1.089" color="#000" fill="url(#i)" fill-rule="evenodd"/><path d="M8.22 10.054a.812.812 0 1 1-1.624 0 .812.812 0 1 1 1.624 0z" color="#000" fill="#536c5d" fill-rule="evenodd"/><path d="M7.814 10.053a.406.406 0 1 1-.812 0 .406.406 0 1 1 .812 0z" color="#000" fill="#0f0" fill-rule="evenodd"/><path d="M7.814 10.053a.406.406 0 1 1-.812 0 .406.406 0 1 1 .812 0z" color="#000" opacity=".7" fill="url(#j)" fill-rule="evenodd"/></svg>