<svg xmlns="http://www.w3.org/2000/svg" viewBox="0 0 48 48"><defs><linearGradient id="a" x1="16" x2="40.38" y1="37.08" y2="6.49" gradientUnits="userSpaceOnUse"><stop stop-color="#ff2a2a" offset="0"/><stop stop-color="#f55" offset=".1"/><stop stop-color="#ff4242" offset=".3"/><stop stop-color="#ff3636" offset=".42"/><stop stop-color="#ff2a2a" offset=".54"/><stop stop-color="#ff2a2a" offset=".67"/><stop stop-color="#c83737" offset="1"/></linearGradient></defs><path d="M24 .35c-5.83 0-10.52 1.12-13.93 3.33-4.1 2.66-6.27 6.9-6.27 12.27 0 7.23 5.8 16.88 7.58 19.67a54.47 54.47 0 0 0 6.25 8.16c2.54 2.64 4.57 3.87 6.37 3.87 1.8 0 3.83-1.23 6.37-3.87 2-2.08 4.22-4.97 6.25-8.16 1.78-2.79 7.58-12.44 7.58-19.67 0-5.37-2.16-9.62-6.26-12.27C34.52 1.47 29.84.35 24 .35z" fill="url(#a)"/><path d="M9 30.05l.02.04a47.03 47.03 0 0 0 9.06-3.75 17.16 17.16 0 0 0 6.8 2.34c6 .77 12.23-.74 17.27-4.08.2-.49.39-.98.57-1.48l-.02-4.68a24.5 24.5 0 0 1-15.72 7.86c-2.46.22-5 0-7.25-1 1.7-1 3.44-1.93 5-3.14 1.62-1.25 3.19-2.65 4.18-4.45.5-.9.84-1.89.93-2.91a5.6 5.6 0 0 0-.53-3c-.4-.78-1-1.46-1.72-1.97a6.48 6.48 0 0 0-2.41-1.03 9.36 9.36 0 0 0-5.2.55c-1.98.75-3.8 2-5.07 3.7a8.9 8.9 0 0 0-1.82 5.96c.1 1.38.57 2.71 1.3 3.88a10.72 10.72 0 0 0 2.78 2.96A52.58 52.58 0 0 1 9 30.05zM24.14 10.6c1.04.13 2.05.6 2.72 1.39.55.64.85 1.48.9 2.32a5.4 5.4 0 0 1-.47 2.46c-.67 1.55-1.9 2.78-3.17 3.9-1.67 1.5-3.54 2.75-5.39 4.02a8.56 8.56 0 0 1-2.37-1.86 7.05 7.05 0 0 1-1.52-3.5c-.23-1.88.4-3.81 1.57-5.3a9.54 9.54 0 0 1 4.65-3.08c1-.31 2.05-.49 3.08-.35z" opacity=".6"/><path d="M42.58 23.5c.31-.85.7-1.67.96-2.54.4-1.4.52-2.73.66-4.07-4 4.16-9.47 6.87-15.22 7.4-2.46.23-5 .01-7.25-.99 1.7-1 3.44-1.93 5-3.14 1.62-1.25 3.19-2.65 4.18-4.45.5-.9.84-1.89.93-2.91a5.6 5.6 0 0 0-.53-3c-.4-.78-1-1.46-1.72-1.97a6.48 6.48 0 0 0-2.41-1.03 9.36 9.36 0 0 0-5.2.55c-1.98.75-3.8 2-5.07 3.7a8.9 8.9 0 0 0-1.82 5.96c.1 1.38.57 2.71 1.3 3.88a10.72 10.72 0 0 0 2.78 2.96 52.58 52.58 0 0 1-8.58 4.41c3.3-.92 6.46-2.3 9.5-3.92a17.16 17.16 0 0 0 6.8 2.34c5.39.69 10.94-.52 15.68-3.18zM26.14 8.6c1.03.13 2.05.6 2.72 1.39.55.64.85 1.48.9 2.32a5.4 5.4 0 0 1-.47 2.46c-.67 1.55-1.9 2.78-3.17 3.9-1.67 1.5-3.54 2.75-5.39 4.02a8.56 8.56 0 0 1-2.37-1.86 7.05 7.05 0 0 1-1.52-3.5c-.23-1.88.4-3.81 1.57-5.3a9.54 9.54 0 0 1 4.65-3.08c1-.31 2.05-.48 3.08-.35z" fill="#e6e6e6"/><path d="M24 .35c-5.83 0-10.52 1.12-13.94 3.33-4.1 2.66-6.27 6.9-6.27 12.27 0 7.23 5.81 16.88 7.59 19.67a54.47 54.47 0 0 0 6.25 8.16c2.54 2.64 4.56 3.87 6.37 3.87 1.8 0 3.83-1.23 6.37-3.87 2-2.08 4.21-4.97 6.25-8.16 1.78-2.79 7.58-12.44 7.58-19.67 0-5.37-2.16-9.62-6.26-12.27C34.52 1.47 29.84.35 24 .35zm0 .14c2.11.09 4.12.27 5.88.7a22 22 0 0 1 3.26 1.03c1 .42 1.94.9 2.8 1.46A12.92 12.92 0 0 1 40.6 8.8c.52 1.03.92 2.15 1.2 3.34.26 1.2.4 2.47.4 3.8 0 1.82-.37 3.77-.94 5.74a43.18 43.18 0 0 1-2.2 5.77 69.59 69.59 0 0 1-4.45 8.17 54.46 54.46 0 0 1-6.25 8.16 17.98 17.98 0 0 1-3.46 2.93c-.32.2-.62.3-.91.39-.3-.08-.6-.2-.91-.4-1.05-.63-2.2-1.6-3.46-2.92-2-2.08-4.22-4.97-6.25-8.16a69.6 69.6 0 0 1-4.46-8.17 43.2 43.2 0 0 1-2.19-5.77 20.93 20.93 0 0 1-.94-5.73c0-1.34.14-2.61.4-3.81.27-1.2.68-2.31 1.2-3.34a12.92 12.92 0 0 1 4.67-5.12 17.1 17.1 0 0 1 2.8-1.46c1.01-.41 2.1-.76 3.27-1.04C19.88.76 21.89.58 24 .5z" opacity=".2"/></svg>