<svg xmlns="http://www.w3.org/2000/svg" xmlns:xlink="http://www.w3.org/1999/xlink" viewBox="0 0 48 48"><defs><linearGradient id="e"><stop offset="0" stop-color="#37abc8"/><stop offset=".49" stop-color="#0fc"/><stop offset="1" stop-color="#d5f6ff"/></linearGradient><linearGradient id="d"><stop offset="0" stop-color="#325f78"/><stop offset="1" stop-color="#2c5aa0"/></linearGradient><linearGradient id="c"><stop offset="0"/><stop offset="1" stop-opacity="0"/></linearGradient><linearGradient id="b"><stop offset="0"/><stop offset="1" stop-opacity="0"/></linearGradient><linearGradient id="a"><stop stop-color="#fff" offset="0"/><stop stop-color="#999" offset=".67"/><stop stop-color="#fff" offset="1"/></linearGradient><linearGradient xlink:href="#b" id="i" gradientUnits="userSpaceOnUse" x1="5.46" y1="9.87" x2="44.86" y2="30.45"/><linearGradient xlink:href="#c" id="g" gradientUnits="userSpaceOnUse" x1="4.67" y1="8.27" x2="50.02" y2="35.6"/><linearGradient xlink:href="#d" id="h" x1="24" y1="2.63" x2="23.94" y2="47.5" gradientUnits="userSpaceOnUse"/><linearGradient xlink:href="#e" id="f" x1="3.71" y1="20.83" x2="39.26" y2="36.12" gradientUnits="userSpaceOnUse"/></defs><path fill="url(#f)" d="M24 .35c-5.83 0-10.52 1.12-13.93 3.33-4.1 2.66-6.27 6.9-6.27 12.27 0 7.23 5.8 16.88 7.58 19.67a54.47 54.47 0 0 0 6.25 8.16c2.54 2.64 4.57 3.87 6.37 3.87 1.8 0 3.83-1.23 6.37-3.87 2-2.08 4.22-4.97 6.25-8.16 1.78-2.79 7.58-12.44 7.58-19.67 0-5.37-2.16-9.62-6.26-12.27C34.52 1.47 29.84.35 24 .35z"/><path d="M27.44 46.25c.92-.62 1.86-1.35 2.93-2.47 2-2.08 4.22-4.97 6.25-8.16.89-1.4 2.79-4.5 4.46-8.17.83-1.83 1.61-3.8 2.19-5.77.5-1.76.77-3.49.83-5.13l-8.5-8.51L12.4 31.22z" opacity=".55" fill="url(#g)"/><path d="M24 2.63c-1.72 1.7-3.37 3.72-5.11 5.4H12.4v6.49c-1.7 1.74-3.7 3.39-5.4 5.1 1.7 1.73 3.7 3.45 5.4 5.2v6.4h6.48c1.74 1.7 3.39 3.7 5.11 5.4 1.72-1.7 3.44-3.7 5.19-5.4h6.4v-6.4c1.7-1.76 3.71-3.47 5.41-5.19-1.7-1.72-3.72-3.37-5.4-5.11V8.04h-6.41c-1.75-1.7-3.47-3.71-5.19-5.41zm0 10a7 7 0 0 0 0 14z" fill="url(#h)"/><path d="M24 9.58l-1.52 3.35-4.54 10-.98 2.14 9.25 9.25c1-1.06 1.97-2.13 2.98-3.1h6.4v-6.4c.58-.6 1.23-1.2 1.86-1.79z" fill="url(#i)" opacity=".52"/><path d="M24 9.58a9.27 9.27 0 0 0-9.27 9.28A9.27 9.27 0 0 0 24 28.13z" fill="#fff"/><path opacity=".5" d="M3.92 14.74c-.02.4-.13.78-.13 1.2 0 7.24 5.81 16.9 7.6 19.68a54.47 54.47 0 0 0 6.24 8.16c2.54 2.64 4.56 3.87 6.37 3.87 1.8 0 3.83-1.23 6.37-3.87 2-2.08 4.22-4.97 6.25-8.16 1.78-2.79 7.58-12.44 7.58-19.67 0-.43-.1-.8-.13-1.21a21.6 21.6 0 0 1-.8 4.94 43.2 43.2 0 0 1-2.2 5.77 69.59 69.59 0 0 1-4.45 8.17 54.46 54.46 0 0 1-6.25 8.16 17.98 17.98 0 0 1-3.46 2.93c-1.05.64-2 .94-2.91.94-.9 0-1.86-.3-2.9-.94-1.06-.64-2.2-1.6-3.47-2.93-2-2.08-4.22-4.97-6.25-8.16a69.6 69.6 0 0 1-4.46-8.17 43.19 43.19 0 0 1-2.19-5.77 21.6 21.6 0 0 1-.8-4.94z"/></svg>