<?xml version="1.0" encoding="UTF-8" standalone="no"?><svg xmlns:dc="http://purl.org/dc/elements/1.1/" xmlns:cc="http://creativecommons.org/ns#" xmlns:rdf="http://www.w3.org/1999/02/22-rdf-syntax-ns#" xmlns="http://www.w3.org/2000/svg" xmlns:xlink="http://www.w3.org/1999/xlink" width="48" height="48" viewBox="0 0 12.7 12.7"><metadata><rdf:RDF><cc:Work><dc:format>image/svg+xml</dc:format><dc:type rdf:resource="http://purl.org/dc/dcmitype/StillImage"/><dc:title/></cc:Work></rdf:RDF></metadata><defs><linearGradient id="d"><stop offset="0"/><stop offset="1" stop-opacity=".06"/></linearGradient><linearGradient id="b"><stop offset="0" stop-color="#216778"/><stop offset=".72" stop-color="#00aff0"/><stop offset="1" stop-color="#5fbcd3"/></linearGradient><linearGradient id="a"><stop offset="0"/><stop offset="1" stop-opacity="0"/></linearGradient><linearGradient xlink:href="#b" id="c" gradientUnits="userSpaceOnUse" gradientTransform="translate(18.2 .9) scale(.16536)" x1="46" y1="3" x2="46" y2="47"/><linearGradient xlink:href="#b" id="e" x1="1.14" y1="2.09" x2="10.79" y2="8.06" gradientUnits="userSpaceOnUse"/><linearGradient xlink:href="#d" id="f" gradientUnits="userSpaceOnUse" x1="2.62" y1="3.07" x2="12.91" y2="9.84"/></defs><path d="M6.35.1C4.81.1 3.57.38 2.66.96A3.67 3.67 0 0 0 1 4.22c0 1.91 1.54 4.47 2.01 5.2.54.85 1.13 1.61 1.65 2.16.68.7 1.21 1.03 1.69 1.03s1.01-.33 1.69-1.03a15.2 15.2 0 0 0 1.65-2.15c.47-.74 2-3.3 2-5.21 0-1.42-.57-2.54-1.65-3.25A6.75 6.75 0 0 0 6.35.1z" fill="url(#e)"/><path d="M8 11.62l.04-.04a15.2 15.2 0 0 0 1.65-2.15c.23-.37.73-1.2 1.18-2.17.16-.36.3-.75.43-1.14l-3.01-3-.5.39-1.32-.74-1.66.57-.64 1.84 2.78 2.8-1.43-.11-1.36-.1z" fill="url(#f)" opacity=".65"/><path d="M6.26 2.42c-1.53 0-2.43.69-2.43 1.87 0 1.3 1.68 1.62 2.72 1.75.96.27 1 .42 1 .85 0 .53-.68.73-1.13.73-1.37 0-1.26-1-2-1-.36 0-.54.14-.54.6 0 .48.96 1.38 2.49 1.38 1.53 0 2.5-.58 2.5-1.76 0-1.21-1-1.59-2.32-1.94-.9-.21-1.4-.38-1.4-.8 0-.53.57-.72 1.03-.72 1.36 0 1.06.87 1.8.87.37 0 .6-.08.6-.55 0-.47-.78-1.28-2.32-1.28z" fill="#fff" fill-rule="evenodd"/><path d="M6.35.1C4.81.1 3.57.38 2.66.96A3.67 3.67 0 0 0 1 4.22c0 1.91 1.54 4.47 2.01 5.2.54.85 1.13 1.61 1.65 2.16.68.7 1.21 1.03 1.69 1.03s1.01-.33 1.69-1.03a15.2 15.2 0 0 0 1.65-2.15c.47-.74 2-3.3 2-5.21 0-1.42-.57-2.54-1.65-3.25A6.75 6.75 0 0 0 6.35.1zm0 .03C6.91.15 7.44.2 7.9.31a5.82 5.82 0 0 1 1.6.66 3.65 3.65 0 0 1 1.24 1.36c.14.27.25.57.32.88a4.61 4.61 0 0 1-.14 2.53c-.15.52-.36 1.04-.58 1.52-.44.97-.95 1.8-1.18 2.17a15.2 15.2 0 0 1-1.65 2.15 4.9 4.9 0 0 1-.92.78.96.96 0 0 1-.24.1.96.96 0 0 1-.24-.1 4.76 4.76 0 0 1-.92-.78 14.41 14.41 0 0 1-1.65-2.15 19.2 19.2 0 0 1-1.18-2.17c-.22-.48-.43-1-.58-1.52a4.6 4.6 0 0 1-.14-2.52 3.73 3.73 0 0 1 .84-1.64 3.65 3.65 0 0 1 1.45-1A6.83 6.83 0 0 1 6.35.13z" opacity=".2"/></svg>