<svg xmlns="http://www.w3.org/2000/svg" xmlns:xlink="http://www.w3.org/1999/xlink" viewBox="0 0 48 48"><defs><linearGradient id="b"><stop offset="0" stop-color="#217821"/><stop offset=".3" stop-color="#5fd35f"/><stop offset=".64" stop-color="#37c837"/><stop offset="1" stop-color="#165016"/></linearGradient><linearGradient id="a"><stop offset="0"/><stop offset="1" stop-opacity="0"/></linearGradient><linearGradient xlink:href="#a" id="d" gradientUnits="userSpaceOnUse" x1="8.76" y1="11.63" x2="47.65" y2="34.56"/><linearGradient xlink:href="#b" id="c" x1="11.7" y1="46.33" x2="37.01" y2="-2.88" gradientUnits="userSpaceOnUse"/></defs><path fill="url(#c)" d="M23.71.5C17.88.5 13.2 1.6 9.78 3.82 5.68 6.48 3.5 10.73 3.5 16.1c0 7.22 5.8 16.88 7.58 19.67a54.47 54.47 0 0 0 6.25 8.16c2.54 2.64 4.57 3.87 6.37 3.87 1.8 0 3.83-1.23 6.37-3.87 2-2.08 4.22-4.98 6.25-8.16 1.78-2.79 7.59-12.45 7.59-19.67 0-5.37-2.17-9.62-6.27-12.27C34.23 1.6 29.55.49 23.7.49z"/><path opacity=".3" d="M23.71.5C17.88.5 13.2 1.6 9.78 3.82 5.68 6.48 3.5 10.73 3.5 16.1c0 7.22 5.8 16.88 7.58 19.67a54.47 54.47 0 0 0 6.25 8.16c2.54 2.64 4.57 3.87 6.37 3.87 1.8 0 3.83-1.23 6.37-3.87 2-2.08 4.22-4.98 6.25-8.16 1.78-2.79 7.59-12.45 7.59-19.67 0-5.37-2.17-9.62-6.27-12.27C34.23 1.6 29.55.49 23.7.49zm0 1c5.59 0 10.08 1.07 13.35 3.19 3.93 2.54 6 6.6 6 11.75 0 6.92-5.56 16.17-7.26 18.84a52.19 52.19 0 0 1-5.99 7.81c-2.43 2.53-4.37 3.71-6.1 3.71-1.73 0-3.67-1.18-6.1-3.7a52.19 52.19 0 0 1-5.98-7.82c-1.7-2.67-7.27-11.92-7.27-18.84 0-5.15 2.08-9.2 6-11.75 3.28-2.12 7.77-3.2 13.35-3.2z"/><path d="M32.53 40.74c1.28-1.6 2.57-3.03 3.8-4.96a89.95 89.95 0 0 0 3.7-6.8l-3.47-3.47-1.42 1.05L17.38 8.81l-2.19 9.46 2.8 7.92z" fill="url(#d)" opacity=".54"/><path d="M15.47 8.3c1.62.06 2.11 0 3.59 3.6 1.27 3.04 1.27 3.09-.2 4.76a4.32 4.32 0 0 0-.88 1.33c1.22 3.83 5.15 6.73 8.99 7.7.34 0 .78-.38 1.76-1.56 1.63-1.97 1.38-1.97 5.16-.2 2.95 1.38 3.1 1.77 2.85 3.2-.3 1.96-1.23 3.09-3.2 3.92-1.86.94-3.87.84-7.07-.2a24.02 24.02 0 0 1-12.72-9.62c-2.2-3-2.95-4.82-2.95-7.03 0-1.76.35-2.94 1.43-4.32 1.03-1.37 1.57-1.62 3.2-1.57z" fill="#ececec"/></svg>