<svg xmlns="http://www.w3.org/2000/svg" xmlns:xlink="http://www.w3.org/1999/xlink" width="48" height="48"><defs><linearGradient id="c"><stop offset="0"/><stop offset="1" stop-opacity="0"/></linearGradient><linearGradient id="b"><stop offset="0" stop-color="#010000"/><stop offset="1" stop-color="#1a1a1a" stop-opacity="0"/></linearGradient><linearGradient id="a"><stop offset="0" stop-color="#999"/><stop offset="1" stop-color="#fff"/></linearGradient><linearGradient xlink:href="#a" id="g" x1="24.62" y1="12.59" x2="24.51" y2="28.5" gradientUnits="userSpaceOnUse" gradientTransform="matrix(1.23788 0 0 .60248 -8.4 .42)"/><linearGradient xlink:href="#a" id="f" x1="24.62" y1="12.59" x2="24.51" y2="28.5" gradientUnits="userSpaceOnUse" gradientTransform="matrix(.59867 0 0 .60248 15.62 12)"/><linearGradient xlink:href="#a" id="e" x1="24.62" y1="12.59" x2="24.51" y2="28.5" gradientUnits="userSpaceOnUse" gradientTransform="matrix(.59867 0 0 .60248 .96 12)"/><linearGradient xlink:href="#c" id="d" gradientUnits="userSpaceOnUse" x1="4.41" y1=".49" x2="58.37" y2="31.6"/></defs><path d="M24 .35c-5.83 0-10.52 1.12-13.93 3.33-4.1 2.66-6.27 6.9-6.27 12.27 0 7.23 5.8 16.88 7.58 19.67a54.48 54.48 0 0 0 6.25 8.16c2.54 2.64 4.57 3.87 6.37 3.87 1.8 0 3.83-1.23 6.37-3.87 2-2.08 4.22-4.97 6.25-8.16 1.78-2.79 7.58-12.44 7.58-19.67 0-5.37-2.16-9.61-6.26-12.27C34.52 1.47 29.84.35 24 .35z" fill="#a02c2c"/><path d="M26.86 46.72l.05-.01c1.05-.64 2.19-1.61 3.46-2.93 2-2.08 4.22-4.97 6.25-8.16.89-1.4 2.79-4.5 4.46-8.17.83-1.83 1.61-3.8 2.19-5.77.57-1.96.93-3.92.93-5.73 0-1.34-.13-2.62-.4-3.8-.07-.32-.23-.58-.31-.89l-5-5-28.4 1.38-.38 1.22-.28 8.78.41.59-.09 6.73-.32 4.32z" fill="url(#d)" opacity=".57"/><path d="M36.89 3.07c4.03 2.78 6.17 7.1 6.17 12.54 0 7.53-6.05 17.6-7.91 20.5a56.77 56.77 0 0 1-6.5 8.5 19.88 19.88 0 0 1-3.24 2.8c1.44-.47 3.06-1.65 4.96-3.63 2-2.08 4.22-4.97 6.25-8.16 1.78-2.79 7.58-12.44 7.58-19.67 0-5.37-2.17-9.61-6.27-12.27-.33-.22-.69-.41-1.04-.61zm-25.74.04c-.36.2-.72.39-1.05.6C6 6.37 3.83 10.61 3.83 16c0 7.22 5.8 16.88 7.59 19.67a54.48 54.48 0 0 0 6.24 8.16c1.9 1.98 3.52 3.16 4.97 3.63a19.4 19.4 0 0 1-3.24-2.8 56.77 56.77 0 0 1-6.5-8.5c-1.86-2.9-7.91-12.97-7.91-20.5 0-5.44 2.13-9.76 6.17-12.54z" opacity=".2"/><path d="M9.67 20.17h13.85V29H9.67z" opacity=".88" fill="url(#e)"/><path d="M9.43 17.9v11.38h14.39V17.91zm.57 2.6h13.25v8.33H10z" fill="#1a1a1a"/><path d="M24.34 20.17h13.84V29H24.34z" opacity=".88" fill="url(#f)"/><path d="M24.1 17.9v11.38h14.38V17.91zm.56 2.6h13.25v8.33H24.66z" fill="#1a1a1a"/><path d="M9.62 8.6h28.62v8.81H9.62z" opacity=".88" fill="url(#g)"/><path d="M9.42 6.26v11.38h29.06V6.26zm1.16 2.58h26.75v.01h.58v8.35H10V8.85h.58z" fill="#1a1a1a"/></svg>