<svg xmlns="http://www.w3.org/2000/svg" xmlns:xlink="http://www.w3.org/1999/xlink" width="48" height="48" version="1"><defs><linearGradient xlink:href="#a" id="b" gradientUnits="userSpaceOnUse" x1="2.76" y1="4.02" x2="53.62" y2="43.36"/><linearGradient id="a"><stop offset="0" stop-color="#040000"/><stop offset="1" stop-opacity="0"/></linearGradient></defs><path d="M24 .35c-5.83 0-10.52 1.12-13.93 3.33-4.1 2.65-6.27 6.9-6.27 12.27 0 7.23 5.8 16.89 7.58 19.67a54.47 54.47 0 0 0 6.25 8.16c2.54 2.64 4.57 3.87 6.37 3.87 1.8 0 3.83-1.23 6.37-3.87 2-2.08 4.22-4.97 6.25-8.16 1.78-2.78 7.59-12.44 7.59-19.67 0-5.37-2.17-9.61-6.27-12.27C34.52 1.47 29.84.35 24 .35z" fill="#c72566"/><path d="M39.3 4.68c-.43-.35-.88-.69-1.36-1a17.1 17.1 0 0 0-2.8-1.46 22 22 0 0 0-3.26-1.04C29.55.62 26.92.35 24 .35s-5.54.28-7.87.83a22.02 22.02 0 0 0-3.27 1.04 17.15 17.15 0 0 0-4.15 2.44L24 19.9z" fill="#cf4f8c"/><path d="M8.71 4.66c-.4.35-.8.71-1.15 1.1-.78.86-1.48 1.7-2 2.73a12.5 12.5 0 0 0-1.23 3.12 18.2 18.2 0 0 0-.53 3.9c0 1.8.28 3.84.85 5.8a42 42 0 0 0 2.1 5.72 47.66 47.66 0 0 0 3.37 6.51L24 19.9zm29.17 28.92a56.18 56.18 0 0 0 5.39-11.9c.57-1.97.93-3.92.93-5.73 0-1.34-.13-2.62-.4-3.81a14.09 14.09 0 0 0-1.2-3.34 12.9 12.9 0 0 0-3.3-4.12L24 19.9z" fill="#ff8c2a"/><path d="M3.92 14.74c-.02.4-.12.78-.12 1.2 0 7.24 5.8 16.9 7.58 19.68a54.47 54.47 0 0 0 6.25 8.16c2.54 2.64 4.57 3.87 6.37 3.87 1.8 0 3.83-1.23 6.37-3.87 2-2.08 4.22-4.97 6.25-8.16 1.78-2.78 7.59-12.44 7.59-19.67 0-.43-.1-.8-.14-1.21-.08 1.59-.3 3.24-.8 4.94a43.17 43.17 0 0 1-2.19 5.77 69.67 69.67 0 0 1-4.46 8.17 54.47 54.47 0 0 1-6.25 8.16 18 18 0 0 1-3.46 2.93c-1.05.64-2 .94-2.9.94-.91 0-1.87-.3-2.92-.94a18 18 0 0 1-3.46-2.93c-2-2.08-4.21-4.97-6.25-8.16a69.4 69.4 0 0 1-4.46-8.17 43.04 43.04 0 0 1-2.19-5.77c-.5-1.7-.72-3.35-.8-4.94z" opacity=".5"/><path d="M26.76 46.76c.05-.03.1-.02.15-.05 1.05-.64 2.2-1.6 3.46-2.93 2-2.08 4.22-4.97 6.25-8.16a69.4 69.4 0 0 0 4.46-8.17c.84-1.83 1.62-3.8 2.19-5.77.55-1.89.87-3.76.9-5.51L36 8 12 32z" opacity=".5" fill="url(#b)"/><path fill="#3f3f3f" d="M12 8h24v24H12z"/><rect width="7.89" height="1.53" x="15.44" y="23.84" rx="0" ry="0" fill="#1a1a1a"/><rect width="7.89" height="1.53" x="14.68" y="23.08" rx="0" ry="0" fill="#fff"/><path fill="#ccc" d="M12 8h24v.93H12z"/><path fill="#1a1a1a" d="M12 31.07h24V32H12z"/><path style="line-height:1.25;-inkscape-font-specification:squealer" d="M27.88 11.29v1.85H26.1v1.63h1.8v1.77h1.83v-1.77h1.77v-1.63h-1.77V11.3l-1.85-.01zm-12.4.22l-1.25 1.25.69.66v6.14l-.63.64 1.4 1.42 1.42-1.42-.63-.64v-3.04l1.36 1.38v1.66l-.61.64 1.4 1.42 1.43-1.42-.64-.64v-2.43l-1.16-1.18 1.1-1.1v-1.57l-1.78-1.77h-2.1zm.92 1.13l1.56 1.55-1.56 1.54v-3.09zm7.6 3.79v1.85h-1.8v1.62H24v1.77h1.84V19.9h1.77v-1.62h-1.77v-1.85H24z" fill="#1a1a1a"/><path style="line-height:1.25;-inkscape-font-specification:squealer" d="M29.43 10.45l-1.84.01v1.85h-1.8v1.63h1.8v1.77h1.84v-1.77h1.77V12.3h-1.77zm-14.24.23l-1.25 1.25.68.66v6.14l-.62.64 1.4 1.42 1.41-1.42-.62-.64v-3.04l1.36 1.38v1.66l-.62.64 1.41 1.42 1.42-1.42-.64-.64V16.3l-1.15-1.18 1.1-1.1v-1.57l-1.79-1.77zm.91 1.13l1.57 1.55-1.57 1.54zm7.6 3.78v1.86h-1.79v1.62h1.8v1.77h1.83v-1.77h1.77v-1.62h-1.77v-1.86z" font-weight="400" font-size="12.04" font-family="squealer" letter-spacing="0" word-spacing="0" fill="#fff"/></svg>