<svg xmlns="http://www.w3.org/2000/svg" xmlns:xlink="http://www.w3.org/1999/xlink" width="48" height="48" viewBox="0 0 12.7 12.7"><defs><linearGradient id="c"><stop offset="0"/><stop offset="1" stop-opacity="0"/></linearGradient><linearGradient id="a"><stop offset="0" stop-color="#000003"/><stop offset="1" stop-color="#00000a" stop-opacity="0"/></linearGradient><linearGradient id="b"><stop offset="0" stop-color="#000004"/><stop offset="1" stop-opacity="0"/></linearGradient><linearGradient id="e" x1="35" x2="33.65" y1="39" y2="41.34" gradientUnits="userSpaceOnUse" gradientTransform="translate(-.8 -1.97) scale(.22324)"><stop stop-color="#e38111" offset="0"/><stop stop-color="#fd9621" offset="1"/></linearGradient><linearGradient id="f" x1="35" x2="33.65" y1="39" y2="41.34" gradientUnits="userSpaceOnUse" gradientTransform="translate(13.5 12.54) scale(.22324)"><stop stop-color="#e38111" offset="0"/><stop stop-color="#fd9621" offset="1"/></linearGradient><linearGradient xlink:href="#c" id="d" gradientUnits="userSpaceOnUse" x1="2.91" y1="1.77" x2="13.24" y2="8.57"/></defs><path d="M6.82.1a6.75 6.75 0 0 0-.47 0c-.77 0-1.46.08-2.08.22a6.03 6.03 0 0 0-1.61.65 3.67 3.67 0 0 0-.3.22 3.67 3.67 0 0 0-.27.24 3.67 3.67 0 0 0-.25.27 3.67 3.67 0 0 0-.22.3 3.67 3.67 0 0 0-.19.3 3.67 3.67 0 0 0-.16.34 3.67 3.67 0 0 0-.12.34 3.67 3.67 0 0 0-.09.36 3.67 3.67 0 0 0-.05.36 3.67 3.67 0 0 0-.01.37 3.67 3.67 0 0 0 0 .15c0 .48.1 1 .25 1.52s.36 1.04.58 1.52a18.1 18.1 0 0 0 2.83 4.32c.34.35.64.6.92.78.28.17.53.25.77.25s.5-.08.77-.25c.28-.17.58-.43.92-.78a15.2 15.2 0 0 0 1.65-2.15c.23-.37.73-1.2 1.18-2.17.22-.48.42-1 .57-1.52a4.63 4.63 0 0 0 .14-2.52 3.74 3.74 0 0 0-.83-1.64c-.2-.23-.44-.43-.71-.61a6.75 6.75 0 0 0-.6-.3A6.75 6.75 0 0 0 8.8.43a6.75 6.75 0 0 0-.65-.18 6.75 6.75 0 0 0-.67-.11 6.75 6.75 0 0 0-.67-.05z" color="#000" fill="#3b3b3b"/><path d="M7.23 12.26c.25-.16.51-.37.81-.68a15.2 15.2 0 0 0 1.65-2.15c.23-.37.73-1.2 1.18-2.17.22-.48.42-1 .57-1.52.13-.43.18-.85.2-1.25L8.93 1.76 7.36 3.14 3.78 5.29l2.05 2.05-2.05 1.48z" opacity=".53" fill="url(#d)"/><path d="M8.92 5.29l-5.14 1.6v1.93l5.14-1.6z" fill="url(#e)"/><path d="M3.78 5.29l5.14-1.6V1.75l-5.14 1.6z" fill="url(#f)"/><path d="M3.78 3.36L8.92 5.3V7.2L3.78 5.3z" fill="#fd971f"/><path d="M1.04 3.9c0 .1-.04.2-.04.32 0 1.91 1.54 4.47 2.01 5.2.54.85 1.13 1.61 1.65 2.16.68.7 1.21 1.03 1.69 1.03s1.01-.33 1.69-1.03a15.2 15.2 0 0 0 1.65-2.15c.47-.74 2-3.3 2-5.21 0-.11-.02-.21-.03-.32a5.5 5.5 0 0 1-.21 1.3c-.15.53-.36 1.05-.58 1.53-.44.97-.95 1.8-1.18 2.17a15.2 15.2 0 0 1-1.65 2.15 4.9 4.9 0 0 1-.92.78c-.28.17-.53.25-.77.25s-.5-.08-.77-.25a4.76 4.76 0 0 1-.92-.78A14.41 14.41 0 0 1 3.01 8.9a19.2 19.2 0 0 1-1.18-2.17c-.22-.48-.43-1-.58-1.52a5.66 5.66 0 0 1-.21-1.31z" opacity=".5"/></svg>