<?xml version="1.0" encoding="UTF-8" standalone="no"?><svg xmlns:dc="http://purl.org/dc/elements/1.1/" xmlns:cc="http://creativecommons.org/ns#" xmlns:rdf="http://www.w3.org/1999/02/22-rdf-syntax-ns#" xmlns="http://www.w3.org/2000/svg" xmlns:xlink="http://www.w3.org/1999/xlink" width="48" height="48"><metadata><rdf:RDF><cc:Work><dc:format>image/svg+xml</dc:format><dc:type rdf:resource="http://purl.org/dc/dcmitype/StillImage"/><dc:title/></cc:Work></rdf:RDF></metadata><defs><linearGradient id="b"><stop offset="0"/><stop offset="1" stop-opacity="0"/></linearGradient><linearGradient id="a"><stop offset="0"/><stop offset="1" stop-opacity="0"/></linearGradient><linearGradient xlink:href="#b" id="c" gradientUnits="userSpaceOnUse" x1="6.82" y1="7.72" x2="51.74" y2="45.45"/></defs><path d="M23.71.5C17.88.5 13.2 1.6 9.78 3.82 5.68 6.48 3.5 10.73 3.5 16.1c0 7.22 5.8 16.88 7.58 19.67a54.48 54.48 0 0 0 6.25 8.16c2.54 2.64 4.57 3.87 6.37 3.87 1.8 0 3.83-1.23 6.37-3.87 2-2.08 4.22-4.98 6.25-8.16 1.78-2.79 7.59-12.45 7.59-19.67 0-5.37-2.17-9.62-6.27-12.27C34.24 1.6 29.55.49 23.7.49z" fill="#916f8a"/><path d="M28.15 45.42c.64-.52 1.22-.9 1.93-1.63 2-2.08 4.22-4.98 6.25-8.16.89-1.4 2.79-4.5 4.46-8.17a43.4 43.4 0 0 0 2.16-5.68L34 12.84l-.53.07-2.5-2.16-6.78-6.6.29.44-.74-.74-.49.6-.6-.6-.78 2.44-.07 11.68-9.94 11.17z" opacity=".7" fill="url(#c)"/><path d="M17.98 32.52l-5.36-3.45-2-4.08-.63-5.63 1.72-3.99 3.18-3.17 2.81-1.55 3.36-1.63 2.6.05 1.66.25 3.23.97 4.51 2.3 2.52 4.1.9 5.51-.43 1.93L32 29.75l-2.94 1.82L26 32.83l-4.94 1.22z" fill="#de87cd"/><path d="M23.71.35C17.88.35 13.2 1.47 9.78 3.68c-4.1 2.66-6.27 6.9-6.27 12.27 0 7.23 5.8 16.89 7.58 19.68a54.48 54.48 0 0 0 6.25 8.15c2.54 2.65 4.57 3.88 6.37 3.88 1.8 0 3.83-1.23 6.37-3.88 2-2.07 4.22-4.97 6.25-8.15 1.78-2.8 7.59-12.45 7.59-19.68 0-5.37-2.17-9.61-6.27-12.27C34.24 1.47 29.55.35 23.7.35zm0 .14c2.12.09 4.12.28 5.88.7 1.16.27 2.25.62 3.26 1.04 1.01.41 1.95.9 2.8 1.45a12.92 12.92 0 0 1 4.67 5.12 14.1 14.1 0 0 1 1.2 3.34c.26 1.2.4 2.47.4 3.81 0 1.81-.37 3.77-.94 5.73a43.19 43.19 0 0 1-2.19 5.78 69.59 69.59 0 0 1-4.46 8.17 54.47 54.47 0 0 1-6.25 8.15 17.98 17.98 0 0 1-3.46 2.93c-.32.2-.62.3-.9.4-.3-.1-.6-.2-.92-.4a17.72 17.72 0 0 1-3.46-2.93 54.5 54.5 0 0 1-6.25-8.15 69.6 69.6 0 0 1-4.46-8.17 43.19 43.19 0 0 1-2.19-5.78 20.93 20.93 0 0 1-.93-5.73c0-1.34.13-2.61.4-3.8.27-1.2.67-2.32 1.2-3.35a12.92 12.92 0 0 1 4.67-5.12 17.1 17.1 0 0 1 2.8-1.45c1-.42 2.1-.77 3.26-1.04C19.59.77 21.6.58 23.7.49z" opacity=".2"/><path d="M36.9 17.78s-1.4-7.87-12.24-8.84c0 0-.49-1.21-.91-1.45 0 0 2.18-2.4.45-3.34 0 0 .58 1.1-.45 1.46 0 0-.49-1.13 0-1.76 0 0-.73.37-.85.97l-.24-.97s-.8.37-.8 1.1l-.35-.55s-1.22.48-1.28 2.36c0 0 .06 2.18-.72 2.72 0 0-9.9 2.25-10.42 11.88 0 0-.79 8.54 9.57 12.05l2.3 1.21s-.48 1.21.73 1.1c0 0 1.45.84 2.6.66 0 0 .01-.4-.79-.3 0 0-.9-.19-.84-.8 0 0 2.88.8 2.86.2 0 0 1.8.3 1.13-.5 0 0 2.85.3 3.82-.66 0 0 .25-.52-.73.06 0 0-1.45.36-2.12-.06 0 0 1.52-.48.6-.79 0 0 4.31-.42 5.95-2.78 0 0-.07-.81-.73.24 0 0-1.58 1.85-5.03 1.97l-.3-.28 2.06-1.2s9.81-4.25 6.72-13.7zm-26.09 4c-.81-7.97 9.67-11.7 9.67-11.7-18.72 10.91 0 23.09 0 23.09-10.11-4.67-9.67-11.4-9.67-11.4zm10.63-11.2c-8 7.75.49 22.23.49 22.23-11.9-15.65-.49-22.23-.49-22.23zm2.49 22.04C21.48 17.18 22.6 10.4 22.6 10.4c3.39 9.74 1.33 22.23 1.33 22.23zm2.66-.72s8.33-15.02-2.66-21.93c0 0 13.08 4.72 2.66 21.93zm1.28-.18S43.8 18.15 24.74 9.48c0 0 10.3 2.21 10.6 9.99 0 0 1.33 6.42-7.47 12.25z" fill="#504"/></svg>