<svg xmlns="http://www.w3.org/2000/svg" xmlns:xlink="http://www.w3.org/1999/xlink" width="64" height="64"><defs><linearGradient id="c"><stop offset="0" stop-color="#fff"/><stop offset=".52" stop-color="#fff"/><stop offset="1" stop-color="#ccc"/></linearGradient><linearGradient gradientTransform="matrix(1.10714 0 0 1.10714 -3.43 -.1)" xlink:href="#a" id="e" gradientUnits="userSpaceOnUse" x1="16.5" y1="4.88" x2="57.65" y2="31.61"/><linearGradient id="a"><stop offset="0" stop-color="#030000"/><stop offset="1" stop-color="#030000" stop-opacity="0"/></linearGradient><linearGradient xlink:href="#b" id="d" gradientUnits="userSpaceOnUse" x1="31.7" y1=".96" x2="32.04" y2="63.55" gradientTransform="matrix(1.10714 0 0 1.10714 -3.43 -6.75)"/><linearGradient id="b"><stop offset="0" stop-color="#164450"/><stop offset="1" stop-color="#00cdff"/></linearGradient><radialGradient xlink:href="#c" id="f" cx="32" cy="19.82" fx="32" fy="19.82" r="15.27" gradientUnits="userSpaceOnUse"/></defs><path d="M19.13 1s-4.3 0-4.3 4.29V63L32 45.84 49.16 63V5.29C49.16 1 44.87 1 44.87 1z" fill="url(#d)"/><path d="M49.16 58.68v-43.4L42.28 8.4 20.72 30.25z" opacity=".7" fill="url(#e)"/><path d="M42.8 9.02A15.17 15.17 0 0 0 32 4.55c-4.08 0-7.91 1.59-10.8 4.47a15.17 15.17 0 0 0-4.47 10.8c0 4.08 1.59 7.92 4.47 10.8A15.17 15.17 0 0 0 32 35.09c4.08 0 7.91-1.59 10.8-4.47a15.17 15.17 0 0 0 4.47-10.8c0-4.08-1.59-7.91-4.47-10.8z" fill="url(#f)"/><g opacity=".45" fill="#1c241f"><path d="M32 7.5c2.41 0 4.68.65 6.63 1.78L32 14.1l-6.63-4.82A13.2 13.2 0 0 1 32 7.51zM36.66 17.49l-2.97-2.16 4.8-3.49zM37.71 20.71l4.8 3.5h-5.93zM27.34 17.49l-1.84-5.65 4.8 3.5zM27.42 24.2H21.5l4.8-3.49zM32 16.56l4.02 2.92-1.54 4.72h-4.96l-1.53-4.72zM18.72 20.79c0-3.91 1.7-7.43 4.4-9.86l2.52 7.79-6.63 4.82c-.19-.89-.29-1.81-.29-2.75zM19.87 26.2h8.2l2.54 7.8c-4.8-.51-8.84-3.58-10.74-7.8zM30.17 26.2h3.66L32 31.83zM33.4 34l2.53-7.8h8.2A13.31 13.31 0 0 1 33.39 34zM38.36 18.72l2.53-7.8a13.25 13.25 0 0 1 4.1 12.62z"/></g><g fill="#c83737"><path d="M32 6.54c2.41 0 4.68.65 6.63 1.78L32 13.14l-6.63-4.82A13.2 13.2 0 0 1 32 6.54zM36.66 16.52l-2.97-2.15 4.8-3.49zM37.71 19.75l4.8 3.49h-5.93zM27.34 16.52l-1.84-5.64 4.8 3.49zM27.42 23.24H21.5l4.8-3.5zM32 15.6l4.02 2.92-1.54 4.72h-4.96l-1.53-4.72zM18.72 19.82c0-3.9 1.7-7.42 4.4-9.86l2.52 7.8-6.63 4.82c-.19-.9-.29-1.81-.29-2.76zM19.87 25.23h8.2l2.54 7.8c-4.8-.5-8.84-3.57-10.74-7.8zM30.17 25.23h3.66L32 30.87zM33.4 33.03l2.53-7.8h8.2a13.31 13.31 0 0 1-10.74 7.8zM38.36 17.76l2.53-7.8a13.25 13.25 0 0 1 4.1 12.62z"/></g></svg>