<svg xmlns="http://www.w3.org/2000/svg" xmlns:xlink="http://www.w3.org/1999/xlink" width="48" height="48" version="1"><defs><linearGradient id="c"><stop offset="0"/><stop offset="1" stop-opacity="0"/></linearGradient><linearGradient id="a"><stop offset="0" stop-color="#2b1100"/><stop offset="1" stop-color="#f95"/></linearGradient><linearGradient id="b"><stop offset="0" stop-color="#37abc8"/><stop offset="1" stop-color="#162d50"/></linearGradient><linearGradient xlink:href="#b" id="d" x1="1.09" y1="1" x2="46.91" y2="47" gradientUnits="userSpaceOnUse"/><linearGradient xlink:href="#c" id="e" gradientUnits="userSpaceOnUse" x1="10.01" y1="31.33" x2="53.29" y2="31.33"/></defs><rect width="45.83" height="46" x="1.09" y="1" ry="5.05" fill="url(#d)" fill-rule="evenodd"/><path d="M19.16 47h22.7a5.06 5.06 0 0 0 5.05-5.05V25.93L30.22 9.23l.2 1.5-1.17 3.25-.97 5.08 2.26 2.27-2.41.33L15.8 9.34l.22 1.12-.36 2.85-1.87 2.19.27 3.82 1.7 1.07-4.5 3.07-.16 7.86 5.57 5.57-5.74 1.9z" opacity=".5" fill="url(#e)"/><g fill="#e6e6e6"><path d="M33.67 36.84h-.96v-.48h-.97v.97h-.97v-.97h-.97v.97h-.97v-.97h-.97v.48h-.96v-1.46h-.97v1.96c0 .79.65 1.43 1.46 1.43h5.8c.8 0 1.45-.64 1.45-1.43v-1.96h-.97zm1.46-5.8v-5.33a.49.49 0 0 0-.98 0v1.94a1.46 1.46 0 0 1-2.89 0v-7.18a6.84 6.84 0 0 0-7.74 6.85v.4c0 2.13.37 4.25 1.07 6.12a.9.9 0 0 0 .85.58h2.42v.96h4.85v-.96h2.42c.37 0 .71-.23.85-.58.16-.44.3-.9.44-1.38a1.44 1.44 0 0 1-1.3-1.43zm-8.2.25a1.62 1.62 0 0 1-2.45-1.39v-2.08c0-.9.72-1.63 1.63-1.63h1.6c.87 0 1.6.74 1.6 1.63v1.13c0 .56-.3 1.09-.78 1.38zm5.29 1.48a1.17 1.17 0 0 1-1.93.88 1.17 1.17 0 0 1-1.94-.88v-.06c0-.25.08-.5.23-.7l1.7-2.26L32 32c.15.2.23.45.23.7zm0 0"/><path d="M32.22 20.68v6.96a.49.49 0 0 0 .96 0v-1.93a1.46 1.46 0 0 1 2.91 0v5.32a.49.49 0 0 0 .97 0V27.1a6.62 6.62 0 0 0-4.84-6.42zm-21.28 1.17v9.18a.49.49 0 0 0 .97 0V25.7a1.46 1.46 0 0 1 2.9 0v1.94a.49.49 0 0 0 .96 0V20.4h-3.39c-.79 0-1.44.65-1.44 1.46zm0 0"/><path d="M20.6 20.39h-3.85v7.26a1.46 1.46 0 0 1-2.9 0v-1.93a.49.49 0 0 0-.97 0v5.32c0 .63-.4 1.17-.96 1.37v5.4h-.98v.97h10.64v-.96h-.98zm-5.85-.64c.1.05.22-.06.15-.16a2.58 2.58 0 0 1-.15-2.56c.86-1.9 1.38-2.9 1.38-2.9s.28 1.15 1.03 2.18c.72.98 1.1 2.22.48 3.26-.06.1.04.22.14.17a3.2 3.2 0 0 0 1.78-2.83c.04-.5-.03-1.17-.3-2.04a4.01 4.01 0 0 0-1.04-1.84.11.11 0 0 0-.2.1c.08 1.18-.37 1.48-.62.8a4.15 4.15 0 0 1-.16-1.3c0-.96-.28-1.94-.88-2.74a3.09 3.09 0 0 0-.55-.55.11.11 0 0 0-.2.1c.06.64 0 2.5-1.6 4.7-1.48 2.05-.91 3.62-.7 4.04.38.82.92 1.3 1.44 1.58zm14.43-.09c.1.05.21-.06.15-.16a2.58 2.58 0 0 1-.15-2.56c.85-1.9 1.38-2.9 1.38-2.9a7 7 0 0 0 1.02 2.18c.73 1 1.13 2.24.49 3.27-.07.1.03.21.14.16a3.2 3.2 0 0 0 1.78-2.82c.02-.5-.03-1.18-.3-2.05a4.01 4.01 0 0 0-1.05-1.84.11.11 0 0 0-.18.1c.07 1.18-.38 1.48-.63.8a4.15 4.15 0 0 1-.16-1.3c0-.96-.28-1.94-.88-2.74a3.09 3.09 0 0 0-.57-.56.11.11 0 0 0-.17.1c.05.65 0 2.5-1.62 4.7-1.47 2.05-.9 3.63-.7 4.05.39.82.92 1.3 1.45 1.57z"/></g></svg>