<svg xmlns="http://www.w3.org/2000/svg" xmlns:xlink="http://www.w3.org/1999/xlink" width="48" height="48"><defs><linearGradient id="a"><stop offset="0"/><stop offset="1" stop-opacity="0"/></linearGradient><linearGradient xlink:href="#a" id="d" gradientUnits="userSpaceOnUse" x1="10.77" y1="30.82" x2="51.27" y2="30.82"/><linearGradient xlink:href="#b" id="c" x1="1.09" y1="1" x2="46.91" y2="47" gradientUnits="userSpaceOnUse"/><linearGradient id="b"><stop offset="0" stop-color="#37abc8"/><stop offset="1" stop-color="#162d50"/></linearGradient></defs><rect width="45.83" height="46" x="1.08" y="1" ry="5.05" fill="url(#c)" fill-rule="evenodd"/><path d="M20.42 47h21.44a5.06 5.06 0 0 0 5.05-5.05V25.2L35.25 13.54 21.3 16.93l-10.5 4.19 9.94 9.95-2.01 1.69 2.77 2.77-10.73 1.82z" opacity=".5" fill="url(#d)"/><path d="M21.3 10.39a5.3 5.3 0 0 0-4.15 1.98 4.42 4.42 0 0 0-4.05.82 4.47 4.47 0 0 0-1.41 2.04 3.54 3.54 0 1 0 3.88 5.83l.33.01c.93 0 1.82-.29 2.56-.82a5.35 5.35 0 0 0 5.54.09 5.29 5.29 0 0 0 5.54-.09 4.4 4.4 0 0 0 2.89.8 3.53 3.53 0 1 0 3.89-5.82 4.47 4.47 0 0 0-5.47-2.86A5.3 5.3 0 0 0 24 11.12a5.29 5.29 0 0 0-2.7-.73zm2.7 11.2a9.37 9.37 0 0 1-5.83.45l.17.16a7.21 7.21 0 0 1 2.07 4.2h7.18a7.35 7.35 0 0 1 2.24-4.36A9.33 9.33 0 0 1 24 21.6zm-4.94 5.52a.92.92 0 0 0 0 1.84h9.88a.92.92 0 0 0 0-1.84h-9.88zm.9 2.8c-.2.78-.5 1.52-.89 2.23l-.34.62a12.48 12.48 0 0 1 10.54 0l-.34-.62c-.38-.7-.68-1.45-.89-2.23h-8.08zm4.04 2.7c-1.54 0-3.07.53-4.32 1.57a3.99 3.99 0 0 0-4.86 1.23l-.24.32a3.18 3.18 0 0 0-3.76.54.79.79 0 0 0 .56 1.34h25.24a.79.79 0 0 0 .56-1.34 3.19 3.19 0 0 0-3.76-.54l-.24-.32a4 4 0 0 0-4.86-1.23A6.71 6.71 0 0 0 24 32.62z" fill="#e6e6e6"/></svg>