<svg xmlns="http://www.w3.org/2000/svg" width="24" height="24" viewBox="0 0 6.35 6.35"><defs><radialGradient gradientUnits="userSpaceOnUse" gradientTransform="matrix(.43919 0 0 .4549 -.07 279.51)" r="1.75" cy="23.08" cx="15.07" id="a"><stop offset="0" stop-color="#00000c"/><stop offset="1" stop-opacity="0"/></radialGradient></defs><path class="ColorScheme-Text" d="M3.175.265a2.495 2.495 0 0 0-1.377 4.573h-.286c-.832 0-.832.832-.832.832v.415h4.99V5.67s0-.832-.832-.832h-.286A2.494 2.494 0 0 0 3.175.265zm0 1.664a.832.832 0 0 1 .832.832.832.832 0 0 1-.832.831.832.832 0 0 1-.832-.831.832.832 0 0 1 .832-.832z" fill="#1a1a1a"/></svg>