<?xml version="1.0" encoding="UTF-8" standalone="no"?>
<svg
   xmlns:dc="http://purl.org/dc/elements/1.1/"
   xmlns:cc="http://creativecommons.org/ns#"
   xmlns:rdf="http://www.w3.org/1999/02/22-rdf-syntax-ns#"
   xmlns:svg="http://www.w3.org/2000/svg"
   xmlns="http://www.w3.org/2000/svg"
   xmlns:sodipodi="http://sodipodi.sourceforge.net/DTD/sodipodi-0.dtd"
   xmlns:inkscape="http://www.inkscape.org/namespaces/inkscape"
   width="24"
   height="24"
   version="1.1"
   id="svg6"
   sodipodi:docname="2048.svg"
   inkscape:version="0.92.4 (5da689c313, 2019-01-14)">
  <metadata
     id="metadata12">
    <rdf:RDF>
      <cc:Work
         rdf:about="">
        <dc:format>image/svg+xml</dc:format>
        <dc:type
           rdf:resource="http://purl.org/dc/dcmitype/StillImage" />
        <dc:title></dc:title>
      </cc:Work>
    </rdf:RDF>
  </metadata>
  <defs
     id="defs10" />
  <sodipodi:namedview
     pagecolor="#ffffff"
     bordercolor="#666666"
     borderopacity="1"
     objecttolerance="10"
     gridtolerance="10"
     guidetolerance="10"
     inkscape:pageopacity="0"
     inkscape:pageshadow="2"
     inkscape:window-width="1142"
     inkscape:window-height="480"
     id="namedview8"
     showgrid="false"
     inkscape:zoom="9.8333333"
     inkscape:cx="1.2711864"
     inkscape:cy="12"
     inkscape:window-x="0"
     inkscape:window-y="25"
     inkscape:window-maximized="0"
     inkscape:current-layer="svg6" />
  <path
     d="M 2.735,1.5 C 2.051,1.5 1.5,2.05 1.5,2.735 v 7.412 c 0,0.684 0.55,1.235 1.235,1.235 h 7.412 c 0.684,0 1.235,-0.55 1.235,-1.235 V 2.735 C 11.382,2.051 10.832,1.5 10.147,1.5 Z m 3.58,2.488 c 0.491,0 0.909,0.124 1.221,0.388 0.313,0.264 0.476,0.64 0.476,1.069 0,0.205 -0.04,0.404 -0.118,0.59 V 6.038 A 2.64,2.64 0 0 1 7.495,6.661 L 7.491,6.666 A 18.9,18.9 0 0 1 7.011,7.175 L 6.193,8.017 H 8.036 V 8.895 H 4.846 V 8.128 L 4.899,8.075 C 5.129,7.837 5.438,7.517 5.831,7.119 6.225,6.719 6.475,6.459 6.567,6.354 H 6.569 C 6.755,6.144 6.877,5.968 6.941,5.843 H 6.943 A 0.777,0.777 0 0 0 7.037,5.483 0.538,0.538 0 0 0 6.851,5.042 H 6.85 C 6.722,4.926 6.56,4.866 6.329,4.866 A 1.8,1.8 0 0 0 5.789,4.955 C 5.595,5.015 5.383,5.111 5.154,5.24 L 4.876,5.394 V 4.342 L 4.992,4.296 c 0.25,-0.1 0.484,-0.177 0.705,-0.229 0.22,-0.052 0.428,-0.08 0.62,-0.08 z m -3.58,8.63 c -0.684,0 -1.235,0.55 -1.235,1.235 v 7.412 c 0,0.684 0.55,1.235 1.235,1.235 h 7.412 c 0.684,0 1.235,-0.55 1.235,-1.235 v -7.412 c 0,-0.684 -0.55,-1.235 -1.235,-1.235 z m 11.118,0 c -0.684,0 -1.235,0.55 -1.235,1.235 v 7.412 c 0,0.684 0.55,1.235 1.235,1.235 h 7.412 c 0.684,0 1.235,-0.55 1.235,-1.235 v -7.412 c 0,-0.684 -0.55,-1.235 -1.235,-1.235 z m 3.706,2.444 c 0.47,0 0.865,0.114 1.158,0.354 0.292,0.24 0.446,0.587 0.446,0.987 0,0.29 -0.088,0.554 -0.26,0.765 -0.097,0.12 -0.258,0.166 -0.396,0.241 0.167,0.083 0.358,0.14 0.473,0.28 a 1.3,1.3 0 0 1 0.287,0.842 c 0,0.47 -0.152,0.866 -0.458,1.134 -0.305,0.269 -0.732,0.39 -1.25,0.39 -0.518,0 -0.946,-0.122 -1.252,-0.39 -0.305,-0.269 -0.456,-0.664 -0.456,-1.134 0,-0.32 0.096,-0.61 0.287,-0.842 0.116,-0.14 0.307,-0.197 0.475,-0.28 -0.139,-0.075 -0.303,-0.121 -0.4,-0.241 L 16.21,17.166 a 1.194,1.194 0 0 1 -0.256,-0.763 c 0,-0.4 0.155,-0.747 0.447,-0.987 v -0.002 c 0.294,-0.24 0.689,-0.352 1.158,-0.352 z m -10.99,0.084 h 1.042 v 2.903 h 0.632 v 0.873 H 7.611 v 1.05 h -0.97 v -1.05 H 4.64 v -0.823 l 1.877,-2.868 z m 10.99,0.765 c -0.228,0 -0.377,0.053 -0.48,0.145 -0.102,0.092 -0.155,0.21 -0.155,0.403 0,0.192 0.053,0.31 0.155,0.403 0.103,0.091 0.252,0.144 0.48,0.144 0.227,0 0.376,-0.052 0.48,-0.144 v -0.003 c 0.105,-0.093 0.157,-0.209 0.157,-0.4 0,-0.192 -0.052,-0.308 -0.157,-0.4 v -0.003 c -0.104,-0.093 -0.253,-0.145 -0.48,-0.145 z M 6.641,16.492 5.65,18.05 h 0.991 z m 10.918,1.361 c -0.252,0 -0.423,0.063 -0.548,0.179 -0.122,0.115 -0.186,0.268 -0.186,0.5 0,0.23 0.063,0.38 0.186,0.496 0.125,0.116 0.296,0.179 0.548,0.179 0.251,0 0.423,-0.063 0.548,-0.179 0.125,-0.119 0.188,-0.268 0.188,-0.497 0,-0.23 -0.062,-0.384 -0.186,-0.5 h -0.002 c -0.123,-0.115 -0.293,-0.178 -0.548,-0.178 z"
     id="path2"
     inkscape:connector-curvature="0"
     style="fill:#e6e6e6" />
  <path
     d="M 2.735,1.5 C 2.051,1.5 1.5,2.05 1.5,2.735 v 7.412 c 0,0.684 0.55,1.235 1.235,1.235 h 7.412 c 0.684,0 1.235,-0.55 1.235,-1.235 V 2.735 C 11.382,2.051 10.832,1.5 10.147,1.5 Z m 3.58,2.488 c 0.491,0 0.909,0.124 1.221,0.388 0.313,0.264 0.476,0.64 0.476,1.069 0,0.205 -0.04,0.404 -0.118,0.59 V 6.038 A 2.64,2.64 0 0 1 7.495,6.661 L 7.491,6.666 A 18.9,18.9 0 0 1 7.011,7.175 L 6.193,8.017 H 8.036 V 8.895 H 4.846 V 8.128 L 4.899,8.075 C 5.129,7.837 5.438,7.517 5.831,7.119 6.225,6.719 6.475,6.459 6.567,6.354 H 6.569 C 6.755,6.144 6.877,5.968 6.941,5.843 H 6.943 A 0.777,0.777 0 0 0 7.037,5.483 0.538,0.538 0 0 0 6.851,5.042 H 6.85 C 6.722,4.926 6.56,4.866 6.329,4.866 A 1.8,1.8 0 0 0 5.789,4.955 C 5.595,5.015 5.383,5.111 5.154,5.24 L 4.876,5.394 V 4.342 L 4.992,4.296 c 0.25,-0.1 0.484,-0.177 0.705,-0.229 0.22,-0.052 0.428,-0.08 0.62,-0.08 z m -3.58,8.63 c -0.684,0 -1.235,0.55 -1.235,1.235 v 7.412 c 0,0.684 0.55,1.235 1.235,1.235 h 7.412 c 0.684,0 1.235,-0.55 1.235,-1.235 v -7.412 c 0,-0.684 -0.55,-1.235 -1.235,-1.235 z m 11.118,0 c -0.684,0 -1.235,0.55 -1.235,1.235 v 7.412 c 0,0.684 0.55,1.235 1.235,1.235 h 7.412 c 0.684,0 1.235,-0.55 1.235,-1.235 v -7.412 c 0,-0.684 -0.55,-1.235 -1.235,-1.235 z m 3.706,2.444 c 0.47,0 0.865,0.114 1.158,0.354 0.292,0.24 0.446,0.587 0.446,0.987 0,0.29 -0.088,0.554 -0.26,0.765 -0.097,0.12 -0.258,0.166 -0.396,0.241 0.167,0.083 0.358,0.14 0.473,0.28 a 1.3,1.3 0 0 1 0.287,0.842 c 0,0.47 -0.152,0.866 -0.458,1.134 -0.305,0.269 -0.732,0.39 -1.25,0.39 -0.518,0 -0.946,-0.122 -1.252,-0.39 -0.305,-0.269 -0.456,-0.664 -0.456,-1.134 0,-0.32 0.096,-0.61 0.287,-0.842 0.116,-0.14 0.307,-0.197 0.475,-0.28 -0.139,-0.075 -0.303,-0.121 -0.4,-0.241 L 16.21,17.166 a 1.194,1.194 0 0 1 -0.256,-0.763 c 0,-0.4 0.155,-0.747 0.447,-0.987 v -0.002 c 0.294,-0.24 0.689,-0.352 1.158,-0.352 z m -10.99,0.084 h 1.042 v 2.903 h 0.632 v 0.873 H 7.611 v 1.05 h -0.97 v -1.05 H 4.64 v -0.823 l 1.877,-2.868 z m 10.99,0.765 c -0.228,0 -0.377,0.053 -0.48,0.145 -0.102,0.092 -0.155,0.21 -0.155,0.403 0,0.192 0.053,0.31 0.155,0.403 0.103,0.091 0.252,0.144 0.48,0.144 0.227,0 0.376,-0.052 0.48,-0.144 v -0.003 c 0.105,-0.093 0.157,-0.209 0.157,-0.4 0,-0.192 -0.052,-0.308 -0.157,-0.4 v -0.003 c -0.104,-0.093 -0.253,-0.145 -0.48,-0.145 z M 6.641,16.492 5.65,18.05 h 0.991 z m 10.918,1.361 c -0.252,0 -0.423,0.063 -0.548,0.179 -0.122,0.115 -0.186,0.268 -0.186,0.5 0,0.23 0.063,0.38 0.186,0.496 0.125,0.116 0.296,0.179 0.548,0.179 0.251,0 0.423,-0.063 0.548,-0.179 0.125,-0.119 0.188,-0.268 0.188,-0.497 0,-0.23 -0.062,-0.384 -0.186,-0.5 h -0.002 c -0.123,-0.115 -0.293,-0.178 -0.548,-0.178 z"
     id="path4"
     inkscape:connector-curvature="0"
     style="fill:#e6e6e6" />
</svg>
