<?xml version="1.0" encoding="UTF-8" standalone="no"?>
<svg
   xmlns:dc="http://purl.org/dc/elements/1.1/"
   xmlns:cc="http://creativecommons.org/ns#"
   xmlns:rdf="http://www.w3.org/1999/02/22-rdf-syntax-ns#"
   xmlns:svg="http://www.w3.org/2000/svg"
   xmlns="http://www.w3.org/2000/svg"
   xmlns:sodipodi="http://sodipodi.sourceforge.net/DTD/sodipodi-0.dtd"
   xmlns:inkscape="http://www.inkscape.org/namespaces/inkscape"
   width="24"
   height="24"
   version="1.1"
   id="svg4"
   sodipodi:docname="amarok.svg"
   inkscape:version="0.92.4 (5da689c313, 2019-01-14)">
  <metadata
     id="metadata10">
    <rdf:RDF>
      <cc:Work
         rdf:about="">
        <dc:format>image/svg+xml</dc:format>
        <dc:type
           rdf:resource="http://purl.org/dc/dcmitype/StillImage" />
        <dc:title></dc:title>
      </cc:Work>
    </rdf:RDF>
  </metadata>
  <defs
     id="defs8" />
  <sodipodi:namedview
     pagecolor="#ffffff"
     bordercolor="#666666"
     borderopacity="1"
     objecttolerance="10"
     gridtolerance="10"
     guidetolerance="10"
     inkscape:pageopacity="0"
     inkscape:pageshadow="2"
     inkscape:window-width="1142"
     inkscape:window-height="480"
     id="namedview6"
     showgrid="false"
     inkscape:zoom="9.8333333"
     inkscape:cx="1.2711864"
     inkscape:cy="12"
     inkscape:window-x="0"
     inkscape:window-y="25"
     inkscape:window-maximized="0"
     inkscape:current-layer="svg4" />
  <path
     class="ColorScheme-Text"
     d="m 12,0.77 a 11.25,11.25 0 0 0 0,22.46 11.25,11.25 0 0 0 0,-22.46 z m 0,1.6 a 9.62,9.62 0 0 1 2.84,18.83 c -0.33,-0.46 -0.8,-1.03 -0.74,-1.5 0.02,-0.4 0.04,-0.9 0.1,-1.34 0.04,-0.44 0.2,-4.13 0.84,-5.1 a 7.18,7.18 0 0 1 2.84,-2.2 c 0.6,-0.22 0.76,-0.44 0.76,-0.66 0,-0.21 -0.25,-1.26 -0.42,-1.33 -0.8,0.63 -2.82,1.08 -3.58,1.44 0.2,-1.05 1.88,-2.96 2.62,-3.62 A 0.92,0.92 0 0 0 17.18,5.79 C 16.86,5.38 16.64,4.95 16.52,4.95 c -0.4,0 -1.19,0.94 -1.48,1.09 -0.3,0.14 -2.6,1.79 -2.82,2.08 a 0.93,0.93 0 0 1 -0.84,0.4 4.34,4.34 0 0 0 -1.66,0.16 c -0.34,0.2 -1.9,1.79 -2.3,1.98 -0.38,0.2 -0.89,0.3 -1.13,0.32 -0.24,0.03 -1.02,0.98 -1.27,1.1 -0.22,0.1 -1.4,0.09 -1.82,0.23 0.28,1.46 1.32,2.36 1.46,2.94 0.21,0.03 -0.16,0.87 -1.05,1.47 A 9.62,9.62 0 0 1 12,2.37 Z m -0.56,7.16 0.33,0.03 c 0.76,1.15 -1.5,1.63 -2.42,2.13 0.42,-0.86 0.8,-1.41 1.36,-1.97 0.24,-0.13 0.43,-0.2 0.73,-0.2 z m -7.82,7.2 z m 0.72,1.1 z m 1.78,1.79 z m 1.07,0.71 z m 1,0.52 z m 1.4,0.46 z m 3.72,0.22 z"
     id="path2"
     inkscape:connector-curvature="0"
     style="color:#090d11;fill:#e6e6e6" />
</svg>
