<?xml version="1.0" encoding="UTF-8" standalone="no"?>
<svg
   xmlns:dc="http://purl.org/dc/elements/1.1/"
   xmlns:cc="http://creativecommons.org/ns#"
   xmlns:rdf="http://www.w3.org/1999/02/22-rdf-syntax-ns#"
   xmlns:svg="http://www.w3.org/2000/svg"
   xmlns="http://www.w3.org/2000/svg"
   xmlns:sodipodi="http://sodipodi.sourceforge.net/DTD/sodipodi-0.dtd"
   xmlns:inkscape="http://www.inkscape.org/namespaces/inkscape"
   width="24"
   height="24"
   version="1.1"
   id="svg38"
   sodipodi:docname="amule.svg"
   inkscape:version="0.92.4 (5da689c313, 2019-01-14)">
  <metadata
     id="metadata42">
    <rdf:RDF>
      <cc:Work
         rdf:about="">
        <dc:format>image/svg+xml</dc:format>
        <dc:type
           rdf:resource="http://purl.org/dc/dcmitype/StillImage" />
        <dc:title></dc:title>
      </cc:Work>
    </rdf:RDF>
  </metadata>
  <sodipodi:namedview
     pagecolor="#ffffff"
     bordercolor="#666666"
     borderopacity="1"
     objecttolerance="10"
     gridtolerance="10"
     guidetolerance="10"
     inkscape:pageopacity="0"
     inkscape:pageshadow="2"
     inkscape:window-width="1142"
     inkscape:window-height="480"
     id="namedview40"
     showgrid="false"
     inkscape:zoom="9.8333333"
     inkscape:cx="1.2711864"
     inkscape:cy="12"
     inkscape:window-x="0"
     inkscape:window-y="25"
     inkscape:window-maximized="0"
     inkscape:current-layer="svg38" />
  <defs
     id="defs34">
    <linearGradient
       id="f">
      <stop
         offset="0"
         stop-color="#000006"
         id="stop2" />
      <stop
         offset="1"
         stop-color="#000006"
         stop-opacity="0"
         id="stop4" />
    </linearGradient>
    <linearGradient
       id="e">
      <stop
         offset="0"
         stop-color="#784421"
         id="stop7" />
      <stop
         offset="1"
         stop-color="#d38d5f"
         id="stop9" />
    </linearGradient>
    <linearGradient
       id="a">
      <stop
         offset="0"
         stop-color="#25190e"
         id="stop12" />
      <stop
         offset="1"
         stop-opacity="0"
         id="stop14" />
    </linearGradient>
    <linearGradient
       id="b">
      <stop
         offset="0"
         stop-color="#999"
         id="stop17" />
      <stop
         offset=".6"
         stop-color="#3d3d3d"
         id="stop19" />
      <stop
         offset="1"
         id="stop21" />
    </linearGradient>
    <linearGradient
       id="c">
      <stop
         offset="0"
         stop-color="#dedede"
         id="stop24" />
      <stop
         offset="1"
         stop-color="#f5f5f5"
         id="stop26" />
    </linearGradient>
    <linearGradient
       id="d">
      <stop
         offset="0"
         stop-color="#bababa"
         id="stop29" />
      <stop
         offset="1"
         stop-color="#e8e8e8"
         id="stop31" />
    </linearGradient>
  </defs>
  <path
     d="m 16.6,0.5 c -0.22,0 -0.6,0.49 -0.89,0.93 -0.67,1 -1.3,2.1 -1.98,3.49 -0.68,1.36 -0.74,1.32 -0.66,4.16 A 5.3,5.3 0 0 0 12.65,9.06 C 12.21,9.1 11.8,9.2 11.44,9.34 L 11.42,9.3 C 10.19,7.48 8.18,5.8 5.72,4.4 5.51,4.29 5.35,4.24 5.25,4.24 4.5,4.29 6.07,7.12 6.54,7.84 a 26.63,26.63 0 0 0 2.82,3.28 L 9.2,11.41 c -0.1,0.32 -0.16,0.67 -0.16,1.06 0,1.35 0.42,2.39 0.3,3.75 -0.16,1.86 -1.54,2.98 -0.93,4.65 l 0.03,0.12 a 3.75,3.75 0 0 0 0.93,1.31 c 0.27,0.23 0.64,0.4 1.06,0.5 a 6.06,6.06 0 0 0 1.26,0.16 h 0.1 c 1.12,0.04 2.3,-0.1 3,-0.13 0.17,0 0.33,-0.03 0.5,-0.05 l 0.16,-0.04 a 1.6,1.6 0 0 0 1.36,0.76 1.6,1.6 0 0 0 1.6,-1.6 1.6,1.6 0 0 0 -0.17,-0.74 2.66,2.66 0 0 0 0.71,-1.92 c 0,-0.52 -0.16,-1.07 -0.52,-1.63 -1.18,-1.83 -2.45,-4.08 -2.52,-6.52 A 1.88,1.88 0 0 0 15.56,10.15 C 15.39,9.94 15.16,9.76 14.92,9.62 L 15.11,9.2 c 1,-2.02 1.37,-5.1 1.66,-7.54 C 16.87,0.8 16.78,0.5 16.61,0.5 Z m -1.87,11.77 c 0.31,0 0.67,0.08 0.84,0.21 0.35,0.27 0.52,0.9 0.6,1.23 0.09,0.33 0.11,0.83 0.1,1.42 0,0.6 -1.75,0.29 -2.11,0.03 -0.37,-0.25 -0.56,-0.47 -0.56,-1.03 0,-0.43 0.53,-1.75 0.85,-1.83 0.08,-0.02 0.18,-0.03 0.28,-0.03 z m -3.81,0 c 0.16,0 0.33,0.06 0.52,0.18 0.39,0.25 1,1.03 1.07,1.5 0.16,1.18 -0.53,1.62 -1.37,2 -0.84,0.4 -1.21,-1.46 -1.27,-2.13 -0.07,-0.74 0.35,-1.6 1.05,-1.55 z m 0.54,1.6 a 0.53,0.53 0 0 0 -0.53,0.54 0.53,0.53 0 0 0 0.53,0.53 0.53,0.53 0 0 0 0.54,-0.53 0.53,0.53 0 0 0 -0.54,-0.54 z m 3.21,0 a 0.53,0.53 0 0 0 -0.53,0.54 0.53,0.53 0 0 0 0.53,0.53 0.53,0.53 0 0 0 0.54,-0.53 0.53,0.53 0 0 0 -0.54,-0.54 z m 2.02,2.28 c 0.45,0.16 0.74,0.5 0.74,1.26 0,0.69 -1.06,1.7 -1.37,2.65 A 6.18,6.18 0 0 1 16,19.26 c 0,-0.83 0.3,-2.27 0.69,-3.11 z m -6.86,1.32 c 0.63,0.82 1.12,1.58 1.57,2.46 0.21,0.41 0.29,0.87 0.31,1.36 -0.11,-1.14 -2.18,-1.36 -2.18,-2.96 0,-0.33 0.1,-0.61 0.3,-0.86 z"
     id="path36"
     inkscape:connector-curvature="0"
     style="fill:#e6e6e6" />
</svg>
