<?xml version="1.0" encoding="UTF-8" standalone="no"?>
<svg
   xmlns:dc="http://purl.org/dc/elements/1.1/"
   xmlns:cc="http://creativecommons.org/ns#"
   xmlns:rdf="http://www.w3.org/1999/02/22-rdf-syntax-ns#"
   xmlns:svg="http://www.w3.org/2000/svg"
   xmlns="http://www.w3.org/2000/svg"
   xmlns:sodipodi="http://sodipodi.sourceforge.net/DTD/sodipodi-0.dtd"
   xmlns:inkscape="http://www.inkscape.org/namespaces/inkscape"
   width="24"
   height="24"
   version="1.1"
   id="svg4"
   sodipodi:docname="anjuta.svg"
   inkscape:version="0.92.4 (5da689c313, 2019-01-14)">
  <metadata
     id="metadata10">
    <rdf:RDF>
      <cc:Work
         rdf:about="">
        <dc:format>image/svg+xml</dc:format>
        <dc:type
           rdf:resource="http://purl.org/dc/dcmitype/StillImage" />
        <dc:title></dc:title>
      </cc:Work>
    </rdf:RDF>
  </metadata>
  <defs
     id="defs8" />
  <sodipodi:namedview
     pagecolor="#ffffff"
     bordercolor="#666666"
     borderopacity="1"
     objecttolerance="10"
     gridtolerance="10"
     guidetolerance="10"
     inkscape:pageopacity="0"
     inkscape:pageshadow="2"
     inkscape:window-width="1142"
     inkscape:window-height="480"
     id="namedview6"
     showgrid="false"
     inkscape:zoom="9.8333333"
     inkscape:cx="1.2711864"
     inkscape:cy="12"
     inkscape:window-x="0"
     inkscape:window-y="25"
     inkscape:window-maximized="0"
     inkscape:current-layer="svg4" />
  <path
     d="m 17.49,0.4 c 0,0 -2.46,1.52 -2.62,2.38 0,0 -4.96,-1.46 -9.03,2.44 0,0 1.57,-0.4 2.13,-0.2 0,0 -4.99,2.82 -5.88,6.13 0,0 1.6,-1.04 2.1,-0.89 -0.67,1.16 -1.52,1.96 -1.7,4.38 -0.18,2 0.08,3.7 0.35,5.3 0.8,0.4 15.36,3.66 15.36,3.66 a 51.52,51.52 0 0 0 -3.6,-6.01 c -1.25,-1.63 -2.88,-5.88 0.03,-7.38 0,0 1.6,2.4 3.77,2.64 0,0 0.23,2.57 2.87,1.16 0.67,-0.37 0.93,-1.97 0.22,-2.97 l -0.54,-0.78 c 0,0 -1.45,-4.54 -2.74,-5.83 0,0 -0.45,-2.26 0,-3.32 0,0 -0.8,0.45 -1.05,0.9 0,0 0.08,-1.34 0.33,-1.61 z"
     id="path2"
     inkscape:connector-curvature="0"
     style="fill:#e6e6e6" />
</svg>
