<svg xmlns="http://www.w3.org/2000/svg" width="24" height="24" version="1"><defs><linearGradient id="a"><stop offset="0" stop-color="#040000"/><stop offset="1" stop-opacity="0"/></linearGradient></defs><path d="M1 1v22h22V1H1zm14.62 3l2.69 2.72-1.4 1.41-2.02-2.01v6.85l.47.46 1.53-1.5 1.36 1.33L15.47 16l-2.43-2.45V6.57L15.62 4zM9.24 4l2.56 2.56v6.98l.73.76-1.69 1.7-1.66-1.7.75-.76v-1.52h-1.6v1.52l.72.76-1.68 1.7-1.68-1.7.76-.76V6.77l2.79-2.76zm-.92 2.05v4.02h1.6v-2.4l-1.6-1.62zm-1.21 11.4h9.78v1.9H7.11v-1.9z" fill="#e6e6e6"/></svg>