<?xml version="1.0" encoding="UTF-8" standalone="no"?>
<svg
   xmlns:dc="http://purl.org/dc/elements/1.1/"
   xmlns:cc="http://creativecommons.org/ns#"
   xmlns:rdf="http://www.w3.org/1999/02/22-rdf-syntax-ns#"
   xmlns:svg="http://www.w3.org/2000/svg"
   xmlns="http://www.w3.org/2000/svg"
   xmlns:sodipodi="http://sodipodi.sourceforge.net/DTD/sodipodi-0.dtd"
   xmlns:inkscape="http://www.inkscape.org/namespaces/inkscape"
   width="24"
   height="24"
   version="1.1"
   id="svg26"
   sodipodi:docname="braindump.svg"
   inkscape:version="0.92.4 (5da689c313, 2019-01-14)">
  <metadata
     id="metadata30">
    <rdf:RDF>
      <cc:Work
         rdf:about="">
        <dc:format>image/svg+xml</dc:format>
        <dc:type
           rdf:resource="http://purl.org/dc/dcmitype/StillImage" />
        <dc:title></dc:title>
      </cc:Work>
    </rdf:RDF>
  </metadata>
  <sodipodi:namedview
     pagecolor="#ffffff"
     bordercolor="#666666"
     borderopacity="1"
     objecttolerance="10"
     gridtolerance="10"
     guidetolerance="10"
     inkscape:pageopacity="0"
     inkscape:pageshadow="2"
     inkscape:window-width="1142"
     inkscape:window-height="480"
     id="namedview28"
     showgrid="false"
     inkscape:zoom="9.8333333"
     inkscape:cx="1.2711864"
     inkscape:cy="12"
     inkscape:window-x="0"
     inkscape:window-y="25"
     inkscape:window-maximized="0"
     inkscape:current-layer="svg26" />
  <defs
     id="defs22">
    <linearGradient
       id="a">
      <stop
         offset="0"
         stop-color="#2c89a0"
         id="stop2" />
      <stop
         offset="1"
         stop-color="#2c89a0"
         stop-opacity="0"
         id="stop4" />
    </linearGradient>
    <linearGradient
       id="b">
      <stop
         stop-color="#3daefd"
         id="stop7" />
      <stop
         offset="1"
         stop-color="#24a058"
         id="stop9" />
    </linearGradient>
    <linearGradient
       id="c">
      <stop
         offset="0"
         stop-color="#afdde9"
         id="stop12" />
      <stop
         offset="1"
         stop-color="#0cf"
         id="stop14" />
    </linearGradient>
    <linearGradient
       id="d">
      <stop
         offset="0"
         stop-color="#e6e6e6"
         id="stop17" />
      <stop
         offset="1"
         stop-color="#4d4d4d"
         id="stop19" />
    </linearGradient>
  </defs>
  <path
     d="M 12,1.366 A 6.911,6.911 0 0 0 5.088,8.278 c -0.014,2.07 1.817,3.88 2.659,5.849 0.374,0.878 1.063,2.658 1.063,2.658 h 6.38 c 0,0 0.689,-1.78 1.064,-2.658 0.84,-1.97 2.621,-3.802 2.658,-5.849 A 6.911,6.911 0 0 0 12,1.366 Z m 0.532,3.19 v 3.722 h 2.126 l -3.189,4.786 V 9.34 H 9.342 Z m -3.485,13.291 0.235,1.064 h 5.436 l 0.236,-1.064 z m 0.472,2.128 0.236,1.063 h 4.491 l 0.235,-1.063 z m 4.495,1.934 c -0.019,0.043 -0.04,0.084 -0.061,0.125 0.021,-0.041 0.043,-0.081 0.061,-0.125 z m -4.026,0.003 z m 0.1,0.188 c 0.185,0.31 0.46,0.533 0.849,0.533 h 2.126 c 0.389,0 0.663,-0.223 0.847,-0.533 z"
     id="path24"
     inkscape:connector-curvature="0"
     style="fill:#e6e6e6" />
</svg>
