<?xml version="1.0" encoding="UTF-8"?>
<svg width="24" height="24" version="1.1" xmlns="http://www.w3.org/2000/svg">
 <path d="m13.045 1.5085c0.9975 0.21375 2.47 0.64125 3.2537 0.97374 1.5675 0.665 4.275 2.375 4.9875 3.1587 0.26126 0.285-0.21375 0.0475-1.0212-0.49875-2.2562-1.4962-4.6312-2.185-7.5287-2.2087-2.2325 0-4.3937 0.40374-5.6525 1.0687-0.38 0.21375-0.38 0.285-0.047498 0.92625 0.19 0.38 1.045 1.4725 1.9 2.4225 1.7575 1.9712 3.04 4.2987 3.4437 6.2937 0.475 2.185 0.19001 5.5812-0.59374 7.505-0.76 1.8762-1.1637 2.3037-0.665 0.68875 0.40374-1.3537 0.45125-4.7025 0.07123-6.3412-0.54623-2.375-1.5675-4.0612-4.2512-6.8637-1.7337-1.8525-2.8262-3.2062-3.42-4.37l-0.87875-1.6625 0.9975-0.37999c2.85-1.0925 6.3412-1.3537 9.405-0.7125z" fill="#e6e6e6"/>
</svg>
