<?xml version="1.0" encoding="UTF-8" standalone="no"?>
<svg
   xmlns:dc="http://purl.org/dc/elements/1.1/"
   xmlns:cc="http://creativecommons.org/ns#"
   xmlns:rdf="http://www.w3.org/1999/02/22-rdf-syntax-ns#"
   xmlns:svg="http://www.w3.org/2000/svg"
   xmlns="http://www.w3.org/2000/svg"
   xmlns:sodipodi="http://sodipodi.sourceforge.net/DTD/sodipodi-0.dtd"
   xmlns:inkscape="http://www.inkscape.org/namespaces/inkscape"
   width="24"
   height="24"
   version="1"
   id="svg4"
   sodipodi:docname="elisa.svg"
   inkscape:version="0.92.5 (2060ec1f9f, 2020-04-08)">
  <metadata
     id="metadata10">
    <rdf:RDF>
      <cc:Work
         rdf:about="">
        <dc:format>image/svg+xml</dc:format>
        <dc:type
           rdf:resource="http://purl.org/dc/dcmitype/StillImage" />
        <dc:title></dc:title>
      </cc:Work>
    </rdf:RDF>
  </metadata>
  <defs
     id="defs8" />
  <sodipodi:namedview
     pagecolor="#ffffff"
     bordercolor="#666666"
     borderopacity="1"
     objecttolerance="10"
     gridtolerance="10"
     guidetolerance="10"
     inkscape:pageopacity="0"
     inkscape:pageshadow="2"
     inkscape:window-width="1085"
     inkscape:window-height="480"
     id="namedview6"
     showgrid="false"
     inkscape:zoom="9.8333333"
     inkscape:cx="1.0677966"
     inkscape:cy="12"
     inkscape:window-x="0"
     inkscape:window-y="25"
     inkscape:window-maximized="0"
     inkscape:current-layer="svg4" />
  <path
     d="M 3.56,3.75 C 2.697,3.75 2,4.492 2,5.414 v 12.672 c 0,0.902 0.674,1.61 1.512,1.643 L 5.5,16.25 h 13 l 1.988,3.479 C 21.326,19.697 22,18.988 22,18.086 V 5.414 C 22,4.492 21.304,3.75 20.44,3.75 Z m 1.243,2 H 19.197 C 19.642,5.75 20,6.18 20,6.717 v 8.123 c 0,0.504 -0.358,0.91 -0.803,0.91 H 4.803 C 4.358,15.75 4,15.344 4,14.84 V 6.717 C 4,6.181 4.358,5.75 4.803,5.75 Z m 3.107,4 C 6.853,9.75 6,10.642 6,11.748 v 0.01 c 0,1.106 0.853,1.996 1.91,1.996 h 8.18 c 1.057,0 1.91,-0.89 1.91,-1.996 v -0.01 C 18,10.642 17.147,9.75 16.09,9.75 Z M 8,10.25 a 1.5,1.5 0 1 1 0,3 1.5,1.5 0 0 1 0,-3 z m 8,0 a 1.5,1.5 0 1 1 0,3 1.5,1.5 0 0 1 0,-3 z m -9.734,6.67 -1.754,3.068 c 0.016,0 0.026,0.02 0.043,0.02 h 14.89 c 0.017,0 0.027,-0.02 0.043,-0.02 L 17.734,16.92 Z"
     id="path2"
     inkscape:connector-curvature="0"
     style="fill:#e6e6e6" />
</svg>
