<?xml version="1.0" encoding="UTF-8" standalone="no"?>
<svg
   xmlns:dc="http://purl.org/dc/elements/1.1/"
   xmlns:cc="http://creativecommons.org/ns#"
   xmlns:rdf="http://www.w3.org/1999/02/22-rdf-syntax-ns#"
   xmlns:svg="http://www.w3.org/2000/svg"
   xmlns="http://www.w3.org/2000/svg"
   xmlns:sodipodi="http://sodipodi.sourceforge.net/DTD/sodipodi-0.dtd"
   xmlns:inkscape="http://www.inkscape.org/namespaces/inkscape"
   width="24"
   height="24"
   viewBox="0 0 6.35 6.35"
   version="1.1"
   id="svg4"
   sodipodi:docname="fontforge.svg"
   inkscape:version="0.92.4 (5da689c313, 2019-01-14)">
  <metadata
     id="metadata10">
    <rdf:RDF>
      <cc:Work
         rdf:about="">
        <dc:format>image/svg+xml</dc:format>
        <dc:type
           rdf:resource="http://purl.org/dc/dcmitype/StillImage" />
        <dc:title></dc:title>
      </cc:Work>
    </rdf:RDF>
  </metadata>
  <defs
     id="defs8" />
  <sodipodi:namedview
     pagecolor="#ffffff"
     bordercolor="#666666"
     borderopacity="1"
     objecttolerance="10"
     gridtolerance="10"
     guidetolerance="10"
     inkscape:pageopacity="0"
     inkscape:pageshadow="2"
     inkscape:window-width="1138"
     inkscape:window-height="480"
     id="namedview6"
     showgrid="false"
     inkscape:zoom="9.8333333"
     inkscape:cx="1.0677966"
     inkscape:cy="12"
     inkscape:window-x="0"
     inkscape:window-y="25"
     inkscape:window-maximized="0"
     inkscape:current-layer="svg4" />
  <path
     d="m 3.9,0.37 c 0.3,0 0.6,0.1 0.74,0.29 C 4.99,0.3 5.32,0.2 5.6,0.2 6.05,0.2 6.2,0.5 6.2,0.68 6.2,0.93 6.04,1.1 5.81,1.1 5.56,1.1 5.68,0.52 5.33,0.52 5.03,0.52 4.79,1.29 4.67,1.96 H 5.3 c 0.07,0 0.09,0.05 0.09,0.1 0,0.16 -0.07,0.29 -0.2,0.29 H 4.6 c 0,0 -0.29,1.34 -0.5,2.18 C 3.82,5.66 2.95,5.98 2.4,5.98 A 1,1 0 0 1 1.7,5.7 C 1.45,5.95 1.07,6.15 0.67,6.15 0.47,6.15 0.15,6.02 0.15,5.77 0.15,5.63 0.29,5.42 0.45,5.42 0.71,5.42 0.74,5.7 1.04,5.7 1.18,5.7 1.28,5.66 1.4,5.23 1.66,4.29 2.06,2.35 2.06,2.35 H 1.59 C 1.52,2.35 1.51,2.3 1.51,2.25 1.51,2.12 1.56,1.96 1.7199999,1.96 h 0.44 c 0.24,-0.82 0.77,-1.59 1.7400001,-1.59 z M 3.63,0.7 C 3.17,0.7 2.96,1.46 2.85,1.96 h 1.1 C 4.03,1.66 4.15,1.36 4.3,1.1 A 0.84,0.84 0 0 0 3.63,0.7 Z M 2.64,5.58 C 2.9,5.58 3.1,5.5 3.23,5.05 3.53,3.99 3.85,2.35 3.85,2.35 H 2.78 C 2.62,3.07 2.45,3.85 2.3,4.44 2.2,4.84 2.1,5.06 2.02,5.25 2.2,5.47 2.45,5.58 2.65,5.58 Z"
     id="path2"
     inkscape:connector-curvature="0"
     style="clip-rule:evenodd;fill:#e6e6e6" />
</svg>
