<?xml version="1.0" encoding="UTF-8" standalone="no"?>
<svg
   xmlns:dc="http://purl.org/dc/elements/1.1/"
   xmlns:cc="http://creativecommons.org/ns#"
   xmlns:rdf="http://www.w3.org/1999/02/22-rdf-syntax-ns#"
   xmlns:svg="http://www.w3.org/2000/svg"
   xmlns="http://www.w3.org/2000/svg"
   xmlns:sodipodi="http://sodipodi.sourceforge.net/DTD/sodipodi-0.dtd"
   xmlns:inkscape="http://www.inkscape.org/namespaces/inkscape"
   width="24"
   height="24"
   version="1.1"
   id="svg4"
   sodipodi:docname="gnome-boxes.svg"
   inkscape:version="0.92.4 (5da689c313, 2019-01-14)">
  <metadata
     id="metadata10">
    <rdf:RDF>
      <cc:Work
         rdf:about="">
        <dc:format>image/svg+xml</dc:format>
        <dc:type
           rdf:resource="http://purl.org/dc/dcmitype/StillImage" />
        <dc:title></dc:title>
      </cc:Work>
    </rdf:RDF>
  </metadata>
  <defs
     id="defs8" />
  <sodipodi:namedview
     pagecolor="#ffffff"
     bordercolor="#666666"
     borderopacity="1"
     objecttolerance="10"
     gridtolerance="10"
     guidetolerance="10"
     inkscape:pageopacity="0"
     inkscape:pageshadow="2"
     inkscape:window-width="1138"
     inkscape:window-height="480"
     id="namedview6"
     showgrid="false"
     inkscape:zoom="9.8333333"
     inkscape:cx="1.0677966"
     inkscape:cy="12"
     inkscape:window-x="0"
     inkscape:window-y="25"
     inkscape:window-maximized="0"
     inkscape:current-layer="svg4" />
  <path
     d="m 4.287,1.737 a 2.58,2.58 0 0 0 -2.55,2.55 2.58,2.58 0 0 0 1.444,2.33 V 17.38 a 2.58,2.58 0 0 0 -1.444,2.33 2.58,2.58 0 0 0 2.55,2.554 2.58,2.58 0 0 0 2.33,-1.473 H 17.38 a 2.58,2.58 0 0 0 2.33,1.473 2.58,2.58 0 0 0 2.554,-2.55 2.58,2.58 0 0 0 -1.47,-2.33 V 6.617 a 2.58,2.58 0 0 0 1.47,-2.33 2.58,2.58 0 0 0 -2.55,-2.55 2.58,2.58 0 0 0 -2.33,1.443 H 6.617 A 2.58,2.58 0 0 0 4.287,1.736 Z M 6.87,4.65 h 10.26 a 2.58,2.58 0 0 0 0.472,1.136 L 15.965,7.45 15.609,7.786 A 1.47,1.47 0 0 0 14.913,7.592 1.47,1.47 0 0 0 13.638,8.336 h -3.33 A 1.47,1.47 0 0 0 9.032,7.592 1.47,1.47 0 0 0 8.34,7.786 L 7.977,7.424 6.343,5.786 a 2.58,2.58 0 0 0 0.469,-1.11 z m 11.344,1.693 0.026,0.026 a 2.58,2.58 0 0 0 1.11,0.472 v 10.292 a 2.58,2.58 0 0 0 -1.11,0.47 l -1.11,-1.11 -0.55,-0.528 -0.337,-0.356 a 1.47,1.47 0 0 0 0.194,-0.696 1.47,1.47 0 0 0 -0.747,-1.275 v -3.33 A 1.47,1.47 0 0 0 16.437,9.032 1.47,1.47 0 0 0 16.243,8.34 l 0.333,-0.363 z m -12.396,0.026 1.66,1.666 0.334,0.33 a 1.47,1.47 0 0 0 -0.194,0.696 1.47,1.47 0 0 0 0.747,1.275 v 3.328 a 1.47,1.47 0 0 0 -0.744,1.275 1.47,1.47 0 0 0 0.191,0.696 L 7.45,15.994 5.815,17.628 A 2.58,2.58 0 0 0 4.705,17.159 V 6.867 a 2.58,2.58 0 0 0 1.11,-0.47 z m 4.713,2.692 h 2.968 a 1.47,1.47 0 0 0 1.469,1.47 v 2.938 a 1.47,1.47 0 0 0 -1.47,1.47 h -2.967 a 1.47,1.47 0 0 0 -1.47,-1.47 v -2.935 a 1.47,1.47 0 0 0 1.47,-1.47 z m -0.169,6.6 h 3.33 a 1.47,1.47 0 0 0 1.276,0.75 1.47,1.47 0 0 0 0.692,-0.194 l 0.363,0.36 1.634,1.637 a 2.58,2.58 0 0 0 -0.469,1.11 H 6.87 a 2.58,2.58 0 0 0 -0.472,-1.11 l 1.637,-1.663 0.356,-0.337 a 1.47,1.47 0 0 0 0.696,0.194 1.47,1.47 0 0 0 1.275,-0.748 z"
     id="path2"
     inkscape:connector-curvature="0"
     style="fill:#e6e6e6" />
</svg>
