<svg xmlns="http://www.w3.org/2000/svg" width="24" height="24"><defs><linearGradient id="c"><stop offset="0"/><stop offset="1" stop-opacity="0"/></linearGradient><linearGradient id="b"><stop offset="0" stop-color="#010000"/><stop offset="1" stop-color="#fff" stop-opacity=".01"/></linearGradient><linearGradient id="a"><stop offset="0" stop-color="#999"/><stop offset="1" stop-color="#fff"/></linearGradient></defs><path d="M4 1.63c-.4 0-.77.33-.82.73L1.73 14.23c-.05.4-.1 1.06-.1 1.47v5.93c0 .4.34.74.75.74h19.26c.4 0 .73-.34.73-.74v-5.94c0-.4-.02-1.07-.06-1.48L21.14 2.36a.84.84 0 0 0-.81-.73zm-.14 14.81h16.3c.4 0 .74.34.74.74v2.97c0 .4-.33.74-.74.74H3.86a.74.74 0 0 1-.74-.74v-2.97c0-.4.33-.74.74-.74zm1.6 1.48a.74.74 0 0 0 .03 1.48H18.8c.42 0 .73-.32.73-.74 0-.4-.31-.74-.73-.74H5.49a.74.74 0 0 0-.03 0z" fill="#e6e6e6"/></svg>
