<svg xmlns="http://www.w3.org/2000/svg" width="24" height="24" version="1"><path d="M8.91.26c-2.78 0-6.52 2.7-6.58 4.98-.06 2.47-.24 6.95-.37 10.39H.26v2.24h8.01l-.12 3.49h-1.7v2.24h17.39v-2.24h-1.82c-.13-4-.27-8.62-.37-10.4-.13-2.25-3.45-4.72-6.16-4.94l-.03-.78C15.33 2.87 11.68.27 8.91.26zm0 1.29c2.09 0 5.29 2.39 5.29 4.44v.1a8.63 8.63 0 0 0-4.02 2.06h-.4V3.73H8.04v4.43h-1.8v1.73h1.8v1.37h.47l-.16 4.36H3.56c-.02-5.39.1-9.68.1-9.68 0-1.99 3.16-4.4 5.25-4.4zm6.2 5.73c2.07 0 5.27 2.39 5.27 4.44-.02 1.4.05 4.63.04 9.63H9.75c-.03-5.39.09-9.68.09-9.68 0-1.98 3.17-4.4 5.26-4.4zm-.88 2.18v4.43h-1.8v1.73h1.8v1.36h1.73v-1.36h1.85v-1.74h-1.85V9.46h-1.73z" fill="#e6e6e6"/></svg>