<svg xmlns="http://www.w3.org/2000/svg" width="24" height="24"><defs><linearGradient id="b"><stop offset="0"/><stop offset="1" stop-color="#080000" stop-opacity="0"/></linearGradient><linearGradient id="a"><stop offset="0" stop-color="#ccc"/><stop offset="1" stop-color="#fff"/></linearGradient></defs><path d="M12 4.22a7.79 7.79 0 0 0-5.5 2.3 4.6 4.6 0 0 0-1.22-.18 4.6 4.6 0 0 0-4.6 4.6 4.6 4.6 0 0 0 4.39 4.6A7.77 7.73 0 0 0 12 19.78a7.77 7.73 0 0 0 6.94-4.24 4.6 4.6 0 0 0 4.39-4.6 4.6 4.6 0 0 0-4.6-4.6 4.6 4.6 0 0 0-1.22.17A7.79 7.79 0 0 0 12 4.21zM8.53 6.99A3.9 3.9 0 0 1 12 10.7h.02A3.9 3.9 0 0 1 15.48 7a6.17 6.13 0 0 1 2.69 5.05A6.17 6.13 0 0 1 12 18.18a6.17 6.13 0 0 1-6.17-6.13A6.17 6.13 0 0 1 8.53 7zM5.1 8.47a2.48 2.48 0 0 1 .02 0 7.77 7.73 0 0 0-.9 3.58 7.77 7.73 0 0 0 .1 1.18 2.48 2.48 0 0 1-1.52-2.29 2.48 2.48 0 0 1 2.3-2.47zm13.78 0a2.48 2.48 0 0 1 2.32 2.47 2.48 2.48 0 0 1-1.52 2.29 7.77 7.73 0 0 0 .1-1.18 7.77 7.73 0 0 0-.9-3.58zM9.17 10.6a1.42 1.42 0 0 0-1.42 1.42 1.42 1.42 0 0 0 1.42 1.41 1.42 1.42 0 0 0 1.41-1.41 1.42 1.42 0 0 0-1.41-1.42zm5.66 0a1.42 1.42 0 0 0-1.41 1.42 1.42 1.42 0 0 0 1.41 1.41 1.42 1.42 0 0 0 1.42-1.41 1.42 1.42 0 0 0-1.42-1.42zm-5.78 4.36s1.38 1.18 2.95 1.18c1.57 0 2.95-1.18 2.95-1.18z" fill="#e6e6e6" stroke-width=".35"/></svg>
