<svg xmlns="http://www.w3.org/2000/svg" width="24" height="24"><defs><linearGradient id="a"><stop offset="0"/><stop offset="1" stop-opacity="0"/></linearGradient></defs><path d="M12 1.1A10.87 10.87 0 0 0 1.1 12c0 6.03 4.87 10.9 10.9 10.9S22.9 18.02 22.9 12 18.02 1.1 12 1.1zm0 1.73A9.15 9.15 0 0 1 21.17 12 9.15 9.15 0 0 1 12 21.17 9.15 9.15 0 0 1 2.83 12c0-3.4 1.84-6.38 4.58-7.95V12a4.59 4.59 0 1 0 9.17 0 4.58 4.58 0 0 0-4.57-4.58c-1.16 0-1.16 1.72 0 1.72A2.86 2.86 0 1 1 9.13 12V3.28c.9-.3 1.86-.45 2.86-.45zm0 0" fill="#e6e6e6" stroke-width=".75"/></svg>
