<?xml version="1.0" encoding="UTF-8" standalone="no"?>
<svg
   xmlns:dc="http://purl.org/dc/elements/1.1/"
   xmlns:cc="http://creativecommons.org/ns#"
   xmlns:rdf="http://www.w3.org/1999/02/22-rdf-syntax-ns#"
   xmlns:svg="http://www.w3.org/2000/svg"
   xmlns="http://www.w3.org/2000/svg"
   xmlns:sodipodi="http://sodipodi.sourceforge.net/DTD/sodipodi-0.dtd"
   xmlns:inkscape="http://www.inkscape.org/namespaces/inkscape"
   width="24"
   height="24"
   viewBox="0 0 6.35 6.35"
   version="1.1"
   id="svg11"
   sodipodi:docname="plank.svg"
   inkscape:version="0.92.4 (5da689c313, 2019-01-14)">
  <metadata
     id="metadata15">
    <rdf:RDF>
      <cc:Work
         rdf:about="">
        <dc:format>image/svg+xml</dc:format>
        <dc:type
           rdf:resource="http://purl.org/dc/dcmitype/StillImage" />
        <dc:title></dc:title>
      </cc:Work>
    </rdf:RDF>
  </metadata>
  <sodipodi:namedview
     pagecolor="#ffffff"
     bordercolor="#666666"
     borderopacity="1"
     objecttolerance="10"
     gridtolerance="10"
     guidetolerance="10"
     inkscape:pageopacity="0"
     inkscape:pageshadow="2"
     inkscape:window-width="1138"
     inkscape:window-height="480"
     id="namedview13"
     showgrid="false"
     inkscape:zoom="9.8333333"
     inkscape:cx="1.0677966"
     inkscape:cy="12"
     inkscape:window-x="0"
     inkscape:window-y="25"
     inkscape:window-maximized="0"
     inkscape:current-layer="svg11" />
  <defs
     id="defs7">
    <linearGradient
       id="a">
      <stop
         offset="0"
         stop-color="#000005"
         id="stop2" />
      <stop
         offset="1"
         stop-color="#0b0000"
         stop-opacity="0"
         id="stop4" />
    </linearGradient>
  </defs>
  <path
     d="M 3.16,0.26 A 0.65,0.65 0 0 0 2.54,0.91 0.64,0.64 0 0 0 2.94,1.5 V 1.73 H 1.96 A 0.08,0.08 0 0 0 1.89,1.81 v 0.24 c 0,0.04 0.04,0.08 0.08,0.08 h 0.96 v 3 c 0,0.05 -0.11,0.1 -0.22,0.08 -0.1,0 -0.18,-0.03 -0.3,-0.06 A 3.76,3.76 0 0 1 1.42,4.68 C 1.39,4.65 1.35,4.61 1.35,4.56 1.35,4.51 1.38,4.47 1.42,4.46 1.46,4.46 1.5,4.48 1.53,4.49 1.56,4.51 1.58,4.47 1.58,4.45 A 0.41,0.41 0 0 0 1.52,4.26 0.97,0.97 0 0 0 1.22,3.99 C 1.11,3.9 0.97999997,3.83 0.89999997,3.7 c 0,-0.02 -0.03,-0.05 -0.06,-0.04 -0.05,0.01 -0.08,0.06 -0.1,0.1 a 1.51,1.51 0 0 0 -0.15,0.72 c 0.01,0.1 0.02,0.23 0.06,0.33 a 0.6,0.6 0 0 0 0.13,0.17 l 0.1,-0.1 c 0.04,-0.04 0.09,-0.07 0.15000003,-0.07 0.08,0.02 0.16,0.07 0.22,0.11 l 0.28,0.23 a 5.44,5.44 0 0 0 0.9,0.45 l 0.08,0.02 c 0.25,0.1 0.47,0.23 0.66,0.45 V 6.09 H 3.18 V 6.07 C 3.37,5.85 3.58,5.72 3.84,5.62 L 3.92,5.6 A 5.44,5.44 0 0 0 4.82,5.15 L 5.1,4.92 c 0.06,-0.04 0.14,-0.09 0.22,-0.1 0.06,0 0.11,0.02 0.16,0.06 l 0.1,0.1 A 0.6,0.6 0 0 0 5.7,4.81 C 5.74,4.71 5.75,4.59 5.76,4.48 A 1.51,1.51 0 0 0 5.61,3.76 C 5.59,3.72 5.56,3.67 5.51,3.66 5.48,3.65 5.46,3.68 5.45,3.71 5.37,3.83 5.25,3.91 5.12,3.99 A 0.97,0.97 0 0 0 4.83,4.26 0.41,0.41 0 0 0 4.77,4.45 c 0,0.02 0.02,0.06 0.05,0.04 L 4.92,4.46 C 4.97,4.47 4.99,4.51 5,4.56 5,4.61 4.96,4.66 4.93,4.68 a 3.76,3.76 0 0 1 -1,0.47 C 3.82,5.18 3.75,5.21 3.63,5.21 3.53,5.23 3.42,5.18 3.42,5.12 V 2.13 h 0.96 c 0.04,0 0.08,-0.04 0.08,-0.08 V 1.8 A 0.08,0.08 0 0 0 4.39,1.72 H 3.41 V 1.5 A 0.64,0.64 0 0 0 3.8,0.9 0.65,0.65 0 0 0 3.2,0.26 H 3.18 Z m 0.01,0.33 c 0.17,0 0.3,0.13 0.3,0.3 A 0.3,0.3 0 0 1 3.17,1.2 0.31,0.31 0 0 1 2.87,0.9 c 0,-0.18 0.14,-0.3 0.3,-0.31 z"
     id="path9"
     inkscape:connector-curvature="0"
     style="fill:#e6e6e6" />
</svg>
