<?xml version="1.0" encoding="UTF-8" standalone="no"?>
<svg
   xmlns:dc="http://purl.org/dc/elements/1.1/"
   xmlns:cc="http://creativecommons.org/ns#"
   xmlns:rdf="http://www.w3.org/1999/02/22-rdf-syntax-ns#"
   xmlns:svg="http://www.w3.org/2000/svg"
   xmlns="http://www.w3.org/2000/svg"
   xmlns:sodipodi="http://sodipodi.sourceforge.net/DTD/sodipodi-0.dtd"
   xmlns:inkscape="http://www.inkscape.org/namespaces/inkscape"
   width="24"
   height="24"
   version="1.1"
   id="svg20"
   sodipodi:docname="preferences-desktop-wallpaper.svg"
   inkscape:version="0.92.4 (5da689c313, 2019-01-14)">
  <metadata
     id="metadata24">
    <rdf:RDF>
      <cc:Work
         rdf:about="">
        <dc:format>image/svg+xml</dc:format>
        <dc:type
           rdf:resource="http://purl.org/dc/dcmitype/StillImage" />
        <dc:title></dc:title>
      </cc:Work>
    </rdf:RDF>
  </metadata>
  <sodipodi:namedview
     pagecolor="#ffffff"
     bordercolor="#666666"
     borderopacity="1"
     objecttolerance="10"
     gridtolerance="10"
     guidetolerance="10"
     inkscape:pageopacity="0"
     inkscape:pageshadow="2"
     inkscape:window-width="1138"
     inkscape:window-height="480"
     id="namedview22"
     showgrid="false"
     inkscape:zoom="9.8333333"
     inkscape:cx="1.0677966"
     inkscape:cy="12"
     inkscape:window-x="0"
     inkscape:window-y="25"
     inkscape:window-maximized="0"
     inkscape:current-layer="svg20" />
  <defs
     id="defs16">
    <linearGradient
       id="b">
      <stop
         offset="0"
         id="stop2" />
      <stop
         offset="1"
         stop-opacity="0"
         id="stop4" />
    </linearGradient>
    <linearGradient
       id="a">
      <stop
         offset="0"
         stop-color="#515151"
         id="stop7" />
      <stop
         offset=".2"
         stop-color="#2b2b2b"
         id="stop9" />
      <stop
         offset=".53"
         stop-color="#1b1b1b"
         id="stop11" />
      <stop
         offset="1"
         id="stop13" />
    </linearGradient>
  </defs>
  <path
     d="M 1.38,0.37 A 0.77,0.77 0 0 0 0.61,1.13 v 17.01 c 0,0.43 0.34,0.78 0.77,0.78 h 4.53 v 3.18 h 12.71 v -3.18 h 4 c 0.43,0 0.77,-0.35 0.77,-0.78 v -17 A 0.77,0.77 0 0 0 22.62,0.37 Z m 13.63,1.59 0.07,0.06 h 6.05 c 0.42,0 0.75,0.33 0.75,0.75 V 16 c 0,0.41 -0.33,0.75 -0.75,0.75 H 2.91 A 0.75,0.75 0 0 1 2.16,16 V 2.77 C 2.16,2.35 2.49,2.02 2.91,2.02 H 15 Z m 0,0.06 v 4.87 c 0,0.37 0.3,0.66 0.66,0.66 h 6.12 L 15.09,2.02 Z M 2.16,22.1 v 1.52 H 21.88 V 22.1 Z"
     id="path18"
     inkscape:connector-curvature="0"
     style="fill:#e6e6e6" />
</svg>
