<svg xmlns="http://www.w3.org/2000/svg" width="24" height="24"><defs><linearGradient id="b"><stop offset="0"/><stop offset="1" stop-color="#040000" stop-opacity="0"/></linearGradient><linearGradient id="a"><stop offset="0" stop-color="#1a1a1a"/><stop offset="1" stop-color="#4d4d4d"/></linearGradient></defs><path d="M9.64.53c-.6 0-1.08.49-1.08 1.08v.83h-4.2c0-.2-.18-.39-.39-.39h-1.1A2.36 2.36 0 0 0 .54 4.41V5.5c0 .22.17.39.38.39v13.77a.38.38 0 0 0-.38.38v1.1a2.36 2.36 0 0 0 2.35 2.34h1.1c.2 0 .37-.17.37-.38h15.3c0 .2.17.38.38.38h1.1a2.36 2.36 0 0 0 2.34-2.35v-1.1a.38.38 0 0 0-.38-.37V5.88c.2 0 .38-.17.38-.39V4.42a2.36 2.36 0 0 0-2.35-2.36h-1.1a.38.38 0 0 0-.37.39h-4.21V1.6c0-.6-.49-1.08-1.08-1.08H9.64zm0 .77h4.72c.17 0 .31.13.31.31v.83H9.33V1.6c0-.17.13-.31.31-.31zM4.35 3.2H19.65v.77H4.35V3.2zm2.3 1.92a1.9 1.9 0 0 1 1.05.31L6.37 6.75a.38.38 0 0 0 0 .55.38.38 0 0 0 .55 0l1.32-1.33a1.92 1.92 0 1 1-1.6-.85zm5.35 0a1.9 1.9 0 0 1 1.6 2.96l-1.33-1.33a.38.38 0 0 0-.54 0 .38.38 0 0 0 0 .55l1.33 1.32A1.92 1.92 0 1 1 12 5.12zm5.35 0a1.9 1.9 0 0 1 1.06.31l-1.33 1.32a.38.38 0 0 0 0 .55.38.38 0 0 0 .55 0l1.32-1.33a1.92 1.92 0 1 1-1.6-.85zm-14.91.75v3.46h19.12V5.88h.77v13.77h-.77v-9.57h-1.52v9.56a.38.38 0 0 0-.38.38v2.3H4.36v-2.3a.38.38 0 0 0-.38-.38v-9.56H2.43v9.57h-.76V5.88l.77-.01zM6 10.1c-.76 0-1.38.61-1.38 1.37v9.04c0 .76.62 1.37 1.38 1.37h12c.76 0 1.38-.61 1.38-1.37v-9.04c0-.76-.62-1.37-1.38-1.37H6z" fill="#e6e6e6"/></svg>