<svg xmlns="http://www.w3.org/2000/svg" width="24" height="24" version="1"><g fill="#e6e6e6"><path d="M3.93.39a.78.78 0 1 0 0 1.55H5.3V4.4c0 2.46 1.35 4.72 3.8 6.37.31.2.5.65.5 1.17 0 .51-.19.96-.5 1.17-2.45 1.65-3.8 3.9-3.8 6.37v2.45H3.93a.78.78 0 0 0 0 1.56h15.94a.78.78 0 0 0 0-1.56H18.5v-2.45c0-2.46-1.35-4.73-3.8-6.37-.32-.21-.5-.66-.5-1.17 0-.52.19-.96.5-1.17 2.45-1.65 3.8-3.91 3.8-6.38V1.94h1.37a.78.78 0 0 0 0-1.55zm2.93 1.55h10.08V4.4c0 2.6-1.95 4.3-3.11 5.08a2.92 2.92 0 0 0-1.2 2.46c0 1.04.45 1.96 1.2 2.46 1.16.78 3.11 2.48 3.11 5.08v2.45h-.26c-.63-2.4-3.9-5.01-4.3-5.33a.78.78 0 0 0-.96 0c-.4.32-3.67 2.93-4.3 5.33h-.26v-2.45c0-2.6 1.95-4.3 3.1-5.08a2.92 2.92 0 0 0 1.2-2.46c0-1.04-.45-1.96-1.2-2.46C8.82 8.7 6.87 7 6.87 4.4z"/><path d="M11.9 15.24a.78.78 0 0 0 .55-1.32.78.78 0 0 0-.55-.23.78.78 0 0 0-.55.23.78.78 0 0 0-.23.55.78.78 0 0 0 .78.77zm0-4.12a.78.78 0 0 0 .78-.77V8.97a.78.78 0 0 0-1.56 0v1.38c0 .42.35.77.78.77z"/></g></svg>