<?xml version="1.0" encoding="UTF-8" standalone="no"?>
<svg
   xmlns:dc="http://purl.org/dc/elements/1.1/"
   xmlns:cc="http://creativecommons.org/ns#"
   xmlns:rdf="http://www.w3.org/1999/02/22-rdf-syntax-ns#"
   xmlns:svg="http://www.w3.org/2000/svg"
   xmlns="http://www.w3.org/2000/svg"
   xmlns:sodipodi="http://sodipodi.sourceforge.net/DTD/sodipodi-0.dtd"
   xmlns:inkscape="http://www.inkscape.org/namespaces/inkscape"
   width="24"
   height="24"
   version="1.1"
   id="svg11"
   sodipodi:docname="remmina.svg"
   inkscape:version="0.92.4 (5da689c313, 2019-01-14)">
  <metadata
     id="metadata15">
    <rdf:RDF>
      <cc:Work
         rdf:about="">
        <dc:format>image/svg+xml</dc:format>
        <dc:type
           rdf:resource="http://purl.org/dc/dcmitype/StillImage" />
        <dc:title></dc:title>
      </cc:Work>
    </rdf:RDF>
  </metadata>
  <sodipodi:namedview
     pagecolor="#ffffff"
     bordercolor="#666666"
     borderopacity="1"
     objecttolerance="10"
     gridtolerance="10"
     guidetolerance="10"
     inkscape:pageopacity="0"
     inkscape:pageshadow="2"
     inkscape:window-width="1138"
     inkscape:window-height="480"
     id="namedview13"
     showgrid="false"
     inkscape:zoom="9.8333333"
     inkscape:cx="1.0677966"
     inkscape:cy="12"
     inkscape:window-x="0"
     inkscape:window-y="25"
     inkscape:window-maximized="0"
     inkscape:current-layer="svg11" />
  <defs
     id="defs7">
    <linearGradient
       id="a">
      <stop
         offset="0"
         id="stop2" />
      <stop
         offset="1"
         stop-opacity="0"
         id="stop4" />
    </linearGradient>
  </defs>
  <path
     class="ColorScheme-Text"
     d="M 12,0.54 A 11.46,11.46 0 0 0 0.54,12 11.46,11.46 0 0 0 1.96,17.53 l 2.4,-1.6 A 8.6,8.6 0 0 1 3.4,12 8.6,8.6 0 0 1 12,3.4 8.6,8.6 0 0 1 18.58,6.48 l 2.4,-1.6 A 11.46,11.46 0 0 0 12,0.55 Z M 7.7,5.69 V 8.48 L 9.55,9.7 7.7,10.94 v 2.78 l 6.02,-4.01 z m 14.35,0.8 -2.4,1.59 A 8.6,8.6 0 0 1 20.6,12 8.6,8.6 0 0 1 12,20.6 8.6,8.6 0 0 1 5.43,17.53 l -2.4,1.6 A 11.46,11.46 0 0 0 12,23.45 11.46,11.46 0 0 0 23.46,12 11.46,11.46 0 0 0 22.05,6.48 Z m -5.75,3.8 -6.02,4 6.02,4.02 v -2.79 l -1.85,-1.23 1.85,-1.23 z"
     id="path9"
     inkscape:connector-curvature="0"
     style="fill:#e6e6e6" />
</svg>
