<?xml version="1.0" encoding="UTF-8" standalone="no"?>
<svg
   xmlns:dc="http://purl.org/dc/elements/1.1/"
   xmlns:cc="http://creativecommons.org/ns#"
   xmlns:rdf="http://www.w3.org/1999/02/22-rdf-syntax-ns#"
   xmlns:svg="http://www.w3.org/2000/svg"
   xmlns="http://www.w3.org/2000/svg"
   xmlns:sodipodi="http://sodipodi.sourceforge.net/DTD/sodipodi-0.dtd"
   xmlns:inkscape="http://www.inkscape.org/namespaces/inkscape"
   width="24"
   height="24"
   viewBox="0 0 6.35 6.35"
   version="1.1"
   id="svg18"
   sodipodi:docname="scim-setup.svg"
   inkscape:version="0.92.4 (5da689c313, 2019-01-14)">
  <metadata
     id="metadata22">
    <rdf:RDF>
      <cc:Work
         rdf:about="">
        <dc:format>image/svg+xml</dc:format>
        <dc:type
           rdf:resource="http://purl.org/dc/dcmitype/StillImage" />
        <dc:title></dc:title>
      </cc:Work>
    </rdf:RDF>
  </metadata>
  <sodipodi:namedview
     pagecolor="#ffffff"
     bordercolor="#666666"
     borderopacity="1"
     objecttolerance="10"
     gridtolerance="10"
     guidetolerance="10"
     inkscape:pageopacity="0"
     inkscape:pageshadow="2"
     inkscape:window-width="1138"
     inkscape:window-height="480"
     id="namedview20"
     showgrid="false"
     inkscape:zoom="9.8333333"
     inkscape:cx="1.0677966"
     inkscape:cy="12"
     inkscape:window-x="0"
     inkscape:window-y="25"
     inkscape:window-maximized="0"
     inkscape:current-layer="svg18" />
  <defs
     id="defs12">
    <linearGradient
       id="b">
      <stop
         offset="0"
         stop-color="#babdb6"
         id="stop2" />
      <stop
         offset="1"
         stop-color="#eeeeec"
         id="stop4" />
    </linearGradient>
    <linearGradient
       id="a">
      <stop
         offset="0"
         stop-opacity=".98"
         id="stop7" />
      <stop
         offset="1"
         stop-opacity="0"
         id="stop9" />
    </linearGradient>
  </defs>
  <path
     d="m 54.45,50.86 a 1.265,1.265 0 1 0 0,2.53 h 2.92 v 4.55 h 2.62 v -4.55 h 2.68 a 1.265,1.265 0 1 0 0,-2.53 z m 2.92,7.08 H 53.6 c -0.5,0 -0.98,0.4 -1.08,0.9 l -1.57,8.48 c -0.09,0.5 0.25,0.9 0.75,0.9 h 4.59 v 0.03 h 4.54 v -0.03 h 4.6 c 0.5,0 0.83,-0.4 0.74,-0.9 L 64.6,58.83 c -0.1,-0.5 -0.57,-0.9 -1.08,-0.9 h -3.49 v 3.72 h 2.54 l -3.98,3.27 -3.82,-3.27 h 2.6 z"
     id="path14"
     inkscape:connector-curvature="0"
     style="fill:#e6e6e6" />
  <path
     style="overflow:visible;fill:#e6e6e6;fill-rule:evenodd;stroke-width:0.88999999;marker:none"
     d="M 0.81,0.23 A 0.58,0.58 0 0 0 0.23,0.81 v 4.73 c 0,0.32 0.26,0.58 0.58,0.58 h 4.73 c 0.32,0 0.58,-0.26 0.58,-0.58 V 0.8 A 0.58,0.58 0 0 0 5.54,0.22 Z M 4.34,0.67 A 1.33,1.33 0 0 1 4.88,0.8 c 0.05,-0.09 0.1,-0.12 0.18,-0.12 0.12,0 0.17,0.05 0.17,0.21 v 0.5 C 5.23,1.55 5.2,1.61 5.03,1.61 4.92,1.61 4.88,1.55 4.84,1.43 4.78,1.21 4.66,1.09 4.38,1.09 4,1.09 3.78,1.35 3.78,1.86 c 0,0.5 0.22,0.77 0.6,0.77 0.37,0 0.58,-0.27 0.75,-0.27 0.1,0 0.17,0.1 0.17,0.22 0,0.2 -0.43,0.47 -0.95,0.47 -0.67,0 -1.11,-0.5 -1.11,-1.2 0,-0.66 0.45,-1.18 1.1,-1.18 z m -2.41,0 a 1.23,1.23 0 0 1 0.5,0.11 c 0.04,-0.1 0.08,-0.1 0.19,-0.1 0.12,0 0.15,0.03 0.16,0.2 V 1.26 C 2.78,1.4 2.74,1.46 2.59,1.46 2.43,1.46 2.42,1.38 2.37,1.28 A 0.42,0.42 0 0 0 1.97,1.05 c -0.23,0 -0.37,0.12 -0.37,0.28 0,0.2 0.21,0.21 0.6,0.3 0.47,0.1 0.7,0.3 0.7,0.69 C 2.9,2.78 2.57,3.04 1.98,3.04 1.78,3.04 1.61,3.02 1.41,2.94 1.37,3.02 1.31,3.04 1.23,3.04 1.08,3.04 1.02,3 1.01,2.84 V 2.37 c 0,-0.16 0.05,-0.23 0.2,-0.23 0.15,0 0.17,0.11 0.24,0.25 0.1,0.2 0.27,0.3 0.53,0.3 0.23,0 0.37,-0.1 0.37,-0.29 C 2.35,2.16 2.13,2.16 1.7,2.05 1.28,1.94 1.05,1.79 1.05,1.41 1.05,0.98 1.41,0.67 1.93,0.67 Z m 1.36,2.7 h 0.3 c 0.12,0 0.2,0.06 0.25,0.2 L 4.21,4.65 4.57,3.57 C 4.62,3.43 4.7,3.37 4.83,3.37 h 0.3 c 0.16,0 0.23,0.06 0.23,0.21 0,0.14 -0.07,0.21 -0.2,0.21 H 5.12 L 5.18,5.2 h 0.03 c 0.13,0 0.2,0.07 0.2,0.2 0,0.17 -0.07,0.22 -0.23,0.22 H 4.75 c -0.16,0 -0.24,-0.05 -0.24,-0.21 0,-0.14 0.07,-0.2 0.2,-0.2 H 4.75 L 4.72,4.05 4.44,4.91 C 4.4,5.04 4.33,5.09 4.2,5.09 4.08,5.09 4,5.04 3.96,4.91 L 3.69,4.05 3.66,5.2 h 0.03 c 0.14,0 0.2,0.07 0.2,0.2 0,0.17 -0.07,0.22 -0.23,0.22 H 3.23 C 3.07,5.62 3,5.57 3,5.41 3,5.27 3.07,5.21 3.2,5.21 H 3.23 L 3.29,3.79 H 3.26 C 3.12,3.79 3.05,3.72 3.05,3.59 3.05,3.43 3.13,3.37 3.29,3.37 Z m -1.98,0 h 1.13 c 0.16,0 0.24,0.05 0.24,0.21 0,0.16 -0.08,0.21 -0.24,0.21 H 2.12 V 5.2 h 0.32 c 0.15,0 0.23,0.05 0.23,0.2 0,0.16 -0.07,0.22 -0.23,0.22 H 1.3 C 1.14,5.62 1.06,5.57 1.06,5.41 1.06,5.25 1.14,5.21 1.3,5.21 H 1.62 V 3.78 H 1.3 C 1.14,3.78 1.06,3.73 1.06,3.58 1.06,3.41 1.14,3.37 1.3,3.37 Z"
     overflow="visible"
     id="path16"
     inkscape:connector-curvature="0" />
</svg>
