<?xml version="1.0" encoding="UTF-8" standalone="no"?>
<svg
   xmlns:dc="http://purl.org/dc/elements/1.1/"
   xmlns:cc="http://creativecommons.org/ns#"
   xmlns:rdf="http://www.w3.org/1999/02/22-rdf-syntax-ns#"
   xmlns:svg="http://www.w3.org/2000/svg"
   xmlns="http://www.w3.org/2000/svg"
   xmlns:sodipodi="http://sodipodi.sourceforge.net/DTD/sodipodi-0.dtd"
   xmlns:inkscape="http://www.inkscape.org/namespaces/inkscape"
   version="1"
   viewBox="0 0 24 24"
   id="svg4"
   sodipodi:docname="system-users.svg"
   inkscape:version="0.92.4 (5da689c313, 2019-01-14)">
  <metadata
     id="metadata10">
    <rdf:RDF>
      <cc:Work
         rdf:about="">
        <dc:format>image/svg+xml</dc:format>
        <dc:type
           rdf:resource="http://purl.org/dc/dcmitype/StillImage" />
        <dc:title></dc:title>
      </cc:Work>
    </rdf:RDF>
  </metadata>
  <defs
     id="defs8" />
  <sodipodi:namedview
     pagecolor="#ffffff"
     bordercolor="#666666"
     borderopacity="1"
     objecttolerance="10"
     gridtolerance="10"
     guidetolerance="10"
     inkscape:pageopacity="0"
     inkscape:pageshadow="2"
     inkscape:window-width="1138"
     inkscape:window-height="480"
     id="namedview6"
     showgrid="false"
     inkscape:zoom="9.8333333"
     inkscape:cx="1.0677966"
     inkscape:cy="12"
     inkscape:window-x="0"
     inkscape:window-y="25"
     inkscape:window-maximized="0"
     inkscape:current-layer="svg4" />
  <path
     style="isolation:auto;mix-blend-mode:normal;fill:#e6e6e6"
     d="m 14.53,1.08 a 0.42,0.42 0 0 0 -0.39,0.24 c 0,0.02 -0.8,1.6 -2.1,2.37 A 6.3,6.3 0 0 0 8.3,2.33 4.27,4.27 0 0 0 4.9,3.88 C 3.4,3.23 2.45,1.34 2.45,1.32 A 0.42,0.42 0 0 0 2.02,1.09 0.42,0.42 0 0 0 1.66,1.41 C 1.65,1.45 1.46,2.34 1.6,3.39 c 0.17,1.45 0.85,2.52 1.95,3.09 0.22,0.11 0.44,0.17 0.67,0.2 0,0.74 0.02,1.49 -0.21,2.2 -0.3,1.1 0,2.26 0.8,3.05 0.68,0.86 1.52,1.98 1.05,3.13 -0.68,1.3 -2.02,2.06 -3.25,2.75 -0.3,0.13 -0.67,0.34 -1,0.58 H 1.6 v 0.01 l -0.07,0.04 c -0.3,0.09 -0.56,0.33 -0.56,0.66 v 3.09 c 0,0.4 0.33,0.73 0.74,0.73 h 13.21 c 0.4,0 0.7,-0.33 0.7,-0.73 v -3.8 C 14,17.5 12.18,16.65 11.27,14.94 10.97,13.58 11.92,12.39 12.76,11.44 13.58,10.39 13.26,9 12.96,7.83 12.93,7.41 12.94,6.96 12.95,6.51 l 0.09,-0.03 c 1.1,-0.57 1.77,-1.64 1.95,-3.09 A 6.78,6.78 0 0 0 14.94,1.41 0.42,0.42 0 0 0 14.57,1.09 0.42,0.42 0 0 0 14.53,1.08 Z m 7.6,3.22 a 0.34,0.34 0 0 0 -0.27,0.19 5.29,5.29 0 0 1 -1.68,1.9 5.03,5.03 0 0 0 -3,-1.1 3.4,3.4 0 0 0 -2.7,1.25 C 14.34,6.48 14.28,6.35 14.16,6.27 l -0.23,0.22 v 2.28 c 0,0.6 0.02,1.19 -0.17,1.76 -0.24,0.87 0,1.8 0.63,2.43 0.55,0.7 1.22,1.58 0.85,2.5 -0.26,0.5 -0.66,0.9 -1.1,1.25 0.71,0.44 1.45,0.86 2.17,1.25 v 3.79 h 6.16 c 0.32,0 0.57,-0.26 0.57,-0.59 v -3.03 c -1.3,-0.7 -2.75,-1.39 -3.48,-2.75 -0.25,-1.09 0.51,-2.04 1.18,-2.8 0.66,-0.84 0.4,-1.94 0.17,-2.88 C 20.88,9.36 20.89,9 20.9,8.65 l 0.07,-0.03 c 0.88,-0.45 1.42,-1.3 1.56,-2.46 0.1,-0.84 -0.04,-1.55 -0.04,-1.58 a 0.33,0.33 0 0 0 -0.3,-0.27 0.34,0.34 0 0 0 -0.03,0 0.34,0.34 0 0 0 -0.03,0 z"
     id="path2"
     inkscape:connector-curvature="0" />
</svg>
