<svg xmlns="http://www.w3.org/2000/svg" width="24" height="24" version="1"><path d="M6.873 1.323l-.78.78L12 8.01l5.907-5.907-.78-.78L12 6.45zM5.38 8.333a2.202 2.202 0 0 0-2.207 2.207v9.93c0 1.223.984 2.207 2.207 2.207h13.24a2.202 2.202 0 0 0 2.207-2.207v-9.93a2.202 2.202 0 0 0-2.207-2.207zm1.103 2.207h8.827a1.1 1.1 0 0 1 1.103 1.103v7.724a1.1 1.1 0 0 1-1.103 1.103H6.483a1.1 1.1 0 0 1-1.103-1.103v-7.724a1.1 1.1 0 0 1 1.103-1.103zm11.585 0a.552.552 0 0 1 0 1.103h-.038a.551.551 0 0 1 .039-1.1zm0 2.207a.552.552 0 1 1 0 1.103.552.552 0 0 1 0-1.103z" class="ColorScheme-Text" color="#090d11" fill="#e6e6e6" fill-opacity=".996"/></svg>
