<svg xmlns="http://www.w3.org/2000/svg" width="24" height="24"><defs><linearGradient id="a"><stop offset="0"/><stop offset="1" stop-opacity="0"/></linearGradient></defs><path d="M.57 15.25c.4.84.65 1.19 1.05 1.92.43-.25.9-.47 1.32-.75h.03l.02.06c-.41.3-.84.6-1.28.86.73 1.32 1.56 2.96 1.95 3.57a39.63 39.63 0 0 0 .22.32c.21-.32.41-.65.55-1.02.16-.45.41-.75.95-.76.29 0 .57-.15.87-.24.06.16-.09.5.34.4-.1.23-.2.4-.27.59-.1.26.03.38.27.36.27-.03.52-.1.78-.14.17.43.11.5-.32.6-.58.14-1.15.28-1.7.45-.4.13-.52.53-.25.87.16.22.26.54.6.46-.03-.2-.15-.42-.07-.53.2-.3.5-.53.9-.56.16 0 .32 0 .48.02.45.07.87.09 1.22-.3.1-.11.3-.11.39-.14-.15.22-.35.45-.46.72-.1.22-.04.44.27.51.14.04.27.18.46.32l-.05-.25c-.17-.41-.08-.6.36-.68.6-.1 1.24-.07 1.78-.4.05-.02.12-.01.18 0 .83.08 1.67.15 2.5.26.22.03.43.18.69.3l-.36.55.05.07c.18-.07.38-.13.55-.23.17-.1.34-.22.47-.37.09-.09.15-.26.12-.36-.06-.2-.2-.37-.3-.53-.02-.03-.07-.03-.18-.08.5-.1.64.35.97.46l-.21.6c.5-.24.75-.77.55-1.23a.56.56 0 0 0-.39-.27 23.8 23.8 0 0 0-2.01-.1c-.61 0-1.22.04-1.84.06-.2.02-.36-.01-.37-.27 0-.1-.03-.22-.07-.32-.26-.53.09-.9.31-1.32.24-.44.46-.87.67-1.32.42-.84.38-1.75.43-2.65v-.11c-.3-.63 0-1.1.43-1.49.23-.2.22-.54.5-.74.32-.22.57-.56.83-.86.4-.48.81-.97 1.17-1.49l.2-.29.3-.04c.19.03.35.08.5.03.42-.1.84-.24 1.27-.35.2-.04.42-.07.6-.04.68.13 1.35.24 1.97-.13.41-.23.77-.2 1.17.02.27.14.6.2.9.18.25-.02.38 0 .44.24.02.06.08.1.15.2l.26-.55v-.8c-.24-.42-.65-.57-1.1-.69-.82-.22-1.66-.42-2.47-.68-.69-.22-1.27-.15-1.8.36-.33.32-.63.29-.92-.03-.18-.22-.39-.43-.62-.6.04-.47.1-.95.09-1.41-.01-.89-.1-1.77-.2-2.66-.07-.82-.43-1.45-1.3-1.67h-.44c-.44.22-.78.58-1.1.94-.11-.05-.22-.08-.34-.09a.36.36 0 0 0-.15-.1c-.56-.2-1.15-.34-1.73-.45-.97-.16-1.67.42-2.34.98-.93.79-1.81 1.62-2.7 2.44l-2.34 2.2a8.2 8.2 0 0 0-2.84 5.8c-.04.83-.32 1.59-.56 2.37zm8.88 3.61l.06.07c-.17.2-.36.37-.5.57-.08.1-.06.26-.08.4.12 0 .24.03.35 0l1.2-.32c.05.33.12.63.13.94 0 .2-.1.33-.25.42a.18.18 0 0 0-.1-.06l-.04-.01v-.02c-.1-.03-.21-.08-.33-.08h-.05a.17.17 0 0 0-.15.02c-.35.02-.68.06-1.02.07-.14 0-.38 0-.4-.06-.08-.21-.18-.54-.08-.67.38-.45.83-.85 1.26-1.27zm.23 2.23l.06.03.1.03h.02c-.2.05-.4.08-.62.08l.44-.15z" fill="#e6e6e6" stroke-width=".73"/></svg>
