<?xml version="1.0" encoding="UTF-8" standalone="no"?>
<svg
   xmlns:dc="http://purl.org/dc/elements/1.1/"
   xmlns:cc="http://creativecommons.org/ns#"
   xmlns:rdf="http://www.w3.org/1999/02/22-rdf-syntax-ns#"
   xmlns:svg="http://www.w3.org/2000/svg"
   xmlns="http://www.w3.org/2000/svg"
   xmlns:sodipodi="http://sodipodi.sourceforge.net/DTD/sodipodi-0.dtd"
   xmlns:inkscape="http://www.inkscape.org/namespaces/inkscape"
   width="24"
   height="24"
   version="1.1"
   id="svg11"
   sodipodi:docname="vivaldi.svg"
   inkscape:version="0.92.4 (5da689c313, 2019-01-14)">
  <metadata
     id="metadata15">
    <rdf:RDF>
      <cc:Work
         rdf:about="">
        <dc:format>image/svg+xml</dc:format>
        <dc:type
           rdf:resource="http://purl.org/dc/dcmitype/StillImage" />
        <dc:title></dc:title>
      </cc:Work>
    </rdf:RDF>
  </metadata>
  <sodipodi:namedview
     pagecolor="#ffffff"
     bordercolor="#666666"
     borderopacity="1"
     objecttolerance="10"
     gridtolerance="10"
     guidetolerance="10"
     inkscape:pageopacity="0"
     inkscape:pageshadow="2"
     inkscape:window-width="1138"
     inkscape:window-height="480"
     id="namedview13"
     showgrid="false"
     inkscape:zoom="9.8333333"
     inkscape:cx="1.0677966"
     inkscape:cy="12"
     inkscape:window-x="0"
     inkscape:window-y="25"
     inkscape:window-maximized="0"
     inkscape:current-layer="svg11" />
  <defs
     id="defs7">
    <linearGradient
       id="a">
      <stop
         offset="0"
         id="stop2" />
      <stop
         offset="1"
         stop-opacity="0"
         id="stop4" />
    </linearGradient>
  </defs>
  <path
     d="m 20.78,1.02 a 2.97,2.97 0 0 0 -1.3,0.29 3.23,3.23 0 0 0 -1.37,1.46 3.77,3.77 0 0 0 -0.08,2.27 L 18.37,6 c 0.24,0.6 0.33,1.93 0.18,2.67 a 5.1,5.1 0 0 1 -1.3,2.46 4.45,4.45 0 0 1 -6.38,0.06 C 10.24,10.59 10.17,10.42 7.31,5.26 A 29.5,29.5 0 0 0 5.32,1.88 2.76,2.76 0 0 0 3.28,1.04 c -1.55,0 -2.62,1.2 -2.85,2.53 -0.18,1.07 -0.3,0.89 4.69,9.9 a 149.47,149.47 0 0 0 4.86,8.6 2.7,2.7 0 0 0 3.27,0.6 c 0.29,-0.11 0.62,-0.39 0.86,-0.62 0.41,-0.5 9.28,-16.61 9.43,-17.18 0.15,-0.6 0.12,-1.4 -0.09,-1.98 A 3.14,3.14 0 0 0 21.82,1.19 2.83,2.83 0 0 0 20.78,1.02 Z"
     id="path9"
     inkscape:connector-curvature="0"
     style="fill:#e6e6e6" />
</svg>
