<svg xmlns="http://www.w3.org/2000/svg" width="24" height="24" version="1"><defs><linearGradient id="a"><stop offset="0" stop-color="#784421"/><stop offset="1" stop-color="#a05a2c"/></linearGradient></defs><g fill="#1a1a1a" fill-rule="evenodd"><path d="M15.54 7.838c-.713 0-1.342.35-1.723.887V6.698h7.27v10.26c0 .419-.34.759-.759.759h-6.51v-1.33h5.739v-.95h-5.74v-1.14h5.74v-.95h-5.74V11.13c.381.537 1.01.888 1.722.888a2.097 2.097 0 0 0 2.104-2.103H15.54zM1 3.736L12.86 1.76V22.24L1 20.264zm14.922 3.712v2.076h2.104a2.097 2.097 0 0 0-2.104-2.076zM5.068 9.403v6.2h1.058V13.11h1.417c.32 0 .604-.053.852-.158.248-.105.457-.244.628-.418.17-.173.3-.372.388-.595.088-.224.132-.453.132-.687a1.85 1.85 0 0 0-.518-1.256 1.939 1.939 0 0 0-.625-.429 2.1 2.1 0 0 0-.857-.164zm1.058 2.827v-1.943H7.32c.188 0 .355.024.5.071.145.048.267.114.365.198a.827.827 0 0 1 .225.302c.05.117.076.244.076.38 0 .14-.02.27-.06.39a.778.778 0 0 1-.198.313.96.96 0 0 1-.359.21 1.676 1.676 0 0 1-.549.079z"/><path d="M22.043 13.897V6.12a.38.38 0 0 0-.379-.38H15.73v-.948h6.511c.42 0 .759.34.759.759v7.586c0 .419-.34.759-.759.759z"/></g></svg>