<svg xmlns="http://www.w3.org/2000/svg" xmlns:xlink="http://www.w3.org/1999/xlink" width="48" height="48" viewBox="0 0 12.7 12.7"><defs><linearGradient id="a"><stop offset="0" stop-color="#216778"/><stop offset="1" stop-color="#5fbcd3"/></linearGradient><linearGradient xlink:href="#a" id="b" x1="6.34" y1="293.99" x2="6.23" y2="284.36" gradientUnits="userSpaceOnUse"/></defs><path d="M6.23 284.36c-1.52.01-3.09.72-4.73 2.31V294h9.69v-7.32c-1.6-1.46-3.24-2.33-4.96-2.31z" fill="url(#b)" transform="translate(0 -284.3)"/><path fill="#164450" d="M1.03 9.68h10.7v1.27H1.03z"/><path fill="#216778" d="M-.03 10.93h12.76v1.76H-.03z"/><path d="M2.74 1.33h-.02c-.4.3-.81.64-1.22 1.04V9.68h-.47v1.25H-.03v1.77h3.4v-1.77h-.4V9.68h-.23zm7.14 0v8.35h-.1v1.25h-.44v1.77h3.39v-1.77h-1V9.68h-.54V2.37c-.43-.4-.87-.74-1.31-1.04z" opacity=".5"/><path d="M3.64 5.55H3.6a.97.97 0 0 0-.03.72c-.17.19-.28.43-.28.72 0 1.03.63 1.26 1.23 1.33a.57.57 0 0 0-.17.36c-.16.07-.55.19-.79-.22 0 0-.14-.26-.4-.28 0 0-.27 0-.03.16 0 0 .18.09.3.4 0 0 .16.52.9.36l.01.46c0 .06-.03.13-.13.13h1.6c-.1 0-.13-.07-.13-.13v-.74c0-.25-.09-.42-.18-.5.6-.07 1.23-.3 1.23-1.33 0-.3-.1-.53-.28-.72a.97.97 0 0 0-.03-.71s-.22-.07-.74.27a2.57 2.57 0 0 0-1.34 0c-.39-.26-.61-.28-.7-.28z" fill="#1c1f24"/></svg>