<svg xmlns="http://www.w3.org/2000/svg" height="24" width="24"><path d="M22.44.89a.55.55 0 0 0-.16.03L18.42 2.2a.57.57 0 0 0-.22.95l.56.56-9.19 9.18a.9.9 0 0 0-.1.1l-.02.02-.03.03-.62.63.18-3.72 1.4-1.42a2.39 2.39 0 1 0-1.44-1.45l-1.7 1.7a1.02 1.02 0 0 0-.3.67l-.3 6.37-1.04 1.04a3.29 3.29 0 0 0-3.83.61 3.27 3.27 0 0 0 0 4.67 3.28 3.28 0 0 0 4.67 0 3.29 3.29 0 0 0 .61-3.83l1.22-1.22a1.01 1.01 0 0 0 .18-.18l2.22-2.22 6.36-.3a1.02 1.02 0 0 0 .68-.3l1.85-1.85.4.4a.57.57 0 0 0 .81 0l2.26-2.25a.57.57 0 0 0 0-.8l-2.26-2.26a.56.56 0 0 0-.8 0L17.7 9.58a.57.57 0 0 0 0 .8l.4.4-1.57 1.58-3.71.18 7.38-7.39.56.57a.57.57 0 0 0 .94-.22L23 1.63a.57.57 0 0 0-.4-.73.53.53 0 0 0-.16-.01z" fill="#e6e6e6"/></svg>
