<svg xmlns="http://www.w3.org/2000/svg" version="1" viewBox="0 0 24 24"><path fill="#333" d="M3.611 1.01c-.85 0-1.533.685-1.533 1.535v18.398c0 .85.684 1.534 1.533 1.534h9.2v-1.55l-7.666.016V2.545h13.033c.424 0 .765.34.765.766v9.955h1.534V2.545c0-.85-.684-1.535-1.534-1.535H3.611zm5.412 4.644a.25.25 0 0 0-.212.198c-.004.022-.111.545-.036 1.17.107.858.506 1.491 1.159 1.83h.002c-.054.564.042 1.16-.137 1.709-.16.57 0 1.177.414 1.59.356.447.793 1.031.549 1.632-.353.676-1.054 1.073-1.692 1.434a2.592 2.592 0 0 0-.566.326c-.163.046-.291.17-.291.346v1.605a.38.38 0 0 0 .383.383h4.19a1.56 1.56 0 0 1 1.558-1.55h1.508v-.815c-.847-.457-1.794-.903-2.268-1.795-.163-.709.334-1.328.771-1.82.431-.548.262-1.27.112-1.883-.037-.392.007-.822-.035-1.225.594-.35.967-.953 1.068-1.768.076-.624-.03-1.147-.033-1.17a.252.252 0 0 0-.215-.197.251.251 0 0 0-.254.14c-.006.015-.686 1.394-1.764 1.618a3.92 3.92 0 0 0-1.207-.266h-.002a1.975 1.975 0 0 0-1.052.243c-1.036-.27-1.69-1.58-1.696-1.594a.251.251 0 0 0-.254-.14zm8.387 9.172v3.06h-3.066v3.042l3.066.021v3.06h3.067v-3.06h3.066v-3.062h-3.066v-3.06H17.41z" style="isolation:auto;mix-blend-mode:normal"/></svg>