<?xml version="1.0" encoding="UTF-8" standalone="no"?><!--Created with Inkscape (http://www.inkscape.org/)--><svg xmlns:dc="http://purl.org/dc/elements/1.1/" xmlns:cc="http://creativecommons.org/ns#" xmlns:rdf="http://www.w3.org/1999/02/22-rdf-syntax-ns#" xmlns="http://www.w3.org/2000/svg" xmlns:xlink="http://www.w3.org/1999/xlink" width="64" height="64" version="1"><metadata><rdf:RDF><cc:Work><dc:format>image/svg+xml</dc:format><dc:type rdf:resource="http://purl.org/dc/dcmitype/StillImage"/><dc:title/></cc:Work></rdf:RDF></metadata><defs><linearGradient id="e"><stop offset="0" stop-color="#0b2228"/><stop offset="1" stop-color="#0b2228" stop-opacity="0"/></linearGradient><linearGradient id="d"><stop offset="0" stop-color="#0b2228"/><stop offset="1" stop-color="#0b2228" stop-opacity="0"/></linearGradient><linearGradient id="b"><stop offset="0" stop-color="#216778"/><stop offset=".27" stop-color="#164450"/><stop offset=".29" stop-color="#216778"/><stop offset=".49" stop-color="#2c89a0"/><stop offset=".71" stop-color="#216778"/><stop offset=".73" stop-color="#164450"/><stop offset="1" stop-color="#216778"/></linearGradient><linearGradient id="a"><stop offset="0" stop-color="#216778"/><stop offset=".18" stop-color="#164450"/><stop offset=".19" stop-color="#216778"/><stop offset=".49" stop-color="#2c89a0"/><stop offset=".8" stop-color="#216778"/><stop offset=".81" stop-color="#164450"/><stop offset="1" stop-color="#216778"/></linearGradient><linearGradient id="f"><stop offset="0" stop-color="#0b2228"/><stop offset="1" stop-color="#0b2228" stop-opacity="0"/></linearGradient><linearGradient id="c"><stop offset="0" stop-color="#216778"/><stop offset=".12" stop-color="#164450"/><stop offset=".15" stop-color="#2c89a0"/><stop offset=".49" stop-color="#37abc8"/><stop offset=".85" stop-color="#2c89a0"/><stop offset=".88" stop-color="#164450"/><stop offset="1" stop-color="#216778"/></linearGradient><linearGradient xlink:href="#a" id="h" x1="5.27" y1="51.93" x2="59.12" y2="51.93" gradientUnits="userSpaceOnUse"/><linearGradient xlink:href="#b" id="g" x1="-.04" y1="59.46" x2="64.18" y2="59.46" gradientUnits="userSpaceOnUse"/><linearGradient xlink:href="#c" id="i" x1="7.65" y1="24.52" x2="56.44" y2="24.52" gradientUnits="userSpaceOnUse"/><linearGradient xlink:href="#d" id="j" x1="13.48" y1="63.47" x2="13.48" y2="26.47" gradientUnits="userSpaceOnUse"/><linearGradient xlink:href="#e" id="k" x1="5.27" y1="55.14" x2="5.27" y2="48.73" gradientUnits="userSpaceOnUse"/><linearGradient xlink:href="#f" id="l" x1="-.04" y1="63.9" x2="-.04" y2="55.02" gradientUnits="userSpaceOnUse"/></defs><path d="M-.04 55.02h64.22v8.88H-.04z" fill="url(#g)"/><path d="M5.27 48.73h53.86v6.42H5.27z" fill="url(#h)"/><path fill="url(#i)" d="M31.46.28C23.83.35 15.93 3.9 7.66 11.94v36.83h48.76V20.21h.02v-8.27C48.4 4.58 40.11.19 31.46.28z"/><path d="M31.44.28C23.8.35 15.9 3.9 7.64 11.94v36.83h48.75V20.21h.03v-8.27C48.37 4.58 40.09.19 31.44.28z" fill="url(#j)"/><path d="M5.27 48.73h53.86v6.42H5.27z" fill="url(#k)"/><path d="M-.04 55.02h64.22v8.88H-.04z" fill="url(#l)"/><path d="M30.6 30.17l-1.29-.83c-.97.6-1.83 1.22-2.03 1.26-.19.04-.41.14-.5.21a10.98 10.98 0 0 1-1.56 1.17c-.22.15-.4.25-.5.3l.02-.05c.09-.1 0-.09-.16 0a.16.16 0 0 0-.14.02.1.1 0 0 0-.03.07c-.3.17-.72.46-1.08.75l-.22.1c-.36.2-.8.41-.95.48-.15.06-.4.29-.54.48l-.11.14c-.1.08-.21.15-.32.2a.68.68 0 0 1-.15.02 1.4 1.4 0 0 0-.48.12.66.66 0 0 1-.42.06c-.37-.08-.68.02-.8.24 0-.1-.03-.12-.08-.03-.03.06-.15.08-.3.08-.16-.1-.15-.2.01-.3.1-.06.18-.05.18.03s.11.08.26-.02c.14-.09.44-.23.64-.32.23-.08 2.29-1.34 4.62-2.78 2.82-1.77 4.05-2.49 4.24-2.49l-.45-.29c-5.13 3.46-8.58 5.63-8.94 5.34a1.86 1.86 0 0 0-.6-.21c-.43-.1-.52-.06-1.24.49-.28.22-.6.49-.84.72-.11.03-.23.08-.33.14-.35.18-.38.23-.21.56-.05.14-.02.27.1.48.08.17.28.4.5.6l.19-.18c.6.46.63.6.44 1.3-.06.23-.06.24.04.07.06-.11.16-.34.22-.5.04-.16.1-.26.13-.22.03.05.13-.05.2-.21.13-.21.17-.24.2-.12.03.09 0 .2-.05.24-.07.04-.18.25-.25.47a1.2 1.2 0 0 1-.33.52c-.33.21 0 1 .6 1.45.86.62 3.9-.78 3.38-1.58-.24-.38-.05-1.25.42-1.82.48-.6 1.36-1.38 2.83-2.49 1.33-.9 3.74-2.42 5.69-3.67zm12.6-12.26c-.54 0-.87.1-1.34.4-.4.24-.63.45-.62.6 0 .1-.16.4-.35.64l-.34.45.44-.27c.53-.34.74-.1.37.4-.14.17-.23.39-.19.46.06.1-.15.24-.73.48l-.4-.33c-.56.45-1.38 1.04-2.78 2.03-2.4 1.69-3.37 2.3-5.24 3.59l.34.2c.37-.24.34-.26.85-.57 1.51-.95 2.43-1.58 2.38-1.65-.04-.07.06-.11.24-.13.17-.02.62-.25 1-.51.89-.62 2.48-1.43 2.49-1.26 0 .06.06.1.13.1l-.5.36a.45.45 0 0 1-.18.02c-.17-.04-.21-.02-.14.1.03.03-.04.12-.17.23l-1.2.82a7.1 7.1 0 0 1-1.9.9c-.29.02-.36.06-.33.19.03.09-.15.27-.37.44-.06-.04-.18-.01-.3.08-.15.1-.17.16-.07.14h.06c-.22.13-.42.21-.47.15-.03-.06-.48.15-.98.48-.22.14-.18.16-.32.26l1.71 1.09 1.7-1.1 4.62-3 .58.11c.42.09.7.06.98-.14l.79-.51c.84-.55 2.36-.45 2.7.19.3.5.36.55.92.53 1.08-.02 2.07-1.15 1.95-2.23 0-.07-.02-.13-.03-.2a1.59 1.59 0 0 0-.28-.84 2.4 2.4 0 0 0-1-.88c-.2-.08-.62-.13-.93-.1-.32 0-.77-.1-1.02-.22-.29-.17-.4-.26-.5-.52l-.04-.1a4.23 4.23 0 0 1-.07-.22c-.21-.68-.2-.67-1.47-.66z" fill="#1a1a1a"/><g fill="#1a1a1a"><path d="M28.24 25.15l.15.12c.4.28 1.11.6 2.05 1.2 1.48.9 2.48 1.6 2.47 1.7 0 .17.26.4.78.68.36.18.36.18.14-.1l-.23-.27.32.19c.19.1.29.25.24.32-.04.07.05.16.2.2.18.05.25.12.18.22s.01-.22.13-.27c.12-.06 1.1.75 4.02 2.58 2.33 1.45 4.7 3.05 4.92 3.13.21.09.5.23.64.32.15.1.26.1.27.02 0-.08.09-.08.18-.03.15.1.16.2.02.3-.16 0-.28-.02-.31-.08-.05-.1-.08-.08-.08.03-.12-.22-.43-.32-.8-.24a.66.66 0 0 1-.42-.06c-.1-.06-.31-.1-.48-.12l-.16-.01-.31-.2a1.79 1.79 0 0 1-.11-.15c-.15-.2-.4-.42-.55-.48l-.95-.47-.22-.11a10.2 10.2 0 0 0-1.08-.75c.01-.03 0-.05-.03-.07a.15.15 0 0 0-.13-.02c-.17-.09-.25-.1-.17 0l.03.04c-.1-.04-.28-.14-.5-.29a13.31 13.31 0 0 1-1.56-1.17 1.42 1.42 0 0 0-.5-.2 29.63 29.63 0 0 1-4.24-2.65c0-.06-.17-.27-.36-.44-.2-.2-.3-.37-.23-.4.08-.05-.25-.32-.79-.67-.5-.33-.95-.54-.99-.48-.04.07-.24-.02-.47-.16a.6.6 0 0 1 .07.01c.1.02.07-.05-.07-.14-.12-.1-.24-.12-.3-.08-.22-.17-.59-.13-.57-.21.03-.13-.52-.19-.81-.2l-.12 1.4.17.11c4.49 2.93 8.48 5.4 11.07 7.14a17.03 17.03 0 0 1 2.83 2.5c.46.56.66 1.43.42 1.8-.52.8 2.52 2.21 3.38 1.59.6-.46.93-1.24.6-1.45a1.2 1.2 0 0 1-.33-.52c-.07-.21-.18-.43-.25-.47-.06-.04-.08-.15-.06-.24.03-.12.08-.1.2.12.08.16.18.26.2.21.04-.05.1.06.14.22.06.16.15.39.22.5.1.17.1.16.04-.07-.2-.7-.16-.84.44-1.3l.2.18c.2-.2.4-.43.5-.6.1-.21.14-.34.09-.48.16-.33.14-.38-.22-.56-.1-.06-.21-.1-.32-.13a9.6 9.6 0 0 0-.85-.73c-.71-.55-.8-.59-1.24-.5a2.4 2.4 0 0 0-.6.22c-.5.4-5.63-2.29-15.9-9.48z"/><path d="M35.89 30.08l.02-.04c-.41-.24-1.14-.68-2.07-1.3a16.02 16.02 0 0 0-2.53-1.56c-.16.07-.47-.08-.94-.43-.32-.26-.32-.26.03-.16l.34.1-.3-.22c-.17-.13-.35-.16-.4-.1-.04.07-.16.03-.25-.1-.12-.14-.22-.17-.28-.07-.07.1-.11.1-.1-.03 0-.13-1.37-.85-4.23-2.77a48.47 48.47 0 0 1-4.88-3.73c-.15-.1-.2-.2-.13-.23s.04-.12-.05-.18c-.15-.1-.24-.07-.28.1.07.15.14.25.2.26.11 0 .1.03 0 .08.26.02.48.26.56.64.03.13.13.3.22.35.1.06.22.24.3.4l.08.13.31.2.18.05c.24.05.54.19.66.3l.82.67.19.16c.4.21.84.48 1.12.68.02-.02.05-.02.08 0 .04.03.07.07.07.12.15.11.2.18.06.15l-.04-.01c.07.07.24.2.47.34.06 0 .09.01.07.05a13.57 13.57 0 0 0 1.63.9c.1.05.28.22.4.37.24.34 3.99 2.87 4.13 2.8.06-.02.31.04.55.15.26.1.46.12.47.04 0-.1.38.1.92.45.5.33.88.66.84.71-.04.07.12.22.34.37a.59.59 0 0 0-.04-.06c-.05-.08.01-.09.16 0 .13.08.21.18.2.25.24.13.48.22.55.16.1-.08.24.47.37.73l-1.14.82-.28-.18c-4.5-2.9-8.35-5.42-11-7.08a17.03 17.03 0 0 0-3.42-1.57c-.7-.2-1.59-.02-1.83.36-.52.8-3.04-1.4-2.82-2.45.17-.74.75-1.35 1.08-1.14.1.07.38.12.61.09.22-.02.46 0 .53.04.06.03.17 0 .24-.05.1-.08.05-.1-.19-.13-.18 0-.3-.06-.27-.1.02-.05-.1-.06-.26-.04-.17.02-.42.02-.54.01-.2-.02-.2-.03.04-.07.72-.1.83-.2 1.01-.92l-.24-.11c.1-.28.23-.56.35-.7.14-.19.24-.27.4-.28.23-.29.28-.29.6-.03.09.06.18.15.25.24.3.12.69.3 1 .47.8.44.87.5.96.93.05.25.07.54.04.64-.16.62 4.38 3.95 15.13 10.41z"/><path d="M31 27l1.06.7-.22.3-.94-.33z"/></g></svg>