<svg xmlns="http://www.w3.org/2000/svg" xmlns:xlink="http://www.w3.org/1999/xlink" width="64" height="64" version="1"><defs><linearGradient id="e"><stop offset="0" stop-color="#0b2228"/><stop offset="1" stop-color="#0b2228" stop-opacity="0"/></linearGradient><linearGradient id="d"><stop offset="0" stop-color="#0b2228"/><stop offset="1" stop-color="#0b2228" stop-opacity="0"/></linearGradient><linearGradient id="b"><stop offset="0" stop-color="#216778"/><stop offset=".27" stop-color="#164450"/><stop offset=".29" stop-color="#216778"/><stop offset=".49" stop-color="#2c89a0"/><stop offset=".71" stop-color="#216778"/><stop offset=".73" stop-color="#164450"/><stop offset="1" stop-color="#216778"/></linearGradient><linearGradient id="a"><stop offset="0" stop-color="#216778"/><stop offset=".18" stop-color="#164450"/><stop offset=".19" stop-color="#216778"/><stop offset=".49" stop-color="#2c89a0"/><stop offset=".8" stop-color="#216778"/><stop offset=".81" stop-color="#164450"/><stop offset="1" stop-color="#216778"/></linearGradient><linearGradient id="f"><stop offset="0" stop-color="#0b2228"/><stop offset="1" stop-color="#0b2228" stop-opacity="0"/></linearGradient><linearGradient id="c"><stop offset="0" stop-color="#216778"/><stop offset=".12" stop-color="#164450"/><stop offset=".15" stop-color="#2c89a0"/><stop offset=".49" stop-color="#37abc8"/><stop offset=".85" stop-color="#2c89a0"/><stop offset=".88" stop-color="#164450"/><stop offset="1" stop-color="#216778"/></linearGradient><linearGradient xlink:href="#a" id="h" x1="5.27" y1="51.93" x2="59.12" y2="51.93" gradientUnits="userSpaceOnUse"/><linearGradient xlink:href="#b" id="g" x1="-.04" y1="59.46" x2="64.18" y2="59.46" gradientUnits="userSpaceOnUse"/><linearGradient xlink:href="#c" id="i" x1="7.65" y1="24.52" x2="56.44" y2="24.52" gradientUnits="userSpaceOnUse"/><linearGradient xlink:href="#d" id="j" x1="13.48" y1="63.47" x2="13.48" y2="26.47" gradientUnits="userSpaceOnUse"/><linearGradient xlink:href="#e" id="k" x1="5.27" y1="55.14" x2="5.27" y2="48.73" gradientUnits="userSpaceOnUse"/><linearGradient xlink:href="#f" id="l" x1="-.04" y1="63.9" x2="-.04" y2="55.02" gradientUnits="userSpaceOnUse"/></defs><path d="M-.04 55.02h64.22v8.88H-.04z" fill="url(#g)"/><path d="M5.27 48.73h53.86v6.42H5.27z" fill="url(#h)"/><path d="M31.46.28C23.83.35 15.93 3.9 7.66 11.94v36.83h48.76V20.21h.02v-8.27C48.4 4.58 40.11.19 31.46.28z" fill="url(#i)"/><path d="M31.44.28C23.8.35 15.9 3.9 7.64 11.94v36.83h48.75V20.21h.03v-8.27C48.37 4.58 40.09.19 31.44.28z" fill="url(#j)"/><path d="M5.27 48.73h53.86v6.42H5.27z" fill="url(#k)"/><path d="M-.04 55.02h64.22v8.88H-.04z" fill="url(#l)"/><path d="M18.41 48.63h26.92l-.87-6.48c0-.63-.76-1.17-1.83-1.7a7.05 7.05 0 0 0 3-4.41l1.4.24a.67.67 0 0 0 .77-.83h-.02l-1.1-5.28a.67.67 0 0 0-1.23-.22l-2.82 4.63a.67.67 0 0 0 .45 1.01l1.25.22c-.06.31-.18.74-.45 1.29a5.68 5.68 0 0 1-2.74 2.66c-2-.83-4.38-1.69-5.7-2.83-.12-1.08-.1-2.15.03-3.22.9-1.07 1.84-2.22 2.05-2.85.82-3.5.82-4.78.87-6.08 0-.64-.11-1.25-.3-1.83a5.43 5.43 0 0 0 1.78-1.13l.3-.31.13-.14c.1-.12.18-.25.27-.38l.16-.22.03-.04h-.01c.5-.82.83-1.79.96-2.9.21-1.7-.07-3.12-.1-3.17a.67.67 0 0 0-.67-.53.67.67 0 0 0-.58.38c-.02.03-1.04 2.1-2.77 3.4a6.33 6.33 0 0 1-.2.17l-.17.1a6.33 6.33 0 0 1-.36.22 4.5 4.5 0 0 1-1.38.5c-.32.06-.59.2-.78.4a6.86 6.86 0 0 0-5.82.08c-.2-.24-.5-.41-.86-.48-.5-.09-.97-.27-1.4-.52a5.89 5.89 0 0 1-.28-.16l-.23-.15a5.89 5.89 0 0 1-.17-.12c-1.75-1.3-2.79-3.41-2.8-3.44a.68.68 0 0 0-1.26.15c0 .05-.3 1.48-.1 3.16.14 1.12.47 2.1.97 2.9v.01l.02.03.22.32.2.27.23.25.2.23h.01c.38.35.8.67 1.27.91a2.9 2.9 0 0 0 .74.27 5.7 5.7 0 0 0-.28 1.77c.02 1.24.13 2.72.86 6.08.2.59 1.12 1.63 2.06 2.63.16 1.12.2 2.19-.02 3.45-2.52 2.1-9 3.03-8.98 5.2z" fill="#1d2a2e"/></svg>