<?xml version="1.0" encoding="UTF-8" standalone="no"?>
<svg
   xmlns:dc="http://purl.org/dc/elements/1.1/"
   xmlns:cc="http://creativecommons.org/ns#"
   xmlns:rdf="http://www.w3.org/1999/02/22-rdf-syntax-ns#"
   xmlns:svg="http://www.w3.org/2000/svg"
   xmlns="http://www.w3.org/2000/svg"
   xmlns:xlink="http://www.w3.org/1999/xlink"
   xmlns:sodipodi="http://sodipodi.sourceforge.net/DTD/sodipodi-0.dtd"
   xmlns:inkscape="http://www.inkscape.org/namespaces/inkscape"
   width="64"
   height="64"
   version="1"
   id="svg84"
   sodipodi:docname="folder-documents.svg"
   inkscape:version="0.92.4 (5da689c313, 2019-01-14)">
  <metadata
     id="metadata88">
    <rdf:RDF>
      <cc:Work
         rdf:about="">
        <dc:format>image/svg+xml</dc:format>
        <dc:type
           rdf:resource="http://purl.org/dc/dcmitype/StillImage" />
        <dc:title></dc:title>
      </cc:Work>
    </rdf:RDF>
  </metadata>
  <sodipodi:namedview
     pagecolor="#ffffff"
     bordercolor="#666666"
     borderopacity="1"
     objecttolerance="10"
     gridtolerance="10"
     guidetolerance="10"
     inkscape:pageopacity="0"
     inkscape:pageshadow="2"
     inkscape:window-width="1112"
     inkscape:window-height="480"
     id="namedview86"
     showgrid="false"
     inkscape:zoom="3.6875"
     inkscape:cx="2.8474576"
     inkscape:cy="32"
     inkscape:window-x="0"
     inkscape:window-y="25"
     inkscape:window-maximized="0"
     inkscape:current-layer="svg84" />
  <defs
     id="defs68">
    <linearGradient
       id="e">
      <stop
         offset="0"
         stop-color="#0b2228"
         id="stop2" />
      <stop
         offset="1"
         stop-color="#0b2228"
         stop-opacity="0"
         id="stop4" />
    </linearGradient>
    <linearGradient
       id="d">
      <stop
         offset="0"
         stop-color="#0b2228"
         id="stop7" />
      <stop
         offset="1"
         stop-color="#0b2228"
         stop-opacity="0"
         id="stop9" />
    </linearGradient>
    <linearGradient
       id="b">
      <stop
         offset="0"
         stop-color="#216778"
         id="stop12" />
      <stop
         offset=".27"
         stop-color="#164450"
         id="stop14" />
      <stop
         offset=".29"
         stop-color="#216778"
         id="stop16" />
      <stop
         offset=".49"
         stop-color="#2c89a0"
         id="stop18" />
      <stop
         offset=".71"
         stop-color="#216778"
         id="stop20" />
      <stop
         offset=".73"
         stop-color="#164450"
         id="stop22" />
      <stop
         offset="1"
         stop-color="#216778"
         id="stop24" />
    </linearGradient>
    <linearGradient
       id="a">
      <stop
         offset="0"
         stop-color="#216778"
         id="stop27" />
      <stop
         offset=".18"
         stop-color="#164450"
         id="stop29" />
      <stop
         offset=".19"
         stop-color="#216778"
         id="stop31" />
      <stop
         offset=".49"
         stop-color="#2c89a0"
         id="stop33" />
      <stop
         offset=".8"
         stop-color="#216778"
         id="stop35" />
      <stop
         offset=".81"
         stop-color="#164450"
         id="stop37" />
      <stop
         offset="1"
         stop-color="#216778"
         id="stop39" />
    </linearGradient>
    <linearGradient
       id="f">
      <stop
         offset="0"
         stop-color="#0b2228"
         id="stop42" />
      <stop
         offset="1"
         stop-color="#0b2228"
         stop-opacity="0"
         id="stop44" />
    </linearGradient>
    <linearGradient
       id="c">
      <stop
         offset="0"
         stop-color="#216778"
         id="stop47" />
      <stop
         offset=".12"
         stop-color="#164450"
         id="stop49" />
      <stop
         offset=".15"
         stop-color="#2c89a0"
         id="stop51" />
      <stop
         offset=".49"
         stop-color="#37abc8"
         id="stop53" />
      <stop
         offset=".85"
         stop-color="#2c89a0"
         id="stop55" />
      <stop
         offset=".88"
         stop-color="#164450"
         id="stop57" />
      <stop
         offset="1"
         stop-color="#216778"
         id="stop59" />
    </linearGradient>
    <linearGradient
       xlink:href="#a"
       id="h"
       x1="5.27"
       y1="51.93"
       x2="59.12"
       y2="51.93"
       gradientUnits="userSpaceOnUse" />
    <linearGradient
       xlink:href="#b"
       id="g"
       x1="-.04"
       y1="59.46"
       x2="64.18"
       y2="59.46"
       gradientUnits="userSpaceOnUse" />
    <linearGradient
       xlink:href="#c"
       id="i"
       x1="7.65"
       y1="24.52"
       x2="56.44"
       y2="24.52"
       gradientUnits="userSpaceOnUse" />
    <linearGradient
       xlink:href="#d"
       id="j"
       x1="13.48"
       y1="63.47"
       x2="13.48"
       y2="26.47"
       gradientUnits="userSpaceOnUse" />
    <linearGradient
       xlink:href="#e"
       id="k"
       x1="5.27"
       y1="55.14"
       x2="5.27"
       y2="48.73"
       gradientUnits="userSpaceOnUse" />
    <linearGradient
       xlink:href="#f"
       id="l"
       x1="-.04"
       y1="63.9"
       x2="-.04"
       y2="55.02"
       gradientUnits="userSpaceOnUse" />
  </defs>
  <path
     d="M -0.04,55.02 H 64.18 V 63.9 H -0.04 Z"
     id="path70"
     style="fill:url(#g)"
     inkscape:connector-curvature="0" />
  <path
     d="m 5.27,48.73 h 53.86 v 6.42 H 5.27 Z"
     id="path72"
     style="fill:url(#h)"
     inkscape:connector-curvature="0" />
  <path
     d="M 31.46,0.28 C 23.83,0.35 15.93,3.9 7.66,11.94 V 48.77 H 56.42 V 20.21 h 0.02 V 11.94 C 48.4,4.58 40.11,0.19 31.46,0.28 Z"
     id="path74"
     style="fill:url(#i)"
     inkscape:connector-curvature="0" />
  <path
     d="M 31.44,0.28 C 23.8,0.35 15.9,3.9 7.64,11.94 V 48.77 H 56.39 V 20.21 h 0.03 V 11.94 C 48.37,4.58 40.09,0.19 31.44,0.28 Z"
     id="path76"
     style="fill:url(#j)"
     inkscape:connector-curvature="0" />
  <path
     d="m 5.27,48.73 h 53.86 v 6.42 H 5.27 Z"
     id="path78"
     style="fill:url(#k)"
     inkscape:connector-curvature="0" />
  <path
     d="M -0.04,55.02 H 64.18 V 63.9 H -0.04 Z"
     id="path80"
     style="fill:url(#l)"
     inkscape:connector-curvature="0" />
  <path
     d="m 28,15.72 c -0.1,0 -0.36,0 -0.55,0.02 l -2.37,0.05 c -2.16,0.04 -2.64,0.05 -2.7,0.1 -0.04,0.03 -0.04,0.03 -0.02,0 a 17.06,17.06 0 0 0 -2.18,0.15 9.6,9.6 0 0 1 -0.97,0.08 c -0.4,0 -0.59,0.03 -0.61,0.06 -0.06,0.06 0,0.08 0.24,0.1 0.11,0.02 0.23,0.05 0.26,0.07 0.05,0.04 0.03,0.04 -0.17,0.05 -0.4,0 -0.44,0.04 -0.47,0.42 a 0.9,0.9 0 0 0 0.03,0.37 c 0.03,0.06 0.05,0.17 0.05,0.23 0,0.28 0.12,0.57 0.29,0.7 0.08,0.06 0.1,0.09 0.07,0.12 -0.07,0.08 -0.06,0.22 0.03,0.36 0.06,0.1 0.08,0.17 0.1,0.34 0,0.18 0.04,0.27 0.16,0.5 0.14,0.28 0.15,0.3 0.27,0.32 0.14,0.03 0.16,0.06 0.16,0.2 0,0.1 -0.03,0.14 -0.14,0.28 -0.14,0.16 -0.15,0.17 -0.15,0.37 0,0.25 -0.08,0.44 -0.28,0.7 l -0.12,0.17 0.1,0.11 c 0.13,0.15 0.22,0.4 0.27,0.66 0.03,0.19 0.02,0.24 -0.02,0.35 -0.06,0.14 -0.06,0.25 -0.02,0.27 l 0.06,0.18 0.15,0.44 c 0.07,0.18 0.12,0.35 0.12,0.43 0,0.09 0.03,0.17 0.09,0.27 0.12,0.18 0.12,0.23 0,0.23 -0.18,0 -0.2,0.03 -0.12,0.21 0.07,0.15 0.07,0.2 0.08,0.9 0.01,0.66 0.02,0.77 0.07,0.85 0.03,0.05 0.06,0.18 0.07,0.3 a 0.8,0.8 0 0 0 0.06,0.27 c 0.05,0.06 0.04,0.08 -0.05,0.23 l -0.1,0.16 v 0.44 c 0,0.34 0.01,0.5 -0.02,0.63 -0.06,0.19 -0.04,0.23 0.08,0.35 0.15,0.13 0.15,0.17 0.05,0.28 -0.09,0.1 -0.1,0.12 -0.1,0.43 v 0.43 l -0.05,0.12 c 0,0.02 0,0.13 0.03,0.14 l 0.02,0.01 0.01,0.04 -0.01,0.03 a 0.44,0.44 0 0 1 -0.13,0.09 l -0.09,0.03 v 0.52 c 0,0.46 0,0.53 0.06,0.63 0.06,0.1 0.06,0.1 0,0.34 a 5.6,5.6 0 0 0 -0.07,0.7 c -0.04,0.74 -0.15,1.17 -0.37,1.5 -0.04,0.06 -0.06,0.12 -0.05,0.13 0.03,0.03 -0.17,0 -0.4,-0.07 a 4.72,4.72 0 0 0 -0.67,-0.12 c -0.51,-0.05 -0.58,-0.04 -0.82,0.1 -0.13,0.09 -0.14,0.1 -0.14,0.2 0,0.07 -0.05,0.16 -0.12,0.28 -0.07,0.1 -0.15,0.24 -0.18,0.32 l -0.15,0.33 a 1,1 0 0 1 -0.16,0.26 c -0.12,0.1 -0.15,0.25 -0.16,0.58 0,0.22 0,0.3 -0.04,0.32 -0.04,0.02 -0.03,0.04 0.02,0.1 0.1,0.1 0.08,0.12 -0.02,0.05 -0.12,-0.1 -0.14,-0.06 -0.05,0.05 0.1,0.12 0.1,0.18 0,0.3 l -0.1,0.1 0.08,0.08 c 0.08,0.06 0.08,0.06 0.03,0.12 -0.04,0.04 -0.07,0.05 -0.1,0.03 -0.02,-0.02 -0.03,0 -0.02,0.06 0,0.06 -0.02,0.11 -0.1,0.2 a 0.58,0.58 0 0 0 -0.1,0.14 l 0.1,0.05 c 0.1,0.05 0.12,0.12 0.06,0.14 -0.02,0.01 -0.07,-0.02 -0.12,-0.06 -0.04,-0.04 -0.1,-0.08 -0.14,-0.08 -0.06,0 -0.06,0 0,0.08 l 0.13,0.09 c 0.03,0 0.07,0.04 0.07,0.08 0.02,0.03 0.04,0.05 0.05,0.04 0.02,-0.01 0.1,0.03 0.2,0.1 0.13,0.1 0.15,0.12 0.12,0.16 -0.04,0.05 -0.05,0.04 -0.19,-0.05 a 1.08,1.08 0 0 1 -0.2,-0.15 0.13,0.13 0 0 0 -0.06,-0.05 0.19,0.19 0 0 1 -0.1,-0.05 0.72,0.72 0 0 0 -0.23,-0.16 c -0.05,0 0.05,0.1 0.2,0.2 0.25,0.16 0.42,0.29 0.47,0.33 0.03,0.04 0.03,0.05 -0.03,0.11 -0.06,0.07 -0.08,0.07 -0.14,0.05 -0.08,-0.03 -0.08,-0.03 -0.03,0.03 0.06,0.06 0.06,0.07 -0.04,0.18 -0.15,0.2 -0.11,0.25 0.06,0.08 l 0.15,-0.15 0.1,0.05 c 0.22,0.12 0.21,0.14 0.03,0.35 -0.09,0.1 -0.16,0.2 -0.16,0.22 0,0.02 0.1,-0.06 0.2,-0.17 0.19,-0.18 0.22,-0.2 0.27,-0.17 0.08,0.04 0.08,0.05 -0.03,0.2 -0.11,0.13 -0.04,0.09 0.2,-0.15 0.1,-0.09 0.18,-0.14 0.2,-0.13 0.03,0 0.05,0 0.04,-0.03 0,-0.06 0.1,-0.09 0.15,-0.04 0.04,0.03 0.03,0.05 -0.04,0.13 -0.15,0.15 -0.48,0.57 -0.48,0.6 l 0.24,-0.25 a 1.76,1.76 0 0 1 0.35,-0.33 c 0.02,-0.03 0.05,-0.05 0.08,-0.04 0.06,0.02 0.06,0.08 0,0.13 l -0.05,0.06 c 0,0.05 0.06,0.03 0.12,-0.03 l 0.06,-0.07 0.25,0.16 c 0.32,0.2 0.36,0.24 0.34,0.3 0,0.04 0,0.04 0.1,0.04 0.06,-0.01 0.13,0.01 0.29,0.1 l 0.25,0.17 c 0.02,0.03 0.06,0.05 0.08,0.05 l 0.14,0.04 0.1,0.05 -0.07,-0.06 c -0.08,-0.07 -0.1,-0.1 0,-0.15 0.04,-0.02 0.08,-0.02 0.17,0.03 0.07,0.03 0.13,0.06 0.14,0.05 V 39.67 A 0.35,0.35 0 0 1 19.12,39.6 l -0.1,-0.07 0.11,-0.08 c 0.1,-0.07 0.12,-0.08 0.18,-0.05 0.04,0.02 0.07,0.05 0.07,0.07 0,0.03 0.01,0.05 0.03,0.04 0.01,-0.01 0.06,0 0.1,0.01 0.1,0.04 0.14,0.01 0.07,-0.04 -0.05,-0.04 -0.05,-0.05 -0.01,-0.08 0.04,-0.03 0.07,-0.02 0.2,0.05 0.08,0.04 0.16,0.07 0.18,0.06 0.03,0 -0.03,-0.05 -0.11,-0.1 a 0.52,0.52 0 0 1 -0.16,-0.1 c 0,-0.05 0.06,-0.06 0.1,-0.02 0.09,0.06 0.29,0.17 0.32,0.17 0.03,0 0,-0.04 -0.04,-0.1 -0.1,-0.1 -0.08,-0.14 0.04,-0.14 0.07,0 0.09,-0.01 0.08,-0.05 0,-0.03 0.05,-0.09 0.14,-0.15 0.09,-0.06 0.23,-0.17 0.31,-0.25 a 0.7,0.7 0 0 1 0.22,-0.15 c 0.1,0 0.1,0.07 -0.02,0.2 -0.12,0.11 -0.1,0.11 0.05,0.01 a 0.32,0.32 0 0 1 0.15,-0.06 c 0.04,0 0.3,0.15 0.59,0.35 0.7,0.47 0.74,0.4 0.04,-0.1 l -0.4,-0.27 -0.12,-0.08 0.13,-0.1 c 0.17,-0.17 0.2,-0.19 0.26,-0.16 0.03,0.02 0.03,0.05 -0.02,0.15 -0.09,0.16 -0.08,0.17 0.05,0.06 a 0.42,0.42 0 0 1 0.14,-0.1 0.4,0.4 0 0 1 0.13,0.1 c 0.09,0.07 0.1,0.1 0.07,0.12 -0.09,0.1 -0.02,0.09 0.11,-0.01 l 0.18,-0.1 c 0,0 0.07,0.03 0.12,0.08 l 0.1,0.1 -0.06,0.05 c -0.09,0.07 -0.09,0.1 0,0.05 0.09,-0.06 0.16,-0.06 0.26,0 l 0.08,0.05 -0.07,-0.08 c -0.04,-0.04 -0.07,-0.1 -0.06,-0.1 0.02,-0.07 0.36,-0.34 0.4,-0.33 0.02,0 0.04,0 0.04,-0.02 0,-0.05 0.12,-0.14 0.19,-0.14 0.1,0 0.09,0.09 -0.02,0.21 -0.17,0.18 -0.14,0.2 0.07,0.03 a 0.63,0.63 0 0 1 0.14,-0.1 l 0.2,0.17 0.17,0.15 -0.04,0.1 a 0.35,0.35 0 0 0 -0.04,0.09 c 0.01,0.02 0.2,-0.17 0.2,-0.2 0,-0.06 0.36,-0.42 0.4,-0.42 0.06,0 0.06,0.04 -0.01,0.13 -0.1,0.12 -0.07,0.16 0.04,0.06 0.05,-0.06 0.13,-0.1 0.16,-0.1 a 0.4,0.4 0 0 0 0.16,-0.05 l 0.13,-0.03 c 0.03,0.01 0.05,0 0.05,-0.04 0.02,-0.1 0.1,-0.14 0.15,-0.1 0.03,0.03 0.02,0.05 0,0.1 -0.04,0.06 -0.03,0.06 0.03,0.05 0.1,-0.03 0.1,-0.03 0.17,0 0.04,0 0.1,0 0.17,-0.03 0.11,-0.05 0.14,-0.04 0.14,0.05 0,0.05 0.02,0.04 0.11,-0.06 l 0.12,-0.14 0.09,0.07 c 0.05,0.03 0.1,0.08 0.1,0.1 l -0.1,0.15 a 3.2,3.2 0 0 0 -0.16,0.2 c -0.05,0.1 -0.05,0.1 0,0.06 0.07,-0.05 0.36,-0.36 0.43,-0.45 0.03,-0.05 0.05,-0.05 0.1,-0.03 0.03,0.02 0.05,0.05 0.04,0.06 -0.04,0.07 0.03,0.03 0.15,-0.1 0.13,-0.1 0.14,-0.11 0.2,-0.06 0.04,0.05 0.05,0.06 0,0.11 -0.06,0.1 -0.04,0.12 0.05,0.05 0.1,-0.06 0.15,-0.06 0.15,0.02 0,0.02 -0.06,0.14 -0.14,0.25 a 0.84,0.84 0 0 0 -0.12,0.23 c 0,0 0.08,-0.06 0.16,-0.16 l 0.23,-0.27 0.1,-0.1 0.08,0.07 c 0.13,0.09 0.22,0.18 0.2,0.2 0,0.02 0.02,0.03 0.05,0.03 0.03,0 0.08,0.03 0.12,0.06 0.1,0.08 0.12,0.06 0.04,-0.06 -0.09,-0.12 -0.06,-0.14 0.1,-0.08 0.14,0.06 0.17,0.06 0.15,0.01 -0.02,-0.05 0.24,-0.23 0.3,-0.2 0.06,0.01 0.06,0.04 0.01,0.09 -0.06,0.06 0,0.03 0.15,-0.06 0.17,-0.1 0.22,-0.11 0.22,-0.03 0,0.06 0.02,0.06 0.06,0.05 0.04,-0.01 0.09,0 0.13,0.05 0.05,0.05 0.07,0.06 0.1,0.03 0.11,-0.08 0.19,-0.1 0.26,-0.1 l 0.08,0.03 -0.13,0.15 c -0.24,0.26 -0.14,0.23 0.18,-0.06 0.26,-0.23 0.36,-0.25 0.2,-0.04 -0.1,0.14 -0.04,0.13 0.14,-0.03 0.16,-0.15 0.18,-0.16 0.24,-0.1 0.03,0.04 0.03,0.06 0,0.1 -0.09,0.1 0,0.1 0.11,0 0.14,-0.12 0.24,-0.13 0.2,-0.02 0,0.08 0.05,0.08 0.13,0 0.05,-0.05 0.07,-0.05 0.12,-0.01 0.03,0.02 0.06,0.06 0.06,0.1 0,0.02 0,0.03 0.02,0.02 0.02,0 0.06,0 0.11,0.03 0.09,0.04 0.1,0.05 0.06,-0.01 -0.05,-0.09 -0.04,-0.13 0.01,-0.13 a 1.8,1.8 0 0 0 0.42,0.33 c 0.01,-0.02 -0.03,-0.08 -0.1,-0.15 -0.08,-0.1 -0.1,-0.12 -0.05,-0.14 a 0.2,0.2 0 0 1 0.12,0.05 c 0.1,0.1 0.13,0.06 0.06,-0.06 -0.06,-0.1 -0.04,-0.1 0.1,-0.03 l 0.1,0.07 v -0.08 c 0,-0.08 0.04,-0.1 0.15,-0.05 a 20.49,20.49 0 0 1 2,0.17 c 0.14,0.02 0.14,0.04 0.04,0.11 -0.13,0.08 -0.23,0.17 -0.21,0.2 0.01,0 0.11,-0.05 0.23,-0.13 0.15,-0.1 0.23,-0.14 0.3,-0.13 0.04,0 0.07,0.02 0.07,0.03 0,0.02 -0.17,0.15 -0.37,0.3 -0.22,0.15 -0.16,0.13 -0.17,0.15 0,0 -0.15,0.1 -0.1,0.08 0.02,0 0.09,-0.05 0.12,-0.07 l 0.26,-0.17 c 0.17,-0.12 0.32,-0.2 0.34,-0.2 0.04,0 0.1,0.12 0.06,0.14 l -0.46,0.35 -0.22,0.15 0.25,-0.14 0.14,-0.07 c 0.2,-0.13 0.39,-0.23 0.4,-0.23 0.08,0 0,0.08 -0.26,0.27 l -0.14,0.12 -0.12,0.08 0.14,-0.07 c 0.1,-0.04 0.22,-0.1 0.35,-0.18 0.15,-0.1 0.17,-0.1 0.21,-0.06 0.05,0.05 0.03,0.07 -0.2,0.28 -0.25,0.25 -0.24,0.26 0.06,0.02 a 1.95,1.95 0 0 1 0.4,-0.26 c 0.04,-0.03 0.05,-0.03 0.07,0 l 0.03,0.07 -0.49,0.39 -0.22,0.17 c -0.02,0 -0.03,0.03 -0.03,0.04 l 0.29,-0.2 a 5,5 0 0 0 0.48,-0.3 c 0.1,-0.08 0.1,-0.08 0.14,-0.03 l 0.05,0.08 c 0,0 -0.2,0.18 -0.44,0.36 l -0.02,0.02 c -0.22,0.18 -0.41,0.34 -0.41,0.36 0,0.02 0.14,-0.07 0.32,-0.2 0.17,-0.12 0.08,-0.04 0.18,-0.1 0.25,-0.19 0.46,-0.34 0.49,-0.3 0.03,0.04 0.03,0.05 0,0.07 -0.06,0.03 -0.2,0.16 -0.38,0.3 l -0.46,0.36 c 0,0.02 0.27,-0.17 0.51,-0.33 l 0.24,-0.16 c 0.2,-0.14 0.2,-0.14 0.25,-0.08 0.05,0.06 0.05,0.06 0,0.12 -0.07,0.07 -0.04,0.1 0.04,0.06 0.06,-0.03 0.12,-0.02 0.12,0.02 a 0.7,0.7 0 0 1 -0.16,0.16 c -0.2,0.16 -0.17,0.2 0.04,0.05 a 0.7,0.7 0 0 1 0.2,-0.1 l 0.08,-0.07 c 0.08,-0.1 0.2,-0.11 0.25,-0.04 0.06,0.07 0.05,0.08 -0.05,0.14 -0.08,0.04 -0.1,0.05 -0.14,0.01 -0.04,-0.03 -0.04,-0.03 -0.03,0 0,0.03 -0.02,0.1 -0.06,0.13 l -0.06,0.1 0.23,-0.12 0.22,-0.13 0.14,0.12 c 0.1,0.1 0.12,0.12 0.11,0.07 -0.02,-0.05 0,-0.08 0.04,-0.1 0.1,-0.05 0.15,-0.04 0.18,0.06 0.03,0.08 0.12,0.12 0.12,0.05 0,-0.01 0.03,-0.02 0.06,-0.01 0.04,0 0.06,0 0.07,-0.05 0.01,-0.06 0.02,-0.06 0.07,-0.02 0.03,0.02 0.08,0.1 0.13,0.16 0.05,0.09 0.08,0.1 0.08,0.07 0.01,-0.03 -0.02,-0.1 -0.07,-0.17 -0.08,-0.12 -0.07,-0.12 -0.02,-0.17 0.08,-0.05 0.1,-0.05 0.12,0.01 0,0.03 0.05,0.1 0.1,0.13 l 0.1,0.06 -0.04,-0.06 c -0.03,-0.06 -0.03,-0.08 0,-0.12 0.06,-0.04 0.07,-0.04 0.17,0.07 0.06,0.08 0.1,0.1 0.1,0.07 0,-0.02 0.06,-0.1 0.14,-0.14 l 0.14,-0.1 0.06,0.08 c 0.08,0.11 0.1,0.1 0.1,-0.06 -0.03,-0.1 -0.01,-0.13 0,-0.13 0.02,0 0.14,-0.07 0.25,-0.15 0.2,-0.14 0.33,-0.2 0.33,-0.13 l -0.17,0.13 c -0.17,0.1 -0.3,0.25 -0.16,0.18 l 0.57,-0.35 c 0.06,-0.04 0.26,-0.1 0.5,-0.16 0.44,-0.1 0.76,-0.2 1.18,-0.33 0.25,-0.1 0.27,-0.1 0.33,-0.24 l 0.11,-0.24 c 0.02,-0.06 0.1,-0.16 0.16,-0.23 a 0.95,0.95 0 0 0 0.23,-0.44 0.3,0.3 0 0 0 -0.05,-0.13 c -0.06,-0.08 -0.06,-0.16 -0.04,-1.22 0.02,-1.1 0.02,-1.14 0.08,-1.24 0.1,-0.15 0.08,-0.18 0,-0.09 l -0.09,0.07 0.08,-0.1 c 0.1,-0.1 0.08,-0.16 -0.05,-0.25 -0.06,-0.04 -0.07,-0.08 -0.1,-0.3 -0.01,-0.21 -0.03,-0.28 -0.1,-0.4 a 2.4,2.4 0 0 0 -0.74,-0.58 7.09,7.09 0 0 1 -0.47,-0.29 c -0.4,-0.27 -0.66,-0.66 -0.7,-1.02 0,-0.17 0,-0.2 0.06,-0.27 0.1,-0.11 0.15,-0.3 0.13,-0.4 L 38.88,31.4 C 38.86,31.3 38.62,31.15 38.34,31.08 A 1.36,1.36 0 0 1 38.08,31 c -0.03,-0.03 0.05,-0.37 0.1,-0.41 0.03,-0.04 0.31,0.02 0.54,0.1 0.2,0.09 0.23,0.08 0.1,-0.01 -0.09,-0.05 -0.09,-0.05 0,-0.04 0.11,0.04 0.32,0.2 0.42,0.32 0.05,0.07 0.1,0.1 0.1,0.1 0.01,-0.05 -0.1,-0.22 -0.2,-0.32 a 0.43,0.43 0 0 1 -0.1,-0.1 c 0,-0.02 0.15,-0.04 0.33,-0.05 0.37,-0.01 0.8,-0.13 0.92,-0.26 0.12,-0.1 0.05,-0.1 -0.18,-0.02 -0.33,0.13 -0.57,0.18 -1,0.18 -0.34,0 -0.67,-0.04 -0.62,-0.09 0,0 0.17,-0.03 0.38,-0.04 0.6,-0.05 1.21,-0.23 1.55,-0.46 0.27,-0.18 0.71,-0.56 0.74,-0.63 0.07,-0.14 0,-0.14 -0.14,0 a 1.3,1.3 0 0 1 -0.83,0.34 l -0.45,0.05 c -0.1,0.01 -0.16,0 -0.17,-0.01 -0.01,-0.02 -0.1,-0.04 -0.2,-0.04 -0.1,0 -0.18,-0.01 -0.18,-0.03 0,-0.04 0,-0.03 0.38,-0.03 0.32,0 0.3,-0.05 -0.03,-0.05 a 0.75,0.75 0 0 1 -0.25,-0.05 c -0.08,-0.04 -0.07,-0.04 0.1,-0.1 0.3,-0.07 0.28,-0.13 0,-0.07 -0.08,0.02 -0.13,0.02 -0.15,0 -0.02,-0.02 0,-0.03 0.04,-0.03 a 0.2,0.2 0 0 0 0.12,-0.06 c 0.06,-0.06 0.07,-0.06 0.34,-0.03 0.15,0.02 0.36,0.07 0.47,0.1 0.2,0.06 0.4,0.07 0.38,0.03 -0.01,-0.02 -0.08,-0.04 -0.16,-0.05 -0.08,-0.01 -0.2,-0.05 -0.3,-0.08 -0.07,-0.03 -0.28,-0.1 -0.45,-0.13 a 2.41,2.41 0 0 1 -0.33,-0.1 l 0.11,-0.02 c 0.14,-0.02 0.28,-0.01 0.77,0.07 0.33,0.06 0.52,0.06 0.78,-0.02 0.2,-0.06 0.35,-0.19 0.28,-0.23 l -0.27,0.07 c -0.3,0.11 -0.5,0.12 -1,0.03 -0.53,-0.08 -0.52,-0.12 0.06,-0.16 0.13,-0.02 0.32,-0.05 0.42,-0.08 0.18,-0.06 0.48,-0.23 0.45,-0.26 l -0.24,0.08 c -0.22,0.1 -0.57,0.17 -0.67,0.15 -0.04,0 -0.03,-0.02 0.05,-0.04 0.05,-0.01 0.1,-0.04 0.1,-0.05 0,-0.03 -0.07,-0.03 -0.73,0.02 -0.18,0.02 -0.18,0.02 -0.12,-0.02 0.05,-0.03 0.34,-0.14 0.67,-0.24 0.67,-0.23 0.85,-0.3 1.1,-0.5 0.22,-0.16 0.54,-0.5 0.54,-0.57 0,-0.03 0.03,-0.1 0.07,-0.15 0.06,-0.06 0.08,-0.11 0.06,-0.16 -0.01,-0.06 0.03,-0.14 0.24,-0.42 0.31,-0.42 0.53,-0.62 0.86,-0.81 0.23,-0.13 0.26,-0.15 0.23,-0.2 -0.03,-0.04 -0.03,-0.04 0,0 0.05,0.03 0.08,0.03 0.15,-0.01 0.17,-0.09 0.17,-0.18 0,-0.1 l -0.17,0.07 a 1.6,1.6 0 0 0 -0.27,0.14 c -0.25,0.15 -0.78,0.36 -0.78,0.3 0,-0.01 0.1,-0.1 0.24,-0.19 0.28,-0.19 0.39,-0.28 0.39,-0.35 0,-0.03 0.02,-0.07 0.04,-0.1 0.03,-0.03 0.05,-0.08 0.03,-0.1 -0.01,-0.04 -0.04,-0.03 -0.17,0.09 l -0.46,0.3 c -0.4,0.18 -1.4,0.5 -1.8,0.57 a 2.8,2.8 0 0 0 -0.46,0.11 c -0.18,0.08 -0.22,0.06 -0.11,-0.06 a 1,1 0 0 1 0.47,-0.26 c 0.2,-0.03 0.6,-0.18 0.93,-0.34 0.42,-0.2 0.5,-0.24 0.76,-0.3 0.24,-0.07 0.42,-0.15 0.57,-0.25 0.07,-0.05 0.07,-0.07 0.04,-0.11 -0.03,-0.05 -0.03,-0.05 0.01,-0.01 0.04,0.03 0.08,0 0.27,-0.16 a 1,1 0 0 1 0.23,-0.17 c 0.01,0.04 -0.07,0.19 -0.2,0.37 -0.07,0.1 -0.1,0.16 -0.07,0.18 0.04,0.04 0,0.08 0.32,-0.38 l 0.32,-0.46 c 0.03,-0.04 0.05,-0.1 0.05,-0.14 0,-0.05 0.11,-0.18 0.33,-0.42 0.2,-0.2 0.33,-0.36 0.32,-0.38 -0.01,-0.03 0.03,-0.08 0.1,-0.15 a 0.6,0.6 0 0 0 0.15,-0.12 c 0,-0.03 0,-0.03 -0.31,0.17 -0.48,0.3 -0.54,0.33 -0.28,0.12 0.24,-0.2 0.69,-0.8 0.6,-0.8 -0.04,0 -0.1,0.07 -0.35,0.36 -0.16,0.2 -0.3,0.31 -0.46,0.42 -0.23,0.15 -0.43,0.25 -0.56,0.3 -0.14,0.06 -0.08,0.01 0.11,-0.09 0.21,-0.1 0.22,-0.1 0.2,-0.13 -0.01,0 -0.21,0.04 -0.45,0.12 -0.37,0.11 -0.95,0.24 -0.98,0.21 l 0.1,-0.07 c 0.17,-0.1 0.12,-0.12 -0.1,-0.05 -0.12,0.05 -0.27,0.08 -0.35,0.08 -0.09,0 -0.13,0.02 -0.12,0.05 0.01,0.02 0,0.03 -0.03,0 -0.06,-0.01 -0.05,-0.01 0.04,-0.09 0.07,-0.07 0.08,-0.08 0.02,-0.08 -0.04,0 0,-0.03 0.1,-0.08 l 0.17,-0.1 c 0.08,0 1.23,-0.4 1.27,-0.43 a 5.68,5.68 0 0 1 -0.79,0.15 2.37,2.37 0 0 1 0.75,-0.23 c 0.13,0 0.56,-0.15 0.84,-0.3 l 0.37,-0.15 0.27,-0.1 c 0.2,-0.1 0.52,-0.4 0.59,-0.52 0.03,-0.06 0.1,-0.13 0.17,-0.16 0.14,-0.08 0.14,-0.13 0,-0.11 a 4,4 0 0 1 -0.3,0.04 h -0.17 l 0.32,-0.1 0.47,-0.18 c 0.18,-0.08 0.75,-0.5 0.75,-0.56 0,-0.03 0.08,-0.12 0.18,-0.22 0.1,-0.09 0.18,-0.18 0.18,-0.2 0,-0.07 0.16,-0.2 0.34,-0.26 0.24,-0.09 0.37,-0.17 0.64,-0.42 0.23,-0.22 0.65,-0.54 0.8,-0.63 0.07,-0.03 0.1,-0.07 0.1,-0.11 v -0.06 c -0.1,0 -0.57,-0.12 -0.8,-0.2 a 3.22,3.22 0 0 0 -1.05,-0.22 l 0.2,-0.1 a 0.6,0.6 0 0 0 0.19,-0.08 c 0,-0.07 -0.09,-0.08 -0.27,-0.04 -0.28,0.05 -0.62,0.1 -1.05,0.13 -0.87,0.06 -1.18,0.15 -2.17,0.65 a 9.37,9.37 0 0 0 -1.72,0.99 16.1,16.1 0 0 1 -0.76,0.82 c -0.45,0.47 -0.64,0.7 -0.89,1.06 -0.13,0.2 -0.18,0.25 -0.24,0.25 -0.05,0 -0.13,0.06 -0.24,0.17 -0.23,0.24 -0.25,0.28 -0.34,0.62 -0.1,0.4 -0.1,0.71 0.04,1.24 0.1,0.43 0.1,0.55 0,0.3 A 2.76,2.76 0 0 1 39.3,22.55 c 0.1,-0.22 0.09,-0.21 0.03,-0.21 -0.05,0 -0.23,0.2 -0.5,0.55 -0.23,0.31 -0.3,0.55 -0.3,0.93 0,0.42 0.11,0.83 0.4,1.47 0.1,0.22 0.14,0.34 0.15,0.47 0,0.09 0,0.16 -0.01,0.15 l -0.03,0.01 -0.12,0.3 -0.12,0.26 -0.07,-0.2 a 1.6,1.6 0 0 0 -0.34,-0.6 3.7,3.7 0 0 1 -0.24,-0.33 c -0.04,-0.06 -0.08,-0.1 -0.1,-0.1 -0.03,0 0.05,0.2 0.12,0.31 0.12,0.17 0.34,0.56 0.38,0.69 0.06,0.13 0.06,0.13 0.12,0.08 0.06,-0.06 0.06,-0.05 0,0.01 -0.04,0.06 -0.05,0.08 -0.02,0.18 0.05,0.16 0.04,0.32 0,0.38 -0.05,0.06 -0.05,0.06 -0.06,0 l -0.04,-0.15 c -0.02,-0.09 -0.09,-0.19 -0.12,-0.16 l 0.05,0.2 c 0.1,0.3 0.1,0.39 -0.21,1.3 -0.38,1.14 -0.34,1.06 -0.43,0.88 a 1.82,1.82 0 0 0 -0.28,-0.43 l 0.03,0.13 0.05,0.12 -0.1,-0.12 A 2.87,2.87 0 0 1 37.29,28.3 c -0.15,-0.25 -0.23,-0.33 -0.15,-0.15 0.07,0.16 0.15,0.31 0.29,0.53 0.17,0.29 0.3,0.69 0.3,0.92 0.01,0.22 -0.06,0.5 -0.1,0.48 a 1.99,1.99 0 0 1 -0.21,-0.62 l -0.02,-0.13 0.06,0.07 0.06,0.11 c 0,0.02 0.01,0.04 0.03,0.04 0.04,0 0.04,-0.05 -0.02,-0.24 -0.06,-0.2 -0.17,-0.42 -0.4,-0.78 a 1.82,1.82 0 0 1 -0.34,-1.07 c 0.02,0 0.06,0.06 0.12,0.14 0.2,0.33 0.52,0.7 0.57,0.65 0,0 -0.08,-0.2 -0.2,-0.43 a 3.81,3.81 0 0 1 -0.26,-0.58 c -0.08,-0.3 -0.09,-0.92 -0.01,-0.92 0.01,0 0.03,0.06 0.04,0.13 0.03,0.17 0.08,0.32 0.11,0.32 0.02,0 0.02,-0.03 0.01,-0.07 -0.05,-0.23 -0.1,-0.62 -0.08,-0.66 0.03,-0.1 0.06,-0.04 0.1,0.23 0.07,0.3 0.15,0.52 0.17,0.43 l -0.05,-0.3 c -0.1,-0.45 -0.13,-0.68 -0.1,-0.72 0.04,-0.04 0.04,-0.04 0.13,0.42 0.09,0.49 0.35,1.25 0.49,1.43 a 6.91,6.91 0 0 1 -0.38,-1.44 l -0.02,-0.14 0.05,0.1 0.13,0.32 c 0.05,0.12 0.1,0.24 0.13,0.27 0.08,0.1 0.08,0.02 0.01,-0.16 a 4.65,4.65 0 0 1 -0.32,-1.45 c 0,-0.17 0.19,-0.84 0.3,-1.1 l 0.07,-0.14 0.04,0.28 c 0.03,0.24 0.07,0.36 0.22,0.7 0.18,0.4 0.29,0.57 0.54,0.87 0.27,0.3 0.25,0.16 -0.02,-0.16 l -0.12,-0.17 0.27,0.23 c 0.19,0.18 0.25,0.23 0.26,0.2 0.03,-0.06 -0.2,-0.36 -0.4,-0.5 a 2.5,2.5 0 0 1 -0.58,-1.1 c -0.06,-0.2 -0.1,-0.42 -0.1,-0.5 -0.01,-0.12 -0.05,-0.34 -0.06,-0.26 0,0.03 -0.02,0.07 -0.05,0.1 -0.02,0.02 -0.09,0.14 -0.14,0.25 l -0.02,0.04 c 0,-0.18 -0.03,-0.31 -0.11,-0.33 a 0.89,0.89 0 0 0 -0.37,0.04 c -0.06,0.01 -0.06,0.01 -0.03,-0.05 a 0.19,0.19 0 0 1 0.11,-0.08 c 0.33,-0.07 0.45,-0.16 0.5,-0.4 0,-0.07 0.04,-0.29 0.08,-0.48 0.07,-0.43 0.07,-0.7 0,-0.98 a 2.2,2.2 0 0 1 0.12,-1.38 l 0.09,-0.23 c 0,-0.05 -0.38,0.02 -0.56,0.1 -0.22,0.1 -0.34,0.13 -0.24,0.05 l 0.17,-0.1 0.25,-0.13 c 0.16,-0.1 0.16,-0.1 0.07,-0.34 -0.07,-0.18 -0.03,-0.34 0.15,-0.65 0.12,-0.2 0.2,-0.27 0.26,-0.3 a 0.47,0.47 0 0 0 0.15,-0.1 c 0.07,-0.09 0.1,-0.33 0.05,-0.54 -0.04,-0.2 -0.03,-0.26 0.1,-0.4 0.05,-0.08 0.06,-0.12 0.06,-0.53 0,-0.24 0.01,-0.51 0.03,-0.6 0.03,-0.22 0.02,-0.23 -0.35,-0.27 a 2.57,2.57 0 0 0 -0.9,0.01 1.1,1.1 0 0 0 -0.63,0.31 c -0.16,0.15 -0.2,0.16 -0.2,0.06 0,-0.03 -0.05,-0.07 -0.15,-0.12 -0.32,-0.15 -0.57,-0.18 -0.8,-0.1 -0.2,0.08 -0.52,0.08 -1.39,0.02 a 9.66,9.66 0 0 0 -0.81,-0.03 c 0,0.01 -0.02,0.04 -0.05,0.06 -0.04,0.04 -0.04,0.03 -0.01,0 0.05,-0.07 0.02,-0.1 -0.12,-0.1 l -0.8,-0.07 c -1.65,-0.17 -2.77,-0.17 -3.13,-0.01 -0.12,0.05 -0.13,0.05 -0.13,0 0,-0.08 -0.1,-0.23 -0.22,-0.3 -0.1,-0.06 -0.15,-0.07 -0.37,-0.07 H 28 Z m 0.47,0.15 c 0.33,0.02 0.39,0.11 0.14,0.22 -0.13,0.05 -0.13,0.08 -0.01,0.12 0.1,0.04 0.15,0.13 0.14,0.25 0,0.07 -0.03,0.1 -0.1,0.13 a 0.28,0.28 0 0 0 -0.13,0.07 c -0.04,0.06 -0.04,0.15 0,0.15 0.02,0 0.03,-0.02 0.03,-0.05 0,-0.07 0.11,-0.13 0.26,-0.13 0.07,0 0.11,-0.03 0.19,-0.12 0.13,-0.16 0.24,-0.2 0.61,-0.25 0.47,-0.06 0.69,-0.05 1.19,0.03 0.34,0.05 0.5,0.1 0.68,0.18 0.26,0.12 0.66,0.25 0.75,0.25 0.03,0 0.07,-0.02 0.1,-0.04 0.01,-0.03 0.06,-0.04 0.12,-0.04 0.1,0.01 0.1,0 0.09,0.15 v 0.14 c 0.02,0 0.15,-0.11 0.3,-0.26 l 0.16,-0.14 c -0.1,0.1 -0.1,0.13 -0.07,0.14 0.13,0.05 -0.01,0.22 -0.15,0.2 -0.07,-0.02 -0.1,-0.01 -0.14,0.03 -0.06,0.07 -0.05,0.08 0.13,0.12 0.28,0.08 0.52,0.22 0.75,0.45 0.12,0.13 0.28,0.31 0.36,0.42 0.17,0.22 0.16,0.22 0.25,-0.17 0.08,-0.34 0.4,-0.84 0.62,-0.99 0.1,-0.07 0.16,-0.08 0.36,-0.08 0.26,0 0.25,0 0.32,-0.17 0.02,-0.06 0.06,-0.1 0.16,-0.12 0.15,-0.04 0.29,-0.02 0.57,0.07 l 0.2,0.07 0.06,0.2 c 0.05,0.15 0.05,0.22 0.03,0.26 -0.01,0.03 -0.14,0.16 -0.27,0.29 -0.26,0.23 -0.2,0.24 0.09,0 0.2,-0.16 0.26,-0.24 0.3,-0.41 0.03,-0.2 0.1,-0.28 0.27,-0.37 0.14,-0.07 0.72,-0.22 0.85,-0.22 0.04,0 0.05,0.01 0.03,0.09 0,0.07 0,0.08 0.03,0.08 0.03,0 0.06,0 0.07,-0.04 0.02,-0.06 0.11,-0.1 0.17,-0.1 0.03,0.03 0.04,0.04 0,0.09 0,0.03 -0.05,0.05 -0.08,0.05 -0.03,0 -0.04,0.02 -0.03,0.06 0,0.03 -0.03,0.1 -0.1,0.18 a 7.3,7.3 0 0 0 -0.7,1.05 c 0.02,0 0.15,-0.17 0.31,-0.39 0.26,-0.34 0.3,-0.38 0.35,-0.36 0.07,0.04 0.07,0.07 0.02,0.12 -0.05,0.05 0,0.08 0.05,0.03 0.04,-0.03 0.06,-0.03 0.1,0 0.04,0.06 0.04,0.07 0,0.14 l -0.06,0.08 0.14,0.14 c 0.18,0.2 0.2,0.36 0.01,0.22 -0.08,-0.07 -0.17,-0.1 -0.17,-0.07 l 0.15,0.17 c 0.12,0.12 0.15,0.16 0.15,0.25 0,0.13 -0.04,0.2 -0.26,0.42 a 1.5,1.5 0 0 0 -0.34,0.57 0.4,0.4 0 0 1 -0.07,0.14 0.42,0.42 0 0 1 -0.14,-0.06 c -0.17,-0.11 -0.18,-0.1 -0.05,0.03 0.07,0.08 0.1,0.13 0.1,0.17 -0.03,0.06 -0.06,0.06 -0.14,0.02 -0.06,-0.03 -0.06,-0.03 -0.03,0.02 0.04,0.07 0.04,0.18 0,0.2 a 0.4,0.4 0 0 1 -0.15,-0.07 c -0.17,-0.11 -0.2,-0.09 -0.05,0.04 0.08,0.07 0.11,0.11 0.1,0.15 -0.03,0.07 -0.06,0.06 -0.25,-0.1 -0.1,-0.08 -0.18,-0.14 -0.19,-0.13 l 0.16,0.2 c 0.15,0.14 0.17,0.17 0.14,0.21 -0.05,0.06 -0.08,0.06 -0.19,-0.02 -0.14,-0.1 -0.12,-0.04 0.02,0.1 0.08,0.06 0.13,0.13 0.13,0.14 -0.03,0.05 -0.25,0.12 -0.47,0.15 -0.35,0.04 -0.6,0.18 -0.76,0.4 0,-0.02 0.03,-0.02 0.03,-0.04 0,-0.05 -0.02,-0.1 -0.07,-0.11 h -0.01 c -0.05,0 -0.08,0.04 -0.09,0.1 l 0.02,0.07 c 0.01,0.03 0.03,0.04 0.06,0.04 h 0.01 a 1,1 0 0 1 -0.17,0.18 c -0.15,0.1 -0.1,0.1 0.06,0 0.08,-0.03 0.15,-0.09 0.16,-0.12 0.05,-0.16 0.43,-0.33 0.78,-0.35 0.15,-0.02 0.25,0 0.25,0 0,0.02 -0.07,0.12 -0.14,0.23 -0.25,0.33 -0.28,0.42 -0.06,0.21 l 0.1,-0.1 0.07,0.06 0.07,0.06 -0.13,0.18 c -0.15,0.22 -0.1,0.25 0.08,0.04 0.1,-0.12 0.13,-0.13 0.17,-0.1 0.03,0.03 0.02,0.05 -0.03,0.1 -0.04,0.02 -0.07,0.06 -0.07,0.08 0,0.02 -0.06,0.1 -0.13,0.2 -0.2,0.23 -0.17,0.27 0.04,0.04 0.14,-0.15 0.2,-0.18 0.21,-0.16 0.03,0.03 0.02,0.06 -0.04,0.14 -0.12,0.16 -0.13,0.18 -0.07,0.16 0.04,-0.01 0.1,0.04 0.24,0.2 l 0.33,0.29 c 0.15,0.12 0.2,0.18 0.12,0.2 -0.03,0.01 -0.12,-0.05 -0.24,-0.16 a 2.14,2.14 0 0 0 -0.47,-0.33 l 0.28,0.3 c 0.3,0.32 0.33,0.35 0.3,0.4 l -0.05,0.07 -0.1,-0.06 c -0.12,-0.1 -0.15,-0.05 -0.05,0.06 0.07,0.07 0.08,0.1 0.05,0.14 -0.03,0.07 -0.01,0.12 0.08,0.23 l 0.07,0.07 -0.08,0.11 c -0.1,0.13 -0.16,0.14 -0.38,0.02 A 0.5,0.5 0 0 0 36.58,23 c -0.16,0 -0.17,0 -0.08,0.04 0.1,0.03 0.33,0.37 0.33,0.5 0,0.16 0.09,0.3 0.18,0.26 0.02,0 0.07,0.01 0.1,0.05 0.08,0.06 0.08,0.07 0.03,0.12 -0.05,0.05 -0.05,0.06 0.02,0.13 0.09,0.1 0.06,0.18 -0.05,0.14 -0.11,-0.05 -0.12,-0.04 -0.04,0.04 0.1,0.1 0.04,0.16 -0.07,0.07 -0.11,-0.08 -0.14,-0.04 -0.04,0.06 l 0.08,0.1 -0.06,0.1 c -0.07,0.1 -0.03,0.12 0.05,0 0.05,-0.05 0.13,-0.06 0.13,-0.01 0,0.06 -0.12,0.24 -0.33,0.52 -0.22,0.3 -0.27,0.42 -0.1,0.23 l 0.12,-0.13 0.11,0.15 0.14,0.14 c -0.04,0.12 -0.06,0.25 -0.12,0.4 -0.09,0.27 -0.2,0.65 -0.27,1.02 -0.18,0.84 -0.17,0.87 0.16,1.52 l 0.26,0.52 c 0,0.06 -0.2,-0.1 -0.4,-0.32 -0.23,-0.24 -0.48,-0.4 -0.63,-0.41 -0.08,0 -0.05,0.07 0.06,0.13 0.05,0.03 0.1,0.06 0.08,0.07 0,0 -0.1,0.02 -0.21,0 -0.18,0 -0.17,0.01 0.1,0.05 0.32,0.04 0.4,0.07 0.54,0.2 0.13,0.12 0.13,0.16 0,0.13 -0.16,-0.03 -0.13,0 0.07,0.08 0.1,0.03 0.2,0.08 0.2,0.1 0.03,0.02 0.07,0.04 0.11,0.04 0.06,0 0.25,0.17 0.22,0.2 -0.01,0.01 -0.08,0 -0.15,-0.04 -0.07,-0.04 -0.2,-0.08 -0.3,-0.1 -0.15,-0.03 -0.2,-0.02 -0.28,0.03 -0.06,0.03 -0.1,0.07 -0.1,0.08 0,0.02 0.03,0.02 0.05,0.02 0.08,-0.04 0.37,-0.04 0.47,0 0.12,0.03 0.25,0.12 0.29,0.2 0.03,0.05 0.02,0.05 -0.12,0 -0.2,-0.08 -0.26,-0.05 -0.08,0.04 0.18,0.1 0.26,0.18 0.38,0.5 0.12,0.32 0.12,0.37 0,0.25 -0.17,-0.14 -0.22,-0.18 -0.3,-0.2 -0.04,-0.02 0.02,0.05 0.17,0.2 l 0.23,0.22 -0.04,0.22 c -0.05,0.34 -0.03,0.32 -0.5,0.34 -0.34,0.01 -0.47,0.03 -0.71,0.1 -0.41,0.12 -0.48,0.16 -0.54,0.3 -0.07,0.2 -0.06,0.4 0.04,0.6 a 0.8,0.8 0 0 1 -0.07,0.86 c -0.12,0.15 -0.4,0.37 -0.74,0.56 -0.83,0.48 -0.91,0.54 -1.02,0.75 a 0.6,0.6 0 0 0 -0.05,0.21 0.3,0.3 0 0 1 -0.08,0.2 c -0.1,0.1 -0.1,0.2 0,0.33 0.06,0.1 0.06,0.12 0.05,1.26 v 1.15 l -0.08,0.08 a 0.44,0.44 0 0 0 -0.1,0.17 l -0.02,0.1 -0.16,-0.14 a 0.73,0.73 0 0 0 -0.18,-0.12 c 0,0.01 0.26,0.35 0.3,0.38 0.05,0.02 0,0.08 -0.05,0.08 -0.04,0 -0.04,0 -0.02,-0.04 0.05,-0.05 0.01,-0.08 -0.06,-0.04 -0.03,0 -0.08,0.02 -0.1,0.01 -0.03,0 -0.04,0 0,0.04 0,0.03 0.03,0.07 0.05,0.08 0.04,0.02 0.03,0.06 -0.02,0.08 -0.03,0.02 -0.1,-0.01 -0.16,-0.07 -0.16,-0.12 -0.2,-0.11 -0.1,0.02 0.06,0.06 0.1,0.13 0.1,0.16 l -0.01,0.06 a 91.07,91.07 0 0 1 -4.14,-0.94 l -0.97,-0.22 -0.08,-0.02 -0.05,0.06 c -0.06,0.07 -0.06,0.07 0.06,0.1 l 2.2,0.53 c 1.12,0.26 1.42,0.34 1.03,0.3 L 30.74,37.93 30.08,37.87 A 214.91,214.91 0 0 0 27.6,37.65 c -0.13,-0.02 -0.16,0 -0.23,0.05 -0.07,0.06 -0.07,0.06 -0.02,0 l 0.05,-0.06 -0.35,-0.02 -1.12,-0.08 c -0.41,-0.03 -1.09,-0.07 -1.5,-0.07 a 4,4 0 0 1 -1.3,-0.11 c -0.02,0.06 -0.19,0.04 -0.39,-0.06 -0.15,-0.07 -0.18,-0.07 -0.15,-0.03 0.08,0.08 0.07,0.1 -0.04,0.08 h -0.2 c -0.08,0.02 -0.1,0.03 -0.06,0.07 0.02,0.03 0,0.02 -0.05,-0.02 l -0.08,-0.08 0.06,-0.06 c 0.1,-0.1 0.08,-0.12 -0.03,-0.05 l -0.09,0.07 -0.23,-0.13 c -0.16,-0.08 -0.2,-0.1 -0.15,-0.05 0.08,0.07 0.1,0.13 0.06,0.16 -0.03,0.02 -0.56,-0.23 -0.6,-0.28 0,-0.03 -0.03,-0.03 -0.09,0 -0.08,0.07 -0.18,0.07 -0.25,0.01 -0.05,-0.03 -0.07,-0.03 -0.14,0 -0.08,0.05 -0.09,0.05 -0.27,-0.09 -0.22,-0.17 -0.24,-0.13 -0.03,0.05 0.15,0.13 0.17,0.2 0.07,0.25 -0.05,0 -0.23,-0.09 -0.4,-0.23 -0.11,-0.1 -0.18,-0.11 -0.18,-0.05 0,0.07 -0.16,0.14 -0.22,0.1 C 19.62,37 19.62,37 19.65,37.06 c 0.02,0.04 0,0.07 -0.03,0.1 -0.05,0.05 -0.07,0.05 -0.1,0.02 -0.07,-0.05 -0.06,-0.07 0.03,-0.2 0.1,-0.12 0.07,-0.13 -0.07,0 -0.09,0.07 -0.11,0.08 -0.15,0.05 -0.06,-0.05 -0.05,-0.08 0.06,-0.21 0.16,-0.2 0.16,-0.23 0,-0.08 -0.08,0.08 -0.17,0.14 -0.2,0.14 a 0.44,0.44 0 0 1 -0.15,-0.1 c -0.13,-0.1 -0.15,-0.06 -0.02,0.06 0.1,0.1 0.12,0.16 0.05,0.18 -0.05,0.02 -0.33,-0.18 -0.4,-0.29 -0.06,-0.07 -0.12,-0.07 -0.16,0.01 -0.03,0.06 -0.03,0.07 0.01,0.03 0.04,-0.03 0.06,-0.02 0.17,0.07 0.07,0.06 0.12,0.12 0.12,0.13 l -0.1,0.1 c -0.13,0.07 -0.2,0.04 -0.1,-0.05 0.08,-0.08 0.06,-0.12 -0.03,-0.05 -0.09,0.06 -0.1,0.06 -0.14,0 -0.03,-0.03 -0.04,-0.07 -0.03,-0.08 0,-0.03 0,-0.04 -0.04,-0.04 a 0.09,0.09 0 0 0 -0.08,0.06 c -0.03,0.09 -0.1,0.08 -0.22,-0.03 -0.13,-0.12 -0.16,-0.1 -0.04,0.03 0.05,0.06 0.1,0.12 0.1,0.14 0,0.1 -0.08,0.07 -0.27,-0.1 -0.18,-0.18 -0.33,-0.26 -0.19,-0.11 0.08,0.08 0.06,0.15 -0.04,0.12 -0.06,0 -0.07,0 -0.06,0.04 0.02,0.07 -0.06,0.13 -0.12,0.1 a 0.07,0.07 0 0 1 -0.04,-0.05 c 0,-0.05 -0.01,-0.05 -0.07,0 -0.15,0.1 -0.15,0.03 -0.01,-0.16 0.06,-0.07 0.1,-0.14 0.09,-0.15 0,0 -0.08,0.04 -0.15,0.11 -0.11,0.11 -0.14,0.13 -0.2,0.1 -0.06,-0.04 -0.06,-0.04 0,-0.1 0.04,-0.05 0.05,-0.05 0.1,-0.02 l -0.04,-0.07 0.05,-0.1 c 0.05,-0.1 0.05,-0.1 0,-0.04 -0.08,0.07 -0.09,0.07 -0.22,-0.05 -0.12,-0.11 -0.15,-0.18 -0.1,-0.2 0.03,0 -0.02,-0.1 -0.1,-0.18 -0.1,-0.13 -0.13,-0.2 -0.13,-0.28 0,-0.11 0.06,-0.29 0.13,-0.34 0.04,-0.04 0.05,-0.03 0.09,0.01 0.04,0.06 0.04,0.06 0.11,0 a 0.54,0.54 0 0 1 0.2,-0.1 c 0.13,-0.03 0.14,-0.03 0.23,0.05 0.17,0.17 0.62,0.25 0.82,0.15 0.05,-0.03 0.1,-0.04 0.1,-0.02 0,0 0.07,0.03 0.15,0.04 0.11,0.02 0.15,0.01 0.14,-0.02 -0.02,-0.06 -0.22,-0.1 -0.38,-0.1 C 18.14,35.6 18,35.6 17.9,35.6 17.7,35.61 17.65,35.59 17.36,35.34 a 1.28,1.28 0 0 0 -0.3,-0.18 0.58,0.58 0 0 1 -0.2,-0.1 c 0,-0.04 0.14,-0.32 0.25,-0.44 0.08,-0.1 0.1,-0.1 0.22,-0.1 0.1,0 0.14,0.01 0.16,0.06 0.05,0.08 0.14,0.13 0.23,0.1 0.1,-0.01 0.1,-0.07 0.02,-0.07 -0.03,0 -0.1,-0.04 -0.14,-0.09 A 0.6,0.6 0 0 0 17.43,34.4 c -0.08,-0.04 -0.08,-0.04 -0.04,-0.12 0.02,-0.05 0.07,-0.1 0.1,-0.1 a 3.86,3.86 0 0 1 1.41,0.16 c 0.34,0.1 0.37,0.1 0.34,0.06 0,-0.02 0.02,0 0.07,0.03 0.08,0.06 0.1,0.06 0.15,0.03 0.03,-0.03 0.04,-0.03 0.04,0 -0.01,0.04 0.04,0.06 0.93,0.3 0.48,0.14 1.7,0.56 1.8,0.63 0.06,0.03 0.3,0.1 0.53,0.16 0.72,0.18 1.6,0.46 2.16,0.67 0.17,0.07 0.5,0.18 0.75,0.25 l 0.76,0.22 a 11.12,11.12 0 0 0 1.4,0.38 c 0.1,0.03 0.12,0.03 0.18,-0.02 l 0.06,-0.06 a 20.18,20.18 0 0 1 -2.06,-0.58 8.37,8.37 0 0 1 -0.93,-0.3 C 25,36.08 25,36.07 25.05,36 L 25.1,35.93 25,35.97 c -0.08,0.05 -0.2,0.06 -0.24,0.03 -0.01,-0.02 0.01,-0.06 0.06,-0.1 0.08,-0.1 0.05,-0.12 -0.07,-0.04 -0.05,0.03 -0.08,0.03 -0.13,0 -0.08,-0.03 -0.1,-0.03 -0.1,0.03 0,0.03 0,0.04 -0.04,0.02 A 0.33,0.33 0 0 0 24.42,35.9 l 0.06,-0.1 c 0.1,-0.13 0.1,-0.13 -0.05,-0.06 -0.1,0.05 -0.11,0.04 -0.17,0 -0.06,-0.06 -0.06,-0.06 0.01,-0.14 0.09,-0.09 0.08,-0.12 -0.02,-0.05 -0.1,0.07 -0.15,0.06 -0.28,-0.04 -0.12,-0.1 -0.17,-0.12 -0.15,-0.06 0.02,0.08 -0.07,0.05 -0.24,-0.1 -0.2,-0.17 -0.25,-0.2 -0.25,-0.14 0,0.02 -0.05,0.05 -0.1,0.08 -0.11,0.04 -0.1,0.04 -0.26,-0.1 a 0.77,0.77 0 0 1 -0.15,-0.14 l 0.13,-0.12 c 0.15,-0.13 0.09,-0.15 -0.12,-0.03 -0.07,0.04 -0.15,0.07 -0.19,0.06 -0.04,0 -0.06,0 -0.06,0.03 0,0.1 -0.14,0.02 -0.38,-0.21 l -0.16,-0.15 0.1,-0.1 c 0.08,-0.1 0.06,-0.09 -0.07,-0.03 -0.08,0.05 -0.1,0.05 -0.18,0 -0.09,-0.04 -0.09,-0.04 -0.06,0.02 0.07,0.13 -0.06,0.17 -0.15,0.05 a 0.48,0.48 0 0 0 -0.12,-0.1 c -0.05,-0.04 -0.06,-0.04 -0.04,0.01 a 0.09,0.09 0 0 1 -0.13,0.1 2.29,2.29 0 0 0 -0.2,-0.1 l -0.17,-0.08 0.07,-0.09 c 0.07,-0.1 0.06,-0.1 -0.07,-0.04 -0.08,0.04 -0.09,0.04 -0.1,0 -0.02,-0.04 0.02,-0.1 0.1,-0.19 0.17,-0.15 0.14,-0.17 -0.06,-0.02 -0.14,0.1 -0.14,0.1 -0.22,0.05 -0.06,-0.04 -0.07,-0.06 -0.06,-0.12 0.02,-0.06 0.01,-0.07 -0.04,-0.04 a 0.22,0.22 0 0 0 -0.08,0.06 c -0.03,0.04 -0.13,0.04 -0.13,0 0,-0.03 0.05,-0.1 0.12,-0.17 0.16,-0.15 0.12,-0.17 -0.07,-0.02 -0.09,0.07 -0.16,0.1 -0.2,0.1 -0.04,-0.01 -0.05,0 -0.04,0.04 0.02,0.07 -0.05,0.06 -0.09,-0.01 -0.02,-0.04 0,-0.08 0.05,-0.16 0.05,-0.06 0.08,-0.1 0.06,-0.1 -0.07,0 -0.07,-0.01 -0.02,-0.09 0.04,-0.07 0.02,-0.05 -0.14,0.07 l -0.2,0.17 c -0.02,0.04 -0.1,0.02 -0.1,-0.02 0,-0.02 0.04,-0.08 0.1,-0.13 0.1,-0.14 0.09,-0.16 -0.06,-0.05 -0.08,0.06 -0.11,0.07 -0.14,0.05 -0.02,-0.03 -0.01,-0.07 0.04,-0.16 0.07,-0.13 0.05,-0.16 -0.05,-0.05 a 0.54,0.54 0 0 1 -0.11,0.09 c -0.05,0.03 -0.06,0.02 -0.04,-0.07 0.02,-0.08 0.1,-0.19 0.37,-0.45 0.36,-0.36 0.4,-0.44 0.14,-0.24 -0.2,0.15 -0.3,0.22 -0.33,0.2 l 0.02,-0.1 c 0.02,-0.07 0.04,-0.3 0.05,-0.54 l 0.03,-0.44 0.14,-0.08 0.27,-0.13 c 0.19,-0.05 0.16,-0.11 -0.06,-0.13 L 19.9,31.53 C 19.81,31.5 19.8,31.49 19.79,31.27 l -0.02,-0.48 c 0,-0.24 0,-0.25 0.07,-0.29 a 0.18,0.18 0 0 0 0.1,-0.1 c 0,-0.03 0.04,-0.1 0.07,-0.11 0.05,-0.05 0.06,-0.05 0.1,0 0.04,0.07 0.14,0.13 0.21,0.13 0.02,0 0.1,-0.03 0.15,-0.07 a 0.85,0.85 0 0 1 0.15,-0.09 c 0.02,0 0.02,-0.02 0.01,-0.03 0,-0.02 -0.13,0 -0.24,0.06 -0.12,0.04 -0.18,-0.3 -0.1,-0.54 a 0.6,0.6 0 0 0 0.03,-0.23 c -0.02,-0.14 0.04,-0.2 0.15,-0.15 0.12,0.05 0.13,0.04 0.05,-0.04 -0.08,-0.09 -0.2,-0.1 -0.25,-0.03 -0.07,0.1 -0.22,0.23 -0.36,0.37 0.03,-0.16 0.05,-0.28 0.09,-0.35 0.02,-0.05 0.1,-0.12 0.17,-0.16 0.13,-0.08 0.2,-0.15 0.2,-0.23 0,-0.02 -0.04,0 -0.08,0.05 a 0.37,0.37 0 0 1 -0.1,0.07 c -0.02,0 -0.04,-0.06 -0.06,-0.14 A 0.53,0.53 0 0 0 20.02,28.68 L 19.94,28.61 20,28.31 a 1,1 0 0 0 0,-0.53 l -0.05,-0.25 0.08,-0.2 c 0.1,-0.26 0.19,-0.35 0.57,-0.6 l 0.15,-0.09 c 0.02,0.01 0.05,0.01 0.07,0 l 0.03,-0.05 a 0.49,0.49 0 0 1 0.23,-0.05 c 0.15,0 0.4,-0.06 0.4,-0.1 h -0.27 l -0.27,-0.01 0.03,-0.05 a 6.25,6.25 0 0 1 0.3,-0.55 0.47,0.47 0 0 1 0.2,-0.17 c 0.14,-0.06 0.22,-0.02 0.25,0.12 0.02,0.07 0.02,0.14 0,0.23 a 1.2,1.2 0 0 1 -0.15,0.46 0.36,0.36 0 0 1 -0.13,0.12 c -0.05,0.03 -0.06,0.07 -0.05,0.13 0,0.03 0.01,0.05 0.03,0.06 0.02,0.02 0.04,0.02 0.06,0 l 0.07,-0.01 c 0.07,-0.02 0.14,-0.13 0.22,-0.32 0.05,-0.12 0.09,-0.24 0.1,-0.37 0.05,-0.3 0,-0.5 -0.16,-0.63 a 0.13,0.13 0 0 0 -0.13,-0.02 0.86,0.86 0 0 1 -0.13,0.02 c -0.09,0 -0.18,0.07 -0.27,0.2 -0.12,0.2 -0.25,0.41 -0.36,0.66 v -0.2 a 1.7,1.7 0 0 0 -0.01,-0.6 C 20.78,25.45 20.74,25.43 20.7,25.46 l -0.04,0.03 -0.02,0.08 c 0,0.04 0.02,0.07 0.04,0.09 a 22.55,22.55 0 0 0 -0.02,0.55 c 0,0.1 0.02,0.16 0.03,0.24 a 2.4,2.4 0 0 0 -0.3,0.13 l -0.36,0.17 c 0,0 -0.02,-0.04 -0.02,-0.1 0,-0.14 -0.05,-0.28 -0.13,-0.33 -0.07,-0.04 -0.08,-0.06 -0.1,-0.73 a 2.88,2.88 0 0 0 -0.07,-0.87 l -0.06,-0.2 c 0,-0.04 0.13,0 0.19,0.05 0.09,0.07 0.17,0.07 0.3,0 0.06,-0.03 0.13,-0.03 0.27,-0.02 0.24,0.03 0.29,-0.02 0.08,-0.07 -0.2,-0.04 -0.29,-0.04 -0.39,0.01 l -0.09,0.04 -0.03,-0.14 a 0.73,0.73 0 0 0 -0.13,-0.23 c -0.08,-0.1 -0.1,-0.14 -0.11,-0.35 a 6.4,6.4 0 0 0 -0.15,-0.96 c -0.03,-0.06 -0.03,-0.1 0.03,-0.2 a 0.84,0.84 0 0 0 0.06,-0.27 c 0,-0.18 -0.09,-0.47 -0.17,-0.53 -0.4,-0.29 -0.4,-0.3 -0.2,-0.6 0.18,-0.26 0.27,-0.46 0.32,-0.72 a 0.73,0.73 0 0 1 0.1,-0.26 l 0.17,-0.09 c 0.1,-0.03 0.16,-0.08 0.2,-0.15 l 0.06,-0.1 0.05,0.1 c 0.04,0.07 0.1,0.1 0.25,0.16 0.25,0.09 0.28,0.07 0.06,-0.04 a 0.51,0.51 0 0 1 -0.23,-0.2 0.35,0.35 0 0 0 -0.1,-0.14 0.55,0.55 0 0 1 -0.15,-0.11 c -0.06,-0.06 -0.2,-0.13 -0.32,-0.18 l -0.29,-0.1 c -0.1,-0.05 -0.15,-0.15 -0.23,-0.5 -0.05,-0.2 -0.08,-0.29 -0.16,-0.37 l -0.1,-0.1 0.11,0.1 c 0.06,0.05 0.12,0.1 0.14,0.1 a 5.99,5.99 0 0 0 0.78,-0.35 c 0,0.02 0.03,0.02 0.13,0 a 16.9,16.9 0 0 1 3.61,-0.4 c 0.06,0.02 0.08,0.02 0.1,0 l 0.11,-0.04 c 0.07,0 0.07,0 0.03,0.07 -0.16,0.22 -0.1,0.23 0.13,0.04 0.15,-0.13 0.24,-0.17 0.24,-0.11 a 1,1 0 0 1 -0.17,0.2 c -0.26,0.3 -0.11,0.23 0.2,-0.07 0.1,-0.1 0.2,-0.16 0.2,-0.15 0,0.01 0,0.04 -0.02,0.06 a 0.12,0.12 0 0 0 -0.03,0.07 c 0,0.07 0.07,0.04 0.16,-0.05 0.05,-0.05 0.12,-0.09 0.16,-0.09 0.06,0 0.07,0 0.04,0.04 -0.03,0.04 -0.04,0.14 0,0.14 l 0.12,-0.09 c 0.15,-0.12 0.27,-0.12 0.16,0 -0.06,0.07 -0.03,0.12 0.04,0.07 l 0.18,-0.1 c 0.13,-0.07 0.17,-0.06 0.96,-0.05 0.46,0.01 1,0.03 1.22,0.05 0.82,0.07 0.74,0.07 0.82,-0.02 0.07,-0.08 0.27,-0.37 0.27,-0.4 a 4.2,4.2 0 0 1 -0.4,-0.04 c -0.14,-0.02 -0.17,0 -0.2,0.03 -0.02,0.05 -0.03,0.04 -0.07,-0.05 a 3.27,3.27 0 0 1 -0.28,-0.86 c 0,-0.07 0.01,-0.11 0.03,-0.1 l 0.05,-0.05 c 0.02,-0.05 0.01,-0.08 -0.05,-0.17 A 0.63,0.63 0 0 1 27.64,16.11 H 28 L 28.05,16 c 0.07,-0.14 0.13,-0.16 0.43,-0.13 z m -4.96,0.28 c 0.03,0 0.06,0.02 0.06,0.04 l -0.06,0.12 c -0.07,0.1 -0.03,0.11 0.1,0.02 l 0.11,-0.06 0.1,0.06 c 0.1,0.08 0.11,0.08 0.09,0 -0.02,-0.07 0.04,-0.1 0.1,-0.05 0.04,0.04 0.03,0.06 -0.07,0.2 -0.12,0.18 -0.08,0.2 0.1,0.05 0.08,-0.07 0.15,-0.1 0.18,-0.1 0.04,0.02 0.03,0.05 -0.05,0.15 -0.17,0.23 -0.25,0.35 -0.23,0.38 a 2,2 0 0 0 0.43,-0.42 l 0.12,-0.15 0.07,0.06 c 0.1,0.08 0.15,0.08 0.15,0 0,-0.07 0.08,-0.12 0.16,-0.08 0.04,0.03 0.05,0.02 0.03,-0.04 l 0.01,-0.1 c 0.05,-0.03 0.27,0.14 0.3,0.22 0,0.03 0.02,0.06 0.03,0.06 0.04,0 0.12,-0.07 0.2,-0.18 0.08,-0.12 0.17,-0.15 0.17,-0.08 a 0.8,0.8 0 0 1 -0.12,0.21 c -0.14,0.2 -0.14,0.2 -0.07,0.2 0.03,0 0.1,-0.06 0.17,-0.15 0.13,-0.15 0.16,-0.17 0.18,-0.1 0.01,0.02 -0.06,0.14 -0.18,0.29 -0.2,0.25 -0.3,0.4 -0.26,0.4 0.04,0 0.1,-0.05 0.34,-0.32 0.22,-0.25 0.28,-0.3 0.28,-0.2 -0.01,0.09 0.06,0.06 0.22,-0.08 0.11,-0.1 0.17,-0.14 0.21,-0.13 0.05,0 0.06,0 0.05,-0.07 0,-0.07 0.01,-0.1 0.04,-0.1 0.03,0 0.05,0.03 0.05,0.08 0,0.08 0,0.08 0.07,0.07 0.05,-0.01 0.1,-0.04 0.13,-0.07 0.05,-0.04 0.06,-0.04 0.13,0.02 l 0.07,0.08 -0.15,0.16 c -0.18,0.17 -0.14,0.2 0.08,0.08 0.11,-0.06 0.13,-0.07 0.16,-0.03 0.03,0.04 -0.01,0.1 -0.23,0.32 -0.24,0.25 -0.46,0.52 -0.46,0.58 0,0.01 0.2,-0.16 0.4,-0.37 0.28,-0.27 0.42,-0.4 0.45,-0.38 0.08,0.03 0.06,0.06 -0.12,0.25 -0.18,0.2 -0.17,0.23 0.04,0.08 0.3,-0.2 0.31,-0.2 0.13,0 -0.14,0.16 -0.11,0.23 0.04,0.08 0.06,-0.06 0.1,-0.07 0.12,-0.04 0.02,0.02 0,0.06 -0.1,0.18 -0.2,0.18 -0.2,0.24 -0.01,0.14 l 0.13,-0.07 0.14,0.17 c 0.1,0.13 0.12,0.17 0.08,0.18 -0.02,0 -0.4,0 -0.85,-0.03 A 26.9,26.9 0 0 0 20.93,18 c -0.69,0.12 -0.8,0.15 -0.88,0.22 -0.05,0.04 -0.05,0.04 -0.02,0 0.03,-0.04 -0.06,-0.03 -0.43,0.06 -0.51,0.13 -0.52,0.13 -0.52,0.1 a 1,1 0 0 1 0.24,-0.14 c 0.19,-0.08 0.24,-0.12 0.24,-0.17 0,-0.09 -0.07,-0.1 -0.29,-0.06 -0.32,0.06 -0.5,-0.04 -0.57,-0.35 -0.05,-0.22 -0.05,-0.2 0.02,-0.23 0.05,0 0.06,-0.04 0.05,-0.13 0,-0.2 0.17,-0.38 0.21,-0.22 0.01,0.04 0.05,0.06 0.13,0.07 0.1,0 0.12,0 0.1,-0.07 -0.02,-0.11 0.01,-0.11 0.25,0.03 0.3,0.17 0.34,0.19 0.34,0.15 a 0.58,0.58 0 0 0 -0.15,-0.12 c -0.15,-0.1 -0.17,-0.14 -0.12,-0.2 0.04,-0.04 0.04,-0.04 0.5,0.27 0.15,0.11 0.3,0.2 0.3,0.19 0.01,0 -0.02,-0.05 -0.06,-0.08 a 10.62,10.62 0 0 1 -0.5,-0.4 c -0.1,-0.06 -0.12,-0.14 -0.05,-0.14 l 0.2,0.11 0.18,0.1 0.16,-0.15 c 0.16,-0.15 0.17,-0.15 0.23,-0.1 0.07,0.04 0.08,0.04 0.17,-0.05 0.1,-0.1 0.09,-0.1 0.17,-0.03 l 0.09,0.05 -0.06,-0.1 c -0.04,-0.07 -0.05,-0.1 -0.02,-0.13 0.06,-0.06 0.2,0.03 0.17,0.12 -0.01,0.06 0.03,0.1 0.06,0.03 0.01,-0.02 0.04,-0.02 0.07,-0.01 0.03,0 0.04,0 0.03,-0.03 -0.01,-0.02 0,-0.07 0.02,-0.1 0.04,-0.05 0.06,-0.06 0.11,-0.04 0.05,0.03 0.05,0.05 0.02,0.1 -0.02,0.03 -0.02,0.07 -0.02,0.07 0.02,0.02 0.3,-0.21 0.33,-0.27 0.03,-0.05 0.11,-0.06 0.11,-0.02 l -0.14,0.24 -0.14,0.2 c 0,0 0.1,-0.07 0.2,-0.18 l 0.18,-0.2 0.12,0.08 c 0.11,0.07 0.12,0.07 0.1,0.02 -0.02,-0.05 0,-0.07 0.05,-0.1 0.08,-0.03 0.11,0 0.11,0.07 0,0.08 0.06,0.07 0.17,-0.04 0.08,-0.07 0.1,-0.1 0.14,-0.06 0.02,0.02 0.01,0.06 -0.04,0.14 -0.07,0.12 -0.04,0.12 0.09,0 0.06,-0.05 0.07,-0.05 0.12,0 0.05,0.04 0.05,0.05 0,0.13 -0.05,0.1 -0.05,0.1 0,0.06 0.04,-0.01 0.14,-0.11 0.23,-0.2 0.2,-0.2 0.26,-0.2 0.16,0 -0.06,0.11 -0.06,0.11 0,0.11 0.03,0 0.08,-0.03 0.12,-0.07 0.03,-0.04 0.08,-0.08 0.1,-0.08 0.03,0 0.04,-0.02 0.03,-0.06 -0.01,-0.04 0,-0.06 0.05,-0.08 0.04,0 0.06,-0.03 0.06,-0.08 0,-0.05 0.02,-0.08 0.06,-0.08 z m 10.43,0.93 c 0.02,0 0.06,0.02 0.09,0.05 0.02,0.03 0.05,0.07 0.05,0.1 0,0.04 0,0.03 0.06,-0.02 0.11,-0.1 0.12,-0.08 0.03,0.1 l -0.13,0.32 -0.05,0.14 c -0.02,0 -0.26,-0.3 -0.32,-0.38 -0.03,-0.06 0.07,-0.16 0.16,-0.16 0.04,0 0.06,-0.01 0.05,-0.03 -0.03,-0.05 0,-0.12 0.06,-0.12 z m 13.25,1.56 c 0.2,0 0.39,0.03 0.5,0.08 l 0.14,0.07 -0.21,0.02 -0.57,0.02 c -0.33,0 -0.83,0.04 -1.08,0.08 -0.08,0.01 -0.08,0 0.03,-0.04 a 0.8,0.8 0 0 1 0.23,-0.08 l 0.37,-0.1 c 0.18,-0.04 0.4,-0.06 0.59,-0.05 z m -1.48,0.05 c 0.04,0 0.04,0 -0.04,0.05 l -0.38,0.23 a 12.57,12.57 0 0 0 -3,2.48 c -0.55,0.6 -0.7,0.8 -1.03,1.29 -0.25,0.36 -0.29,0.4 -0.34,0.35 -0.02,-0.02 0,-0.1 0.1,-0.26 0.3,-0.56 0.76,-1.13 1.66,-2.04 a 8.4,8.4 0 0 1 3.03,-2.1 z M 33.9,20.38 c -0.02,-0.01 -0.05,0 -0.08,0.03 l -0.07,0.22 a 5.14,5.14 0 0 1 -0.25,0.71 c -0.06,-0.07 -0.1,-0.11 -0.13,-0.11 -0.01,0 -0.03,0 -0.04,0.02 a 0.61,0.61 0 0 1 -0.06,0.04 0.13,0.13 0 0 0 -0.06,0.06 c -0.12,0.2 -0.2,0.38 -0.25,0.53 -0.08,0.25 -0.09,0.44 -0.02,0.58 0.03,0.05 0.07,0.05 0.1,0.02 0.16,-0.12 0.32,-0.38 0.49,-0.78 l -0.02,0.28 c 0,0.13 0.02,0.23 0.08,0.31 0.02,0.05 0.05,0.08 0.09,0.1 0.04,0.02 0.07,0.03 0.11,0.03 0.04,0 0.08,-0.02 0.11,-0.03 L 34,22.35 a 0.11,0.11 0 0 0 0.05,-0.13 0.1,0.1 0 0 0 -0.03,-0.05 C 34,22.15 33.98,22.15 33.96,22.15 a 0.32,0.32 0 0 0 -0.08,0.03 0.47,0.47 0 0 1 -0.1,0.02 c -0.04,0 -0.07,-0.02 -0.09,-0.07 a 0.51,0.51 0 0 1 -0.03,-0.17 3.36,3.36 0 0 1 0.26,-1.19 c 0.03,-0.09 0.04,-0.19 0.04,-0.3 -0.01,-0.06 -0.03,-0.09 -0.06,-0.1 z m -4.73,0.09 c -0.06,0 -0.08,0.04 -0.08,0.1 l 0.01,0.07 c 0.01,0.03 0.03,0.04 0.06,0.04 h 0.02 c 0.04,-0.01 0.07,-0.05 0.07,-0.1 0,-0.05 -0.02,-0.1 -0.07,-0.11 z m 12.41,0.04 -0.04,0.26 c -0.15,0.66 -0.22,1 -0.23,1.16 -0.03,0.26 -0.1,0.25 -0.12,-0.02 -0.03,-0.35 0.06,-0.82 0.21,-1.13 z m -20.22,0.16 -0.31,0.04 h -0.02 c -0.05,0 -0.08,0.04 -0.08,0.1 0,0.02 0,0.05 0.02,0.07 0.01,0.02 0.03,0.04 0.06,0.04 h 0.08 v 0.34 c 0.02,0.45 0,0.8 -0.06,1.05 a 0.23,0.23 0 0 0 -0.12,0.07 c -0.03,0.03 -0.04,0.07 -0.02,0.12 0.02,0.05 0.05,0.06 0.1,0.05 0,0.04 0.02,0.07 0.05,0.08 0.03,0.01 0.06,0 0.08,-0.05 a 0.45,0.45 0 0 0 0.02,-0.06 5.07,5.07 0 0 0 0.24,-0.03 c 0.04,-0.02 0.07,-0.05 0.07,-0.1 0,-0.06 -0.03,-0.1 -0.07,-0.12 h -0.08 a 0.6,0.6 0 0 0 -0.1,0.01 4.67,4.67 0 0 0 0.05,-1.05 v -0.34 h 0.04 c 0.08,0 0.12,-0.04 0.12,-0.11 0,-0.05 -0.02,-0.09 -0.07,-0.11 z m 19.84,0.1 c 0.03,0 0.02,0.05 -0.02,0.14 -0.03,0.07 -0.08,0.26 -0.1,0.4 -0.04,0.18 -0.08,0.28 -0.1,0.28 -0.02,0 -0.04,0 -0.04,0.03 0,0 -0.01,0.03 -0.03,0.03 l -0.04,-0.1 c 0,-0.16 -0.04,0.28 -0.05,0.57 0,0.15 -0.01,0.28 -0.03,0.28 -0.03,0 -0.06,-0.18 -0.06,-0.35 0,-0.1 -0.01,-0.13 -0.04,-0.12 -0.02,0 -0.03,0.1 -0.04,0.28 0,0.38 0,0.4 -0.04,0.34 a 1.02,1.02 0 0 1 -0.03,-0.3 c 0,-0.13 -0.01,-0.25 -0.03,-0.26 -0.05,-0.03 -0.04,-0.13 0.05,-0.38 0.08,-0.24 0.16,-0.37 0.41,-0.66 0.1,-0.1 0.16,-0.16 0.19,-0.17 z m -15.06,0.16 c -0.13,-0.05 -0.27,0.01 -0.4,0.18 l -0.02,0.03 c -0.06,0.07 -0.12,0.18 -0.18,0.34 l -0.07,0.2 -0.05,0.2 a 0.45,0.45 0 0 0 0.05,0.34 c 0.06,0.11 0.13,0.16 0.22,0.14 a 0.92,0.92 0 0 0 0.37,-0.14 c 0.14,-0.08 0.23,-0.2 0.3,-0.35 0.08,-0.22 0.1,-0.42 0.04,-0.61 a 0.53,0.53 0 0 0 -0.1,-0.21 0.35,0.35 0 0 0 -0.16,-0.12 z m 5.3,0.12 a 0.27,0.27 0 0 0 -0.13,0.03 0.81,0.81 0 0 0 -0.25,0.2 c -0.09,0.1 -0.16,0.22 -0.22,0.34 -0.07,0.13 -0.11,0.25 -0.13,0.36 a 0.5,0.5 0 0 0 0.04,0.3 c 0.04,0.1 0.13,0.15 0.26,0.16 0.2,0.03 0.47,-0.02 0.78,-0.14 a 0.11,0.11 0 0 0 0.05,-0.13 c -0.02,-0.06 -0.05,-0.08 -0.1,-0.07 -0.13,0.06 -0.27,0.1 -0.44,0.13 -0.22,0.04 -0.36,0.02 -0.43,-0.06 -0.07,-0.08 -0.03,-0.23 0.1,-0.45 0.18,-0.03 0.3,-0.07 0.39,-0.13 0.06,-0.04 0.1,-0.09 0.15,-0.15 a 0.38,0.38 0 0 0 0.07,-0.2 c 0,-0.08 -0.01,-0.13 -0.04,-0.16 a 0.18,0.18 0 0 0 -0.1,-0.03 z m 3.43,0 a 0.27,0.27 0 0 0 -0.13,0.03 0.81,0.81 0 0 0 -0.25,0.2 c -0.08,0.1 -0.16,0.22 -0.22,0.34 -0.07,0.13 -0.1,0.25 -0.13,0.36 a 0.5,0.5 0 0 0 0.04,0.3 c 0.04,0.1 0.13,0.15 0.26,0.16 0.21,0.03 0.47,-0.02 0.78,-0.14 a 0.11,0.11 0 0 0 0.05,-0.13 c -0.02,-0.06 -0.05,-0.08 -0.1,-0.07 -0.13,0.06 -0.27,0.1 -0.43,0.13 -0.23,0.04 -0.37,0.02 -0.44,-0.06 -0.06,-0.08 -0.03,-0.23 0.11,-0.45 0.17,-0.03 0.3,-0.07 0.38,-0.13 0.06,-0.04 0.1,-0.09 0.15,-0.15 a 0.38,0.38 0 0 0 0.07,-0.2 c 0,-0.08 0,-0.13 -0.04,-0.16 a 0.18,0.18 0 0 0 -0.1,-0.03 z m -6.62,0 c -0.1,-0.01 -0.23,0.08 -0.41,0.28 a 2.41,2.41 0 0 0 -0.37,0.54 l -0.02,0.06 V 21.5 c 0,-0.14 -0.02,-0.24 -0.07,-0.29 -0.03,-0.02 -0.05,-0.02 -0.09,-0.01 -0.03,0.01 -0.07,0.05 -0.12,0.12 a 0.9,0.9 0 0 0 -0.13,0.26 l -0.08,0.33 a 5.06,5.06 0 0 0 -0.09,-0.63 c -0.07,-0.17 -0.2,-0.2 -0.36,-0.09 -0.04,0.05 -0.05,0.1 -0.03,0.14 0,0.02 0.02,0.04 0.03,0.05 l 0.05,0.01 0.07,-0.05 c 0.03,-0.02 0.06,-0.03 0.08,-0.01 0.05,0.04 0.09,0.23 0.1,0.56 a 21.25,21.25 0 0 1 0.04,0.65 c 0.02,0.07 0.06,0.1 0.12,0.05 a 0.85,0.85 0 0 0 0.09,-0.26 10.14,10.14 0 0 0 0.11,-0.6 c 0.03,-0.11 0.07,-0.2 0.13,-0.28 l -0.01,0.44 v 0.45 c 0,0.05 0.02,0.08 0.04,0.1 l 0.09,-0.01 a 0.7,0.7 0 0 0 0.12,-0.23 l 0.06,-0.19 a 1.46,1.46 0 0 1 0.49,-0.66 c 0.2,-0.15 0.3,-0.1 0.33,0.13 0.02,0.14 0.01,0.29 -0.04,0.44 -0.06,0.16 -0.15,0.27 -0.25,0.3 -0.05,0.03 -0.06,0.08 -0.05,0.14 0.01,0.06 0.04,0.08 0.1,0.07 0.14,-0.04 0.25,-0.17 0.33,-0.4 0.04,-0.1 0.06,-0.2 0.07,-0.3 0.02,-0.11 0.01,-0.21 0,-0.3 a 0.57,0.57 0 0 0 -0.1,-0.25 0.33,0.33 0 0 0 -0.23,-0.13 z m -2.21,0.08 c 0.06,-0.02 0.12,0 0.17,0.07 0.04,0.06 0.07,0.15 0.07,0.27 0,0.12 -0.02,0.22 -0.06,0.3 a 0.74,0.74 0 0 1 -0.34,0.33 0.33,0.33 0 0 1 -0.16,0.04 0.17,0.17 0 0 1 -0.08,-0.02 0.19,0.19 0 0 0 -0.04,-0.03 0.39,0.39 0 0 0 -0.02,-0.08 v -0.08 c 0.01,-0.14 0.05,-0.29 0.12,-0.44 0.08,-0.17 0.17,-0.26 0.27,-0.28 0.03,-0.01 0.06,-0.04 0.07,-0.08 z m -3.57,0.04 a 0.84,0.84 0 0 1 -0.13,0.02 c -0.08,0 -0.17,0.07 -0.26,0.2 -0.13,0.2 -0.25,0.41 -0.37,0.66 v -0.2 c 0.03,-0.28 0.03,-0.49 -0.01,-0.6 -0.03,-0.06 -0.07,-0.07 -0.1,-0.04 l -0.04,0.02 c -0.02,0.02 -0.03,0.05 -0.02,0.09 0,0.04 0.01,0.06 0.04,0.08 a 22,22 0 0 0 -0.02,0.55 c 0,0.16 0.01,0.3 0.04,0.4 0.04,0.05 0.07,0.06 0.12,0.02 l 0.14,-0.25 a 6.34,6.34 0 0 1 0.3,-0.55 0.46,0.46 0 0 1 0.2,-0.17 c 0.14,-0.06 0.22,-0.02 0.26,0.13 a 0.7,0.7 0 0 1 0,0.22 1.21,1.21 0 0 1 -0.16,0.46 0.36,0.36 0 0 1 -0.13,0.13 c -0.04,0.02 -0.06,0.06 -0.05,0.12 0,0.03 0.02,0.05 0.03,0.06 0.02,0.02 0.04,0.02 0.07,0 l 0.07,-0.01 c 0.06,-0.02 0.13,-0.13 0.22,-0.32 0.05,-0.12 0.08,-0.24 0.1,-0.37 0.04,-0.3 -0.02,-0.5 -0.17,-0.63 a 0.13,0.13 0 0 0 -0.13,-0.02 z m 2.46,0 a 0.84,0.84 0 0 1 -0.13,0.02 c -0.09,0 -0.18,0.07 -0.27,0.2 -0.13,0.2 -0.25,0.41 -0.36,0.66 v -0.2 c 0.03,-0.28 0.02,-0.49 -0.02,-0.6 -0.03,-0.06 -0.06,-0.07 -0.1,-0.04 l -0.04,0.02 c -0.02,0.02 -0.02,0.05 -0.02,0.09 0,0.04 0.02,0.06 0.04,0.08 a 22,22 0 0 0 -0.02,0.55 c 0,0.16 0.01,0.3 0.05,0.4 0.03,0.05 0.07,0.06 0.11,0.02 l 0.15,-0.25 a 6.33,6.33 0 0 1 0.29,-0.55 0.46,0.46 0 0 1 0.2,-0.17 c 0.14,-0.06 0.23,-0.02 0.26,0.13 a 0.7,0.7 0 0 1 0,0.22 1.21,1.21 0 0 1 -0.16,0.46 0.36,0.36 0 0 1 -0.12,0.13 c -0.05,0.02 -0.07,0.06 -0.05,0.12 0,0.03 0.01,0.05 0.03,0.06 0.02,0.02 0.04,0.02 0.06,0 l 0.07,-0.01 c 0.06,-0.02 0.14,-0.13 0.22,-0.32 0.05,-0.12 0.08,-0.24 0.1,-0.37 0.04,-0.3 -0.01,-0.5 -0.17,-0.63 a 0.13,0.13 0 0 0 -0.12,-0.02 z m 4.14,0 c -0.03,-0.02 -0.07,0 -0.09,0.06 -0.03,0.11 -0.05,0.23 -0.06,0.35 l -0.05,0.36 -0.04,0.22 -0.04,0.21 c -0.02,0.08 0,0.12 0.04,0.14 0.05,0.02 0.08,0 0.1,-0.07 l 0.1,-0.57 0.1,-0.58 c 0,-0.06 -0.01,-0.1 -0.06,-0.12 z m 1.16,0 a 0.86,0.86 0 0 1 -0.13,0.02 c -0.09,0 -0.18,0.07 -0.27,0.2 -0.12,0.2 -0.24,0.41 -0.36,0.66 v -0.2 c 0.03,-0.28 0.03,-0.49 -0.01,-0.6 -0.03,-0.06 -0.07,-0.07 -0.11,-0.04 l -0.04,0.02 c -0.02,0.02 -0.02,0.05 -0.02,0.09 0,0.04 0.02,0.06 0.04,0.08 a 22,22 0 0 0 -0.02,0.55 c 0,0.16 0.02,0.3 0.05,0.4 0.03,0.05 0.07,0.06 0.11,0.02 0.06,-0.07 0.1,-0.16 0.15,-0.25 a 6.33,6.33 0 0 1 0.29,-0.55 0.46,0.46 0 0 1 0.2,-0.17 c 0.15,-0.06 0.23,-0.02 0.26,0.13 a 0.7,0.7 0 0 1 0,0.22 1.2,1.2 0 0 1 -0.15,0.46 0.36,0.36 0 0 1 -0.13,0.13 c -0.05,0.02 -0.06,0.06 -0.05,0.12 0,0.03 0.02,0.05 0.03,0.06 0.02,0.02 0.04,0.02 0.06,0 l 0.07,-0.01 c 0.07,-0.02 0.14,-0.13 0.22,-0.32 0.05,-0.12 0.09,-0.24 0.1,-0.37 0.05,-0.3 0,-0.5 -0.16,-0.63 a 0.13,0.13 0 0 0 -0.13,-0.02 z m 5.31,0 c -0.04,-0.02 -0.07,0 -0.1,0.06 l -0.05,0.35 -0.05,0.36 -0.04,0.22 -0.04,0.21 c -0.02,0.08 0,0.12 0.04,0.14 0.05,0.02 0.08,0 0.1,-0.07 l 0.1,-0.57 c 0.02,-0.2 0.06,-0.39 0.1,-0.58 0,-0.06 -0.02,-0.1 -0.06,-0.12 z m -4.14,0.1 a 0.45,0.45 0 0 1 -0.23,0.2 c 0.1,-0.12 0.19,-0.19 0.23,-0.2 z m 3.43,0 a 0.45,0.45 0 0 1 -0.23,0.2 c 0.11,-0.12 0.19,-0.19 0.23,-0.2 z m -1.46,0.2 0.03,0.03 0.02,0.01 -0.02,0.04 -0.05,0.14 c -0.14,0.3 -0.23,0.49 -0.3,0.54 l 0.04,-0.2 c 0.07,-0.28 0.16,-0.46 0.28,-0.56 z m 6.91,0.36 c 0.02,0 0.02,0.1 0,0.22 -0.01,0.28 0.05,0.31 0.08,0.03 0.02,-0.24 0.07,-0.25 0.07,-0.01 0,0.1 0.02,0.29 0.05,0.42 0.03,0.16 0.04,0.3 0.03,0.4 -0.03,0.22 -0.07,0.18 -0.12,-0.1 l -0.05,-0.23 0.02,0.32 c 0,0.17 0.03,0.36 0.05,0.4 0.03,0.1 0.02,0.11 -0.06,0.23 a 0.6,0.6 0 0 1 -0.12,0.14 c -0.03,0 -0.16,-0.34 -0.16,-0.44 0,-0.04 0,-0.07 -0.03,-0.08 -0.07,-0.04 -0.02,0.33 0.08,0.56 l -0.01,0.05 c -0.05,0 -0.25,-0.4 -0.28,-0.58 a 5.76,5.76 0 0 1 -0.04,-0.45 c -0.02,-0.28 -0.02,-0.3 0.05,-0.4 0.07,-0.1 0.07,-0.12 0.12,-0.07 0.02,0.03 0.02,0.04 0,0.03 -0.03,-0.02 -0.04,0.01 -0.04,0.14 0,0.09 0.02,0.17 0.03,0.18 0.02,0.01 0.03,-0.01 0.03,-0.06 l 0.03,-0.2 a 2,2 0 0 1 0.27,-0.5 z m -1.17,0.94 c 0,0 0,0.12 -0.03,0.24 -0.03,0.23 -0.02,0.42 0.04,0.87 0.04,0.3 0.1,0.47 0.28,0.76 l 0.14,0.22 -0.1,0.21 c -0.15,0.32 -0.14,0.32 -0.26,0.14 -0.3,-0.5 -0.51,-1.1 -0.51,-1.47 0,-0.26 0.1,-0.52 0.28,-0.8 0.08,-0.1 0.15,-0.18 0.16,-0.17 z m 4.58,0.77 a 5.77,5.77 0 0 0 -0.32,0.4 c -0.2,0.26 -0.8,0.8 -1.07,0.98 -0.06,0.04 -0.36,0.17 -0.65,0.3 a 7.3,7.3 0 0 0 -0.62,0.25 c -0.17,0.08 -0.13,0.02 0.04,-0.08 l 0.27,-0.18 c 0.05,-0.05 0.2,-0.12 0.31,-0.17 l 0.24,-0.1 c 0.02,-0.04 -0.03,-0.03 -0.18,0.03 -0.16,0.07 -1.07,0.34 -1.1,0.32 l 0.15,-0.1 c 0.08,-0.04 0.14,-0.08 0.14,-0.1 0,0 -0.16,0.07 -0.33,0.17 l -0.32,0.15 a 4.66,4.66 0 0 1 1.8,-0.82 5.33,5.33 0 0 0 -1.47,0.4 c 0,-0.02 0,-0.03 0.02,-0.04 l 0.28,-0.17 c 0.13,-0.1 0.27,-0.17 0.31,-0.19 0.03,0 0.1,-0.04 0.14,-0.08 0.05,-0.05 0.17,-0.1 0.37,-0.14 0.17,-0.04 0.28,-0.08 0.24,-0.08 -0.1,-0.02 -0.67,0.11 -1.03,0.23 a 1.7,1.7 0 0 1 -0.35,0.11 l 0.22,-0.13 c 0.26,-0.14 0.55,-0.22 0.87,-0.28 0.14,-0.02 0.21,-0.04 0.2,-0.06 -0.01,-0.02 0,-0.03 0.02,-0.01 0.09,0.06 0.33,0 0.84,-0.18 0.67,-0.25 0.65,-0.24 0.8,-0.34 0.1,-0.07 0.16,-0.1 0.18,-0.1 z m -1.03,0.24 c 0.07,0 0.08,0 0.08,0.02 0,0.05 -0.33,0.15 -0.7,0.22 a 0.9,0.9 0 0 0 -0.22,0.05 2.6,2.6 0 0 1 -0.78,-0.02 c -0.14,-0.04 -0.17,-0.1 -0.06,-0.1 0.04,0 0.09,-0.01 0.1,-0.03 0.04,-0.03 0.04,-0.03 0.03,0 -0.03,0.04 0.01,0.04 0.22,0.02 0.14,-0.01 0.32,-0.02 0.4,-0.01 0.08,0 0.28,-0.03 0.46,-0.06 l 0.47,-0.1 z m -17.94,0.65 h -0.05 l -0.04,0.05 a 2.45,2.45 0 0 0 -0.02,0.17 l -0.07,0.37 a 3.6,3.6 0 0 0 -0.07,0.4 l -0.25,0.1 c -0.04,0.03 -0.05,0.07 -0.04,0.13 0.01,0.06 0.04,0.08 0.1,0.07 l 0.16,-0.07 c -0.02,0.2 -0.05,0.39 -0.09,0.57 -0.03,0.18 -0.07,0.36 -0.14,0.55 0,0.06 0,0.1 0.04,0.13 0.04,0.03 0.07,0.01 0.1,-0.04 0.07,-0.2 0.12,-0.41 0.16,-0.62 l 0.1,-0.64 0.27,-0.07 c 0.04,-0.01 0.06,-0.03 0.07,-0.06 a 0.13,0.13 0 0 0 0.02,-0.07 0.11,0.11 0 0 0 -0.03,-0.07 0.07,0.07 0 0 0 -0.06,-0.02 l -0.25,0.07 0.02,-0.07 a 18.8,18.8 0 0 1 0.13,-0.75 v -0.02 c 0,-0.06 -0.02,-0.1 -0.06,-0.11 z m 6.32,0 h -0.05 l -0.04,0.05 a 2.45,2.45 0 0 0 -0.02,0.17 l -0.07,0.37 c -0.04,0.14 -0.06,0.28 -0.07,0.4 l -0.25,0.1 c -0.04,0.03 -0.06,0.07 -0.05,0.13 0.02,0.06 0.05,0.08 0.1,0.07 l 0.17,-0.07 -0.09,0.57 c 0,0.05 -0.03,0.1 -0.04,0.16 a 0.78,0.78 0 0 1 -0.34,0.05 c -0.06,-0.02 -0.1,-0.06 -0.1,-0.13 a 0.7,0.7 0 0 1 0.01,-0.26 l 0.09,-0.36 c 0,-0.04 0,-0.07 -0.02,-0.1 -0.02,-0.02 -0.04,-0.03 -0.07,-0.02 a 0.1,0.1 0 0 0 -0.06,0.03 l -0.05,0.05 c 0.02,-0.08 0,-0.14 -0.04,-0.18 a 0.1,0.1 0 0 0 -0.08,-0.02 c -0.03,0 -0.07,0.03 -0.14,0.09 a 3.58,3.58 0 0 0 -0.37,0.45 l -0.07,0.16 a 0.62,0.62 0 0 0 -0.03,0.19 c 0,0.06 0,0.11 0.04,0.15 0.03,0.03 0.06,0.05 0.1,0.06 0.05,0 0.1,0 0.14,-0.03 a 0.23,0.23 0 0 0 0.1,-0.05 L 29.8,26.37 A 4.94,4.94 0 0 0 30.06,26 0.96,0.96 0 0 0 30.05,26.45 c 0.02,0.06 0.05,0.1 0.1,0.14 0.05,0.04 0.12,0.06 0.2,0.05 0.08,0 0.15,-0.02 0.22,-0.03 l -0.04,0.16 c -0.01,0.06 0,0.1 0.04,0.13 0.03,0.03 0.07,0.01 0.1,-0.04 0.07,-0.2 0.12,-0.41 0.15,-0.62 l 0.1,-0.64 0.27,-0.07 c 0.04,-0.01 0.07,-0.03 0.08,-0.06 A 0.13,0.13 0 0 0 31.29,25.4 0.11,0.11 0 0 0 31.26,25.33 0.07,0.07 0 0 0 31.2,25.31 l -0.25,0.07 0.02,-0.07 0.06,-0.37 c 0.03,-0.13 0.05,-0.25 0.06,-0.38 l 0.01,-0.02 c 0,-0.06 -0.02,-0.1 -0.06,-0.11 z m -4.5,0.3 c -0.05,0 -0.08,0.04 -0.08,0.1 0,0.03 0,0.05 0.02,0.07 0.01,0.02 0.03,0.04 0.06,0.04 h 0.01 c 0.05,-0.01 0.07,-0.05 0.07,-0.1 0,-0.06 -0.02,-0.1 -0.06,-0.11 z m 2.35,0.29 -0.21,0.02 c -0.3,0 -0.5,0.1 -0.6,0.27 a 0.33,0.33 0 0 0 -0.03,0.1 l -0.01,0.08 c 0,0.03 0,0.07 0.03,0.1 0.08,0.08 0.26,0.18 0.55,0.3 0.25,0.11 0.4,0.2 0.43,0.28 -0.06,0.15 -0.2,0.23 -0.44,0.23 a 3.9,3.9 0 0 1 -0.58,-0.06 c -0.02,0 -0.03,0.01 -0.06,0.04 v 0.12 c 0.02,0.04 0.06,0.07 0.14,0.08 a 0.4,0.4 0 0 0 0.1,0.01 1.53,1.53 0 0 0 0.6,-0.01 c 0.23,-0.06 0.36,-0.19 0.4,-0.4 0.01,-0.08 -0.02,-0.16 -0.09,-0.24 a 0.5,0.5 0 0 0 -0.09,-0.08 1.47,1.47 0 0 0 -0.27,-0.13 l -0.27,-0.1 c -0.12,-0.05 -0.21,-0.1 -0.29,-0.17 v -0.01 c 0.11,-0.1 0.22,-0.15 0.33,-0.18 a 0.6,0.6 0 0 1 0.16,-0.02 l 0.2,-0.02 c 0.04,0 0.07,-0.04 0.07,-0.1 a 0.12,0.12 0 0 0 -0.07,-0.11 z m -6.09,0.17 c -0.13,-0.05 -0.26,0.01 -0.4,0.18 l -0.01,0.03 c -0.07,0.07 -0.13,0.18 -0.2,0.34 l -0.05,0.2 -0.06,0.2 a 0.45,0.45 0 0 0 0.05,0.34 c 0.06,0.11 0.14,0.16 0.22,0.14 a 0.91,0.91 0 0 0 0.38,-0.14 c 0.13,-0.09 0.23,-0.2 0.28,-0.35 0.1,-0.22 0.11,-0.42 0.06,-0.61 a 0.52,0.52 0 0 0 -0.1,-0.21 0.35,0.35 0 0 0 -0.17,-0.12 z m -0.1,0.2 c 0.07,-0.02 0.12,0 0.17,0.07 0.05,0.06 0.07,0.15 0.07,0.27 0,0.12 -0.02,0.22 -0.06,0.3 a 0.75,0.75 0 0 1 -0.33,0.33 0.33,0.33 0 0 1 -0.16,0.04 0.17,0.17 0 0 1 -0.08,-0.02 0.18,0.18 0 0 0 -0.05,-0.03 0.39,0.39 0 0 0 -0.02,-0.08 0.2,0.2 0 0 1 0,-0.09 c 0.01,-0.14 0.06,-0.28 0.13,-0.43 0.08,-0.17 0.17,-0.26 0.27,-0.28 0.03,-0.01 0.05,-0.04 0.06,-0.08 z m 2.48,0.03 c -0.02,0 -0.03,0.01 -0.05,0.04 -0.03,0.03 -0.03,0.07 -0.01,0.13 0.04,0.07 0.05,0.27 0.02,0.6 a 25.09,25.09 0 0 1 -0.05,0.76 c 0,0.07 0.03,0.1 0.08,0.11 0.04,-0.01 0.07,-0.04 0.08,-0.08 a 1.56,1.56 0 0 1 0.42,-0.82 c 0.11,-0.12 0.3,-0.25 0.58,-0.39 a 0.11,0.11 0 0 0 0.04,-0.13 c -0.01,-0.05 -0.04,-0.08 -0.09,-0.07 -0.2,0.1 -0.37,0.22 -0.53,0.34 -0.16,0.13 -0.29,0.3 -0.39,0.5 l 0.01,-0.18 v -0.06 l 0.01,-0.14 0.01,-0.27 a 0.57,0.57 0 0 0 -0.07,-0.3 C 25.22,25.43 25.2,25.42 25.18,25.42 Z m 1.27,0 c -0.04,-0.01 -0.07,0.01 -0.1,0.07 l -0.06,0.35 a 8.95,8.95 0 0 1 -0.1,0.58 l -0.03,0.21 c -0.01,0.08 0,0.12 0.05,0.14 0.04,0.02 0.07,0 0.1,-0.07 l 0.1,-0.57 c 0.02,-0.2 0.06,-0.39 0.1,-0.58 0,-0.07 -0.02,-0.1 -0.06,-0.12 z m 7.03,0 a 0.86,0.86 0 0 1 -0.13,0.03 c -0.1,0 -0.18,0.07 -0.27,0.2 -0.13,0.2 -0.25,0.41 -0.36,0.66 v -0.2 a 1.7,1.7 0 0 0 -0.02,-0.6 c -0.03,-0.06 -0.06,-0.08 -0.1,-0.05 l -0.04,0.03 c -0.02,0.02 -0.03,0.05 -0.02,0.08 0,0.04 0.02,0.07 0.04,0.09 a 22.53,22.53 0 0 0 -0.02,0.55 l 0.02,0.18 c -0.09,0.02 -0.18,0.05 -0.23,0.04 a 0.15,0.15 0 0 1 -0.11,-0.13 0.7,0.7 0 0 1 0.02,-0.26 l 0.09,-0.36 c 0,-0.04 0,-0.07 -0.02,-0.1 -0.02,-0.02 -0.04,-0.03 -0.07,-0.02 a 0.1,0.1 0 0 0 -0.06,0.03 l -0.05,0.05 c 0.02,-0.08 0,-0.14 -0.04,-0.18 a 0.1,0.1 0 0 0 -0.07,-0.02 c -0.04,0 -0.08,0.03 -0.15,0.09 a 3.58,3.58 0 0 0 -0.37,0.45 l -0.07,0.16 a 0.62,0.62 0 0 0 -0.03,0.19 c 0,0.06 0,0.11 0.04,0.15 0.03,0.03 0.07,0.05 0.1,0.06 0.05,0 0.1,0 0.14,-0.03 a 0.24,0.24 0 0 0 0.1,-0.05 l 0.06,-0.09 A 5.87,5.87 0 0 0 32.12,26 0.96,0.96 0 0 0 32.11,26.45 c 0.02,0.06 0.05,0.1 0.1,0.14 0.05,0.04 0.12,0.06 0.2,0.05 0.07,0 0.13,-0.02 0.2,-0.03 0.03,0.05 0.07,0.05 0.1,0.02 0.06,-0.07 0.11,-0.16 0.16,-0.25 a 6.25,6.25 0 0 1 0.29,-0.55 0.47,0.47 0 0 1 0.2,-0.17 c 0.14,-0.06 0.23,-0.02 0.26,0.12 v 0.23 a 1.2,1.2 0 0 1 -0.16,0.46 0.36,0.36 0 0 1 -0.13,0.12 c -0.04,0.03 -0.06,0.07 -0.04,0.13 0,0.03 0,0.05 0.02,0.06 0.02,0.02 0.04,0.02 0.07,0 l 0.07,-0.01 c 0.06,-0.02 0.14,-0.13 0.22,-0.32 0.05,-0.12 0.08,-0.24 0.1,-0.37 0.04,-0.3 -0.01,-0.5 -0.17,-0.63 a 0.13,0.13 0 0 0 -0.12,-0.02 z m 1.08,0.02 c -0.03,0 -0.08,0.03 -0.15,0.09 a 3.36,3.36 0 0 0 -0.37,0.45 l -0.07,0.16 a 0.62,0.62 0 0 0 -0.03,0.19 c 0,0.06 0.01,0.11 0.04,0.15 0.03,0.03 0.07,0.05 0.1,0.06 0.05,0 0.1,0 0.14,-0.03 a 0.24,0.24 0 0 0 0.1,-0.05 l 0.06,-0.09 A 4.94,4.94 0 0 0 34.64,26 0.96,0.96 0 0 0 34.63,26.45 c 0.02,0.06 0.05,0.1 0.1,0.14 0.05,0.04 0.11,0.05 0.2,0.05 -0.02,0.01 -0.05,0.02 -0.05,0.05 -0.01,0.05 0,0.1 0.05,0.12 0.14,0.04 0.3,0.04 0.46,-0.01 a 1,1 0 0 0 0.42,-0.24 0.25,0.25 0 0 0 0.03,-0.1 0.5,0.5 0 0 0 -0.2,-0.31 0.64,0.64 0 0 0 -0.16,-0.1 0.65,0.65 0 0 1 -0.15,-0.1 c 0.07,-0.06 0.16,-0.11 0.26,-0.16 0.06,-0.03 0.12,-0.03 0.17,0 0.04,0.02 0.08,0 0.1,-0.08 0,-0.03 0,-0.07 -0.04,-0.11 -0.16,-0.08 -0.36,-0.01 -0.62,0.21 a 0.15,0.15 0 0 0 -0.04,0.12 c 0.01,0.08 0.04,0.14 0.07,0.19 a 0.74,0.74 0 0 0 0.3,0.21 l 0.14,0.1 a 0.45,0.45 0 0 1 -0.15,0.1 c -0.1,0.05 -0.2,0.05 -0.3,0.06 0.03,-0.01 0.06,-0.03 0.07,-0.05 a 0.13,0.13 0 0 0 0.01,-0.08 0.11,0.11 0 0 0 -0.02,-0.06 0.07,0.07 0 0 0 -0.07,-0.02 0.77,0.77 0 0 1 -0.33,0.05 0.15,0.15 0 0 1 -0.12,-0.13 0.7,0.7 0 0 1 0.03,-0.26 l 0.08,-0.36 c 0,-0.04 0,-0.07 -0.02,-0.1 -0.02,-0.02 -0.04,-0.03 -0.07,-0.02 a 0.1,0.1 0 0 0 -0.06,0.03 l -0.05,0.05 c 0.02,-0.08 0,-0.14 -0.03,-0.18 a 0.1,0.1 0 0 0 -0.08,-0.02 z m -10.7,0.13 c -0.14,0 -0.3,0.08 -0.5,0.24 a 0.15,0.15 0 0 0 -0.03,0.12 c 0.01,0.08 0.03,0.14 0.07,0.19 a 0.74,0.74 0 0 0 0.3,0.21 l 0.14,0.1 a 0.92,0.92 0 0 1 -0.71,0.17 c -0.05,0.01 -0.08,0.04 -0.09,0.1 0,0.04 0.01,0.08 0.05,0.11 0.14,0.04 0.3,0.04 0.47,-0.01 a 1,1 0 0 0 0.42,-0.24 0.25,0.25 0 0 0 0.03,-0.1 0.5,0.5 0 0 0 -0.2,-0.31 0.64,0.64 0 0 0 -0.16,-0.1 0.65,0.65 0 0 1 -0.15,-0.1 c 0.07,-0.06 0.15,-0.11 0.26,-0.16 0.06,-0.03 0.12,-0.03 0.17,0 0.04,0.02 0.07,0 0.1,-0.08 0,-0.03 0,-0.07 -0.04,-0.11 a 0.3,0.3 0 0 0 -0.13,-0.03 z m 6,0.2 c 0.01,0.03 0.03,0.04 0.06,0.04 l 0.06,-0.02 -0.1,0.2 c -0.14,0.25 -0.26,0.36 -0.37,0.32 a 0.72,0.72 0 0 1 0.14,-0.3 c 0.07,-0.1 0.14,-0.17 0.2,-0.24 z m 2.06,0 c 0.01,0.03 0.03,0.04 0.06,0.04 l 0.06,-0.02 -0.1,0.2 c -0.14,0.25 -0.26,0.36 -0.37,0.32 a 0.72,0.72 0 0 1 0.14,-0.3 c 0.07,-0.1 0.14,-0.17 0.2,-0.24 z m 2.52,0 c 0.01,0.03 0.04,0.04 0.06,0.04 l 0.07,-0.02 -0.12,0.2 c -0.13,0.25 -0.25,0.36 -0.35,0.32 a 0.73,0.73 0 0 1 0.14,-0.3 c 0.07,-0.1 0.13,-0.17 0.2,-0.24 z m 7.82,0.14 c 0,0.02 -0.02,0.05 -0.1,0.11 -0.07,0.07 -0.25,0.18 -0.4,0.25 -0.14,0.08 -0.24,0.14 -0.2,0.14 0.03,0 0.15,-0.05 0.27,-0.1 a 0.9,0.9 0 0 1 0.22,-0.1 c 0,0.02 -0.11,0.18 -0.25,0.37 -0.22,0.3 -0.27,0.37 -0.47,0.5 a 5,5 0 0 1 -2,0.7 l 0.15,-0.1 c 0.18,-0.13 0.15,-0.17 -0.04,-0.07 a 0.52,0.52 0 0 1 -0.13,0.05 c -0.02,-0.02 0.11,-0.15 0.3,-0.3 0.31,-0.22 0.18,-0.17 -0.27,0.11 -0.1,0.06 -0.09,0.06 0.01,-0.06 0.16,-0.16 0.46,-0.35 0.95,-0.58 0.45,-0.22 0.54,-0.3 0.21,-0.18 a 4.1,4.1 0 0 0 -1.27,0.76 c -0.1,0.08 -0.16,0.12 -0.16,0.1 0,-0.08 0.35,-0.5 0.53,-0.64 0.22,-0.17 0.16,-0.17 -0.11,0.01 l -0.23,0.14 v -0.08 a 2.69,2.69 0 0 1 1.91,-0.78 5.4,5.4 0 0 0 1.08,-0.25 z m -3.22,0.77 c 0.03,0.01 -0.01,0.2 -0.12,0.53 l -0.28,0.89 -0.32,1 c -0.19,0.66 -0.24,0.8 -0.28,0.76 a 4.5,4.5 0 0 1 0.28,-1.1 l 0.23,-0.73 c 0.15,-0.51 0.39,-1.21 0.44,-1.3 z m -13.4,1.79 c -0.04,-0.02 -0.06,0 -0.1,0.02 -0.12,0.3 -0.25,0.65 -0.36,1.07 a 2.6,2.6 0 0 1 -0.22,0.35 l -0.09,0.12 c -0.05,0.07 -0.1,0.11 -0.13,0.12 -0.04,0.03 -0.06,0.06 -0.05,0.12 0,0.05 0.03,0.08 0.07,0.09 0.06,-0.01 0.1,-0.04 0.15,-0.1 0.05,-0.05 0.1,-0.1 0.13,-0.15 L 25.02,30.19 25,30.27 a 0.99,0.99 0 0 0 -0.1,0.07 0.12,0.12 0 0 0 -0.04,0.13 c 0.02,0.05 0.04,0.07 0.08,0.06 L 24.84,31 a 15.51,15.51 0 0 1 -0.22,1.04 c -0.03,0.2 -0.09,0.38 -0.16,0.55 -0.03,0.04 -0.03,0.08 -0.02,0.15 v 0.01 c 0.03,0.03 0.05,0.04 0.08,0.04 0.02,0 0.04,-0.02 0.06,-0.05 a 5.36,5.36 0 0 0 0.25,-0.92 l 0.07,-0.36 a 19.53,19.53 0 0 0 0.23,-1.04 0.9,0.9 0 0 1 0.28,-0.09 c 0.1,-0.01 0.18,-0.03 0.24,-0.05 0.06,-0.01 0.1,-0.04 0.1,-0.06 a 0.13,0.13 0 0 0 0.02,-0.08 0.11,0.11 0 0 0 -0.03,-0.06 0.06,0.06 0 0 0 -0.06,-0.02 l -0.25,0.05 -0.24,0.07 a 12.2,12.2 0 0 0 0.12,-0.49 3,3 0 0 0 0.37,-1.1 l 0.01,-0.03 c 0,-0.05 -0.03,-0.08 -0.06,-0.1 z m 8.8,0.52 c -0.02,-0.01 -0.05,0 -0.07,0.05 l -0.05,0.15 a 1.76,1.76 0 0 1 -0.1,0.3 l -0.23,0.54 -0.25,0.59 -0.05,0.1 -0.04,0.1 c -0.02,0 -0.03,0 -0.05,0.03 v 0.11 c 0.02,0.06 0.05,0.08 0.1,0.07 0.05,-0.02 0.1,-0.08 0.13,-0.19 l 0.05,-0.13 0.04,-0.1 c 0.04,-0.08 0.07,-0.14 0.08,-0.19 -0.03,0.3 -0.02,0.56 0.04,0.8 0.02,0.06 0.06,0.08 0.1,0.06 0.05,-0.03 0.06,-0.08 0.05,-0.15 -0.03,-0.1 -0.05,-0.22 -0.05,-0.34 a 3.2,3.2 0 0 1 0.21,-1.17 l 0.03,-0.09 a 0.64,0.64 0 0 0 0.03,-0.06 l 0.02,-0.06 c 0.05,-0.12 0.08,-0.24 0.09,-0.34 -0.01,-0.05 -0.04,-0.08 -0.07,-0.08 z m -9.95,0 c -0.05,0.01 -0.08,0.05 -0.08,0.1 0,0.04 0,0.06 0.02,0.08 0.01,0.02 0.03,0.04 0.06,0.04 h 0.01 c 0.05,-0.01 0.07,-0.05 0.07,-0.1 0,-0.05 -0.02,-0.1 -0.06,-0.11 h -0.02 z m 3.75,0 c -0.05,0.01 -0.08,0.05 -0.08,0.1 0,0.04 0,0.06 0.02,0.08 0.01,0.02 0.03,0.04 0.06,0.04 h 0.01 c 0.05,-0.01 0.07,-0.05 0.07,-0.1 0,-0.05 -0.02,-0.1 -0.06,-0.11 h -0.02 z m 7.73,0 c -0.05,0.01 -0.08,0.05 -0.08,0.1 l 0.01,0.08 c 0.02,0.02 0.04,0.04 0.07,0.04 h 0.01 c 0.05,-0.01 0.07,-0.05 0.07,-0.1 0,-0.05 -0.02,-0.1 -0.07,-0.11 H 35.97 Z M 21.1,29.13 c -0.04,-0.02 -0.07,0 -0.1,0.06 a 13.95,13.95 0 0 0 -0.18,1.1 c -0.03,0.22 -0.1,0.46 -0.2,0.74 -0.02,0.05 -0.02,0.09 0,0.12 0.02,0.04 0.05,0.05 0.1,0.04 l 0.15,-0.1 a 0.96,0.96 0 0 1 0.45,-0.12 h 0.08 c 0.18,0 0.28,-0.02 0.3,-0.07 0.04,-0.05 0.04,-0.1 0.01,-0.15 -0.03,-0.05 -0.07,-0.05 -0.11,0 h -0.07 c -0.3,0 -0.53,0.03 -0.69,0.1 0.08,-0.25 0.13,-0.52 0.17,-0.79 l 0.14,-0.8 c 0,-0.07 -0.01,-0.11 -0.05,-0.13 z m 5.32,0.45 a 0.27,0.27 0 0 0 -0.12,0.03 0.81,0.81 0 0 0 -0.26,0.2 c -0.08,0.1 -0.15,0.22 -0.22,0.34 -0.06,0.12 -0.1,0.24 -0.12,0.36 -0.02,0.12 -0.01,0.22 0.03,0.3 0.04,0.1 0.13,0.14 0.26,0.16 0.21,0.03 0.48,-0.02 0.79,-0.14 0.04,-0.03 0.05,-0.08 0.04,-0.13 -0.01,-0.06 -0.04,-0.08 -0.09,-0.07 -0.13,0.06 -0.28,0.1 -0.44,0.13 -0.22,0.04 -0.37,0.02 -0.43,-0.06 -0.07,-0.08 -0.03,-0.23 0.1,-0.45 0.17,-0.03 0.3,-0.07 0.38,-0.13 a 0.52,0.52 0 0 0 0.15,-0.15 0.38,0.38 0 0 0 0.07,-0.2 c 0,-0.08 0,-0.13 -0.03,-0.16 a 0.18,0.18 0 0 0 -0.11,-0.03 z m 3.77,0 a 0.27,0.27 0 0 0 -0.12,0.03 0.81,0.81 0 0 0 -0.26,0.2 c -0.08,0.1 -0.15,0.22 -0.22,0.34 -0.06,0.12 -0.1,0.24 -0.12,0.36 -0.02,0.12 0,0.22 0.03,0.3 0.05,0.1 0.14,0.14 0.27,0.16 0.2,0.03 0.47,-0.02 0.78,-0.14 a 0.11,0.11 0 0 0 0.04,-0.13 c 0,-0.06 -0.04,-0.08 -0.09,-0.07 -0.13,0.06 -0.28,0.1 -0.44,0.13 -0.22,0.04 -0.36,0.02 -0.43,-0.06 -0.07,-0.08 -0.03,-0.23 0.1,-0.45 0.17,-0.03 0.3,-0.07 0.38,-0.13 0.06,-0.04 0.11,-0.09 0.15,-0.15 a 0.38,0.38 0 0 0 0.07,-0.2 c 0,-0.08 0,-0.13 -0.03,-0.16 a 0.18,0.18 0 0 0 -0.1,-0.03 z m 3.06,0 a 0.27,0.27 0 0 0 -0.12,0.03 0.81,0.81 0 0 0 -0.25,0.2 c -0.09,0.1 -0.16,0.22 -0.23,0.34 -0.06,0.12 -0.1,0.24 -0.12,0.36 v 0.1 c 0,-0.01 -0.01,-0.02 -0.03,-0.02 l -0.15,0.05 -0.22,0.05 c -0.19,0.03 -0.3,0 -0.36,-0.1 0,-0.07 0.03,-0.13 0.06,-0.2 0.08,-0.17 0.2,-0.3 0.33,-0.38 0.03,0.02 0.06,0.02 0.1,0 a 0.33,0.33 0 0 0 0.03,-0.08 v -0.1 a 0.1,0.1 0 0 0 -0.06,-0.05 c -0.1,0 -0.2,0.06 -0.33,0.2 -0.13,0.13 -0.21,0.28 -0.26,0.44 -0.05,0.17 -0.03,0.31 0.07,0.4 0.1,0.1 0.25,0.13 0.42,0.1 l 0.42,-0.13 v -0.02 l 0.01,0.05 c 0.05,0.08 0.14,0.13 0.27,0.15 0.2,0.03 0.47,-0.02 0.78,-0.14 a 0.11,0.11 0 0 0 0.04,-0.13 c 0,-0.06 -0.04,-0.08 -0.09,-0.07 -0.13,0.06 -0.28,0.1 -0.44,0.13 -0.22,0.04 -0.36,0.02 -0.43,-0.06 -0.07,-0.08 -0.03,-0.23 0.1,-0.45 0.18,-0.03 0.3,-0.07 0.38,-0.13 a 0.52,0.52 0 0 0 0.15,-0.15 0.38,0.38 0 0 0 0.07,-0.2 c 0.01,-0.08 0,-0.13 -0.03,-0.16 a 0.18,0.18 0 0 0 -0.1,-0.03 z m -6.37,0.11 c -0.02,0 -0.03,0.01 -0.05,0.04 -0.02,0.03 -0.03,0.07 -0.01,0.13 0.04,0.07 0.05,0.28 0.02,0.61 0,0.14 -0.02,0.27 -0.03,0.41 a 5.6,5.6 0 0 0 -0.02,0.34 c 0,0.07 0.03,0.1 0.08,0.11 a 0.12,0.12 0 0 0 0.08,-0.08 1.57,1.57 0 0 1 0.42,-0.82 c 0.11,-0.12 0.3,-0.24 0.58,-0.39 a 0.11,0.11 0 0 0 0.04,-0.13 c -0.01,-0.05 -0.04,-0.08 -0.09,-0.07 -0.2,0.1 -0.37,0.22 -0.53,0.34 -0.16,0.13 -0.29,0.3 -0.39,0.5 l 0.01,-0.18 a 0.57,0.57 0 0 0 -0.05,-0.78 z m -2.48,0 c -0.04,-0.01 -0.07,0 -0.1,0.07 l -0.06,0.35 c 0,0.12 -0.02,0.24 -0.04,0.35 v 0.01 l -0.03,0.15 -0.01,-0.01 c -0.02,-0.02 -0.04,-0.03 -0.07,-0.02 l -0.15,0.05 -0.22,0.05 c -0.19,0.03 -0.3,0 -0.36,-0.1 0,-0.07 0.03,-0.13 0.06,-0.2 0.08,-0.17 0.2,-0.3 0.34,-0.38 0.02,0.02 0.05,0.02 0.09,0 a 0.33,0.33 0 0 0 0.03,-0.08 v -0.1 a 0.1,0.1 0 0 0 -0.06,-0.05 c -0.1,0 -0.2,0.06 -0.33,0.2 -0.13,0.13 -0.21,0.28 -0.26,0.44 l -0.01,0.15 -0.02,-0.02 c -0.02,0 -0.04,0 -0.08,0.03 a 3.67,3.67 0 0 1 -0.43,0.27 c -0.04,0.02 -0.06,0.02 -0.08,0 a 0.23,0.23 0 0 1 -0.02,-0.12 l 0.03,-0.18 0.06,-0.27 c 0.02,-0.11 0.03,-0.2 0.01,-0.24 C 22.67,30 22.64,29.98 22.61,29.99 a 0.32,0.32 0 0 0 -0.11,0.13 c -0.04,0.06 -0.1,0.2 -0.18,0.4 -0.11,0.29 -0.23,0.4 -0.35,0.36 -0.03,-0.1 -0.01,-0.25 0.05,-0.46 l 0.08,-0.25 0.07,-0.18 v -0.1 c 0,-0.03 -0.02,-0.05 -0.03,-0.06 -0.05,-0.02 -0.08,0 -0.1,0.06 a 4.98,4.98 0 0 0 -0.23,0.8 0.5,0.5 0 0 0 0,0.22 c 0.04,0.15 0.12,0.21 0.23,0.2 0.13,-0.01 0.26,-0.17 0.4,-0.47 0,0.15 0.01,0.27 0.06,0.36 0.05,0.1 0.17,0.1 0.37,0 l 0.36,-0.26 V 30.7 c 0.02,0.04 0.03,0.09 0.07,0.12 0.1,0.1 0.25,0.13 0.42,0.1 l 0.41,-0.13 -0.02,0.11 c 0,0.08 0,0.12 0.05,0.14 0.04,0.02 0.08,0 0.1,-0.07 l 0.1,-0.58 c 0.02,-0.19 0.06,-0.38 0.1,-0.57 0,-0.07 -0.02,-0.1 -0.06,-0.12 z m 3.75,0 c -0.04,-0.01 -0.07,0 -0.1,0.07 l -0.06,0.35 c 0,0.12 -0.03,0.24 -0.05,0.35 v 0.01 c 0,0.07 -0.02,0.14 -0.04,0.22 l -0.04,0.21 c 0,0.08 0,0.12 0.05,0.14 0.04,0.02 0.08,0 0.1,-0.07 l 0.1,-0.58 c 0.02,-0.19 0.05,-0.38 0.1,-0.57 0,-0.07 -0.02,-0.1 -0.06,-0.12 z m 7.73,0 c -0.04,-0.01 -0.07,0 -0.1,0.07 l -0.06,0.35 -0.05,0.35 v 0.01 l -0.04,0.22 -0.04,0.21 c -0.01,0.08 0,0.12 0.05,0.14 0.04,0.02 0.07,0 0.1,-0.07 l 0.09,-0.58 0.1,-0.57 c 0,-0.07 -0.01,-0.1 -0.05,-0.12 z m -9.5,0.1 a 0.44,0.44 0 0 1 -0.22,0.2 c 0.1,-0.11 0.18,-0.18 0.23,-0.2 z m 3.78,0 a 0.44,0.44 0 0 1 -0.23,0.2 c 0.1,-0.11 0.18,-0.18 0.23,-0.2 z m 3.06,0 a 0.44,0.44 0 0 1 -0.23,0.2 c 0.1,-0.11 0.18,-0.18 0.23,-0.2 z m -2.5,0.04 c -0.04,0 -0.07,0.04 -0.08,0.1 v 0.04 c 0,0.07 0.03,0.1 0.06,0.12 l 0.05,0.12 0.05,0.13 0.02,0.04 0.03,0.04 c -0.1,0.2 -0.2,0.36 -0.3,0.47 -0.03,0.06 -0.02,0.1 0,0.14 0.03,0.04 0.07,0.05 0.1,0.02 0.12,-0.12 0.21,-0.27 0.3,-0.46 0.1,0.12 0.22,0.27 0.39,0.45 0.05,0.02 0.08,0.01 0.1,-0.04 a 0.12,0.12 0 0 0 0.02,-0.08 0.12,0.12 0 0 0 -0.03,-0.07 l -0.14,-0.14 a 3.63,3.63 0 0 1 -0.25,-0.31 17.8,17.8 0 0 0 0.19,-0.42 c 0.02,-0.06 0,-0.11 -0.04,-0.15 -0.02,-0.02 -0.05,-0.01 -0.1,0.03 l -0.07,0.18 -0.08,0.18 A 4.47,4.47 0 0 0 30.9,30.1 c -0.05,-0.17 -0.11,-0.26 -0.18,-0.27 z m 4.54,0 c -0.13,0 -0.3,0.08 -0.49,0.25 a 0.15,0.15 0 0 0 -0.04,0.12 0.4,0.4 0 0 0 0.07,0.2 l 0.14,0.11 0.16,0.1 c 0.05,0.02 0.1,0.06 0.14,0.1 a 0.92,0.92 0 0 1 -0.71,0.16 c -0.04,0.01 -0.07,0.04 -0.08,0.1 -0.01,0.04 0,0.09 0.05,0.11 a 1.01,1.01 0 0 0 0.89,-0.25 0.25,0.25 0 0 0 0.02,-0.1 0.5,0.5 0 0 0 -0.2,-0.31 0.64,0.64 0 0 0 -0.15,-0.1 0.65,0.65 0 0 1 -0.16,-0.1 c 0.07,-0.06 0.16,-0.1 0.26,-0.16 0.06,-0.02 0.12,-0.02 0.17,0 0.05,0.02 0.08,0 0.1,-0.08 0.01,-0.03 0,-0.07 -0.04,-0.11 a 0.3,0.3 0 0 0 -0.13,-0.03 z m 1.79,1.29 c 0.17,0 0.31,0.01 0.3,0.03 0,0.02 -0.1,0.04 -0.24,0.04 -0.25,0 -0.5,0.03 -0.59,0.06 -0.07,0.03 -0.05,0.15 0.04,0.2 0.1,0.05 0.72,0.14 0.96,0.14 0.31,0 0.68,-0.1 0.73,-0.19 0.02,-0.05 0.01,-0.07 -0.07,-0.15 l -0.1,-0.1 0.14,0.03 c 0.2,0.02 0.45,0.12 0.49,0.17 0.04,0.07 -0.02,0.14 -0.16,0.16 l -0.1,0.03 0.18,0.18 0.17,0.18 -0.19,-0.18 -0.18,-0.17 -0.26,0.05 a 5.4,5.4 0 0 1 -1.27,0.08 c -0.4,-0.05 -0.99,-0.21 -0.99,-0.27 0,-0.09 0.35,-0.23 0.65,-0.27 0.12,-0.02 0.32,-0.02 0.49,-0.02 z m 0.72,1.16 c 0.05,0 0.06,0 0.05,0.07 -0.03,0.1 0,0.1 0.1,0 0.13,-0.1 0.14,-0.07 0.03,0.09 -0.12,0.16 -0.06,0.18 0.09,0.03 0.15,-0.16 0.19,-0.08 0.05,0.1 -0.16,0.2 -0.14,0.26 0.01,0.08 0.15,-0.16 0.24,-0.17 0.16,-0.02 -0.06,0.12 -0.06,0.13 0.02,0.1 0.08,-0.05 0.1,-0.02 0.06,0.07 -0.07,0.13 0,0.12 0.13,-0.01 0.13,-0.13 0.2,-0.14 0.2,-0.04 0,0.06 -0.06,0.12 -0.12,0.12 -0.02,0 -0.1,0.04 -0.17,0.1 -0.12,0.08 -0.13,0.08 -0.24,0.04 -0.15,-0.07 -0.22,-0.06 -0.33,0.02 -0.12,0.1 -0.07,0.16 0.1,0.11 0.2,-0.05 0.21,-0.03 0.09,0.1 -0.11,0.14 -0.23,0.2 -0.35,0.2 -0.07,0 -0.1,-0.02 -0.15,-0.1 a 0.63,0.63 0 0 1 -0.06,-0.12 c 0,0 0.05,-0.02 0.12,-0.02 0.1,0 0.12,0 0.12,-0.05 l 0.04,-0.12 c 0.1,-0.1 0.05,-0.14 -0.05,-0.04 -0.06,0.05 -0.1,0.1 -0.12,0.1 -0.04,0 -0.02,-0.1 0.04,-0.14 0.08,-0.07 0.07,-0.1 0,-0.1 -0.1,0.01 -0.11,-0.06 -0.07,-0.26 0.04,-0.18 0.15,-0.31 0.25,-0.31 z m -2.05,0.83 0.02,0.08 c 0.01,0.06 0.07,0.12 0.15,0.17 0.08,0.05 0.16,0.08 0.23,0.08 0.13,0 0.2,0.05 0.14,0.12 -0.08,0.11 -0.46,0.3 -0.74,0.37 -0.35,0.1 -0.7,0.15 -0.85,0.14 -0.1,-0.01 -0.12,-0.02 -0.13,-0.08 0,-0.06 0.04,-0.1 0.26,-0.24 l 0.6,-0.4 z m 3.1,1.5 c 0.02,0.02 0,0.04 -0.02,0.08 -0.07,0.1 -0.03,0.12 0.1,0.03 a 0.64,0.64 0 0 1 0.11,-0.08 c 0.03,0 0,0.06 -0.05,0.12 -0.1,0.12 -0.06,0.16 0.05,0.06 0.12,-0.1 0.14,-0.1 0.2,-0.04 l 0.12,0.09 c 0.07,0.04 0.1,0.04 0.16,0 0.06,-0.05 0.08,-0.05 0.09,-0.01 l 0.01,0.07 c -0.01,0.07 0.01,0.07 0.1,0 0.07,-0.07 0.1,-0.08 0.12,-0.06 0.03,0.03 0.02,0.05 -0.03,0.1 -0.08,0.08 -0.1,0.08 -0.66,0.03 a 2.5,2.5 0 0 0 -1.02,0.1 c -0.12,0.02 -0.22,0.05 -0.23,0.04 -0.02,-0.02 0.33,-0.35 0.37,-0.35 0.03,0 0,0.04 -0.07,0.12 -0.07,0.08 -0.1,0.12 -0.07,0.13 0.02,0.02 0.04,0.02 0.05,0 0.04,-0.05 0.42,-0.37 0.44,-0.37 0.01,0 0,0.04 -0.03,0.08 -0.1,0.15 0.02,0.12 0.18,-0.05 a 0.46,0.46 0 0 1 0.09,-0.08 z m -4.86,0.03 0.38,0.15 c 0.5,0.2 0.5,0.2 0.85,0.48 0.25,0.2 0.3,0.25 0.27,0.28 -0.04,0.06 -0.08,0.06 -0.17,-0.01 -0.15,-0.1 -0.83,-0.45 -1.1,-0.56 a 1.27,1.27 0 0 1 -0.3,-0.15 c -0.06,-0.07 -0.05,-0.15 0.01,-0.17 z m 1.33,0.06 c 0.03,0 0.09,0.05 0.15,0.11 a 0.6,0.6 0 0 1 0.17,0.46 c 0,0.2 -0.03,0.19 -0.25,0 -0.27,-0.24 -0.26,-0.22 -0.18,-0.3 0.07,-0.07 0.1,-0.15 0.05,-0.15 l -0.11,0.07 c -0.05,0.04 -0.11,0.06 -0.13,0.05 -0.04,-0.02 0.24,-0.24 0.3,-0.24 z m -0.32,0.89 c 0.02,0 0.04,0.02 0.04,0.03 a 0.7,0.7 0 0 1 -0.12,0.15 c -0.15,0.15 -0.1,0.17 0.06,0.04 0.1,-0.09 0.18,-0.12 0.18,-0.07 l -0.12,0.13 c -0.17,0.15 -0.13,0.17 0.06,0.04 0.12,-0.08 0.17,-0.1 0.2,-0.07 0.02,0.02 -0.02,0.08 -0.18,0.22 -0.23,0.22 -0.22,0.22 0.06,0.04 0.13,-0.1 0.17,-0.11 0.2,-0.08 0.03,0.06 0.03,0.1 -0.03,0.11 -0.06,0.02 -0.39,0.36 -0.35,0.36 a 0.8,0.8 0 0 0 0.16,-0.1 c 0.1,-0.07 0.14,-0.1 0.17,-0.07 0.02,0.02 -0.03,0.1 -0.2,0.24 -0.2,0.2 -0.2,0.23 0.01,0.08 l 0.1,-0.06 0.05,0.06 c 0.05,0.07 0.05,0.08 0.01,0.11 a 0.12,0.12 0 0 0 -0.05,0.09 c 0,0.05 0.02,0.06 0.1,0.01 0.04,-0.02 0.05,-0.02 0.05,0.02 0,0.02 0.03,0.06 0.06,0.08 0.04,0.02 0.06,0.07 0.06,0.11 0,0.07 0,0.07 -0.06,0.02 -0.07,-0.07 -0.08,-0.01 -0.01,0.1 0.02,0.04 0.04,0.1 0.04,0.14 0,0.06 0,0.05 -0.06,0 -0.08,-0.1 -0.1,-0.08 -0.04,0.04 0.04,0.09 0.04,0.1 -0.05,0.2 -0.05,0.05 -0.08,0.1 -0.07,0.1 0.02,0 0.06,-0.02 0.09,-0.06 0.06,-0.06 0.13,-0.08 0.13,-0.03 0,0.02 -0.04,0.08 -0.1,0.14 -0.06,0.07 -0.07,0.1 -0.04,0.1 0.08,0 0.06,0.06 -0.02,0.1 -0.04,0 -0.08,0.03 -0.08,0.05 0,0.07 -0.12,0.01 -0.46,-0.22 -0.3,-0.2 -0.36,-0.25 -0.35,-0.31 0,-0.06 0,-0.07 -0.07,-0.05 -0.09,0.02 -0.1,0 -0.03,-0.08 0.08,-0.09 0.04,-0.13 -0.05,-0.06 -0.1,0.09 -0.14,0.06 -0.07,-0.05 0.11,-0.15 0.12,-0.17 0,-0.07 -0.12,0.12 -0.16,0.1 -0.1,-0.03 0.03,-0.08 0.03,-0.1 -0.01,-0.12 -0.05,-0.03 -0.05,-0.04 0,-0.12 0.04,-0.08 0.04,-0.09 -0.03,-0.08 h -0.07 v -0.59 l 0.01,-0.58 c 0.01,0 0.06,0.06 0.11,0.15 0.1,0.17 0.14,0.18 0.1,0.05 0,-0.1 0,-0.1 0.07,-0.05 0.07,0.05 0.07,0.05 0.07,-0.04 0,-0.05 0.02,-0.1 0.04,-0.1 0.02,-0.01 0.04,0 0.04,0.04 0,0.03 0.02,0.07 0.05,0.09 a 0.1,0.1 0 0 1 0.06,0.09 c 0,0.04 0.02,0.03 0.12,-0.02 a 0.47,0.47 0 0 0 0.13,-0.11 c 0.02,-0.03 0.06,-0.04 0.09,-0.04 0.03,0 0.05,-0.02 0.05,-0.05 0,-0.02 0.02,-0.03 0.05,-0.02 z m 1.32,0.08 c 0.4,0.01 0.51,0.03 0.55,0.07 0.04,0.04 0.04,0.05 -0.01,0.09 a 3.3,3.3 0 0 1 -1.04,0 c -0.1,-0.06 -0.12,-0.12 -0.05,-0.15 0.02,-0.01 0.26,-0.02 0.55,0 z m 0.03,0.4 c 0.25,0 0.37,0.02 0.4,0.05 0.03,0.04 0.03,0.06 -0.07,0.16 a 1.8,1.8 0 0 0 -0.2,0.23 c -0.07,0.12 -0.12,0.12 -0.12,-0.02 0,-0.05 -0.01,-0.08 -0.04,-0.08 -0.03,0 -0.05,0.04 -0.06,0.15 l -0.04,0.46 a 4,4 0 0 1 -0.22,0.87 c -0.28,0.83 -0.3,0.82 -0.27,-0.56 0,-0.61 0.02,-1.14 0.04,-1.17 0.04,-0.09 0.2,-0.1 0.58,-0.1 z m 0.84,0.15 c 0.02,0.07 0.04,0.4 0.05,1.2 0.02,0.79 0,1.17 0,1.17 -0.03,0 -0.04,-0.05 -0.05,-0.1 a 43.9,43.9 0 0 1 -0.03,-2.26 c 0,-0.03 0.02,-0.04 0.03,0 z m -3.26,1.23 0.3,0.25 c 0.44,0.38 1.02,0.8 1.18,0.87 0.1,0.04 0.14,0.08 0.14,0.12 0,0.05 0,0.05 -0.08,0 a 21.12,21.12 0 0 0 -1.17,-0.8 c -0.41,-0.26 -0.5,-0.36 -0.42,-0.41 a 0.33,0.33 0 0 1 0.05,-0.03 z m 4.82,1.04 c 0.13,-0.02 0.22,-0.01 0.2,0.01 -0.04,0.06 -1.42,0.44 -1.5,0.4 -0.05,-0.01 -0.05,-0.07 0,-0.14 0.05,-0.08 0.9,-0.24 1.3,-0.27 z"
     id="path82"
     inkscape:connector-curvature="0"
     style="fill:#1a1a1a" />
</svg>
