<?xml version="1.0" encoding="UTF-8" standalone="no"?><!--Created with Inkscape (http://www.inkscape.org/)--><svg xmlns:dc="http://purl.org/dc/elements/1.1/" xmlns:cc="http://creativecommons.org/ns#" xmlns:rdf="http://www.w3.org/1999/02/22-rdf-syntax-ns#" xmlns="http://www.w3.org/2000/svg" xmlns:xlink="http://www.w3.org/1999/xlink" width="64" height="64" version="1"><metadata><rdf:RDF><cc:Work><dc:format>image/svg+xml</dc:format><dc:type rdf:resource="http://purl.org/dc/dcmitype/StillImage"/><dc:title/></cc:Work></rdf:RDF></metadata><defs><linearGradient id="e"><stop offset="0" stop-color="#0b2228"/><stop offset="1" stop-color="#0b2228" stop-opacity="0"/></linearGradient><linearGradient id="d"><stop offset="0" stop-color="#0b2228"/><stop offset="1" stop-color="#0b2228" stop-opacity="0"/></linearGradient><linearGradient id="b"><stop offset="0" stop-color="#216778"/><stop offset=".27" stop-color="#164450"/><stop offset=".29" stop-color="#216778"/><stop offset=".49" stop-color="#2c89a0"/><stop offset=".71" stop-color="#216778"/><stop offset=".73" stop-color="#164450"/><stop offset="1" stop-color="#216778"/></linearGradient><linearGradient id="a"><stop offset="0" stop-color="#216778"/><stop offset=".18" stop-color="#164450"/><stop offset=".19" stop-color="#216778"/><stop offset=".49" stop-color="#2c89a0"/><stop offset=".8" stop-color="#216778"/><stop offset=".81" stop-color="#164450"/><stop offset="1" stop-color="#216778"/></linearGradient><linearGradient id="f"><stop offset="0" stop-color="#0b2228"/><stop offset="1" stop-color="#0b2228" stop-opacity="0"/></linearGradient><linearGradient id="c"><stop offset="0" stop-color="#216778"/><stop offset=".12" stop-color="#164450"/><stop offset=".15" stop-color="#2c89a0"/><stop offset=".49" stop-color="#37abc8"/><stop offset=".85" stop-color="#2c89a0"/><stop offset=".88" stop-color="#164450"/><stop offset="1" stop-color="#216778"/></linearGradient><linearGradient xlink:href="#a" id="h" x1="5.27" y1="51.93" x2="59.12" y2="51.93" gradientUnits="userSpaceOnUse"/><linearGradient xlink:href="#b" id="g" x1="-.04" y1="59.46" x2="64.18" y2="59.46" gradientUnits="userSpaceOnUse"/><linearGradient xlink:href="#c" id="i" x1="7.65" y1="24.52" x2="56.44" y2="24.52" gradientUnits="userSpaceOnUse"/><linearGradient xlink:href="#d" id="j" x1="13.48" y1="63.47" x2="13.48" y2="26.47" gradientUnits="userSpaceOnUse"/><linearGradient xlink:href="#e" id="k" x1="5.27" y1="55.14" x2="5.27" y2="48.73" gradientUnits="userSpaceOnUse"/><linearGradient xlink:href="#f" id="l" x1="-.04" y1="63.9" x2="-.04" y2="55.02" gradientUnits="userSpaceOnUse"/></defs><path d="M-.04 55.02h64.22v8.88H-.04z" fill="url(#g)"/><path d="M5.27 48.73h53.86v6.42H5.27z" fill="url(#h)"/><path fill="url(#i)" d="M31.46.28C23.83.35 15.93 3.9 7.66 11.94v36.83h48.76V20.21h.02v-8.27C48.4 4.58 40.11.19 31.46.28z"/><path fill="url(#j)" d="M31.44.28C23.8.35 15.9 3.9 7.64 11.94v36.83h48.75V20.21h.03v-8.27C48.37 4.58 40.09.19 31.44.28z"/><path d="M5.27 48.73h53.86v6.42H5.27z" fill="url(#k)"/><path d="M-.04 55.02h64.22v8.88H-.04z" fill="url(#l)"/><path d="M41.92 9.59c.01.04-.07.34-.17.66l-.19.58.24.2c.13.12.16.16.06.1-.25-.17-.32-.14-.42.1-.1.21-.09.23.24.5.18.16.4.42.48.58l.16.3c.05.07.26-.1.38-.3.11-.2.12-.28.07-.42-.13-.35.01-.31.2.05.13.25.26.39.37.42.1.03.12.05.06.05-.1.01-.1.09-.08.52.02.28 0 .59-.04.69-.06.15-.08.12-.08-.21 0-.55-.12-.93-.26-.87-.07.03-.09.08-.05.16.03.06.06.36.07.66l.02.56.23.1.58.24.36.12-.33.01c-.19 0-.48-.05-.67-.11-.17-.06-.33-.1-.33-.09l-.25.36-.23.35.23.25.24.26-.25-.23-.26-.23-.45.24c-.26.14-.54.26-.63.25-.1 0-.13-.02-.1-.04.06-.02.05-.1-.02-.27-.11-.24-.13-.25-.51-.25-.39 0-.4.01-.43.21-.02.12 0 .22.03.22.04 0 .02.05-.04.12-.06.07-.15.4-.21.76-.1.6-.1.61-.11.24 0-.2.02-.65.06-.98.04-.33.06-.6.04-.62-.01-.01-.1.01-.2.05-.16.06-.2.05-.2-.05 0-.08-.13.03-.39.3-.34.37-.38.4-.27.18.07-.14.23-.4.36-.57.22-.3.23-.33.11-.44-.11-.1-.15-.1-.44.1l-.31.22.25-.26.26-.27-.22-.44c-.12-.25-.26-.45-.3-.45-.05 0-.15.1-.2.22l-.26.48c-.1.21-.13.22-.13.08 0-.09-.03-.3-.08-.47-.05-.22-.12-.31-.23-.34-.15-.02-.14-.02 0-.04.16 0 .17-.04.17-.38 0-.2.05-.46.1-.58l.1-.2-.05.24c-.09.46-.05.87.07.9.09.01.12-.06.16-.34.03-.2.11-.49.19-.64l.13-.3c0-.01-.1-.06-.22-.1-.12-.05-.2-.1-.18-.12.02-.03.14-.01.27.03.2.07.25.06.46-.13.13-.12.33-.26.45-.33.22-.1.22-.12.19-.5l-.04-.4.11.37c.09.3.14.36.22.32.07-.03.3-.05.54-.07.45-.02.4 0-.1.08-.39.05-.51.12-.47.25.03.08.19.1.68.1.63-.01.65-.01.75-.2.06-.12.07-.23.04-.26-.04-.04-.28-.1-.56-.17-.36-.07-.42-.1-.24-.1.14 0 .38.03.53.07.16.03.32.08.38.08.07.01.18-.2.33-.62.13-.35.23-.6.23-.54zm.43 3.35c0 .13.04.26.09.31.05.06.04.11-.07.2a2 2 0 0 0-.34.5l-.2.36.2.21c.11.12.23.2.27.18.02-.02.14-.2.24-.4.21-.42.28-.96.17-1.37-.06-.23-.1-.28-.22-.25-.1.03-.14.1-.14.26zM22.71 12.92l.01.44H23c.2 0 .3-.04.35-.12.06-.11.07-.11.07.02 0 .1.07.17.28.24.15.04.35.14.44.21.16.14.16.14-.15.01-.5-.21-.62-.23-.66-.12-.03.07.08.14.37.25.5.17.98.65 1.17 1.15.09.25.16.33.27.34h.15l-.15.06c-.11.05-.14.1-.12.24.06.28-.04.92-.16 1.07-.08.12-.1.12-.06 0 .03-.08.01-.11-.08-.11-.28 0-.46.1-.56.3-.11.2-.09.28.1.47.03.02.1.13.18.24.12.2.12.2.26.07.19-.17.53-.9.66-1.4l.1-.42-.04.38c-.05.5-.26 1.1-.51 1.46l-.2.29.17.22c.1.12.14.22.1.22-.04 0-.13-.09-.2-.2l-.15-.18-.26.23c-.14.13-.33.26-.43.3-.2.1-.2.16-.02.62.18.46.12.45-.12-.02l-.2-.39-.32.1c-.43.15-.59.12-.18-.04.18-.07.36-.15.37-.17a2 2 0 0 0-.15-.57c-.14-.39-.23-.52-.3-.5a.6.6 0 0 1-.17.04c-.03 0-.06.14-.07.3v.3l-.09-.27c-.07-.25-.1-.27-.38-.29a4.4 4.4 0 0 1-.5-.07c-.18-.04-.22-.03-.22.1 0 .07.05.17.1.2.06.06.13.18.15.3.02.11.1.24.15.29.06.04.1.1.1.15 0 .04-.06.02-.13-.03a1.75 1.75 0 0 0-.42-.22l-.3-.12-.25.36c-.32.44-.37.44-.1-.02.13-.19.22-.36.2-.36a4.53 4.53 0 0 1-.7-.57c-.1-.12-.15-.13-.35-.06-.23.08-.23.08-.08-.03.2-.14.2-.2.02-.44a4.02 4.02 0 0 1-.45-1.1c-.03-.12.07.04.23.35.38.76.53.94.66.83.08-.07.08-.14-.03-.45-.07-.2-.12-.54-.13-.74v-.37l-.37-.15c-.2-.07-.28-.12-.17-.1.63.12.57.14.7-.2.07-.16.2-.4.32-.51.1-.12.15-.16.1-.1-.22.32-.48.98-.37.98l.17.05c.08.02.11 0 .11-.07 0-.18.25-.62.44-.81.18-.17.18-.17.07-.4-.06-.14-.14-.24-.18-.24-.11 0-.6.54-.75.83-.07.14-.14.22-.14.19 0-.14.42-.8.62-.97.15-.12.2-.22.18-.3-.04-.1-.08-.08-.28.11-.25.24-.3.23-.16-.03.12-.23.28-.35.6-.49.42-.16.45-.15.14.07-.22.14-.25.2-.19.27.07.08.11.08.3 0 .29-.16.34-.13.06.04l-.23.14.16.2.18.2c0 .01.18-.03.4-.1.38-.13.38-.13.47-.5.06-.29.06-.4 0-.48-.08-.08-.07-.1.01-.06.09.03.13-.05.18-.37l.07-.4zm.5 1.18c0 .23.24.36.47.25.24-.1.24-.1.19.15-.03.16 0 .31.16.6.2.38.2.38.48.34.15-.02.3-.06.31-.08.08-.08-.3-.68-.58-.92-.25-.21-.79-.5-.98-.5-.03-.01-.05.06-.05.16zM25.48 23.7c-.36.46-.73 2.37-.95 4.95a6.38 6.38 0 0 1-.18 1.23c-.04.04-.07.68-.07 1.66v1.58l-.28.49-.28.48v13.36l.2.12c.28.15.28.27 0 .32-.22.05-.29.28-.1.36.15.05 3.65.05 3.8 0 .2-.08.13-.31-.1-.36-.27-.05-.27-.17 0-.32l.2-.12V34.09l-.27-.48-.29-.49v-1.58c0-.99-.02-1.62-.07-1.66-.04-.04-.1-.45-.14-.91-.23-2.78-.64-4.9-1.03-5.33-.16-.17-.27-.15-.44.06zm.5.78c.3.95.48 2.17.66 4.06l.1 1.19c0 .03-.24.05-.53.05h-.52v-2.95c0-1.63.03-2.96.06-2.96s.14.28.24.61zm.9 7.1v1.45l-.47-.02-.48-.03-.02-1.42-.01-1.43h.98zm.53 9.14v6.62h-1.27l-.02-6.55c0-3.6 0-6.58.02-6.63.03-.06.2-.09.65-.07l.62.02zM32.3 28.85a1.4 1.4 0 0 0-.58.6c-.21.44-.39 2.39-.46 5.15-.05 1.7-.06 1.85-.2 2.15l-.17.32v5.12c0 4.45.02 5.15.1 5.32.07.12.15.21.2.21.12 0 .03.24-.1.26-.18.02-.22.07-.18.2.05.1.26.1 1.56.1.83 0 1.55-.01 1.62-.03.17-.07.13-.24-.07-.29-.21-.05-.22-.14-.01-.36l.16-.17.02-5.14.02-5.15-.21-.46-.2-.46-.05-2.43c-.04-2.81-.13-3.81-.34-4.3-.22-.52-.7-.8-1.1-.64zm1.15 1.97c.03.3.05.8.05 1.12v.59h-.71v-2.25h.61zm.12 3.71v1.66h-.85V32.88h.85zm.35 7.6v5.1h-1.06v-10.2h1.06zM36.44 21.77c0 .11-.06.17-.19.2-.2.05-.94.5-.94.58 0 .02.1-.03.2-.1.21-.16.45-.26.81-.37.16-.05.19-.03.19.07 0 .08-.1.14-.32.2-.42.11-1.01.7-1.2 1.16-.07.2-.16.33-.23.33-.1.01-.1.01 0 .07.08.05.1.13.08.25-.05.27.04.91.16 1.06.07.1.1.1.06.02-.03-.08.02-.12.2-.16.3-.06.3-.06.38.11.05.1.2.3.34.47.14.17.25.38.25.48 0 .12.03.17.1.14.08-.03.08.02 0 .33-.04.2-.1.43-.13.5-.1.26.31-.41.42-.7.1-.25.14-.29.28-.26.15.03.17.07.18.36v.32l.08-.3c.07-.27.1-.3.3-.3.11 0 .33-.02.48-.06.3-.08.43.05.24.26a.91.91 0 0 0-.16.31c-.03.1-.09.23-.14.28-.06.04-.1.1-.1.15 0 .04.05.02.12-.03.07-.07.26-.16.42-.2.27-.09.32-.08.45.04.15.13.15.13.06-.03-.08-.15-.07-.18.04-.24.08-.05.28-.22.45-.4l.32-.3-.32.25c-.47.35-.64.43-.7.32-.05-.07.04-.19.28-.4.41-.36.64-.86.7-1.5.02-.44.04-.48.23-.56.25-.1.22-.15-.05-.07-.2.05-.22.05-.34-.27-.06-.18-.2-.42-.3-.54l-.17-.2.18.32c.21.38.34.76.25.76l-.16.04c-.07.03-.13-.05-.19-.25a1.7 1.7 0 0 0-.3-.53c-.22-.25-.22-.25-.1-.5.1-.23.12-.23.27-.13.2.14.52.54.65.83.06.12.1.19.1.14 0-.17-.26-.62-.56-.93l-.3-.3.16-.22.16-.22-.22.21c-.19.18-.24.2-.36.12-.2-.13-.27-.1-.1.04l.16.12-.16.2-.17.2-.3-.12a2.29 2.29 0 0 0-.74-.12c-.4 0-.44-.02-.46-.15-.03-.21.23-.6.4-.6.09 0 .2-.06.24-.11.08-.1.08-.1-.1-.04-.3.11-.72.1-.8-.05-.07-.11-.07-.11-.08.02zm.21.91c0 .13-.05.18-.19.23a.99.99 0 0 1-.28.03c-.05-.01-.1.04-.1.11 0 .08-.1.31-.22.53-.2.34-.26.4-.44.4-.38 0-.42-.08-.24-.45.19-.38.53-.7.94-.89.4-.18.53-.17.53.04zM38.47 38.06l-.75 2.32c-.04.12-.07.56-.07.98 0 .6-.03.86-.14 1.14-.13.34-.14.54-.14 2.6 0 2 .01 2.26.12 2.41.06.1.14.2.18.22.08.06.01.28-.07.27-.23-.04-.33.16-.12.25.14.05 2.94.05 3.08 0 .17-.07.13-.24-.06-.29-.16-.04-.26-.24-.12-.24.03 0 .1-.09.17-.2.1-.18.12-.45.12-2.41 0-2.04-.01-2.25-.14-2.63-.1-.31-.14-.59-.14-1.2 0-.45-.03-.81-.07-.84-.03-.02-.07-.11-.07-.2 0-.09-.15-.61-.34-1.17l-.34-1.02-.54-.02a1.6 1.6 0 0 0-.56.03zm1.18 1.15l.3.88-.39.02c-.2.02-.39.02-.4 0l-.06-.92-.04-.9.15.02c.13.02.2.16.44.9zm.46 2.08v.67h-.91v-1.34h.91zm.28 1.6c.05.07.07.71.06 2.2l-.02 2.1-.54.03-.55.02v-2.18c0-1.2.02-2.19.05-2.21.09-.1.91-.06 1 .05zM45.04 39.72c-.5.34-.93 1.48-1.03 2.78-.03.32-.08.6-.1.62-.04.02-.07.96-.07 2.09 0 1.73.01 2.07.11 2.28.07.13.14.23.18.23.03 0 .06.07.06.15 0 .07-.03.11-.08.1-.14-.05-.3.08-.25.2.04.1.23.12 1.56.12.83 0 1.55-.02 1.61-.04.17-.07.14-.24-.06-.29-.17-.04-.25-.24-.1-.24.03 0 .1-.1.17-.2.1-.19.1-.52.09-2.31-.04-2.76-.22-4.02-.72-4.92-.26-.47-.59-.73-.92-.73a.98.98 0 0 0-.45.16zm.89.35c.37.38.63 1.18.76 2.25l.05.4h-.91l-.04-1.03c-.03-.57-.1-1.22-.15-1.44-.11-.48-.04-.53.29-.18zm.92 5.17l.02 2h-1.13v-1.96c0-1.08.02-1.99.05-2.02.03-.02.27-.03.55-.02l.49.02z" fill="#1a1a1a"/></svg>