<?xml version="1.0" encoding="UTF-8" standalone="no"?>
<svg
   xmlns:dc="http://purl.org/dc/elements/1.1/"
   xmlns:cc="http://creativecommons.org/ns#"
   xmlns:rdf="http://www.w3.org/1999/02/22-rdf-syntax-ns#"
   xmlns:svg="http://www.w3.org/2000/svg"
   xmlns="http://www.w3.org/2000/svg"
   xmlns:sodipodi="http://sodipodi.sourceforge.net/DTD/sodipodi-0.dtd"
   xmlns:inkscape="http://www.inkscape.org/namespaces/inkscape"
   viewBox="0 0 24 24"
   version="1.1"
   id="svg4"
   sodipodi:docname="application-x-theme.svg"
   inkscape:version="0.92.4 (5da689c313, 2019-01-14)">
  <metadata
     id="metadata10">
    <rdf:RDF>
      <cc:Work
         rdf:about="">
        <dc:format>image/svg+xml</dc:format>
        <dc:type
           rdf:resource="http://purl.org/dc/dcmitype/StillImage" />
        <dc:title></dc:title>
      </cc:Work>
    </rdf:RDF>
  </metadata>
  <defs
     id="defs8" />
  <sodipodi:namedview
     pagecolor="#ffffff"
     bordercolor="#666666"
     borderopacity="1"
     objecttolerance="10"
     gridtolerance="10"
     guidetolerance="10"
     inkscape:pageopacity="0"
     inkscape:pageshadow="2"
     inkscape:window-width="1112"
     inkscape:window-height="480"
     id="namedview6"
     showgrid="false"
     inkscape:zoom="9.8333333"
     inkscape:cx="1.0677966"
     inkscape:cy="12"
     inkscape:window-x="0"
     inkscape:window-y="25"
     inkscape:window-maximized="0"
     inkscape:current-layer="svg4" />
  <path
     style="line-height:1.25;fill:#1a1a1a"
     d="m 0.873,1.895 v 3.78 H 4.269 V 1.895 Z M 9.695,6.58 5.628,17.23 h 1.521 l 0.968,-2.732 h 4.803 l 0.968,2.733 h 1.5 L 11.328,6.58 Z M 10.508,8 12.471,13.3 H 8.553 Z m 9.172,1.048 c -0.428,0 -0.867,0.05 -1.318,0.144 -0.452,0.09 -0.919,0.227 -1.399,0.412 v 1.214 a 5.29,5.29 0 0 1 1.249,-0.492 c 0.433,-0.11 0.878,-0.166 1.334,-0.166 0.718,0 1.274,0.167 1.669,0.5 0.4,0.328 0.599,0.795 0.599,1.399 v 0.128 h -1.84 c -1.193,0 -2.091,0.228 -2.695,0.685 -0.6,0.456 -0.901,1.133 -0.901,2.032 0,0.77 0.241,1.387 0.722,1.848 0.485,0.456 1.136,0.684 1.954,0.684 0.647,0 1.193,-0.114 1.64,-0.342 0.447,-0.233 0.82,-0.592 1.12,-1.077 v 1.214 h 1.313 v -4.56 c 0,-1.217 -0.285,-2.126 -0.856,-2.725 C 21.701,9.347 20.836,9.048 19.68,9.048 Z M 0.873,10.109 v 3.782 h 3.396 v -3.782 z m 19.636,3.105 h 1.305 v 0.292 c 0,0.856 -0.221,1.543 -0.663,2.061 -0.438,0.514 -1.021,0.77 -1.75,0.77 -0.527,0 -0.944,-0.135 -1.253,-0.406 -0.305,-0.276 -0.458,-0.646 -0.458,-1.112 0,-0.585 0.207,-0.999 0.616,-1.241 0.409,-0.243 1.143,-0.364 2.203,-0.364 z m -19.636,5.11 v 3.781 h 3.396 v -3.78 z"
     id="path2"
     inkscape:connector-curvature="0" />
</svg>
