<?xml version="1.0" encoding="UTF-8" standalone="no"?>
<svg
   xmlns:dc="http://purl.org/dc/elements/1.1/"
   xmlns:cc="http://creativecommons.org/ns#"
   xmlns:rdf="http://www.w3.org/1999/02/22-rdf-syntax-ns#"
   xmlns:svg="http://www.w3.org/2000/svg"
   xmlns="http://www.w3.org/2000/svg"
   xmlns:sodipodi="http://sodipodi.sourceforge.net/DTD/sodipodi-0.dtd"
   xmlns:inkscape="http://www.inkscape.org/namespaces/inkscape"
   viewBox="0 0 24 24"
   version="1.1"
   id="svg11"
   sodipodi:docname="text-x-csharp.svg"
   inkscape:version="0.92.4 (5da689c313, 2019-01-14)">
  <metadata
     id="metadata15">
    <rdf:RDF>
      <cc:Work
         rdf:about="">
        <dc:format>image/svg+xml</dc:format>
        <dc:type
           rdf:resource="http://purl.org/dc/dcmitype/StillImage" />
        <dc:title></dc:title>
      </cc:Work>
    </rdf:RDF>
  </metadata>
  <sodipodi:namedview
     pagecolor="#ffffff"
     bordercolor="#666666"
     borderopacity="1"
     objecttolerance="10"
     gridtolerance="10"
     guidetolerance="10"
     inkscape:pageopacity="0"
     inkscape:pageshadow="2"
     inkscape:window-width="1112"
     inkscape:window-height="480"
     id="namedview13"
     showgrid="false"
     inkscape:zoom="9.8333333"
     inkscape:cx="1.0677966"
     inkscape:cy="12"
     inkscape:window-x="0"
     inkscape:window-y="25"
     inkscape:window-maximized="0"
     inkscape:current-layer="svg11" />
  <defs
     id="defs7">
    <linearGradient
       id="a">
      <stop
         offset="0"
         id="stop2" />
      <stop
         offset="1"
         stop-opacity="0"
         id="stop4" />
    </linearGradient>
  </defs>
  <path
     style="line-height:normal;text-indent:0;text-align:start;text-decoration:none;text-decoration-line:none;text-transform:none;fill:#1a1a1a;marker:none"
     d="m 9.412,5.351 a 11.541,11.541 0 0 0 -1.15,0 11.541,11.541 0 0 0 -0.172,0 c -0.556,0 -1.112,0.124 -1.594,0.247 a 6.055,6.055 0 0 0 -4.881,4.881 c -0.37,2.509 0.247,5.5 2.496,6.97 2.57,1.581 5.931,1.458 8.674,0.543 V 15.434 C 12.971,14.199 12.291,15.002 11.562,15.311 9.857,16.04 7.361,16.04 6.31,14.199 5.458,12.617 5.52,10.417 6.866,9.071 8.51,7.674 11.142,8.156 12.798,9.318 v -3.3 A 11.541,11.541 0 0 0 9.4,5.351 Z m 7.216,1.705 -0.617,2.509 h -2.2 v 1.409 h 1.841 l -0.432,1.828 h -2.2 v 1.41 h 1.829 l -0.605,2.557 h 1.47 l 0.618,-2.558 h 1.755 l -0.618,2.558 h 1.42 l 0.619,-2.558 h 2.249 v -1.409 h -1.83 l 0.42,-1.828 h 2.139 v -1.41 h -1.83 l 0.619,-2.508 h -1.41 l -0.617,2.509 h -1.767 l 0.618,-2.509 z m 0.495,3.918 h 1.767 l -0.495,1.828 h -1.692 z"
     id="path9"
     inkscape:connector-curvature="0" />
</svg>
