<?xml version="1.0" encoding="UTF-8" standalone="no"?>
<!-- Created with Inkscape (http://www.inkscape.org/) -->

<svg
   xmlns:dc="http://purl.org/dc/elements/1.1/"
   xmlns:cc="http://creativecommons.org/ns#"
   xmlns:rdf="http://www.w3.org/1999/02/22-rdf-syntax-ns#"
   xmlns:svg="http://www.w3.org/2000/svg"
   xmlns="http://www.w3.org/2000/svg"
   xmlns:sodipodi="http://sodipodi.sourceforge.net/DTD/sodipodi-0.dtd"
   xmlns:inkscape="http://www.inkscape.org/namespaces/inkscape"
   id="svg2906"
   width="64"
   height="64"
   version="1.0"
   sodipodi:docname="folder-documents.svg"
   inkscape:version="0.92.3 (2405546, 2018-03-11)">
  <metadata
     id="metadata49">
    <rdf:RDF>
      <cc:Work
         rdf:about="">
        <dc:format>image/svg+xml</dc:format>
        <dc:type
           rdf:resource="http://purl.org/dc/dcmitype/StillImage" />
        <dc:title></dc:title>
      </cc:Work>
    </rdf:RDF>
  </metadata>
  <sodipodi:namedview
     pagecolor="#ffffff"
     bordercolor="#666666"
     borderopacity="1"
     objecttolerance="10"
     gridtolerance="10"
     guidetolerance="10"
     inkscape:pageopacity="0"
     inkscape:pageshadow="2"
     inkscape:window-width="1366"
     inkscape:window-height="686"
     id="namedview47"
     showgrid="false"
     inkscape:zoom="5.3916892"
     inkscape:cx="-11.010238"
     inkscape:cy="32.200461"
     inkscape:window-x="0"
     inkscape:window-y="28"
     inkscape:window-maximized="1"
     inkscape:current-layer="svg2906"
     showguides="true"
     inkscape:guide-bbox="true" />
  <defs
     id="defs2908">
    <radialGradient
       id="radialGradient2904"
       cx="3"
       cy="5.0172"
       r="21"
       gradientTransform="matrix(-1.7093e-8 2.28 -2.8952 -1.9417e-8 16.801 2.2898)"
       gradientUnits="userSpaceOnUse">
      <stop
         id="stop3486"
         style="stop-color:#bdbdbd"
         offset="0" />
      <stop
         id="stop3488"
         style="stop-color:#d0d0d0"
         offset="1" />
    </radialGradient>
    <linearGradient
       id="linearGradient2902"
       x1="62.989"
       x2="62.989"
       y1="13.183"
       y2="16.19"
       gradientTransform="matrix(1.3408 0 0 1.33 -68.673 -1.51)"
       gradientUnits="userSpaceOnUse">
      <stop
         id="stop6406"
         style="stop-color:#f9f9f9"
         offset="0" />
      <stop
         id="stop6408"
         style="stop-color:#c9c9c9"
         offset="1" />
    </linearGradient>
    <radialGradient
       id="radialGradient2880"
       cx="605.71"
       cy="486.65"
       r="117.14"
       gradientTransform="matrix(-.03213 0 0 .037059 23.363 25.412)"
       gradientUnits="userSpaceOnUse">
      <stop
         id="stop2681"
         offset="0" />
      <stop
         id="stop2683"
         style="stop-opacity:0"
         offset="1" />
    </radialGradient>
    <radialGradient
       id="radialGradient2878"
       cx="605.71"
       cy="486.65"
       r="117.14"
       gradientTransform="matrix(.03213 0 0 .037059 24.637 25.412)"
       gradientUnits="userSpaceOnUse">
      <stop
         id="stop2675"
         offset="0" />
      <stop
         id="stop2677"
         style="stop-opacity:0"
         offset="1" />
    </radialGradient>
    <linearGradient
       id="linearGradient2876"
       x1="302.86"
       x2="302.86"
       y1="366.65"
       y2="609.51"
       gradientTransform="matrix(.08284 0 0 .037059 -5.9408 25.412)"
       gradientUnits="userSpaceOnUse">
      <stop
         id="stop2667"
         style="stop-opacity:0"
         offset="0" />
      <stop
         id="stop2669"
         offset=".5" />
      <stop
         id="stop2671"
         style="stop-opacity:0"
         offset="1" />
    </linearGradient>
    <linearGradient
       id="linearGradient2895"
       x1="82.453"
       x2="65.34"
       y1="45.114"
       y2="15.944"
       gradientTransform="matrix(1.3408 0 0 1.3265 -72.463 -1.6032)"
       gradientUnits="userSpaceOnUse">
      <stop
         id="stop3624-5"
         style="stop-color:#bb2b12"
         offset="0" />
      <stop
         id="stop3626-7"
         style="stop-color:#cd7233"
         offset="1" />
    </linearGradient>
    <radialGradient
       id="radialGradient2893"
       cx="63.969"
       cy="14.113"
       r="23.097"
       gradientTransform="matrix(2.0979 -1.262e-7 8.2824e-8 1.3475 -115.97 9.3537)"
       gradientUnits="userSpaceOnUse">
      <stop
         id="stop3618-2"
         style="stop-color:#edb763"
         offset="0" />
      <stop
         id="stop2559"
         style="stop-color:#de7f32"
         offset=".5" />
      <stop
         id="stop3620-1"
         style="stop-color:#d24413"
         offset="1" />
    </radialGradient>
    <linearGradient
       id="linearGradient2890"
       x1="22.935"
       x2="22.809"
       y1="49.629"
       y2="36.658"
       gradientTransform="matrix(1.5348 0 0 1.327 -5.0206 -.048542)"
       gradientUnits="userSpaceOnUse">
      <stop
         id="stop2661"
         style="stop-color:#0a0a0a;stop-opacity:.498"
         offset="0" />
      <stop
         id="stop2663"
         style="stop-color:#0a0a0a;stop-opacity:0"
         offset="1" />
    </linearGradient>
    <radialGradient
       id="radialGradient2887"
       cx="7.2647"
       cy="8.3021"
       r="20.98"
       gradientTransform="matrix(0 1.6066 -2.1817 0 34.686 9.2848)"
       gradientUnits="userSpaceOnUse">
      <stop
         id="stop2693"
         style="stop-color:#fff;stop-opacity:.4"
         offset="0" />
      <stop
         id="stop2695"
         style="stop-color:#fff;stop-opacity:0"
         offset="1" />
    </radialGradient>
    <linearGradient
       id="linearGradient2884"
       x1="11.566"
       x2="15.215"
       y1="22.292"
       y2="33.955"
       gradientTransform="matrix(1.3408 0 0 1.33 -.37331 -1.31)"
       gradientUnits="userSpaceOnUse">
      <stop
         id="stop2687"
         style="stop-color:#fff;stop-opacity:.27451"
         offset="0" />
      <stop
         id="stop2689"
         style="stop-color:#fff;stop-opacity:.078431"
         offset="1" />
    </linearGradient>
  </defs>
  <path
     style="fill:#aa4400;stroke-width:0.93863195"
     d="M 27.878906 0.53515625 C 16.856303 0.53515625 7.921875 9.267357 7.921875 20.044922 L 7.921875 52.560547 L 56.707031 52.560547 L 56.707031 20.044922 C 56.707031 9.2682866 47.772599 0.53515625 36.75 0.53515625 L 27.878906 0.53515625 z M 19.212891 18.695312 C 19.555946 18.710863 19.918383 18.795821 20.212891 18.943359 C 20.887623 19.284328 21.152416 19.531625 21.703125 20.353516 C 21.990237 20.787787 22.439528 21.400765 22.703125 21.726562 C 23.416543 22.610655 24.774338 23.865985 25.666016 24.478516 C 27.612461 25.788914 34.886107 30.055058 39.251953 32.443359 C 43.656485 34.847211 44.734143 35.241815 46.828125 35.203125 C 49.053717 35.164439 49.000076 35.158129 49.511719 35.390625 C 50.698094 35.925783 51.092776 36.957253 50.433594 37.787109 C 49.836614 38.531248 49.558596 39.019757 49.271484 39.810547 C 49.108775 40.275919 48.868317 40.809944 48.736328 41.011719 C 48.294472 41.670901 47.231674 42.151664 46.332031 42.089844 C 45.696365 42.051158 45.276593 41.757364 44.664062 40.919922 C 44.400466 40.570988 44.075121 40.135443 43.935547 39.949219 C 43.377253 39.212286 39.09008 36.148969 35.429688 33.869141 C 31.754124 31.581727 25.308674 28.03035 23.222656 27.138672 C 21.919843 26.580377 20.508719 26.356822 19.298828 26.519531 C 18.189825 26.659111 16.816707 26.704403 16.34375 26.603516 C 14.932464 26.308439 14.011043 25.316033 13.662109 23.710938 C 13.499399 22.950869 13.591344 22.564456 14.072266 22.029297 C 14.553188 21.49414 14.755709 21.430664 15.507812 21.554688 C 15.841196 21.608937 16.235654 21.624703 16.382812 21.601562 C 16.855769 21.50864 17.220927 21.012245 17.515625 20.050781 C 17.709435 19.430285 17.950044 19.082333 18.330078 18.857422 C 18.547214 18.7334 18.869836 18.679762 19.212891 18.695312 z M 45.285156 18.708984 C 45.789214 18.724534 45.911883 18.755182 46.152344 18.941406 C 46.470557 19.181867 46.67315 19.52411 46.859375 20.160156 C 47.045599 20.803788 47.39483 21.352688 47.705078 21.507812 C 48.030876 21.65535 48.200796 21.663086 48.90625 21.539062 C 49.580982 21.422625 49.806112 21.509689 50.271484 22.029297 C 50.752409 22.564456 50.844351 22.950868 50.681641 23.710938 C 50.332328 25.316412 49.411286 26.308819 48 26.603516 C 47.527043 26.7044 46.153925 26.659105 45.044922 26.519531 C 43.819861 26.356442 42.43157 26.580225 41.097656 27.146484 C 40.384238 27.448767 36.708085 29.333082 36.560547 29.472656 C 36.513896 29.511346 36.4372 29.542969 36.375 29.542969 C 36.196741 29.542969 33.24271 27.821966 33.3125 27.759766 C 33.343601 27.729044 34.390021 27.099835 35.623047 26.363281 C 38.988742 24.354635 39.554232 23.951176 40.818359 22.632812 C 41.593978 21.826471 41.989554 21.329856 42.710938 20.251953 C 43.22258 19.484299 43.649413 19.105394 44.308594 18.841797 C 44.603292 18.72574 44.843679 18.693814 45.285156 18.708984 z M 28 30.861328 C 28.054236 30.861328 30.434643 32.147907 30.861328 32.404297 L 31.085938 32.544922 L 29.707031 33.382812 C 25.860793 35.724843 21.005183 39.160002 20.408203 39.951172 C 20.268629 40.137397 19.943285 40.570988 19.679688 40.919922 C 19.067156 41.757363 18.647765 42.051154 18.011719 42.089844 C 17.120041 42.151666 16.049505 41.671127 15.615234 41.019531 C 15.483246 40.825721 15.227241 40.259691 15.041016 39.748047 C 14.854792 39.24361 14.585039 38.678413 14.4375 38.492188 C 14.297927 38.305962 14.065128 37.994591 13.917969 37.800781 C 13.250823 36.940203 13.637691 35.925783 14.832031 35.390625 C 15.343674 35.15775 15.343894 35.156475 17.476562 35.203125 C 19.042973 35.242191 20.416237 34.878009 22.277344 33.947266 C 22.920976 33.621847 25.999772 31.954555 27.519531 31.101562 C 27.752406 30.969575 27.9689 30.861328 28 30.861328 z "
     id="path6" />
  <rect
     id="rect2"
     height="8.8831387"
     width="64.219154"
     style="fill:#552200;stroke-width:0.80172729"
     y="54.769371"
     x="0.085094213" />
  <rect
     id="rect4"
     height="6.415422"
     width="53.857635"
     style="fill:#2b1100;stroke-width:0.80172729"
     y="48.725147"
     x="5.2658563" />
</svg>
