<?xml version="1.0" encoding="UTF-8" standalone="no"?>
<!-- Created with Inkscape (http://www.inkscape.org/) -->

<svg
   xmlns:dc="http://purl.org/dc/elements/1.1/"
   xmlns:cc="http://creativecommons.org/ns#"
   xmlns:rdf="http://www.w3.org/1999/02/22-rdf-syntax-ns#"
   xmlns:svg="http://www.w3.org/2000/svg"
   xmlns="http://www.w3.org/2000/svg"
   xmlns:sodipodi="http://sodipodi.sourceforge.net/DTD/sodipodi-0.dtd"
   xmlns:inkscape="http://www.inkscape.org/namespaces/inkscape"
   id="svg2906"
   width="64"
   height="64"
   version="1.0"
   sodipodi:docname="gnome-fs-directory-accept.svg"
   inkscape:version="0.92.3 (2405546, 2018-03-11)">
  <metadata
     id="metadata49">
    <rdf:RDF>
      <cc:Work
         rdf:about="">
        <dc:format>image/svg+xml</dc:format>
        <dc:type
           rdf:resource="http://purl.org/dc/dcmitype/StillImage" />
        <dc:title />
      </cc:Work>
    </rdf:RDF>
  </metadata>
  <sodipodi:namedview
     pagecolor="#ffffff"
     bordercolor="#666666"
     borderopacity="1"
     objecttolerance="10"
     gridtolerance="10"
     guidetolerance="10"
     inkscape:pageopacity="0"
     inkscape:pageshadow="2"
     inkscape:window-width="1366"
     inkscape:window-height="686"
     id="namedview47"
     showgrid="false"
     inkscape:zoom="7.625"
     inkscape:cx="1.5081967"
     inkscape:cy="32"
     inkscape:window-x="0"
     inkscape:window-y="28"
     inkscape:window-maximized="1"
     inkscape:current-layer="svg2906"
     showguides="true"
     inkscape:guide-bbox="true" />
  <defs
     id="defs2908">
    <radialGradient
       id="radialGradient2904"
       cx="3"
       cy="5.0172"
       r="21"
       gradientTransform="matrix(-1.7093e-8 2.28 -2.8952 -1.9417e-8 16.801 2.2898)"
       gradientUnits="userSpaceOnUse">
      <stop
         id="stop3486"
         style="stop-color:#bdbdbd"
         offset="0" />
      <stop
         id="stop3488"
         style="stop-color:#d0d0d0"
         offset="1" />
    </radialGradient>
    <linearGradient
       id="linearGradient2902"
       x1="62.989"
       x2="62.989"
       y1="13.183"
       y2="16.19"
       gradientTransform="matrix(1.3408 0 0 1.33 -68.673 -1.51)"
       gradientUnits="userSpaceOnUse">
      <stop
         id="stop6406"
         style="stop-color:#f9f9f9"
         offset="0" />
      <stop
         id="stop6408"
         style="stop-color:#c9c9c9"
         offset="1" />
    </linearGradient>
    <radialGradient
       id="radialGradient2880"
       cx="605.71"
       cy="486.65"
       r="117.14"
       gradientTransform="matrix(-.03213 0 0 .037059 23.363 25.412)"
       gradientUnits="userSpaceOnUse">
      <stop
         id="stop2681"
         offset="0" />
      <stop
         id="stop2683"
         style="stop-opacity:0"
         offset="1" />
    </radialGradient>
    <radialGradient
       id="radialGradient2878"
       cx="605.71"
       cy="486.65"
       r="117.14"
       gradientTransform="matrix(.03213 0 0 .037059 24.637 25.412)"
       gradientUnits="userSpaceOnUse">
      <stop
         id="stop2675"
         offset="0" />
      <stop
         id="stop2677"
         style="stop-opacity:0"
         offset="1" />
    </radialGradient>
    <linearGradient
       id="linearGradient2876"
       x1="302.86"
       x2="302.86"
       y1="366.65"
       y2="609.51"
       gradientTransform="matrix(.08284 0 0 .037059 -5.9408 25.412)"
       gradientUnits="userSpaceOnUse">
      <stop
         id="stop2667"
         style="stop-opacity:0"
         offset="0" />
      <stop
         id="stop2669"
         offset=".5" />
      <stop
         id="stop2671"
         style="stop-opacity:0"
         offset="1" />
    </linearGradient>
    <linearGradient
       id="linearGradient2895"
       x1="82.453"
       x2="65.34"
       y1="45.114"
       y2="15.944"
       gradientTransform="matrix(1.3408 0 0 1.3265 -72.463 -1.6032)"
       gradientUnits="userSpaceOnUse">
      <stop
         id="stop3624-5"
         style="stop-color:#bb2b12"
         offset="0" />
      <stop
         id="stop3626-7"
         style="stop-color:#cd7233"
         offset="1" />
    </linearGradient>
    <radialGradient
       id="radialGradient2893"
       cx="63.969"
       cy="14.113"
       r="23.097"
       gradientTransform="matrix(2.0979 -1.262e-7 8.2824e-8 1.3475 -115.97 9.3537)"
       gradientUnits="userSpaceOnUse">
      <stop
         id="stop3618-2"
         style="stop-color:#edb763"
         offset="0" />
      <stop
         id="stop2559"
         style="stop-color:#de7f32"
         offset=".5" />
      <stop
         id="stop3620-1"
         style="stop-color:#d24413"
         offset="1" />
    </radialGradient>
    <linearGradient
       id="linearGradient2890"
       x1="22.935"
       x2="22.809"
       y1="49.629"
       y2="36.658"
       gradientTransform="matrix(1.5348 0 0 1.327 -5.0206 -.048542)"
       gradientUnits="userSpaceOnUse">
      <stop
         id="stop2661"
         style="stop-color:#0a0a0a;stop-opacity:.498"
         offset="0" />
      <stop
         id="stop2663"
         style="stop-color:#0a0a0a;stop-opacity:0"
         offset="1" />
    </linearGradient>
    <radialGradient
       id="radialGradient2887"
       cx="7.2647"
       cy="8.3021"
       r="20.98"
       gradientTransform="matrix(0 1.6066 -2.1817 0 34.686 9.2848)"
       gradientUnits="userSpaceOnUse">
      <stop
         id="stop2693"
         style="stop-color:#fff;stop-opacity:.4"
         offset="0" />
      <stop
         id="stop2695"
         style="stop-color:#fff;stop-opacity:0"
         offset="1" />
    </radialGradient>
    <linearGradient
       id="linearGradient2884"
       x1="11.566"
       x2="15.215"
       y1="22.292"
       y2="33.955"
       gradientTransform="matrix(1.3408 0 0 1.33 -.37331 -1.31)"
       gradientUnits="userSpaceOnUse">
      <stop
         id="stop2687"
         style="stop-color:#fff;stop-opacity:.27451"
         offset="0" />
      <stop
         id="stop2689"
         style="stop-color:#fff;stop-opacity:.078431"
         offset="1" />
    </linearGradient>
  </defs>
  <path
     style="fill:#800000;stroke-width:0.93863195"
     d="M 27.878906 0.53515625 C 16.856303 0.53515625 7.921875 9.267357 7.921875 20.044922 L 7.921875 52.560547 L 56.707031 52.560547 L 56.707031 20.044922 C 56.707031 9.2682866 47.772599 0.53515625 36.75 0.53515625 L 27.878906 0.53515625 z M 42.529297 11.941406 C 42.958872 11.871399 43.152017 12.319368 43.117188 12.648438 C 43.086517 12.95758 42.933026 13.427363 43.046875 13.714844 C 43.154485 13.984823 43.493584 14.471901 43.082031 14.693359 C 42.665278 14.918111 41.177923 14.892585 41.740234 13.949219 C 41.818213 13.819428 42.002443 13.773661 42.101562 13.638672 C 42.281953 13.390354 41.801151 12.058027 42.529297 11.941406 z M 35.535156 12.380859 C 35.786239 12.4481 35.942352 12.738227 35.960938 12.986328 C 35.98364 13.296509 35.919882 13.787813 36.083984 14.046875 C 36.240634 14.291381 37.052199 14.627709 36.490234 15.076172 C 36.11819 15.369891 34.460269 15.547414 34.84375 14.517578 C 34.893309 14.375137 35.069405 14.296376 35.140625 14.146484 C 35.274747 13.868534 34.556952 12.644849 35.253906 12.398438 C 35.357358 12.361398 35.451462 12.358446 35.535156 12.380859 z M 48.0625 14.708984 C 48.492941 14.637244 48.684011 15.0843 48.650391 15.414062 C 48.618681 15.723204 48.46623 16.194548 48.580078 16.480469 C 48.687688 16.750448 49.026788 17.239479 48.615234 17.460938 C 48.198483 17.685689 46.710952 17.659991 47.273438 16.716797 C 47.350376 16.587007 47.535646 16.540199 47.634766 16.40625 C 47.815157 16.158798 47.334354 14.825605 48.0625 14.708984 z M 42.037109 15.253906 C 42.037109 15.253906 43.793614 15.326464 43.236328 16.267578 C 43.02232 16.628531 42.888379 16.511636 42.617188 17.876953 C 42.552724 18.184188 42.343834 18.817436 42.433594 19.111328 C 42.516944 19.391357 43.094278 19.772531 42.589844 20.283203 C 42.589844 20.283203 40.029553 20.321745 41.113281 19.097656 C 41.214133 18.984328 41.351075 18.754018 41.460938 18.628906 C 41.6668 18.396703 41.824334 17.341434 41.5625 16.455078 C 41.5625 16.455078 40.927735 15.108347 42.037109 15.253906 z M 36.148438 15.757812 C 36.540539 15.79039 36.897906 15.953854 36.753906 16.480469 C 36.645775 16.88561 36.4837 16.810509 36.585938 18.199219 C 36.608638 18.50992 36.576133 19.177918 36.740234 19.4375 C 36.897057 19.683739 37.556595 19.896664 37.208984 20.523438 C 37.208984 20.523437 34.753947 21.244553 35.46875 19.777344 C 35.533732 19.641315 35.607554 19.380881 35.677734 19.230469 C 35.812724 18.952866 35.683805 17.895791 35.195312 17.111328 C 35.195312 17.111328 34.220657 15.982083 35.328125 15.824219 C 35.328125 15.824219 35.756336 15.725235 36.148438 15.757812 z M 52.517578 17.880859 C 52.947153 17.809638 53.140299 18.257089 53.105469 18.587891 C 53.073759 18.897205 52.921307 19.367463 53.035156 19.652344 C 53.143976 19.923536 53.481913 20.411181 53.072266 20.632812 C 52.654475 20.857564 51.167984 20.835031 51.730469 19.890625 C 51.806195 19.760834 51.988601 19.713115 52.087891 19.578125 C 52.269321 19.330674 51.788566 17.99748 52.517578 17.880859 z M 47.427734 18.013672 C 47.427734 18.013672 48.938119 18.072448 48.458984 18.792969 C 48.273222 19.071092 48.160236 18.981612 47.925781 20.029297 C 47.874142 20.263579 47.691678 20.749857 47.767578 20.974609 C 47.839321 21.188789 48.33877 21.484067 47.90625 21.875 C 47.90625 21.875 45.708995 21.903359 46.638672 20.964844 L 46.9375 20.603516 C 47.11165 20.425206 47.248188 19.617993 47.023438 18.9375 C 47.023437 18.9375 46.47397 17.90173 47.427734 18.013672 z M 42.078125 20.931641 C 42.574978 20.977431 43.008416 21.172877 42.751953 21.775391 C 42.552674 22.237544 42.364455 22.142556 42.296875 23.748047 C 42.280935 24.106921 42.143467 24.875493 42.316406 25.183594 C 42.477735 25.475407 43.284506 25.753192 42.753906 26.458984 C 42.753906 26.458984 39.408817 27.212857 40.521484 25.554688 C 40.625282 25.401156 40.760112 25.136917 40.875 24.964844 C 41.082423 24.650331 41.123213 22.941203 40.726562 22.255859 C 40.726562 22.255859 39.593565 21.118465 41.019531 20.990234 C 41.019531 20.990234 41.581272 20.88585 42.078125 20.931641 z M 37.070312 21.052734 C 37.568877 21.032525 38.023455 21.170675 37.847656 21.802734 C 37.713706 22.286547 37.51121 22.217201 37.65625 23.818359 C 37.686402 24.176021 37.652866 24.954959 37.861328 25.238281 C 38.062339 25.503755 38.898971 25.674145 38.466797 26.443359 C 38.466797 26.443359 35.245936 27.63053 36.132812 25.837891 C 36.215123 25.672923 36.31545 25.392667 36.40625 25.208984 C 36.571911 24.868651 36.386771 23.169616 35.90625 22.544922 C 35.90625 22.544922 34.63019 21.566293 36.029297 21.251953 C 36.029297 21.251953 36.571748 21.072944 37.070312 21.052734 z M 51.65625 21.357422 C 51.734157 21.358242 51.830074 21.37529 51.943359 21.414062 C 51.943359 21.414063 53.401972 21.794734 52.789062 22.341797 C 52.551661 22.554418 52.459503 22.448383 52.019531 23.34375 C 51.920412 23.545801 51.644198 23.94755 51.673828 24.167969 C 51.701208 24.376432 52.127182 24.753051 51.625 25.013672 C 51.625 25.013672 49.472895 24.557378 50.570312 23.910156 C 50.672724 23.852106 50.824517 23.715328 50.9375 23.648438 C 51.144403 23.527658 51.440645 22.825399 51.359375 22.160156 C 51.359375 22.160156 51.110902 21.351684 51.65625 21.357422 z M 46.453125 22.375 C 46.820967 22.411801 47.19802 22.587341 47.4375 22.964844 C 47.646482 23.289234 47.39033 23.71552 46.910156 24.052734 C 46.361361 24.438468 46.103671 25.986866 46.232422 26.642578 C 46.290473 26.955012 46.801017 27.41196 46.349609 27.910156 C 45.97202 28.322749 45.112099 28.113915 44.552734 27.527344 C 44.322784 27.284051 44.376193 26.790194 44.964844 26.583984 C 45.573597 26.372402 45.642578 23.876953 45.642578 23.876953 C 45.642578 23.876953 44.936692 23.111603 45.523438 22.611328 C 45.726529 22.438563 46.085283 22.338199 46.453125 22.375 z M 49.962891 25.007812 C 50.064162 25.024823 50.182727 25.066892 50.322266 25.140625 C 50.322266 25.140625 52.145337 25.937953 51.234375 26.525391 C 50.884165 26.750143 50.786901 26.593519 50.029297 27.671875 C 49.86069 27.911356 49.417656 28.377983 49.410156 28.671875 C 49.403918 28.949478 49.880659 29.526571 49.173828 29.761719 C 49.173828 29.761719 46.466734 28.731563 48.027344 28.113281 C 48.171864 28.056096 48.398258 27.912859 48.556641 27.849609 C 48.85088 27.729348 49.381736 26.877898 49.410156 25.994141 C 49.410156 25.994141 49.253992 24.888739 49.962891 25.007812 z M 25.443359 25.736328 C 25.649324 25.698577 25.970958 25.854097 26.453125 26.40625 C 26.811826 26.819363 27.486939 27.379821 27.511719 27.820312 C 27.547589 28.483997 26.512602 29.642946 25.158203 26.582031 C 25.076759 26.396399 25.100085 25.799247 25.443359 25.736328 z M 41.0625 27.242188 C 41.543454 27.221285 42.067792 27.450681 42.34375 27.582031 C 43.721716 28.241035 41.990234 30.054688 41.990234 30.054688 C 41.461713 34.882076 42.462891 35.587891 42.462891 35.587891 C 43.617146 34.654055 44.021056 31.953033 43.816406 30.703125 C 43.350961 27.836809 44.452 28.467489 45.054688 28.582031 C 47.258706 29.000515 45.843116 29.97217 45.644531 30.40625 C 44.037654 33.925333 44.12458 35.57954 44.640625 35.824219 C 45.386619 36.178935 46.391719 32.952977 46.349609 31.880859 C 46.271457 29.852378 47.047389 29.805062 47.644531 29.820312 C 50.059958 29.880961 47.880166 31.883606 47.880859 31.878906 C 46.289578 33.468108 46.111328 36.587891 46.111328 36.587891 C 46.34665 38.646523 43.933594 37.46875 43.933594 37.46875 C 43.169752 37.176588 40.402344 37.115234 40.402344 37.115234 C 36.692994 37.410859 37.824677 36.052652 37.929688 35.292969 C 38.16501 33.585586 37.519528 30.901891 36.871094 29.759766 C 35.284665 26.96571 37.22312 27.285156 37.400391 27.285156 C 39.772497 27.285156 38.695312 29.464844 38.695312 29.464844 C 38.106487 31.821181 39.871094 35.587891 39.871094 35.587891 C 41.165884 36.293683 40.636719 30.054688 40.636719 30.054688 C 40.165555 29.584737 40.000308 28.842977 40.048828 28.408203 C 40.145089 27.535277 40.581546 27.26309 41.0625 27.242188 z M 28.376953 28.519531 C 29.334279 28.560178 28.748047 29.820312 28.748047 29.820312 L 30.337891 31.761719 C 32.513664 31.761719 30.75 33.176075 30.75 33.171875 C 28.808509 34.469611 29.220703 32.291016 29.220703 32.291016 L 27.75 30.466797 C 27.335674 30.525887 26.746094 30.291016 26.746094 30.291016 C 25.686279 29.526134 27.865234 28.583984 27.865234 28.583984 C 28.071184 28.5328 28.240192 28.513725 28.376953 28.519531 z M 32.361328 32.923828 C 33.329832 32.957609 33.103516 34.353516 33.103516 34.353516 C 35.813528 37.415645 36.578125 37.0625 36.578125 37.0625 C 38.285507 37.534183 36.107016 39.242188 36.103516 39.242188 C 34.869549 39.831012 34.630859 37.945312 34.630859 37.945312 L 32.101562 35.414062 C 31.631439 35.414062 31.042969 35.119141 31.042969 35.119141 C 29.572641 34.236944 31.869141 33.001953 31.869141 33.001953 C 32.060405 32.943144 32.22297 32.919002 32.361328 32.923828 z M 40.912109 37.673828 C 42.104054 37.607373 43.613229 37.828546 44.878906 38.976562 C 44.878906 38.976563 46.671705 40.773798 44.525391 41.451172 C 43.077763 41.905006 40.374253 42.068135 38.521484 40.863281 C 38.521484 40.863281 36.313434 39.241767 38.84375 38.09375 C 38.84375 38.09375 39.720165 37.740283 40.912109 37.673828 z M 38.453125 41.660156 C 39.528521 41.527154 41.580078 42.652344 41.580078 42.652344 C 42.992875 43.948 40.050781 49.011719 40.050781 49.011719 L 38.166016 48.775391 C 38.049395 47.716097 37.814453 42.300781 37.814453 42.300781 C 37.843608 41.888708 38.09466 41.70449 38.453125 41.660156 z M 44.476562 42.507812 C 45.473434 42.524465 45.598674 43.326601 45.701172 48.660156 L 43.701172 48.775391 C 43.701172 48.775391 41.639142 42.77763 43.992188 42.537109 C 44.172621 42.518373 44.334152 42.505434 44.476562 42.507812 z "
     id="path6" />
  <rect
     id="rect2"
     height="8.8831387"
     width="64.219154"
     style="fill:#550000;stroke-width:0.80172729"
     y="54.769371"
     x="0.085094213" />
  <rect
     id="rect4"
     height="6.415422"
     width="53.857635"
     style="fill:#2b0000;stroke-width:0.80172729"
     y="48.725147"
     x="5.2658563" />
</svg>
