<svg xmlns="http://www.w3.org/2000/svg" width="24" height="24" viewBox="0 0 6.35 6.35"><path fill="#1a1a1a" d="M3.28 2.26a.4.4 0 0 1 .81 0v1.73a.4.4 0 0 1-.81 0zm-1.02 0c0-.23.18-.41.4-.41.23 0 .41.18.41.4v1.29a.6.6 0 0 0-.4-.16h-.41zM1.24.53a.4.4 0 0 1 .82 0v2.85h-.41a.6.6 0 0 0-.41.16V.52zM5.1 4.4a1.84 1.84 0 0 1-1.83 1.83h-.2A1.84 1.84 0 0 1 1.23 4.4v-.41c0-.22.18-.4.4-.4H2.78v.15a.05.05 0 0 1-.05.05H2.3a.05.05 0 0 0 0 .1h.46a.1.1 0 0 0 .1-.1v-.15a.4.4 0 0 1-.2.76h-.51a.1.1 0 0 0 0 .2h.48a.65.65 0 0 0 .53-.27.61.61 0 0 0 1.13-.34V1.14a.4.4 0 0 1 .81 0V4.4z"/></svg>