<svg xmlns="http://www.w3.org/2000/svg" width="24" height="24"><path d="M5.93 3.62v2.4H3.47c-1.2 0-2.16.97-2.16 2.17v8.7c0 1.2.97 2.15 2.16 2.15h17.06c1.2 0 2.16-.96 2.16-2.16v-8.7c0-1.2-.97-2.15-2.16-2.15h-5.69l-.02 1.52h4.85c.92 0 1.66.74 1.66 1.65v6.66c0 .92-.74 1.66-1.66 1.66H4.33c-.92 0-1.66-.74-1.66-1.66V9.2c0-.91.74-1.65 1.66-1.65h1.6v2.47l5.12-3.2-5.12-3.2zm8.84 5.1v1.82h4.05V8.72h-4.05zm0 2.93v1.82h4.05v-1.82h-4.05zm0 2.93v1.82h4.05v-1.82h-4.05z" fill="#1a1a1a"/><text style="line-height:1.25" x="14.53" y="15.48" font-weight="400" font-size="5.33" font-family="sans-serif" letter-spacing="0" word-spacing="0"/></svg>