<svg xmlns="http://www.w3.org/2000/svg" width="24" height="24"><path fill="#1a1a1a" d="M4.98 2.97a2 2 0 0 0-2 2v14a2 2 0 0 0 2 2h14a2 2 0 0 0 2-2v-14a2 2 0 0 0-2-2zm7 2.8c1.13 0 2.2.31 3.11.84l-3.11 2.27L8.86 6.6a6.2 6.2 0 0 1 3.12-.83zM7.8 7.4l1.19 3.66-3.12 2.27A6.23 6.23 0 0 1 7.8 7.39zm8.36 0a6.23 6.23 0 0 1 1.93 5.93l-3.13-2.27zm-7.24.43l2.26 1.64-1.4 1.01zm6.11 0l-.86 2.65-1.4-1.01zm-3.05 2.22l1.88 1.37-.72 2.22h-2.33l-.72-2.22zm-2.69 1.95l.53 1.64H7.03zm5.37 0l2.26 1.64h-2.8zm-8.39 2.57h3.86l1.19 3.67a6.26 6.26 0 0 1-5.05-3.67zm4.84 0h1.73l-.86 2.66zm2.71 0h3.86a6.26 6.26 0 0 1-5.05 3.67z"/></svg>