<svg xmlns="http://www.w3.org/2000/svg" width="24" height="24" version="1"><path d="M11.96 1.08c-3.4 0-8 3.3-8.07 6.1-.08 3.04-.3 8.53-.46 12.75H1.35v2.76H22.7v-2.76h-2.24c-.15-4.92-.32-10.58-.45-12.75-.17-2.91-4.64-6.1-8.05-6.1zm0 1.57c2.56 0 6.49 2.93 6.48 5.46-.02 1.72.07 5.68.05 11.82H5.39l.02-.01c-.04-6.61.1-11.87.1-11.87 0-2.45 3.9-5.4 6.45-5.4zM12 7.67a4.33 4.33 0 1 0 0 8.66h2.7s.51 0 .55-.54c0-.55-.54-.55-.54-.55H12A3.25 3.25 0 1 1 15.24 12v.54a.54.54 0 0 1-1.09 0V12a2.16 2.16 0 1 0-.7 1.58 1.62 1.62 0 0 0 2.87-1.04V12A4.33 4.33 0 0 0 12 7.67zm0 3.25a1.08 1.08 0 1 1 0 2.16 1.08 1.08 0 0 1 0-2.16z" fill="#e6e6e6"/></svg>
