<svg xmlns="http://www.w3.org/2000/svg" width="24" height="24" viewBox="0 0 12.7 12.7"><defs><linearGradient id="d"><stop offset="0" stop-color="#000001"/><stop offset="1" stop-color="#050000" stop-opacity="0"/></linearGradient><linearGradient id="a"><stop offset="0" stop-color="#241c1c"/><stop offset="1" stop-color="#e6e6e6" stop-opacity="0"/></linearGradient><linearGradient id="b"><stop offset="0" stop-color="#e6e6e6"/><stop offset="1"/></linearGradient><linearGradient id="c"><stop offset="0"/><stop offset="1" stop-color="#e6e6e6"/></linearGradient></defs><path d="M6.327.439l.002.002c-2.5 0-4.558 2.276-4.517 4.327.037 1.79.613 3.553.756 3.996l.37 1.222c.205.679.851 1.071 1.505.986.068-.009.135.006.202-.015.718-.209 1.113-.98.885-1.727l-.51-1.684c-.225-.749-.987-1.18-1.703-.969a1.299 1.299 0 0 0-.246.1c-.17-1.014-.144-1.814-.144-1.814 0-1.795 1.52-3.262 3.402-3.262 1.88 0 3.406 1.38 3.4 3.24a9.413 9.413 0 0 1-.175 1.828c-.055-.026-.108-.052-.166-.07-.718-.21-1.477.224-1.705.972l-.509 1.682c-.228.749.167 1.52.885 1.732.093.026.187.014.28.02l.001-.003a1.388 1.388 0 0 0 1.422-.992l.112-.368.21.077-.011 1.087c-.004.329-.092.531-.2.65a.561.561 0 0 1-.45.182H7.607a.62.62 0 0 0-.616-.621h-.013a.62.62 0 0 0-.616.623.617.617 0 0 0 .616.621.311.311 0 0 0 .006 0h2.44a1.213 1.213 0 0 0 .909-.385c.233-.26.355-.625.359-1.067l.017-1.525-.653-.239.084-.283h.013c.17-.488.735-2.414.735-3.996 0-2.141-2.06-4.327-4.561-4.327z" fill="#e6e6e6"/></svg>
