<?xml version="1.0" encoding="UTF-8" standalone="no"?>
<svg
   xmlns:dc="http://purl.org/dc/elements/1.1/"
   xmlns:cc="http://creativecommons.org/ns#"
   xmlns:rdf="http://www.w3.org/1999/02/22-rdf-syntax-ns#"
   xmlns:svg="http://www.w3.org/2000/svg"
   xmlns="http://www.w3.org/2000/svg"
   xmlns:sodipodi="http://sodipodi.sourceforge.net/DTD/sodipodi-0.dtd"
   xmlns:inkscape="http://www.inkscape.org/namespaces/inkscape"
   width="24"
   height="24"
   version="1"
   id="svg21"
   sodipodi:docname="cpu.svg"
   inkscape:version="0.92.4 (5da689c313, 2019-01-14)">
  <metadata
     id="metadata25">
    <rdf:RDF>
      <cc:Work
         rdf:about="">
        <dc:format>image/svg+xml</dc:format>
        <dc:type
           rdf:resource="http://purl.org/dc/dcmitype/StillImage" />
        <dc:title></dc:title>
      </cc:Work>
    </rdf:RDF>
  </metadata>
  <sodipodi:namedview
     pagecolor="#ffffff"
     bordercolor="#666666"
     borderopacity="1"
     objecttolerance="10"
     gridtolerance="10"
     guidetolerance="10"
     inkscape:pageopacity="0"
     inkscape:pageshadow="2"
     inkscape:window-width="1138"
     inkscape:window-height="480"
     id="namedview23"
     showgrid="false"
     inkscape:zoom="9.8333333"
     inkscape:cx="1.0677966"
     inkscape:cy="12"
     inkscape:window-x="0"
     inkscape:window-y="25"
     inkscape:window-maximized="0"
     inkscape:current-layer="svg21" />
  <defs
     id="defs17">
    <linearGradient
       id="b">
      <stop
         offset="0"
         stop-color="#e6e6e6"
         id="stop2" />
      <stop
         offset="1"
         stop-color="#4d4d4d"
         id="stop4" />
    </linearGradient>
    <linearGradient
       id="c">
      <stop
         offset="0"
         stop-color="#001"
         id="stop7" />
      <stop
         offset="1"
         stop-opacity="0"
         id="stop9" />
    </linearGradient>
    <linearGradient
       id="a">
      <stop
         offset="0"
         stop-color="#22241c"
         id="stop12" />
      <stop
         offset="1"
         stop-color="#e6e6e6"
         stop-opacity="0"
         id="stop14" />
    </linearGradient>
  </defs>
  <path
     class="ColorScheme-Text"
     d="M 8.7,1 V 4.3 H 9.8 V 1 Z m 2.2,0 V 4.3 H 12 V 1 Z m 2.2,0 v 3.3 h 1.1 V 1 Z M 6.5,5.4 C 5.89,5.4 5.4,5.89 5.4,6.5 v 11 c 0,0.61 0.49,1.1 1.1,1.1 h 11 c 0.61,0 1.1,-0.49 1.1,-1.1 V 6.5 C 18.6,5.89 18.11,5.4 17.5,5.4 Z M 19.7,8.7 V 9.8 H 23 V 8.7 Z M 1,9.8 v 1.1 H 4.3 V 9.8 Z m 18.7,1.1 V 12 H 23 V 10.9 Z M 1,12 v 1.1 H 4.3 V 12 Z m 18.7,1.1 v 1.1 H 23 V 13.1 Z M 1,14.2 v 1.1 h 3.3 v -1.1 z m 8.8,5.5 V 23 h 1.1 v -3.3 z m 2.2,0 V 23 h 1.1 v -3.3 z m 2.2,0 V 23 h 1.1 v -3.3 z"
     id="path19"
     inkscape:connector-curvature="0"
     style="color:#090d11;fill:#e6e6e6" />
</svg>
