<svg xmlns="http://www.w3.org/2000/svg" width="24" height="24" viewBox="0 0 6.35 6.35"><defs><linearGradient id="b"><stop offset="0" stop-color="#babdb6"/><stop offset="1" stop-color="#eeeeec"/></linearGradient><linearGradient id="a"><stop offset="0" stop-opacity=".98"/><stop offset="1" stop-opacity="0"/></linearGradient></defs><path d="M54.45 50.86a1.26 1.26 0 1 0 0 2.53h2.92v4.55h2.62v-4.55h2.68a1.26 1.26 0 1 0 0-2.53zm2.92 7.08H53.6c-.5 0-.98.4-1.08.9l-1.57 8.48c-.09.5.25.9.75.9h4.59v.03h4.54v-.03h4.6c.5 0 .83-.4.74-.9l-1.57-8.49c-.1-.5-.57-.9-1.08-.9h-3.49v3.72h2.54l-3.98 3.27-3.82-3.27h2.6z" fill="#e6e6e6"/><path style="marker:none" d="M.81.23a.58.58 0 0 0-.58.58v4.73c0 .32.26.58.58.58h4.73c.32 0 .58-.26.58-.58V.8a.58.58 0 0 0-.58-.58zm3.53.44a1.33 1.33 0 0 1 .54.13c.05-.09.1-.12.18-.12.12 0 .17.05.17.21v.5c0 .16-.03.22-.2.22-.11 0-.15-.06-.19-.18-.06-.22-.18-.34-.46-.34-.38 0-.6.26-.6.77 0 .5.22.77.6.77.37 0 .58-.27.75-.27.1 0 .17.1.17.22 0 .2-.43.47-.95.47-.67 0-1.11-.5-1.11-1.2 0-.66.45-1.18 1.1-1.18zm-2.41 0a1.23 1.23 0 0 1 .5.11c.04-.1.08-.1.19-.1.12 0 .15.03.16.2v.38c0 .14-.04.2-.19.2-.16 0-.17-.08-.22-.18a.42.42 0 0 0-.4-.23c-.23 0-.37.12-.37.28 0 .2.21.21.6.3.47.1.7.3.7.69 0 .46-.33.72-.92.72-.2 0-.37-.02-.57-.1-.04.08-.1.1-.18.1-.15 0-.21-.04-.22-.2V2.37c0-.16.05-.23.2-.23.15 0 .17.11.24.25.1.2.27.3.53.3.23 0 .37-.1.37-.29 0-.24-.22-.24-.65-.35-.42-.11-.65-.26-.65-.64 0-.43.36-.74.88-.74zm1.36 2.7h.3c.12 0 .2.06.25.2l.37 1.08.36-1.08c.05-.14.13-.2.26-.2h.3c.16 0 .23.06.23.21 0 .14-.07.21-.2.21h-.04l.06 1.41h.03c.13 0 .2.07.2.2 0 .17-.07.22-.23.22h-.43c-.16 0-.24-.05-.24-.21 0-.14.07-.2.2-.2h.04l-.03-1.16-.28.86c-.04.13-.11.18-.24.18-.12 0-.2-.05-.24-.18l-.27-.86-.03 1.15h.03c.14 0 .2.07.2.2 0 .17-.07.22-.23.22h-.43c-.16 0-.23-.05-.23-.21 0-.14.07-.2.2-.2h.03l.06-1.42h-.03c-.14 0-.21-.07-.21-.2 0-.16.08-.22.24-.22zm-1.98 0h1.13c.16 0 .24.05.24.21 0 .16-.08.21-.24.21h-.32V5.2h.32c.15 0 .23.05.23.2 0 .16-.07.22-.23.22H1.3c-.16 0-.24-.05-.24-.21 0-.16.08-.2.24-.2h.32V3.78H1.3c-.16 0-.24-.05-.24-.2 0-.17.08-.21.24-.21z" overflow="visible" fill="#e6e6e6" fill-rule="evenodd" stroke-width=".89"/></svg>
