<?xml version="1.0" encoding="UTF-8" standalone="no"?>
<!-- Created with Inkscape (http://www.inkscape.org/) -->

<svg
   xmlns:dc="http://purl.org/dc/elements/1.1/"
   xmlns:cc="http://creativecommons.org/ns#"
   xmlns:rdf="http://www.w3.org/1999/02/22-rdf-syntax-ns#"
   xmlns:svg="http://www.w3.org/2000/svg"
   xmlns="http://www.w3.org/2000/svg"
   xmlns:xlink="http://www.w3.org/1999/xlink"
   xmlns:sodipodi="http://sodipodi.sourceforge.net/DTD/sodipodi-0.dtd"
   xmlns:inkscape="http://www.inkscape.org/namespaces/inkscape"
   width="48"
   height="48"
   viewBox="0 0 12.7 12.7"
   version="1.1"
   id="svg829"
   inkscape:version="0.92.3 (2405546, 2018-03-11)"
   sodipodi:docname="application-x-clementine.svg">
  <defs
     id="defs823">
    <linearGradient
       id="linearGradient1033">
      <stop
         id="stop1029"
         offset="0"
         style="stop-color:#000000;stop-opacity:1" />
      <stop
         id="stop1031"
         offset="1"
         style="stop-color:#000000;stop-opacity:0" />
    </linearGradient>
    <linearGradient
       xlink:href="#blue-gradient-5"
       id="linearGradient4351"
       x1="24"
       y1="1008.362"
       x2="24"
       y2="1048.3621"
       gradientUnits="userSpaceOnUse"
       gradientTransform="matrix(0.25135416,0,0,0.25135416,0.31750034,32.214723)" />
    <linearGradient
       id="blue-gradient-5">
      <stop
         style="stop-color:#054e87;stop-opacity:1"
         offset="0"
         id="stop2" />
      <stop
         style="stop-color:#1d99f3;stop-opacity:1"
         offset="1"
         id="stop4" />
    </linearGradient>
    <clipPath
       clipPathUnits="userSpaceOnUse"
       id="clipPath6018">
      <path
         inkscape:connector-curvature="0"
         style="fill:#fda864;stroke:none"
         d="m 505.7188,535.46875 c -0.0913,0.006 -0.19131,0.0169 -0.28125,0.0312 -0.0854,0.0137 -0.16595,0.0411 -0.25,0.0625 -0.01,0.003 -0.0213,-0.003 -0.0312,0 -0.0938,0.025 -0.19066,0.0593 -0.28125,0.0937 -1.79515,0.60007 -4.41142,2.89744 -5.28125,4.875 -0.37352,0.81205 -0.6923,1.71506 -0.96875,2.8125 -0.51252,2.03105 -0.65384,4.74515 -0.25,7.9375 0.3298,2.69483 1.08634,5.84095 2.5625,9.21875 0.91661,2.44272 2.74644,5.44877 6.15625,8.4375 0.40045,0.29688 0.78917,0.57928 1.1875,0.84375 3.20319,2.12655 6.07314,3.06958 8.3125,3.4375 3.67177,0.81981 6.96924,0.98331 9.78125,0.8125 3.34236,-0.19132 6.12479,-0.83507 8.125,-1.75 0.84192,-0.45733 1.95625,-1.13921 2.5625,-1.6875 1.786,-1.61523 3.19802,-3.02233 3.96875,-4.25 0.031,-0.043 0.065,-0.0816 0.0937,-0.125 0.0859,-0.14409 0.15233,-0.26698 0.21875,-0.40625 0.0327,-0.0654 0.066,-0.1212 0.0937,-0.1875 0.0488,-0.11704 0.0914,-0.23009 0.125,-0.34375 0.009,-0.0679 0.0235,-0.0718 0.0312,-0.125 0.01,-0.0396 0.0234,-0.0858 0.0312,-0.125 0.0139,-0.0884 0.0233,-0.24156 0.0312,-0.28125 0.0149,-0.0743 -7.3e-4,-0.0622 0,-0.0625 -6.8e-4,-4.5e-4 0.004,-0.018 0,-0.0937 -0.005,-0.0773 -8.2e-4,-0.21231 0,-0.5 -0.024,-0.1922 -0.0676,-0.40226 -0.125,-0.59375 -0.1152,-0.3785 -0.28887,-0.75013 -0.53125,-1.125 -0.47138,-0.72912 -1.16539,-1.44783 -2.0625,-2.15625 -1.66351,-1.31335 -3.99576,-2.58272 -6.71875,-3.8125 -2.31868,-1.04924 -4.86763,-2.00674 -7.34375,-3.0625 -1.72915,-0.84294 -3.0941,-1.28598 -3.59375,-1.6875 -0.0621,-0.0499 -0.0901,-0.10636 -0.125,-0.15625 -0.45282,-0.0886 -1.1746,-1.31192 -2.4375,-2.84375 -1.45776,-1.97251 -2.84903,-4.05918 -4.25,-5.96875 -1.6371,-2.2372 -3.21894,-4.12471 -4.71875,-5.40625 -0.8097,-0.69174 -1.59101,-1.19859 -2.34375,-1.5 -0.38731,-0.15511 -0.75607,-0.27401 -1.125,-0.3125 -0.18689,-0.0199 -0.3809,-0.0121 -0.5625,0 z"
         id="path6020" />
    </clipPath>
    <inkscape:path-effect
       effect="bend_path"
       id="path-effect2873"
       is_visible="true"
       bendpath="m 493.92856,544.77289 c 0,0 14.5273,11.15646 22.519,11.15146 7.93979,-0.005 24.44529,-11.15146 24.44529,-11.15146"
       prop_scale="1"
       scale_y_rel="false"
       vertical="false"
       bendpath-nodetypes="csc" />
    <clipPath
       clipPathUnits="userSpaceOnUse"
       id="clipPath5802">
      <path
         inkscape:connector-curvature="0"
         style="fill:#241c1c;stroke:none"
         d="m 505.71875,535.46875 c -0.0913,0.006 -0.19131,0.0169 -0.28125,0.0312 -0.0955,0.0153 -0.1874,0.0375 -0.28125,0.0625 -0.0844,0.0225 -0.16817,0.0636 -0.25,0.0937 -0.003,0.005 -0.0284,-0.005 -0.0312,0 -0.79083,1.25489 -1.4864,2.70521 -1.71875,4.09375 -0.3364,2.01031 -0.60558,4.59838 -0.21875,7.65625 0.31871,2.60411 1.03448,5.62431 2.46875,8.90625 a 1.0096098,0.99067979 1.5151289 0 1 0,0.0625 c 0.85048,2.26648 2.57266,5.1072 5.8125,7.96875 0.0263,0.0232 0.0673,0.0393 0.0937,0.0625 0.36148,0.26611 0.70356,0.54293 1.0625,0.78125 3.08915,2.05084 5.83226,2.96661 7.9375,3.3125 a 1.0096098,0.99067979 1.5151289 0 1 0.0625,0 c 3.57728,0.79896 6.80296,0.94697 9.53125,0.78125 l -0.0312,0.0312 c 2.7977,-0.24267 5.93557,-0.42426 8.34375,-1.34375 1.4935,-0.57027 2.4005,-1.43904 3.1875,-2.34375 0.0506,-0.11958 0.12205,-0.22132 0.15625,-0.34375 0.0391,-0.28476 0.0785,-0.45542 0.0937,-0.53125 0.015,-0.0749 -7.3e-4,-0.0621 0,-0.0625 -6.8e-4,-4.2e-4 0.005,-0.018 0,-0.0937 -0.005,-0.0773 -8.1e-4,-0.21231 0,-0.5 -0.024,-0.1922 -0.0676,-0.40226 -0.125,-0.59375 -0.1152,-0.3785 -0.28887,-0.75013 -0.53125,-1.125 -0.47139,-0.72912 -1.16519,-1.44809 -2.0625,-2.15625 -1.66351,-1.31336 -3.99576,-2.58272 -6.71875,-3.8125 -2.31867,-1.04924 -4.86763,-2.00675 -7.34375,-3.0625 -1.72915,-0.84294 -3.09392,-1.28622 -3.59375,-1.6875 -0.0621,-0.0499 -0.0901,-0.10636 -0.125,-0.15625 -0.45281,-0.0886 -1.17461,-1.31192 -2.4375,-2.84375 -1.45775,-1.97251 -2.84904,-4.05918 -4.25,-5.96875 -1.6371,-2.2372 -3.21891,-4.12475 -4.71875,-5.40625 -0.80971,-0.69174 -1.59101,-1.19859 -2.34375,-1.5 -0.3873,-0.15511 -0.75608,-0.274 -1.125,-0.3125 -0.1869,-0.0199 -0.3809,-0.0121 -0.5625,0 z"
         id="path5804" />
    </clipPath>
    <clipPath
       clipPathUnits="userSpaceOnUse"
       id="clipPath6018-3">
      <path
         inkscape:connector-curvature="0"
         style="fill:#fda864;stroke:none"
         d="m 505.7188,535.46875 c -0.0913,0.006 -0.19131,0.0169 -0.28125,0.0312 -0.0854,0.0137 -0.16595,0.0411 -0.25,0.0625 -0.01,0.003 -0.0213,-0.003 -0.0312,0 -0.0938,0.025 -0.19066,0.0593 -0.28125,0.0937 -1.79515,0.60007 -4.41142,2.89744 -5.28125,4.875 -0.37352,0.81205 -0.6923,1.71506 -0.96875,2.8125 -0.51252,2.03105 -0.65384,4.74515 -0.25,7.9375 0.3298,2.69483 1.08634,5.84095 2.5625,9.21875 0.91661,2.44272 2.74644,5.44877 6.15625,8.4375 0.40045,0.29688 0.78917,0.57928 1.1875,0.84375 3.20319,2.12655 6.07314,3.06958 8.3125,3.4375 3.67177,0.81981 6.96924,0.98331 9.78125,0.8125 3.34236,-0.19132 6.12479,-0.83507 8.125,-1.75 0.84192,-0.45733 1.95625,-1.13921 2.5625,-1.6875 1.786,-1.61523 3.19802,-3.02233 3.96875,-4.25 0.031,-0.043 0.065,-0.0816 0.0937,-0.125 0.0859,-0.14409 0.15233,-0.26698 0.21875,-0.40625 0.0327,-0.0654 0.066,-0.1212 0.0937,-0.1875 0.0488,-0.11704 0.0914,-0.23009 0.125,-0.34375 0.009,-0.0679 0.0235,-0.0718 0.0312,-0.125 0.01,-0.0396 0.0234,-0.0858 0.0312,-0.125 0.0139,-0.0884 0.0233,-0.24156 0.0312,-0.28125 0.0149,-0.0743 -7.3e-4,-0.0622 0,-0.0625 -6.8e-4,-4.5e-4 0.004,-0.018 0,-0.0937 -0.005,-0.0773 -8.2e-4,-0.21231 0,-0.5 -0.024,-0.1922 -0.0676,-0.40226 -0.125,-0.59375 -0.1152,-0.3785 -0.28887,-0.75013 -0.53125,-1.125 -0.47138,-0.72912 -1.16539,-1.44783 -2.0625,-2.15625 -1.66351,-1.31335 -3.99576,-2.58272 -6.71875,-3.8125 -2.31868,-1.04924 -4.86763,-2.00674 -7.34375,-3.0625 -1.72915,-0.84294 -3.0941,-1.28598 -3.59375,-1.6875 -0.0621,-0.0499 -0.0901,-0.10636 -0.125,-0.15625 -0.45282,-0.0886 -1.1746,-1.31192 -2.4375,-2.84375 -1.45776,-1.97251 -2.84903,-4.05918 -4.25,-5.96875 -1.6371,-2.2372 -3.21894,-4.12471 -4.71875,-5.40625 -0.8097,-0.69174 -1.59101,-1.19859 -2.34375,-1.5 -0.38731,-0.15511 -0.75607,-0.27401 -1.125,-0.3125 -0.18689,-0.0199 -0.3809,-0.0121 -0.5625,0 z"
         id="path6020-6" />
    </clipPath>
    <inkscape:path-effect
       effect="bend_path"
       id="path-effect2873-7"
       is_visible="true"
       bendpath="m 493.92856,544.77289 c 0,0 14.5273,11.15646 22.519,11.15146 7.93979,-0.005 24.44529,-11.15146 24.44529,-11.15146"
       prop_scale="1"
       scale_y_rel="false"
       vertical="false"
       bendpath-nodetypes="csc" />
    <clipPath
       clipPathUnits="userSpaceOnUse"
       id="clipPath5802-5">
      <path
         inkscape:connector-curvature="0"
         style="fill:#241c1c;stroke:none"
         d="m 505.71875,535.46875 c -0.0913,0.006 -0.19131,0.0169 -0.28125,0.0312 -0.0955,0.0153 -0.1874,0.0375 -0.28125,0.0625 -0.0844,0.0225 -0.16817,0.0636 -0.25,0.0937 -0.003,0.005 -0.0284,-0.005 -0.0312,0 -0.79083,1.25489 -1.4864,2.70521 -1.71875,4.09375 -0.3364,2.01031 -0.60558,4.59838 -0.21875,7.65625 0.31871,2.60411 1.03448,5.62431 2.46875,8.90625 a 1.0096098,0.99067979 1.5151289 0 1 0,0.0625 c 0.85048,2.26648 2.57266,5.1072 5.8125,7.96875 0.0263,0.0232 0.0673,0.0393 0.0937,0.0625 0.36148,0.26611 0.70356,0.54293 1.0625,0.78125 3.08915,2.05084 5.83226,2.96661 7.9375,3.3125 a 1.0096098,0.99067979 1.5151289 0 1 0.0625,0 c 3.57728,0.79896 6.80296,0.94697 9.53125,0.78125 l -0.0312,0.0312 c 2.7977,-0.24267 5.93557,-0.42426 8.34375,-1.34375 1.4935,-0.57027 2.4005,-1.43904 3.1875,-2.34375 0.0506,-0.11958 0.12205,-0.22132 0.15625,-0.34375 0.0391,-0.28476 0.0785,-0.45542 0.0937,-0.53125 0.015,-0.0749 -7.3e-4,-0.0621 0,-0.0625 -6.8e-4,-4.2e-4 0.005,-0.018 0,-0.0937 -0.005,-0.0773 -8.1e-4,-0.21231 0,-0.5 -0.024,-0.1922 -0.0676,-0.40226 -0.125,-0.59375 -0.1152,-0.3785 -0.28887,-0.75013 -0.53125,-1.125 -0.47139,-0.72912 -1.16519,-1.44809 -2.0625,-2.15625 -1.66351,-1.31336 -3.99576,-2.58272 -6.71875,-3.8125 -2.31867,-1.04924 -4.86763,-2.00675 -7.34375,-3.0625 -1.72915,-0.84294 -3.09392,-1.28622 -3.59375,-1.6875 -0.0621,-0.0499 -0.0901,-0.10636 -0.125,-0.15625 -0.45281,-0.0886 -1.17461,-1.31192 -2.4375,-2.84375 -1.45775,-1.97251 -2.84904,-4.05918 -4.25,-5.96875 -1.6371,-2.2372 -3.21891,-4.12475 -4.71875,-5.40625 -0.80971,-0.69174 -1.59101,-1.19859 -2.34375,-1.5 -0.3873,-0.15511 -0.75608,-0.274 -1.125,-0.3125 -0.1869,-0.0199 -0.3809,-0.0121 -0.5625,0 z"
         id="path5804-3" />
    </clipPath>
    <clipPath
       clipPathUnits="userSpaceOnUse"
       id="clipPath6018-3-5">
      <path
         inkscape:connector-curvature="0"
         style="fill:#fda864;stroke:none"
         d="m 505.7188,535.46875 c -0.0913,0.006 -0.19131,0.0169 -0.28125,0.0312 -0.0854,0.0137 -0.16595,0.0411 -0.25,0.0625 -0.01,0.003 -0.0213,-0.003 -0.0312,0 -0.0938,0.025 -0.19066,0.0593 -0.28125,0.0937 -1.79515,0.60007 -4.41142,2.89744 -5.28125,4.875 -0.37352,0.81205 -0.6923,1.71506 -0.96875,2.8125 -0.51252,2.03105 -0.65384,4.74515 -0.25,7.9375 0.3298,2.69483 1.08634,5.84095 2.5625,9.21875 0.91661,2.44272 2.74644,5.44877 6.15625,8.4375 0.40045,0.29688 0.78917,0.57928 1.1875,0.84375 3.20319,2.12655 6.07314,3.06958 8.3125,3.4375 3.67177,0.81981 6.96924,0.98331 9.78125,0.8125 3.34236,-0.19132 6.12479,-0.83507 8.125,-1.75 0.84192,-0.45733 1.95625,-1.13921 2.5625,-1.6875 1.786,-1.61523 3.19802,-3.02233 3.96875,-4.25 0.031,-0.043 0.065,-0.0816 0.0937,-0.125 0.0859,-0.14409 0.15233,-0.26698 0.21875,-0.40625 0.0327,-0.0654 0.066,-0.1212 0.0937,-0.1875 0.0488,-0.11704 0.0914,-0.23009 0.125,-0.34375 0.009,-0.0679 0.0235,-0.0718 0.0312,-0.125 0.01,-0.0396 0.0234,-0.0858 0.0312,-0.125 0.0139,-0.0884 0.0233,-0.24156 0.0312,-0.28125 0.0149,-0.0743 -7.3e-4,-0.0622 0,-0.0625 -6.8e-4,-4.5e-4 0.004,-0.018 0,-0.0937 -0.005,-0.0773 -8.2e-4,-0.21231 0,-0.5 -0.024,-0.1922 -0.0676,-0.40226 -0.125,-0.59375 -0.1152,-0.3785 -0.28887,-0.75013 -0.53125,-1.125 -0.47138,-0.72912 -1.16539,-1.44783 -2.0625,-2.15625 -1.66351,-1.31335 -3.99576,-2.58272 -6.71875,-3.8125 -2.31868,-1.04924 -4.86763,-2.00674 -7.34375,-3.0625 -1.72915,-0.84294 -3.0941,-1.28598 -3.59375,-1.6875 -0.0621,-0.0499 -0.0901,-0.10636 -0.125,-0.15625 -0.45282,-0.0886 -1.1746,-1.31192 -2.4375,-2.84375 -1.45776,-1.97251 -2.84903,-4.05918 -4.25,-5.96875 -1.6371,-2.2372 -3.21894,-4.12471 -4.71875,-5.40625 -0.8097,-0.69174 -1.59101,-1.19859 -2.34375,-1.5 -0.38731,-0.15511 -0.75607,-0.27401 -1.125,-0.3125 -0.18689,-0.0199 -0.3809,-0.0121 -0.5625,0 z"
         id="path6020-6-6" />
    </clipPath>
    <inkscape:path-effect
       effect="bend_path"
       id="path-effect2873-7-2"
       is_visible="true"
       bendpath="m 493.92856,544.77289 c 0,0 14.5273,11.15646 22.519,11.15146 7.93979,-0.005 24.44529,-11.15146 24.44529,-11.15146"
       prop_scale="1"
       scale_y_rel="false"
       vertical="false"
       bendpath-nodetypes="csc" />
    <clipPath
       clipPathUnits="userSpaceOnUse"
       id="clipPath5802-5-9">
      <path
         inkscape:connector-curvature="0"
         style="fill:#241c1c;stroke:none"
         d="m 505.71875,535.46875 c -0.0913,0.006 -0.19131,0.0169 -0.28125,0.0312 -0.0955,0.0153 -0.1874,0.0375 -0.28125,0.0625 -0.0844,0.0225 -0.16817,0.0636 -0.25,0.0937 -0.003,0.005 -0.0284,-0.005 -0.0312,0 -0.79083,1.25489 -1.4864,2.70521 -1.71875,4.09375 -0.3364,2.01031 -0.60558,4.59838 -0.21875,7.65625 0.31871,2.60411 1.03448,5.62431 2.46875,8.90625 a 1.0096098,0.99067979 1.5151289 0 1 0,0.0625 c 0.85048,2.26648 2.57266,5.1072 5.8125,7.96875 0.0263,0.0232 0.0673,0.0393 0.0937,0.0625 0.36148,0.26611 0.70356,0.54293 1.0625,0.78125 3.08915,2.05084 5.83226,2.96661 7.9375,3.3125 a 1.0096098,0.99067979 1.5151289 0 1 0.0625,0 c 3.57728,0.79896 6.80296,0.94697 9.53125,0.78125 l -0.0312,0.0312 c 2.7977,-0.24267 5.93557,-0.42426 8.34375,-1.34375 1.4935,-0.57027 2.4005,-1.43904 3.1875,-2.34375 0.0506,-0.11958 0.12205,-0.22132 0.15625,-0.34375 0.0391,-0.28476 0.0785,-0.45542 0.0937,-0.53125 0.015,-0.0749 -7.3e-4,-0.0621 0,-0.0625 -6.8e-4,-4.2e-4 0.005,-0.018 0,-0.0937 -0.005,-0.0773 -8.1e-4,-0.21231 0,-0.5 -0.024,-0.1922 -0.0676,-0.40226 -0.125,-0.59375 -0.1152,-0.3785 -0.28887,-0.75013 -0.53125,-1.125 -0.47139,-0.72912 -1.16519,-1.44809 -2.0625,-2.15625 -1.66351,-1.31336 -3.99576,-2.58272 -6.71875,-3.8125 -2.31867,-1.04924 -4.86763,-2.00675 -7.34375,-3.0625 -1.72915,-0.84294 -3.09392,-1.28622 -3.59375,-1.6875 -0.0621,-0.0499 -0.0901,-0.10636 -0.125,-0.15625 -0.45281,-0.0886 -1.17461,-1.31192 -2.4375,-2.84375 -1.45775,-1.97251 -2.84904,-4.05918 -4.25,-5.96875 -1.6371,-2.2372 -3.21891,-4.12475 -4.71875,-5.40625 -0.80971,-0.69174 -1.59101,-1.19859 -2.34375,-1.5 -0.3873,-0.15511 -0.75608,-0.274 -1.125,-0.3125 -0.1869,-0.0199 -0.3809,-0.0121 -0.5625,0 z"
         id="path5804-3-1" />
    </clipPath>
    <filter
       style="color-interpolation-filters:sRGB"
       inkscape:collect="always"
       id="filter5814">
      <feGaussianBlur
         inkscape:collect="always"
         stdDeviation="0.34837003"
         id="feGaussianBlur5816" />
    </filter>
    <radialGradient
       inkscape:collect="always"
       xlink:href="#linearGradient5196"
       id="radialGradient3848"
       gradientUnits="userSpaceOnUse"
       cx="520.73364"
       cy="551.07397"
       fx="520.73364"
       fy="551.07397"
       r="15.404826" />
    <linearGradient
       inkscape:collect="always"
       id="linearGradient5196">
      <stop
         style="stop-color:#ffffff;stop-opacity:1;"
         offset="0"
         id="stop5198" />
      <stop
         style="stop-color:#ffffff;stop-opacity:0;"
         offset="1"
         id="stop5200" />
    </linearGradient>
    <linearGradient
       inkscape:collect="always"
       xlink:href="#linearGradient1033"
       id="linearGradient1053"
       gradientUnits="userSpaceOnUse"
       x1="5.0071945"
       y1="288.07251"
       x2="10.974661"
       y2="294.8277" />
  </defs>
  <sodipodi:namedview
     id="base"
     pagecolor="#ffffff"
     bordercolor="#666666"
     borderopacity="1.0"
     inkscape:pageopacity="0.0"
     inkscape:pageshadow="2"
     inkscape:zoom="2.65625"
     inkscape:cx="24"
     inkscape:cy="24"
     inkscape:document-units="mm"
     inkscape:current-layer="layer1"
     showgrid="false"
     showguides="true"
     inkscape:guide-bbox="true"
     inkscape:window-width="1366"
     inkscape:window-height="719"
     inkscape:window-x="0"
     inkscape:window-y="25"
     inkscape:window-maximized="1"
     scale-x="1.9"
     units="px"
     inkscape:snap-global="true"
     inkscape:snap-smooth-nodes="true" />
  <metadata
     id="metadata826">
    <rdf:RDF>
      <cc:Work
         rdf:about="">
        <dc:format>image/svg+xml</dc:format>
        <dc:type
           rdf:resource="http://purl.org/dc/dcmitype/StillImage" />
        <dc:title />
      </cc:Work>
    </rdf:RDF>
  </metadata>
  <g
     inkscape:label="Capa 1"
     inkscape:groupmode="layer"
     id="layer1"
     transform="translate(0,-284.3)">
    <g
       id="g1064">
      <path
         inkscape:connector-curvature="0"
         id="path833"
         d="m 6.3502584,284.39147 c -1.5434368,0 -2.7839987,0.29643 -3.6871137,0.8816 -1.0851073,0.7031 -1.6588137,1.82603 -1.6588137,3.24683 0,1.91207 1.5362412,4.46762 2.0071128,5.20537 0.5375664,0.84219 1.1245074,1.60861 1.6526123,2.158 0.6726666,0.69964 1.2086564,1.02527 1.6862023,1.02527 0.4775703,0 1.0130917,-0.32561 1.685685,-1.02527 0.5280803,-0.54937 1.115046,-1.31579 1.6526121,-2.158 0.4708715,-0.73773 2.0071135,-3.2933 2.0071135,-5.20537 2.4e-5,-1.42078 -0.573143,-2.5437 -1.658297,-3.24683 -0.9030667,-0.58517 -2.1437014,-0.8816 -3.6871136,-0.8816 z"
         style="fill:#3771c8;fill-opacity:1;stroke-width:0.02444816" />
      <path
         inkscape:connector-curvature="0"
         id="path1019"
         d="m 8.3266233,295.50448 c 0.449644,-0.51215 0.919023,-1.0849 1.36219,-1.77922 0.235436,-0.36886 0.7368537,-1.19202 1.1797717,-2.16214 0.02264,-0.0496 0.03714,-0.10574 0.05943,-0.15606 l -1.0872707,-1.08727 -2.942456,0.55965 -2.6696037,0.5271 z"
         style="fill:url(#linearGradient1053);fill-opacity:1;stroke:none;stroke-width:0.26458332px;stroke-linecap:butt;stroke-linejoin:miter;stroke-opacity:1;opacity:0.65" />
      <path
         id="path833-1"
         d="m 6.3499999,284.39147 c -1.5434366,0 -2.7839985,0.29643 -3.6871135,0.8816 -1.0851073,0.7031 -1.6588134,1.82603 -1.6588134,3.24683 0,1.91207 1.5362411,4.46762 2.0071125,5.20537 0.5375664,0.84219 1.1245075,1.60861 1.6526124,2.15801 0.6726666,0.69963 1.2086563,1.02526 1.686202,1.02526 0.4775705,0 1.0130922,-0.32561 1.6856853,-1.02526 0.5280803,-0.54938 1.1150462,-1.3158 1.6526123,-2.15801 0.4708715,-0.73773 2.0076295,-3.2933 2.0076295,-5.20537 2.4e-5,-1.42078 -0.573659,-2.5437 -1.658814,-3.24683 -0.9030659,-0.58517 -2.1437006,-0.8816 -3.6871131,-0.8816 z m 0,0.0382 c 0.5590315,0.0224 1.0903969,0.0719 1.5549438,0.18294 0.3079843,0.0736 0.5955773,0.16587 0.8629965,0.27595 0.2674189,0.11008 0.5142399,0.23818 0.7400065,0.38447 0.2712887,0.17578 0.5109353,0.37775 0.7172683,0.6041 0.206334,0.22635 0.379365,0.47723 0.518832,0.75034 0.139466,0.27311 0.245056,0.56864 0.315743,0.8847 0.07069,0.31606 0.106976,0.6525 0.10697,1.00769 0,0.47802 -0.09615,0.99619 -0.24753,1.51619 -0.15138,0.51999 -0.35835,1.04198 -0.57981,1.52704 -0.4429192,0.97011 -0.9448531,1.79328 -1.1802891,2.16214 -0.5375662,0.84221 -1.1245321,1.60863 -1.6526124,2.15801 -0.3362965,0.34982 -0.6380557,0.60628 -0.9157065,0.77514 -0.084437,0.0513 -0.1635244,0.0811 -0.2408121,0.10335 -0.077023,-0.0222 -0.1560145,-0.0521 -0.2402954,-0.10335 -0.2777739,-0.16886 -0.5804067,-0.42533 -0.91674,-0.77514 -0.5281049,-0.5494 -1.1150459,-1.31582 -1.6526123,-2.15801 -0.2354358,-0.36888 -0.7368535,-1.19203 -1.1797729,-2.16214 -0.2214596,-0.48506 -0.4284295,-1.00705 -0.5798095,-1.52704 -0.1513801,-0.52 -0.2475301,-1.03817 -0.2475301,-1.51619 0,-0.3552 0.03623,-0.69163 0.1069702,-1.00769 0.07074,-0.31606 0.1762104,-0.61159 0.315743,-0.8847 0.1395325,-0.27311 0.31297,-0.52399 0.5193481,-0.75034 0.2063783,-0.22635 0.4454753,-0.42832 0.7167521,-0.6041 0.2257788,-0.14629 0.4731038,-0.27439 0.7405232,-0.38447 0.2674194,-0.11008 0.5550167,-0.20233 0.8629965,-0.27595 0.4645234,-0.11106 0.9955051,-0.16048 1.5544271,-0.18294 z"
         style="opacity:0.3;fill:#280b0b;stroke-width:0.02444816"
         inkscape:connector-curvature="0" />
      <g
         id="g31"
         clip-path="url(#clipPath6018-3-5)"
         transform="matrix(0.16545035,0,0,0.16545035,-79.667932,197.27489)">
        <path
           id="path21"
           style="fill:#fda864;stroke:none"
           d="m 541.61557,565.02626 c -0.30586,1.51742 -2.1024,3.34028 -4.56491,5.56734 -0.60625,0.54829 -1.70874,1.24285 -2.55066,1.70018 0,0 0,0 0,0 -2.00021,0.91493 -4.77171,1.56087 -8.11407,1.75219 0,0 0,0 0,0 -2.81201,0.17081 -6.11698,0.006 -9.78875,-0.81381 -2.23936,-0.36792 -5.11477,-1.32147 -8.31796,-3.44802 -0.39833,-0.26447 -0.79829,-0.54503 -1.19874,-0.84191 -3.40981,-2.98873 -5.23372,-6.01411 -6.15033,-8.45683 0,0 0,0 0,0 -1.47616,-3.3778 -2.22285,-6.50015 -2.55265,-9.19498 0,0 0,0 0,0 -0.40384,-3.19235 -0.27096,-5.90767 0.24156,-7.93872 0,0 0,0 0,0 0.27645,-1.09744 0.59661,-2.00424 0.97013,-2.81629 0.92068,-2.09316 3.81342,-4.58163 5.6008,-4.99512 12.71422,18.65864 17.57657,21.60293 36.42558,29.48597 z"
           sodipodi:nodetypes="cscscccscccccccccc"
           inkscape:connector-curvature="0" />
        <path
           id="path23"
           sodipodi:type="arc"
           style="fill:#fd9146;stroke:none"
           sodipodi:cx="517.41071"
           sodipodi:cy="544.77289"
           sodipodi:rx="23.482143"
           sodipodi:ry="8.6607141"
           d="m 540.79708,544.83062 c 1.48289,2.32534 -0.55031,6.55883 -5.69495,11.57232 -2.17993,1.92927 -4.99842,3.90954 -8.4327,5.57708 -2.08786,1.15877 -5.05485,2.21268 -8.93541,2.52708 -0.41755,0.0338 -0.84463,0.0589 -1.28103,0.0746 -4.46648,-0.20384 -7.81396,-1.40947 -10.08995,-2.77737 -3.26507,-1.73821 -5.86478,-3.76079 -7.82722,-5.69534 0,0 -10e-6,0 -10e-6,0 -4.50258,-5.01881 -6.19331,-9.18739 -4.69993,-11.39866 1.48972,-2.20584 5.97965,-2.21869 12.03595,-0.10312 0,0 1e-5,0 1e-5,0 2.27609,0.61438 4.62682,1.37543 6.89364,1.96224 1.99718,0.42543 3.28479,0.89642 3.67665,0.69753 0.0508,0.0154 0.1095,0.0239 0.17631,0.0263 0.61718,0.0225 1.96412,-0.47545 3.93221,-0.90844 2.5243,-0.67077 5.1234,-1.46729 7.61675,-2.08032 6.37063,-1.94219 11.15331,-1.78904 12.62968,0.52606 z"
           transform="matrix(0.77733565,0.62010176,-0.60691279,0.79079385,451.84591,-201.52813)"
           inkscape:path-effect="#path-effect2873-7-2" />
        <path
           id="path25"
           style="opacity:0.6;fill:none;stroke:#ffffff;stroke-width:2;stroke-linecap:round;stroke-linejoin:round;stroke-opacity:1"
           d="m 542.84493,565.48113 c -0.96502,1.15255 -2.09501,2.58 -4.26842,3.40989 -2.62439,1.00203 -5.84851,1.16464 -8.61915,1.40495 0,0 0,0 0,0 -2.81201,0.17081 -6.11698,0.006 -9.78875,-0.81381 -2.23936,-0.36792 -5.11477,-1.32147 -8.31796,-3.44802 -0.39833,-0.26447 -0.79829,-0.54503 -1.19874,-0.84191 -3.40981,-2.98873 -5.23372,-6.01411 -6.15033,-8.45683 0,0 0,0 0,0 -1.47616,-3.3778 -2.22285,-6.50015 -2.55265,-9.19498 0,0 0,0 0,0 -0.40384,-3.19235 -0.10275,-5.88097 0.24156,-7.93872 0.28586,-1.70837 1.13112,-3.41026 2.04883,-4.80092"
           sodipodi:nodetypes="cscccscccccsc"
           inkscape:connector-curvature="0" />
        <path
           id="path27"
           style="opacity:0.15;fill:none;stroke:#ffffff;stroke-width:1;stroke-linecap:round;stroke-linejoin:round;stroke-miterlimit:4;filter:url(#filter5814)"
           d="m 522.14286,552.8979 c -0.2381,-0.11905 -0.90252,-0.54538 -0.71429,-0.35715 0.24543,0.24543 0.62184,0.3189 0.89286,0.53572 0.0465,0.0372 -0.0421,0.13648 0,0.17857 0.0842,0.0842 0.27296,-0.0842 0.35714,0 0.0421,0.0421 -0.0421,0.13648 0,0.17857 0.0365,0.0365 0.46491,-0.0354 0.53572,0 0.0753,0.0376 0.10328,0.14093 0.17857,0.17857 0.0795,0.0397 0.63261,-0.0272 0.71428,0 0.0799,0.0266 0.10328,0.14093 0.17858,0.17857 0.10647,0.0532 0.25066,-0.0532 0.35714,0 0.0753,0.0376 0.10328,0.14093 0.17857,0.17857 0.0532,0.0266 0.12533,-0.0266 0.17857,0 0.0753,0.0376 0.10328,0.14093 0.17857,0.17858 0.10648,0.0532 0.27297,-0.0842 0.35715,0 0.0421,0.0421 -0.0421,0.13648 0,0.17857 0.0553,0.0553 0.83756,-0.0553 0.89285,0 0.0421,0.0421 -0.0421,0.13648 0,0.17857 0.0421,0.0421 0.12533,-0.0266 0.17857,0 0.15059,0.0753 0.20656,0.28185 0.35715,0.35714 0.0532,0.0266 0.13648,-0.0421 0.17857,0 0.0421,0.0421 -0.0421,0.13648 0,0.17857 0.0421,0.0421 0.12533,-0.0266 0.17857,0 0.0753,0.0376 0.10328,0.14093 0.17857,0.17857 0.10648,0.0532 0.27296,-0.0842 0.35714,0 0.0421,0.0421 -0.0421,0.13649 0,0.17858 0.0842,0.0842 0.27297,-0.0842 0.35715,0 0.0421,0.0421 -0.0421,0.13648 0,0.17857 0.0421,0.0421 0.12533,-0.0266 0.17857,0 0.0753,0.0376 0.10328,0.14092 0.17857,0.17857 0.10648,0.0532 0.25066,-0.0532 0.35714,0 0.0753,0.0376 0.10328,0.14092 0.17857,0.17857 0.0795,0.0397 0.63261,-0.0272 0.71429,0 0.0799,0.0266 0.10328,0.14093 0.17857,0.17857 0.11693,0.0585 0.73439,-0.0528 0.89286,0 0.12627,0.0421 0.23087,0.13648 0.35714,0.17857 0.0565,0.0188 0.12533,-0.0266 0.17857,0 0.0753,0.0376 0.10328,0.14093 0.17857,0.17857 0.10648,0.0532 0.27297,-0.0842 0.35715,0 0.0421,0.0421 -0.0421,0.13649 0,0.17858 0.0842,0.0842 0.27296,-0.0842 0.35714,0 0.0421,0.0421 -0.0421,0.13648 0,0.17857 0.0421,0.0421 0.13648,-0.0421 0.17857,0 0.0421,0.0421 -0.033,0.12904 0,0.17857 0.088,0.13207 0.64084,0.56739 0.71429,0.71428 0.0266,0.0532 -0.0421,0.13649 0,0.17858 0.0421,0.0421 0.13648,-0.0421 0.17857,0 0.0421,0.0421 -0.0266,0.12533 0,0.17857 0.0376,0.0753 0.14092,0.10328 0.17857,0.17857 0.0532,0.10648 -0.0842,0.27296 0,0.35714 0.0421,0.0421 0.13648,-0.0421 0.17857,0 0.0421,0.0421 -0.0421,0.13648 0,0.17857 0.0421,0.0421 0.13648,-0.0421 0.17857,0 0.0842,0.0842 -0.0532,0.25067 0,0.35715 0.0376,0.0753 0.14093,0.10327 0.17857,0.17857 0.0532,0.10648 -0.0532,0.25066 0,0.35714 0.0376,0.0753 0.14093,0.10328 0.17858,0.17857 0.0266,0.0532 -0.0266,0.12533 0,0.17857 0.0376,0.0753 0.13187,0.10853 0.17857,0.17857 0.0738,0.11075 0.10474,0.2464 0.17857,0.35715 0.0467,0.07 0.14092,0.10328 0.17857,0.17857 0.0532,0.10648 -0.0532,0.25066 0,0.35714 0.0376,0.0753 0.14092,0.10328 0.17857,0.17857 0.12316,0.24632 -0.21626,0.15973 0.17857,0.35715 0.0532,0.0266 0.13648,-0.0421 0.17857,0 0.0596,0.0596 -0.0596,0.29756 0,0.35714 0.0421,0.0421 0.11905,0 0.17858,0 0,0.0595 -0.0266,0.12533 0,0.17857 0.11896,0.23793 0.23817,0.11921 0.35714,0.35714 0.0266,0.0532 -0.0421,0.13648 0,0.17857 0.0421,0.0421 0.13648,-0.0421 0.17857,0 0.0421,0.0421 -0.0266,0.12534 0,0.17858 0.0753,0.15058 0.28185,0.20655 0.35714,0.35714 0.0266,0.0532 -0.0421,0.13648 0,0.17857 0.0421,0.0421 0.13648,-0.0421 0.17857,0 0.0421,0.0421 -0.0421,0.13648 0,0.17857 0.0421,0.0421 0.13649,-0.0421 0.17858,0 0.0421,0.0421 -0.0421,0.13648 0,0.17857 0.0842,0.0842 0.25066,-0.0532 0.35714,0 0.15058,0.0753 0.20656,0.28185 0.35714,0.35715 0.0532,0.0266 0.13648,-0.0421 0.17857,0 0.0421,0.0421 -0.0421,0.13648 0,0.17857 0.0421,0.0421 0.13648,-0.0421 0.17857,0 0.0842,0.0842 -0.0532,0.25066 0,0.35714 0.0376,0.0753 0.14093,0.10328 0.17858,0.17857 0.0266,0.0532 -0.0421,0.13648 0,0.17857 0.0421,0.0421 0.13648,-0.0421 0.17857,0 0.0893,0.0893 -0.0893,0.44643 0,0.53572 0.0421,0.0421 0.13648,-0.0421 0.17857,0 0.0365,0.0365 -0.0354,0.46491 0,0.53571 0.0376,0.0753 0.14092,0.10328 0.17857,0.17857 0.0714,0.14286 -0.0714,0.39286 0,0.53572 0.0376,0.0753 0.14092,0.10328 0.17857,0.17857 0.0532,0.10648 -0.0532,0.25066 0,0.35714 0.22684,0.45367 0.21343,-0.18288 0.35714,0.53572 0.035,0.1751 -0.035,0.36061 0,0.53571 0.0261,0.13051 0.13649,0.23087 0.17858,0.35714 0.0188,0.0565 0.0595,0.17857 0,0.17857 -0.0595,0 -0.0595,-0.17857 0,-0.17857 0.0595,0 0,0.2381 0,0.17857 0,-0.11904 0,-0.23809 0,-0.35714 M 523.57143,554.1479 c -0.2381,-0.17858 -0.92473,-0.74617 -0.71429,-0.53572 0.29762,0.2381 0.59524,0.47619 0.89286,0.71429 0.0595,0 0.12533,-0.0266 0.17857,0 0.0753,0.0376 0.10328,0.14092 0.17857,0.17857 0.10648,0.0532 0.25067,-0.0532 0.35715,0 0.0753,0.0376 0.10328,0.14092 0.17857,0.17857 0.0532,0.0266 0.12533,-0.0266 0.17857,0 0.0753,0.0376 0.10328,0.14093 0.17857,0.17857 0.0532,0.0266 0.13648,-0.0421 0.17857,0 0.0421,0.0421 -0.0421,0.13648 0,0.17857 0.0421,0.0421 0.12533,-0.0266 0.17857,0 0.0753,0.0376 0.10328,0.14093 0.17858,0.17857 0.0532,0.0266 0.13648,-0.0421 0.17857,0 0.0421,0.0421 -0.0421,0.13649 0,0.17858 0.0842,0.0842 0.27296,-0.0842 0.35714,0 0.0421,0.0421 -0.0421,0.13648 0,0.17857 0.0842,0.0842 0.27296,-0.0842 0.35714,0 0.0421,0.0421 -0.0421,0.13648 0,0.17857 0.0842,0.0842 0.25067,-0.0532 0.35715,0 0.0753,0.0376 0.10327,0.14092 0.17857,0.17857 0.10648,0.0532 0.27296,-0.0842 0.35714,0 0.0421,0.0421 -0.0421,0.13648 0,0.17857 0.0842,0.0842 0.27296,-0.0842 0.35714,0 0.0421,0.0421 -0.0421,0.13648 0,0.17857 0.0421,0.0421 0.12533,-0.0266 0.17857,0 0.15059,0.0753 0.20656,0.28185 0.35715,0.35715 0.0532,0.0266 0.12533,-0.0266 0.17857,0 0.21428,0.10714 0.32143,0.42857 0.53571,0.53571 0.0532,0.0266 0.12533,-0.0266 0.17857,0 0.0753,0.0376 0.10328,0.14093 0.17858,0.17857 0.0532,0.0266 0.13648,-0.0421 0.17857,0 0.0421,0.0421 -0.0421,0.13648 0,0.17857 0.0842,0.0842 0.25066,-0.0532 0.35714,0 0.15058,0.0753 0.20656,0.28185 0.35714,0.35715 0.10648,0.0532 0.27297,-0.0842 0.35715,0 0.0421,0.0421 -0.0421,0.13648 0,0.17857 0.0421,0.0421 0.12533,-0.0266 0.17857,0 0.0753,0.0376 0.10328,0.14092 0.17857,0.17857 0.0532,0.0266 0.13648,-0.0421 0.17857,0 0.0421,0.0421 -0.0421,0.13648 0,0.17857 0.0421,0.0421 0.13648,-0.0421 0.17857,0 0.0421,0.0421 -0.0266,0.12533 0,0.17857 0.40863,0.81725 -0.074,-0.75775 0.35714,0.53572 0.0376,0.11293 -0.0842,0.27296 0,0.35714 0.0421,0.0421 0.13649,-0.0421 0.17858,0 0.0489,0.0489 -0.0484,0.61741 0,0.71428 0.0376,0.0753 0.14092,0.10328 0.17857,0.17858 0.0714,0.14285 -0.0714,0.39285 0,0.53571 0.0376,0.0753 0.14092,0.10328 0.17857,0.17857 0.0532,0.10648 -0.0532,0.25067 0,0.35714 0.0376,0.0753 0.14092,0.10328 0.17857,0.17858 0.0532,0.10648 -0.0842,0.27296 0,0.35714 0.0421,0.0421 0.13648,-0.0421 0.17857,0 0.0893,0.0893 -0.0893,0.44643 0,0.53571 0.0421,0.0421 0.13648,-0.0421 0.17857,0 0.0842,0.0842 -0.0532,0.25067 0,0.35715 0.0376,0.0753 0.14093,0.10327 0.17857,0.17857 0.0532,0.10648 -0.0532,0.25066 0,0.35714 0.0376,0.0753 0.14093,0.10328 0.17858,0.17857 0.0354,0.0708 -0.0365,0.49921 0,0.53572 0.0421,0.0421 0.13648,-0.0421 0.17857,0 0.0421,0.0421 -0.0266,0.12533 0,0.17857 0.0376,0.0753 0.14092,0.10328 0.17857,0.17857 0.0532,0.10648 -0.0532,0.25066 0,0.35714 0.0376,0.0753 0.14092,0.10328 0.17857,0.17857 0.0532,0.10648 -0.0842,0.27297 0,0.35715 0.0421,0.0421 0.13648,-0.0421 0.17857,0 0.0421,0.0421 -0.0266,0.12533 0,0.17857 0.0376,0.0753 0.14093,0.10328 0.17857,0.17857 0.0266,0.0532 -0.0421,0.13648 0,0.17857 0.0421,0.0421 0.13648,-0.0421 0.17857,0 0.0842,0.0842 -0.0842,0.27296 0,0.35714 0.0421,0.0421 0.13649,-0.0421 0.17858,0 0.0421,0.0421 -0.0421,0.13648 0,0.17857 0.36947,0.36948 -0.0145,-0.5646 0.35714,0.17858 0.0266,0.0532 -0.0421,0.13648 0,0.17857 0.0421,0.0421 0.13648,-0.0421 0.17857,0 0.0421,0.0421 0,0.11904 0,0.17857 0,0.0595 0,0.11905 0,0.17857 0,0.65476 0,1.30952 0,1.96429 m -6.42857,0.35714 c 0,-0.41874 0.0421,0.0842 -0.17857,-0.35714 -0.0617,-0.12335 0.0627,-0.83016 0,-0.89286 -0.0421,-0.0421 -0.13647,0.0421 -0.17857,0 -0.0842,-0.0842 0.0532,-0.25066 0,-0.35714 -0.0376,-0.0753 -0.14098,-0.10328 -0.17858,-0.17858 -0.0532,-0.10647 0.0842,-0.27294 0,-0.35714 -0.0421,-0.0421 -0.13647,0.0421 -0.17857,0 -0.0421,-0.0421 0.0421,-0.13647 0,-0.17857 -0.0421,-0.0421 -0.13647,0.0421 -0.17857,0 -0.0421,-0.0421 0.0266,-0.12537 0,-0.17857 -0.0376,-0.0753 -0.14097,-0.10327 -0.17857,-0.17857 -0.0266,-0.0532 0.0421,-0.13647 0,-0.17857 -0.0421,-0.0421 -0.13647,0.0421 -0.17857,0 -0.0421,-0.0421 0.0266,-0.12538 0,-0.17858 -0.0376,-0.0753 -0.11907,-0.11907 -0.17857,-0.17857 0,-0.0595 0.0266,-0.12537 0,-0.17857 -0.0753,-0.15058 -0.28185,-0.20656 -0.35715,-0.35714 -0.0266,-0.0532 0.0266,-0.12537 0,-0.17857 -0.0376,-0.0753 -0.14097,-0.10327 -0.17857,-0.17857 -0.0532,-0.10648 0.0532,-0.25067 0,-0.35715 -0.0376,-0.0753 -0.14097,-0.10327 -0.17857,-0.17857 -0.0714,-0.14286 0.0714,-0.39286 0,-0.53571 -0.0376,-0.0753 -0.14097,-0.10327 -0.17857,-0.17857 -0.0532,-0.10648 0.0532,-0.25067 0,-0.35715 -0.0376,-0.0753 -0.14097,-0.10327 -0.17857,-0.17857 -0.0532,-0.10648 0.0532,-0.25066 0,-0.35714 -0.0376,-0.0753 -0.14097,-0.10327 -0.17857,-0.17857 -0.0561,-0.11224 0.0561,-0.60205 0,-0.71429 -0.0376,-0.0753 -0.14097,-0.10327 -0.17857,-0.17857 -0.0714,-0.14286 0.0714,-0.39286 0,-0.53571 -0.0376,-0.0753 -0.14098,-0.10328 -0.17858,-0.17858 -0.0714,-0.14285 0.0714,-0.39285 0,-0.53571 -0.0376,-0.0753 -0.14097,-0.10327 -0.17857,-0.17857 -0.0561,-0.11224 0.0561,-0.60205 0,-0.71429 -0.0376,-0.0753 -0.14097,-0.10327 -0.17857,-0.17857 -0.0542,-0.10843 0.0542,-0.96299 0,-1.07143 -0.0376,-0.0753 -0.14097,-0.10327 -0.17857,-0.17857 -0.0266,-0.0532 0,-0.11907 0,-0.17857 0,-0.0595 0,-0.11907 0,-0.17857 0,-0.0656 0.007,-0.70729 0,-0.71429 -0.0421,-0.0421 -0.13647,0.0421 -0.17857,0 -0.0421,-0.0421 0,-0.11907 0,-0.17857 0,-0.0595 0,-0.11907 0,-0.17857 0,-0.0842 0.008,-0.88486 0,-0.89286 -0.0421,-0.0421 -0.13647,0.0421 -0.17857,0 -0.0893,-0.0893 0.0893,-0.44641 0,-0.53571 -0.0421,-0.0421 -0.13647,0.0421 -0.17857,0 -0.0421,-0.0421 0.0421,-0.13647 0,-0.17857 -0.0421,-0.0421 -0.13648,0.0421 -0.17858,0 -0.36947,-0.36945 0.5646,0.0144 -0.17857,-0.35715 -0.0532,-0.0266 -0.12537,0.0266 -0.17857,0 -0.15058,-0.0753 -0.20656,-0.28184 -0.35714,-0.35714 -0.0532,-0.0266 -0.12537,0.0266 -0.17857,0 -0.21429,-0.10714 -0.32143,-0.42857 -0.53572,-0.53571 -0.0532,-0.0266 -0.12537,0.0266 -0.17857,0 -0.21428,-0.10715 -0.32143,-0.42857 -0.53571,-0.53572 -0.0532,-0.0266 -0.12537,0.0266 -0.17857,0 -0.37255,-0.18625 0.0228,-0.54299 -0.35715,-0.71428 l 0.71429,-0.17857 c 0.15577,0.36435 0.51908,0.081 0.71428,0.17857 0.0753,0.0376 0.10328,0.14092 0.17858,0.17857 0.10647,0.0532 0.27296,-0.0842 0.35714,0 0.0421,0.0421 -0.0421,0.13648 0,0.17857 0.0421,0.0421 0.13648,-0.0421 0.17857,0 0.0421,0.0421 -0.0421,0.13648 0,0.17857 0.0421,0.0421 0.13648,-0.0421 0.17857,0 0.0421,0.0421 -0.0421,0.13648 0,0.17857 0.0421,0.0421 0.12533,-0.0266 0.17857,0 0.0753,0.0376 0.10328,0.14093 0.17857,0.17857 0.0532,0.0266 0.13649,-0.0421 0.17858,0 0.0421,0.0421 -0.0421,0.13649 0,0.17858 0.0421,0.0421 0.12533,-0.0266 0.17857,0 0.0753,0.0376 0.10328,0.14092 0.17857,0.17857 0.0532,0.0266 0.13648,-0.0421 0.17857,0 0.0421,0.0421 -0.0421,0.13648 0,0.17857 0.0421,0.0421 0.13648,-0.0421 0.17857,0 0.0421,0.0421 -0.0421,0.13648 0,0.17857 0.0421,0.0421 0.12533,-0.0266 0.17857,0 0.15059,0.0753 0.20656,0.28185 0.35715,0.35714 0.0532,0.0266 0.13648,-0.0421 0.17857,0 0.0421,0.0421 -0.0421,0.13648 0,0.17857 0.0421,0.0421 0.12533,-0.0266 0.17857,0 0.0753,0.0376 0.10328,0.14093 0.17857,0.17858 0.0532,0.0266 0.13648,-0.0421 0.17857,0 0.0421,0.0421 -0.0266,0.12533 0,0.17857 0.59225,0.59224 -0.0842,-0.16836 0.17857,0.35714 0.0376,0.0753 0.14093,0.10328 0.17857,0.17857 0.0266,0.0532 -0.0421,0.13648 0,0.17857 0.0421,0.0421 0.13649,-0.0421 0.17858,0 0.0421,0.0421 -0.0421,0.13648 0,0.17857 0.0421,0.0421 0.13648,-0.0421 0.17857,0 0.0842,0.0842 -0.0842,0.27297 0,0.35715 0.0421,0.0421 0.13648,-0.0421 0.17857,0 0.0842,0.0842 -0.0842,0.27296 0,0.35714 0.0421,0.0421 0.13648,-0.0421 0.17857,0 0.0842,0.0842 -0.0532,0.25066 0,0.35714 0.0376,0.0753 0.14092,0.10328 0.17857,0.17857 0.0266,0.0532 -0.0266,0.12534 0,0.17858 0.59225,0.59224 -0.0842,-0.16836 0.17857,0.35714 0.0376,0.0753 0.14093,0.10328 0.17857,0.17857 0.0714,0.14286 -0.0714,0.39286 0,0.53571 0.59225,0.59225 -0.0842,-0.16835 0.17858,0.35715 0.0376,0.0753 0.14092,0.10328 0.17857,0.17857 0.0532,0.10648 -0.0376,0.2442 0,0.35714 0.0421,0.12627 0.13648,0.23088 0.17857,0.35714 0.0376,0.11294 -0.0532,0.25067 0,0.35715 0.59225,0.59224 -0.0842,-0.16836 0.17857,0.35714 0.0376,0.0753 0.14092,0.10328 0.17857,0.17857 0.0714,0.14286 -0.0714,0.39286 0,0.53572 0.0376,0.0753 0.14093,0.10327 0.17857,0.17857 0.0266,0.0532 -0.0266,0.12533 0,0.17857 0.0376,0.0753 0.14093,0.10328 0.17857,0.17857 0.0532,0.10648 -0.0842,0.27296 0,0.35714 0.0421,0.0421 0.13649,-0.0421 0.17858,0 0.043,0.043 -0.043,0.67132 0,0.71429 0.0421,0.0421 0.13648,-0.0421 0.17857,0 0.0893,0.0893 -0.0893,0.44643 0,0.53571 0.0421,0.0421 0.13648,-0.0421 0.17857,0 0.0421,0.0421 -0.0421,0.13648 0,0.17857 0.0421,0.0421 0.13648,-0.0421 0.17857,0 0.0421,0.0421 -0.0266,0.12534 0,0.17858 0.0171,0.0342 0.6801,0.69719 0.71429,0.71428 0.0532,0.0266 0.13648,-0.0421 0.17857,0 0.0421,0.0421 -0.0421,0.13648 0,0.17857 0.0421,0.0421 0.13648,-0.0421 0.17857,0 0.0421,0.0421 -0.0421,0.13648 0,0.17857 0.0421,0.0421 0.13648,-0.0421 0.17857,0 0.0421,0.0421 -0.0421,0.13649 0,0.17858 0.0421,0.0421 0.13648,-0.0421 0.17857,0 0.0421,0.0421 -0.0266,0.12533 0,0.17857 0.0753,0.15058 0.28185,0.20656 0.35714,0.35714 0.0532,0.10648 -0.0532,0.25066 0,0.35714 0.0376,0.0753 0.14093,0.10328 0.17858,0.17857 0.0532,0.10648 -0.0532,0.25067 0,0.35715 0.0376,0.0753 0.14092,0.10328 0.17857,0.17857 0.0231,0.0462 0,0.94486 0,1.07143 0,0.0595 -0.0421,0.13648 0,0.17857 0.0421,0.0421 0.13648,-0.0421 0.17857,0 0.0179,0.0179 0.0179,0.51786 0,0.53571 -0.0421,0.0421 -0.13648,-0.0421 -0.17857,0 -0.006,0.006 0,0.49241 0,0.53572 m -9.64286,-15.89286 c 0,0.40344 -0.0266,-0.0799 0.17857,0.53571 0.0188,0.0565 -0.0266,0.12534 0,0.17858 0.0376,0.0753 0.14093,0.10327 0.17857,0.17857 0.0266,0.0532 -0.0266,0.12533 0,0.17857 0.0376,0.0753 0.14093,0.10328 0.17857,0.17857 0.0266,0.0532 -0.0421,0.13648 0,0.17857 0.0421,0.0421 0.13649,-0.0421 0.17858,0 0.0421,0.0421 -0.0266,0.12533 0,0.17857 0.0376,0.0753 0.14092,0.10328 0.17857,0.17857 0.0266,0.0532 -0.0266,0.12534 0,0.17858 0.0376,0.0753 0.14092,0.10327 0.17857,0.17857 0.0272,0.0543 0,0.45529 0,0.53571 0,0.47619 0,0.95238 0,1.42857 0,0.11905 0,0.2381 0,0.35715 0,0.11904 -0.0289,0.24165 0,0.35714 0.0323,0.12912 0.14629,0.22802 0.17857,0.35714 0.0289,0.11549 0,0.2381 0,0.35714 0,0.29762 0,0.59524 0,0.89286 0,0.0433 0.006,0.52997 0,0.53572 -0.0421,0.0421 -0.13648,-0.0421 -0.17857,0 -0.0421,0.0421 0,0.11904 0,0.17857 0,0.41666 0,0.83333 0,1.25 0,0.0595 0,0.11904 0,0.17857 0,0.0595 0.0421,0.13648 0,0.17857 -0.0421,0.0421 -0.13648,-0.0421 -0.17857,0 -0.0421,0.0421 0,0.11905 0,0.17857 0,0.29762 0,0.59524 0,0.89286 0,0.77381 0,1.54762 0,2.32143 0,0.0595 0,0.11904 0,0.17857 0,0.0595 -0.0421,0.13648 0,0.17857 0.0421,0.0421 0.17857,-0.0595 0.17857,0 0,0.0595 -0.17857,-0.0595 -0.17857,0 0,0.0842 0.14092,0.10328 0.17857,0.17857 0.0714,0.14286 -0.0714,0.39286 0,0.53572 0.0376,0.0753 0.14092,0.10327 0.17857,0.17857 0.0561,0.11223 -0.0561,0.60205 0,0.71428 0.0376,0.0753 0.14092,0.10328 0.17857,0.17857 0.0714,0.14286 -0.0714,0.39286 0,0.53572 0.0376,0.0753 0.14093,0.10328 0.17857,0.17857 0.0532,0.10648 -0.0842,0.27296 0,0.35714 0.0421,0.0421 0.13648,-0.0421 0.17857,0 0.006,0.006 0,0.49241 0,0.53572 m -10,-2.32143 c -0.23809,0.11905 -0.90251,0.54537 -0.71428,0.35714 0.24542,-0.24542 0.62183,-0.31889 0.89286,-0.53571 0.0465,-0.0372 -0.0421,-0.13648 0,-0.17857 0.0421,-0.0421 0.13648,0.0421 0.17857,0 0.0842,-0.0842 -0.0842,-0.27297 0,-0.35715 0.0421,-0.0421 0.13648,0.0421 0.17857,0 0.0421,-0.0421 -0.0421,-0.13648 0,-0.17857 0.0421,-0.0421 0.13648,0.0421 0.17857,0 0.0421,-0.0421 -0.0266,-0.12533 0,-0.17857 0.0376,-0.0753 0.11905,-0.11905 0.17857,-0.17857 0,-0.17857 -0.0565,-0.36631 0,-0.53572 0.0679,-0.2036 0.27744,-0.33644 0.35714,-0.53571 0.0442,-0.11053 -0.0376,-0.2442 0,-0.35714 0.0532,-0.15972 0.28185,-0.20656 0.35715,-0.35715 0.0266,-0.0532 -0.0421,-0.13648 0,-0.17857 0.0421,-0.0421 0.13648,0.0421 0.17857,0 0.0421,-0.0421 -0.0266,-0.12533 0,-0.17857 0.0376,-0.0753 0.14092,-0.10328 0.17857,-0.17857 0.0266,-0.0532 -0.0421,-0.13648 0,-0.17857 0.0421,-0.0421 0.13648,0.0421 0.17857,0 0.0842,-0.0842 -0.0842,-0.27296 0,-0.35714 0.0421,-0.0421 0.13648,0.0421 0.17857,0 0.0421,-0.0421 -0.0421,-0.13649 0,-0.17858 0.0421,-0.0421 0.13648,0.0421 0.17857,0 0.0421,-0.0421 -0.0266,-0.12533 0,-0.17857 0.0376,-0.0753 0.14093,-0.10328 0.17858,-0.17857 0.0266,-0.0532 -0.0421,-0.13648 0,-0.17857 0.0421,-0.0421 0.13648,0.0421 0.17857,0 0.0421,-0.0421 -0.0266,-0.12533 0,-0.17857 0.0376,-0.0753 0.14092,-0.10328 0.17857,-0.17857 0.0266,-0.0532 -0.0266,-0.12533 0,-0.17857 0.10714,-0.21429 0.42857,-0.32143 0.53571,-0.53572 0.0266,-0.0532 -0.0421,-0.13648 0,-0.17857 0.0421,-0.0421 0.13648,0.0421 0.17857,0 0.0421,-0.0421 -0.0421,-0.13648 0,-0.17857 0.0421,-0.0421 0.13649,0.0421 0.17858,0 0.0421,-0.0421 -0.0421,-0.13648 0,-0.17857 0.0421,-0.0421 0.13648,0.0421 0.17857,0 0.0421,-0.0421 -0.0421,-0.13648 0,-0.17857 0.0421,-0.0421 0.13648,0.0421 0.17857,0 0.0421,-0.0421 -0.0266,-0.12534 0,-0.17858 0.0376,-0.0753 0.14092,-0.10327 0.17857,-0.17857 0.0266,-0.0532 -0.0421,-0.13648 0,-0.17857 0.0421,-0.0421 0.13648,0.0421 0.17857,0 0.0421,-0.0421 -0.0421,-0.13648 0,-0.17857 0.0421,-0.0421 0.13648,0.0421 0.17857,0 0.0842,-0.0842 -0.0532,-0.25066 0,-0.35714 0.0376,-0.0753 0.14093,-0.10328 0.17857,-0.17857 0.0266,-0.0532 -0.0266,-0.12534 0,-0.17858 0.0376,-0.0753 0.14093,-0.10327 0.17858,-0.17857 0.0561,-0.11223 -0.0561,-0.60205 0,-0.71428 0.0376,-0.0753 0.14092,-0.10328 0.17857,-0.17857 0.0532,-0.10648 -0.0842,-0.27297 0,-0.35715 0.0421,-0.0421 0.13648,0.0421 0.17857,0 0.0842,-0.0842 -0.0532,-0.25066 0,-0.35714 0.0376,-0.0753 0.14092,-0.10328 0.17857,-0.17857 0.0484,-0.0969 -0.0489,-0.66543 0,-0.71429 0.0421,-0.0421 0.13648,0.0421 0.17857,0 0.0489,-0.0489 -0.0484,-0.61741 0,-0.71428 0.0376,-0.0753 0.14093,-0.10328 0.17857,-0.17857 0.0532,-0.10648 -0.0532,-0.25067 0,-0.35715 0.0376,-0.0753 0.14093,-0.10328 0.17857,-0.17857 0.0484,-0.0969 -0.0489,-0.66542 0,-0.71428 0.0421,-0.0421 0.13649,0.0421 0.17858,0 0.008,-0.008 0,-0.80867 0,-0.89286 0,-0.0595 -0.0421,-0.13648 0,-0.17857 0.0421,-0.0421 0.13648,0.0421 0.17857,0 0.0842,-0.0842 -0.0842,-0.27297 0,-0.35715 0.23809,-0.23809 0.17857,0.29762 0.17857,-0.17857 l 0.17857,1.07143 c 0.079,0.10677 -0.0704,0.57357 0,0.71429 0.0376,0.0753 0.14092,0.10328 0.17857,0.17857 0.0272,0.0543 0,0.45529 0,0.53571 0,0.41667 0,0.83334 0,1.25 0,1.01191 0,2.02381 0,3.03572 0,0.35714 0,0.71428 0,1.07143 0,0.0804 0.0272,0.48136 0,0.53571 -0.0376,0.0753 -0.14092,0.10328 -0.17857,0.17857 -0.0563,0.11266 0.0563,0.7802 0,0.89286 -0.0376,0.0753 -0.14093,0.10328 -0.17857,0.17857 -0.0561,0.11224 0.0561,0.60205 0,0.71429 -0.0376,0.0753 -0.14093,0.10327 -0.17857,0.17857 -0.0513,0.10251 0.038,0.74085 0,0.89285 -0.0323,0.12913 -0.13648,0.23088 -0.17857,0.35715 -0.0188,0.0565 0.0266,0.12533 0,0.17857 -0.0376,0.0753 -0.14093,0.10328 -0.17858,0.17857 -0.0266,0.0532 0,0.11905 0,0.17857 0,0.12657 0.0231,1.02526 0,1.07143 -0.0376,0.0753 -0.15195,0.0987 -0.17857,0.17857 -0.0272,0.0818 0,0.79319 0,0.89286 0,0.65476 0,1.30952 0,1.96428 m 0.53572,-15.89285 c 0,0.41878 0.0421,-0.0842 -0.17857,0.35714 -0.0561,0.11224 0.0561,0.60205 0,0.71429 -0.0376,0.0753 -0.14093,0.10327 -0.17858,0.17857 -0.0532,0.10648 0.0532,0.25066 0,0.35714 -0.0376,0.0753 -0.14092,0.10328 -0.17857,0.17857 -0.0266,0.0532 0.0188,0.1221 0,0.17857 -0.0421,0.12627 -0.13648,0.23088 -0.17857,0.35715 -0.0188,0.0565 0.0266,0.12533 0,0.17857 -0.0376,0.0753 -0.14092,0.10328 -0.17857,0.17857 -0.0266,0.0532 0.0266,0.12533 0,0.17857 -0.0376,0.0753 -0.11905,0.11905 -0.17857,0.17857 -0.0595,0.0595 -0.11905,0.11905 -0.17857,0.17857 -0.10503,0.10503 -0.6316,0.67294 -0.71429,0.71429 -0.10648,0.0532 -0.27296,-0.0842 -0.35714,0 -0.0421,0.0421 0.0421,0.13648 0,0.17857 -0.0842,0.0842 -0.27297,-0.0842 -0.35714,0 -0.0421,0.0421 0.0266,0.12533 0,0.17857 -0.0569,0.11375 -0.75255,0.75254 -0.89286,0.89286 -0.0595,0.0595 -0.10328,0.14092 -0.17857,0.17857 -0.24632,0.12316 -0.15973,-0.21626 -0.35715,0.17857 -0.0266,0.0532 0.0421,0.13648 0,0.17857 -0.0421,0.0421 -0.13648,-0.0421 -0.17857,0 -0.0421,0.0421 0.0266,0.12533 0,0.17857 -0.0753,0.15059 -0.28185,0.20656 -0.35714,0.35715 -0.0266,0.0532 0,0.11904 0,0.17857 -0.0595,0.0595 -0.14093,0.10328 -0.17857,0.17857 -0.0266,0.0532 0.0421,0.13648 0,0.17857 -0.0421,0.0421 -0.13648,-0.0421 -0.17857,0 -0.0421,0.0421 0.0266,0.12533 0,0.17857 -0.0753,0.15059 -0.28185,0.20656 -0.35715,0.35715 -0.0266,0.0532 0.0421,0.13648 0,0.17857 -0.0421,0.0421 -0.12533,-0.0266 -0.17857,0 -0.74317,0.37158 0.1909,-0.0123 -0.17857,0.35714 -0.0421,0.0421 -0.13648,-0.0421 -0.17857,0 -0.36947,0.36947 0.5646,-0.0144 -0.17857,0.35714 -0.0532,0.0266 -0.12533,-0.0266 -0.17857,0 -0.0753,0.0376 -0.11905,0.11905 -0.17857,0.17857 -0.0595,0.0595 -0.11905,0.11905 -0.17858,0.17858 -0.0595,0.0595 -0.14092,0.10327 -0.17857,0.17857 -0.0266,0.0532 0.0595,0.17857 0,0.17857 -0.0595,0 0.0421,-0.13648 0,-0.17857 -0.0421,-0.0421 -0.11905,0 -0.17857,0 -0.11905,0 -0.2442,-0.0376 -0.35714,0 -0.25254,0.0842 -0.46175,0.27296 -0.71429,0.35714 -0.11294,0.0376 -0.25066,-0.0532 -0.35714,0 -0.0753,0.0376 -0.11905,0.11905 -0.17857,0.17857 -0.17857,0.17857 -0.35714,0.35714 -0.53572,0.53572 -0.0595,0.0595 -0.11904,0.11904 -0.17857,0.17857 -0.0595,0 -0.13648,-0.0421 -0.17857,0 -0.0421,0.0421 0.0421,0.13648 0,0.17857 -0.0421,0.0421 -0.13648,-0.0421 -0.17857,0 -0.0421,0.0421 0.0266,0.12533 0,0.17857 -0.0377,0.0753 -0.13188,0.10853 -0.17857,0.17857 -0.39342,0.0899 -0.0944,0.36736 -0.17857,0.53572 -0.0376,0.0753 -0.14093,0.10327 -0.17857,0.17857 -0.0325,0.065 0.0313,0.71428 0,0.71428 -0.0595,0 -0.0595,-0.17857 0,-0.17857 0.15583,0 -0.37508,0.92873 0.17857,-0.17857 m 10,-13.57143 c 0,-0.47619 0.0595,0.0595 -0.17857,-0.17857 -0.0421,-0.0421 0.0421,-0.13648 0,-0.17857 -0.0421,-0.0421 -0.13649,0.0421 -0.17858,0 -0.0421,-0.0421 0.0421,-0.13648 0,-0.17857 -0.0421,-0.0421 -0.13648,0.0421 -0.17857,0 -0.0421,-0.0421 0.0421,-0.13648 0,-0.17857 -0.0421,-0.0421 -0.13648,0.0421 -0.17857,0 -0.0421,-0.0421 0.0266,-0.12534 0,-0.17858 -0.0753,-0.15058 -0.28185,-0.20655 -0.35714,-0.35714 -0.0266,-0.0532 0.0421,-0.13648 0,-0.17857 -0.0421,-0.0421 -0.13648,0.0421 -0.17857,0 -0.0421,-0.0421 0.0421,-0.13648 0,-0.17857 -0.0421,-0.0421 -0.13648,0.0421 -0.17857,0 -0.0842,-0.0842 0.0842,-0.27296 0,-0.35714 -0.36948,-0.36947 0.0144,0.5646 -0.35715,-0.17858 -0.0266,-0.0532 0.0421,-0.13648 0,-0.17857 -0.0842,-0.0842 -0.25066,0.0532 -0.35714,0 -0.21429,-0.10714 -0.32143,-0.42857 -0.53571,-0.53571 -0.0532,-0.0266 -0.12534,0.0266 -0.17858,0 -0.0753,-0.0376 -0.10328,-0.14093 -0.17857,-0.17857 -0.10648,-0.0532 -0.25066,0.0532 -0.35714,0 -0.0753,-0.0376 -0.10328,-0.14093 -0.17857,-0.17857 -0.10648,-0.0532 -0.27297,0.0842 -0.35714,0 -0.0421,-0.0421 0.0421,-0.13649 0,-0.17858 -0.0421,-0.0421 -0.12534,0.0266 -0.17858,0 -0.15058,-0.0753 -0.20655,-0.28185 -0.35714,-0.35714 -0.0532,-0.0266 -0.13648,0.0421 -0.17857,0 -0.36947,-0.36947 0.5646,0.0144 -0.17857,-0.35714 -0.0532,-0.0266 -0.11905,0 -0.17857,0 -0.0595,-0.0595 -0.10328,-0.14093 -0.17857,-0.17857 -0.0532,-0.0266 -0.13649,0.0421 -0.17858,0 -0.0421,-0.0421 0.0421,-0.13648 0,-0.17857 -0.0421,-0.0421 -0.12533,0.0266 -0.17857,0 -0.21428,-0.10715 -0.32143,-0.42858 -0.53571,-0.53572 -0.0532,-0.0266 -0.13648,0.0421 -0.17857,0 -0.0421,-0.0421 0.0421,-0.13648 0,-0.17857 -0.36947,-0.36947 0.0144,0.5646 -0.35715,-0.17857 -0.0266,-0.0532 0.0421,-0.13648 0,-0.17857 -0.0421,-0.0421 -0.13648,0.0421 -0.17857,0 -0.0842,-0.0842 0.0842,-0.27297 0,-0.35715 -0.0421,-0.0421 -0.13648,0.0421 -0.17857,0 -0.0421,-0.0421 0.0266,-0.12533 0,-0.17857 -0.59225,-0.59224 0.0842,0.16836 -0.17857,-0.35714 -0.0753,-0.15058 -0.28185,-0.20656 -0.35714,-0.35714 -0.0266,-0.0532 0,-0.11905 0,-0.17857 -0.0595,-0.0595 -0.14093,-0.10328 -0.17857,-0.17858 -0.0532,-0.10648 0.0532,-0.25066 0,-0.35714 -0.0376,-0.0753 -0.14093,-0.10328 -0.17858,-0.17857 -0.0266,-0.0532 0,-0.11905 0,-0.17857 -0.0595,-0.0595 -0.14092,-0.10328 -0.17857,-0.17857 -0.0266,-0.0532 0.0266,-0.12533 0,-0.17857 -0.10714,-0.21429 -0.42857,-0.32143 -0.53571,-0.53572 -0.0532,-0.10648 0.0842,-0.27296 0,-0.35714 -0.0421,-0.0421 -0.13648,0.0421 -0.17857,0 -0.0421,-0.0421 0.0266,-0.12533 0,-0.17857 -0.0376,-0.0753 -0.14093,-0.10328 -0.17857,-0.17857 -0.0266,-0.0532 0.0421,-0.13649 0,-0.17858 -0.0421,-0.0421 -0.12534,0.0266 -0.17858,0 -0.21428,-0.10714 -0.32142,-0.42857 -0.53571,-0.53571 -0.0532,-0.0266 -0.12533,0.0266 -0.17857,0 -0.0753,-0.0377 -0.10328,-0.14093 -0.17857,-0.17857 -0.0532,-0.0266 -0.12533,0.0266 -0.17857,0 -0.0753,-0.0376 -0.10328,-0.14093 -0.17858,-0.17857 -0.0708,-0.0354 -0.4992,0.0365 -0.53571,0 -0.0421,-0.0421 0.0421,-0.13648 0,-0.17857 -0.0842,-0.0842 -0.25066,0.0532 -0.35714,0 -0.0753,-0.0377 -0.10328,-0.14093 -0.17857,-0.17858 -0.0708,-0.0354 -0.49921,0.0365 -0.53572,0 -0.0421,-0.0421 0.0421,-0.13648 0,-0.17857 -0.0553,-0.0553 -0.83756,0.0553 -0.89286,0 -0.0421,-0.0421 0.0421,-0.13648 0,-0.17857 -0.0489,-0.0489 -0.61741,0.0484 -0.71428,0 -0.0753,-0.0376 -0.10328,-0.14092 -0.17857,-0.17857 -0.10648,-0.0532 -0.25067,0.0532 -0.35715,0 -0.0753,-0.0377 -0.10328,-0.14093 -0.17857,-0.17857 -0.0532,-0.0266 -0.12533,0.0266 -0.17857,0 -0.0753,-0.0376 -0.10328,-0.14093 -0.17857,-0.17857 -0.0708,-0.0354 -0.49921,0.0365 -0.53571,0 -0.0421,-0.0421 0.0421,-0.13648 0,-0.17857 -0.0421,-0.0421 -0.12534,0.0266 -0.17858,0 -0.0753,-0.0377 -0.10328,-0.14093 -0.17857,-0.17858 -0.10648,-0.0532 -0.27296,0.0842 -0.35714,0 -0.0421,-0.0421 0.0421,-0.13648 0,-0.17857 -0.0842,-0.0842 -0.27296,0.0842 -0.35714,0 -0.0421,-0.0421 0.0421,-0.13648 0,-0.17857 -0.0421,-0.0421 -0.13648,0.0421 -0.17857,0 -0.0421,-0.0421 0,-0.11905 0,-0.17857 -0.0595,0 -0.13649,0.0421 -0.17858,0 -0.0421,-0.0421 0.0421,-0.13648 0,-0.17857 -0.0842,-0.0842 -0.27296,0.0842 -0.35714,0 -0.0421,-0.0421 0.0421,-0.13648 0,-0.17857 -0.0842,-0.0842 -0.27296,0.0842 -0.35714,0 -0.0421,-0.0421 0,-0.11905 0,-0.17857 0,-0.0595 0,-0.11905 0,-0.17858 m -1.78572,7.5 c -0.0595,0 -0.17857,-0.0595 -0.17857,0 0,0.0595 0.13647,0.0421 0.17857,0 0.0421,-0.0421 -0.0421,-0.13647 0,-0.17857 0.0421,-0.0421 0.11908,0 0.17858,0 0.1242,0 0.82825,-0.0323 0.89285,0 0.0753,0.0376 0.10327,0.14097 0.17857,0.17857 0.0532,0.0266 0.13648,-0.0421 0.17858,0 0.0842,0.0842 -0.0532,0.25067 0,0.35715 0.0376,0.0753 0.14097,0.10327 0.17857,0.17857 0.12317,0.24631 -0.21626,0.15973 0.17857,0.35714 0.0532,0.0266 0.13647,-0.0421 0.17857,0 0.0421,0.0421 -0.0421,0.13647 0,0.17857 0.0421,0.0421 0.13647,-0.0421 0.17857,0 0.0421,0.0421 -0.0421,0.13647 0,0.17857 0.0421,0.0421 0.11907,0 0.17857,0 0.12657,0 1.02523,-0.0231 1.07143,0 0.0753,0.0376 0.10327,0.14088 0.17857,0.17858 0.0763,0.0381 0.82226,0 0.89286,0 0.53571,0 1.07143,0 1.60714,0 0.90444,0 -0.38068,-0.0289 1.07143,0.17857 0.2357,0.0337 0.47619,0 0.71429,0 0.0595,0 0.13647,-0.0421 0.17857,0 0.0421,0.0421 -0.0421,0.13647 0,0.17857 0.0421,0.0421 0.12537,-0.0266 0.17857,0 0.0753,0.0376 0.10327,0.14087 0.17857,0.17857 0.5255,0.26277 -0.2351,-0.41368 0.35714,0.17857 0.0532,0.0266 0.13648,-0.0421 0.17858,0 0.0842,0.0842 -0.0842,0.27294 0,0.35714 0.0421,0.0421 0.13647,-0.0421 0.17857,0 0.0421,0.0421 -0.0421,0.13648 0,0.17858 0.0421,0.0421 0.13647,-0.0421 0.17857,0 0.23807,0.23807 -0.29762,0.17857 0.17857,0.17857 0.0753,0.0376 0.11907,0.11907 0.17857,0.17857 0.0595,0.0595 0.14097,0.10327 0.17857,0.17857 0.0266,0.0532 -0.0421,0.13647 0,0.17857 0.0596,0.0596 0.29755,-0.0596 0.35715,0 0.0421,0.0421 -0.0421,0.13647 0,0.17857 0.0421,0.0421 0.12537,-0.0266 0.17857,0 0.0753,0.0376 0.10327,0.14097 0.17857,0.17857 0.10648,0.0532 0.27294,-0.0842 0.35714,0 0.0421,0.0421 -0.0421,0.13648 0,0.17858 0.0627,0.0627 0.76951,-0.0617 0.89286,0 0.0753,0.0376 0.10327,0.14097 0.17857,0.17857 0.0532,0.0266 0.11907,0 0.17857,0 0.0595,0 0.11907,0 0.17857,0 0.29762,0 0.59524,0 0.89286,0 0.0595,0 0.12537,-0.0266 0.17857,0 0.0753,0.0376 0.10327,0.14097 0.17857,0.17857 0.11765,0.0588 0.9063,-0.0551 1.07143,0 0.0799,0.0266 0.10327,0.14087 0.17857,0.17857 0.11224,0.0561 0.60205,-0.0561 0.71429,0 0.0753,0.0376 0.10327,0.14097 0.17857,0.17857 0.0708,0.0354 0.49921,-0.0365 0.53571,0 0.0421,0.0421 -0.0421,0.13647 0,0.17857 0.043,0.043 0.67129,-0.043 0.71429,0 0.0421,0.0421 -0.0421,0.13647 0,0.17857 0.0842,0.0842 0.27294,-0.0842 0.35714,0 0.0421,0.0421 -0.0421,0.13648 0,0.17858 0.0421,0.0421 0.13647,-0.0421 0.17857,0 0.0421,0.0421 -0.0421,0.13647 0,0.17857 0.0421,0.0421 0.13648,-0.0421 0.17858,0 0.0421,0.0421 -0.0421,0.13647 0,0.17857 0.0421,0.0421 0.12537,-0.0266 0.17857,0 0.0753,0.0376 0.10327,0.14087 0.17857,0.17857 0.0532,0.0266 0.12537,-0.0266 0.17857,0 0.0753,0.0376 0.10327,0.14097 0.17857,0.17857 0.10648,0.0532 0.27294,-0.0842 0.35714,0 0.0421,0.0421 -0.0421,0.13647 0,0.17857 0.0842,0.0842 0.33375,-0.11673 0.35715,0 0.0584,0.29184 -0.21045,0.68241 0,0.89286 0.17357,0.17354 0.11907,-0.47619 0.17857,-0.71429 l -0.71429,-0.53571 c -0.10648,-0.0532 -0.25066,0.0532 -0.35714,0 -0.0753,-0.0377 -0.10328,-0.14093 -0.17857,-0.17857 -0.0532,-0.0266 -0.13648,0.0421 -0.17857,0 -0.0421,-0.0421 0.0421,-0.13648 0,-0.17857 -0.0421,-0.0421 -0.12533,0.0266 -0.17857,0 -0.0753,-0.0376 -0.10328,-0.14093 -0.17858,-0.17857 -0.0532,-0.0266 -0.13648,0.0421 -0.17857,0 -0.0421,-0.0421 0.0266,-0.12534 0,-0.17858 -0.0376,-0.0753 -0.14092,-0.10327 -0.17857,-0.17857 -0.0266,-0.0532 0.0421,-0.13648 0,-0.17857 -0.0842,-0.0842 -0.27296,0.0842 -0.35714,0 -0.0421,-0.0421 0.0266,-0.12533 0,-0.17857 -0.0376,-0.0753 -0.13188,-0.10853 -0.17857,-0.17857 -0.0738,-0.11075 -0.10474,-0.2464 -0.17857,-0.35714 -0.16378,-0.24567 -0.27549,-0.18366 -0.53572,-0.35715 -0.14008,-0.0934 -0.20656,-0.28185 -0.35714,-0.35714 -0.0532,-0.0266 -0.13648,0.0421 -0.17857,0 -0.0421,-0.0421 0.0421,-0.13648 0,-0.17857 -0.0842,-0.0842 -0.25067,0.0532 -0.35715,0 -0.0753,-0.0376 -0.10328,-0.14093 -0.17857,-0.17857 -0.0532,-0.0266 -0.13648,0.0421 -0.17857,0 -0.0421,-0.0421 0.0421,-0.13648 0,-0.17857 -0.0365,-0.0365 -0.46491,0.0354 -0.53571,0 -0.0753,-0.0377 -0.10328,-0.14093 -0.17857,-0.17858 -0.0532,-0.0266 -0.12211,0.0188 -0.17858,0 -0.11904,-0.0595 -0.23809,-0.11904 -0.35714,-0.17857 -0.0595,0 -0.1221,0.0188 -0.17857,0 -0.25254,-0.0842 -0.45604,-0.29258 -0.71429,-0.35714 -0.006,-0.001 -0.53476,9.5e-4 -0.53571,0 -0.0421,-0.0421 0.0421,-0.13648 0,-0.17857 -0.0421,-0.0421 -0.12533,0.0266 -0.17857,0 -0.0753,-0.0376 -0.10328,-0.14093 -0.17857,-0.17857 -0.0532,-0.0266 -0.12533,0.0266 -0.17857,0 -0.15059,-0.0753 -0.20656,-0.28185 -0.35715,-0.35715 -0.0532,-0.0266 -0.12533,0.0266 -0.17857,0 -0.0474,-0.0237 -0.51201,-0.4883 -0.53571,-0.53571 -0.0266,-0.0532 0.0421,-0.13648 0,-0.17857 -0.0421,-0.0421 -0.13648,0.0421 -0.17857,0 -0.0421,-0.0421 0.0266,-0.12533 0,-0.17857 -0.0377,-0.0753 -0.14093,-0.10328 -0.17858,-0.17857 -0.0266,-0.0532 0.0421,-0.13649 0,-0.17858 -0.0421,-0.0421 -0.13648,0.0421 -0.17857,0 -0.0421,-0.0421 0.0266,-0.12533 0,-0.17857 -0.0376,-0.0753 -0.14092,-0.10328 -0.17857,-0.17857 -0.0266,-0.0532 0.0421,-0.13648 0,-0.17857 -0.0421,-0.0421 -0.13648,0.0421 -0.17857,0 -0.0421,-0.0421 0.0421,-0.13648 0,-0.17857 -0.0421,-0.0421 -0.13648,0.0421 -0.17857,0 -0.0421,-0.0421 0.0421,-0.13648 0,-0.17857 -0.0842,-0.0842 -0.25067,0.0532 -0.35714,0 -0.0753,-0.0376 -0.10328,-0.14093 -0.17858,-0.17857 -0.0969,-0.0484 -0.66542,0.0489 -0.71428,0 -0.0421,-0.0421 0.0421,-0.13649 0,-0.17858 -0.0589,-0.0589 -0.58506,0.0431 -0.71429,0 -0.0799,-0.0266 -0.0987,-0.15195 -0.17857,-0.17857 -8.1e-4,-2.7e-4 -0.53554,1.7e-4 -0.53571,0 -0.0421,-0.0421 0.0421,-0.13648 0,-0.17857 -0.0842,-0.0842 -0.25067,0.0532 -0.35715,0 -0.0753,-0.0376 -0.10328,-0.14092 -0.17857,-0.17857 -0.10648,-0.0532 -0.27296,0.0842 -0.35714,0 -0.0421,-0.0421 -0.0421,-0.13648 0,-0.17857 0.0421,-0.0421 0.17857,0.0595 0.17857,0 0,-0.1331 -0.10474,-0.2464 -0.17857,-0.35714 -0.29612,-0.44419 -0.041,-0.0205 -0.35714,-0.17858 -0.15059,-0.0753 -0.20656,-0.28185 -0.35715,-0.35714 -0.0532,-0.0266 -0.13648,0.0421 -0.17857,0 -0.0421,-0.0421 0.0421,-0.13648 0,-0.17857 -0.0421,-0.0421 -0.12533,0.0266 -0.17857,0 -0.0753,-0.0377 -0.10328,-0.14093 -0.17857,-0.17857 -0.0532,-0.0266 -0.13648,0.0421 -0.17857,0 -0.0421,-0.0421 0.0421,-0.13648 0,-0.17857 -0.0596,-0.0596 -0.29757,0.0596 -0.35714,0 -0.0421,-0.0421 0.0421,-0.13648 0,-0.17857 -0.0252,-0.0252 -0.49909,-0.0183 -0.53572,0 -0.0753,0.0376 -0.10328,0.14092 -0.17857,0.17857 -0.0543,0.0272 -0.45529,0 -0.53571,0 -0.41667,0 -0.83334,0 -1.25,0 -0.0934,0 -0.66734,0.0235 -0.71429,0 -0.0753,-0.0376 -0.10328,-0.14093 -0.17857,-0.17857 -0.10648,-0.0532 -0.35714,0.11904 -0.35714,0 0,-0.0595 0.11904,0 0.17857,0 m 0.89285,11.78571 c 0,-0.0595 0.0595,-0.17857 0,-0.17857 -0.0595,0 -0.0421,0.13647 0,0.17857 0.1396,0.13959 0.31065,-0.15537 0.35715,-0.17857 0.10648,-0.0532 0.25066,0.0532 0.35714,0 0.0753,-0.0376 0.10327,-0.14097 0.17857,-0.17857 0.0543,-0.0272 0.45532,0 0.53572,0 0.41666,0 0.83333,0 1.25,0 0.0595,0 0.11907,0 0.17857,0 0.0595,0 0.13647,-0.0421 0.17857,0 0.0421,0.0421 -0.0421,0.13647 0,0.17857 0.0842,0.0842 0.27294,-0.0842 0.35714,0 0.0421,0.0421 0,0.11907 0,0.17857 0.0595,0 0.13647,-0.0421 0.17857,0 0.0842,0.0842 -0.0842,0.27294 0,0.35714 0.0421,0.0421 0.12537,-0.0266 0.17857,0 0.0753,0.0376 0.10328,0.14097 0.17858,0.17857 0.0469,0.0235 0.62088,0 0.71428,0 0.12657,0 1.02523,0.0231 1.07143,0 0.0753,-0.0376 0.10327,-0.14097 0.17857,-0.17857 0.5255,-0.26277 -0.2351,0.41368 0.35714,-0.17857 0.10648,-0.0532 0.25067,0.0532 0.35715,0 0.0753,-0.0376 0.10327,-0.14097 0.17857,-0.17857 0.10648,-0.0532 0.2442,0.0376 0.35714,0 0.12627,-0.0421 0.22802,-0.14627 0.35714,-0.17857 0.1155,-0.0289 0.24041,0.0233 0.35715,0 0.18457,-0.0369 0.35114,-0.14167 0.53571,-0.17857 0.11674,-0.0233 0.24041,0.0233 0.35714,0 0.18458,-0.0369 0.35114,-0.14167 0.53572,-0.17857 0.19338,-0.0387 1.05911,0 1.25,0 0.11905,0 0.24165,0.0289 0.35714,0 0.12913,-0.0323 0.23087,-0.13648 0.35714,-0.17858 0.10648,-0.0355 0.89842,0 1.07143,0 0.0595,0 0.12537,0.0266 0.17857,0 0.0753,-0.0376 0.10328,-0.14097 0.17858,-0.17857 0.0678,-0.0339 0.95487,0.0167 1.07142,0 0.30047,-0.0429 0.59085,-0.14837 0.89286,-0.17857 0.29614,-0.0296 0.59646,0.027 0.89286,0 2.28721,-0.20797 0.19661,-0.17857 1.60714,-0.17857 l -0.71428,-0.89286 c -0.0474,-0.0237 -0.30974,-0.33343 -0.35715,-0.35714 -0.0532,-0.0266 -0.11905,0 -0.17857,0 -0.11905,-0.0595 -0.2464,-0.10474 -0.35714,-0.17857 -0.07,-0.0467 -0.0987,-0.15195 -0.17857,-0.17857 -0.11294,-0.0376 -0.24421,0.0376 -0.35715,0 -0.0799,-0.0266 -0.10328,-0.14093 -0.17857,-0.17857 -0.10648,-0.0532 -0.25066,0.0532 -0.35714,0 -0.0753,-0.0377 -0.10328,-0.14093 -0.17857,-0.17858 -0.14286,-0.0714 -0.39286,0.0714 -0.53572,0 -0.0753,-0.0376 -0.10328,-0.14092 -0.17857,-0.17857 -0.047,-0.0235 -0.6209,0 -0.71428,0 -0.0656,0 -0.7071,-0.007 -0.71429,0 -0.0421,0.0421 0.0421,0.13648 0,0.17857 -0.0421,0.0421 -0.11905,0 -0.17857,0 -0.47619,0 -0.95238,0 -1.42857,0 -0.65476,0 -1.30953,0 -1.96429,0 -0.29762,0 -0.59524,0 -0.89285,0 -0.0595,0 -0.12211,0.0188 -0.17858,0 -0.12627,-0.0421 -0.23087,-0.13648 -0.35714,-0.17857 -0.12283,-0.0409 -0.43035,0.0527 -0.53571,0 -0.0753,-0.0376 -0.10328,-0.14092 -0.17857,-0.17857 -0.10844,-0.0542 -0.963,0.0542 -1.07143,0 -0.0753,-0.0376 -0.10328,-0.14092 -0.17857,-0.17857 -0.10648,-0.0532 -0.27297,0.0842 -0.35715,0 -0.0421,-0.0421 0.0421,-0.13648 0,-0.17857 -0.007,-0.007 -0.64871,0 -0.71428,0 -0.41667,0 -0.83334,0 -1.25,0 -0.0804,0 -0.48137,0.0272 -0.53572,0 -0.0753,-0.0376 -0.10328,-0.14093 -0.17857,-0.17857 -0.0543,-0.0272 -0.45529,0 -0.53571,0 -0.41667,0 -0.83334,0 -1.25,0 -0.0804,0 -0.48137,0.0272 -0.53572,0 -0.44132,-0.22066 0.0616,-0.17857 -0.35714,-0.17857 -0.11905,0 -0.47619,0 -0.35714,0 0.11904,0 0.23809,0 0.35714,0 m 5,12.32142 c 0,-0.47619 -0.0595,0.0595 0.17857,-0.17857 0.0421,-0.0421 0,-0.11907 0,-0.17857 0,-0.0595 0,-0.11907 0,-0.17857 0,-0.0656 -0.007,-0.70729 0,-0.71429 0.0421,-0.0421 0.13647,0.0421 0.17857,0 0.0421,-0.0421 -0.0421,-0.13647 0,-0.17857 0.0421,-0.0421 0.13647,0.0421 0.17857,0 0.0421,-0.0421 -0.0421,-0.13647 0,-0.17857 0.0842,-0.0842 0.27295,0.0842 0.35715,0 0.0421,-0.0421 -0.0421,-0.13647 0,-0.17857 0.0489,-0.0489 0.76729,0.0418 0.89285,0 0.25254,-0.0842 0.46713,-0.25824 0.71429,-0.35714 0.34954,-0.13982 0.71429,-0.2381 1.07143,-0.35715 0.17857,-0.0595 0.35004,-0.14767 0.53571,-0.17857 0.17614,-0.0294 0.35958,0.0294 0.53572,0 1.56753,-0.26124 -0.27297,-0.0657 0.89285,-0.35714 0.98049,-0.24517 -0.29744,0.32729 0.71429,-0.17857 0.0565,-0.0188 0.12537,0.0266 0.17857,0 0.0753,-0.0376 0.0987,-0.15197 0.17857,-0.17857 0.11294,-0.0376 0.2381,0 0.35715,0 0.0595,0 0.12537,0.0266 0.17857,0 0.52551,-0.26277 -0.2772,-0.17857 0.53571,-0.17857 0.0799,-0.0266 0.10327,-0.14098 0.17857,-0.17858 0.0532,-0.0266 0.13647,0.0421 0.17857,0 0.0421,-0.0421 -0.0421,-0.13647 0,-0.17857 0.0421,-0.0421 0.12538,0.0266 0.17858,0 0.15058,-0.0753 0.20655,-0.28184 0.35714,-0.35714 0.0532,-0.0266 0.13647,0.0421 0.17857,0 0.0421,-0.0421 -0.0421,-0.13647 0,-0.17857 0.0842,-0.0842 0.25066,0.0532 0.35714,0 0.0753,-0.0376 0.11907,-0.11907 0.17857,-0.17857 0.11905,-0.11905 0.2381,-0.2381 0.35715,-0.35715 0.92775,-0.92778 -0.38061,0.41428 0.89285,-1.07142 0.16435,-0.19175 0.35715,-0.35715 0.53572,-0.53572 0.72394,-0.72394 0.42277,-0.30984 0.89286,-1.25 0.29761,-0.35714 0.91137,-0.37022 1.07142,-0.89286 l -0.89285,-0.17857 c -0.0595,0.0595 -0.10328,0.14093 -0.17857,0.17857 -0.0952,0.0476 -0.26198,-0.0476 -0.35715,0 -0.0753,0.0376 -0.11905,0.11905 -0.17857,0.17858 -0.11905,0 -0.2442,-0.0377 -0.35714,0 -0.25254,0.0842 -0.47103,0.24903 -0.71429,0.35714 -1.10822,0.49254 -0.59146,0.24552 -1.60714,0.53571 -0.18099,0.0517 -0.3531,0.13292 -0.53571,0.17857 -0.35715,0.0893 0,-0.17857 -0.53572,0 -0.0799,0.0266 -0.10328,0.14093 -0.17857,0.17858 -0.33672,0.16835 -0.72541,0.20884 -1.07143,0.35714 -0.24467,0.10486 -0.46961,0.25228 -0.71428,0.35714 -0.17302,0.0742 -0.37431,0.0817 -0.53572,0.17857 -0.14437,0.0866 -0.22245,0.25613 -0.35714,0.35715 -0.10648,0.0799 -0.26303,0.0844 -0.35714,0.17857 -0.0421,0.0421 0.0421,0.13648 0,0.17857 -0.0421,0.0421 -0.13649,-0.0421 -0.17858,0 -0.0421,0.0421 0.0421,0.13648 0,0.17857 -0.0842,0.0842 -0.25066,-0.0532 -0.35714,0 -0.0753,0.0376 -0.10328,0.14093 -0.17857,0.17857 -0.10648,0.0532 -0.25066,-0.0532 -0.35714,0 -0.0753,0.0376 -0.10328,0.14093 -0.17857,0.17857 -0.047,0.0235 -0.62091,0 -0.71429,0 -0.47619,0 -0.95238,0 -1.42857,0 -0.0433,0 -0.52997,-0.006 -0.53572,0 -0.0421,0.0421 0.0421,0.13648 0,0.17857 -0.0421,0.0421 -0.12533,-0.0266 -0.17857,0 -0.0753,0.0376 -0.11905,0.11905 -0.17857,0.17858 -0.17857,0 -0.35957,-0.0294 -0.53571,0 -0.37134,0.0619 -0.70228,0.28331 -1.07143,0.35714 -0.11674,0.0233 -0.2381,0 -0.35714,0 -0.11905,0.0595 -0.23088,0.13648 -0.35715,0.17857 -0.0695,0.0232 -0.508,-0.0277 -0.53571,0 -0.0421,0.0421 0.0421,0.13648 0,0.17857 -0.043,0.043 -0.67132,-0.043 -0.71429,0 -0.0421,0.0421 -0.0421,0.13648 0,0.17857 0.007,0.007 0.64871,0 0.71429,0"
           clip-path="url(#clipPath5802-5-9)"
           inkscape:connector-curvature="0" />
        <circle
           id="circle29"
           style="opacity:0.4;fill:url(#radialGradient3848);stroke:none"
           transform="translate(0.76234285,0.76504839)"
           cx="520.73364"
           cy="551.07397"
           r="15.404826" />
      </g>
    </g>
  </g>
</svg>
