<?xml version="1.0" encoding="UTF-8" standalone="no"?>
<!-- Created with Inkscape (http://www.inkscape.org/) -->

<svg
   xmlns:dc="http://purl.org/dc/elements/1.1/"
   xmlns:cc="http://creativecommons.org/ns#"
   xmlns:rdf="http://www.w3.org/1999/02/22-rdf-syntax-ns#"
   xmlns:svg="http://www.w3.org/2000/svg"
   xmlns="http://www.w3.org/2000/svg"
   xmlns:xlink="http://www.w3.org/1999/xlink"
   xmlns:sodipodi="http://sodipodi.sourceforge.net/DTD/sodipodi-0.dtd"
   xmlns:inkscape="http://www.inkscape.org/namespaces/inkscape"
   width="48"
   height="48"
   viewBox="0 0 12.7 12.7"
   version="1.1"
   id="svg829"
   inkscape:version="0.92.3 (2405546, 2018-03-11)"
   sodipodi:docname="atril.svg">
  <defs
     id="defs823">
    <linearGradient
       inkscape:collect="always"
       id="linearGradient892">
      <stop
         style="stop-color:#000000;stop-opacity:1;"
         offset="0"
         id="stop888" />
      <stop
         style="stop-color:#000000;stop-opacity:0;"
         offset="1"
         id="stop890" />
    </linearGradient>
    <linearGradient
       inkscape:collect="always"
       xlink:href="#linearGradient892"
       id="linearGradient894"
       x1="3.5112917"
       y1="287.21619"
       x2="10.998671"
       y2="294.38794"
       gradientUnits="userSpaceOnUse" />
  </defs>
  <sodipodi:namedview
     id="base"
     pagecolor="#ffffff"
     bordercolor="#666666"
     borderopacity="1.0"
     inkscape:pageopacity="0.0"
     inkscape:pageshadow="2"
     inkscape:zoom="5.3125"
     inkscape:cx="24"
     inkscape:cy="24"
     inkscape:document-units="mm"
     inkscape:current-layer="layer1"
     showgrid="false"
     showguides="true"
     inkscape:guide-bbox="true"
     inkscape:window-width="1366"
     inkscape:window-height="719"
     inkscape:window-x="0"
     inkscape:window-y="25"
     inkscape:window-maximized="1"
     scale-x="1.9"
     units="px"
     inkscape:snap-global="true"
     inkscape:snap-smooth-nodes="true" />
  <metadata
     id="metadata826">
    <rdf:RDF>
      <cc:Work
         rdf:about="">
        <dc:format>image/svg+xml</dc:format>
        <dc:type
           rdf:resource="http://purl.org/dc/dcmitype/StillImage" />
        <dc:title></dc:title>
      </cc:Work>
    </rdf:RDF>
  </metadata>
  <g
     inkscape:label="Capa 1"
     inkscape:groupmode="layer"
     id="layer1"
     transform="translate(0,-284.3)">
    <g
       id="g900">
      <path
         inkscape:connector-curvature="0"
         id="path852-3"
         d="m 6.3502584,284.39147 c -1.5434366,0 -2.7839985,0.29643 -3.6871135,0.8816 -1.085107,0.7031 -1.6588134,1.82603 -1.6588134,3.24683 0,1.91207 1.5362412,4.46762 2.0071125,5.20537 0.5375664,0.84219 1.1245075,1.60861 1.6526124,2.158 0.6726666,0.69964 1.2086563,1.02527 1.686202,1.02527 0.4775705,0 1.013092,-0.32561 1.685685,-1.02527 0.5280803,-0.54937 1.1150463,-1.31579 1.6526124,-2.158 0.4708712,-0.73773 2.0071122,-3.2933 2.0071122,-5.20537 2.4e-5,-1.42078 -0.573141,-2.5437 -1.658296,-3.24683 -0.9030664,-0.58517 -2.1437011,-0.8816 -3.6871136,-0.8816 z"
         style="fill:#ff2a2a;stroke-width:0.02444816" />
      <path
         inkscape:connector-curvature="0"
         id="path850"
         d="m 7.5432083,296.3003 c 0.162642,-0.13502 0.312052,-0.2288 0.492993,-0.41703 0.528082,-0.54937 1.114531,-1.3158 1.652096,-2.15801 0.235436,-0.36886 0.7373697,-1.19202 1.1802897,-2.16214 0.221459,-0.48506 0.428429,-1.00704 0.579809,-1.52704 0.15138,-0.51999 0.24753,-1.03817 0.24753,-1.51618 6e-6,-0.3552 -0.03628,-0.69164 -0.10697,-1.00769 -0.07069,-0.31606 -0.176277,-0.61159 -0.315743,-0.8847 -0.122373,-0.23964 -0.281326,-0.45454 -0.455269,-0.65836 l -1.5161867,1.80402 -2.270145,-2.27014 -0.747758,2.46135 -1.328601,1.46554 -1.9233973,0.94568 0.6728272,0.41393 -0.6914306,0.98081 z"
         style="fill:url(#linearGradient894);stroke-width:0.23659648;fill-opacity:1;opacity:0.8" />
      <path
         inkscape:connector-curvature="0"
         id="path3185"
         d="m 11.500073,289.71982 c 0.100123,-0.40962 0.195853,-0.82162 0.195853,-1.19992 4e-6,-0.22696 -0.03921,-0.43263 -0.06821,-0.64389 l -0.315227,0.46612 c -0.858494,1.27924 -1.8869287,2.12959 -2.5802037,2.12959 -1.532561,0 -1.736626,-1.18337 -0.28112,-1.78181 1.050559,-0.43195 2.2791127,-1.21664 2.8995647,-1.84588 -0.03007,-0.0695 -0.04337,-0.14966 -0.07752,-0.21652 -0.122373,-0.23964 -0.281325,-0.45454 -0.455269,-0.65836 -0.559002,0.73677 -2.8207387,2.48408 -3.4835087,2.48408 -0.07025,0 -0.09831,-0.55778 -0.158646,-1.40146 -0.06274,-0.87719 -0.04053,-1.59861 -0.144177,-1.54874 -0.01373,0.007 -0.256042,0.6608 -0.612883,1.30793 -0.856266,1.55285 -1.399938,2.23274 -2.2778969,2.81791 -0.3798591,0.25318 -0.9776394,0.57231 -1.1089764,0.74673 -0.1248828,0.16586 -0.048586,0.0639 0.45837,-0.0817 1.2655983,-0.36329 1.1714752,-0.65176 0.2144572,0.49558 -1.303641,1.5629 -0.6480331,1.07761 0.717269,-0.19947 0.6260281,-0.58558 1.3082661,-0.99676 1.4856971,-1.06506 0.190123,-0.0733 0.31005,-0.12379 0.547254,-0.14004 0.280885,-0.0193 0.442937,0.009 0.547253,0.31781 0.08872,0.26257 0.28946,0.74123 0.606164,1.11621 0.128193,0.15178 0.242086,0.22518 0.358635,0.29766 0.107551,0.0669 0.216281,0.13718 0.366386,0.16743 0.299531,0.0663 0.499668,0.0328 0.709517,0.0233 0.449722,-0.0267 1.2136547,-0.43696 1.7373617,-0.85782 0.382665,-0.30752 0.582552,-0.51108 0.719853,-0.72968 z m -4.7790367,-2.42362 0.05943,0.67644 c -0.0112,0.44506 -0.257443,0.69721 -0.529683,0.81132 -0.270261,0.11327 -0.536673,0.30721 -0.512114,0.005 0.013,-0.16018 0.255089,-0.41587 0.545187,-0.82475 z"
         style="fill:#e6e6e6;stroke-width:0.23659648" />
      <path
         inkscape:connector-curvature="0"
         id="path4588"
         d="m 6.3502587,284.39147 c -1.5434366,0 -2.7839985,0.29643 -3.6871135,0.8816 -1.0851073,0.7031 -1.6588137,1.82603 -1.6588137,3.24683 0,1.91207 1.5362412,4.46762 2.0071128,5.20537 0.5375664,0.84219 1.1245074,1.60861 1.6526123,2.158 0.6726666,0.69964 1.2086564,1.02527 1.6862021,1.02527 0.4775705,0 1.0130919,-0.32561 1.685685,-1.02527 0.5280803,-0.54937 1.1150462,-1.31579 1.6526123,-2.158 0.470871,-0.73773 2.007112,-3.2933 2.007112,-5.20537 2.5e-5,-1.42078 -0.573141,-2.5437 -1.658296,-3.24683 -0.9030662,-0.58517 -2.1437011,-0.8816 -3.6871133,-0.8816 z m 0,0.0382 c 0.5589177,0.0225 1.0898962,0.0719 1.554427,0.18294 0.3079843,0.0736 0.5960941,0.16587 0.863513,0.27595 0.2674191,0.11008 0.5142402,0.23818 0.7400068,0.38447 0.2712886,0.17578 0.5104175,0.37775 0.7167515,0.6041 0.206334,0.22635 0.379882,0.47723 0.519348,0.75034 0.139467,0.27311 0.245057,0.56864 0.315743,0.8847 0.07069,0.31606 0.10646,0.6525 0.106454,1.00769 0,0.47802 -0.09615,0.99619 -0.24753,1.51619 -0.15138,0.51999 -0.357833,1.04198 -0.579293,1.52704 -0.4429192,0.97011 -0.9448538,1.79328 -1.1802896,2.16214 -0.5375662,0.84221 -1.1245321,1.60863 -1.6526124,2.158 -0.3362965,0.34983 -0.6385721,0.60629 -0.916223,0.77515 -0.084411,0.0513 -0.1636318,0.0811 -0.2408121,0.10335 -0.07713,-0.0222 -0.1559877,-0.0521 -0.2402956,-0.10335 -0.2777739,-0.16886 -0.5798897,-0.42533 -0.916223,-0.77515 -0.5281049,-0.54939 -1.115046,-1.31581 -1.6526124,-2.158 -0.2354357,-0.36888 -0.7373704,-1.19203 -1.1802898,-2.16215 -0.2214594,-0.48505 -0.4279128,-1.00704 -0.5792928,-1.52703 -0.1513798,-0.52 -0.2475299,-1.03817 -0.2475301,-1.51619 0,-0.3552 0.035714,-0.69163 0.1064535,-1.00769 0.07074,-0.31606 0.1767274,-0.61159 0.3162599,-0.8847 0.1395325,-0.27311 0.3129698,-0.52399 0.519348,-0.75034 0.2063781,-0.22635 0.4454755,-0.42832 0.7167522,-0.6041 0.2257788,-0.14629 0.4725871,-0.27439 0.7400066,-0.38447 0.2674194,-0.11008 0.5555334,-0.20233 0.8635132,-0.27595 0.4645234,-0.11106 0.9955051,-0.16048 1.5544271,-0.18294 z"
         style="opacity:0.2;fill:#000000;stroke-width:0.02444816" />
    </g>
  </g>
</svg>
