<?xml version="1.0" encoding="UTF-8" standalone="no"?>
<!-- Created with Inkscape (http://www.inkscape.org/) -->

<svg
   xmlns:dc="http://purl.org/dc/elements/1.1/"
   xmlns:cc="http://creativecommons.org/ns#"
   xmlns:rdf="http://www.w3.org/1999/02/22-rdf-syntax-ns#"
   xmlns:svg="http://www.w3.org/2000/svg"
   xmlns="http://www.w3.org/2000/svg"
   xmlns:xlink="http://www.w3.org/1999/xlink"
   xmlns:sodipodi="http://sodipodi.sourceforge.net/DTD/sodipodi-0.dtd"
   xmlns:inkscape="http://www.inkscape.org/namespaces/inkscape"
   width="48"
   height="48"
   viewBox="0 0 12.7 12.7"
   version="1.1"
   id="svg829"
   inkscape:version="0.92.3 (2405546, 2018-03-11)"
   sodipodi:docname="filezilla.svg">
  <defs
     id="defs823">
    <linearGradient
       inkscape:collect="always"
       id="linearGradient857">
      <stop
         style="stop-color:#000000;stop-opacity:1;"
         offset="0"
         id="stop853" />
      <stop
         style="stop-color:#000000;stop-opacity:0;"
         offset="1"
         id="stop855" />
    </linearGradient>
    <linearGradient
       inkscape:collect="always"
       xlink:href="#linearGradient857"
       id="linearGradient879"
       gradientUnits="userSpaceOnUse"
       x1="2.6022546"
       y1="286.42212"
       x2="11.766176"
       y2="294.86386" />
  </defs>
  <sodipodi:namedview
     id="base"
     pagecolor="#ffffff"
     bordercolor="#666666"
     borderopacity="1.0"
     inkscape:pageopacity="0.0"
     inkscape:pageshadow="2"
     inkscape:zoom="2.65625"
     inkscape:cx="24"
     inkscape:cy="24"
     inkscape:document-units="mm"
     inkscape:current-layer="layer1"
     showgrid="false"
     showguides="true"
     inkscape:guide-bbox="true"
     inkscape:window-width="1366"
     inkscape:window-height="719"
     inkscape:window-x="0"
     inkscape:window-y="25"
     inkscape:window-maximized="1"
     scale-x="1.9"
     units="px"
     inkscape:snap-global="true" />
  <metadata
     id="metadata826">
    <rdf:RDF>
      <cc:Work
         rdf:about="">
        <dc:format>image/svg+xml</dc:format>
        <dc:type
           rdf:resource="http://purl.org/dc/dcmitype/StillImage" />
        <dc:title></dc:title>
      </cc:Work>
    </rdf:RDF>
  </metadata>
  <g
     inkscape:label="Capa 1"
     inkscape:groupmode="layer"
     id="layer1"
     transform="translate(0,-284.3)">
    <g
       id="g885">
      <path
         id="path868"
         d="m 6.3502583,284.39147 c -1.543437,0 -2.7839977,0.29643 -3.6871127,0.8816 -1.085108,0.7031 -1.658814,1.82603 -1.658814,3.24683 0,1.91207 1.536241,4.46762 2.007113,5.20537 0.537566,0.84219 1.124507,1.60861 1.652612,2.158 0.6726667,0.69964 1.2086557,1.02527 1.6862017,1.02527 0.477571,0 1.013092,-0.32561 1.685685,-1.02527 0.52808,-0.54937 1.115047,-1.31579 1.652612,-2.158 0.4708717,-0.73773 2.0071127,-3.2933 2.0071127,-5.20537 2.4e-5,-1.42078 -0.573141,-2.5437 -1.658296,-3.24683 -0.9030667,-0.58517 -2.1437007,-0.8816 -3.6871137,-0.8816 z"
         style="fill:#ff2a2a;stroke-width:0.02444816"
         inkscape:connector-curvature="0" />
      <path
         inkscape:connector-curvature="0"
         id="path4588"
         d="m 6.3502587,284.39147 c -1.5434366,0 -2.7839985,0.29643 -3.6871135,0.8816 -1.0851073,0.7031 -1.6588137,1.82603 -1.6588137,3.24683 0,1.91207 1.5362412,4.46762 2.0071128,5.20537 0.5375664,0.84219 1.1245074,1.60861 1.6526123,2.158 0.6726666,0.69964 1.2086564,1.02527 1.6862021,1.02527 0.4775705,0 1.0130919,-0.32561 1.685685,-1.02527 0.5280803,-0.54937 1.1150462,-1.31579 1.6526123,-2.158 0.470871,-0.73773 2.007112,-3.2933 2.007112,-5.20537 2.5e-5,-1.42078 -0.573141,-2.5437 -1.658296,-3.24683 -0.9030662,-0.58517 -2.1437011,-0.8816 -3.6871133,-0.8816 z m 0,0.0382 c 0.5589177,0.0225 1.0898962,0.0719 1.554427,0.18294 0.3079843,0.0736 0.5960941,0.16587 0.863513,0.27595 0.2674191,0.11008 0.5142402,0.23818 0.7400068,0.38447 0.2712886,0.17578 0.5104175,0.37775 0.7167515,0.6041 0.206334,0.22635 0.379882,0.47723 0.519348,0.75034 0.139467,0.27311 0.245057,0.56864 0.315743,0.8847 0.07069,0.31606 0.10646,0.6525 0.106454,1.00769 0,0.47802 -0.09615,0.99619 -0.24753,1.51619 -0.15138,0.51999 -0.357833,1.04198 -0.579293,1.52704 -0.4429192,0.97011 -0.9448538,1.79328 -1.1802896,2.16214 -0.5375662,0.84221 -1.1245321,1.60863 -1.6526124,2.158 -0.3362965,0.34983 -0.6385721,0.60629 -0.916223,0.77515 -0.084411,0.0513 -0.1636318,0.0811 -0.2408121,0.10335 -0.07713,-0.0222 -0.1559877,-0.0521 -0.2402956,-0.10335 -0.2777739,-0.16886 -0.5798897,-0.42533 -0.916223,-0.77515 -0.5281049,-0.54939 -1.115046,-1.31581 -1.6526124,-2.158 -0.2354357,-0.36888 -0.7373704,-1.19203 -1.1802898,-2.16215 -0.2214594,-0.48505 -0.4279128,-1.00704 -0.5792928,-1.52703 -0.1513798,-0.52 -0.2475299,-1.03817 -0.2475301,-1.51619 0,-0.3552 0.035714,-0.69163 0.1064535,-1.00769 0.07074,-0.31606 0.1767274,-0.61159 0.3162599,-0.8847 0.1395325,-0.27311 0.3129698,-0.52399 0.519348,-0.75034 0.2063781,-0.22635 0.4454755,-0.42832 0.7167522,-0.6041 0.2257788,-0.14629 0.4725871,-0.27439 0.7400066,-0.38447 0.2674194,-0.11008 0.5555334,-0.20233 0.8635132,-0.27595 0.4645234,-0.11106 0.9955051,-0.16048 1.5544271,-0.18294 z"
         style="opacity:0.2;fill:#000000;stroke-width:0.02444816" />
      <path
         inkscape:connector-curvature="0"
         id="path851"
         d="m 7.8077913,296.07654 c 0.07974,-0.0757 0.144568,-0.10605 0.22841,-0.19327 0.528079,-0.54937 1.115046,-1.3158 1.652612,-2.15801 0.235436,-0.36886 0.7368537,-1.19202 1.1797717,-2.16214 0.221461,-0.48506 0.428432,-1.00704 0.57981,-1.52704 0.12718,-0.43686 0.18282,-0.86225 0.207741,-1.27382 l -2.9248867,-2.87476 -3.950147,0.67851 -1.6061027,4.87774 z"
         style="fill:url(#linearGradient879);fill-opacity:1;stroke:none;stroke-width:0.26499999;stroke-linecap:butt;stroke-linejoin:miter;stroke-miterlimit:4;stroke-dasharray:none;stroke-opacity:1;opacity:0.75" />
      <path
         id="path1374"
         d="m 8.7312501,285.88749 -4.3656252,4.6e-4 -1.1906251,5.55579 H 4.3656249 L 4.882094,289.0625 h 2.9229669 l -2.6456859,2.38124 0.7937499,0.79376 c 1.1905882,-0.79374 2.3812869,0.63518 3.5718756,-0.55546 l -0.2383025,-0.95276 -0.3570103,0.27817 c -0.5393366,0.30996 -0.9824375,-0.0387 -1.6118619,-0.13509 l 1.8102993,-1.8103 0.3968754,-1.19019 H 5.159375 l 0.1984375,-0.79376 H 8.334375 Z"
         style="fill:#e6e6e6;fill-opacity:1;stroke-width:0.11910053"
         inkscape:connector-curvature="0" />
    </g>
  </g>
</svg>
