<?xml version="1.0" encoding="UTF-8" standalone="no"?>
<!-- Generator: Adobe Illustrator 19.0.0, SVG Export Plug-In . SVG Version: 6.00 Build 0)  -->

<svg
   xmlns:dc="http://purl.org/dc/elements/1.1/"
   xmlns:cc="http://creativecommons.org/ns#"
   xmlns:rdf="http://www.w3.org/1999/02/22-rdf-syntax-ns#"
   xmlns:svg="http://www.w3.org/2000/svg"
   xmlns="http://www.w3.org/2000/svg"
   xmlns:xlink="http://www.w3.org/1999/xlink"
   xmlns:sodipodi="http://sodipodi.sourceforge.net/DTD/sodipodi-0.dtd"
   xmlns:inkscape="http://www.inkscape.org/namespaces/inkscape"
   version="1.1"
   id="Capa_1"
   x="0px"
   y="0px"
   viewBox="0 0 48 48"
   xml:space="preserve"
   sodipodi:docname="geany.svg"
   width="48"
   height="48"
   inkscape:version="0.92.3 (2405546, 2018-03-11)"><metadata
   id="metadata41"><rdf:RDF><cc:Work
       rdf:about=""><dc:format>image/svg+xml</dc:format><dc:type
         rdf:resource="http://purl.org/dc/dcmitype/StillImage" /><dc:title /></cc:Work></rdf:RDF></metadata><defs
   id="defs39"><linearGradient
     inkscape:collect="always"
     id="linearGradient1036"><stop
       style="stop-color:#000000;stop-opacity:1;"
       offset="0"
       id="stop1032" /><stop
       style="stop-color:#000000;stop-opacity:0;"
       offset="1"
       id="stop1034" /></linearGradient><linearGradient
     inkscape:collect="always"
     xlink:href="#linearGradient923"
     id="linearGradient925"
     x1="12.742662"
     y1="15.331059"
     x2="15.389559"
     y2="15.331059"
     gradientUnits="userSpaceOnUse"
     gradientTransform="matrix(1.3553237,0,0,1.3553237,-8.527771,-9.8171245)" /><linearGradient
     inkscape:collect="always"
     id="linearGradient923"><stop
       style="stop-color:#483e37;stop-opacity:1"
       offset="0"
       id="stop919" /><stop
       style="stop-color:#ff7f2a;stop-opacity:0;"
       offset="1"
       id="stop921" /></linearGradient><linearGradient
     inkscape:collect="always"
     xlink:href="#linearGradient891"
     id="linearGradient917"
     x1="24.08493"
     y1="30.073236"
     x2="23.925924"
     y2="34.79266"
     gradientUnits="userSpaceOnUse"
     gradientTransform="matrix(1.3553237,0,0,1.3553237,-8.527771,-9.8171245)" /><linearGradient
     inkscape:collect="always"
     id="linearGradient891"><stop
       style="stop-color:#aa8800;stop-opacity:1;"
       offset="0"
       id="stop887" /><stop
       style="stop-color:#ffe680;stop-opacity:1"
       offset="1"
       id="stop889" /></linearGradient><linearGradient
     inkscape:collect="always"
     xlink:href="#linearGradient891"
     id="linearGradient893"
     x1="23.850739"
     y1="20.429516"
     x2="24.114159"
     y2="13.841281"
     gradientUnits="userSpaceOnUse"
     gradientTransform="matrix(1.3553237,0,0,1.3553237,-8.527771,-4.3958295)" /><linearGradient
     inkscape:collect="always"
     xlink:href="#linearGradient891"
     id="linearGradient909"
     x1="29.786148"
     y1="23.721371"
     x2="44.763222"
     y2="23.815487"
     gradientUnits="userSpaceOnUse"
     gradientTransform="matrix(1.3553237,0,0,1.3553237,-8.527771,-9.8171245)" /><linearGradient
     inkscape:collect="always"
     xlink:href="#linearGradient891"
     id="linearGradient901"
     x1="23.251223"
     y1="30.127857"
     x2="22.838837"
     y2="14.221974"
     gradientUnits="userSpaceOnUse"
     gradientTransform="matrix(1.3553237,0,0,1.3553237,-8.527771,-9.8171245)" /><linearGradient
     inkscape:collect="always"
     xlink:href="#linearGradient1036"
     id="linearGradient1058"
     gradientUnits="userSpaceOnUse"
     x1="15.341177"
     y1="14.356152"
     x2="45.55294"
     y2="42.49733" /><filter
     inkscape:collect="always"
     style="color-interpolation-filters:sRGB"
     id="filter983"
     x="-0.11295775"
     width="1.2259155"
     y="-0.25203866"
     height="1.5040773"><feGaussianBlur
       inkscape:collect="always"
       stdDeviation="1.4082824"
       id="feGaussianBlur985" /></filter></defs><sodipodi:namedview
   pagecolor="#ffffff"
   bordercolor="#666666"
   borderopacity="1"
   objecttolerance="10"
   gridtolerance="10"
   guidetolerance="10"
   inkscape:pageopacity="0"
   inkscape:pageshadow="2"
   inkscape:window-width="1366"
   inkscape:window-height="719"
   id="namedview37"
   showgrid="false"
   showguides="true"
   inkscape:guide-bbox="true"
   inkscape:zoom="1.8782524"
   inkscape:cx="24"
   inkscape:cy="24"
   inkscape:window-x="0"
   inkscape:window-y="25"
   inkscape:window-maximized="1"
   inkscape:current-layer="Capa_1"
   inkscape:snap-global="false" />


<g
   id="g6"
   transform="translate(0,-464)">
</g>
<g
   id="g8"
   transform="translate(0,-464)">
</g>
<g
   id="g10"
   transform="translate(0,-464)">
</g>
<g
   id="g12"
   transform="translate(0,-464)">
</g>
<g
   id="g14"
   transform="translate(0,-464)">
</g>
<g
   id="g16"
   transform="translate(0,-464)">
</g>
<g
   id="g18"
   transform="translate(0,-464)">
</g>
<g
   id="g20"
   transform="translate(0,-464)">
</g>
<g
   id="g22"
   transform="translate(0,-464)">
</g>
<g
   id="g24"
   transform="translate(0,-464)">
</g>
<g
   id="g26"
   transform="translate(0,-464)">
</g>
<g
   id="g28"
   transform="translate(0,-464)">
</g>
<g
   id="g30"
   transform="translate(0,-464)">
</g>
<g
   id="g32"
   transform="translate(0,-464)">
</g>
<g
   id="g34"
   transform="translate(0,-464)">
</g>
<g
   id="g996"><path
     inkscape:connector-curvature="0"
     id="path863"
     d="m 24.000976,0.3457035 c -5.833461,0 -10.522198,1.1203776 -13.935546,3.3320313 -4.101193,2.6574037 -6.269531,6.9015122 -6.269531,12.2714832 0,7.226706 5.806265,16.88549 7.585937,19.673828 2.031747,3.183082 4.250107,6.079783 6.246093,8.15625 2.542362,2.644284 4.56815,3.875 6.373047,3.875 1.804991,0 3.829009,-1.230625 6.371093,-3.875 1.995894,-2.076376 4.214349,-4.973077 6.246094,-8.15625 C 38.397835,32.8348 44.204101,23.175924 44.204101,15.949219 44.204193,10.57934 42.037899,6.3352307 37.936523,3.6777348 34.523359,1.4660811 29.834346,0.3457035 24.000976,0.3457035 Z"
     style="fill:#89a02c;fill-opacity:1;stroke-width:0.0924025" /><path
     inkscape:connector-curvature="0"
     id="path1022"
     d="m 28.707031,45.189453 c 0.555633,-0.474996 1.052653,-0.774145 1.664063,-1.410156 1.995894,-2.076377 4.214348,-4.973078 6.246094,-8.15625 0.889836,-1.394123 2.786912,-4.505287 4.460932,-8.171875 0.59573,-1.304813 1.07656,-2.714493 1.56055,-4.107422 l -4.708982,-4.708984 -2.634766,1.035156 -9.035156,5.835937 -13.458985,-1.222656 -1.505859,0.939453 8.375,8.376953 -2.357422,0.195313 z"
     style="opacity:0.55;fill:url(#linearGradient1058);fill-opacity:1;stroke:none;stroke-width:1px;stroke-linecap:butt;stroke-linejoin:miter;stroke-opacity:1" /><path
     inkscape:connector-curvature="0"
     id="path863-6-5"
     d="m 23.888455,17.036753 c -0.172533,0 -0.34644,0.02915 -0.5,0.08984 -0.434327,0.171638 -0.996094,0.951172 -0.996094,0.951172 l -3.986328,1.902347 h -1.998047 c -3.45919,0.107618 -4.409053,-3.373729 -6.9785154,-2.853515 3.0824354,2.395456 0.01054,5.808334 1.9960934,7.611328 3.392834,3.08079 7.902555,5.645339 12.28711,5.708984 l 0.572265,-0.0098 c 3.314226,-0.119807 6.523632,-1.720196 9.078125,-5.699219 8.331644,4.232514 6.652728,-7.513656 2.863281,-7.22461 -0.874487,0.0667 -1.861044,0.774049 -2.863281,2.466797 h -2.992187 l -4.986328,-1.902308 c 0,0 -0.563725,-0.779535 -0.998047,-0.951172 -0.15356,-0.06069 -0.325509,-0.08984 -0.498047,-0.08984 z m 12.515625,2.806641 a 0.99725376,1.9028659 0 0 1 0.002,0 0.99725376,1.9028659 0 0 1 0.07031,0.002 0.99725376,1.9028659 0 0 1 0.955079,1.978515 l -0.0039,0.01563 a 0.99725376,1.9028659 0 0 1 -1.042968,1.806641 0.99725376,1.9028659 0 0 1 -0.949219,-1.982422 0.99725376,1.9028659 0 0 1 0.96875,-1.820312 z"
     style="fill:#000000;fill-opacity:1;stroke-width:0.1252353;filter:url(#filter983)" /><path
     id="path880"
     d="m 33.268837,20.475165 h -2.991239 c -1.038657,0.526602 -2.068099,0.939716 -3.08654,1.225614 -1.01844,0.285899 -2.02547,0.445178 -3.023003,0.463245 -0.997539,0.01807 -1.986178,-0.104328 -2.962128,-0.381184 -0.975951,-0.276864 -1.93962,-0.708777 -2.893298,-1.307675 h -1.998573 c -3.45919,0.107618 -4.408339,-3.373807 -6.9778015,-2.853593 3.0824345,2.395456 0.01038,5.807466 1.9959275,7.61046 3.392834,3.080791 7.90336,5.646186 12.287915,5.709831 l 0.571779,-0.01059 c 3.314227,-0.119807 6.522469,-1.720219 9.076961,-5.699243 -0.106083,-0.651347 -0.305513,-1.178713 -0.378537,-1.874158 -0.07304,-0.695445 -0.01966,-1.558969 0.378537,-2.882709 z"
     style="fill:url(#linearGradient901);fill-opacity:1;stroke-width:0.1252353"
     inkscape:connector-curvature="0" /><path
     id="path868"
     d="m 36.133019,18.00805 c -0.874488,0.0667 -1.861945,0.774367 -2.864182,2.467115 -0.398193,1.323738 -0.451559,2.187263 -0.378537,2.882709 0.07304,0.695446 0.272438,1.222812 0.378537,1.874158 8.331644,4.232514 6.653629,-7.513029 2.864182,-7.223982 z m 0.177359,2.329464 a 0.99725376,1.9028659 0 0 1 0.0028,0 0.99725376,1.9028659 0 0 1 0.06882,0.0028 0.99725376,1.9028659 0 0 1 0.955609,1.977397 l -0.0028,0.01588 a 0.99725376,1.9028659 0 0 1 -1.042963,1.807985 0.99725376,1.9028659 0 0 1 -0.950316,-1.982691 0.99725376,1.9028659 0 0 1 0.968849,-1.821217 z"
     style="fill:url(#linearGradient909);fill-opacity:1;stroke-width:0.1252353"
     inkscape:connector-curvature="0" /><path
     inkscape:connector-curvature="0"
     id="path863-6"
     d="m 18.312629,20.475165 c 0.953678,0.598898 1.917347,1.030811 2.893298,1.307675 0.97595,0.276862 1.964589,0.399253 2.962128,0.381183 0.997533,-0.01805 2.004563,-0.177349 3.023003,-0.463245 1.018441,-0.285897 2.047883,-0.698991 3.08654,-1.225614 l -4.987167,-1.903277 c 0,0 -0.563643,-0.778679 -0.997965,-0.950316 -0.15356,-0.06069 -0.325121,-0.09001 -0.497659,-0.09001 -0.172533,0 -0.346745,0.02932 -0.500305,0.09001 -0.434327,0.171638 -0.995315,0.950316 -0.995315,0.950316 z"
     style="fill:url(#linearGradient893);fill-opacity:1;stroke-width:0.1252353" /><path
     inkscape:connector-curvature="0"
     id="path861"
     d="m 24.191876,30.931274 -0.571779,0.01059 -0.590307,0.03176 h -0.730603 v 0.918549 l -4.987167,1.903271 h 12.965578 l -4.987167,-1.903271 v -0.950312 h -1.175319 c 0.02583,-7.56e-4 0.05094,-0.0095 0.07676,-0.01059 z"
     style="fill:url(#linearGradient917);fill-opacity:1;stroke-width:0.1252353" /><path
     id="path846"
     d="m 10.334218,6.204557 c -4.2635579,2.999175 1.565327,5.711266 0,9.513738 3.016453,-2.04086 2.28048,-5.487557 0,-9.513738 z"
     style="fill:url(#linearGradient925);fill-opacity:1;stroke-width:0.1252353"
     inkscape:connector-curvature="0" /><path
     inkscape:connector-curvature="0"
     id="path4588"
     d="m 24.000977,0.345704 c -5.833461,0 -10.522199,1.1203783 -13.935547,3.3320313 -4.101193,2.657404 -6.269532,6.9015117 -6.269532,12.2714827 0,7.226706 5.806266,16.88549 7.585938,19.673828 2.031747,3.183082 4.250107,6.079783 6.246094,8.15625 2.542362,2.644284 4.56815,3.875 6.373047,3.875 1.804991,0 3.829009,-1.230625 6.371093,-3.875 1.995894,-2.076376 4.214348,-4.973077 6.246094,-8.15625 C 38.397835,32.8348 44.204102,23.175924 44.204102,15.94922 44.204194,10.57934 42.037898,6.3352314 37.936524,3.6777353 34.52336,1.4660823 29.834346,0.345704 24.000977,0.345704 Z m 0,0.14453126 c 2.112445,0.084873 4.119293,0.27168527 5.875,0.69140624 1.164035,0.2782756 2.252954,0.6269196 3.263671,1.0429688 1.010718,0.4160492 1.943585,0.9002116 2.796876,1.453125 1.025343,0.6643739 1.929139,1.4277032 2.708984,2.2832031 0.779844,0.8554999 1.435774,1.803713 1.96289,2.8359375 0.527119,1.0322245 0.926199,2.1492021 1.19336,3.3437491 0.267161,1.194547 0.402367,2.466124 0.402344,3.808593 0,1.806677 -0.363402,3.765127 -0.935547,5.730469 -0.572145,1.965342 -1.352441,3.93819 -2.189453,5.771484 -1.674026,3.66659 -3.571102,6.777752 -4.460938,8.171875 -2.031746,3.183173 -4.2502,6.079876 -6.246094,8.15625 -1.271042,1.322188 -2.413501,2.291486 -3.46289,2.929688 -0.319034,0.194026 -0.618451,0.306539 -0.910156,0.390625 -0.291517,-0.08404 -0.58956,-0.196919 -0.908204,-0.390625 -1.049854,-0.638215 -2.191709,-1.607546 -3.46289,-2.929688 -1.995987,-2.076467 -4.214347,-4.973168 -6.246094,-8.15625 C 12.492,34.228877 10.594924,31.117748 8.920898,27.451171 8.083886,25.617883 7.30359,23.645021 6.731445,21.679687 6.159301,19.714353 5.795899,17.755895 5.795898,15.949218 c 0,-1.342492 0.134981,-2.614034 0.402344,-3.808593 0.267363,-1.194559 0.667946,-2.3115245 1.195313,-3.3437491 0.527367,-1.0322246 1.182878,-1.980449 1.96289,-2.8359375 0.780012,-0.8554885 1.683687,-1.6188521 2.708985,-2.2832031 0.853337,-0.5529133 1.786156,-1.0370759 2.796875,-1.453125 1.010719,-0.4160492 2.099654,-0.7646932 3.263672,-1.0429688 1.755679,-0.41972098 3.762539,-0.60653321 5.875,-0.69140624 z"
     style="opacity:0.2;fill:#000000;stroke-width:0.0924025" /></g></svg>