<?xml version="1.0" encoding="UTF-8" standalone="no"?>
<!-- Created with Inkscape (http://www.inkscape.org/) -->

<svg
   xmlns:dc="http://purl.org/dc/elements/1.1/"
   xmlns:cc="http://creativecommons.org/ns#"
   xmlns:rdf="http://www.w3.org/1999/02/22-rdf-syntax-ns#"
   xmlns:svg="http://www.w3.org/2000/svg"
   xmlns="http://www.w3.org/2000/svg"
   xmlns:sodipodi="http://sodipodi.sourceforge.net/DTD/sodipodi-0.dtd"
   xmlns:inkscape="http://www.inkscape.org/namespaces/inkscape"
   width="48"
   height="48"
   viewBox="0 0 12.7 12.7"
   version="1.1"
   id="svg829"
   inkscape:version="0.92.3 (2405546, 2018-03-11)"
   sodipodi:docname="gnome-do.svg">
  <defs
     id="defs823">
    <clipPath
       clipPathUnits="userSpaceOnUse"
       id="clipPath927">
      <g
         id="use929"
         inkscape:label="Clip">
        <path
           inkscape:connector-curvature="0"
           style="fill:#2ca089;stroke-width:0.04113208"
           d="m -5.7439193,283.47477 -10.9563497,10.95625 0.303419,0.30344 0.772914,-0.77193 0.772904,0.77193 -0.772904,0.77291 1.158933,1.15899 0.772903,-0.77206 0.772915,0.77206 -0.772915,0.7729 0.386017,0.38597 10.9563553,-10.95542 z m -0.6077207,1.2145 0.7729092,0.7729 -0.7729092,0.77303 -0.7720389,-0.77303 z m -1.5449483,1.54593 0.7729094,0.77193 -0.7729094,0.77291 -0.7729089,-0.77291 z m 3.4767859,0.38596 0.772909,0.7729 -0.772909,0.77291 -0.7720391,-0.77291 z m -5.0226039,1.15888 0.7729091,0.7729 -0.7729091,0.7729 -0.7729097,-0.7729 z m 3.4776558,0.38693 0.772909,0.77205 -0.772909,0.77291 -0.7729089,-0.77291 z m -5.0226005,1.15887 0.772035,0.7729 -0.772035,0.77206 -0.772914,-0.77206 z m 3.4767826,0.38609 0.772909,0.7729 -0.772909,0.7729 -0.7729089,-0.7729 z m -5.0225996,1.15887 0.772903,0.77291 -0.772903,0.7729 -0.772915,-0.7729 z m 3.4776512,0.38693 0.7720395,0.77291 -0.7720395,0.77205 -0.7729089,-0.77205 z m -5.0234692,1.15888 0.772903,0.7729 -0.772903,0.77302 -0.772046,-0.77302 z m 3.477653,0.38608 0.7729073,0.77291 -0.7729073,0.7729 -0.772915,-0.7729 z m -1.545818,1.54581 0.772903,0.7729 -0.772903,0.77291 -0.772034,-0.77291 z"
           id="path970" />
        <path
           inkscape:connector-curvature="0"
           style="fill:#1a1a1a;fill-opacity:1;stroke-width:0.1389506"
           d="m -9.5487714,285.30924 a 5.4070438,5.4070438 0 0 1 5.4069053,5.40691 5.4070438,5.4070438 0 0 1 -5.4069053,5.4069 5.4070438,5.4070438 0 0 1 -5.4074216,-5.4069 5.4070438,5.4070438 0 0 1 5.4074216,-5.40691 z"
           id="path972" />
      </g>
    </clipPath>
    <clipPath
       clipPathUnits="userSpaceOnUse"
       id="clipPath944">
      <g
         inkscape:label="Clip"
         id="use946"
         transform="translate(0,-3.9583333e-6)">
        <g
           clip-path="url(#clipPath927)"
           id="g959">
          <g
             id="g957"
             inkscape:label="Clip">
            <path
               inkscape:connector-curvature="0"
               style="fill:#2ca089;stroke-width:0.04113208"
               d="m -5.7439193,283.47477 -10.9563497,10.95625 0.303419,0.30344 0.772914,-0.77193 0.772904,0.77193 -0.772904,0.77291 1.158933,1.15899 0.772903,-0.77206 0.772915,0.77206 -0.772915,0.7729 0.386017,0.38597 10.9563553,-10.95542 z m -0.6077207,1.2145 0.7729092,0.7729 -0.7729092,0.77303 -0.7720389,-0.77303 z m -1.5449483,1.54593 0.7729094,0.77193 -0.7729094,0.77291 -0.7729089,-0.77291 z m 3.4767859,0.38596 0.772909,0.7729 -0.772909,0.77291 -0.7720391,-0.77291 z m -5.0226039,1.15888 0.7729091,0.7729 -0.7729091,0.7729 -0.7729097,-0.7729 z m 3.4776558,0.38693 0.772909,0.77205 -0.772909,0.77291 -0.7729089,-0.77291 z m -5.0226005,1.15887 0.772035,0.7729 -0.772035,0.77206 -0.772914,-0.77206 z m 3.4767826,0.38609 0.772909,0.7729 -0.772909,0.7729 -0.7729089,-0.7729 z m -5.0225996,1.15887 0.772903,0.77291 -0.772903,0.7729 -0.772915,-0.7729 z m 3.4776512,0.38693 0.7720395,0.77291 -0.7720395,0.77205 -0.7729089,-0.77205 z m -5.0234692,1.15888 0.772903,0.7729 -0.772903,0.77302 -0.772046,-0.77302 z m 3.477653,0.38608 0.7729073,0.77291 -0.7729073,0.7729 -0.772915,-0.7729 z m -1.545818,1.54581 0.772903,0.7729 -0.772903,0.77291 -0.772034,-0.77291 z"
               id="path953" />
            <path
               inkscape:connector-curvature="0"
               style="fill:#1a1a1a;fill-opacity:1;stroke-width:0.1389506"
               d="m -9.5487714,285.30924 a 5.4070438,5.4070438 0 0 1 5.4069053,5.40691 5.4070438,5.4070438 0 0 1 -5.4069053,5.4069 5.4070438,5.4070438 0 0 1 -5.4074216,-5.4069 5.4070438,5.4070438 0 0 1 5.4074216,-5.40691 z"
               id="path955" />
          </g>
        </g>
      </g>
    </clipPath>
    <clipPath
       clipPathUnits="userSpaceOnUse"
       id="clipPath978">
      <path
         inkscape:connector-curvature="0"
         style="fill:#1a1a1a;fill-opacity:1;stroke-width:0.1389506"
         d="m -9.5487715,285.30924 a 5.4070438,5.4070438 0 0 1 5.4069054,5.40691 5.4070438,5.4070438 0 0 1 -5.4069054,5.4069 5.4070438,5.4070438 0 0 1 -5.4074215,-5.4069 5.4070438,5.4070438 0 0 1 5.4074215,-5.40691 z"
         id="path980" />
    </clipPath>
    <filter
       inkscape:collect="always"
       style="color-interpolation-filters:sRGB"
       id="filter947"
       x="-0.047869559"
       width="1.0957391"
       y="-0.048131154"
       height="1.0962623">
      <feGaussianBlur
         inkscape:collect="always"
         stdDeviation="0.16431214"
         id="feGaussianBlur949" />
    </filter>
    <filter
       inkscape:collect="always"
       style="color-interpolation-filters:sRGB"
       id="filter1037"
       x="-0.10799999"
       width="1.216"
       y="-0.10800001"
       height="1.216">
      <feGaussianBlur
         inkscape:collect="always"
         stdDeviation="0.25371138"
         id="feGaussianBlur1039" />
    </filter>
    <filter
       inkscape:collect="always"
       style="color-interpolation-filters:sRGB"
       id="filter1100"
       x="-0.13199977"
       width="1.2639995"
       y="-0.13200023"
       height="1.2640005">
      <feGaussianBlur
         inkscape:collect="always"
         stdDeviation="0.16971434"
         id="feGaussianBlur1102" />
    </filter>
  </defs>
  <sodipodi:namedview
     id="base"
     pagecolor="#ffffff"
     bordercolor="#666666"
     borderopacity="1.0"
     inkscape:pageopacity="0.0"
     inkscape:pageshadow="2"
     inkscape:zoom="3.727042"
     inkscape:cx="24"
     inkscape:cy="24"
     inkscape:document-units="mm"
     inkscape:current-layer="layer1"
     showgrid="false"
     showguides="true"
     inkscape:guide-bbox="true"
     inkscape:window-width="1366"
     inkscape:window-height="719"
     inkscape:window-x="0"
     inkscape:window-y="25"
     inkscape:window-maximized="1"
     scale-x="1.9"
     units="px"
     inkscape:snap-global="true" />
  <metadata
     id="metadata826">
    <rdf:RDF>
      <cc:Work
         rdf:about="">
        <dc:format>image/svg+xml</dc:format>
        <dc:type
           rdf:resource="http://purl.org/dc/dcmitype/StillImage" />
        <dc:title></dc:title>
      </cc:Work>
    </rdf:RDF>
  </metadata>
  <g
     inkscape:label="Capa 1"
     inkscape:groupmode="layer"
     id="layer1"
     transform="translate(0,-284.3)">
    <g
       id="g1114">
      <path
         id="path844"
         d="m 6.3502583,284.39147 c -1.543437,0 -2.7839977,0.29643 -3.6871127,0.8816 -1.085108,0.7031 -1.658814,1.82603 -1.658814,3.24683 0,1.91207 1.536241,4.46762 2.007113,5.20537 0.537566,0.84219 1.124507,1.60861 1.652612,2.158 0.6726667,0.69964 1.2086557,1.02527 1.6862017,1.02527 0.477571,0 1.013092,-0.32561 1.685685,-1.02527 0.52808,-0.54937 1.115047,-1.31579 1.652612,-2.158 0.4708717,-0.73773 2.0071127,-3.2933 2.0071127,-5.20537 2.4e-5,-1.42078 -0.573141,-2.5437 -1.658296,-3.24683 -0.9030667,-0.58517 -2.1437007,-0.8816 -3.6871137,-0.8816 z"
         style="fill:#c83737;stroke-width:0.02444816"
         inkscape:connector-curvature="0" />
      <path
         transform="matrix(1.004111,0,0,1.004111,-0.02610599,-1.1904983)"
         inkscape:connector-curvature="0"
         id="path6-3"
         d="m 9.3370642,290.61906 c 0.5315994,0.0937 1.0385448,-0.26124 1.1322888,-0.79286 l -0.971755,-0.17136 c 9.331e-4,-0.0317 0.00161,-0.0637 0.00161,-0.0957 0,-0.007 -2.311e-4,-0.0148 -2.828e-4,-0.0221 0.0031,-5.1e-4 0.0062,-8.5e-4 0.0093,-10e-4 0.5315988,-0.0937 0.8865828,-0.6007 0.7928558,-1.13229 l -0.9595003,0.16917 c -0.012749,-0.0388 -0.026193,-0.0772 -0.040395,-0.1152 0.4653253,-0.27065 0.6244057,-0.86693 0.3550197,-1.33349 l -0.8349102,0.48203 c -0.026021,-0.0329 -0.052727,-0.0653 -0.08002,-0.0971 0.3376263,-0.41342 0.2814296,-1.02255 -0.1287074,-1.3667 l -0.6139159,0.73164 c -0.036612,-0.0226 -0.073747,-0.0444 -0.1113144,-0.0654 0.1700437,-0.50168 -0.09091,-1.04971 -0.5912157,-1.23182 L 6.9714241,286.469 c -0.042724,-0.009 -0.085769,-0.0163 -0.1290965,-0.0232 -0.014451,-0.5272 -0.446057,-0.95021 -0.9767349,-0.95021 v 0.94774 c -0.043547,0.006 -0.086731,0.0144 -0.1296812,0.0229 -0.1942914,-0.4897 -0.7440799,-0.73906 -1.2423649,-0.5577 l 0.3250171,0.89298 c -0.038129,0.0212 -0.075842,0.043 -0.112961,0.0656 C 4.3558262,286.4712 3.752444,286.4241 3.3454604,286.76562 l 0.6150711,0.73301 c -0.027913,0.0323 -0.055078,0.0653 -0.081687,0.0986 -0.4650409,-0.25711 -1.0522,-0.0956 -1.3190351,0.36655 l 0.8361949,0.48277 c -0.014662,0.0389 -0.02864,0.078 -0.041795,0.11763 -0.5281635,-0.0879 -1.0296537,0.26581 -1.1228501,0.79427 l 0.9627768,0.16979 c -1.058e-4,0.0107 -3.902e-4,0.0207 -3.902e-4,0.0312 0,0.0298 5.146e-4,0.0596 0.00128,0.0893 -8.312e-4,1.4e-4 -0.00171,2.4e-4 -0.00246,3.7e-4 -0.5315993,0.0937 -0.8865836,0.60068 -0.7928379,1.13229 l 0.9734539,-0.17165 c 0.013016,0.0369 0.026513,0.0734 0.040844,0.10963 -0.00385,0.002 -0.0078,0.004 -0.011659,0.006 -0.467503,0.26992 -0.627664,0.86768 -0.357765,1.33516 l 0.8659331,-0.49994 c 0.024002,0.0292 0.048634,0.0578 0.07364,0.0861 -0.00545,0.006 -0.011082,0.0123 -0.016436,0.0186 -0.3469962,0.41353 -0.2930308,1.03005 0.1204704,1.37701 l 0.6480384,-0.77283 c 0.031685,0.0189 0.06367,0.0373 0.09605,0.055 -0.00406,0.01 -0.00812,0.02 -0.011873,0.0302 -0.1846382,0.50727 0.076921,1.06814 0.5841839,1.25278 l 0.3466779,-0.95249 c 0.035597,0.006 0.071353,0.0131 0.1073827,0.0188 -4.806e-4,0.0125 -9.33e-4,0.025 -9.33e-4,0.0376 0,0.53981 0.4376068,0.97744 0.9774239,0.97744 v -1.01517 c 0.035864,-0.005 0.071482,-0.0119 0.1069222,-0.0187 0.00395,0.0123 0.00791,0.0246 0.012342,0.0368 0.1846393,0.50727 0.7455152,0.76881 1.2527793,0.58419 L 7.860867,292.32494 c 0.032027,-0.0175 0.063638,-0.0357 0.094928,-0.0544 0.00737,0.01 0.014683,0.0189 0.022464,0.0282 0.3469963,0.41352 0.9635024,0.46747 1.3770046,0.12048 l -0.6473494,-0.77148 c 0.024591,-0.0278 0.048848,-0.0559 0.072443,-0.0845 0.00844,0.005 0.016736,0.0107 0.025348,0.0155 0.4675029,0.26992 1.0652703,0.10972 1.3351708,-0.35776 l -0.8633999,-0.4985 c 0.014084,-0.0354 0.027401,-0.0712 0.040202,-0.10726 0.00652,10e-4 0.012857,0.003 0.019374,0.004 z m -2.9906298,-0.39443 c -0.3675593,0 -0.6654949,-0.29796 -0.6654949,-0.6655 0,-0.36754 0.297954,-0.6655 0.6654949,-0.6655 0.3675419,0 0.665496,0.29796 0.665496,0.6655 0,0.36754 -0.2979368,0.6655 -0.665496,0.6655 z"
         style="fill:#1a1a1a;stroke-width:0.01771112;filter:url(#filter947)" />
      <path
         inkscape:connector-curvature="0"
         id="path4588"
         d="m 6.3502583,284.39147 c -1.543436,0 -2.7839977,0.29643 -3.6871127,0.8816 -1.085108,0.7031 -1.658814,1.82603 -1.658814,3.24683 0,1.91207 1.536241,4.46762 2.007113,5.20537 0.537566,0.84219 1.124507,1.60861 1.652612,2.158 0.6726667,0.69964 1.2086567,1.02527 1.6862017,1.02527 0.477571,0 1.013092,-0.32561 1.685685,-1.02527 0.528081,-0.54937 1.115047,-1.31579 1.652613,-2.158 0.4708707,-0.73773 2.0071117,-3.2933 2.0071117,-5.20537 2.5e-5,-1.42078 -0.573141,-2.5437 -1.658296,-3.24683 -0.9030667,-0.58517 -2.1437007,-0.8816 -3.6871137,-0.8816 z m 0,0.0382 c 0.558918,0.0225 1.089897,0.0719 1.554427,0.18294 0.307985,0.0736 0.596094,0.16587 0.863513,0.27595 0.267419,0.11008 0.514241,0.23818 0.740007,0.38447 0.271289,0.17578 0.5104177,0.37775 0.7167517,0.6041 0.206334,0.22635 0.379882,0.47723 0.519348,0.75034 0.139467,0.27311 0.245057,0.56864 0.315743,0.8847 0.07069,0.31606 0.10646,0.6525 0.106454,1.00769 0,0.47802 -0.09615,0.99619 -0.24753,1.51619 -0.15138,0.51999 -0.357833,1.04198 -0.579293,1.52704 -0.4429197,0.97011 -0.9448537,1.79328 -1.1802897,2.16214 -0.537566,0.84221 -1.124532,1.60863 -1.652612,2.158 -0.336297,0.34983 -0.638572,0.60629 -0.916223,0.77515 -0.08441,0.0513 -0.163632,0.0811 -0.240812,0.10335 -0.07713,-0.0222 -0.155988,-0.0521 -0.240296,-0.10335 -0.277774,-0.16886 -0.57989,-0.42533 -0.916223,-0.77515 -0.5281047,-0.54939 -1.1150457,-1.31581 -1.6526127,-2.158 -0.235435,-0.36888 -0.73737,-1.19203 -1.18029,-2.16215 -0.221459,-0.48505 -0.427912,-1.00704 -0.579292,-1.52703 -0.15138,-0.52 -0.24753,-1.03817 -0.24753,-1.51619 0,-0.3552 0.03571,-0.69163 0.106453,-1.00769 0.07074,-0.31606 0.176727,-0.61159 0.31626,-0.8847 0.139532,-0.27311 0.31297,-0.52399 0.519348,-0.75034 0.206378,-0.22635 0.445475,-0.42832 0.716752,-0.6041 0.225779,-0.14629 0.472587,-0.27439 0.740007,-0.38447 0.267419,-0.11008 0.555533,-0.20233 0.8635127,-0.27595 0.464524,-0.11106 0.995505,-0.16048 1.554427,-0.18294 z"
         style="opacity:0.2;fill:#000000;stroke-width:0.02444816" />
      <path
         inkscape:connector-curvature="0"
         id="path6"
         d="m 9.1452133,290.55311 c 0.497452,0.0877 0.9718337,-0.24446 1.0595567,-0.74193 l -0.9093347,-0.16035 c 8.73e-4,-0.0297 0.0015,-0.0596 0.0015,-0.0896 0,-0.007 -2.16e-4,-0.0138 -2.65e-4,-0.0207 0.0029,-4.8e-4 0.0058,-7.9e-4 0.0087,-10e-4 0.497452,-0.0877 0.8296337,-0.56211 0.7419277,-1.05956 l -0.8978677,0.15831 c -0.01193,-0.0363 -0.02451,-0.0722 -0.0378,-0.1078 0.435435,-0.25327 0.584297,-0.81125 0.332215,-1.24784 l -0.781272,0.45106 c -0.02435,-0.0308 -0.04934,-0.0611 -0.07488,-0.0909 0.315939,-0.38686 0.263352,-0.95687 -0.12044,-1.27891 l -0.574481,0.68464 c -0.03426,-0.0211 -0.06901,-0.0415 -0.104164,-0.0612 0.159121,-0.46945 -0.08507,-0.98228 -0.553239,-1.15269 l -0.303841,0.83481 c -0.03998,-0.008 -0.08026,-0.0152 -0.120804,-0.0217 -0.01352,-0.49332 -0.417402,-0.88916 -0.913992,-0.88916 v 0.88686 c -0.04075,0.006 -0.08116,0.0135 -0.121351,0.0214 -0.181811,-0.45824 -0.696284,-0.69158 -1.1625617,-0.52187 l 0.3041397,0.83562 c -0.03568,0.0198 -0.07097,0.0402 -0.105705,0.0614 -0.3273097,-0.37031 -0.8919337,-0.41438 -1.2727747,-0.0948 l 0.575562,0.68592 c -0.02612,0.0302 -0.05154,0.0611 -0.07644,0.0923 -0.435169,-0.2406 -0.984612,-0.0895 -1.234307,0.343 l 0.782482,0.45176 c -0.01372,0.0364 -0.0268,0.073 -0.03911,0.11008 -0.494237,-0.0823 -0.963514,0.24873 -1.050724,0.74325 l 0.900933,0.15888 c -9.9e-5,0.01 -3.65e-4,0.0194 -3.65e-4,0.0292 0,0.0279 4.82e-4,0.0558 0.0012,0.0836 -7.78e-4,1.3e-4 -0.0016,2.2e-4 -0.0023,3.4e-4 -0.497452,0.0877 -0.829634,0.5621 -0.74191,1.05956 l 0.910926,-0.16062 c 0.01218,0.0345 0.02481,0.0687 0.03822,0.10259 -0.0036,0.002 -0.0073,0.004 -0.01091,0.006 -0.437473,0.25258 -0.587346,0.81195 -0.334784,1.2494 l 0.81031,-0.46783 c 0.02246,0.0273 0.04551,0.0541 0.06891,0.0806 -0.0051,0.006 -0.01037,0.0115 -0.01538,0.0174 -0.324707,0.38696 -0.274208,0.96388 0.112732,1.28855 L 4.8399363,292.098 c 0.02965,0.0177 0.05958,0.0349 0.08988,0.0515 -0.0038,0.009 -0.0076,0.0187 -0.01111,0.0283 -0.172778,0.47468 0.07198,0.99953 0.546659,1.17231 l 0.324409,-0.89131 c 0.03331,0.006 0.06677,0.0123 0.100485,0.0176 -4.5e-4,0.0117 -8.74e-4,0.0234 -8.74e-4,0.0352 0,0.50513 0.409497,0.91465 0.914639,0.91465 v -0.94996 c 0.03356,-0.005 0.06689,-0.0111 0.100054,-0.0175 0.0037,0.0115 0.0074,0.023 0.01155,0.0344 0.172779,0.47468 0.697627,0.71942 1.172307,0.54666 l -0.324094,-0.89043 c 0.02997,-0.0164 0.05955,-0.0334 0.08883,-0.0509 0.0069,0.009 0.01374,0.0177 0.02102,0.0264 0.324707,0.38696 0.901612,0.43744 1.288553,0.11274 l -0.605767,-0.72192 c 0.02301,-0.026 0.04571,-0.0523 0.06779,-0.0791 0.0079,0.005 0.01566,0.01 0.02372,0.0145 0.437473,0.25258 0.996843,0.10267 1.249406,-0.33478 l -0.807939,-0.46648 c 0.01318,-0.0331 0.02564,-0.0666 0.03762,-0.10037 0.0061,10e-4 0.01203,0.003 0.01813,0.004 z m -2.798527,-0.36909 c -0.343949,0 -0.622747,-0.27882 -0.622747,-0.62275 0,-0.34393 0.278815,-0.62275 0.622747,-0.62275 0.343933,0 0.622748,0.27882 0.622748,0.62275 0,0.34393 -0.278799,0.62275 -0.622748,0.62275 z"
         style="fill:#8a8a91;stroke-width:0.01657345" />
      <path
         inkscape:connector-curvature="0"
         id="path8"
         d="m 9.1452133,290.55311 c 0.497452,0.0877 0.9718337,-0.24446 1.0595567,-0.74193 l -0.9093347,-0.16035 c 8.73e-4,-0.0297 0.0015,-0.0596 0.0015,-0.0896 0,-0.007 -2.16e-4,-0.0138 -2.65e-4,-0.0207 0.0029,-4.8e-4 0.0058,-7.9e-4 0.0087,-10e-4 0.497452,-0.0877 0.8296337,-0.56211 0.7419277,-1.05956 l -0.8978677,0.15831 c -0.01193,-0.0363 -0.02451,-0.0722 -0.0378,-0.1078 0.435435,-0.25327 0.584297,-0.81125 0.332215,-1.24784 l -0.781272,0.45106 c -0.02435,-0.0308 -0.04934,-0.0611 -0.07488,-0.0909 0.315939,-0.38686 0.263352,-0.95687 -0.12044,-1.27891 l -0.574481,0.68464 c -0.03426,-0.0211 -0.06901,-0.0415 -0.104164,-0.0612 0.159121,-0.46945 -0.08507,-0.98228 -0.553239,-1.15269 l -0.303841,0.83481 c -0.03998,-0.008 -0.08026,-0.0152 -0.120804,-0.0217 -0.009,-0.3279 -0.190561,-0.61258 -0.457062,-0.76673 v 3.05793 c 0.340733,0.004 0.615836,0.28097 0.615836,0.62258 0,0.34161 -0.275103,0.61885 -0.615836,0.62258 v 3.12357 c 0.132985,0.0754 0.286588,0.11868 0.4504,0.11868 v -0.94996 c 0.03356,-0.005 0.06689,-0.0111 0.100054,-0.0175 0.0037,0.0115 0.0074,0.023 0.01155,0.0344 0.172778,0.47468 0.697626,0.71942 1.172306,0.54666 l -0.324091,-0.89065 c 0.02996,-0.0164 0.05953,-0.0334 0.08883,-0.0509 0.0069,0.009 0.01374,0.0177 0.02102,0.0264 0.324707,0.38696 0.901612,0.43744 1.288553,0.11274 l -0.60576,-0.72193 c 0.023,-0.026 0.04571,-0.0523 0.06778,-0.0791 0.0079,0.005 0.01566,0.01 0.02372,0.0145 0.437473,0.25258 0.996844,0.10268 1.249406,-0.33478 l -0.807939,-0.46643 c 0.01318,-0.0332 0.02564,-0.0667 0.03762,-0.10037 0.0061,10e-4 0.01205,0.003 0.01815,0.004 z"
         style="opacity:0.63999999;fill:#57565c;stroke-width:0.01657345" />
      <path
         inkscape:connector-curvature="0"
         id="path10-3-6"
         d="m 6.3466863,286.74222 c -1.5569132,0 -2.8190154,1.26214 -2.8190154,2.81901 0,1.55688 1.2621341,2.81902 2.8190154,2.81902 1.5568814,0 2.8190158,-1.26214 2.8190158,-2.81902 0,-1.55687 -1.2620693,-2.81901 -2.8190158,-2.81901 z m 0,4.19243 c -0.7585156,0 -1.3733641,-0.61485 -1.3733641,-1.37333 0,-0.75849 0.6148816,-1.37337 1.3733641,-1.37337 0.7584835,0 1.3733641,0.61488 1.3733641,1.37337 0,0.75848 -0.6148486,1.37333 -1.3733641,1.37333 z"
         style="fill:#1a1a1a;stroke-width:0.03654981;filter:url(#filter1037)" />
      <path
         inkscape:connector-curvature="0"
         id="path10-3"
         d="m 6.3466863,287.0068 c -1.410787,0 -2.5544327,1.14368 -2.5544327,2.55443 0,1.41076 1.1436747,2.55444 2.5544327,2.55444 1.410758,0 2.554433,-1.14368 2.554433,-2.55444 0,-1.41075 -1.143616,-2.55443 -2.554433,-2.55443 z m 0,3.79896 c -0.687324,0 -1.244465,-0.55716 -1.244465,-1.24445 0,-0.6873 0.557171,-1.24447 1.244465,-1.24447 0.687295,0 1.244465,0.55717 1.244465,1.24447 0,0.68729 -0.557141,1.24445 -1.244465,1.24445 z"
         style="fill:#797882;stroke-width:0.03311937" />
      <path
         inkscape:connector-curvature="0"
         id="path10-7"
         d="m 6.3466863,288.01838 c -0.8521056,0 -1.5428603,0.69077 -1.5428603,1.54285 0,0.85209 0.6907752,1.54286 1.5428603,1.54286 0.8520863,0 1.5428603,-0.69077 1.5428603,-1.54286 0,-0.85208 -0.6907342,-1.54285 -1.5428603,-1.54285 z m 0,2.29455 c -0.4151411,0 -0.7516459,-0.33653 -0.7516459,-0.75165 0,-0.41512 0.3365254,-0.75165 0.7516459,-0.75165 0.4151217,0 0.7516471,0.33653 0.7516471,0.75165 0,0.41512 -0.336506,0.75165 -0.7516471,0.75165 z"
         style="fill:#1a1a1a;stroke-width:0.02000389;filter:url(#filter1100)" />
      <path
         inkscape:connector-curvature="0"
         id="path10"
         d="m 6.3466863,288.28296 c -0.705979,0 -1.278277,0.57231 -1.278277,1.27827 0,0.70597 0.572315,1.27828 1.278277,1.27828 0.705963,0 1.278277,-0.57231 1.278277,-1.27828 0,-0.70596 -0.572281,-1.27827 -1.278277,-1.27827 z m 0,1.90106 c -0.343949,0 -0.622747,-0.27882 -0.622747,-0.62275 0,-0.34393 0.278815,-0.62275 0.622747,-0.62275 0.343933,0 0.622748,0.27882 0.622748,0.62275 0,0.34393 -0.278799,0.62275 -0.622748,0.62275 z"
         style="fill:#b3b3b3;stroke-width:0.01657345" />
      <path
         inkscape:connector-curvature="0"
         id="path12"
         d="m 7.6249963,289.56127 c 0,-0.70366 -0.568585,-1.27437 -1.271366,-1.27811 v 0.65553 c 1.7e-5,0 3.4e-5,0 5e-5,0 0.344015,0.004 0.615787,0.28433 0.615787,0.62258 0,0.34236 -0.275799,0.61883 -0.61577,0.62258 -1.7e-5,0 -3.3e-5,0 -5e-5,0 v 0.65553 c 0.702747,-0.004 1.271349,-0.57445 1.271349,-1.27811 z"
         style="opacity:0.7;fill:#3e3e42;stroke-width:0.01657345" />
    </g>
  </g>
</svg>
