<?xml version="1.0" encoding="UTF-8" standalone="no"?>
<!-- Generator: Adobe Illustrator 19.0.0, SVG Export Plug-In . SVG Version: 6.00 Build 0)  -->

<svg
   xmlns:dc="http://purl.org/dc/elements/1.1/"
   xmlns:cc="http://creativecommons.org/ns#"
   xmlns:rdf="http://www.w3.org/1999/02/22-rdf-syntax-ns#"
   xmlns:svg="http://www.w3.org/2000/svg"
   xmlns="http://www.w3.org/2000/svg"
   xmlns:xlink="http://www.w3.org/1999/xlink"
   xmlns:sodipodi="http://sodipodi.sourceforge.net/DTD/sodipodi-0.dtd"
   xmlns:inkscape="http://www.inkscape.org/namespaces/inkscape"
   version="1.1"
   id="Capa_1"
   x="0px"
   y="0px"
   viewBox="0 0 48 48"
   xml:space="preserve"
   sodipodi:docname="gnome-mines.svg"
   width="48"
   height="48"
   inkscape:version="0.92.3 (2405546, 2018-03-11)"><metadata
   id="metadata41"><rdf:RDF><cc:Work
       rdf:about=""><dc:format>image/svg+xml</dc:format><dc:type
         rdf:resource="http://purl.org/dc/dcmitype/StillImage" /><dc:title /></cc:Work></rdf:RDF></metadata><defs
   id="defs39"><linearGradient
     inkscape:collect="always"
     id="linearGradient894"><stop
       style="stop-color:#000000;stop-opacity:1;"
       offset="0"
       id="stop890" /><stop
       style="stop-color:#000000;stop-opacity:0;"
       offset="1"
       id="stop892" /></linearGradient><linearGradient
     inkscape:collect="always"
     id="linearGradient876"><stop
       style="stop-color:#ffffff;stop-opacity:0.00381679"
       offset="0"
       id="stop872" /><stop
       style="stop-color:#221c24;stop-opacity:1"
       offset="1"
       id="stop874" /></linearGradient><radialGradient
     inkscape:collect="always"
     xlink:href="#linearGradient876"
     id="radialGradient878"
     cx="26.234325"
     cy="25.202538"
     fx="26.234325"
     fy="25.202538"
     r="14"
     gradientUnits="userSpaceOnUse"
     gradientTransform="matrix(0.74471156,-0.51277971,0.65719879,0.9544518,-10.029125,14.412184)" /><linearGradient
     inkscape:collect="always"
     xlink:href="#linearGradient894"
     id="linearGradient916"
     gradientUnits="userSpaceOnUse"
     x1="13.670956"
     y1="9.8162689"
     x2="42.098297"
     y2="39.180977" /></defs><sodipodi:namedview
   pagecolor="#ffffff"
   bordercolor="#666666"
   borderopacity="1"
   objecttolerance="10"
   gridtolerance="10"
   guidetolerance="10"
   inkscape:pageopacity="0"
   inkscape:pageshadow="2"
   inkscape:window-width="1366"
   inkscape:window-height="719"
   id="namedview37"
   showgrid="false"
   showguides="true"
   inkscape:guide-bbox="true"
   inkscape:zoom="2.65625"
   inkscape:cx="24"
   inkscape:cy="24"
   inkscape:window-x="0"
   inkscape:window-y="25"
   inkscape:window-maximized="1"
   inkscape:current-layer="Capa_1"
   inkscape:snap-smooth-nodes="true" />


<g
   id="g6"
   transform="translate(0,-464)">
</g>
<g
   id="g8"
   transform="translate(0,-464)">
</g>
<g
   id="g10"
   transform="translate(0,-464)">
</g>
<g
   id="g12"
   transform="translate(0,-464)">
</g>
<g
   id="g14"
   transform="translate(0,-464)">
</g>
<g
   id="g16"
   transform="translate(0,-464)">
</g>
<g
   id="g18"
   transform="translate(0,-464)">
</g>
<g
   id="g20"
   transform="translate(0,-464)">
</g>
<g
   id="g22"
   transform="translate(0,-464)">
</g>
<g
   id="g24"
   transform="translate(0,-464)">
</g>
<g
   id="g26"
   transform="translate(0,-464)">
</g>
<g
   id="g28"
   transform="translate(0,-464)">
</g>
<g
   id="g30"
   transform="translate(0,-464)">
</g>
<g
   id="g32"
   transform="translate(0,-464)">
</g>
<g
   id="g34"
   transform="translate(0,-464)">
</g>
<g
   id="g929"><path
     id="path846"
     d="m 24.000976,0.3457035 c -5.833461,0 -10.522199,1.1203776 -13.935547,3.3320313 -4.1011925,2.6574037 -6.2695305,6.9015122 -6.2695305,12.2714832 0,7.226706 5.806265,16.88549 7.5859365,19.673828 2.031747,3.183082 4.250107,6.079783 6.246094,8.15625 2.542362,2.644284 4.56815,3.875 6.373047,3.875 1.804991,0 3.829009,-1.230625 6.371093,-3.875 1.995894,-2.076376 4.214348,-4.973077 6.246094,-8.15625 C 38.397835,32.8348 44.204101,23.175924 44.204101,15.949219 44.204193,10.57934 42.037899,6.3352307 37.936523,3.6777348 34.523359,1.4660811 29.834346,0.3457035 24.000976,0.3457035 Z"
     style="fill:#c83737;stroke-width:0.0924025" /><path
     inkscape:connector-curvature="0"
     id="path888"
     d="m 29.113281,44.84375 c 0.429472,-0.388224 0.795928,-0.583983 1.257813,-1.064453 1.995894,-2.076377 4.214347,-4.973078 6.246094,-8.15625 0.889835,-1.394123 2.786911,-4.505287 4.460937,-8.171875 0.837013,-1.833294 1.619261,-3.806143 2.191406,-5.771484 0.195578,-0.671817 0.177821,-1.294529 0.31836,-1.958985 L 34.867188,11 32.042969,12.474609 25.40625,5.8378906 20.330078,20.330078 9.90625,21.337891 l 6.683594,6.683593 -1.521485,2.777344 z"
     style="fill:url(#linearGradient916);fill-opacity:1;stroke:none;stroke-width:1px;stroke-linecap:butt;stroke-linejoin:miter;stroke-opacity:1" /><path
     id="path844"
     d="M 22.40625 5.8378906 L 22.107422 10.003906 A 10 10 0 0 0 18.230469 11.619141 L 15.068359 8.8769531 L 12.945312 11 L 15.679688 14.154297 A 10 10 0 0 0 14.078125 18.039062 L 9.90625 18.337891 L 9.90625 21.337891 L 14.072266 21.636719 A 10 10 0 0 0 15.6875 25.513672 L 12.945312 28.675781 L 15.068359 30.798828 L 18.222656 28.064453 A 10 10 0 0 0 22.107422 29.666016 L 22.40625 33.837891 L 25.40625 33.837891 L 25.705078 29.671875 A 10 10 0 0 0 29.582031 28.056641 L 32.744141 30.798828 L 34.867188 28.675781 L 32.132812 25.521484 A 10 10 0 0 0 33.734375 21.636719 L 37.90625 21.337891 L 37.90625 18.337891 L 33.740234 18.039062 A 10 10 0 0 0 32.125 14.162109 L 34.867188 11 L 32.744141 8.8769531 L 29.589844 11.611328 A 10 10 0 0 0 25.705078 10.009766 L 25.40625 5.8378906 L 22.40625 5.8378906 z M 26.007812 21.363281 A 3.5 3.5 0 0 1 29.507812 24.863281 A 3.5 3.5 0 0 1 26.007812 28.363281 A 3.5 3.5 0 0 1 22.507812 24.863281 A 3.5 3.5 0 0 1 26.007812 21.363281 z "
     style="fill:#ffffff;stroke-width:0.0924025" /><path
     id="path844-3"
     d="m 22.40625,5.8378905 -0.298828,4.1660155 a 10,10 0 0 0 -3.876953,1.615235 L 15.068359,8.876953 12.945312,11 l 2.734376,3.154297 a 10,10 0 0 0 -1.601563,3.884765 L 9.90625,18.337891 v 3 l 4.166016,0.298828 a 10,10 0 0 0 1.615234,3.876953 l -2.742188,3.162109 2.123047,2.123047 3.154297,-2.734375 a 10,10 0 0 0 3.884766,1.601563 l 0.298828,4.171875 h 3 l 0.298828,-4.166016 a 10,10 0 0 0 3.876953,-1.615234 l 3.16211,2.742187 2.123047,-2.123047 -2.734376,-3.154297 a 10,10 0 0 0 1.601563,-3.884765 l 4.171875,-0.298828 v -3 L 33.740234,18.039062 A 10,10 0 0 0 32.125,14.162109 L 34.867188,11 32.744141,8.876953 29.589844,11.611328 A 10,10 0 0 0 25.705078,10.009766 L 25.40625,5.8378905 Z m 3.601562,15.5253905 a 3.5,3.5 0 0 1 3.5,3.5 3.5,3.5 0 0 1 -3.5,3.5 3.5,3.5 0 0 1 -3.5,-3.5 3.5,3.5 0 0 1 3.5,-3.5 z"
     style="fill:url(#radialGradient878);stroke-width:0.0924025;fill-opacity:1;opacity:0.65"
     inkscape:connector-curvature="0" /><path
     inkscape:connector-curvature="0"
     id="path879"
     d="m 3.9248036,14.736328 c -0.02737,0.413032 -0.128906,0.785353 -0.128906,1.21289 0,7.226706 5.808219,16.885489 7.5878894,19.673828 2.031748,3.183082 4.248156,6.079783 6.244142,8.15625 2.542362,2.644284 4.568149,3.875 6.373047,3.875 1.804991,0 3.829008,-1.230626 6.371093,-3.875 1.995895,-2.076377 4.214348,-4.973078 6.246094,-8.15625 C 38.397834,32.8348 44.2041,23.175923 44.2041,15.949218 c 7e-6,-0.427554 -0.101563,-0.799842 -0.128906,-1.21289 -0.08351,1.592146 -0.311141,3.248004 -0.804688,4.94336 -0.572145,1.965341 -1.354393,3.938189 -2.191406,5.771483 -1.674026,3.666588 -3.571102,6.777752 -4.460937,8.171875 -2.031746,3.183172 -4.2502,6.079873 -6.246094,8.15625 -1.271043,1.322187 -2.411549,2.291484 -3.460938,2.929687 -1.049388,0.638205 -2.00766,0.945313 -2.910156,0.945313 -0.902449,0 -1.858349,-0.307097 -2.908203,-0.945313 -1.049854,-0.638214 -2.193663,-1.607545 -3.464844,-2.929687 -1.995986,-2.076467 -4.212393,-4.973168 -6.244141,-8.15625 -0.889835,-1.39417 -2.7869114,-4.505299 -4.4609364,-8.171875 -0.837013,-1.833288 -1.619261,-3.806149 -2.191406,-5.771483 -0.493552,-1.695364 -0.723139,-3.351202 -0.806641,-4.94336 z"
     style="opacity:0.5;fill:#000000;stroke-width:0.0924025" /></g></svg>