<?xml version="1.0" encoding="UTF-8" standalone="no"?>
<!-- Generator: Adobe Illustrator 19.0.0, SVG Export Plug-In . SVG Version: 6.00 Build 0)  -->

<svg
   xmlns:dc="http://purl.org/dc/elements/1.1/"
   xmlns:cc="http://creativecommons.org/ns#"
   xmlns:rdf="http://www.w3.org/1999/02/22-rdf-syntax-ns#"
   xmlns:svg="http://www.w3.org/2000/svg"
   xmlns="http://www.w3.org/2000/svg"
   xmlns:xlink="http://www.w3.org/1999/xlink"
   xmlns:sodipodi="http://sodipodi.sourceforge.net/DTD/sodipodi-0.dtd"
   xmlns:inkscape="http://www.inkscape.org/namespaces/inkscape"
   version="1.1"
   id="Capa_1"
   x="0px"
   y="0px"
   viewBox="0 0 48 48"
   xml:space="preserve"
   sodipodi:docname="gnome-session-hibernate.svg"
   width="48"
   height="48"
   inkscape:version="0.92.3 (2405546, 2018-03-11)"><metadata
   id="metadata41"><rdf:RDF><cc:Work
       rdf:about=""><dc:format>image/svg+xml</dc:format><dc:type
         rdf:resource="http://purl.org/dc/dcmitype/StillImage" /><dc:title></dc:title></cc:Work></rdf:RDF></metadata><defs
   id="defs39"><linearGradient
     inkscape:collect="always"
     id="linearGradient898"><stop
       style="stop-color:#000005;stop-opacity:1"
       offset="0"
       id="stop894" /><stop
       style="stop-color:#00000e;stop-opacity:0;"
       offset="1"
       id="stop896" /></linearGradient><linearGradient
     x1="-83.756935"
     y1="-7.8379993"
     x2="-92.222527"
     y2="27.521217"
     id="linearGradient5588"
     xlink:href="#linearGradient3202"
     gradientUnits="userSpaceOnUse"
     gradientTransform="matrix(0.5857566,-0.140767,0.1402401,0.5879573,74.307775,0.1578927)" /><linearGradient
     id="linearGradient3202"><stop
       id="stop3204"
       style="stop-color:white;stop-opacity:1"
       offset="0" /><stop
       id="stop3206"
       style="stop-color:#d3eefc;stop-opacity:1"
       offset="1" /></linearGradient><linearGradient
     inkscape:collect="always"
     xlink:href="#linearGradient898"
     id="linearGradient900"
     x1="12.611764"
     y1="8.0410709"
     x2="41.575565"
     y2="36.746952"
     gradientUnits="userSpaceOnUse" /></defs><sodipodi:namedview
   pagecolor="#ffffff"
   bordercolor="#666666"
   borderopacity="1"
   objecttolerance="10"
   gridtolerance="10"
   guidetolerance="10"
   inkscape:pageopacity="0"
   inkscape:pageshadow="2"
   inkscape:window-width="1366"
   inkscape:window-height="719"
   id="namedview37"
   showgrid="false"
   showguides="true"
   inkscape:guide-bbox="true"
   inkscape:zoom="3.7565048"
   inkscape:cx="-34.298874"
   inkscape:cy="24"
   inkscape:window-x="0"
   inkscape:window-y="25"
   inkscape:window-maximized="1"
   inkscape:current-layer="Capa_1"
   inkscape:snap-smooth-nodes="true"
   inkscape:snap-global="true" />


<g
   id="g6"
   transform="translate(0,-464)">
</g>
<g
   id="g8"
   transform="translate(0,-464)">
</g>
<g
   id="g10"
   transform="translate(0,-464)">
</g>
<g
   id="g12"
   transform="translate(0,-464)">
</g>
<g
   id="g14"
   transform="translate(0,-464)">
</g>
<g
   id="g16"
   transform="translate(0,-464)">
</g>
<g
   id="g18"
   transform="translate(0,-464)">
</g>
<g
   id="g20"
   transform="translate(0,-464)">
</g>
<g
   id="g22"
   transform="translate(0,-464)">
</g>
<g
   id="g24"
   transform="translate(0,-464)">
</g>
<g
   id="g26"
   transform="translate(0,-464)">
</g>
<g
   id="g28"
   transform="translate(0,-464)">
</g>
<g
   id="g30"
   transform="translate(0,-464)">
</g>
<g
   id="g32"
   transform="translate(0,-464)">
</g>
<g
   id="g34"
   transform="translate(0,-464)">
</g>
<g
   id="g928"><path
     id="path851"
     d="m 24.000976,0.3457035 c -5.833461,0 -10.522198,1.1203776 -13.935546,3.3320313 -4.101193,2.6574037 -6.269532,6.9015122 -6.269532,12.2714832 0,7.226706 5.806266,16.88549 7.585938,19.673828 2.031747,3.183082 4.250107,6.079783 6.246093,8.15625 2.542362,2.644284 4.56815,3.875 6.373047,3.875 1.804991,0 3.829009,-1.230625 6.371093,-3.875 1.995894,-2.076376 4.214349,-4.973077 6.246094,-8.15625 C 38.397835,32.8348 44.204101,23.175924 44.204101,15.949219 44.204193,10.57934 42.037899,6.3352307 37.936523,3.6777348 34.523359,1.4660811 29.834346,0.3457035 24.000976,0.3457035 Z"
     style="fill:#a02c2c;stroke-width:0.0924025"
     inkscape:connector-curvature="0" /><path
     inkscape:connector-curvature="0"
     id="path879"
     d="m 3.9248023,14.736311 c -0.027364,0.413027 -0.1289046,0.785348 -0.1289046,1.212888 0,7.226721 5.8082189,16.885493 7.5878903,19.67384 2.031748,3.18308 4.248155,6.079786 6.244141,8.156258 2.542362,2.644271 4.568149,3.874999 6.373047,3.874999 1.804991,0 3.829008,-1.230652 6.371093,-3.874999 1.995895,-2.076397 4.214349,-4.973102 6.246094,-8.156258 1.779671,-2.788271 7.585936,-12.447119 7.585936,-19.67384 8e-6,-0.42754 -0.101556,-0.799823 -0.128919,-1.212888 -0.08353,1.592164 -0.311131,3.248013 -0.804688,4.943358 -0.572145,1.965354 -1.35439,3.938192 -2.191404,5.771489 -1.674025,3.666596 -3.571101,6.777752 -4.460936,8.171868 -2.031746,3.183194 -4.2502,6.079862 -6.246094,8.156259 -1.271043,1.322192 -2.411549,2.291489 -3.460938,2.929663 -1.049388,0.638211 -2.00766,0.945335 -2.910156,0.945335 -0.902449,0 -1.858349,-0.307276 -2.908203,-0.945335 C 20.042907,44.070737 18.899098,43.101439 17.627917,41.779285 15.631942,39.702812 13.415536,36.806107 11.383788,33.623026 10.493951,32.228872 8.5968746,29.117716 6.922849,25.451158 6.0858364,23.617861 5.3035883,21.645023 4.7314431,19.679669 4.2378912,17.984324 4.0083042,16.328475 3.9248023,14.736311 Z"
     style="opacity:0.5;fill:#000000;stroke-width:0.0924025" /><path
     inkscape:connector-curvature="0"
     id="path892"
     d="m 30.878906,43.115234 c 1.864264,-2.026808 3.871869,-4.568044 5.738282,-7.492187 0.889836,-1.394123 2.786912,-4.505287 4.460937,-8.171875 0.837013,-1.833294 1.619261,-3.806143 2.191406,-5.771484 0.194628,-0.668555 0.178208,-1.287927 0.31836,-1.949219 L 33,9.1425781 32.431641,12.494141 29.080078,12.964844 22.910156,6.7441406 22.769531,9.2304688 18.419922,4.8828125 l -3.832031,8.1054685 -0.1875,13.646485 z"
     style="fill:url(#linearGradient900);fill-opacity:1;stroke:none;stroke-width:1px;stroke-linecap:butt;stroke-linejoin:miter;stroke-opacity:1" /><g
     style="fill:#ffffff"
     id="g826"
     transform="matrix(2.1446476,0,0,2.1446476,10.742568,-605.991)"><path
       style="fill:#ffffff;fill-opacity:1;stroke-width:0.43059376"
       d="m 10.377735,286.82248 -0.26423,1.56292 -1.562967,0.21947 1.562967,0.30114 0.285049,1.56293 0.235404,-1.56293 1.562967,-0.24186 -1.562967,-0.27871 z"
       id="path827"
       inkscape:connector-curvature="0" /><path
       style="fill:#ffffff;fill-opacity:1;stroke-width:0.62762165"
       d="m 3.5802271,284.83614 c -0.322248,0.77286 -0.490178,1.62915 -0.490178,2.52083 0,3.56645 2.849145,6.45853 6.3629114,6.45853 1.0261745,0 1.9866335,-0.24294 2.8453325,-0.6813 -0.96673,2.31875 -3.2351521,3.9352 -5.8704004,3.9352 -3.5136895,0 -6.36291023,-2.88979 -6.36291023,-6.45623 0,-2.52476 1.43365873,-4.71427 3.51524273,-5.77701 z"
       id="path823"
       inkscape:connector-curvature="0" /><path
       style="fill:#ffffff;fill-opacity:1;stroke-width:0.43059376"
       d="m 7.4922046,289.13404 -0.2642304,1.55966 -1.5629672,0.22272 1.5629672,0.29938 0.2866509,1.56143 0.2338042,-1.56143 1.5629668,-0.24173 -1.5629668,-0.2802 z"
       id="path821"
       inkscape:connector-curvature="0" /><path
       style="fill:#ffffff;fill-opacity:1;stroke-width:0.43059376"
       d="m 5.673015,285.70466 -0.26423,1.56305 -1.5629659,0.22118 1.5629659,0.2995 0.288252,1.56294 0.2322009,-1.56294 1.5629667,-0.24186 -1.5629667,-0.27856 z"
       id="path1374"
       inkscape:connector-curvature="0" /></g></g></svg>