<?xml version="1.0" encoding="UTF-8" standalone="no"?>
<!-- Created with Inkscape (http://www.inkscape.org/) -->

<svg
   xmlns:dc="http://purl.org/dc/elements/1.1/"
   xmlns:cc="http://creativecommons.org/ns#"
   xmlns:rdf="http://www.w3.org/1999/02/22-rdf-syntax-ns#"
   xmlns:svg="http://www.w3.org/2000/svg"
   xmlns="http://www.w3.org/2000/svg"
   xmlns:xlink="http://www.w3.org/1999/xlink"
   xmlns:sodipodi="http://sodipodi.sourceforge.net/DTD/sodipodi-0.dtd"
   xmlns:inkscape="http://www.inkscape.org/namespaces/inkscape"
   width="48"
   height="48"
   viewBox="0 0 12.7 12.7"
   version="1.1"
   id="svg829"
   inkscape:version="0.92.3 (2405546, 2018-03-11)"
   sodipodi:docname="internet-mail.svg">
  <defs
     id="defs823">
    <linearGradient
       inkscape:collect="always"
       id="linearGradient827">
      <stop
         style="stop-color:#000000;stop-opacity:1;"
         offset="0"
         id="stop823" />
      <stop
         style="stop-color:#000000;stop-opacity:0;"
         offset="1"
         id="stop825" />
    </linearGradient>
    <linearGradient
       inkscape:collect="always"
       xlink:href="#linearGradient827"
       id="linearGradient853"
       gradientUnits="userSpaceOnUse"
       gradientTransform="translate(-4.6666667e-7,-0.52916704)"
       x1="3.254719"
       y1="287.65277"
       x2="11.475233"
       y2="295.37238" />
  </defs>
  <sodipodi:namedview
     id="base"
     pagecolor="#ffffff"
     bordercolor="#666666"
     borderopacity="1.0"
     inkscape:pageopacity="0.0"
     inkscape:pageshadow="2"
     inkscape:zoom="3.7565048"
     inkscape:cx="24"
     inkscape:cy="24"
     inkscape:document-units="mm"
     inkscape:current-layer="layer1"
     showgrid="false"
     showguides="true"
     inkscape:guide-bbox="true"
     inkscape:window-width="1366"
     inkscape:window-height="719"
     inkscape:window-x="0"
     inkscape:window-y="25"
     inkscape:window-maximized="1"
     scale-x="1.9"
     units="px"
     inkscape:snap-global="true"
     inkscape:snap-smooth-nodes="true" />
  <metadata
     id="metadata826">
    <rdf:RDF>
      <cc:Work
         rdf:about="">
        <dc:format>image/svg+xml</dc:format>
        <dc:type
           rdf:resource="http://purl.org/dc/dcmitype/StillImage" />
        <dc:title />
      </cc:Work>
    </rdf:RDF>
  </metadata>
  <g
     inkscape:label="Capa 1"
     inkscape:groupmode="layer"
     id="layer1"
     transform="translate(0,-284.3)">
    <g
       id="g859">
      <path
         id="path830"
         d="m 6.3502584,284.39147 c -1.5434366,0 -2.7839984,0.29643 -3.6871134,0.8816 -1.0851074,0.7031 -1.6588135,1.82603 -1.6588135,3.24683 0,1.91207 1.5362412,4.46762 2.0071126,5.20537 0.5375664,0.84219 1.1245076,1.60861 1.6526123,2.158 0.6726666,0.69964 1.2086563,1.02527 1.686202,1.02527 0.4775705,0 1.013092,-0.32561 1.685685,-1.02527 0.5280803,-0.54937 1.1150465,-1.31579 1.6526124,-2.158 0.4708712,-0.73773 2.0071122,-3.2933 2.0071122,-5.20537 2.4e-5,-1.42078 -0.573141,-2.5437 -1.658296,-3.24683 -0.9030664,-0.58517 -2.1437011,-0.8816 -3.6871136,-0.8816 z"
         style="fill:#6f6f91;stroke-width:0.02444816"
         inkscape:connector-curvature="0" />
      <path
         inkscape:connector-curvature="0"
         id="path821"
         d="m 7.2419353,296.55507 c 0.246448,-0.16666 0.502765,-0.36857 0.794266,-0.6718 0.52808,-0.54937 1.114531,-1.3158 1.652096,-2.15801 0.235436,-0.36886 0.7373697,-1.19202 1.1802897,-2.16214 0.221459,-0.48506 0.428429,-1.00704 0.579809,-1.52704 0.06733,-0.23128 0.06822,-0.44717 0.110071,-0.67437 l -1.6577797,-1.65778 -4.472078,-0.69608 -2.6716718,0.69608 v 0.21032 l 0.4304646,3.32693 -0.4304646,0.82837 z"
         style="fill:url(#linearGradient853);fill-opacity:1;stroke:none;stroke-width:0.26458332px;stroke-linecap:butt;stroke-linejoin:miter;stroke-opacity:1;opacity:0.65" />
      <path
         id="path2"
         d="m 6.3285543,284.9258 3.571875,2.77813 v 4.36562 H 2.7566796 v -4.1553 l 6.3499997,3.36155 -2.778125,-1.98437 3.571875,-1.5875 H 2.7566796 Z"
         style="fill:#ffffff;stroke-width:0.02444816"
         inkscape:connector-curvature="0" />
      <path
         inkscape:connector-curvature="0"
         id="path879"
         d="m 1.0384375,288.19898 c -0.00724,0.10928 -0.034106,0.20779 -0.034106,0.32091 0,1.91207 1.5367579,4.46762 2.0076291,5.20537 0.5375667,0.84219 1.1239911,1.60861 1.6520958,2.15801 0.6726666,0.69963 1.2086561,1.02526 1.686202,1.02526 0.4775705,0 1.0130917,-0.32561 1.685685,-1.02526 0.5280806,-0.54938 1.1150463,-1.3158 1.6526124,-2.15801 0.4708712,-0.73773 2.0071122,-3.2933 2.0071122,-5.20537 2e-6,-0.11312 -0.02687,-0.21162 -0.03411,-0.32091 -0.0221,0.42126 -0.08232,0.85937 -0.212907,1.30793 -0.15138,0.52 -0.358349,1.04198 -0.579809,1.52704 -0.442919,0.97012 -0.9448537,1.79328 -1.1802892,2.16214 -0.5375661,0.84222 -1.1245321,1.60863 -1.6526124,2.15801 -0.3362968,0.34983 -0.6380557,0.60629 -0.9157065,0.77514 -0.2776506,0.16886 -0.5311934,0.25012 -0.7699788,0.25012 -0.2387729,0 -0.4916882,-0.0813 -0.769462,-0.25012 -0.2777739,-0.16886 -0.5804067,-0.42532 -0.91674,-0.77514 -0.5281016,-0.5494 -1.1145258,-1.31582 -1.6520925,-2.15801 -0.2354359,-0.36887 -0.7373707,-1.19203 -1.1802899,-2.16214 -0.2214596,-0.48506 -0.4284294,-1.00704 -0.5798095,-1.52704 -0.1305856,-0.44856 -0.1913305,-0.88667 -0.2134237,-1.30793 z"
         style="opacity:0.5;fill:#000000;stroke-width:0.02444816" />
    </g>
  </g>
</svg>
