<?xml version="1.0" encoding="UTF-8" standalone="no"?>
<!-- Created with Inkscape (http://www.inkscape.org/) -->

<svg
   xmlns:dc="http://purl.org/dc/elements/1.1/"
   xmlns:cc="http://creativecommons.org/ns#"
   xmlns:rdf="http://www.w3.org/1999/02/22-rdf-syntax-ns#"
   xmlns:svg="http://www.w3.org/2000/svg"
   xmlns="http://www.w3.org/2000/svg"
   xmlns:xlink="http://www.w3.org/1999/xlink"
   xmlns:sodipodi="http://sodipodi.sourceforge.net/DTD/sodipodi-0.dtd"
   xmlns:inkscape="http://www.inkscape.org/namespaces/inkscape"
   width="48"
   height="48"
   viewBox="0 0 12.7 12.7"
   version="1.1"
   id="svg829"
   inkscape:version="0.92.3 (2405546, 2018-03-11)"
   sodipodi:docname="jokosher.svg">
  <defs
     id="defs823">
    <linearGradient
       inkscape:collect="always"
       id="linearGradient888">
      <stop
         style="stop-color:#000000;stop-opacity:1"
         offset="0"
         id="stop884" />
      <stop
         style="stop-color:#000000;stop-opacity:0.01526718"
         offset="1"
         id="stop886" />
    </linearGradient>
    <linearGradient
       gradientTransform="matrix(0.22053574,0,0,0.20878974,1.1881128,284.86435)"
       inkscape:collect="always"
       xlink:href="#linearGradient5187"
       id="linearGradient928"
       x1="26.924057"
       y1="23.155737"
       x2="48.012524"
       y2="23.343971"
       gradientUnits="userSpaceOnUse" />
    <linearGradient
       id="linearGradient5187">
      <stop
         style="stop-color:#ffffff;stop-opacity:1"
         offset="0"
         id="stop5189" />
      <stop
         style="stop-color:#1a1a1a;stop-opacity:1"
         offset="1"
         id="stop5191" />
    </linearGradient>
    <linearGradient
       inkscape:collect="always"
       xlink:href="#linearGradient844"
       id="linearGradient838"
       x1="63.206108"
       y1="-1.0964843"
       x2="61.930492"
       y2="54.806545"
       gradientUnits="userSpaceOnUse"
       gradientTransform="matrix(0.19977943,0,0,0.19222433,-6.336047,285.30984)" />
    <linearGradient
       id="linearGradient844"
       inkscape:collect="always">
      <stop
         id="stop840"
         offset="0"
         style="stop-color:#917c6f;stop-opacity:1" />
      <stop
         id="stop842"
         offset="1"
         style="stop-color:#f4e3d7;stop-opacity:1" />
    </linearGradient>
    <linearGradient
       inkscape:collect="always"
       xlink:href="#linearGradient888"
       id="linearGradient908"
       gradientUnits="userSpaceOnUse"
       x1="2.7890196"
       y1="285.83148"
       x2="12.973921"
       y2="293.50128" />
  </defs>
  <sodipodi:namedview
     id="base"
     pagecolor="#ffffff"
     bordercolor="#666666"
     borderopacity="1.0"
     inkscape:pageopacity="0.0"
     inkscape:pageshadow="2"
     inkscape:zoom="2.65625"
     inkscape:cx="24"
     inkscape:cy="24"
     inkscape:document-units="mm"
     inkscape:current-layer="layer1"
     showgrid="false"
     showguides="true"
     inkscape:guide-bbox="true"
     inkscape:window-width="1366"
     inkscape:window-height="719"
     inkscape:window-x="0"
     inkscape:window-y="25"
     inkscape:window-maximized="1"
     scale-x="1.9"
     units="px"
     inkscape:snap-global="true"
     inkscape:snap-smooth-nodes="true" />
  <metadata
     id="metadata826">
    <rdf:RDF>
      <cc:Work
         rdf:about="">
        <dc:format>image/svg+xml</dc:format>
        <dc:type
           rdf:resource="http://purl.org/dc/dcmitype/StillImage" />
        <dc:title />
      </cc:Work>
    </rdf:RDF>
  </metadata>
  <g
     inkscape:label="Capa 1"
     inkscape:groupmode="layer"
     id="layer1"
     transform="translate(0,-284.3)">
    <g
       id="g917">
      <path
         id="path846"
         d="m 6.3502584,284.39147 c -1.5434366,0 -2.7839982,0.29643 -3.6871132,0.8816 -1.0851074,0.7031 -1.6588136,1.82603 -1.6588136,3.24683 0,1.91207 1.5362412,4.46762 2.0071127,5.20537 0.5375664,0.84219 1.1245074,1.60861 1.6526121,2.158 0.6726666,0.69964 1.2086563,1.02527 1.686202,1.02527 0.4775705,0 1.013092,-0.32561 1.685685,-1.02527 0.5280803,-0.54937 1.1150465,-1.31579 1.6526124,-2.158 0.4708712,-0.73773 2.0071122,-3.2933 2.0071122,-5.20537 2.4e-5,-1.42078 -0.573141,-2.5437 -1.658296,-3.24683 -0.9030664,-0.58517 -2.1437011,-0.8816 -3.6871136,-0.8816 z"
         style="fill:#6c6753;fill-opacity:1;stroke-width:0.02444816"
         inkscape:connector-curvature="0" />
      <path
         inkscape:connector-curvature="0"
         id="path874"
         d="m 7.5819653,296.26774 c 0.151066,-0.12819 0.287017,-0.21106 0.453719,-0.38447 0.52808,-0.54937 1.115048,-1.3158 1.652613,-2.15801 0.235435,-0.36886 0.7373697,-1.19202 1.1802877,-2.16214 0.221461,-0.48506 0.428432,-1.00704 0.57981,-1.52704 0.151382,-0.51999 0.247531,-1.03817 0.247531,-1.51618 0,-0.008 -0.002,-0.0141 -0.0021,-0.0217 l -2.2308727,-2.23087 -5.4291257,6.47454 z"
         style="fill:url(#linearGradient908);fill-opacity:1;stroke:none;stroke-width:0.26458332px;stroke-linecap:butt;stroke-linejoin:miter;stroke-opacity:1;opacity:0.6" />
      <path
         inkscape:connector-curvature="0"
         id="path4588"
         d="m 6.3502587,284.39147 c -1.5434366,0 -2.7839985,0.29643 -3.6871135,0.8816 -1.0851073,0.7031 -1.6588137,1.82603 -1.6588137,3.24683 0,1.91207 1.5362412,4.46762 2.0071128,5.20537 0.5375664,0.84219 1.1245074,1.60861 1.6526123,2.158 0.6726666,0.69964 1.2086564,1.02527 1.6862021,1.02527 0.4775705,0 1.0130919,-0.32561 1.685685,-1.02527 0.5280803,-0.54937 1.1150462,-1.31579 1.6526123,-2.158 0.470871,-0.73773 2.007112,-3.2933 2.007112,-5.20537 2.5e-5,-1.42078 -0.573141,-2.5437 -1.658296,-3.24683 -0.9030662,-0.58517 -2.1437011,-0.8816 -3.6871133,-0.8816 z m 0,0.0382 c 0.5589177,0.0225 1.0898962,0.0719 1.554427,0.18294 0.3079843,0.0736 0.5960941,0.16587 0.863513,0.27595 0.2674191,0.11008 0.5142402,0.23818 0.7400068,0.38447 0.2712886,0.17578 0.5104175,0.37775 0.7167515,0.6041 0.206334,0.22635 0.379882,0.47723 0.519348,0.75034 0.139467,0.27311 0.245057,0.56864 0.315743,0.8847 0.07069,0.31606 0.10646,0.6525 0.106454,1.00769 0,0.47802 -0.09615,0.99619 -0.24753,1.51619 -0.15138,0.51999 -0.357833,1.04198 -0.579293,1.52704 -0.4429192,0.97011 -0.9448538,1.79328 -1.1802896,2.16214 -0.5375662,0.84221 -1.1245321,1.60863 -1.6526124,2.158 -0.3362965,0.34983 -0.6385721,0.60629 -0.916223,0.77515 -0.084411,0.0513 -0.1636318,0.0811 -0.2408121,0.10335 -0.07713,-0.0222 -0.1559877,-0.0521 -0.2402956,-0.10335 -0.2777739,-0.16886 -0.5798897,-0.42533 -0.916223,-0.77515 -0.5281049,-0.54939 -1.115046,-1.31581 -1.6526124,-2.158 -0.2354357,-0.36888 -0.7373704,-1.19203 -1.1802898,-2.16215 -0.2214594,-0.48505 -0.4279128,-1.00704 -0.5792928,-1.52703 -0.1513798,-0.52 -0.2475299,-1.03817 -0.2475301,-1.51619 0,-0.3552 0.035714,-0.69163 0.1064535,-1.00769 0.07074,-0.31606 0.1767274,-0.61159 0.3162599,-0.8847 0.1395325,-0.27311 0.3129698,-0.52399 0.519348,-0.75034 0.2063781,-0.22635 0.4454755,-0.42832 0.7167522,-0.6041 0.2257788,-0.14629 0.4725871,-0.27439 0.7400066,-0.38447 0.2674194,-0.11008 0.5555334,-0.20233 0.8635132,-0.27595 0.4645234,-0.11106 0.9955051,-0.16048 1.5544271,-0.18294 z"
         style="opacity:0.2;fill:#000000;stroke-width:0.02444816" />
      <path
         inkscape:connector-curvature="0"
         sodipodi:nodetypes="ccssscczc"
         id="path1985"
         d="m 3.5467954,286.1637 c -0.2189516,0 -0.393316,0.0848 -0.393316,0.29469 v 4.17608 c 0,1.6765 1.432019,3.03715 3.1964711,3.03715 1.7644519,0 3.19647,-1.36064 3.19647,-3.03715 v -4.17608 c 0,-0.20987 -0.1743633,-0.31169 -0.3933151,-0.31169 0,0 -1.413575,0.41716 -2.8151524,0.41716 -1.4015776,0 -2.7911576,-0.40015 -2.7911576,-0.40016 z"
         style="fill:url(#linearGradient838);fill-opacity:1;stroke:none;stroke-width:0.19596551;stroke-miterlimit:4;stroke-dasharray:none" />
      <path
         id="path1005"
         d="m 3.5426836,286.17114 c -0.1974377,0 -0.3410934,0.083 -0.3708618,0.25038 l -0.014212,0.27851 c 0.7195829,1.14778 1.6403117,2.62461 2.6119701,4.19782 L 4.264164,286.33709 c -0.3795354,-0.0806 -0.721479,-0.16595 -0.721479,-0.16595 z m 2.2268942,4.72671 1.9628544,-4.44412 c -0.026781,0.005 -0.059397,0.005 -0.086578,0.007 -0.3036243,0.0445 -0.6199604,0.0719 -0.9566595,0.0877 -0.049669,0.003 -0.093513,0.012 -0.1434348,0.0131 -0.2192326,1.24196 -0.4852593,2.74686 -0.7761823,4.33566 z m 0,0 3.7727985,-1.17892 v -1.0419 c -1.0892593,0.64348 -2.3899313,1.41479 -3.7727985,2.22082 z m 0,0 3.2731468,1.36082 c 0.1520311,-0.22838 0.264882,-0.47933 0.3488942,-0.7434 -1.0951045,-0.18366 -2.3291649,-0.394 -3.622041,-0.61742 z m 0,0 0.9105708,2.74933 c 0.2447619,-0.0246 0.4803841,-0.0722 0.7055422,-0.14638 -0.5036984,-0.80762 -1.0481141,-1.6833 -1.616113,-2.60295 z m 0,0 -1.0393611,2.35052 c 0.1807616,0.10146 0.3715784,0.18475 0.5728761,0.25121 0.1464689,-0.82088 0.3002435,-1.69383 0.466485,-2.60173 z m 0,0 -2.4246012,0.75647 c 0.067498,0.18026 0.1519892,0.35102 0.2524102,0.51381 0.6876796,-0.40401 1.4175271,-0.83039 2.172191,-1.27028 z m 0,0 -2.61197,-1.08759 v 0.6382 c 0.8245855,0.13934 1.7038543,0.29247 2.61197,0.44939 z"
         style="fill:#ff7f2a;fill-opacity:1;stroke:none;stroke-width:0.19596551;stroke-miterlimit:4;stroke-dasharray:none"
         inkscape:connector-curvature="0" />
      <path
         inkscape:connector-curvature="0"
         style="font-style:normal;font-variant:normal;font-weight:bold;font-stretch:normal;font-size:25.18540382px;line-height:125%;font-family:'Bitstream Vera Sans';text-align:start;writing-mode:lr-tb;text-anchor:start;fill:#333333;fill-opacity:1;stroke:none;stroke-width:0.21458237px;stroke-linecap:butt;stroke-linejoin:miter;stroke-opacity:1"
         d="M 7.5999574,287.32696 8.855141,287.0767 v 3.92729 c -2e-6,0.50737 -0.1651859,0.88654 -0.4955532,1.13748 -0.3281962,0.25095 -0.8259224,0.37643 -1.4931794,0.37643 H 6.6121112 v -0.79377 h 0.195613 c 0.2608174,0 0.4575171,-0.0609 0.5900997,-0.18277 0.1347549,-0.12184 0.2021325,-0.30097 0.2021335,-0.53737 v -3.67703"
         id="path4640-7"
         sodipodi:nodetypes="cccsccccscc" />
      <path
         inkscape:connector-curvature="0"
         style="font-style:normal;font-variant:normal;font-weight:bold;font-stretch:normal;font-size:25.18540382px;line-height:125%;font-family:'Bitstream Vera Sans';text-align:start;writing-mode:lr-tb;text-anchor:start;fill:url(#linearGradient928);fill-opacity:1;stroke:none;stroke-width:0.21458237px;stroke-linecap:butt;stroke-linejoin:miter;stroke-opacity:1"
         d="m 7.4079616,287.18942 1.2551836,-0.25026 v 3.92727 c -2e-6,0.50736 -0.165186,0.88653 -0.4955531,1.13748 -0.3281963,0.25096 -0.8259224,0.37643 -1.4931797,0.37643 H 6.4201153 v -0.79378 h 0.195613 c 0.2608176,0 0.4575171,-0.0609 0.5900996,-0.18276 0.1347553,-0.12184 0.2021328,-0.30095 0.2021337,-0.53737 v -3.67701"
         id="path4640"
         sodipodi:nodetypes="cccsccccscc" />
    </g>
  </g>
</svg>
