<?xml version="1.0" encoding="UTF-8" standalone="no"?>
<!-- Generator: Adobe Illustrator 19.0.0, SVG Export Plug-In . SVG Version: 6.00 Build 0)  -->

<svg
   xmlns:dc="http://purl.org/dc/elements/1.1/"
   xmlns:cc="http://creativecommons.org/ns#"
   xmlns:rdf="http://www.w3.org/1999/02/22-rdf-syntax-ns#"
   xmlns:svg="http://www.w3.org/2000/svg"
   xmlns="http://www.w3.org/2000/svg"
   xmlns:xlink="http://www.w3.org/1999/xlink"
   xmlns:sodipodi="http://sodipodi.sourceforge.net/DTD/sodipodi-0.dtd"
   xmlns:inkscape="http://www.inkscape.org/namespaces/inkscape"
   version="1.1"
   id="Capa_1"
   x="0px"
   y="0px"
   viewBox="0 0 48 48"
   xml:space="preserve"
   sodipodi:docname="pitivi.svg"
   width="48"
   height="48"
   inkscape:version="0.92.3 (2405546, 2018-03-11)"><metadata
   id="metadata41"><rdf:RDF><cc:Work
       rdf:about=""><dc:format>image/svg+xml</dc:format><dc:type
         rdf:resource="http://purl.org/dc/dcmitype/StillImage" /><dc:title /></cc:Work></rdf:RDF></metadata><defs
   id="defs39"><linearGradient
     inkscape:collect="always"
     id="linearGradient917"><stop
       style="stop-color:#1a1a1a;stop-opacity:1;"
       offset="0"
       id="stop913" /><stop
       style="stop-color:#1a1a1a;stop-opacity:0;"
       offset="1"
       id="stop915" /></linearGradient><linearGradient
     inkscape:collect="always"
     id="linearGradient997"><stop
       style="stop-color:#000001;stop-opacity:1"
       offset="0"
       id="stop993" /><stop
       style="stop-color:#00000a;stop-opacity:0"
       offset="1"
       id="stop995" /></linearGradient><linearGradient
     inkscape:collect="always"
     xlink:href="#linearGradient997"
     id="linearGradient1020"
     gradientUnits="userSpaceOnUse"
     x1="6.6467104"
     y1="9.9737959"
     x2="45.823357"
     y2="38.962032" /><linearGradient
     inkscape:collect="always"
     xlink:href="#linearGradient917"
     id="linearGradient919"
     x1="24.389112"
     y1="17.374359"
     x2="24.376148"
     y2="32.256191"
     gradientUnits="userSpaceOnUse" /></defs><sodipodi:namedview
   pagecolor="#ffffff"
   bordercolor="#666666"
   borderopacity="1"
   objecttolerance="10"
   gridtolerance="10"
   guidetolerance="10"
   inkscape:pageopacity="0"
   inkscape:pageshadow="2"
   inkscape:window-width="1366"
   inkscape:window-height="719"
   id="namedview37"
   showgrid="false"
   showguides="true"
   inkscape:guide-bbox="true"
   inkscape:zoom="3.7565048"
   inkscape:cx="24"
   inkscape:cy="24"
   inkscape:window-x="0"
   inkscape:window-y="25"
   inkscape:window-maximized="1"
   inkscape:current-layer="Capa_1"
   inkscape:snap-global="true"
   inkscape:snap-smooth-nodes="true" />


<g
   id="g6"
   transform="translate(0,-464)">
</g>
<g
   id="g8"
   transform="translate(0,-464)">
</g>
<g
   id="g10"
   transform="translate(0,-464)">
</g>
<g
   id="g12"
   transform="translate(0,-464)">
</g>
<g
   id="g14"
   transform="translate(0,-464)">
</g>
<g
   id="g16"
   transform="translate(0,-464)">
</g>
<g
   id="g18"
   transform="translate(0,-464)">
</g>
<g
   id="g20"
   transform="translate(0,-464)">
</g>
<g
   id="g22"
   transform="translate(0,-464)">
</g>
<g
   id="g24"
   transform="translate(0,-464)">
</g>
<g
   id="g26"
   transform="translate(0,-464)">
</g>
<g
   id="g28"
   transform="translate(0,-464)">
</g>
<g
   id="g30"
   transform="translate(0,-464)">
</g>
<g
   id="g32"
   transform="translate(0,-464)">
</g>
<g
   id="g34"
   transform="translate(0,-464)">
</g>
<g
   id="g942"><path
     inkscape:connector-curvature="0"
     id="path860"
     d="m 24.000976,0.3457035 c -5.833461,0 -10.522198,1.1203776 -13.935546,3.3320313 -4.101193,2.6574037 -6.269532,6.9015122 -6.269532,12.2714832 0,7.226706 5.806266,16.88549 7.585938,19.673828 2.031747,3.183082 4.250107,6.079783 6.246093,8.15625 2.542362,2.644284 4.56815,3.875 6.373047,3.875 1.804991,0 3.829009,-1.230625 6.371093,-3.875 1.995894,-2.076376 4.214349,-4.973077 6.246094,-8.15625 C 38.397835,32.8348 44.2041,23.175924 44.2041,15.949219 44.20419,10.57934 42.0379,6.3352307 37.936523,3.6777348 34.523359,1.4660811 29.834346,0.3457035 24.000976,0.3457035 Z"
     style="fill:#165044;stroke-width:0.0924025" /><path
     inkscape:connector-curvature="0"
     id="path991"
     d="m 26.310547,46.904297 c 0.208774,-0.103651 0.383336,-0.06378 0.599609,-0.195313 1.049389,-0.638203 2.189896,-1.6075 3.460938,-2.929687 1.995894,-2.076377 4.214348,-4.973078 6.246094,-8.15625 0.889836,-1.394123 2.786912,-4.505287 4.460937,-8.171875 0.837013,-1.833294 1.619262,-3.806143 2.191406,-5.771484 0.572145,-1.965342 0.933594,-3.923793 0.933594,-5.730469 C 44.203136,15.271784 44.06848,14.66802 44,14.027344 L 34.447266,4.5175781 12.517578,13.646484 11.953125,32.376953 Z"
     style="opacity:0.65;fill:url(#linearGradient1020);fill-opacity:1;stroke:none;stroke-width:1px;stroke-linecap:butt;stroke-linejoin:miter;stroke-opacity:1" /><path
     inkscape:connector-curvature="0"
     id="path858"
     d="m 33.95136,4.3378512 c 0.348082,0.027197 0.662586,0.2577614 0.780172,0.6098378 L 35.810314,8.1798306 15.26508,15.039457 c 0.229353,0.342614 0.382183,0.740357 0.433195,1.169207 h 21.384288 v 15.313244 c 0,0.494943 -0.401394,0.895832 -0.895832,0.895832 h -23.56288 c -0.494637,0 -0.895832,-0.400788 -0.895832,-0.895832 V 18.868819 C 10.908581,18.4092 10.35273,17.530662 10.35273,16.5262 c 0,-0.775612 0.332143,-1.473913 0.860082,-1.964098 l -0.529929,-1.583477 c -0.156783,-0.469436 0.09655,-0.976877 0.565679,-1.133458 L 33.598075,4.3820112 c 0.117282,-0.039148 0.237257,-0.053231 0.353285,-0.044155 z"
     style="fill:#666666;stroke-width:0.09948789" /><path
     inkscape:connector-curvature="0"
     id="path877"
     d="m 11.728516,20.423828 v 11.097656 c 0,0.247522 0.09959,0.472689 0.261718,0.634766 0.162129,0.162078 0.385494,0.261719 0.632813,0.261719 H 36.1875 c 0.247219,0 0.470659,-0.09963 0.632812,-0.261719 0.162154,-0.16209 0.261719,-0.387294 0.261719,-0.634766 V 20.423828 Z"
     style="fill:url(#linearGradient919);fill-opacity:1;stroke:none;stroke-width:1px;stroke-linecap:butt;stroke-linejoin:miter;stroke-opacity:1" /><path
     id="path856-3"
     d="m 32.203453,6.5760196 -2.72114,0.9063457 -0.653999,2.6475367 2.719037,-0.908447 z"
     style="fill:#000000;stroke-width:0.0994879"
     inkscape:connector-curvature="0" /><path
     id="path854-6"
     d="m 25.482615,8.8198029 -2.72114,0.9084485 -0.653997,2.6454356 2.719036,-0.908449 z"
     style="fill:#000000;stroke-width:0.0994879"
     inkscape:connector-curvature="0" /><path
     id="path852-7"
     d="m 18.761779,11.063587 -2.721138,0.908449 -0.653999,2.645435 2.721138,-0.908448 z"
     style="fill:#000000;stroke-width:0.0994879"
     inkscape:connector-curvature="0" /><path
     id="path850-5"
     d="m 13.723255,15.603726 c -0.753244,0 -1.364775,0.611328 -1.364775,1.364775 0,0.753447 0.611531,1.366879 1.364775,1.366879 0.753447,0 1.366879,-0.613432 1.366879,-1.366879 0,-0.753447 -0.613432,-1.364775 -1.366879,-1.364775 z"
     style="fill:#000000;stroke-width:0.0994879"
     inkscape:connector-curvature="0" /><path
     id="path848-3"
     d="m 17.304477,17.374359 -1.459406,2.302665 h 2.868342 l 1.459406,-2.302665 z"
     style="fill:#000000;stroke-width:0.0994879"
     inkscape:connector-curvature="0" /><path
     id="path846-5"
     d="m 24.389113,17.374359 -1.457302,2.302665 h 2.866238 l 1.459406,-2.302665 z"
     style="fill:#000000;stroke-width:0.0994879"
     inkscape:connector-curvature="0" /><path
     id="path844-6"
     d="m 31.473749,17.374359 -1.457302,2.302665 h 2.868341 l 1.457304,-2.302665 z"
     style="fill:#000000;stroke-width:0.0994879"
     inkscape:connector-curvature="0" /><path
     id="path2-2"
     d="m 23.119938,23.086427 v 6.073147 l 4.836648,-3.036573 z"
     style="fill:#000000;stroke-width:0.0994879"
     inkscape:connector-curvature="0" /><path
     id="path856"
     d="M 31.514112,6.1337191 28.792973,7.0400647 28.138974,9.6876019 30.858011,8.7791545 Z"
     style="fill:#e6e6e6;stroke-width:0.0994879"
     inkscape:connector-curvature="0" /><path
     id="path854"
     d="m 24.793275,8.3775028 -2.72114,0.908448 -0.653997,2.6454352 2.719036,-0.908448 z"
     style="fill:#e6e6e6;stroke-width:0.0994879"
     inkscape:connector-curvature="0" /><path
     id="path852"
     d="M 18.072439,10.621287 15.3513,11.529735 14.697302,14.175171 17.41844,13.266722 Z"
     style="fill:#e6e6e6;stroke-width:0.0994879"
     inkscape:connector-curvature="0" /><path
     id="path850"
     d="m 13.033915,15.161425 c -0.753244,0 -1.364775,0.611328 -1.364775,1.364776 0,0.753446 0.611531,1.366878 1.364775,1.366878 0.753447,0 1.366879,-0.613432 1.366879,-1.366878 0,-0.753448 -0.613432,-1.364776 -1.366879,-1.364776 z"
     style="fill:#e6e6e6;stroke-width:0.0994879"
     inkscape:connector-curvature="0" /><path
     id="path848"
     d="m 16.615137,16.932058 -1.459406,2.302665 h 2.868342 l 1.459406,-2.302665 z"
     style="fill:#e6e6e6;stroke-width:0.0994879"
     inkscape:connector-curvature="0" /><path
     id="path846"
     d="m 23.699773,16.932058 -1.457303,2.302665 h 2.866239 l 1.459406,-2.302665 z"
     style="fill:#e6e6e6;stroke-width:0.0994879"
     inkscape:connector-curvature="0" /><path
     id="path844"
     d="m 30.784409,16.932058 -1.457302,2.302665 h 2.868341 l 1.457304,-2.302665 z"
     style="fill:#e6e6e6;stroke-width:0.0994879"
     inkscape:connector-curvature="0" /><path
     id="path2"
     d="m 22.430598,22.644127 v 6.073146 l 4.836648,-3.036572 z"
     style="fill:#e6e6e6;stroke-width:0.0994879"
     inkscape:connector-curvature="0" /><path
     inkscape:connector-curvature="0"
     id="path879"
     d="m 3.9248041,14.736312 c -0.027364,0.413026 -0.1289046,0.785348 -0.1289046,1.212888 0,7.22672 5.8082189,16.885492 7.5878895,19.673839 2.031748,3.183079 4.248155,6.079786 6.24414,8.156258 2.542362,2.64427 4.568149,3.874999 6.373047,3.874999 1.804991,0 3.829008,-1.230651 6.371093,-3.874998 1.995895,-2.076397 4.214349,-4.973103 6.246095,-8.156258 1.779671,-2.788272 7.585935,-12.447119 7.585935,-19.67384 8e-6,-0.42754 -0.101556,-0.799824 -0.128919,-1.212888 -0.08353,1.592163 -0.311131,3.248012 -0.804688,4.943357 -0.572145,1.965354 -1.35439,3.938192 -2.191404,5.771489 -1.674025,3.666596 -3.571101,6.777752 -4.460936,8.171869 -2.031746,3.183194 -4.2502,6.079861 -6.246094,8.156258 -1.271043,1.322193 -2.411549,2.291489 -3.460938,2.929663 -1.049388,0.638211 -2.00766,0.945335 -2.910156,0.945335 -0.902449,0 -1.858349,-0.307276 -2.908203,-0.945335 C 20.042907,44.070736 18.899098,43.101439 17.627918,41.779284 15.631942,39.702811 13.415537,36.806107 11.383789,33.623025 10.493953,32.228871 8.5968762,29.117716 6.9228508,25.451157 6.0858382,23.617861 5.3035901,21.645022 4.7314448,19.679669 4.2378929,17.984324 4.0083059,16.328475 3.9248041,14.736312 Z"
     style="opacity:0.5;fill:#000000;stroke-width:0.0924025" /></g></svg>