<?xml version="1.0" encoding="UTF-8" standalone="no"?>
<!-- Generator: Adobe Illustrator 19.0.0, SVG Export Plug-In . SVG Version: 6.00 Build 0)  -->

<svg
   xmlns:dc="http://purl.org/dc/elements/1.1/"
   xmlns:cc="http://creativecommons.org/ns#"
   xmlns:rdf="http://www.w3.org/1999/02/22-rdf-syntax-ns#"
   xmlns:svg="http://www.w3.org/2000/svg"
   xmlns="http://www.w3.org/2000/svg"
   xmlns:sodipodi="http://sodipodi.sourceforge.net/DTD/sodipodi-0.dtd"
   xmlns:inkscape="http://www.inkscape.org/namespaces/inkscape"
   version="1.1"
   id="Capa_1"
   x="0px"
   y="0px"
   viewBox="0 0 48 48"
   xml:space="preserve"
   sodipodi:docname="accessibility-directory.svg"
   width="48"
   height="48"
   inkscape:version="0.92.3 (2405546, 2018-03-11)"><metadata
   id="metadata41"><rdf:RDF><cc:Work
       rdf:about=""><dc:format>image/svg+xml</dc:format><dc:type
         rdf:resource="http://purl.org/dc/dcmitype/StillImage" /><dc:title /></cc:Work></rdf:RDF></metadata><defs
   id="defs39" /><sodipodi:namedview
   pagecolor="#ffffff"
   bordercolor="#666666"
   borderopacity="1"
   objecttolerance="10"
   gridtolerance="10"
   guidetolerance="10"
   inkscape:pageopacity="0"
   inkscape:pageshadow="2"
   inkscape:window-width="1366"
   inkscape:window-height="719"
   id="namedview37"
   showgrid="false"
   showguides="true"
   inkscape:guide-bbox="true"
   inkscape:zoom="3.7565048"
   inkscape:cx="-33.899567"
   inkscape:cy="24"
   inkscape:window-x="0"
   inkscape:window-y="25"
   inkscape:window-maximized="1"
   inkscape:current-layer="Capa_1" />


<g
   id="g6"
   transform="translate(0,-464)">
</g>
<g
   id="g8"
   transform="translate(0,-464)">
</g>
<g
   id="g10"
   transform="translate(0,-464)">
</g>
<g
   id="g12"
   transform="translate(0,-464)">
</g>
<g
   id="g14"
   transform="translate(0,-464)">
</g>
<g
   id="g16"
   transform="translate(0,-464)">
</g>
<g
   id="g18"
   transform="translate(0,-464)">
</g>
<g
   id="g20"
   transform="translate(0,-464)">
</g>
<g
   id="g22"
   transform="translate(0,-464)">
</g>
<g
   id="g24"
   transform="translate(0,-464)">
</g>
<g
   id="g26"
   transform="translate(0,-464)">
</g>
<g
   id="g28"
   transform="translate(0,-464)">
</g>
<g
   id="g30"
   transform="translate(0,-464)">
</g>
<g
   id="g32"
   transform="translate(0,-464)">
</g>
<g
   id="g34"
   transform="translate(0,-464)">
</g>
<path
   style="fill:#0055d4;stroke-width:0.0924025"
   d="m 24,0.34570312 c -5.833461,0 -10.522199,1.12037758 -13.935547,3.33203128 -4.101192,2.6574037 -6.267578,6.9015136 -6.267578,12.2714846 0,7.226706 5.804313,16.88549 7.583984,19.673828 2.031747,3.183082 4.250107,6.079783 6.246094,8.15625 2.542362,2.644284 4.56815,3.875 6.373047,3.875 1.804991,0 3.82901,-1.230625 6.371094,-3.875 1.995894,-2.076376 4.214348,-4.973077 6.246094,-8.15625 1.779671,-2.788246 7.585937,-12.447123 7.585937,-19.673828 C 44.203217,10.57934 42.036923,6.3352303 37.935547,3.6777344 34.522383,1.4660807 29.83337,0.34570312 24,0.34570312 Z m 0,3.86328128 c 3.287552,0 5.962814,2.6752691 5.962891,5.9628906 v 0.384766 4.740234 l 7.335937,-1.044922 v 0.01172 c 0.160913,-0.04157 0.458137,-0.09079 0.642578,-0.06055 0.515296,-0.05711 0.872767,0.06967 1.056641,0.541016 0.183938,0.471269 8.25e-4,1.018703 -0.423828,1.308593 l -8.611328,2.994141 v 5.035156 h -1.179688 v -4.625 l -0.71875,0.25 0.140625,7.087891 3.541016,11.326172 c 0.195976,0.53246 0.170954,1.210995 -0.376953,1.515625 -0.547907,0.304441 -1.24546,0.118473 -1.558594,-0.414063 L 24.019531,27.072266 18.117188,39.244141 c -0.352287,0.514016 -1.25651,0.782905 -1.628907,0.27539 -0.294085,-0.401084 -0.364042,-0.884859 -0.1875,-1.515625 l 3.560547,-11.27539 0.07227,-7.529297 -0.714844,-0.214844 v 5.097656 H 18.039062 V 18.630859 L 9.568359,16.09375 c -0.37728,-0.192794 -0.643571,-0.549184 -0.638672,-0.962891 0.0052,-0.414199 0.256619,-0.703411 0.638672,-0.886718 0.191043,-0.09752 0.318116,-0.150497 0.484375,-0.154297 v -0.002 c 0.166243,-0.0042 0.372043,0.04027 0.720704,0.134765 l 7.265624,1.056641 V 10.964844 10.171875 C 18.039063,6.8842535 20.713158,4.2089844 24,4.2089844 Z M 23.412109,5.4257812 C 21.052233,5.7172964 19.21875,7.7337779 19.21875,10.171875 v 1.033203 4.244141 L 24,16.144531 l 4.783203,-0.68164 v -4.248047 -1.042969 c 0,-2.4382105 -1.832776,-4.4543143 -4.193359,-4.7460938 v 1.3378907 c 0,1.5547838 1.263518,2.8203125 2.818359,2.8203125 0.15634,0 0.307433,0.061512 0.417969,0.171875 C 27.93663,9.8665234 28,10.015403 28,10.171875 c -7.9e-5,2.203881 -1.795443,3.998047 -4,3.998047 -2.202987,0 -3.996447,-1.794393 -3.998047,-3.998047 -7.9e-5,-0.156397 0.06338,-0.3052756 0.173828,-0.4160156 0.110618,-0.110745 0.259676,-0.171875 0.416016,-0.171875 1.55484,0 2.820312,-1.2654527 2.820312,-2.8203125 z"
   id="path878"
   inkscape:connector-curvature="0" /></svg>