<?xml version="1.0" encoding="UTF-8" standalone="no"?>
<!-- Generator: Adobe Illustrator 19.0.0, SVG Export Plug-In . SVG Version: 6.00 Build 0)  -->

<svg
   xmlns:dc="http://purl.org/dc/elements/1.1/"
   xmlns:cc="http://creativecommons.org/ns#"
   xmlns:rdf="http://www.w3.org/1999/02/22-rdf-syntax-ns#"
   xmlns:svg="http://www.w3.org/2000/svg"
   xmlns="http://www.w3.org/2000/svg"
   xmlns:xlink="http://www.w3.org/1999/xlink"
   xmlns:sodipodi="http://sodipodi.sourceforge.net/DTD/sodipodi-0.dtd"
   xmlns:inkscape="http://www.inkscape.org/namespaces/inkscape"
   version="1.1"
   id="Capa_1"
   x="0px"
   y="0px"
   viewBox="0 0 48 48"
   xml:space="preserve"
   sodipodi:docname="preferences-desktop-screensaver.svg"
   width="48"
   height="48"
   inkscape:version="0.92.3 (2405546, 2018-03-11)"><metadata
   id="metadata41"><rdf:RDF><cc:Work
       rdf:about=""><dc:format>image/svg+xml</dc:format><dc:type
         rdf:resource="http://purl.org/dc/dcmitype/StillImage" /><dc:title /></cc:Work></rdf:RDF></metadata><defs
   id="defs39"><linearGradient
     inkscape:collect="always"
     id="linearGradient920"><stop
       style="stop-color:#000000;stop-opacity:1;"
       offset="0"
       id="stop916" /><stop
       style="stop-color:#000000;stop-opacity:0;"
       offset="1"
       id="stop918" /></linearGradient><linearGradient
     id="linearGradient890"><stop
       offset="0"
       style="stop-color:#c8c8c8;stop-opacity:1"
       id="stop886" /><stop
       id="stop906"
       style="stop-color:#969696;stop-opacity:1"
       offset="0.11187674" /><stop
       id="stop894"
       style="stop-color:#646464;stop-opacity:1"
       offset="0.24794683" /><stop
       offset="0.4102532"
       style="stop-color:#4b4b4b;stop-opacity:1"
       id="stop904" /><stop
       id="stop892"
       style="stop-color:#323232;stop-opacity:1"
       offset="0.68832743" /><stop
       offset="1"
       style="stop-color:#000000;stop-opacity:1"
       id="stop888" /></linearGradient><linearGradient
     x1="-83.756935"
     y1="-7.8379993"
     x2="-92.222527"
     y2="27.521217"
     id="linearGradient5588"
     xlink:href="#linearGradient3202"
     gradientUnits="userSpaceOnUse"
     gradientTransform="matrix(0.5857566,-0.140767,0.1402401,0.5879573,74.307775,0.1578927)" /><linearGradient
     id="linearGradient3202"><stop
       id="stop3204"
       style="stop-color:white;stop-opacity:1"
       offset="0" /><stop
       id="stop3206"
       style="stop-color:#d3eefc;stop-opacity:1"
       offset="1" /></linearGradient><linearGradient
     id="linearGradient6112"
     x1="12.938"
     x2="15.25"
     y1="8.4375"
     y2="19.812"
     gradientTransform="matrix(0.47002296,0,0,0.62340018,13.130953,8.0093028)"
     gradientUnits="userSpaceOnUse"><stop
       id="stop6594"
       style="stop-color:#fff;stop-opacity:.27451"
       offset="0" /><stop
       id="stop6596"
       style="stop-color:#fff;stop-opacity:0"
       offset="1" /></linearGradient><radialGradient
     id="radialGradient6101"
     cx="24.5"
     cy="12.5"
     r="2.5"
     gradientTransform="matrix(0.61217898,0,0,0.62677693,2.0233227,11.324046)"
     gradientUnits="userSpaceOnUse"
     xlink:href="#linearGradient14414" /><linearGradient
     id="linearGradient14414"><stop
       id="stop14422"
       style="stop-color:#fff"
       offset="0" /><stop
       id="stop14418"
       style="stop-color:#fff;stop-opacity:0"
       offset="1" /></linearGradient><radialGradient
     id="radialGradient6103"
     cx="24.5"
     cy="12.5"
     r="2.5"
     gradientTransform="matrix(0.61217898,0,0,0.62677693,3.5818232,5.0900441)"
     gradientUnits="userSpaceOnUse"
     xlink:href="#linearGradient14414" /><radialGradient
     id="radialGradient6105"
     cx="24.5"
     cy="12.5"
     r="2.5"
     gradientTransform="matrix(0.61217898,0,0,0.62677693,6.698928,8.7265452)"
     gradientUnits="userSpaceOnUse"
     xlink:href="#linearGradient14414" /><radialGradient
     id="radialGradient6107"
     cx="24.5"
     cy="12.5"
     r="2.5"
     gradientTransform="matrix(0.61217898,0,0,0.62677693,10.854929,6.3710276)"
     gradientUnits="userSpaceOnUse"
     xlink:href="#linearGradient14414" /><radialGradient
     inkscape:collect="always"
     xlink:href="#linearGradient890"
     id="radialGradient884"
     cx="19.022013"
     cy="14.604287"
     fx="19.022013"
     fy="14.604287"
     r="9.8076172"
     gradientTransform="matrix(1.1172207,0.2754809,-0.27296727,1.1070266,1.7567183,-6.1373032)"
     gradientUnits="userSpaceOnUse" /><linearGradient
     inkscape:collect="always"
     xlink:href="#linearGradient920"
     id="linearGradient942"
     gradientUnits="userSpaceOnUse"
     x1="10.164706"
     y1="6.7112794"
     x2="43.105885"
     y2="37.581867" /></defs><sodipodi:namedview
   pagecolor="#ffffff"
   bordercolor="#666666"
   borderopacity="1"
   objecttolerance="10"
   gridtolerance="10"
   guidetolerance="10"
   inkscape:pageopacity="0"
   inkscape:pageshadow="2"
   inkscape:window-width="1366"
   inkscape:window-height="719"
   id="namedview37"
   showgrid="false"
   showguides="true"
   inkscape:guide-bbox="true"
   inkscape:zoom="3.7565048"
   inkscape:cx="-34.298874"
   inkscape:cy="24"
   inkscape:window-x="0"
   inkscape:window-y="25"
   inkscape:window-maximized="1"
   inkscape:current-layer="Capa_1" />


<g
   id="g6"
   transform="translate(0,-464)">
</g>
<g
   id="g8"
   transform="translate(0,-464)">
</g>
<g
   id="g10"
   transform="translate(0,-464)">
</g>
<g
   id="g12"
   transform="translate(0,-464)">
</g>
<g
   id="g14"
   transform="translate(0,-464)">
</g>
<g
   id="g16"
   transform="translate(0,-464)">
</g>
<g
   id="g18"
   transform="translate(0,-464)">
</g>
<g
   id="g20"
   transform="translate(0,-464)">
</g>
<g
   id="g22"
   transform="translate(0,-464)">
</g>
<g
   id="g24"
   transform="translate(0,-464)">
</g>
<g
   id="g26"
   transform="translate(0,-464)">
</g>
<g
   id="g28"
   transform="translate(0,-464)">
</g>
<g
   id="g30"
   transform="translate(0,-464)">
</g>
<g
   id="g32"
   transform="translate(0,-464)">
</g>
<g
   id="g34"
   transform="translate(0,-464)">
</g>
<g
   id="g880"><path
     inkscape:connector-curvature="0"
     id="path873"
     d="m 24.000976,0.3457035 c -5.833461,0 -10.522199,1.1203776 -13.935547,3.3320313 -4.101192,2.6574037 -6.269531,6.9015122 -6.269531,12.2714832 0,7.226706 5.806266,16.88549 7.585937,19.673828 2.031747,3.183082 4.250107,6.079783 6.246094,8.15625 2.542362,2.644284 4.56815,3.875 6.373047,3.875 1.804991,0 3.829009,-1.230625 6.371093,-3.875 1.995894,-2.076376 4.214348,-4.973077 6.246094,-8.15625 C 38.397835,32.8348 44.204101,23.175924 44.204101,15.949219 44.204193,10.57934 42.037899,6.3352307 37.936523,3.6777348 34.523359,1.4660811 29.834346,0.3457035 24.000976,0.3457035 Z"
     style="fill:#67536c;stroke-width:0.0924025" /><path
     inkscape:connector-curvature="0"
     id="path914"
     d="m 28.292969,45.539062 c 0.677989,-0.544051 1.314812,-0.965737 2.078125,-1.759765 1.995894,-2.076377 4.214348,-4.973078 6.246094,-8.15625 0.889836,-1.394123 2.786912,-4.505287 4.460932,-8.171875 0.83702,-1.833294 1.61927,-3.806143 2.19141,-5.771484 0.46548,-1.598946 0.65403,-3.150248 0.75977,-4.66211 L 35.482422,8.4707031 34.917969,25.128906 24.283203,26.164062 13.929688,25.693359 l -0.753907,1.035157 4.236328,4.236328 -2.976562,0.716797 z"
     style="opacity:0.8;fill:url(#linearGradient942);fill-opacity:1;stroke:none;stroke-width:1px;stroke-linecap:butt;stroke-linejoin:miter;stroke-opacity:1" /><path
     inkscape:connector-curvature="0"
     id="path871"
     d="m 13.758788,8.3281254 h 21.255859 c 0.42663,0 0.769532,0.3448545 0.769532,0.7714844 V 26.113281 c 0,0.42663 -0.342902,0.769531 -0.769532,0.769531 H 31.012694 V 30.0625 H 18.290038 v -3.179688 h -4.53125 c -0.42663,0 -0.769531,-0.342901 -0.769531,-0.769531 V 9.0996098 c 0,-0.4266299 0.342901,-0.7714844 0.769531,-0.7714844 z"
     style="fill:#ffffff;stroke-width:0.0924025" /><path
     inkscape:connector-curvature="0"
     id="path869"
     d="m 15.239257,9.9199219 c -0.365683,0 -0.660156,0.2944741 -0.660156,0.6601561 v 13.521484 c 0,0.365683 0.294473,0.660156 0.660156,0.660156 h 18.294922 c 0.365682,0 0.660156,-0.294473 0.660156,-0.660156 V 10.580078 c 0,-0.365682 -0.294474,-0.6601561 -0.660156,-0.6601561 z"
     style="fill:url(#radialGradient884);fill-opacity:1;stroke-width:0.0924025" /><path
     id="path867"
     d="m 18.871094,10.958984 -0.263672,1.558594 -1.558594,0.21875 1.558594,0.300781 0.285156,1.558594 0.234375,-1.558594 1.558594,-0.242187 -1.558594,-0.277344 z m 7.271484,1.28125 -0.261719,1.558594 -1.558593,0.21875 1.558593,0.300781 0.285157,1.556641 0.234375,-1.556641 1.558593,-0.242187 -1.558593,-0.277344 z m 4.894531,1.544922 c 0.220512,0.528904 0.335938,1.114457 0.335938,1.72461 0,2.440559 -1.949061,4.419922 -4.353516,4.419922 -0.702208,0 -1.359658,-0.166795 -1.947265,-0.466797 0.661532,1.586658 2.214289,2.693358 4.017578,2.693359 2.404402,0 4.353515,-1.977461 4.353515,-4.417969 0,-1.727753 -0.981833,-3.225929 -2.40625,-3.953125 z m -9.048828,0.810547 -0.263672,1.556641 -1.558593,0.220703 1.558593,0.298828 0.285157,1.558594 0.234375,-1.558594 1.558593,-0.240234 -1.558593,-0.279297 z M 17.3125,17.191406 17.048828,18.75 l -1.558594,0.220703 1.558594,0.298828 0.28711,1.558594 0.232421,-1.558594 1.558594,-0.242187 L 17.568359,18.75 Z"
     style="fill:#f9f9f9;stroke-width:0.0924025"
     inkscape:connector-curvature="0" /><path
     inkscape:connector-curvature="0"
     id="path2"
     d="M 14.436523,30.080078 H 34.088866 V 31.68164 H 14.436523 Z"
     style="fill:#ffffff;stroke-width:0.0924025" /><path
     id="rect6588"
     d="M 14.541032,9.8795037 H 34.282038 V 14.866705 L 14.541032,19.230507 Z"
     style="fill:url(#linearGradient6112);stroke-width:0.51950014"
     inkscape:connector-curvature="0" /><path
     inkscape:connector-curvature="0"
     id="path4588"
     d="m 24.000977,0.3457035 c -5.833461,0 -10.522199,1.1203783 -13.935547,3.3320313 -4.101193,2.657404 -6.269532,6.9015122 -6.269532,12.2714832 0,7.226706 5.806266,16.88549 7.585938,19.673828 2.031747,3.183082 4.250107,6.079783 6.246094,8.15625 2.542362,2.644284 4.56815,3.875 6.373047,3.875 1.804991,0 3.829009,-1.230625 6.371093,-3.875 1.995894,-2.076376 4.214348,-4.973077 6.246094,-8.15625 C 38.397835,32.8348 44.204102,23.175924 44.204102,15.94922 44.204194,10.57934 42.037898,6.3352309 37.936524,3.6777348 34.52336,1.4660818 29.834346,0.3457035 24.000977,0.3457035 Z m 0,0.14453126 c 2.112445,0.084873 4.119293,0.27168527 5.875,0.69140624 1.164035,0.2782756 2.252954,0.6269196 3.263671,1.0429688 1.010718,0.4160492 1.943585,0.9002116 2.796876,1.453125 1.025343,0.6643739 1.929139,1.4277032 2.708984,2.2832031 0.779844,0.8554999 1.435774,1.803713 1.96289,2.8359375 0.527119,1.0322245 0.926199,2.1492026 1.19336,3.3437496 0.267161,1.194547 0.402367,2.466124 0.402344,3.808593 0,1.806677 -0.363402,3.765127 -0.935547,5.730469 -0.572145,1.965342 -1.352441,3.93819 -2.189453,5.771484 -1.674026,3.66659 -3.571102,6.777752 -4.460938,8.171875 -2.031746,3.183173 -4.2502,6.079876 -6.246094,8.15625 -1.271042,1.322188 -2.413501,2.291486 -3.46289,2.929688 -0.319034,0.194026 -0.618451,0.306539 -0.910156,0.390625 -0.291517,-0.08404 -0.58956,-0.196919 -0.908204,-0.390625 -1.049854,-0.638215 -2.191709,-1.607546 -3.46289,-2.929688 -1.995987,-2.076467 -4.214347,-4.973168 -6.246094,-8.15625 C 12.492,34.228877 10.594924,31.117748 8.920898,27.451171 8.083886,25.617883 7.30359,23.645021 6.731445,21.679687 6.159301,19.714353 5.795899,17.755895 5.795898,15.949218 c 0,-1.342492 0.134981,-2.614034 0.402344,-3.808593 C 6.465605,10.946066 6.866188,9.8291 7.393555,8.7968754 7.920922,7.7646508 8.576433,6.8164264 9.356445,5.9609379 10.136457,5.1054494 11.040132,4.3420858 12.06543,3.6777348 c 0.853337,-0.5529133 1.786156,-1.0370759 2.796875,-1.453125 1.010719,-0.4160492 2.099654,-0.7646932 3.263672,-1.0429688 1.755679,-0.41972098 3.762539,-0.60653321 5.875,-0.69140624 z"
     style="opacity:0.2;fill:#000000;stroke-width:0.0924025" /></g></svg>