<?xml version="1.0" encoding="UTF-8" standalone="no"?>
<!-- Created with Inkscape (http://www.inkscape.org/) -->

<svg
   xmlns:dc="http://purl.org/dc/elements/1.1/"
   xmlns:cc="http://creativecommons.org/ns#"
   xmlns:rdf="http://www.w3.org/1999/02/22-rdf-syntax-ns#"
   xmlns:svg="http://www.w3.org/2000/svg"
   xmlns="http://www.w3.org/2000/svg"
   xmlns:xlink="http://www.w3.org/1999/xlink"
   xmlns:sodipodi="http://sodipodi.sourceforge.net/DTD/sodipodi-0.dtd"
   xmlns:inkscape="http://www.inkscape.org/namespaces/inkscape"
   width="48"
   height="48"
   viewBox="0 0 12.7 12.7"
   version="1.1"
   id="svg829"
   inkscape:version="0.92.3 (2405546, 2018-03-11)"
   sodipodi:docname="preferences-desktop.svg">
  <defs
     id="defs823">
    <linearGradient
       inkscape:collect="always"
       id="linearGradient1291">
      <stop
         style="stop-color:#000000;stop-opacity:1;"
         offset="0"
         id="stop1287" />
      <stop
         style="stop-color:#000000;stop-opacity:0;"
         offset="1"
         id="stop1289" />
    </linearGradient>
    <linearGradient
       id="linearGradient1269"
       inkscape:collect="always">
      <stop
         id="stop1265"
         offset="0"
         style="stop-color:#ffffff;stop-opacity:0" />
      <stop
         style="stop-color:#4f4f4f;stop-opacity:0"
         offset="0.29944265"
         id="stop1391" />
      <stop
         style="stop-color:#000000;stop-opacity:1"
         offset="0.48680416"
         id="stop1271" />
      <stop
         id="stop1389"
         offset="0.63914442"
         style="stop-color:#343434;stop-opacity:0" />
      <stop
         id="stop1267"
         offset="1"
         style="stop-color:#ffffff;stop-opacity:0" />
    </linearGradient>
    <linearGradient
       inkscape:collect="always"
       xlink:href="#linearGradient1034"
       id="linearGradient1036-6"
       x1="7.8000402"
       y1="287.35614"
       x2="11.641963"
       y2="289.32199"
       gradientUnits="userSpaceOnUse"
       gradientTransform="matrix(-0.89513574,0,0,0.89513574,12.209516,30.423327)" />
    <linearGradient
       inkscape:collect="always"
       id="linearGradient1034">
      <stop
         style="stop-color:#808080;stop-opacity:1"
         offset="0"
         id="stop1030" />
      <stop
         style="stop-color:#ffffff;stop-opacity:1"
         offset="1"
         id="stop1032" />
    </linearGradient>
    <linearGradient
       inkscape:collect="always"
       xlink:href="#linearGradient1034"
       id="linearGradient1044-1"
       x1="8.5700188"
       y1="287.76593"
       x2="6.1989322"
       y2="286.78415"
       gradientUnits="userSpaceOnUse"
       gradientTransform="matrix(-0.89513574,0,0,0.89513574,12.209516,30.423327)" />
    <linearGradient
       inkscape:collect="always"
       xlink:href="#linearGradient1034"
       id="linearGradient1231"
       gradientUnits="userSpaceOnUse"
       x1="7.8000402"
       y1="287.35614"
       x2="11.641963"
       y2="289.32199"
       gradientTransform="matrix(0.89513576,0,0,0.89513576,0.49048389,30.423327)" />
    <linearGradient
       inkscape:collect="always"
       xlink:href="#linearGradient1034"
       id="linearGradient1233"
       gradientUnits="userSpaceOnUse"
       x1="8.5700188"
       y1="287.76593"
       x2="6.1989322"
       y2="286.78415"
       gradientTransform="matrix(0.89513576,0,0,0.89513576,0.49048389,30.423327)" />
    <linearGradient
       inkscape:collect="always"
       xlink:href="#linearGradient1291"
       id="linearGradient1293"
       x1="2.2550838"
       y1="285.89835"
       x2="11.227923"
       y2="294.87119"
       gradientUnits="userSpaceOnUse" />
    <linearGradient
       inkscape:collect="always"
       xlink:href="#linearGradient1291"
       id="linearGradient1357"
       x1="8.6129827"
       y1="288.72018"
       x2="4.638854"
       y2="291.31613"
       gradientUnits="userSpaceOnUse" />
    <linearGradient
       inkscape:collect="always"
       xlink:href="#linearGradient1291"
       id="linearGradient1235-0-7"
       gradientUnits="userSpaceOnUse"
       x1="5.9828625"
       y1="289.11957"
       x2="10.262854"
       y2="292.71576"
       gradientTransform="matrix(0.89513576,0,0,0.89513576,0.49048413,30.423341)" />
    <linearGradient
       inkscape:collect="always"
       xlink:href="#linearGradient1269"
       id="linearGradient1387"
       gradientUnits="userSpaceOnUse"
       gradientTransform="matrix(0.89513576,0,0,0.89513576,0.49048403,30.423335)"
       x1="4.3480544"
       y1="294.14694"
       x2="9.0664587"
       y2="286.0947" />
  </defs>
  <sodipodi:namedview
     id="base"
     pagecolor="#ffffff"
     bordercolor="#666666"
     borderopacity="1.0"
     inkscape:pageopacity="0.0"
     inkscape:pageshadow="2"
     inkscape:zoom="5.3125"
     inkscape:cx="24"
     inkscape:cy="24"
     inkscape:document-units="mm"
     inkscape:current-layer="layer1"
     showgrid="false"
     showguides="true"
     inkscape:guide-bbox="true"
     inkscape:window-width="1366"
     inkscape:window-height="719"
     inkscape:window-x="0"
     inkscape:window-y="25"
     inkscape:window-maximized="1"
     scale-x="1.9"
     units="px"
     inkscape:snap-global="true"
     inkscape:snap-smooth-nodes="true" />
  <metadata
     id="metadata826">
    <rdf:RDF>
      <cc:Work
         rdf:about="">
        <dc:format>image/svg+xml</dc:format>
        <dc:type
           rdf:resource="http://purl.org/dc/dcmitype/StillImage" />
        <dc:title />
      </cc:Work>
    </rdf:RDF>
  </metadata>
  <g
     inkscape:label="Capa 1"
     inkscape:groupmode="layer"
     id="layer1"
     transform="translate(0,-284.3)">
    <path
       style="fill:#ffffff;stroke-width:0.02444816"
       d="m -6.3587851,286.20686 c -0.049129,10e-4 -0.097871,0.022 -0.1343589,0.0605 l -0.4304646,0.45475 -0.4991944,-0.23254 c -0.037471,-0.0174 -0.081612,-0.009 -0.1100707,0.0212 -0.028395,0.03 -0.034478,0.0746 -0.014986,0.1111 l 0.2594157,0.48576 -1.1575521,1.17822 c -0.00533,-0.0105 -0.013143,-0.018 -0.017053,-0.03 l -0.2232422,-0.68161 c -0.041598,-0.12713 -0.1255797,-0.13377 -0.1870686,-0.015 l -0.1462445,0.28216 c -0.061489,0.1187 -0.1933554,0.14294 -0.2930054,0.0537 l -0.5343342,-0.47852 c -0.09965,-0.0892 -0.176155,-0.053 -0.170015,0.0806 l 0.01447,0.31729 c 0.00614,0.13355 -0.09597,0.22016 -0.22686,0.19276 l -0.702799,-0.14728 c -0.103802,-0.0218 -0.151896,0.0187 -0.132809,0.092 l -0.786515,-0.82269 0.259932,-0.48575 c 0.0195,-0.0365 0.01341,-0.0811 -0.01499,-0.11111 -0.02846,-0.0302 -0.07311,-0.0387 -0.110587,-0.0212 l -0.498678,0.23255 -0.430464,-0.45475 c -0.03649,-0.0386 -0.08523,-0.0595 -0.134359,-0.0605 -0.04918,-10e-4 -0.09894,0.0162 -0.137459,0.0527 l -0.02119,0.0202 c -0.07705,0.073 -0.08068,0.19472 -0.0077,0.27182 l 0.421162,0.44441 c -0.06154,0.13049 -0.196079,0.21949 -0.349332,0.21549 -0.206686,-0.006 -0.370506,-0.17858 -0.364836,-0.38499 0.0011,-0.0388 -0.02136,-0.074 -0.05684,-0.0899 -0.03549,-0.0159 -0.0767,-0.009 -0.104903,0.0176 -0.180504,0.17088 -0.273075,0.41216 -0.259932,0.67954 0.01285,0.26178 0.126098,0.51827 0.318326,0.72141 0.210311,0.22228 0.493691,0.35373 0.777731,0.36173 0.236526,0.006 0.456039,-0.074 0.617533,-0.22686 0.0282,-0.0267 0.03766,-0.0681 0.02377,-0.10439 -0.01387,-0.0363 -0.04849,-0.0605 -0.08733,-0.0615 -0.205282,-0.006 -0.374093,-0.18378 -0.368453,-0.38912 0.0042,-0.15325 0.100403,-0.28263 0.234095,-0.33693 l 1.051098,1.18494 -0.553971,0.18086 c -0.127129,0.0416 -0.133797,0.12619 -0.01499,0.18759 l 0.282153,0.14573 c 0.118796,0.0614 0.14297,0.1934 0.05374,0.293 l -0.478524,0.53434 c -0.08924,0.0996 -0.053,0.17601 0.08061,0.17001 l 0.317293,-0.0145 c 0.133597,-0.006 0.220764,0.096 0.19327,0.22686 l -0.147794,0.70177 c -0.012,0.0572 -0.003,0.0954 0.01757,0.11782 l -1.186491,1.18597 c -0.08559,0.0856 -0.08559,0.22343 0,0.30903 0.08559,0.0856 0.223436,0.0856 0.309025,0 l 1.528589,-1.52807 c 0.01515,-0.0152 0.02432,-0.0334 0.03411,-0.0512 1.32e-4,3.6e-4 9.02e-4,6.3e-4 0.001,0.001 l 0.223242,0.68161 c 0.0416,0.12711 0.12558,0.13429 0.187068,0.0155 l 0.146245,-0.28216 c 0.06149,-0.1187 0.193355,-0.14294 0.293005,-0.0537 l 0.534851,0.47801 c 0.099651,0.0892 0.1761455,0.053 0.1700156,-0.0806 l -0.014986,-0.31729 c -0.00613,-0.13356 0.09597,-0.22025 0.2268595,-0.19275 l 0.7027995,0.14727 c 0.025269,0.006 0.044223,0.005 0.063045,0.003 l 1.1926922,1.1927 c 0.085588,0.0856 0.2234358,0.0856 0.3090248,0 0.085589,-0.0856 0.085589,-0.22343 0,-0.30903 l -1.5285909,-1.52792 c -0.014794,-0.0148 -0.032751,-0.0231 -0.050126,-0.0331 0.01546,-0.01 0.029153,-0.0219 0.048576,-0.0279 l 0.6821289,-0.22324 c 0.1271283,-0.0415 0.1337972,-0.12567 0.014986,-0.18707 l -0.2821533,-0.14624 c -0.118795,-0.0614 -0.1429705,-0.19289 -0.053743,-0.29249 l 0.4785236,-0.53434 c 0.089243,-0.0996 0.052981,-0.17601 -0.080615,-0.17001 l -0.3172934,0.0145 c -0.1335965,0.006 -0.2207638,-0.096 -0.1932699,-0.22686 l 0.1477947,-0.70177 c 0.00514,-0.0245 0.00285,-0.0431 0.00155,-0.0615 l 0.7637771,-0.83148 c 0.1336908,0.0543 0.2298843,0.18368 0.2340943,0.33693 0.00564,0.20535 -0.1631709,0.38313 -0.3684529,0.38913 -0.038842,0.001 -0.07295,0.0252 -0.086816,0.0615 -0.013886,0.0363 -0.00443,0.0777 0.023771,0.10439 0.1614934,0.15286 0.3804909,0.23386 0.6170168,0.22686 0.2840543,-0.008 0.5679356,-0.13945 0.7782471,-0.36174 0.192228,-0.20314 0.30496,-0.45961 0.31781,-0.7214 0.013142,-0.26737 -0.078912,-0.50867 -0.2594157,-0.67955 -0.02821,-0.0266 -0.06993,-0.0335 -0.1054198,-0.0176 -0.035479,0.0158 -0.057904,0.0511 -0.056844,0.0899 0.00567,0.20641 -0.1576324,0.37899 -0.3643188,0.38499 -0.1532529,0.004 -0.2877959,-0.0849 -0.349333,-0.21549 l 0.4206464,-0.44442 c 0.072938,-0.0771 0.070335,-0.19882 -0.00672,-0.27182 l -0.021187,-0.0202 c -0.038518,-0.0365 -0.088277,-0.0537 -0.1374593,-0.0527 z m -3.2256428,2.27686 c 0.6555485,3e-5 1.1885578,0.53334 1.1885578,1.18856 0,0.65531 -0.533009,1.18804 -1.1885578,1.18804 -0.6555811,0 -1.1885581,-0.53273 -1.1885581,-1.18804 0,-0.65525 0.532961,-1.18856 1.1885581,-1.18856 z m 0,0.24288 c -0.5215631,0 -0.9461951,0.42445 -0.9461951,0.94568 0,0.52128 0.424632,0.94516 0.9461951,0.94516 0.5215307,0 0.9456785,-0.42388 0.9456785,-0.94516 0,-0.5212 -0.4241478,-0.94565 -0.9456785,-0.94568 z m 0,0.67283 c 0.1506021,0 0.2723348,0.12241 0.2723348,0.27285 -3e-7,0.15059 -0.1217327,0.27234 -0.2723348,0.27234 -0.1505696,0 -0.2728516,-0.12173 -0.2728516,-0.27234 0,-0.15042 0.122282,-0.27285 0.2728516,-0.27285 z"
       id="path828"
       inkscape:connector-curvature="0" />
    <g
       id="g1413">
      <path
         inkscape:connector-curvature="0"
         id="path830"
         d="m 6.3502583,284.39147 c -1.543437,0 -2.7839987,0.29643 -3.6871137,0.8816 -1.085107,0.7031 -1.658813,1.82603 -1.658813,3.24683 0,1.91207 1.536241,4.46762 2.007112,5.20537 0.537567,0.84219 1.124508,1.60861 1.652613,2.158 0.6726667,0.69964 1.2086557,1.02527 1.6862017,1.02527 0.477571,0 1.013092,-0.32561 1.685685,-1.02527 0.52808,-0.54937 1.115047,-1.31579 1.652612,-2.158 0.4708717,-0.73773 2.0071127,-3.2933 2.0071127,-5.20537 2.4e-5,-1.42078 -0.573141,-2.5437 -1.658296,-3.24683 -0.9030667,-0.58517 -2.1437007,-0.8816 -3.6871137,-0.8816 z"
         style="fill:#916f7c;stroke-width:0.02444816" />
      <path
         inkscape:connector-curvature="0"
         id="path1285"
         d="m 7.2372843,296.5592 c 0.24769,-0.16686 0.505673,-0.37088 0.798917,-0.67593 0.52808,-0.54937 1.114531,-1.3158 1.652096,-2.15801 0.235436,-0.36886 0.7373697,-1.19202 1.1802897,-2.16214 0.221459,-0.48506 0.428429,-1.00704 0.579809,-1.52704 0.15138,-0.51999 0.24753,-1.03817 0.24753,-1.51618 3e-6,-0.16231 -0.03423,-0.30609 -0.04909,-0.46044 l -1.5875,-1.5875 -0.2904217,1.20768 -1.162719,-1.16272 -1.087273,1.84381 -1.519287,-1.51928 -1.8365801,0.96531 -1.3213665,-1.32188 -0.7074503,2.58382 3.1104049,3.11041 -0.8139042,1.57354 z"
         style="fill:url(#linearGradient1293);fill-opacity:1;stroke:none;stroke-width:0.26458332px;stroke-linecap:butt;stroke-linejoin:miter;stroke-opacity:1;opacity:0.60000004" />
      <path
         inkscape:connector-curvature="0"
         id="path991"
         d="m 8.0356898,288.20393 c 0.2691906,0.0411 0.5023842,0.23667 0.5772928,0.51624 0.1003187,0.37439 -0.1312475,0.77534 -0.5055942,0.87565 -0.070832,0.019 -0.1233416,0.0785 -0.1327585,0.15173 -0.00962,0.0726 0.025771,0.14416 0.089281,0.18086 0.3634367,0.20987 0.8009657,0.26176 1.2322976,0.14618 0.5179952,-0.1388 0.9806725,-0.50543 1.2693035,-1.00564 0.26383,-0.45715 0.358953,-0.97651 0.26783,-1.46266 -0.09307,-0.49658 -0.367678,-0.89921 -0.773886,-1.13377 v -4.6e-4 c -0.06351,-0.0368 -0.1429499,-0.0314 -0.2012205,0.013 -0.058041,0.0452 -0.083749,0.1202 -0.064763,0.19104 0.1008612,0.37642 -0.1235914,0.76448 -0.5005055,0.86548 -0.279465,0.0748 -0.5653275,-0.0292 -0.7354928,-0.24193 z"
         style="fill:url(#linearGradient1231);fill-opacity:1;stroke-width:0.02477342" />
      <path
         inkscape:connector-curvature="0"
         id="path989"
         d="M 7.9117831,286.96262 6.8936574,286.754 c -0.076489,-0.0158 -0.1544037,0.0194 -0.1933564,0.0875 -0.039064,0.0672 -0.030023,0.15253 0.021743,0.21093 l 0.6892357,0.77759 z"
         style="fill:url(#linearGradient1233);fill-opacity:1;stroke-width:0.02477342" />
      <path
         inkscape:connector-curvature="0"
         id="path2"
         d="m 7.4725789,287.64608 -0.5005053,0.86734 -2.7222491,4.71594 c -0.048078,0.0833 -0.060993,0.18227 -0.036081,0.27523 0.024912,0.093 0.085571,0.17209 0.1688397,0.22018 l 0.048107,0.0278 c 0.083266,0.0482 0.1823397,0.061 0.2752316,0.0361 0.09287,-0.0249 0.1721552,-0.0854 0.2201855,-0.16884 l 2.7139227,-4.70253 0.5217836,-0.90433 0.5772928,-1.00054 c 0.1000788,-0.17351 0.040657,-0.39522 -0.1327594,-0.49543 l -0.047648,-0.0278 c -0.086694,-0.05 -0.1855428,-0.0601 -0.2752318,-0.0361 -0.08959,0.024 -0.1701161,0.082 -0.2201855,0.16884 z"
         style="fill:#a05a2c;fill-opacity:1;stroke-width:0.02477342" />
      <path
         inkscape:connector-curvature="0"
         id="path1028"
         d="m 8.2404895,289.6453 c 0.011826,0.0147 0.00682,0.0385 0.023751,0.0483 0.3109699,0.17958 0.6853359,0.22397 1.0543995,0.12508 0.4432158,-0.11876 0.8391,-0.43246 1.086063,-0.86046 0.225743,-0.39116 0.307134,-0.83554 0.229166,-1.25151 -0.07963,-0.42489 -0.3146,-0.7694 -0.6621661,-0.97009 v -4e-4 c -0.01274,-0.008 -0.026533,0.006 -0.040369,0.003 0.1263471,0.0905 0.2501831,0.18518 0.3380101,0.31388 0.112141,0.16432 0.190932,0.3567 0.230749,0.56914 0.03898,0.208 0.03802,0.42328 -7.66e-4,0.63526 -0.03882,0.21199 -0.115502,0.42068 -0.228375,0.61625 -0.123481,0.214 -0.2841694,0.39944 -0.4694126,0.5462 -0.1852441,0.14677 -0.3950415,0.25488 -0.6166496,0.31426 -0.1845318,0.0495 -0.3703733,0.0632 -0.5489684,0.042 -0.1397108,-0.0165 -0.2686879,-0.072 -0.3954003,-0.13062 z"
         style="opacity:0.5;fill:#000000;stroke-width:0.02119706" />
      <path
         inkscape:connector-curvature="0"
         id="path991-0"
         d="m 4.6643102,288.20393 c -0.2691906,0.0411 -0.5023842,0.23666 -0.5772927,0.51623 -0.1003188,0.37439 0.1312475,0.77535 0.5055942,0.87566 0.070832,0.019 0.1233416,0.0785 0.1327584,0.15172 0.00962,0.0726 -0.025771,0.14417 -0.089281,0.18087 -0.3634368,0.20987 -0.8009657,0.26175 -1.2322976,0.14617 -0.5179952,-0.1388 -0.9806721,-0.50543 -1.2693033,-1.00564 -0.2638305,-0.45714 -0.358953,-0.9765 -0.2678299,-1.46266 0.093068,-0.49658 0.3676779,-0.89921 0.773886,-1.13377 v -4.6e-4 c 0.06351,-0.0368 0.1429496,-0.0314 0.2012202,0.013 0.058041,0.0452 0.083749,0.1202 0.064763,0.19104 -0.1008612,0.37643 0.1235914,0.76448 0.5005055,0.86548 0.2794649,0.0748 0.5653274,-0.0292 0.7354927,-0.24193 z"
         style="fill:url(#linearGradient1036-6);fill-opacity:1;stroke-width:0.02477342" />
      <path
         inkscape:connector-curvature="0"
         id="path989-9"
         d="m 4.788217,286.96262 1.0181256,-0.20863 c 0.076489,-0.0158 0.1544037,0.0194 0.1933565,0.0875 0.039064,0.0672 0.030023,0.15253 -0.021743,0.21094 l -0.6892357,0.77758 z"
         style="fill:url(#linearGradient1044-1);fill-opacity:1;stroke-width:0.02477342" />
      <path
         inkscape:connector-curvature="0"
         id="path2-6-2"
         d="m 7.4725793,287.64608 -0.500506,0.86734 -2.7222489,4.71594 c -0.048078,0.0833 -0.060993,0.18227 -0.036081,0.27523 0.024912,0.093 0.085571,0.17209 0.1688397,0.22018 l 0.048107,0.0278 c 0.083266,0.0482 0.1823397,0.061 0.2752316,0.0361 0.092869,-0.0249 0.1721556,-0.0854 0.2201856,-0.16884 l 2.713923,-4.70253 0.521783,-0.90433 0.577293,-1.00054 c 0.100079,-0.17351 0.04066,-0.39522 -0.132759,-0.49543 l -0.04765,-0.0278 c -0.08669,-0.05 -0.185543,-0.0601 -0.275232,-0.0361 -0.08959,0.024 -0.170116,0.082 -0.220186,0.16884 z"
         style="opacity:0.57999998;fill:url(#linearGradient1235-0-7);fill-opacity:1;stroke-width:0.02477342" />
      <path
         inkscape:connector-curvature="0"
         id="path2-6"
         d="m 7.4725793,287.64608 -0.500506,0.86734 -2.7222488,4.71594 c -0.048078,0.0833 -0.060993,0.18227 -0.036081,0.27523 0.024912,0.093 0.085571,0.17209 0.1688397,0.22018 l 0.048107,0.0278 c 0.083266,0.0482 0.1823397,0.061 0.2752316,0.0361 0.092867,-0.0249 0.1721555,-0.0854 0.2201855,-0.16884 l 2.713923,-4.70253 0.521783,-0.90433 0.577293,-1.00054 c 0.100079,-0.17351 0.04066,-0.39522 -0.132759,-0.49543 l -0.04765,-0.0278 c -0.08669,-0.05 -0.185543,-0.0601 -0.275232,-0.0361 -0.08959,0.024 -0.170116,0.082 -0.220186,0.16884 z"
         style="opacity:0.99999999;fill:url(#linearGradient1387);fill-opacity:1;stroke-width:0.02477342" />
      <path
         inkscape:connector-curvature="0"
         id="path2-3"
         d="m 5.2274212,287.64608 0.5005053,0.86733 2.722249,4.71594 c 0.048078,0.0832 0.060993,0.18227 0.036081,0.27523 -0.024912,0.093 -0.085571,0.1721 -0.1688397,0.22019 l -0.048107,0.0278 c -0.083265,0.0482 -0.1823396,0.0609 -0.2752315,0.0361 -0.09287,-0.0249 -0.1721552,-0.0854 -0.2201855,-0.16884 L 5.0599701,288.9173 4.5381865,288.01297 3.9608938,287.01242 c -0.1000789,-0.1735 -0.040657,-0.39522 0.1327594,-0.49542 l 0.047648,-0.0278 c 0.086694,-0.05 0.1855429,-0.0601 0.2752319,-0.0361 0.08959,0.024 0.1701161,0.082 0.2201855,0.16885 z"
         style="fill:#a05a2c;fill-opacity:1;stroke-width:0.02477342" />
      <path
         inkscape:connector-curvature="0"
         id="path1028-6"
         d="m 4.4595108,289.64529 c -0.011826,0.0147 -0.00682,0.0385 -0.023751,0.0483 -0.31097,0.17957 -0.6853361,0.22397 -1.0543997,0.12507 -0.4432159,-0.11876 -0.8390994,-0.43246 -1.086063,-0.86046 -0.2257432,-0.39115 -0.3071343,-0.83553 -0.229166,-1.25151 0.079633,-0.42489 0.3145997,-0.7694 0.6621665,-0.97009 v -4e-4 c 0.012745,-0.008 0.026531,0.006 0.040372,0.003 -0.1263471,0.0905 -0.2501827,0.18518 -0.3380097,0.31388 -0.1121417,0.16432 -0.1909326,0.3567 -0.2307493,0.56915 -0.038985,0.20799 -0.038028,0.42327 7.66e-4,0.63525 0.038816,0.21199 0.1155024,0.42068 0.2283741,0.61626 0.1234818,0.214 0.2841699,0.39943 0.4694133,0.54619 0.1852441,0.14678 0.3950416,0.25489 0.6166496,0.31427 0.1845318,0.0495 0.3703734,0.0632 0.5489686,0.042 0.1397106,-0.0165 0.2686879,-0.0719 0.3954003,-0.13062 z"
         style="opacity:0.5;fill:#000000;stroke-width:0.02119706" />
      <path
         inkscape:connector-curvature="0"
         id="path2-3-8"
         d="m 5.2274212,287.64608 0.5005053,0.86733 2.7222489,4.71594 c 0.048078,0.0832 0.060993,0.18227 0.036081,0.27523 -0.024913,0.093 -0.085571,0.1721 -0.1688399,0.22019 l -0.048107,0.0278 c -0.083265,0.0482 -0.1823397,0.0609 -0.2752315,0.0361 -0.09287,-0.0249 -0.1721554,-0.0854 -0.2201857,-0.16884 L 5.0599701,288.9173 4.5381865,288.01297 3.9608937,287.01242 c -0.1000789,-0.1735 -0.040657,-0.39522 0.1327594,-0.49542 l 0.047648,-0.0278 c 0.086694,-0.05 0.1855429,-0.0601 0.275232,-0.0361 0.08959,0.024 0.1701161,0.082 0.2201855,0.16885 z"
         style="fill:url(#linearGradient1357);fill-opacity:1;stroke-width:0.02477342" />
      <path
         inkscape:connector-curvature="0"
         id="path883"
         d="m 1.0384381,288.19848 c -0.00727,0.10945 -0.034107,0.20812 -0.034107,0.32143 0,1.91206 1.5362412,4.46762 2.0071128,5.20536 0.5375664,0.84219 1.1245077,1.60861 1.6526123,2.15801 0.6726666,0.69964 1.2086564,1.02526 1.6862021,1.02526 0.4775705,0 1.0130919,-0.3256 1.685685,-1.02526 0.5280803,-0.54937 1.1150465,-1.31579 1.6526123,-2.15801 0.4708724,-0.73772 2.0071124,-3.2933 2.0071124,-5.20536 2e-6,-0.11331 -0.02685,-0.21198 -0.03411,-0.32143 -0.02205,0.4214 -0.08279,0.85971 -0.213424,1.30845 -0.15138,0.51999 -0.357833,1.04198 -0.579292,1.52704 -0.44292,0.97011 -0.9448546,1.79328 -1.1802904,2.16214 -0.5375658,0.84221 -1.124532,1.60863 -1.6526123,2.15801 -0.3362966,0.34982 -0.6385722,0.60628 -0.916223,0.77514 -0.2776508,0.16886 -0.5306769,0.25012 -0.769462,0.25012 -0.238773,0 -0.492205,-0.0813 -0.7699791,-0.25012 C 5.3025013,295.9604 5.0003855,295.70393 4.6640522,295.35412 4.135948,294.80472 3.5490067,294.0383 3.0114403,293.19611 2.7760085,292.82723 2.2740738,292.00408 1.8311544,291.03397 1.609695,290.54891 1.4032417,290.02692 1.2518616,289.50693 1.121226,289.05819 1.060488,288.61988 1.0384381,288.19848 Z"
         style="opacity:0.4;fill:#000000;stroke-width:0.02444816" />
    </g>
  </g>
</svg>
