<?xml version="1.0" encoding="UTF-8" standalone="no"?>
<!-- Created with Inkscape (http://www.inkscape.org/) -->

<svg
   xmlns:dc="http://purl.org/dc/elements/1.1/"
   xmlns:cc="http://creativecommons.org/ns#"
   xmlns:rdf="http://www.w3.org/1999/02/22-rdf-syntax-ns#"
   xmlns:svg="http://www.w3.org/2000/svg"
   xmlns="http://www.w3.org/2000/svg"
   xmlns:xlink="http://www.w3.org/1999/xlink"
   xmlns:sodipodi="http://sodipodi.sourceforge.net/DTD/sodipodi-0.dtd"
   xmlns:inkscape="http://www.inkscape.org/namespaces/inkscape"
   width="48"
   height="48"
   viewBox="0 0 12.7 12.7"
   version="1.1"
   id="svg829"
   inkscape:version="0.92.3 (2405546, 2018-03-11)"
   sodipodi:docname="softwarecenter.svg">
  <defs
     id="defs823">
    <linearGradient
       id="linearGradient883">
      <stop
         id="stop881"
         offset="0"
         style="stop-color:#c8b7c4;stop-opacity:1" />
      <stop
         id="stop879"
         offset="1"
         style="stop-color:#483745;stop-opacity:1" />
    </linearGradient>
    <linearGradient
       id="linearGradient876">
      <stop
         id="stop872"
         offset="0"
         style="stop-color:#005ca2;stop-opacity:1;" />
      <stop
         id="stop874"
         offset="1"
         style="stop-color:#1c2224;stop-opacity:1" />
    </linearGradient>
    <linearGradient
       id="linearGradient967">
      <stop
         style="stop-color:#808080;stop-opacity:1"
         offset="0"
         id="stop963" />
      <stop
         style="stop-color:#cccccc;stop-opacity:1"
         offset="1"
         id="stop965" />
    </linearGradient>
    <linearGradient
       inkscape:collect="always"
       id="linearGradient947">
      <stop
         style="stop-color:#000000;stop-opacity:1"
         offset="0"
         id="stop943" />
      <stop
         style="stop-color:#000000;stop-opacity:0"
         offset="1"
         id="stop945" />
    </linearGradient>
    <linearGradient
       id="linearGradient931">
      <stop
         id="stop927"
         offset="0"
         style="stop-color:#241c22;stop-opacity:1" />
      <stop
         id="stop929"
         offset="1"
         style="stop-color:#916f8a;stop-opacity:1" />
    </linearGradient>
    <linearGradient
       id="linearGradient925">
      <stop
         id="stop921"
         offset="0"
         style="stop-color:#ffccaa;stop-opacity:1" />
      <stop
         id="stop923"
         offset="1"
         style="stop-color:#ff9955;stop-opacity:1" />
    </linearGradient>
    <linearGradient
       id="linearGradient3789">
      <stop
         style="stop-color:#00d0ff;stop-opacity:1;"
         offset="0"
         id="stop3791" />
      <stop
         style="stop-color:#0047ff;stop-opacity:1;"
         offset="1"
         id="stop3793" />
    </linearGradient>
    <linearGradient
       id="linearGradient3797">
      <stop
         style="stop-color:#005ca2;stop-opacity:1;"
         offset="0"
         id="stop3799" />
      <stop
         style="stop-color:#012a4a;stop-opacity:1;"
         offset="1"
         id="stop3801" />
    </linearGradient>
    <linearGradient
       inkscape:collect="always"
       xlink:href="#linearGradient947"
       id="linearGradient984"
       gradientUnits="userSpaceOnUse"
       x1="1.9562116"
       y1="286.62747"
       x2="12.633027"
       y2="293.79779" />
    <linearGradient
       inkscape:collect="always"
       xlink:href="#linearGradient947"
       id="linearGradient924"
       x1="3.0629413"
       y1="287.38785"
       x2="11.656191"
       y2="292.17819"
       gradientUnits="userSpaceOnUse"
       gradientTransform="matrix(3.7795276,0,0,3.7795276,60,-1074.5197)" />
    <linearGradient
       inkscape:collect="always"
       xlink:href="#linearGradient947"
       id="linearGradient953"
       gradientUnits="userSpaceOnUse"
       x1="3.0629413"
       y1="287.38785"
       x2="11.656191"
       y2="292.17819" />
    <radialGradient
       inkscape:collect="always"
       xlink:href="#linearGradient883"
       id="radialGradient3795"
       cx="29.999992"
       cy="815.98193"
       fx="29.999992"
       fy="815.98193"
       r="99.848991"
       gradientTransform="matrix(-0.02324363,0.06973082,-0.08477684,-0.02825895,73.08693,306.89421)"
       gradientUnits="userSpaceOnUse" />
    <linearGradient
       id="linearGradient925-3">
      <stop
         id="stop921-6"
         offset="0"
         style="stop-color:#dbe2e3;stop-opacity:1" />
      <stop
         id="stop923-7"
         offset="1"
         style="stop-color:#93a7ac;stop-opacity:1" />
    </linearGradient>
    <linearGradient
       gradientTransform="translate(0.0024196,-1.2366666e-6)"
       inkscape:collect="always"
       xlink:href="#linearGradient931"
       id="linearGradient933-5"
       x1="6.3733969"
       y1="287.0524"
       x2="6.3683853"
       y2="285.23456"
       gradientUnits="userSpaceOnUse" />
  </defs>
  <sodipodi:namedview
     id="base"
     pagecolor="#ffffff"
     bordercolor="#666666"
     borderopacity="1.0"
     inkscape:pageopacity="0.0"
     inkscape:pageshadow="2"
     inkscape:zoom="1.328125"
     inkscape:cx="24"
     inkscape:cy="24"
     inkscape:document-units="mm"
     inkscape:current-layer="layer1"
     showgrid="false"
     showguides="true"
     inkscape:guide-bbox="true"
     inkscape:window-width="1366"
     inkscape:window-height="719"
     inkscape:window-x="0"
     inkscape:window-y="25"
     inkscape:window-maximized="1"
     scale-x="1.9"
     units="px"
     inkscape:snap-global="true"
     inkscape:snap-smooth-nodes="true" />
  <metadata
     id="metadata826">
    <rdf:RDF>
      <cc:Work
         rdf:about="">
        <dc:format>image/svg+xml</dc:format>
        <dc:type
           rdf:resource="http://purl.org/dc/dcmitype/StillImage" />
        <dc:title />
      </cc:Work>
    </rdf:RDF>
  </metadata>
  <g
     inkscape:label="Capa 1"
     inkscape:groupmode="layer"
     id="layer1"
     transform="translate(0,-284.3)">
    <g
       id="g904">
      <path
         inkscape:connector-curvature="0"
         id="path852-3"
         d="m 6.3502584,284.39147 c -1.5434366,0 -2.7839985,0.29643 -3.6871135,0.8816 -1.085107,0.7031 -1.6588134,1.82603 -1.6588134,3.24683 0,1.91207 1.5362412,4.46762 2.0071125,5.20537 0.5375664,0.84219 1.1245075,1.60861 1.6526124,2.158 0.6726666,0.69964 1.2086563,1.02527 1.686202,1.02527 0.4775705,0 1.013092,-0.32561 1.685685,-1.02527 0.5280803,-0.54937 1.1150465,-1.31579 1.6526124,-2.158 0.4708712,-0.73773 2.0071122,-3.2933 2.0071122,-5.20537 2.4e-5,-1.42078 -0.573141,-2.5437 -1.658296,-3.24683 -0.9030664,-0.58517 -2.1437011,-0.8816 -3.6871136,-0.8816 z"
         style="fill:#6f918a;stroke-width:0.02444816" />
      <path
         inkscape:connector-curvature="0"
         id="path941"
         d="m 7.0724363,296.67392 c 0.01698,-0.01 0.03038,-0.005 0.04754,-0.0155 0.277651,-0.16886 0.579927,-0.42532 0.916223,-0.77515 0.528081,-0.54937 1.115046,-1.3158 1.652612,-2.15801 0.235436,-0.36886 0.7368537,-1.19202 1.1797717,-2.16214 0.221461,-0.48506 0.428432,-1.00704 0.57981,-1.52704 0.103087,-0.3541 0.129564,-0.69217 0.168466,-1.03249 l -2.7626217,-2.76262 0.07338,0.30851 -1.144633,-1.14464 -1.121896,0.0713 -1.724442,-0.006 -0.06201,0.39843 -0.12144,1.31258 -1.5296217,5.64306 z"
         style="opacity:0.75;fill:url(#linearGradient984);fill-opacity:1;stroke:none;stroke-width:0.26458332px;stroke-linecap:butt;stroke-linejoin:miter;stroke-opacity:1" />
      <path
         inkscape:connector-curvature="0"
         id="path4588"
         d="m 6.3502587,284.39147 c -1.5434366,0 -2.7839985,0.29643 -3.6871135,0.8816 -1.0851073,0.7031 -1.6588137,1.82603 -1.6588137,3.24683 0,1.91207 1.5362412,4.46762 2.0071128,5.20537 0.5375664,0.84219 1.1245074,1.60861 1.6526123,2.158 0.6726666,0.69964 1.2086564,1.02527 1.6862021,1.02527 0.4775705,0 1.0130919,-0.32561 1.685685,-1.02527 0.5280803,-0.54937 1.1150462,-1.31579 1.6526123,-2.158 0.470871,-0.73773 2.007112,-3.2933 2.007112,-5.20537 2.5e-5,-1.42078 -0.573141,-2.5437 -1.658296,-3.24683 -0.9030662,-0.58517 -2.1437011,-0.8816 -3.6871133,-0.8816 z m 0,0.0382 c 0.5589177,0.0225 1.0898962,0.0719 1.554427,0.18294 0.3079843,0.0736 0.5960941,0.16587 0.863513,0.27595 0.2674191,0.11008 0.5142402,0.23818 0.7400068,0.38447 0.2712886,0.17578 0.5104175,0.37775 0.7167515,0.6041 0.206334,0.22635 0.379882,0.47723 0.519348,0.75034 0.139467,0.27311 0.245057,0.56864 0.315743,0.8847 0.07069,0.31606 0.10646,0.6525 0.106454,1.00769 0,0.47802 -0.09615,0.99619 -0.24753,1.51619 -0.15138,0.51999 -0.357833,1.04198 -0.579293,1.52704 -0.4429192,0.97011 -0.9448536,1.79328 -1.1802896,2.16214 -0.5375659,0.84221 -1.1245321,1.60863 -1.6526124,2.158 -0.3362965,0.34983 -0.6385721,0.60629 -0.916223,0.77515 -0.084411,0.0513 -0.1636318,0.0811 -0.2408121,0.10335 -0.07713,-0.0222 -0.1559877,-0.0521 -0.2402956,-0.10335 -0.2777739,-0.16886 -0.5798897,-0.42533 -0.916223,-0.77515 -0.5281049,-0.54939 -1.115046,-1.31581 -1.6526124,-2.158 -0.2354357,-0.36888 -0.7373704,-1.19203 -1.1802898,-2.16215 -0.2214594,-0.48505 -0.4279128,-1.00704 -0.5792928,-1.52703 -0.1513798,-0.52 -0.2475299,-1.03817 -0.2475301,-1.51619 0,-0.3552 0.035714,-0.69163 0.1064535,-1.00769 0.07074,-0.31606 0.1767274,-0.61159 0.3162599,-0.8847 0.1395325,-0.27311 0.3129698,-0.52399 0.519348,-0.75034 0.2063781,-0.22635 0.4454755,-0.42832 0.7167522,-0.6041 0.2257788,-0.14629 0.4725871,-0.27439 0.7400066,-0.38447 0.2674194,-0.11008 0.5555334,-0.20233 0.8635132,-0.27595 0.4645234,-0.11106 0.9955051,-0.16048 1.5544271,-0.18294 z"
         style="opacity:0.2;fill:#000000;stroke-width:0.02444816" />
      <path
         sodipodi:nodetypes="cccc"
         inkscape:connector-curvature="0"
         id="path3818-6"
         d="m 3.2132672,286.8679 0.6270275,-0.62711 H 8.856522 l 0.6270281,0.62711"
         style="fill:url(#linearGradient933-5);fill-opacity:1;stroke:none;stroke-width:0.01567571;stroke-linecap:butt;stroke-linejoin:miter;stroke-miterlimit:4;stroke-dasharray:none;stroke-opacity:1" />
      <path
         sodipodi:nodetypes="cccccccccccccc"
         inkscape:connector-curvature="0"
         id="path5041-2"
         d="m 4.7556447,287.18138 v -1.56199 c 0,-0.16231 0.1567571,-0.31917 0.3135141,-0.31917 h 2.5025161 c 0.1623541,0 0.3191132,0.15686 0.3191132,0.31917 v 1.87547 H 7.5772724 v -1.55074 c 0,-0.33029 0,-0.33029 -0.313514,-0.33029 H 5.3826728 c -0.313514,0 -0.313514,0 -0.313514,0.31348 v 1.56755 H 4.7556447 Z"
         style="fill:#6c5367;fill-opacity:1;stroke:none;stroke-width:0.01567571;stroke-miterlimit:4;stroke-dasharray:none;stroke-opacity:0.41960784" />
      <path
         sodipodi:nodetypes="cccccccccccccc"
         inkscape:connector-curvature="0"
         id="path5041-5-9"
         d="m 4.7381574,287.56628 v -1.56199 c 0,-0.16231 0.156757,-0.31917 0.313514,-0.31917 h 2.5025161 c 0.1623542,0 0.3191132,0.15686 0.3191132,0.31917 v 1.87548 H 7.5597853 v -1.55075 c 0,-0.33029 0,-0.33029 -0.3135143,-0.33029 H 5.3651854 c -0.313514,0 -0.313514,0 -0.313514,0.31348 v 1.56756 h -0.313514 z"
         style="fill:#ac93a7;fill-opacity:1;stroke:none;stroke-width:0.01567571;stroke-miterlimit:4;stroke-dasharray:none;stroke-opacity:0.41960784" />
      <path
         sodipodi:nodetypes="ccccc"
         inkscape:connector-curvature="0"
         id="rect3757-1"
         d="m 3.2259191,286.8679 h 6.2608137 c -0.3166962,1.25407 -0.3166962,2.97837 0,5.95686 H 3.2259191 c 0.3008625,-2.97849 0.3008625,-4.70279 0,-5.95686 z"
         style="fill:url(#radialGradient3795);fill-opacity:1.0;stroke:none;stroke-width:0.01567571;stroke-miterlimit:4;stroke-dasharray:none;stroke-opacity:1" />
      <path
         inkscape:connector-curvature="0"
         id="path916"
         d="m 4.6069536,292.82454 h 4.8648187 c -0.158348,-1.48924 -0.237711,-2.66495 -0.237711,-3.6251 0,-0.0536 0.0062,-0.0919 0.0067,-0.14417 l -1.683102,-1.69241 -0.0248,0.57258 -0.373621,0.43615 -0.03721,0.57257 0.323494,0.37362 -0.136942,0.29869 -2.223637,-2.2133 -0.07958,0.6072 -0.3364127,0.58497 0.0088,0.3974 0.2526977,0.28783 -0.6971157,0.43564 -0.04392,1.39423 1.0650517,1.05833 -1.0960567,0.18707 z"
         style="opacity:0.5;fill:url(#linearGradient953);fill-opacity:1;stroke:none;stroke-width:0.26458332px;stroke-linecap:butt;stroke-linejoin:miter;stroke-opacity:1" />
      <path
         id="path855"
         d="m 7.4600943,287.28277 c 0.0063,-0.005 0.01455,-0.005 0.02118,0.003 0.03665,0.0285 0.06838,0.0619 0.09567,0.0975 0.104972,0.13728 0.15264,0.30623 0.15264,0.47034 0,0.0986 0.01023,0.17961 0.02775,0.2264 0.04387,0.11717 0.12113,0.065 0.108455,-0.13985 -0.0011,-0.0172 0.01912,-0.0274 0.03214,-0.0159 0.0435,0.038 0.118514,0.12671 0.179663,0.31661 0.04756,0.14982 0.0571,0.26866 0.05076,0.35347 -0.0172,0.27752 -0.169733,0.41689 -0.305646,0.4864 -0.01751,0.009 -0.0355,-0.0106 -0.0252,-0.0274 0.109798,-0.17851 0.04154,-0.39307 -0.08289,-0.56345 -0.129286,-0.17705 -0.176741,-0.37612 -0.176741,-0.37612 0,0 -0.08964,0.17085 -0.236995,0.50027 -0.08836,0.19755 -0.03301,0.3507 0.02556,0.44185 0.01079,0.0168 -0.0079,0.0371 -0.02556,0.0277 -0.09083,-0.0483 -0.183828,-0.13088 -0.250506,-0.27167 -0.03487,-0.0736 -0.133127,-0.34486 0.120506,-0.69821 0.279739,-0.38092 0.287049,-0.69978 0.278989,-0.81104 -5.99e-4,-0.008 0.0039,-0.0152 0.01023,-0.0188 z"
         style="fill:#ff6600;stroke-width:0.01727615"
         inkscape:connector-curvature="0" />
      <path
         id="path853"
         d="m 4.9714713,287.29775 c 0.0063,-0.005 0.01455,-0.005 0.02118,0.003 0.03665,0.0284 0.06874,0.0619 0.09604,0.0975 0.104971,0.13727 0.152275,0.30622 0.152275,0.47032 0,0.0986 0.01023,0.17924 0.02775,0.22604 0.04387,0.11717 0.12113,0.0653 0.108455,-0.1395 -0.0011,-0.0172 0.01912,-0.0274 0.03214,-0.0159 0.0435,0.0381 0.118514,0.12672 0.179663,0.3166 0.04756,0.14983 0.0571,0.26832 0.05076,0.35312 -0.0172,0.27752 -0.169368,0.41725 -0.305281,0.48678 -0.01751,0.009 -0.03587,-0.011 -0.02556,-0.0277 0.109798,-0.17853 0.0419,-0.39272 -0.08253,-0.5631 -0.129285,-0.17703 -0.177107,-0.37612 -0.177107,-0.37612 0,0 -0.08964,0.17049 -0.236994,0.49993 -0.08836,0.19753 -0.03301,0.35105 0.02556,0.44221 0.01079,0.0168 -0.0076,0.0371 -0.0252,0.0277 -0.09083,-0.0483 -0.1838287,-0.13087 -0.2505057,-0.27169 -0.03487,-0.0736 -0.133492,-0.34521 0.12014,-0.69856 0.2797397,-0.38092 0.2870497,-0.69943 0.2789887,-0.81068 -6.16e-4,-0.008 0.0039,-0.0151 0.01023,-0.0187 z"
         style="fill:#ff6600;stroke-width:0.01727615"
         inkscape:connector-curvature="0" />
      <path
         id="path851"
         d="m 4.4032686,289.20793 h 0.5842697 v 1.25144 c 0,0.046 -0.03758,0.0836 -0.08362,0.0836 -0.04604,0 -0.08326,-0.0376 -0.08326,-0.0836 v -0.33376 c 0,-0.13802 -0.1124987,-0.25014 -0.2505057,-0.25014 -0.138006,0 -0.25014,0.11212 -0.25014,0.25014 v 0.91802 c 0,0.046 -0.03758,0.0836 -0.08362,0.0836 -0.04604,0 -0.08326,-0.0376 -0.08326,-0.0836 v -1.58556 c 0,-0.138 0.112134,-0.25014 0.250141,-0.25014 z"
         style="fill:#e3dbdb;fill-opacity:1;stroke-width:0.01727615"
         inkscape:connector-curvature="0" />
      <path
         id="path849"
         d="m 5.1544203,289.20793 h 0.667528 v 3.00389 h 0.166882 v 0.16689 H 4.1531286 v -0.16689 h 0.166882 v -0.93338 c 0.09689,-0.0345 0.166882,-0.12617 0.166882,-0.23481 v -0.91802 c 0,-0.046 0.03721,-0.0833 0.08326,-0.0833 0.04604,0 0.08362,0.0371 0.08362,0.0833 v 0.33376 c 0,0.13801 0.1121347,0.2505 0.2501407,0.2505 0.138006,0 0.250505,-0.11249 0.250505,-0.2505 z"
         style="fill:#e3dbdb;fill-opacity:1;stroke-width:0.01727615"
         inkscape:connector-curvature="0" />
      <path
         id="path847"
         d="m 7.4341673,289.20903 c 0.07562,-0.005 0.150304,7e-4 0.223483,0.0111 v 1.23939 c 0,0.138 0.1125,0.25051 0.250506,0.25051 0.138006,0 0.250505,-0.11251 0.250505,-0.25051 v -0.33376 c 0,-0.046 0.03721,-0.0833 0.08326,-0.0833 0.04604,0 0.08362,0.0371 0.08362,0.0833 v 0.91803 c 0,0.12859 0.09774,0.23365 0.222753,0.24758 -0.02237,0.0804 -0.04699,0.15974 -0.07559,0.23554 -0.02286,0.0603 -0.08181,0.10115 -0.147163,0.10115 h -0.417388 v 0.16688 h -0.83441 v -0.16691 h -0.417388 c -0.06544,0 -0.124751,-0.0408 -0.147528,-0.10116 -0.121911,-0.32246 -0.186236,-0.68711 -0.186236,-1.05497 v -0.0712 c 0,-0.63893 0.488243,-1.1624 1.111573,-1.19154 z"
         style="fill:#e3dbdb;fill-opacity:1;stroke-width:0.01727615"
         inkscape:connector-curvature="0" />
      <path
         id="path845"
         d="m 7.8248973,289.2565 c 0.176511,0.052 0.339599,0.14431 0.476545,0.27497 0.230825,0.22024 0.357865,0.51652 0.357865,0.83405 v 0.67811 c 0,0.046 -0.03758,0.0836 -0.08362,0.0836 -0.04604,0 -0.08326,-0.0376 -0.08326,-0.0836 v -0.91802 c 0,-0.13802 -0.112499,-0.25014 -0.250505,-0.25014 -0.138007,0 -0.250141,0.11212 -0.250141,0.25014 v 0.33376 c 0,0.046 -0.03758,0.0836 -0.08362,0.0836 -0.04604,0 -0.08326,-0.0376 -0.08326,-0.0836 z"
         style="fill:#e3dbdb;fill-opacity:1;stroke-width:0.01727615"
         inkscape:connector-curvature="0" />
      <path
         inkscape:connector-curvature="0"
         id="path843"
         d="m 6.7691953,290.20923 c -0.154141,0 -0.279719,0.12521 -0.279719,0.27935 v 0.35897 c 0,0.15413 0.125578,0.27971 0.279719,0.27971 0.05073,0 0.100239,-0.014 0.143512,-0.0401 l 0.275702,-0.16506 c 0.08369,-0.0502 0.135477,-0.14228 0.135477,-0.23991 v -0.19353 c 0,-0.15414 -0.125212,-0.27935 -0.279354,-0.27935 z"
         style="fill:#1a1a1a;stroke-width:0.01727615" />
      <path
         id="path841"
         d="m 7.4907683,290.82125 -0.29323,0.39109 c -0.02604,0.0346 -0.04053,0.0775 -0.04053,0.12088 v 0.009 c 0,0.11107 0.0905,0.20157 0.201573,0.20157 0.04841,0 0.09572,-0.0179 0.132191,-0.0496 0.03647,0.0316 0.08415,0.0496 0.132556,0.0496 0.111073,0 0.201573,-0.0905 0.201573,-0.20157 v -0.009 c 0,-0.0434 -0.01458,-0.0863 -0.04053,-0.12088 z"
         style="fill:#1a1a1a;stroke-width:0.01727615"
         inkscape:connector-curvature="0" />
      <path
         id="path839"
         d="m 6.7399823,291.79479 h 0.166882 v 0.25014 h 0.166882 v -0.0832 h 0.166882 v 0.16688 h 0.166882 v -0.16688 h 0.166882 v 0.16688 h 0.166882 v -0.16688 h 0.166882 v 0.0832 h 0.166882 v -0.25014 h 0.166882 v 0.33668 c 0,0.13651 -0.112134,0.24724 -0.250141,0.24724 h -1.001657 c -0.138006,0 -0.25014,-0.11073 -0.25014,-0.24724 z"
         style="fill:#e3dbdb;fill-opacity:1;stroke-width:0.01727615"
         inkscape:connector-curvature="0" />
    </g>
  </g>
</svg>
