<?xml version="1.0" encoding="UTF-8" standalone="no"?>
<!-- Created with Inkscape (http://www.inkscape.org/) -->

<svg
   xmlns:dc="http://purl.org/dc/elements/1.1/"
   xmlns:cc="http://creativecommons.org/ns#"
   xmlns:rdf="http://www.w3.org/1999/02/22-rdf-syntax-ns#"
   xmlns:svg="http://www.w3.org/2000/svg"
   xmlns="http://www.w3.org/2000/svg"
   xmlns:xlink="http://www.w3.org/1999/xlink"
   xmlns:sodipodi="http://sodipodi.sourceforge.net/DTD/sodipodi-0.dtd"
   xmlns:inkscape="http://www.inkscape.org/namespaces/inkscape"
   width="48"
   height="48"
   viewBox="0 0 12.7 12.7"
   version="1.1"
   id="svg829"
   inkscape:version="0.92.3 (2405546, 2018-03-11)"
   sodipodi:docname="system-suspend.svg">
  <defs
     id="defs823">
    <linearGradient
       inkscape:collect="always"
       id="linearGradient849">
      <stop
         style="stop-color:#000000;stop-opacity:1;"
         offset="0"
         id="stop845" />
      <stop
         style="stop-color:#000000;stop-opacity:0;"
         offset="1"
         id="stop847" />
    </linearGradient>
    <linearGradient
       inkscape:collect="always"
       xlink:href="#linearGradient849"
       id="linearGradient871"
       gradientUnits="userSpaceOnUse"
       x1="2.0668623"
       y1="286.93338"
       x2="10.944412"
       y2="295.17593" />
  </defs>
  <sodipodi:namedview
     id="base"
     pagecolor="#ffffff"
     bordercolor="#666666"
     borderopacity="1.0"
     inkscape:pageopacity="0.0"
     inkscape:pageshadow="2"
     inkscape:zoom="10.625"
     inkscape:cx="24"
     inkscape:cy="24"
     inkscape:document-units="mm"
     inkscape:current-layer="layer1"
     showgrid="false"
     showguides="true"
     inkscape:guide-bbox="true"
     inkscape:window-width="1366"
     inkscape:window-height="719"
     inkscape:window-x="0"
     inkscape:window-y="25"
     inkscape:window-maximized="1"
     scale-x="1.9"
     units="px"
     inkscape:snap-global="true"
     inkscape:snap-smooth-nodes="true" />
  <metadata
     id="metadata826">
    <rdf:RDF>
      <cc:Work
         rdf:about="">
        <dc:format>image/svg+xml</dc:format>
        <dc:type
           rdf:resource="http://purl.org/dc/dcmitype/StillImage" />
        <dc:title />
      </cc:Work>
    </rdf:RDF>
  </metadata>
  <g
     inkscape:label="Capa 1"
     inkscape:groupmode="layer"
     id="layer1"
     transform="translate(0,-284.3)">
    <g
       id="g877">
      <path
         id="path853"
         d="m 6.3502584,284.39147 c -1.5434366,0 -2.7839984,0.29643 -3.6871134,0.8816 -1.0851074,0.7031 -1.6588135,1.82603 -1.6588135,3.24683 0,1.91207 1.5362412,4.46762 2.0071126,5.20537 0.5375664,0.84219 1.1245076,1.60861 1.6526123,2.158 0.6726666,0.69964 1.2086561,1.02527 1.686202,1.02527 0.4775705,0 1.0130917,-0.32561 1.685685,-1.02527 0.5280803,-0.54937 1.1150465,-1.31579 1.6526124,-2.158 0.4708712,-0.73773 2.0071122,-3.2933 2.0071122,-5.20537 2.4e-5,-1.42078 -0.573141,-2.5437 -1.658296,-3.24683 -0.9030667,-0.58517 -2.1437014,-0.8816 -3.6871136,-0.8816 z"
         style="fill:#a02c2c;stroke-width:0.02444816"
         inkscape:connector-curvature="0" />
      <path
         inkscape:connector-curvature="0"
         id="path879"
         d="m 1.0384376,288.19899 c -0.00724,0.10928 -0.034106,0.20779 -0.034106,0.32091 0,1.91207 1.5367579,4.46762 2.007629,5.20537 0.5375667,0.84219 1.1239911,1.60861 1.6520955,2.15801 0.6726666,0.69963 1.2086561,1.02526 1.686202,1.02526 0.4775706,0 1.0130917,-0.32561 1.685685,-1.02526 0.5280806,-0.54938 1.1150466,-1.3158 1.6526124,-2.15801 0.4708715,-0.73773 2.0071115,-3.2933 2.0071115,-5.20537 2e-6,-0.11312 -0.02687,-0.21162 -0.03411,-0.32091 -0.0221,0.42126 -0.08232,0.85937 -0.212907,1.30793 -0.15138,0.52 -0.358349,1.04198 -0.579808,1.52703 -0.442919,0.97013 -0.9448539,1.79329 -1.1802894,2.16215 -0.5375661,0.84222 -1.1245321,1.60863 -1.6526124,2.15801 -0.3362968,0.34983 -0.6380556,0.60629 -0.9157065,0.77514 -0.2776506,0.16886 -0.5311934,0.25012 -0.7699788,0.25012 -0.2387729,0 -0.4916881,-0.0813 -0.769462,-0.25012 C 5.303019,295.96039 5.0003862,295.70392 4.6640532,295.35411 4.1359512,294.80471 3.5495273,294.03828 3.0119606,293.1961 2.7765248,292.82723 2.27459,292.00407 1.8316708,291.03395 1.6102112,290.5489 1.4032414,290.02691 1.2518613,289.50692 1.1212757,289.05836 1.0605308,288.62025 1.0384376,288.19899 Z"
         style="opacity:0.5;fill:#000000;stroke-width:0.02444816" />
      <path
         inkscape:connector-curvature="0"
         id="path843"
         d="m 7.7855713,296.09515 c 0.08697,-0.0817 0.158231,-0.1163 0.250114,-0.21188 0.528081,-0.54937 1.115046,-1.3158 1.652612,-2.15801 0.235436,-0.36886 0.7373707,-1.19202 1.1802897,-2.16214 0.221459,-0.48506 0.428429,-1.00704 0.579809,-1.52704 0.118872,-0.40833 0.162877,-0.80308 0.193787,-1.19062 l -2.9016317,-2.90215 -1.743046,-0.47284 -2.639632,0.57258 -1.4939656,2.61482 0.5477701,3.06287 z"
         style="opacity:0.8;fill:url(#linearGradient871);fill-opacity:1;stroke:none;stroke-width:0.26458332px;stroke-linecap:butt;stroke-linejoin:miter;stroke-opacity:1" />
      <path
         id="path816"
         d="m 6.3500002,285.16423 a 3.9187586,3.8981337 0 0 0 -3.918624,3.89826 3.9187586,3.8981337 0 0 0 3.918624,3.89827 3.9187586,3.8981337 0 0 0 3.9186258,-3.89827 3.9187586,3.8981337 0 0 0 -3.9186258,-3.89826 z m -0.020354,0.82358 a 3.0702047,3.0540459 0 0 1 3.0701204,3.05432 3.0702047,3.0540459 0 0 1 -3.0701204,3.05364 3.0702047,3.0540459 0 0 1 -3.070472,-3.05364 3.0702047,3.0540459 0 0 1 3.070472,-3.05432 z m 1.7601699,1.18153 v 3.4e-4 l 6.995e-4,0.007 a 0.28763641,0.28763641 0 0 0 -0.042111,6.7e-4 v 3.7e-4 a 0.28763641,0.28763641 0 0 0 -0.1435227,0.0895 l -1.5296214,1.52647 -0.9527235,-0.94852 a 0.28763641,0.28763641 0 1 0 -0.3961785,0.39523 l 1.1513395,1.15168 a 0.28763641,0.28763641 0 0 0 0.3958276,0 l 1.7268334,-1.72683 a 0.28763641,0.28763641 0 0 0 -0.210546,-0.49399 z"
         style="opacity:1;fill:#f9f9f9;fill-opacity:1;stroke:none;stroke-width:0.16346359"
         inkscape:connector-curvature="0" />
    </g>
  </g>
</svg>
