<svg xmlns="http://www.w3.org/2000/svg" width="24" height="24"><defs><linearGradient id="b"><stop offset="0"/><stop offset="1" stop-opacity="0"/></linearGradient><linearGradient id="a"><stop offset="0" stop-color="#6c5353"/><stop offset="1" stop-color="#fff"/></linearGradient></defs><path d="M3.8 2.15A3.27 3.27 0 0 0 .5 5.44v13.12a3.27 3.27 0 0 0 3.28 3.29h13.13a3.27 3.27 0 0 0 3.28-3.29v-7.79l-1.64 1.9v5.9c0 .9-.74 1.64-1.64 1.64H3.79c-.9 0-1.64-.74-1.64-1.65V5.44c0-.9.74-1.65 1.64-1.65h13.13c.21 0 .38.09.56.15l1.13-1.33c-.5-.3-1.07-.46-1.69-.46H3.79zm18.07 0c-.4 0-.83.17-1.21.61l-10.3 11.8-3.7-3.7a1.63 1.63 0 0 0-2.36 0c-.6.63-.75 1.62 0 2.37l6.2 6.15L23.12 4.93c.93-1.07-.05-2.74-1.25-2.77z" fill="#1a1a1a"/></svg>