<svg xmlns="http://www.w3.org/2000/svg" width="24" height="24" viewBox="0 0 6.35 6.35"><defs><linearGradient id="c"><stop offset="0"/><stop offset="1" stop-opacity="0"/></linearGradient><linearGradient id="a"><stop offset="0" stop-color="#37a8f3"/><stop offset="1" stop-color="#366c99"/></linearGradient><linearGradient id="b"><stop stop-color="#ffe253" offset="0"/><stop stop-color="#ffca1c" offset="1"/></linearGradient></defs><path class="ColorScheme-Text" d="M3.14.26a4 4 0 0 0-.68.06c-.3.06-.45.13-.53.23-.08.09-.1.22-.1.41v.45h1.34c.06 0 .1.04.1.1v.18a.1.1 0 0 1-.1.11h-2c-.38 0-.7.22-.8.65-.14.54-.14.85 0 1.41a1 1 0 0 0 .24.48c.1.1.24.17.43.17h.39v-.55c0-.54.46-1 1.01-1H3.9c.34 0 .61-.28.61-.62V.96c0-.33-.28-.58-.63-.64-.24-.04-.5-.06-.74-.06zM2.36.6c.15 0 .27.12.27.28 0 .15-.12.27-.27.27a.27.27 0 0 1-.28-.27c0-.16.13-.28.28-.28zM4.9 1.8v.54c0 .55-.47 1.01-1.01 1.01H2.44c-.33 0-.61.3-.61.63v1.37c0 .17.06.29.18.4.12.1.28.18.47.23.44.13.85.15 1.39 0 .17-.05.34-.13.46-.23a.5.5 0 0 0 .18-.4v-.44H3.17a.1.1 0 0 1-.1-.1v-.2c0-.05.04-.1.1-.1h2.18c.19 0 .3-.05.39-.16.1-.11.17-.28.24-.5.14-.43.14-.83 0-1.4-.05-.2-.13-.36-.22-.48a.49.49 0 0 0-.4-.17zM4 5.17a.27.27 0 1 1-.27.27c0-.15.12-.27.27-.27z" color="#090d11" fill="#1a1a1a"/></svg>