<svg xmlns="http://www.w3.org/2000/svg" width="24" height="24" viewBox="0 0 6.35 6.35"><defs><linearGradient id="b"><stop offset="0" stop-color="#040000"/><stop offset="1" stop-color="#000005" stop-opacity="0"/></linearGradient><linearGradient id="a"><stop offset="0" stop-color="#1a1a1a"/><stop offset="1" stop-color="#1a1a1a" stop-opacity="0"/></linearGradient></defs><path d="M5.63.2a.08.08 0 0 0-.05 0c-.04.13-.44.53-.67.78L4.63.71c-.4-.36-.42.26-.41.27.07-.15.24-.2.52.1l-.3.3c.1.04.2.06.29.06l.2-.17c.3.3.24.33.1.53.2.05.57-.16.24-.43l-.22-.24c.25-.24.57-.6.76-.68.06-.1-.09-.26-.18-.26zM.73.2c-.1 0-.25.16-.2.26.2.1.52.44.77.68l-.23.24c-.32.27.05.48.24.43-.13-.2-.2-.23.12-.53l.2.17c.09 0 .19-.02.28-.06l-.3-.29c.28-.3.45-.25.52-.1 0-.02 0-.64-.41-.27L1.44 1C1.21.74.81.34.76.23A.08.08 0 0 0 .72.21zM3.2 1c-.56.36-1.17.48-1.75.57-.1 2.02.17 3.32 1.75 4.6 1.58-1.28 1.84-2.58 1.74-4.6A4.43 4.43 0 0 1 3.21.99zM1.73 4.52c-.3.33-.71.72-.73 1.1.32-.16.53-.49.85-.83zm2.93 0l-.11.27c.31.34.53.67.85.82-.02-.37-.43-.75-.74-1.09z" fill="#1a1a1a" stroke-width=".75"/></svg>