<svg xmlns="http://www.w3.org/2000/svg" width="24" height="24" version="1"><defs><linearGradient id="a"><stop offset="0" stop-color="#818181"/><stop offset=".5" stop-color="#fff"/><stop offset="1" stop-color="#bebebe"/></linearGradient><linearGradient id="j"><stop offset="0" stop-color="#505b5f"/><stop offset="1" stop-color="#2e3436"/></linearGradient><linearGradient id="i"><stop offset="0" stop-color="#969993"/><stop offset=".5" stop-color="#d4d8d0"/><stop offset="1" stop-color="#abaea7"/></linearGradient><linearGradient id="g"><stop offset="0" stop-color="#fcf18f"/><stop offset="1" stop-color="#fcf18f" stop-opacity="0"/></linearGradient><linearGradient id="f"><stop offset="0" stop-color="#b59300"/><stop offset="1" stop-color="#b59300" stop-opacity="0"/></linearGradient><linearGradient id="e"><stop offset="0"/><stop offset="1" stop-opacity="0"/></linearGradient><linearGradient id="h"><stop offset="0" stop-color="#8b7200"/><stop offset="1" stop-color="#544500" stop-opacity="0"/></linearGradient><linearGradient id="d"><stop offset="0" stop-color="#edd400" stop-opacity="0"/><stop offset="1" stop-color="#b8a500"/></linearGradient><linearGradient id="c"><stop offset="0" stop-color="#e9b96e"/><stop offset="1" stop-color="#b88433"/></linearGradient><linearGradient id="b"><stop offset="0" stop-color="#fcfae2" stop-opacity="0"/><stop offset="1" stop-color="#b8ab27"/></linearGradient></defs><path d="M9.9 13.03c-.36.48-.43.8-.87 1.68.36.2 1.06.68 1.6 1.58.85-.6 1.27-.73 1.7-1.17 2.86-2.93 9.55-13.06 9.26-13.3-.3-.27-9.25 7.94-11.7 11.21zm-1.7 2.5c-1.37-.11-2.62.87-3.3 3.1-.68 2.22-2.19 3.23-2.5 3.2 1.72.44 6.93 1.48 7.62-4.49C9.34 16 8.2 15.53 8.2 15.53z" fill="#1a1a1a"/></svg>