<?xml version="1.0" encoding="UTF-8" standalone="no"?>
<svg
   xmlns:dc="http://purl.org/dc/elements/1.1/"
   xmlns:cc="http://creativecommons.org/ns#"
   xmlns:rdf="http://www.w3.org/1999/02/22-rdf-syntax-ns#"
   xmlns:svg="http://www.w3.org/2000/svg"
   xmlns="http://www.w3.org/2000/svg"
   xmlns:sodipodi="http://sodipodi.sourceforge.net/DTD/sodipodi-0.dtd"
   xmlns:inkscape="http://www.inkscape.org/namespaces/inkscape"
   fill="#000000"
   height="48"
   viewBox="0 0 48 48"
   width="48"
   version="1.1"
   id="svg4"
   sodipodi:docname="aptdaemon-working.svg"
   inkscape:version="0.92.3 (2405546, 2018-03-11)">
  <metadata
     id="metadata10">
    <rdf:RDF>
      <cc:Work
         rdf:about="">
        <dc:format>image/svg+xml</dc:format>
        <dc:type
           rdf:resource="http://purl.org/dc/dcmitype/StillImage" />
        <dc:title />
      </cc:Work>
    </rdf:RDF>
  </metadata>
  <defs
     id="defs8" />
  <sodipodi:namedview
     pagecolor="#ffffff"
     bordercolor="#666666"
     borderopacity="1"
     objecttolerance="10"
     gridtolerance="10"
     guidetolerance="10"
     inkscape:pageopacity="0"
     inkscape:pageshadow="2"
     inkscape:window-width="1366"
     inkscape:window-height="690"
     id="namedview6"
     showgrid="false"
     inkscape:zoom="4.9166667"
     inkscape:cx="24"
     inkscape:cy="24"
     inkscape:window-x="0"
     inkscape:window-y="28"
     inkscape:window-maximized="1"
     inkscape:current-layer="svg4"
     showguides="true"
     inkscape:guide-bbox="true" />
  <path
     style="opacity:1;fill:#cccccc;fill-opacity:0.95373667;fill-rule:nonzero;stroke:none;stroke-width:0.27330509;stroke-linecap:butt;stroke-linejoin:round;stroke-miterlimit:4;stroke-dasharray:none;stroke-dashoffset:0;stroke-opacity:1;paint-order:markers fill stroke"
     d="M 23.787109 2.4414062 A 21.771761 21.864407 0 0 0 2.015625 24.304688 A 21.771761 21.864407 0 0 0 23.787109 46.169922 A 21.771761 21.864407 0 0 0 45.558594 24.304688 A 21.771761 21.864407 0 0 0 23.787109 2.4414062 z M 20.943359 8.0253906 C 21.146345 8.0227137 21.396315 8.1379146 21.669922 8.3828125 L 25.585938 11.886719 C 26.315556 12.539779 27.280258 12.36382 27.730469 11.494141 L 28.798828 9.4277344 C 29.249038 8.5580554 29.867304 8.6083735 30.171875 9.5390625 L 31.804688 14.529297 C 32.109258 15.459986 33.033084 15.790149 33.857422 15.261719 L 35.820312 14.001953 C 36.644769 13.473404 37.154431 13.824859 36.953125 14.783203 L 35.873047 19.923828 C 35.67174 20.882173 36.308942 21.628844 37.287109 21.583984 L 39.611328 21.478516 C 40.589494 21.433649 40.854589 21.993274 40.201172 22.722656 L 36.695312 26.634766 C 36.042013 27.364147 36.220047 28.32956 37.089844 28.779297 L 39.15625 29.847656 C 40.026167 30.297393 39.977683 30.914534 39.046875 31.21875 L 34.050781 32.851562 C 33.120092 33.155778 32.791407 34.080197 33.320312 34.904297 L 34.578125 36.865234 C 35.10703 37.689335 34.755219 38.199117 33.796875 37.998047 L 28.654297 36.917969 C 27.695952 36.716899 26.949281 37.353865 26.994141 38.332031 L 27.099609 40.652344 C 27.144476 41.630511 26.585088 41.897202 25.855469 41.244141 L 21.941406 37.740234 C 21.211787 37.087173 20.245133 37.263132 19.794922 38.132812 L 18.726562 40.199219 C 18.276352 41.068898 17.658089 41.01858 17.353516 40.087891 L 15.720703 35.097656 C 15.41625 34.166968 14.492307 33.836685 13.667969 34.365234 L 11.705078 35.625 C 10.88074 36.153549 10.371078 35.800142 10.572266 34.841797 L 11.652344 29.703125 C 11.853651 28.74478 11.216448 27.998109 10.238281 28.042969 L 7.9160156 28.148438 C 6.9377306 28.193304 6.6708017 27.633679 7.3242188 26.904297 L 10.830078 22.992188 C 11.483376 22.262806 11.305345 21.297392 10.435547 20.847656 L 8.3691406 19.779297 C 7.4992236 19.329561 7.5496607 18.712418 8.4804688 18.408203 L 13.474609 16.775391 C 14.405416 16.471056 14.733983 15.548709 14.205078 14.724609 L 12.947266 12.763672 C 12.41836 11.939572 12.770172 11.429789 13.728516 11.630859 L 18.871094 12.708984 C 19.829439 12.909935 20.578193 12.273089 20.533203 11.294922 L 20.425781 8.9746094 C 20.397666 8.363255 20.60505 8.0298521 20.943359 8.0253906 z M 23.59375 16.197266 C 18.7936 16.197266 14.888672 20.10078 14.888672 24.898438 C 14.888672 29.69645 18.793719 33.599609 23.59375 33.599609 C 28.393545 33.599609 32.298828 29.696451 32.298828 24.898438 C 32.298828 20.101016 28.393545 16.197504 23.59375 16.197266 z "
     id="path812" />
</svg>
