<svg xmlns="http://www.w3.org/2000/svg" height="24" width="24"><path d="M8.67 2L4.22 6.43h3.34v3.31h2.22V6.43h3.33L8.67 2zm.12 9a1 .98 0 0 0-1 .99 1 .98 0 0 0 1 .98 1 .98 0 0 0 1-.98 1 .98 0 0 0-1-.98zm6.4 0a1 .98 0 0 0-1 .99 1 .98 0 0 0 1 .98 1 .98 0 0 0 1-.98 1 .98 0 0 0-1-.98zm-9.59.03a1 .98 0 0 0-1 .98 1 .98 0 0 0 1 .98 1 .98 0 0 0 1-.98 1 .98 0 0 0-1-.98zm6.4 0a1 .98 0 0 0-1 .98 1 .98 0 0 0 1 .98 1 .98 0 0 0 1-.98 1 .98 0 0 0-1-.98zm6.4 0a1 .98 0 0 0-1 .98 1 .98 0 0 0 1 .98 1 .98 0 0 0 1-.98 1 .98 0 0 0-1-.98zm-4.18 3.23v3.31H10.9L15.33 22l4.45-4.43h-3.34v-3.31h-2.22z" fill="#c83737"/></svg>