<svg xmlns="http://www.w3.org/2000/svg" width="24" height="24"><path d="M19.97.96a.7.7 0 0 0-.21.03L2.19 6.87a.7.7 0 0 0-.45.88L2.17 9a2.12 2.12 0 0 0 .4 3.38v9.95a.7.7 0 0 0 0 .06.7.7 0 0 0 0 .03.7.7 0 0 0 0 .05.7.7 0 0 0 .02.05.7.7 0 0 0 .02.06.7.7 0 0 0 0 .01.7.7 0 0 0 .03.06.7.7 0 0 0 .03.06.7.7 0 0 0 .03.05.7.7 0 0 0 .02.02.7.7 0 0 0 .03.03.7.7 0 0 0 .02.02.7.7 0 0 0 .02.03.7.7 0 0 0 .04.02.7.7 0 0 0 0 .01.7.7 0 0 0 .06.04.7.7 0 0 0 .06.03.7.7 0 0 0 .06.03.7.7 0 0 0 .03.01.7.7 0 0 0 .03.01.7.7 0 0 0 .03.01.7.7 0 0 0 .05.01.7.7 0 0 0 .06 0 .7.7 0 0 0 .06.01h18.52a.7.7 0 0 0 .71-.7V10.3H5.67a2.17 2.17 0 0 0-.34-.93L21.5 3.98l-.85-2.55a.7.7 0 0 0-.62-.47.7.7 0 0 0-.06 0zm-1.86 1.4l-.5 2.1-2.14.7.5-2.08zm-5.27 1.78l-.52 2.08-2.14.7.51-2.08zM7.54 5.9l-.5 2.08-2.14.72.5-2.09zM3.49 9.46a1.08 1.08 0 0 1 .1 0 1.08 1.08 0 0 1 0 2.16 1.08 1.08 0 1 1-.1-2.16zm2.93 1.4h2.25L7.5 12.67H5.26zm5.56 0h2.26l-1.15 1.81h-2.25zm5.57 0h2.26l-1.14 1.81H16.4zm-6.57 4.5l3.81 2.38-3.8 2.4z" fill="#1a1a1a"/></svg>