<svg xmlns="http://www.w3.org/2000/svg" xmlns:xlink="http://www.w3.org/1999/xlink" width="48" height="48" version="1"><defs><linearGradient id="b"><stop offset="0"/><stop offset="1" stop-opacity="0"/></linearGradient><linearGradient id="a"><stop offset="0" stop-color="#2b1100"/><stop offset="1" stop-color="#f95"/></linearGradient><linearGradient xlink:href="#b" id="e" gradientUnits="userSpaceOnUse" x1="8.05" y1="31.73" x2="56.86" y2="31.73"/><linearGradient xlink:href="#c" id="d" x1="1.09" y1="1" x2="46.91" y2="47" gradientUnits="userSpaceOnUse"/><linearGradient id="c"><stop offset="0" stop-color="#37abc8"/><stop offset="1" stop-color="#87cdde"/></linearGradient></defs><rect width="45.83" height="46" x="1.09" y="1" ry="5.05" fill="url(#d)" fill-rule="evenodd"/><path d="M25.2 47h16.66a5.06 5.06 0 0 0 5.05-5.05V25.1L35.9 14.1l-.85 1.04-5.5-5.51s-.8 3.59-.76 4.31c.03.73-5.04-.53-5.04-.53l-2.7 1.8-11.47 3.9 4.17 4.17-4.92 3.6 5 5-1.67 2.09z" opacity=".5" fill="url(#e)"/><g fill="#1a1a1a"><path d="M36.1 27.6c-.8-.4-.95-1.29-.36-1.94l3.19-3.56c.6-.67.35-1.17-.54-1.13l-2.12.1c-.88.04-1.46-.64-1.27-1.5l.97-4.69c.2-.86-.27-1.17-1.03-.7l-1.77 1.14c-.76.49-1.6.19-1.87-.67l-1.5-4.52c-.27-.86-.82-.9-1.23-.11l-.97 1.88c-.41.79-1.3.95-1.96.36L22.1 9.07c-.66-.58-1.18-.35-1.14.54l.13 2.12c.04.88-.65 1.46-1.52 1.27l-4.66-.98c-.89-.19-1.2.28-.72 1.03l1.15 1.78c.47.76.18 1.59-.68 1.87l-4.53 1.5c-.85.26-.9.8-.1 1.23l1.88.97c.79.4.95 1.29.35 1.94L9.07 25.9c-.59.67-.36 1.17.54 1.13l2.11-.1c.88-.04 1.47.64 1.28 1.5l-.98 4.69c-.17.86.27 1.17 1.03.7l1.8-1.14c.74-.49 1.58-.19 1.85.67l1.49 4.52c.27.86.83.9 1.25.11l.96-1.88c.4-.79 1.29-.95 1.95-.36l3.55 3.19c.68.58 1.18.35 1.14-.54l-.1-2.12c-.04-.88.64-1.46 1.5-1.27l4.69.98c.86.19 1.18-.28.7-1.03l-1.14-1.78c-.49-.75-.19-1.59.67-1.87l4.52-1.5c.86-.26.9-.82.11-1.23zm-12.26 4.38a7.92 7.92 0 1 1 0-15.83 7.92 7.92 0 0 1 0 15.83z"/><path d="M23.84 17.79a6.3 6.3 0 1 0 0 12.6 6.3 6.3 0 0 0 0-12.6zm0 8.1a1.82 1.82 0 1 1 0-3.63 1.82 1.82 0 0 1 0 3.63z"/></g></svg>