<svg xmlns="http://www.w3.org/2000/svg" xmlns:xlink="http://www.w3.org/1999/xlink" width="48" height="48"><defs><linearGradient id="d"><stop offset="0" stop-color="#4d4d4d"/><stop offset="1" stop-color="gray"/></linearGradient><linearGradient id="c"><stop offset="0" stop-color="#060000"/><stop offset="1" stop-color="#040000" stop-opacity="0"/></linearGradient><linearGradient gradientTransform="matrix(-1 0 0 1 47.986 -.025)" xlink:href="#a" id="g" x1="17.099" y1="39.678" x2="17.104" y2="45.571" gradientUnits="userSpaceOnUse"/><linearGradient id="a"><stop offset="0" stop-color="#000008"/><stop offset="1" stop-color="#0b0000" stop-opacity="0"/></linearGradient><linearGradient xlink:href="#a" id="f" x1="17.099" y1="39.678" x2="17.104" y2="45.571" gradientUnits="userSpaceOnUse"/><linearGradient xlink:href="#b" id="h" x1="9.742" y1="32.987" x2="10.152" y2="9.846" gradientUnits="userSpaceOnUse" gradientTransform="matrix(.82548 0 0 .82548 16.05 -3.753)"/><linearGradient id="b"><stop offset="0" stop-color="#333"/><stop offset="1" stop-color="#4d4d4d"/></linearGradient><linearGradient xlink:href="#c" id="e" gradientUnits="userSpaceOnUse" x1="7.49" y1="7.308" x2="51.842" y2="41.387"/><linearGradient xlink:href="#d" id="i" x1="19.352" y1="17.346" x2="19.279" y2="22.86" gradientUnits="userSpaceOnUse" gradientTransform="matrix(.94692 0 0 1 1.249 0)"/><linearGradient xlink:href="#d" id="j" x1="19.352" y1="17.346" x2="19.279" y2="22.86" gradientUnits="userSpaceOnUse" gradientTransform="matrix(.94692 0 0 1 10.306 0)"/></defs><path d="M6.292 15.444c0 11.261 7.46 20.777 17.708 23.881 10.248-3.104 17.709-12.62 17.709-23.88H6.292z" fill="#483737"/><path d="M21.012.132C16.88.254 8.358 2.159 6.29 15.444c0 2.578 1.01 4.92 2.656 6.652 1.304 1.372 1.57 3.423.545 5.014l-.014.023a2.853 2.853 0 0 0-.425 1.749c.065.95.86 2.572-.051 2.851-.613.188-.512-1.582-1.137-1.521-.393.037-.377.627-.451 1.082-.03.188-.036.38-.002.568a19.98 19.98 0 0 0 3.012 7.525.805.805 0 0 0 .77.346 20.278 20.278 0 0 1 3.947-.074c.91.072 1.526.97 1.29 1.853l-.615 2.305c-.536 2.017 1.339 1.405 2.815 2.88 1.403 1.404 3.38 1.155 5.369 1.157 1.961.002 3.937.276 5.369-1.156 1.476-1.476 3.353-.861 2.816-2.879l-.617-2.309c-.236-.883.381-1.78 1.293-1.851a20.253 20.253 0 0 1 3.946.074.804.804 0 0 0 .77-.346 19.985 19.985 0 0 0 3.01-7.527 1.686 1.686 0 0 0-.001-.564c-.074-.456-.057-1.047-.451-1.084-.624-.059-.525 1.71-1.137 1.521-.911-.28-.115-1.9-.05-2.85a2.848 2.848 0 0 0-.427-1.75l-.013-.021c-1.026-1.591-.76-3.645.545-5.018a9.62 9.62 0 0 0 2.656-6.65C38.953-2.269 24.72.247 24.72.247h-1.442S22.39.09 21.012.132z" fill="#c8b7b7"/><path d="M31.797 40.268c.002-.003 0-.007.002-.01.239-.344.62-.587 1.076-.623a20.253 20.253 0 0 1 3.945.074.804.804 0 0 0 .77-.346 20.11 20.11 0 0 0 1.877-3.574c.507-1.26.89-2.581 1.135-3.953a1.685 1.685 0 0 0-.002-.565c-.037-.227-.052-.488-.106-.697-.054-.21-.148-.368-.346-.387-.311-.029-.442.4-.572.811-.13.411-.258.805-.564.711a.564.564 0 0 1-.403-.43c-.052-.206-.034-.463.012-.742.093-.559.308-1.203.34-1.678a2.848 2.848 0 0 0-.426-1.75l-.014-.021a3.927 3.927 0 0 1-.601-2.59 4.235 4.235 0 0 1 1.146-2.428 9.624 9.624 0 0 0 2.656-6.65c-.17-1.093-.498-1.888-.75-2.832L33.21 4.824 14.711 23.061z" opacity=".45" fill="url(#e)"/><g fill="#483737"><path d="M30.727 27.794s3.958 0 5.718 3.812c.733 2.639-.733 4.691-1.76 4.545-1.026-.147-6.597-1.173-7.184-3.665-.586-2.493-.733-5.132 3.226-4.692zM17.273 27.794s-3.959 0-5.718 3.812c-.733 2.639.733 4.691 1.76 4.545 1.026-.147 6.597-1.173 7.183-3.665.587-2.493.733-5.132-3.225-4.692zM24.595 32.119s4.619 6.597 1.98 8.137h-2.64-2.191c-2.639-1.54 1.98-8.137 1.98-8.137z"/></g><g fill="#241c1c"><path d="M27.269 31.292c.252-1.182 1.168-1.958 3.458-1.703 0 0 3.958 0 5.718 3.812.047.17.085.338.115.503.129-.671.119-1.455-.115-2.298-1.76-3.812-5.718-3.812-5.718-3.812-3.326-.37-3.754 1.434-3.458 3.498zM20.731 31.292c-.252-1.182-1.168-1.958-3.458-1.703 0 0-3.958 0-5.718 3.812-.047.17-.085.338-.115.503a5.028 5.028 0 0 1 .115-2.298c1.76-3.812 5.718-3.812 5.718-3.812 3.326-.37 3.754 1.434 3.458 3.498zM23.725 32.12s-3.642 5.227-2.561 7.453c.142-.645.283-1.3.58-1.963.825-1.842 1.98-3.49 1.98-3.49h.872s1.153 1.648 1.978 3.49c.298.664.438 1.319.58 1.965 1.085-2.225-2.558-7.455-2.558-7.455z"/></g><path d="M15.48 39.682c.299.103.55.373.723.623.238.344.333.789.215 1.23l-.615 2.306c-.134.504-.118.844.006 1.093.123.25.353.407.646.55.574.277 1.39.51 2.117 1.212l.059.002c-.355-3.622.437-6.601-3.15-7.016z" opacity=".471" fill="url(#f)"/><path d="M32.506 39.657c-.299.102-.55.373-.723.623a1.482 1.482 0 0 0-.215 1.23l.616 2.305c.134.504.117.845-.006 1.094-.124.25-.354.407-.647.549-.574.277-1.39.51-2.117 1.213l-.059.002c.355-3.623-.437-6.602 3.15-7.016z" opacity=".471" fill="url(#g)"/><path d="M15.486 4.54h17.027c.524 0 .946.422.946.946v17.028a.945.945 0 0 1-.946.946H15.486a.943.943 0 0 1-.945-.946V5.486c0-.524.42-.946.945-.946z" fill="url(#h)"/><g fill="#1a1a1a"><path d="M30.15 7.378v.474h2.837v-.474zM30.15 8.796v.474h2.837v-.474zM30.15 10.217v.472h2.837v-.472zM30.15 11.636v.472h2.837v-.472zM30.15 13.054v.473h2.837v-.473zM30.15 14.473v.473h2.837v-.473z"/></g><path d="M16.361 17.783c-.496 0-.896.423-.896.947v2.837c0 .524.4.947.896.947h6.27c.497 0 .897-.423.897-.947V18.73c0-.524-.4-.947-.897-.947z" fill="url(#i)"/><path d="M25.419 17.783c-.496 0-.896.423-.896.947v2.837c0 .524.4.947.896.947h6.27c.496 0 .896-.423.896-.947V18.73c0-.524-.4-.947-.896-.947z" fill="url(#j)"/></svg>